# Tiled2Unity generated file. Do not modify by hand.
# Wavefront file for 'CentralHall-Floor1_mesh_0011.obj'

# Vertices (Count = 296)
v -48 -41.6 0
v -49.06667 -41.6 0
v -49.06667 -40.53334 0
v -48 -40.53334 0
v -49.06667 -41.6 0
v -50.13334 -41.6 0
v -50.13334 -40.53334 0
v -49.06667 -40.53334 0
v -50.13334 -41.6 0
v -51.2 -41.6 0
v -51.2 -40.53334 0
v -50.13334 -40.53334 0
v -51.2 -41.6 0
v -52.26667 -41.6 0
v -52.26667 -40.53334 0
v -51.2 -40.53334 0
v -52.26667 -41.6 0
v -53.33334 -41.6 0
v -53.33334 -40.53334 0
v -52.26667 -40.53334 0
v -53.33334 -41.6 0
v -54.4 -41.6 0
v -54.4 -40.53334 0
v -53.33334 -40.53334 0
v -54.4 -41.6 0
v -55.46667 -41.6 0
v -55.46667 -40.53334 0
v -54.4 -40.53334 0
v -48 -42.66667 0
v -49.06667 -42.66667 0
v -49.06667 -41.6 0
v -48 -41.6 0
v -49.06667 -42.66667 0
v -50.13334 -42.66667 0
v -50.13334 -41.6 0
v -49.06667 -41.6 0
v -50.13334 -42.66667 0
v -51.2 -42.66667 0
v -51.2 -41.6 0
v -50.13334 -41.6 0
v -51.2 -42.66667 0
v -52.26667 -42.66667 0
v -52.26667 -41.6 0
v -51.2 -41.6 0
v -52.26667 -42.66667 0
v -53.33334 -42.66667 0
v -53.33334 -41.6 0
v -52.26667 -41.6 0
v -53.33334 -42.66667 0
v -54.4 -42.66667 0
v -54.4 -41.6 0
v -53.33334 -41.6 0
v -54.4 -42.66667 0
v -55.46667 -42.66667 0
v -55.46667 -41.6 0
v -54.4 -41.6 0
v -48 -43.73334 0
v -49.06667 -43.73334 0
v -49.06667 -42.66667 0
v -48 -42.66667 0
v -54.4 -43.73334 0
v -55.46667 -43.73334 0
v -55.46667 -42.66667 0
v -54.4 -42.66667 0
v -46.93333 -44.8 0
v -48 -44.8 0
v -48 -43.73334 0
v -46.93333 -43.73334 0
v -48 -44.8 0
v -49.06667 -44.8 0
v -49.06667 -43.73334 0
v -48 -43.73334 0
v -54.4 -44.8 0
v -55.46667 -44.8 0
v -55.46667 -43.73334 0
v -54.4 -43.73334 0
v -55.46667 -44.8 0
v -56.53334 -44.8 0
v -56.53334 -43.73334 0
v -55.46667 -43.73334 0
v -45.86667 -45.86667 0
v -46.93333 -45.86667 0
v -46.93333 -44.8 0
v -45.86667 -44.8 0
v -46.93333 -45.86667 0
v -48 -45.86667 0
v -48 -44.8 0
v -46.93333 -44.8 0
v -48 -45.86667 0
v -49.06667 -45.86667 0
v -49.06667 -44.8 0
v -48 -44.8 0
v -54.4 -45.86667 0
v -55.46667 -45.86667 0
v -55.46667 -44.8 0
v -54.4 -44.8 0
v -55.46667 -45.86667 0
v -56.53334 -45.86667 0
v -56.53334 -44.8 0
v -55.46667 -44.8 0
v -56.53334 -45.86667 0
v -57.6 -45.86667 0
v -57.6 -44.8 0
v -56.53334 -44.8 0
v -44.8 -46.93333 0
v -45.86667 -46.93333 0
v -45.86667 -45.86667 0
v -44.8 -45.86667 0
v -45.86667 -46.93333 0
v -46.93333 -46.93333 0
v -46.93333 -45.86667 0
v -45.86667 -45.86667 0
v -46.93333 -46.93333 0
v -48 -46.93333 0
v -48 -45.86667 0
v -46.93333 -45.86667 0
v -55.46667 -46.93333 0
v -56.53334 -46.93333 0
v -56.53334 -45.86667 0
v -55.46667 -45.86667 0
v -56.53334 -46.93333 0
v -57.6 -46.93333 0
v -57.6 -45.86667 0
v -56.53334 -45.86667 0
v -57.6 -46.93333 0
v -58.66667 -46.93333 0
v -58.66667 -45.86667 0
v -57.6 -45.86667 0
v -43.73334 -48 0
v -44.8 -48 0
v -44.8 -46.93333 0
v -43.73334 -46.93333 0
v -44.8 -48 0
v -45.86667 -48 0
v -45.86667 -46.93333 0
v -44.8 -46.93333 0
v -45.86667 -48 0
v -46.93333 -48 0
v -46.93333 -46.93333 0
v -45.86667 -46.93333 0
v -56.53334 -48 0
v -57.6 -48 0
v -57.6 -46.93333 0
v -56.53334 -46.93333 0
v -57.6 -48 0
v -58.66667 -48 0
v -58.66667 -46.93333 0
v -57.6 -46.93333 0
v -58.66667 -48 0
v -59.73334 -48 0
v -59.73334 -46.93333 0
v -58.66667 -46.93333 0
v -42.66667 -49.06667 0
v -43.73334 -49.06667 0
v -43.73334 -48 0
v -42.66667 -48 0
v -43.73334 -49.06667 0
v -44.8 -49.06667 0
v -44.8 -48 0
v -43.73334 -48 0
v -44.8 -49.06667 0
v -45.86667 -49.06667 0
v -45.86667 -48 0
v -44.8 -48 0
v -57.6 -49.06667 0
v -58.66667 -49.06667 0
v -58.66667 -48 0
v -57.6 -48 0
v -58.66667 -49.06667 0
v -59.73334 -49.06667 0
v -59.73334 -48 0
v -58.66667 -48 0
v -59.73334 -49.06667 0
v -60.8 -49.06667 0
v -60.8 -48 0
v -59.73334 -48 0
v -41.6 -50.13334 0
v -42.66667 -50.13334 0
v -42.66667 -49.06667 0
v -41.6 -49.06667 0
v -42.66667 -50.13334 0
v -43.73334 -50.13334 0
v -43.73334 -49.06667 0
v -42.66667 -49.06667 0
v -43.73334 -50.13334 0
v -44.8 -50.13334 0
v -44.8 -49.06667 0
v -43.73334 -49.06667 0
v -58.66667 -50.13334 0
v -59.73334 -50.13334 0
v -59.73334 -49.06667 0
v -58.66667 -49.06667 0
v -59.73334 -50.13334 0
v -60.8 -50.13334 0
v -60.8 -49.06667 0
v -59.73334 -49.06667 0
v -60.8 -50.13334 0
v -61.86667 -50.13334 0
v -61.86667 -49.06667 0
v -60.8 -49.06667 0
v -41.6 -51.2 0
v -42.66667 -51.2 0
v -42.66667 -50.13334 0
v -41.6 -50.13334 0
v -42.66667 -51.2 0
v -43.73334 -51.2 0
v -43.73334 -50.13334 0
v -42.66667 -50.13334 0
v -59.73334 -51.2 0
v -60.8 -51.2 0
v -60.8 -50.13334 0
v -59.73334 -50.13334 0
v -60.8 -51.2 0
v -61.86667 -51.2 0
v -61.86667 -50.13334 0
v -60.8 -50.13334 0
v -37.33334 -60.8 0
v -38.4 -60.8 0
v -38.4 -59.73334 0
v -37.33334 -59.73334 0
v -38.4 -60.8 0
v -39.46667 -60.8 0
v -39.46667 -59.73334 0
v -38.4 -59.73334 0
v -39.46667 -60.8 0
v -40.53334 -60.8 0
v -40.53334 -59.73334 0
v -39.46667 -59.73334 0
v -40.53334 -60.8 0
v -41.6 -60.8 0
v -41.6 -59.73334 0
v -40.53334 -59.73334 0
v -41.6 -60.8 0
v -42.66667 -60.8 0
v -42.66667 -59.73334 0
v -41.6 -59.73334 0
v -60.8 -60.8 0
v -61.86667 -60.8 0
v -61.86667 -59.73334 0
v -60.8 -59.73334 0
v -61.86667 -60.8 0
v -62.93334 -60.8 0
v -62.93334 -59.73334 0
v -61.86667 -59.73334 0
v -62.93334 -60.8 0
v -64 -60.8 0
v -64 -59.73334 0
v -62.93334 -59.73334 0
v -64 -60.8 0
v -65.06667 -60.8 0
v -65.06667 -59.73334 0
v -64 -59.73334 0
v -65.06667 -60.8 0
v -66.13334 -60.8 0
v -66.13334 -59.73334 0
v -65.06667 -59.73334 0
v -37.33334 -61.86667 0
v -38.4 -61.86667 0
v -38.4 -60.8 0
v -37.33334 -60.8 0
v -38.4 -61.86667 0
v -39.46667 -61.86667 0
v -39.46667 -60.8 0
v -38.4 -60.8 0
v -39.46667 -61.86667 0
v -40.53334 -61.86667 0
v -40.53334 -60.8 0
v -39.46667 -60.8 0
v -40.53334 -61.86667 0
v -41.6 -61.86667 0
v -41.6 -60.8 0
v -40.53334 -60.8 0
v -41.6 -61.86667 0
v -42.66667 -61.86667 0
v -42.66667 -60.8 0
v -41.6 -60.8 0
v -60.8 -61.86667 0
v -61.86667 -61.86667 0
v -61.86667 -60.8 0
v -60.8 -60.8 0
v -61.86667 -61.86667 0
v -62.93334 -61.86667 0
v -62.93334 -60.8 0
v -61.86667 -60.8 0
v -62.93334 -61.86667 0
v -64 -61.86667 0
v -64 -60.8 0
v -62.93334 -60.8 0
v -64 -61.86667 0
v -65.06667 -61.86667 0
v -65.06667 -60.8 0
v -64 -60.8 0
v -65.06667 -61.86667 0
v -66.13334 -61.86667 0
v -66.13334 -60.8 0
v -65.06667 -60.8 0

# Texture cooridinates (Count = 48)
vt 0.6497934 0.5817491
vt 0.6663223 0.5817491
vt 0.6663223 0.6121673
vt 0.6497934 0.6121673
vt 0.6146694 0.5817491
vt 0.6311983 0.5817491
vt 0.6311983 0.6121673
vt 0.6146694 0.6121673
vt 0.6673554 0.5817491
vt 0.6838843 0.5817491
vt 0.6838843 0.6121673
vt 0.6673554 0.6121673
vt 0.6322314 0.5494297
vt 0.6487603 0.5494297
vt 0.6487603 0.5798479
vt 0.6322314 0.5798479
vt 0.5971074 0.4847909
vt 0.6136364 0.4847909
vt 0.6136364 0.5152091
vt 0.5971074 0.5152091
vt 0.6673554 0.5494297
vt 0.6838843 0.5494297
vt 0.6838843 0.5798479
vt 0.6673554 0.5798479
vt 0.6497934 0.5494297
vt 0.6663223 0.5494297
vt 0.6663223 0.5798479
vt 0.6497934 0.5798479
vt 0.6497934 0.4847909
vt 0.6663223 0.4847909
vt 0.6663223 0.5152091
vt 0.6497934 0.5152091
vt 0.6146694 0.4847909
vt 0.6311983 0.4847909
vt 0.6311983 0.5152091
vt 0.6146694 0.5152091
vt 0.6673554 0.4847909
vt 0.6838843 0.4847909
vt 0.6838843 0.5152091
vt 0.6673554 0.5152091
vt 0.6849173 0.4847909
vt 0.7014463 0.4847909
vt 0.7014463 0.5152091
vt 0.6849173 0.5152091
vt 0.7024794 0.4847909
vt 0.7190083 0.4847909
vt 0.7190083 0.5152091
vt 0.7024794 0.5152091

# Normal
vn 0 0 -1

# Mesh description
g CentralHall-Floor1_mesh_0011

# Faces
f 1/1/1 2/2/1 3/3/1 4/4/1
f 5/5/1 6/6/1 7/7/1 8/8/1
f 9/5/1 10/6/1 11/7/1 12/8/1
f 13/5/1 14/6/1 15/7/1 16/8/1
f 17/5/1 18/6/1 19/7/1 20/8/1
f 21/5/1 22/6/1 23/7/1 24/8/1
f 25/9/1 26/10/1 27/11/1 28/12/1
f 29/13/1 30/14/1 31/15/1 32/16/1
f 33/17/1 34/18/1 35/19/1 36/20/1
f 37/17/1 38/18/1 39/19/1 40/20/1
f 41/17/1 42/18/1 43/19/1 44/20/1
f 45/17/1 46/18/1 47/19/1 48/20/1
f 49/17/1 50/18/1 51/19/1 52/20/1
f 53/13/1 54/14/1 55/15/1 56/16/1
f 57/13/1 58/14/1 59/15/1 60/16/1
f 61/13/1 62/14/1 63/15/1 64/16/1
f 65/1/1 66/2/1 67/3/1 68/4/1
f 69/21/1 70/22/1 71/23/1 72/24/1
f 73/25/1 74/26/1 75/27/1 76/28/1
f 77/9/1 78/10/1 79/11/1 80/12/1
f 81/1/1 82/2/1 83/3/1 84/4/1
f 85/21/1 86/22/1 87/23/1 88/24/1
f 89/29/1 90/30/1 91/31/1 92/32/1
f 93/33/1 94/34/1 95/35/1 96/36/1
f 97/25/1 98/26/1 99/27/1 100/28/1
f 101/9/1 102/10/1 103/11/1 104/12/1
f 105/1/1 106/2/1 107/3/1 108/4/1
f 109/21/1 110/22/1 111/23/1 112/24/1
f 113/29/1 114/30/1 115/31/1 116/32/1
f 117/33/1 118/34/1 119/35/1 120/36/1
f 121/25/1 122/26/1 123/27/1 124/28/1
f 125/9/1 126/10/1 127/11/1 128/12/1
f 129/1/1 130/2/1 131/3/1 132/4/1
f 133/21/1 134/22/1 135/23/1 136/24/1
f 137/29/1 138/30/1 139/31/1 140/32/1
f 141/33/1 142/34/1 143/35/1 144/36/1
f 145/25/1 146/26/1 147/27/1 148/28/1
f 149/9/1 150/10/1 151/11/1 152/12/1
f 153/1/1 154/2/1 155/3/1 156/4/1
f 157/21/1 158/22/1 159/23/1 160/24/1
f 161/29/1 162/30/1 163/31/1 164/32/1
f 165/33/1 166/34/1 167/35/1 168/36/1
f 169/25/1 170/26/1 171/27/1 172/28/1
f 173/9/1 174/10/1 175/11/1 176/12/1
f 177/1/1 178/2/1 179/3/1 180/4/1
f 181/21/1 182/22/1 183/23/1 184/24/1
f 185/29/1 186/30/1 187/31/1 188/32/1
f 189/33/1 190/34/1 191/35/1 192/36/1
f 193/25/1 194/26/1 195/27/1 196/28/1
f 197/9/1 198/10/1 199/11/1 200/12/1
f 201/13/1 202/14/1 203/15/1 204/16/1
f 205/29/1 206/30/1 207/31/1 208/32/1
f 209/33/1 210/34/1 211/35/1 212/36/1
f 213/13/1 214/14/1 215/15/1 216/16/1
f 217/25/1 218/26/1 219/27/1 220/28/1
f 221/5/1 222/6/1 223/7/1 224/8/1
f 225/5/1 226/6/1 227/7/1 228/8/1
f 229/5/1 230/6/1 231/7/1 232/8/1
f 233/21/1 234/22/1 235/23/1 236/24/1
f 237/25/1 238/26/1 239/27/1 240/28/1
f 241/5/1 242/6/1 243/7/1 244/8/1
f 245/5/1 246/6/1 247/7/1 248/8/1
f 249/5/1 250/6/1 251/7/1 252/8/1
f 253/21/1 254/22/1 255/23/1 256/24/1
f 257/37/1 258/38/1 259/39/1 260/40/1
f 261/41/1 262/42/1 263/43/1 264/44/1
f 265/41/1 266/42/1 267/43/1 268/44/1
f 269/41/1 270/42/1 271/43/1 272/44/1
f 273/45/1 274/46/1 275/47/1 276/48/1
f 277/37/1 278/38/1 279/39/1 280/40/1
f 281/41/1 282/42/1 283/43/1 284/44/1
f 285/41/1 286/42/1 287/43/1 288/44/1
f 289/41/1 290/42/1 291/43/1 292/44/1
f 293/45/1 294/46/1 295/47/1 296/48/1

