# Tiled2Unity generated file. Do not modify by hand.
# Wavefront file for 'CentralHall-Floor1_mesh_0004.obj'

# Vertices (Count = 212)
v -49.06667 -43.73334 0
v -50.13334 -43.73334 0
v -50.13334 -42.66667 0
v -49.06667 -42.66667 0
v -50.13334 -43.73334 0
v -51.2 -43.73334 0
v -51.2 -42.66667 0
v -50.13334 -42.66667 0
v -52.26667 -43.73334 0
v -53.33334 -43.73334 0
v -53.33334 -42.66667 0
v -52.26667 -42.66667 0
v -53.33334 -43.73334 0
v -54.4 -43.73334 0
v -54.4 -42.66667 0
v -53.33334 -42.66667 0
v -49.06667 -44.8 0
v -50.13334 -44.8 0
v -50.13334 -43.73334 0
v -49.06667 -43.73334 0
v -50.13334 -44.8 0
v -51.2 -44.8 0
v -51.2 -43.73334 0
v -50.13334 -43.73334 0
v -52.26667 -44.8 0
v -53.33334 -44.8 0
v -53.33334 -43.73334 0
v -52.26667 -43.73334 0
v -53.33334 -44.8 0
v -54.4 -44.8 0
v -54.4 -43.73334 0
v -53.33334 -43.73334 0
v -46.93333 -46.93333 0
v -48 -46.93333 0
v -48 -45.86667 0
v -46.93333 -45.86667 0
v -50.13334 -46.93333 0
v -51.2 -46.93333 0
v -51.2 -45.86667 0
v -50.13334 -45.86667 0
v -51.2 -46.93333 0
v -52.26667 -46.93333 0
v -52.26667 -45.86667 0
v -51.2 -45.86667 0
v -52.26667 -46.93333 0
v -53.33334 -46.93333 0
v -53.33334 -45.86667 0
v -52.26667 -45.86667 0
v -46.93333 -48 0
v -48 -48 0
v -48 -46.93333 0
v -46.93333 -46.93333 0
v -50.13334 -48 0
v -51.2 -48 0
v -51.2 -46.93333 0
v -50.13334 -46.93333 0
v -51.2 -48 0
v -52.26667 -48 0
v -52.26667 -46.93333 0
v -51.2 -46.93333 0
v -52.26667 -48 0
v -53.33334 -48 0
v -53.33334 -46.93333 0
v -52.26667 -46.93333 0
v -55.46667 -48 0
v -56.53334 -48 0
v -56.53334 -46.93333 0
v -55.46667 -46.93333 0
v -45.86667 -49.06667 0
v -46.93333 -49.06667 0
v -46.93333 -48 0
v -45.86667 -48 0
v -46.93333 -49.06667 0
v -48 -49.06667 0
v -48 -48 0
v -46.93333 -48 0
v -50.13334 -49.06667 0
v -51.2 -49.06667 0
v -51.2 -48 0
v -50.13334 -48 0
v -51.2 -49.06667 0
v -52.26667 -49.06667 0
v -52.26667 -48 0
v -51.2 -48 0
v -52.26667 -49.06667 0
v -53.33334 -49.06667 0
v -53.33334 -48 0
v -52.26667 -48 0
v -55.46667 -49.06667 0
v -56.53334 -49.06667 0
v -56.53334 -48 0
v -55.46667 -48 0
v -56.53334 -49.06667 0
v -57.6 -49.06667 0
v -57.6 -48 0
v -56.53334 -48 0
v -50.13334 -50.13334 0
v -51.2 -50.13334 0
v -51.2 -49.06667 0
v -50.13334 -49.06667 0
v -51.2 -50.13334 0
v -52.26667 -50.13334 0
v -52.26667 -49.06667 0
v -51.2 -49.06667 0
v -52.26667 -50.13334 0
v -53.33334 -50.13334 0
v -53.33334 -49.06667 0
v -52.26667 -49.06667 0
v -43.73334 -51.2 0
v -44.8 -51.2 0
v -44.8 -50.13334 0
v -43.73334 -50.13334 0
v -44.8 -51.2 0
v -45.86667 -51.2 0
v -45.86667 -50.13334 0
v -44.8 -50.13334 0
v -49.06667 -51.2 0
v -50.13334 -51.2 0
v -50.13334 -50.13334 0
v -49.06667 -50.13334 0
v -50.13334 -51.2 0
v -51.2 -51.2 0
v -51.2 -50.13334 0
v -50.13334 -50.13334 0
v -51.2 -51.2 0
v -52.26667 -51.2 0
v -52.26667 -50.13334 0
v -51.2 -50.13334 0
v -52.26667 -51.2 0
v -53.33334 -51.2 0
v -53.33334 -50.13334 0
v -52.26667 -50.13334 0
v -53.33334 -51.2 0
v -54.4 -51.2 0
v -54.4 -50.13334 0
v -53.33334 -50.13334 0
v -57.6 -51.2 0
v -58.66667 -51.2 0
v -58.66667 -50.13334 0
v -57.6 -50.13334 0
v -58.66667 -51.2 0
v -59.73334 -51.2 0
v -59.73334 -50.13334 0
v -58.66667 -50.13334 0
v -42.66667 -52.26667 0
v -43.73334 -52.26667 0
v -43.73334 -51.2 0
v -42.66667 -51.2 0
v -43.73334 -52.26667 0
v -44.8 -52.26667 0
v -44.8 -51.2 0
v -43.73334 -51.2 0
v -44.8 -52.26667 0
v -45.86667 -52.26667 0
v -45.86667 -51.2 0
v -44.8 -51.2 0
v -49.06667 -52.26667 0
v -50.13334 -52.26667 0
v -50.13334 -51.2 0
v -49.06667 -51.2 0
v -50.13334 -52.26667 0
v -51.2 -52.26667 0
v -51.2 -51.2 0
v -50.13334 -51.2 0
v -51.2 -52.26667 0
v -52.26667 -52.26667 0
v -52.26667 -51.2 0
v -51.2 -51.2 0
v -52.26667 -52.26667 0
v -53.33334 -52.26667 0
v -53.33334 -51.2 0
v -52.26667 -51.2 0
v -53.33334 -52.26667 0
v -54.4 -52.26667 0
v -54.4 -51.2 0
v -53.33334 -51.2 0
v -57.6 -52.26667 0
v -58.66667 -52.26667 0
v -58.66667 -51.2 0
v -57.6 -51.2 0
v -58.66667 -52.26667 0
v -59.73334 -52.26667 0
v -59.73334 -51.2 0
v -58.66667 -51.2 0
v -59.73334 -52.26667 0
v -60.8 -52.26667 0
v -60.8 -51.2 0
v -59.73334 -51.2 0
v -59.73334 -54.4 0
v -60.8 -54.4 0
v -60.8 -53.33334 0
v -59.73334 -53.33334 0
v -43.73334 -57.6 0
v -44.8 -57.6 0
v -44.8 -56.53334 0
v -43.73334 -56.53334 0
v -58.66667 -57.6 0
v -59.73334 -57.6 0
v -59.73334 -56.53334 0
v -58.66667 -56.53334 0
v -42.66667 -58.66667 0
v -43.73334 -58.66667 0
v -43.73334 -57.6 0
v -42.66667 -57.6 0
v -59.73334 -59.73334 0
v -60.8 -59.73334 0
v -60.8 -58.66667 0
v -59.73334 -58.66667 0
v -59.73334 -60.8 0
v -60.8 -60.8 0
v -60.8 -59.73334 0
v -59.73334 -59.73334 0

# Texture cooridinates (Count = 24)
vt 0.1859956 0.557377
vt 0.2210066 0.557377
vt 0.2210066 0.6098361
vt 0.1859956 0.6098361
vt 0.2603939 0.557377
vt 0.2954048 0.557377
vt 0.2954048 0.6098361
vt 0.2603939 0.6098361
vt 0.1487965 0.557377
vt 0.1838074 0.557377
vt 0.1838074 0.6098361
vt 0.1487965 0.6098361
vt 0.07439825 0.7803279
vt 0.1094092 0.7803279
vt 0.1094092 0.8327869
vt 0.07439825 0.8327869
vt 0 0.8360656
vt 0.03501094 0.8360656
vt 0.03501094 0.8885246
vt 0 0.8885246
vt 0.1115974 0.7803279
vt 0.1466083 0.7803279
vt 0.1466083 0.8327869
vt 0.1115974 0.8327869

# Normal
vn 0 0 -1

# Mesh description
g CentralHall-Floor1_mesh_0004

# Faces
f 1/1/1 2/2/1 3/3/1 4/4/1
f 5/5/1 6/6/1 7/7/1 8/8/1
f 9/9/1 10/10/1 11/11/1 12/12/1
f 13/1/1 14/2/1 15/3/1 16/4/1
f 17/1/1 18/2/1 19/3/1 20/4/1
f 21/5/1 22/6/1 23/7/1 24/8/1
f 25/9/1 26/10/1 27/11/1 28/12/1
f 29/1/1 30/2/1 31/3/1 32/4/1
f 33/5/1 34/6/1 35/7/1 36/8/1
f 37/9/1 38/10/1 39/11/1 40/12/1
f 41/1/1 42/2/1 43/3/1 44/4/1
f 45/5/1 46/6/1 47/7/1 48/8/1
f 49/5/1 50/6/1 51/7/1 52/8/1
f 53/9/1 54/10/1 55/11/1 56/12/1
f 57/1/1 58/2/1 59/3/1 60/4/1
f 61/5/1 62/6/1 63/7/1 64/8/1
f 65/9/1 66/10/1 67/11/1 68/12/1
f 69/1/1 70/2/1 71/3/1 72/4/1
f 73/5/1 74/6/1 75/7/1 76/8/1
f 77/9/1 78/10/1 79/11/1 80/12/1
f 81/1/1 82/2/1 83/3/1 84/4/1
f 85/5/1 86/6/1 87/7/1 88/8/1
f 89/9/1 90/10/1 91/11/1 92/12/1
f 93/1/1 94/2/1 95/3/1 96/4/1
f 97/9/1 98/10/1 99/11/1 100/12/1
f 101/1/1 102/2/1 103/3/1 104/4/1
f 105/5/1 106/6/1 107/7/1 108/8/1
f 109/1/1 110/2/1 111/3/1 112/4/1
f 113/5/1 114/6/1 115/7/1 116/8/1
f 117/9/1 118/10/1 119/11/1 120/12/1
f 121/1/1 122/2/1 123/3/1 124/4/1
f 125/1/1 126/2/1 127/3/1 128/4/1
f 129/1/1 130/2/1 131/3/1 132/4/1
f 133/5/1 134/6/1 135/7/1 136/8/1
f 137/9/1 138/10/1 139/11/1 140/12/1
f 141/1/1 142/2/1 143/3/1 144/4/1
f 145/1/1 146/2/1 147/3/1 148/4/1
f 149/1/1 150/2/1 151/3/1 152/4/1
f 153/5/1 154/6/1 155/7/1 156/8/1
f 157/9/1 158/10/1 159/11/1 160/12/1
f 161/1/1 162/2/1 163/3/1 164/4/1
f 165/1/1 166/2/1 167/3/1 168/4/1
f 169/1/1 170/2/1 171/3/1 172/4/1
f 173/5/1 174/6/1 175/7/1 176/8/1
f 177/9/1 178/10/1 179/11/1 180/12/1
f 181/1/1 182/2/1 183/3/1 184/4/1
f 185/1/1 186/2/1 187/3/1 188/4/1
f 189/13/1 190/14/1 191/15/1 192/16/1
f 193/17/1 194/18/1 195/19/1 196/20/1
f 197/13/1 198/14/1 199/15/1 200/16/1
f 201/21/1 202/22/1 203/23/1 204/24/1
f 205/13/1 206/14/1 207/15/1 208/16/1
f 209/13/1 210/14/1 211/15/1 212/16/1

