# Tiled2Unity generated file. Do not modify by hand.
# Wavefront file for 'Law_mesh_0013.obj'

# Vertices (Count = 28)
v -49.06667 -44.8 0
v -50.13334 -44.8 0
v -50.13334 -43.73334 0
v -49.06667 -43.73334 0
v -49.06667 -45.86667 0
v -50.13334 -45.86667 0
v -50.13334 -44.8 0
v -49.06667 -44.8 0
v -72.53334 -45.86667 0
v -73.60001 -45.86667 0
v -73.60001 -44.8 0
v -72.53334 -44.8 0
v -45.86667 -46.93333 0
v -46.93333 -46.93333 0
v -46.93333 -45.86667 0
v -45.86667 -45.86667 0
v -41.6 -48 0
v -42.66667 -48 0
v -42.66667 -46.93333 0
v -41.6 -46.93333 0
v -70.4 -56.53334 0
v -71.46667 -56.53334 0
v -71.46667 -55.46667 0
v -70.4 -55.46667 0
v -54.4 -57.6 0
v -55.46667 -57.6 0
v -55.46667 -56.53334 0
v -54.4 -56.53334 0

# Texture cooridinates (Count = 16)
vt 0.7200413 0.4847909
vt 0.7365702 0.4847909
vt 0.7365702 0.5152091
vt 0.7200413 0.5152091
vt 0.8078513 0.4847909
vt 0.8243802 0.4847909
vt 0.8243802 0.5152091
vt 0.8078513 0.5152091
vt 0.2283058 0.3878327
vt 0.2448347 0.3878327
vt 0.2448347 0.418251
vt 0.2283058 0.418251
vt 0.8956612 0.4847909
vt 0.9121901 0.4847909
vt 0.9121901 0.5152091
vt 0.8956612 0.5152091

# Normal
vn 0 0 -1

# Mesh description
g Law_mesh_0013

# Faces
f 1/1/1 2/2/1 3/3/1 4/4/1
f 5/5/1 6/6/1 7/7/1 8/8/1
f 9/9/1 10/10/1 11/11/1 12/12/1
f 13/13/1 14/14/1 15/15/1 16/16/1
f 17/13/1 18/14/1 19/15/1 20/16/1
f 21/5/1 22/6/1 23/7/1 24/8/1
f 25/1/1 26/2/1 27/3/1 28/4/1

