# Tiled2Unity generated file. Do not modify by hand.
# Wavefront file for 'Law_mesh_0014.obj'

# Vertices (Count = 540)
v -46.93333 -44.8 0
v -48 -44.8 0
v -48 -43.73334 0
v -46.93333 -43.73334 0
v -50.13334 -44.8 0
v -51.2 -44.8 0
v -51.2 -43.73334 0
v -50.13334 -43.73334 0
v -43.73334 -45.86667 0
v -44.8 -45.86667 0
v -44.8 -44.8 0
v -43.73334 -44.8 0
v -46.93333 -45.86667 0
v -48 -45.86667 0
v -48 -44.8 0
v -46.93333 -44.8 0
v -50.13334 -45.86667 0
v -51.2 -45.86667 0
v -51.2 -44.8 0
v -50.13334 -44.8 0
v -59.73334 -46.93333 0
v -60.8 -46.93333 0
v -60.8 -45.86667 0
v -59.73334 -45.86667 0
v -60.8 -46.93333 0
v -61.86667 -46.93333 0
v -61.86667 -45.86667 0
v -60.8 -45.86667 0
v -61.86667 -46.93333 0
v -62.93334 -46.93333 0
v -62.93334 -45.86667 0
v -61.86667 -45.86667 0
v -62.93334 -46.93333 0
v -64 -46.93333 0
v -64 -45.86667 0
v -62.93334 -45.86667 0
v -64 -46.93333 0
v -65.06667 -46.93333 0
v -65.06667 -45.86667 0
v -64 -45.86667 0
v -65.06667 -46.93333 0
v -66.13334 -46.93333 0
v -66.13334 -45.86667 0
v -65.06667 -45.86667 0
v -66.13334 -46.93333 0
v -67.2 -46.93333 0
v -67.2 -45.86667 0
v -66.13334 -45.86667 0
v -67.2 -46.93333 0
v -68.26667 -46.93333 0
v -68.26667 -45.86667 0
v -67.2 -45.86667 0
v -68.26667 -46.93333 0
v -69.33334 -46.93333 0
v -69.33334 -45.86667 0
v -68.26667 -45.86667 0
v -69.33334 -46.93333 0
v -70.4 -46.93333 0
v -70.4 -45.86667 0
v -69.33334 -45.86667 0
v -70.4 -46.93333 0
v -71.46667 -46.93333 0
v -71.46667 -45.86667 0
v -70.4 -45.86667 0
v -71.46667 -46.93333 0
v -72.53334 -46.93333 0
v -72.53334 -45.86667 0
v -71.46667 -45.86667 0
v -72.53334 -46.93333 0
v -73.60001 -46.93333 0
v -73.60001 -45.86667 0
v -72.53334 -45.86667 0
v -59.73334 -52.26667 0
v -60.8 -52.26667 0
v -60.8 -51.2 0
v -59.73334 -51.2 0
v -59.73334 -57.6 0
v -60.8 -57.6 0
v -60.8 -56.53334 0
v -59.73334 -56.53334 0
v -60.8 -57.6 0
v -61.86667 -57.6 0
v -61.86667 -56.53334 0
v -60.8 -56.53334 0
v -61.86667 -57.6 0
v -62.93334 -57.6 0
v -62.93334 -56.53334 0
v -61.86667 -56.53334 0
v -62.93334 -57.6 0
v -64 -57.6 0
v -64 -56.53334 0
v -62.93334 -56.53334 0
v -64 -57.6 0
v -65.06667 -57.6 0
v -65.06667 -56.53334 0
v -64 -56.53334 0
v -65.06667 -57.6 0
v -66.13334 -57.6 0
v -66.13334 -56.53334 0
v -65.06667 -56.53334 0
v -66.13334 -57.6 0
v -67.2 -57.6 0
v -67.2 -56.53334 0
v -66.13334 -56.53334 0
v -67.2 -57.6 0
v -68.26667 -57.6 0
v -68.26667 -56.53334 0
v -67.2 -56.53334 0
v -68.26667 -57.6 0
v -69.33334 -57.6 0
v -69.33334 -56.53334 0
v -68.26667 -56.53334 0
v -69.33334 -57.6 0
v -70.4 -57.6 0
v -70.4 -56.53334 0
v -69.33334 -56.53334 0
v -70.4 -57.6 0
v -71.46667 -57.6 0
v -71.46667 -56.53334 0
v -70.4 -56.53334 0
v -71.46667 -57.6 0
v -72.53334 -57.6 0
v -72.53334 -56.53334 0
v -71.46667 -56.53334 0
v -72.53334 -57.6 0
v -73.60001 -57.6 0
v -73.60001 -56.53334 0
v -72.53334 -56.53334 0
v -46.93333 -58.66667 0
v -48 -58.66667 0
v -48 -57.6 0
v -46.93333 -57.6 0
v -50.13334 -58.66667 0
v -51.2 -58.66667 0
v -51.2 -57.6 0
v -50.13334 -57.6 0
v -46.93333 -59.73334 0
v -48 -59.73334 0
v -48 -58.66667 0
v -46.93333 -58.66667 0
v -50.13334 -59.73334 0
v -51.2 -59.73334 0
v -51.2 -58.66667 0
v -50.13334 -58.66667 0
v -39.46667 -64 0
v -40.53334 -64 0
v -40.53334 -62.93334 0
v -39.46667 -62.93334 0
v -40.53334 -64 0
v -41.6 -64 0
v -41.6 -62.93334 0
v -40.53334 -62.93334 0
v -41.6 -64 0
v -42.66667 -64 0
v -42.66667 -62.93334 0
v -41.6 -62.93334 0
v -42.66667 -64 0
v -43.73334 -64 0
v -43.73334 -62.93334 0
v -42.66667 -62.93334 0
v -43.73334 -64 0
v -44.8 -64 0
v -44.8 -62.93334 0
v -43.73334 -62.93334 0
v -44.8 -64 0
v -45.86667 -64 0
v -45.86667 -62.93334 0
v -44.8 -62.93334 0
v -45.86667 -64 0
v -46.93333 -64 0
v -46.93333 -62.93334 0
v -45.86667 -62.93334 0
v -46.93333 -64 0
v -48 -64 0
v -48 -62.93334 0
v -46.93333 -62.93334 0
v -48 -64 0
v -49.06667 -64 0
v -49.06667 -62.93334 0
v -48 -62.93334 0
v -49.06667 -64 0
v -50.13334 -64 0
v -50.13334 -62.93334 0
v -49.06667 -62.93334 0
v -50.13334 -64 0
v -51.2 -64 0
v -51.2 -62.93334 0
v -50.13334 -62.93334 0
v -51.2 -64 0
v -52.26667 -64 0
v -52.26667 -62.93334 0
v -51.2 -62.93334 0
v -52.26667 -64 0
v -53.33334 -64 0
v -53.33334 -62.93334 0
v -52.26667 -62.93334 0
v -53.33334 -64 0
v -54.4 -64 0
v -54.4 -62.93334 0
v -53.33334 -62.93334 0
v -54.4 -64 0
v -55.46667 -64 0
v -55.46667 -62.93334 0
v -54.4 -62.93334 0
v -55.46667 -64 0
v -56.53334 -64 0
v -56.53334 -62.93334 0
v -55.46667 -62.93334 0
v -56.53334 -64 0
v -57.6 -64 0
v -57.6 -62.93334 0
v -56.53334 -62.93334 0
v -57.6 -64 0
v -58.66667 -64 0
v -58.66667 -62.93334 0
v -57.6 -62.93334 0
v -58.66667 -64 0
v -59.73334 -64 0
v -59.73334 -62.93334 0
v -58.66667 -62.93334 0
v -59.73334 -64 0
v -60.8 -64 0
v -60.8 -62.93334 0
v -59.73334 -62.93334 0
v -60.8 -64 0
v -61.86667 -64 0
v -61.86667 -62.93334 0
v -60.8 -62.93334 0
v -61.86667 -64 0
v -62.93334 -64 0
v -62.93334 -62.93334 0
v -61.86667 -62.93334 0
v -62.93334 -64 0
v -64 -64 0
v -64 -62.93334 0
v -62.93334 -62.93334 0
v -64 -64 0
v -65.06667 -64 0
v -65.06667 -62.93334 0
v -64 -62.93334 0
v -65.06667 -64 0
v -66.13334 -64 0
v -66.13334 -62.93334 0
v -65.06667 -62.93334 0
v -66.13334 -64 0
v -67.2 -64 0
v -67.2 -62.93334 0
v -66.13334 -62.93334 0
v -67.2 -64 0
v -68.26667 -64 0
v -68.26667 -62.93334 0
v -67.2 -62.93334 0
v -68.26667 -64 0
v -69.33334 -64 0
v -69.33334 -62.93334 0
v -68.26667 -62.93334 0
v -69.33334 -64 0
v -70.4 -64 0
v -70.4 -62.93334 0
v -69.33334 -62.93334 0
v -70.4 -64 0
v -71.46667 -64 0
v -71.46667 -62.93334 0
v -70.4 -62.93334 0
v -71.46667 -64 0
v -72.53334 -64 0
v -72.53334 -62.93334 0
v -71.46667 -62.93334 0
v -72.53334 -64 0
v -73.60001 -64 0
v -73.60001 -62.93334 0
v -72.53334 -62.93334 0
v -73.60001 -64 0
v -74.66667 -64 0
v -74.66667 -62.93334 0
v -73.60001 -62.93334 0
v -39.46667 -65.06667 0
v -40.53334 -65.06667 0
v -40.53334 -64 0
v -39.46667 -64 0
v -40.53334 -65.06667 0
v -41.6 -65.06667 0
v -41.6 -64 0
v -40.53334 -64 0
v -41.6 -65.06667 0
v -42.66667 -65.06667 0
v -42.66667 -64 0
v -41.6 -64 0
v -42.66667 -65.06667 0
v -43.73334 -65.06667 0
v -43.73334 -64 0
v -42.66667 -64 0
v -43.73334 -65.06667 0
v -44.8 -65.06667 0
v -44.8 -64 0
v -43.73334 -64 0
v -44.8 -65.06667 0
v -45.86667 -65.06667 0
v -45.86667 -64 0
v -44.8 -64 0
v -45.86667 -65.06667 0
v -46.93333 -65.06667 0
v -46.93333 -64 0
v -45.86667 -64 0
v -46.93333 -65.06667 0
v -48 -65.06667 0
v -48 -64 0
v -46.93333 -64 0
v -48 -65.06667 0
v -49.06667 -65.06667 0
v -49.06667 -64 0
v -48 -64 0
v -49.06667 -65.06667 0
v -50.13334 -65.06667 0
v -50.13334 -64 0
v -49.06667 -64 0
v -50.13334 -65.06667 0
v -51.2 -65.06667 0
v -51.2 -64 0
v -50.13334 -64 0
v -51.2 -65.06667 0
v -52.26667 -65.06667 0
v -52.26667 -64 0
v -51.2 -64 0
v -52.26667 -65.06667 0
v -53.33334 -65.06667 0
v -53.33334 -64 0
v -52.26667 -64 0
v -53.33334 -65.06667 0
v -54.4 -65.06667 0
v -54.4 -64 0
v -53.33334 -64 0
v -54.4 -65.06667 0
v -55.46667 -65.06667 0
v -55.46667 -64 0
v -54.4 -64 0
v -55.46667 -65.06667 0
v -56.53334 -65.06667 0
v -56.53334 -64 0
v -55.46667 -64 0
v -56.53334 -65.06667 0
v -57.6 -65.06667 0
v -57.6 -64 0
v -56.53334 -64 0
v -57.6 -65.06667 0
v -58.66667 -65.06667 0
v -58.66667 -64 0
v -57.6 -64 0
v -58.66667 -65.06667 0
v -59.73334 -65.06667 0
v -59.73334 -64 0
v -58.66667 -64 0
v -59.73334 -65.06667 0
v -60.8 -65.06667 0
v -60.8 -64 0
v -59.73334 -64 0
v -60.8 -65.06667 0
v -61.86667 -65.06667 0
v -61.86667 -64 0
v -60.8 -64 0
v -61.86667 -65.06667 0
v -62.93334 -65.06667 0
v -62.93334 -64 0
v -61.86667 -64 0
v -62.93334 -65.06667 0
v -64 -65.06667 0
v -64 -64 0
v -62.93334 -64 0
v -64 -65.06667 0
v -65.06667 -65.06667 0
v -65.06667 -64 0
v -64 -64 0
v -65.06667 -65.06667 0
v -66.13334 -65.06667 0
v -66.13334 -64 0
v -65.06667 -64 0
v -66.13334 -65.06667 0
v -67.2 -65.06667 0
v -67.2 -64 0
v -66.13334 -64 0
v -67.2 -65.06667 0
v -68.26667 -65.06667 0
v -68.26667 -64 0
v -67.2 -64 0
v -68.26667 -65.06667 0
v -69.33334 -65.06667 0
v -69.33334 -64 0
v -68.26667 -64 0
v -69.33334 -65.06667 0
v -70.4 -65.06667 0
v -70.4 -64 0
v -69.33334 -64 0
v -70.4 -65.06667 0
v -71.46667 -65.06667 0
v -71.46667 -64 0
v -70.4 -64 0
v -71.46667 -65.06667 0
v -72.53334 -65.06667 0
v -72.53334 -64 0
v -71.46667 -64 0
v -72.53334 -65.06667 0
v -73.60001 -65.06667 0
v -73.60001 -64 0
v -72.53334 -64 0
v -73.60001 -65.06667 0
v -74.66667 -65.06667 0
v -74.66667 -64 0
v -73.60001 -64 0
v -39.46667 -66.13334 0
v -40.53334 -66.13334 0
v -40.53334 -65.06667 0
v -39.46667 -65.06667 0
v -40.53334 -66.13334 0
v -41.6 -66.13334 0
v -41.6 -65.06667 0
v -40.53334 -65.06667 0
v -41.6 -66.13334 0
v -42.66667 -66.13334 0
v -42.66667 -65.06667 0
v -41.6 -65.06667 0
v -42.66667 -66.13334 0
v -43.73334 -66.13334 0
v -43.73334 -65.06667 0
v -42.66667 -65.06667 0
v -43.73334 -66.13334 0
v -44.8 -66.13334 0
v -44.8 -65.06667 0
v -43.73334 -65.06667 0
v -44.8 -66.13334 0
v -45.86667 -66.13334 0
v -45.86667 -65.06667 0
v -44.8 -65.06667 0
v -45.86667 -66.13334 0
v -46.93333 -66.13334 0
v -46.93333 -65.06667 0
v -45.86667 -65.06667 0
v -46.93333 -66.13334 0
v -48 -66.13334 0
v -48 -65.06667 0
v -46.93333 -65.06667 0
v -48 -66.13334 0
v -49.06667 -66.13334 0
v -49.06667 -65.06667 0
v -48 -65.06667 0
v -49.06667 -66.13334 0
v -50.13334 -66.13334 0
v -50.13334 -65.06667 0
v -49.06667 -65.06667 0
v -50.13334 -66.13334 0
v -51.2 -66.13334 0
v -51.2 -65.06667 0
v -50.13334 -65.06667 0
v -51.2 -66.13334 0
v -52.26667 -66.13334 0
v -52.26667 -65.06667 0
v -51.2 -65.06667 0
v -52.26667 -66.13334 0
v -53.33334 -66.13334 0
v -53.33334 -65.06667 0
v -52.26667 -65.06667 0
v -53.33334 -66.13334 0
v -54.4 -66.13334 0
v -54.4 -65.06667 0
v -53.33334 -65.06667 0
v -54.4 -66.13334 0
v -55.46667 -66.13334 0
v -55.46667 -65.06667 0
v -54.4 -65.06667 0
v -55.46667 -66.13334 0
v -56.53334 -66.13334 0
v -56.53334 -65.06667 0
v -55.46667 -65.06667 0
v -56.53334 -66.13334 0
v -57.6 -66.13334 0
v -57.6 -65.06667 0
v -56.53334 -65.06667 0
v -57.6 -66.13334 0
v -58.66667 -66.13334 0
v -58.66667 -65.06667 0
v -57.6 -65.06667 0
v -58.66667 -66.13334 0
v -59.73334 -66.13334 0
v -59.73334 -65.06667 0
v -58.66667 -65.06667 0
v -59.73334 -66.13334 0
v -60.8 -66.13334 0
v -60.8 -65.06667 0
v -59.73334 -65.06667 0
v -60.8 -66.13334 0
v -61.86667 -66.13334 0
v -61.86667 -65.06667 0
v -60.8 -65.06667 0
v -61.86667 -66.13334 0
v -62.93334 -66.13334 0
v -62.93334 -65.06667 0
v -61.86667 -65.06667 0
v -62.93334 -66.13334 0
v -64 -66.13334 0
v -64 -65.06667 0
v -62.93334 -65.06667 0
v -64 -66.13334 0
v -65.06667 -66.13334 0
v -65.06667 -65.06667 0
v -64 -65.06667 0
v -65.06667 -66.13334 0
v -66.13334 -66.13334 0
v -66.13334 -65.06667 0
v -65.06667 -65.06667 0
v -66.13334 -66.13334 0
v -67.2 -66.13334 0
v -67.2 -65.06667 0
v -66.13334 -65.06667 0
v -67.2 -66.13334 0
v -68.26667 -66.13334 0
v -68.26667 -65.06667 0
v -67.2 -65.06667 0
v -68.26667 -66.13334 0
v -69.33334 -66.13334 0
v -69.33334 -65.06667 0
v -68.26667 -65.06667 0
v -69.33334 -66.13334 0
v -70.4 -66.13334 0
v -70.4 -65.06667 0
v -69.33334 -65.06667 0
v -70.4 -66.13334 0
v -71.46667 -66.13334 0
v -71.46667 -65.06667 0
v -70.4 -65.06667 0
v -71.46667 -66.13334 0
v -72.53334 -66.13334 0
v -72.53334 -65.06667 0
v -71.46667 -65.06667 0
v -72.53334 -66.13334 0
v -73.60001 -66.13334 0
v -73.60001 -65.06667 0
v -72.53334 -65.06667 0
v -73.60001 -66.13334 0
v -74.66667 -66.13334 0
v -74.66667 -65.06667 0
v -73.60001 -65.06667 0

# Texture cooridinates (Count = 56)
vt 0.2283058 0.3231939
vt 0.2448347 0.3231939
vt 0.2448347 0.3536122
vt 0.2283058 0.3536122
vt 0.2283058 0.3555133
vt 0.2448347 0.3555133
vt 0.2448347 0.3859316
vt 0.2283058 0.3859316
vt 0.2458678 0.3555133
vt 0.2623967 0.3555133
vt 0.2623967 0.3859316
vt 0.2458678 0.3859316
vt 0.2809917 0.5817491
vt 0.2975207 0.5817491
vt 0.2975207 0.6121673
vt 0.2809917 0.6121673
vt 0.2458678 0.5817491
vt 0.2623967 0.5817491
vt 0.2623967 0.6121673
vt 0.2458678 0.6121673
vt 0.2283058 0.5494297
vt 0.2448347 0.5494297
vt 0.2448347 0.5798479
vt 0.2283058 0.5798479
vt 0.2809917 0.5494297
vt 0.2975207 0.5494297
vt 0.2975207 0.5798479
vt 0.2809917 0.5798479
vt 0.2985537 0.5494297
vt 0.3150826 0.5494297
vt 0.3150826 0.5798479
vt 0.2985537 0.5798479
vt 0.2985537 0.4847909
vt 0.3150826 0.4847909
vt 0.3150826 0.5152091
vt 0.2985537 0.5152091
vt 0.3161157 0.4847909
vt 0.3326446 0.4847909
vt 0.3326446 0.5152091
vt 0.3161157 0.5152091
vt 0.3336777 0.4847909
vt 0.3502066 0.4847909
vt 0.3502066 0.5152091
vt 0.3336777 0.5152091
vt 0.2458678 0.4847909
vt 0.2623967 0.4847909
vt 0.2623967 0.5152091
vt 0.2458678 0.5152091
vt 0.2283058 0.4847909
vt 0.2448347 0.4847909
vt 0.2448347 0.5152091
vt 0.2283058 0.5152091
vt 0.2809917 0.4847909
vt 0.2975207 0.4847909
vt 0.2975207 0.5152091
vt 0.2809917 0.5152091

# Normal
vn 0 0 -1

# Mesh description
g Law_mesh_0014

# Faces
f 1/1/1 2/2/1 3/3/1 4/4/1
f 5/1/1 6/2/1 7/3/1 8/4/1
f 9/5/1 10/6/1 11/7/1 12/8/1
f 13/9/1 14/10/1 15/11/1 16/12/1
f 17/9/1 18/10/1 19/11/1 20/12/1
f 21/13/1 22/14/1 23/15/1 24/16/1
f 25/17/1 26/18/1 27/19/1 28/20/1
f 29/17/1 30/18/1 31/19/1 32/20/1
f 33/17/1 34/18/1 35/19/1 36/20/1
f 37/17/1 38/18/1 39/19/1 40/20/1
f 41/17/1 42/18/1 43/19/1 44/20/1
f 45/17/1 46/18/1 47/19/1 48/20/1
f 49/17/1 50/18/1 51/19/1 52/20/1
f 53/17/1 54/18/1 55/19/1 56/20/1
f 57/17/1 58/18/1 59/19/1 60/20/1
f 61/17/1 62/18/1 63/19/1 64/20/1
f 65/17/1 66/18/1 67/19/1 68/20/1
f 69/17/1 70/18/1 71/19/1 72/20/1
f 73/21/1 74/22/1 75/23/1 76/24/1
f 77/25/1 78/26/1 79/27/1 80/28/1
f 81/17/1 82/18/1 83/19/1 84/20/1
f 85/17/1 86/18/1 87/19/1 88/20/1
f 89/17/1 90/18/1 91/19/1 92/20/1
f 93/17/1 94/18/1 95/19/1 96/20/1
f 97/17/1 98/18/1 99/19/1 100/20/1
f 101/17/1 102/18/1 103/19/1 104/20/1
f 105/17/1 106/18/1 107/19/1 108/20/1
f 109/17/1 110/18/1 111/19/1 112/20/1
f 113/17/1 114/18/1 115/19/1 116/20/1
f 117/17/1 118/18/1 119/19/1 120/20/1
f 121/17/1 122/18/1 123/19/1 124/20/1
f 125/17/1 126/18/1 127/19/1 128/20/1
f 129/1/1 130/2/1 131/3/1 132/4/1
f 133/1/1 134/2/1 135/3/1 136/4/1
f 137/9/1 138/10/1 139/11/1 140/12/1
f 141/9/1 142/10/1 143/11/1 144/12/1
f 145/25/1 146/26/1 147/27/1 148/28/1
f 149/17/1 150/18/1 151/19/1 152/20/1
f 153/17/1 154/18/1 155/19/1 156/20/1
f 157/17/1 158/18/1 159/19/1 160/20/1
f 161/17/1 162/18/1 163/19/1 164/20/1
f 165/17/1 166/18/1 167/19/1 168/20/1
f 169/17/1 170/18/1 171/19/1 172/20/1
f 173/17/1 174/18/1 175/19/1 176/20/1
f 177/17/1 178/18/1 179/19/1 180/20/1
f 181/17/1 182/18/1 183/19/1 184/20/1
f 185/17/1 186/18/1 187/19/1 188/20/1
f 189/17/1 190/18/1 191/19/1 192/20/1
f 193/17/1 194/18/1 195/19/1 196/20/1
f 197/17/1 198/18/1 199/19/1 200/20/1
f 201/17/1 202/18/1 203/19/1 204/20/1
f 205/17/1 206/18/1 207/19/1 208/20/1
f 209/17/1 210/18/1 211/19/1 212/20/1
f 213/17/1 214/18/1 215/19/1 216/20/1
f 217/17/1 218/18/1 219/19/1 220/20/1
f 221/17/1 222/18/1 223/19/1 224/20/1
f 225/17/1 226/18/1 227/19/1 228/20/1
f 229/17/1 230/18/1 231/19/1 232/20/1
f 233/17/1 234/18/1 235/19/1 236/20/1
f 237/17/1 238/18/1 239/19/1 240/20/1
f 241/17/1 242/18/1 243/19/1 244/20/1
f 245/17/1 246/18/1 247/19/1 248/20/1
f 249/17/1 250/18/1 251/19/1 252/20/1
f 253/17/1 254/18/1 255/19/1 256/20/1
f 257/17/1 258/18/1 259/19/1 260/20/1
f 261/17/1 262/18/1 263/19/1 264/20/1
f 265/17/1 266/18/1 267/19/1 268/20/1
f 269/17/1 270/18/1 271/19/1 272/20/1
f 273/29/1 274/30/1 275/31/1 276/32/1
f 277/33/1 278/34/1 279/35/1 280/36/1
f 281/37/1 282/38/1 283/39/1 284/40/1
f 285/37/1 286/38/1 287/39/1 288/40/1
f 289/37/1 290/38/1 291/39/1 292/40/1
f 293/37/1 294/38/1 295/39/1 296/40/1
f 297/37/1 298/38/1 299/39/1 300/40/1
f 301/37/1 302/38/1 303/39/1 304/40/1
f 305/37/1 306/38/1 307/39/1 308/40/1
f 309/37/1 310/38/1 311/39/1 312/40/1
f 313/37/1 314/38/1 315/39/1 316/40/1
f 317/37/1 318/38/1 319/39/1 320/40/1
f 321/37/1 322/38/1 323/39/1 324/40/1
f 325/37/1 326/38/1 327/39/1 328/40/1
f 329/37/1 330/38/1 331/39/1 332/40/1
f 333/37/1 334/38/1 335/39/1 336/40/1
f 337/37/1 338/38/1 339/39/1 340/40/1
f 341/37/1 342/38/1 343/39/1 344/40/1
f 345/37/1 346/38/1 347/39/1 348/40/1
f 349/37/1 350/38/1 351/39/1 352/40/1
f 353/37/1 354/38/1 355/39/1 356/40/1
f 357/37/1 358/38/1 359/39/1 360/40/1
f 361/37/1 362/38/1 363/39/1 364/40/1
f 365/37/1 366/38/1 367/39/1 368/40/1
f 369/37/1 370/38/1 371/39/1 372/40/1
f 373/37/1 374/38/1 375/39/1 376/40/1
f 377/37/1 378/38/1 379/39/1 380/40/1
f 381/37/1 382/38/1 383/39/1 384/40/1
f 385/37/1 386/38/1 387/39/1 388/40/1
f 389/37/1 390/38/1 391/39/1 392/40/1
f 393/37/1 394/38/1 395/39/1 396/40/1
f 397/37/1 398/38/1 399/39/1 400/40/1
f 401/37/1 402/38/1 403/39/1 404/40/1
f 405/41/1 406/42/1 407/43/1 408/44/1
f 409/45/1 410/46/1 411/47/1 412/48/1
f 413/49/1 414/50/1 415/51/1 416/52/1
f 417/49/1 418/50/1 419/51/1 420/52/1
f 421/49/1 422/50/1 423/51/1 424/52/1
f 425/49/1 426/50/1 427/51/1 428/52/1
f 429/49/1 430/50/1 431/51/1 432/52/1
f 433/49/1 434/50/1 435/51/1 436/52/1
f 437/49/1 438/50/1 439/51/1 440/52/1
f 441/49/1 442/50/1 443/51/1 444/52/1
f 445/49/1 446/50/1 447/51/1 448/52/1
f 449/49/1 450/50/1 451/51/1 452/52/1
f 453/49/1 454/50/1 455/51/1 456/52/1
f 457/49/1 458/50/1 459/51/1 460/52/1
f 461/49/1 462/50/1 463/51/1 464/52/1
f 465/49/1 466/50/1 467/51/1 468/52/1
f 469/49/1 470/50/1 471/51/1 472/52/1
f 473/49/1 474/50/1 475/51/1 476/52/1
f 477/49/1 478/50/1 479/51/1 480/52/1
f 481/49/1 482/50/1 483/51/1 484/52/1
f 485/49/1 486/50/1 487/51/1 488/52/1
f 489/49/1 490/50/1 491/51/1 492/52/1
f 493/49/1 494/50/1 495/51/1 496/52/1
f 497/49/1 498/50/1 499/51/1 500/52/1
f 501/49/1 502/50/1 503/51/1 504/52/1
f 505/49/1 506/50/1 507/51/1 508/52/1
f 509/49/1 510/50/1 511/51/1 512/52/1
f 513/49/1 514/50/1 515/51/1 516/52/1
f 517/49/1 518/50/1 519/51/1 520/52/1
f 521/49/1 522/50/1 523/51/1 524/52/1
f 525/49/1 526/50/1 527/51/1 528/52/1
f 529/49/1 530/50/1 531/51/1 532/52/1
f 533/49/1 534/50/1 535/51/1 536/52/1
f 537/53/1 538/54/1 539/55/1 540/56/1

