# Tiled2Unity generated file. Do not modify by hand.
# Wavefront file for 'CentralHall_mesh_0004.obj'

# Vertices (Count = 496)
v -48 -21.33333 0
v -49.06667 -21.33333 0
v -49.06667 -20.26667 0
v -48 -20.26667 0
v -49.06667 -21.33333 0
v -50.13334 -21.33333 0
v -50.13334 -20.26667 0
v -49.06667 -20.26667 0
v -50.13334 -21.33333 0
v -51.2 -21.33333 0
v -51.2 -20.26667 0
v -50.13334 -20.26667 0
v -51.2 -21.33333 0
v -52.26667 -21.33333 0
v -52.26667 -20.26667 0
v -51.2 -20.26667 0
v -52.26667 -21.33333 0
v -53.33334 -21.33333 0
v -53.33334 -20.26667 0
v -52.26667 -20.26667 0
v -43.73334 -22.4 0
v -44.8 -22.4 0
v -44.8 -21.33333 0
v -43.73334 -21.33333 0
v -44.8 -22.4 0
v -45.86667 -22.4 0
v -45.86667 -21.33333 0
v -44.8 -21.33333 0
v -45.86667 -22.4 0
v -46.93333 -22.4 0
v -46.93333 -21.33333 0
v -45.86667 -21.33333 0
v -46.93333 -22.4 0
v -48 -22.4 0
v -48 -21.33333 0
v -46.93333 -21.33333 0
v -48 -22.4 0
v -49.06667 -22.4 0
v -49.06667 -21.33333 0
v -48 -21.33333 0
v -49.06667 -22.4 0
v -50.13334 -22.4 0
v -50.13334 -21.33333 0
v -49.06667 -21.33333 0
v -50.13334 -22.4 0
v -51.2 -22.4 0
v -51.2 -21.33333 0
v -50.13334 -21.33333 0
v -51.2 -22.4 0
v -52.26667 -22.4 0
v -52.26667 -21.33333 0
v -51.2 -21.33333 0
v -52.26667 -22.4 0
v -53.33334 -22.4 0
v -53.33334 -21.33333 0
v -52.26667 -21.33333 0
v -53.33334 -22.4 0
v -54.4 -22.4 0
v -54.4 -21.33333 0
v -53.33334 -21.33333 0
v -54.4 -22.4 0
v -55.46667 -22.4 0
v -55.46667 -21.33333 0
v -54.4 -21.33333 0
v -55.46667 -22.4 0
v -56.53334 -22.4 0
v -56.53334 -21.33333 0
v -55.46667 -21.33333 0
v -56.53334 -22.4 0
v -57.6 -22.4 0
v -57.6 -21.33333 0
v -56.53334 -21.33333 0
v -43.73334 -23.46667 0
v -44.8 -23.46667 0
v -44.8 -22.4 0
v -43.73334 -22.4 0
v -44.8 -23.46667 0
v -45.86667 -23.46667 0
v -45.86667 -22.4 0
v -44.8 -22.4 0
v -45.86667 -23.46667 0
v -46.93333 -23.46667 0
v -46.93333 -22.4 0
v -45.86667 -22.4 0
v -46.93333 -23.46667 0
v -48 -23.46667 0
v -48 -22.4 0
v -46.93333 -22.4 0
v -48 -23.46667 0
v -49.06667 -23.46667 0
v -49.06667 -22.4 0
v -48 -22.4 0
v -49.06667 -23.46667 0
v -50.13334 -23.46667 0
v -50.13334 -22.4 0
v -49.06667 -22.4 0
v -50.13334 -23.46667 0
v -51.2 -23.46667 0
v -51.2 -22.4 0
v -50.13334 -22.4 0
v -51.2 -23.46667 0
v -52.26667 -23.46667 0
v -52.26667 -22.4 0
v -51.2 -22.4 0
v -52.26667 -23.46667 0
v -53.33334 -23.46667 0
v -53.33334 -22.4 0
v -52.26667 -22.4 0
v -53.33334 -23.46667 0
v -54.4 -23.46667 0
v -54.4 -22.4 0
v -53.33334 -22.4 0
v -54.4 -23.46667 0
v -55.46667 -23.46667 0
v -55.46667 -22.4 0
v -54.4 -22.4 0
v -55.46667 -23.46667 0
v -56.53334 -23.46667 0
v -56.53334 -22.4 0
v -55.46667 -22.4 0
v -56.53334 -23.46667 0
v -57.6 -23.46667 0
v -57.6 -22.4 0
v -56.53334 -22.4 0
v -43.73334 -24.53333 0
v -44.8 -24.53333 0
v -44.8 -23.46667 0
v -43.73334 -23.46667 0
v -44.8 -24.53333 0
v -45.86667 -24.53333 0
v -45.86667 -23.46667 0
v -44.8 -23.46667 0
v -45.86667 -24.53333 0
v -46.93333 -24.53333 0
v -46.93333 -23.46667 0
v -45.86667 -23.46667 0
v -46.93333 -24.53333 0
v -48 -24.53333 0
v -48 -23.46667 0
v -46.93333 -23.46667 0
v -48 -24.53333 0
v -49.06667 -24.53333 0
v -49.06667 -23.46667 0
v -48 -23.46667 0
v -49.06667 -24.53333 0
v -50.13334 -24.53333 0
v -50.13334 -23.46667 0
v -49.06667 -23.46667 0
v -50.13334 -24.53333 0
v -51.2 -24.53333 0
v -51.2 -23.46667 0
v -50.13334 -23.46667 0
v -51.2 -24.53333 0
v -52.26667 -24.53333 0
v -52.26667 -23.46667 0
v -51.2 -23.46667 0
v -52.26667 -24.53333 0
v -53.33334 -24.53333 0
v -53.33334 -23.46667 0
v -52.26667 -23.46667 0
v -53.33334 -24.53333 0
v -54.4 -24.53333 0
v -54.4 -23.46667 0
v -53.33334 -23.46667 0
v -54.4 -24.53333 0
v -55.46667 -24.53333 0
v -55.46667 -23.46667 0
v -54.4 -23.46667 0
v -55.46667 -24.53333 0
v -56.53334 -24.53333 0
v -56.53334 -23.46667 0
v -55.46667 -23.46667 0
v -56.53334 -24.53333 0
v -57.6 -24.53333 0
v -57.6 -23.46667 0
v -56.53334 -23.46667 0
v -42.66667 -25.6 0
v -43.73334 -25.6 0
v -43.73334 -24.53333 0
v -42.66667 -24.53333 0
v -43.73334 -25.6 0
v -44.8 -25.6 0
v -44.8 -24.53333 0
v -43.73334 -24.53333 0
v -56.53334 -25.6 0
v -57.6 -25.6 0
v -57.6 -24.53333 0
v -56.53334 -24.53333 0
v -57.6 -25.6 0
v -58.66667 -25.6 0
v -58.66667 -24.53333 0
v -57.6 -24.53333 0
v -40.53334 -26.66667 0
v -41.6 -26.66667 0
v -41.6 -25.6 0
v -40.53334 -25.6 0
v -41.6 -26.66667 0
v -42.66667 -26.66667 0
v -42.66667 -25.6 0
v -41.6 -25.6 0
v -42.66667 -26.66667 0
v -43.73334 -26.66667 0
v -43.73334 -25.6 0
v -42.66667 -25.6 0
v -43.73334 -26.66667 0
v -44.8 -26.66667 0
v -44.8 -25.6 0
v -43.73334 -25.6 0
v -56.53334 -26.66667 0
v -57.6 -26.66667 0
v -57.6 -25.6 0
v -56.53334 -25.6 0
v -57.6 -26.66667 0
v -58.66667 -26.66667 0
v -58.66667 -25.6 0
v -57.6 -25.6 0
v -58.66667 -26.66667 0
v -59.73334 -26.66667 0
v -59.73334 -25.6 0
v -58.66667 -25.6 0
v -59.73334 -26.66667 0
v -60.8 -26.66667 0
v -60.8 -25.6 0
v -59.73334 -25.6 0
v -40.53334 -27.73334 0
v -41.6 -27.73334 0
v -41.6 -26.66667 0
v -40.53334 -26.66667 0
v -41.6 -27.73334 0
v -42.66667 -27.73334 0
v -42.66667 -26.66667 0
v -41.6 -26.66667 0
v -42.66667 -27.73334 0
v -43.73334 -27.73334 0
v -43.73334 -26.66667 0
v -42.66667 -26.66667 0
v -43.73334 -27.73334 0
v -44.8 -27.73334 0
v -44.8 -26.66667 0
v -43.73334 -26.66667 0
v -56.53334 -27.73334 0
v -57.6 -27.73334 0
v -57.6 -26.66667 0
v -56.53334 -26.66667 0
v -57.6 -27.73334 0
v -58.66667 -27.73334 0
v -58.66667 -26.66667 0
v -57.6 -26.66667 0
v -58.66667 -27.73334 0
v -59.73334 -27.73334 0
v -59.73334 -26.66667 0
v -58.66667 -26.66667 0
v -59.73334 -27.73334 0
v -60.8 -27.73334 0
v -60.8 -26.66667 0
v -59.73334 -26.66667 0
v -38.4 -28.8 0
v -39.46667 -28.8 0
v -39.46667 -27.73334 0
v -38.4 -27.73334 0
v -39.46667 -28.8 0
v -40.53334 -28.8 0
v -40.53334 -27.73334 0
v -39.46667 -27.73334 0
v -40.53334 -28.8 0
v -41.6 -28.8 0
v -41.6 -27.73334 0
v -40.53334 -27.73334 0
v -41.6 -28.8 0
v -42.66667 -28.8 0
v -42.66667 -27.73334 0
v -41.6 -27.73334 0
v -42.66667 -28.8 0
v -43.73334 -28.8 0
v -43.73334 -27.73334 0
v -42.66667 -27.73334 0
v -57.6 -28.8 0
v -58.66667 -28.8 0
v -58.66667 -27.73334 0
v -57.6 -27.73334 0
v -58.66667 -28.8 0
v -59.73334 -28.8 0
v -59.73334 -27.73334 0
v -58.66667 -27.73334 0
v -59.73334 -28.8 0
v -60.8 -28.8 0
v -60.8 -27.73334 0
v -59.73334 -27.73334 0
v -60.8 -28.8 0
v -61.86667 -28.8 0
v -61.86667 -27.73334 0
v -60.8 -27.73334 0
v -61.86667 -28.8 0
v -62.93334 -28.8 0
v -62.93334 -27.73334 0
v -61.86667 -27.73334 0
v -38.4 -29.86667 0
v -39.46667 -29.86667 0
v -39.46667 -28.8 0
v -38.4 -28.8 0
v -39.46667 -29.86667 0
v -40.53334 -29.86667 0
v -40.53334 -28.8 0
v -39.46667 -28.8 0
v -40.53334 -29.86667 0
v -41.6 -29.86667 0
v -41.6 -28.8 0
v -40.53334 -28.8 0
v -59.73334 -29.86667 0
v -60.8 -29.86667 0
v -60.8 -28.8 0
v -59.73334 -28.8 0
v -60.8 -29.86667 0
v -61.86667 -29.86667 0
v -61.86667 -28.8 0
v -60.8 -28.8 0
v -61.86667 -29.86667 0
v -62.93334 -29.86667 0
v -62.93334 -28.8 0
v -61.86667 -28.8 0
v -36.26667 -30.93333 0
v -37.33334 -30.93333 0
v -37.33334 -29.86667 0
v -36.26667 -29.86667 0
v -37.33334 -30.93333 0
v -38.4 -30.93333 0
v -38.4 -29.86667 0
v -37.33334 -29.86667 0
v -38.4 -30.93333 0
v -39.46667 -30.93333 0
v -39.46667 -29.86667 0
v -38.4 -29.86667 0
v -39.46667 -30.93333 0
v -40.53334 -30.93333 0
v -40.53334 -29.86667 0
v -39.46667 -29.86667 0
v -40.53334 -30.93333 0
v -41.6 -30.93333 0
v -41.6 -29.86667 0
v -40.53334 -29.86667 0
v -59.73334 -30.93333 0
v -60.8 -30.93333 0
v -60.8 -29.86667 0
v -59.73334 -29.86667 0
v -60.8 -30.93333 0
v -61.86667 -30.93333 0
v -61.86667 -29.86667 0
v -60.8 -29.86667 0
v -61.86667 -30.93333 0
v -62.93334 -30.93333 0
v -62.93334 -29.86667 0
v -61.86667 -29.86667 0
v -62.93334 -30.93333 0
v -64 -30.93333 0
v -64 -29.86667 0
v -62.93334 -29.86667 0
v -64 -30.93333 0
v -65.06667 -30.93333 0
v -65.06667 -29.86667 0
v -64 -29.86667 0
v -36.26667 -32 0
v -37.33334 -32 0
v -37.33334 -30.93333 0
v -36.26667 -30.93333 0
v -37.33334 -32 0
v -38.4 -32 0
v -38.4 -30.93333 0
v -37.33334 -30.93333 0
v -38.4 -32 0
v -39.46667 -32 0
v -39.46667 -30.93333 0
v -38.4 -30.93333 0
v -61.86667 -32 0
v -62.93334 -32 0
v -62.93334 -30.93333 0
v -61.86667 -30.93333 0
v -62.93334 -32 0
v -64 -32 0
v -64 -30.93333 0
v -62.93334 -30.93333 0
v -64 -32 0
v -65.06667 -32 0
v -65.06667 -30.93333 0
v -64 -30.93333 0
v -36.26667 -33.06667 0
v -37.33334 -33.06667 0
v -37.33334 -32 0
v -36.26667 -32 0
v -37.33334 -33.06667 0
v -38.4 -33.06667 0
v -38.4 -32 0
v -37.33334 -32 0
v -38.4 -33.06667 0
v -39.46667 -33.06667 0
v -39.46667 -32 0
v -38.4 -32 0
v -61.86667 -33.06667 0
v -62.93334 -33.06667 0
v -62.93334 -32 0
v -61.86667 -32 0
v -62.93334 -33.06667 0
v -64 -33.06667 0
v -64 -32 0
v -62.93334 -32 0
v -64 -33.06667 0
v -65.06667 -33.06667 0
v -65.06667 -32 0
v -64 -32 0
v -36.26667 -34.13334 0
v -37.33334 -34.13334 0
v -37.33334 -33.06667 0
v -36.26667 -33.06667 0
v -64 -34.13334 0
v -65.06667 -34.13334 0
v -65.06667 -33.06667 0
v -64 -33.06667 0
v -36.26667 -35.2 0
v -37.33334 -35.2 0
v -37.33334 -34.13334 0
v -36.26667 -34.13334 0
v -64 -35.2 0
v -65.06667 -35.2 0
v -65.06667 -34.13334 0
v -64 -34.13334 0
v -36.26667 -36.26667 0
v -37.33334 -36.26667 0
v -37.33334 -35.2 0
v -36.26667 -35.2 0
v -64 -36.26667 0
v -65.06667 -36.26667 0
v -65.06667 -35.2 0
v -64 -35.2 0
v -36.26667 -37.33334 0
v -37.33334 -37.33334 0
v -37.33334 -36.26667 0
v -36.26667 -36.26667 0
v -64 -37.33334 0
v -65.06667 -37.33334 0
v -65.06667 -36.26667 0
v -64 -36.26667 0
v -36.26667 -38.4 0
v -37.33334 -38.4 0
v -37.33334 -37.33334 0
v -36.26667 -37.33334 0
v -64 -38.4 0
v -65.06667 -38.4 0
v -65.06667 -37.33334 0
v -64 -37.33334 0
v -36.26667 -39.46667 0
v -37.33334 -39.46667 0
v -37.33334 -38.4 0
v -36.26667 -38.4 0
v -64 -39.46667 0
v -65.06667 -39.46667 0
v -65.06667 -38.4 0
v -64 -38.4 0
v -36.26667 -40.53334 0
v -37.33334 -40.53334 0
v -37.33334 -39.46667 0
v -36.26667 -39.46667 0
v -64 -40.53334 0
v -65.06667 -40.53334 0
v -65.06667 -39.46667 0
v -64 -39.46667 0
v -36.26667 -41.6 0
v -37.33334 -41.6 0
v -37.33334 -40.53334 0
v -36.26667 -40.53334 0
v -64 -41.6 0
v -65.06667 -41.6 0
v -65.06667 -40.53334 0
v -64 -40.53334 0
v -36.26667 -42.66667 0
v -37.33334 -42.66667 0
v -37.33334 -41.6 0
v -36.26667 -41.6 0
v -64 -42.66667 0
v -65.06667 -42.66667 0
v -65.06667 -41.6 0
v -64 -41.6 0
v -36.26667 -43.73334 0
v -37.33334 -43.73334 0
v -37.33334 -42.66667 0
v -36.26667 -42.66667 0
v -64 -43.73334 0
v -65.06667 -43.73334 0
v -65.06667 -42.66667 0
v -64 -42.66667 0
v -36.26667 -44.8 0
v -37.33334 -44.8 0
v -37.33334 -43.73334 0
v -36.26667 -43.73334 0
v -64 -44.8 0
v -65.06667 -44.8 0
v -65.06667 -43.73334 0
v -64 -43.73334 0

# Texture cooridinates (Count = 56)
vt 0.5971074 0.5817491
vt 0.6136364 0.5817491
vt 0.6136364 0.6121673
vt 0.5971074 0.6121673
vt 0.6146694 0.5817491
vt 0.6311983 0.5817491
vt 0.6311983 0.6121673
vt 0.6146694 0.6121673
vt 0.6322314 0.5817491
vt 0.6487603 0.5817491
vt 0.6487603 0.6121673
vt 0.6322314 0.6121673
vt 0.6497934 0.5817491
vt 0.6663223 0.5817491
vt 0.6663223 0.6121673
vt 0.6497934 0.6121673
vt 0.6673554 0.4847909
vt 0.6838843 0.4847909
vt 0.6838843 0.5152091
vt 0.6673554 0.5152091
vt 0.6849173 0.4847909
vt 0.7014463 0.4847909
vt 0.7014463 0.5152091
vt 0.6849173 0.5152091
vt 0.7024794 0.4847909
vt 0.7190083 0.4847909
vt 0.7190083 0.5152091
vt 0.7024794 0.5152091
vt 0.6673554 0.5817491
vt 0.6838843 0.5817491
vt 0.6838843 0.6121673
vt 0.6673554 0.6121673
vt 0.6322314 0.5494297
vt 0.6487603 0.5494297
vt 0.6487603 0.5798479
vt 0.6322314 0.5798479
vt 0.5971074 0.4847909
vt 0.6136364 0.4847909
vt 0.6136364 0.5152091
vt 0.5971074 0.5152091
vt 0.6673554 0.5494297
vt 0.6838843 0.5494297
vt 0.6838843 0.5798479
vt 0.6673554 0.5798479
vt 0.6497934 0.5494297
vt 0.6663223 0.5494297
vt 0.6663223 0.5798479
vt 0.6497934 0.5798479
vt 0.6497934 0.4847909
vt 0.6663223 0.4847909
vt 0.6663223 0.5152091
vt 0.6497934 0.5152091
vt 0.6146694 0.4847909
vt 0.6311983 0.4847909
vt 0.6311983 0.5152091
vt 0.6146694 0.5152091

# Normal
vn 0 0 -1

# Mesh description
g CentralHall_mesh_0004

# Faces
f 1/1/1 2/2/1 3/3/1 4/4/1
f 5/5/1 6/6/1 7/7/1 8/8/1
f 9/5/1 10/6/1 11/7/1 12/8/1
f 13/5/1 14/6/1 15/7/1 16/8/1
f 17/9/1 18/10/1 19/11/1 20/12/1
f 21/13/1 22/14/1 23/15/1 24/16/1
f 25/5/1 26/6/1 27/7/1 28/8/1
f 29/5/1 30/6/1 31/7/1 32/8/1
f 33/5/1 34/6/1 35/7/1 36/8/1
f 37/17/1 38/18/1 39/19/1 40/20/1
f 41/21/1 42/22/1 43/23/1 44/24/1
f 45/21/1 46/22/1 47/23/1 48/24/1
f 49/21/1 50/22/1 51/23/1 52/24/1
f 53/25/1 54/26/1 55/27/1 56/28/1
f 57/5/1 58/6/1 59/7/1 60/8/1
f 61/5/1 62/6/1 63/7/1 64/8/1
f 65/5/1 66/6/1 67/7/1 68/8/1
f 69/29/1 70/30/1 71/31/1 72/32/1
f 73/33/1 74/34/1 75/35/1 76/36/1
f 77/21/1 78/22/1 79/23/1 80/24/1
f 81/21/1 82/22/1 83/23/1 84/24/1
f 85/21/1 86/22/1 87/23/1 88/24/1
f 89/21/1 90/22/1 91/23/1 92/24/1
f 93/21/1 94/22/1 95/23/1 96/24/1
f 97/21/1 98/22/1 99/23/1 100/24/1
f 101/21/1 102/22/1 103/23/1 104/24/1
f 105/21/1 106/22/1 107/23/1 108/24/1
f 109/21/1 110/22/1 111/23/1 112/24/1
f 113/21/1 114/22/1 115/23/1 116/24/1
f 117/21/1 118/22/1 119/23/1 120/24/1
f 121/33/1 122/34/1 123/35/1 124/36/1
f 125/33/1 126/34/1 127/35/1 128/36/1
f 129/37/1 130/38/1 131/39/1 132/40/1
f 133/37/1 134/38/1 135/39/1 136/40/1
f 137/37/1 138/38/1 139/39/1 140/40/1
f 141/37/1 142/38/1 143/39/1 144/40/1
f 145/37/1 146/38/1 147/39/1 148/40/1
f 149/37/1 150/38/1 151/39/1 152/40/1
f 153/37/1 154/38/1 155/39/1 156/40/1
f 157/37/1 158/38/1 159/39/1 160/40/1
f 161/37/1 162/38/1 163/39/1 164/40/1
f 165/37/1 166/38/1 167/39/1 168/40/1
f 169/37/1 170/38/1 171/39/1 172/40/1
f 173/33/1 174/34/1 175/35/1 176/36/1
f 177/13/1 178/14/1 179/15/1 180/16/1
f 181/41/1 182/42/1 183/43/1 184/44/1
f 185/45/1 186/46/1 187/47/1 188/48/1
f 189/29/1 190/30/1 191/31/1 192/32/1
f 193/13/1 194/14/1 195/15/1 196/16/1
f 197/5/1 198/6/1 199/7/1 200/8/1
f 201/41/1 202/42/1 203/43/1 204/44/1
f 205/25/1 206/26/1 207/27/1 208/28/1
f 209/17/1 210/18/1 211/19/1 212/20/1
f 213/45/1 214/46/1 215/47/1 216/48/1
f 217/5/1 218/6/1 219/7/1 220/8/1
f 221/29/1 222/30/1 223/31/1 224/32/1
f 225/33/1 226/34/1 227/35/1 228/36/1
f 229/21/1 230/22/1 231/23/1 232/24/1
f 233/25/1 234/26/1 235/27/1 236/28/1
f 237/49/1 238/50/1 239/51/1 240/52/1
f 241/53/1 242/54/1 243/55/1 244/56/1
f 245/17/1 246/18/1 247/19/1 248/20/1
f 249/21/1 250/22/1 251/23/1 252/24/1
f 253/33/1 254/34/1 255/35/1 256/36/1
f 257/13/1 258/14/1 259/15/1 260/16/1
f 261/5/1 262/6/1 263/7/1 264/8/1
f 265/41/1 266/42/1 267/43/1 268/44/1
f 269/37/1 270/38/1 271/39/1 272/40/1
f 273/49/1 274/50/1 275/51/1 276/52/1
f 277/53/1 278/54/1 279/55/1 280/56/1
f 281/37/1 282/38/1 283/39/1 284/40/1
f 285/45/1 286/46/1 287/47/1 288/48/1
f 289/5/1 290/6/1 291/7/1 292/8/1
f 293/29/1 294/30/1 295/31/1 296/32/1
f 297/33/1 298/34/1 299/35/1 300/36/1
f 301/21/1 302/22/1 303/23/1 304/24/1
f 305/25/1 306/26/1 307/27/1 308/28/1
f 309/17/1 310/18/1 311/19/1 312/20/1
f 313/21/1 314/22/1 315/23/1 316/24/1
f 317/33/1 318/34/1 319/35/1 320/36/1
f 321/13/1 322/14/1 323/15/1 324/16/1
f 325/5/1 326/6/1 327/7/1 328/8/1
f 329/41/1 330/42/1 331/43/1 332/44/1
f 333/37/1 334/38/1 335/39/1 336/40/1
f 337/49/1 338/50/1 339/51/1 340/52/1
f 341/53/1 342/54/1 343/55/1 344/56/1
f 345/37/1 346/38/1 347/39/1 348/40/1
f 349/45/1 350/46/1 351/47/1 352/48/1
f 353/5/1 354/6/1 355/7/1 356/8/1
f 357/29/1 358/30/1 359/31/1 360/32/1
f 361/33/1 362/34/1 363/35/1 364/36/1
f 365/21/1 366/22/1 367/23/1 368/24/1
f 369/25/1 370/26/1 371/27/1 372/28/1
f 373/17/1 374/18/1 375/19/1 376/20/1
f 377/21/1 378/22/1 379/23/1 380/24/1
f 381/33/1 382/34/1 383/35/1 384/36/1
f 385/33/1 386/34/1 387/35/1 388/36/1
f 389/37/1 390/38/1 391/39/1 392/40/1
f 393/49/1 394/50/1 395/51/1 396/52/1
f 397/53/1 398/54/1 399/55/1 400/56/1
f 401/37/1 402/38/1 403/39/1 404/40/1
f 405/33/1 406/34/1 407/35/1 408/36/1
f 409/33/1 410/34/1 411/35/1 412/36/1
f 413/33/1 414/34/1 415/35/1 416/36/1
f 417/33/1 418/34/1 419/35/1 420/36/1
f 421/33/1 422/34/1 423/35/1 424/36/1
f 425/33/1 426/34/1 427/35/1 428/36/1
f 429/33/1 430/34/1 431/35/1 432/36/1
f 433/33/1 434/34/1 435/35/1 436/36/1
f 437/33/1 438/34/1 439/35/1 440/36/1
f 441/33/1 442/34/1 443/35/1 444/36/1
f 445/33/1 446/34/1 447/35/1 448/36/1
f 449/33/1 450/34/1 451/35/1 452/36/1
f 453/33/1 454/34/1 455/35/1 456/36/1
f 457/33/1 458/34/1 459/35/1 460/36/1
f 461/33/1 462/34/1 463/35/1 464/36/1
f 465/33/1 466/34/1 467/35/1 468/36/1
f 469/33/1 470/34/1 471/35/1 472/36/1
f 473/33/1 474/34/1 475/35/1 476/36/1
f 477/33/1 478/34/1 479/35/1 480/36/1
f 481/33/1 482/34/1 483/35/1 484/36/1
f 485/33/1 486/34/1 487/35/1 488/36/1
f 489/33/1 490/34/1 491/35/1 492/36/1
f 493/33/1 494/34/1 495/35/1 496/36/1

