# Tiled2Unity generated file. Do not modify by hand.
# Wavefront file for 'CentralHall_mesh_0013.obj'

# Vertices (Count = 224)
v -46.93333 -25.6 0
v -48 -25.6 0
v -48 -24.53333 0
v -46.93333 -24.53333 0
v -45.86667 -26.66667 0
v -46.93333 -26.66667 0
v -46.93333 -25.6 0
v -45.86667 -25.6 0
v -54.4 -26.66667 0
v -55.46667 -26.66667 0
v -55.46667 -25.6 0
v -54.4 -25.6 0
v -54.4 -27.73334 0
v -55.46667 -27.73334 0
v -55.46667 -26.66667 0
v -54.4 -26.66667 0
v -48 -28.8 0
v -49.06667 -28.8 0
v -49.06667 -27.73334 0
v -48 -27.73334 0
v -49.06667 -28.8 0
v -50.13334 -28.8 0
v -50.13334 -27.73334 0
v -49.06667 -27.73334 0
v -55.46667 -28.8 0
v -56.53334 -28.8 0
v -56.53334 -27.73334 0
v -55.46667 -27.73334 0
v -42.66667 -29.86667 0
v -43.73334 -29.86667 0
v -43.73334 -28.8 0
v -42.66667 -28.8 0
v -46.93333 -29.86667 0
v -48 -29.86667 0
v -48 -28.8 0
v -46.93333 -28.8 0
v -51.2 -29.86667 0
v -52.26667 -29.86667 0
v -52.26667 -28.8 0
v -51.2 -28.8 0
v -45.86667 -30.93333 0
v -46.93333 -30.93333 0
v -46.93333 -29.86667 0
v -45.86667 -29.86667 0
v -58.66667 -30.93333 0
v -59.73334 -30.93333 0
v -59.73334 -29.86667 0
v -58.66667 -29.86667 0
v -39.46667 -32 0
v -40.53334 -32 0
v -40.53334 -30.93333 0
v -39.46667 -30.93333 0
v -49.06667 -32 0
v -50.13334 -32 0
v -50.13334 -30.93333 0
v -49.06667 -30.93333 0
v -56.53334 -32 0
v -57.6 -32 0
v -57.6 -30.93333 0
v -56.53334 -30.93333 0
v -43.73334 -33.06667 0
v -44.8 -33.06667 0
v -44.8 -32 0
v -43.73334 -32 0
v -44.8 -33.06667 0
v -45.86667 -33.06667 0
v -45.86667 -32 0
v -44.8 -32 0
v -55.46667 -33.06667 0
v -56.53334 -33.06667 0
v -56.53334 -32 0
v -55.46667 -32 0
v -57.6 -33.06667 0
v -58.66667 -33.06667 0
v -58.66667 -32 0
v -57.6 -32 0
v -44.8 -34.13334 0
v -45.86667 -34.13334 0
v -45.86667 -33.06667 0
v -44.8 -33.06667 0
v -51.2 -34.13334 0
v -52.26667 -34.13334 0
v -52.26667 -33.06667 0
v -51.2 -33.06667 0
v -41.6 -35.2 0
v -42.66667 -35.2 0
v -42.66667 -34.13334 0
v -41.6 -34.13334 0
v -39.46667 -36.26667 0
v -40.53334 -36.26667 0
v -40.53334 -35.2 0
v -39.46667 -35.2 0
v -46.93333 -36.26667 0
v -48 -36.26667 0
v -48 -35.2 0
v -46.93333 -35.2 0
v -48 -36.26667 0
v -49.06667 -36.26667 0
v -49.06667 -35.2 0
v -48 -35.2 0
v -49.06667 -36.26667 0
v -50.13334 -36.26667 0
v -50.13334 -35.2 0
v -49.06667 -35.2 0
v -62.93334 -36.26667 0
v -64 -36.26667 0
v -64 -35.2 0
v -62.93334 -35.2 0
v -39.46667 -38.4 0
v -40.53334 -38.4 0
v -40.53334 -37.33334 0
v -39.46667 -37.33334 0
v -40.53334 -38.4 0
v -41.6 -38.4 0
v -41.6 -37.33334 0
v -40.53334 -37.33334 0
v -41.6 -38.4 0
v -42.66667 -38.4 0
v -42.66667 -37.33334 0
v -41.6 -37.33334 0
v -61.86667 -38.4 0
v -62.93334 -38.4 0
v -62.93334 -37.33334 0
v -61.86667 -37.33334 0
v -41.6 -39.46667 0
v -42.66667 -39.46667 0
v -42.66667 -38.4 0
v -41.6 -38.4 0
v -42.66667 -39.46667 0
v -43.73334 -39.46667 0
v -43.73334 -38.4 0
v -42.66667 -38.4 0
v -49.06667 -39.46667 0
v -50.13334 -39.46667 0
v -50.13334 -38.4 0
v -49.06667 -38.4 0
v -62.93334 -39.46667 0
v -64 -39.46667 0
v -64 -38.4 0
v -62.93334 -38.4 0
v -45.86667 -40.53334 0
v -46.93333 -40.53334 0
v -46.93333 -39.46667 0
v -45.86667 -39.46667 0
v -46.93333 -40.53334 0
v -48 -40.53334 0
v -48 -39.46667 0
v -46.93333 -39.46667 0
v -50.13334 -40.53334 0
v -51.2 -40.53334 0
v -51.2 -39.46667 0
v -50.13334 -39.46667 0
v -51.2 -40.53334 0
v -52.26667 -40.53334 0
v -52.26667 -39.46667 0
v -51.2 -39.46667 0
v -52.26667 -40.53334 0
v -53.33334 -40.53334 0
v -53.33334 -39.46667 0
v -52.26667 -39.46667 0
v -53.33334 -40.53334 0
v -54.4 -40.53334 0
v -54.4 -39.46667 0
v -53.33334 -39.46667 0
v -60.8 -40.53334 0
v -61.86667 -40.53334 0
v -61.86667 -39.46667 0
v -60.8 -39.46667 0
v -45.86667 -41.6 0
v -46.93333 -41.6 0
v -46.93333 -40.53334 0
v -45.86667 -40.53334 0
v -51.2 -41.6 0
v -52.26667 -41.6 0
v -52.26667 -40.53334 0
v -51.2 -40.53334 0
v -52.26667 -41.6 0
v -53.33334 -41.6 0
v -53.33334 -40.53334 0
v -52.26667 -40.53334 0
v -53.33334 -41.6 0
v -54.4 -41.6 0
v -54.4 -40.53334 0
v -53.33334 -40.53334 0
v -39.46667 -42.66667 0
v -40.53334 -42.66667 0
v -40.53334 -41.6 0
v -39.46667 -41.6 0
v -45.86667 -42.66667 0
v -46.93333 -42.66667 0
v -46.93333 -41.6 0
v -45.86667 -41.6 0
v -46.93333 -42.66667 0
v -48 -42.66667 0
v -48 -41.6 0
v -46.93333 -41.6 0
v -51.2 -42.66667 0
v -52.26667 -42.66667 0
v -52.26667 -41.6 0
v -51.2 -41.6 0
v -37.33334 -43.73334 0
v -38.4 -43.73334 0
v -38.4 -42.66667 0
v -37.33334 -42.66667 0
v -44.8 -43.73334 0
v -45.86667 -43.73334 0
v -45.86667 -42.66667 0
v -44.8 -42.66667 0
v -50.13334 -43.73334 0
v -51.2 -43.73334 0
v -51.2 -42.66667 0
v -50.13334 -42.66667 0
v -52.26667 -43.73334 0
v -53.33334 -43.73334 0
v -53.33334 -42.66667 0
v -52.26667 -42.66667 0
v -38.4 -44.8 0
v -39.46667 -44.8 0
v -39.46667 -43.73334 0
v -38.4 -43.73334 0
v -61.86667 -44.8 0
v -62.93334 -44.8 0
v -62.93334 -43.73334 0
v -61.86667 -43.73334 0

# Texture cooridinates (Count = 44)
vt 0.7200413 0.4847909
vt 0.7365702 0.4847909
vt 0.7365702 0.5152091
vt 0.7200413 0.5152091
vt 0.8605372 0.4847909
vt 0.8770661 0.4847909
vt 0.8770661 0.5152091
vt 0.8605372 0.5152091
vt 0.8429752 0.4847909
vt 0.8595041 0.4847909
vt 0.8595041 0.5152091
vt 0.8429752 0.5152091
vt 0.8780992 0.4847909
vt 0.8946281 0.4847909
vt 0.8946281 0.5152091
vt 0.8780992 0.5152091
vt 0.8956612 0.4847909
vt 0.9121901 0.4847909
vt 0.9121901 0.5152091
vt 0.8956612 0.5152091
vt 0.6849173 0.2908745
vt 0.7014463 0.2908745
vt 0.7014463 0.3212928
vt 0.6849173 0.3212928
vt 0.8078513 0.4847909
vt 0.8243802 0.4847909
vt 0.8243802 0.5152091
vt 0.8078513 0.5152091
vt 0.7551653 0.4847909
vt 0.7716942 0.4847909
vt 0.7716942 0.5152091
vt 0.7551653 0.5152091
vt 0.7727273 0.4847909
vt 0.7892562 0.4847909
vt 0.7892562 0.5152091
vt 0.7727273 0.5152091
vt 0.7902893 0.4847909
vt 0.8068182 0.4847909
vt 0.8068182 0.5152091
vt 0.7902893 0.5152091
vt 0.6673554 0.6463878
vt 0.6838843 0.6463878
vt 0.6838843 0.6768061
vt 0.6673554 0.6768061

# Normal
vn 0 0 -1

# Mesh description
g CentralHall_mesh_0013

# Faces
f 1/1/1 2/2/1 3/3/1 4/4/1
f 5/5/1 6/6/1 7/7/1 8/8/1
f 9/9/1 10/10/1 11/11/1 12/12/1
f 13/1/1 14/2/1 15/3/1 16/4/1
f 17/1/1 18/2/1 19/3/1 20/4/1
f 21/13/1 22/14/1 23/15/1 24/16/1
f 25/9/1 26/10/1 27/11/1 28/12/1
f 29/17/1 30/18/1 31/19/1 32/20/1
f 33/5/1 34/6/1 35/7/1 36/8/1
f 37/21/1 38/22/1 39/23/1 40/24/1
f 41/1/1 42/2/1 43/3/1 44/4/1
f 45/13/1 46/14/1 47/15/1 48/16/1
f 49/13/1 50/14/1 51/15/1 52/16/1
f 53/25/1 54/26/1 55/27/1 56/28/1
f 57/1/1 58/2/1 59/3/1 60/4/1
f 61/5/1 62/6/1 63/7/1 64/8/1
f 65/1/1 66/2/1 67/3/1 68/4/1
f 69/1/1 70/2/1 71/3/1 72/4/1
f 73/25/1 74/26/1 75/27/1 76/28/1
f 77/1/1 78/2/1 79/3/1 80/4/1
f 81/17/1 82/18/1 83/19/1 84/20/1
f 85/17/1 86/18/1 87/19/1 88/20/1
f 89/25/1 90/26/1 91/27/1 92/28/1
f 93/1/1 94/2/1 95/3/1 96/4/1
f 97/17/1 98/18/1 99/19/1 100/20/1
f 101/5/1 102/6/1 103/7/1 104/8/1
f 105/17/1 106/18/1 107/19/1 108/20/1
f 109/1/1 110/2/1 111/3/1 112/4/1
f 113/5/1 114/6/1 115/7/1 116/8/1
f 117/1/1 118/2/1 119/3/1 120/4/1
f 121/5/1 122/6/1 123/7/1 124/8/1
f 125/1/1 126/2/1 127/3/1 128/4/1
f 129/1/1 130/2/1 131/3/1 132/4/1
f 133/29/1 134/30/1 135/31/1 136/32/1
f 137/25/1 138/26/1 139/27/1 140/28/1
f 141/33/1 142/34/1 143/35/1 144/36/1
f 145/1/1 146/2/1 147/3/1 148/4/1
f 149/29/1 150/30/1 151/31/1 152/32/1
f 153/37/1 154/38/1 155/39/1 156/40/1
f 157/29/1 158/30/1 159/31/1 160/32/1
f 161/29/1 162/30/1 163/31/1 164/32/1
f 165/5/1 166/6/1 167/7/1 168/8/1
f 169/1/1 170/2/1 171/3/1 172/4/1
f 173/29/1 174/30/1 175/31/1 176/32/1
f 177/33/1 178/34/1 179/35/1 180/36/1
f 181/1/1 182/2/1 183/3/1 184/4/1
f 185/5/1 186/6/1 187/7/1 188/8/1
f 189/29/1 190/30/1 191/31/1 192/32/1
f 193/1/1 194/2/1 195/3/1 196/4/1
f 197/1/1 198/2/1 199/3/1 200/4/1
f 201/25/1 202/26/1 203/27/1 204/28/1
f 205/29/1 206/30/1 207/31/1 208/32/1
f 209/41/1 210/42/1 211/43/1 212/44/1
f 213/33/1 214/34/1 215/35/1 216/36/1
f 217/25/1 218/26/1 219/27/1 220/28/1
f 221/25/1 222/26/1 223/27/1 224/28/1

