# Tiled2Unity generated file. Do not modify by hand.
# Wavefront file for 'HesHall-Floor1_mesh_0005.obj'

# Vertices (Count = 624)
v -49.06667 -30.93333 0
v -50.13334 -30.93333 0
v -50.13334 -29.86667 0
v -49.06667 -29.86667 0
v -41.6 -32 0
v -42.66667 -32 0
v -42.66667 -30.93333 0
v -41.6 -30.93333 0
v -42.66667 -33.06667 0
v -43.73334 -33.06667 0
v -43.73334 -32 0
v -42.66667 -32 0
v -43.73334 -33.06667 0
v -44.8 -33.06667 0
v -44.8 -32 0
v -43.73334 -32 0
v -42.66667 -34.13334 0
v -43.73334 -34.13334 0
v -43.73334 -33.06667 0
v -42.66667 -33.06667 0
v -62.93334 -34.13334 0
v -64 -34.13334 0
v -64 -33.06667 0
v -62.93334 -33.06667 0
v -69.33334 -34.13334 0
v -70.4 -34.13334 0
v -70.4 -33.06667 0
v -69.33334 -33.06667 0
v -75.73334 -34.13334 0
v -76.8 -34.13334 0
v -76.8 -33.06667 0
v -75.73334 -33.06667 0
v -82.13334 -34.13334 0
v -83.2 -34.13334 0
v -83.2 -33.06667 0
v -82.13334 -33.06667 0
v -61.86667 -36.26667 0
v -62.93334 -36.26667 0
v -62.93334 -35.2 0
v -61.86667 -35.2 0
v -24.53333 -40.53334 0
v -25.6 -40.53334 0
v -25.6 -39.46667 0
v -24.53333 -39.46667 0
v -25.6 -40.53334 0
v -26.66667 -40.53334 0
v -26.66667 -39.46667 0
v -25.6 -39.46667 0
v -24.53333 -41.6 0
v -25.6 -41.6 0
v -25.6 -40.53334 0
v -24.53333 -40.53334 0
v -25.6 -42.66667 0
v -26.66667 -42.66667 0
v -26.66667 -41.6 0
v -25.6 -41.6 0
v -24.53333 -43.73334 0
v -25.6 -43.73334 0
v -25.6 -42.66667 0
v -24.53333 -42.66667 0
v -16 -44.8 0
v -17.06667 -44.8 0
v -17.06667 -43.73334 0
v -16 -43.73334 0
v -17.06667 -44.8 0
v -18.13334 -44.8 0
v -18.13334 -43.73334 0
v -17.06667 -43.73334 0
v -18.13334 -44.8 0
v -19.2 -44.8 0
v -19.2 -43.73334 0
v -18.13334 -43.73334 0
v -19.2 -44.8 0
v -20.26667 -44.8 0
v -20.26667 -43.73334 0
v -19.2 -43.73334 0
v -20.26667 -44.8 0
v -21.33333 -44.8 0
v -21.33333 -43.73334 0
v -20.26667 -43.73334 0
v -21.33333 -44.8 0
v -22.4 -44.8 0
v -22.4 -43.73334 0
v -21.33333 -43.73334 0
v -22.4 -44.8 0
v -23.46667 -44.8 0
v -23.46667 -43.73334 0
v -22.4 -43.73334 0
v -16 -45.86667 0
v -17.06667 -45.86667 0
v -17.06667 -44.8 0
v -16 -44.8 0
v -17.06667 -45.86667 0
v -18.13334 -45.86667 0
v -18.13334 -44.8 0
v -17.06667 -44.8 0
v -18.13334 -45.86667 0
v -19.2 -45.86667 0
v -19.2 -44.8 0
v -18.13334 -44.8 0
v -19.2 -45.86667 0
v -20.26667 -45.86667 0
v -20.26667 -44.8 0
v -19.2 -44.8 0
v -20.26667 -45.86667 0
v -21.33333 -45.86667 0
v -21.33333 -44.8 0
v -20.26667 -44.8 0
v -24.53333 -48 0
v -25.6 -48 0
v -25.6 -46.93333 0
v -24.53333 -46.93333 0
v -24.53333 -49.06667 0
v -25.6 -49.06667 0
v -25.6 -48 0
v -24.53333 -48 0
v -25.6 -50.13334 0
v -26.66667 -50.13334 0
v -26.66667 -49.06667 0
v -25.6 -49.06667 0
v -24.53333 -56.53334 0
v -25.6 -56.53334 0
v -25.6 -55.46667 0
v -24.53333 -55.46667 0
v -25.6 -57.6 0
v -26.66667 -57.6 0
v -26.66667 -56.53334 0
v -25.6 -56.53334 0
v -24.53333 -58.66667 0
v -25.6 -58.66667 0
v -25.6 -57.6 0
v -24.53333 -57.6 0
v -55.46667 -72.53334 0
v -56.53334 -72.53334 0
v -56.53334 -71.46667 0
v -55.46667 -71.46667 0
v -65.06667 -72.53334 0
v -66.13334 -72.53334 0
v -66.13334 -71.46667 0
v -65.06667 -71.46667 0
v -73.60001 -72.53334 0
v -74.66667 -72.53334 0
v -74.66667 -71.46667 0
v -73.60001 -71.46667 0
v -26.66667 -77.86667 0
v -27.73334 -77.86667 0
v -27.73334 -76.8 0
v -26.66667 -76.8 0
v -26.66667 -78.93333 0
v -27.73334 -78.93333 0
v -27.73334 -77.86667 0
v -26.66667 -77.86667 0
v -26.66667 -80.00001 0
v -27.73334 -80.00001 0
v -27.73334 -78.93333 0
v -26.66667 -78.93333 0
v -27.73334 -80.00001 0
v -28.8 -80.00001 0
v -28.8 -78.93333 0
v -27.73334 -78.93333 0
v -32 -80.00001 0
v -33.06667 -80.00001 0
v -33.06667 -78.93333 0
v -32 -78.93333 0
v -33.06667 -80.00001 0
v -34.13334 -80.00001 0
v -34.13334 -78.93333 0
v -33.06667 -78.93333 0
v -33.06667 -81.06667 0
v -34.13334 -81.06667 0
v -34.13334 -80.00001 0
v -33.06667 -80.00001 0
v -34.13334 -81.06667 0
v -35.2 -81.06667 0
v -35.2 -80.00001 0
v -34.13334 -80.00001 0
v -35.2 -81.06667 0
v -36.26667 -81.06667 0
v -36.26667 -80.00001 0
v -35.2 -80.00001 0
v -76.8 -82.13334 0
v -77.86667 -82.13334 0
v -77.86667 -81.06667 0
v -76.8 -81.06667 0
v -83.2 -82.13334 0
v -84.26667 -82.13334 0
v -84.26667 -81.06667 0
v -83.2 -81.06667 0
v -75.73334 -83.2 0
v -76.8 -83.2 0
v -76.8 -82.13334 0
v -75.73334 -82.13334 0
v -76.8 -83.2 0
v -77.86667 -83.2 0
v -77.86667 -82.13334 0
v -76.8 -82.13334 0
v -77.86667 -83.2 0
v -78.93333 -83.2 0
v -78.93333 -82.13334 0
v -77.86667 -82.13334 0
v -82.13334 -83.2 0
v -83.2 -83.2 0
v -83.2 -82.13334 0
v -82.13334 -82.13334 0
v -83.2 -83.2 0
v -84.26667 -83.2 0
v -84.26667 -82.13334 0
v -83.2 -82.13334 0
v -84.26667 -83.2 0
v -85.33334 -83.2 0
v -85.33334 -82.13334 0
v -84.26667 -82.13334 0
v -19.2 -84.26667 0
v -20.26667 -84.26667 0
v -20.26667 -83.2 0
v -19.2 -83.2 0
v -20.26667 -84.26667 0
v -21.33333 -84.26667 0
v -21.33333 -83.2 0
v -20.26667 -83.2 0
v -21.33333 -84.26667 0
v -22.4 -84.26667 0
v -22.4 -83.2 0
v -21.33333 -83.2 0
v -75.73334 -84.26667 0
v -76.8 -84.26667 0
v -76.8 -83.2 0
v -75.73334 -83.2 0
v -84.26667 -84.26667 0
v -85.33334 -84.26667 0
v -85.33334 -83.2 0
v -84.26667 -83.2 0
v -19.2 -85.33334 0
v -20.26667 -85.33334 0
v -20.26667 -84.26667 0
v -19.2 -84.26667 0
v -75.73334 -85.33334 0
v -76.8 -85.33334 0
v -76.8 -84.26667 0
v -75.73334 -84.26667 0
v -76.8 -85.33334 0
v -77.86667 -85.33334 0
v -77.86667 -84.26667 0
v -76.8 -84.26667 0
v -77.86667 -85.33334 0
v -78.93333 -85.33334 0
v -78.93333 -84.26667 0
v -77.86667 -84.26667 0
v -82.13334 -85.33334 0
v -83.2 -85.33334 0
v -83.2 -84.26667 0
v -82.13334 -84.26667 0
v -83.2 -85.33334 0
v -84.26667 -85.33334 0
v -84.26667 -84.26667 0
v -83.2 -84.26667 0
v -84.26667 -85.33334 0
v -85.33334 -85.33334 0
v -85.33334 -84.26667 0
v -84.26667 -84.26667 0
v -20.26667 -86.4 0
v -21.33333 -86.4 0
v -21.33333 -85.33334 0
v -20.26667 -85.33334 0
v -22.4 -86.4 0
v -23.46667 -86.4 0
v -23.46667 -85.33334 0
v -22.4 -85.33334 0
v -23.46667 -86.4 0
v -24.53333 -86.4 0
v -24.53333 -85.33334 0
v -23.46667 -85.33334 0
v -25.6 -86.4 0
v -26.66667 -86.4 0
v -26.66667 -85.33334 0
v -25.6 -85.33334 0
v -26.66667 -86.4 0
v -27.73334 -86.4 0
v -27.73334 -85.33334 0
v -26.66667 -85.33334 0
v -28.8 -86.4 0
v -29.86667 -86.4 0
v -29.86667 -85.33334 0
v -28.8 -85.33334 0
v -22.4 -87.46667 0
v -23.46667 -87.46667 0
v -23.46667 -86.4 0
v -22.4 -86.4 0
v -23.46667 -87.46667 0
v -24.53333 -87.46667 0
v -24.53333 -86.4 0
v -23.46667 -86.4 0
v -26.66667 -87.46667 0
v -27.73334 -87.46667 0
v -27.73334 -86.4 0
v -26.66667 -86.4 0
v -28.8 -87.46667 0
v -29.86667 -87.46667 0
v -29.86667 -86.4 0
v -28.8 -86.4 0
v -75.73334 -87.46667 0
v -76.8 -87.46667 0
v -76.8 -86.4 0
v -75.73334 -86.4 0
v -76.8 -87.46667 0
v -77.86667 -87.46667 0
v -77.86667 -86.4 0
v -76.8 -86.4 0
v -77.86667 -87.46667 0
v -78.93333 -87.46667 0
v -78.93333 -86.4 0
v -77.86667 -86.4 0
v -82.13334 -87.46667 0
v -83.2 -87.46667 0
v -83.2 -86.4 0
v -82.13334 -86.4 0
v -83.2 -87.46667 0
v -84.26667 -87.46667 0
v -84.26667 -86.4 0
v -83.2 -86.4 0
v -84.26667 -87.46667 0
v -85.33334 -87.46667 0
v -85.33334 -86.4 0
v -84.26667 -86.4 0
v -20.26667 -88.53334 0
v -21.33333 -88.53334 0
v -21.33333 -87.46667 0
v -20.26667 -87.46667 0
v -22.4 -88.53334 0
v -23.46667 -88.53334 0
v -23.46667 -87.46667 0
v -22.4 -87.46667 0
v -25.6 -88.53334 0
v -26.66667 -88.53334 0
v -26.66667 -87.46667 0
v -25.6 -87.46667 0
v -28.8 -88.53334 0
v -29.86667 -88.53334 0
v -29.86667 -87.46667 0
v -28.8 -87.46667 0
v -82.13334 -88.53334 0
v -83.2 -88.53334 0
v -83.2 -87.46667 0
v -82.13334 -87.46667 0
v -83.2 -88.53334 0
v -84.26667 -88.53334 0
v -84.26667 -87.46667 0
v -83.2 -87.46667 0
v -20.26667 -89.60001 0
v -21.33333 -89.60001 0
v -21.33333 -88.53334 0
v -20.26667 -88.53334 0
v -22.4 -89.60001 0
v -23.46667 -89.60001 0
v -23.46667 -88.53334 0
v -22.4 -88.53334 0
v -23.46667 -89.60001 0
v -24.53333 -89.60001 0
v -24.53333 -88.53334 0
v -23.46667 -88.53334 0
v -25.6 -89.60001 0
v -26.66667 -89.60001 0
v -26.66667 -88.53334 0
v -25.6 -88.53334 0
v -26.66667 -89.60001 0
v -27.73334 -89.60001 0
v -27.73334 -88.53334 0
v -26.66667 -88.53334 0
v -30.93333 -89.60001 0
v -32 -89.60001 0
v -32 -88.53334 0
v -30.93333 -88.53334 0
v -75.73334 -89.60001 0
v -76.8 -89.60001 0
v -76.8 -88.53334 0
v -75.73334 -88.53334 0
v -76.8 -89.60001 0
v -77.86667 -89.60001 0
v -77.86667 -88.53334 0
v -76.8 -88.53334 0
v -77.86667 -89.60001 0
v -78.93333 -89.60001 0
v -78.93333 -88.53334 0
v -77.86667 -88.53334 0
v -82.13334 -89.60001 0
v -83.2 -89.60001 0
v -83.2 -88.53334 0
v -82.13334 -88.53334 0
v -83.2 -89.60001 0
v -84.26667 -89.60001 0
v -84.26667 -88.53334 0
v -83.2 -88.53334 0
v -84.26667 -89.60001 0
v -85.33334 -89.60001 0
v -85.33334 -88.53334 0
v -84.26667 -88.53334 0
v -20.26667 -90.66667 0
v -21.33333 -90.66667 0
v -21.33333 -89.60001 0
v -20.26667 -89.60001 0
v -22.4 -90.66667 0
v -23.46667 -90.66667 0
v -23.46667 -89.60001 0
v -22.4 -89.60001 0
v -23.46667 -90.66667 0
v -24.53333 -90.66667 0
v -24.53333 -89.60001 0
v -23.46667 -89.60001 0
v -28.8 -90.66667 0
v -29.86667 -90.66667 0
v -29.86667 -89.60001 0
v -28.8 -89.60001 0
v -30.93333 -90.66667 0
v -32 -90.66667 0
v -32 -89.60001 0
v -30.93333 -89.60001 0
v -77.86667 -90.66667 0
v -78.93333 -90.66667 0
v -78.93333 -89.60001 0
v -77.86667 -89.60001 0
v -82.13334 -90.66667 0
v -83.2 -90.66667 0
v -83.2 -89.60001 0
v -82.13334 -89.60001 0
v -23.46667 -91.73334 0
v -24.53333 -91.73334 0
v -24.53333 -90.66667 0
v -23.46667 -90.66667 0
v -30.93333 -91.73334 0
v -32 -91.73334 0
v -32 -90.66667 0
v -30.93333 -90.66667 0
v -75.73334 -91.73334 0
v -76.8 -91.73334 0
v -76.8 -90.66667 0
v -75.73334 -90.66667 0
v -76.8 -91.73334 0
v -77.86667 -91.73334 0
v -77.86667 -90.66667 0
v -76.8 -90.66667 0
v -77.86667 -91.73334 0
v -78.93333 -91.73334 0
v -78.93333 -90.66667 0
v -77.86667 -90.66667 0
v -82.13334 -91.73334 0
v -83.2 -91.73334 0
v -83.2 -90.66667 0
v -82.13334 -90.66667 0
v -83.2 -91.73334 0
v -84.26667 -91.73334 0
v -84.26667 -90.66667 0
v -83.2 -90.66667 0
v -84.26667 -91.73334 0
v -85.33334 -91.73334 0
v -85.33334 -90.66667 0
v -84.26667 -90.66667 0
v -19.2 -92.8 0
v -20.26667 -92.8 0
v -20.26667 -91.73334 0
v -19.2 -91.73334 0
v -20.26667 -92.8 0
v -21.33333 -92.8 0
v -21.33333 -91.73334 0
v -20.26667 -91.73334 0
v -22.4 -92.8 0
v -23.46667 -92.8 0
v -23.46667 -91.73334 0
v -22.4 -91.73334 0
v -23.46667 -92.8 0
v -24.53333 -92.8 0
v -24.53333 -91.73334 0
v -23.46667 -91.73334 0
v -25.6 -92.8 0
v -26.66667 -92.8 0
v -26.66667 -91.73334 0
v -25.6 -91.73334 0
v -26.66667 -92.8 0
v -27.73334 -92.8 0
v -27.73334 -91.73334 0
v -26.66667 -91.73334 0
v -30.93333 -92.8 0
v -32 -92.8 0
v -32 -91.73334 0
v -30.93333 -91.73334 0
v -77.86667 -92.8 0
v -78.93333 -92.8 0
v -78.93333 -91.73334 0
v -77.86667 -91.73334 0
v -84.26667 -92.8 0
v -85.33334 -92.8 0
v -85.33334 -91.73334 0
v -84.26667 -91.73334 0
v -20.26667 -93.86667 0
v -21.33333 -93.86667 0
v -21.33333 -92.8 0
v -20.26667 -92.8 0
v -22.4 -93.86667 0
v -23.46667 -93.86667 0
v -23.46667 -92.8 0
v -22.4 -92.8 0
v -25.6 -93.86667 0
v -26.66667 -93.86667 0
v -26.66667 -92.8 0
v -25.6 -92.8 0
v -26.66667 -93.86667 0
v -27.73334 -93.86667 0
v -27.73334 -92.8 0
v -26.66667 -92.8 0
v -28.8 -93.86667 0
v -29.86667 -93.86667 0
v -29.86667 -92.8 0
v -28.8 -92.8 0
v -75.73334 -93.86667 0
v -76.8 -93.86667 0
v -76.8 -92.8 0
v -75.73334 -92.8 0
v -76.8 -93.86667 0
v -77.86667 -93.86667 0
v -77.86667 -92.8 0
v -76.8 -92.8 0
v -77.86667 -93.86667 0
v -78.93333 -93.86667 0
v -78.93333 -92.8 0
v -77.86667 -92.8 0
v -82.13334 -93.86667 0
v -83.2 -93.86667 0
v -83.2 -92.8 0
v -82.13334 -92.8 0
v -83.2 -93.86667 0
v -84.26667 -93.86667 0
v -84.26667 -92.8 0
v -83.2 -92.8 0
v -84.26667 -93.86667 0
v -85.33334 -93.86667 0
v -85.33334 -92.8 0
v -84.26667 -92.8 0
v -19.2 -94.93334 0
v -20.26667 -94.93334 0
v -20.26667 -93.86667 0
v -19.2 -93.86667 0
v -22.4 -94.93334 0
v -23.46667 -94.93334 0
v -23.46667 -93.86667 0
v -22.4 -93.86667 0
v -23.46667 -94.93334 0
v -24.53333 -94.93334 0
v -24.53333 -93.86667 0
v -23.46667 -93.86667 0
v -25.6 -94.93334 0
v -26.66667 -94.93334 0
v -26.66667 -93.86667 0
v -25.6 -93.86667 0
v -26.66667 -94.93334 0
v -27.73334 -94.93334 0
v -27.73334 -93.86667 0
v -26.66667 -93.86667 0
v -75.73334 -94.93334 0
v -76.8 -94.93334 0
v -76.8 -93.86667 0
v -75.73334 -93.86667 0
v -83.2 -94.93334 0
v -84.26667 -94.93334 0
v -84.26667 -93.86667 0
v -83.2 -93.86667 0
v -20.26667 -96.00001 0
v -21.33333 -96.00001 0
v -21.33333 -94.93334 0
v -20.26667 -94.93334 0
v -23.46667 -96.00001 0
v -24.53333 -96.00001 0
v -24.53333 -94.93334 0
v -23.46667 -94.93334 0
v -25.6 -96.00001 0
v -26.66667 -96.00001 0
v -26.66667 -94.93334 0
v -25.6 -94.93334 0
v -28.8 -96.00001 0
v -29.86667 -96.00001 0
v -29.86667 -94.93334 0
v -28.8 -94.93334 0
v -75.73334 -96.00001 0
v -76.8 -96.00001 0
v -76.8 -94.93334 0
v -75.73334 -94.93334 0
v -76.8 -96.00001 0
v -77.86667 -96.00001 0
v -77.86667 -94.93334 0
v -76.8 -94.93334 0
v -77.86667 -96.00001 0
v -78.93333 -96.00001 0
v -78.93333 -94.93334 0
v -77.86667 -94.93334 0
v -82.13334 -96.00001 0
v -83.2 -96.00001 0
v -83.2 -94.93334 0
v -82.13334 -94.93334 0
v -83.2 -96.00001 0
v -84.26667 -96.00001 0
v -84.26667 -94.93334 0
v -83.2 -94.93334 0
v -84.26667 -96.00001 0
v -85.33334 -96.00001 0
v -85.33334 -94.93334 0
v -84.26667 -94.93334 0
v -20.26667 -97.06667 0
v -21.33333 -97.06667 0
v -21.33333 -96.00001 0
v -20.26667 -96.00001 0
v -22.4 -97.06667 0
v -23.46667 -97.06667 0
v -23.46667 -96.00001 0
v -22.4 -96.00001 0
v -23.46667 -97.06667 0
v -24.53333 -97.06667 0
v -24.53333 -96.00001 0
v -23.46667 -96.00001 0
v -25.6 -97.06667 0
v -26.66667 -97.06667 0
v -26.66667 -96.00001 0
v -25.6 -96.00001 0
v -28.8 -97.06667 0
v -29.86667 -97.06667 0
v -29.86667 -96.00001 0
v -28.8 -96.00001 0

# Texture cooridinates (Count = 172)
vt 0.6673554 0.6463878
vt 0.6838843 0.6463878
vt 0.6838843 0.6768061
vt 0.6673554 0.6768061
vt 0.5268595 0.6140684
vt 0.5433884 0.6140684
vt 0.5433884 0.6444867
vt 0.5268595 0.6444867
vt 0.5444215 0.6463878
vt 0.5609504 0.6463878
vt 0.5609504 0.6768061
vt 0.5444215 0.6768061
vt 0.5092975 0.6140684
vt 0.5258265 0.6140684
vt 0.5258265 0.6444867
vt 0.5092975 0.6444867
vt 0.5092975 0.6463878
vt 0.5258265 0.6463878
vt 0.5258265 0.6768061
vt 0.5092975 0.6768061
vt 0.4566116 0.7110266
vt 0.4731405 0.7110266
vt 0.4731405 0.7414448
vt 0.4566116 0.7414448
vt 0.5444215 0.6140684
vt 0.5609504 0.6140684
vt 0.5609504 0.6444867
vt 0.5444215 0.6444867
vt 0.9834711 0.4847909
vt 1 0.4847909
vt 1 0.5152091
vt 0.9834711 0.5152091
vt 0.9483471 0.5494297
vt 0.9648761 0.5494297
vt 0.9648761 0.5798479
vt 0.9483471 0.5798479
vt 0.9834711 0.4201521
vt 1 0.4201521
vt 1 0.4505703
vt 0.9834711 0.4505703
vt 0.5268595 0.904943
vt 0.5433884 0.904943
vt 0.5433884 0.9353612
vt 0.5268595 0.9353612
vt 0.5444215 0.904943
vt 0.5609504 0.904943
vt 0.5609504 0.9353612
vt 0.5444215 0.9353612
vt 0.4917355 0.904943
vt 0.5082645 0.904943
vt 0.5082645 0.9353612
vt 0.4917355 0.9353612
vt 0.5092975 0.904943
vt 0.5258265 0.904943
vt 0.5258265 0.9353612
vt 0.5092975 0.9353612
vt 0.5444215 0.9372624
vt 0.5609504 0.9372624
vt 0.5609504 0.9676806
vt 0.5444215 0.9676806
vt 0.5444215 0.8403042
vt 0.5609504 0.8403042
vt 0.5609504 0.8707224
vt 0.5444215 0.8707224
vt 0.5444215 0.8726236
vt 0.5609504 0.8726236
vt 0.5609504 0.9030418
vt 0.5444215 0.9030418
vt 0.4917355 0.9695817
vt 0.5082645 0.9695817
vt 0.5082645 1
vt 0.4917355 1
vt 0.5092975 0.9695817
vt 0.5258265 0.9695817
vt 0.5258265 1
vt 0.5092975 1
vt 0.5268595 0.9695817
vt 0.5433884 0.9695817
vt 0.5433884 1
vt 0.5268595 1
vt 0.5444215 0.9695817
vt 0.5609504 0.9695817
vt 0.5609504 1
vt 0.5444215 1
vt 0.9659091 0.5817491
vt 0.982438 0.5817491
vt 0.982438 0.6121673
vt 0.9659091 0.6121673
vt 0.9483471 0.4524715
vt 0.9648761 0.4524715
vt 0.9648761 0.4828897
vt 0.9483471 0.4828897
vt 0.9834711 0.5171102
vt 1 0.5171102
vt 1 0.5475285
vt 0.9834711 0.5475285
vt 0.9483471 0.5817491
vt 0.9648761 0.5817491
vt 0.9648761 0.6121673
vt 0.9483471 0.6121673
vt 0.9834711 0.6140684
vt 1 0.6140684
vt 1 0.6444867
vt 0.9834711 0.6444867
vt 0.9483471 0.4201521
vt 0.9648761 0.4201521
vt 0.9648761 0.4505703
vt 0.9483471 0.4505703
vt 0.9659091 0.5171102
vt 0.982438 0.5171102
vt 0.982438 0.5475285
vt 0.9659091 0.5475285
vt 0.9659091 0.6140684
vt 0.982438 0.6140684
vt 0.982438 0.6444867
vt 0.9659091 0.6444867
vt 0.9834711 0.5817491
vt 1 0.5817491
vt 1 0.6121673
vt 0.9834711 0.6121673
vt 0.9483471 0.4847909
vt 0.9648761 0.4847909
vt 0.9648761 0.5152091
vt 0.9483471 0.5152091
vt 0.7376033 0.5171102
vt 0.7541322 0.5171102
vt 0.7541322 0.5475285
vt 0.7376033 0.5475285
vt 0.7376033 0.5817491
vt 0.7541322 0.5817491
vt 0.7541322 0.6121673
vt 0.7376033 0.6121673
vt 0.7376033 0.5494297
vt 0.7541322 0.5494297
vt 0.7541322 0.5798479
vt 0.7376033 0.5798479
vt 0.8429752 0.4847909
vt 0.8595041 0.4847909
vt 0.8595041 0.5152091
vt 0.8429752 0.5152091
vt 0.8078513 0.4847909
vt 0.8243802 0.4847909
vt 0.8243802 0.5152091
vt 0.8078513 0.5152091
vt 0.3161157 0.904943
vt 0.3326446 0.904943
vt 0.3326446 0.9353612
vt 0.3161157 0.9353612
vt 0.3161157 0.8726236
vt 0.3326446 0.8726236
vt 0.3326446 0.9030418
vt 0.3161157 0.9030418
vt 0.8956612 0.4847909
vt 0.9121901 0.4847909
vt 0.9121901 0.5152091
vt 0.8956612 0.5152091
vt 0.8605372 0.4847909
vt 0.8770661 0.4847909
vt 0.8770661 0.5152091
vt 0.8605372 0.5152091
vt 0.9834711 0.5494297
vt 1 0.5494297
vt 1 0.5798479
vt 0.9834711 0.5798479
vt 0.9834711 0.4524715
vt 1 0.4524715
vt 1 0.4828897
vt 0.9834711 0.4828897
vt 0.9132231 0.4847909
vt 0.9297521 0.4847909
vt 0.9297521 0.5152091
vt 0.9132231 0.5152091

# Normal
vn 0 0 -1

# Mesh description
g HesHall-Floor1_mesh_0005

# Faces
f 1/1/1 2/2/1 3/3/1 4/4/1
f 5/5/1 6/6/1 7/7/1 8/8/1
f 9/9/1 10/10/1 11/11/1 12/12/1
f 13/13/1 14/14/1 15/15/1 16/16/1
f 17/17/1 18/18/1 19/19/1 20/20/1
f 21/5/1 22/6/1 23/7/1 24/8/1
f 25/17/1 26/18/1 27/19/1 28/20/1
f 29/21/1 30/22/1 31/23/1 32/24/1
f 33/25/1 34/26/1 35/27/1 36/28/1
f 37/13/1 38/14/1 39/15/1 40/16/1
f 41/29/1 42/30/1 43/31/1 44/32/1
f 45/33/1 46/34/1 47/35/1 48/36/1
f 49/37/1 50/38/1 51/39/1 52/40/1
f 53/33/1 54/34/1 55/35/1 56/36/1
f 57/33/1 58/34/1 59/35/1 60/36/1
f 61/41/1 62/42/1 63/43/1 64/44/1
f 65/45/1 66/46/1 67/47/1 68/48/1
f 69/49/1 70/50/1 71/51/1 72/52/1
f 73/53/1 74/54/1 75/55/1 76/56/1
f 77/57/1 78/58/1 79/59/1 80/60/1
f 81/61/1 82/62/1 83/63/1 84/64/1
f 85/65/1 86/66/1 87/67/1 88/68/1
f 89/69/1 90/70/1 91/71/1 92/72/1
f 93/73/1 94/74/1 95/75/1 96/76/1
f 97/77/1 98/78/1 99/79/1 100/80/1
f 101/73/1 102/74/1 103/75/1 104/76/1
f 105/81/1 106/82/1 107/83/1 108/84/1
f 109/85/1 110/86/1 111/87/1 112/88/1
f 113/89/1 114/90/1 115/91/1 116/92/1
f 117/93/1 118/94/1 119/95/1 120/96/1
f 121/97/1 122/98/1 123/99/1 124/100/1
f 125/101/1 126/102/1 127/103/1 128/104/1
f 129/105/1 130/106/1 131/107/1 132/108/1
f 133/9/1 134/10/1 135/11/1 136/12/1
f 137/17/1 138/18/1 139/19/1 140/20/1
f 141/5/1 142/6/1 143/7/1 144/8/1
f 145/109/1 146/110/1 147/111/1 148/112/1
f 149/113/1 150/114/1 151/115/1 152/116/1
f 153/33/1 154/34/1 155/35/1 156/36/1
f 157/117/1 158/118/1 159/119/1 160/120/1
f 161/37/1 162/38/1 163/39/1 164/40/1
f 165/121/1 166/122/1 167/123/1 168/124/1
f 169/33/1 170/34/1 171/35/1 172/36/1
f 173/33/1 174/34/1 175/35/1 176/36/1
f 177/117/1 178/118/1 179/119/1 180/120/1
f 181/5/1 182/6/1 183/7/1 184/8/1
f 185/17/1 186/18/1 187/19/1 188/20/1
f 189/125/1 190/126/1 191/127/1 192/128/1
f 193/125/1 194/126/1 195/127/1 196/128/1
f 197/129/1 198/130/1 199/131/1 200/132/1
f 201/125/1 202/126/1 203/127/1 204/128/1
f 205/125/1 206/126/1 207/127/1 208/128/1
f 209/133/1 210/134/1 211/135/1 212/136/1
f 213/105/1 214/106/1 215/107/1 216/108/1
f 217/121/1 218/122/1 219/123/1 220/124/1
f 221/117/1 222/118/1 223/119/1 224/120/1
f 225/137/1 226/138/1 227/139/1 228/140/1
f 229/141/1 230/142/1 231/143/1 232/144/1
f 233/117/1 234/118/1 235/119/1 236/120/1
f 237/129/1 238/130/1 239/131/1 240/132/1
f 241/129/1 242/130/1 243/131/1 244/132/1
f 245/129/1 246/130/1 247/131/1 248/132/1
f 249/125/1 250/126/1 251/127/1 252/128/1
f 253/129/1 254/130/1 255/131/1 256/132/1
f 257/125/1 258/126/1 259/127/1 260/128/1
f 261/145/1 262/146/1 263/147/1 264/148/1
f 265/149/1 266/150/1 267/151/1 268/152/1
f 269/145/1 270/146/1 271/147/1 272/148/1
f 273/149/1 274/150/1 275/151/1 276/152/1
f 277/145/1 278/146/1 279/147/1 280/148/1
f 281/149/1 282/150/1 283/151/1 284/152/1
f 285/149/1 286/150/1 287/151/1 288/152/1
f 289/145/1 290/146/1 291/147/1 292/148/1
f 293/145/1 294/146/1 295/147/1 296/148/1
f 297/149/1 298/150/1 299/151/1 300/152/1
f 301/129/1 302/130/1 303/131/1 304/132/1
f 305/125/1 306/126/1 307/127/1 308/128/1
f 309/133/1 310/134/1 311/135/1 312/136/1
f 313/129/1 314/130/1 315/131/1 316/132/1
f 317/133/1 318/134/1 319/135/1 320/136/1
f 321/129/1 322/130/1 323/131/1 324/132/1
f 325/145/1 326/146/1 327/147/1 328/148/1
f 329/149/1 330/150/1 331/151/1 332/152/1
f 333/149/1 334/150/1 335/151/1 336/152/1
f 337/149/1 338/150/1 339/151/1 340/152/1
f 341/153/1 342/154/1 343/155/1 344/156/1
f 345/157/1 346/158/1 347/159/1 348/160/1
f 349/145/1 350/146/1 351/147/1 352/148/1
f 353/149/1 354/150/1 355/151/1 356/152/1
f 357/145/1 358/146/1 359/147/1 360/148/1
f 361/149/1 362/150/1 363/151/1 364/152/1
f 365/145/1 366/146/1 367/147/1 368/148/1
f 369/109/1 370/110/1 371/111/1 372/112/1
f 373/129/1 374/130/1 375/131/1 376/132/1
f 377/129/1 378/130/1 379/131/1 380/132/1
f 381/129/1 382/130/1 383/131/1 384/132/1
f 385/129/1 386/130/1 387/131/1 388/132/1
f 389/129/1 390/130/1 391/131/1 392/132/1
f 393/125/1 394/126/1 395/127/1 396/128/1
f 397/145/1 398/146/1 399/147/1 400/148/1
f 401/149/1 402/150/1 403/151/1 404/152/1
f 405/145/1 406/146/1 407/147/1 408/148/1
f 409/149/1 410/150/1 411/151/1 412/152/1
f 413/161/1 414/162/1 415/163/1 416/164/1
f 417/153/1 418/154/1 419/155/1 420/156/1
f 421/137/1 422/138/1 423/139/1 424/140/1
f 425/33/1 426/34/1 427/35/1 428/36/1
f 429/165/1 430/166/1 431/167/1 432/168/1
f 433/133/1 434/134/1 435/135/1 436/136/1
f 437/129/1 438/130/1 439/131/1 440/132/1
f 441/129/1 442/130/1 443/131/1 444/132/1
f 445/129/1 446/130/1 447/131/1 448/132/1
f 449/125/1 450/126/1 451/127/1 452/128/1
f 453/129/1 454/130/1 455/131/1 456/132/1
f 457/109/1 458/110/1 459/111/1 460/112/1
f 461/145/1 462/146/1 463/147/1 464/148/1
f 465/149/1 466/150/1 467/151/1 468/152/1
f 469/145/1 470/146/1 471/147/1 472/148/1
f 473/149/1 474/150/1 475/151/1 476/152/1
f 477/145/1 478/146/1 479/147/1 480/148/1
f 481/37/1 482/38/1 483/39/1 484/40/1
f 485/157/1 486/158/1 487/159/1 488/160/1
f 489/1/1 490/2/1 491/3/1 492/4/1
f 493/145/1 494/146/1 495/147/1 496/148/1
f 497/149/1 498/150/1 499/151/1 500/152/1
f 501/149/1 502/150/1 503/151/1 504/152/1
f 505/145/1 506/146/1 507/147/1 508/148/1
f 509/149/1 510/150/1 511/151/1 512/152/1
f 513/125/1 514/126/1 515/127/1 516/128/1
f 517/129/1 518/130/1 519/131/1 520/132/1
f 521/125/1 522/126/1 523/127/1 524/128/1
f 525/129/1 526/130/1 527/131/1 528/132/1
f 529/129/1 530/130/1 531/131/1 532/132/1
f 533/129/1 534/130/1 535/131/1 536/132/1
f 537/85/1 538/86/1 539/87/1 540/88/1
f 541/149/1 542/150/1 543/151/1 544/152/1
f 545/145/1 546/146/1 547/147/1 548/148/1
f 549/149/1 550/150/1 551/151/1 552/152/1
f 553/145/1 554/146/1 555/147/1 556/148/1
f 557/169/1 558/170/1 559/171/1 560/172/1
f 561/137/1 562/138/1 563/139/1 564/140/1
f 565/145/1 566/146/1 567/147/1 568/148/1
f 569/145/1 570/146/1 571/147/1 572/148/1
f 573/149/1 574/150/1 575/151/1 576/152/1
f 577/149/1 578/150/1 579/151/1 580/152/1
f 581/129/1 582/130/1 583/131/1 584/132/1
f 585/125/1 586/126/1 587/127/1 588/128/1
f 589/129/1 590/130/1 591/131/1 592/132/1
f 593/125/1 594/126/1 595/127/1 596/128/1
f 597/129/1 598/130/1 599/131/1 600/132/1
f 601/133/1 602/134/1 603/135/1 604/136/1
f 605/145/1 606/146/1 607/147/1 608/148/1
f 609/149/1 610/150/1 611/151/1 612/152/1
f 613/145/1 614/146/1 615/147/1 616/148/1
f 617/149/1 618/150/1 619/151/1 620/152/1
f 621/149/1 622/150/1 623/151/1 624/152/1

