# Tiled2Unity generated file. Do not modify by hand.
# Wavefront file for 'HesHall-Floor1_mesh_0013.obj'

# Vertices (Count = 8)
v -87.46667 -40.53334 0
v -88.53334 -40.53334 0
v -88.53334 -39.46667 0
v -87.46667 -39.46667 0
v -84.26667 -77.86667 0
v -85.33334 -77.86667 0
v -85.33334 -76.8 0
v -84.26667 -76.8 0

# Texture cooridinates (Count = 8)
vt 0.6322314 0.3878327
vt 0.6487603 0.3878327
vt 0.6487603 0.418251
vt 0.6322314 0.418251
vt 0.5971074 0.3878327
vt 0.6136364 0.3878327
vt 0.6136364 0.418251
vt 0.5971074 0.418251

# Normal
vn 0 0 -1

# Mesh description
g HesHall-Floor1_mesh_0013

# Faces
f 1/1/1 2/2/1 3/3/1 4/4/1
f 5/5/1 6/6/1 7/7/1 8/8/1

