# Tiled2Unity generated file. Do not modify by hand.
# Wavefront file for 'HesHall-Floor1_mesh_0005.obj'

# Vertices (Count = 616)
v -41.6 -32 0
v -42.66667 -32 0
v -42.66667 -30.93333 0
v -41.6 -30.93333 0
v -42.66667 -33.06667 0
v -43.73334 -33.06667 0
v -43.73334 -32 0
v -42.66667 -32 0
v -43.73334 -33.06667 0
v -44.8 -33.06667 0
v -44.8 -32 0
v -43.73334 -32 0
v -42.66667 -34.13334 0
v -43.73334 -34.13334 0
v -43.73334 -33.06667 0
v -42.66667 -33.06667 0
v -62.93334 -34.13334 0
v -64 -34.13334 0
v -64 -33.06667 0
v -62.93334 -33.06667 0
v -69.33334 -34.13334 0
v -70.4 -34.13334 0
v -70.4 -33.06667 0
v -69.33334 -33.06667 0
v -75.73334 -34.13334 0
v -76.8 -34.13334 0
v -76.8 -33.06667 0
v -75.73334 -33.06667 0
v -82.13334 -34.13334 0
v -83.2 -34.13334 0
v -83.2 -33.06667 0
v -82.13334 -33.06667 0
v -61.86667 -36.26667 0
v -62.93334 -36.26667 0
v -62.93334 -35.2 0
v -61.86667 -35.2 0
v -24.53333 -40.53334 0
v -25.6 -40.53334 0
v -25.6 -39.46667 0
v -24.53333 -39.46667 0
v -25.6 -40.53334 0
v -26.66667 -40.53334 0
v -26.66667 -39.46667 0
v -25.6 -39.46667 0
v -24.53333 -41.6 0
v -25.6 -41.6 0
v -25.6 -40.53334 0
v -24.53333 -40.53334 0
v -25.6 -42.66667 0
v -26.66667 -42.66667 0
v -26.66667 -41.6 0
v -25.6 -41.6 0
v -24.53333 -43.73334 0
v -25.6 -43.73334 0
v -25.6 -42.66667 0
v -24.53333 -42.66667 0
v -16 -44.8 0
v -17.06667 -44.8 0
v -17.06667 -43.73334 0
v -16 -43.73334 0
v -17.06667 -44.8 0
v -18.13334 -44.8 0
v -18.13334 -43.73334 0
v -17.06667 -43.73334 0
v -18.13334 -44.8 0
v -19.2 -44.8 0
v -19.2 -43.73334 0
v -18.13334 -43.73334 0
v -19.2 -44.8 0
v -20.26667 -44.8 0
v -20.26667 -43.73334 0
v -19.2 -43.73334 0
v -20.26667 -44.8 0
v -21.33333 -44.8 0
v -21.33333 -43.73334 0
v -20.26667 -43.73334 0
v -21.33333 -44.8 0
v -22.4 -44.8 0
v -22.4 -43.73334 0
v -21.33333 -43.73334 0
v -22.4 -44.8 0
v -23.46667 -44.8 0
v -23.46667 -43.73334 0
v -22.4 -43.73334 0
v -16 -45.86667 0
v -17.06667 -45.86667 0
v -17.06667 -44.8 0
v -16 -44.8 0
v -17.06667 -45.86667 0
v -18.13334 -45.86667 0
v -18.13334 -44.8 0
v -17.06667 -44.8 0
v -18.13334 -45.86667 0
v -19.2 -45.86667 0
v -19.2 -44.8 0
v -18.13334 -44.8 0
v -19.2 -45.86667 0
v -20.26667 -45.86667 0
v -20.26667 -44.8 0
v -19.2 -44.8 0
v -20.26667 -45.86667 0
v -21.33333 -45.86667 0
v -21.33333 -44.8 0
v -20.26667 -44.8 0
v -24.53333 -48 0
v -25.6 -48 0
v -25.6 -46.93333 0
v -24.53333 -46.93333 0
v -24.53333 -49.06667 0
v -25.6 -49.06667 0
v -25.6 -48 0
v -24.53333 -48 0
v -25.6 -50.13334 0
v -26.66667 -50.13334 0
v -26.66667 -49.06667 0
v -25.6 -49.06667 0
v -24.53333 -56.53334 0
v -25.6 -56.53334 0
v -25.6 -55.46667 0
v -24.53333 -55.46667 0
v -25.6 -57.6 0
v -26.66667 -57.6 0
v -26.66667 -56.53334 0
v -25.6 -56.53334 0
v -24.53333 -58.66667 0
v -25.6 -58.66667 0
v -25.6 -57.6 0
v -24.53333 -57.6 0
v -55.46667 -72.53334 0
v -56.53334 -72.53334 0
v -56.53334 -71.46667 0
v -55.46667 -71.46667 0
v -65.06667 -72.53334 0
v -66.13334 -72.53334 0
v -66.13334 -71.46667 0
v -65.06667 -71.46667 0
v -73.60001 -72.53334 0
v -74.66667 -72.53334 0
v -74.66667 -71.46667 0
v -73.60001 -71.46667 0
v -26.66667 -77.86667 0
v -27.73334 -77.86667 0
v -27.73334 -76.8 0
v -26.66667 -76.8 0
v -26.66667 -78.93333 0
v -27.73334 -78.93333 0
v -27.73334 -77.86667 0
v -26.66667 -77.86667 0
v -26.66667 -80.00001 0
v -27.73334 -80.00001 0
v -27.73334 -78.93333 0
v -26.66667 -78.93333 0
v -27.73334 -80.00001 0
v -28.8 -80.00001 0
v -28.8 -78.93333 0
v -27.73334 -78.93333 0
v -32 -80.00001 0
v -33.06667 -80.00001 0
v -33.06667 -78.93333 0
v -32 -78.93333 0
v -33.06667 -80.00001 0
v -34.13334 -80.00001 0
v -34.13334 -78.93333 0
v -33.06667 -78.93333 0
v -33.06667 -81.06667 0
v -34.13334 -81.06667 0
v -34.13334 -80.00001 0
v -33.06667 -80.00001 0
v -34.13334 -81.06667 0
v -35.2 -81.06667 0
v -35.2 -80.00001 0
v -34.13334 -80.00001 0
v -35.2 -81.06667 0
v -36.26667 -81.06667 0
v -36.26667 -80.00001 0
v -35.2 -80.00001 0
v -76.8 -82.13334 0
v -77.86667 -82.13334 0
v -77.86667 -81.06667 0
v -76.8 -81.06667 0
v -83.2 -82.13334 0
v -84.26667 -82.13334 0
v -84.26667 -81.06667 0
v -83.2 -81.06667 0
v -75.73334 -83.2 0
v -76.8 -83.2 0
v -76.8 -82.13334 0
v -75.73334 -82.13334 0
v -76.8 -83.2 0
v -77.86667 -83.2 0
v -77.86667 -82.13334 0
v -76.8 -82.13334 0
v -77.86667 -83.2 0
v -78.93333 -83.2 0
v -78.93333 -82.13334 0
v -77.86667 -82.13334 0
v -82.13334 -83.2 0
v -83.2 -83.2 0
v -83.2 -82.13334 0
v -82.13334 -82.13334 0
v -83.2 -83.2 0
v -84.26667 -83.2 0
v -84.26667 -82.13334 0
v -83.2 -82.13334 0
v -84.26667 -83.2 0
v -85.33334 -83.2 0
v -85.33334 -82.13334 0
v -84.26667 -82.13334 0
v -19.2 -84.26667 0
v -20.26667 -84.26667 0
v -20.26667 -83.2 0
v -19.2 -83.2 0
v -20.26667 -84.26667 0
v -21.33333 -84.26667 0
v -21.33333 -83.2 0
v -20.26667 -83.2 0
v -21.33333 -84.26667 0
v -22.4 -84.26667 0
v -22.4 -83.2 0
v -21.33333 -83.2 0
v -75.73334 -84.26667 0
v -76.8 -84.26667 0
v -76.8 -83.2 0
v -75.73334 -83.2 0
v -84.26667 -84.26667 0
v -85.33334 -84.26667 0
v -85.33334 -83.2 0
v -84.26667 -83.2 0
v -19.2 -85.33334 0
v -20.26667 -85.33334 0
v -20.26667 -84.26667 0
v -19.2 -84.26667 0
v -75.73334 -85.33334 0
v -76.8 -85.33334 0
v -76.8 -84.26667 0
v -75.73334 -84.26667 0
v -76.8 -85.33334 0
v -77.86667 -85.33334 0
v -77.86667 -84.26667 0
v -76.8 -84.26667 0
v -77.86667 -85.33334 0
v -78.93333 -85.33334 0
v -78.93333 -84.26667 0
v -77.86667 -84.26667 0
v -82.13334 -85.33334 0
v -83.2 -85.33334 0
v -83.2 -84.26667 0
v -82.13334 -84.26667 0
v -83.2 -85.33334 0
v -84.26667 -85.33334 0
v -84.26667 -84.26667 0
v -83.2 -84.26667 0
v -84.26667 -85.33334 0
v -85.33334 -85.33334 0
v -85.33334 -84.26667 0
v -84.26667 -84.26667 0
v -20.26667 -86.4 0
v -21.33333 -86.4 0
v -21.33333 -85.33334 0
v -20.26667 -85.33334 0
v -22.4 -86.4 0
v -23.46667 -86.4 0
v -23.46667 -85.33334 0
v -22.4 -85.33334 0
v -23.46667 -86.4 0
v -24.53333 -86.4 0
v -24.53333 -85.33334 0
v -23.46667 -85.33334 0
v -25.6 -86.4 0
v -26.66667 -86.4 0
v -26.66667 -85.33334 0
v -25.6 -85.33334 0
v -26.66667 -86.4 0
v -27.73334 -86.4 0
v -27.73334 -85.33334 0
v -26.66667 -85.33334 0
v -28.8 -86.4 0
v -29.86667 -86.4 0
v -29.86667 -85.33334 0
v -28.8 -85.33334 0
v -22.4 -87.46667 0
v -23.46667 -87.46667 0
v -23.46667 -86.4 0
v -22.4 -86.4 0
v -23.46667 -87.46667 0
v -24.53333 -87.46667 0
v -24.53333 -86.4 0
v -23.46667 -86.4 0
v -26.66667 -87.46667 0
v -27.73334 -87.46667 0
v -27.73334 -86.4 0
v -26.66667 -86.4 0
v -28.8 -87.46667 0
v -29.86667 -87.46667 0
v -29.86667 -86.4 0
v -28.8 -86.4 0
v -75.73334 -87.46667 0
v -76.8 -87.46667 0
v -76.8 -86.4 0
v -75.73334 -86.4 0
v -76.8 -87.46667 0
v -77.86667 -87.46667 0
v -77.86667 -86.4 0
v -76.8 -86.4 0
v -77.86667 -87.46667 0
v -78.93333 -87.46667 0
v -78.93333 -86.4 0
v -77.86667 -86.4 0
v -82.13334 -87.46667 0
v -83.2 -87.46667 0
v -83.2 -86.4 0
v -82.13334 -86.4 0
v -83.2 -87.46667 0
v -84.26667 -87.46667 0
v -84.26667 -86.4 0
v -83.2 -86.4 0
v -84.26667 -87.46667 0
v -85.33334 -87.46667 0
v -85.33334 -86.4 0
v -84.26667 -86.4 0
v -20.26667 -88.53334 0
v -21.33333 -88.53334 0
v -21.33333 -87.46667 0
v -20.26667 -87.46667 0
v -22.4 -88.53334 0
v -23.46667 -88.53334 0
v -23.46667 -87.46667 0
v -22.4 -87.46667 0
v -25.6 -88.53334 0
v -26.66667 -88.53334 0
v -26.66667 -87.46667 0
v -25.6 -87.46667 0
v -28.8 -88.53334 0
v -29.86667 -88.53334 0
v -29.86667 -87.46667 0
v -28.8 -87.46667 0
v -82.13334 -88.53334 0
v -83.2 -88.53334 0
v -83.2 -87.46667 0
v -82.13334 -87.46667 0
v -83.2 -88.53334 0
v -84.26667 -88.53334 0
v -84.26667 -87.46667 0
v -83.2 -87.46667 0
v -20.26667 -89.60001 0
v -21.33333 -89.60001 0
v -21.33333 -88.53334 0
v -20.26667 -88.53334 0
v -22.4 -89.60001 0
v -23.46667 -89.60001 0
v -23.46667 -88.53334 0
v -22.4 -88.53334 0
v -23.46667 -89.60001 0
v -24.53333 -89.60001 0
v -24.53333 -88.53334 0
v -23.46667 -88.53334 0
v -25.6 -89.60001 0
v -26.66667 -89.60001 0
v -26.66667 -88.53334 0
v -25.6 -88.53334 0
v -26.66667 -89.60001 0
v -27.73334 -89.60001 0
v -27.73334 -88.53334 0
v -26.66667 -88.53334 0
v -30.93333 -89.60001 0
v -32 -89.60001 0
v -32 -88.53334 0
v -30.93333 -88.53334 0
v -75.73334 -89.60001 0
v -76.8 -89.60001 0
v -76.8 -88.53334 0
v -75.73334 -88.53334 0
v -76.8 -89.60001 0
v -77.86667 -89.60001 0
v -77.86667 -88.53334 0
v -76.8 -88.53334 0
v -77.86667 -89.60001 0
v -78.93333 -89.60001 0
v -78.93333 -88.53334 0
v -77.86667 -88.53334 0
v -82.13334 -89.60001 0
v -83.2 -89.60001 0
v -83.2 -88.53334 0
v -82.13334 -88.53334 0
v -83.2 -89.60001 0
v -84.26667 -89.60001 0
v -84.26667 -88.53334 0
v -83.2 -88.53334 0
v -84.26667 -89.60001 0
v -85.33334 -89.60001 0
v -85.33334 -88.53334 0
v -84.26667 -88.53334 0
v -20.26667 -90.66667 0
v -21.33333 -90.66667 0
v -21.33333 -89.60001 0
v -20.26667 -89.60001 0
v -22.4 -90.66667 0
v -23.46667 -90.66667 0
v -23.46667 -89.60001 0
v -22.4 -89.60001 0
v -23.46667 -90.66667 0
v -24.53333 -90.66667 0
v -24.53333 -89.60001 0
v -23.46667 -89.60001 0
v -28.8 -90.66667 0
v -29.86667 -90.66667 0
v -29.86667 -89.60001 0
v -28.8 -89.60001 0
v -30.93333 -90.66667 0
v -32 -90.66667 0
v -32 -89.60001 0
v -30.93333 -89.60001 0
v -77.86667 -90.66667 0
v -78.93333 -90.66667 0
v -78.93333 -89.60001 0
v -77.86667 -89.60001 0
v -82.13334 -90.66667 0
v -83.2 -90.66667 0
v -83.2 -89.60001 0
v -82.13334 -89.60001 0
v -23.46667 -91.73334 0
v -24.53333 -91.73334 0
v -24.53333 -90.66667 0
v -23.46667 -90.66667 0
v -30.93333 -91.73334 0
v -32 -91.73334 0
v -32 -90.66667 0
v -30.93333 -90.66667 0
v -75.73334 -91.73334 0
v -76.8 -91.73334 0
v -76.8 -90.66667 0
v -75.73334 -90.66667 0
v -76.8 -91.73334 0
v -77.86667 -91.73334 0
v -77.86667 -90.66667 0
v -76.8 -90.66667 0
v -77.86667 -91.73334 0
v -78.93333 -91.73334 0
v -78.93333 -90.66667 0
v -77.86667 -90.66667 0
v -82.13334 -91.73334 0
v -83.2 -91.73334 0
v -83.2 -90.66667 0
v -82.13334 -90.66667 0
v -83.2 -91.73334 0
v -84.26667 -91.73334 0
v -84.26667 -90.66667 0
v -83.2 -90.66667 0
v -84.26667 -91.73334 0
v -85.33334 -91.73334 0
v -85.33334 -90.66667 0
v -84.26667 -90.66667 0
v -19.2 -92.8 0
v -20.26667 -92.8 0
v -20.26667 -91.73334 0
v -19.2 -91.73334 0
v -20.26667 -92.8 0
v -21.33333 -92.8 0
v -21.33333 -91.73334 0
v -20.26667 -91.73334 0
v -22.4 -92.8 0
v -23.46667 -92.8 0
v -23.46667 -91.73334 0
v -22.4 -91.73334 0
v -23.46667 -92.8 0
v -24.53333 -92.8 0
v -24.53333 -91.73334 0
v -23.46667 -91.73334 0
v -25.6 -92.8 0
v -26.66667 -92.8 0
v -26.66667 -91.73334 0
v -25.6 -91.73334 0
v -26.66667 -92.8 0
v -27.73334 -92.8 0
v -27.73334 -91.73334 0
v -26.66667 -91.73334 0
v -30.93333 -92.8 0
v -32 -92.8 0
v -32 -91.73334 0
v -30.93333 -91.73334 0
v -77.86667 -92.8 0
v -78.93333 -92.8 0
v -78.93333 -91.73334 0
v -77.86667 -91.73334 0
v -20.26667 -93.86667 0
v -21.33333 -93.86667 0
v -21.33333 -92.8 0
v -20.26667 -92.8 0
v -22.4 -93.86667 0
v -23.46667 -93.86667 0
v -23.46667 -92.8 0
v -22.4 -92.8 0
v -25.6 -93.86667 0
v -26.66667 -93.86667 0
v -26.66667 -92.8 0
v -25.6 -92.8 0
v -26.66667 -93.86667 0
v -27.73334 -93.86667 0
v -27.73334 -92.8 0
v -26.66667 -92.8 0
v -28.8 -93.86667 0
v -29.86667 -93.86667 0
v -29.86667 -92.8 0
v -28.8 -92.8 0
v -75.73334 -93.86667 0
v -76.8 -93.86667 0
v -76.8 -92.8 0
v -75.73334 -92.8 0
v -76.8 -93.86667 0
v -77.86667 -93.86667 0
v -77.86667 -92.8 0
v -76.8 -92.8 0
v -77.86667 -93.86667 0
v -78.93333 -93.86667 0
v -78.93333 -92.8 0
v -77.86667 -92.8 0
v -82.13334 -93.86667 0
v -83.2 -93.86667 0
v -83.2 -92.8 0
v -82.13334 -92.8 0
v -83.2 -93.86667 0
v -84.26667 -93.86667 0
v -84.26667 -92.8 0
v -83.2 -92.8 0
v -84.26667 -93.86667 0
v -85.33334 -93.86667 0
v -85.33334 -92.8 0
v -84.26667 -92.8 0
v -19.2 -94.93334 0
v -20.26667 -94.93334 0
v -20.26667 -93.86667 0
v -19.2 -93.86667 0
v -22.4 -94.93334 0
v -23.46667 -94.93334 0
v -23.46667 -93.86667 0
v -22.4 -93.86667 0
v -23.46667 -94.93334 0
v -24.53333 -94.93334 0
v -24.53333 -93.86667 0
v -23.46667 -93.86667 0
v -25.6 -94.93334 0
v -26.66667 -94.93334 0
v -26.66667 -93.86667 0
v -25.6 -93.86667 0
v -26.66667 -94.93334 0
v -27.73334 -94.93334 0
v -27.73334 -93.86667 0
v -26.66667 -93.86667 0
v -75.73334 -94.93334 0
v -76.8 -94.93334 0
v -76.8 -93.86667 0
v -75.73334 -93.86667 0
v -83.2 -94.93334 0
v -84.26667 -94.93334 0
v -84.26667 -93.86667 0
v -83.2 -93.86667 0
v -20.26667 -96.00001 0
v -21.33333 -96.00001 0
v -21.33333 -94.93334 0
v -20.26667 -94.93334 0
v -23.46667 -96.00001 0
v -24.53333 -96.00001 0
v -24.53333 -94.93334 0
v -23.46667 -94.93334 0
v -25.6 -96.00001 0
v -26.66667 -96.00001 0
v -26.66667 -94.93334 0
v -25.6 -94.93334 0
v -28.8 -96.00001 0
v -29.86667 -96.00001 0
v -29.86667 -94.93334 0
v -28.8 -94.93334 0
v -75.73334 -96.00001 0
v -76.8 -96.00001 0
v -76.8 -94.93334 0
v -75.73334 -94.93334 0
v -76.8 -96.00001 0
v -77.86667 -96.00001 0
v -77.86667 -94.93334 0
v -76.8 -94.93334 0
v -77.86667 -96.00001 0
v -78.93333 -96.00001 0
v -78.93333 -94.93334 0
v -77.86667 -94.93334 0
v -82.13334 -96.00001 0
v -83.2 -96.00001 0
v -83.2 -94.93334 0
v -82.13334 -94.93334 0
v -83.2 -96.00001 0
v -84.26667 -96.00001 0
v -84.26667 -94.93334 0
v -83.2 -94.93334 0
v -84.26667 -96.00001 0
v -85.33334 -96.00001 0
v -85.33334 -94.93334 0
v -84.26667 -94.93334 0
v -20.26667 -97.06667 0
v -21.33333 -97.06667 0
v -21.33333 -96.00001 0
v -20.26667 -96.00001 0
v -22.4 -97.06667 0
v -23.46667 -97.06667 0
v -23.46667 -96.00001 0
v -22.4 -96.00001 0
v -23.46667 -97.06667 0
v -24.53333 -97.06667 0
v -24.53333 -96.00001 0
v -23.46667 -96.00001 0
v -25.6 -97.06667 0
v -26.66667 -97.06667 0
v -26.66667 -96.00001 0
v -25.6 -96.00001 0
v -28.8 -97.06667 0
v -29.86667 -97.06667 0
v -29.86667 -96.00001 0
v -28.8 -96.00001 0

# Texture cooridinates (Count = 168)
vt 0.5268595 0.6140684
vt 0.5433884 0.6140684
vt 0.5433884 0.6444867
vt 0.5268595 0.6444867
vt 0.5444215 0.6463878
vt 0.5609504 0.6463878
vt 0.5609504 0.6768061
vt 0.5444215 0.6768061
vt 0.5092975 0.6140684
vt 0.5258265 0.6140684
vt 0.5258265 0.6444867
vt 0.5092975 0.6444867
vt 0.5092975 0.6463878
vt 0.5258265 0.6463878
vt 0.5258265 0.6768061
vt 0.5092975 0.6768061
vt 0.4566116 0.7110266
vt 0.4731405 0.7110266
vt 0.4731405 0.7414448
vt 0.4566116 0.7414448
vt 0.5444215 0.6140684
vt 0.5609504 0.6140684
vt 0.5609504 0.6444867
vt 0.5444215 0.6444867
vt 0.9834711 0.4847909
vt 1 0.4847909
vt 1 0.5152091
vt 0.9834711 0.5152091
vt 0.9483471 0.5494297
vt 0.9648761 0.5494297
vt 0.9648761 0.5798479
vt 0.9483471 0.5798479
vt 0.9834711 0.4201521
vt 1 0.4201521
vt 1 0.4505703
vt 0.9834711 0.4505703
vt 0.5268595 0.904943
vt 0.5433884 0.904943
vt 0.5433884 0.9353612
vt 0.5268595 0.9353612
vt 0.5444215 0.904943
vt 0.5609504 0.904943
vt 0.5609504 0.9353612
vt 0.5444215 0.9353612
vt 0.4917355 0.904943
vt 0.5082645 0.904943
vt 0.5082645 0.9353612
vt 0.4917355 0.9353612
vt 0.5092975 0.904943
vt 0.5258265 0.904943
vt 0.5258265 0.9353612
vt 0.5092975 0.9353612
vt 0.5444215 0.9372624
vt 0.5609504 0.9372624
vt 0.5609504 0.9676806
vt 0.5444215 0.9676806
vt 0.5444215 0.8403042
vt 0.5609504 0.8403042
vt 0.5609504 0.8707224
vt 0.5444215 0.8707224
vt 0.5444215 0.8726236
vt 0.5609504 0.8726236
vt 0.5609504 0.9030418
vt 0.5444215 0.9030418
vt 0.4917355 0.9695817
vt 0.5082645 0.9695817
vt 0.5082645 1
vt 0.4917355 1
vt 0.5092975 0.9695817
vt 0.5258265 0.9695817
vt 0.5258265 1
vt 0.5092975 1
vt 0.5268595 0.9695817
vt 0.5433884 0.9695817
vt 0.5433884 1
vt 0.5268595 1
vt 0.5444215 0.9695817
vt 0.5609504 0.9695817
vt 0.5609504 1
vt 0.5444215 1
vt 0.9659091 0.5817491
vt 0.982438 0.5817491
vt 0.982438 0.6121673
vt 0.9659091 0.6121673
vt 0.9483471 0.4524715
vt 0.9648761 0.4524715
vt 0.9648761 0.4828897
vt 0.9483471 0.4828897
vt 0.9834711 0.5171102
vt 1 0.5171102
vt 1 0.5475285
vt 0.9834711 0.5475285
vt 0.9483471 0.5817491
vt 0.9648761 0.5817491
vt 0.9648761 0.6121673
vt 0.9483471 0.6121673
vt 0.9834711 0.6140684
vt 1 0.6140684
vt 1 0.6444867
vt 0.9834711 0.6444867
vt 0.9483471 0.4201521
vt 0.9648761 0.4201521
vt 0.9648761 0.4505703
vt 0.9483471 0.4505703
vt 0.9659091 0.5171102
vt 0.982438 0.5171102
vt 0.982438 0.5475285
vt 0.9659091 0.5475285
vt 0.9659091 0.6140684
vt 0.982438 0.6140684
vt 0.982438 0.6444867
vt 0.9659091 0.6444867
vt 0.9834711 0.5817491
vt 1 0.5817491
vt 1 0.6121673
vt 0.9834711 0.6121673
vt 0.9483471 0.4847909
vt 0.9648761 0.4847909
vt 0.9648761 0.5152091
vt 0.9483471 0.5152091
vt 0.7376033 0.5171102
vt 0.7541322 0.5171102
vt 0.7541322 0.5475285
vt 0.7376033 0.5475285
vt 0.7376033 0.5817491
vt 0.7541322 0.5817491
vt 0.7541322 0.6121673
vt 0.7376033 0.6121673
vt 0.7376033 0.5494297
vt 0.7541322 0.5494297
vt 0.7541322 0.5798479
vt 0.7376033 0.5798479
vt 0.8429752 0.4847909
vt 0.8595041 0.4847909
vt 0.8595041 0.5152091
vt 0.8429752 0.5152091
vt 0.8078513 0.4847909
vt 0.8243802 0.4847909
vt 0.8243802 0.5152091
vt 0.8078513 0.5152091
vt 0.3161157 0.904943
vt 0.3326446 0.904943
vt 0.3326446 0.9353612
vt 0.3161157 0.9353612
vt 0.3161157 0.8726236
vt 0.3326446 0.8726236
vt 0.3326446 0.9030418
vt 0.3161157 0.9030418
vt 0.8956612 0.4847909
vt 0.9121901 0.4847909
vt 0.9121901 0.5152091
vt 0.8956612 0.5152091
vt 0.8605372 0.4847909
vt 0.8770661 0.4847909
vt 0.8770661 0.5152091
vt 0.8605372 0.5152091
vt 0.9834711 0.5494297
vt 1 0.5494297
vt 1 0.5798479
vt 0.9834711 0.5798479
vt 0.9834711 0.4524715
vt 1 0.4524715
vt 1 0.4828897
vt 0.9834711 0.4828897
vt 0.9132231 0.4847909
vt 0.9297521 0.4847909
vt 0.9297521 0.5152091
vt 0.9132231 0.5152091

# Normal
vn 0 0 -1

# Mesh description
g HesHall-Floor1_mesh_0005

# Faces
f 1/1/1 2/2/1 3/3/1 4/4/1
f 5/5/1 6/6/1 7/7/1 8/8/1
f 9/9/1 10/10/1 11/11/1 12/12/1
f 13/13/1 14/14/1 15/15/1 16/16/1
f 17/1/1 18/2/1 19/3/1 20/4/1
f 21/13/1 22/14/1 23/15/1 24/16/1
f 25/17/1 26/18/1 27/19/1 28/20/1
f 29/21/1 30/22/1 31/23/1 32/24/1
f 33/9/1 34/10/1 35/11/1 36/12/1
f 37/25/1 38/26/1 39/27/1 40/28/1
f 41/29/1 42/30/1 43/31/1 44/32/1
f 45/33/1 46/34/1 47/35/1 48/36/1
f 49/29/1 50/30/1 51/31/1 52/32/1
f 53/29/1 54/30/1 55/31/1 56/32/1
f 57/37/1 58/38/1 59/39/1 60/40/1
f 61/41/1 62/42/1 63/43/1 64/44/1
f 65/45/1 66/46/1 67/47/1 68/48/1
f 69/49/1 70/50/1 71/51/1 72/52/1
f 73/53/1 74/54/1 75/55/1 76/56/1
f 77/57/1 78/58/1 79/59/1 80/60/1
f 81/61/1 82/62/1 83/63/1 84/64/1
f 85/65/1 86/66/1 87/67/1 88/68/1
f 89/69/1 90/70/1 91/71/1 92/72/1
f 93/73/1 94/74/1 95/75/1 96/76/1
f 97/69/1 98/70/1 99/71/1 100/72/1
f 101/77/1 102/78/1 103/79/1 104/80/1
f 105/81/1 106/82/1 107/83/1 108/84/1
f 109/85/1 110/86/1 111/87/1 112/88/1
f 113/89/1 114/90/1 115/91/1 116/92/1
f 117/93/1 118/94/1 119/95/1 120/96/1
f 121/97/1 122/98/1 123/99/1 124/100/1
f 125/101/1 126/102/1 127/103/1 128/104/1
f 129/5/1 130/6/1 131/7/1 132/8/1
f 133/13/1 134/14/1 135/15/1 136/16/1
f 137/1/1 138/2/1 139/3/1 140/4/1
f 141/105/1 142/106/1 143/107/1 144/108/1
f 145/109/1 146/110/1 147/111/1 148/112/1
f 149/29/1 150/30/1 151/31/1 152/32/1
f 153/113/1 154/114/1 155/115/1 156/116/1
f 157/33/1 158/34/1 159/35/1 160/36/1
f 161/117/1 162/118/1 163/119/1 164/120/1
f 165/29/1 166/30/1 167/31/1 168/32/1
f 169/29/1 170/30/1 171/31/1 172/32/1
f 173/113/1 174/114/1 175/115/1 176/116/1
f 177/1/1 178/2/1 179/3/1 180/4/1
f 181/13/1 182/14/1 183/15/1 184/16/1
f 185/121/1 186/122/1 187/123/1 188/124/1
f 189/121/1 190/122/1 191/123/1 192/124/1
f 193/125/1 194/126/1 195/127/1 196/128/1
f 197/121/1 198/122/1 199/123/1 200/124/1
f 201/121/1 202/122/1 203/123/1 204/124/1
f 205/129/1 206/130/1 207/131/1 208/132/1
f 209/101/1 210/102/1 211/103/1 212/104/1
f 213/117/1 214/118/1 215/119/1 216/120/1
f 217/113/1 218/114/1 219/115/1 220/116/1
f 221/133/1 222/134/1 223/135/1 224/136/1
f 225/137/1 226/138/1 227/139/1 228/140/1
f 229/113/1 230/114/1 231/115/1 232/116/1
f 233/125/1 234/126/1 235/127/1 236/128/1
f 237/125/1 238/126/1 239/127/1 240/128/1
f 241/125/1 242/126/1 243/127/1 244/128/1
f 245/121/1 246/122/1 247/123/1 248/124/1
f 249/125/1 250/126/1 251/127/1 252/128/1
f 253/121/1 254/122/1 255/123/1 256/124/1
f 257/141/1 258/142/1 259/143/1 260/144/1
f 261/145/1 262/146/1 263/147/1 264/148/1
f 265/141/1 266/142/1 267/143/1 268/144/1
f 269/145/1 270/146/1 271/147/1 272/148/1
f 273/141/1 274/142/1 275/143/1 276/144/1
f 277/145/1 278/146/1 279/147/1 280/148/1
f 281/145/1 282/146/1 283/147/1 284/148/1
f 285/141/1 286/142/1 287/143/1 288/144/1
f 289/141/1 290/142/1 291/143/1 292/144/1
f 293/145/1 294/146/1 295/147/1 296/148/1
f 297/125/1 298/126/1 299/127/1 300/128/1
f 301/121/1 302/122/1 303/123/1 304/124/1
f 305/129/1 306/130/1 307/131/1 308/132/1
f 309/125/1 310/126/1 311/127/1 312/128/1
f 313/129/1 314/130/1 315/131/1 316/132/1
f 317/125/1 318/126/1 319/127/1 320/128/1
f 321/141/1 322/142/1 323/143/1 324/144/1
f 325/145/1 326/146/1 327/147/1 328/148/1
f 329/145/1 330/146/1 331/147/1 332/148/1
f 333/145/1 334/146/1 335/147/1 336/148/1
f 337/149/1 338/150/1 339/151/1 340/152/1
f 341/153/1 342/154/1 343/155/1 344/156/1
f 345/141/1 346/142/1 347/143/1 348/144/1
f 349/145/1 350/146/1 351/147/1 352/148/1
f 353/141/1 354/142/1 355/143/1 356/144/1
f 357/145/1 358/146/1 359/147/1 360/148/1
f 361/141/1 362/142/1 363/143/1 364/144/1
f 365/105/1 366/106/1 367/107/1 368/108/1
f 369/125/1 370/126/1 371/127/1 372/128/1
f 373/125/1 374/126/1 375/127/1 376/128/1
f 377/125/1 378/126/1 379/127/1 380/128/1
f 381/125/1 382/126/1 383/127/1 384/128/1
f 385/125/1 386/126/1 387/127/1 388/128/1
f 389/121/1 390/122/1 391/123/1 392/124/1
f 393/141/1 394/142/1 395/143/1 396/144/1
f 397/145/1 398/146/1 399/147/1 400/148/1
f 401/141/1 402/142/1 403/143/1 404/144/1
f 405/145/1 406/146/1 407/147/1 408/148/1
f 409/157/1 410/158/1 411/159/1 412/160/1
f 413/149/1 414/150/1 415/151/1 416/152/1
f 417/133/1 418/134/1 419/135/1 420/136/1
f 421/29/1 422/30/1 423/31/1 424/32/1
f 425/161/1 426/162/1 427/163/1 428/164/1
f 429/129/1 430/130/1 431/131/1 432/132/1
f 433/125/1 434/126/1 435/127/1 436/128/1
f 437/125/1 438/126/1 439/127/1 440/128/1
f 441/125/1 442/126/1 443/127/1 444/128/1
f 445/121/1 446/122/1 447/123/1 448/124/1
f 449/125/1 450/126/1 451/127/1 452/128/1
f 453/105/1 454/106/1 455/107/1 456/108/1
f 457/141/1 458/142/1 459/143/1 460/144/1
f 461/145/1 462/146/1 463/147/1 464/148/1
f 465/141/1 466/142/1 467/143/1 468/144/1
f 469/145/1 470/146/1 471/147/1 472/148/1
f 473/141/1 474/142/1 475/143/1 476/144/1
f 477/33/1 478/34/1 479/35/1 480/36/1
f 481/153/1 482/154/1 483/155/1 484/156/1
f 485/141/1 486/142/1 487/143/1 488/144/1
f 489/145/1 490/146/1 491/147/1 492/148/1
f 493/145/1 494/146/1 495/147/1 496/148/1
f 497/141/1 498/142/1 499/143/1 500/144/1
f 501/145/1 502/146/1 503/147/1 504/148/1
f 505/121/1 506/122/1 507/123/1 508/124/1
f 509/125/1 510/126/1 511/127/1 512/128/1
f 513/121/1 514/122/1 515/123/1 516/124/1
f 517/125/1 518/126/1 519/127/1 520/128/1
f 521/125/1 522/126/1 523/127/1 524/128/1
f 525/125/1 526/126/1 527/127/1 528/128/1
f 529/81/1 530/82/1 531/83/1 532/84/1
f 533/145/1 534/146/1 535/147/1 536/148/1
f 537/141/1 538/142/1 539/143/1 540/144/1
f 541/145/1 542/146/1 543/147/1 544/148/1
f 545/141/1 546/142/1 547/143/1 548/144/1
f 549/165/1 550/166/1 551/167/1 552/168/1
f 553/133/1 554/134/1 555/135/1 556/136/1
f 557/141/1 558/142/1 559/143/1 560/144/1
f 561/141/1 562/142/1 563/143/1 564/144/1
f 565/145/1 566/146/1 567/147/1 568/148/1
f 569/145/1 570/146/1 571/147/1 572/148/1
f 573/125/1 574/126/1 575/127/1 576/128/1
f 577/121/1 578/122/1 579/123/1 580/124/1
f 581/125/1 582/126/1 583/127/1 584/128/1
f 585/121/1 586/122/1 587/123/1 588/124/1
f 589/125/1 590/126/1 591/127/1 592/128/1
f 593/129/1 594/130/1 595/131/1 596/132/1
f 597/141/1 598/142/1 599/143/1 600/144/1
f 601/145/1 602/146/1 603/147/1 604/148/1
f 605/141/1 606/142/1 607/143/1 608/144/1
f 609/145/1 610/146/1 611/147/1 612/148/1
f 613/145/1 614/146/1 615/147/1 616/148/1

