# Tiled2Unity generated file. Do not modify by hand.
# Wavefront file for 'Law-Floor2_mesh_0004.obj'

# Vertices (Count = 8)
v -12.8 -7.466667 0
v -13.86667 -7.466667 0
v -13.86667 -6.400001 0
v -12.8 -6.400001 0
v -6.400001 -7.466667 0
v -7.466667 -7.466667 0
v -7.466667 -6.400001 0
v -6.400001 -6.400001 0

# Texture cooridinates (Count = 4)
vt 0 0
vt 1 0
vt 1 1
vt 0 1

# Normal
vn 0 0 -1

# Mesh description
g Law-Floor2_mesh_0004

# Faces
f 1/1/1 2/2/1 3/3/1 4/4/1
f 5/1/1 6/2/1 7/3/1 8/4/1

