# Tiled2Unity generated file. Do not modify by hand.
# Wavefront file for 'Law-Floor2_mesh_0005.obj'

# Vertices (Count = 12)
v -16 -3.2 0
v -17.06667 -3.2 0
v -17.06667 -2.133333 0
v -16 -2.133333 0
v -9.6 -3.2 0
v -10.66667 -3.2 0
v -10.66667 -2.133333 0
v -9.6 -2.133333 0
v -3.2 -3.2 0
v -4.266667 -3.2 0
v -4.266667 -2.133333 0
v -3.2 -2.133333 0

# Texture cooridinates (Count = 4)
vt 0.6322314 0.9372624
vt 0.6487603 0.9372624
vt 0.6487603 0.9676806
vt 0.6322314 0.9676806

# Normal
vn 0 0 -1

# Mesh description
g Law-Floor2_mesh_0005

# Faces
f 1/1/1 2/2/1 3/3/1 4/4/1
f 5/1/1 6/2/1 7/3/1 8/4/1
f 9/1/1 10/2/1 11/3/1 12/4/1

