# Tiled2Unity generated file. Do not modify by hand.
# Wavefront file for 'Music-Entrance_mesh_0011.obj'

# Vertices (Count = 336)
v -48 -19.2 0
v -49.06667 -19.2 0
v -49.06667 -18.13334 0
v -48 -18.13334 0
v -37.33334 -22.4 0
v -38.4 -22.4 0
v -38.4 -21.33333 0
v -37.33334 -21.33333 0
v -74.66667 -24.53333 0
v -75.73334 -24.53333 0
v -75.73334 -23.46667 0
v -74.66667 -23.46667 0
v -76.8 -24.53333 0
v -77.86667 -24.53333 0
v -77.86667 -23.46667 0
v -76.8 -23.46667 0
v -77.86667 -24.53333 0
v -78.93333 -24.53333 0
v -78.93333 -23.46667 0
v -77.86667 -23.46667 0
v -77.86667 -25.6 0
v -78.93333 -25.6 0
v -78.93333 -24.53333 0
v -77.86667 -24.53333 0
v -78.93333 -25.6 0
v -80.00001 -25.6 0
v -80.00001 -24.53333 0
v -78.93333 -24.53333 0
v -70.4 -26.66667 0
v -71.46667 -26.66667 0
v -71.46667 -25.6 0
v -70.4 -25.6 0
v -76.8 -26.66667 0
v -77.86667 -26.66667 0
v -77.86667 -25.6 0
v -76.8 -25.6 0
v -77.86667 -26.66667 0
v -78.93333 -26.66667 0
v -78.93333 -25.6 0
v -77.86667 -25.6 0
v -70.4 -28.8 0
v -71.46667 -28.8 0
v -71.46667 -27.73334 0
v -70.4 -27.73334 0
v -73.60001 -28.8 0
v -74.66667 -28.8 0
v -74.66667 -27.73334 0
v -73.60001 -27.73334 0
v -75.73334 -28.8 0
v -76.8 -28.8 0
v -76.8 -27.73334 0
v -75.73334 -27.73334 0
v -72.53334 -29.86667 0
v -73.60001 -29.86667 0
v -73.60001 -28.8 0
v -72.53334 -28.8 0
v -73.60001 -29.86667 0
v -74.66667 -29.86667 0
v -74.66667 -28.8 0
v -73.60001 -28.8 0
v -74.66667 -29.86667 0
v -75.73334 -29.86667 0
v -75.73334 -28.8 0
v -74.66667 -28.8 0
v -73.60001 -30.93333 0
v -74.66667 -30.93333 0
v -74.66667 -29.86667 0
v -73.60001 -29.86667 0
v -82.13334 -30.93333 0
v -83.2 -30.93333 0
v -83.2 -29.86667 0
v -82.13334 -29.86667 0
v -83.2 -30.93333 0
v -84.26667 -30.93333 0
v -84.26667 -29.86667 0
v -83.2 -29.86667 0
v -84.26667 -30.93333 0
v -85.33334 -30.93333 0
v -85.33334 -29.86667 0
v -84.26667 -29.86667 0
v -76.8 -33.06667 0
v -77.86667 -33.06667 0
v -77.86667 -32 0
v -76.8 -32 0
v -77.86667 -33.06667 0
v -78.93333 -33.06667 0
v -78.93333 -32 0
v -77.86667 -32 0
v -78.93333 -33.06667 0
v -80.00001 -33.06667 0
v -80.00001 -32 0
v -78.93333 -32 0
v -83.2 -33.06667 0
v -84.26667 -33.06667 0
v -84.26667 -32 0
v -83.2 -32 0
v -84.26667 -33.06667 0
v -85.33334 -33.06667 0
v -85.33334 -32 0
v -84.26667 -32 0
v -85.33334 -33.06667 0
v -86.4 -33.06667 0
v -86.4 -32 0
v -85.33334 -32 0
v -86.4 -33.06667 0
v -87.46667 -33.06667 0
v -87.46667 -32 0
v -86.4 -32 0
v -77.86667 -34.13334 0
v -78.93333 -34.13334 0
v -78.93333 -33.06667 0
v -77.86667 -33.06667 0
v -78.93333 -34.13334 0
v -80.00001 -34.13334 0
v -80.00001 -33.06667 0
v -78.93333 -33.06667 0
v -86.4 -34.13334 0
v -87.46667 -34.13334 0
v -87.46667 -33.06667 0
v -86.4 -33.06667 0
v -87.46667 -34.13334 0
v -88.53334 -34.13334 0
v -88.53334 -33.06667 0
v -87.46667 -33.06667 0
v -77.86667 -35.2 0
v -78.93333 -35.2 0
v -78.93333 -34.13334 0
v -77.86667 -34.13334 0
v -78.93333 -35.2 0
v -80.00001 -35.2 0
v -80.00001 -34.13334 0
v -78.93333 -34.13334 0
v -80.00001 -35.2 0
v -81.06667 -35.2 0
v -81.06667 -34.13334 0
v -80.00001 -34.13334 0
v -85.33334 -35.2 0
v -86.4 -35.2 0
v -86.4 -34.13334 0
v -85.33334 -34.13334 0
v -86.4 -35.2 0
v -87.46667 -35.2 0
v -87.46667 -34.13334 0
v -86.4 -34.13334 0
v -87.46667 -35.2 0
v -88.53334 -35.2 0
v -88.53334 -34.13334 0
v -87.46667 -34.13334 0
v -88.53334 -35.2 0
v -89.60001 -35.2 0
v -89.60001 -34.13334 0
v -88.53334 -34.13334 0
v -80.00001 -36.26667 0
v -81.06667 -36.26667 0
v -81.06667 -35.2 0
v -80.00001 -35.2 0
v -87.46667 -36.26667 0
v -88.53334 -36.26667 0
v -88.53334 -35.2 0
v -87.46667 -35.2 0
v -88.53334 -36.26667 0
v -89.60001 -36.26667 0
v -89.60001 -35.2 0
v -88.53334 -35.2 0
v -89.60001 -36.26667 0
v -90.66667 -36.26667 0
v -90.66667 -35.2 0
v -89.60001 -35.2 0
v -80.00001 -37.33334 0
v -81.06667 -37.33334 0
v -81.06667 -36.26667 0
v -80.00001 -36.26667 0
v -81.06667 -37.33334 0
v -82.13334 -37.33334 0
v -82.13334 -36.26667 0
v -81.06667 -36.26667 0
v -82.13334 -37.33334 0
v -83.2 -37.33334 0
v -83.2 -36.26667 0
v -82.13334 -36.26667 0
v -86.4 -37.33334 0
v -87.46667 -37.33334 0
v -87.46667 -36.26667 0
v -86.4 -36.26667 0
v -87.46667 -37.33334 0
v -88.53334 -37.33334 0
v -88.53334 -36.26667 0
v -87.46667 -36.26667 0
v -88.53334 -37.33334 0
v -89.60001 -37.33334 0
v -89.60001 -36.26667 0
v -88.53334 -36.26667 0
v -89.60001 -37.33334 0
v -90.66667 -37.33334 0
v -90.66667 -36.26667 0
v -89.60001 -36.26667 0
v -90.66667 -37.33334 0
v -91.73334 -37.33334 0
v -91.73334 -36.26667 0
v -90.66667 -36.26667 0
v -82.13334 -38.4 0
v -83.2 -38.4 0
v -83.2 -37.33334 0
v -82.13334 -37.33334 0
v -83.2 -38.4 0
v -84.26667 -38.4 0
v -84.26667 -37.33334 0
v -83.2 -37.33334 0
v -88.53334 -38.4 0
v -89.60001 -38.4 0
v -89.60001 -37.33334 0
v -88.53334 -37.33334 0
v -89.60001 -38.4 0
v -90.66667 -38.4 0
v -90.66667 -37.33334 0
v -89.60001 -37.33334 0
v -82.13334 -39.46667 0
v -83.2 -39.46667 0
v -83.2 -38.4 0
v -82.13334 -38.4 0
v -83.2 -39.46667 0
v -84.26667 -39.46667 0
v -84.26667 -38.4 0
v -83.2 -38.4 0
v -84.26667 -39.46667 0
v -85.33334 -39.46667 0
v -85.33334 -38.4 0
v -84.26667 -38.4 0
v -89.60001 -39.46667 0
v -90.66667 -39.46667 0
v -90.66667 -38.4 0
v -89.60001 -38.4 0
v -90.66667 -39.46667 0
v -91.73334 -39.46667 0
v -91.73334 -38.4 0
v -90.66667 -38.4 0
v -91.73334 -39.46667 0
v -92.8 -39.46667 0
v -92.8 -38.4 0
v -91.73334 -38.4 0
v -92.8 -39.46667 0
v -93.86667 -39.46667 0
v -93.86667 -38.4 0
v -92.8 -38.4 0
v -93.86667 -40.53334 0
v -94.93334 -40.53334 0
v -94.93334 -39.46667 0
v -93.86667 -39.46667 0
v -84.26667 -41.6 0
v -85.33334 -41.6 0
v -85.33334 -40.53334 0
v -84.26667 -40.53334 0
v -85.33334 -41.6 0
v -86.4 -41.6 0
v -86.4 -40.53334 0
v -85.33334 -40.53334 0
v -86.4 -41.6 0
v -87.46667 -41.6 0
v -87.46667 -40.53334 0
v -86.4 -40.53334 0
v -87.46667 -41.6 0
v -88.53334 -41.6 0
v -88.53334 -40.53334 0
v -87.46667 -40.53334 0
v -92.8 -41.6 0
v -93.86667 -41.6 0
v -93.86667 -40.53334 0
v -92.8 -40.53334 0
v -93.86667 -41.6 0
v -94.93334 -41.6 0
v -94.93334 -40.53334 0
v -93.86667 -40.53334 0
v -94.93334 -41.6 0
v -96.00001 -41.6 0
v -96.00001 -40.53334 0
v -94.93334 -40.53334 0
v -96.00001 -41.6 0
v -97.06667 -41.6 0
v -97.06667 -40.53334 0
v -96.00001 -40.53334 0
v -86.4 -42.66667 0
v -87.46667 -42.66667 0
v -87.46667 -41.6 0
v -86.4 -41.6 0
v -87.46667 -42.66667 0
v -88.53334 -42.66667 0
v -88.53334 -41.6 0
v -87.46667 -41.6 0
v -88.53334 -42.66667 0
v -89.60001 -42.66667 0
v -89.60001 -41.6 0
v -88.53334 -41.6 0
v -93.86667 -42.66667 0
v -94.93334 -42.66667 0
v -94.93334 -41.6 0
v -93.86667 -41.6 0
v -94.93334 -42.66667 0
v -96.00001 -42.66667 0
v -96.00001 -41.6 0
v -94.93334 -41.6 0
v -86.4 -43.73334 0
v -87.46667 -43.73334 0
v -87.46667 -42.66667 0
v -86.4 -42.66667 0
v -87.46667 -43.73334 0
v -88.53334 -43.73334 0
v -88.53334 -42.66667 0
v -87.46667 -42.66667 0
v -88.53334 -43.73334 0
v -89.60001 -43.73334 0
v -89.60001 -42.66667 0
v -88.53334 -42.66667 0
v -89.60001 -43.73334 0
v -90.66667 -43.73334 0
v -90.66667 -42.66667 0
v -89.60001 -42.66667 0
v -93.86667 -43.73334 0
v -94.93334 -43.73334 0
v -94.93334 -42.66667 0
v -93.86667 -42.66667 0
v -88.53334 -44.8 0
v -89.60001 -44.8 0
v -89.60001 -43.73334 0
v -88.53334 -43.73334 0
v -88.53334 -45.86667 0
v -89.60001 -45.86667 0
v -89.60001 -44.8 0
v -88.53334 -44.8 0
v -89.60001 -45.86667 0
v -90.66667 -45.86667 0
v -90.66667 -44.8 0
v -89.60001 -44.8 0
v -90.66667 -45.86667 0
v -91.73334 -45.86667 0
v -91.73334 -44.8 0
v -90.66667 -44.8 0

# Texture cooridinates (Count = 84)
vt 0.3512397 0.9695817
vt 0.3677686 0.9695817
vt 0.3677686 1
vt 0.3512397 1
vt 0.6673554 0.6463878
vt 0.6838843 0.6463878
vt 0.6838843 0.6768061
vt 0.6673554 0.6768061
vt 0.8956612 0.4847909
vt 0.9121901 0.4847909
vt 0.9121901 0.5152091
vt 0.8956612 0.5152091
vt 0.8780992 0.4847909
vt 0.8946281 0.4847909
vt 0.8946281 0.5152091
vt 0.8780992 0.5152091
vt 0.8078513 0.4847909
vt 0.8243802 0.4847909
vt 0.8243802 0.5152091
vt 0.8078513 0.5152091
vt 0.8429752 0.4847909
vt 0.8595041 0.4847909
vt 0.8595041 0.5152091
vt 0.8429752 0.5152091
vt 0.8605372 0.4847909
vt 0.8770661 0.4847909
vt 0.8770661 0.5152091
vt 0.8605372 0.5152091
vt 0.7902893 0.5817491
vt 0.8068182 0.5817491
vt 0.8068182 0.6121673
vt 0.7902893 0.6121673
vt 0.8254132 0.5817491
vt 0.8419421 0.5817491
vt 0.8419421 0.6121673
vt 0.8254132 0.6121673
vt 0.8605372 0.5817491
vt 0.8770661 0.5817491
vt 0.8770661 0.6121673
vt 0.8605372 0.6121673
vt 0.8078513 0.5817491
vt 0.8243802 0.5817491
vt 0.8243802 0.6121673
vt 0.8078513 0.6121673
vt 0.8780992 0.5171102
vt 0.8946281 0.5171102
vt 0.8946281 0.5475285
vt 0.8780992 0.5475285
vt 0.8254132 0.5171102
vt 0.8419421 0.5171102
vt 0.8419421 0.5475285
vt 0.8254132 0.5475285
vt 0.9132231 0.4847909
vt 0.9297521 0.4847909
vt 0.9297521 0.5152091
vt 0.9132231 0.5152091
vt 0.8429752 0.5494297
vt 0.8595041 0.5494297
vt 0.8595041 0.5798479
vt 0.8429752 0.5798479
vt 0.8780992 0.5817491
vt 0.8946281 0.5817491
vt 0.8946281 0.6121673
vt 0.8780992 0.6121673
vt 0.8780992 0.5494297
vt 0.8946281 0.5494297
vt 0.8946281 0.5798479
vt 0.8780992 0.5798479
vt 0.8254132 0.5494297
vt 0.8419421 0.5494297
vt 0.8419421 0.5798479
vt 0.8254132 0.5798479
vt 0.8429752 0.5171102
vt 0.8595041 0.5171102
vt 0.8595041 0.5475285
vt 0.8429752 0.5475285
vt 0.7902893 0.5171102
vt 0.8068182 0.5171102
vt 0.8068182 0.5475285
vt 0.7902893 0.5475285
vt 0.8429752 0.5817491
vt 0.8595041 0.5817491
vt 0.8595041 0.6121673
vt 0.8429752 0.6121673

# Normal
vn 0 0 -1

# Mesh description
g Music-Entrance_mesh_0011

# Faces
f 1/1/1 2/2/1 3/3/1 4/4/1
f 5/5/1 6/6/1 7/7/1 8/8/1
f 9/9/1 10/10/1 11/11/1 12/12/1
f 13/13/1 14/14/1 15/15/1 16/16/1
f 17/17/1 18/18/1 19/19/1 20/20/1
f 21/21/1 22/22/1 23/23/1 24/24/1
f 25/17/1 26/18/1 27/19/1 28/20/1
f 29/21/1 30/22/1 31/23/1 32/24/1
f 33/21/1 34/22/1 35/23/1 36/24/1
f 37/25/1 38/26/1 39/27/1 40/28/1
f 41/9/1 42/10/1 43/11/1 44/12/1
f 45/9/1 46/10/1 47/11/1 48/12/1
f 49/17/1 50/18/1 51/19/1 52/20/1
f 53/21/1 54/22/1 55/23/1 56/24/1
f 57/25/1 58/26/1 59/27/1 60/28/1
f 61/9/1 62/10/1 63/11/1 64/12/1
f 65/25/1 66/26/1 67/27/1 68/28/1
f 69/29/1 70/30/1 71/31/1 72/32/1
f 73/33/1 74/34/1 75/35/1 76/36/1
f 77/37/1 78/38/1 79/39/1 80/40/1
f 81/41/1 82/42/1 83/43/1 84/44/1
f 85/33/1 86/34/1 87/35/1 88/36/1
f 89/45/1 90/46/1 91/47/1 92/48/1
f 93/29/1 94/30/1 95/31/1 96/32/1
f 97/49/1 98/50/1 99/51/1 100/52/1
f 101/33/1 102/34/1 103/35/1 104/36/1
f 105/37/1 106/38/1 107/39/1 108/40/1
f 109/21/1 110/22/1 111/23/1 112/24/1
f 113/53/1 114/54/1 115/55/1 116/56/1
f 117/13/1 118/14/1 119/15/1 120/16/1
f 121/21/1 122/22/1 123/23/1 124/24/1
f 125/29/1 126/30/1 127/31/1 128/32/1
f 129/33/1 130/34/1 131/35/1 132/36/1
f 133/45/1 134/46/1 135/47/1 136/48/1
f 137/29/1 138/30/1 139/31/1 140/32/1
f 141/33/1 142/34/1 143/35/1 144/36/1
f 145/57/1 146/58/1 147/59/1 148/60/1
f 149/61/1 150/62/1 151/63/1 152/64/1
f 153/13/1 154/14/1 155/15/1 156/16/1
f 157/13/1 158/14/1 159/15/1 160/16/1
f 161/25/1 162/26/1 163/27/1 164/28/1
f 165/21/1 166/22/1 167/23/1 168/24/1
f 169/29/1 170/30/1 171/31/1 172/32/1
f 173/33/1 174/34/1 175/35/1 176/36/1
f 177/65/1 178/66/1 179/67/1 180/68/1
f 181/9/1 182/10/1 183/11/1 184/12/1
f 185/29/1 186/30/1 187/31/1 188/32/1
f 189/49/1 190/50/1 191/51/1 192/52/1
f 193/49/1 194/50/1 195/51/1 196/52/1
f 197/61/1 198/62/1 199/63/1 200/64/1
f 201/21/1 202/22/1 203/23/1 204/24/1
f 205/17/1 206/18/1 207/19/1 208/20/1
f 209/25/1 210/26/1 211/27/1 212/28/1
f 213/13/1 214/14/1 215/15/1 216/16/1
f 217/29/1 218/30/1 219/31/1 220/32/1
f 221/49/1 222/50/1 223/51/1 224/52/1
f 225/61/1 226/62/1 227/63/1 228/64/1
f 229/29/1 230/30/1 231/31/1 232/32/1
f 233/69/1 234/70/1 235/71/1 236/72/1
f 237/73/1 238/74/1 239/75/1 240/76/1
f 241/61/1 242/62/1 243/63/1 244/64/1
f 245/9/1 246/10/1 247/11/1 248/12/1
f 249/29/1 250/30/1 251/31/1 252/32/1
f 253/49/1 254/50/1 255/51/1 256/52/1
f 257/65/1 258/66/1 259/67/1 260/68/1
f 261/25/1 262/26/1 263/27/1 264/28/1
f 265/77/1 266/78/1 267/79/1 268/80/1
f 269/57/1 270/58/1 271/59/1 272/60/1
f 273/73/1 274/74/1 275/75/1 276/76/1
f 277/61/1 278/62/1 279/63/1 280/64/1
f 281/9/1 282/10/1 283/11/1 284/12/1
f 285/53/1 286/54/1 287/55/1 288/56/1
f 289/25/1 290/26/1 291/27/1 292/28/1
f 293/17/1 294/18/1 295/19/1 296/20/1
f 297/13/1 298/14/1 299/15/1 300/16/1
f 301/29/1 302/30/1 303/31/1 304/32/1
f 305/81/1 306/82/1 307/83/1 308/84/1
f 309/57/1 310/58/1 311/59/1 312/60/1
f 313/37/1 314/38/1 315/39/1 316/40/1
f 317/53/1 318/54/1 319/55/1 320/56/1
f 321/5/1 322/6/1 323/7/1 324/8/1
f 325/41/1 326/42/1 327/43/1 328/44/1
f 329/49/1 330/50/1 331/51/1 332/52/1
f 333/65/1 334/66/1 335/67/1 336/68/1

