# Tiled2Unity generated file. Do not modify by hand.
# Wavefront file for 'Music-Entrance_mesh_0010.obj'

# Vertices (Count = 312)
v -53.33334 -18.13334 0
v -54.4 -18.13334 0
v -54.4 -17.06667 0
v -53.33334 -17.06667 0
v -54.4 -18.13334 0
v -55.46667 -18.13334 0
v -55.46667 -17.06667 0
v -54.4 -17.06667 0
v -55.46667 -18.13334 0
v -56.53334 -18.13334 0
v -56.53334 -17.06667 0
v -55.46667 -17.06667 0
v -56.53334 -18.13334 0
v -57.6 -18.13334 0
v -57.6 -17.06667 0
v -56.53334 -17.06667 0
v -60.8 -18.13334 0
v -61.86667 -18.13334 0
v -61.86667 -17.06667 0
v -60.8 -17.06667 0
v -62.93334 -18.13334 0
v -64 -18.13334 0
v -64 -17.06667 0
v -62.93334 -17.06667 0
v -64 -18.13334 0
v -65.06667 -18.13334 0
v -65.06667 -17.06667 0
v -64 -17.06667 0
v -68.26667 -18.13334 0
v -69.33334 -18.13334 0
v -69.33334 -17.06667 0
v -68.26667 -17.06667 0
v -69.33334 -18.13334 0
v -70.4 -18.13334 0
v -70.4 -17.06667 0
v -69.33334 -17.06667 0
v -70.4 -18.13334 0
v -71.46667 -18.13334 0
v -71.46667 -17.06667 0
v -70.4 -17.06667 0
v -52.26667 -19.2 0
v -53.33334 -19.2 0
v -53.33334 -18.13334 0
v -52.26667 -18.13334 0
v -53.33334 -19.2 0
v -54.4 -19.2 0
v -54.4 -18.13334 0
v -53.33334 -18.13334 0
v -54.4 -19.2 0
v -55.46667 -19.2 0
v -55.46667 -18.13334 0
v -54.4 -18.13334 0
v -55.46667 -19.2 0
v -56.53334 -19.2 0
v -56.53334 -18.13334 0
v -55.46667 -18.13334 0
v -56.53334 -19.2 0
v -57.6 -19.2 0
v -57.6 -18.13334 0
v -56.53334 -18.13334 0
v -57.6 -19.2 0
v -58.66667 -19.2 0
v -58.66667 -18.13334 0
v -57.6 -18.13334 0
v -58.66667 -19.2 0
v -59.73334 -19.2 0
v -59.73334 -18.13334 0
v -58.66667 -18.13334 0
v -59.73334 -19.2 0
v -60.8 -19.2 0
v -60.8 -18.13334 0
v -59.73334 -18.13334 0
v -62.93334 -19.2 0
v -64 -19.2 0
v -64 -18.13334 0
v -62.93334 -18.13334 0
v -64 -19.2 0
v -65.06667 -19.2 0
v -65.06667 -18.13334 0
v -64 -18.13334 0
v -65.06667 -19.2 0
v -66.13334 -19.2 0
v -66.13334 -18.13334 0
v -65.06667 -18.13334 0
v -66.13334 -19.2 0
v -67.2 -19.2 0
v -67.2 -18.13334 0
v -66.13334 -18.13334 0
v -67.2 -19.2 0
v -68.26667 -19.2 0
v -68.26667 -18.13334 0
v -67.2 -18.13334 0
v -68.26667 -19.2 0
v -69.33334 -19.2 0
v -69.33334 -18.13334 0
v -68.26667 -18.13334 0
v -69.33334 -19.2 0
v -70.4 -19.2 0
v -70.4 -18.13334 0
v -69.33334 -18.13334 0
v -70.4 -19.2 0
v -71.46667 -19.2 0
v -71.46667 -18.13334 0
v -70.4 -18.13334 0
v -37.33334 -20.26667 0
v -38.4 -20.26667 0
v -38.4 -19.2 0
v -37.33334 -19.2 0
v -38.4 -20.26667 0
v -39.46667 -20.26667 0
v -39.46667 -19.2 0
v -38.4 -19.2 0
v -40.53334 -20.26667 0
v -41.6 -20.26667 0
v -41.6 -19.2 0
v -40.53334 -19.2 0
v -37.33334 -21.33333 0
v -38.4 -21.33333 0
v -38.4 -20.26667 0
v -37.33334 -20.26667 0
v -38.4 -21.33333 0
v -39.46667 -21.33333 0
v -39.46667 -20.26667 0
v -38.4 -20.26667 0
v -41.6 -21.33333 0
v -42.66667 -21.33333 0
v -42.66667 -20.26667 0
v -41.6 -20.26667 0
v -36.26667 -22.4 0
v -37.33334 -22.4 0
v -37.33334 -21.33333 0
v -36.26667 -21.33333 0
v -38.4 -22.4 0
v -39.46667 -22.4 0
v -39.46667 -21.33333 0
v -38.4 -21.33333 0
v -42.66667 -22.4 0
v -43.73334 -22.4 0
v -43.73334 -21.33333 0
v -42.66667 -21.33333 0
v -35.2 -23.46667 0
v -36.26667 -23.46667 0
v -36.26667 -22.4 0
v -35.2 -22.4 0
v -33.06667 -24.53333 0
v -34.13334 -24.53333 0
v -34.13334 -23.46667 0
v -33.06667 -23.46667 0
v -27.73334 -29.86667 0
v -28.8 -29.86667 0
v -28.8 -28.8 0
v -27.73334 -28.8 0
v -24.53333 -34.13334 0
v -25.6 -34.13334 0
v -25.6 -33.06667 0
v -24.53333 -33.06667 0
v -22.4 -35.2 0
v -23.46667 -35.2 0
v -23.46667 -34.13334 0
v -22.4 -34.13334 0
v -23.46667 -35.2 0
v -24.53333 -35.2 0
v -24.53333 -34.13334 0
v -23.46667 -34.13334 0
v -22.4 -36.26667 0
v -23.46667 -36.26667 0
v -23.46667 -35.2 0
v -22.4 -35.2 0
v -23.46667 -36.26667 0
v -24.53333 -36.26667 0
v -24.53333 -35.2 0
v -23.46667 -35.2 0
v -24.53333 -36.26667 0
v -25.6 -36.26667 0
v -25.6 -35.2 0
v -24.53333 -35.2 0
v -23.46667 -37.33334 0
v -24.53333 -37.33334 0
v -24.53333 -36.26667 0
v -23.46667 -36.26667 0
v -28.8 -37.33334 0
v -29.86667 -37.33334 0
v -29.86667 -36.26667 0
v -28.8 -36.26667 0
v -17.06667 -38.4 0
v -18.13334 -38.4 0
v -18.13334 -37.33334 0
v -17.06667 -37.33334 0
v -28.8 -38.4 0
v -29.86667 -38.4 0
v -29.86667 -37.33334 0
v -28.8 -37.33334 0
v -29.86667 -38.4 0
v -30.93333 -38.4 0
v -30.93333 -37.33334 0
v -29.86667 -37.33334 0
v -18.13334 -39.46667 0
v -19.2 -39.46667 0
v -19.2 -38.4 0
v -18.13334 -38.4 0
v -19.2 -39.46667 0
v -20.26667 -39.46667 0
v -20.26667 -38.4 0
v -19.2 -38.4 0
v -26.66667 -39.46667 0
v -27.73334 -39.46667 0
v -27.73334 -38.4 0
v -26.66667 -38.4 0
v -27.73334 -39.46667 0
v -28.8 -39.46667 0
v -28.8 -38.4 0
v -27.73334 -38.4 0
v -28.8 -39.46667 0
v -29.86667 -39.46667 0
v -29.86667 -38.4 0
v -28.8 -38.4 0
v -17.06667 -40.53334 0
v -18.13334 -40.53334 0
v -18.13334 -39.46667 0
v -17.06667 -39.46667 0
v -26.66667 -40.53334 0
v -27.73334 -40.53334 0
v -27.73334 -39.46667 0
v -26.66667 -39.46667 0
v -27.73334 -40.53334 0
v -28.8 -40.53334 0
v -28.8 -39.46667 0
v -27.73334 -39.46667 0
v -16 -41.6 0
v -17.06667 -41.6 0
v -17.06667 -40.53334 0
v -16 -40.53334 0
v -21.33333 -41.6 0
v -22.4 -41.6 0
v -22.4 -40.53334 0
v -21.33333 -40.53334 0
v -22.4 -41.6 0
v -23.46667 -41.6 0
v -23.46667 -40.53334 0
v -22.4 -40.53334 0
v -16 -42.66667 0
v -17.06667 -42.66667 0
v -17.06667 -41.6 0
v -16 -41.6 0
v -17.06667 -42.66667 0
v -18.13334 -42.66667 0
v -18.13334 -41.6 0
v -17.06667 -41.6 0
v -20.26667 -42.66667 0
v -21.33333 -42.66667 0
v -21.33333 -41.6 0
v -20.26667 -41.6 0
v -21.33333 -42.66667 0
v -22.4 -42.66667 0
v -22.4 -41.6 0
v -21.33333 -41.6 0
v -22.4 -42.66667 0
v -23.46667 -42.66667 0
v -23.46667 -41.6 0
v -22.4 -41.6 0
v -23.46667 -42.66667 0
v -24.53333 -42.66667 0
v -24.53333 -41.6 0
v -23.46667 -41.6 0
v -20.26667 -43.73334 0
v -21.33333 -43.73334 0
v -21.33333 -42.66667 0
v -20.26667 -42.66667 0
v -21.33333 -43.73334 0
v -22.4 -43.73334 0
v -22.4 -42.66667 0
v -21.33333 -42.66667 0
v -22.4 -43.73334 0
v -23.46667 -43.73334 0
v -23.46667 -42.66667 0
v -22.4 -42.66667 0
v -23.46667 -43.73334 0
v -24.53333 -43.73334 0
v -24.53333 -42.66667 0
v -23.46667 -42.66667 0
v -24.53333 -43.73334 0
v -25.6 -43.73334 0
v -25.6 -42.66667 0
v -24.53333 -42.66667 0
v -21.33333 -44.8 0
v -22.4 -44.8 0
v -22.4 -43.73334 0
v -21.33333 -43.73334 0
v -22.4 -44.8 0
v -23.46667 -44.8 0
v -23.46667 -43.73334 0
v -22.4 -43.73334 0
v -23.46667 -44.8 0
v -24.53333 -44.8 0
v -24.53333 -43.73334 0
v -23.46667 -43.73334 0
v -19.2 -45.86667 0
v -20.26667 -45.86667 0
v -20.26667 -44.8 0
v -19.2 -44.8 0
v -22.4 -45.86667 0
v -23.46667 -45.86667 0
v -23.46667 -44.8 0
v -22.4 -44.8 0
v -20.26667 -46.93333 0
v -21.33333 -46.93333 0
v -21.33333 -45.86667 0
v -20.26667 -45.86667 0
v -21.33333 -46.93333 0
v -22.4 -46.93333 0
v -22.4 -45.86667 0
v -21.33333 -45.86667 0

# Texture cooridinates (Count = 100)
vt 0.595186 0.1672131
vt 0.6301969 0.1672131
vt 0.6301969 0.2196721
vt 0.595186 0.2196721
vt 0.6323851 0.1672131
vt 0.6673961 0.1672131
vt 0.6673961 0.2196721
vt 0.6323851 0.2196721
vt 0.6695843 0.1672131
vt 0.7045952 0.1672131
vt 0.7045952 0.2196721
vt 0.6695843 0.2196721
vt 0.6323851 0.2229508
vt 0.6673961 0.2229508
vt 0.6673961 0.2754098
vt 0.6323851 0.2754098
vt 0.6323851 0.2786885
vt 0.6673961 0.2786885
vt 0.6673961 0.3311476
vt 0.6323851 0.3311476
vt 0.595186 0
vt 0.6301969 0
vt 0.6301969 0.052459
vt 0.595186 0.052459
vt 0.6323851 0
vt 0.6673961 0
vt 0.6673961 0.052459
vt 0.6323851 0.052459
vt 0.6695843 0
vt 0.7045952 0
vt 0.7045952 0.052459
vt 0.6695843 0.052459
vt 0.1115974 0.4459016
vt 0.1466083 0.4459016
vt 0.1466083 0.4983606
vt 0.1115974 0.4983606
vt 0.03719912 0.4459016
vt 0.07221007 0.4459016
vt 0.07221007 0.4983606
vt 0.03719912 0.4983606
vt 0.1487965 0.4459016
vt 0.1838074 0.4459016
vt 0.1838074 0.4983606
vt 0.1487965 0.4983606
vt 0.07439825 0.557377
vt 0.1094092 0.557377
vt 0.1094092 0.6098361
vt 0.07439825 0.6098361
vt 0.9299781 0.5016394
vt 0.9649891 0.5016394
vt 0.9649891 0.5540984
vt 0.9299781 0.5540984
vt 0 0.7803279
vt 0.03501094 0.7803279
vt 0.03501094 0.8327869
vt 0 0.8327869
vt 0.1115974 0.557377
vt 0.1466083 0.557377
vt 0.1466083 0.6098361
vt 0.1115974 0.6098361
vt 0.9299781 0.4459016
vt 0.9649891 0.4459016
vt 0.9649891 0.4983606
vt 0.9299781 0.4983606
vt 0.07439825 0.8360656
vt 0.1094092 0.8360656
vt 0.1094092 0.8885246
vt 0.07439825 0.8885246
vt 0.07439825 0.7245902
vt 0.1094092 0.7245902
vt 0.1094092 0.7770492
vt 0.07439825 0.7770492
vt 0.595186 0.947541
vt 0.6301969 0.947541
vt 0.6301969 1
vt 0.595186 1
vt 0.6323851 0.947541
vt 0.6673961 0.947541
vt 0.6673961 1
vt 0.6323851 1
vt 0.1115974 0.7803279
vt 0.1466083 0.7803279
vt 0.1466083 0.8327869
vt 0.1115974 0.8327869
vt 0 0.8360656
vt 0.03501094 0.8360656
vt 0.03501094 0.8885246
vt 0 0.8885246
vt 0.07439825 0.7803279
vt 0.1094092 0.7803279
vt 0.1094092 0.8327869
vt 0.07439825 0.8327869
vt 0.6695843 0.947541
vt 0.7045952 0.947541
vt 0.7045952 1
vt 0.6695843 1
vt 0.6323851 0.7803279
vt 0.6673961 0.7803279
vt 0.6673961 0.8327869
vt 0.6323851 0.8327869

# Normal
vn 0 0 -1

# Mesh description
g Music-Entrance_mesh_0010

# Faces
f 1/1/1 2/2/1 3/3/1 4/4/1
f 5/5/1 6/6/1 7/7/1 8/8/1
f 9/5/1 10/6/1 11/7/1 12/8/1
f 13/9/1 14/10/1 15/11/1 16/12/1
f 17/13/1 18/14/1 19/15/1 20/16/1
f 21/13/1 22/14/1 23/15/1 24/16/1
f 25/17/1 26/18/1 27/19/1 28/20/1
f 29/21/1 30/22/1 31/23/1 32/24/1
f 33/25/1 34/26/1 35/27/1 36/28/1
f 37/29/1 38/30/1 39/31/1 40/32/1
f 41/33/1 42/34/1 43/35/1 44/36/1
f 45/37/1 46/38/1 47/39/1 48/40/1
f 49/37/1 50/38/1 51/39/1 52/40/1
f 53/37/1 54/38/1 55/39/1 56/40/1
f 57/37/1 58/38/1 59/39/1 60/40/1
f 61/37/1 62/38/1 63/39/1 64/40/1
f 65/37/1 66/38/1 67/39/1 68/40/1
f 69/41/1 70/42/1 71/43/1 72/44/1
f 73/33/1 74/34/1 75/35/1 76/36/1
f 77/37/1 78/38/1 79/39/1 80/40/1
f 81/37/1 82/38/1 83/39/1 84/40/1
f 85/37/1 86/38/1 87/39/1 88/40/1
f 89/37/1 90/38/1 91/39/1 92/40/1
f 93/37/1 94/38/1 95/39/1 96/40/1
f 97/37/1 98/38/1 99/39/1 100/40/1
f 101/41/1 102/42/1 103/43/1 104/44/1
f 105/45/1 106/46/1 107/47/1 108/48/1
f 109/49/1 110/50/1 111/51/1 112/52/1
f 113/53/1 114/54/1 115/55/1 116/56/1
f 117/57/1 118/58/1 119/59/1 120/60/1
f 121/61/1 122/62/1 123/63/1 124/64/1
f 125/65/1 126/66/1 127/67/1 128/68/1
f 129/53/1 130/54/1 131/55/1 132/56/1
f 133/69/1 134/70/1 135/71/1 136/72/1
f 137/57/1 138/58/1 139/59/1 140/60/1
f 141/57/1 142/58/1 143/59/1 144/60/1
f 145/73/1 146/74/1 147/75/1 148/76/1
f 149/77/1 150/78/1 151/79/1 152/80/1
f 153/81/1 154/82/1 155/83/1 156/84/1
f 157/77/1 158/78/1 159/79/1 160/80/1
f 161/85/1 162/86/1 163/87/1 164/88/1
f 165/89/1 166/90/1 167/91/1 168/92/1
f 169/69/1 170/70/1 171/71/1 172/72/1
f 173/85/1 174/86/1 175/87/1 176/88/1
f 177/89/1 178/90/1 179/91/1 180/92/1
f 181/89/1 182/90/1 183/91/1 184/92/1
f 185/93/1 186/94/1 187/95/1 188/96/1
f 189/53/1 190/54/1 191/55/1 192/56/1
f 193/85/1 194/86/1 195/87/1 196/88/1
f 197/85/1 198/86/1 199/87/1 200/88/1
f 201/89/1 202/90/1 203/91/1 204/92/1
f 205/89/1 206/90/1 207/91/1 208/92/1
f 209/81/1 210/82/1 211/83/1 212/84/1
f 213/85/1 214/86/1 215/87/1 216/88/1
f 217/77/1 218/78/1 219/79/1 220/80/1
f 221/69/1 222/70/1 223/71/1 224/72/1
f 225/53/1 226/54/1 227/55/1 228/56/1
f 229/49/1 230/50/1 231/51/1 232/52/1
f 233/81/1 234/82/1 235/83/1 236/84/1
f 237/81/1 238/82/1 239/83/1 240/84/1
f 241/61/1 242/62/1 243/63/1 244/64/1
f 245/97/1 246/98/1 247/99/1 248/100/1
f 249/81/1 250/82/1 251/83/1 252/84/1
f 253/89/1 254/90/1 255/91/1 256/92/1
f 257/81/1 258/82/1 259/83/1 260/84/1
f 261/81/1 262/82/1 263/83/1 264/84/1
f 265/81/1 266/82/1 267/83/1 268/84/1
f 269/81/1 270/82/1 271/83/1 272/84/1
f 273/81/1 274/82/1 275/83/1 276/84/1
f 277/81/1 278/82/1 279/83/1 280/84/1
f 281/81/1 282/82/1 283/83/1 284/84/1
f 285/81/1 286/82/1 287/83/1 288/84/1
f 289/81/1 290/82/1 291/83/1 292/84/1
f 293/89/1 294/90/1 295/91/1 296/92/1
f 297/81/1 298/82/1 299/83/1 300/84/1
f 301/85/1 302/86/1 303/87/1 304/88/1
f 305/85/1 306/86/1 307/87/1 308/88/1
f 309/81/1 310/82/1 311/83/1 312/84/1

