# Tiled2Unity generated file. Do not modify by hand.
# Wavefront file for 'FroggerBackground_mesh_0002.obj'

# Vertices (Count = 460)
v -43.73334 -2.133333 0
v -44.8 -2.133333 0
v -44.8 -1.066667 0
v -43.73334 -1.066667 0
v -42.66667 -2.133333 0
v -43.73334 -2.133333 0
v -43.73334 -1.066667 0
v -42.66667 -1.066667 0
v -36.26667 -2.133333 0
v -37.33334 -2.133333 0
v -37.33334 -1.066667 0
v -36.26667 -1.066667 0
v -35.2 -2.133333 0
v -36.26667 -2.133333 0
v -36.26667 -1.066667 0
v -35.2 -1.066667 0
v -34.13334 -2.133333 0
v -35.2 -2.133333 0
v -35.2 -1.066667 0
v -34.13334 -1.066667 0
v -33.06667 -2.133333 0
v -34.13334 -2.133333 0
v -34.13334 -1.066667 0
v -33.06667 -1.066667 0
v -32 -2.133333 0
v -33.06667 -2.133333 0
v -33.06667 -1.066667 0
v -32 -1.066667 0
v -20.26667 -2.133333 0
v -21.33333 -2.133333 0
v -21.33333 -1.066667 0
v -20.26667 -1.066667 0
v -19.2 -2.133333 0
v -20.26667 -2.133333 0
v -20.26667 -1.066667 0
v -19.2 -1.066667 0
v -9.6 -2.133333 0
v -10.66667 -2.133333 0
v -10.66667 -1.066667 0
v -9.6 -1.066667 0
v -8.533334 -2.133333 0
v -9.6 -2.133333 0
v -9.6 -1.066667 0
v -8.533334 -1.066667 0
v -7.466667 -2.133333 0
v -8.533334 -2.133333 0
v -8.533334 -1.066667 0
v -7.466667 -1.066667 0
v -6.400001 -2.133333 0
v -7.466667 -2.133333 0
v -7.466667 -1.066667 0
v -6.400001 -1.066667 0
v -3.2 -2.133333 0
v -4.266667 -2.133333 0
v -4.266667 -1.066667 0
v -3.2 -1.066667 0
v -2.133333 -2.133333 0
v -3.2 -2.133333 0
v -3.2 -1.066667 0
v -2.133333 -1.066667 0
v -46.93333 -3.2 0
v -48 -3.2 0
v -48 -2.133333 0
v -46.93333 -2.133333 0
v -45.86667 -3.2 0
v -46.93333 -3.2 0
v -46.93333 -2.133333 0
v -45.86667 -2.133333 0
v -44.8 -3.2 0
v -45.86667 -3.2 0
v -45.86667 -2.133333 0
v -44.8 -2.133333 0
v -43.73334 -3.2 0
v -44.8 -3.2 0
v -44.8 -2.133333 0
v -43.73334 -2.133333 0
v -42.66667 -3.2 0
v -43.73334 -3.2 0
v -43.73334 -2.133333 0
v -42.66667 -2.133333 0
v -36.26667 -3.2 0
v -37.33334 -3.2 0
v -37.33334 -2.133333 0
v -36.26667 -2.133333 0
v -35.2 -3.2 0
v -36.26667 -3.2 0
v -36.26667 -2.133333 0
v -35.2 -2.133333 0
v -34.13334 -3.2 0
v -35.2 -3.2 0
v -35.2 -2.133333 0
v -34.13334 -2.133333 0
v -33.06667 -3.2 0
v -34.13334 -3.2 0
v -34.13334 -2.133333 0
v -33.06667 -2.133333 0
v -32 -3.2 0
v -33.06667 -3.2 0
v -33.06667 -2.133333 0
v -32 -2.133333 0
v -21.33333 -3.2 0
v -22.4 -3.2 0
v -22.4 -2.133333 0
v -21.33333 -2.133333 0
v -20.26667 -3.2 0
v -21.33333 -3.2 0
v -21.33333 -2.133333 0
v -20.26667 -2.133333 0
v -19.2 -3.2 0
v -20.26667 -3.2 0
v -20.26667 -2.133333 0
v -19.2 -2.133333 0
v -11.73333 -3.2 0
v -12.8 -3.2 0
v -12.8 -2.133333 0
v -11.73333 -2.133333 0
v -10.66667 -3.2 0
v -11.73333 -3.2 0
v -11.73333 -2.133333 0
v -10.66667 -2.133333 0
v -9.6 -3.2 0
v -10.66667 -3.2 0
v -10.66667 -2.133333 0
v -9.6 -2.133333 0
v -8.533334 -3.2 0
v -9.6 -3.2 0
v -9.6 -2.133333 0
v -8.533334 -2.133333 0
v -7.466667 -3.2 0
v -8.533334 -3.2 0
v -8.533334 -2.133333 0
v -7.466667 -2.133333 0
v -6.400001 -3.2 0
v -7.466667 -3.2 0
v -7.466667 -2.133333 0
v -6.400001 -2.133333 0
v -3.2 -3.2 0
v -4.266667 -3.2 0
v -4.266667 -2.133333 0
v -3.2 -2.133333 0
v -2.133333 -3.2 0
v -3.2 -3.2 0
v -3.2 -2.133333 0
v -2.133333 -2.133333 0
v -1.066667 -3.2 0
v -2.133333 -3.2 0
v -2.133333 -2.133333 0
v -1.066667 -2.133333 0
v -46.93333 -4.266667 0
v -48 -4.266667 0
v -48 -3.2 0
v -46.93333 -3.2 0
v -45.86667 -4.266667 0
v -46.93333 -4.266667 0
v -46.93333 -3.2 0
v -45.86667 -3.2 0
v -44.8 -4.266667 0
v -45.86667 -4.266667 0
v -45.86667 -3.2 0
v -44.8 -3.2 0
v -43.73334 -4.266667 0
v -44.8 -4.266667 0
v -44.8 -3.2 0
v -43.73334 -3.2 0
v -42.66667 -4.266667 0
v -43.73334 -4.266667 0
v -43.73334 -3.2 0
v -42.66667 -3.2 0
v -33.06667 -4.266667 0
v -34.13334 -4.266667 0
v -34.13334 -3.2 0
v -33.06667 -3.2 0
v -32 -4.266667 0
v -33.06667 -4.266667 0
v -33.06667 -3.2 0
v -32 -3.2 0
v -22.4 -4.266667 0
v -23.46667 -4.266667 0
v -23.46667 -3.2 0
v -22.4 -3.2 0
v -21.33333 -4.266667 0
v -22.4 -4.266667 0
v -22.4 -3.2 0
v -21.33333 -3.2 0
v -20.26667 -4.266667 0
v -21.33333 -4.266667 0
v -21.33333 -3.2 0
v -20.26667 -3.2 0
v -19.2 -4.266667 0
v -20.26667 -4.266667 0
v -20.26667 -3.2 0
v -19.2 -3.2 0
v -11.73333 -4.266667 0
v -12.8 -4.266667 0
v -12.8 -3.2 0
v -11.73333 -3.2 0
v -10.66667 -4.266667 0
v -11.73333 -4.266667 0
v -11.73333 -3.2 0
v -10.66667 -3.2 0
v -9.6 -4.266667 0
v -10.66667 -4.266667 0
v -10.66667 -3.2 0
v -9.6 -3.2 0
v -8.533334 -4.266667 0
v -9.6 -4.266667 0
v -9.6 -3.2 0
v -8.533334 -3.2 0
v -4.266667 -4.266667 0
v -5.333333 -4.266667 0
v -5.333333 -3.2 0
v -4.266667 -3.2 0
v -3.2 -4.266667 0
v -4.266667 -4.266667 0
v -4.266667 -3.2 0
v -3.2 -3.2 0
v -2.133333 -4.266667 0
v -3.2 -4.266667 0
v -3.2 -3.2 0
v -2.133333 -3.2 0
v -1.066667 -4.266667 0
v -2.133333 -4.266667 0
v -2.133333 -3.2 0
v -1.066667 -3.2 0
v -44.8 -5.333333 0
v -45.86667 -5.333333 0
v -45.86667 -4.266667 0
v -44.8 -4.266667 0
v -43.73334 -5.333333 0
v -44.8 -5.333333 0
v -44.8 -4.266667 0
v -43.73334 -4.266667 0
v -22.4 -5.333333 0
v -23.46667 -5.333333 0
v -23.46667 -4.266667 0
v -22.4 -4.266667 0
v -21.33333 -5.333333 0
v -22.4 -5.333333 0
v -22.4 -4.266667 0
v -21.33333 -4.266667 0
v -20.26667 -5.333333 0
v -21.33333 -5.333333 0
v -21.33333 -4.266667 0
v -20.26667 -4.266667 0
v -4.266667 -5.333333 0
v -5.333333 -5.333333 0
v -5.333333 -4.266667 0
v -4.266667 -4.266667 0
v -3.2 -5.333333 0
v -4.266667 -5.333333 0
v -4.266667 -4.266667 0
v -3.2 -4.266667 0
v -2.133333 -5.333333 0
v -3.2 -5.333333 0
v -3.2 -4.266667 0
v -2.133333 -4.266667 0
v -50.13334 -27.73334 0
v -51.2 -27.73334 0
v -51.2 -26.66667 0
v -50.13334 -26.66667 0
v -49.06667 -27.73334 0
v -50.13334 -27.73334 0
v -50.13334 -26.66667 0
v -49.06667 -26.66667 0
v -21.33333 -27.73334 0
v -22.4 -27.73334 0
v -22.4 -26.66667 0
v -21.33333 -26.66667 0
v -20.26667 -27.73334 0
v -21.33333 -27.73334 0
v -21.33333 -26.66667 0
v -20.26667 -26.66667 0
v -19.2 -27.73334 0
v -20.26667 -27.73334 0
v -20.26667 -26.66667 0
v -19.2 -26.66667 0
v -50.13334 -28.8 0
v -51.2 -28.8 0
v -51.2 -27.73334 0
v -50.13334 -27.73334 0
v -49.06667 -28.8 0
v -50.13334 -28.8 0
v -50.13334 -27.73334 0
v -49.06667 -27.73334 0
v -48 -28.8 0
v -49.06667 -28.8 0
v -49.06667 -27.73334 0
v -48 -27.73334 0
v -45.86667 -28.8 0
v -46.93333 -28.8 0
v -46.93333 -27.73334 0
v -45.86667 -27.73334 0
v -44.8 -28.8 0
v -45.86667 -28.8 0
v -45.86667 -27.73334 0
v -44.8 -27.73334 0
v -39.46667 -28.8 0
v -40.53334 -28.8 0
v -40.53334 -27.73334 0
v -39.46667 -27.73334 0
v -38.4 -28.8 0
v -39.46667 -28.8 0
v -39.46667 -27.73334 0
v -38.4 -27.73334 0
v -22.4 -28.8 0
v -23.46667 -28.8 0
v -23.46667 -27.73334 0
v -22.4 -27.73334 0
v -21.33333 -28.8 0
v -22.4 -28.8 0
v -22.4 -27.73334 0
v -21.33333 -27.73334 0
v -20.26667 -28.8 0
v -21.33333 -28.8 0
v -21.33333 -27.73334 0
v -20.26667 -27.73334 0
v -19.2 -28.8 0
v -20.26667 -28.8 0
v -20.26667 -27.73334 0
v -19.2 -27.73334 0
v -13.86667 -28.8 0
v -14.93333 -28.8 0
v -14.93333 -27.73334 0
v -13.86667 -27.73334 0
v -12.8 -28.8 0
v -13.86667 -28.8 0
v -13.86667 -27.73334 0
v -12.8 -27.73334 0
v -11.73333 -28.8 0
v -12.8 -28.8 0
v -12.8 -27.73334 0
v -11.73333 -27.73334 0
v -4.266667 -28.8 0
v -5.333333 -28.8 0
v -5.333333 -27.73334 0
v -4.266667 -27.73334 0
v -3.2 -28.8 0
v -4.266667 -28.8 0
v -4.266667 -27.73334 0
v -3.2 -27.73334 0
v -50.13334 -29.86667 0
v -51.2 -29.86667 0
v -51.2 -28.8 0
v -50.13334 -28.8 0
v -49.06667 -29.86667 0
v -50.13334 -29.86667 0
v -50.13334 -28.8 0
v -49.06667 -28.8 0
v -48 -29.86667 0
v -49.06667 -29.86667 0
v -49.06667 -28.8 0
v -48 -28.8 0
v -45.86667 -29.86667 0
v -46.93333 -29.86667 0
v -46.93333 -28.8 0
v -45.86667 -28.8 0
v -44.8 -29.86667 0
v -45.86667 -29.86667 0
v -45.86667 -28.8 0
v -44.8 -28.8 0
v -39.46667 -29.86667 0
v -40.53334 -29.86667 0
v -40.53334 -28.8 0
v -39.46667 -28.8 0
v -38.4 -29.86667 0
v -39.46667 -29.86667 0
v -39.46667 -28.8 0
v -38.4 -28.8 0
v -32 -29.86667 0
v -33.06667 -29.86667 0
v -33.06667 -28.8 0
v -32 -28.8 0
v -30.93333 -29.86667 0
v -32 -29.86667 0
v -32 -28.8 0
v -30.93333 -28.8 0
v -29.86667 -29.86667 0
v -30.93333 -29.86667 0
v -30.93333 -28.8 0
v -29.86667 -28.8 0
v -28.8 -29.86667 0
v -29.86667 -29.86667 0
v -29.86667 -28.8 0
v -28.8 -28.8 0
v -22.4 -29.86667 0
v -23.46667 -29.86667 0
v -23.46667 -28.8 0
v -22.4 -28.8 0
v -21.33333 -29.86667 0
v -22.4 -29.86667 0
v -22.4 -28.8 0
v -21.33333 -28.8 0
v -20.26667 -29.86667 0
v -21.33333 -29.86667 0
v -21.33333 -28.8 0
v -20.26667 -28.8 0
v -19.2 -29.86667 0
v -20.26667 -29.86667 0
v -20.26667 -28.8 0
v -19.2 -28.8 0
v -13.86667 -29.86667 0
v -14.93333 -29.86667 0
v -14.93333 -28.8 0
v -13.86667 -28.8 0
v -12.8 -29.86667 0
v -13.86667 -29.86667 0
v -13.86667 -28.8 0
v -12.8 -28.8 0
v -11.73333 -29.86667 0
v -12.8 -29.86667 0
v -12.8 -28.8 0
v -11.73333 -28.8 0
v -4.266667 -29.86667 0
v -5.333333 -29.86667 0
v -5.333333 -28.8 0
v -4.266667 -28.8 0
v -3.2 -29.86667 0
v -4.266667 -29.86667 0
v -4.266667 -28.8 0
v -3.2 -28.8 0
v -2.133333 -29.86667 0
v -3.2 -29.86667 0
v -3.2 -28.8 0
v -2.133333 -28.8 0
v -49.06667 -30.93333 0
v -50.13334 -30.93333 0
v -50.13334 -29.86667 0
v -49.06667 -29.86667 0
v -48 -30.93333 0
v -49.06667 -30.93333 0
v -49.06667 -29.86667 0
v -48 -29.86667 0
v -32 -30.93333 0
v -33.06667 -30.93333 0
v -33.06667 -29.86667 0
v -32 -29.86667 0
v -30.93333 -30.93333 0
v -32 -30.93333 0
v -32 -29.86667 0
v -30.93333 -29.86667 0
v -29.86667 -30.93333 0
v -30.93333 -30.93333 0
v -30.93333 -29.86667 0
v -29.86667 -29.86667 0
v -28.8 -30.93333 0
v -29.86667 -30.93333 0
v -29.86667 -29.86667 0
v -28.8 -29.86667 0
v -4.266667 -30.93333 0
v -5.333333 -30.93333 0
v -5.333333 -29.86667 0
v -4.266667 -29.86667 0
v -3.2 -30.93333 0
v -4.266667 -30.93333 0
v -4.266667 -29.86667 0
v -3.2 -29.86667 0
v -2.133333 -30.93333 0
v -3.2 -30.93333 0
v -3.2 -29.86667 0
v -2.133333 -29.86667 0

# Texture cooridinates (Count = 52)
vt 0.3248408 0.07157892
vt 0.3503185 0.07157892
vt 0.3503185 0.1052632
vt 0.3248408 0.1052632
vt 0.2707006 0.07157892
vt 0.2961783 0.07157892
vt 0.2961783 0.1052632
vt 0.2707006 0.1052632
vt 0.2977707 0.07157892
vt 0.3232484 0.07157892
vt 0.3232484 0.1052632
vt 0.2977707 0.1052632
vt 0.3519108 0.03578949
vt 0.3773885 0.03578949
vt 0.3773885 0.06947368
vt 0.3519108 0.06947368
vt 0.2707006 0.03578949
vt 0.2961783 0.03578949
vt 0.2961783 0.06947368
vt 0.2707006 0.06947368
vt 0.3248408 0
vt 0.3503185 0
vt 0.3503185 0.03368419
vt 0.3248408 0.03368419
vt 0.2977707 0
vt 0.3232484 0
vt 0.3232484 0.03368419
vt 0.2977707 0.03368419
vt 0.3519108 0.07157892
vt 0.3773885 0.07157892
vt 0.3773885 0.1052632
vt 0.3519108 0.1052632
vt 0.3789809 0.07157892
vt 0.4044586 0.07157892
vt 0.4044586 0.1052632
vt 0.3789809 0.1052632
vt 0.2707006 0
vt 0.2961783 0
vt 0.2961783 0.03368419
vt 0.2707006 0.03368419
vt 0.3248408 0.03578949
vt 0.3503185 0.03578949
vt 0.3503185 0.06947368
vt 0.3248408 0.06947368
vt 0.3789809 0.03578949
vt 0.4044586 0.03578949
vt 0.4044586 0.06947368
vt 0.3789809 0.06947368
vt 0.2977707 0.03578949
vt 0.3232484 0.03578949
vt 0.3232484 0.06947368
vt 0.2977707 0.06947368

# Normal
vn 0 0 -1

# Mesh description
g FroggerBackground_mesh_0002

# Faces
f 1/1/1 2/2/1 3/3/1 4/4/1
f 5/5/1 6/6/1 7/7/1 8/8/1
f 9/1/1 10/2/1 11/3/1 12/4/1
f 13/9/1 14/10/1 15/11/1 16/12/1
f 17/9/1 18/10/1 19/11/1 20/12/1
f 21/9/1 22/10/1 23/11/1 24/12/1
f 25/5/1 26/6/1 27/7/1 28/8/1
f 29/1/1 30/2/1 31/3/1 32/4/1
f 33/5/1 34/6/1 35/7/1 36/8/1
f 37/1/1 38/2/1 39/3/1 40/4/1
f 41/9/1 42/10/1 43/11/1 44/12/1
f 45/9/1 46/10/1 47/11/1 48/12/1
f 49/5/1 50/6/1 51/7/1 52/8/1
f 53/1/1 54/2/1 55/3/1 56/4/1
f 57/5/1 58/6/1 59/7/1 60/8/1
f 61/1/1 62/2/1 63/3/1 64/4/1
f 65/5/1 66/6/1 67/7/1 68/8/1
f 69/1/1 70/2/1 71/3/1 72/4/1
f 73/13/1 74/14/1 75/15/1 76/16/1
f 77/17/1 78/18/1 79/19/1 80/20/1
f 81/21/1 82/22/1 83/23/1 84/24/1
f 85/25/1 86/26/1 87/27/1 88/28/1
f 89/25/1 90/26/1 91/27/1 92/28/1
f 93/29/1 94/30/1 95/31/1 96/32/1
f 97/17/1 98/18/1 99/19/1 100/20/1
f 101/1/1 102/2/1 103/3/1 104/4/1
f 105/13/1 106/14/1 107/15/1 108/16/1
f 109/17/1 110/18/1 111/19/1 112/20/1
f 113/1/1 114/2/1 115/3/1 116/4/1
f 117/9/1 118/10/1 119/11/1 120/12/1
f 121/13/1 122/14/1 123/15/1 124/16/1
f 125/33/1 126/34/1 127/35/1 128/36/1
f 129/25/1 130/26/1 131/27/1 132/28/1
f 133/37/1 134/38/1 135/39/1 136/40/1
f 137/41/1 138/42/1 139/43/1 140/44/1
f 141/45/1 142/46/1 143/47/1 144/48/1
f 145/5/1 146/6/1 147/7/1 148/8/1
f 149/21/1 150/22/1 151/23/1 152/24/1
f 153/37/1 154/38/1 155/39/1 156/40/1
f 157/41/1 158/42/1 159/43/1 160/44/1
f 161/33/1 162/34/1 163/35/1 164/36/1
f 165/37/1 166/38/1 167/39/1 168/40/1
f 169/21/1 170/22/1 171/23/1 172/24/1
f 173/37/1 174/38/1 175/39/1 176/40/1
f 177/1/1 178/2/1 179/3/1 180/4/1
f 181/13/1 182/14/1 183/15/1 184/16/1
f 185/33/1 186/34/1 187/35/1 188/36/1
f 189/37/1 190/38/1 191/39/1 192/40/1
f 193/21/1 194/22/1 195/23/1 196/24/1
f 197/25/1 198/26/1 199/27/1 200/28/1
f 201/25/1 202/26/1 203/27/1 204/28/1
f 205/37/1 206/38/1 207/39/1 208/40/1
f 209/1/1 210/2/1 211/3/1 212/4/1
f 213/13/1 214/14/1 215/15/1 216/16/1
f 217/33/1 218/34/1 219/35/1 220/36/1
f 221/37/1 222/38/1 223/39/1 224/40/1
f 225/21/1 226/22/1 227/23/1 228/24/1
f 229/37/1 230/38/1 231/39/1 232/40/1
f 233/21/1 234/22/1 235/23/1 236/24/1
f 237/25/1 238/26/1 239/27/1 240/28/1
f 241/37/1 242/38/1 243/39/1 244/40/1
f 245/21/1 246/22/1 247/23/1 248/24/1
f 249/25/1 250/26/1 251/27/1 252/28/1
f 253/37/1 254/38/1 255/39/1 256/40/1
f 257/1/1 258/2/1 259/3/1 260/4/1
f 261/5/1 262/6/1 263/7/1 264/8/1
f 265/1/1 266/2/1 267/3/1 268/4/1
f 269/9/1 270/10/1 271/11/1 272/12/1
f 273/5/1 274/6/1 275/7/1 276/8/1
f 277/41/1 278/42/1 279/43/1 280/44/1
f 281/45/1 282/46/1 283/47/1 284/48/1
f 285/5/1 286/6/1 287/7/1 288/8/1
f 289/1/1 290/2/1 291/3/1 292/4/1
f 293/5/1 294/6/1 295/7/1 296/8/1
f 297/1/1 298/2/1 299/3/1 300/4/1
f 301/5/1 302/6/1 303/7/1 304/8/1
f 305/1/1 306/2/1 307/3/1 308/4/1
f 309/13/1 310/14/1 311/15/1 312/16/1
f 313/49/1 314/50/1 315/51/1 316/52/1
f 317/17/1 318/18/1 319/19/1 320/20/1
f 321/1/1 322/2/1 323/3/1 324/4/1
f 325/9/1 326/10/1 327/11/1 328/12/1
f 329/5/1 330/6/1 331/7/1 332/8/1
f 333/1/1 334/2/1 335/3/1 336/4/1
f 337/5/1 338/6/1 339/7/1 340/8/1
f 341/21/1 342/22/1 343/23/1 344/24/1
f 345/29/1 346/30/1 347/31/1 348/32/1
f 349/17/1 350/18/1 351/19/1 352/20/1
f 353/21/1 354/22/1 355/23/1 356/24/1
f 357/37/1 358/38/1 359/39/1 360/40/1
f 361/21/1 362/22/1 363/23/1 364/24/1
f 365/37/1 366/38/1 367/39/1 368/40/1
f 369/1/1 370/2/1 371/3/1 372/4/1
f 373/9/1 374/10/1 375/11/1 376/12/1
f 377/9/1 378/10/1 379/11/1 380/12/1
f 381/5/1 382/6/1 383/7/1 384/8/1
f 385/21/1 386/22/1 387/23/1 388/24/1
f 389/25/1 390/26/1 391/27/1 392/28/1
f 393/25/1 394/26/1 395/27/1 396/28/1
f 397/37/1 398/38/1 399/39/1 400/40/1
f 401/21/1 402/22/1 403/23/1 404/24/1
f 405/25/1 406/26/1 407/27/1 408/28/1
f 409/37/1 410/38/1 411/39/1 412/40/1
f 413/41/1 414/42/1 415/43/1 416/44/1
f 417/45/1 418/46/1 419/47/1 420/48/1
f 421/5/1 422/6/1 423/7/1 424/8/1
f 425/21/1 426/22/1 427/23/1 428/24/1
f 429/37/1 430/38/1 431/39/1 432/40/1
f 433/21/1 434/22/1 435/23/1 436/24/1
f 437/25/1 438/26/1 439/27/1 440/28/1
f 441/25/1 442/26/1 443/27/1 444/28/1
f 445/37/1 446/38/1 447/39/1 448/40/1
f 449/21/1 450/22/1 451/23/1 452/24/1
f 453/25/1 454/26/1 455/27/1 456/28/1
f 457/37/1 458/38/1 459/39/1 460/40/1

