# Tiled2Unity generated file. Do not modify by hand.
# Wavefront file for 'FroggerBackground_mesh_0004.obj'

# Vertices (Count = 96)
v -51.2 -1.066667 0
v -52.26667 -1.066667 0
v -52.26667 0 0
v -51.2 0 0
v -1.066667 -1.066667 0
v -2.133333 -1.066667 0
v -2.133333 0 0
v -1.066667 0 0
v -51.2 -2.133333 0
v -52.26667 -2.133333 0
v -52.26667 -1.066667 0
v -51.2 -1.066667 0
v -1.066667 -2.133333 0
v -2.133333 -2.133333 0
v -2.133333 -1.066667 0
v -1.066667 -1.066667 0
v -51.2 -4.266667 0
v -52.26667 -4.266667 0
v -52.26667 -3.2 0
v -51.2 -3.2 0
v -1.066667 -4.266667 0
v -2.133333 -4.266667 0
v -2.133333 -3.2 0
v -1.066667 -3.2 0
v -51.2 -5.333333 0
v -52.26667 -5.333333 0
v -52.26667 -4.266667 0
v -51.2 -4.266667 0
v -1.066667 -5.333333 0
v -2.133333 -5.333333 0
v -2.133333 -4.266667 0
v -1.066667 -4.266667 0
v -51.2 -11.73333 0
v -52.26667 -11.73333 0
v -52.26667 -10.66667 0
v -51.2 -10.66667 0
v -1.066667 -11.73333 0
v -2.133333 -11.73333 0
v -2.133333 -10.66667 0
v -1.066667 -10.66667 0
v -51.2 -12.8 0
v -52.26667 -12.8 0
v -52.26667 -11.73333 0
v -51.2 -11.73333 0
v -1.066667 -12.8 0
v -2.133333 -12.8 0
v -2.133333 -11.73333 0
v -1.066667 -11.73333 0
v -51.2 -19.2 0
v -52.26667 -19.2 0
v -52.26667 -18.13334 0
v -51.2 -18.13334 0
v -1.066667 -19.2 0
v -2.133333 -19.2 0
v -2.133333 -18.13334 0
v -1.066667 -18.13334 0
v -51.2 -20.26667 0
v -52.26667 -20.26667 0
v -52.26667 -19.2 0
v -51.2 -19.2 0
v -1.066667 -20.26667 0
v -2.133333 -20.26667 0
v -2.133333 -19.2 0
v -1.066667 -19.2 0
v -51.2 -26.66667 0
v -52.26667 -26.66667 0
v -52.26667 -25.6 0
v -51.2 -25.6 0
v -1.066667 -26.66667 0
v -2.133333 -26.66667 0
v -2.133333 -25.6 0
v -1.066667 -25.6 0
v -51.2 -27.73334 0
v -52.26667 -27.73334 0
v -52.26667 -26.66667 0
v -51.2 -26.66667 0
v -1.066667 -27.73334 0
v -2.133333 -27.73334 0
v -2.133333 -26.66667 0
v -1.066667 -26.66667 0
v -51.2 -29.86667 0
v -52.26667 -29.86667 0
v -52.26667 -28.8 0
v -51.2 -28.8 0
v -1.066667 -29.86667 0
v -2.133333 -29.86667 0
v -2.133333 -28.8 0
v -1.066667 -28.8 0
v -51.2 -30.93333 0
v -52.26667 -30.93333 0
v -52.26667 -29.86667 0
v -51.2 -29.86667 0
v -1.066667 -30.93333 0
v -2.133333 -30.93333 0
v -2.133333 -29.86667 0
v -1.066667 -29.86667 0

# Texture cooridinates (Count = 12)
vt 0.9745223 0.8947368
vt 1 0.8947368
vt 1 0.928421
vt 0.9745223 0.928421
vt 0.9474522 0.8947368
vt 0.97293 0.8947368
vt 0.97293 0.928421
vt 0.9474522 0.928421
vt 0.9474522 0.8589474
vt 0.97293 0.8589474
vt 0.97293 0.8926316
vt 0.9474522 0.8926316

# Normal
vn 0 0 -1

# Mesh description
g FroggerBackground_mesh_0004

# Faces
f 1/1/1 2/2/1 3/3/1 4/4/1
f 5/5/1 6/6/1 7/7/1 8/8/1
f 9/9/1 10/10/1 11/11/1 12/12/1
f 13/9/1 14/10/1 15/11/1 16/12/1
f 17/5/1 18/6/1 19/7/1 20/8/1
f 21/1/1 22/2/1 23/3/1 24/4/1
f 25/9/1 26/10/1 27/11/1 28/12/1
f 29/9/1 30/10/1 31/11/1 32/12/1
f 33/1/1 34/2/1 35/3/1 36/4/1
f 37/5/1 38/6/1 39/7/1 40/8/1
f 41/9/1 42/10/1 43/11/1 44/12/1
f 45/9/1 46/10/1 47/11/1 48/12/1
f 49/5/1 50/6/1 51/7/1 52/8/1
f 53/1/1 54/2/1 55/3/1 56/4/1
f 57/9/1 58/10/1 59/11/1 60/12/1
f 61/9/1 62/10/1 63/11/1 64/12/1
f 65/1/1 66/2/1 67/3/1 68/4/1
f 69/5/1 70/6/1 71/7/1 72/8/1
f 73/9/1 74/10/1 75/11/1 76/12/1
f 77/9/1 78/10/1 79/11/1 80/12/1
f 81/5/1 82/6/1 83/7/1 84/8/1
f 85/1/1 86/2/1 87/3/1 88/4/1
f 89/9/1 90/10/1 91/11/1 92/12/1
f 93/9/1 94/10/1 95/11/1 96/12/1

