# Tiled2Unity generated file. Do not modify by hand.
# Wavefront file for 'Law-Floor4_mesh_0006.obj'

# Vertices (Count = 8)
v -9.6 -3.2 0
v -10.66667 -3.2 0
v -10.66667 -2.133333 0
v -9.6 -2.133333 0
v -9.6 -12.8 0
v -10.66667 -12.8 0
v -10.66667 -11.73333 0
v -9.6 -11.73333 0

# Texture cooridinates (Count = 8)
vt 0.6322314 0.9372624
vt 0.6487603 0.9372624
vt 0.6487603 0.9676806
vt 0.6322314 0.9676806
vt 0.2809917 0.3878327
vt 0.2975207 0.3878327
vt 0.2975207 0.418251
vt 0.2809917 0.418251

# Normal
vn 0 0 -1

# Mesh description
g Law-Floor4_mesh_0006

# Faces
f 1/1/1 2/2/1 3/3/1 4/4/1
f 5/5/1 6/6/1 7/7/1 8/8/1

