# Tiled2Unity generated file. Do not modify by hand.
# Wavefront file for 'Law-Floor4_mesh_0003.obj'

# Vertices (Count = 356)
v -19.2 -1.066667 0
v -20.26667 -1.066667 0
v -20.26667 0 0
v -19.2 0 0
v -18.13334 -1.066667 0
v -19.2 -1.066667 0
v -19.2 0 0
v -18.13334 0 0
v -17.06667 -1.066667 0
v -18.13334 -1.066667 0
v -18.13334 0 0
v -17.06667 0 0
v -16 -1.066667 0
v -17.06667 -1.066667 0
v -17.06667 0 0
v -16 0 0
v -14.93333 -1.066667 0
v -16 -1.066667 0
v -16 0 0
v -14.93333 0 0
v -13.86667 -1.066667 0
v -14.93333 -1.066667 0
v -14.93333 0 0
v -13.86667 0 0
v -12.8 -1.066667 0
v -13.86667 -1.066667 0
v -13.86667 0 0
v -12.8 0 0
v -11.73333 -1.066667 0
v -12.8 -1.066667 0
v -12.8 0 0
v -11.73333 0 0
v -10.66667 -1.066667 0
v -11.73333 -1.066667 0
v -11.73333 0 0
v -10.66667 0 0
v -9.6 -1.066667 0
v -10.66667 -1.066667 0
v -10.66667 0 0
v -9.6 0 0
v -8.533334 -1.066667 0
v -9.6 -1.066667 0
v -9.6 0 0
v -8.533334 0 0
v -7.466667 -1.066667 0
v -8.533334 -1.066667 0
v -8.533334 0 0
v -7.466667 0 0
v -6.400001 -1.066667 0
v -7.466667 -1.066667 0
v -7.466667 0 0
v -6.400001 0 0
v -5.333333 -1.066667 0
v -6.400001 -1.066667 0
v -6.400001 0 0
v -5.333333 0 0
v -4.266667 -1.066667 0
v -5.333333 -1.066667 0
v -5.333333 0 0
v -4.266667 0 0
v -3.2 -1.066667 0
v -4.266667 -1.066667 0
v -4.266667 0 0
v -3.2 0 0
v -2.133333 -1.066667 0
v -3.2 -1.066667 0
v -3.2 0 0
v -2.133333 0 0
v -1.066667 -1.066667 0
v -2.133333 -1.066667 0
v -2.133333 0 0
v -1.066667 0 0
v 0 -1.066667 0
v -1.066667 -1.066667 0
v -1.066667 0 0
v 0 0 0
v -19.2 -2.133333 0
v -20.26667 -2.133333 0
v -20.26667 -1.066667 0
v -19.2 -1.066667 0
v -18.13334 -2.133333 0
v -19.2 -2.133333 0
v -19.2 -1.066667 0
v -18.13334 -1.066667 0
v -17.06667 -2.133333 0
v -18.13334 -2.133333 0
v -18.13334 -1.066667 0
v -17.06667 -1.066667 0
v -16 -2.133333 0
v -17.06667 -2.133333 0
v -17.06667 -1.066667 0
v -16 -1.066667 0
v -14.93333 -2.133333 0
v -16 -2.133333 0
v -16 -1.066667 0
v -14.93333 -1.066667 0
v -13.86667 -2.133333 0
v -14.93333 -2.133333 0
v -14.93333 -1.066667 0
v -13.86667 -1.066667 0
v -12.8 -2.133333 0
v -13.86667 -2.133333 0
v -13.86667 -1.066667 0
v -12.8 -1.066667 0
v -11.73333 -2.133333 0
v -12.8 -2.133333 0
v -12.8 -1.066667 0
v -11.73333 -1.066667 0
v -10.66667 -2.133333 0
v -11.73333 -2.133333 0
v -11.73333 -1.066667 0
v -10.66667 -1.066667 0
v -9.6 -2.133333 0
v -10.66667 -2.133333 0
v -10.66667 -1.066667 0
v -9.6 -1.066667 0
v -8.533334 -2.133333 0
v -9.6 -2.133333 0
v -9.6 -1.066667 0
v -8.533334 -1.066667 0
v -7.466667 -2.133333 0
v -8.533334 -2.133333 0
v -8.533334 -1.066667 0
v -7.466667 -1.066667 0
v -6.400001 -2.133333 0
v -7.466667 -2.133333 0
v -7.466667 -1.066667 0
v -6.400001 -1.066667 0
v -5.333333 -2.133333 0
v -6.400001 -2.133333 0
v -6.400001 -1.066667 0
v -5.333333 -1.066667 0
v -4.266667 -2.133333 0
v -5.333333 -2.133333 0
v -5.333333 -1.066667 0
v -4.266667 -1.066667 0
v -3.2 -2.133333 0
v -4.266667 -2.133333 0
v -4.266667 -1.066667 0
v -3.2 -1.066667 0
v -2.133333 -2.133333 0
v -3.2 -2.133333 0
v -3.2 -1.066667 0
v -2.133333 -1.066667 0
v -1.066667 -2.133333 0
v -2.133333 -2.133333 0
v -2.133333 -1.066667 0
v -1.066667 -1.066667 0
v 0 -2.133333 0
v -1.066667 -2.133333 0
v -1.066667 -1.066667 0
v 0 -1.066667 0
v -19.2 -3.2 0
v -20.26667 -3.2 0
v -20.26667 -2.133333 0
v -19.2 -2.133333 0
v -18.13334 -3.2 0
v -19.2 -3.2 0
v -19.2 -2.133333 0
v -18.13334 -2.133333 0
v -17.06667 -3.2 0
v -18.13334 -3.2 0
v -18.13334 -2.133333 0
v -17.06667 -2.133333 0
v -16 -3.2 0
v -17.06667 -3.2 0
v -17.06667 -2.133333 0
v -16 -2.133333 0
v -14.93333 -3.2 0
v -16 -3.2 0
v -16 -2.133333 0
v -14.93333 -2.133333 0
v -13.86667 -3.2 0
v -14.93333 -3.2 0
v -14.93333 -2.133333 0
v -13.86667 -2.133333 0
v -12.8 -3.2 0
v -13.86667 -3.2 0
v -13.86667 -2.133333 0
v -12.8 -2.133333 0
v -11.73333 -3.2 0
v -12.8 -3.2 0
v -12.8 -2.133333 0
v -11.73333 -2.133333 0
v -10.66667 -3.2 0
v -11.73333 -3.2 0
v -11.73333 -2.133333 0
v -10.66667 -2.133333 0
v -9.6 -3.2 0
v -10.66667 -3.2 0
v -10.66667 -2.133333 0
v -9.6 -2.133333 0
v -8.533334 -3.2 0
v -9.6 -3.2 0
v -9.6 -2.133333 0
v -8.533334 -2.133333 0
v -7.466667 -3.2 0
v -8.533334 -3.2 0
v -8.533334 -2.133333 0
v -7.466667 -2.133333 0
v -6.400001 -3.2 0
v -7.466667 -3.2 0
v -7.466667 -2.133333 0
v -6.400001 -2.133333 0
v -5.333333 -3.2 0
v -6.400001 -3.2 0
v -6.400001 -2.133333 0
v -5.333333 -2.133333 0
v -4.266667 -3.2 0
v -5.333333 -3.2 0
v -5.333333 -2.133333 0
v -4.266667 -2.133333 0
v -3.2 -3.2 0
v -4.266667 -3.2 0
v -4.266667 -2.133333 0
v -3.2 -2.133333 0
v -2.133333 -3.2 0
v -3.2 -3.2 0
v -3.2 -2.133333 0
v -2.133333 -2.133333 0
v -1.066667 -3.2 0
v -2.133333 -3.2 0
v -2.133333 -2.133333 0
v -1.066667 -2.133333 0
v 0 -3.2 0
v -1.066667 -3.2 0
v -1.066667 -2.133333 0
v 0 -2.133333 0
v -19.2 -4.266667 0
v -20.26667 -4.266667 0
v -20.26667 -3.2 0
v -19.2 -3.2 0
v 0 -4.266667 0
v -1.066667 -4.266667 0
v -1.066667 -3.2 0
v 0 -3.2 0
v -19.2 -5.333333 0
v -20.26667 -5.333333 0
v -20.26667 -4.266667 0
v -19.2 -4.266667 0
v 0 -5.333333 0
v -1.066667 -5.333333 0
v -1.066667 -4.266667 0
v 0 -4.266667 0
v -19.2 -6.400001 0
v -20.26667 -6.400001 0
v -20.26667 -5.333333 0
v -19.2 -5.333333 0
v 0 -6.400001 0
v -1.066667 -6.400001 0
v -1.066667 -5.333333 0
v 0 -5.333333 0
v -19.2 -7.466667 0
v -20.26667 -7.466667 0
v -20.26667 -6.400001 0
v -19.2 -6.400001 0
v 0 -7.466667 0
v -1.066667 -7.466667 0
v -1.066667 -6.400001 0
v 0 -6.400001 0
v -19.2 -8.533334 0
v -20.26667 -8.533334 0
v -20.26667 -7.466667 0
v -19.2 -7.466667 0
v 0 -8.533334 0
v -1.066667 -8.533334 0
v -1.066667 -7.466667 0
v 0 -7.466667 0
v -19.2 -9.6 0
v -20.26667 -9.6 0
v -20.26667 -8.533334 0
v -19.2 -8.533334 0
v 0 -9.6 0
v -1.066667 -9.6 0
v -1.066667 -8.533334 0
v 0 -8.533334 0
v -19.2 -10.66667 0
v -20.26667 -10.66667 0
v -20.26667 -9.6 0
v -19.2 -9.6 0
v 0 -10.66667 0
v -1.066667 -10.66667 0
v -1.066667 -9.6 0
v 0 -9.6 0
v -19.2 -11.73333 0
v -20.26667 -11.73333 0
v -20.26667 -10.66667 0
v -19.2 -10.66667 0
v 0 -11.73333 0
v -1.066667 -11.73333 0
v -1.066667 -10.66667 0
v 0 -10.66667 0
v -19.2 -12.8 0
v -20.26667 -12.8 0
v -20.26667 -11.73333 0
v -19.2 -11.73333 0
v 0 -12.8 0
v -1.066667 -12.8 0
v -1.066667 -11.73333 0
v 0 -11.73333 0
v -19.2 -13.86667 0
v -20.26667 -13.86667 0
v -20.26667 -12.8 0
v -19.2 -12.8 0
v 0 -13.86667 0
v -1.066667 -13.86667 0
v -1.066667 -12.8 0
v 0 -12.8 0
v -19.2 -14.93333 0
v -20.26667 -14.93333 0
v -20.26667 -13.86667 0
v -19.2 -13.86667 0
v 0 -14.93333 0
v -1.066667 -14.93333 0
v -1.066667 -13.86667 0
v 0 -13.86667 0
v -19.2 -16 0
v -20.26667 -16 0
v -20.26667 -14.93333 0
v -19.2 -14.93333 0
v 0 -16 0
v -1.066667 -16 0
v -1.066667 -14.93333 0
v 0 -14.93333 0
v -19.2 -17.06667 0
v -20.26667 -17.06667 0
v -20.26667 -16 0
v -19.2 -16 0
v 0 -17.06667 0
v -1.066667 -17.06667 0
v -1.066667 -16 0
v 0 -16 0
v -19.2 -18.13334 0
v -20.26667 -18.13334 0
v -20.26667 -17.06667 0
v -19.2 -17.06667 0
v 0 -18.13334 0
v -1.066667 -18.13334 0
v -1.066667 -17.06667 0
v 0 -17.06667 0
v -19.2 -19.2 0
v -20.26667 -19.2 0
v -20.26667 -18.13334 0
v -19.2 -18.13334 0
v 0 -19.2 0
v -1.066667 -19.2 0
v -1.066667 -18.13334 0
v 0 -18.13334 0
v -19.2 -20.26667 0
v -20.26667 -20.26667 0
v -20.26667 -19.2 0
v -19.2 -19.2 0
v 0 -20.26667 0
v -1.066667 -20.26667 0
v -1.066667 -19.2 0
v 0 -19.2 0

# Texture cooridinates (Count = 24)
vt 0.2985537 0.5817491
vt 0.3150826 0.5817491
vt 0.3150826 0.6121673
vt 0.2985537 0.6121673
vt 0.2458678 0.5817491
vt 0.2623967 0.5817491
vt 0.2623967 0.6121673
vt 0.2458678 0.6121673
vt 0.2809917 0.5817491
vt 0.2975207 0.5817491
vt 0.2975207 0.6121673
vt 0.2809917 0.6121673
vt 0.2634298 0.5494297
vt 0.2799587 0.5494297
vt 0.2799587 0.5798479
vt 0.2634298 0.5798479
vt 0.3161157 0.4847909
vt 0.3326446 0.4847909
vt 0.3326446 0.5152091
vt 0.3161157 0.5152091
vt 0.2283058 0.4847909
vt 0.2448347 0.4847909
vt 0.2448347 0.5152091
vt 0.2283058 0.5152091

# Normal
vn 0 0 -1

# Mesh description
g Law-Floor4_mesh_0003

# Faces
f 1/1/1 2/2/1 3/3/1 4/4/1
f 5/5/1 6/6/1 7/7/1 8/8/1
f 9/5/1 10/6/1 11/7/1 12/8/1
f 13/5/1 14/6/1 15/7/1 16/8/1
f 17/5/1 18/6/1 19/7/1 20/8/1
f 21/5/1 22/6/1 23/7/1 24/8/1
f 25/5/1 26/6/1 27/7/1 28/8/1
f 29/5/1 30/6/1 31/7/1 32/8/1
f 33/5/1 34/6/1 35/7/1 36/8/1
f 37/5/1 38/6/1 39/7/1 40/8/1
f 41/5/1 42/6/1 43/7/1 44/8/1
f 45/5/1 46/6/1 47/7/1 48/8/1
f 49/5/1 50/6/1 51/7/1 52/8/1
f 53/5/1 54/6/1 55/7/1 56/8/1
f 57/5/1 58/6/1 59/7/1 60/8/1
f 61/5/1 62/6/1 63/7/1 64/8/1
f 65/5/1 66/6/1 67/7/1 68/8/1
f 69/5/1 70/6/1 71/7/1 72/8/1
f 73/9/1 74/10/1 75/11/1 76/12/1
f 77/13/1 78/14/1 79/15/1 80/16/1
f 81/17/1 82/18/1 83/19/1 84/20/1
f 85/17/1 86/18/1 87/19/1 88/20/1
f 89/17/1 90/18/1 91/19/1 92/20/1
f 93/17/1 94/18/1 95/19/1 96/20/1
f 97/17/1 98/18/1 99/19/1 100/20/1
f 101/17/1 102/18/1 103/19/1 104/20/1
f 105/17/1 106/18/1 107/19/1 108/20/1
f 109/17/1 110/18/1 111/19/1 112/20/1
f 113/17/1 114/18/1 115/19/1 116/20/1
f 117/17/1 118/18/1 119/19/1 120/20/1
f 121/17/1 122/18/1 123/19/1 124/20/1
f 125/17/1 126/18/1 127/19/1 128/20/1
f 129/17/1 130/18/1 131/19/1 132/20/1
f 133/17/1 134/18/1 135/19/1 136/20/1
f 137/17/1 138/18/1 139/19/1 140/20/1
f 141/17/1 142/18/1 143/19/1 144/20/1
f 145/17/1 146/18/1 147/19/1 148/20/1
f 149/13/1 150/14/1 151/15/1 152/16/1
f 153/13/1 154/14/1 155/15/1 156/16/1
f 157/21/1 158/22/1 159/23/1 160/24/1
f 161/21/1 162/22/1 163/23/1 164/24/1
f 165/21/1 166/22/1 167/23/1 168/24/1
f 169/21/1 170/22/1 171/23/1 172/24/1
f 173/21/1 174/22/1 175/23/1 176/24/1
f 177/21/1 178/22/1 179/23/1 180/24/1
f 181/21/1 182/22/1 183/23/1 184/24/1
f 185/21/1 186/22/1 187/23/1 188/24/1
f 189/21/1 190/22/1 191/23/1 192/24/1
f 193/21/1 194/22/1 195/23/1 196/24/1
f 197/21/1 198/22/1 199/23/1 200/24/1
f 201/21/1 202/22/1 203/23/1 204/24/1
f 205/21/1 206/22/1 207/23/1 208/24/1
f 209/21/1 210/22/1 211/23/1 212/24/1
f 213/21/1 214/22/1 215/23/1 216/24/1
f 217/21/1 218/22/1 219/23/1 220/24/1
f 221/21/1 222/22/1 223/23/1 224/24/1
f 225/13/1 226/14/1 227/15/1 228/16/1
f 229/13/1 230/14/1 231/15/1 232/16/1
f 233/13/1 234/14/1 235/15/1 236/16/1
f 237/13/1 238/14/1 239/15/1 240/16/1
f 241/13/1 242/14/1 243/15/1 244/16/1
f 245/13/1 246/14/1 247/15/1 248/16/1
f 249/13/1 250/14/1 251/15/1 252/16/1
f 253/13/1 254/14/1 255/15/1 256/16/1
f 257/13/1 258/14/1 259/15/1 260/16/1
f 261/13/1 262/14/1 263/15/1 264/16/1
f 265/13/1 266/14/1 267/15/1 268/16/1
f 269/13/1 270/14/1 271/15/1 272/16/1
f 273/13/1 274/14/1 275/15/1 276/16/1
f 277/13/1 278/14/1 279/15/1 280/16/1
f 281/13/1 282/14/1 283/15/1 284/16/1
f 285/13/1 286/14/1 287/15/1 288/16/1
f 289/13/1 290/14/1 291/15/1 292/16/1
f 293/13/1 294/14/1 295/15/1 296/16/1
f 297/13/1 298/14/1 299/15/1 300/16/1
f 301/13/1 302/14/1 303/15/1 304/16/1
f 305/13/1 306/14/1 307/15/1 308/16/1
f 309/13/1 310/14/1 311/15/1 312/16/1
f 313/13/1 314/14/1 315/15/1 316/16/1
f 317/13/1 318/14/1 319/15/1 320/16/1
f 321/13/1 322/14/1 323/15/1 324/16/1
f 325/13/1 326/14/1 327/15/1 328/16/1
f 329/13/1 330/14/1 331/15/1 332/16/1
f 333/13/1 334/14/1 335/15/1 336/16/1
f 337/13/1 338/14/1 339/15/1 340/16/1
f 341/13/1 342/14/1 343/15/1 344/16/1
f 345/13/1 346/14/1 347/15/1 348/16/1
f 349/13/1 350/14/1 351/15/1 352/16/1
f 353/13/1 354/14/1 355/15/1 356/16/1

