# Tiled2Unity generated file. Do not modify by hand.
# Wavefront file for 'TFTV-Floor1_mesh_0004.obj'

# Vertices (Count = 384)
v -125.8667 -97.06667 0
v -126.9333 -97.06667 0
v -126.9333 -96.00001 0
v -125.8667 -96.00001 0
v -99.2 -97.06667 0
v -100.2667 -97.06667 0
v -100.2667 -96.00001 0
v -99.2 -96.00001 0
v -125.8667 -98.13334 0
v -126.9333 -98.13334 0
v -126.9333 -97.06667 0
v -125.8667 -97.06667 0
v -99.2 -98.13334 0
v -100.2667 -98.13334 0
v -100.2667 -97.06667 0
v -99.2 -97.06667 0
v -125.8667 -99.2 0
v -126.9333 -99.2 0
v -126.9333 -98.13334 0
v -125.8667 -98.13334 0
v -99.2 -99.2 0
v -100.2667 -99.2 0
v -100.2667 -98.13334 0
v -99.2 -98.13334 0
v -125.8667 -100.2667 0
v -126.9333 -100.2667 0
v -126.9333 -99.2 0
v -125.8667 -99.2 0
v -117.3333 -100.2667 0
v -118.4 -100.2667 0
v -118.4 -99.2 0
v -117.3333 -99.2 0
v -116.2667 -100.2667 0
v -117.3333 -100.2667 0
v -117.3333 -99.2 0
v -116.2667 -99.2 0
v -115.2 -100.2667 0
v -116.2667 -100.2667 0
v -116.2667 -99.2 0
v -115.2 -99.2 0
v -114.1333 -100.2667 0
v -115.2 -100.2667 0
v -115.2 -99.2 0
v -114.1333 -99.2 0
v -113.0667 -100.2667 0
v -114.1333 -100.2667 0
v -114.1333 -99.2 0
v -113.0667 -99.2 0
v -112 -100.2667 0
v -113.0667 -100.2667 0
v -113.0667 -99.2 0
v -112 -99.2 0
v -110.9333 -100.2667 0
v -112 -100.2667 0
v -112 -99.2 0
v -110.9333 -99.2 0
v -109.8667 -100.2667 0
v -110.9333 -100.2667 0
v -110.9333 -99.2 0
v -109.8667 -99.2 0
v -108.8 -100.2667 0
v -109.8667 -100.2667 0
v -109.8667 -99.2 0
v -108.8 -99.2 0
v -107.7333 -100.2667 0
v -108.8 -100.2667 0
v -108.8 -99.2 0
v -107.7333 -99.2 0
v -106.6667 -100.2667 0
v -107.7333 -100.2667 0
v -107.7333 -99.2 0
v -106.6667 -99.2 0
v -99.2 -100.2667 0
v -100.2667 -100.2667 0
v -100.2667 -99.2 0
v -99.2 -99.2 0
v -125.8667 -101.3333 0
v -126.9333 -101.3333 0
v -126.9333 -100.2667 0
v -125.8667 -100.2667 0
v -99.2 -101.3333 0
v -100.2667 -101.3333 0
v -100.2667 -100.2667 0
v -99.2 -100.2667 0
v -125.8667 -102.4 0
v -126.9333 -102.4 0
v -126.9333 -101.3333 0
v -125.8667 -101.3333 0
v -99.2 -102.4 0
v -100.2667 -102.4 0
v -100.2667 -101.3333 0
v -99.2 -101.3333 0
v -125.8667 -103.4667 0
v -126.9333 -103.4667 0
v -126.9333 -102.4 0
v -125.8667 -102.4 0
v -99.2 -103.4667 0
v -100.2667 -103.4667 0
v -100.2667 -102.4 0
v -99.2 -102.4 0
v -125.8667 -104.5333 0
v -126.9333 -104.5333 0
v -126.9333 -103.4667 0
v -125.8667 -103.4667 0
v -99.2 -104.5333 0
v -100.2667 -104.5333 0
v -100.2667 -103.4667 0
v -99.2 -103.4667 0
v -125.8667 -105.6 0
v -126.9333 -105.6 0
v -126.9333 -104.5333 0
v -125.8667 -104.5333 0
v -99.2 -105.6 0
v -100.2667 -105.6 0
v -100.2667 -104.5333 0
v -99.2 -104.5333 0
v -125.8667 -106.6667 0
v -126.9333 -106.6667 0
v -126.9333 -105.6 0
v -125.8667 -105.6 0
v -99.2 -106.6667 0
v -100.2667 -106.6667 0
v -100.2667 -105.6 0
v -99.2 -105.6 0
v -125.8667 -107.7333 0
v -126.9333 -107.7333 0
v -126.9333 -106.6667 0
v -125.8667 -106.6667 0
v -118.4 -107.7333 0
v -119.4667 -107.7333 0
v -119.4667 -106.6667 0
v -118.4 -106.6667 0
v -99.2 -107.7333 0
v -100.2667 -107.7333 0
v -100.2667 -106.6667 0
v -99.2 -106.6667 0
v -125.8667 -108.8 0
v -126.9333 -108.8 0
v -126.9333 -107.7333 0
v -125.8667 -107.7333 0
v -99.2 -108.8 0
v -100.2667 -108.8 0
v -100.2667 -107.7333 0
v -99.2 -107.7333 0
v -125.8667 -109.8667 0
v -126.9333 -109.8667 0
v -126.9333 -108.8 0
v -125.8667 -108.8 0
v -99.2 -109.8667 0
v -100.2667 -109.8667 0
v -100.2667 -108.8 0
v -99.2 -108.8 0
v -125.8667 -110.9333 0
v -126.9333 -110.9333 0
v -126.9333 -109.8667 0
v -125.8667 -109.8667 0
v -99.2 -110.9333 0
v -100.2667 -110.9333 0
v -100.2667 -109.8667 0
v -99.2 -109.8667 0
v -125.8667 -112 0
v -126.9333 -112 0
v -126.9333 -110.9333 0
v -125.8667 -110.9333 0
v -99.2 -112 0
v -100.2667 -112 0
v -100.2667 -110.9333 0
v -99.2 -110.9333 0
v -125.8667 -113.0667 0
v -126.9333 -113.0667 0
v -126.9333 -112 0
v -125.8667 -112 0
v -99.2 -113.0667 0
v -100.2667 -113.0667 0
v -100.2667 -112 0
v -99.2 -112 0
v -125.8667 -114.1333 0
v -126.9333 -114.1333 0
v -126.9333 -113.0667 0
v -125.8667 -113.0667 0
v -124.8 -114.1333 0
v -125.8667 -114.1333 0
v -125.8667 -113.0667 0
v -124.8 -113.0667 0
v -123.7333 -114.1333 0
v -124.8 -114.1333 0
v -124.8 -113.0667 0
v -123.7333 -113.0667 0
v -122.6667 -114.1333 0
v -123.7333 -114.1333 0
v -123.7333 -113.0667 0
v -122.6667 -113.0667 0
v -121.6 -114.1333 0
v -122.6667 -114.1333 0
v -122.6667 -113.0667 0
v -121.6 -113.0667 0
v -120.5333 -114.1333 0
v -121.6 -114.1333 0
v -121.6 -113.0667 0
v -120.5333 -113.0667 0
v -119.4667 -114.1333 0
v -120.5333 -114.1333 0
v -120.5333 -113.0667 0
v -119.4667 -113.0667 0
v -118.4 -114.1333 0
v -119.4667 -114.1333 0
v -119.4667 -113.0667 0
v -118.4 -113.0667 0
v -117.3333 -114.1333 0
v -118.4 -114.1333 0
v -118.4 -113.0667 0
v -117.3333 -113.0667 0
v -116.2667 -114.1333 0
v -117.3333 -114.1333 0
v -117.3333 -113.0667 0
v -116.2667 -113.0667 0
v -115.2 -114.1333 0
v -116.2667 -114.1333 0
v -116.2667 -113.0667 0
v -115.2 -113.0667 0
v -114.1333 -114.1333 0
v -115.2 -114.1333 0
v -115.2 -113.0667 0
v -114.1333 -113.0667 0
v -113.0667 -114.1333 0
v -114.1333 -114.1333 0
v -114.1333 -113.0667 0
v -113.0667 -113.0667 0
v -112 -114.1333 0
v -113.0667 -114.1333 0
v -113.0667 -113.0667 0
v -112 -113.0667 0
v -110.9333 -114.1333 0
v -112 -114.1333 0
v -112 -113.0667 0
v -110.9333 -113.0667 0
v -109.8667 -114.1333 0
v -110.9333 -114.1333 0
v -110.9333 -113.0667 0
v -109.8667 -113.0667 0
v -108.8 -114.1333 0
v -109.8667 -114.1333 0
v -109.8667 -113.0667 0
v -108.8 -113.0667 0
v -107.7333 -114.1333 0
v -108.8 -114.1333 0
v -108.8 -113.0667 0
v -107.7333 -113.0667 0
v -106.6667 -114.1333 0
v -107.7333 -114.1333 0
v -107.7333 -113.0667 0
v -106.6667 -113.0667 0
v -105.6 -114.1333 0
v -106.6667 -114.1333 0
v -106.6667 -113.0667 0
v -105.6 -113.0667 0
v -104.5333 -114.1333 0
v -105.6 -114.1333 0
v -105.6 -113.0667 0
v -104.5333 -113.0667 0
v -103.4667 -114.1333 0
v -104.5333 -114.1333 0
v -104.5333 -113.0667 0
v -103.4667 -113.0667 0
v -102.4 -114.1333 0
v -103.4667 -114.1333 0
v -103.4667 -113.0667 0
v -102.4 -113.0667 0
v -101.3333 -114.1333 0
v -102.4 -114.1333 0
v -102.4 -113.0667 0
v -101.3333 -113.0667 0
v -100.2667 -114.1333 0
v -101.3333 -114.1333 0
v -101.3333 -113.0667 0
v -100.2667 -113.0667 0
v -99.2 -114.1333 0
v -100.2667 -114.1333 0
v -100.2667 -113.0667 0
v -99.2 -113.0667 0
v -125.8667 -115.2 0
v -126.9333 -115.2 0
v -126.9333 -114.1333 0
v -125.8667 -114.1333 0
v -124.8 -115.2 0
v -125.8667 -115.2 0
v -125.8667 -114.1333 0
v -124.8 -114.1333 0
v -123.7333 -115.2 0
v -124.8 -115.2 0
v -124.8 -114.1333 0
v -123.7333 -114.1333 0
v -122.6667 -115.2 0
v -123.7333 -115.2 0
v -123.7333 -114.1333 0
v -122.6667 -114.1333 0
v -121.6 -115.2 0
v -122.6667 -115.2 0
v -122.6667 -114.1333 0
v -121.6 -114.1333 0
v -120.5333 -115.2 0
v -121.6 -115.2 0
v -121.6 -114.1333 0
v -120.5333 -114.1333 0
v -119.4667 -115.2 0
v -120.5333 -115.2 0
v -120.5333 -114.1333 0
v -119.4667 -114.1333 0
v -118.4 -115.2 0
v -119.4667 -115.2 0
v -119.4667 -114.1333 0
v -118.4 -114.1333 0
v -117.3333 -115.2 0
v -118.4 -115.2 0
v -118.4 -114.1333 0
v -117.3333 -114.1333 0
v -116.2667 -115.2 0
v -117.3333 -115.2 0
v -117.3333 -114.1333 0
v -116.2667 -114.1333 0
v -115.2 -115.2 0
v -116.2667 -115.2 0
v -116.2667 -114.1333 0
v -115.2 -114.1333 0
v -114.1333 -115.2 0
v -115.2 -115.2 0
v -115.2 -114.1333 0
v -114.1333 -114.1333 0
v -113.0667 -115.2 0
v -114.1333 -115.2 0
v -114.1333 -114.1333 0
v -113.0667 -114.1333 0
v -112 -115.2 0
v -113.0667 -115.2 0
v -113.0667 -114.1333 0
v -112 -114.1333 0
v -110.9333 -115.2 0
v -112 -115.2 0
v -112 -114.1333 0
v -110.9333 -114.1333 0
v -109.8667 -115.2 0
v -110.9333 -115.2 0
v -110.9333 -114.1333 0
v -109.8667 -114.1333 0
v -108.8 -115.2 0
v -109.8667 -115.2 0
v -109.8667 -114.1333 0
v -108.8 -114.1333 0
v -107.7333 -115.2 0
v -108.8 -115.2 0
v -108.8 -114.1333 0
v -107.7333 -114.1333 0
v -106.6667 -115.2 0
v -107.7333 -115.2 0
v -107.7333 -114.1333 0
v -106.6667 -114.1333 0
v -105.6 -115.2 0
v -106.6667 -115.2 0
v -106.6667 -114.1333 0
v -105.6 -114.1333 0
v -104.5333 -115.2 0
v -105.6 -115.2 0
v -105.6 -114.1333 0
v -104.5333 -114.1333 0
v -103.4667 -115.2 0
v -104.5333 -115.2 0
v -104.5333 -114.1333 0
v -103.4667 -114.1333 0
v -102.4 -115.2 0
v -103.4667 -115.2 0
v -103.4667 -114.1333 0
v -102.4 -114.1333 0
v -101.3333 -115.2 0
v -102.4 -115.2 0
v -102.4 -114.1333 0
v -101.3333 -114.1333 0
v -100.2667 -115.2 0
v -101.3333 -115.2 0
v -101.3333 -114.1333 0
v -100.2667 -114.1333 0
v -99.2 -115.2 0
v -100.2667 -115.2 0
v -100.2667 -114.1333 0
v -99.2 -114.1333 0

# Texture cooridinates (Count = 40)
vt 0.3863636 0.5494297
vt 0.4028926 0.5494297
vt 0.4028926 0.5798479
vt 0.3863636 0.5798479
vt 0.6146694 0.5817491
vt 0.6311983 0.5817491
vt 0.6311983 0.6121673
vt 0.6146694 0.6121673
vt 0.6497934 0.5817491
vt 0.6663223 0.5817491
vt 0.6663223 0.6121673
vt 0.6497934 0.6121673
vt 0.5971074 0.5494297
vt 0.6136364 0.5494297
vt 0.6136364 0.5798479
vt 0.5971074 0.5798479
vt 0.4214876 0.5494297
vt 0.4380165 0.5494297
vt 0.4380165 0.5798479
vt 0.4214876 0.5798479
vt 0.3688017 0.5817491
vt 0.3853306 0.5817491
vt 0.3853306 0.6121673
vt 0.3688017 0.6121673
vt 0.4039256 0.5494297
vt 0.4204545 0.5494297
vt 0.4204545 0.5798479
vt 0.4039256 0.5798479
vt 0.4039256 0.4847909
vt 0.4204545 0.4847909
vt 0.4204545 0.5152091
vt 0.4039256 0.5152091
vt 0.3512397 0.4847909
vt 0.3677686 0.4847909
vt 0.3677686 0.5152091
vt 0.3512397 0.5152091
vt 0.3688017 0.4847909
vt 0.3853306 0.4847909
vt 0.3853306 0.5152091
vt 0.3688017 0.5152091

# Normal
vn 0 0 -1

# Mesh description
g TFTV-Floor1_mesh_0004

# Faces
f 1/1/1 2/2/1 3/3/1 4/4/1
f 5/1/1 6/2/1 7/3/1 8/4/1
f 9/1/1 10/2/1 11/3/1 12/4/1
f 13/1/1 14/2/1 15/3/1 16/4/1
f 17/1/1 18/2/1 19/3/1 20/4/1
f 21/1/1 22/2/1 23/3/1 24/4/1
f 25/1/1 26/2/1 27/3/1 28/4/1
f 29/5/1 30/6/1 31/7/1 32/8/1
f 33/5/1 34/6/1 35/7/1 36/8/1
f 37/5/1 38/6/1 39/7/1 40/8/1
f 41/5/1 42/6/1 43/7/1 44/8/1
f 45/5/1 46/6/1 47/7/1 48/8/1
f 49/5/1 50/6/1 51/7/1 52/8/1
f 53/5/1 54/6/1 55/7/1 56/8/1
f 57/5/1 58/6/1 59/7/1 60/8/1
f 61/5/1 62/6/1 63/7/1 64/8/1
f 65/5/1 66/6/1 67/7/1 68/8/1
f 69/9/1 70/10/1 71/11/1 72/12/1
f 73/1/1 74/2/1 75/3/1 76/4/1
f 77/1/1 78/2/1 79/3/1 80/4/1
f 81/1/1 82/2/1 83/3/1 84/4/1
f 85/1/1 86/2/1 87/3/1 88/4/1
f 89/1/1 90/2/1 91/3/1 92/4/1
f 93/1/1 94/2/1 95/3/1 96/4/1
f 97/1/1 98/2/1 99/3/1 100/4/1
f 101/1/1 102/2/1 103/3/1 104/4/1
f 105/1/1 106/2/1 107/3/1 108/4/1
f 109/1/1 110/2/1 111/3/1 112/4/1
f 113/1/1 114/2/1 115/3/1 116/4/1
f 117/1/1 118/2/1 119/3/1 120/4/1
f 121/1/1 122/2/1 123/3/1 124/4/1
f 125/1/1 126/2/1 127/3/1 128/4/1
f 129/13/1 130/14/1 131/15/1 132/16/1
f 133/1/1 134/2/1 135/3/1 136/4/1
f 137/1/1 138/2/1 139/3/1 140/4/1
f 141/1/1 142/2/1 143/3/1 144/4/1
f 145/1/1 146/2/1 147/3/1 148/4/1
f 149/1/1 150/2/1 151/3/1 152/4/1
f 153/1/1 154/2/1 155/3/1 156/4/1
f 157/1/1 158/2/1 159/3/1 160/4/1
f 161/1/1 162/2/1 163/3/1 164/4/1
f 165/1/1 166/2/1 167/3/1 168/4/1
f 169/1/1 170/2/1 171/3/1 172/4/1
f 173/1/1 174/2/1 175/3/1 176/4/1
f 177/17/1 178/18/1 179/19/1 180/20/1
f 181/21/1 182/22/1 183/23/1 184/24/1
f 185/21/1 186/22/1 187/23/1 188/24/1
f 189/21/1 190/22/1 191/23/1 192/24/1
f 193/21/1 194/22/1 195/23/1 196/24/1
f 197/21/1 198/22/1 199/23/1 200/24/1
f 201/21/1 202/22/1 203/23/1 204/24/1
f 205/21/1 206/22/1 207/23/1 208/24/1
f 209/21/1 210/22/1 211/23/1 212/24/1
f 213/21/1 214/22/1 215/23/1 216/24/1
f 217/21/1 218/22/1 219/23/1 220/24/1
f 221/21/1 222/22/1 223/23/1 224/24/1
f 225/21/1 226/22/1 227/23/1 228/24/1
f 229/21/1 230/22/1 231/23/1 232/24/1
f 233/21/1 234/22/1 235/23/1 236/24/1
f 237/21/1 238/22/1 239/23/1 240/24/1
f 241/21/1 242/22/1 243/23/1 244/24/1
f 245/21/1 246/22/1 247/23/1 248/24/1
f 249/21/1 250/22/1 251/23/1 252/24/1
f 253/21/1 254/22/1 255/23/1 256/24/1
f 257/21/1 258/22/1 259/23/1 260/24/1
f 261/21/1 262/22/1 263/23/1 264/24/1
f 265/21/1 266/22/1 267/23/1 268/24/1
f 269/21/1 270/22/1 271/23/1 272/24/1
f 273/21/1 274/22/1 275/23/1 276/24/1
f 277/25/1 278/26/1 279/27/1 280/28/1
f 281/29/1 282/30/1 283/31/1 284/32/1
f 285/33/1 286/34/1 287/35/1 288/36/1
f 289/33/1 290/34/1 291/35/1 292/36/1
f 293/33/1 294/34/1 295/35/1 296/36/1
f 297/33/1 298/34/1 299/35/1 300/36/1
f 301/33/1 302/34/1 303/35/1 304/36/1
f 305/33/1 306/34/1 307/35/1 308/36/1
f 309/33/1 310/34/1 311/35/1 312/36/1
f 313/33/1 314/34/1 315/35/1 316/36/1
f 317/33/1 318/34/1 319/35/1 320/36/1
f 321/33/1 322/34/1 323/35/1 324/36/1
f 325/33/1 326/34/1 327/35/1 328/36/1
f 329/33/1 330/34/1 331/35/1 332/36/1
f 333/33/1 334/34/1 335/35/1 336/36/1
f 337/33/1 338/34/1 339/35/1 340/36/1
f 341/33/1 342/34/1 343/35/1 344/36/1
f 345/33/1 346/34/1 347/35/1 348/36/1
f 349/33/1 350/34/1 351/35/1 352/36/1
f 353/33/1 354/34/1 355/35/1 356/36/1
f 357/33/1 358/34/1 359/35/1 360/36/1
f 361/33/1 362/34/1 363/35/1 364/36/1
f 365/33/1 366/34/1 367/35/1 368/36/1
f 369/33/1 370/34/1 371/35/1 372/36/1
f 373/33/1 374/34/1 375/35/1 376/36/1
f 377/33/1 378/34/1 379/35/1 380/36/1
f 381/37/1 382/38/1 383/39/1 384/40/1

