# Tiled2Unity generated file. Do not modify by hand.
# Wavefront file for 'Law-Floor3_mesh_0005.obj'

# Vertices (Count = 20)
v -16 -2.133333 0
v -17.06667 -2.133333 0
v -17.06667 -1.066667 0
v -16 -1.066667 0
v -12.8 -2.133333 0
v -13.86667 -2.133333 0
v -13.86667 -1.066667 0
v -12.8 -1.066667 0
v -9.6 -2.133333 0
v -10.66667 -2.133333 0
v -10.66667 -1.066667 0
v -9.6 -1.066667 0
v -6.400001 -2.133333 0
v -7.466667 -2.133333 0
v -7.466667 -1.066667 0
v -6.400001 -1.066667 0
v -3.2 -2.133333 0
v -4.266667 -2.133333 0
v -4.266667 -1.066667 0
v -3.2 -1.066667 0

# Texture cooridinates (Count = 4)
vt 0.3161157 0.7110266
vt 0.3326446 0.7110266
vt 0.3326446 0.7414448
vt 0.3161157 0.7414448

# Normal
vn 0 0 -1

# Mesh description
g Law-Floor3_mesh_0005

# Faces
f 1/1/1 2/2/1 3/3/1 4/4/1
f 5/1/1 6/2/1 7/3/1 8/4/1
f 9/1/1 10/2/1 11/3/1 12/4/1
f 13/1/1 14/2/1 15/3/1 16/4/1
f 17/1/1 18/2/1 19/3/1 20/4/1

