# Tiled2Unity generated file. Do not modify by hand.
# Wavefront file for 'WorldMap_mesh_0011.obj'

# Vertices (Count = 432)
v -29.86667 -40.53334 0
v -30.93333 -40.53334 0
v -30.93333 -39.46667 0
v -29.86667 -39.46667 0
v -48 -41.6 0
v -49.06667 -41.6 0
v -49.06667 -40.53334 0
v -48 -40.53334 0
v -33.06667 -41.6 0
v -34.13334 -41.6 0
v -34.13334 -40.53334 0
v -33.06667 -40.53334 0
v -45.86667 -42.66667 0
v -46.93333 -42.66667 0
v -46.93333 -41.6 0
v -45.86667 -41.6 0
v -22.4 -42.66667 0
v -23.46667 -42.66667 0
v -23.46667 -41.6 0
v -22.4 -41.6 0
v -49.06667 -43.73334 0
v -50.13334 -43.73334 0
v -50.13334 -42.66667 0
v -49.06667 -42.66667 0
v -27.73334 -43.73334 0
v -28.8 -43.73334 0
v -28.8 -42.66667 0
v -27.73334 -42.66667 0
v -50.13334 -44.8 0
v -51.2 -44.8 0
v -51.2 -43.73334 0
v -50.13334 -43.73334 0
v -33.06667 -44.8 0
v -34.13334 -44.8 0
v -34.13334 -43.73334 0
v -33.06667 -43.73334 0
v -29.86667 -44.8 0
v -30.93333 -44.8 0
v -30.93333 -43.73334 0
v -29.86667 -43.73334 0
v -28.8 -44.8 0
v -29.86667 -44.8 0
v -29.86667 -43.73334 0
v -28.8 -43.73334 0
v -25.6 -44.8 0
v -26.66667 -44.8 0
v -26.66667 -43.73334 0
v -25.6 -43.73334 0
v -32 -45.86667 0
v -33.06667 -45.86667 0
v -33.06667 -44.8 0
v -32 -44.8 0
v -50.13334 -46.93333 0
v -51.2 -46.93333 0
v -51.2 -45.86667 0
v -50.13334 -45.86667 0
v -45.86667 -51.2 0
v -46.93333 -51.2 0
v -46.93333 -50.13334 0
v -45.86667 -50.13334 0
v -41.6 -51.2 0
v -42.66667 -51.2 0
v -42.66667 -50.13334 0
v -41.6 -50.13334 0
v -43.73334 -52.26667 0
v -44.8 -52.26667 0
v -44.8 -51.2 0
v -43.73334 -51.2 0
v -41.6 -53.33334 0
v -42.66667 -53.33334 0
v -42.66667 -52.26667 0
v -41.6 -52.26667 0
v -25.6 -53.33334 0
v -26.66667 -53.33334 0
v -26.66667 -52.26667 0
v -25.6 -52.26667 0
v -23.46667 -53.33334 0
v -24.53333 -53.33334 0
v -24.53333 -52.26667 0
v -23.46667 -52.26667 0
v -21.33333 -53.33334 0
v -22.4 -53.33334 0
v -22.4 -52.26667 0
v -21.33333 -52.26667 0
v -18.13334 -53.33334 0
v -19.2 -53.33334 0
v -19.2 -52.26667 0
v -18.13334 -52.26667 0
v -42.66667 -54.4 0
v -43.73334 -54.4 0
v -43.73334 -53.33334 0
v -42.66667 -53.33334 0
v -27.73334 -54.4 0
v -28.8 -54.4 0
v -28.8 -53.33334 0
v -27.73334 -53.33334 0
v -32 -55.46667 0
v -33.06667 -55.46667 0
v -33.06667 -54.4 0
v -32 -54.4 0
v -29.86667 -55.46667 0
v -30.93333 -55.46667 0
v -30.93333 -54.4 0
v -29.86667 -54.4 0
v -28.8 -55.46667 0
v -29.86667 -55.46667 0
v -29.86667 -54.4 0
v -28.8 -54.4 0
v -43.73334 -56.53334 0
v -44.8 -56.53334 0
v -44.8 -55.46667 0
v -43.73334 -55.46667 0
v -30.93333 -56.53334 0
v -32 -56.53334 0
v -32 -55.46667 0
v -30.93333 -55.46667 0
v -16 -56.53334 0
v -17.06667 -56.53334 0
v -17.06667 -55.46667 0
v -16 -55.46667 0
v -42.66667 -57.6 0
v -43.73334 -57.6 0
v -43.73334 -56.53334 0
v -42.66667 -56.53334 0
v -44.8 -59.73334 0
v -45.86667 -59.73334 0
v -45.86667 -58.66667 0
v -44.8 -58.66667 0
v -85.33334 -61.86667 0
v -86.4 -61.86667 0
v -86.4 -60.8 0
v -85.33334 -60.8 0
v -78.93333 -61.86667 0
v -80.00001 -61.86667 0
v -80.00001 -60.8 0
v -78.93333 -60.8 0
v -71.46667 -61.86667 0
v -72.53334 -61.86667 0
v -72.53334 -60.8 0
v -71.46667 -60.8 0
v -41.6 -61.86667 0
v -42.66667 -61.86667 0
v -42.66667 -60.8 0
v -41.6 -60.8 0
v -13.86667 -61.86667 0
v -14.93333 -61.86667 0
v -14.93333 -60.8 0
v -13.86667 -60.8 0
v -83.2 -62.93334 0
v -84.26667 -62.93334 0
v -84.26667 -61.86667 0
v -83.2 -61.86667 0
v -81.06667 -62.93334 0
v -82.13334 -62.93334 0
v -82.13334 -61.86667 0
v -81.06667 -61.86667 0
v -80.00001 -62.93334 0
v -81.06667 -62.93334 0
v -81.06667 -61.86667 0
v -80.00001 -61.86667 0
v -70.4 -62.93334 0
v -71.46667 -62.93334 0
v -71.46667 -61.86667 0
v -70.4 -61.86667 0
v -87.46667 -64 0
v -88.53334 -64 0
v -88.53334 -62.93334 0
v -87.46667 -62.93334 0
v -69.33334 -64 0
v -70.4 -64 0
v -70.4 -62.93334 0
v -69.33334 -62.93334 0
v -88.53334 -65.06667 0
v -89.60001 -65.06667 0
v -89.60001 -64 0
v -88.53334 -64 0
v -86.4 -65.06667 0
v -87.46667 -65.06667 0
v -87.46667 -64 0
v -86.4 -64 0
v -68.26667 -65.06667 0
v -69.33334 -65.06667 0
v -69.33334 -64 0
v -68.26667 -64 0
v -67.2 -65.06667 0
v -68.26667 -65.06667 0
v -68.26667 -64 0
v -67.2 -64 0
v -66.13334 -65.06667 0
v -67.2 -65.06667 0
v -67.2 -64 0
v -66.13334 -64 0
v -88.53334 -66.13334 0
v -89.60001 -66.13334 0
v -89.60001 -65.06667 0
v -88.53334 -65.06667 0
v -70.4 -66.13334 0
v -71.46667 -66.13334 0
v -71.46667 -65.06667 0
v -70.4 -65.06667 0
v -65.06667 -66.13334 0
v -66.13334 -66.13334 0
v -66.13334 -65.06667 0
v -65.06667 -65.06667 0
v -74.66667 -67.2 0
v -75.73334 -67.2 0
v -75.73334 -66.13334 0
v -74.66667 -66.13334 0
v -65.06667 -67.2 0
v -66.13334 -67.2 0
v -66.13334 -66.13334 0
v -65.06667 -66.13334 0
v -75.73334 -68.26667 0
v -76.8 -68.26667 0
v -76.8 -67.2 0
v -75.73334 -67.2 0
v -66.13334 -68.26667 0
v -67.2 -68.26667 0
v -67.2 -67.2 0
v -66.13334 -67.2 0
v -12.8 -68.26667 0
v -13.86667 -68.26667 0
v -13.86667 -67.2 0
v -12.8 -67.2 0
v -74.66667 -69.33334 0
v -75.73334 -69.33334 0
v -75.73334 -68.26667 0
v -74.66667 -68.26667 0
v -69.33334 -69.33334 0
v -70.4 -69.33334 0
v -70.4 -68.26667 0
v -69.33334 -68.26667 0
v -66.13334 -69.33334 0
v -67.2 -69.33334 0
v -67.2 -68.26667 0
v -66.13334 -68.26667 0
v -82.13334 -70.4 0
v -83.2 -70.4 0
v -83.2 -69.33334 0
v -82.13334 -69.33334 0
v -80.00001 -70.4 0
v -81.06667 -70.4 0
v -81.06667 -69.33334 0
v -80.00001 -69.33334 0
v -65.06667 -70.4 0
v -66.13334 -70.4 0
v -66.13334 -69.33334 0
v -65.06667 -69.33334 0
v -39.46667 -70.4 0
v -40.53334 -70.4 0
v -40.53334 -69.33334 0
v -39.46667 -69.33334 0
v -65.06667 -71.46667 0
v -66.13334 -71.46667 0
v -66.13334 -70.4 0
v -65.06667 -70.4 0
v -89.60001 -72.53334 0
v -90.66667 -72.53334 0
v -90.66667 -71.46667 0
v -89.60001 -71.46667 0
v -77.86667 -72.53334 0
v -78.93333 -72.53334 0
v -78.93333 -71.46667 0
v -77.86667 -71.46667 0
v -66.13334 -72.53334 0
v -67.2 -72.53334 0
v -67.2 -71.46667 0
v -66.13334 -71.46667 0
v -39.46667 -72.53334 0
v -40.53334 -72.53334 0
v -40.53334 -71.46667 0
v -39.46667 -71.46667 0
v -35.2 -72.53334 0
v -36.26667 -72.53334 0
v -36.26667 -71.46667 0
v -35.2 -71.46667 0
v -34.13334 -72.53334 0
v -35.2 -72.53334 0
v -35.2 -71.46667 0
v -34.13334 -71.46667 0
v -33.06667 -72.53334 0
v -34.13334 -72.53334 0
v -34.13334 -71.46667 0
v -33.06667 -71.46667 0
v -32 -72.53334 0
v -33.06667 -72.53334 0
v -33.06667 -71.46667 0
v -32 -71.46667 0
v -21.33333 -72.53334 0
v -22.4 -72.53334 0
v -22.4 -71.46667 0
v -21.33333 -71.46667 0
v -88.53334 -73.60001 0
v -89.60001 -73.60001 0
v -89.60001 -72.53334 0
v -88.53334 -72.53334 0
v -76.8 -73.60001 0
v -77.86667 -73.60001 0
v -77.86667 -72.53334 0
v -76.8 -72.53334 0
v -68.26667 -73.60001 0
v -69.33334 -73.60001 0
v -69.33334 -72.53334 0
v -68.26667 -72.53334 0
v -67.2 -73.60001 0
v -68.26667 -73.60001 0
v -68.26667 -72.53334 0
v -67.2 -72.53334 0
v -88.53334 -74.66667 0
v -89.60001 -74.66667 0
v -89.60001 -73.60001 0
v -88.53334 -73.60001 0
v -76.8 -74.66667 0
v -77.86667 -74.66667 0
v -77.86667 -73.60001 0
v -76.8 -73.60001 0
v -66.13334 -74.66667 0
v -67.2 -74.66667 0
v -67.2 -73.60001 0
v -66.13334 -73.60001 0
v -39.46667 -74.66667 0
v -40.53334 -74.66667 0
v -40.53334 -73.60001 0
v -39.46667 -73.60001 0
v -35.2 -74.66667 0
v -36.26667 -74.66667 0
v -36.26667 -73.60001 0
v -35.2 -73.60001 0
v -23.46667 -74.66667 0
v -24.53333 -74.66667 0
v -24.53333 -73.60001 0
v -23.46667 -73.60001 0
v -75.73334 -75.73334 0
v -76.8 -75.73334 0
v -76.8 -74.66667 0
v -75.73334 -74.66667 0
v -66.13334 -75.73334 0
v -67.2 -75.73334 0
v -67.2 -74.66667 0
v -66.13334 -74.66667 0
v -29.86667 -75.73334 0
v -30.93333 -75.73334 0
v -30.93333 -74.66667 0
v -29.86667 -74.66667 0
v -87.46667 -76.8 0
v -88.53334 -76.8 0
v -88.53334 -75.73334 0
v -87.46667 -75.73334 0
v -86.4 -76.8 0
v -87.46667 -76.8 0
v -87.46667 -75.73334 0
v -86.4 -75.73334 0
v -78.93333 -76.8 0
v -80.00001 -76.8 0
v -80.00001 -75.73334 0
v -78.93333 -75.73334 0
v -39.46667 -76.8 0
v -40.53334 -76.8 0
v -40.53334 -75.73334 0
v -39.46667 -75.73334 0
v -35.2 -76.8 0
v -36.26667 -76.8 0
v -36.26667 -75.73334 0
v -35.2 -75.73334 0
v -25.6 -76.8 0
v -26.66667 -76.8 0
v -26.66667 -75.73334 0
v -25.6 -75.73334 0
v -84.26667 -77.86667 0
v -85.33334 -77.86667 0
v -85.33334 -76.8 0
v -84.26667 -76.8 0
v -81.06667 -77.86667 0
v -82.13334 -77.86667 0
v -82.13334 -76.8 0
v -81.06667 -76.8 0
v -80.00001 -77.86667 0
v -81.06667 -77.86667 0
v -81.06667 -76.8 0
v -80.00001 -76.8 0
v -74.66667 -77.86667 0
v -75.73334 -77.86667 0
v -75.73334 -76.8 0
v -74.66667 -76.8 0
v -70.4 -77.86667 0
v -71.46667 -77.86667 0
v -71.46667 -76.8 0
v -70.4 -76.8 0
v -69.33334 -77.86667 0
v -70.4 -77.86667 0
v -70.4 -76.8 0
v -69.33334 -76.8 0
v -32 -77.86667 0
v -33.06667 -77.86667 0
v -33.06667 -76.8 0
v -32 -76.8 0
v -76.8 -78.93333 0
v -77.86667 -78.93333 0
v -77.86667 -77.86667 0
v -76.8 -77.86667 0
v -75.73334 -78.93333 0
v -76.8 -78.93333 0
v -76.8 -77.86667 0
v -75.73334 -77.86667 0
v -73.60001 -78.93333 0
v -74.66667 -78.93333 0
v -74.66667 -77.86667 0
v -73.60001 -77.86667 0
v -67.2 -78.93333 0
v -68.26667 -78.93333 0
v -68.26667 -77.86667 0
v -67.2 -77.86667 0
v -73.60001 -80.00001 0
v -74.66667 -80.00001 0
v -74.66667 -78.93333 0
v -73.60001 -78.93333 0
v -68.26667 -80.00001 0
v -69.33334 -80.00001 0
v -69.33334 -78.93333 0
v -68.26667 -78.93333 0
v -72.53334 -81.06667 0
v -73.60001 -81.06667 0
v -73.60001 -80.00001 0
v -72.53334 -80.00001 0
v -69.33334 -81.06667 0
v -70.4 -81.06667 0
v -70.4 -80.00001 0
v -69.33334 -80.00001 0
v -73.60001 -82.13334 0
v -74.66667 -82.13334 0
v -74.66667 -81.06667 0
v -73.60001 -81.06667 0

# Texture cooridinates (Count = 24)
vt 0.2283058 0.6463878
vt 0.2448347 0.6463878
vt 0.2448347 0.6768061
vt 0.2283058 0.6768061
vt 0.2634298 0.6463878
vt 0.2799587 0.6463878
vt 0.2799587 0.6768061
vt 0.2634298 0.6768061
vt 0.2283058 0.6140684
vt 0.2448347 0.6140684
vt 0.2448347 0.6444867
vt 0.2283058 0.6444867
vt 0.4741735 0.6140684
vt 0.4907025 0.6140684
vt 0.4907025 0.6444867
vt 0.4741735 0.6444867
vt 0.2809917 0.6463878
vt 0.2975207 0.6463878
vt 0.2975207 0.6768061
vt 0.2809917 0.6768061
vt 0.2634298 0.6140684
vt 0.2799587 0.6140684
vt 0.2799587 0.6444867
vt 0.2634298 0.6444867

# Normal
vn 0 0 -1

# Mesh description
g WorldMap_mesh_0011

# Faces
f 1/1/1 2/2/1 3/3/1 4/4/1
f 5/1/1 6/2/1 7/3/1 8/4/1
f 9/1/1 10/2/1 11/3/1 12/4/1
f 13/5/1 14/6/1 15/7/1 16/8/1
f 17/1/1 18/2/1 19/3/1 20/4/1
f 21/1/1 22/2/1 23/3/1 24/4/1
f 25/5/1 26/6/1 27/7/1 28/8/1
f 29/1/1 30/2/1 31/3/1 32/4/1
f 33/5/1 34/6/1 35/7/1 36/8/1
f 37/1/1 38/2/1 39/3/1 40/4/1
f 41/1/1 42/2/1 43/3/1 44/4/1
f 45/1/1 46/2/1 47/3/1 48/4/1
f 49/1/1 50/2/1 51/3/1 52/4/1
f 53/1/1 54/2/1 55/3/1 56/4/1
f 57/5/1 58/6/1 59/7/1 60/8/1
f 61/1/1 62/2/1 63/3/1 64/4/1
f 65/5/1 66/6/1 67/7/1 68/8/1
f 69/5/1 70/6/1 71/7/1 72/8/1
f 73/5/1 74/6/1 75/7/1 76/8/1
f 77/1/1 78/2/1 79/3/1 80/4/1
f 81/5/1 82/6/1 83/7/1 84/8/1
f 85/1/1 86/2/1 87/3/1 88/4/1
f 89/1/1 90/2/1 91/3/1 92/4/1
f 93/1/1 94/2/1 95/3/1 96/4/1
f 97/1/1 98/2/1 99/3/1 100/4/1
f 101/1/1 102/2/1 103/3/1 104/4/1
f 105/5/1 106/6/1 107/7/1 108/8/1
f 109/5/1 110/6/1 111/7/1 112/8/1
f 113/1/1 114/2/1 115/3/1 116/4/1
f 117/5/1 118/6/1 119/7/1 120/8/1
f 121/1/1 122/2/1 123/3/1 124/4/1
f 125/5/1 126/6/1 127/7/1 128/8/1
f 129/1/1 130/2/1 131/3/1 132/4/1
f 133/1/1 134/2/1 135/3/1 136/4/1
f 137/1/1 138/2/1 139/3/1 140/4/1
f 141/1/1 142/2/1 143/3/1 144/4/1
f 145/5/1 146/6/1 147/7/1 148/8/1
f 149/5/1 150/6/1 151/7/1 152/8/1
f 153/5/1 154/6/1 155/7/1 156/8/1
f 157/1/1 158/2/1 159/3/1 160/4/1
f 161/5/1 162/6/1 163/7/1 164/8/1
f 165/1/1 166/2/1 167/3/1 168/4/1
f 169/1/1 170/2/1 171/3/1 172/4/1
f 173/1/1 174/2/1 175/3/1 176/4/1
f 177/5/1 178/6/1 179/7/1 180/8/1
f 181/5/1 182/6/1 183/7/1 184/8/1
f 185/1/1 186/2/1 187/3/1 188/4/1
f 189/1/1 190/2/1 191/3/1 192/4/1
f 193/9/1 194/10/1 195/11/1 196/12/1
f 197/1/1 198/2/1 199/3/1 200/4/1
f 201/1/1 202/2/1 203/3/1 204/4/1
f 205/5/1 206/6/1 207/7/1 208/8/1
f 209/9/1 210/10/1 211/11/1 212/12/1
f 213/13/1 214/14/1 215/15/1 216/16/1
f 217/1/1 218/2/1 219/3/1 220/4/1
f 221/5/1 222/6/1 223/7/1 224/8/1
f 225/5/1 226/6/1 227/7/1 228/8/1
f 229/5/1 230/6/1 231/7/1 232/8/1
f 233/9/1 234/10/1 235/11/1 236/12/1
f 237/1/1 238/2/1 239/3/1 240/4/1
f 241/5/1 242/6/1 243/7/1 244/8/1
f 245/1/1 246/2/1 247/3/1 248/4/1
f 249/17/1 250/18/1 251/19/1 252/20/1
f 253/9/1 254/10/1 255/11/1 256/12/1
f 257/13/1 258/14/1 259/15/1 260/16/1
f 261/1/1 262/2/1 263/3/1 264/4/1
f 265/5/1 266/6/1 267/7/1 268/8/1
f 269/17/1 270/18/1 271/19/1 272/20/1
f 273/17/1 274/18/1 275/19/1 276/20/1
f 277/17/1 278/18/1 279/19/1 280/20/1
f 281/17/1 282/18/1 283/19/1 284/20/1
f 285/17/1 286/18/1 287/19/1 288/20/1
f 289/5/1 290/6/1 291/7/1 292/8/1
f 293/5/1 294/6/1 295/7/1 296/8/1
f 297/1/1 298/2/1 299/3/1 300/4/1
f 301/1/1 302/2/1 303/3/1 304/4/1
f 305/1/1 306/2/1 307/3/1 308/4/1
f 309/21/1 310/22/1 311/23/1 312/24/1
f 313/9/1 314/10/1 315/11/1 316/12/1
f 317/5/1 318/6/1 319/7/1 320/8/1
f 321/17/1 322/18/1 323/19/1 324/20/1
f 325/17/1 326/18/1 327/19/1 328/20/1
f 329/1/1 330/2/1 331/3/1 332/4/1
f 333/1/1 334/2/1 335/3/1 336/4/1
f 337/21/1 338/22/1 339/23/1 340/24/1
f 341/5/1 342/6/1 343/7/1 344/8/1
f 345/5/1 346/6/1 347/7/1 348/8/1
f 349/1/1 350/2/1 351/3/1 352/4/1
f 353/1/1 354/2/1 355/3/1 356/4/1
f 357/17/1 358/18/1 359/19/1 360/20/1
f 361/17/1 362/18/1 363/19/1 364/20/1
f 365/1/1 366/2/1 367/3/1 368/4/1
f 369/1/1 370/2/1 371/3/1 372/4/1
f 373/1/1 374/2/1 375/3/1 376/4/1
f 377/5/1 378/6/1 379/7/1 380/8/1
f 381/5/1 382/6/1 383/7/1 384/8/1
f 385/1/1 386/2/1 387/3/1 388/4/1
f 389/1/1 390/2/1 391/3/1 392/4/1
f 393/1/1 394/2/1 395/3/1 396/4/1
f 397/1/1 398/2/1 399/3/1 400/4/1
f 401/5/1 402/6/1 403/7/1 404/8/1
f 405/1/1 406/2/1 407/3/1 408/4/1
f 409/1/1 410/2/1 411/3/1 412/4/1
f 413/9/1 414/10/1 415/11/1 416/12/1
f 417/1/1 418/2/1 419/3/1 420/4/1
f 421/1/1 422/2/1 423/3/1 424/4/1
f 425/5/1 426/6/1 427/7/1 428/8/1
f 429/5/1 430/6/1 431/7/1 432/8/1

