# Tiled2Unity generated file. Do not modify by hand.
# Wavefront file for 'Music-Main_mesh_0006.obj'

# Vertices (Count = 44)
v -36.26667 -34.13334 0
v -37.33334 -34.13334 0
v -37.33334 -33.06667 0
v -36.26667 -33.06667 0
v -36.26667 -35.2 0
v -37.33334 -35.2 0
v -37.33334 -34.13334 0
v -36.26667 -34.13334 0
v -48 -35.2 0
v -49.06667 -35.2 0
v -49.06667 -34.13334 0
v -48 -34.13334 0
v -36.26667 -37.33334 0
v -37.33334 -37.33334 0
v -37.33334 -36.26667 0
v -36.26667 -36.26667 0
v -48 -37.33334 0
v -49.06667 -37.33334 0
v -49.06667 -36.26667 0
v -48 -36.26667 0
v -36.26667 -38.4 0
v -37.33334 -38.4 0
v -37.33334 -37.33334 0
v -36.26667 -37.33334 0
v -48 -38.4 0
v -49.06667 -38.4 0
v -49.06667 -37.33334 0
v -48 -37.33334 0
v -36.26667 -40.53334 0
v -37.33334 -40.53334 0
v -37.33334 -39.46667 0
v -36.26667 -39.46667 0
v -48 -40.53334 0
v -49.06667 -40.53334 0
v -49.06667 -39.46667 0
v -48 -39.46667 0
v -36.26667 -41.6 0
v -37.33334 -41.6 0
v -37.33334 -40.53334 0
v -36.26667 -40.53334 0
v -48 -41.6 0
v -49.06667 -41.6 0
v -49.06667 -40.53334 0
v -48 -40.53334 0

# Texture cooridinates (Count = 16)
vt 0.03455285 0.6688524
vt 0.06707317 0.6688524
vt 0.06707317 0.7213115
vt 0.03455285 0.7213115
vt 0.1036585 0.6688524
vt 0.1361789 0.6688524
vt 0.1361789 0.7213115
vt 0.1036585 0.7213115
vt 0.1382114 0.6131147
vt 0.1707317 0.6131147
vt 0.1707317 0.6655738
vt 0.1382114 0.6655738
vt 0.1036585 0.6131147
vt 0.1361789 0.6131147
vt 0.1361789 0.6655738
vt 0.1036585 0.6655738

# Normal
vn 0 0 -1

# Mesh description
g Music-Main_mesh_0006

# Faces
f 1/1/1 2/2/1 3/3/1 4/4/1
f 5/5/1 6/6/1 7/7/1 8/8/1
f 9/9/1 10/10/1 11/11/1 12/12/1
f 13/1/1 14/2/1 15/3/1 16/4/1
f 17/1/1 18/2/1 19/3/1 20/4/1
f 21/5/1 22/6/1 23/7/1 24/8/1
f 25/13/1 26/14/1 27/15/1 28/16/1
f 29/9/1 30/10/1 31/11/1 32/12/1
f 33/1/1 34/2/1 35/3/1 36/4/1
f 37/5/1 38/6/1 39/7/1 40/8/1
f 41/5/1 42/6/1 43/7/1 44/8/1

