# Tiled2Unity generated file. Do not modify by hand.
# Wavefront file for 'Law-Floor5_mesh_0007.obj'

# Vertices (Count = 228)
v -19.2 -21.33333 0
v -20.26667 -21.33333 0
v -20.26667 -20.26667 0
v -19.2 -20.26667 0
v -18.13334 -21.33333 0
v -19.2 -21.33333 0
v -19.2 -20.26667 0
v -18.13334 -20.26667 0
v -17.06667 -21.33333 0
v -18.13334 -21.33333 0
v -18.13334 -20.26667 0
v -17.06667 -20.26667 0
v -16 -21.33333 0
v -17.06667 -21.33333 0
v -17.06667 -20.26667 0
v -16 -20.26667 0
v -14.93333 -21.33333 0
v -16 -21.33333 0
v -16 -20.26667 0
v -14.93333 -20.26667 0
v -13.86667 -21.33333 0
v -14.93333 -21.33333 0
v -14.93333 -20.26667 0
v -13.86667 -20.26667 0
v -12.8 -21.33333 0
v -13.86667 -21.33333 0
v -13.86667 -20.26667 0
v -12.8 -20.26667 0
v -11.73333 -21.33333 0
v -12.8 -21.33333 0
v -12.8 -20.26667 0
v -11.73333 -20.26667 0
v -10.66667 -21.33333 0
v -11.73333 -21.33333 0
v -11.73333 -20.26667 0
v -10.66667 -20.26667 0
v -9.6 -21.33333 0
v -10.66667 -21.33333 0
v -10.66667 -20.26667 0
v -9.6 -20.26667 0
v -8.533334 -21.33333 0
v -9.6 -21.33333 0
v -9.6 -20.26667 0
v -8.533334 -20.26667 0
v -7.466667 -21.33333 0
v -8.533334 -21.33333 0
v -8.533334 -20.26667 0
v -7.466667 -20.26667 0
v -6.400001 -21.33333 0
v -7.466667 -21.33333 0
v -7.466667 -20.26667 0
v -6.400001 -20.26667 0
v -5.333333 -21.33333 0
v -6.400001 -21.33333 0
v -6.400001 -20.26667 0
v -5.333333 -20.26667 0
v -4.266667 -21.33333 0
v -5.333333 -21.33333 0
v -5.333333 -20.26667 0
v -4.266667 -20.26667 0
v -3.2 -21.33333 0
v -4.266667 -21.33333 0
v -4.266667 -20.26667 0
v -3.2 -20.26667 0
v -2.133333 -21.33333 0
v -3.2 -21.33333 0
v -3.2 -20.26667 0
v -2.133333 -20.26667 0
v -1.066667 -21.33333 0
v -2.133333 -21.33333 0
v -2.133333 -20.26667 0
v -1.066667 -20.26667 0
v 0 -21.33333 0
v -1.066667 -21.33333 0
v -1.066667 -20.26667 0
v 0 -20.26667 0
v -19.2 -22.4 0
v -20.26667 -22.4 0
v -20.26667 -21.33333 0
v -19.2 -21.33333 0
v -18.13334 -22.4 0
v -19.2 -22.4 0
v -19.2 -21.33333 0
v -18.13334 -21.33333 0
v -17.06667 -22.4 0
v -18.13334 -22.4 0
v -18.13334 -21.33333 0
v -17.06667 -21.33333 0
v -16 -22.4 0
v -17.06667 -22.4 0
v -17.06667 -21.33333 0
v -16 -21.33333 0
v -14.93333 -22.4 0
v -16 -22.4 0
v -16 -21.33333 0
v -14.93333 -21.33333 0
v -13.86667 -22.4 0
v -14.93333 -22.4 0
v -14.93333 -21.33333 0
v -13.86667 -21.33333 0
v -12.8 -22.4 0
v -13.86667 -22.4 0
v -13.86667 -21.33333 0
v -12.8 -21.33333 0
v -11.73333 -22.4 0
v -12.8 -22.4 0
v -12.8 -21.33333 0
v -11.73333 -21.33333 0
v -10.66667 -22.4 0
v -11.73333 -22.4 0
v -11.73333 -21.33333 0
v -10.66667 -21.33333 0
v -9.6 -22.4 0
v -10.66667 -22.4 0
v -10.66667 -21.33333 0
v -9.6 -21.33333 0
v -8.533334 -22.4 0
v -9.6 -22.4 0
v -9.6 -21.33333 0
v -8.533334 -21.33333 0
v -7.466667 -22.4 0
v -8.533334 -22.4 0
v -8.533334 -21.33333 0
v -7.466667 -21.33333 0
v -6.400001 -22.4 0
v -7.466667 -22.4 0
v -7.466667 -21.33333 0
v -6.400001 -21.33333 0
v -5.333333 -22.4 0
v -6.400001 -22.4 0
v -6.400001 -21.33333 0
v -5.333333 -21.33333 0
v -4.266667 -22.4 0
v -5.333333 -22.4 0
v -5.333333 -21.33333 0
v -4.266667 -21.33333 0
v -3.2 -22.4 0
v -4.266667 -22.4 0
v -4.266667 -21.33333 0
v -3.2 -21.33333 0
v -2.133333 -22.4 0
v -3.2 -22.4 0
v -3.2 -21.33333 0
v -2.133333 -21.33333 0
v -1.066667 -22.4 0
v -2.133333 -22.4 0
v -2.133333 -21.33333 0
v -1.066667 -21.33333 0
v 0 -22.4 0
v -1.066667 -22.4 0
v -1.066667 -21.33333 0
v 0 -21.33333 0
v -19.2 -23.46667 0
v -20.26667 -23.46667 0
v -20.26667 -22.4 0
v -19.2 -22.4 0
v -18.13334 -23.46667 0
v -19.2 -23.46667 0
v -19.2 -22.4 0
v -18.13334 -22.4 0
v -17.06667 -23.46667 0
v -18.13334 -23.46667 0
v -18.13334 -22.4 0
v -17.06667 -22.4 0
v -16 -23.46667 0
v -17.06667 -23.46667 0
v -17.06667 -22.4 0
v -16 -22.4 0
v -14.93333 -23.46667 0
v -16 -23.46667 0
v -16 -22.4 0
v -14.93333 -22.4 0
v -13.86667 -23.46667 0
v -14.93333 -23.46667 0
v -14.93333 -22.4 0
v -13.86667 -22.4 0
v -12.8 -23.46667 0
v -13.86667 -23.46667 0
v -13.86667 -22.4 0
v -12.8 -22.4 0
v -11.73333 -23.46667 0
v -12.8 -23.46667 0
v -12.8 -22.4 0
v -11.73333 -22.4 0
v -10.66667 -23.46667 0
v -11.73333 -23.46667 0
v -11.73333 -22.4 0
v -10.66667 -22.4 0
v -9.6 -23.46667 0
v -10.66667 -23.46667 0
v -10.66667 -22.4 0
v -9.6 -22.4 0
v -8.533334 -23.46667 0
v -9.6 -23.46667 0
v -9.6 -22.4 0
v -8.533334 -22.4 0
v -7.466667 -23.46667 0
v -8.533334 -23.46667 0
v -8.533334 -22.4 0
v -7.466667 -22.4 0
v -6.400001 -23.46667 0
v -7.466667 -23.46667 0
v -7.466667 -22.4 0
v -6.400001 -22.4 0
v -5.333333 -23.46667 0
v -6.400001 -23.46667 0
v -6.400001 -22.4 0
v -5.333333 -22.4 0
v -4.266667 -23.46667 0
v -5.333333 -23.46667 0
v -5.333333 -22.4 0
v -4.266667 -22.4 0
v -3.2 -23.46667 0
v -4.266667 -23.46667 0
v -4.266667 -22.4 0
v -3.2 -22.4 0
v -2.133333 -23.46667 0
v -3.2 -23.46667 0
v -3.2 -22.4 0
v -2.133333 -22.4 0
v -1.066667 -23.46667 0
v -2.133333 -23.46667 0
v -2.133333 -22.4 0
v -1.066667 -22.4 0
v 0 -23.46667 0
v -1.066667 -23.46667 0
v -1.066667 -22.4 0
v 0 -22.4 0

# Texture cooridinates (Count = 36)
vt 0.2985537 0.5494297
vt 0.3150826 0.5494297
vt 0.3150826 0.5798479
vt 0.2985537 0.5798479
vt 0.2458678 0.5817491
vt 0.2623967 0.5817491
vt 0.2623967 0.6121673
vt 0.2458678 0.6121673
vt 0.2809917 0.5494297
vt 0.2975207 0.5494297
vt 0.2975207 0.5798479
vt 0.2809917 0.5798479
vt 0.3336777 0.4847909
vt 0.3502066 0.4847909
vt 0.3502066 0.5152091
vt 0.3336777 0.5152091
vt 0.3161157 0.4847909
vt 0.3326446 0.4847909
vt 0.3326446 0.5152091
vt 0.3161157 0.5152091
vt 0.2985537 0.4847909
vt 0.3150826 0.4847909
vt 0.3150826 0.5152091
vt 0.2985537 0.5152091
vt 0.2809917 0.4847909
vt 0.2975207 0.4847909
vt 0.2975207 0.5152091
vt 0.2809917 0.5152091
vt 0.2283058 0.4847909
vt 0.2448347 0.4847909
vt 0.2448347 0.5152091
vt 0.2283058 0.5152091
vt 0.2458678 0.4847909
vt 0.2623967 0.4847909
vt 0.2623967 0.5152091
vt 0.2458678 0.5152091

# Normal
vn 0 0 -1

# Mesh description
g Law-Floor5_mesh_0007

# Faces
f 1/1/1 2/2/1 3/3/1 4/4/1
f 5/5/1 6/6/1 7/7/1 8/8/1
f 9/5/1 10/6/1 11/7/1 12/8/1
f 13/5/1 14/6/1 15/7/1 16/8/1
f 17/5/1 18/6/1 19/7/1 20/8/1
f 21/5/1 22/6/1 23/7/1 24/8/1
f 25/5/1 26/6/1 27/7/1 28/8/1
f 29/5/1 30/6/1 31/7/1 32/8/1
f 33/5/1 34/6/1 35/7/1 36/8/1
f 37/5/1 38/6/1 39/7/1 40/8/1
f 41/5/1 42/6/1 43/7/1 44/8/1
f 45/5/1 46/6/1 47/7/1 48/8/1
f 49/5/1 50/6/1 51/7/1 52/8/1
f 53/5/1 54/6/1 55/7/1 56/8/1
f 57/5/1 58/6/1 59/7/1 60/8/1
f 61/5/1 62/6/1 63/7/1 64/8/1
f 65/5/1 66/6/1 67/7/1 68/8/1
f 69/5/1 70/6/1 71/7/1 72/8/1
f 73/9/1 74/10/1 75/11/1 76/12/1
f 77/13/1 78/14/1 79/15/1 80/16/1
f 81/17/1 82/18/1 83/19/1 84/20/1
f 85/17/1 86/18/1 87/19/1 88/20/1
f 89/17/1 90/18/1 91/19/1 92/20/1
f 93/17/1 94/18/1 95/19/1 96/20/1
f 97/17/1 98/18/1 99/19/1 100/20/1
f 101/17/1 102/18/1 103/19/1 104/20/1
f 105/17/1 106/18/1 107/19/1 108/20/1
f 109/17/1 110/18/1 111/19/1 112/20/1
f 113/17/1 114/18/1 115/19/1 116/20/1
f 117/17/1 118/18/1 119/19/1 120/20/1
f 121/17/1 122/18/1 123/19/1 124/20/1
f 125/17/1 126/18/1 127/19/1 128/20/1
f 129/17/1 130/18/1 131/19/1 132/20/1
f 133/17/1 134/18/1 135/19/1 136/20/1
f 137/17/1 138/18/1 139/19/1 140/20/1
f 141/17/1 142/18/1 143/19/1 144/20/1
f 145/17/1 146/18/1 147/19/1 148/20/1
f 149/21/1 150/22/1 151/23/1 152/24/1
f 153/25/1 154/26/1 155/27/1 156/28/1
f 157/29/1 158/30/1 159/31/1 160/32/1
f 161/29/1 162/30/1 163/31/1 164/32/1
f 165/29/1 166/30/1 167/31/1 168/32/1
f 169/29/1 170/30/1 171/31/1 172/32/1
f 173/29/1 174/30/1 175/31/1 176/32/1
f 177/29/1 178/30/1 179/31/1 180/32/1
f 181/29/1 182/30/1 183/31/1 184/32/1
f 185/29/1 186/30/1 187/31/1 188/32/1
f 189/29/1 190/30/1 191/31/1 192/32/1
f 193/29/1 194/30/1 195/31/1 196/32/1
f 197/29/1 198/30/1 199/31/1 200/32/1
f 201/29/1 202/30/1 203/31/1 204/32/1
f 205/29/1 206/30/1 207/31/1 208/32/1
f 209/29/1 210/30/1 211/31/1 212/32/1
f 213/29/1 214/30/1 215/31/1 216/32/1
f 217/29/1 218/30/1 219/31/1 220/32/1
f 221/29/1 222/30/1 223/31/1 224/32/1
f 225/33/1 226/34/1 227/35/1 228/36/1

