# Tiled2Unity generated file. Do not modify by hand.
# Wavefront file for 'Law-Floor5_mesh_0002.obj'

# Vertices (Count = 24)
v -9.6 -3.2 0
v -10.66667 -3.2 0
v -10.66667 -2.133333 0
v -9.6 -2.133333 0
v -5.333333 -22.4 0
v -6.400001 -22.4 0
v -6.400001 -21.33333 0
v -5.333333 -21.33333 0
v -4.266667 -22.4 0
v -5.333333 -22.4 0
v -5.333333 -21.33333 0
v -4.266667 -21.33333 0
v -3.2 -22.4 0
v -4.266667 -22.4 0
v -4.266667 -21.33333 0
v -3.2 -21.33333 0
v -2.133333 -22.4 0
v -3.2 -22.4 0
v -3.2 -21.33333 0
v -2.133333 -21.33333 0
v -1.066667 -22.4 0
v -2.133333 -22.4 0
v -2.133333 -21.33333 0
v -1.066667 -21.33333 0

# Texture cooridinates (Count = 16)
vt 0.6322314 0.9372624
vt 0.6487603 0.9372624
vt 0.6487603 0.9676806
vt 0.6322314 0.9676806
vt 0.07024793 0.6140684
vt 0.08677686 0.6140684
vt 0.08677686 0.6444867
vt 0.07024793 0.6444867
vt 0.05268595 0.6140684
vt 0.06921487 0.6140684
vt 0.06921487 0.6444867
vt 0.05268595 0.6444867
vt 0.03512397 0.6140684
vt 0.05165289 0.6140684
vt 0.05165289 0.6444867
vt 0.03512397 0.6444867

# Normal
vn 0 0 -1

# Mesh description
g Law-Floor5_mesh_0002

# Faces
f 1/1/1 2/2/1 3/3/1 4/4/1
f 5/5/1 6/6/1 7/7/1 8/8/1
f 9/9/1 10/10/1 11/11/1 12/12/1
f 13/9/1 14/10/1 15/11/1 16/12/1
f 17/9/1 18/10/1 19/11/1 20/12/1
f 21/13/1 22/14/1 23/15/1 24/16/1

