# Tiled2Unity generated file. Do not modify by hand.
# Wavefront file for 'RCH-Floor2_mesh_0006.obj'

# Vertices (Count = 524)
v -25.6 -1.066667 0
v -26.66667 -1.066667 0
v -26.66667 0 0
v -25.6 0 0
v -24.53333 -1.066667 0
v -25.6 -1.066667 0
v -25.6 0 0
v -24.53333 0 0
v -23.46667 -1.066667 0
v -24.53333 -1.066667 0
v -24.53333 0 0
v -23.46667 0 0
v -22.4 -1.066667 0
v -23.46667 -1.066667 0
v -23.46667 0 0
v -22.4 0 0
v -21.33333 -1.066667 0
v -22.4 -1.066667 0
v -22.4 0 0
v -21.33333 0 0
v -20.26667 -1.066667 0
v -21.33333 -1.066667 0
v -21.33333 0 0
v -20.26667 0 0
v -19.2 -1.066667 0
v -20.26667 -1.066667 0
v -20.26667 0 0
v -19.2 0 0
v -18.13334 -1.066667 0
v -19.2 -1.066667 0
v -19.2 0 0
v -18.13334 0 0
v -17.06667 -1.066667 0
v -18.13334 -1.066667 0
v -18.13334 0 0
v -17.06667 0 0
v -16 -1.066667 0
v -17.06667 -1.066667 0
v -17.06667 0 0
v -16 0 0
v -14.93333 -1.066667 0
v -16 -1.066667 0
v -16 0 0
v -14.93333 0 0
v -13.86667 -1.066667 0
v -14.93333 -1.066667 0
v -14.93333 0 0
v -13.86667 0 0
v -12.8 -1.066667 0
v -13.86667 -1.066667 0
v -13.86667 0 0
v -12.8 0 0
v -11.73333 -1.066667 0
v -12.8 -1.066667 0
v -12.8 0 0
v -11.73333 0 0
v -10.66667 -1.066667 0
v -11.73333 -1.066667 0
v -11.73333 0 0
v -10.66667 0 0
v -9.6 -1.066667 0
v -10.66667 -1.066667 0
v -10.66667 0 0
v -9.6 0 0
v -8.533334 -1.066667 0
v -9.6 -1.066667 0
v -9.6 0 0
v -8.533334 0 0
v -7.466667 -1.066667 0
v -8.533334 -1.066667 0
v -8.533334 0 0
v -7.466667 0 0
v -6.400001 -1.066667 0
v -7.466667 -1.066667 0
v -7.466667 0 0
v -6.400001 0 0
v -5.333333 -1.066667 0
v -6.400001 -1.066667 0
v -6.400001 0 0
v -5.333333 0 0
v -4.266667 -1.066667 0
v -5.333333 -1.066667 0
v -5.333333 0 0
v -4.266667 0 0
v -3.2 -1.066667 0
v -4.266667 -1.066667 0
v -4.266667 0 0
v -3.2 0 0
v -2.133333 -1.066667 0
v -3.2 -1.066667 0
v -3.2 0 0
v -2.133333 0 0
v -1.066667 -1.066667 0
v -2.133333 -1.066667 0
v -2.133333 0 0
v -1.066667 0 0
v 0 -1.066667 0
v -1.066667 -1.066667 0
v -1.066667 0 0
v 0 0 0
v -25.6 -2.133333 0
v -26.66667 -2.133333 0
v -26.66667 -1.066667 0
v -25.6 -1.066667 0
v -24.53333 -2.133333 0
v -25.6 -2.133333 0
v -25.6 -1.066667 0
v -24.53333 -1.066667 0
v -23.46667 -2.133333 0
v -24.53333 -2.133333 0
v -24.53333 -1.066667 0
v -23.46667 -1.066667 0
v -22.4 -2.133333 0
v -23.46667 -2.133333 0
v -23.46667 -1.066667 0
v -22.4 -1.066667 0
v -21.33333 -2.133333 0
v -22.4 -2.133333 0
v -22.4 -1.066667 0
v -21.33333 -1.066667 0
v -20.26667 -2.133333 0
v -21.33333 -2.133333 0
v -21.33333 -1.066667 0
v -20.26667 -1.066667 0
v -19.2 -2.133333 0
v -20.26667 -2.133333 0
v -20.26667 -1.066667 0
v -19.2 -1.066667 0
v -18.13334 -2.133333 0
v -19.2 -2.133333 0
v -19.2 -1.066667 0
v -18.13334 -1.066667 0
v -17.06667 -2.133333 0
v -18.13334 -2.133333 0
v -18.13334 -1.066667 0
v -17.06667 -1.066667 0
v -16 -2.133333 0
v -17.06667 -2.133333 0
v -17.06667 -1.066667 0
v -16 -1.066667 0
v -14.93333 -2.133333 0
v -16 -2.133333 0
v -16 -1.066667 0
v -14.93333 -1.066667 0
v -13.86667 -2.133333 0
v -14.93333 -2.133333 0
v -14.93333 -1.066667 0
v -13.86667 -1.066667 0
v -12.8 -2.133333 0
v -13.86667 -2.133333 0
v -13.86667 -1.066667 0
v -12.8 -1.066667 0
v -11.73333 -2.133333 0
v -12.8 -2.133333 0
v -12.8 -1.066667 0
v -11.73333 -1.066667 0
v -10.66667 -2.133333 0
v -11.73333 -2.133333 0
v -11.73333 -1.066667 0
v -10.66667 -1.066667 0
v -9.6 -2.133333 0
v -10.66667 -2.133333 0
v -10.66667 -1.066667 0
v -9.6 -1.066667 0
v -8.533334 -2.133333 0
v -9.6 -2.133333 0
v -9.6 -1.066667 0
v -8.533334 -1.066667 0
v -7.466667 -2.133333 0
v -8.533334 -2.133333 0
v -8.533334 -1.066667 0
v -7.466667 -1.066667 0
v -6.400001 -2.133333 0
v -7.466667 -2.133333 0
v -7.466667 -1.066667 0
v -6.400001 -1.066667 0
v -5.333333 -2.133333 0
v -6.400001 -2.133333 0
v -6.400001 -1.066667 0
v -5.333333 -1.066667 0
v -4.266667 -2.133333 0
v -5.333333 -2.133333 0
v -5.333333 -1.066667 0
v -4.266667 -1.066667 0
v -3.2 -2.133333 0
v -4.266667 -2.133333 0
v -4.266667 -1.066667 0
v -3.2 -1.066667 0
v -2.133333 -2.133333 0
v -3.2 -2.133333 0
v -3.2 -1.066667 0
v -2.133333 -1.066667 0
v -1.066667 -2.133333 0
v -2.133333 -2.133333 0
v -2.133333 -1.066667 0
v -1.066667 -1.066667 0
v 0 -2.133333 0
v -1.066667 -2.133333 0
v -1.066667 -1.066667 0
v 0 -1.066667 0
v -25.6 -3.2 0
v -26.66667 -3.2 0
v -26.66667 -2.133333 0
v -25.6 -2.133333 0
v -24.53333 -3.2 0
v -25.6 -3.2 0
v -25.6 -2.133333 0
v -24.53333 -2.133333 0
v -23.46667 -3.2 0
v -24.53333 -3.2 0
v -24.53333 -2.133333 0
v -23.46667 -2.133333 0
v -22.4 -3.2 0
v -23.46667 -3.2 0
v -23.46667 -2.133333 0
v -22.4 -2.133333 0
v -21.33333 -3.2 0
v -22.4 -3.2 0
v -22.4 -2.133333 0
v -21.33333 -2.133333 0
v -20.26667 -3.2 0
v -21.33333 -3.2 0
v -21.33333 -2.133333 0
v -20.26667 -2.133333 0
v -19.2 -3.2 0
v -20.26667 -3.2 0
v -20.26667 -2.133333 0
v -19.2 -2.133333 0
v -18.13334 -3.2 0
v -19.2 -3.2 0
v -19.2 -2.133333 0
v -18.13334 -2.133333 0
v -17.06667 -3.2 0
v -18.13334 -3.2 0
v -18.13334 -2.133333 0
v -17.06667 -2.133333 0
v -16 -3.2 0
v -17.06667 -3.2 0
v -17.06667 -2.133333 0
v -16 -2.133333 0
v -14.93333 -3.2 0
v -16 -3.2 0
v -16 -2.133333 0
v -14.93333 -2.133333 0
v -13.86667 -3.2 0
v -14.93333 -3.2 0
v -14.93333 -2.133333 0
v -13.86667 -2.133333 0
v -12.8 -3.2 0
v -13.86667 -3.2 0
v -13.86667 -2.133333 0
v -12.8 -2.133333 0
v -11.73333 -3.2 0
v -12.8 -3.2 0
v -12.8 -2.133333 0
v -11.73333 -2.133333 0
v -10.66667 -3.2 0
v -11.73333 -3.2 0
v -11.73333 -2.133333 0
v -10.66667 -2.133333 0
v -9.6 -3.2 0
v -10.66667 -3.2 0
v -10.66667 -2.133333 0
v -9.6 -2.133333 0
v -8.533334 -3.2 0
v -9.6 -3.2 0
v -9.6 -2.133333 0
v -8.533334 -2.133333 0
v -7.466667 -3.2 0
v -8.533334 -3.2 0
v -8.533334 -2.133333 0
v -7.466667 -2.133333 0
v -6.400001 -3.2 0
v -7.466667 -3.2 0
v -7.466667 -2.133333 0
v -6.400001 -2.133333 0
v -5.333333 -3.2 0
v -6.400001 -3.2 0
v -6.400001 -2.133333 0
v -5.333333 -2.133333 0
v -4.266667 -3.2 0
v -5.333333 -3.2 0
v -5.333333 -2.133333 0
v -4.266667 -2.133333 0
v -3.2 -3.2 0
v -4.266667 -3.2 0
v -4.266667 -2.133333 0
v -3.2 -2.133333 0
v -2.133333 -3.2 0
v -3.2 -3.2 0
v -3.2 -2.133333 0
v -2.133333 -2.133333 0
v -1.066667 -3.2 0
v -2.133333 -3.2 0
v -2.133333 -2.133333 0
v -1.066667 -2.133333 0
v 0 -3.2 0
v -1.066667 -3.2 0
v -1.066667 -2.133333 0
v 0 -2.133333 0
v -25.6 -4.266667 0
v -26.66667 -4.266667 0
v -26.66667 -3.2 0
v -25.6 -3.2 0
v 0 -4.266667 0
v -1.066667 -4.266667 0
v -1.066667 -3.2 0
v 0 -3.2 0
v -25.6 -5.333333 0
v -26.66667 -5.333333 0
v -26.66667 -4.266667 0
v -25.6 -4.266667 0
v 0 -5.333333 0
v -1.066667 -5.333333 0
v -1.066667 -4.266667 0
v 0 -4.266667 0
v -25.6 -6.400001 0
v -26.66667 -6.400001 0
v -26.66667 -5.333333 0
v -25.6 -5.333333 0
v 0 -6.400001 0
v -1.066667 -6.400001 0
v -1.066667 -5.333333 0
v 0 -5.333333 0
v -25.6 -7.466667 0
v -26.66667 -7.466667 0
v -26.66667 -6.400001 0
v -25.6 -6.400001 0
v 0 -7.466667 0
v -1.066667 -7.466667 0
v -1.066667 -6.400001 0
v 0 -6.400001 0
v -25.6 -8.533334 0
v -26.66667 -8.533334 0
v -26.66667 -7.466667 0
v -25.6 -7.466667 0
v 0 -8.533334 0
v -1.066667 -8.533334 0
v -1.066667 -7.466667 0
v 0 -7.466667 0
v -25.6 -9.6 0
v -26.66667 -9.6 0
v -26.66667 -8.533334 0
v -25.6 -8.533334 0
v -14.93333 -9.6 0
v -16 -9.6 0
v -16 -8.533334 0
v -14.93333 -8.533334 0
v -13.86667 -9.6 0
v -14.93333 -9.6 0
v -14.93333 -8.533334 0
v -13.86667 -8.533334 0
v -12.8 -9.6 0
v -13.86667 -9.6 0
v -13.86667 -8.533334 0
v -12.8 -8.533334 0
v -11.73333 -9.6 0
v -12.8 -9.6 0
v -12.8 -8.533334 0
v -11.73333 -8.533334 0
v -10.66667 -9.6 0
v -11.73333 -9.6 0
v -11.73333 -8.533334 0
v -10.66667 -8.533334 0
v 0 -9.6 0
v -1.066667 -9.6 0
v -1.066667 -8.533334 0
v 0 -8.533334 0
v -25.6 -10.66667 0
v -26.66667 -10.66667 0
v -26.66667 -9.6 0
v -25.6 -9.6 0
v -14.93333 -10.66667 0
v -16 -10.66667 0
v -16 -9.6 0
v -14.93333 -9.6 0
v -13.86667 -10.66667 0
v -14.93333 -10.66667 0
v -14.93333 -9.6 0
v -13.86667 -9.6 0
v -12.8 -10.66667 0
v -13.86667 -10.66667 0
v -13.86667 -9.6 0
v -12.8 -9.6 0
v -11.73333 -10.66667 0
v -12.8 -10.66667 0
v -12.8 -9.6 0
v -11.73333 -9.6 0
v -10.66667 -10.66667 0
v -11.73333 -10.66667 0
v -11.73333 -9.6 0
v -10.66667 -9.6 0
v 0 -10.66667 0
v -1.066667 -10.66667 0
v -1.066667 -9.6 0
v 0 -9.6 0
v -25.6 -11.73333 0
v -26.66667 -11.73333 0
v -26.66667 -10.66667 0
v -25.6 -10.66667 0
v -14.93333 -11.73333 0
v -16 -11.73333 0
v -16 -10.66667 0
v -14.93333 -10.66667 0
v -10.66667 -11.73333 0
v -11.73333 -11.73333 0
v -11.73333 -10.66667 0
v -10.66667 -10.66667 0
v 0 -11.73333 0
v -1.066667 -11.73333 0
v -1.066667 -10.66667 0
v 0 -10.66667 0
v -25.6 -12.8 0
v -26.66667 -12.8 0
v -26.66667 -11.73333 0
v -25.6 -11.73333 0
v -14.93333 -12.8 0
v -16 -12.8 0
v -16 -11.73333 0
v -14.93333 -11.73333 0
v -10.66667 -12.8 0
v -11.73333 -12.8 0
v -11.73333 -11.73333 0
v -10.66667 -11.73333 0
v 0 -12.8 0
v -1.066667 -12.8 0
v -1.066667 -11.73333 0
v 0 -11.73333 0
v -25.6 -13.86667 0
v -26.66667 -13.86667 0
v -26.66667 -12.8 0
v -25.6 -12.8 0
v 0 -13.86667 0
v -1.066667 -13.86667 0
v -1.066667 -12.8 0
v 0 -12.8 0
v -25.6 -14.93333 0
v -26.66667 -14.93333 0
v -26.66667 -13.86667 0
v -25.6 -13.86667 0
v -14.93333 -14.93333 0
v -16 -14.93333 0
v -16 -13.86667 0
v -14.93333 -13.86667 0
v -13.86667 -14.93333 0
v -14.93333 -14.93333 0
v -14.93333 -13.86667 0
v -13.86667 -13.86667 0
v -11.73333 -14.93333 0
v -12.8 -14.93333 0
v -12.8 -13.86667 0
v -11.73333 -13.86667 0
v -10.66667 -14.93333 0
v -11.73333 -14.93333 0
v -11.73333 -13.86667 0
v -10.66667 -13.86667 0
v 0 -14.93333 0
v -1.066667 -14.93333 0
v -1.066667 -13.86667 0
v 0 -13.86667 0
v -25.6 -16 0
v -26.66667 -16 0
v -26.66667 -14.93333 0
v -25.6 -14.93333 0
v 0 -16 0
v -1.066667 -16 0
v -1.066667 -14.93333 0
v 0 -14.93333 0
v -25.6 -17.06667 0
v -26.66667 -17.06667 0
v -26.66667 -16 0
v -25.6 -16 0
v 0 -17.06667 0
v -1.066667 -17.06667 0
v -1.066667 -16 0
v 0 -16 0
v -25.6 -18.13334 0
v -26.66667 -18.13334 0
v -26.66667 -17.06667 0
v -25.6 -17.06667 0
v 0 -18.13334 0
v -1.066667 -18.13334 0
v -1.066667 -17.06667 0
v 0 -17.06667 0
v -25.6 -19.2 0
v -26.66667 -19.2 0
v -26.66667 -18.13334 0
v -25.6 -18.13334 0
v 0 -19.2 0
v -1.066667 -19.2 0
v -1.066667 -18.13334 0
v 0 -18.13334 0
v -25.6 -20.26667 0
v -26.66667 -20.26667 0
v -26.66667 -19.2 0
v -25.6 -19.2 0
v 0 -20.26667 0
v -1.066667 -20.26667 0
v -1.066667 -19.2 0
v 0 -19.2 0
v -25.6 -21.33333 0
v -26.66667 -21.33333 0
v -26.66667 -20.26667 0
v -25.6 -20.26667 0
v 0 -21.33333 0
v -1.066667 -21.33333 0
v -1.066667 -20.26667 0
v 0 -20.26667 0
v -25.6 -22.4 0
v -26.66667 -22.4 0
v -26.66667 -21.33333 0
v -25.6 -21.33333 0
v 0 -22.4 0
v -1.066667 -22.4 0
v -1.066667 -21.33333 0
v 0 -21.33333 0
v -25.6 -23.46667 0
v -26.66667 -23.46667 0
v -26.66667 -22.4 0
v -25.6 -22.4 0
v 0 -23.46667 0
v -1.066667 -23.46667 0
v -1.066667 -22.4 0
v 0 -22.4 0

# Texture cooridinates (Count = 32)
vt 0.6673554 0.5817491
vt 0.6838843 0.5817491
vt 0.6838843 0.6121673
vt 0.6673554 0.6121673
vt 0.6146694 0.5817491
vt 0.6311983 0.5817491
vt 0.6311983 0.6121673
vt 0.6146694 0.6121673
vt 0.6497934 0.5817491
vt 0.6663223 0.5817491
vt 0.6663223 0.6121673
vt 0.6497934 0.6121673
vt 0.6322314 0.5494297
vt 0.6487603 0.5494297
vt 0.6487603 0.5798479
vt 0.6322314 0.5798479
vt 0.6849173 0.4847909
vt 0.7014463 0.4847909
vt 0.7014463 0.5152091
vt 0.6849173 0.5152091
vt 0.5971074 0.4847909
vt 0.6136364 0.4847909
vt 0.6136364 0.5152091
vt 0.5971074 0.5152091
vt 0.6497934 0.4847909
vt 0.6663223 0.4847909
vt 0.6663223 0.5152091
vt 0.6497934 0.5152091
vt 0.6146694 0.4847909
vt 0.6311983 0.4847909
vt 0.6311983 0.5152091
vt 0.6146694 0.5152091

# Normal
vn 0 0 -1

# Mesh description
g RCH-Floor2_mesh_0006

# Faces
f 1/1/1 2/2/1 3/3/1 4/4/1
f 5/5/1 6/6/1 7/7/1 8/8/1
f 9/5/1 10/6/1 11/7/1 12/8/1
f 13/5/1 14/6/1 15/7/1 16/8/1
f 17/5/1 18/6/1 19/7/1 20/8/1
f 21/5/1 22/6/1 23/7/1 24/8/1
f 25/5/1 26/6/1 27/7/1 28/8/1
f 29/5/1 30/6/1 31/7/1 32/8/1
f 33/5/1 34/6/1 35/7/1 36/8/1
f 37/5/1 38/6/1 39/7/1 40/8/1
f 41/5/1 42/6/1 43/7/1 44/8/1
f 45/5/1 46/6/1 47/7/1 48/8/1
f 49/5/1 50/6/1 51/7/1 52/8/1
f 53/5/1 54/6/1 55/7/1 56/8/1
f 57/5/1 58/6/1 59/7/1 60/8/1
f 61/5/1 62/6/1 63/7/1 64/8/1
f 65/5/1 66/6/1 67/7/1 68/8/1
f 69/5/1 70/6/1 71/7/1 72/8/1
f 73/5/1 74/6/1 75/7/1 76/8/1
f 77/5/1 78/6/1 79/7/1 80/8/1
f 81/5/1 82/6/1 83/7/1 84/8/1
f 85/5/1 86/6/1 87/7/1 88/8/1
f 89/5/1 90/6/1 91/7/1 92/8/1
f 93/5/1 94/6/1 95/7/1 96/8/1
f 97/9/1 98/10/1 99/11/1 100/12/1
f 101/13/1 102/14/1 103/15/1 104/16/1
f 105/17/1 106/18/1 107/19/1 108/20/1
f 109/17/1 110/18/1 111/19/1 112/20/1
f 113/17/1 114/18/1 115/19/1 116/20/1
f 117/17/1 118/18/1 119/19/1 120/20/1
f 121/17/1 122/18/1 123/19/1 124/20/1
f 125/17/1 126/18/1 127/19/1 128/20/1
f 129/17/1 130/18/1 131/19/1 132/20/1
f 133/17/1 134/18/1 135/19/1 136/20/1
f 137/17/1 138/18/1 139/19/1 140/20/1
f 141/17/1 142/18/1 143/19/1 144/20/1
f 145/17/1 146/18/1 147/19/1 148/20/1
f 149/17/1 150/18/1 151/19/1 152/20/1
f 153/17/1 154/18/1 155/19/1 156/20/1
f 157/17/1 158/18/1 159/19/1 160/20/1
f 161/17/1 162/18/1 163/19/1 164/20/1
f 165/17/1 166/18/1 167/19/1 168/20/1
f 169/17/1 170/18/1 171/19/1 172/20/1
f 173/17/1 174/18/1 175/19/1 176/20/1
f 177/17/1 178/18/1 179/19/1 180/20/1
f 181/17/1 182/18/1 183/19/1 184/20/1
f 185/17/1 186/18/1 187/19/1 188/20/1
f 189/17/1 190/18/1 191/19/1 192/20/1
f 193/17/1 194/18/1 195/19/1 196/20/1
f 197/13/1 198/14/1 199/15/1 200/16/1
f 201/13/1 202/14/1 203/15/1 204/16/1
f 205/21/1 206/22/1 207/23/1 208/24/1
f 209/21/1 210/22/1 211/23/1 212/24/1
f 213/21/1 214/22/1 215/23/1 216/24/1
f 217/21/1 218/22/1 219/23/1 220/24/1
f 221/21/1 222/22/1 223/23/1 224/24/1
f 225/21/1 226/22/1 227/23/1 228/24/1
f 229/21/1 230/22/1 231/23/1 232/24/1
f 233/21/1 234/22/1 235/23/1 236/24/1
f 237/21/1 238/22/1 239/23/1 240/24/1
f 241/21/1 242/22/1 243/23/1 244/24/1
f 245/21/1 246/22/1 247/23/1 248/24/1
f 249/21/1 250/22/1 251/23/1 252/24/1
f 253/21/1 254/22/1 255/23/1 256/24/1
f 257/21/1 258/22/1 259/23/1 260/24/1
f 261/21/1 262/22/1 263/23/1 264/24/1
f 265/21/1 266/22/1 267/23/1 268/24/1
f 269/21/1 270/22/1 271/23/1 272/24/1
f 273/21/1 274/22/1 275/23/1 276/24/1
f 277/21/1 278/22/1 279/23/1 280/24/1
f 281/21/1 282/22/1 283/23/1 284/24/1
f 285/21/1 286/22/1 287/23/1 288/24/1
f 289/21/1 290/22/1 291/23/1 292/24/1
f 293/21/1 294/22/1 295/23/1 296/24/1
f 297/13/1 298/14/1 299/15/1 300/16/1
f 301/13/1 302/14/1 303/15/1 304/16/1
f 305/13/1 306/14/1 307/15/1 308/16/1
f 309/13/1 310/14/1 311/15/1 312/16/1
f 313/13/1 314/14/1 315/15/1 316/16/1
f 317/13/1 318/14/1 319/15/1 320/16/1
f 321/13/1 322/14/1 323/15/1 324/16/1
f 325/13/1 326/14/1 327/15/1 328/16/1
f 329/13/1 330/14/1 331/15/1 332/16/1
f 333/13/1 334/14/1 335/15/1 336/16/1
f 337/13/1 338/14/1 339/15/1 340/16/1
f 341/13/1 342/14/1 343/15/1 344/16/1
f 345/1/1 346/2/1 347/3/1 348/4/1
f 349/5/1 350/6/1 351/7/1 352/8/1
f 353/5/1 354/6/1 355/7/1 356/8/1
f 357/5/1 358/6/1 359/7/1 360/8/1
f 361/9/1 362/10/1 363/11/1 364/12/1
f 365/13/1 366/14/1 367/15/1 368/16/1
f 369/13/1 370/14/1 371/15/1 372/16/1
f 373/13/1 374/14/1 375/15/1 376/16/1
f 377/21/1 378/22/1 379/23/1 380/24/1
f 381/21/1 382/22/1 383/23/1 384/24/1
f 385/21/1 386/22/1 387/23/1 388/24/1
f 389/13/1 390/14/1 391/15/1 392/16/1
f 393/13/1 394/14/1 395/15/1 396/16/1
f 397/13/1 398/14/1 399/15/1 400/16/1
f 401/13/1 402/14/1 403/15/1 404/16/1
f 405/13/1 406/14/1 407/15/1 408/16/1
f 409/13/1 410/14/1 411/15/1 412/16/1
f 413/13/1 414/14/1 415/15/1 416/16/1
f 417/13/1 418/14/1 419/15/1 420/16/1
f 421/13/1 422/14/1 423/15/1 424/16/1
f 425/13/1 426/14/1 427/15/1 428/16/1
f 429/13/1 430/14/1 431/15/1 432/16/1
f 433/13/1 434/14/1 435/15/1 436/16/1
f 437/13/1 438/14/1 439/15/1 440/16/1
f 441/25/1 442/26/1 443/27/1 444/28/1
f 445/29/1 446/30/1 447/31/1 448/32/1
f 449/25/1 450/26/1 451/27/1 452/28/1
f 453/29/1 454/30/1 455/31/1 456/32/1
f 457/13/1 458/14/1 459/15/1 460/16/1
f 461/13/1 462/14/1 463/15/1 464/16/1
f 465/13/1 466/14/1 467/15/1 468/16/1
f 469/13/1 470/14/1 471/15/1 472/16/1
f 473/13/1 474/14/1 475/15/1 476/16/1
f 477/13/1 478/14/1 479/15/1 480/16/1
f 481/13/1 482/14/1 483/15/1 484/16/1
f 485/13/1 486/14/1 487/15/1 488/16/1
f 489/13/1 490/14/1 491/15/1 492/16/1
f 493/13/1 494/14/1 495/15/1 496/16/1
f 497/13/1 498/14/1 499/15/1 500/16/1
f 501/13/1 502/14/1 503/15/1 504/16/1
f 505/13/1 506/14/1 507/15/1 508/16/1
f 509/13/1 510/14/1 511/15/1 512/16/1
f 513/13/1 514/14/1 515/15/1 516/16/1
f 517/13/1 518/14/1 519/15/1 520/16/1
f 521/13/1 522/14/1 523/15/1 524/16/1

