<?xml version="1.0" encoding="UTF-8" standalone="no"?>
<!DOCTYPE svg PUBLIC "-//W3C//DTD SVG 1.1//EN"
 "http://www.w3.org/Graphics/SVG/1.1/DTD/svg11.dtd">
<!-- Generated by graphviz version 2.38.0 (20140413.2041)
 -->
<!-- Title: SaveData Pages: 1 -->
<!--zoomable 750 -->
<svg id="main" version="1.1" xmlns="http://www.w3.org/2000/svg" xmlns:xlink="http://www.w3.org/1999/xlink" xml:space="preserve" onload="init(evt)">
<style type="text/css"><![CDATA[
.edge:hover path { stroke: red; }
.edge:hover polygon { stroke: red; fill: red; }
]]></style>
<script type="text/javascript"><![CDATA[
var edges = document.getElementsByTagName('g');
if (edges && edges.length) {
  for (var i=0;i<edges.length;i++) {
    if (edges[i].id.substr(0,4)=='edge') {
      edges[i].setAttribute('class','edge');
    }
  }
}
]]></script>
        <defs>
                <circle id="rim" cx="0" cy="0" r="7"/>
                <circle id="rim2" cx="0" cy="0" r="3.5"/>
                <g id="zoomPlus">
                        <use xlink:href="#rim" fill="#404040">
                                <set attributeName="fill" to="#808080" begin="zoomplus.mouseover" end="zoomplus.mouseout"/>
                        </use>
                        <path d="M-4,0h8M0,-4v8" fill="none" stroke="white" stroke-width="1.5" pointer-events="none"/>
                </g>
                <g id="zoomMin">
                        <use xlink:href="#rim" fill="#404040">
                                <set attributeName="fill" to="#808080" begin="zoomminus.mouseover" end="zoomminus.mouseout"/>
                        </use>
                        <path d="M-4,0h8" fill="none" stroke="white" stroke-width="1.5" pointer-events="none"/>
                </g>
                <g id="dirArrow">
                        <path fill="none" stroke="white" stroke-width="1.5" d="M0,-3.0v7 M-2.5,-0.5L0,-3.0L2.5,-0.5"/>
                </g>
               <g id="resetDef">
                       <use xlink:href="#rim2" fill="#404040">
                               <set attributeName="fill" to="#808080" begin="reset.mouseover" end="reset.mouseout"/>
                       </use>
               </g>
        </defs>

<script type="text/javascript">
var viewWidth = 1447;
var viewHeight = 750;
var sectionId = 'dynsection-0';
</script>
<script xlink:href="svgpan.js"/>
<svg id="graph" class="graph">
<g id="viewport">
<title>SaveData</title>
<!-- Node1 -->
<g id="node1" class="node"><title>Node1</title>
<polygon fill="#bfbfbf" stroke="black" points="654.5,-0.5 654.5,-57.5 712.5,-57.5 712.5,-0.5 654.5,-0.5"/>
<text text-anchor="middle" x="683.5" y="-45.5" font-family="Helvetica,sans-Serif" font-size="10.00">SaveData</text>
<polyline fill="none" stroke="black" points="654.5,-38.5 712.5,-38.5 "/>
<text text-anchor="middle" x="683.5" y="-26.5" font-family="Helvetica,sans-Serif" font-size="10.00"> </text>
<polyline fill="none" stroke="black" points="654.5,-19.5 712.5,-19.5 "/>
<text text-anchor="middle" x="683.5" y="-7.5" font-family="Helvetica,sans-Serif" font-size="10.00"> </text>
</g>
<!-- Node2 -->
<g id="node2" class="node"><title>Node2</title>
<g id="a_node2"><a xlink:href="class_save_data_1_1_vector_data.html" target="_top" xlink:title="A serialzable class to represent 2D vector information. ">
<polygon fill="none" stroke="black" points="98.5,-302.5 98.5,-359.5 208.5,-359.5 208.5,-302.5 98.5,-302.5"/>
<text text-anchor="middle" x="153.5" y="-347.5" font-family="Helvetica,sans-Serif" font-size="10.00">SaveData.VectorData</text>
<polyline fill="none" stroke="black" points="98.5,-340.5 208.5,-340.5 "/>
<text text-anchor="middle" x="153.5" y="-328.5" font-family="Helvetica,sans-Serif" font-size="10.00"> </text>
<polyline fill="none" stroke="black" points="98.5,-321.5 208.5,-321.5 "/>
<text text-anchor="middle" x="153.5" y="-309.5" font-family="Helvetica,sans-Serif" font-size="10.00"> </text>
</a>
</g>
</g>
<!-- Node2&#45;&gt;Node1 -->
<g id="edge1" class="edge"><title>Node2&#45;&gt;Node1</title>
<path fill="none" stroke="#404040" d="M159.24,-302.407C170.378,-256.144 199.487,-163.361 261.5,-116 321.364,-70.2801 548.411,-43.2547 642.389,-33.8185"/>
<polygon fill="none" stroke="#404040" points="642.534,-33.8043 648.113,-29.2357 654.476,-32.6286 648.897,-37.1972 642.534,-33.8043"/>
<text text-anchor="middle" x="297" y="-197.5" font-family="Helvetica,sans-Serif" font-size="10.00"> +playerPosition</text>
</g>
<!-- Node3 -->
<g id="node3" class="node"><title>Node3</title>
<polygon fill="none" stroke="#bfbfbf" points="177,-557.5 177,-614.5 212,-614.5 212,-557.5 177,-557.5"/>
<text text-anchor="middle" x="194.5" y="-602.5" font-family="Helvetica,sans-Serif" font-size="10.00">float</text>
<polyline fill="none" stroke="#bfbfbf" points="177,-595.5 212,-595.5 "/>
<text text-anchor="middle" x="194.5" y="-583.5" font-family="Helvetica,sans-Serif" font-size="10.00"> </text>
<polyline fill="none" stroke="#bfbfbf" points="177,-576.5 212,-576.5 "/>
<text text-anchor="middle" x="194.5" y="-564.5" font-family="Helvetica,sans-Serif" font-size="10.00"> </text>
</g>
<!-- Node3&#45;&gt;Node2 -->
<g id="edge2" class="edge"><title>Node3&#45;&gt;Node2</title>
<path fill="none" stroke="#404040" d="M176.913,-564.849C169.069,-554.558 160.67,-541.4 156.5,-528 140.271,-475.841 143.214,-412.036 147.667,-371.694"/>
<polygon fill="none" stroke="#404040" points="147.675,-371.63 144.421,-365.194 149.111,-359.716 152.364,-366.151 147.675,-371.63"/>
<text text-anchor="middle" x="176" y="-514.5" font-family="Helvetica,sans-Serif" font-size="10.00"> +ycoord</text>
<text text-anchor="middle" x="176" y="-503.5" font-family="Helvetica,sans-Serif" font-size="10.00">+xcoord</text>
</g>
<!-- Node18 -->
<g id="node18" class="node"><title>Node18</title>
<g id="a_node18"><a xlink:href="class_save_data_1_1_special_move_save_data.html" target="_top" xlink:title="A serializable class to represent a SpecialMove. ">
<polygon fill="none" stroke="black" points="252,-399 252,-456 409,-456 409,-399 252,-399"/>
<text text-anchor="middle" x="330.5" y="-444" font-family="Helvetica,sans-Serif" font-size="10.00">SaveData.SpecialMoveSaveData</text>
<polyline fill="none" stroke="black" points="252,-437 409,-437 "/>
<text text-anchor="middle" x="330.5" y="-425" font-family="Helvetica,sans-Serif" font-size="10.00"> </text>
<polyline fill="none" stroke="black" points="252,-418 409,-418 "/>
<text text-anchor="middle" x="330.5" y="-406" font-family="Helvetica,sans-Serif" font-size="10.00"> </text>
</a>
</g>
</g>
<!-- Node3&#45;&gt;Node18 -->
<g id="edge25" class="edge"><title>Node3&#45;&gt;Node18</title>
<path fill="none" stroke="#404040" d="M194.17,-557.433C195.247,-538.282 199.402,-513.058 212.5,-495 221.907,-482.03 234.665,-471.254 248.323,-462.422"/>
<polygon fill="none" stroke="#404040" points="248.627,-462.239 251.7,-455.716 258.904,-456.043 255.831,-462.567 248.627,-462.239"/>
<text text-anchor="middle" x="232.5" y="-509" font-family="Helvetica,sans-Serif" font-size="10.00"> +special</text>
</g>
<!-- Node4 -->
<g id="node4" class="node"><title>Node4</title>
<g id="a_node4"><a xlink:href="class_save_data_1_1_objects_active_data.html" target="_top" xlink:title="A serializable class to represent string,bool dictonaries. ">
<polygon fill="none" stroke="black" points="1242,-171.5 1242,-228.5 1383,-228.5 1383,-171.5 1242,-171.5"/>
<text text-anchor="middle" x="1312.5" y="-216.5" font-family="Helvetica,sans-Serif" font-size="10.00">SaveData.ObjectsActiveData</text>
<polyline fill="none" stroke="black" points="1242,-209.5 1383,-209.5 "/>
<text text-anchor="middle" x="1312.5" y="-197.5" font-family="Helvetica,sans-Serif" font-size="10.00"> </text>
<polyline fill="none" stroke="black" points="1242,-190.5 1383,-190.5 "/>
<text text-anchor="middle" x="1312.5" y="-178.5" font-family="Helvetica,sans-Serif" font-size="10.00"> </text>
</a>
</g>
</g>
<!-- Node4&#45;&gt;Node1 -->
<g id="edge3" class="edge"><title>Node4&#45;&gt;Node1</title>
<path fill="none" stroke="#404040" d="M1292.4,-171.433C1269.29,-142.119 1228.44,-97.1308 1181.5,-76 1100.27,-39.4319 829.317,-31.9319 724.964,-30.3953"/>
<polygon fill="none" stroke="#404040" points="724.801,-30.3933 718.748,-34.3125 712.802,-30.2325 718.855,-26.3132 724.801,-30.3933"/>
<text text-anchor="middle" x="1271" y="-84.5" font-family="Helvetica,sans-Serif" font-size="10.00"> +serializedObjectsActive</text>
</g>
<!-- Node5 -->
<g id="node5" class="node"><title>Node5</title>
<polygon fill="none" stroke="#bfbfbf" points="1364.5,-399 1364.5,-456 1438.5,-456 1438.5,-399 1364.5,-399"/>
<text text-anchor="middle" x="1401.5" y="-444" font-family="Helvetica,sans-Serif" font-size="10.00">List&lt; string &gt;</text>
<polyline fill="none" stroke="#bfbfbf" points="1364.5,-437 1438.5,-437 "/>
<text text-anchor="middle" x="1401.5" y="-425" font-family="Helvetica,sans-Serif" font-size="10.00"> </text>
<polyline fill="none" stroke="#bfbfbf" points="1364.5,-418 1438.5,-418 "/>
<text text-anchor="middle" x="1401.5" y="-406" font-family="Helvetica,sans-Serif" font-size="10.00"> </text>
</g>
<!-- Node5&#45;&gt;Node4 -->
<g id="edge4" class="edge"><title>Node5&#45;&gt;Node4</title>
<path fill="none" stroke="#404040" d="M1390.96,-398.754C1381.33,-373.488 1366.63,-335.172 1353.5,-302 1345.41,-281.55 1336.21,-258.853 1328.58,-240.163"/>
<polygon fill="none" stroke="#404040" points="1328.49,-239.92 1322.51,-235.88 1323.94,-228.812 1329.92,-232.852 1328.49,-239.92"/>
<text text-anchor="middle" x="1391" y="-328.5" font-family="Helvetica,sans-Serif" font-size="10.00"> +keys</text>
</g>
<!-- Node6 -->
<g id="node6" class="node"><title>Node6</title>
<polygon fill="none" stroke="#bfbfbf" points="1278.5,-399 1278.5,-456 1346.5,-456 1346.5,-399 1278.5,-399"/>
<text text-anchor="middle" x="1312.5" y="-444" font-family="Helvetica,sans-Serif" font-size="10.00">List&lt; bool &gt;</text>
<polyline fill="none" stroke="#bfbfbf" points="1278.5,-437 1346.5,-437 "/>
<text text-anchor="middle" x="1312.5" y="-425" font-family="Helvetica,sans-Serif" font-size="10.00"> </text>
<polyline fill="none" stroke="#bfbfbf" points="1278.5,-418 1346.5,-418 "/>
<text text-anchor="middle" x="1312.5" y="-406" font-family="Helvetica,sans-Serif" font-size="10.00"> </text>
</g>
<!-- Node6&#45;&gt;Node4 -->
<g id="edge5" class="edge"><title>Node6&#45;&gt;Node4</title>
<path fill="none" stroke="#404040" d="M1312.5,-398.849C1312.5,-359.182 1312.5,-285.916 1312.5,-240.533"/>
<polygon fill="none" stroke="#404040" points="1312.5,-240.524 1308.5,-234.524 1312.5,-228.524 1316.5,-234.524 1312.5,-240.524"/>
<text text-anchor="middle" x="1331" y="-328.5" font-family="Helvetica,sans-Serif" font-size="10.00"> +values</text>
</g>
<!-- Node7 -->
<g id="node7" class="node"><title>Node7</title>
<polygon fill="none" stroke="#bfbfbf" points="600,-679 600,-736 641,-736 641,-679 600,-679"/>
<text text-anchor="middle" x="620.5" y="-724" font-family="Helvetica,sans-Serif" font-size="10.00">string</text>
<polyline fill="none" stroke="#bfbfbf" points="600,-717 641,-717 "/>
<text text-anchor="middle" x="620.5" y="-705" font-family="Helvetica,sans-Serif" font-size="10.00"> </text>
<polyline fill="none" stroke="#bfbfbf" points="600,-698 641,-698 "/>
<text text-anchor="middle" x="620.5" y="-686" font-family="Helvetica,sans-Serif" font-size="10.00"> </text>
</g>
<!-- Node7&#45;&gt;Node1 -->
<g id="edge6" class="edge"><title>Node7&#45;&gt;Node1</title>
<path fill="none" stroke="#404040" d="M641.129,-705.184C703.136,-700.98 893.083,-686.273 1047.5,-655 1107.58,-642.832 1167.5,-648.301 1167.5,-587 1167.5,-587 1167.5,-587 1167.5,-199 1167.5,-105.505 841.516,-51.6445 724.607,-35.3346"/>
<polygon fill="none" stroke="#404040" points="724.575,-35.3303 718.088,-38.4788 712.686,-33.7012 719.174,-30.5528 724.575,-35.3303"/>
<text text-anchor="middle" x="1214" y="-425" font-family="Helvetica,sans-Serif" font-size="10.00"> +currentSceneName</text>
</g>
<!-- Node9 -->
<g id="node9" class="node"><title>Node9</title>
<g id="a_node9"><a xlink:href="class_save_data_1_1_item_save_data.html" target="_top" xlink:title="A serializable class to represent an Item. ">
<polygon fill="none" stroke="black" points="0,-399 0,-456 121,-456 121,-399 0,-399"/>
<text text-anchor="middle" x="60.5" y="-444" font-family="Helvetica,sans-Serif" font-size="10.00">SaveData.ItemSaveData</text>
<polyline fill="none" stroke="black" points="0,-437 121,-437 "/>
<text text-anchor="middle" x="60.5" y="-425" font-family="Helvetica,sans-Serif" font-size="10.00"> </text>
<polyline fill="none" stroke="black" points="0,-418 121,-418 "/>
<text text-anchor="middle" x="60.5" y="-406" font-family="Helvetica,sans-Serif" font-size="10.00"> </text>
</a>
</g>
</g>
<!-- Node7&#45;&gt;Node9 -->
<g id="edge9" class="edge"><title>Node7&#45;&gt;Node9</title>
<path fill="none" stroke="#404040" d="M599.871,-706.192C513.968,-704.482 185.769,-693.555 113.5,-626 70.0924,-585.424 60.7894,-513.483 59.5507,-468.535"/>
<polygon fill="none" stroke="#404040" points="59.5483,-468.344 55.4715,-462.396 59.3939,-456.345 63.4708,-462.293 59.5483,-468.344"/>
<text text-anchor="middle" x="140.5" y="-594.5" font-family="Helvetica,sans-Serif" font-size="10.00"> +name</text>
<text text-anchor="middle" x="140.5" y="-583.5" font-family="Helvetica,sans-Serif" font-size="10.00">+desc</text>
<text text-anchor="middle" x="140.5" y="-572.5" font-family="Helvetica,sans-Serif" font-size="10.00">+typeOfItem</text>
</g>
<!-- Node13 -->
<g id="node13" class="node"><title>Node13</title>
<g id="a_node13"><a xlink:href="class_quest.html" target="_top" xlink:title="A class to store a whole quest, being a sequence of 3 QuestDefs Also stores a name of the quest...">
<polygon fill="none" stroke="black" points="939.5,-382.5 939.5,-472.5 1011.5,-472.5 1011.5,-382.5 939.5,-382.5"/>
<text text-anchor="middle" x="975.5" y="-460.5" font-family="Helvetica,sans-Serif" font-size="10.00">Quest</text>
<polyline fill="none" stroke="black" points="939.5,-453.5 1011.5,-453.5 "/>
<text text-anchor="start" x="947.5" y="-441.5" font-family="Helvetica,sans-Serif" font-size="10.00">+ Main</text>
<text text-anchor="start" x="947.5" y="-430.5" font-family="Helvetica,sans-Serif" font-size="10.00">+ Side</text>
<text text-anchor="start" x="947.5" y="-419.5" font-family="Helvetica,sans-Serif" font-size="10.00">+ Cond</text>
<text text-anchor="start" x="947.5" y="-408.5" font-family="Helvetica,sans-Serif" font-size="10.00">+ Completed</text>
<polyline fill="none" stroke="black" points="939.5,-401.5 1011.5,-401.5 "/>
<text text-anchor="start" x="947.5" y="-389.5" font-family="Helvetica,sans-Serif" font-size="10.00">+ Quest()</text>
</a>
</g>
</g>
<!-- Node7&#45;&gt;Node13 -->
<g id="edge18" class="edge"><title>Node7&#45;&gt;Node13</title>
<path fill="none" stroke="#404040" d="M641.344,-698.425C693.594,-677.332 832.146,-616.05 918.5,-528 931.128,-515.124 941.957,-498.9 950.678,-483.311"/>
<polygon fill="none" stroke="#404040" points="950.712,-483.248 950.017,-476.07 956.376,-472.669 957.07,-479.846 950.712,-483.248"/>
<text text-anchor="middle" x="918" y="-589" font-family="Helvetica,sans-Serif" font-size="10.00"> +location</text>
<text text-anchor="middle" x="918" y="-578" font-family="Helvetica,sans-Serif" font-size="10.00">+title</text>
</g>
<!-- Node14 -->
<g id="node14" class="node"><title>Node14</title>
<g id="a_node14"><a xlink:href="class_quest_def.html" target="_top" xlink:title="Class defining one quest condition (part of a sequence of 3 in Quest) ">
<polygon fill="none" stroke="black" points="1067.5,-546.5 1067.5,-625.5 1139.5,-625.5 1139.5,-546.5 1067.5,-546.5"/>
<text text-anchor="middle" x="1103.5" y="-613.5" font-family="Helvetica,sans-Serif" font-size="10.00">QuestDef</text>
<polyline fill="none" stroke="black" points="1067.5,-606.5 1139.5,-606.5 "/>
<text text-anchor="start" x="1075.5" y="-594.5" font-family="Helvetica,sans-Serif" font-size="10.00">+ Type</text>
<text text-anchor="start" x="1075.5" y="-583.5" font-family="Helvetica,sans-Serif" font-size="10.00">+ Data</text>
<text text-anchor="start" x="1075.5" y="-572.5" font-family="Helvetica,sans-Serif" font-size="10.00">+ Desc</text>
<polyline fill="none" stroke="black" points="1067.5,-565.5 1139.5,-565.5 "/>
<text text-anchor="start" x="1075.5" y="-553.5" font-family="Helvetica,sans-Serif" font-size="10.00">+ QuestDef()</text>
</a>
</g>
</g>
<!-- Node7&#45;&gt;Node14 -->
<g id="edge17" class="edge"><title>Node7&#45;&gt;Node14</title>
<path fill="none" stroke="#404040" d="M641.433,-706.721C705.311,-706.597 902.252,-700.244 1056.46,-626.179"/>
<polygon fill="none" stroke="#404040" points="1056.73,-626.046 1060.33,-619.801 1067.49,-620.728 1063.88,-626.973 1056.73,-626.046"/>
<text text-anchor="middle" x="1029.5" y="-647" font-family="Helvetica,sans-Serif" font-size="10.00"> &#45;desc</text>
</g>
<!-- Node17 -->
<g id="node17" class="node"><title>Node17</title>
<g id="a_node17"><a xlink:href="class_save_data_1_1_player_save_data.html" target="_top" xlink:title="A serialzable class to represent a Player. ">
<polygon fill="none" stroke="black" points="341.5,-171.5 341.5,-228.5 471.5,-228.5 471.5,-171.5 341.5,-171.5"/>
<text text-anchor="middle" x="406.5" y="-216.5" font-family="Helvetica,sans-Serif" font-size="10.00">SaveData.PlayerSaveData</text>
<polyline fill="none" stroke="black" points="341.5,-209.5 471.5,-209.5 "/>
<text text-anchor="middle" x="406.5" y="-197.5" font-family="Helvetica,sans-Serif" font-size="10.00"> </text>
<polyline fill="none" stroke="black" points="341.5,-190.5 471.5,-190.5 "/>
<text text-anchor="middle" x="406.5" y="-178.5" font-family="Helvetica,sans-Serif" font-size="10.00"> </text>
</a>
</g>
</g>
<!-- Node7&#45;&gt;Node17 -->
<g id="edge22" class="edge"><title>Node7&#45;&gt;Node17</title>
<path fill="none" stroke="#404040" d="M599.785,-705.547C554.129,-702.795 442.178,-692.448 357.5,-655 337.745,-646.264 332.4,-642.534 318.5,-626 276.548,-576.097 283.003,-552.618 252.5,-495 248.218,-486.912 244.796,-485.859 242.5,-477 231.463,-434.407 225.662,-418.651 242.5,-378 265.11,-323.415 296.53,-327.51 336.5,-284 349.866,-269.45 364.021,-252.901 376.079,-238.429"/>
<polygon fill="none" stroke="#404040" points="376.404,-238.036 377.149,-230.863 384.056,-228.792 383.312,-235.965 376.404,-238.036"/>
<text text-anchor="middle" x="284.5" y="-509" font-family="Helvetica,sans-Serif" font-size="10.00"> +name</text>
</g>
<!-- Node7&#45;&gt;Node18 -->
<g id="edge24" class="edge"><title>Node7&#45;&gt;Node18</title>
<path fill="none" stroke="#404040" d="M599.837,-703.825C539.995,-695.619 368.696,-668.736 335.5,-626 317.122,-602.34 321.498,-519 326.131,-468.45"/>
<polygon fill="none" stroke="#404040" points="326.145,-468.306 322.742,-461.948 327.301,-456.362 330.705,-462.719 326.145,-468.306"/>
<text text-anchor="middle" x="380.5" y="-594.5" font-family="Helvetica,sans-Serif" font-size="10.00"> +text</text>
<text text-anchor="middle" x="380.5" y="-583.5" font-family="Helvetica,sans-Serif" font-size="10.00">+desc</text>
<text text-anchor="middle" x="380.5" y="-572.5" font-family="Helvetica,sans-Serif" font-size="10.00">+typeOfSpecialMove</text>
</g>
<!-- Node8 -->
<g id="node8" class="node"><title>Node8</title>
<polygon fill="none" stroke="#bfbfbf" points="636,-557.5 636,-614.5 665,-614.5 665,-557.5 636,-557.5"/>
<text text-anchor="middle" x="650.5" y="-602.5" font-family="Helvetica,sans-Serif" font-size="10.00">int</text>
<polyline fill="none" stroke="#bfbfbf" points="636,-595.5 665,-595.5 "/>
<text text-anchor="middle" x="650.5" y="-583.5" font-family="Helvetica,sans-Serif" font-size="10.00"> </text>
<polyline fill="none" stroke="#bfbfbf" points="636,-576.5 665,-576.5 "/>
<text text-anchor="middle" x="650.5" y="-564.5" font-family="Helvetica,sans-Serif" font-size="10.00"> </text>
</g>
<!-- Node8&#45;&gt;Node1 -->
<g id="edge7" class="edge"><title>Node8&#45;&gt;Node1</title>
<path fill="none" stroke="#404040" d="M656.522,-557.182C660.95,-535.461 666.669,-504.459 669.5,-477 684.942,-327.205 685.022,-147.81 684.153,-69.6486"/>
<polygon fill="none" stroke="#404040" points="684.152,-69.5577 680.077,-63.6083 684.001,-57.5586 688.076,-63.508 684.152,-69.5577"/>
<text text-anchor="middle" x="710.5" y="-334" font-family="Helvetica,sans-Serif" font-size="10.00"> +Money</text>
<text text-anchor="middle" x="710.5" y="-323" font-family="Helvetica,sans-Serif" font-size="10.00">+currentLevel</text>
</g>
<!-- Node10 -->
<g id="node10" class="node"><title>Node10</title>
<g id="a_node10"><a xlink:href="class_quest_manager.html" target="_top" xlink:title="A class to manage the tracking and completion of quests ">
<polygon fill="none" stroke="black" points="798,-116.5 798,-283.5 929,-283.5 929,-116.5 798,-116.5"/>
<text text-anchor="middle" x="863.5" y="-271.5" font-family="Helvetica,sans-Serif" font-size="10.00">QuestManager</text>
<polyline fill="none" stroke="black" points="798,-264.5 929,-264.5 "/>
<text text-anchor="start" x="806" y="-252.5" font-family="Helvetica,sans-Serif" font-size="10.00">+ CurrentQuest</text>
<text text-anchor="start" x="806" y="-241.5" font-family="Helvetica,sans-Serif" font-size="10.00">+ firstQuest</text>
<text text-anchor="start" x="806" y="-230.5" font-family="Helvetica,sans-Serif" font-size="10.00">+ secondQuest</text>
<polyline fill="none" stroke="black" points="798,-223.5 929,-223.5 "/>
<text text-anchor="start" x="806" y="-211.5" font-family="Helvetica,sans-Serif" font-size="10.00">+ QuestManager()</text>
<text text-anchor="start" x="806" y="-200.5" font-family="Helvetica,sans-Serif" font-size="10.00">+ addQuest()</text>
<text text-anchor="start" x="806" y="-189.5" font-family="Helvetica,sans-Serif" font-size="10.00">+ updateCurrentQuest()</text>
<text text-anchor="start" x="806" y="-178.5" font-family="Helvetica,sans-Serif" font-size="10.00">+ logQuestVariable()</text>
<text text-anchor="start" x="806" y="-167.5" font-family="Helvetica,sans-Serif" font-size="10.00">+ finishQuest()</text>
<text text-anchor="start" x="806" y="-156.5" font-family="Helvetica,sans-Serif" font-size="10.00">+ checkQuestCompleted()</text>
<text text-anchor="start" x="806" y="-145.5" font-family="Helvetica,sans-Serif" font-size="10.00">&#45; startQuest()</text>
<text text-anchor="start" x="806" y="-134.5" font-family="Helvetica,sans-Serif" font-size="10.00">&#45; isNegativeQuestCond()</text>
<text text-anchor="start" x="806" y="-123.5" font-family="Helvetica,sans-Serif" font-size="10.00">&#45; questDefVal()</text>
</a>
</g>
</g>
<!-- Node8&#45;&gt;Node10 -->
<g id="edge13" class="edge"><title>Node8&#45;&gt;Node10</title>
<path fill="none" stroke="#404040" d="M665.146,-581.293C701.113,-571.35 793.875,-540.43 835.5,-477 870.211,-424.105 876.672,-352.823 874.735,-295.95"/>
<polygon fill="none" stroke="#404040" points="874.722,-295.665 870.456,-289.851 874.181,-283.677 878.448,-289.491 874.722,-295.665"/>
<text text-anchor="middle" x="899.5" y="-430.5" font-family="Helvetica,sans-Serif" font-size="10.00"> &#45;noOfQuests</text>
<text text-anchor="middle" x="899.5" y="-419.5" font-family="Helvetica,sans-Serif" font-size="10.00">&#45;finishTime</text>
</g>
<!-- Node8&#45;&gt;Node13 -->
<g id="edge20" class="edge"><title>Node8&#45;&gt;Node13</title>
<path fill="none" stroke="#404040" d="M665.161,-584.297C701.049,-581.914 794.867,-571.632 856.5,-528 871.091,-517.67 865.46,-506.067 879.5,-495 896.741,-481.409 907.036,-488.876 925.5,-477 926.994,-476.039 928.481,-475.029 929.957,-473.978"/>
<polygon fill="none" stroke="#404040" points="930.029,-473.922 932.304,-467.079 939.496,-466.548 937.221,-473.391 930.029,-473.922"/>
<text text-anchor="middle" x="899" y="-514.5" font-family="Helvetica,sans-Serif" font-size="10.00"> +money</text>
<text text-anchor="middle" x="899" y="-503.5" font-family="Helvetica,sans-Serif" font-size="10.00">+exp</text>
</g>
<!-- Node8&#45;&gt;Node17 -->
<g id="edge30" class="edge"><title>Node8&#45;&gt;Node17</title>
<path fill="none" stroke="#404040" d="M637.308,-557.256C628.393,-539.166 616.007,-515.245 603.5,-495 598.314,-486.605 595.346,-485.596 590.5,-477 567.027,-435.365 570.467,-420.449 548.5,-378 530.247,-342.728 525.672,-333.512 501.5,-302 484.125,-279.348 462.46,-256.008 444.209,-237.479"/>
<polygon fill="none" stroke="#404040" points="444.026,-237.295 436.958,-235.867 435.558,-228.793 442.626,-230.221 444.026,-237.295"/>
<text text-anchor="middle" x="630" y="-469" font-family="Helvetica,sans-Serif" font-size="10.00"> +maximumMagic</text>
<text text-anchor="middle" x="630" y="-458" font-family="Helvetica,sans-Serif" font-size="10.00">+attack</text>
<text text-anchor="middle" x="630" y="-447" font-family="Helvetica,sans-Serif" font-size="10.00">+defence</text>
<text text-anchor="middle" x="630" y="-436" font-family="Helvetica,sans-Serif" font-size="10.00">+level</text>
<text text-anchor="middle" x="630" y="-425" font-family="Helvetica,sans-Serif" font-size="10.00">+speed</text>
<text text-anchor="middle" x="630" y="-414" font-family="Helvetica,sans-Serif" font-size="10.00">+luck</text>
<text text-anchor="middle" x="630" y="-403" font-family="Helvetica,sans-Serif" font-size="10.00">+health</text>
<text text-anchor="middle" x="630" y="-392" font-family="Helvetica,sans-Serif" font-size="10.00">+magic</text>
<text text-anchor="middle" x="630" y="-381" font-family="Helvetica,sans-Serif" font-size="10.00">+exp</text>
</g>
<!-- Node8&#45;&gt;Node18 -->
<g id="edge26" class="edge"><title>Node8&#45;&gt;Node18</title>
<path fill="none" stroke="#404040" d="M636,-582.646C607.731,-577.407 544.522,-562.421 504.5,-528 491.669,-516.965 498.936,-505.29 485.5,-495 460.68,-475.991 446.49,-488.702 417.5,-477 406.908,-472.724 395.99,-467.426 385.619,-461.918"/>
<polygon fill="none" stroke="#404040" points="385.574,-461.893 378.391,-462.524 375.046,-456.135 382.229,-455.505 385.574,-461.893"/>
<text text-anchor="middle" x="522.5" y="-509" font-family="Helvetica,sans-Serif" font-size="10.00"> +magic</text>
</g>
<!-- Node19 -->
<g id="node19" class="node"><title>Node19</title>
<g id="a_node19"><a xlink:href="class_save_data_1_1_texture_data.html" target="_top" xlink:title="A serializable class for holding textures. ">
<polygon fill="none" stroke="black" points="427,-399 427,-456 540,-456 540,-399 427,-399"/>
<text text-anchor="middle" x="483.5" y="-444" font-family="Helvetica,sans-Serif" font-size="10.00">SaveData.TextureData</text>
<polyline fill="none" stroke="black" points="427,-437 540,-437 "/>
<text text-anchor="middle" x="483.5" y="-425" font-family="Helvetica,sans-Serif" font-size="10.00"> </text>
<polyline fill="none" stroke="black" points="427,-418 540,-418 "/>
<text text-anchor="middle" x="483.5" y="-406" font-family="Helvetica,sans-Serif" font-size="10.00"> </text>
</a>
</g>
</g>
<!-- Node8&#45;&gt;Node19 -->
<g id="edge28" class="edge"><title>Node8&#45;&gt;Node19</title>
<path fill="none" stroke="#404040" d="M635.831,-577.113C618.268,-567.205 588.585,-548.94 567.5,-528 554.815,-515.402 555.678,-508.952 544.5,-495 536.483,-484.994 527.357,-474.588 518.651,-465.062"/>
<polygon fill="none" stroke="#404040" points="518.635,-465.045 511.623,-463.36 510.482,-456.24 517.494,-457.925 518.635,-465.045"/>
<text text-anchor="middle" x="585.5" y="-514.5" font-family="Helvetica,sans-Serif" font-size="10.00"> +height</text>
<text text-anchor="middle" x="585.5" y="-503.5" font-family="Helvetica,sans-Serif" font-size="10.00">+width</text>
</g>
<!-- Node9&#45;&gt;Node1 -->
<g id="edge8" class="edge"><title>Node9&#45;&gt;Node1</title>
<path fill="none" stroke="#404040" d="M52.3748,-398.858C36.3624,-337.961 8.57538,-191.651 85.5,-116 164.498,-38.3095 520.4,-30.2784 642.351,-29.8436"/>
<polygon fill="none" stroke="#404040" points="642.396,-29.8437 648.39,-25.8335 654.396,-29.8233 648.403,-33.8335 642.396,-29.8437"/>
<text text-anchor="middle" x="123" y="-197.5" font-family="Helvetica,sans-Serif" font-size="10.00"> +serializedItems</text>
</g>
<!-- Node9&#45;&gt;Node17 -->
<g id="edge31" class="edge"><title>Node9&#45;&gt;Node17</title>
<path fill="none" stroke="#404040" d="M51.1526,-398.834C43.5737,-370.675 37.6351,-327.625 61.5,-302 95.9872,-264.969 240.897,-301.164 288.5,-284 317.514,-273.538 345.918,-253.937 367.586,-236.409"/>
<polygon fill="none" stroke="#404040" points="367.819,-236.215 369.874,-229.303 377.045,-228.542 374.99,-235.454 367.819,-236.215"/>
<text text-anchor="middle" x="75.5" y="-328.5" font-family="Helvetica,sans-Serif" font-size="10.00"> +item</text>
</g>
<!-- Node10&#45;&gt;Node1 -->
<g id="edge10" class="edge"><title>Node10&#45;&gt;Node1</title>
<path fill="none" stroke="#404040" d="M797.752,-137.27C772.268,-113.343 743.981,-86.7849 721.929,-66.0803"/>
<polygon fill="none" stroke="#404040" points="721.634,-65.8038 714.522,-64.6131 712.886,-57.5901 719.998,-58.7808 721.634,-65.8038"/>
<text text-anchor="middle" x="788" y="-84.5" font-family="Helvetica,sans-Serif" font-size="10.00"> +questManager</text>
</g>
<!-- Node11 -->
<g id="node11" class="node"><title>Node11</title>
<polygon fill="none" stroke="#bfbfbf" points="1030,-399 1030,-456 1131,-456 1131,-399 1030,-399"/>
<text text-anchor="middle" x="1080.5" y="-444" font-family="Helvetica,sans-Serif" font-size="10.00">List&lt; questTypes &gt;</text>
<polyline fill="none" stroke="#bfbfbf" points="1030,-437 1131,-437 "/>
<text text-anchor="middle" x="1080.5" y="-425" font-family="Helvetica,sans-Serif" font-size="10.00"> </text>
<polyline fill="none" stroke="#bfbfbf" points="1030,-418 1131,-418 "/>
<text text-anchor="middle" x="1080.5" y="-406" font-family="Helvetica,sans-Serif" font-size="10.00"> </text>
</g>
<!-- Node11&#45;&gt;Node10 -->
<g id="edge11" class="edge"><title>Node11&#45;&gt;Node10</title>
<path fill="none" stroke="#404040" d="M1070.22,-398.881C1059.2,-371.948 1039.7,-330.927 1013.5,-302 992.569,-278.889 965.302,-258.509 939.766,-242.219"/>
<polygon fill="none" stroke="#404040" points="939.518,-242.065 932.31,-242.289 929.331,-235.722 936.538,-235.498 939.518,-242.065"/>
<text text-anchor="middle" x="1102" y="-328.5" font-family="Helvetica,sans-Serif" font-size="10.00"> +negativeQuestConds</text>
</g>
<!-- Node12 -->
<g id="node12" class="node"><title>Node12</title>
<polygon fill="none" stroke="#bfbfbf" points="712,-393.5 712,-461.5 827,-461.5 827,-393.5 712,-393.5"/>
<text text-anchor="start" x="720" y="-449.5" font-family="Helvetica,sans-Serif" font-size="10.00">IDictionary&lt; QuestDef,</text>
<text text-anchor="middle" x="769.5" y="-438.5" font-family="Helvetica,sans-Serif" font-size="10.00"> bool &gt;</text>
<polyline fill="none" stroke="#bfbfbf" points="712,-431.5 827,-431.5 "/>
<text text-anchor="middle" x="769.5" y="-419.5" font-family="Helvetica,sans-Serif" font-size="10.00"> </text>
<polyline fill="none" stroke="#bfbfbf" points="712,-412.5 827,-412.5 "/>
<text text-anchor="middle" x="769.5" y="-400.5" font-family="Helvetica,sans-Serif" font-size="10.00"> </text>
</g>
<!-- Node12&#45;&gt;Node10 -->
<g id="edge12" class="edge"><title>Node12&#45;&gt;Node10</title>
<path fill="none" stroke="#404040" d="M772.871,-393.482C776.321,-367.772 783.012,-331.601 795.5,-302 796.551,-299.508 797.668,-297.012 798.84,-294.52"/>
<polygon fill="none" stroke="#404040" points="798.921,-294.358 798.039,-287.201 804.307,-283.634 805.188,-290.791 798.921,-294.358"/>
<text text-anchor="middle" x="822.5" y="-328.5" font-family="Helvetica,sans-Serif" font-size="10.00"> +conditions</text>
</g>
<!-- Node13&#45;&gt;Node10 -->
<g id="edge14" class="edge"><title>Node13&#45;&gt;Node10</title>
<path fill="none" stroke="#404040" d="M953.639,-382.486C941.223,-357.486 925.185,-325.196 910.087,-294.798"/>
<polygon fill="none" stroke="#404040" points="909.914,-294.449 903.662,-290.854 904.576,-283.701 910.827,-287.296 909.914,-294.449"/>
<text text-anchor="middle" x="976" y="-334" font-family="Helvetica,sans-Serif" font-size="10.00"> &#45;currentQuest</text>
<text text-anchor="middle" x="976" y="-323" font-family="Helvetica,sans-Serif" font-size="10.00">&#45;chosenQuests</text>
</g>
<!-- Node14&#45;&gt;Node13 -->
<g id="edge15" class="edge"><title>Node14&#45;&gt;Node13</title>
<path fill="none" stroke="#404040" d="M1088.52,-546.257C1080.42,-529.005 1069.05,-509.382 1054.5,-495 1044.33,-484.952 1036.88,-486.402 1021.59,-476.704"/>
<polygon fill="none" stroke="#404040" points="1021.35,-476.533 1014.15,-476.283 1011.61,-469.535 1018.81,-469.784 1021.35,-476.533"/>
<text text-anchor="middle" x="1091" y="-520" font-family="Helvetica,sans-Serif" font-size="10.00"> &#45;side</text>
<text text-anchor="middle" x="1091" y="-509" font-family="Helvetica,sans-Serif" font-size="10.00">&#45;main</text>
<text text-anchor="middle" x="1091" y="-498" font-family="Helvetica,sans-Serif" font-size="10.00">&#45;cond</text>
</g>
<!-- Node15 -->
<g id="node15" class="node"><title>Node15</title>
<polygon fill="none" stroke="#bfbfbf" points="1131.5,-673.5 1131.5,-741.5 1269.5,-741.5 1269.5,-673.5 1131.5,-673.5"/>
<text text-anchor="start" x="1139.5" y="-729.5" font-family="Helvetica,sans-Serif" font-size="10.00">KeyValuePair&lt; questTypes,</text>
<text text-anchor="middle" x="1200.5" y="-718.5" font-family="Helvetica,sans-Serif" font-size="10.00"> string &gt;</text>
<polyline fill="none" stroke="#bfbfbf" points="1131.5,-711.5 1269.5,-711.5 "/>
<text text-anchor="middle" x="1200.5" y="-699.5" font-family="Helvetica,sans-Serif" font-size="10.00"> </text>
<polyline fill="none" stroke="#bfbfbf" points="1131.5,-692.5 1269.5,-692.5 "/>
<text text-anchor="middle" x="1200.5" y="-680.5" font-family="Helvetica,sans-Serif" font-size="10.00"> </text>
</g>
<!-- Node15&#45;&gt;Node14 -->
<g id="edge16" class="edge"><title>Node15&#45;&gt;Node14</title>
<path fill="none" stroke="#404040" d="M1173.48,-673.213C1163.92,-661.436 1152.97,-647.94 1142.61,-635.176"/>
<polygon fill="none" stroke="#404040" points="1142.39,-634.917 1135.51,-632.779 1134.83,-625.6 1141.72,-627.737 1142.39,-634.917"/>
<text text-anchor="middle" x="1169.5" y="-647" font-family="Helvetica,sans-Serif" font-size="10.00"> &#45;pair</text>
</g>
<!-- Node16 -->
<g id="node16" class="node"><title>Node16</title>
<polygon fill="none" stroke="#bfbfbf" points="975.5,-557.5 975.5,-614.5 1049.5,-614.5 1049.5,-557.5 975.5,-557.5"/>
<text text-anchor="middle" x="1012.5" y="-602.5" font-family="Helvetica,sans-Serif" font-size="10.00">questStatues</text>
<polyline fill="none" stroke="#bfbfbf" points="975.5,-595.5 1049.5,-595.5 "/>
<text text-anchor="middle" x="1012.5" y="-583.5" font-family="Helvetica,sans-Serif" font-size="10.00"> </text>
<polyline fill="none" stroke="#bfbfbf" points="975.5,-576.5 1049.5,-576.5 "/>
<text text-anchor="middle" x="1012.5" y="-564.5" font-family="Helvetica,sans-Serif" font-size="10.00"> </text>
</g>
<!-- Node16&#45;&gt;Node13 -->
<g id="edge19" class="edge"><title>Node16&#45;&gt;Node13</title>
<path fill="none" stroke="#404040" d="M1005.97,-557.381C1001.21,-537.247 994.597,-509.274 988.747,-484.533"/>
<polygon fill="none" stroke="#404040" points="988.71,-484.374 983.437,-479.455 985.949,-472.695 991.222,-477.614 988.71,-484.374"/>
<text text-anchor="middle" x="1024.5" y="-509" font-family="Helvetica,sans-Serif" font-size="10.00"> &#45;completed</text>
</g>
<!-- Node17&#45;&gt;Node1 -->
<g id="edge21" class="edge"><title>Node17&#45;&gt;Node1</title>
<path fill="none" stroke="#404040" d="M443.826,-171.452C479.92,-145.377 536.618,-105.887 588.5,-76 605.917,-65.9669 625.849,-56.0867 642.944,-48.0702"/>
<polygon fill="none" stroke="#404040" points="643.367,-47.8746 647.135,-41.7261 654.259,-42.8391 650.492,-48.9877 643.367,-47.8746"/>
<text text-anchor="middle" x="629" y="-90" font-family="Helvetica,sans-Serif" font-size="10.00"> +biologyPlayer</text>
<text text-anchor="middle" x="629" y="-79" font-family="Helvetica,sans-Serif" font-size="10.00">+serializedPlayers</text>
</g>
<!-- Node18&#45;&gt;Node17 -->
<g id="edge23" class="edge"><title>Node18&#45;&gt;Node17</title>
<path fill="none" stroke="#404040" d="M339.819,-398.849C353.245,-359.012 378.092,-285.289 393.372,-239.953"/>
<polygon fill="none" stroke="#404040" points="393.391,-239.895 391.517,-232.932 397.224,-228.524 399.098,-235.487 393.391,-239.895"/>
<text text-anchor="middle" x="394.5" y="-334" font-family="Helvetica,sans-Serif" font-size="10.00"> +special1</text>
<text text-anchor="middle" x="394.5" y="-323" font-family="Helvetica,sans-Serif" font-size="10.00">+special2</text>
</g>
<!-- Node19&#45;&gt;Node17 -->
<g id="edge27" class="edge"><title>Node19&#45;&gt;Node17</title>
<path fill="none" stroke="#404040" d="M474.058,-398.849C460.455,-359.012 435.282,-285.289 419.801,-239.953"/>
<polygon fill="none" stroke="#404040" points="419.776,-239.88 414.052,-235.495 415.898,-228.524 421.623,-232.909 419.776,-239.88"/>
<text text-anchor="middle" x="479.5" y="-328.5" font-family="Helvetica,sans-Serif" font-size="10.00"> +image</text>
</g>
<!-- Node20 -->
<g id="node20" class="node"><title>Node20</title>
<polygon fill="none" stroke="#bfbfbf" points="434.5,-557.5 434.5,-614.5 478.5,-614.5 478.5,-557.5 434.5,-557.5"/>
<text text-anchor="middle" x="456.5" y="-602.5" font-family="Helvetica,sans-Serif" font-size="10.00">byte []</text>
<polyline fill="none" stroke="#bfbfbf" points="434.5,-595.5 478.5,-595.5 "/>
<text text-anchor="middle" x="456.5" y="-583.5" font-family="Helvetica,sans-Serif" font-size="10.00"> </text>
<polyline fill="none" stroke="#bfbfbf" points="434.5,-576.5 478.5,-576.5 "/>
<text text-anchor="middle" x="456.5" y="-564.5" font-family="Helvetica,sans-Serif" font-size="10.00"> </text>
</g>
<!-- Node20&#45;&gt;Node19 -->
<g id="edge29" class="edge"><title>Node20&#45;&gt;Node19</title>
<path fill="none" stroke="#404040" d="M434.383,-560.349C422.488,-546.813 409.953,-531.98 408.5,-528 403.472,-514.222 402.483,-508.376 408.5,-495 413.693,-483.454 421.992,-473.1 431.211,-464.193"/>
<polygon fill="none" stroke="#404040" points="431.314,-464.101 433.122,-457.121 440.262,-456.105 438.453,-463.085 431.314,-464.101"/>
<text text-anchor="middle" x="447" y="-509" font-family="Helvetica,sans-Serif" font-size="10.00"> +rawTextureData</text>
</g>
</g>
</svg>
        <g id="navigator" transform="translate(0 0)" fill="#404254">
                <rect fill="#f2f5e9" fill-opacity="0.5" stroke="#606060" stroke-width=".5" x="0" y="0" width="60" height="60"/>
                <use id="zoomplus" xlink:href="#zoomPlus" x="17" y="9" onmousedown="handleZoom(evt,'in')"/>
                <use id="zoomminus" xlink:href="#zoomMin" x="42" y="9" onmousedown="handleZoom(evt,'out')"/>
                <use id="reset" xlink:href="#resetDef" x="30" y="36" onmousedown="handleReset()"/>
                <g id="arrowUp" xlink:href="#dirArrow" transform="translate(30 24)" onmousedown="handlePan(0,-1)">
                  <use xlink:href="#rim" fill="#404040">
                        <set attributeName="fill" to="#808080" begin="arrowUp.mouseover" end="arrowUp.mouseout"/>
                  </use>
                  <path fill="none" stroke="white" stroke-width="1.5" d="M0,-3.0v7 M-2.5,-0.5L0,-3.0L2.5,-0.5"/>
                </g>
                <g id="arrowRight" xlink:href="#dirArrow" transform="rotate(90) translate(36 -43)" onmousedown="handlePan(1,0)">
                  <use xlink:href="#rim" fill="#404040">
                        <set attributeName="fill" to="#808080" begin="arrowRight.mouseover" end="arrowRight.mouseout"/>
                  </use>
                  <path fill="none" stroke="white" stroke-width="1.5" d="M0,-3.0v7 M-2.5,-0.5L0,-3.0L2.5,-0.5"/>
                </g>
                <g id="arrowDown" xlink:href="#dirArrow" transform="rotate(180) translate(-30 -48)" onmousedown="handlePan(0,1)">
                  <use xlink:href="#rim" fill="#404040">
                        <set attributeName="fill" to="#808080" begin="arrowDown.mouseover" end="arrowDown.mouseout"/>
                  </use>
                  <path fill="none" stroke="white" stroke-width="1.5" d="M0,-3.0v7 M-2.5,-0.5L0,-3.0L2.5,-0.5"/>
                </g>
                <g id="arrowLeft" xlink:href="#dirArrow" transform="rotate(270) translate(-36 17)" onmousedown="handlePan(-1,0)">
                  <use xlink:href="#rim" fill="#404040">
                        <set attributeName="fill" to="#808080" begin="arrowLeft.mouseover" end="arrowLeft.mouseout"/>
                  </use>
                  <path fill="none" stroke="white" stroke-width="1.5" d="M0,-3.0v7 M-2.5,-0.5L0,-3.0L2.5,-0.5"/>
                </g>
        </g>
        <svg viewBox="0 0 15 15" width="100%" height="30px" preserveAspectRatio="xMaxYMin meet">
         <g id="arrow_out" transform="scale(0.3 0.3)">
          <a xlink:href="class_save_data__coll__graph_org.svg" target="_base">
           <rect id="button" ry="5" rx="5" y="6" x="6" height="38" width="38"
                fill="#f2f5e9" fill-opacity="0.5" stroke="#606060" stroke-width="1.0"/>
           <path id="arrow"
             d="M 11.500037,31.436501 C 11.940474,20.09759 22.043105,11.32322 32.158766,21.979434 L 37.068811,17.246167 C 37.068811,17.246167 37.088388,32 37.088388,32 L 22.160133,31.978069 C 22.160133,31.978069 26.997745,27.140456 26.997745,27.140456 C 18.528582,18.264221 13.291696,25.230495 11.500037,31.436501 z"
             style="fill:#404040;"/>
          </a>
         </g>
        </svg>
</svg>
