<?xml version="1.0" encoding="UTF-8" standalone="no"?>
<!DOCTYPE svg PUBLIC "-//W3C//DTD SVG 1.1//EN"
 "http://www.w3.org/Graphics/SVG/1.1/DTD/svg11.dtd">
<!-- Generated by graphviz version 2.38.0 (20140413.2041)
 -->
<!-- Title: GlobalFunctions Pages: 1 -->
<!--zoomable 1512 -->
<svg id="main" version="1.1" xmlns="http://www.w3.org/2000/svg" xmlns:xlink="http://www.w3.org/1999/xlink" xml:space="preserve" onload="init(evt)">
<style type="text/css"><![CDATA[
.edge:hover path { stroke: red; }
.edge:hover polygon { stroke: red; fill: red; }
]]></style>
<script type="text/javascript"><![CDATA[
var edges = document.getElementsByTagName('g');
if (edges && edges.length) {
  for (var i=0;i<edges.length;i++) {
    if (edges[i].id.substr(0,4)=='edge') {
      edges[i].setAttribute('class','edge');
    }
  }
}
]]></script>
        <defs>
                <circle id="rim" cx="0" cy="0" r="7"/>
                <circle id="rim2" cx="0" cy="0" r="3.5"/>
                <g id="zoomPlus">
                        <use xlink:href="#rim" fill="#404040">
                                <set attributeName="fill" to="#808080" begin="zoomplus.mouseover" end="zoomplus.mouseout"/>
                        </use>
                        <path d="M-4,0h8M0,-4v8" fill="none" stroke="white" stroke-width="1.5" pointer-events="none"/>
                </g>
                <g id="zoomMin">
                        <use xlink:href="#rim" fill="#404040">
                                <set attributeName="fill" to="#808080" begin="zoomminus.mouseover" end="zoomminus.mouseout"/>
                        </use>
                        <path d="M-4,0h8" fill="none" stroke="white" stroke-width="1.5" pointer-events="none"/>
                </g>
                <g id="dirArrow">
                        <path fill="none" stroke="white" stroke-width="1.5" d="M0,-3.0v7 M-2.5,-0.5L0,-3.0L2.5,-0.5"/>
                </g>
               <g id="resetDef">
                       <use xlink:href="#rim2" fill="#404040">
                               <set attributeName="fill" to="#808080" begin="reset.mouseover" end="reset.mouseout"/>
                       </use>
               </g>
        </defs>

<script type="text/javascript">
var viewWidth = 1185;
var viewHeight = 1512;
var sectionId = 'dynsection-1';
</script>
<script xlink:href="svgpan.js"/>
<svg id="graph" class="graph">
<g id="viewport">
<title>GlobalFunctions</title>
<!-- Node2 -->
<g id="node1" class="node"><title>Node2</title>
<polygon fill="#bfbfbf" stroke="black" points="360,-0.5 360,-134.5 447,-134.5 447,-0.5 360,-0.5"/>
<text text-anchor="middle" x="403.5" y="-122.5" font-family="Helvetica,sans-Serif" font-size="10.00">GlobalFunctions</text>
<polyline fill="none" stroke="black" points="360,-115.5 447,-115.5 "/>
<text text-anchor="middle" x="403.5" y="-103.5" font-family="Helvetica,sans-Serif" font-size="10.00"> </text>
<polyline fill="none" stroke="black" points="360,-96.5 447,-96.5 "/>
<text text-anchor="start" x="368" y="-84.5" font-family="Helvetica,sans-Serif" font-size="10.00">+ loadMenu()</text>
<text text-anchor="start" x="368" y="-73.5" font-family="Helvetica,sans-Serif" font-size="10.00">+ createBattle()</text>
<text text-anchor="start" x="368" y="-62.5" font-family="Helvetica,sans-Serif" font-size="10.00">+ getEnemy()</text>
<text text-anchor="start" x="368" y="-51.5" font-family="Helvetica,sans-Serif" font-size="10.00">+ getMoney()</text>
<text text-anchor="start" x="368" y="-40.5" font-family="Helvetica,sans-Serif" font-size="10.00">+ getItem()</text>
<text text-anchor="start" x="368" y="-29.5" font-family="Helvetica,sans-Serif" font-size="10.00">+ endBattle()</text>
<text text-anchor="start" x="368" y="-18.5" font-family="Helvetica,sans-Serif" font-size="10.00">+ createItem()</text>
<text text-anchor="start" x="368" y="-7.5" font-family="Helvetica,sans-Serif" font-size="10.00">&#45; Awake()</text>
</g>
<!-- Node2&#45;&gt;Node2 -->
<g id="edge29" class="edge"><title>Node2&#45;&gt;Node2</title>
<path fill="none" stroke="#404040" d="M447.169,-84.0413C457.43,-82.6817 465,-77.168 465,-67.5 465,-62.0618 462.605,-57.938 458.683,-55.1286"/>
<polygon fill="none" stroke="#404040" points="458.452,-55.0451 451.449,-56.7628 447.169,-50.9587 454.173,-49.2409 458.452,-55.0451"/>
<text text-anchor="middle" x="488" y="-65" font-family="Helvetica,sans-Serif" font-size="10.00"> +instance</text>
</g>
<!-- Node3 -->
<g id="node2" class="node"><title>Node3</title>
<g id="a_node2"><a xlink:href="class_mono_behaviour.html" target="_top" xlink:title="{MonoBehaviour\n||}">
<polygon fill="none" stroke="black" points="0,-188 0,-245 83,-245 83,-188 0,-188"/>
<text text-anchor="middle" x="41.5" y="-233" font-family="Helvetica,sans-Serif" font-size="10.00">MonoBehaviour</text>
<polyline fill="none" stroke="black" points="0,-226 83,-226 "/>
<text text-anchor="middle" x="41.5" y="-214" font-family="Helvetica,sans-Serif" font-size="10.00"> </text>
<polyline fill="none" stroke="black" points="0,-207 83,-207 "/>
<text text-anchor="middle" x="41.5" y="-195" font-family="Helvetica,sans-Serif" font-size="10.00"> </text>
</a>
</g>
</g>
<!-- Node3&#45;&gt;Node2 -->
<g id="edge1" class="edge"><title>Node3&#45;&gt;Node2</title>
<path fill="none" stroke="midnightblue" d="M80.1154,-181.101C92.9369,-170.977 107.726,-160.591 122.5,-153 201.342,-112.489 302.823,-88.0108 359.745,-76.4858"/>
<polygon fill="none" stroke="midnightblue" points="77.5578,-178.669 71.9939,-187.685 81.966,-184.107 77.5578,-178.669"/>
</g>
<!-- Node4 -->
<g id="node3" class="node"><title>Node4</title>
<polygon fill="none" stroke="#bfbfbf" points="101.5,-188 101.5,-245 159.5,-245 159.5,-188 101.5,-188"/>
<text text-anchor="middle" x="130.5" y="-233" font-family="Helvetica,sans-Serif" font-size="10.00">AudioClip</text>
<polyline fill="none" stroke="#bfbfbf" points="101.5,-226 159.5,-226 "/>
<text text-anchor="middle" x="130.5" y="-214" font-family="Helvetica,sans-Serif" font-size="10.00"> </text>
<polyline fill="none" stroke="#bfbfbf" points="101.5,-207 159.5,-207 "/>
<text text-anchor="middle" x="130.5" y="-195" font-family="Helvetica,sans-Serif" font-size="10.00"> </text>
</g>
<!-- Node4&#45;&gt;Node2 -->
<g id="edge2" class="edge"><title>Node4&#45;&gt;Node2</title>
<path fill="none" stroke="#404040" d="M124.207,-187.97C123.093,-176.143 124.149,-162.815 131.5,-153 157.559,-118.204 276.133,-91.3442 347.846,-77.9335"/>
<polygon fill="none" stroke="#404040" points="347.991,-77.9069 353.171,-72.8902 359.794,-75.7421 354.614,-80.7589 347.991,-77.9069"/>
<text text-anchor="middle" x="165" y="-156" font-family="Helvetica,sans-Serif" font-size="10.00"> +previousBGM</text>
</g>
<!-- Node5 -->
<g id="node4" class="node"><title>Node5</title>
<g id="a_node4"><a xlink:href="class_item.html" target="_top" xlink:title="Abstract class for items that can be equipped to a player, increasing some of their stats ...">
<polygon fill="none" stroke="black" points="305,-1308.5 305,-1387.5 382,-1387.5 382,-1308.5 305,-1308.5"/>
<text text-anchor="middle" x="343.5" y="-1375.5" font-family="Helvetica,sans-Serif" font-size="10.00">Item</text>
<polyline fill="none" stroke="black" points="305,-1368.5 382,-1368.5 "/>
<text text-anchor="start" x="313" y="-1356.5" font-family="Helvetica,sans-Serif" font-size="10.00">+ Name</text>
<text text-anchor="start" x="313" y="-1345.5" font-family="Helvetica,sans-Serif" font-size="10.00">+ Desc</text>
<polyline fill="none" stroke="black" points="305,-1338.5 382,-1338.5 "/>
<text text-anchor="start" x="313" y="-1326.5" font-family="Helvetica,sans-Serif" font-size="10.00">+ applyBuffs()</text>
<text text-anchor="start" x="313" y="-1315.5" font-family="Helvetica,sans-Serif" font-size="10.00">+ revertBuffs()</text>
</a>
</g>
</g>
<!-- Node5&#45;&gt;Node2 -->
<g id="edge3" class="edge"><title>Node5&#45;&gt;Node2</title>
<path fill="none" stroke="#404040" d="M330.363,-1308.32C321.16,-1277.79 310.5,-1233.91 310.5,-1194.5 310.5,-1194.5 310.5,-1194.5 310.5,-215.5 310.5,-179.593 330.561,-145.331 352.049,-118.93"/>
<polygon fill="none" stroke="#404040" points="352.228,-118.719 353.063,-111.556 359.995,-109.571 359.161,-116.734 352.228,-118.719"/>
<text text-anchor="middle" x="323" y="-659" font-family="Helvetica,sans-Serif" font-size="10.00"> &#45;item</text>
</g>
<!-- Node15 -->
<g id="node14" class="node"><title>Node15</title>
<g id="a_node14"><a xlink:href="class_player.html" target="_top" xlink:title="Defines a playable character for use in battle scenes">
<polygon fill="none" stroke="black" points="436.5,-1137.5 436.5,-1249.5 548.5,-1249.5 548.5,-1137.5 436.5,-1137.5"/>
<text text-anchor="middle" x="492.5" y="-1237.5" font-family="Helvetica,sans-Serif" font-size="10.00">Player</text>
<polyline fill="none" stroke="black" points="436.5,-1230.5 548.5,-1230.5 "/>
<text text-anchor="start" x="444.5" y="-1218.5" font-family="Helvetica,sans-Serif" font-size="10.00">+ Exp</text>
<text text-anchor="start" x="444.5" y="-1207.5" font-family="Helvetica,sans-Serif" font-size="10.00">+ Item</text>
<text text-anchor="start" x="444.5" y="-1196.5" font-family="Helvetica,sans-Serif" font-size="10.00">+ ExpToNextLevel</text>
<polyline fill="none" stroke="black" points="436.5,-1189.5 548.5,-1189.5 "/>
<text text-anchor="start" x="444.5" y="-1177.5" font-family="Helvetica,sans-Serif" font-size="10.00">+ Player()</text>
<text text-anchor="start" x="444.5" y="-1166.5" font-family="Helvetica,sans-Serif" font-size="10.00">+ gainExp()</text>
<text text-anchor="start" x="444.5" y="-1155.5" font-family="Helvetica,sans-Serif" font-size="10.00">+ levelUp()</text>
<text text-anchor="start" x="444.5" y="-1144.5" font-family="Helvetica,sans-Serif" font-size="10.00">&#45; setExpToNextLevel()</text>
</a>
</g>
</g>
<!-- Node5&#45;&gt;Node15 -->
<g id="edge22" class="edge"><title>Node5&#45;&gt;Node15</title>
<path fill="none" stroke="#404040" d="M381.485,-1308.12C396.242,-1293.02 413.54,-1275.31 430.03,-1258.44"/>
<polygon fill="none" stroke="#404040" points="430.176,-1258.29 431.508,-1251.2 438.562,-1249.71 437.23,-1256.79 430.176,-1258.29"/>
<text text-anchor="middle" x="431" y="-1276.5" font-family="Helvetica,sans-Serif" font-size="10.00"> &#45;item</text>
</g>
<!-- Node6 -->
<g id="node5" class="node"><title>Node6</title>
<polygon fill="none" stroke="#bfbfbf" points="780,-1446.5 780,-1503.5 821,-1503.5 821,-1446.5 780,-1446.5"/>
<text text-anchor="middle" x="800.5" y="-1491.5" font-family="Helvetica,sans-Serif" font-size="10.00">string</text>
<polyline fill="none" stroke="#bfbfbf" points="780,-1484.5 821,-1484.5 "/>
<text text-anchor="middle" x="800.5" y="-1472.5" font-family="Helvetica,sans-Serif" font-size="10.00"> </text>
<polyline fill="none" stroke="#bfbfbf" points="780,-1465.5 821,-1465.5 "/>
<text text-anchor="middle" x="800.5" y="-1453.5" font-family="Helvetica,sans-Serif" font-size="10.00"> </text>
</g>
<!-- Node6&#45;&gt;Node2 -->
<g id="edge5" class="edge"><title>Node6&#45;&gt;Node2</title>
<path fill="none" stroke="#404040" d="M779.918,-1474.11C675.846,-1474.14 212.5,-1467.58 212.5,-1349 212.5,-1349 212.5,-1349 212.5,-215.5 212.5,-146.551 291.633,-105.459 348.028,-84.9289"/>
<polygon fill="none" stroke="#404040" points="348.352,-84.8158 352.697,-79.0605 359.681,-80.8575 355.336,-86.6128 348.352,-84.8158"/>
<text text-anchor="middle" x="247.5" y="-739" font-family="Helvetica,sans-Serif" font-size="10.00"> &#45;previousScene</text>
<text text-anchor="middle" x="247.5" y="-728" font-family="Helvetica,sans-Serif" font-size="10.00">+levelOrder</text>
</g>
<!-- Node6&#45;&gt;Node5 -->
<g id="edge4" class="edge"><title>Node6&#45;&gt;Node5</title>
<path fill="none" stroke="#404040" d="M779.976,-1468.39C712.118,-1449.83 493.659,-1390.07 393.959,-1362.8"/>
<polygon fill="none" stroke="#404040" points="393.698,-1362.73 386.855,-1365.01 382.123,-1359.56 388.965,-1357.29 393.698,-1362.73"/>
<text text-anchor="middle" x="641.5" y="-1420" font-family="Helvetica,sans-Serif" font-size="10.00"> #desc</text>
<text text-anchor="middle" x="641.5" y="-1409" font-family="Helvetica,sans-Serif" font-size="10.00">#name</text>
</g>
<!-- Node9 -->
<g id="node8" class="node"><title>Node9</title>
<g id="a_node8"><a xlink:href="class_character.html" target="_top" xlink:title="Base abstract class for Enemy and Player to inherit from. Defines all shared variables, their constructor and their setters and getters ">
<polygon fill="none" stroke="black" points="647,-288.5 647,-466.5 742,-466.5 742,-288.5 647,-288.5"/>
<text text-anchor="middle" x="694.5" y="-454.5" font-family="Helvetica,sans-Serif" font-size="10.00">Character</text>
<polyline fill="none" stroke="black" points="647,-447.5 742,-447.5 "/>
<text text-anchor="start" x="655" y="-435.5" font-family="Helvetica,sans-Serif" font-size="10.00">+ Name</text>
<text text-anchor="start" x="655" y="-424.5" font-family="Helvetica,sans-Serif" font-size="10.00">+ Level</text>
<text text-anchor="start" x="655" y="-413.5" font-family="Helvetica,sans-Serif" font-size="10.00">+ Health</text>
<text text-anchor="start" x="655" y="-402.5" font-family="Helvetica,sans-Serif" font-size="10.00">+ Attack</text>
<text text-anchor="start" x="655" y="-391.5" font-family="Helvetica,sans-Serif" font-size="10.00">+ Defence</text>
<text text-anchor="start" x="655" y="-380.5" font-family="Helvetica,sans-Serif" font-size="10.00">+ MaximumMagic</text>
<text text-anchor="start" x="655" y="-369.5" font-family="Helvetica,sans-Serif" font-size="10.00">+ Magic</text>
<text text-anchor="start" x="655" y="-358.5" font-family="Helvetica,sans-Serif" font-size="10.00">+ Luck</text>
<text text-anchor="start" x="655" y="-347.5" font-family="Helvetica,sans-Serif" font-size="10.00">+ Speed</text>
<text text-anchor="start" x="655" y="-336.5" font-family="Helvetica,sans-Serif" font-size="10.00">+ Special1</text>
<text text-anchor="start" x="655" y="-325.5" font-family="Helvetica,sans-Serif" font-size="10.00">+ Special2</text>
<text text-anchor="start" x="655" y="-314.5" font-family="Helvetica,sans-Serif" font-size="10.00">+ Image</text>
<polyline fill="none" stroke="black" points="647,-307.5 742,-307.5 "/>
<text text-anchor="start" x="655" y="-295.5" font-family="Helvetica,sans-Serif" font-size="10.00"># Character()</text>
</a>
</g>
</g>
<!-- Node6&#45;&gt;Node9 -->
<g id="edge9" class="edge"><title>Node6&#45;&gt;Node9</title>
<path fill="none" stroke="#404040" d="M821.368,-1473.41C882.269,-1470.49 1055.5,-1453.03 1055.5,-1349 1055.5,-1349 1055.5,-1349 1055.5,-660.5 1055.5,-599.34 1069.38,-573.014 1031.5,-525 962.481,-437.526 830.776,-401.22 754.047,-386.979"/>
<polygon fill="none" stroke="#404040" points="754.037,-386.977 747.43,-389.866 742.222,-384.878 748.829,-381.989 754.037,-386.977"/>
<text text-anchor="middle" x="1072" y="-992.5" font-family="Helvetica,sans-Serif" font-size="10.00"> #name</text>
</g>
<!-- Node11 -->
<g id="node10" class="node"><title>Node11</title>
<g id="a_node10"><a xlink:href="class_special_move.html" target="_top" xlink:title="Special move abstract base class that expands upon CharacterMove, adding magic properties ...">
<polygon fill="none" stroke="black" points="746.5,-525.5 746.5,-626.5 844.5,-626.5 844.5,-525.5 746.5,-525.5"/>
<text text-anchor="middle" x="795.5" y="-614.5" font-family="Helvetica,sans-Serif" font-size="10.00">SpecialMove</text>
<polyline fill="none" stroke="black" points="746.5,-607.5 844.5,-607.5 "/>
<text text-anchor="start" x="754.5" y="-595.5" font-family="Helvetica,sans-Serif" font-size="10.00">+ Magic</text>
<text text-anchor="start" x="754.5" y="-584.5" font-family="Helvetica,sans-Serif" font-size="10.00">+ Desc</text>
<text text-anchor="start" x="754.5" y="-573.5" font-family="Helvetica,sans-Serif" font-size="10.00">+ Special</text>
<polyline fill="none" stroke="black" points="746.5,-566.5 844.5,-566.5 "/>
<text text-anchor="start" x="754.5" y="-554.5" font-family="Helvetica,sans-Serif" font-size="10.00">+ setUp()</text>
<text text-anchor="start" x="754.5" y="-543.5" font-family="Helvetica,sans-Serif" font-size="10.00">+ decreaseMagic()</text>
<text text-anchor="start" x="754.5" y="-532.5" font-family="Helvetica,sans-Serif" font-size="10.00"># SpecialMove()</text>
</a>
</g>
</g>
<!-- Node6&#45;&gt;Node11 -->
<g id="edge24" class="edge"><title>Node6&#45;&gt;Node11</title>
<path fill="none" stroke="#404040" d="M821.002,-1462.78C852.577,-1443.83 909.5,-1402.27 909.5,-1349 909.5,-1349 909.5,-1349 909.5,-735 909.5,-690.859 893.337,-680.789 867.5,-645 863.141,-638.962 858.196,-633.021 852.988,-627.316"/>
<polygon fill="none" stroke="#404040" points="852.921,-627.246 845.885,-625.669 844.634,-618.567 851.671,-620.144 852.921,-627.246"/>
<text text-anchor="middle" x="924.5" y="-1111" font-family="Helvetica,sans-Serif" font-size="10.00"> #desc</text>
</g>
<!-- Node12 -->
<g id="node11" class="node"><title>Node12</title>
<g id="a_node11"><a xlink:href="class_character_move.html" target="_top" xlink:title="Astract base class for character moves ">
<polygon fill="none" stroke="black" points="675.5,-696.5 675.5,-775.5 761.5,-775.5 761.5,-696.5 675.5,-696.5"/>
<text text-anchor="middle" x="718.5" y="-763.5" font-family="Helvetica,sans-Serif" font-size="10.00">CharacterMove</text>
<polyline fill="none" stroke="black" points="675.5,-756.5 761.5,-756.5 "/>
<text text-anchor="start" x="683.5" y="-744.5" font-family="Helvetica,sans-Serif" font-size="10.00">+ User</text>
<text text-anchor="start" x="683.5" y="-733.5" font-family="Helvetica,sans-Serif" font-size="10.00">+ Target</text>
<text text-anchor="start" x="683.5" y="-722.5" font-family="Helvetica,sans-Serif" font-size="10.00">+ Text</text>
<polyline fill="none" stroke="black" points="675.5,-715.5 761.5,-715.5 "/>
<text text-anchor="start" x="683.5" y="-703.5" font-family="Helvetica,sans-Serif" font-size="10.00">+ performMove()</text>
</a>
</g>
</g>
<!-- Node6&#45;&gt;Node12 -->
<g id="edge13" class="edge"><title>Node6&#45;&gt;Node12</title>
<path fill="none" stroke="#404040" d="M821.034,-1446.29C837.017,-1421.94 856.5,-1384.91 856.5,-1349 856.5,-1349 856.5,-1349 856.5,-1112.5 856.5,-1017.46 866.105,-988.906 832.5,-900 816.469,-857.59 786.897,-815.808 761.89,-785.165"/>
<polygon fill="none" stroke="#404040" points="761.626,-784.847 754.714,-782.791 753.954,-775.62 760.865,-777.676 761.626,-784.847"/>
<text text-anchor="middle" x="869" y="-1191" font-family="Helvetica,sans-Serif" font-size="10.00"> #text</text>
</g>
<!-- Node13 -->
<g id="node12" class="node"><title>Node13</title>
<g id="a_node12"><a xlink:href="class_battle_manager.html" target="_top" xlink:title="Holds current Player and Enemy objects in battle and provides functions for MainBattle and other obje...">
<polygon fill="none" stroke="black" points="616.5,-900.5 616.5,-1089.5 732.5,-1089.5 732.5,-900.5 616.5,-900.5"/>
<text text-anchor="middle" x="674.5" y="-1077.5" font-family="Helvetica,sans-Serif" font-size="10.00">BattleManager</text>
<polyline fill="none" stroke="black" points="616.5,-1070.5 732.5,-1070.5 "/>
<text text-anchor="start" x="624.5" y="-1058.5" font-family="Helvetica,sans-Serif" font-size="10.00">+ Player</text>
<text text-anchor="start" x="624.5" y="-1047.5" font-family="Helvetica,sans-Serif" font-size="10.00">+ Enemy</text>
<text text-anchor="start" x="624.5" y="-1036.5" font-family="Helvetica,sans-Serif" font-size="10.00">+ WasCriticalHit</text>
<polyline fill="none" stroke="black" points="616.5,-1029.5 732.5,-1029.5 "/>
<text text-anchor="start" x="624.5" y="-1017.5" font-family="Helvetica,sans-Serif" font-size="10.00">+ BattleManager()</text>
<text text-anchor="start" x="624.5" y="-1006.5" font-family="Helvetica,sans-Serif" font-size="10.00">+ playerFirst()</text>
<text text-anchor="start" x="624.5" y="-995.5" font-family="Helvetica,sans-Serif" font-size="10.00">+ switchPlayers()</text>
<text text-anchor="start" x="624.5" y="-984.5" font-family="Helvetica,sans-Serif" font-size="10.00">+ isCriticalHit()</text>
<text text-anchor="start" x="624.5" y="-973.5" font-family="Helvetica,sans-Serif" font-size="10.00">+ ranAway()</text>
<text text-anchor="start" x="624.5" y="-962.5" font-family="Helvetica,sans-Serif" font-size="10.00">+ damageCalculation()</text>
<text text-anchor="start" x="624.5" y="-951.5" font-family="Helvetica,sans-Serif" font-size="10.00">+ enemyMove()</text>
<text text-anchor="start" x="624.5" y="-940.5" font-family="Helvetica,sans-Serif" font-size="10.00">+ enemySpecialMove()</text>
<text text-anchor="start" x="624.5" y="-929.5" font-family="Helvetica,sans-Serif" font-size="10.00">+ battleWon()</text>
<text text-anchor="start" x="624.5" y="-918.5" font-family="Helvetica,sans-Serif" font-size="10.00">+ playerFainted()</text>
<text text-anchor="start" x="624.5" y="-907.5" font-family="Helvetica,sans-Serif" font-size="10.00">&#45; characterFainted()</text>
</a>
</g>
</g>
<!-- Node6&#45;&gt;Node13 -->
<g id="edge16" class="edge"><title>Node6&#45;&gt;Node13</title>
<path fill="none" stroke="#404040" d="M793.181,-1446.23C775.875,-1380.58 731.692,-1212.97 702.392,-1101.81"/>
<polygon fill="none" stroke="#404040" points="702.309,-1101.5 696.912,-1096.72 699.251,-1089.89 704.648,-1094.68 702.309,-1101.5"/>
<text text-anchor="middle" x="794.5" y="-1282" font-family="Helvetica,sans-Serif" font-size="10.00"> +forceEnemyMove</text>
<text text-anchor="middle" x="794.5" y="-1271" font-family="Helvetica,sans-Serif" font-size="10.00">+forceCriticalHits</text>
</g>
<!-- Node7 -->
<g id="node6" class="node"><title>Node7</title>
<polygon fill="none" stroke="#bfbfbf" points="989,-188 989,-245 1060,-245 1060,-188 989,-188"/>
<text text-anchor="middle" x="1024.5" y="-233" font-family="Helvetica,sans-Serif" font-size="10.00">GameObject</text>
<polyline fill="none" stroke="#bfbfbf" points="989,-226 1060,-226 "/>
<text text-anchor="middle" x="1024.5" y="-214" font-family="Helvetica,sans-Serif" font-size="10.00"> </text>
<polyline fill="none" stroke="#bfbfbf" points="989,-207 1060,-207 "/>
<text text-anchor="middle" x="1024.5" y="-195" font-family="Helvetica,sans-Serif" font-size="10.00"> </text>
</g>
<!-- Node7&#45;&gt;Node2 -->
<g id="edge6" class="edge"><title>Node7&#45;&gt;Node2</title>
<path fill="none" stroke="#404040" d="M1008.97,-187.716C1000.45,-175.086 988.717,-161.168 974.5,-153 887.238,-102.865 585.417,-79.3845 459.429,-71.5948"/>
<polygon fill="none" stroke="#404040" points="459.065,-71.5728 452.834,-75.2027 447.087,-70.8473 453.318,-67.2173 459.065,-71.5728"/>
<text text-anchor="middle" x="1006.5" y="-156" font-family="Helvetica,sans-Serif" font-size="10.00"> +player</text>
</g>
<!-- Node8 -->
<g id="node7" class="node"><title>Node8</title>
<g id="a_node7"><a xlink:href="class_enemy.html" target="_top" xlink:title="Defines an AI controller enemy to fight in battle scenes">
<polygon fill="none" stroke="black" points="524,-188 524,-245 591,-245 591,-188 524,-188"/>
<text text-anchor="middle" x="557.5" y="-233" font-family="Helvetica,sans-Serif" font-size="10.00">Enemy</text>
<polyline fill="none" stroke="black" points="524,-226 591,-226 "/>
<text text-anchor="start" x="532" y="-214" font-family="Helvetica,sans-Serif" font-size="10.00">+ ExpGiven</text>
<polyline fill="none" stroke="black" points="524,-207 591,-207 "/>
<text text-anchor="start" x="532" y="-195" font-family="Helvetica,sans-Serif" font-size="10.00">+ Enemy()</text>
</a>
</g>
</g>
<!-- Node8&#45;&gt;Node2 -->
<g id="edge7" class="edge"><title>Node8&#45;&gt;Node2</title>
<path fill="none" stroke="#404040" d="M528.534,-187.85C508.125,-168.369 480.221,-141.734 455.951,-118.567"/>
<polygon fill="none" stroke="#404040" points="455.874,-118.494 448.772,-117.244 447.194,-110.208 454.296,-111.458 455.874,-118.494"/>
<text text-anchor="middle" x="521.5" y="-156" font-family="Helvetica,sans-Serif" font-size="10.00"> &#45;enemy</text>
</g>
<!-- Node8&#45;&gt;Node13 -->
<g id="edge17" class="edge"><title>Node8&#45;&gt;Node13</title>
<path fill="none" stroke="#404040" d="M562.576,-245.022C577.728,-327.816 623.388,-581.958 652.5,-794 656.694,-824.552 660.612,-857.816 663.945,-888.289"/>
<polygon fill="none" stroke="#404040" points="663.95,-888.333 668.572,-893.868 665.241,-900.264 660.619,-894.729 663.95,-888.333"/>
<text text-anchor="middle" x="646.5" y="-573.5" font-family="Helvetica,sans-Serif" font-size="10.00"> &#45;enemy</text>
</g>
<!-- Node9&#45;&gt;Node8 -->
<g id="edge8" class="edge"><title>Node9&#45;&gt;Node8</title>
<path fill="none" stroke="midnightblue" d="M640.244,-311.841C628.215,-297.665 615.481,-282.778 603.5,-269 596.735,-261.22 589.324,-252.855 582.464,-245.177"/>
<polygon fill="none" stroke="midnightblue" points="637.71,-314.264 646.844,-319.632 643.051,-309.739 637.71,-314.264"/>
</g>
<!-- Node9&#45;&gt;Node12 -->
<g id="edge14" class="edge"><title>Node9&#45;&gt;Node12</title>
<path fill="none" stroke="#404040" d="M695.51,-466.614C696.604,-514.185 698.862,-573.886 703.5,-627 705.139,-645.77 707.771,-666.27 710.376,-684.317"/>
<polygon fill="none" stroke="#404040" points="710.403,-684.498 715.24,-689.847 712.163,-696.369 707.326,-691.02 710.403,-684.498"/>
<text text-anchor="middle" x="720.5" y="-579" font-family="Helvetica,sans-Serif" font-size="10.00"> #target</text>
<text text-anchor="middle" x="720.5" y="-568" font-family="Helvetica,sans-Serif" font-size="10.00">#user</text>
</g>
<!-- Node9&#45;&gt;Node15 -->
<g id="edge21" class="edge"><title>Node9&#45;&gt;Node15</title>
<path fill="none" stroke="midnightblue" d="M638.906,-416.088C594.094,-451.315 538.5,-508.433 538.5,-575 538.5,-996 538.5,-996 538.5,-996 538.5,-1044.7 524.939,-1098.45 512.542,-1137.4"/>
<polygon fill="none" stroke="midnightblue" points="641.053,-418.853 646.847,-409.982 636.786,-413.303 641.053,-418.853"/>
</g>
<!-- Node10 -->
<g id="node9" class="node"><title>Node10</title>
<polygon fill="none" stroke="#bfbfbf" points="517,-1319.5 517,-1376.5 546,-1376.5 546,-1319.5 517,-1319.5"/>
<text text-anchor="middle" x="531.5" y="-1364.5" font-family="Helvetica,sans-Serif" font-size="10.00">int</text>
<polyline fill="none" stroke="#bfbfbf" points="517,-1357.5 546,-1357.5 "/>
<text text-anchor="middle" x="531.5" y="-1345.5" font-family="Helvetica,sans-Serif" font-size="10.00"> </text>
<polyline fill="none" stroke="#bfbfbf" points="517,-1338.5 546,-1338.5 "/>
<text text-anchor="middle" x="531.5" y="-1326.5" font-family="Helvetica,sans-Serif" font-size="10.00"> </text>
</g>
<!-- Node10&#45;&gt;Node2 -->
<g id="edge30" class="edge"><title>Node10&#45;&gt;Node2</title>
<path fill="none" stroke="#404040" d="M516.589,-1341.71C487.378,-1330.37 423.785,-1300.55 404.5,-1250 313.548,-1011.61 366.399,-932.92 355.5,-678 353.582,-633.132 358.5,-621.909 358.5,-577 358.5,-577 358.5,-577 358.5,-215.5 358.5,-192.424 363.633,-168.167 370.432,-146.16"/>
<polygon fill="none" stroke="#404040" points="370.505,-145.936 368.57,-138.989 374.239,-134.532 376.173,-141.478 370.505,-145.936"/>
<text text-anchor="middle" x="386" y="-670" font-family="Helvetica,sans-Serif" font-size="10.00"> +currentLevel</text>
<text text-anchor="middle" x="386" y="-659" font-family="Helvetica,sans-Serif" font-size="10.00">+lastLevel</text>
<text text-anchor="middle" x="386" y="-648" font-family="Helvetica,sans-Serif" font-size="10.00">&#45;money</text>
</g>
<!-- Node10&#45;&gt;Node8 -->
<g id="edge28" class="edge"><title>Node10&#45;&gt;Node8</title>
<path fill="none" stroke="#404040" d="M516.907,-1338.37C484.326,-1317.89 408.5,-1262.87 408.5,-1194.5 408.5,-1194.5 408.5,-1194.5 408.5,-837 408.5,-766.132 416.213,-748.738 420.5,-678 424.617,-610.054 412.456,-591.388 427.5,-525 450.557,-423.251 505.46,-312.564 536.027,-255.81"/>
<polygon fill="none" stroke="#404040" points="536.065,-255.739 535.418,-248.557 541.799,-245.197 542.446,-252.379 536.065,-255.739"/>
<text text-anchor="middle" x="442.5" y="-733.5" font-family="Helvetica,sans-Serif" font-size="10.00"> &#45;expGiven</text>
</g>
<!-- Node10&#45;&gt;Node9 -->
<g id="edge10" class="edge"><title>Node10&#45;&gt;Node9</title>
<path fill="none" stroke="#404040" d="M546.103,-1324.54C552.077,-1314.37 558.509,-1301.97 562.5,-1290 576.069,-1249.3 576.5,-1237.4 576.5,-1194.5 576.5,-1194.5 576.5,-1194.5 576.5,-660.5 576.5,-588.605 609.543,-513.832 640.658,-459.36"/>
<polygon fill="none" stroke="#404040" points="640.803,-459.112 640.368,-451.914 646.845,-448.744 647.28,-455.942 640.803,-459.112"/>
<text text-anchor="middle" x="614" y="-874" font-family="Helvetica,sans-Serif" font-size="10.00"> #speed</text>
<text text-anchor="middle" x="614" y="-863" font-family="Helvetica,sans-Serif" font-size="10.00">#luck</text>
<text text-anchor="middle" x="614" y="-852" font-family="Helvetica,sans-Serif" font-size="10.00">#health</text>
<text text-anchor="middle" x="614" y="-841" font-family="Helvetica,sans-Serif" font-size="10.00">#magic</text>
<text text-anchor="middle" x="614" y="-830" font-family="Helvetica,sans-Serif" font-size="10.00">#maximumMagic</text>
<text text-anchor="middle" x="614" y="-819" font-family="Helvetica,sans-Serif" font-size="10.00">#attack</text>
<text text-anchor="middle" x="614" y="-808" font-family="Helvetica,sans-Serif" font-size="10.00">#defence</text>
<text text-anchor="middle" x="614" y="-797" font-family="Helvetica,sans-Serif" font-size="10.00">#level</text>
</g>
<!-- Node10&#45;&gt;Node11 -->
<g id="edge26" class="edge"><title>Node10&#45;&gt;Node11</title>
<path fill="none" stroke="#404040" d="M546.214,-1340.74C576.301,-1327.42 645.944,-1293.86 692.5,-1250 743.918,-1201.56 760.751,-1186.21 782.5,-1119 810.833,-1031.45 803.468,-761.438 798.409,-638.773"/>
<polygon fill="none" stroke="#404040" points="798.404,-638.659 794.154,-632.834 797.897,-626.67 802.147,-632.496 798.404,-638.659"/>
<text text-anchor="middle" x="821" y="-992.5" font-family="Helvetica,sans-Serif" font-size="10.00"> #magic</text>
</g>
<!-- Node10&#45;&gt;Node13 -->
<g id="edge18" class="edge"><title>Node10&#45;&gt;Node13</title>
<path fill="none" stroke="#404040" d="M546.241,-1336.42C559.66,-1326.05 579.068,-1309.05 590.5,-1290 624.997,-1232.51 645.901,-1160.19 658.228,-1101.66"/>
<polygon fill="none" stroke="#404040" points="658.255,-1101.53 655.536,-1094.85 660.655,-1089.77 663.374,-1096.45 658.255,-1101.53"/>
<text text-anchor="middle" x="669" y="-1191" font-family="Helvetica,sans-Serif" font-size="10.00"> +money</text>
</g>
<!-- Node10&#45;&gt;Node15 -->
<g id="edge23" class="edge"><title>Node10&#45;&gt;Node15</title>
<path fill="none" stroke="#404040" d="M516.94,-1333.6C506.507,-1322.94 493.311,-1307.04 487.5,-1290 484.448,-1281.05 483.001,-1271.36 482.596,-1261.69"/>
<polygon fill="none" stroke="#404040" points="482.596,-1261.52 478.598,-1255.52 482.599,-1249.52 486.598,-1255.53 482.596,-1261.52"/>
<text text-anchor="middle" x="525" y="-1282" font-family="Helvetica,sans-Serif" font-size="10.00"> &#45;expToNextLevel</text>
<text text-anchor="middle" x="525" y="-1271" font-family="Helvetica,sans-Serif" font-size="10.00">&#45;exp</text>
</g>
<!-- Node11&#45;&gt;Node9 -->
<g id="edge11" class="edge"><title>Node11&#45;&gt;Node9</title>
<path fill="none" stroke="#404040" d="M770.013,-525.415C762.487,-510.772 753.969,-494.2 745.435,-477.596"/>
<polygon fill="none" stroke="#404040" points="745.32,-477.373 739.02,-473.865 739.834,-466.7 746.135,-470.208 745.32,-477.373"/>
<text text-anchor="middle" x="783" y="-499" font-family="Helvetica,sans-Serif" font-size="10.00"> #special1</text>
<text text-anchor="middle" x="783" y="-488" font-family="Helvetica,sans-Serif" font-size="10.00">#special2</text>
</g>
<!-- Node12&#45;&gt;Node11 -->
<g id="edge12" class="edge"><title>Node12&#45;&gt;Node11</title>
<path fill="none" stroke="midnightblue" d="M741.795,-687.2C751.134,-668.036 761.896,-645.953 771.322,-626.611"/>
<polygon fill="none" stroke="midnightblue" points="738.571,-685.826 737.336,-696.349 744.864,-688.893 738.571,-685.826"/>
</g>
<!-- Node13&#45;&gt;Node12 -->
<g id="edge15" class="edge"><title>Node13&#45;&gt;Node12</title>
<path fill="none" stroke="#404040" d="M690.311,-900.374C696.006,-866.816 702.506,-828.707 708.5,-794 708.869,-791.865 709.246,-789.686 709.629,-787.484"/>
<polygon fill="none" stroke="#404040" points="709.634,-787.45 706.724,-780.852 711.695,-775.628 714.605,-782.226 709.634,-787.45"/>
<text text-anchor="middle" x="731.5" y="-835.5" font-family="Helvetica,sans-Serif" font-size="10.00"> #manager</text>
</g>
<!-- Node14 -->
<g id="node13" class="node"><title>Node14</title>
<polygon fill="none" stroke="#bfbfbf" points="941,-1165 941,-1222 976,-1222 976,-1165 941,-1165"/>
<text text-anchor="middle" x="958.5" y="-1210" font-family="Helvetica,sans-Serif" font-size="10.00">bool</text>
<polyline fill="none" stroke="#bfbfbf" points="941,-1203 976,-1203 "/>
<text text-anchor="middle" x="958.5" y="-1191" font-family="Helvetica,sans-Serif" font-size="10.00"> </text>
<polyline fill="none" stroke="#bfbfbf" points="941,-1184 976,-1184 "/>
<text text-anchor="middle" x="958.5" y="-1172" font-family="Helvetica,sans-Serif" font-size="10.00"> </text>
</g>
<!-- Node14&#45;&gt;Node2 -->
<g id="edge31" class="edge"><title>Node14&#45;&gt;Node2</title>
<path fill="none" stroke="#404040" d="M958.959,-1164.84C959.549,-1126.8 960.5,-1056.22 960.5,-996 960.5,-996 960.5,-996 960.5,-215.5 960.5,-112.593 600.569,-80.1414 459.377,-71.3704"/>
<polygon fill="none" stroke="#404040" points="459.185,-71.3589 452.956,-74.9921 447.207,-70.6396 453.436,-67.0065 459.185,-71.3589"/>
<text text-anchor="middle" x="994" y="-573.5" font-family="Helvetica,sans-Serif" font-size="10.00"> +canRunAway</text>
</g>
<!-- Node14&#45;&gt;Node13 -->
<g id="edge19" class="edge"><title>Node14&#45;&gt;Node13</title>
<path fill="none" stroke="#404040" d="M940.883,-1176.05C926.839,-1163.73 906.163,-1147.29 885.5,-1137 859.051,-1123.83 848.717,-1130.5 821.5,-1119 797.837,-1109 791.988,-1105.5 771.5,-1090 761.508,-1082.44 751.462,-1073.94 741.82,-1065.23"/>
<polygon fill="none" stroke="#404040" points="741.535,-1064.96 734.412,-1063.84 732.714,-1056.83 739.836,-1057.96 741.535,-1064.96"/>
<text text-anchor="middle" x="854.5" y="-1111" font-family="Helvetica,sans-Serif" font-size="10.00"> &#45;wasCriticalHit</text>
</g>
<!-- Node15&#45;&gt;Node2 -->
<g id="edge32" class="edge"><title>Node15&#45;&gt;Node2</title>
<path fill="none" stroke="#404040" d="M490.823,-1137.34C487.813,-1045.63 480.649,-856.055 468.5,-696 453.468,-497.967 427.119,-265.642 413.027,-146.966"/>
<polygon fill="none" stroke="#404040" points="412.997,-146.715 408.316,-141.23 411.578,-134.799 416.259,-140.284 412.997,-146.715"/>
<text text-anchor="middle" x="494" y="-573.5" font-family="Helvetica,sans-Serif" font-size="10.00"> +takenPlayer</text>
</g>
<!-- Node15&#45;&gt;Node13 -->
<g id="edge20" class="edge"><title>Node15&#45;&gt;Node13</title>
<path fill="none" stroke="#404040" d="M543.681,-1137.24C563.637,-1115.7 586.775,-1090.71 607.994,-1067.8"/>
<polygon fill="none" stroke="#404040" points="608.176,-1067.61 609.319,-1060.49 616.33,-1058.8 615.188,-1065.92 608.176,-1067.61"/>
<text text-anchor="middle" x="584" y="-1111" font-family="Helvetica,sans-Serif" font-size="10.00"> &#45;player</text>
</g>
<!-- Node16 -->
<g id="node15" class="node"><title>Node16</title>
<polygon fill="none" stroke="#bfbfbf" points="822,-707.5 822,-764.5 857,-764.5 857,-707.5 822,-707.5"/>
<text text-anchor="middle" x="839.5" y="-752.5" font-family="Helvetica,sans-Serif" font-size="10.00">float</text>
<polyline fill="none" stroke="#bfbfbf" points="822,-745.5 857,-745.5 "/>
<text text-anchor="middle" x="839.5" y="-733.5" font-family="Helvetica,sans-Serif" font-size="10.00"> </text>
<polyline fill="none" stroke="#bfbfbf" points="822,-726.5 857,-726.5 "/>
<text text-anchor="middle" x="839.5" y="-714.5" font-family="Helvetica,sans-Serif" font-size="10.00"> </text>
</g>
<!-- Node16&#45;&gt;Node11 -->
<g id="edge25" class="edge"><title>Node16&#45;&gt;Node11</title>
<path fill="none" stroke="#404040" d="M831.836,-707.479C826.528,-688.418 819.248,-662.277 812.598,-638.397"/>
<polygon fill="none" stroke="#404040" points="812.513,-638.092 807.05,-633.385 809.294,-626.532 814.757,-631.239 812.513,-638.092"/>
<text text-anchor="middle" x="843.5" y="-659" font-family="Helvetica,sans-Serif" font-size="10.00"> #special</text>
</g>
<!-- Node17 -->
<g id="node16" class="node"><title>Node17</title>
<polygon fill="none" stroke="#bfbfbf" points="863,-547.5 863,-604.5 924,-604.5 924,-547.5 863,-547.5"/>
<text text-anchor="middle" x="893.5" y="-592.5" font-family="Helvetica,sans-Serif" font-size="10.00">Texture2D</text>
<polyline fill="none" stroke="#bfbfbf" points="863,-585.5 924,-585.5 "/>
<text text-anchor="middle" x="893.5" y="-573.5" font-family="Helvetica,sans-Serif" font-size="10.00"> </text>
<polyline fill="none" stroke="#bfbfbf" points="863,-566.5 924,-566.5 "/>
<text text-anchor="middle" x="893.5" y="-554.5" font-family="Helvetica,sans-Serif" font-size="10.00"> </text>
</g>
<!-- Node17&#45;&gt;Node9 -->
<g id="edge27" class="edge"><title>Node17&#45;&gt;Node9</title>
<path fill="none" stroke="#404040" d="M872.635,-547.387C866.674,-539.929 860.02,-531.992 853.5,-525 821.347,-490.521 782.47,-454.61 751.207,-426.971"/>
<polygon fill="none" stroke="#404040" points="751.197,-426.962 744.049,-426.004 742.185,-419.038 749.332,-419.996 751.197,-426.962"/>
<text text-anchor="middle" x="851" y="-493.5" font-family="Helvetica,sans-Serif" font-size="10.00"> #image</text>
</g>
<!-- Node18 -->
<g id="node17" class="node"><title>Node18</title>
<polygon fill="none" stroke="#bfbfbf" points="1078.5,-182.5 1078.5,-250.5 1176.5,-250.5 1176.5,-182.5 1078.5,-182.5"/>
<text text-anchor="start" x="1086.5" y="-238.5" font-family="Helvetica,sans-Serif" font-size="10.00">IDictionary&lt; string,</text>
<text text-anchor="middle" x="1127.5" y="-227.5" font-family="Helvetica,sans-Serif" font-size="10.00"> bool &gt;</text>
<polyline fill="none" stroke="#bfbfbf" points="1078.5,-220.5 1176.5,-220.5 "/>
<text text-anchor="middle" x="1127.5" y="-208.5" font-family="Helvetica,sans-Serif" font-size="10.00"> </text>
<polyline fill="none" stroke="#bfbfbf" points="1078.5,-201.5 1176.5,-201.5 "/>
<text text-anchor="middle" x="1127.5" y="-189.5" font-family="Helvetica,sans-Serif" font-size="10.00"> </text>
</g>
<!-- Node18&#45;&gt;Node2 -->
<g id="edge33" class="edge"><title>Node18&#45;&gt;Node2</title>
<path fill="none" stroke="#404040" d="M1083.79,-182.224C1067.27,-171.224 1047.79,-160.015 1028.5,-153 828.103,-80.1318 570.913,-69.2285 459.306,-68.1827"/>
<polygon fill="none" stroke="#404040" points="459.063,-68.1812 453.037,-72.1418 447.063,-68.1027 453.089,-64.142 459.063,-68.1812"/>
<text text-anchor="middle" x="1086" y="-156" font-family="Helvetica,sans-Serif" font-size="10.00"> +objectsActive</text>
</g>
</g>
</svg>
        <g id="navigator" transform="translate(0 0)" fill="#404254">
                <rect fill="#f2f5e9" fill-opacity="0.5" stroke="#606060" stroke-width=".5" x="0" y="0" width="60" height="60"/>
                <use id="zoomplus" xlink:href="#zoomPlus" x="17" y="9" onmousedown="handleZoom(evt,'in')"/>
                <use id="zoomminus" xlink:href="#zoomMin" x="42" y="9" onmousedown="handleZoom(evt,'out')"/>
                <use id="reset" xlink:href="#resetDef" x="30" y="36" onmousedown="handleReset()"/>
                <g id="arrowUp" xlink:href="#dirArrow" transform="translate(30 24)" onmousedown="handlePan(0,-1)">
                  <use xlink:href="#rim" fill="#404040">
                        <set attributeName="fill" to="#808080" begin="arrowUp.mouseover" end="arrowUp.mouseout"/>
                  </use>
                  <path fill="none" stroke="white" stroke-width="1.5" d="M0,-3.0v7 M-2.5,-0.5L0,-3.0L2.5,-0.5"/>
                </g>
                <g id="arrowRight" xlink:href="#dirArrow" transform="rotate(90) translate(36 -43)" onmousedown="handlePan(1,0)">
                  <use xlink:href="#rim" fill="#404040">
                        <set attributeName="fill" to="#808080" begin="arrowRight.mouseover" end="arrowRight.mouseout"/>
                  </use>
                  <path fill="none" stroke="white" stroke-width="1.5" d="M0,-3.0v7 M-2.5,-0.5L0,-3.0L2.5,-0.5"/>
                </g>
                <g id="arrowDown" xlink:href="#dirArrow" transform="rotate(180) translate(-30 -48)" onmousedown="handlePan(0,1)">
                  <use xlink:href="#rim" fill="#404040">
                        <set attributeName="fill" to="#808080" begin="arrowDown.mouseover" end="arrowDown.mouseout"/>
                  </use>
                  <path fill="none" stroke="white" stroke-width="1.5" d="M0,-3.0v7 M-2.5,-0.5L0,-3.0L2.5,-0.5"/>
                </g>
                <g id="arrowLeft" xlink:href="#dirArrow" transform="rotate(270) translate(-36 17)" onmousedown="handlePan(-1,0)">
                  <use xlink:href="#rim" fill="#404040">
                        <set attributeName="fill" to="#808080" begin="arrowLeft.mouseover" end="arrowLeft.mouseout"/>
                  </use>
                  <path fill="none" stroke="white" stroke-width="1.5" d="M0,-3.0v7 M-2.5,-0.5L0,-3.0L2.5,-0.5"/>
                </g>
        </g>
        <svg viewBox="0 0 15 15" width="100%" height="30px" preserveAspectRatio="xMaxYMin meet">
         <g id="arrow_out" transform="scale(0.3 0.3)">
          <a xlink:href="class_global_functions__coll__graph_org.svg" target="_base">
           <rect id="button" ry="5" rx="5" y="6" x="6" height="38" width="38"
                fill="#f2f5e9" fill-opacity="0.5" stroke="#606060" stroke-width="1.0"/>
           <path id="arrow"
             d="M 11.500037,31.436501 C 11.940474,20.09759 22.043105,11.32322 32.158766,21.979434 L 37.068811,17.246167 C 37.068811,17.246167 37.088388,32 37.088388,32 L 22.160133,31.978069 C 22.160133,31.978069 26.997745,27.140456 26.997745,27.140456 C 18.528582,18.264221 13.291696,25.230495 11.500037,31.436501 z"
             style="fill:#404040;"/>
          </a>
         </g>
        </svg>
</svg>
