<?xml version="1.0" encoding="UTF-8" standalone="no"?>
<!DOCTYPE svg PUBLIC "-//W3C//DTD SVG 1.1//EN"
 "http://www.w3.org/Graphics/SVG/1.1/DTD/svg11.dtd">
<!-- Generated by graphviz version 2.38.0 (20140413.2041)
 -->
<!-- Title: MenuScript Pages: 1 -->
<svg width="473pt" height="259pt"
 viewBox="0.00 0.00 472.50 259.00" xmlns="http://www.w3.org/2000/svg" xmlns:xlink="http://www.w3.org/1999/xlink">
<g id="graph0" class="graph" transform="scale(1 1) rotate(0) translate(4 255)">
<title>MenuScript</title>
<!-- Node2 -->
<g id="node1" class="node"><title>Node2</title>
<polygon fill="#bfbfbf" stroke="black" points="205.5,-0.5 205.5,-134.5 283.5,-134.5 283.5,-0.5 205.5,-0.5"/>
<text text-anchor="middle" x="244.5" y="-122.5" font-family="Helvetica,sans-Serif" font-size="10.00">MenuScript</text>
<polyline fill="none" stroke="black" points="205.5,-115.5 283.5,-115.5 "/>
<text text-anchor="middle" x="244.5" y="-103.5" font-family="Helvetica,sans-Serif" font-size="10.00"> </text>
<polyline fill="none" stroke="black" points="205.5,-96.5 283.5,-96.5 "/>
<text text-anchor="start" x="213.5" y="-84.5" font-family="Helvetica,sans-Serif" font-size="10.00">+ ExitPress()</text>
<text text-anchor="start" x="213.5" y="-73.5" font-family="Helvetica,sans-Serif" font-size="10.00">+ NoPress()</text>
<text text-anchor="start" x="213.5" y="-62.5" font-family="Helvetica,sans-Serif" font-size="10.00">+ StartLevel()</text>
<text text-anchor="start" x="213.5" y="-51.5" font-family="Helvetica,sans-Serif" font-size="10.00">+ LoadPress()</text>
<text text-anchor="start" x="213.5" y="-40.5" font-family="Helvetica,sans-Serif" font-size="10.00">+ ExitGame()</text>
<text text-anchor="start" x="213.5" y="-29.5" font-family="Helvetica,sans-Serif" font-size="10.00">+ sound()</text>
<text text-anchor="start" x="213.5" y="-18.5" font-family="Helvetica,sans-Serif" font-size="10.00">+ autosave()</text>
<text text-anchor="start" x="213.5" y="-7.5" font-family="Helvetica,sans-Serif" font-size="10.00">&#45; Start()</text>
</g>
<!-- Node3 -->
<g id="node2" class="node"><title>Node3</title>
<g id="a_node2"><a xlink:href="class_mono_behaviour.html" target="_top" xlink:title="{MonoBehaviour\n||}">
<polygon fill="none" stroke="black" points="0,-193.5 0,-250.5 83,-250.5 83,-193.5 0,-193.5"/>
<text text-anchor="middle" x="41.5" y="-238.5" font-family="Helvetica,sans-Serif" font-size="10.00">MonoBehaviour</text>
<polyline fill="none" stroke="black" points="0,-231.5 83,-231.5 "/>
<text text-anchor="middle" x="41.5" y="-219.5" font-family="Helvetica,sans-Serif" font-size="10.00"> </text>
<polyline fill="none" stroke="black" points="0,-212.5 83,-212.5 "/>
<text text-anchor="middle" x="41.5" y="-200.5" font-family="Helvetica,sans-Serif" font-size="10.00"> </text>
</a>
</g>
</g>
<!-- Node3&#45;&gt;Node2 -->
<g id="edge1" class="edge"><title>Node3&#45;&gt;Node2</title>
<path fill="none" stroke="midnightblue" d="M86.5411,-187.164C122.115,-160.439 171.259,-123.521 205.241,-97.9925"/>
<polygon fill="none" stroke="midnightblue" points="84.1548,-184.579 78.2618,-193.383 88.3593,-190.175 84.1548,-184.579"/>
</g>
<!-- Node4 -->
<g id="node3" class="node"><title>Node4</title>
<polygon fill="none" stroke="#bfbfbf" points="101,-193.5 101,-250.5 172,-250.5 172,-193.5 101,-193.5"/>
<text text-anchor="middle" x="136.5" y="-238.5" font-family="Helvetica,sans-Serif" font-size="10.00">GameObject</text>
<polyline fill="none" stroke="#bfbfbf" points="101,-231.5 172,-231.5 "/>
<text text-anchor="middle" x="136.5" y="-219.5" font-family="Helvetica,sans-Serif" font-size="10.00"> </text>
<polyline fill="none" stroke="#bfbfbf" points="101,-212.5 172,-212.5 "/>
<text text-anchor="middle" x="136.5" y="-200.5" font-family="Helvetica,sans-Serif" font-size="10.00"> </text>
</g>
<!-- Node4&#45;&gt;Node2 -->
<g id="edge2" class="edge"><title>Node4&#45;&gt;Node2</title>
<path fill="none" stroke="#404040" d="M149.382,-193.406C155.732,-180.724 163.873,-165.71 172.5,-153 179.958,-142.011 188.618,-130.816 197.292,-120.322"/>
<polygon fill="none" stroke="#404040" points="197.493,-120.083 198.302,-112.917 205.227,-110.907 204.419,-118.073 197.493,-120.083"/>
<text text-anchor="middle" x="189" y="-161.5" font-family="Helvetica,sans-Serif" font-size="10.00"> &#45;player</text>
</g>
<!-- Node5 -->
<g id="node4" class="node"><title>Node5</title>
<polygon fill="none" stroke="#bfbfbf" points="190.5,-193.5 190.5,-250.5 238.5,-250.5 238.5,-193.5 190.5,-193.5"/>
<text text-anchor="middle" x="214.5" y="-238.5" font-family="Helvetica,sans-Serif" font-size="10.00">Canvas</text>
<polyline fill="none" stroke="#bfbfbf" points="190.5,-231.5 238.5,-231.5 "/>
<text text-anchor="middle" x="214.5" y="-219.5" font-family="Helvetica,sans-Serif" font-size="10.00"> </text>
<polyline fill="none" stroke="#bfbfbf" points="190.5,-212.5 238.5,-212.5 "/>
<text text-anchor="middle" x="214.5" y="-200.5" font-family="Helvetica,sans-Serif" font-size="10.00"> </text>
</g>
<!-- Node5&#45;&gt;Node2 -->
<g id="edge3" class="edge"><title>Node5&#45;&gt;Node2</title>
<path fill="none" stroke="#404040" d="M211,-193.309C210.375,-187.284 209.822,-180.936 209.5,-175 208.971,-165.237 207.593,-162.59 209.5,-153 209.934,-150.817 210.426,-148.62 210.967,-146.417"/>
<polygon fill="none" stroke="#404040" points="211.036,-146.171 208.815,-139.311 214.294,-134.622 216.515,-141.482 211.036,-146.171"/>
<text text-anchor="middle" x="234" y="-161.5" font-family="Helvetica,sans-Serif" font-size="10.00"> +quitMenu</text>
</g>
<!-- Node6 -->
<g id="node5" class="node"><title>Node6</title>
<polygon fill="none" stroke="#bfbfbf" points="263,-193.5 263,-250.5 298,-250.5 298,-193.5 263,-193.5"/>
<text text-anchor="middle" x="280.5" y="-238.5" font-family="Helvetica,sans-Serif" font-size="10.00">bool</text>
<polyline fill="none" stroke="#bfbfbf" points="263,-231.5 298,-231.5 "/>
<text text-anchor="middle" x="280.5" y="-219.5" font-family="Helvetica,sans-Serif" font-size="10.00"> </text>
<polyline fill="none" stroke="#bfbfbf" points="263,-212.5 298,-212.5 "/>
<text text-anchor="middle" x="280.5" y="-200.5" font-family="Helvetica,sans-Serif" font-size="10.00"> </text>
</g>
<!-- Node6&#45;&gt;Node2 -->
<g id="edge4" class="edge"><title>Node6&#45;&gt;Node2</title>
<path fill="none" stroke="#404040" d="M273.981,-193.383C270.82,-179.994 266.848,-163.17 262.853,-146.247"/>
<polygon fill="none" stroke="#404040" points="262.851,-146.236 257.579,-141.316 260.094,-134.557 265.365,-139.478 262.851,-146.236"/>
<text text-anchor="middle" x="292.5" y="-161.5" font-family="Helvetica,sans-Serif" font-size="10.00"> &#45;soundOn</text>
</g>
<!-- Node7 -->
<g id="node6" class="node"><title>Node7</title>
<polygon fill="none" stroke="#bfbfbf" points="332,-193.5 332,-250.5 367,-250.5 367,-193.5 332,-193.5"/>
<text text-anchor="middle" x="349.5" y="-238.5" font-family="Helvetica,sans-Serif" font-size="10.00">Text</text>
<polyline fill="none" stroke="#bfbfbf" points="332,-231.5 367,-231.5 "/>
<text text-anchor="middle" x="349.5" y="-219.5" font-family="Helvetica,sans-Serif" font-size="10.00"> </text>
<polyline fill="none" stroke="#bfbfbf" points="332,-212.5 367,-212.5 "/>
<text text-anchor="middle" x="349.5" y="-200.5" font-family="Helvetica,sans-Serif" font-size="10.00"> </text>
</g>
<!-- Node7&#45;&gt;Node2 -->
<g id="edge5" class="edge"><title>Node7&#45;&gt;Node2</title>
<path fill="none" stroke="#404040" d="M339.518,-193.203C334.384,-180.478 327.516,-165.487 319.5,-153 311.553,-140.62 301.825,-128.241 292.041,-116.926"/>
<polygon fill="none" stroke="#404040" points="291.814,-116.669 284.839,-114.836 283.848,-107.694 290.823,-109.526 291.814,-116.669"/>
<text text-anchor="middle" x="363.5" y="-167" font-family="Helvetica,sans-Serif" font-size="10.00"> &#45;autosaveText</text>
<text text-anchor="middle" x="363.5" y="-156" font-family="Helvetica,sans-Serif" font-size="10.00">&#45;audioText</text>
</g>
<!-- Node8 -->
<g id="node7" class="node"><title>Node8</title>
<polygon fill="none" stroke="#bfbfbf" points="414,-193.5 414,-250.5 459,-250.5 459,-193.5 414,-193.5"/>
<text text-anchor="middle" x="436.5" y="-238.5" font-family="Helvetica,sans-Serif" font-size="10.00">Button</text>
<polyline fill="none" stroke="#bfbfbf" points="414,-231.5 459,-231.5 "/>
<text text-anchor="middle" x="436.5" y="-219.5" font-family="Helvetica,sans-Serif" font-size="10.00"> </text>
<polyline fill="none" stroke="#bfbfbf" points="414,-212.5 459,-212.5 "/>
<text text-anchor="middle" x="436.5" y="-200.5" font-family="Helvetica,sans-Serif" font-size="10.00"> </text>
</g>
<!-- Node8&#45;&gt;Node2 -->
<g id="edge6" class="edge"><title>Node8&#45;&gt;Node2</title>
<path fill="none" stroke="#404040" d="M425.92,-193.476C419.742,-180.063 410.9,-164.409 399.5,-153 369.948,-123.424 327.878,-101.374 295.022,-87.2282"/>
<polygon fill="none" stroke="#404040" points="294.896,-87.1754 287.818,-88.5566 283.821,-82.5547 290.898,-81.1735 294.896,-87.1754"/>
<text text-anchor="middle" x="440.5" y="-167" font-family="Helvetica,sans-Serif" font-size="10.00"> +startText</text>
<text text-anchor="middle" x="440.5" y="-156" font-family="Helvetica,sans-Serif" font-size="10.00">+exitText</text>
</g>
</g>
</svg>
