<?xml version="1.0" encoding="UTF-8" standalone="no"?>
<!DOCTYPE svg PUBLIC "-//W3C//DTD SVG 1.1//EN"
 "http://www.w3.org/Graphics/SVG/1.1/DTD/svg11.dtd">
<!-- Generated by graphviz version 2.38.0 (20140413.2041)
 -->
<!-- Title: BiologyScript Pages: 1 -->
<svg width="781pt" height="1451pt"
 viewBox="0.00 0.00 780.63 1451.00" xmlns="http://www.w3.org/2000/svg" xmlns:xlink="http://www.w3.org/1999/xlink">
<g id="graph0" class="graph" transform="scale(1 1) rotate(0) translate(4 1447)">
<title>BiologyScript</title>
<!-- Node2 -->
<g id="node1" class="node"><title>Node2</title>
<polygon fill="#bfbfbf" stroke="black" points="118.135,-487 118.135,-555 207.135,-555 207.135,-487 118.135,-487"/>
<text text-anchor="middle" x="162.635" y="-543" font-family="Helvetica,sans-Serif" font-size="10.00">BiologyScript</text>
<polyline fill="none" stroke="black" points="118.135,-536 207.135,-536 "/>
<text text-anchor="middle" x="162.635" y="-524" font-family="Helvetica,sans-Serif" font-size="10.00"> </text>
<polyline fill="none" stroke="black" points="118.135,-517 207.135,-517 "/>
<text text-anchor="start" x="126.135" y="-505" font-family="Helvetica,sans-Serif" font-size="10.00">+ restorePlayer()</text>
<text text-anchor="start" x="126.135" y="-494" font-family="Helvetica,sans-Serif" font-size="10.00">&#45; Start()</text>
</g>
<!-- Node2&#45;&gt;Node2 -->
<g id="edge2" class="edge"><title>Node2&#45;&gt;Node2</title>
<path fill="none" stroke="#404040" d="M207.298,-532.369C217.581,-531.389 225.135,-527.6 225.135,-521 225.135,-517.391 222.875,-514.622 219.146,-512.694"/>
<polygon fill="none" stroke="#404040" points="218.916,-512.634 212.106,-515.005 207.298,-509.631 214.108,-507.26 218.916,-512.634"/>
<text text-anchor="middle" x="248.135" y="-518.5" font-family="Helvetica,sans-Serif" font-size="10.00"> +instance</text>
</g>
<!-- Node3 -->
<g id="node2" class="node"><title>Node3</title>
<g id="a_node2"><a xlink:href="class_mono_behaviour.html" target="_top" xlink:title="{MonoBehaviour\n||}">
<polygon fill="none" stroke="black" points="50.1346,-828.5 50.1346,-885.5 133.135,-885.5 133.135,-828.5 50.1346,-828.5"/>
<text text-anchor="middle" x="91.6346" y="-873.5" font-family="Helvetica,sans-Serif" font-size="10.00">MonoBehaviour</text>
<polyline fill="none" stroke="black" points="50.1346,-866.5 133.135,-866.5 "/>
<text text-anchor="middle" x="91.6346" y="-854.5" font-family="Helvetica,sans-Serif" font-size="10.00"> </text>
<polyline fill="none" stroke="black" points="50.1346,-847.5 133.135,-847.5 "/>
<text text-anchor="middle" x="91.6346" y="-835.5" font-family="Helvetica,sans-Serif" font-size="10.00"> </text>
</a>
</g>
</g>
<!-- Node3&#45;&gt;Node2 -->
<g id="edge1" class="edge"><title>Node3&#45;&gt;Node2</title>
<path fill="none" stroke="midnightblue" d="M99.62,-818.435C113.614,-752.606 142.339,-617.476 155.618,-555.008"/>
<polygon fill="none" stroke="midnightblue" points="96.1611,-817.874 97.5052,-828.383 103.008,-819.33 96.1611,-817.874"/>
</g>
<!-- Node4 -->
<g id="node3" class="node"><title>Node4</title>
<g id="a_node3"><a xlink:href="class_data_manager.html" target="_top" xlink:title="An object to store all player data including players, items and money and provide useful functions ...">
<polygon fill="none" stroke="black" points="151.635,-685.5 151.635,-1028.5 303.635,-1028.5 303.635,-685.5 151.635,-685.5"/>
<text text-anchor="middle" x="227.635" y="-1016.5" font-family="Helvetica,sans-Serif" font-size="10.00">DataManager</text>
<polyline fill="none" stroke="black" points="151.635,-1009.5 303.635,-1009.5 "/>
<text text-anchor="start" x="159.635" y="-997.5" font-family="Helvetica,sans-Serif" font-size="10.00">+ Players</text>
<text text-anchor="start" x="159.635" y="-986.5" font-family="Helvetica,sans-Serif" font-size="10.00">+ Items</text>
<text text-anchor="start" x="159.635" y="-975.5" font-family="Helvetica,sans-Serif" font-size="10.00">+ Money</text>
<polyline fill="none" stroke="black" points="151.635,-968.5 303.635,-968.5 "/>
<text text-anchor="start" x="159.635" y="-956.5" font-family="Helvetica,sans-Serif" font-size="10.00">+ DataManager()</text>
<text text-anchor="start" x="159.635" y="-945.5" font-family="Helvetica,sans-Serif" font-size="10.00">+ DataManager()</text>
<text text-anchor="start" x="159.635" y="-934.5" font-family="Helvetica,sans-Serif" font-size="10.00">+ getFirstPlayer()</text>
<text text-anchor="start" x="159.635" y="-923.5" font-family="Helvetica,sans-Serif" font-size="10.00">+ getPlayerIndex()</text>
<text text-anchor="start" x="159.635" y="-912.5" font-family="Helvetica,sans-Serif" font-size="10.00">+ getAlivePlayer()</text>
<text text-anchor="start" x="159.635" y="-901.5" font-family="Helvetica,sans-Serif" font-size="10.00">+ playersAlive()</text>
<text text-anchor="start" x="159.635" y="-890.5" font-family="Helvetica,sans-Serif" font-size="10.00">+ addPlayer()</text>
<text text-anchor="start" x="159.635" y="-879.5" font-family="Helvetica,sans-Serif" font-size="10.00">+ swapPlayers()</text>
<text text-anchor="start" x="159.635" y="-868.5" font-family="Helvetica,sans-Serif" font-size="10.00">+ addItem()</text>
<text text-anchor="start" x="159.635" y="-857.5" font-family="Helvetica,sans-Serif" font-size="10.00">+ countItems()</text>
<text text-anchor="start" x="159.635" y="-846.5" font-family="Helvetica,sans-Serif" font-size="10.00">+ expShare()</text>
<text text-anchor="start" x="159.635" y="-835.5" font-family="Helvetica,sans-Serif" font-size="10.00">+ Save()</text>
<text text-anchor="start" x="159.635" y="-824.5" font-family="Helvetica,sans-Serif" font-size="10.00">+ Load()</text>
<text text-anchor="start" x="159.635" y="-813.5" font-family="Helvetica,sans-Serif" font-size="10.00">+ PlayerToSerializable()</text>
<text text-anchor="start" x="159.635" y="-802.5" font-family="Helvetica,sans-Serif" font-size="10.00">+ SerializableToPLayer()</text>
<text text-anchor="start" x="159.635" y="-791.5" font-family="Helvetica,sans-Serif" font-size="10.00">+ ItemToSerializable()</text>
<text text-anchor="start" x="159.635" y="-780.5" font-family="Helvetica,sans-Serif" font-size="10.00">+ SerializableToItem()</text>
<text text-anchor="start" x="159.635" y="-769.5" font-family="Helvetica,sans-Serif" font-size="10.00">+ SpecialMoveToSerializable()</text>
<text text-anchor="start" x="159.635" y="-758.5" font-family="Helvetica,sans-Serif" font-size="10.00">+ SerializableToSpecialMove()</text>
<text text-anchor="start" x="159.635" y="-747.5" font-family="Helvetica,sans-Serif" font-size="10.00">+ ObjectsActiveToSerializable()</text>
<text text-anchor="start" x="159.635" y="-736.5" font-family="Helvetica,sans-Serif" font-size="10.00">+ SerializableToObjectsActive()</text>
<text text-anchor="start" x="159.635" y="-725.5" font-family="Helvetica,sans-Serif" font-size="10.00">+ Texture2DToSerializable()</text>
<text text-anchor="start" x="159.635" y="-714.5" font-family="Helvetica,sans-Serif" font-size="10.00">+ SerializableToTexture2D()</text>
<text text-anchor="start" x="159.635" y="-703.5" font-family="Helvetica,sans-Serif" font-size="10.00">+ VectorToSerializable()</text>
<text text-anchor="start" x="159.635" y="-692.5" font-family="Helvetica,sans-Serif" font-size="10.00">+ SerializableToVector()</text>
</a>
</g>
</g>
<!-- Node4&#45;&gt;Node2 -->
<g id="edge3" class="edge"><title>Node4&#45;&gt;Node2</title>
<path fill="none" stroke="#404040" d="M194.373,-685.086C185.89,-641.498 177.477,-598.265 171.445,-567.275"/>
<polygon fill="none" stroke="#404040" points="171.387,-566.972 166.314,-561.847 169.094,-555.193 174.167,-560.319 171.387,-566.972"/>
<text text-anchor="middle" x="202.135" y="-620.5" font-family="Helvetica,sans-Serif" font-size="10.00"> &#45;data</text>
</g>
<!-- Node5 -->
<g id="node4" class="node"><title>Node5</title>
<g id="a_node4"><a xlink:href="class_item.html" target="_top" xlink:title="Abstract class for items that can be equipped to a player, increasing some of their stats ...">
<polygon fill="none" stroke="black" points="77.1346,-1247.5 77.1346,-1326.5 154.135,-1326.5 154.135,-1247.5 77.1346,-1247.5"/>
<text text-anchor="middle" x="115.635" y="-1314.5" font-family="Helvetica,sans-Serif" font-size="10.00">Item</text>
<polyline fill="none" stroke="black" points="77.1346,-1307.5 154.135,-1307.5 "/>
<text text-anchor="start" x="85.1346" y="-1295.5" font-family="Helvetica,sans-Serif" font-size="10.00">+ Name</text>
<text text-anchor="start" x="85.1346" y="-1284.5" font-family="Helvetica,sans-Serif" font-size="10.00">+ Desc</text>
<polyline fill="none" stroke="black" points="77.1346,-1277.5 154.135,-1277.5 "/>
<text text-anchor="start" x="85.1346" y="-1265.5" font-family="Helvetica,sans-Serif" font-size="10.00">+ applyBuffs()</text>
<text text-anchor="start" x="85.1346" y="-1254.5" font-family="Helvetica,sans-Serif" font-size="10.00">+ revertBuffs()</text>
</a>
</g>
</g>
<!-- Node5&#45;&gt;Node4 -->
<g id="edge4" class="edge"><title>Node5&#45;&gt;Node4</title>
<path fill="none" stroke="#404040" d="M115.261,-1247.46C115.691,-1204.87 118.913,-1134.55 133.635,-1076 137.418,-1060.95 142.123,-1045.61 147.395,-1030.39"/>
<polygon fill="none" stroke="#404040" points="147.502,-1030.09 145.749,-1023.1 151.531,-1018.79 153.285,-1025.78 147.502,-1030.09"/>
<text text-anchor="middle" x="149.135" y="-1130" font-family="Helvetica,sans-Serif" font-size="10.00"> &#45;items</text>
</g>
<!-- Node8 -->
<g id="node7" class="node"><title>Node8</title>
<g id="a_node7"><a xlink:href="class_player.html" target="_top" xlink:title="Defines a playable character for use in battle scenes">
<polygon fill="none" stroke="black" points="236.635,-1076.5 236.635,-1188.5 348.635,-1188.5 348.635,-1076.5 236.635,-1076.5"/>
<text text-anchor="middle" x="292.635" y="-1176.5" font-family="Helvetica,sans-Serif" font-size="10.00">Player</text>
<polyline fill="none" stroke="black" points="236.635,-1169.5 348.635,-1169.5 "/>
<text text-anchor="start" x="244.635" y="-1157.5" font-family="Helvetica,sans-Serif" font-size="10.00">+ Exp</text>
<text text-anchor="start" x="244.635" y="-1146.5" font-family="Helvetica,sans-Serif" font-size="10.00">+ Item</text>
<text text-anchor="start" x="244.635" y="-1135.5" font-family="Helvetica,sans-Serif" font-size="10.00">+ ExpToNextLevel</text>
<polyline fill="none" stroke="black" points="236.635,-1128.5 348.635,-1128.5 "/>
<text text-anchor="start" x="244.635" y="-1116.5" font-family="Helvetica,sans-Serif" font-size="10.00">+ Player()</text>
<text text-anchor="start" x="244.635" y="-1105.5" font-family="Helvetica,sans-Serif" font-size="10.00">+ gainExp()</text>
<text text-anchor="start" x="244.635" y="-1094.5" font-family="Helvetica,sans-Serif" font-size="10.00">+ levelUp()</text>
<text text-anchor="start" x="244.635" y="-1083.5" font-family="Helvetica,sans-Serif" font-size="10.00">&#45; setExpToNextLevel()</text>
</a>
</g>
</g>
<!-- Node5&#45;&gt;Node8 -->
<g id="edge27" class="edge"><title>Node5&#45;&gt;Node8</title>
<path fill="none" stroke="#404040" d="M154.478,-1252.53C175.774,-1234.19 202.741,-1210.95 227.186,-1189.89"/>
<polygon fill="none" stroke="#404040" points="227.323,-1189.77 229.258,-1182.82 236.414,-1181.94 234.479,-1188.89 227.323,-1189.77"/>
<text text-anchor="middle" x="217.135" y="-1215.5" font-family="Helvetica,sans-Serif" font-size="10.00"> &#45;item</text>
</g>
<!-- Node6 -->
<g id="node5" class="node"><title>Node6</title>
<polygon fill="none" stroke="#bfbfbf" points="622.135,-1385.5 622.135,-1442.5 663.135,-1442.5 663.135,-1385.5 622.135,-1385.5"/>
<text text-anchor="middle" x="642.635" y="-1430.5" font-family="Helvetica,sans-Serif" font-size="10.00">string</text>
<polyline fill="none" stroke="#bfbfbf" points="622.135,-1423.5 663.135,-1423.5 "/>
<text text-anchor="middle" x="642.635" y="-1411.5" font-family="Helvetica,sans-Serif" font-size="10.00"> </text>
<polyline fill="none" stroke="#bfbfbf" points="622.135,-1404.5 663.135,-1404.5 "/>
<text text-anchor="middle" x="642.635" y="-1392.5" font-family="Helvetica,sans-Serif" font-size="10.00"> </text>
</g>
<!-- Node6&#45;&gt;Node5 -->
<g id="edge5" class="edge"><title>Node6&#45;&gt;Node5</title>
<path fill="none" stroke="#404040" d="M621.976,-1408.1C545.762,-1390.02 278.978,-1326.74 166.383,-1300.04"/>
<polygon fill="none" stroke="#404040" points="166.065,-1299.96 159.304,-1302.47 154.389,-1297.19 161.15,-1294.68 166.065,-1299.96"/>
<text text-anchor="middle" x="457.635" y="-1359" font-family="Helvetica,sans-Serif" font-size="10.00"> #desc</text>
<text text-anchor="middle" x="457.635" y="-1348" font-family="Helvetica,sans-Serif" font-size="10.00">#name</text>
</g>
<!-- Node9 -->
<g id="node8" class="node"><title>Node9</title>
<g id="a_node8"><a xlink:href="class_character.html" target="_top" xlink:title="Base abstract class for Enemy and Player to inherit from. Defines all shared variables, their constructor and their setters and getters ">
<polygon fill="none" stroke="black" points="409.135,-95.5 409.135,-273.5 504.135,-273.5 504.135,-95.5 409.135,-95.5"/>
<text text-anchor="middle" x="456.635" y="-261.5" font-family="Helvetica,sans-Serif" font-size="10.00">Character</text>
<polyline fill="none" stroke="black" points="409.135,-254.5 504.135,-254.5 "/>
<text text-anchor="start" x="417.135" y="-242.5" font-family="Helvetica,sans-Serif" font-size="10.00">+ Name</text>
<text text-anchor="start" x="417.135" y="-231.5" font-family="Helvetica,sans-Serif" font-size="10.00">+ Level</text>
<text text-anchor="start" x="417.135" y="-220.5" font-family="Helvetica,sans-Serif" font-size="10.00">+ Health</text>
<text text-anchor="start" x="417.135" y="-209.5" font-family="Helvetica,sans-Serif" font-size="10.00">+ Attack</text>
<text text-anchor="start" x="417.135" y="-198.5" font-family="Helvetica,sans-Serif" font-size="10.00">+ Defence</text>
<text text-anchor="start" x="417.135" y="-187.5" font-family="Helvetica,sans-Serif" font-size="10.00">+ MaximumMagic</text>
<text text-anchor="start" x="417.135" y="-176.5" font-family="Helvetica,sans-Serif" font-size="10.00">+ Magic</text>
<text text-anchor="start" x="417.135" y="-165.5" font-family="Helvetica,sans-Serif" font-size="10.00">+ Luck</text>
<text text-anchor="start" x="417.135" y="-154.5" font-family="Helvetica,sans-Serif" font-size="10.00">+ Speed</text>
<text text-anchor="start" x="417.135" y="-143.5" font-family="Helvetica,sans-Serif" font-size="10.00">+ Special1</text>
<text text-anchor="start" x="417.135" y="-132.5" font-family="Helvetica,sans-Serif" font-size="10.00">+ Special2</text>
<text text-anchor="start" x="417.135" y="-121.5" font-family="Helvetica,sans-Serif" font-size="10.00">+ Image</text>
<polyline fill="none" stroke="black" points="409.135,-114.5 504.135,-114.5 "/>
<text text-anchor="start" x="417.135" y="-102.5" font-family="Helvetica,sans-Serif" font-size="10.00"># Character()</text>
</a>
</g>
</g>
<!-- Node6&#45;&gt;Node9 -->
<g id="edge9" class="edge"><title>Node6&#45;&gt;Node9</title>
<path fill="none" stroke="#404040" d="M663.206,-1399.56C691.679,-1379.16 739.635,-1337.44 739.635,-1288 739.635,-1288 739.635,-1288 739.635,-382 739.635,-274.108 599.134,-220.702 516.128,-198.565"/>
<polygon fill="none" stroke="#404040" points="515.942,-198.518 509.134,-200.894 504.322,-195.523 511.13,-193.147 515.942,-198.518"/>
<text text-anchor="middle" x="756.135" y="-854.5" font-family="Helvetica,sans-Serif" font-size="10.00"> #name</text>
</g>
<!-- Node10 -->
<g id="node9" class="node"><title>Node10</title>
<g id="a_node9"><a xlink:href="class_special_move.html" target="_top" xlink:title="Special move abstract base class that expands upon CharacterMove, adding magic properties ...">
<polygon fill="none" stroke="black" points="588.635,-332.5 588.635,-433.5 686.635,-433.5 686.635,-332.5 588.635,-332.5"/>
<text text-anchor="middle" x="637.635" y="-421.5" font-family="Helvetica,sans-Serif" font-size="10.00">SpecialMove</text>
<polyline fill="none" stroke="black" points="588.635,-414.5 686.635,-414.5 "/>
<text text-anchor="start" x="596.635" y="-402.5" font-family="Helvetica,sans-Serif" font-size="10.00">+ Magic</text>
<text text-anchor="start" x="596.635" y="-391.5" font-family="Helvetica,sans-Serif" font-size="10.00">+ Desc</text>
<text text-anchor="start" x="596.635" y="-380.5" font-family="Helvetica,sans-Serif" font-size="10.00">+ Special</text>
<polyline fill="none" stroke="black" points="588.635,-373.5 686.635,-373.5 "/>
<text text-anchor="start" x="596.635" y="-361.5" font-family="Helvetica,sans-Serif" font-size="10.00">+ setUp()</text>
<text text-anchor="start" x="596.635" y="-350.5" font-family="Helvetica,sans-Serif" font-size="10.00">+ decreaseMagic()</text>
<text text-anchor="start" x="596.635" y="-339.5" font-family="Helvetica,sans-Serif" font-size="10.00"># SpecialMove()</text>
</a>
</g>
</g>
<!-- Node6&#45;&gt;Node10 -->
<g id="edge23" class="edge"><title>Node6&#45;&gt;Node10</title>
<path fill="none" stroke="#404040" d="M661.336,-1385.03C675.891,-1360.52 693.635,-1323.39 693.635,-1288 693.635,-1288 693.635,-1288 693.635,-520 693.635,-489.144 691.027,-480.676 679.635,-452 678.656,-449.538 677.59,-447.065 676.455,-444.596"/>
<polygon fill="none" stroke="#404040" points="676.45,-444.584 670.192,-441.001 671.093,-433.846 677.35,-437.43 676.45,-444.584"/>
<text text-anchor="middle" x="708.635" y="-1050" font-family="Helvetica,sans-Serif" font-size="10.00"> #desc</text>
</g>
<!-- Node11 -->
<g id="node10" class="node"><title>Node11</title>
<g id="a_node10"><a xlink:href="class_character_move.html" target="_top" xlink:title="Astract base class for character moves ">
<polygon fill="none" stroke="black" points="475.635,-481.5 475.635,-560.5 561.635,-560.5 561.635,-481.5 475.635,-481.5"/>
<text text-anchor="middle" x="518.635" y="-548.5" font-family="Helvetica,sans-Serif" font-size="10.00">CharacterMove</text>
<polyline fill="none" stroke="black" points="475.635,-541.5 561.635,-541.5 "/>
<text text-anchor="start" x="483.635" y="-529.5" font-family="Helvetica,sans-Serif" font-size="10.00">+ User</text>
<text text-anchor="start" x="483.635" y="-518.5" font-family="Helvetica,sans-Serif" font-size="10.00">+ Target</text>
<text text-anchor="start" x="483.635" y="-507.5" font-family="Helvetica,sans-Serif" font-size="10.00">+ Text</text>
<polyline fill="none" stroke="black" points="475.635,-500.5 561.635,-500.5 "/>
<text text-anchor="start" x="483.635" y="-488.5" font-family="Helvetica,sans-Serif" font-size="10.00">+ performMove()</text>
</a>
</g>
</g>
<!-- Node6&#45;&gt;Node11 -->
<g id="edge13" class="edge"><title>Node6&#45;&gt;Node11</title>
<path fill="none" stroke="#404040" d="M642.048,-1385.21C640.915,-1345.51 637.676,-1270.34 628.635,-1207 617.191,-1126.82 601.381,-1109.13 589.635,-1029 560.544,-830.551 619.79,-769.033 555.635,-579 554.776,-576.457 553.778,-573.916 552.672,-571.396"/>
<polygon fill="none" stroke="#404040" points="552.611,-571.274 546.344,-567.706 547.228,-560.549 553.494,-564.117 552.611,-571.274"/>
<text text-anchor="middle" x="639.135" y="-1130" font-family="Helvetica,sans-Serif" font-size="10.00"> #text</text>
</g>
<!-- Node12 -->
<g id="node11" class="node"><title>Node12</title>
<g id="a_node11"><a xlink:href="class_battle_manager.html" target="_top" xlink:title="Holds current Player and Enemy objects in battle and provides functions for MainBattle and other obje...">
<polygon fill="none" stroke="black" points="359.635,-762.5 359.635,-951.5 475.635,-951.5 475.635,-762.5 359.635,-762.5"/>
<text text-anchor="middle" x="417.635" y="-939.5" font-family="Helvetica,sans-Serif" font-size="10.00">BattleManager</text>
<polyline fill="none" stroke="black" points="359.635,-932.5 475.635,-932.5 "/>
<text text-anchor="start" x="367.635" y="-920.5" font-family="Helvetica,sans-Serif" font-size="10.00">+ Player</text>
<text text-anchor="start" x="367.635" y="-909.5" font-family="Helvetica,sans-Serif" font-size="10.00">+ Enemy</text>
<text text-anchor="start" x="367.635" y="-898.5" font-family="Helvetica,sans-Serif" font-size="10.00">+ WasCriticalHit</text>
<polyline fill="none" stroke="black" points="359.635,-891.5 475.635,-891.5 "/>
<text text-anchor="start" x="367.635" y="-879.5" font-family="Helvetica,sans-Serif" font-size="10.00">+ BattleManager()</text>
<text text-anchor="start" x="367.635" y="-868.5" font-family="Helvetica,sans-Serif" font-size="10.00">+ playerFirst()</text>
<text text-anchor="start" x="367.635" y="-857.5" font-family="Helvetica,sans-Serif" font-size="10.00">+ switchPlayers()</text>
<text text-anchor="start" x="367.635" y="-846.5" font-family="Helvetica,sans-Serif" font-size="10.00">+ isCriticalHit()</text>
<text text-anchor="start" x="367.635" y="-835.5" font-family="Helvetica,sans-Serif" font-size="10.00">+ ranAway()</text>
<text text-anchor="start" x="367.635" y="-824.5" font-family="Helvetica,sans-Serif" font-size="10.00">+ damageCalculation()</text>
<text text-anchor="start" x="367.635" y="-813.5" font-family="Helvetica,sans-Serif" font-size="10.00">+ enemyMove()</text>
<text text-anchor="start" x="367.635" y="-802.5" font-family="Helvetica,sans-Serif" font-size="10.00">+ enemySpecialMove()</text>
<text text-anchor="start" x="367.635" y="-791.5" font-family="Helvetica,sans-Serif" font-size="10.00">+ battleWon()</text>
<text text-anchor="start" x="367.635" y="-780.5" font-family="Helvetica,sans-Serif" font-size="10.00">+ playerFainted()</text>
<text text-anchor="start" x="367.635" y="-769.5" font-family="Helvetica,sans-Serif" font-size="10.00">&#45; characterFainted()</text>
</a>
</g>
</g>
<!-- Node6&#45;&gt;Node12 -->
<g id="edge16" class="edge"><title>Node6&#45;&gt;Node12</title>
<path fill="none" stroke="#404040" d="M625.989,-1385.37C605.138,-1349.99 569.172,-1286.41 544.635,-1229 511.16,-1150.68 512.198,-1127.59 484.635,-1047 475.319,-1019.76 465.031,-990.403 455.371,-963.133"/>
<polygon fill="none" stroke="#404040" points="455.286,-962.895 449.51,-958.578 451.274,-951.586 457.05,-955.903 455.286,-962.895"/>
<text text-anchor="middle" x="586.635" y="-1221" font-family="Helvetica,sans-Serif" font-size="10.00"> +forceEnemyMove</text>
<text text-anchor="middle" x="586.635" y="-1210" font-family="Helvetica,sans-Serif" font-size="10.00">+forceCriticalHits</text>
</g>
<!-- Node7 -->
<g id="node6" class="node"><title>Node7</title>
<polygon fill="none" stroke="#bfbfbf" points="324.135,-1258.5 324.135,-1315.5 353.135,-1315.5 353.135,-1258.5 324.135,-1258.5"/>
<text text-anchor="middle" x="338.635" y="-1303.5" font-family="Helvetica,sans-Serif" font-size="10.00">int</text>
<polyline fill="none" stroke="#bfbfbf" points="324.135,-1296.5 353.135,-1296.5 "/>
<text text-anchor="middle" x="338.635" y="-1284.5" font-family="Helvetica,sans-Serif" font-size="10.00"> </text>
<polyline fill="none" stroke="#bfbfbf" points="324.135,-1277.5 353.135,-1277.5 "/>
<text text-anchor="middle" x="338.635" y="-1265.5" font-family="Helvetica,sans-Serif" font-size="10.00"> </text>
</g>
<!-- Node7&#45;&gt;Node4 -->
<g id="edge6" class="edge"><title>Node7&#45;&gt;Node4</title>
<path fill="none" stroke="#404040" d="M323.835,-1281.53C292.572,-1271.18 220.327,-1242.31 191.635,-1189 167.54,-1144.23 164.25,-1091.16 170.314,-1040.77"/>
<polygon fill="none" stroke="#404040" points="170.337,-1040.6 167.178,-1034.12 171.946,-1028.71 175.105,-1035.19 170.337,-1040.6"/>
<text text-anchor="middle" x="209.635" y="-1130" font-family="Helvetica,sans-Serif" font-size="10.00"> &#45;money</text>
</g>
<!-- Node7&#45;&gt;Node8 -->
<g id="edge28" class="edge"><title>Node7&#45;&gt;Node8</title>
<path fill="none" stroke="#404040" d="M324.129,-1272.03C314.076,-1261.32 301.486,-1245.6 295.635,-1229 292.494,-1220.09 290.603,-1210.42 289.56,-1200.76"/>
<polygon fill="none" stroke="#404040" points="289.546,-1200.57 285.115,-1194.88 288.662,-1188.6 293.093,-1194.29 289.546,-1200.57"/>
<text text-anchor="middle" x="333.135" y="-1221" font-family="Helvetica,sans-Serif" font-size="10.00"> &#45;expToNextLevel</text>
<text text-anchor="middle" x="333.135" y="-1210" font-family="Helvetica,sans-Serif" font-size="10.00">&#45;exp</text>
</g>
<!-- Node7&#45;&gt;Node9 -->
<g id="edge10" class="edge"><title>Node7&#45;&gt;Node9</title>
<path fill="none" stroke="#404040" d="M353.34,-1281.48C384.421,-1271.03 456.333,-1241.98 485.635,-1189 510.69,-1143.7 538.252,-751.835 484.635,-685 462.642,-657.586 429.475,-694.535 407.635,-667 383.329,-636.358 405.213,-618.036 407.635,-579 413.857,-478.678 428.92,-364.792 440.716,-285.448"/>
<polygon fill="none" stroke="#404040" points="440.727,-285.375 437.66,-278.849 442.505,-273.508 445.572,-280.034 440.727,-285.375"/>
<text text-anchor="middle" x="445.135" y="-659" font-family="Helvetica,sans-Serif" font-size="10.00"> #speed</text>
<text text-anchor="middle" x="445.135" y="-648" font-family="Helvetica,sans-Serif" font-size="10.00">#luck</text>
<text text-anchor="middle" x="445.135" y="-637" font-family="Helvetica,sans-Serif" font-size="10.00">#health</text>
<text text-anchor="middle" x="445.135" y="-626" font-family="Helvetica,sans-Serif" font-size="10.00">#magic</text>
<text text-anchor="middle" x="445.135" y="-615" font-family="Helvetica,sans-Serif" font-size="10.00">#maximumMagic</text>
<text text-anchor="middle" x="445.135" y="-604" font-family="Helvetica,sans-Serif" font-size="10.00">#attack</text>
<text text-anchor="middle" x="445.135" y="-593" font-family="Helvetica,sans-Serif" font-size="10.00">#defence</text>
<text text-anchor="middle" x="445.135" y="-582" font-family="Helvetica,sans-Serif" font-size="10.00">#level</text>
</g>
<!-- Node7&#45;&gt;Node10 -->
<g id="edge25" class="edge"><title>Node7&#45;&gt;Node10</title>
<path fill="none" stroke="#404040" d="M353.385,-1284.12C383.485,-1279.62 452.831,-1265.72 496.635,-1229 512.351,-1215.83 512.955,-1208.39 519.635,-1189 623.164,-888.481 570.749,-794.913 620.635,-481 622.447,-469.596 624.486,-457.458 626.507,-445.766"/>
<polygon fill="none" stroke="#404040" points="626.533,-445.616 623.623,-439.018 628.595,-433.794 631.504,-440.392 626.533,-445.616"/>
<text text-anchor="middle" x="616.135" y="-854.5" font-family="Helvetica,sans-Serif" font-size="10.00"> #magic</text>
</g>
<!-- Node7&#45;&gt;Node12 -->
<g id="edge20" class="edge"><title>Node7&#45;&gt;Node12</title>
<path fill="none" stroke="#404040" d="M353.176,-1264.72C359.552,-1254.38 366.509,-1241.5 370.635,-1229 378.81,-1204.23 395.245,-1064.34 406.346,-963.633"/>
<polygon fill="none" stroke="#404040" points="406.362,-963.485 403.041,-957.084 407.673,-951.557 410.993,-957.958 406.362,-963.485"/>
<text text-anchor="middle" x="413.135" y="-1130" font-family="Helvetica,sans-Serif" font-size="10.00"> +money</text>
</g>
<!-- Node13 -->
<g id="node12" class="node"><title>Node13</title>
<g id="a_node12"><a xlink:href="class_enemy.html" target="_top" xlink:title="Defines an AI controller enemy to fight in battle scenes">
<polygon fill="none" stroke="black" points="275.135,-0.5 275.135,-57.5 342.135,-57.5 342.135,-0.5 275.135,-0.5"/>
<text text-anchor="middle" x="308.635" y="-45.5" font-family="Helvetica,sans-Serif" font-size="10.00">Enemy</text>
<polyline fill="none" stroke="black" points="275.135,-38.5 342.135,-38.5 "/>
<text text-anchor="start" x="283.135" y="-26.5" font-family="Helvetica,sans-Serif" font-size="10.00">+ ExpGiven</text>
<polyline fill="none" stroke="black" points="275.135,-19.5 342.135,-19.5 "/>
<text text-anchor="start" x="283.135" y="-7.5" font-family="Helvetica,sans-Serif" font-size="10.00">+ Enemy()</text>
</a>
</g>
</g>
<!-- Node7&#45;&gt;Node13 -->
<g id="edge19" class="edge"><title>Node7&#45;&gt;Node13</title>
<path fill="none" stroke="#404040" d="M324.086,-1280.45C276.832,-1262.33 129.776,-1205.12 113.635,-1189 -66.3933,-1009.23 21.6346,-878.418 21.6346,-624 21.6346,-624 21.6346,-624 21.6346,-183.5 21.6346,-75.5577 181.445,-43.2373 262.562,-33.7846"/>
<polygon fill="none" stroke="#404040" points="262.937,-33.7442 268.473,-29.1231 274.868,-32.4558 269.332,-37.0769 262.937,-33.7442"/>
<text text-anchor="middle" x="44.6346" y="-518.5" font-family="Helvetica,sans-Serif" font-size="10.00"> &#45;expGiven</text>
</g>
<!-- Node8&#45;&gt;Node4 -->
<g id="edge7" class="edge"><title>Node8&#45;&gt;Node4</title>
<path fill="none" stroke="#404040" d="M258.939,-1076.35C256.136,-1070.3 253.621,-1064.11 251.635,-1058 249.758,-1052.22 248.025,-1046.31 246.426,-1040.31"/>
<polygon fill="none" stroke="#404040" points="246.424,-1040.3 241.088,-1035.45 243.512,-1028.66 248.849,-1033.51 246.424,-1040.3"/>
<text text-anchor="middle" x="270.635" y="-1050" font-family="Helvetica,sans-Serif" font-size="10.00"> &#45;players</text>
</g>
<!-- Node8&#45;&gt;Node12 -->
<g id="edge22" class="edge"><title>Node8&#45;&gt;Node12</title>
<path fill="none" stroke="#404040" d="M322.183,-1076.31C330.049,-1061.1 338.372,-1044.51 345.635,-1029 355.566,-1007.79 365.665,-984.829 375.034,-962.828"/>
<polygon fill="none" stroke="#404040" points="375.036,-962.821 373.693,-955.737 379.716,-951.771 381.06,-958.856 375.036,-962.821"/>
<text text-anchor="middle" x="353.135" y="-1050" font-family="Helvetica,sans-Serif" font-size="10.00"> &#45;player</text>
</g>
<!-- Node9&#45;&gt;Node8 -->
<g id="edge8" class="edge"><title>Node9&#45;&gt;Node8</title>
<path fill="none" stroke="midnightblue" d="M404.759,-270.951C401.682,-277.93 398.916,-284.994 396.635,-292 345.598,-448.738 337.489,-866.046 312.635,-1029 310.284,-1044.41 307.255,-1061.04 304.27,-1076.32"/>
<polygon fill="none" stroke="midnightblue" points="408.108,-272.048 409.132,-261.502 401.756,-269.108 408.108,-272.048"/>
</g>
<!-- Node9&#45;&gt;Node11 -->
<g id="edge14" class="edge"><title>Node9&#45;&gt;Node11</title>
<path fill="none" stroke="#404040" d="M448.998,-273.548C447.471,-321.899 449.984,-382.356 465.635,-434 469.49,-446.722 475.709,-459.45 482.553,-471.064"/>
<polygon fill="none" stroke="#404040" points="482.633,-471.193 489.196,-474.178 488.965,-481.386 482.401,-478.4 482.633,-471.193"/>
<text text-anchor="middle" x="482.635" y="-386" font-family="Helvetica,sans-Serif" font-size="10.00"> #target</text>
<text text-anchor="middle" x="482.635" y="-375" font-family="Helvetica,sans-Serif" font-size="10.00">#user</text>
</g>
<!-- Node9&#45;&gt;Node13 -->
<g id="edge18" class="edge"><title>Node9&#45;&gt;Node13</title>
<path fill="none" stroke="midnightblue" d="M402.042,-126.879C379.344,-103.337 354.025,-77.0773 335.479,-57.8422"/>
<polygon fill="none" stroke="midnightblue" points="399.531,-129.317 408.992,-134.087 404.57,-124.458 399.531,-129.317"/>
</g>
<!-- Node10&#45;&gt;Node9 -->
<g id="edge11" class="edge"><title>Node10&#45;&gt;Node9</title>
<path fill="none" stroke="#404040" d="M591.961,-332.415C567.874,-306.265 538.119,-273.962 512.649,-246.311"/>
<polygon fill="none" stroke="#404040" points="512.32,-245.954 505.313,-244.251 504.19,-237.128 511.197,-238.831 512.32,-245.954"/>
<text text-anchor="middle" x="597.135" y="-306" font-family="Helvetica,sans-Serif" font-size="10.00"> #special1</text>
<text text-anchor="middle" x="597.135" y="-295" font-family="Helvetica,sans-Serif" font-size="10.00">#special2</text>
</g>
<!-- Node11&#45;&gt;Node10 -->
<g id="edge12" class="edge"><title>Node11&#45;&gt;Node10</title>
<path fill="none" stroke="midnightblue" d="M559.239,-473.595C570.429,-460.807 582.613,-446.882 593.967,-433.905"/>
<polygon fill="none" stroke="midnightblue" points="556.368,-471.561 552.417,-481.392 561.636,-476.171 556.368,-471.561"/>
</g>
<!-- Node12&#45;&gt;Node11 -->
<g id="edge15" class="edge"><title>Node12&#45;&gt;Node11</title>
<path fill="none" stroke="#404040" d="M454.697,-762.121C465.827,-732.019 477.495,-698.355 486.635,-667 495.684,-635.955 503.548,-600.52 509.215,-572.451"/>
<polygon fill="none" stroke="#404040" points="509.249,-572.283 506.493,-565.619 511.584,-560.512 514.34,-567.176 509.249,-572.283"/>
<text text-anchor="middle" x="530.635" y="-620.5" font-family="Helvetica,sans-Serif" font-size="10.00"> #manager</text>
</g>
<!-- Node13&#45;&gt;Node12 -->
<g id="edge17" class="edge"><title>Node13&#45;&gt;Node12</title>
<path fill="none" stroke="#404040" d="M311.835,-57.6641C322.156,-146.362 355.798,-431.593 388.635,-667 392.41,-694.065 396.756,-723.266 400.915,-750.432"/>
<polygon fill="none" stroke="#404040" points="400.923,-750.484 405.788,-755.806 402.747,-762.344 397.881,-757.022 400.923,-750.484"/>
<text text-anchor="middle" x="375.635" y="-380.5" font-family="Helvetica,sans-Serif" font-size="10.00"> &#45;enemy</text>
</g>
<!-- Node14 -->
<g id="node13" class="node"><title>Node14</title>
<polygon fill="none" stroke="#bfbfbf" points="442.135,-1104 442.135,-1161 477.135,-1161 477.135,-1104 442.135,-1104"/>
<text text-anchor="middle" x="459.635" y="-1149" font-family="Helvetica,sans-Serif" font-size="10.00">bool</text>
<polyline fill="none" stroke="#bfbfbf" points="442.135,-1142 477.135,-1142 "/>
<text text-anchor="middle" x="459.635" y="-1130" font-family="Helvetica,sans-Serif" font-size="10.00"> </text>
<polyline fill="none" stroke="#bfbfbf" points="442.135,-1123 477.135,-1123 "/>
<text text-anchor="middle" x="459.635" y="-1111" font-family="Helvetica,sans-Serif" font-size="10.00"> </text>
</g>
<!-- Node14&#45;&gt;Node12 -->
<g id="edge21" class="edge"><title>Node14&#45;&gt;Node12</title>
<path fill="none" stroke="#404040" d="M443.806,-1103.88C432.552,-1084.12 419.312,-1060.58 418.635,-1058 410.748,-1027.98 408.247,-994.544 408.332,-963.733"/>
<polygon fill="none" stroke="#404040" points="408.334,-963.615 404.415,-957.562 408.496,-951.616 412.415,-957.67 408.334,-963.615"/>
<text text-anchor="middle" x="451.635" y="-1050" font-family="Helvetica,sans-Serif" font-size="10.00"> &#45;wasCriticalHit</text>
</g>
<!-- Node15 -->
<g id="node14" class="node"><title>Node15</title>
<polygon fill="none" stroke="#bfbfbf" points="630.135,-492.5 630.135,-549.5 665.135,-549.5 665.135,-492.5 630.135,-492.5"/>
<text text-anchor="middle" x="647.635" y="-537.5" font-family="Helvetica,sans-Serif" font-size="10.00">float</text>
<polyline fill="none" stroke="#bfbfbf" points="630.135,-530.5 665.135,-530.5 "/>
<text text-anchor="middle" x="647.635" y="-518.5" font-family="Helvetica,sans-Serif" font-size="10.00"> </text>
<polyline fill="none" stroke="#bfbfbf" points="630.135,-511.5 665.135,-511.5 "/>
<text text-anchor="middle" x="647.635" y="-499.5" font-family="Helvetica,sans-Serif" font-size="10.00"> </text>
</g>
<!-- Node15&#45;&gt;Node10 -->
<g id="edge24" class="edge"><title>Node15&#45;&gt;Node10</title>
<path fill="none" stroke="#404040" d="M643.091,-492.239C641.746,-482.966 640.424,-472.561 639.635,-463 639.184,-457.546 638.826,-451.873 638.541,-446.182"/>
<polygon fill="none" stroke="#404040" points="638.524,-445.764 634.281,-439.934 638.03,-433.774 642.274,-439.604 638.524,-445.764"/>
<text text-anchor="middle" x="659.635" y="-455" font-family="Helvetica,sans-Serif" font-size="10.00"> #special</text>
</g>
<!-- Node16 -->
<g id="node15" class="node"><title>Node16</title>
<polygon fill="none" stroke="#bfbfbf" points="509.135,-354.5 509.135,-411.5 570.135,-411.5 570.135,-354.5 509.135,-354.5"/>
<text text-anchor="middle" x="539.635" y="-399.5" font-family="Helvetica,sans-Serif" font-size="10.00">Texture2D</text>
<polyline fill="none" stroke="#bfbfbf" points="509.135,-392.5 570.135,-392.5 "/>
<text text-anchor="middle" x="539.635" y="-380.5" font-family="Helvetica,sans-Serif" font-size="10.00"> </text>
<polyline fill="none" stroke="#bfbfbf" points="509.135,-373.5 570.135,-373.5 "/>
<text text-anchor="middle" x="539.635" y="-361.5" font-family="Helvetica,sans-Serif" font-size="10.00"> </text>
</g>
<!-- Node16&#45;&gt;Node9 -->
<g id="edge26" class="edge"><title>Node16&#45;&gt;Node9</title>
<path fill="none" stroke="#404040" d="M527.919,-354.263C520.134,-335.832 509.393,-310.404 498.61,-284.875"/>
<polygon fill="none" stroke="#404040" points="498.498,-284.611 492.479,-280.641 493.829,-273.557 499.849,-277.528 498.498,-284.611"/>
<text text-anchor="middle" x="528.135" y="-300.5" font-family="Helvetica,sans-Serif" font-size="10.00"> #image</text>
</g>
</g>
</svg>
