<?xml version="1.0" encoding="UTF-8" standalone="no"?>
<!DOCTYPE svg PUBLIC "-//W3C//DTD SVG 1.1//EN"
 "http://www.w3.org/Graphics/SVG/1.1/DTD/svg11.dtd">
<!-- Generated by graphviz version 2.38.0 (20140413.2041)
 -->
<!-- Title: Portal Pages: 1 -->
<svg width="873pt" height="557pt"
 viewBox="0.00 0.00 872.90 557.00" xmlns="http://www.w3.org/2000/svg" xmlns:xlink="http://www.w3.org/1999/xlink">
<g id="graph0" class="graph" transform="scale(1 1) rotate(0) translate(4 553)">
<title>Portal</title>
<!-- Node2 -->
<g id="node1" class="node"><title>Node2</title>
<polygon fill="#bfbfbf" stroke="black" points="65.8994,-0.5 65.8994,-68.5 171.899,-68.5 171.899,-0.5 65.8994,-0.5"/>
<text text-anchor="middle" x="118.899" y="-56.5" font-family="Helvetica,sans-Serif" font-size="10.00">Portal</text>
<polyline fill="none" stroke="black" points="65.8994,-49.5 171.899,-49.5 "/>
<text text-anchor="middle" x="118.899" y="-37.5" font-family="Helvetica,sans-Serif" font-size="10.00"> </text>
<polyline fill="none" stroke="black" points="65.8994,-30.5 171.899,-30.5 "/>
<text text-anchor="start" x="73.8994" y="-18.5" font-family="Helvetica,sans-Serif" font-size="10.00">&#45; Start()</text>
<text text-anchor="start" x="73.8994" y="-7.5" font-family="Helvetica,sans-Serif" font-size="10.00">&#45; OnTriggerEnter2D()</text>
</g>
<!-- Node3 -->
<g id="node2" class="node"><title>Node3</title>
<g id="a_node2"><a xlink:href="class_mono_behaviour.html" target="_top" xlink:title="{MonoBehaviour\n||}">
<polygon fill="none" stroke="black" points="39.3994,-491.5 39.3994,-548.5 122.399,-548.5 122.399,-491.5 39.3994,-491.5"/>
<text text-anchor="middle" x="80.8994" y="-536.5" font-family="Helvetica,sans-Serif" font-size="10.00">MonoBehaviour</text>
<polyline fill="none" stroke="black" points="39.3994,-529.5 122.399,-529.5 "/>
<text text-anchor="middle" x="80.8994" y="-517.5" font-family="Helvetica,sans-Serif" font-size="10.00"> </text>
<polyline fill="none" stroke="black" points="39.3994,-510.5 122.399,-510.5 "/>
<text text-anchor="middle" x="80.8994" y="-498.5" font-family="Helvetica,sans-Serif" font-size="10.00"> </text>
</a>
</g>
</g>
<!-- Node3&#45;&gt;Node2 -->
<g id="edge1" class="edge"><title>Node3&#45;&gt;Node2</title>
<path fill="none" stroke="midnightblue" d="M62.4914,-481.738C28.8958,-408.16 -33.8167,-240.557 23.8994,-116 32.8973,-96.5815 49.1433,-80.1431 65.6857,-67.284"/>
<polygon fill="none" stroke="midnightblue" points="59.4386,-483.474 66.8269,-491.068 65.7866,-480.524 59.4386,-483.474"/>
</g>
<!-- Node5 -->
<g id="node4" class="node"><title>Node5</title>
<g id="a_node4"><a xlink:href="class_scene_changer.html" target="_top" xlink:title="A set of functions to be called to change scenes smoothly whilst handling the player&#39;s location and a...">
<polygon fill="none" stroke="black" points="205.899,-116.5 205.899,-239.5 303.899,-239.5 303.899,-116.5 205.899,-116.5"/>
<text text-anchor="middle" x="254.899" y="-227.5" font-family="Helvetica,sans-Serif" font-size="10.00">SceneChanger</text>
<polyline fill="none" stroke="black" points="205.899,-220.5 303.899,-220.5 "/>
<text text-anchor="middle" x="254.899" y="-208.5" font-family="Helvetica,sans-Serif" font-size="10.00"> </text>
<polyline fill="none" stroke="black" points="205.899,-201.5 303.899,-201.5 "/>
<text text-anchor="start" x="213.899" y="-189.5" font-family="Helvetica,sans-Serif" font-size="10.00">+ loadLevel()</text>
<text text-anchor="start" x="213.899" y="-178.5" font-family="Helvetica,sans-Serif" font-size="10.00">+ loadLevel()</text>
<text text-anchor="start" x="213.899" y="-167.5" font-family="Helvetica,sans-Serif" font-size="10.00">+ changePosition()</text>
<text text-anchor="start" x="213.899" y="-156.5" font-family="Helvetica,sans-Serif" font-size="10.00">&#45; Awake()</text>
<text text-anchor="start" x="213.899" y="-145.5" font-family="Helvetica,sans-Serif" font-size="10.00">&#45; OnDisable()</text>
<text text-anchor="start" x="213.899" y="-134.5" font-family="Helvetica,sans-Serif" font-size="10.00">&#45; sceneChanged()</text>
<text text-anchor="start" x="213.899" y="-123.5" font-family="Helvetica,sans-Serif" font-size="10.00">&#45; changeScene()</text>
</a>
</g>
</g>
<!-- Node3&#45;&gt;Node5 -->
<g id="edge4" class="edge"><title>Node3&#45;&gt;Node5</title>
<path fill="none" stroke="midnightblue" d="M72.3604,-481.586C62.2192,-427.4 51.8552,-326.128 96.8994,-258 121.51,-220.778 169.184,-200.347 205.755,-189.645"/>
<polygon fill="none" stroke="midnightblue" points="68.9374,-482.319 74.3035,-491.454 75.8056,-480.967 68.9374,-482.319"/>
</g>
<!-- Node9 -->
<g id="node8" class="node"><title>Node9</title>
<g id="a_node8"><a xlink:href="class_player_movement.html" target="_top" xlink:title="A script to control the movement and animations of the player">
<polygon fill="none" stroke="black" points="450.399,-287.5 450.399,-421.5 555.399,-421.5 555.399,-287.5 450.399,-287.5"/>
<text text-anchor="middle" x="502.899" y="-409.5" font-family="Helvetica,sans-Serif" font-size="10.00">PlayerMovement</text>
<polyline fill="none" stroke="black" points="450.399,-402.5 555.399,-402.5 "/>
<text text-anchor="middle" x="502.899" y="-390.5" font-family="Helvetica,sans-Serif" font-size="10.00"> </text>
<polyline fill="none" stroke="black" points="450.399,-383.5 555.399,-383.5 "/>
<text text-anchor="start" x="458.399" y="-371.5" font-family="Helvetica,sans-Serif" font-size="10.00">+ move()</text>
<text text-anchor="start" x="458.399" y="-360.5" font-family="Helvetica,sans-Serif" font-size="10.00">+ setCanMove()</text>
<text text-anchor="start" x="458.399" y="-349.5" font-family="Helvetica,sans-Serif" font-size="10.00">&#45; Start()</text>
<text text-anchor="start" x="458.399" y="-338.5" font-family="Helvetica,sans-Serif" font-size="10.00">&#45; FixedUpdate()</text>
<text text-anchor="start" x="458.399" y="-327.5" font-family="Helvetica,sans-Serif" font-size="10.00">&#45; explorationMenu()</text>
<text text-anchor="start" x="458.399" y="-316.5" font-family="Helvetica,sans-Serif" font-size="10.00">&#45; randomEncounter()</text>
<text text-anchor="start" x="458.399" y="-305.5" font-family="Helvetica,sans-Serif" font-size="10.00">&#45; walkAnimation()</text>
<text text-anchor="start" x="458.399" y="-294.5" font-family="Helvetica,sans-Serif" font-size="10.00">&#45; setIdle()</text>
</a>
</g>
</g>
<!-- Node3&#45;&gt;Node9 -->
<g id="edge10" class="edge"><title>Node3&#45;&gt;Node9</title>
<path fill="none" stroke="midnightblue" d="M131.987,-493.92C170.399,-476.128 224.802,-453.158 274.899,-440 336.002,-423.952 357.463,-446.007 415.899,-422 427.681,-417.16 439.255,-410.298 449.923,-402.804"/>
<polygon fill="none" stroke="midnightblue" points="130.153,-490.914 122.579,-498.322 133.12,-497.254 130.153,-490.914"/>
</g>
<!-- Node4 -->
<g id="node3" class="node"><title>Node4</title>
<polygon fill="none" stroke="#bfbfbf" points="32.8994,-149.5 32.8994,-206.5 90.8994,-206.5 90.8994,-149.5 32.8994,-149.5"/>
<text text-anchor="middle" x="61.8994" y="-194.5" font-family="Helvetica,sans-Serif" font-size="10.00">AudioClip</text>
<polyline fill="none" stroke="#bfbfbf" points="32.8994,-187.5 90.8994,-187.5 "/>
<text text-anchor="middle" x="61.8994" y="-175.5" font-family="Helvetica,sans-Serif" font-size="10.00"> </text>
<polyline fill="none" stroke="#bfbfbf" points="32.8994,-168.5 90.8994,-168.5 "/>
<text text-anchor="middle" x="61.8994" y="-156.5" font-family="Helvetica,sans-Serif" font-size="10.00"> </text>
</g>
<!-- Node4&#45;&gt;Node2 -->
<g id="edge2" class="edge"><title>Node4&#45;&gt;Node2</title>
<path fill="none" stroke="#404040" d="M64.1958,-149.241C66.4837,-130.928 71.0081,-106.763 79.8994,-87 81.0836,-84.3679 82.4238,-81.7446 83.8767,-79.1548"/>
<polygon fill="none" stroke="#404040" points="84.0127,-78.9371 83.8009,-71.7291 90.373,-68.7613 90.5848,-75.9693 84.0127,-78.9371"/>
<text text-anchor="middle" x="92.3994" y="-90" font-family="Helvetica,sans-Serif" font-size="10.00"> &#45;SFX</text>
</g>
<!-- Node5&#45;&gt;Node2 -->
<g id="edge3" class="edge"><title>Node5&#45;&gt;Node2</title>
<path fill="none" stroke="#404040" d="M205.8,-125.915C190.536,-110.033 173.891,-92.7153 159.291,-77.5252"/>
<polygon fill="none" stroke="#404040" points="159.273,-77.5061 152.231,-75.9521 150.957,-68.8543 157.999,-70.4084 159.273,-77.5061"/>
<text text-anchor="middle" x="213.399" y="-90" font-family="Helvetica,sans-Serif" font-size="10.00"> &#45;sceneChanger</text>
</g>
<!-- Node5&#45;&gt;Node5 -->
<g id="edge5" class="edge"><title>Node5&#45;&gt;Node5</title>
<path fill="none" stroke="#404040" d="M303.98,-193.241C314.385,-191.694 321.899,-186.613 321.899,-178 321.899,-173.155 319.522,-169.428 315.59,-166.818"/>
<polygon fill="none" stroke="#404040" points="315.307,-166.72 308.323,-168.515 303.98,-162.759 310.964,-160.963 315.307,-166.72"/>
<text text-anchor="middle" x="344.899" y="-175.5" font-family="Helvetica,sans-Serif" font-size="10.00"> +instance</text>
</g>
<!-- Node6 -->
<g id="node5" class="node"><title>Node6</title>
<polygon fill="none" stroke="#bfbfbf" points="213.399,-491.5 213.399,-548.5 254.399,-548.5 254.399,-491.5 213.399,-491.5"/>
<text text-anchor="middle" x="233.899" y="-536.5" font-family="Helvetica,sans-Serif" font-size="10.00">string</text>
<polyline fill="none" stroke="#bfbfbf" points="213.399,-529.5 254.399,-529.5 "/>
<text text-anchor="middle" x="233.899" y="-517.5" font-family="Helvetica,sans-Serif" font-size="10.00"> </text>
<polyline fill="none" stroke="#bfbfbf" points="213.399,-510.5 254.399,-510.5 "/>
<text text-anchor="middle" x="233.899" y="-498.5" font-family="Helvetica,sans-Serif" font-size="10.00"> </text>
</g>
<!-- Node6&#45;&gt;Node2 -->
<g id="edge18" class="edge"><title>Node6&#45;&gt;Node2</title>
<path fill="none" stroke="#404040" d="M213.352,-505.409C190.268,-488.821 153.936,-458.431 137.899,-422 87.5582,-307.638 100.336,-155.44 111.09,-80.7486"/>
<polygon fill="none" stroke="#404040" points="111.135,-80.4521 108.074,-73.9228 112.924,-68.5861 115.985,-75.1154 111.135,-80.4521"/>
<text text-anchor="middle" x="131.399" y="-261" font-family="Helvetica,sans-Serif" font-size="10.00"> +newScene</text>
</g>
<!-- Node6&#45;&gt;Node5 -->
<g id="edge6" class="edge"><title>Node6&#45;&gt;Node5</title>
<path fill="none" stroke="#404040" d="M235.6,-491.464C238.791,-439.799 245.771,-326.785 250.404,-251.789"/>
<polygon fill="none" stroke="#404040" points="250.414,-251.612 246.792,-245.376 251.154,-239.634 254.777,-245.87 250.414,-251.612"/>
<text text-anchor="middle" x="279.399" y="-352" font-family="Helvetica,sans-Serif" font-size="10.00"> +menuScene</text>
</g>
<!-- Node6&#45;&gt;Node9 -->
<g id="edge11" class="edge"><title>Node6&#45;&gt;Node9</title>
<path fill="none" stroke="#404040" d="M254.435,-494.802C271.052,-476.844 296.037,-453.261 322.899,-440 360.65,-421.364 377.491,-439.24 415.899,-422 424.1,-418.319 432.239,-413.729 440.059,-408.692"/>
<polygon fill="none" stroke="#404040" points="440.207,-408.592 442.924,-401.912 450.135,-401.851 447.418,-408.531 440.207,-408.592"/>
<text text-anchor="middle" x="345.399" y="-454" font-family="Helvetica,sans-Serif" font-size="10.00"> &#45;lastMove</text>
</g>
<!-- Node7 -->
<g id="node6" class="node"><title>Node7</title>
<polygon fill="none" stroke="#bfbfbf" points="147.399,-326 147.399,-383 218.399,-383 218.399,-326 147.399,-326"/>
<text text-anchor="middle" x="182.899" y="-371" font-family="Helvetica,sans-Serif" font-size="10.00">GameObject</text>
<polyline fill="none" stroke="#bfbfbf" points="147.399,-364 218.399,-364 "/>
<text text-anchor="middle" x="182.899" y="-352" font-family="Helvetica,sans-Serif" font-size="10.00"> </text>
<polyline fill="none" stroke="#bfbfbf" points="147.399,-345 218.399,-345 "/>
<text text-anchor="middle" x="182.899" y="-333" font-family="Helvetica,sans-Serif" font-size="10.00"> </text>
</g>
<!-- Node7&#45;&gt;Node5 -->
<g id="edge7" class="edge"><title>Node7&#45;&gt;Node5</title>
<path fill="none" stroke="#404040" d="M188.029,-325.661C192.122,-306.242 198.702,-279.976 207.899,-258 208.926,-255.548 210.017,-253.08 211.161,-250.61"/>
<polygon fill="none" stroke="#404040" points="211.182,-250.568 210.239,-243.419 216.475,-239.798 217.419,-246.947 211.182,-250.568"/>
<text text-anchor="middle" x="224.399" y="-261" font-family="Helvetica,sans-Serif" font-size="10.00"> &#45;player</text>
</g>
<!-- Node8 -->
<g id="node7" class="node"><title>Node8</title>
<polygon fill="none" stroke="#bfbfbf" points="751.899,-491.5 751.899,-548.5 801.899,-548.5 801.899,-491.5 751.899,-491.5"/>
<text text-anchor="middle" x="776.899" y="-536.5" font-family="Helvetica,sans-Serif" font-size="10.00">Vector2</text>
<polyline fill="none" stroke="#bfbfbf" points="751.899,-529.5 801.899,-529.5 "/>
<text text-anchor="middle" x="776.899" y="-517.5" font-family="Helvetica,sans-Serif" font-size="10.00"> </text>
<polyline fill="none" stroke="#bfbfbf" points="751.899,-510.5 801.899,-510.5 "/>
<text text-anchor="middle" x="776.899" y="-498.5" font-family="Helvetica,sans-Serif" font-size="10.00"> </text>
</g>
<!-- Node8&#45;&gt;Node2 -->
<g id="edge19" class="edge"><title>Node8&#45;&gt;Node2</title>
<path fill="none" stroke="#404040" d="M793.457,-491.27C818.822,-444.795 860.059,-350.078 816.899,-287 671.659,-74.7313 328.33,-40.5892 184.295,-35.8405"/>
<polygon fill="none" stroke="#404040" points="184.214,-35.8382 178.102,-39.6657 172.219,-35.4965 178.33,-31.669 184.214,-35.8382"/>
<text text-anchor="middle" x="833.899" y="-261" font-family="Helvetica,sans-Serif" font-size="10.00"> +newPosition</text>
</g>
<!-- Node8&#45;&gt;Node5 -->
<g id="edge8" class="edge"><title>Node8&#45;&gt;Node5</title>
<path fill="none" stroke="#404040" d="M776.863,-491.305C775.702,-475.302 772.22,-455.362 762.899,-440 705.028,-344.62 662.027,-340.079 563.899,-287 482.663,-243.057 380.031,-211.38 315.913,-194.106"/>
<polygon fill="none" stroke="#404040" points="315.61,-194.026 308.785,-196.352 304.012,-190.946 310.838,-188.62 315.61,-194.026"/>
<text text-anchor="middle" x="780.899" y="-352" font-family="Helvetica,sans-Serif" font-size="10.00"> +startPosition</text>
</g>
<!-- Node8&#45;&gt;Node9 -->
<g id="edge14" class="edge"><title>Node8&#45;&gt;Node9</title>
<path fill="none" stroke="#404040" d="M751.588,-508.357C732.761,-499.938 706.818,-487.255 685.899,-473 667.691,-460.591 666.75,-452.919 648.899,-440 622.939,-421.211 592.497,-403.046 566.147,-388.404"/>
<polygon fill="none" stroke="#404040" points="566.029,-388.339 558.844,-388.955 555.512,-382.56 562.697,-381.944 566.029,-388.339"/>
<text text-anchor="middle" x="724.399" y="-454" font-family="Helvetica,sans-Serif" font-size="10.00"> &#45;previousPosition</text>
</g>
<!-- Node9&#45;&gt;Node5 -->
<g id="edge9" class="edge"><title>Node9&#45;&gt;Node5</title>
<path fill="none" stroke="#404040" d="M450.382,-312.53C439.102,-303.964 427.18,-295.083 415.899,-287 382.716,-263.222 344.836,-237.733 314.159,-217.491"/>
<polygon fill="none" stroke="#404040" points="314.072,-217.434 306.861,-217.477 304.048,-210.837 311.259,-210.794 314.072,-217.434"/>
<text text-anchor="middle" x="428.899" y="-261" font-family="Helvetica,sans-Serif" font-size="10.00"> &#45;movementScript</text>
</g>
<!-- Node10 -->
<g id="node9" class="node"><title>Node10</title>
<polygon fill="none" stroke="#bfbfbf" points="549.899,-491.5 549.899,-548.5 605.899,-548.5 605.899,-491.5 549.899,-491.5"/>
<text text-anchor="middle" x="577.899" y="-536.5" font-family="Helvetica,sans-Serif" font-size="10.00">Animator</text>
<polyline fill="none" stroke="#bfbfbf" points="549.899,-529.5 605.899,-529.5 "/>
<text text-anchor="middle" x="577.899" y="-517.5" font-family="Helvetica,sans-Serif" font-size="10.00"> </text>
<polyline fill="none" stroke="#bfbfbf" points="549.899,-510.5 605.899,-510.5 "/>
<text text-anchor="middle" x="577.899" y="-498.5" font-family="Helvetica,sans-Serif" font-size="10.00"> </text>
</g>
<!-- Node10&#45;&gt;Node9 -->
<g id="edge12" class="edge"><title>Node10&#45;&gt;Node9</title>
<path fill="none" stroke="#404040" d="M565.177,-491.264C557.703,-474.972 547.853,-453.498 538.198,-432.45"/>
<polygon fill="none" stroke="#404040" points="538.183,-432.419 532.046,-428.633 533.18,-421.512 539.318,-425.298 538.183,-432.419"/>
<text text-anchor="middle" x="569.899" y="-454" font-family="Helvetica,sans-Serif" font-size="10.00"> &#45;anim</text>
</g>
<!-- Node11 -->
<g id="node10" class="node"><title>Node11</title>
<polygon fill="none" stroke="#bfbfbf" points="624.399,-491.5 624.399,-548.5 659.399,-548.5 659.399,-491.5 624.399,-491.5"/>
<text text-anchor="middle" x="641.899" y="-536.5" font-family="Helvetica,sans-Serif" font-size="10.00">float</text>
<polyline fill="none" stroke="#bfbfbf" points="624.399,-529.5 659.399,-529.5 "/>
<text text-anchor="middle" x="641.899" y="-517.5" font-family="Helvetica,sans-Serif" font-size="10.00"> </text>
<polyline fill="none" stroke="#bfbfbf" points="624.399,-510.5 659.399,-510.5 "/>
<text text-anchor="middle" x="641.899" y="-498.5" font-family="Helvetica,sans-Serif" font-size="10.00"> </text>
</g>
<!-- Node11&#45;&gt;Node9 -->
<g id="edge13" class="edge"><title>Node11&#45;&gt;Node9</title>
<path fill="none" stroke="#404040" d="M624.863,-491.392C614.789,-475.788 601.394,-456.219 587.899,-440 580.59,-431.215 572.505,-422.31 564.313,-413.741"/>
<polygon fill="none" stroke="#404040" points="564.131,-413.555 557.081,-412.042 555.765,-404.952 562.816,-406.465 564.131,-413.555"/>
<text text-anchor="middle" x="628.399" y="-454" font-family="Helvetica,sans-Serif" font-size="10.00"> &#45;speed</text>
</g>
<!-- Node12 -->
<g id="node11" class="node"><title>Node12</title>
<polygon fill="none" stroke="#bfbfbf" points="350.399,-491.5 350.399,-548.5 385.399,-548.5 385.399,-491.5 350.399,-491.5"/>
<text text-anchor="middle" x="367.899" y="-536.5" font-family="Helvetica,sans-Serif" font-size="10.00">bool</text>
<polyline fill="none" stroke="#bfbfbf" points="350.399,-529.5 385.399,-529.5 "/>
<text text-anchor="middle" x="367.899" y="-517.5" font-family="Helvetica,sans-Serif" font-size="10.00"> </text>
<polyline fill="none" stroke="#bfbfbf" points="350.399,-510.5 385.399,-510.5 "/>
<text text-anchor="middle" x="367.899" y="-498.5" font-family="Helvetica,sans-Serif" font-size="10.00"> </text>
</g>
<!-- Node12&#45;&gt;Node5 -->
<g id="edge17" class="edge"><title>Node12&#45;&gt;Node5</title>
<path fill="none" stroke="#404040" d="M363.978,-491.5C357.135,-447.326 341.087,-358.291 313.899,-287 309.265,-274.849 303.5,-262.371 297.402,-250.408"/>
<polygon fill="none" stroke="#404040" points="297.303,-250.219 290.975,-246.762 291.732,-239.591 298.061,-243.048 297.303,-250.219"/>
<text text-anchor="middle" x="381.899" y="-357.5" font-family="Helvetica,sans-Serif" font-size="10.00"> +movePlayer</text>
<text text-anchor="middle" x="381.899" y="-346.5" font-family="Helvetica,sans-Serif" font-size="10.00">+menuOpen</text>
</g>
<!-- Node12&#45;&gt;Node9 -->
<g id="edge15" class="edge"><title>Node12&#45;&gt;Node9</title>
<path fill="none" stroke="#404040" d="M368.409,-491.149C369.963,-474.896 374.179,-454.755 384.899,-440 394.264,-427.111 402.655,-430.855 415.899,-422 423.989,-416.591 432.322,-410.687 440.477,-404.701"/>
<polygon fill="none" stroke="#404040" points="440.681,-404.549 443.107,-397.759 450.309,-397.387 447.882,-404.178 440.681,-404.549"/>
<text text-anchor="middle" x="441.899" y="-465" font-family="Helvetica,sans-Serif" font-size="10.00"> &#45;playerExists</text>
<text text-anchor="middle" x="441.899" y="-454" font-family="Helvetica,sans-Serif" font-size="10.00">+pseudoEscapeKeyPress</text>
<text text-anchor="middle" x="441.899" y="-443" font-family="Helvetica,sans-Serif" font-size="10.00">&#45;canMove</text>
</g>
<!-- Node13 -->
<g id="node12" class="node"><title>Node13</title>
<polygon fill="none" stroke="#bfbfbf" points="472.399,-491.5 472.399,-548.5 531.399,-548.5 531.399,-491.5 472.399,-491.5"/>
<text text-anchor="middle" x="501.899" y="-536.5" font-family="Helvetica,sans-Serif" font-size="10.00">Transform</text>
<polyline fill="none" stroke="#bfbfbf" points="472.399,-529.5 531.399,-529.5 "/>
<text text-anchor="middle" x="501.899" y="-517.5" font-family="Helvetica,sans-Serif" font-size="10.00"> </text>
<polyline fill="none" stroke="#bfbfbf" points="472.399,-510.5 531.399,-510.5 "/>
<text text-anchor="middle" x="501.899" y="-498.5" font-family="Helvetica,sans-Serif" font-size="10.00"> </text>
</g>
<!-- Node13&#45;&gt;Node9 -->
<g id="edge16" class="edge"><title>Node13&#45;&gt;Node9</title>
<path fill="none" stroke="#404040" d="M502.069,-491.264C502.167,-475.271 502.295,-454.284 502.422,-433.609"/>
<polygon fill="none" stroke="#404040" points="502.422,-433.512 498.459,-427.487 502.496,-421.512 506.459,-427.536 502.422,-433.512"/>
<text text-anchor="middle" x="519.399" y="-454" font-family="Helvetica,sans-Serif" font-size="10.00"> &#45;player</text>
</g>
</g>
</svg>
