<?xml version="1.0" encoding="UTF-8" standalone="no"?>
<!DOCTYPE svg PUBLIC "-//W3C//DTD SVG 1.1//EN"
 "http://www.w3.org/Graphics/SVG/1.1/DTD/svg11.dtd">
<!-- Generated by graphviz version 2.38.0 (20140413.2041)
 -->
<!-- Title: SaveData.TextureData Pages: 1 -->
<svg width="160pt" height="182pt"
 viewBox="0.00 0.00 159.50 182.00" xmlns="http://www.w3.org/2000/svg" xmlns:xlink="http://www.w3.org/1999/xlink">
<g id="graph0" class="graph" transform="scale(1 1) rotate(0) translate(4 178)">
<title>SaveData.TextureData</title>
<!-- Node1 -->
<g id="node1" class="node"><title>Node1</title>
<polygon fill="#bfbfbf" stroke="black" points="0,-0.5 0,-57.5 113,-57.5 113,-0.5 0,-0.5"/>
<text text-anchor="middle" x="56.5" y="-45.5" font-family="Helvetica,sans-Serif" font-size="10.00">SaveData.TextureData</text>
<polyline fill="none" stroke="black" points="0,-38.5 113,-38.5 "/>
<text text-anchor="middle" x="56.5" y="-26.5" font-family="Helvetica,sans-Serif" font-size="10.00"> </text>
<polyline fill="none" stroke="black" points="0,-19.5 113,-19.5 "/>
<text text-anchor="middle" x="56.5" y="-7.5" font-family="Helvetica,sans-Serif" font-size="10.00"> </text>
</g>
<!-- Node2 -->
<g id="node2" class="node"><title>Node2</title>
<polygon fill="none" stroke="#bfbfbf" points="13,-116.5 13,-173.5 42,-173.5 42,-116.5 13,-116.5"/>
<text text-anchor="middle" x="27.5" y="-161.5" font-family="Helvetica,sans-Serif" font-size="10.00">int</text>
<polyline fill="none" stroke="#bfbfbf" points="13,-154.5 42,-154.5 "/>
<text text-anchor="middle" x="27.5" y="-142.5" font-family="Helvetica,sans-Serif" font-size="10.00"> </text>
<polyline fill="none" stroke="#bfbfbf" points="13,-135.5 42,-135.5 "/>
<text text-anchor="middle" x="27.5" y="-123.5" font-family="Helvetica,sans-Serif" font-size="10.00"> </text>
</g>
<!-- Node2&#45;&gt;Node1 -->
<g id="edge1" class="edge"><title>Node2&#45;&gt;Node1</title>
<path fill="none" stroke="#404040" d="M24.6394,-116.382C24.1645,-103.832 24.7707,-88.9328 28.5,-76 29.2083,-73.5437 30.0848,-71.0872 31.0854,-68.6588"/>
<polygon fill="none" stroke="#404040" points="31.2229,-68.3782 30.2738,-61.2298 36.5073,-57.6043 37.4564,-64.7527 31.2229,-68.3782"/>
<text text-anchor="middle" x="46.5" y="-90" font-family="Helvetica,sans-Serif" font-size="10.00"> +height</text>
<text text-anchor="middle" x="46.5" y="-79" font-family="Helvetica,sans-Serif" font-size="10.00">+width</text>
</g>
<!-- Node3 -->
<g id="node3" class="node"><title>Node3</title>
<polygon fill="none" stroke="#bfbfbf" points="64.5,-116.5 64.5,-173.5 108.5,-173.5 108.5,-116.5 64.5,-116.5"/>
<text text-anchor="middle" x="86.5" y="-161.5" font-family="Helvetica,sans-Serif" font-size="10.00">byte []</text>
<polyline fill="none" stroke="#bfbfbf" points="64.5,-154.5 108.5,-154.5 "/>
<text text-anchor="middle" x="86.5" y="-142.5" font-family="Helvetica,sans-Serif" font-size="10.00"> </text>
<polyline fill="none" stroke="#bfbfbf" points="64.5,-135.5 108.5,-135.5 "/>
<text text-anchor="middle" x="86.5" y="-123.5" font-family="Helvetica,sans-Serif" font-size="10.00"> </text>
</g>
<!-- Node3&#45;&gt;Node1 -->
<g id="edge2" class="edge"><title>Node3&#45;&gt;Node1</title>
<path fill="none" stroke="#404040" d="M79.2378,-116.404C75.5434,-102.365 70.9866,-85.049 66.9247,-69.614"/>
<polygon fill="none" stroke="#404040" points="66.8533,-69.3421 61.458,-64.5577 63.7993,-57.7372 69.1946,-62.5217 66.8533,-69.3421"/>
<text text-anchor="middle" x="113" y="-84.5" font-family="Helvetica,sans-Serif" font-size="10.00"> +rawTextureData</text>
</g>
</g>
</svg>
