<?xml version="1.0" encoding="UTF-8" standalone="no"?>
<!DOCTYPE svg PUBLIC "-//W3C//DTD SVG 1.1//EN"
 "http://www.w3.org/Graphics/SVG/1.1/DTD/svg11.dtd">
<!-- Generated by graphviz version 2.38.0 (20140413.2041)
 -->
<!-- Title: CharacterMove Pages: 1 -->
<svg width="810pt" height="1046pt"
 viewBox="0.00 0.00 810.00 1046.00" xmlns="http://www.w3.org/2000/svg" xmlns:xlink="http://www.w3.org/1999/xlink">
<g id="graph0" class="graph" transform="scale(1 1) rotate(0) translate(4 1042)">
<title>CharacterMove</title>
<!-- Node11 -->
<g id="node1" class="node"><title>Node11</title>
<polygon fill="#bfbfbf" stroke="black" points="133,-842.5 133,-921.5 219,-921.5 219,-842.5 133,-842.5"/>
<text text-anchor="middle" x="176" y="-909.5" font-family="Helvetica,sans-Serif" font-size="10.00">CharacterMove</text>
<polyline fill="none" stroke="black" points="133,-902.5 219,-902.5 "/>
<text text-anchor="start" x="141" y="-890.5" font-family="Helvetica,sans-Serif" font-size="10.00">+ User</text>
<text text-anchor="start" x="141" y="-879.5" font-family="Helvetica,sans-Serif" font-size="10.00">+ Target</text>
<text text-anchor="start" x="141" y="-868.5" font-family="Helvetica,sans-Serif" font-size="10.00">+ Text</text>
<polyline fill="none" stroke="black" points="133,-861.5 219,-861.5 "/>
<text text-anchor="start" x="141" y="-849.5" font-family="Helvetica,sans-Serif" font-size="10.00">+ performMove()</text>
</g>
<!-- Node15 -->
<g id="node5" class="node"><title>Node15</title>
<g id="a_node5"><a xlink:href="class_special_move.html" target="_top" xlink:title="Special move abstract base class that expands upon CharacterMove, adding magic properties ...">
<polygon fill="none" stroke="black" points="235,-624.5 235,-725.5 333,-725.5 333,-624.5 235,-624.5"/>
<text text-anchor="middle" x="284" y="-713.5" font-family="Helvetica,sans-Serif" font-size="10.00">SpecialMove</text>
<polyline fill="none" stroke="black" points="235,-706.5 333,-706.5 "/>
<text text-anchor="start" x="243" y="-694.5" font-family="Helvetica,sans-Serif" font-size="10.00">+ Magic</text>
<text text-anchor="start" x="243" y="-683.5" font-family="Helvetica,sans-Serif" font-size="10.00">+ Desc</text>
<text text-anchor="start" x="243" y="-672.5" font-family="Helvetica,sans-Serif" font-size="10.00">+ Special</text>
<polyline fill="none" stroke="black" points="235,-665.5 333,-665.5 "/>
<text text-anchor="start" x="243" y="-653.5" font-family="Helvetica,sans-Serif" font-size="10.00">+ setUp()</text>
<text text-anchor="start" x="243" y="-642.5" font-family="Helvetica,sans-Serif" font-size="10.00">+ decreaseMagic()</text>
<text text-anchor="start" x="243" y="-631.5" font-family="Helvetica,sans-Serif" font-size="10.00"># SpecialMove()</text>
</a>
</g>
</g>
<!-- Node11&#45;&gt;Node15 -->
<g id="edge6" class="edge"><title>Node11&#45;&gt;Node15</title>
<path fill="none" stroke="midnightblue" d="M200.478,-833.19C214.056,-806.817 231.32,-773.524 247,-744 250.152,-738.065 253.484,-731.855 256.806,-725.702"/>
<polygon fill="none" stroke="midnightblue" points="197.299,-831.718 195.838,-842.212 203.524,-834.92 197.299,-831.718"/>
</g>
<!-- Node12 -->
<g id="node2" class="node"><title>Node12</title>
<polygon fill="none" stroke="#bfbfbf" points="155.5,-980.5 155.5,-1037.5 196.5,-1037.5 196.5,-980.5 155.5,-980.5"/>
<text text-anchor="middle" x="176" y="-1025.5" font-family="Helvetica,sans-Serif" font-size="10.00">string</text>
<polyline fill="none" stroke="#bfbfbf" points="155.5,-1018.5 196.5,-1018.5 "/>
<text text-anchor="middle" x="176" y="-1006.5" font-family="Helvetica,sans-Serif" font-size="10.00"> </text>
<polyline fill="none" stroke="#bfbfbf" points="155.5,-999.5 196.5,-999.5 "/>
<text text-anchor="middle" x="176" y="-987.5" font-family="Helvetica,sans-Serif" font-size="10.00"> </text>
</g>
<!-- Node12&#45;&gt;Node11 -->
<g id="edge1" class="edge"><title>Node12&#45;&gt;Node11</title>
<path fill="none" stroke="#404040" d="M176,-980.258C176,-966.637 176,-949.787 176,-933.96"/>
<polygon fill="none" stroke="#404040" points="176,-933.567 172,-927.567 176,-921.567 180,-927.567 176,-933.567"/>
<text text-anchor="middle" x="188.5" y="-948.5" font-family="Helvetica,sans-Serif" font-size="10.00"> #text</text>
</g>
<!-- Node13 -->
<g id="node3" class="node"><title>Node13</title>
<g id="a_node3"><a xlink:href="class_character.html" target="_top" xlink:title="Base abstract class for Enemy and Player to inherit from. Defines all shared variables, their constructor and their setters and getters ">
<polygon fill="none" stroke="black" points="334.5,-387.5 334.5,-565.5 429.5,-565.5 429.5,-387.5 334.5,-387.5"/>
<text text-anchor="middle" x="382" y="-553.5" font-family="Helvetica,sans-Serif" font-size="10.00">Character</text>
<polyline fill="none" stroke="black" points="334.5,-546.5 429.5,-546.5 "/>
<text text-anchor="start" x="342.5" y="-534.5" font-family="Helvetica,sans-Serif" font-size="10.00">+ Name</text>
<text text-anchor="start" x="342.5" y="-523.5" font-family="Helvetica,sans-Serif" font-size="10.00">+ Level</text>
<text text-anchor="start" x="342.5" y="-512.5" font-family="Helvetica,sans-Serif" font-size="10.00">+ Health</text>
<text text-anchor="start" x="342.5" y="-501.5" font-family="Helvetica,sans-Serif" font-size="10.00">+ Attack</text>
<text text-anchor="start" x="342.5" y="-490.5" font-family="Helvetica,sans-Serif" font-size="10.00">+ Defence</text>
<text text-anchor="start" x="342.5" y="-479.5" font-family="Helvetica,sans-Serif" font-size="10.00">+ MaximumMagic</text>
<text text-anchor="start" x="342.5" y="-468.5" font-family="Helvetica,sans-Serif" font-size="10.00">+ Magic</text>
<text text-anchor="start" x="342.5" y="-457.5" font-family="Helvetica,sans-Serif" font-size="10.00">+ Luck</text>
<text text-anchor="start" x="342.5" y="-446.5" font-family="Helvetica,sans-Serif" font-size="10.00">+ Speed</text>
<text text-anchor="start" x="342.5" y="-435.5" font-family="Helvetica,sans-Serif" font-size="10.00">+ Special1</text>
<text text-anchor="start" x="342.5" y="-424.5" font-family="Helvetica,sans-Serif" font-size="10.00">+ Special2</text>
<text text-anchor="start" x="342.5" y="-413.5" font-family="Helvetica,sans-Serif" font-size="10.00">+ Image</text>
<polyline fill="none" stroke="black" points="334.5,-406.5 429.5,-406.5 "/>
<text text-anchor="start" x="342.5" y="-394.5" font-family="Helvetica,sans-Serif" font-size="10.00"># Character()</text>
</a>
</g>
</g>
<!-- Node12&#45;&gt;Node13 -->
<g id="edge3" class="edge"><title>Node12&#45;&gt;Node13</title>
<path fill="none" stroke="#404040" d="M156.399,-980.479C145.532,-964.139 132.532,-942.639 124,-922 93.503,-848.228 81.4015,-821.63 100,-744 119.538,-662.45 133.946,-635.662 200,-584 238.416,-553.954 286.136,-526.338 323.073,-506.761"/>
<polygon fill="none" stroke="#404040" points="323.538,-506.517 326.997,-500.19 334.168,-500.949 330.709,-507.276 323.538,-506.517"/>
<text text-anchor="middle" x="116.5" y="-781.5" font-family="Helvetica,sans-Serif" font-size="10.00"> #name</text>
</g>
<!-- Node12&#45;&gt;Node15 -->
<g id="edge7" class="edge"><title>Node12&#45;&gt;Node15</title>
<path fill="none" stroke="#404040" d="M196.87,-997.186C221.366,-983.304 261.158,-956.798 281,-922 312.993,-865.892 308.236,-790.233 298.982,-737.699"/>
<polygon fill="none" stroke="#404040" points="298.974,-737.656 293.933,-732.5 296.753,-725.863 301.795,-731.019 298.974,-737.656"/>
<text text-anchor="middle" x="320" y="-879.5" font-family="Helvetica,sans-Serif" font-size="10.00"> #desc</text>
</g>
<!-- Node18 -->
<g id="node8" class="node"><title>Node18</title>
<g id="a_node8"><a xlink:href="class_battle_manager.html" target="_top" xlink:title="Holds current Player and Enemy objects in battle and provides functions for MainBattle and other obje...">
<polygon fill="none" stroke="black" points="384,-0.5 384,-189.5 500,-189.5 500,-0.5 384,-0.5"/>
<text text-anchor="middle" x="442" y="-177.5" font-family="Helvetica,sans-Serif" font-size="10.00">BattleManager</text>
<polyline fill="none" stroke="black" points="384,-170.5 500,-170.5 "/>
<text text-anchor="start" x="392" y="-158.5" font-family="Helvetica,sans-Serif" font-size="10.00">+ Player</text>
<text text-anchor="start" x="392" y="-147.5" font-family="Helvetica,sans-Serif" font-size="10.00">+ Enemy</text>
<text text-anchor="start" x="392" y="-136.5" font-family="Helvetica,sans-Serif" font-size="10.00">+ WasCriticalHit</text>
<polyline fill="none" stroke="black" points="384,-129.5 500,-129.5 "/>
<text text-anchor="start" x="392" y="-117.5" font-family="Helvetica,sans-Serif" font-size="10.00">+ BattleManager()</text>
<text text-anchor="start" x="392" y="-106.5" font-family="Helvetica,sans-Serif" font-size="10.00">+ playerFirst()</text>
<text text-anchor="start" x="392" y="-95.5" font-family="Helvetica,sans-Serif" font-size="10.00">+ switchPlayers()</text>
<text text-anchor="start" x="392" y="-84.5" font-family="Helvetica,sans-Serif" font-size="10.00">+ isCriticalHit()</text>
<text text-anchor="start" x="392" y="-73.5" font-family="Helvetica,sans-Serif" font-size="10.00">+ ranAway()</text>
<text text-anchor="start" x="392" y="-62.5" font-family="Helvetica,sans-Serif" font-size="10.00">+ damageCalculation()</text>
<text text-anchor="start" x="392" y="-51.5" font-family="Helvetica,sans-Serif" font-size="10.00">+ enemyMove()</text>
<text text-anchor="start" x="392" y="-40.5" font-family="Helvetica,sans-Serif" font-size="10.00">+ enemySpecialMove()</text>
<text text-anchor="start" x="392" y="-29.5" font-family="Helvetica,sans-Serif" font-size="10.00">+ battleWon()</text>
<text text-anchor="start" x="392" y="-18.5" font-family="Helvetica,sans-Serif" font-size="10.00">+ playerFainted()</text>
<text text-anchor="start" x="392" y="-7.5" font-family="Helvetica,sans-Serif" font-size="10.00">&#45; characterFainted()</text>
</a>
</g>
</g>
<!-- Node12&#45;&gt;Node18 -->
<g id="edge12" class="edge"><title>Node12&#45;&gt;Node18</title>
<path fill="none" stroke="#404040" d="M155.466,-1003.68C109.039,-992.597 0,-958.518 0,-883 0,-883 0,-883 0,-292.5 0,-131.786 247.015,-101.546 371.724,-96.5195"/>
<polygon fill="none" stroke="#404040" points="371.769,-96.518 377.625,-92.3101 383.762,-96.0973 377.906,-100.305 371.769,-96.518"/>
<text text-anchor="middle" x="42" y="-598" font-family="Helvetica,sans-Serif" font-size="10.00"> +forceEnemyMove</text>
<text text-anchor="middle" x="42" y="-587" font-family="Helvetica,sans-Serif" font-size="10.00">+forceCriticalHits</text>
</g>
<!-- Node22 -->
<g id="node12" class="node"><title>Node22</title>
<g id="a_node12"><a xlink:href="class_item.html" target="_top" xlink:title="Abstract class for items that can be equipped to a player, increasing some of their stats ...">
<polygon fill="none" stroke="black" points="701.5,-744.5 701.5,-823.5 778.5,-823.5 778.5,-744.5 701.5,-744.5"/>
<text text-anchor="middle" x="740" y="-811.5" font-family="Helvetica,sans-Serif" font-size="10.00">Item</text>
<polyline fill="none" stroke="black" points="701.5,-804.5 778.5,-804.5 "/>
<text text-anchor="start" x="709.5" y="-792.5" font-family="Helvetica,sans-Serif" font-size="10.00">+ Name</text>
<text text-anchor="start" x="709.5" y="-781.5" font-family="Helvetica,sans-Serif" font-size="10.00">+ Desc</text>
<polyline fill="none" stroke="black" points="701.5,-774.5 778.5,-774.5 "/>
<text text-anchor="start" x="709.5" y="-762.5" font-family="Helvetica,sans-Serif" font-size="10.00">+ applyBuffs()</text>
<text text-anchor="start" x="709.5" y="-751.5" font-family="Helvetica,sans-Serif" font-size="10.00">+ revertBuffs()</text>
</a>
</g>
</g>
<!-- Node12&#45;&gt;Node22 -->
<g id="edge21" class="edge"><title>Node12&#45;&gt;Node22</title>
<path fill="none" stroke="#404040" d="M196.607,-1006.97C257.497,-1003.24 440.725,-986.963 575,-922 620.758,-899.862 664.637,-862.373 695.628,-832.202"/>
<polygon fill="none" stroke="#404040" points="695.889,-831.944 697.34,-824.881 704.419,-823.503 702.967,-830.567 695.889,-831.944"/>
<text text-anchor="middle" x="547" y="-954" font-family="Helvetica,sans-Serif" font-size="10.00"> #desc</text>
<text text-anchor="middle" x="547" y="-943" font-family="Helvetica,sans-Serif" font-size="10.00">#name</text>
</g>
<!-- Node13&#45;&gt;Node11 -->
<g id="edge2" class="edge"><title>Node13&#45;&gt;Node11</title>
<path fill="none" stroke="#404040" d="M334.213,-499.465C288.828,-523.158 223.056,-565.504 192,-624 157.674,-688.654 160.714,-775.744 167.363,-830.117"/>
<polygon fill="none" stroke="#404040" points="167.388,-830.306 172.142,-835.728 168.966,-842.202 164.212,-836.78 167.388,-830.306"/>
<text text-anchor="middle" x="209" y="-678" font-family="Helvetica,sans-Serif" font-size="10.00"> #target</text>
<text text-anchor="middle" x="209" y="-667" font-family="Helvetica,sans-Serif" font-size="10.00">#user</text>
</g>
<!-- Node19 -->
<g id="node9" class="node"><title>Node19</title>
<g id="a_node9"><a xlink:href="class_enemy.html" target="_top" xlink:title="Defines an AI controller enemy to fight in battle scenes">
<polygon fill="none" stroke="black" points="360.5,-265 360.5,-322 427.5,-322 427.5,-265 360.5,-265"/>
<text text-anchor="middle" x="394" y="-310" font-family="Helvetica,sans-Serif" font-size="10.00">Enemy</text>
<polyline fill="none" stroke="black" points="360.5,-303 427.5,-303 "/>
<text text-anchor="start" x="368.5" y="-291" font-family="Helvetica,sans-Serif" font-size="10.00">+ ExpGiven</text>
<polyline fill="none" stroke="black" points="360.5,-284 427.5,-284 "/>
<text text-anchor="start" x="368.5" y="-272" font-family="Helvetica,sans-Serif" font-size="10.00">+ Enemy()</text>
</a>
</g>
</g>
<!-- Node13&#45;&gt;Node19 -->
<g id="edge14" class="edge"><title>Node13&#45;&gt;Node19</title>
<path fill="none" stroke="midnightblue" d="M388.505,-377.378C389.854,-357.039 391.168,-337.217 392.173,-322.061"/>
<polygon fill="none" stroke="midnightblue" points="385.011,-377.176 387.842,-387.386 391.996,-377.639 385.011,-377.176"/>
</g>
<!-- Node21 -->
<g id="node11" class="node"><title>Node21</title>
<g id="a_node11"><a xlink:href="class_player.html" target="_top" xlink:title="Defines a playable character for use in battle scenes">
<polygon fill="none" stroke="black" points="446,-237.5 446,-349.5 558,-349.5 558,-237.5 446,-237.5"/>
<text text-anchor="middle" x="502" y="-337.5" font-family="Helvetica,sans-Serif" font-size="10.00">Player</text>
<polyline fill="none" stroke="black" points="446,-330.5 558,-330.5 "/>
<text text-anchor="start" x="454" y="-318.5" font-family="Helvetica,sans-Serif" font-size="10.00">+ Exp</text>
<text text-anchor="start" x="454" y="-307.5" font-family="Helvetica,sans-Serif" font-size="10.00">+ Item</text>
<text text-anchor="start" x="454" y="-296.5" font-family="Helvetica,sans-Serif" font-size="10.00">+ ExpToNextLevel</text>
<polyline fill="none" stroke="black" points="446,-289.5 558,-289.5 "/>
<text text-anchor="start" x="454" y="-277.5" font-family="Helvetica,sans-Serif" font-size="10.00">+ Player()</text>
<text text-anchor="start" x="454" y="-266.5" font-family="Helvetica,sans-Serif" font-size="10.00">+ gainExp()</text>
<text text-anchor="start" x="454" y="-255.5" font-family="Helvetica,sans-Serif" font-size="10.00">+ levelUp()</text>
<text text-anchor="start" x="454" y="-244.5" font-family="Helvetica,sans-Serif" font-size="10.00">&#45; setExpToNextLevel()</text>
</a>
</g>
</g>
<!-- Node13&#45;&gt;Node21 -->
<g id="edge19" class="edge"><title>Node13&#45;&gt;Node21</title>
<path fill="none" stroke="midnightblue" d="M435.224,-395.22C445.412,-379.854 455.863,-364.09 465.383,-349.731"/>
<polygon fill="none" stroke="midnightblue" points="432.208,-393.435 429.6,-403.704 438.042,-397.303 432.208,-393.435"/>
</g>
<!-- Node14 -->
<g id="node4" class="node"><title>Node14</title>
<polygon fill="none" stroke="#bfbfbf" points="537.5,-853.5 537.5,-910.5 566.5,-910.5 566.5,-853.5 537.5,-853.5"/>
<text text-anchor="middle" x="552" y="-898.5" font-family="Helvetica,sans-Serif" font-size="10.00">int</text>
<polyline fill="none" stroke="#bfbfbf" points="537.5,-891.5 566.5,-891.5 "/>
<text text-anchor="middle" x="552" y="-879.5" font-family="Helvetica,sans-Serif" font-size="10.00"> </text>
<polyline fill="none" stroke="#bfbfbf" points="537.5,-872.5 566.5,-872.5 "/>
<text text-anchor="middle" x="552" y="-860.5" font-family="Helvetica,sans-Serif" font-size="10.00"> </text>
</g>
<!-- Node14&#45;&gt;Node13 -->
<g id="edge4" class="edge"><title>Node14&#45;&gt;Node13</title>
<path fill="none" stroke="#404040" d="M537.49,-859.511C518.304,-830.333 484.428,-776.065 463,-726 437.104,-665.495 441.659,-646.487 421,-584 420.258,-581.757 419.5,-579.489 418.73,-577.206"/>
<polygon fill="none" stroke="#404040" points="418.671,-577.035 412.942,-572.656 414.781,-565.683 420.51,-570.062 418.671,-577.035"/>
<text text-anchor="middle" x="500.5" y="-711" font-family="Helvetica,sans-Serif" font-size="10.00"> #speed</text>
<text text-anchor="middle" x="500.5" y="-700" font-family="Helvetica,sans-Serif" font-size="10.00">#luck</text>
<text text-anchor="middle" x="500.5" y="-689" font-family="Helvetica,sans-Serif" font-size="10.00">#health</text>
<text text-anchor="middle" x="500.5" y="-678" font-family="Helvetica,sans-Serif" font-size="10.00">#magic</text>
<text text-anchor="middle" x="500.5" y="-667" font-family="Helvetica,sans-Serif" font-size="10.00">#maximumMagic</text>
<text text-anchor="middle" x="500.5" y="-656" font-family="Helvetica,sans-Serif" font-size="10.00">#attack</text>
<text text-anchor="middle" x="500.5" y="-645" font-family="Helvetica,sans-Serif" font-size="10.00">#defence</text>
<text text-anchor="middle" x="500.5" y="-634" font-family="Helvetica,sans-Serif" font-size="10.00">#level</text>
</g>
<!-- Node14&#45;&gt;Node15 -->
<g id="edge9" class="edge"><title>Node14&#45;&gt;Node15</title>
<path fill="none" stroke="#404040" d="M537.332,-878.276C508.653,-872.388 444.102,-856.318 400,-824 367.964,-800.525 340.18,-765.938 319.841,-736.102"/>
<polygon fill="none" stroke="#404040" points="319.614,-735.761 312.959,-732.984 312.963,-725.772 319.618,-728.549 319.614,-735.761"/>
<text text-anchor="middle" x="417.5" y="-781.5" font-family="Helvetica,sans-Serif" font-size="10.00"> #magic</text>
</g>
<!-- Node14&#45;&gt;Node18 -->
<g id="edge16" class="edge"><title>Node14&#45;&gt;Node18</title>
<path fill="none" stroke="#404040" d="M564.586,-853.337C566.606,-849.46 568.77,-845.58 571,-842 576.359,-833.398 579.146,-832.273 585,-824 630.151,-760.197 680,-754.163 680,-676 680,-676 680,-676 680,-292.5 680,-204.437 581.907,-148.457 511.671,-119.662"/>
<polygon fill="none" stroke="#404040" points="511.371,-119.542 504.317,-121.04 500.221,-115.104 507.275,-113.607 511.371,-119.542"/>
<text text-anchor="middle" x="699.5" y="-474" font-family="Helvetica,sans-Serif" font-size="10.00"> +money</text>
</g>
<!-- Node14&#45;&gt;Node19 -->
<g id="edge15" class="edge"><title>Node14&#45;&gt;Node19</title>
<path fill="none" stroke="#404040" d="M553.577,-853.18C555.594,-805.554 556.843,-705.636 538,-624 536.393,-617.038 440.924,-393.52 438,-387 430.017,-369.202 420.797,-349.675 412.866,-333.167"/>
<polygon fill="none" stroke="#404040" points="412.827,-333.086 406.617,-329.421 407.612,-322.279 413.822,-325.944 412.827,-333.086"/>
<text text-anchor="middle" x="554" y="-592.5" font-family="Helvetica,sans-Serif" font-size="10.00"> &#45;expGiven</text>
</g>
<!-- Node14&#45;&gt;Node21 -->
<g id="edge22" class="edge"><title>Node14&#45;&gt;Node21</title>
<path fill="none" stroke="#404040" d="M560.141,-853.409C562.507,-844.148 564.78,-833.706 566,-824 591.328,-622.451 592.465,-562.837 535,-368 534.332,-365.736 533.609,-363.451 532.841,-361.158"/>
<polygon fill="none" stroke="#404040" points="532.769,-360.96 526.96,-356.686 528.671,-349.681 534.479,-353.954 532.769,-360.96"/>
<text text-anchor="middle" x="620.5" y="-598" font-family="Helvetica,sans-Serif" font-size="10.00"> &#45;expToNextLevel</text>
<text text-anchor="middle" x="620.5" y="-587" font-family="Helvetica,sans-Serif" font-size="10.00">&#45;exp</text>
</g>
<!-- Node15&#45;&gt;Node13 -->
<g id="edge5" class="edge"><title>Node15&#45;&gt;Node13</title>
<path fill="none" stroke="#404040" d="M308.73,-624.415C316.032,-609.772 324.297,-593.2 332.578,-576.596"/>
<polygon fill="none" stroke="#404040" points="332.656,-576.439 331.755,-569.284 338.012,-565.7 338.914,-572.855 332.656,-576.439"/>
<text text-anchor="middle" x="350.5" y="-598" font-family="Helvetica,sans-Serif" font-size="10.00"> #special1</text>
<text text-anchor="middle" x="350.5" y="-587" font-family="Helvetica,sans-Serif" font-size="10.00">#special2</text>
</g>
<!-- Node16 -->
<g id="node6" class="node"><title>Node16</title>
<polygon fill="none" stroke="#bfbfbf" points="237.5,-853.5 237.5,-910.5 272.5,-910.5 272.5,-853.5 237.5,-853.5"/>
<text text-anchor="middle" x="255" y="-898.5" font-family="Helvetica,sans-Serif" font-size="10.00">float</text>
<polyline fill="none" stroke="#bfbfbf" points="237.5,-891.5 272.5,-891.5 "/>
<text text-anchor="middle" x="255" y="-879.5" font-family="Helvetica,sans-Serif" font-size="10.00"> </text>
<polyline fill="none" stroke="#bfbfbf" points="237.5,-872.5 272.5,-872.5 "/>
<text text-anchor="middle" x="255" y="-860.5" font-family="Helvetica,sans-Serif" font-size="10.00"> </text>
</g>
<!-- Node16&#45;&gt;Node15 -->
<g id="edge8" class="edge"><title>Node16&#45;&gt;Node15</title>
<path fill="none" stroke="#404040" d="M252.143,-853.391C249.968,-825.495 248.478,-781.306 256,-744 256.435,-741.841 256.939,-739.664 257.5,-737.482"/>
<polygon fill="none" stroke="#404040" points="257.547,-737.325 255.432,-730.431 260.983,-725.827 263.097,-732.721 257.547,-737.325"/>
<text text-anchor="middle" x="276" y="-781.5" font-family="Helvetica,sans-Serif" font-size="10.00"> #special</text>
</g>
<!-- Node17 -->
<g id="node7" class="node"><title>Node17</title>
<polygon fill="none" stroke="#bfbfbf" points="351.5,-646.5 351.5,-703.5 412.5,-703.5 412.5,-646.5 351.5,-646.5"/>
<text text-anchor="middle" x="382" y="-691.5" font-family="Helvetica,sans-Serif" font-size="10.00">Texture2D</text>
<polyline fill="none" stroke="#bfbfbf" points="351.5,-684.5 412.5,-684.5 "/>
<text text-anchor="middle" x="382" y="-672.5" font-family="Helvetica,sans-Serif" font-size="10.00"> </text>
<polyline fill="none" stroke="#bfbfbf" points="351.5,-665.5 412.5,-665.5 "/>
<text text-anchor="middle" x="382" y="-653.5" font-family="Helvetica,sans-Serif" font-size="10.00"> </text>
</g>
<!-- Node17&#45;&gt;Node13 -->
<g id="edge10" class="edge"><title>Node17&#45;&gt;Node13</title>
<path fill="none" stroke="#404040" d="M382,-646.263C382,-627.998 382,-602.86 382,-577.562"/>
<polygon fill="none" stroke="#404040" points="382,-577.557 378,-571.557 382,-565.557 386,-571.557 382,-577.557"/>
<text text-anchor="middle" x="399.5" y="-592.5" font-family="Helvetica,sans-Serif" font-size="10.00"> #image</text>
</g>
<!-- Node18&#45;&gt;Node11 -->
<g id="edge11" class="edge"><title>Node18&#45;&gt;Node11</title>
<path fill="none" stroke="#404040" d="M383.914,-106.226C295.421,-125.518 137,-176.285 137,-292.5 137,-596 137,-596 137,-596 137,-697.893 142.648,-723.773 161,-824 161.391,-826.134 161.82,-828.306 162.278,-830.494"/>
<polygon fill="none" stroke="#404040" points="162.288,-830.538 167.521,-835.498 164.955,-842.237 159.721,-837.276 162.288,-830.538"/>
<text text-anchor="middle" x="160" y="-474" font-family="Helvetica,sans-Serif" font-size="10.00"> #manager</text>
</g>
<!-- Node19&#45;&gt;Node18 -->
<g id="edge13" class="edge"><title>Node19&#45;&gt;Node18</title>
<path fill="none" stroke="#404040" d="M400.775,-264.763C404.909,-247.839 410.485,-225.016 416.197,-201.632"/>
<polygon fill="none" stroke="#404040" points="416.25,-201.414 413.788,-194.637 419.097,-189.757 421.559,-196.535 416.25,-201.414"/>
<text text-anchor="middle" x="432" y="-211" font-family="Helvetica,sans-Serif" font-size="10.00"> &#45;enemy</text>
</g>
<!-- Node20 -->
<g id="node10" class="node"><title>Node20</title>
<polygon fill="none" stroke="#bfbfbf" points="576.5,-265 576.5,-322 611.5,-322 611.5,-265 576.5,-265"/>
<text text-anchor="middle" x="594" y="-310" font-family="Helvetica,sans-Serif" font-size="10.00">bool</text>
<polyline fill="none" stroke="#bfbfbf" points="576.5,-303 611.5,-303 "/>
<text text-anchor="middle" x="594" y="-291" font-family="Helvetica,sans-Serif" font-size="10.00"> </text>
<polyline fill="none" stroke="#bfbfbf" points="576.5,-284 611.5,-284 "/>
<text text-anchor="middle" x="594" y="-272" font-family="Helvetica,sans-Serif" font-size="10.00"> </text>
</g>
<!-- Node20&#45;&gt;Node18 -->
<g id="edge17" class="edge"><title>Node20&#45;&gt;Node18</title>
<path fill="none" stroke="#404040" d="M582.374,-264.867C578.049,-255.703 572.774,-245.642 567,-237 549.988,-211.54 528.705,-185.847 508.549,-163.496"/>
<polygon fill="none" stroke="#404040" points="508.387,-163.319 501.387,-161.586 500.296,-154.458 507.295,-156.191 508.387,-163.319"/>
<text text-anchor="middle" x="586" y="-211" font-family="Helvetica,sans-Serif" font-size="10.00"> &#45;wasCriticalHit</text>
</g>
<!-- Node21&#45;&gt;Node18 -->
<g id="edge18" class="edge"><title>Node21&#45;&gt;Node18</title>
<path fill="none" stroke="#404040" d="M485.127,-237.241C481.651,-225.856 477.881,-213.511 474.067,-201.02"/>
<polygon fill="none" stroke="#404040" points="474.063,-201.007 468.485,-196.437 470.559,-189.53 476.137,-194.101 474.063,-201.007"/>
<text text-anchor="middle" x="496.5" y="-211" font-family="Helvetica,sans-Serif" font-size="10.00"> &#45;player</text>
</g>
<!-- Node22&#45;&gt;Node21 -->
<g id="edge20" class="edge"><title>Node22&#45;&gt;Node21</title>
<path fill="none" stroke="#404040" d="M751.956,-744.481C773.41,-666.969 808.676,-490.721 723,-387 680.013,-334.959 635.498,-377.257 569.561,-350.309"/>
<polygon fill="none" stroke="#404040" points="569.243,-350.162 562.119,-351.282 558.346,-345.136 565.47,-344.017 569.243,-350.162"/>
<text text-anchor="middle" x="789.5" y="-592.5" font-family="Helvetica,sans-Serif" font-size="10.00"> &#45;item</text>
</g>
</g>
</svg>
