<?xml version="1.0" encoding="UTF-8" standalone="no"?>
<!DOCTYPE svg PUBLIC "-//W3C//DTD SVG 1.1//EN"
 "http://www.w3.org/Graphics/SVG/1.1/DTD/svg11.dtd">
<!-- Generated by graphviz version 2.38.0 (20140413.2041)
 -->
<!-- Title: GoldenArmour Pages: 1 -->
<svg width="102pt" height="321pt"
 viewBox="0.00 0.00 102.00 321.00" xmlns="http://www.w3.org/2000/svg" xmlns:xlink="http://www.w3.org/1999/xlink">
<g id="graph0" class="graph" transform="scale(1 1) rotate(0) translate(4 317)">
<title>GoldenArmour</title>
<!-- Node2 -->
<g id="node1" class="node"><title>Node2</title>
<polygon fill="#bfbfbf" stroke="black" points="0,-0.5 0,-79.5 94,-79.5 94,-0.5 0,-0.5"/>
<text text-anchor="middle" x="47" y="-67.5" font-family="Helvetica,sans-Serif" font-size="10.00">GoldenArmour</text>
<polyline fill="none" stroke="black" points="0,-60.5 94,-60.5 "/>
<text text-anchor="middle" x="47" y="-48.5" font-family="Helvetica,sans-Serif" font-size="10.00"> </text>
<polyline fill="none" stroke="black" points="0,-41.5 94,-41.5 "/>
<text text-anchor="start" x="8" y="-29.5" font-family="Helvetica,sans-Serif" font-size="10.00">+ GoldenArmour()</text>
<text text-anchor="start" x="8" y="-18.5" font-family="Helvetica,sans-Serif" font-size="10.00">+ applyBuffs()</text>
<text text-anchor="start" x="8" y="-7.5" font-family="Helvetica,sans-Serif" font-size="10.00">+ revertBuffs()</text>
</g>
<!-- Node3 -->
<g id="node2" class="node"><title>Node3</title>
<g id="a_node2"><a xlink:href="class_item.html" target="_top" xlink:title="Abstract class for items that can be equipped to a player, increasing some of their stats ...">
<polygon fill="none" stroke="black" points="8.5,-117.5 8.5,-196.5 85.5,-196.5 85.5,-117.5 8.5,-117.5"/>
<text text-anchor="middle" x="47" y="-184.5" font-family="Helvetica,sans-Serif" font-size="10.00">Item</text>
<polyline fill="none" stroke="black" points="8.5,-177.5 85.5,-177.5 "/>
<text text-anchor="start" x="16.5" y="-165.5" font-family="Helvetica,sans-Serif" font-size="10.00">+ Name</text>
<text text-anchor="start" x="16.5" y="-154.5" font-family="Helvetica,sans-Serif" font-size="10.00">+ Desc</text>
<polyline fill="none" stroke="black" points="8.5,-147.5 85.5,-147.5 "/>
<text text-anchor="start" x="16.5" y="-135.5" font-family="Helvetica,sans-Serif" font-size="10.00">+ applyBuffs()</text>
<text text-anchor="start" x="16.5" y="-124.5" font-family="Helvetica,sans-Serif" font-size="10.00">+ revertBuffs()</text>
</a>
</g>
</g>
<!-- Node3&#45;&gt;Node2 -->
<g id="edge1" class="edge"><title>Node3&#45;&gt;Node2</title>
<path fill="none" stroke="midnightblue" d="M47,-107.199C47,-98.016 47,-88.5299 47,-79.7071"/>
<polygon fill="none" stroke="midnightblue" points="43.5001,-107.387 47,-117.387 50.5001,-107.387 43.5001,-107.387"/>
</g>
<!-- Node4 -->
<g id="node3" class="node"><title>Node4</title>
<polygon fill="none" stroke="#bfbfbf" points="26.5,-255.5 26.5,-312.5 67.5,-312.5 67.5,-255.5 26.5,-255.5"/>
<text text-anchor="middle" x="47" y="-300.5" font-family="Helvetica,sans-Serif" font-size="10.00">string</text>
<polyline fill="none" stroke="#bfbfbf" points="26.5,-293.5 67.5,-293.5 "/>
<text text-anchor="middle" x="47" y="-281.5" font-family="Helvetica,sans-Serif" font-size="10.00"> </text>
<polyline fill="none" stroke="#bfbfbf" points="26.5,-274.5 67.5,-274.5 "/>
<text text-anchor="middle" x="47" y="-262.5" font-family="Helvetica,sans-Serif" font-size="10.00"> </text>
</g>
<!-- Node4&#45;&gt;Node3 -->
<g id="edge2" class="edge"><title>Node4&#45;&gt;Node3</title>
<path fill="none" stroke="#404040" d="M47,-255.258C47,-241.637 47,-224.787 47,-208.96"/>
<polygon fill="none" stroke="#404040" points="47.0001,-208.567 43,-202.567 47,-196.567 51,-202.567 47.0001,-208.567"/>
<text text-anchor="middle" x="62" y="-229" font-family="Helvetica,sans-Serif" font-size="10.00"> #desc</text>
<text text-anchor="middle" x="62" y="-218" font-family="Helvetica,sans-Serif" font-size="10.00">#name</text>
</g>
</g>
</svg>
