<?xml version="1.0" encoding="UTF-8" standalone="no"?>
<!DOCTYPE svg PUBLIC "-//W3C//DTD SVG 1.1//EN"
 "http://www.w3.org/Graphics/SVG/1.1/DTD/svg11.dtd">
<!-- Generated by graphviz version 2.38.0 (20140413.2041)
 -->
<!-- Title: DataManager Pages: 1 -->
<svg width="697pt" height="1418pt"
 viewBox="0.00 0.00 696.50 1418.00" xmlns="http://www.w3.org/2000/svg" xmlns:xlink="http://www.w3.org/1999/xlink">
<g id="graph0" class="graph" transform="scale(1 1) rotate(0) translate(4 1414)">
<title>DataManager</title>
<!-- Node1 -->
<g id="node1" class="node"><title>Node1</title>
<polygon fill="#bfbfbf" stroke="black" points="37.5,-685.5 37.5,-995.5 189.5,-995.5 189.5,-685.5 37.5,-685.5"/>
<text text-anchor="middle" x="113.5" y="-983.5" font-family="Helvetica,sans-Serif" font-size="10.00">DataManager</text>
<polyline fill="none" stroke="black" points="37.5,-976.5 189.5,-976.5 "/>
<text text-anchor="start" x="45.5" y="-964.5" font-family="Helvetica,sans-Serif" font-size="10.00">+ Players</text>
<text text-anchor="start" x="45.5" y="-953.5" font-family="Helvetica,sans-Serif" font-size="10.00">+ Items</text>
<text text-anchor="start" x="45.5" y="-942.5" font-family="Helvetica,sans-Serif" font-size="10.00">+ Money</text>
<polyline fill="none" stroke="black" points="37.5,-935.5 189.5,-935.5 "/>
<text text-anchor="start" x="45.5" y="-923.5" font-family="Helvetica,sans-Serif" font-size="10.00">+ DataManager()</text>
<text text-anchor="start" x="45.5" y="-912.5" font-family="Helvetica,sans-Serif" font-size="10.00">+ DataManager()</text>
<text text-anchor="start" x="45.5" y="-901.5" font-family="Helvetica,sans-Serif" font-size="10.00">+ getFirstPlayer()</text>
<text text-anchor="start" x="45.5" y="-890.5" font-family="Helvetica,sans-Serif" font-size="10.00">+ playersAlive()</text>
<text text-anchor="start" x="45.5" y="-879.5" font-family="Helvetica,sans-Serif" font-size="10.00">+ addPlayer()</text>
<text text-anchor="start" x="45.5" y="-868.5" font-family="Helvetica,sans-Serif" font-size="10.00">+ swapPlayers()</text>
<text text-anchor="start" x="45.5" y="-857.5" font-family="Helvetica,sans-Serif" font-size="10.00">+ addItem()</text>
<text text-anchor="start" x="45.5" y="-846.5" font-family="Helvetica,sans-Serif" font-size="10.00">+ countItems()</text>
<text text-anchor="start" x="45.5" y="-835.5" font-family="Helvetica,sans-Serif" font-size="10.00">+ Save()</text>
<text text-anchor="start" x="45.5" y="-824.5" font-family="Helvetica,sans-Serif" font-size="10.00">+ Load()</text>
<text text-anchor="start" x="45.5" y="-813.5" font-family="Helvetica,sans-Serif" font-size="10.00">+ PlayerToSerializable()</text>
<text text-anchor="start" x="45.5" y="-802.5" font-family="Helvetica,sans-Serif" font-size="10.00">+ SerializableToPLayer()</text>
<text text-anchor="start" x="45.5" y="-791.5" font-family="Helvetica,sans-Serif" font-size="10.00">+ ItemToSerializable()</text>
<text text-anchor="start" x="45.5" y="-780.5" font-family="Helvetica,sans-Serif" font-size="10.00">+ SerializableToItem()</text>
<text text-anchor="start" x="45.5" y="-769.5" font-family="Helvetica,sans-Serif" font-size="10.00">+ SpecialMoveToSerializable()</text>
<text text-anchor="start" x="45.5" y="-758.5" font-family="Helvetica,sans-Serif" font-size="10.00">+ SerializableToSpecialMove()</text>
<text text-anchor="start" x="45.5" y="-747.5" font-family="Helvetica,sans-Serif" font-size="10.00">+ ObjectsActiveToSerializable()</text>
<text text-anchor="start" x="45.5" y="-736.5" font-family="Helvetica,sans-Serif" font-size="10.00">+ SerializableToObjectsActive()</text>
<text text-anchor="start" x="45.5" y="-725.5" font-family="Helvetica,sans-Serif" font-size="10.00">+ Texture2DToSerializable()</text>
<text text-anchor="start" x="45.5" y="-714.5" font-family="Helvetica,sans-Serif" font-size="10.00">+ SerializableToTexture2D()</text>
<text text-anchor="start" x="45.5" y="-703.5" font-family="Helvetica,sans-Serif" font-size="10.00">+ VectorToSerializable()</text>
<text text-anchor="start" x="45.5" y="-692.5" font-family="Helvetica,sans-Serif" font-size="10.00">+ SerializableToVector()</text>
</g>
<!-- Node2 -->
<g id="node2" class="node"><title>Node2</title>
<g id="a_node2"><a xlink:href="class_item.html" target="_top" xlink:title="Abstract class for items that can be equipped to a player, increasing some of their stats ...">
<polygon fill="none" stroke="black" points="0,-1214.5 0,-1293.5 77,-1293.5 77,-1214.5 0,-1214.5"/>
<text text-anchor="middle" x="38.5" y="-1281.5" font-family="Helvetica,sans-Serif" font-size="10.00">Item</text>
<polyline fill="none" stroke="black" points="0,-1274.5 77,-1274.5 "/>
<text text-anchor="start" x="8" y="-1262.5" font-family="Helvetica,sans-Serif" font-size="10.00">+ Name</text>
<text text-anchor="start" x="8" y="-1251.5" font-family="Helvetica,sans-Serif" font-size="10.00">+ Desc</text>
<polyline fill="none" stroke="black" points="0,-1244.5 77,-1244.5 "/>
<text text-anchor="start" x="8" y="-1232.5" font-family="Helvetica,sans-Serif" font-size="10.00">+ applyBuffs()</text>
<text text-anchor="start" x="8" y="-1221.5" font-family="Helvetica,sans-Serif" font-size="10.00">+ revertBuffs()</text>
</a>
</g>
</g>
<!-- Node2&#45;&gt;Node1 -->
<g id="edge1" class="edge"><title>Node2&#45;&gt;Node1</title>
<path fill="none" stroke="#404040" d="M39.9,-1214.4C41.9204,-1172.06 46.6804,-1102.24 57.5,-1043 59.6161,-1031.41 62.095,-1019.53 64.8109,-1007.61"/>
<polygon fill="none" stroke="#404040" points="64.8671,-1007.37 62.3392,-1000.61 67.601,-995.682 70.1288,-1002.44 64.8671,-1007.37"/>
<text text-anchor="middle" x="73" y="-1097" font-family="Helvetica,sans-Serif" font-size="10.00"> &#45;items</text>
</g>
<!-- Node5 -->
<g id="node5" class="node"><title>Node5</title>
<g id="a_node5"><a xlink:href="class_player.html" target="_top" xlink:title="Defines a playable character for use in battle scenes">
<polygon fill="none" stroke="black" points="164.5,-1043.5 164.5,-1155.5 276.5,-1155.5 276.5,-1043.5 164.5,-1043.5"/>
<text text-anchor="middle" x="220.5" y="-1143.5" font-family="Helvetica,sans-Serif" font-size="10.00">Player</text>
<polyline fill="none" stroke="black" points="164.5,-1136.5 276.5,-1136.5 "/>
<text text-anchor="start" x="172.5" y="-1124.5" font-family="Helvetica,sans-Serif" font-size="10.00">+ Exp</text>
<text text-anchor="start" x="172.5" y="-1113.5" font-family="Helvetica,sans-Serif" font-size="10.00">+ Item</text>
<text text-anchor="start" x="172.5" y="-1102.5" font-family="Helvetica,sans-Serif" font-size="10.00">+ ExpToNextLevel</text>
<polyline fill="none" stroke="black" points="164.5,-1095.5 276.5,-1095.5 "/>
<text text-anchor="start" x="172.5" y="-1083.5" font-family="Helvetica,sans-Serif" font-size="10.00">+ Player()</text>
<text text-anchor="start" x="172.5" y="-1072.5" font-family="Helvetica,sans-Serif" font-size="10.00">+ gainExp()</text>
<text text-anchor="start" x="172.5" y="-1061.5" font-family="Helvetica,sans-Serif" font-size="10.00">+ levelUp()</text>
<text text-anchor="start" x="172.5" y="-1050.5" font-family="Helvetica,sans-Serif" font-size="10.00">&#45; setExpToNextLevel()</text>
</a>
</g>
</g>
<!-- Node2&#45;&gt;Node5 -->
<g id="edge24" class="edge"><title>Node2&#45;&gt;Node5</title>
<path fill="none" stroke="#404040" d="M77.0975,-1220.66C99.68,-1201.74 128.794,-1177.34 154.882,-1155.48"/>
<polygon fill="none" stroke="#404040" points="155.141,-1155.26 157.171,-1148.35 164.339,-1147.56 162.309,-1154.48 155.141,-1155.26"/>
<text text-anchor="middle" x="142" y="-1182.5" font-family="Helvetica,sans-Serif" font-size="10.00"> &#45;item</text>
</g>
<!-- Node3 -->
<g id="node3" class="node"><title>Node3</title>
<polygon fill="none" stroke="#bfbfbf" points="544,-1352.5 544,-1409.5 585,-1409.5 585,-1352.5 544,-1352.5"/>
<text text-anchor="middle" x="564.5" y="-1397.5" font-family="Helvetica,sans-Serif" font-size="10.00">string</text>
<polyline fill="none" stroke="#bfbfbf" points="544,-1390.5 585,-1390.5 "/>
<text text-anchor="middle" x="564.5" y="-1378.5" font-family="Helvetica,sans-Serif" font-size="10.00"> </text>
<polyline fill="none" stroke="#bfbfbf" points="544,-1371.5 585,-1371.5 "/>
<text text-anchor="middle" x="564.5" y="-1359.5" font-family="Helvetica,sans-Serif" font-size="10.00"> </text>
</g>
<!-- Node3&#45;&gt;Node2 -->
<g id="edge2" class="edge"><title>Node3&#45;&gt;Node2</title>
<path fill="none" stroke="#404040" d="M543.88,-1375.1C467.811,-1357.02 201.534,-1293.74 89.1523,-1267.04"/>
<polygon fill="none" stroke="#404040" points="88.8554,-1266.97 82.0931,-1269.47 77.1805,-1264.19 83.9428,-1261.69 88.8554,-1266.97"/>
<text text-anchor="middle" x="379.5" y="-1326" font-family="Helvetica,sans-Serif" font-size="10.00"> #desc</text>
<text text-anchor="middle" x="379.5" y="-1315" font-family="Helvetica,sans-Serif" font-size="10.00">#name</text>
</g>
<!-- Node6 -->
<g id="node6" class="node"><title>Node6</title>
<g id="a_node6"><a xlink:href="class_character.html" target="_top" xlink:title="Base abstract class for Enemy and Player to inherit from. Defines all shared variables, their constructor and their setters and getters ">
<polygon fill="none" stroke="black" points="371,-95.5 371,-273.5 466,-273.5 466,-95.5 371,-95.5"/>
<text text-anchor="middle" x="418.5" y="-261.5" font-family="Helvetica,sans-Serif" font-size="10.00">Character</text>
<polyline fill="none" stroke="black" points="371,-254.5 466,-254.5 "/>
<text text-anchor="start" x="379" y="-242.5" font-family="Helvetica,sans-Serif" font-size="10.00">+ Name</text>
<text text-anchor="start" x="379" y="-231.5" font-family="Helvetica,sans-Serif" font-size="10.00">+ Level</text>
<text text-anchor="start" x="379" y="-220.5" font-family="Helvetica,sans-Serif" font-size="10.00">+ Health</text>
<text text-anchor="start" x="379" y="-209.5" font-family="Helvetica,sans-Serif" font-size="10.00">+ Attack</text>
<text text-anchor="start" x="379" y="-198.5" font-family="Helvetica,sans-Serif" font-size="10.00">+ Defence</text>
<text text-anchor="start" x="379" y="-187.5" font-family="Helvetica,sans-Serif" font-size="10.00">+ MaximumMagic</text>
<text text-anchor="start" x="379" y="-176.5" font-family="Helvetica,sans-Serif" font-size="10.00">+ Magic</text>
<text text-anchor="start" x="379" y="-165.5" font-family="Helvetica,sans-Serif" font-size="10.00">+ Luck</text>
<text text-anchor="start" x="379" y="-154.5" font-family="Helvetica,sans-Serif" font-size="10.00">+ Speed</text>
<text text-anchor="start" x="379" y="-143.5" font-family="Helvetica,sans-Serif" font-size="10.00">+ Special1</text>
<text text-anchor="start" x="379" y="-132.5" font-family="Helvetica,sans-Serif" font-size="10.00">+ Special2</text>
<text text-anchor="start" x="379" y="-121.5" font-family="Helvetica,sans-Serif" font-size="10.00">+ Image</text>
<polyline fill="none" stroke="black" points="371,-114.5 466,-114.5 "/>
<text text-anchor="start" x="379" y="-102.5" font-family="Helvetica,sans-Serif" font-size="10.00"># Character()</text>
</a>
</g>
</g>
<!-- Node3&#45;&gt;Node6 -->
<g id="edge6" class="edge"><title>Node3&#45;&gt;Node6</title>
<path fill="none" stroke="#404040" d="M585.149,-1365.21C611.998,-1344.08 655.5,-1302.51 655.5,-1255 655.5,-1255 655.5,-1255 655.5,-382 655.5,-289.726 547.718,-232.542 477.524,-205.085"/>
<polygon fill="none" stroke="#404040" points="477.394,-205.036 470.364,-206.645 466.175,-200.775 473.205,-199.166 477.394,-205.036"/>
<text text-anchor="middle" x="672" y="-838" font-family="Helvetica,sans-Serif" font-size="10.00"> #name</text>
</g>
<!-- Node7 -->
<g id="node7" class="node"><title>Node7</title>
<g id="a_node7"><a xlink:href="class_special_move.html" target="_top" xlink:title="Special move abstract base class that expands upon CharacterMove, adding magic properties ...">
<polygon fill="none" stroke="black" points="467.5,-332.5 467.5,-433.5 565.5,-433.5 565.5,-332.5 467.5,-332.5"/>
<text text-anchor="middle" x="516.5" y="-421.5" font-family="Helvetica,sans-Serif" font-size="10.00">SpecialMove</text>
<polyline fill="none" stroke="black" points="467.5,-414.5 565.5,-414.5 "/>
<text text-anchor="start" x="475.5" y="-402.5" font-family="Helvetica,sans-Serif" font-size="10.00">+ Magic</text>
<text text-anchor="start" x="475.5" y="-391.5" font-family="Helvetica,sans-Serif" font-size="10.00">+ Desc</text>
<text text-anchor="start" x="475.5" y="-380.5" font-family="Helvetica,sans-Serif" font-size="10.00">+ Special</text>
<polyline fill="none" stroke="black" points="467.5,-373.5 565.5,-373.5 "/>
<text text-anchor="start" x="475.5" y="-361.5" font-family="Helvetica,sans-Serif" font-size="10.00">+ setUp()</text>
<text text-anchor="start" x="475.5" y="-350.5" font-family="Helvetica,sans-Serif" font-size="10.00">+ decreaseMagic()</text>
<text text-anchor="start" x="475.5" y="-339.5" font-family="Helvetica,sans-Serif" font-size="10.00"># SpecialMove()</text>
</a>
</g>
</g>
<!-- Node3&#45;&gt;Node7 -->
<g id="edge20" class="edge"><title>Node3&#45;&gt;Node7</title>
<path fill="none" stroke="#404040" d="M576.81,-1352.18C579.017,-1346.27 581.068,-1340.01 582.5,-1334 600.935,-1256.7 595.718,-1235.38 599.5,-1156 606.96,-999.416 620.369,-732.664 595.5,-579 586.024,-520.449 578.193,-506.375 554.5,-452 553.425,-449.532 552.287,-447.037 551.102,-444.533"/>
<polygon fill="none" stroke="#404040" points="550.994,-444.315 544.746,-440.716 545.664,-433.564 551.913,-437.163 550.994,-444.315"/>
<text text-anchor="middle" x="620.5" y="-1017" font-family="Helvetica,sans-Serif" font-size="10.00"> #desc</text>
</g>
<!-- Node8 -->
<g id="node8" class="node"><title>Node8</title>
<g id="a_node8"><a xlink:href="class_character_move.html" target="_top" xlink:title="Astract base class for character moves ">
<polygon fill="none" stroke="black" points="326.5,-481.5 326.5,-560.5 412.5,-560.5 412.5,-481.5 326.5,-481.5"/>
<text text-anchor="middle" x="369.5" y="-548.5" font-family="Helvetica,sans-Serif" font-size="10.00">CharacterMove</text>
<polyline fill="none" stroke="black" points="326.5,-541.5 412.5,-541.5 "/>
<text text-anchor="start" x="334.5" y="-529.5" font-family="Helvetica,sans-Serif" font-size="10.00">+ User</text>
<text text-anchor="start" x="334.5" y="-518.5" font-family="Helvetica,sans-Serif" font-size="10.00">+ Target</text>
<text text-anchor="start" x="334.5" y="-507.5" font-family="Helvetica,sans-Serif" font-size="10.00">+ Text</text>
<polyline fill="none" stroke="black" points="326.5,-500.5 412.5,-500.5 "/>
<text text-anchor="start" x="334.5" y="-488.5" font-family="Helvetica,sans-Serif" font-size="10.00">+ performMove()</text>
</a>
</g>
</g>
<!-- Node3&#45;&gt;Node8 -->
<g id="edge10" class="edge"><title>Node3&#45;&gt;Node8</title>
<path fill="none" stroke="#404040" d="M566.78,-1352.24C573.635,-1255.92 588.028,-928.633 491.5,-685 474.45,-641.966 442.92,-600.307 416.185,-569.877"/>
<polygon fill="none" stroke="#404040" points="416.067,-569.745 409.085,-567.943 408.063,-560.804 415.046,-562.607 416.067,-569.745"/>
<text text-anchor="middle" x="583" y="-1097" font-family="Helvetica,sans-Serif" font-size="10.00"> #text</text>
</g>
<!-- Node9 -->
<g id="node9" class="node"><title>Node9</title>
<g id="a_node9"><a xlink:href="class_battle_manager.html" target="_top" xlink:title="Holds current Player and Enemy objects in battle and provides functions for MainBattle and other obje...">
<polygon fill="none" stroke="black" points="278.5,-746 278.5,-935 394.5,-935 394.5,-746 278.5,-746"/>
<text text-anchor="middle" x="336.5" y="-923" font-family="Helvetica,sans-Serif" font-size="10.00">BattleManager</text>
<polyline fill="none" stroke="black" points="278.5,-916 394.5,-916 "/>
<text text-anchor="start" x="286.5" y="-904" font-family="Helvetica,sans-Serif" font-size="10.00">+ Player</text>
<text text-anchor="start" x="286.5" y="-893" font-family="Helvetica,sans-Serif" font-size="10.00">+ Enemy</text>
<text text-anchor="start" x="286.5" y="-882" font-family="Helvetica,sans-Serif" font-size="10.00">+ WasCriticalHit</text>
<polyline fill="none" stroke="black" points="278.5,-875 394.5,-875 "/>
<text text-anchor="start" x="286.5" y="-863" font-family="Helvetica,sans-Serif" font-size="10.00">+ BattleManager()</text>
<text text-anchor="start" x="286.5" y="-852" font-family="Helvetica,sans-Serif" font-size="10.00">+ playerFirst()</text>
<text text-anchor="start" x="286.5" y="-841" font-family="Helvetica,sans-Serif" font-size="10.00">+ switchPlayers()</text>
<text text-anchor="start" x="286.5" y="-830" font-family="Helvetica,sans-Serif" font-size="10.00">+ isCriticalHit()</text>
<text text-anchor="start" x="286.5" y="-819" font-family="Helvetica,sans-Serif" font-size="10.00">+ ranAway()</text>
<text text-anchor="start" x="286.5" y="-808" font-family="Helvetica,sans-Serif" font-size="10.00">+ damageCalculation()</text>
<text text-anchor="start" x="286.5" y="-797" font-family="Helvetica,sans-Serif" font-size="10.00">+ enemyMove()</text>
<text text-anchor="start" x="286.5" y="-786" font-family="Helvetica,sans-Serif" font-size="10.00">+ enemySpecialMove()</text>
<text text-anchor="start" x="286.5" y="-775" font-family="Helvetica,sans-Serif" font-size="10.00">+ battleWon()</text>
<text text-anchor="start" x="286.5" y="-764" font-family="Helvetica,sans-Serif" font-size="10.00">+ playerFainted()</text>
<text text-anchor="start" x="286.5" y="-753" font-family="Helvetica,sans-Serif" font-size="10.00">&#45; characterFainted()</text>
</a>
</g>
</g>
<!-- Node3&#45;&gt;Node9 -->
<g id="edge13" class="edge"><title>Node3&#45;&gt;Node9</title>
<path fill="none" stroke="#404040" d="M547.316,-1352.21C526.07,-1316.93 489.862,-1253.7 466.5,-1196 439.946,-1130.42 446.21,-1109.67 422.5,-1043 411.177,-1011.16 397.356,-977.156 384.134,-946.319"/>
<polygon fill="none" stroke="#404040" points="384.052,-946.129 378.001,-942.206 379.295,-935.112 385.346,-939.035 384.052,-946.129"/>
<text text-anchor="middle" x="508.5" y="-1188" font-family="Helvetica,sans-Serif" font-size="10.00"> +forceEnemyMove</text>
<text text-anchor="middle" x="508.5" y="-1177" font-family="Helvetica,sans-Serif" font-size="10.00">+forceCriticalHits</text>
</g>
<!-- Node4 -->
<g id="node4" class="node"><title>Node4</title>
<polygon fill="none" stroke="#bfbfbf" points="293,-1225.5 293,-1282.5 322,-1282.5 322,-1225.5 293,-1225.5"/>
<text text-anchor="middle" x="307.5" y="-1270.5" font-family="Helvetica,sans-Serif" font-size="10.00">int</text>
<polyline fill="none" stroke="#bfbfbf" points="293,-1263.5 322,-1263.5 "/>
<text text-anchor="middle" x="307.5" y="-1251.5" font-family="Helvetica,sans-Serif" font-size="10.00"> </text>
<polyline fill="none" stroke="#bfbfbf" points="293,-1244.5 322,-1244.5 "/>
<text text-anchor="middle" x="307.5" y="-1232.5" font-family="Helvetica,sans-Serif" font-size="10.00"> </text>
</g>
<!-- Node4&#45;&gt;Node1 -->
<g id="edge3" class="edge"><title>Node4&#45;&gt;Node1</title>
<path fill="none" stroke="#404040" d="M292.826,-1250.6C255.908,-1243.67 159.287,-1219.92 119.5,-1156 92.4491,-1112.54 84.4034,-1058.74 85.0718,-1008"/>
<polygon fill="none" stroke="#404040" points="85.0755,-1007.86 81.2368,-1001.76 85.3953,-995.867 89.234,-1001.97 85.0755,-1007.86"/>
<text text-anchor="middle" x="137.5" y="-1097" font-family="Helvetica,sans-Serif" font-size="10.00"> &#45;money</text>
</g>
<!-- Node4&#45;&gt;Node5 -->
<g id="edge25" class="edge"><title>Node4&#45;&gt;Node5</title>
<path fill="none" stroke="#404040" d="M292.938,-1227.47C283.335,-1210.64 270.289,-1187.77 257.914,-1166.08"/>
<polygon fill="none" stroke="#404040" points="257.857,-1165.98 251.409,-1162.75 251.91,-1155.56 258.358,-1158.79 257.857,-1165.98"/>
<text text-anchor="middle" x="312" y="-1188" font-family="Helvetica,sans-Serif" font-size="10.00"> &#45;expToNextLevel</text>
<text text-anchor="middle" x="312" y="-1177" font-family="Helvetica,sans-Serif" font-size="10.00">&#45;exp</text>
</g>
<!-- Node4&#45;&gt;Node6 -->
<g id="edge7" class="edge"><title>Node4&#45;&gt;Node6</title>
<path fill="none" stroke="#404040" d="M322.268,-1251.36C366.928,-1246.09 499.117,-1227.99 525.5,-1196 532.248,-1187.82 574.16,-444.6 574.5,-434 575.955,-388.69 592.504,-373.605 574.5,-332 554.472,-285.716 511.824,-247.327 476.175,-221.473"/>
<polygon fill="none" stroke="#404040" points="476.131,-221.442 468.923,-221.246 466.331,-214.517 473.539,-214.712 476.131,-221.442"/>
<text text-anchor="middle" x="603" y="-659" font-family="Helvetica,sans-Serif" font-size="10.00"> #speed</text>
<text text-anchor="middle" x="603" y="-648" font-family="Helvetica,sans-Serif" font-size="10.00">#luck</text>
<text text-anchor="middle" x="603" y="-637" font-family="Helvetica,sans-Serif" font-size="10.00">#health</text>
<text text-anchor="middle" x="603" y="-626" font-family="Helvetica,sans-Serif" font-size="10.00">#magic</text>
<text text-anchor="middle" x="603" y="-615" font-family="Helvetica,sans-Serif" font-size="10.00">#maximumMagic</text>
<text text-anchor="middle" x="603" y="-604" font-family="Helvetica,sans-Serif" font-size="10.00">#attack</text>
<text text-anchor="middle" x="603" y="-593" font-family="Helvetica,sans-Serif" font-size="10.00">#defence</text>
<text text-anchor="middle" x="603" y="-582" font-family="Helvetica,sans-Serif" font-size="10.00">#level</text>
</g>
<!-- Node4&#45;&gt;Node7 -->
<g id="edge22" class="edge"><title>Node4&#45;&gt;Node7</title>
<path fill="none" stroke="#404040" d="M322.3,-1245.19C347.28,-1231.12 397.255,-1198.94 419.5,-1156 454.169,-1089.08 471.568,-554.875 486.5,-481 488.857,-469.337 492.057,-457.081 495.491,-445.356"/>
<polygon fill="none" stroke="#404040" points="495.499,-445.332 493.412,-438.429 498.981,-433.848 501.068,-440.751 495.499,-445.332"/>
<text text-anchor="middle" x="487" y="-838" font-family="Helvetica,sans-Serif" font-size="10.00"> #magic</text>
</g>
<!-- Node4&#45;&gt;Node9 -->
<g id="edge17" class="edge"><title>Node4&#45;&gt;Node9</title>
<path fill="none" stroke="#404040" d="M322.222,-1238.99C332.515,-1228.25 345.607,-1212.52 352.5,-1196 383.851,-1120.85 382.086,-1094.97 373.5,-1014 371.197,-992.284 367.307,-969.284 362.893,-947.4"/>
<polygon fill="none" stroke="#404040" points="362.835,-947.121 357.698,-942.061 360.393,-935.372 365.53,-940.433 362.835,-947.121"/>
<text text-anchor="middle" x="399" y="-1097" font-family="Helvetica,sans-Serif" font-size="10.00"> +money</text>
</g>
<!-- Node10 -->
<g id="node10" class="node"><title>Node10</title>
<g id="a_node10"><a xlink:href="class_enemy.html" target="_top" xlink:title="Defines an AI controller enemy to fight in battle scenes">
<polygon fill="none" stroke="black" points="230,-0.5 230,-57.5 297,-57.5 297,-0.5 230,-0.5"/>
<text text-anchor="middle" x="263.5" y="-45.5" font-family="Helvetica,sans-Serif" font-size="10.00">Enemy</text>
<polyline fill="none" stroke="black" points="230,-38.5 297,-38.5 "/>
<text text-anchor="start" x="238" y="-26.5" font-family="Helvetica,sans-Serif" font-size="10.00">+ ExpGiven</text>
<polyline fill="none" stroke="black" points="230,-19.5 297,-19.5 "/>
<text text-anchor="start" x="238" y="-7.5" font-family="Helvetica,sans-Serif" font-size="10.00">+ Enemy()</text>
</a>
</g>
</g>
<!-- Node4&#45;&gt;Node10 -->
<g id="edge16" class="edge"><title>Node4&#45;&gt;Node10</title>
<path fill="none" stroke="#404040" d="M292.768,-1251.93C250.956,-1248.02 131.418,-1230.49 82.5,-1156 53.848,-1112.37 68.735,-1091.91 50.5,-1043 42.4426,-1021.39 34.8756,-1018.17 28.5,-996 9.37549,-929.512 9.5,-910.684 9.5,-841.5 9.5,-841.5 9.5,-841.5 9.5,-183.5 9.5,-87.3046 144.595,-49.7767 217.737,-36.5079"/>
<polygon fill="none" stroke="#404040" points="217.944,-36.4725 223.18,-31.5149 229.771,-34.442 224.534,-39.3996 217.944,-36.4725"/>
<text text-anchor="middle" x="32.5" y="-518.5" font-family="Helvetica,sans-Serif" font-size="10.00"> &#45;expGiven</text>
</g>
<!-- Node5&#45;&gt;Node1 -->
<g id="edge4" class="edge"><title>Node5&#45;&gt;Node1</title>
<path fill="none" stroke="#404040" d="M175.943,-1043.28C172.107,-1037.3 168.538,-1031.14 165.5,-1025 162.61,-1019.16 159.857,-1013.13 157.237,-1006.97"/>
<polygon fill="none" stroke="#404040" points="157.202,-1006.89 151.23,-1002.85 152.664,-995.778 158.636,-999.82 157.202,-1006.89"/>
<text text-anchor="middle" x="184.5" y="-1017" font-family="Helvetica,sans-Serif" font-size="10.00"> &#45;players</text>
</g>
<!-- Node5&#45;&gt;Node9 -->
<g id="edge19" class="edge"><title>Node5&#45;&gt;Node9</title>
<path fill="none" stroke="#404040" d="M245.385,-1043.37C258.154,-1015.08 274.145,-979.65 289.15,-946.405"/>
<polygon fill="none" stroke="#404040" points="289.258,-946.166 288.08,-939.051 294.195,-935.228 295.372,-942.342 289.258,-946.166"/>
<text text-anchor="middle" x="275" y="-1017" font-family="Helvetica,sans-Serif" font-size="10.00"> &#45;player</text>
</g>
<!-- Node6&#45;&gt;Node5 -->
<g id="edge5" class="edge"><title>Node6&#45;&gt;Node5</title>
<path fill="none" stroke="midnightblue" d="M362.096,-217.496C322.067,-243.222 270.485,-283.084 241.5,-332 212.773,-380.48 217.5,-400.148 217.5,-456.5 217.5,-841.5 217.5,-841.5 217.5,-841.5 217.5,-911.109 218.614,-991.316 219.484,-1043.36"/>
<polygon fill="none" stroke="midnightblue" points="364.117,-220.36 370.707,-212.064 360.382,-214.439 364.117,-220.36"/>
</g>
<!-- Node6&#45;&gt;Node8 -->
<g id="edge11" class="edge"><title>Node6&#45;&gt;Node8</title>
<path fill="none" stroke="#404040" d="M370.877,-263.117C360.039,-284.656 350.08,-308.578 344.5,-332 333.994,-376.099 338.109,-389.119 344.5,-434 346.159,-445.653 349.024,-457.935 352.235,-469.454"/>
<polygon fill="none" stroke="#404040" points="352.282,-469.613 357.813,-474.239 355.671,-481.124 350.139,-476.499 352.282,-469.613"/>
<text text-anchor="middle" x="361.5" y="-386" font-family="Helvetica,sans-Serif" font-size="10.00"> #target</text>
<text text-anchor="middle" x="361.5" y="-375" font-family="Helvetica,sans-Serif" font-size="10.00">#user</text>
</g>
<!-- Node6&#45;&gt;Node10 -->
<g id="edge15" class="edge"><title>Node6&#45;&gt;Node10</title>
<path fill="none" stroke="midnightblue" d="M363.613,-129.144C339.22,-104.987 311.552,-77.5868 291.494,-57.7227"/>
<polygon fill="none" stroke="midnightblue" points="361.162,-131.643 370.73,-136.192 366.088,-126.669 361.162,-131.643"/>
</g>
<!-- Node7&#45;&gt;Node6 -->
<g id="edge8" class="edge"><title>Node7&#45;&gt;Node6</title>
<path fill="none" stroke="#404040" d="M491.77,-332.415C484.468,-317.772 476.203,-301.2 467.922,-284.596"/>
<polygon fill="none" stroke="#404040" points="467.844,-284.439 461.586,-280.855 462.488,-273.7 468.745,-277.284 467.844,-284.439"/>
<text text-anchor="middle" x="505" y="-306" font-family="Helvetica,sans-Serif" font-size="10.00"> #special1</text>
<text text-anchor="middle" x="505" y="-295" font-family="Helvetica,sans-Serif" font-size="10.00">#special2</text>
</g>
<!-- Node8&#45;&gt;Node7 -->
<g id="edge9" class="edge"><title>Node8&#45;&gt;Node7</title>
<path fill="none" stroke="midnightblue" d="M418.77,-474.417C434.426,-459.933 451.733,-443.92 467.379,-429.446"/>
<polygon fill="none" stroke="midnightblue" points="416.195,-472.031 411.231,-481.392 420.948,-477.17 416.195,-472.031"/>
</g>
<!-- Node9&#45;&gt;Node8 -->
<g id="edge12" class="edge"><title>Node9&#45;&gt;Node8</title>
<path fill="none" stroke="#404040" d="M346.223,-745.957C352.109,-689.323 359.388,-619.287 364.223,-572.768"/>
<polygon fill="none" stroke="#404040" points="364.248,-572.53 360.89,-566.149 365.489,-560.595 368.847,-566.976 364.248,-572.53"/>
<text text-anchor="middle" x="386.5" y="-620.5" font-family="Helvetica,sans-Serif" font-size="10.00"> #manager</text>
</g>
<!-- Node10&#45;&gt;Node9 -->
<g id="edge14" class="edge"><title>Node10&#45;&gt;Node9</title>
<path fill="none" stroke="#404040" d="M263.5,-57.7302C263.5,-88.4721 263.5,-139.529 263.5,-183.5 263.5,-522 263.5,-522 263.5,-522 263.5,-594.131 281.616,-673.19 299.799,-734.373"/>
<polygon fill="none" stroke="#404040" points="299.834,-734.488 305.401,-739.071 303.311,-745.973 297.744,-741.389 299.834,-734.488"/>
<text text-anchor="middle" x="281.5" y="-380.5" font-family="Helvetica,sans-Serif" font-size="10.00"> &#45;enemy</text>
</g>
<!-- Node11 -->
<g id="node11" class="node"><title>Node11</title>
<polygon fill="none" stroke="#bfbfbf" points="295,-1071 295,-1128 330,-1128 330,-1071 295,-1071"/>
<text text-anchor="middle" x="312.5" y="-1116" font-family="Helvetica,sans-Serif" font-size="10.00">bool</text>
<polyline fill="none" stroke="#bfbfbf" points="295,-1109 330,-1109 "/>
<text text-anchor="middle" x="312.5" y="-1097" font-family="Helvetica,sans-Serif" font-size="10.00"> </text>
<polyline fill="none" stroke="#bfbfbf" points="295,-1090 330,-1090 "/>
<text text-anchor="middle" x="312.5" y="-1078" font-family="Helvetica,sans-Serif" font-size="10.00"> </text>
</g>
<!-- Node11&#45;&gt;Node9 -->
<g id="edge18" class="edge"><title>Node11&#45;&gt;Node9</title>
<path fill="none" stroke="#404040" d="M310.181,-1070.95C309.134,-1057.16 308.017,-1040.21 307.5,-1025 306.64,-999.677 309.038,-972.616 312.777,-947.268"/>
<polygon fill="none" stroke="#404040" points="312.784,-947.222 309.763,-940.674 314.646,-935.367 317.666,-941.915 312.784,-947.222"/>
<text text-anchor="middle" x="340.5" y="-1017" font-family="Helvetica,sans-Serif" font-size="10.00"> &#45;wasCriticalHit</text>
</g>
<!-- Node12 -->
<g id="node12" class="node"><title>Node12</title>
<polygon fill="none" stroke="#bfbfbf" points="496,-492.5 496,-549.5 531,-549.5 531,-492.5 496,-492.5"/>
<text text-anchor="middle" x="513.5" y="-537.5" font-family="Helvetica,sans-Serif" font-size="10.00">float</text>
<polyline fill="none" stroke="#bfbfbf" points="496,-530.5 531,-530.5 "/>
<text text-anchor="middle" x="513.5" y="-518.5" font-family="Helvetica,sans-Serif" font-size="10.00"> </text>
<polyline fill="none" stroke="#bfbfbf" points="496,-511.5 531,-511.5 "/>
<text text-anchor="middle" x="513.5" y="-499.5" font-family="Helvetica,sans-Serif" font-size="10.00"> </text>
</g>
<!-- Node12&#45;&gt;Node7 -->
<g id="edge21" class="edge"><title>Node12&#45;&gt;Node7</title>
<path fill="none" stroke="#404040" d="M513.816,-492.207C513.981,-479.889 514.208,-465.22 514.5,-452 514.545,-449.971 514.593,-447.907 514.643,-445.823"/>
<polygon fill="none" stroke="#404040" points="514.644,-445.759 510.799,-439.658 514.952,-433.763 518.797,-439.863 514.644,-445.759"/>
<text text-anchor="middle" x="534.5" y="-455" font-family="Helvetica,sans-Serif" font-size="10.00"> #special</text>
</g>
<!-- Node13 -->
<g id="node13" class="node"><title>Node13</title>
<polygon fill="none" stroke="#bfbfbf" points="388,-354.5 388,-411.5 449,-411.5 449,-354.5 388,-354.5"/>
<text text-anchor="middle" x="418.5" y="-399.5" font-family="Helvetica,sans-Serif" font-size="10.00">Texture2D</text>
<polyline fill="none" stroke="#bfbfbf" points="388,-392.5 449,-392.5 "/>
<text text-anchor="middle" x="418.5" y="-380.5" font-family="Helvetica,sans-Serif" font-size="10.00"> </text>
<polyline fill="none" stroke="#bfbfbf" points="388,-373.5 449,-373.5 "/>
<text text-anchor="middle" x="418.5" y="-361.5" font-family="Helvetica,sans-Serif" font-size="10.00"> </text>
</g>
<!-- Node13&#45;&gt;Node6 -->
<g id="edge23" class="edge"><title>Node13&#45;&gt;Node6</title>
<path fill="none" stroke="#404040" d="M418.5,-354.263C418.5,-335.998 418.5,-310.86 418.5,-285.562"/>
<polygon fill="none" stroke="#404040" points="418.5,-285.557 414.5,-279.557 418.5,-273.557 422.5,-279.557 418.5,-285.557"/>
<text text-anchor="middle" x="436" y="-300.5" font-family="Helvetica,sans-Serif" font-size="10.00"> #image</text>
</g>
</g>
</svg>
