<?xml version="1.0" encoding="UTF-8" standalone="no"?>
<!DOCTYPE svg PUBLIC "-//W3C//DTD SVG 1.1//EN"
 "http://www.w3.org/Graphics/SVG/1.1/DTD/svg11.dtd">
<!-- Generated by graphviz version 2.38.0 (20140413.2041)
 -->
<!-- Title: PlayerMenu Pages: 1 -->
<svg width="880pt" height="1297pt"
 viewBox="0.00 0.00 880.00 1297.00" xmlns="http://www.w3.org/2000/svg" xmlns:xlink="http://www.w3.org/1999/xlink">
<g id="graph0" class="graph" transform="scale(1 1) rotate(0) translate(4 1293)">
<title>PlayerMenu</title>
<!-- Node2 -->
<g id="node1" class="node"><title>Node2</title>
<polygon fill="#bfbfbf" stroke="black" points="85.5,-740.5 85.5,-819.5 173.5,-819.5 173.5,-740.5 85.5,-740.5"/>
<text text-anchor="middle" x="129.5" y="-807.5" font-family="Helvetica,sans-Serif" font-size="10.00">PlayerMenu</text>
<polyline fill="none" stroke="black" points="85.5,-800.5 173.5,-800.5 "/>
<text text-anchor="middle" x="129.5" y="-788.5" font-family="Helvetica,sans-Serif" font-size="10.00"> </text>
<polyline fill="none" stroke="black" points="85.5,-781.5 173.5,-781.5 "/>
<text text-anchor="start" x="93.5" y="-769.5" font-family="Helvetica,sans-Serif" font-size="10.00">+ OnItemPlace()</text>
<text text-anchor="start" x="93.5" y="-758.5" font-family="Helvetica,sans-Serif" font-size="10.00">+ back()</text>
<text text-anchor="start" x="93.5" y="-747.5" font-family="Helvetica,sans-Serif" font-size="10.00">&#45; Start()</text>
</g>
<!-- Node3 -->
<g id="node2" class="node"><title>Node3</title>
<g id="a_node2"><a xlink:href="class_mono_behaviour.html" target="_top" xlink:title="{MonoBehaviour\n||}">
<polygon fill="none" stroke="black" points="89,-950 89,-1007 172,-1007 172,-950 89,-950"/>
<text text-anchor="middle" x="130.5" y="-995" font-family="Helvetica,sans-Serif" font-size="10.00">MonoBehaviour</text>
<polyline fill="none" stroke="black" points="89,-988 172,-988 "/>
<text text-anchor="middle" x="130.5" y="-976" font-family="Helvetica,sans-Serif" font-size="10.00"> </text>
<polyline fill="none" stroke="black" points="89,-969 172,-969 "/>
<text text-anchor="middle" x="130.5" y="-957" font-family="Helvetica,sans-Serif" font-size="10.00"> </text>
</a>
</g>
</g>
<!-- Node3&#45;&gt;Node2 -->
<g id="edge1" class="edge"><title>Node3&#45;&gt;Node2</title>
<path fill="none" stroke="midnightblue" d="M130.307,-939.621C130.132,-905.153 129.874,-854.497 129.697,-819.757"/>
<polygon fill="none" stroke="midnightblue" points="126.808,-939.781 130.359,-949.763 133.808,-939.745 126.808,-939.781"/>
</g>
<!-- Node4 -->
<g id="node3" class="node"><title>Node4</title>
<polygon fill="none" stroke="#bfbfbf" points="0,-950 0,-1007 71,-1007 71,-950 0,-950"/>
<text text-anchor="middle" x="35.5" y="-995" font-family="Helvetica,sans-Serif" font-size="10.00">GameObject</text>
<polyline fill="none" stroke="#bfbfbf" points="0,-988 71,-988 "/>
<text text-anchor="middle" x="35.5" y="-976" font-family="Helvetica,sans-Serif" font-size="10.00"> </text>
<polyline fill="none" stroke="#bfbfbf" points="0,-969 71,-969 "/>
<text text-anchor="middle" x="35.5" y="-957" font-family="Helvetica,sans-Serif" font-size="10.00"> </text>
</g>
<!-- Node4&#45;&gt;Node2 -->
<g id="edge2" class="edge"><title>Node4&#45;&gt;Node2</title>
<path fill="none" stroke="#404040" d="M48.7685,-949.763C63.4906,-918.988 87.5453,-868.703 105.575,-831.014"/>
<polygon fill="none" stroke="#404040" points="105.781,-830.582 104.762,-823.443 110.96,-819.757 111.979,-826.896 105.781,-830.582"/>
<text text-anchor="middle" x="91" y="-896" font-family="Helvetica,sans-Serif" font-size="10.00"> &#45;player</text>
</g>
<!-- Node5 -->
<g id="node4" class="node"><title>Node5</title>
<g id="a_node4"><a xlink:href="class_player.html" target="_top" xlink:title="Defines a playable character for use in battle scenes">
<polygon fill="none" stroke="black" points="229.5,-922.5 229.5,-1034.5 341.5,-1034.5 341.5,-922.5 229.5,-922.5"/>
<text text-anchor="middle" x="285.5" y="-1022.5" font-family="Helvetica,sans-Serif" font-size="10.00">Player</text>
<polyline fill="none" stroke="black" points="229.5,-1015.5 341.5,-1015.5 "/>
<text text-anchor="start" x="237.5" y="-1003.5" font-family="Helvetica,sans-Serif" font-size="10.00">+ Exp</text>
<text text-anchor="start" x="237.5" y="-992.5" font-family="Helvetica,sans-Serif" font-size="10.00">+ Item</text>
<text text-anchor="start" x="237.5" y="-981.5" font-family="Helvetica,sans-Serif" font-size="10.00">+ ExpToNextLevel</text>
<polyline fill="none" stroke="black" points="229.5,-974.5 341.5,-974.5 "/>
<text text-anchor="start" x="237.5" y="-962.5" font-family="Helvetica,sans-Serif" font-size="10.00">+ Player()</text>
<text text-anchor="start" x="237.5" y="-951.5" font-family="Helvetica,sans-Serif" font-size="10.00">+ gainExp()</text>
<text text-anchor="start" x="237.5" y="-940.5" font-family="Helvetica,sans-Serif" font-size="10.00">+ levelUp()</text>
<text text-anchor="start" x="237.5" y="-929.5" font-family="Helvetica,sans-Serif" font-size="10.00">&#45; setExpToNextLevel()</text>
</a>
</g>
</g>
<!-- Node5&#45;&gt;Node2 -->
<g id="edge3" class="edge"><title>Node5&#45;&gt;Node2</title>
<path fill="none" stroke="#404040" d="M241.63,-922.241C218.413,-892.997 190.171,-857.422 167.839,-829.292"/>
<polygon fill="none" stroke="#404040" points="167.666,-829.074 160.802,-826.862 160.204,-819.675 167.068,-821.888 167.666,-829.074"/>
<text text-anchor="middle" x="245.5" y="-896" font-family="Helvetica,sans-Serif" font-size="10.00"> &#45;players</text>
</g>
<!-- Node11 -->
<g id="node10" class="node"><title>Node11</title>
<g id="a_node10"><a xlink:href="class_battle_manager.html" target="_top" xlink:title="Holds current Player and Enemy objects in battle and provides functions for MainBattle and other obje...">
<polygon fill="none" stroke="black" points="346.5,-685.5 346.5,-874.5 462.5,-874.5 462.5,-685.5 346.5,-685.5"/>
<text text-anchor="middle" x="404.5" y="-862.5" font-family="Helvetica,sans-Serif" font-size="10.00">BattleManager</text>
<polyline fill="none" stroke="black" points="346.5,-855.5 462.5,-855.5 "/>
<text text-anchor="start" x="354.5" y="-843.5" font-family="Helvetica,sans-Serif" font-size="10.00">+ Player</text>
<text text-anchor="start" x="354.5" y="-832.5" font-family="Helvetica,sans-Serif" font-size="10.00">+ Enemy</text>
<text text-anchor="start" x="354.5" y="-821.5" font-family="Helvetica,sans-Serif" font-size="10.00">+ WasCriticalHit</text>
<polyline fill="none" stroke="black" points="346.5,-814.5 462.5,-814.5 "/>
<text text-anchor="start" x="354.5" y="-802.5" font-family="Helvetica,sans-Serif" font-size="10.00">+ BattleManager()</text>
<text text-anchor="start" x="354.5" y="-791.5" font-family="Helvetica,sans-Serif" font-size="10.00">+ playerFirst()</text>
<text text-anchor="start" x="354.5" y="-780.5" font-family="Helvetica,sans-Serif" font-size="10.00">+ switchPlayers()</text>
<text text-anchor="start" x="354.5" y="-769.5" font-family="Helvetica,sans-Serif" font-size="10.00">+ isCriticalHit()</text>
<text text-anchor="start" x="354.5" y="-758.5" font-family="Helvetica,sans-Serif" font-size="10.00">+ ranAway()</text>
<text text-anchor="start" x="354.5" y="-747.5" font-family="Helvetica,sans-Serif" font-size="10.00">+ damageCalculation()</text>
<text text-anchor="start" x="354.5" y="-736.5" font-family="Helvetica,sans-Serif" font-size="10.00">+ enemyMove()</text>
<text text-anchor="start" x="354.5" y="-725.5" font-family="Helvetica,sans-Serif" font-size="10.00">+ enemySpecialMove()</text>
<text text-anchor="start" x="354.5" y="-714.5" font-family="Helvetica,sans-Serif" font-size="10.00">+ battleWon()</text>
<text text-anchor="start" x="354.5" y="-703.5" font-family="Helvetica,sans-Serif" font-size="10.00">+ playerFainted()</text>
<text text-anchor="start" x="354.5" y="-692.5" font-family="Helvetica,sans-Serif" font-size="10.00">&#45; characterFainted()</text>
</a>
</g>
</g>
<!-- Node5&#45;&gt;Node11 -->
<g id="edge18" class="edge"><title>Node5&#45;&gt;Node11</title>
<path fill="none" stroke="#404040" d="M318.965,-922.241C326.071,-910.507 333.794,-897.754 341.595,-884.872"/>
<polygon fill="none" stroke="#404040" points="341.642,-884.795 341.329,-877.591 347.858,-874.53 348.172,-881.735 341.642,-884.795"/>
<text text-anchor="middle" x="351" y="-896" font-family="Helvetica,sans-Serif" font-size="10.00"> &#45;player</text>
</g>
<!-- Node6 -->
<g id="node5" class="node"><title>Node6</title>
<g id="a_node5"><a xlink:href="class_character.html" target="_top" xlink:title="Base abstract class for Enemy and Player to inherit from. Defines all shared variables, their constructor and their setters and getters ">
<polygon fill="none" stroke="black" points="510,-95.5 510,-273.5 605,-273.5 605,-95.5 510,-95.5"/>
<text text-anchor="middle" x="557.5" y="-261.5" font-family="Helvetica,sans-Serif" font-size="10.00">Character</text>
<polyline fill="none" stroke="black" points="510,-254.5 605,-254.5 "/>
<text text-anchor="start" x="518" y="-242.5" font-family="Helvetica,sans-Serif" font-size="10.00">+ Name</text>
<text text-anchor="start" x="518" y="-231.5" font-family="Helvetica,sans-Serif" font-size="10.00">+ Level</text>
<text text-anchor="start" x="518" y="-220.5" font-family="Helvetica,sans-Serif" font-size="10.00">+ Health</text>
<text text-anchor="start" x="518" y="-209.5" font-family="Helvetica,sans-Serif" font-size="10.00">+ Attack</text>
<text text-anchor="start" x="518" y="-198.5" font-family="Helvetica,sans-Serif" font-size="10.00">+ Defence</text>
<text text-anchor="start" x="518" y="-187.5" font-family="Helvetica,sans-Serif" font-size="10.00">+ MaximumMagic</text>
<text text-anchor="start" x="518" y="-176.5" font-family="Helvetica,sans-Serif" font-size="10.00">+ Magic</text>
<text text-anchor="start" x="518" y="-165.5" font-family="Helvetica,sans-Serif" font-size="10.00">+ Luck</text>
<text text-anchor="start" x="518" y="-154.5" font-family="Helvetica,sans-Serif" font-size="10.00">+ Speed</text>
<text text-anchor="start" x="518" y="-143.5" font-family="Helvetica,sans-Serif" font-size="10.00">+ Special1</text>
<text text-anchor="start" x="518" y="-132.5" font-family="Helvetica,sans-Serif" font-size="10.00">+ Special2</text>
<text text-anchor="start" x="518" y="-121.5" font-family="Helvetica,sans-Serif" font-size="10.00">+ Image</text>
<polyline fill="none" stroke="black" points="510,-114.5 605,-114.5 "/>
<text text-anchor="start" x="518" y="-102.5" font-family="Helvetica,sans-Serif" font-size="10.00"># Character()</text>
</a>
</g>
</g>
<!-- Node6&#45;&gt;Node5 -->
<g id="edge4" class="edge"><title>Node6&#45;&gt;Node5</title>
<path fill="none" stroke="midnightblue" d="M499.988,-199.655C420.702,-223.009 287.5,-277.756 287.5,-382 287.5,-781 287.5,-781 287.5,-781 287.5,-828.763 286.902,-883.053 286.36,-922.446"/>
<polygon fill="none" stroke="midnightblue" points="501.202,-202.948 509.851,-196.829 499.274,-196.219 501.202,-202.948"/>
</g>
<!-- Node10 -->
<g id="node9" class="node"><title>Node10</title>
<g id="a_node9"><a xlink:href="class_character_move.html" target="_top" xlink:title="Astract base class for character moves ">
<polygon fill="none" stroke="black" points="526.5,-481.5 526.5,-560.5 612.5,-560.5 612.5,-481.5 526.5,-481.5"/>
<text text-anchor="middle" x="569.5" y="-548.5" font-family="Helvetica,sans-Serif" font-size="10.00">CharacterMove</text>
<polyline fill="none" stroke="black" points="526.5,-541.5 612.5,-541.5 "/>
<text text-anchor="start" x="534.5" y="-529.5" font-family="Helvetica,sans-Serif" font-size="10.00">+ User</text>
<text text-anchor="start" x="534.5" y="-518.5" font-family="Helvetica,sans-Serif" font-size="10.00">+ Target</text>
<text text-anchor="start" x="534.5" y="-507.5" font-family="Helvetica,sans-Serif" font-size="10.00">+ Text</text>
<polyline fill="none" stroke="black" points="526.5,-500.5 612.5,-500.5 "/>
<text text-anchor="start" x="534.5" y="-488.5" font-family="Helvetica,sans-Serif" font-size="10.00">+ performMove()</text>
</a>
</g>
</g>
<!-- Node6&#45;&gt;Node10 -->
<g id="edge10" class="edge"><title>Node6&#45;&gt;Node10</title>
<path fill="none" stroke="#404040" d="M560.659,-273.558C562.895,-335.88 565.815,-417.275 567.674,-469.11"/>
<polygon fill="none" stroke="#404040" points="567.681,-469.31 571.894,-475.162 568.112,-481.302 563.899,-475.449 567.681,-469.31"/>
<text text-anchor="middle" x="583.5" y="-386" font-family="Helvetica,sans-Serif" font-size="10.00"> #target</text>
<text text-anchor="middle" x="583.5" y="-375" font-family="Helvetica,sans-Serif" font-size="10.00">#user</text>
</g>
<!-- Node12 -->
<g id="node11" class="node"><title>Node12</title>
<g id="a_node11"><a xlink:href="class_enemy.html" target="_top" xlink:title="Defines an AI controller enemy to fight in battle scenes">
<polygon fill="none" stroke="black" points="363,-0.5 363,-57.5 430,-57.5 430,-0.5 363,-0.5"/>
<text text-anchor="middle" x="396.5" y="-45.5" font-family="Helvetica,sans-Serif" font-size="10.00">Enemy</text>
<polyline fill="none" stroke="black" points="363,-38.5 430,-38.5 "/>
<text text-anchor="start" x="371" y="-26.5" font-family="Helvetica,sans-Serif" font-size="10.00">+ ExpGiven</text>
<polyline fill="none" stroke="black" points="363,-19.5 430,-19.5 "/>
<text text-anchor="start" x="371" y="-7.5" font-family="Helvetica,sans-Serif" font-size="10.00">+ Enemy()</text>
</a>
</g>
</g>
<!-- Node6&#45;&gt;Node12 -->
<g id="edge14" class="edge"><title>Node6&#45;&gt;Node12</title>
<path fill="none" stroke="midnightblue" d="M502.152,-130.73C476.483,-106.257 447.021,-78.168 425.742,-57.8797"/>
<polygon fill="none" stroke="midnightblue" points="499.978,-133.493 509.631,-137.861 504.808,-128.427 499.978,-133.493"/>
</g>
<!-- Node7 -->
<g id="node6" class="node"><title>Node7</title>
<polygon fill="none" stroke="#bfbfbf" points="663,-1231.5 663,-1288.5 704,-1288.5 704,-1231.5 663,-1231.5"/>
<text text-anchor="middle" x="683.5" y="-1276.5" font-family="Helvetica,sans-Serif" font-size="10.00">string</text>
<polyline fill="none" stroke="#bfbfbf" points="663,-1269.5 704,-1269.5 "/>
<text text-anchor="middle" x="683.5" y="-1257.5" font-family="Helvetica,sans-Serif" font-size="10.00"> </text>
<polyline fill="none" stroke="#bfbfbf" points="663,-1250.5 704,-1250.5 "/>
<text text-anchor="middle" x="683.5" y="-1238.5" font-family="Helvetica,sans-Serif" font-size="10.00"> </text>
</g>
<!-- Node7&#45;&gt;Node6 -->
<g id="edge5" class="edge"><title>Node7&#45;&gt;Node6</title>
<path fill="none" stroke="#404040" d="M704.013,-1246C733.011,-1225.85 782.5,-1184.11 782.5,-1134 782.5,-1134 782.5,-1134 782.5,-382 782.5,-293.753 683.097,-236.005 616.432,-207.199"/>
<polygon fill="none" stroke="#404040" points="616.281,-207.136 609.2,-208.501 605.217,-202.49 612.297,-201.125 616.281,-207.136"/>
<text text-anchor="middle" x="799" y="-777.5" font-family="Helvetica,sans-Serif" font-size="10.00"> #name</text>
</g>
<!-- Node9 -->
<g id="node8" class="node"><title>Node9</title>
<g id="a_node8"><a xlink:href="class_special_move.html" target="_top" xlink:title="Special move abstract base class that expands upon CharacterMove, adding magic properties ...">
<polygon fill="none" stroke="black" points="609.5,-332.5 609.5,-433.5 707.5,-433.5 707.5,-332.5 609.5,-332.5"/>
<text text-anchor="middle" x="658.5" y="-421.5" font-family="Helvetica,sans-Serif" font-size="10.00">SpecialMove</text>
<polyline fill="none" stroke="black" points="609.5,-414.5 707.5,-414.5 "/>
<text text-anchor="start" x="617.5" y="-402.5" font-family="Helvetica,sans-Serif" font-size="10.00">+ Magic</text>
<text text-anchor="start" x="617.5" y="-391.5" font-family="Helvetica,sans-Serif" font-size="10.00">+ Desc</text>
<text text-anchor="start" x="617.5" y="-380.5" font-family="Helvetica,sans-Serif" font-size="10.00">+ Special</text>
<polyline fill="none" stroke="black" points="609.5,-373.5 707.5,-373.5 "/>
<text text-anchor="start" x="617.5" y="-361.5" font-family="Helvetica,sans-Serif" font-size="10.00">+ setUp()</text>
<text text-anchor="start" x="617.5" y="-350.5" font-family="Helvetica,sans-Serif" font-size="10.00">+ decreaseMagic()</text>
<text text-anchor="start" x="617.5" y="-339.5" font-family="Helvetica,sans-Serif" font-size="10.00"># SpecialMove()</text>
</a>
</g>
</g>
<!-- Node7&#45;&gt;Node9 -->
<g id="edge19" class="edge"><title>Node7&#45;&gt;Node9</title>
<path fill="none" stroke="#404040" d="M702.934,-1231.13C718.06,-1206.69 736.5,-1169.59 736.5,-1134 736.5,-1134 736.5,-1134 736.5,-520 736.5,-492.738 724.56,-465.99 710.023,-443.527"/>
<polygon fill="none" stroke="#404040" points="709.959,-443.433 703.273,-440.732 703.195,-433.521 709.881,-436.222 709.959,-443.433"/>
<text text-anchor="middle" x="751.5" y="-896" font-family="Helvetica,sans-Serif" font-size="10.00"> #desc</text>
</g>
<!-- Node7&#45;&gt;Node10 -->
<g id="edge9" class="edge"><title>Node7&#45;&gt;Node10</title>
<path fill="none" stroke="#404040" d="M685.063,-1231.34C690.407,-1131.32 705.942,-788.855 674.5,-685 661.694,-642.701 634.406,-600.916 610.859,-570.244"/>
<polygon fill="none" stroke="#404040" points="610.772,-570.133 603.922,-567.879 603.368,-560.689 610.218,-562.943 610.772,-570.133"/>
<text text-anchor="middle" x="707" y="-976" font-family="Helvetica,sans-Serif" font-size="10.00"> #text</text>
</g>
<!-- Node7&#45;&gt;Node11 -->
<g id="edge12" class="edge"><title>Node7&#45;&gt;Node11</title>
<path fill="none" stroke="#404040" d="M667.543,-1231.45C634.2,-1173.91 554.666,-1036.79 487.5,-922 480.495,-910.029 473.143,-897.495 465.831,-885.048"/>
<polygon fill="none" stroke="#404040" points="465.787,-884.973 459.298,-881.827 459.707,-874.628 466.196,-877.774 465.787,-884.973"/>
<text text-anchor="middle" x="619.5" y="-1067" font-family="Helvetica,sans-Serif" font-size="10.00"> +forceEnemyMove</text>
<text text-anchor="middle" x="619.5" y="-1056" font-family="Helvetica,sans-Serif" font-size="10.00">+forceCriticalHits</text>
</g>
<!-- Node16 -->
<g id="node15" class="node"><title>Node16</title>
<g id="a_node15"><a xlink:href="class_item.html" target="_top" xlink:title="Abstract class for items that can be equipped to a player, increasing some of their stats ...">
<polygon fill="none" stroke="black" points="223,-1093.5 223,-1172.5 300,-1172.5 300,-1093.5 223,-1093.5"/>
<text text-anchor="middle" x="261.5" y="-1160.5" font-family="Helvetica,sans-Serif" font-size="10.00">Item</text>
<polyline fill="none" stroke="black" points="223,-1153.5 300,-1153.5 "/>
<text text-anchor="start" x="231" y="-1141.5" font-family="Helvetica,sans-Serif" font-size="10.00">+ Name</text>
<text text-anchor="start" x="231" y="-1130.5" font-family="Helvetica,sans-Serif" font-size="10.00">+ Desc</text>
<polyline fill="none" stroke="black" points="223,-1123.5 300,-1123.5 "/>
<text text-anchor="start" x="231" y="-1111.5" font-family="Helvetica,sans-Serif" font-size="10.00">+ applyBuffs()</text>
<text text-anchor="start" x="231" y="-1100.5" font-family="Helvetica,sans-Serif" font-size="10.00">+ revertBuffs()</text>
</a>
</g>
</g>
<!-- Node7&#45;&gt;Node16 -->
<g id="edge24" class="edge"><title>Node7&#45;&gt;Node16</title>
<path fill="none" stroke="#404040" d="M662.983,-1254.72C627.824,-1247.23 553.91,-1230.85 492.5,-1213 429.6,-1194.71 358.457,-1169.71 311.947,-1152.77"/>
<polygon fill="none" stroke="#404040" points="311.653,-1152.66 304.643,-1154.36 300.383,-1148.54 307.393,-1146.85 311.653,-1152.66"/>
<text text-anchor="middle" x="507.5" y="-1205" font-family="Helvetica,sans-Serif" font-size="10.00"> #desc</text>
<text text-anchor="middle" x="507.5" y="-1194" font-family="Helvetica,sans-Serif" font-size="10.00">#name</text>
</g>
<!-- Node8 -->
<g id="node7" class="node"><title>Node8</title>
<polygon fill="none" stroke="#bfbfbf" points="417,-1104.5 417,-1161.5 446,-1161.5 446,-1104.5 417,-1104.5"/>
<text text-anchor="middle" x="431.5" y="-1149.5" font-family="Helvetica,sans-Serif" font-size="10.00">int</text>
<polyline fill="none" stroke="#bfbfbf" points="417,-1142.5 446,-1142.5 "/>
<text text-anchor="middle" x="431.5" y="-1130.5" font-family="Helvetica,sans-Serif" font-size="10.00"> </text>
<polyline fill="none" stroke="#bfbfbf" points="417,-1123.5 446,-1123.5 "/>
<text text-anchor="middle" x="431.5" y="-1111.5" font-family="Helvetica,sans-Serif" font-size="10.00"> </text>
</g>
<!-- Node8&#45;&gt;Node5 -->
<g id="edge25" class="edge"><title>Node8&#45;&gt;Node5</title>
<path fill="none" stroke="#404040" d="M416.794,-1125.26C397.848,-1116.02 364.717,-1097.93 342.5,-1075 333.845,-1066.07 325.937,-1055.58 318.948,-1044.9"/>
<polygon fill="none" stroke="#404040" points="318.892,-1044.81 312.32,-1041.84 312.534,-1034.63 319.105,-1037.6 318.892,-1044.81"/>
<text text-anchor="middle" x="380" y="-1067" font-family="Helvetica,sans-Serif" font-size="10.00"> &#45;expToNextLevel</text>
<text text-anchor="middle" x="380" y="-1056" font-family="Helvetica,sans-Serif" font-size="10.00">&#45;exp</text>
</g>
<!-- Node8&#45;&gt;Node6 -->
<g id="edge6" class="edge"><title>Node8&#45;&gt;Node6</title>
<path fill="none" stroke="#404040" d="M446.038,-1112.96C465.743,-1085.2 498.5,-1031.26 498.5,-979.5 498.5,-979.5 498.5,-979.5 498.5,-382 498.5,-349.784 505.865,-315.805 515.39,-285.329"/>
<polygon fill="none" stroke="#404040" points="515.418,-285.241 513.474,-278.297 519.135,-273.831 521.08,-280.775 515.418,-285.241"/>
<text text-anchor="middle" x="536" y="-659" font-family="Helvetica,sans-Serif" font-size="10.00"> #speed</text>
<text text-anchor="middle" x="536" y="-648" font-family="Helvetica,sans-Serif" font-size="10.00">#luck</text>
<text text-anchor="middle" x="536" y="-637" font-family="Helvetica,sans-Serif" font-size="10.00">#health</text>
<text text-anchor="middle" x="536" y="-626" font-family="Helvetica,sans-Serif" font-size="10.00">#magic</text>
<text text-anchor="middle" x="536" y="-615" font-family="Helvetica,sans-Serif" font-size="10.00">#maximumMagic</text>
<text text-anchor="middle" x="536" y="-604" font-family="Helvetica,sans-Serif" font-size="10.00">#attack</text>
<text text-anchor="middle" x="536" y="-593" font-family="Helvetica,sans-Serif" font-size="10.00">#defence</text>
<text text-anchor="middle" x="536" y="-582" font-family="Helvetica,sans-Serif" font-size="10.00">#level</text>
</g>
<!-- Node8&#45;&gt;Node9 -->
<g id="edge21" class="edge"><title>Node8&#45;&gt;Node9</title>
<path fill="none" stroke="#404040" d="M446.025,-1132.6C482.196,-1133.21 576.614,-1129.27 621.5,-1075 694.685,-986.516 665.101,-675.442 674.5,-561 678.472,-512.645 688.06,-499.925 680.5,-452 680.16,-449.842 679.762,-447.659 679.316,-445.464"/>
<polygon fill="none" stroke="#404040" points="679.296,-445.377 674.022,-440.46 676.532,-433.7 681.807,-438.617 679.296,-445.377"/>
<text text-anchor="middle" x="691" y="-777.5" font-family="Helvetica,sans-Serif" font-size="10.00"> #magic</text>
</g>
<!-- Node8&#45;&gt;Node11 -->
<g id="edge16" class="edge"><title>Node8&#45;&gt;Node11</title>
<path fill="none" stroke="#404040" d="M433.565,-1104.32C437.83,-1045.83 446.938,-913.328 443.5,-893 443.13,-890.811 442.722,-888.608 442.279,-886.396"/>
<polygon fill="none" stroke="#404040" points="442.239,-886.215 437.022,-881.237 439.61,-874.506 444.828,-879.485 442.239,-886.215"/>
<text text-anchor="middle" x="464" y="-976" font-family="Helvetica,sans-Serif" font-size="10.00"> +money</text>
</g>
<!-- Node8&#45;&gt;Node12 -->
<g id="edge15" class="edge"><title>Node8&#45;&gt;Node12</title>
<path fill="none" stroke="#404040" d="M416.877,-1126.99C373.866,-1111.99 249.019,-1066.56 220.5,-1035 203.019,-1015.66 201.5,-1005.57 201.5,-979.5 201.5,-979.5 201.5,-979.5 201.5,-183.5 201.5,-107.679 293.65,-63.5629 351.256,-43.3923"/>
<polygon fill="none" stroke="#404040" points="351.605,-43.275 356.016,-37.5707 362.978,-39.4488 358.567,-45.1531 351.605,-43.275"/>
<text text-anchor="middle" x="224.5" y="-518.5" font-family="Helvetica,sans-Serif" font-size="10.00"> &#45;expGiven</text>
</g>
<!-- Node9&#45;&gt;Node6 -->
<g id="edge7" class="edge"><title>Node9&#45;&gt;Node6</title>
<path fill="none" stroke="#404040" d="M633.013,-332.415C625.487,-317.772 616.969,-301.2 608.435,-284.596"/>
<polygon fill="none" stroke="#404040" points="608.32,-284.373 602.02,-280.865 602.834,-273.7 609.135,-277.208 608.32,-284.373"/>
<text text-anchor="middle" x="646" y="-306" font-family="Helvetica,sans-Serif" font-size="10.00"> #special1</text>
<text text-anchor="middle" x="646" y="-295" font-family="Helvetica,sans-Serif" font-size="10.00">#special2</text>
</g>
<!-- Node10&#45;&gt;Node9 -->
<g id="edge8" class="edge"><title>Node10&#45;&gt;Node9</title>
<path fill="none" stroke="midnightblue" d="M600.343,-472.87C608.58,-460.282 617.509,-446.637 625.841,-433.905"/>
<polygon fill="none" stroke="midnightblue" points="597.313,-471.108 594.766,-481.392 603.17,-474.941 597.313,-471.108"/>
</g>
<!-- Node11&#45;&gt;Node10 -->
<g id="edge11" class="edge"><title>Node11&#45;&gt;Node10</title>
<path fill="none" stroke="#404040" d="M407.753,-685.354C411.02,-641.77 417.535,-595.863 430.5,-579 450.69,-552.74 485.058,-538.506 514.567,-530.83"/>
<polygon fill="none" stroke="#404040" points="514.761,-530.784 519.677,-525.508 526.438,-528.016 521.522,-533.292 514.761,-530.784"/>
<text text-anchor="middle" x="453.5" y="-620.5" font-family="Helvetica,sans-Serif" font-size="10.00"> #manager</text>
</g>
<!-- Node12&#45;&gt;Node11 -->
<g id="edge13" class="edge"><title>Node12&#45;&gt;Node11</title>
<path fill="none" stroke="#404040" d="M396.5,-57.7302C396.5,-88.4721 396.5,-139.529 396.5,-183.5 396.5,-522 396.5,-522 396.5,-522 396.5,-571.686 398.012,-626.748 399.722,-673.12"/>
<polygon fill="none" stroke="#404040" points="399.73,-673.342 403.954,-679.186 400.184,-685.333 395.96,-679.489 399.73,-673.342"/>
<text text-anchor="middle" x="414.5" y="-380.5" font-family="Helvetica,sans-Serif" font-size="10.00"> &#45;enemy</text>
</g>
<!-- Node13 -->
<g id="node12" class="node"><title>Node13</title>
<polygon fill="none" stroke="#bfbfbf" points="360,-950 360,-1007 395,-1007 395,-950 360,-950"/>
<text text-anchor="middle" x="377.5" y="-995" font-family="Helvetica,sans-Serif" font-size="10.00">bool</text>
<polyline fill="none" stroke="#bfbfbf" points="360,-988 395,-988 "/>
<text text-anchor="middle" x="377.5" y="-976" font-family="Helvetica,sans-Serif" font-size="10.00"> </text>
<polyline fill="none" stroke="#bfbfbf" points="360,-969 395,-969 "/>
<text text-anchor="middle" x="377.5" y="-957" font-family="Helvetica,sans-Serif" font-size="10.00"> </text>
</g>
<!-- Node13&#45;&gt;Node11 -->
<g id="edge17" class="edge"><title>Node13&#45;&gt;Node11</title>
<path fill="none" stroke="#404040" d="M375.851,-949.62C375.284,-933.102 375.267,-911.792 377.5,-893 377.759,-890.823 378.045,-888.627 378.355,-886.418"/>
<polygon fill="none" stroke="#404040" points="378.364,-886.362 375.348,-879.812 380.234,-874.508 383.25,-881.058 378.364,-886.362"/>
<text text-anchor="middle" x="410.5" y="-896" font-family="Helvetica,sans-Serif" font-size="10.00"> &#45;wasCriticalHit</text>
</g>
<!-- Node14 -->
<g id="node13" class="node"><title>Node14</title>
<polygon fill="none" stroke="#bfbfbf" points="631,-492.5 631,-549.5 666,-549.5 666,-492.5 631,-492.5"/>
<text text-anchor="middle" x="648.5" y="-537.5" font-family="Helvetica,sans-Serif" font-size="10.00">float</text>
<polyline fill="none" stroke="#bfbfbf" points="631,-530.5 666,-530.5 "/>
<text text-anchor="middle" x="648.5" y="-518.5" font-family="Helvetica,sans-Serif" font-size="10.00"> </text>
<polyline fill="none" stroke="#bfbfbf" points="631,-511.5 666,-511.5 "/>
<text text-anchor="middle" x="648.5" y="-499.5" font-family="Helvetica,sans-Serif" font-size="10.00"> </text>
</g>
<!-- Node14&#45;&gt;Node9 -->
<g id="edge20" class="edge"><title>Node14&#45;&gt;Node9</title>
<path fill="none" stroke="#404040" d="M643.814,-492.25C642.46,-482.978 641.168,-472.57 640.5,-463 640.115,-457.483 640.272,-451.798 640.815,-446.126"/>
<polygon fill="none" stroke="#404040" points="640.878,-445.683 637.757,-439.182 642.557,-433.801 645.678,-440.302 640.878,-445.683"/>
<text text-anchor="middle" x="660.5" y="-455" font-family="Helvetica,sans-Serif" font-size="10.00"> #special</text>
</g>
<!-- Node15 -->
<g id="node14" class="node"><title>Node15</title>
<polygon fill="none" stroke="#bfbfbf" points="811,-354.5 811,-411.5 872,-411.5 872,-354.5 811,-354.5"/>
<text text-anchor="middle" x="841.5" y="-399.5" font-family="Helvetica,sans-Serif" font-size="10.00">Texture2D</text>
<polyline fill="none" stroke="#bfbfbf" points="811,-392.5 872,-392.5 "/>
<text text-anchor="middle" x="841.5" y="-380.5" font-family="Helvetica,sans-Serif" font-size="10.00"> </text>
<polyline fill="none" stroke="#bfbfbf" points="811,-373.5 872,-373.5 "/>
<text text-anchor="middle" x="841.5" y="-361.5" font-family="Helvetica,sans-Serif" font-size="10.00"> </text>
</g>
<!-- Node15&#45;&gt;Node6 -->
<g id="edge22" class="edge"><title>Node15&#45;&gt;Node6</title>
<path fill="none" stroke="#404040" d="M833.192,-354.139C826.143,-334.599 814.3,-309.026 796.5,-292 745.945,-243.644 669.722,-214.926 617.01,-199.718"/>
<polygon fill="none" stroke="#404040" points="616.702,-199.632 609.847,-201.872 605.143,-196.407 611.997,-194.167 616.702,-199.632"/>
<text text-anchor="middle" x="831" y="-300.5" font-family="Helvetica,sans-Serif" font-size="10.00"> #image</text>
</g>
<!-- Node16&#45;&gt;Node5 -->
<g id="edge23" class="edge"><title>Node16&#45;&gt;Node5</title>
<path fill="none" stroke="#404040" d="M262.484,-1093.26C263.201,-1080.39 264.423,-1066.03 266.5,-1053 266.843,-1050.85 267.221,-1048.67 267.628,-1046.47"/>
<polygon fill="none" stroke="#404040" points="267.642,-1046.4 264.925,-1039.72 270.047,-1034.65 272.763,-1041.33 267.642,-1046.4"/>
<text text-anchor="middle" x="279" y="-1061.5" font-family="Helvetica,sans-Serif" font-size="10.00"> &#45;item</text>
</g>
</g>
</svg>
