<?xml version="1.0" encoding="UTF-8" standalone="no"?>
<!DOCTYPE svg PUBLIC "-//W3C//DTD SVG 1.1//EN"
 "http://www.w3.org/Graphics/SVG/1.1/DTD/svg11.dtd">
<!-- Generated by graphviz version 2.38.0 (20140413.2041)
 -->
<!-- Title: SaveData.SpecialMoveSaveData Pages: 1 -->
<svg width="231pt" height="193pt"
 viewBox="0.00 0.00 230.50 193.00" xmlns="http://www.w3.org/2000/svg" xmlns:xlink="http://www.w3.org/1999/xlink">
<g id="graph0" class="graph" transform="scale(1 1) rotate(0) translate(4 189)">
<title>SaveData.SpecialMoveSaveData</title>
<!-- Node1 -->
<g id="node1" class="node"><title>Node1</title>
<polygon fill="#bfbfbf" stroke="black" points="55,-0.5 55,-57.5 212,-57.5 212,-0.5 55,-0.5"/>
<text text-anchor="middle" x="133.5" y="-45.5" font-family="Helvetica,sans-Serif" font-size="10.00">SaveData.SpecialMoveSaveData</text>
<polyline fill="none" stroke="black" points="55,-38.5 212,-38.5 "/>
<text text-anchor="middle" x="133.5" y="-26.5" font-family="Helvetica,sans-Serif" font-size="10.00"> </text>
<polyline fill="none" stroke="black" points="55,-19.5 212,-19.5 "/>
<text text-anchor="middle" x="133.5" y="-7.5" font-family="Helvetica,sans-Serif" font-size="10.00"> </text>
</g>
<!-- Node2 -->
<g id="node2" class="node"><title>Node2</title>
<polygon fill="none" stroke="#bfbfbf" points="0,-127.5 0,-184.5 41,-184.5 41,-127.5 0,-127.5"/>
<text text-anchor="middle" x="20.5" y="-172.5" font-family="Helvetica,sans-Serif" font-size="10.00">string</text>
<polyline fill="none" stroke="#bfbfbf" points="0,-165.5 41,-165.5 "/>
<text text-anchor="middle" x="20.5" y="-153.5" font-family="Helvetica,sans-Serif" font-size="10.00"> </text>
<polyline fill="none" stroke="#bfbfbf" points="0,-146.5 41,-146.5 "/>
<text text-anchor="middle" x="20.5" y="-134.5" font-family="Helvetica,sans-Serif" font-size="10.00"> </text>
</g>
<!-- Node2&#45;&gt;Node1 -->
<g id="edge1" class="edge"><title>Node2&#45;&gt;Node1</title>
<path fill="none" stroke="#404040" d="M21.3977,-127.2C23.2356,-110.766 27.9399,-90.417 39.5,-76 42.6966,-72.0134 46.3254,-68.3475 50.2529,-64.98"/>
<polygon fill="none" stroke="#404040" points="50.341,-64.9131 52.6987,-58.0983 59.8961,-57.6535 57.5384,-64.4684 50.341,-64.9131"/>
<text text-anchor="middle" x="84.5" y="-101" font-family="Helvetica,sans-Serif" font-size="10.00"> +text</text>
<text text-anchor="middle" x="84.5" y="-90" font-family="Helvetica,sans-Serif" font-size="10.00">+desc</text>
<text text-anchor="middle" x="84.5" y="-79" font-family="Helvetica,sans-Serif" font-size="10.00">+typeOfSpecialMove</text>
</g>
<!-- Node3 -->
<g id="node3" class="node"><title>Node3</title>
<polygon fill="none" stroke="#bfbfbf" points="116,-127.5 116,-184.5 151,-184.5 151,-127.5 116,-127.5"/>
<text text-anchor="middle" x="133.5" y="-172.5" font-family="Helvetica,sans-Serif" font-size="10.00">float</text>
<polyline fill="none" stroke="#bfbfbf" points="116,-165.5 151,-165.5 "/>
<text text-anchor="middle" x="133.5" y="-153.5" font-family="Helvetica,sans-Serif" font-size="10.00"> </text>
<polyline fill="none" stroke="#bfbfbf" points="116,-146.5 151,-146.5 "/>
<text text-anchor="middle" x="133.5" y="-134.5" font-family="Helvetica,sans-Serif" font-size="10.00"> </text>
</g>
<!-- Node3&#45;&gt;Node1 -->
<g id="edge2" class="edge"><title>Node3&#45;&gt;Node1</title>
<path fill="none" stroke="#404040" d="M133.5,-127.258C133.5,-110.347 133.5,-88.457 133.5,-69.7276"/>
<polygon fill="none" stroke="#404040" points="133.5,-69.664 129.5,-63.664 133.5,-57.664 137.5,-63.664 133.5,-69.664"/>
<text text-anchor="middle" x="153.5" y="-90" font-family="Helvetica,sans-Serif" font-size="10.00"> +special</text>
</g>
<!-- Node4 -->
<g id="node4" class="node"><title>Node4</title>
<polygon fill="none" stroke="#bfbfbf" points="182,-127.5 182,-184.5 211,-184.5 211,-127.5 182,-127.5"/>
<text text-anchor="middle" x="196.5" y="-172.5" font-family="Helvetica,sans-Serif" font-size="10.00">int</text>
<polyline fill="none" stroke="#bfbfbf" points="182,-165.5 211,-165.5 "/>
<text text-anchor="middle" x="196.5" y="-153.5" font-family="Helvetica,sans-Serif" font-size="10.00"> </text>
<polyline fill="none" stroke="#bfbfbf" points="182,-146.5 211,-146.5 "/>
<text text-anchor="middle" x="196.5" y="-134.5" font-family="Helvetica,sans-Serif" font-size="10.00"> </text>
</g>
<!-- Node4&#45;&gt;Node1 -->
<g id="edge3" class="edge"><title>Node4&#45;&gt;Node1</title>
<path fill="none" stroke="#404040" d="M192.05,-127.496C188.734,-111.744 183.234,-91.9945 174.5,-76 172.92,-73.1069 171.127,-70.2439 169.194,-67.4455"/>
<polygon fill="none" stroke="#404040" points="169.002,-67.1938 162.181,-64.8536 161.718,-57.6574 168.539,-59.9976 169.002,-67.1938"/>
<text text-anchor="middle" x="204.5" y="-90" font-family="Helvetica,sans-Serif" font-size="10.00"> +magic</text>
</g>
</g>
</svg>
