<?xml version="1.0" encoding="UTF-8" standalone="no"?>
<!DOCTYPE svg PUBLIC "-//W3C//DTD SVG 1.1//EN"
 "http://www.w3.org/Graphics/SVG/1.1/DTD/svg11.dtd">
<!-- Generated by graphviz version 2.38.0 (20140413.2041)
 -->
<!-- Title: Enemy Pages: 1 -->
<svg width="739pt" height="1159pt"
 viewBox="0.00 0.00 739.00 1159.00" xmlns="http://www.w3.org/2000/svg" xmlns:xlink="http://www.w3.org/1999/xlink">
<g id="graph0" class="graph" transform="scale(1 1) rotate(0) translate(4 1155)">
<title>Enemy</title>
<!-- Node2 -->
<g id="node1" class="node"><title>Node2</title>
<polygon fill="#bfbfbf" stroke="black" points="92.5,-988.5 92.5,-1045.5 159.5,-1045.5 159.5,-988.5 92.5,-988.5"/>
<text text-anchor="middle" x="126" y="-1033.5" font-family="Helvetica,sans-Serif" font-size="10.00">Enemy</text>
<polyline fill="none" stroke="black" points="92.5,-1026.5 159.5,-1026.5 "/>
<text text-anchor="start" x="100.5" y="-1014.5" font-family="Helvetica,sans-Serif" font-size="10.00">+ ExpGiven</text>
<polyline fill="none" stroke="black" points="92.5,-1007.5 159.5,-1007.5 "/>
<text text-anchor="start" x="100.5" y="-995.5" font-family="Helvetica,sans-Serif" font-size="10.00">+ Enemy()</text>
</g>
<!-- Node8 -->
<g id="node7" class="node"><title>Node8</title>
<g id="a_node7"><a xlink:href="class_battle_manager.html" target="_top" xlink:title="Holds current Player and Enemy objects in battle and provides functions for MainBattle and other obje...">
<polygon fill="none" stroke="black" points="156,-740.5 156,-929.5 272,-929.5 272,-740.5 156,-740.5"/>
<text text-anchor="middle" x="214" y="-917.5" font-family="Helvetica,sans-Serif" font-size="10.00">BattleManager</text>
<polyline fill="none" stroke="black" points="156,-910.5 272,-910.5 "/>
<text text-anchor="start" x="164" y="-898.5" font-family="Helvetica,sans-Serif" font-size="10.00">+ Player</text>
<text text-anchor="start" x="164" y="-887.5" font-family="Helvetica,sans-Serif" font-size="10.00">+ Enemy</text>
<text text-anchor="start" x="164" y="-876.5" font-family="Helvetica,sans-Serif" font-size="10.00">+ WasCriticalHit</text>
<polyline fill="none" stroke="black" points="156,-869.5 272,-869.5 "/>
<text text-anchor="start" x="164" y="-857.5" font-family="Helvetica,sans-Serif" font-size="10.00">+ BattleManager()</text>
<text text-anchor="start" x="164" y="-846.5" font-family="Helvetica,sans-Serif" font-size="10.00">+ playerFirst()</text>
<text text-anchor="start" x="164" y="-835.5" font-family="Helvetica,sans-Serif" font-size="10.00">+ switchPlayers()</text>
<text text-anchor="start" x="164" y="-824.5" font-family="Helvetica,sans-Serif" font-size="10.00">+ isCriticalHit()</text>
<text text-anchor="start" x="164" y="-813.5" font-family="Helvetica,sans-Serif" font-size="10.00">+ ranAway()</text>
<text text-anchor="start" x="164" y="-802.5" font-family="Helvetica,sans-Serif" font-size="10.00">+ damageCalculation()</text>
<text text-anchor="start" x="164" y="-791.5" font-family="Helvetica,sans-Serif" font-size="10.00">+ enemyMove()</text>
<text text-anchor="start" x="164" y="-780.5" font-family="Helvetica,sans-Serif" font-size="10.00">+ enemySpecialMove()</text>
<text text-anchor="start" x="164" y="-769.5" font-family="Helvetica,sans-Serif" font-size="10.00">+ battleWon()</text>
<text text-anchor="start" x="164" y="-758.5" font-family="Helvetica,sans-Serif" font-size="10.00">+ playerFainted()</text>
<text text-anchor="start" x="164" y="-747.5" font-family="Helvetica,sans-Serif" font-size="10.00">&#45; characterFainted()</text>
</a>
</g>
</g>
<!-- Node2&#45;&gt;Node8 -->
<g id="edge10" class="edge"><title>Node2&#45;&gt;Node8</title>
<path fill="none" stroke="#404040" d="M137.206,-988.31C142.39,-975.881 148.771,-961.097 155,-948 156.17,-945.541 157.364,-943.057 158.579,-940.558"/>
<polygon fill="none" stroke="#404040" points="158.713,-940.285 157.776,-933.135 164.015,-929.519 164.953,-936.669 158.713,-940.285"/>
<text text-anchor="middle" x="173" y="-956.5" font-family="Helvetica,sans-Serif" font-size="10.00"> &#45;enemy</text>
</g>
<!-- Node3 -->
<g id="node2" class="node"><title>Node3</title>
<g id="a_node2"><a xlink:href="class_character.html" target="_top" xlink:title="Base abstract class for Enemy and Player to inherit from. Defines all shared variables, their constructor and their setters and getters ">
<polygon fill="none" stroke="black" points="306.5,-150.5 306.5,-328.5 401.5,-328.5 401.5,-150.5 306.5,-150.5"/>
<text text-anchor="middle" x="354" y="-316.5" font-family="Helvetica,sans-Serif" font-size="10.00">Character</text>
<polyline fill="none" stroke="black" points="306.5,-309.5 401.5,-309.5 "/>
<text text-anchor="start" x="314.5" y="-297.5" font-family="Helvetica,sans-Serif" font-size="10.00">+ Name</text>
<text text-anchor="start" x="314.5" y="-286.5" font-family="Helvetica,sans-Serif" font-size="10.00">+ Level</text>
<text text-anchor="start" x="314.5" y="-275.5" font-family="Helvetica,sans-Serif" font-size="10.00">+ Health</text>
<text text-anchor="start" x="314.5" y="-264.5" font-family="Helvetica,sans-Serif" font-size="10.00">+ Attack</text>
<text text-anchor="start" x="314.5" y="-253.5" font-family="Helvetica,sans-Serif" font-size="10.00">+ Defence</text>
<text text-anchor="start" x="314.5" y="-242.5" font-family="Helvetica,sans-Serif" font-size="10.00">+ MaximumMagic</text>
<text text-anchor="start" x="314.5" y="-231.5" font-family="Helvetica,sans-Serif" font-size="10.00">+ Magic</text>
<text text-anchor="start" x="314.5" y="-220.5" font-family="Helvetica,sans-Serif" font-size="10.00">+ Luck</text>
<text text-anchor="start" x="314.5" y="-209.5" font-family="Helvetica,sans-Serif" font-size="10.00">+ Speed</text>
<text text-anchor="start" x="314.5" y="-198.5" font-family="Helvetica,sans-Serif" font-size="10.00">+ Special1</text>
<text text-anchor="start" x="314.5" y="-187.5" font-family="Helvetica,sans-Serif" font-size="10.00">+ Special2</text>
<text text-anchor="start" x="314.5" y="-176.5" font-family="Helvetica,sans-Serif" font-size="10.00">+ Image</text>
<polyline fill="none" stroke="black" points="306.5,-169.5 401.5,-169.5 "/>
<text text-anchor="start" x="314.5" y="-157.5" font-family="Helvetica,sans-Serif" font-size="10.00"># Character()</text>
</a>
</g>
</g>
<!-- Node3&#45;&gt;Node2 -->
<g id="edge1" class="edge"><title>Node3&#45;&gt;Node2</title>
<path fill="none" stroke="midnightblue" d="M296.807,-257.186C222.733,-282.728 103,-339.149 103,-437 103,-836 103,-836 103,-836 103,-890.345 113.443,-953.179 120.255,-988.388"/>
<polygon fill="none" stroke="midnightblue" points="298.129,-260.434 306.494,-253.931 295.9,-253.798 298.129,-260.434"/>
</g>
<!-- Node7 -->
<g id="node6" class="node"><title>Node7</title>
<g id="a_node6"><a xlink:href="class_character_move.html" target="_top" xlink:title="Astract base class for character moves ">
<polygon fill="none" stroke="black" points="339,-536.5 339,-615.5 425,-615.5 425,-536.5 339,-536.5"/>
<text text-anchor="middle" x="382" y="-603.5" font-family="Helvetica,sans-Serif" font-size="10.00">CharacterMove</text>
<polyline fill="none" stroke="black" points="339,-596.5 425,-596.5 "/>
<text text-anchor="start" x="347" y="-584.5" font-family="Helvetica,sans-Serif" font-size="10.00">+ User</text>
<text text-anchor="start" x="347" y="-573.5" font-family="Helvetica,sans-Serif" font-size="10.00">+ Target</text>
<text text-anchor="start" x="347" y="-562.5" font-family="Helvetica,sans-Serif" font-size="10.00">+ Text</text>
<polyline fill="none" stroke="black" points="339,-555.5 425,-555.5 "/>
<text text-anchor="start" x="347" y="-543.5" font-family="Helvetica,sans-Serif" font-size="10.00">+ performMove()</text>
</a>
</g>
</g>
<!-- Node3&#45;&gt;Node7 -->
<g id="edge7" class="edge"><title>Node3&#45;&gt;Node7</title>
<path fill="none" stroke="#404040" d="M356.711,-328.666C358.742,-376.252 362.204,-435.95 368,-489 369.243,-500.375 370.973,-512.535 372.795,-524.025"/>
<polygon fill="none" stroke="#404040" points="372.843,-524.319 377.763,-529.591 374.789,-536.16 369.869,-530.888 372.843,-524.319"/>
<text text-anchor="middle" x="385" y="-441" font-family="Helvetica,sans-Serif" font-size="10.00"> #target</text>
<text text-anchor="middle" x="385" y="-430" font-family="Helvetica,sans-Serif" font-size="10.00">#user</text>
</g>
<!-- Node10 -->
<g id="node9" class="node"><title>Node10</title>
<g id="a_node9"><a xlink:href="class_player.html" target="_top" xlink:title="Defines a playable character for use in battle scenes">
<polygon fill="none" stroke="black" points="193,-0.5 193,-112.5 305,-112.5 305,-0.5 193,-0.5"/>
<text text-anchor="middle" x="249" y="-100.5" font-family="Helvetica,sans-Serif" font-size="10.00">Player</text>
<polyline fill="none" stroke="black" points="193,-93.5 305,-93.5 "/>
<text text-anchor="start" x="201" y="-81.5" font-family="Helvetica,sans-Serif" font-size="10.00">+ Exp</text>
<text text-anchor="start" x="201" y="-70.5" font-family="Helvetica,sans-Serif" font-size="10.00">+ Item</text>
<text text-anchor="start" x="201" y="-59.5" font-family="Helvetica,sans-Serif" font-size="10.00">+ ExpToNextLevel</text>
<polyline fill="none" stroke="black" points="193,-52.5 305,-52.5 "/>
<text text-anchor="start" x="201" y="-40.5" font-family="Helvetica,sans-Serif" font-size="10.00">+ Player()</text>
<text text-anchor="start" x="201" y="-29.5" font-family="Helvetica,sans-Serif" font-size="10.00">+ gainExp()</text>
<text text-anchor="start" x="201" y="-18.5" font-family="Helvetica,sans-Serif" font-size="10.00">+ levelUp()</text>
<text text-anchor="start" x="201" y="-7.5" font-family="Helvetica,sans-Serif" font-size="10.00">&#45; setExpToNextLevel()</text>
</a>
</g>
</g>
<!-- Node3&#45;&gt;Node10 -->
<g id="edge14" class="edge"><title>Node3&#45;&gt;Node10</title>
<path fill="none" stroke="midnightblue" d="M301.347,-147.736C294.377,-135.722 287.411,-123.714 280.94,-112.559"/>
<polygon fill="none" stroke="midnightblue" points="298.37,-149.58 306.415,-156.473 304.425,-146.067 298.37,-149.58"/>
</g>
<!-- Node4 -->
<g id="node3" class="node"><title>Node4</title>
<polygon fill="none" stroke="#bfbfbf" points="444.5,-988.5 444.5,-1045.5 485.5,-1045.5 485.5,-988.5 444.5,-988.5"/>
<text text-anchor="middle" x="465" y="-1033.5" font-family="Helvetica,sans-Serif" font-size="10.00">string</text>
<polyline fill="none" stroke="#bfbfbf" points="444.5,-1026.5 485.5,-1026.5 "/>
<text text-anchor="middle" x="465" y="-1014.5" font-family="Helvetica,sans-Serif" font-size="10.00"> </text>
<polyline fill="none" stroke="#bfbfbf" points="444.5,-1007.5 485.5,-1007.5 "/>
<text text-anchor="middle" x="465" y="-995.5" font-family="Helvetica,sans-Serif" font-size="10.00"> </text>
</g>
<!-- Node4&#45;&gt;Node3 -->
<g id="edge2" class="edge"><title>Node4&#45;&gt;Node3</title>
<path fill="none" stroke="#404040" d="M463.887,-988.168C461.829,-938.363 457.079,-830.715 451,-740 440.41,-581.961 443.345,-539.902 402,-387 397.908,-371.867 393.176,-355.991 388.311,-340.502"/>
<polygon fill="none" stroke="#404040" points="388.211,-340.188 382.58,-335.683 384.573,-328.753 390.204,-333.258 388.211,-340.188"/>
<text text-anchor="middle" x="460.5" y="-573.5" font-family="Helvetica,sans-Serif" font-size="10.00"> #name</text>
</g>
<!-- Node6 -->
<g id="node5" class="node"><title>Node6</title>
<g id="a_node5"><a xlink:href="class_special_move.html" target="_top" xlink:title="Special move abstract base class that expands upon CharacterMove, adding magic properties ...">
<polygon fill="none" stroke="black" points="524,-387.5 524,-488.5 622,-488.5 622,-387.5 524,-387.5"/>
<text text-anchor="middle" x="573" y="-476.5" font-family="Helvetica,sans-Serif" font-size="10.00">SpecialMove</text>
<polyline fill="none" stroke="black" points="524,-469.5 622,-469.5 "/>
<text text-anchor="start" x="532" y="-457.5" font-family="Helvetica,sans-Serif" font-size="10.00">+ Magic</text>
<text text-anchor="start" x="532" y="-446.5" font-family="Helvetica,sans-Serif" font-size="10.00">+ Desc</text>
<text text-anchor="start" x="532" y="-435.5" font-family="Helvetica,sans-Serif" font-size="10.00">+ Special</text>
<polyline fill="none" stroke="black" points="524,-428.5 622,-428.5 "/>
<text text-anchor="start" x="532" y="-416.5" font-family="Helvetica,sans-Serif" font-size="10.00">+ setUp()</text>
<text text-anchor="start" x="532" y="-405.5" font-family="Helvetica,sans-Serif" font-size="10.00">+ decreaseMagic()</text>
<text text-anchor="start" x="532" y="-394.5" font-family="Helvetica,sans-Serif" font-size="10.00"># SpecialMove()</text>
</a>
</g>
</g>
<!-- Node4&#45;&gt;Node6 -->
<g id="edge18" class="edge"><title>Node4&#45;&gt;Node6</title>
<path fill="none" stroke="#404040" d="M474.073,-988.439C475.867,-982.405 477.619,-976.021 479,-970 522.642,-779.698 506.557,-727.008 547,-536 549.465,-524.359 552.463,-512.03 555.536,-500.209"/>
<polygon fill="none" stroke="#404040" points="555.538,-500.198 553.211,-493.373 558.616,-488.6 560.943,-495.425 555.538,-500.198"/>
<text text-anchor="middle" x="543" y="-675.5" font-family="Helvetica,sans-Serif" font-size="10.00"> #desc</text>
</g>
<!-- Node4&#45;&gt;Node7 -->
<g id="edge6" class="edge"><title>Node4&#45;&gt;Node7</title>
<path fill="none" stroke="#404040" d="M449.772,-988.147C441.446,-971.697 431.696,-950.197 426,-930 410.298,-874.324 394.015,-711.102 386.409,-627.548"/>
<polygon fill="none" stroke="#404040" points="386.408,-627.529 381.885,-621.913 385.33,-615.578 389.853,-621.194 386.408,-627.529"/>
<text text-anchor="middle" x="438.5" y="-832.5" font-family="Helvetica,sans-Serif" font-size="10.00"> #text</text>
</g>
<!-- Node4&#45;&gt;Node8 -->
<g id="edge9" class="edge"><title>Node4&#45;&gt;Node8</title>
<path fill="none" stroke="#404040" d="M444.088,-1011.25C418.492,-1004.78 374.544,-991.466 342,-970 319.992,-955.484 298.957,-936.53 280.528,-917.467"/>
<polygon fill="none" stroke="#404040" points="280.497,-917.433 273.468,-915.823 272.25,-908.716 279.279,-910.326 280.497,-917.433"/>
<text text-anchor="middle" x="384" y="-962" font-family="Helvetica,sans-Serif" font-size="10.00"> +forceEnemyMove</text>
<text text-anchor="middle" x="384" y="-951" font-family="Helvetica,sans-Serif" font-size="10.00">+forceCriticalHits</text>
</g>
<!-- Node11 -->
<g id="node10" class="node"><title>Node11</title>
<g id="a_node10"><a xlink:href="class_item.html" target="_top" xlink:title="Abstract class for items that can be equipped to a player, increasing some of their stats ...">
<polygon fill="none" stroke="black" points="579.5,-638.5 579.5,-717.5 656.5,-717.5 656.5,-638.5 579.5,-638.5"/>
<text text-anchor="middle" x="618" y="-705.5" font-family="Helvetica,sans-Serif" font-size="10.00">Item</text>
<polyline fill="none" stroke="black" points="579.5,-698.5 656.5,-698.5 "/>
<text text-anchor="start" x="587.5" y="-686.5" font-family="Helvetica,sans-Serif" font-size="10.00">+ Name</text>
<text text-anchor="start" x="587.5" y="-675.5" font-family="Helvetica,sans-Serif" font-size="10.00">+ Desc</text>
<polyline fill="none" stroke="black" points="579.5,-668.5 656.5,-668.5 "/>
<text text-anchor="start" x="587.5" y="-656.5" font-family="Helvetica,sans-Serif" font-size="10.00">+ applyBuffs()</text>
<text text-anchor="start" x="587.5" y="-645.5" font-family="Helvetica,sans-Serif" font-size="10.00">+ revertBuffs()</text>
</a>
</g>
</g>
<!-- Node4&#45;&gt;Node11 -->
<g id="edge16" class="edge"><title>Node4&#45;&gt;Node11</title>
<path fill="none" stroke="#404040" d="M485.586,-1008.23C502.375,-1000.87 525.452,-988.202 539,-970 592.513,-898.105 609.784,-792.222 615.353,-729.966"/>
<polygon fill="none" stroke="#404040" points="615.374,-729.706 611.873,-723.402 616.346,-717.746 619.847,-724.05 615.374,-729.706"/>
<text text-anchor="middle" x="566" y="-962" font-family="Helvetica,sans-Serif" font-size="10.00"> #desc</text>
<text text-anchor="middle" x="566" y="-951" font-family="Helvetica,sans-Serif" font-size="10.00">#name</text>
</g>
<!-- Node5 -->
<g id="node4" class="node"><title>Node5</title>
<polygon fill="none" stroke="#bfbfbf" points="234.5,-1093.5 234.5,-1150.5 263.5,-1150.5 263.5,-1093.5 234.5,-1093.5"/>
<text text-anchor="middle" x="249" y="-1138.5" font-family="Helvetica,sans-Serif" font-size="10.00">int</text>
<polyline fill="none" stroke="#bfbfbf" points="234.5,-1131.5 263.5,-1131.5 "/>
<text text-anchor="middle" x="249" y="-1119.5" font-family="Helvetica,sans-Serif" font-size="10.00"> </text>
<polyline fill="none" stroke="#bfbfbf" points="234.5,-1112.5 263.5,-1112.5 "/>
<text text-anchor="middle" x="249" y="-1100.5" font-family="Helvetica,sans-Serif" font-size="10.00"> </text>
</g>
<!-- Node5&#45;&gt;Node2 -->
<g id="edge22" class="edge"><title>Node5&#45;&gt;Node2</title>
<path fill="none" stroke="#404040" d="M234.438,-1110.35C222.125,-1101.23 204.125,-1087.6 189,-1075 181.019,-1068.35 172.66,-1061.04 164.736,-1053.94"/>
<polygon fill="none" stroke="#404040" points="164.584,-1053.81 157.451,-1052.75 155.682,-1045.76 162.815,-1046.82 164.584,-1053.81"/>
<text text-anchor="middle" x="212" y="-1067" font-family="Helvetica,sans-Serif" font-size="10.00"> &#45;expGiven</text>
</g>
<!-- Node5&#45;&gt;Node3 -->
<g id="edge3" class="edge"><title>Node5&#45;&gt;Node3</title>
<path fill="none" stroke="#404040" d="M263.589,-1106.14C276.402,-1091.99 294.182,-1069.44 302,-1046 331.538,-957.424 308,-929.371 308,-836 308,-836 308,-836 308,-437 308,-405.296 313.747,-371.454 321.179,-340.946"/>
<polygon fill="none" stroke="#404040" points="321.263,-340.617 318.863,-333.816 324.218,-328.986 326.617,-335.786 321.263,-340.617"/>
<text text-anchor="middle" x="345.5" y="-714" font-family="Helvetica,sans-Serif" font-size="10.00"> #speed</text>
<text text-anchor="middle" x="345.5" y="-703" font-family="Helvetica,sans-Serif" font-size="10.00">#luck</text>
<text text-anchor="middle" x="345.5" y="-692" font-family="Helvetica,sans-Serif" font-size="10.00">#health</text>
<text text-anchor="middle" x="345.5" y="-681" font-family="Helvetica,sans-Serif" font-size="10.00">#magic</text>
<text text-anchor="middle" x="345.5" y="-670" font-family="Helvetica,sans-Serif" font-size="10.00">#maximumMagic</text>
<text text-anchor="middle" x="345.5" y="-659" font-family="Helvetica,sans-Serif" font-size="10.00">#attack</text>
<text text-anchor="middle" x="345.5" y="-648" font-family="Helvetica,sans-Serif" font-size="10.00">#defence</text>
<text text-anchor="middle" x="345.5" y="-637" font-family="Helvetica,sans-Serif" font-size="10.00">#level</text>
</g>
<!-- Node5&#45;&gt;Node6 -->
<g id="edge20" class="edge"><title>Node5&#45;&gt;Node6</title>
<path fill="none" stroke="#404040" d="M263.872,-1120.83C341.434,-1119.56 696,-1108.79 696,-1018 696,-1018 696,-1018 696,-575 696,-553.903 663.03,-518.197 631.23,-488.664"/>
<polygon fill="none" stroke="#404040" points="631.175,-488.614 624.048,-487.516 622.32,-480.515 629.447,-481.613 631.175,-488.614"/>
<text text-anchor="middle" x="713.5" y="-832.5" font-family="Helvetica,sans-Serif" font-size="10.00"> #magic</text>
</g>
<!-- Node5&#45;&gt;Node8 -->
<g id="edge11" class="edge"><title>Node5&#45;&gt;Node8</title>
<path fill="none" stroke="#404040" d="M251.904,-1093.44C256.545,-1048.21 264.839,-961.83 262,-948 261.549,-945.803 261.053,-943.596 260.517,-941.383"/>
<polygon fill="none" stroke="#404040" points="260.44,-941.103 255.005,-936.365 257.288,-929.524 262.724,-934.263 260.44,-941.103"/>
<text text-anchor="middle" x="281.5" y="-1014.5" font-family="Helvetica,sans-Serif" font-size="10.00"> +money</text>
</g>
<!-- Node5&#45;&gt;Node10 -->
<g id="edge17" class="edge"><title>Node5&#45;&gt;Node10</title>
<path fill="none" stroke="#404040" d="M234.17,-1121.61C180.565,-1122.97 0,-1119.98 0,-1018 0,-1018 0,-1018 0,-238.5 0,-148.582 107.553,-98.6748 181.287,-75.0258"/>
<polygon fill="none" stroke="#404040" points="181.347,-75.0072 185.894,-69.4098 192.809,-71.4536 188.263,-77.051 181.347,-75.0072"/>
<text text-anchor="middle" x="37.5" y="-579" font-family="Helvetica,sans-Serif" font-size="10.00"> &#45;expToNextLevel</text>
<text text-anchor="middle" x="37.5" y="-568" font-family="Helvetica,sans-Serif" font-size="10.00">&#45;exp</text>
</g>
<!-- Node6&#45;&gt;Node3 -->
<g id="edge4" class="edge"><title>Node6&#45;&gt;Node3</title>
<path fill="none" stroke="#404040" d="M524.157,-387.167C510.718,-373.878 495.987,-359.692 482,-347 459.334,-326.432 433.523,-304.661 411.045,-286.199"/>
<polygon fill="none" stroke="#404040" points="410.923,-286.1 403.746,-285.398 401.634,-278.503 408.811,-279.205 410.923,-286.1"/>
<text text-anchor="middle" x="528.5" y="-361" font-family="Helvetica,sans-Serif" font-size="10.00"> #special1</text>
<text text-anchor="middle" x="528.5" y="-350" font-family="Helvetica,sans-Serif" font-size="10.00">#special2</text>
</g>
<!-- Node7&#45;&gt;Node6 -->
<g id="edge5" class="edge"><title>Node7&#45;&gt;Node6</title>
<path fill="none" stroke="midnightblue" d="M434.088,-539.86C436.081,-538.552 438.057,-537.262 440,-536 472.993,-514.578 483.345,-512.354 515,-489 517.888,-486.869 520.813,-484.631 523.733,-482.333"/>
<polygon fill="none" stroke="midnightblue" points="431.704,-537.24 425.289,-545.671 435.562,-543.081 431.704,-537.24"/>
</g>
<!-- Node8&#45;&gt;Node7 -->
<g id="edge8" class="edge"><title>Node8&#45;&gt;Node7</title>
<path fill="none" stroke="#404040" d="M217.201,-740.314C220.454,-696.72 226.972,-650.815 240,-634 260.899,-607.026 296.575,-592.771 326.938,-585.262"/>
<polygon fill="none" stroke="#404040" points="326.994,-585.249 331.97,-580.029 338.702,-582.614 333.726,-587.834 326.994,-585.249"/>
<text text-anchor="middle" x="263" y="-675.5" font-family="Helvetica,sans-Serif" font-size="10.00"> #manager</text>
</g>
<!-- Node9 -->
<g id="node8" class="node"><title>Node9</title>
<polygon fill="none" stroke="#bfbfbf" points="177.5,-988.5 177.5,-1045.5 212.5,-1045.5 212.5,-988.5 177.5,-988.5"/>
<text text-anchor="middle" x="195" y="-1033.5" font-family="Helvetica,sans-Serif" font-size="10.00">bool</text>
<polyline fill="none" stroke="#bfbfbf" points="177.5,-1026.5 212.5,-1026.5 "/>
<text text-anchor="middle" x="195" y="-1014.5" font-family="Helvetica,sans-Serif" font-size="10.00"> </text>
<polyline fill="none" stroke="#bfbfbf" points="177.5,-1007.5 212.5,-1007.5 "/>
<text text-anchor="middle" x="195" y="-995.5" font-family="Helvetica,sans-Serif" font-size="10.00"> </text>
</g>
<!-- Node9&#45;&gt;Node8 -->
<g id="edge12" class="edge"><title>Node9&#45;&gt;Node8</title>
<path fill="none" stroke="#404040" d="M194.502,-988.492C194.51,-976.098 194.84,-961.291 196,-948 196.179,-945.943 196.374,-943.867 196.583,-941.776"/>
<polygon fill="none" stroke="#404040" points="196.602,-941.608 193.286,-935.204 197.921,-929.68 201.237,-936.084 196.602,-941.608"/>
<text text-anchor="middle" x="229" y="-956.5" font-family="Helvetica,sans-Serif" font-size="10.00"> &#45;wasCriticalHit</text>
</g>
<!-- Node10&#45;&gt;Node8 -->
<g id="edge13" class="edge"><title>Node10&#45;&gt;Node8</title>
<path fill="none" stroke="#404040" d="M228.885,-112.551C217.694,-148.012 206,-195.382 206,-238.5 206,-577 206,-577 206,-577 206,-626.686 207.512,-681.748 209.222,-728.12"/>
<polygon fill="none" stroke="#404040" points="209.23,-728.342 213.454,-734.186 209.684,-740.333 205.46,-734.489 209.23,-728.342"/>
<text text-anchor="middle" x="222.5" y="-435.5" font-family="Helvetica,sans-Serif" font-size="10.00"> &#45;player</text>
</g>
<!-- Node11&#45;&gt;Node10 -->
<g id="edge15" class="edge"><title>Node11&#45;&gt;Node10</title>
<path fill="none" stroke="#404040" d="M633.008,-638.336C644.358,-605.609 658,-557.188 658,-513.5 658,-513.5 658,-513.5 658,-238.5 658,-91.2831 433.673,-62.8473 317.288,-58.0009"/>
<polygon fill="none" stroke="#404040" points="317.004,-57.9908 310.865,-61.7731 305.012,-57.5605 311.152,-53.7782 317.004,-57.9908"/>
<text text-anchor="middle" x="670.5" y="-435.5" font-family="Helvetica,sans-Serif" font-size="10.00"> &#45;item</text>
</g>
<!-- Node12 -->
<g id="node11" class="node"><title>Node12</title>
<polygon fill="none" stroke="#bfbfbf" points="555.5,-547.5 555.5,-604.5 590.5,-604.5 590.5,-547.5 555.5,-547.5"/>
<text text-anchor="middle" x="573" y="-592.5" font-family="Helvetica,sans-Serif" font-size="10.00">float</text>
<polyline fill="none" stroke="#bfbfbf" points="555.5,-585.5 590.5,-585.5 "/>
<text text-anchor="middle" x="573" y="-573.5" font-family="Helvetica,sans-Serif" font-size="10.00"> </text>
<polyline fill="none" stroke="#bfbfbf" points="555.5,-566.5 590.5,-566.5 "/>
<text text-anchor="middle" x="573" y="-554.5" font-family="Helvetica,sans-Serif" font-size="10.00"> </text>
</g>
<!-- Node12&#45;&gt;Node6 -->
<g id="edge19" class="edge"><title>Node12&#45;&gt;Node6</title>
<path fill="none" stroke="#404040" d="M573,-547.478C573,-534.057 573,-517.327 573,-501.055"/>
<polygon fill="none" stroke="#404040" points="573,-500.764 569,-494.764 573,-488.764 577,-494.764 573,-500.764"/>
<text text-anchor="middle" x="593" y="-510" font-family="Helvetica,sans-Serif" font-size="10.00"> #special</text>
</g>
<!-- Node13 -->
<g id="node12" class="node"><title>Node13</title>
<polygon fill="none" stroke="#bfbfbf" points="444.5,-409.5 444.5,-466.5 505.5,-466.5 505.5,-409.5 444.5,-409.5"/>
<text text-anchor="middle" x="475" y="-454.5" font-family="Helvetica,sans-Serif" font-size="10.00">Texture2D</text>
<polyline fill="none" stroke="#bfbfbf" points="444.5,-447.5 505.5,-447.5 "/>
<text text-anchor="middle" x="475" y="-435.5" font-family="Helvetica,sans-Serif" font-size="10.00"> </text>
<polyline fill="none" stroke="#bfbfbf" points="444.5,-428.5 505.5,-428.5 "/>
<text text-anchor="middle" x="475" y="-416.5" font-family="Helvetica,sans-Serif" font-size="10.00"> </text>
</g>
<!-- Node13&#45;&gt;Node3 -->
<g id="edge21" class="edge"><title>Node13&#45;&gt;Node3</title>
<path fill="none" stroke="#404040" d="M462.494,-409.231C454.009,-391.13 442.16,-367.207 430,-347 423.409,-336.048 416.044,-324.765 408.562,-313.825"/>
<polygon fill="none" stroke="#404040" points="408.515,-313.756 401.809,-311.104 401.678,-303.894 408.384,-306.546 408.515,-313.756"/>
<text text-anchor="middle" x="460.5" y="-355.5" font-family="Helvetica,sans-Serif" font-size="10.00"> #image</text>
</g>
</g>
</svg>
