<?xml version="1.0" encoding="UTF-8" standalone="no"?>
<!DOCTYPE svg PUBLIC "-//W3C//DTD SVG 1.1//EN"
 "http://www.w3.org/Graphics/SVG/1.1/DTD/svg11.dtd">
<!-- Generated by graphviz version 2.38.0 (20140413.2041)
 -->
<!-- Title: HealingSpell Pages: 1 -->
<svg width="784pt" height="1056pt"
 viewBox="0.00 0.00 783.50 1056.00" xmlns="http://www.w3.org/2000/svg" xmlns:xlink="http://www.w3.org/1999/xlink">
<g id="graph0" class="graph" transform="scale(1 1) rotate(0) translate(4 1052)">
<title>HealingSpell</title>
<!-- Node3 -->
<g id="node1" class="node"><title>Node3</title>
<polygon fill="#bfbfbf" stroke="black" points="100.5,-590.5 100.5,-658.5 186.5,-658.5 186.5,-590.5 100.5,-590.5"/>
<text text-anchor="middle" x="143.5" y="-646.5" font-family="Helvetica,sans-Serif" font-size="10.00">HealingSpell</text>
<polyline fill="none" stroke="black" points="100.5,-639.5 186.5,-639.5 "/>
<text text-anchor="middle" x="143.5" y="-627.5" font-family="Helvetica,sans-Serif" font-size="10.00"> </text>
<polyline fill="none" stroke="black" points="100.5,-620.5 186.5,-620.5 "/>
<text text-anchor="start" x="108.5" y="-608.5" font-family="Helvetica,sans-Serif" font-size="10.00">+ HealingSpell()</text>
<text text-anchor="start" x="108.5" y="-597.5" font-family="Helvetica,sans-Serif" font-size="10.00">+ performMove()</text>
</g>
<!-- Node4 -->
<g id="node2" class="node"><title>Node4</title>
<g id="a_node2"><a xlink:href="class_special_move.html" target="_top" xlink:title="Special move abstract base class that expands upon CharacterMove, adding magic properties ...">
<polygon fill="none" stroke="black" points="132.5,-830.5 132.5,-931.5 230.5,-931.5 230.5,-830.5 132.5,-830.5"/>
<text text-anchor="middle" x="181.5" y="-919.5" font-family="Helvetica,sans-Serif" font-size="10.00">SpecialMove</text>
<polyline fill="none" stroke="black" points="132.5,-912.5 230.5,-912.5 "/>
<text text-anchor="start" x="140.5" y="-900.5" font-family="Helvetica,sans-Serif" font-size="10.00">+ Magic</text>
<text text-anchor="start" x="140.5" y="-889.5" font-family="Helvetica,sans-Serif" font-size="10.00">+ Desc</text>
<text text-anchor="start" x="140.5" y="-878.5" font-family="Helvetica,sans-Serif" font-size="10.00">+ Special</text>
<polyline fill="none" stroke="black" points="132.5,-871.5 230.5,-871.5 "/>
<text text-anchor="start" x="140.5" y="-859.5" font-family="Helvetica,sans-Serif" font-size="10.00">+ setUp()</text>
<text text-anchor="start" x="140.5" y="-848.5" font-family="Helvetica,sans-Serif" font-size="10.00">+ decreaseMagic()</text>
<text text-anchor="start" x="140.5" y="-837.5" font-family="Helvetica,sans-Serif" font-size="10.00"># SpecialMove()</text>
</a>
</g>
</g>
<!-- Node4&#45;&gt;Node3 -->
<g id="edge1" class="edge"><title>Node4&#45;&gt;Node3</title>
<path fill="none" stroke="midnightblue" d="M172.574,-820.222C165.06,-769.893 154.587,-699.752 148.477,-658.835"/>
<polygon fill="none" stroke="midnightblue" points="169.145,-820.952 174.083,-830.326 176.068,-819.918 169.145,-820.952"/>
</g>
<!-- Node7 -->
<g id="node5" class="node"><title>Node7</title>
<g id="a_node5"><a xlink:href="class_character.html" target="_top" xlink:title="Base abstract class for Enemy and Player to inherit from. Defines all shared variables, their constructor and their setters and getters ">
<polygon fill="none" stroke="black" points="424,-535.5 424,-713.5 519,-713.5 519,-535.5 424,-535.5"/>
<text text-anchor="middle" x="471.5" y="-701.5" font-family="Helvetica,sans-Serif" font-size="10.00">Character</text>
<polyline fill="none" stroke="black" points="424,-694.5 519,-694.5 "/>
<text text-anchor="start" x="432" y="-682.5" font-family="Helvetica,sans-Serif" font-size="10.00">+ Name</text>
<text text-anchor="start" x="432" y="-671.5" font-family="Helvetica,sans-Serif" font-size="10.00">+ Level</text>
<text text-anchor="start" x="432" y="-660.5" font-family="Helvetica,sans-Serif" font-size="10.00">+ Health</text>
<text text-anchor="start" x="432" y="-649.5" font-family="Helvetica,sans-Serif" font-size="10.00">+ Attack</text>
<text text-anchor="start" x="432" y="-638.5" font-family="Helvetica,sans-Serif" font-size="10.00">+ Defence</text>
<text text-anchor="start" x="432" y="-627.5" font-family="Helvetica,sans-Serif" font-size="10.00">+ MaximumMagic</text>
<text text-anchor="start" x="432" y="-616.5" font-family="Helvetica,sans-Serif" font-size="10.00">+ Magic</text>
<text text-anchor="start" x="432" y="-605.5" font-family="Helvetica,sans-Serif" font-size="10.00">+ Luck</text>
<text text-anchor="start" x="432" y="-594.5" font-family="Helvetica,sans-Serif" font-size="10.00">+ Speed</text>
<text text-anchor="start" x="432" y="-583.5" font-family="Helvetica,sans-Serif" font-size="10.00">+ Special1</text>
<text text-anchor="start" x="432" y="-572.5" font-family="Helvetica,sans-Serif" font-size="10.00">+ Special2</text>
<text text-anchor="start" x="432" y="-561.5" font-family="Helvetica,sans-Serif" font-size="10.00">+ Image</text>
<polyline fill="none" stroke="black" points="424,-554.5 519,-554.5 "/>
<text text-anchor="start" x="432" y="-542.5" font-family="Helvetica,sans-Serif" font-size="10.00"># Character()</text>
</a>
</g>
</g>
<!-- Node4&#45;&gt;Node7 -->
<g id="edge7" class="edge"><title>Node4&#45;&gt;Node7</title>
<path fill="none" stroke="#404040" d="M216.47,-830.22C246.331,-787.862 284.878,-733.6 287.5,-732 334.287,-703.451 362.862,-742.792 409.5,-714 411.096,-713.015 412.662,-711.971 414.198,-710.875"/>
<polygon fill="none" stroke="#404040" points="414.603,-710.545 416.719,-703.652 423.897,-702.954 421.78,-709.847 414.603,-710.545"/>
<text text-anchor="middle" x="310" y="-775" font-family="Helvetica,sans-Serif" font-size="10.00"> #special1</text>
<text text-anchor="middle" x="310" y="-764" font-family="Helvetica,sans-Serif" font-size="10.00">#special2</text>
</g>
<!-- Node5 -->
<g id="node3" class="node"><title>Node5</title>
<g id="a_node3"><a xlink:href="class_character_move.html" target="_top" xlink:title="Astract base class for character moves ">
<polygon fill="none" stroke="black" points="266.5,-0.5 266.5,-79.5 352.5,-79.5 352.5,-0.5 266.5,-0.5"/>
<text text-anchor="middle" x="309.5" y="-67.5" font-family="Helvetica,sans-Serif" font-size="10.00">CharacterMove</text>
<polyline fill="none" stroke="black" points="266.5,-60.5 352.5,-60.5 "/>
<text text-anchor="start" x="274.5" y="-48.5" font-family="Helvetica,sans-Serif" font-size="10.00">+ User</text>
<text text-anchor="start" x="274.5" y="-37.5" font-family="Helvetica,sans-Serif" font-size="10.00">+ Target</text>
<text text-anchor="start" x="274.5" y="-26.5" font-family="Helvetica,sans-Serif" font-size="10.00">+ Text</text>
<polyline fill="none" stroke="black" points="266.5,-19.5 352.5,-19.5 "/>
<text text-anchor="start" x="274.5" y="-7.5" font-family="Helvetica,sans-Serif" font-size="10.00">+ performMove()</text>
</a>
</g>
</g>
<!-- Node5&#45;&gt;Node4 -->
<g id="edge2" class="edge"><title>Node5&#45;&gt;Node4</title>
<path fill="none" stroke="midnightblue" d="M268.801,-87.7207C243.016,-122.156 214.5,-171.44 214.5,-221 214.5,-625.5 214.5,-625.5 214.5,-625.5 214.5,-697.009 201.529,-778.889 191.851,-830.027"/>
<polygon fill="none" stroke="midnightblue" points="271.62,-89.7961 274.934,-79.7328 266.068,-85.5332 271.62,-89.7961"/>
</g>
<!-- Node6 -->
<g id="node4" class="node"><title>Node6</title>
<polygon fill="none" stroke="#bfbfbf" points="238,-990.5 238,-1047.5 279,-1047.5 279,-990.5 238,-990.5"/>
<text text-anchor="middle" x="258.5" y="-1035.5" font-family="Helvetica,sans-Serif" font-size="10.00">string</text>
<polyline fill="none" stroke="#bfbfbf" points="238,-1028.5 279,-1028.5 "/>
<text text-anchor="middle" x="258.5" y="-1016.5" font-family="Helvetica,sans-Serif" font-size="10.00"> </text>
<polyline fill="none" stroke="#bfbfbf" points="238,-1009.5 279,-1009.5 "/>
<text text-anchor="middle" x="258.5" y="-997.5" font-family="Helvetica,sans-Serif" font-size="10.00"> </text>
</g>
<!-- Node6&#45;&gt;Node4 -->
<g id="edge21" class="edge"><title>Node6&#45;&gt;Node4</title>
<path fill="none" stroke="#404040" d="M237.715,-999.81C229.63,-991.899 220.813,-982.129 214.5,-972 208.936,-963.072 204.108,-953.066 199.991,-943.058"/>
<polygon fill="none" stroke="#404040" points="199.972,-943.009 194.077,-938.855 195.645,-931.816 201.539,-935.97 199.972,-943.009"/>
<text text-anchor="middle" x="229.5" y="-958.5" font-family="Helvetica,sans-Serif" font-size="10.00"> #desc</text>
</g>
<!-- Node6&#45;&gt;Node5 -->
<g id="edge3" class="edge"><title>Node6&#45;&gt;Node5</title>
<path fill="none" stroke="#404040" d="M237.884,-1013.37C189.457,-1001.14 72.5,-963.206 72.5,-882 72.5,-882 72.5,-882 72.5,-221 72.5,-130.032 184.602,-79.0502 254.609,-56.0817"/>
<polygon fill="none" stroke="#404040" points="254.867,-55.9999 259.378,-50.3741 266.306,-52.3744 261.795,-58.0002 254.867,-55.9999"/>
<text text-anchor="middle" x="85" y="-509" font-family="Helvetica,sans-Serif" font-size="10.00"> #text</text>
</g>
<!-- Node6&#45;&gt;Node7 -->
<g id="edge5" class="edge"><title>Node6&#45;&gt;Node7</title>
<path fill="none" stroke="#404040" d="M279.091,-1007.38C292.992,-999.311 310.86,-987.042 322.5,-972 363.919,-918.474 330.291,-878.496 377.5,-830 391.951,-815.154 406.829,-827.567 420.5,-812 432.592,-798.231 443.647,-762.282 452.349,-725.578"/>
<polygon fill="none" stroke="#404040" points="452.4,-725.356 449.847,-718.612 455.09,-713.661 457.643,-720.405 452.4,-725.356"/>
<text text-anchor="middle" x="394" y="-878.5" font-family="Helvetica,sans-Serif" font-size="10.00"> #name</text>
</g>
<!-- Node10 -->
<g id="node8" class="node"><title>Node10</title>
<g id="a_node8"><a xlink:href="class_battle_manager.html" target="_top" xlink:title="Holds current Player and Enemy objects in battle and provides functions for MainBattle and other obje...">
<polygon fill="none" stroke="black" points="463.5,-127.5 463.5,-316.5 579.5,-316.5 579.5,-127.5 463.5,-127.5"/>
<text text-anchor="middle" x="521.5" y="-304.5" font-family="Helvetica,sans-Serif" font-size="10.00">BattleManager</text>
<polyline fill="none" stroke="black" points="463.5,-297.5 579.5,-297.5 "/>
<text text-anchor="start" x="471.5" y="-285.5" font-family="Helvetica,sans-Serif" font-size="10.00">+ Player</text>
<text text-anchor="start" x="471.5" y="-274.5" font-family="Helvetica,sans-Serif" font-size="10.00">+ Enemy</text>
<text text-anchor="start" x="471.5" y="-263.5" font-family="Helvetica,sans-Serif" font-size="10.00">+ WasCriticalHit</text>
<polyline fill="none" stroke="black" points="463.5,-256.5 579.5,-256.5 "/>
<text text-anchor="start" x="471.5" y="-244.5" font-family="Helvetica,sans-Serif" font-size="10.00">+ BattleManager()</text>
<text text-anchor="start" x="471.5" y="-233.5" font-family="Helvetica,sans-Serif" font-size="10.00">+ playerFirst()</text>
<text text-anchor="start" x="471.5" y="-222.5" font-family="Helvetica,sans-Serif" font-size="10.00">+ switchPlayers()</text>
<text text-anchor="start" x="471.5" y="-211.5" font-family="Helvetica,sans-Serif" font-size="10.00">+ isCriticalHit()</text>
<text text-anchor="start" x="471.5" y="-200.5" font-family="Helvetica,sans-Serif" font-size="10.00">+ ranAway()</text>
<text text-anchor="start" x="471.5" y="-189.5" font-family="Helvetica,sans-Serif" font-size="10.00">+ damageCalculation()</text>
<text text-anchor="start" x="471.5" y="-178.5" font-family="Helvetica,sans-Serif" font-size="10.00">+ enemyMove()</text>
<text text-anchor="start" x="471.5" y="-167.5" font-family="Helvetica,sans-Serif" font-size="10.00">+ enemySpecialMove()</text>
<text text-anchor="start" x="471.5" y="-156.5" font-family="Helvetica,sans-Serif" font-size="10.00">+ battleWon()</text>
<text text-anchor="start" x="471.5" y="-145.5" font-family="Helvetica,sans-Serif" font-size="10.00">+ playerFainted()</text>
<text text-anchor="start" x="471.5" y="-134.5" font-family="Helvetica,sans-Serif" font-size="10.00">&#45; characterFainted()</text>
</a>
</g>
</g>
<!-- Node6&#45;&gt;Node10 -->
<g id="edge10" class="edge"><title>Node6&#45;&gt;Node10</title>
<path fill="none" stroke="#404040" d="M254.762,-990.322C245.595,-915.267 226.045,-702.27 273.5,-535 301.485,-436.357 322.73,-413.663 388.5,-335 407.476,-312.305 431.414,-290.572 453.734,-272.391"/>
<polygon fill="none" stroke="#404040" points="453.815,-272.326 455.998,-265.453 463.181,-264.825 460.999,-271.698 453.815,-272.326"/>
<text text-anchor="middle" x="315.5" y="-627.5" font-family="Helvetica,sans-Serif" font-size="10.00"> +forceEnemyMove</text>
<text text-anchor="middle" x="315.5" y="-616.5" font-family="Helvetica,sans-Serif" font-size="10.00">+forceCriticalHits</text>
</g>
<!-- Node14 -->
<g id="node12" class="node"><title>Node14</title>
<g id="a_node12"><a xlink:href="class_item.html" target="_top" xlink:title="Abstract class for items that can be equipped to a player, increasing some of their stats ...">
<polygon fill="none" stroke="black" points="342,-732.5 342,-811.5 419,-811.5 419,-732.5 342,-732.5"/>
<text text-anchor="middle" x="380.5" y="-799.5" font-family="Helvetica,sans-Serif" font-size="10.00">Item</text>
<polyline fill="none" stroke="black" points="342,-792.5 419,-792.5 "/>
<text text-anchor="start" x="350" y="-780.5" font-family="Helvetica,sans-Serif" font-size="10.00">+ Name</text>
<text text-anchor="start" x="350" y="-769.5" font-family="Helvetica,sans-Serif" font-size="10.00">+ Desc</text>
<polyline fill="none" stroke="black" points="342,-762.5 419,-762.5 "/>
<text text-anchor="start" x="350" y="-750.5" font-family="Helvetica,sans-Serif" font-size="10.00">+ applyBuffs()</text>
<text text-anchor="start" x="350" y="-739.5" font-family="Helvetica,sans-Serif" font-size="10.00">+ revertBuffs()</text>
</a>
</g>
</g>
<!-- Node6&#45;&gt;Node14 -->
<g id="edge19" class="edge"><title>Node6&#45;&gt;Node14</title>
<path fill="none" stroke="#404040" d="M270.339,-990.495C286.5,-953.492 316.857,-885.869 346.5,-830 347.844,-827.466 349.249,-824.887 350.688,-822.294"/>
<polygon fill="none" stroke="#404040" points="350.813,-822.075 350.303,-814.882 356.746,-811.644 357.256,-818.837 350.813,-822.075"/>
<text text-anchor="middle" x="303.5" y="-964" font-family="Helvetica,sans-Serif" font-size="10.00"> #desc</text>
<text text-anchor="middle" x="303.5" y="-953" font-family="Helvetica,sans-Serif" font-size="10.00">#name</text>
</g>
<!-- Node7&#45;&gt;Node5 -->
<g id="edge4" class="edge"><title>Node7&#45;&gt;Node5</title>
<path fill="none" stroke="#404040" d="M446.984,-535.347C412.552,-411.543 351.007,-190.244 323.478,-91.26"/>
<polygon fill="none" stroke="#404040" points="323.431,-91.0899 317.969,-86.3811 320.215,-79.5287 325.677,-84.2375 323.431,-91.0899"/>
<text text-anchor="middle" x="413.5" y="-349" font-family="Helvetica,sans-Serif" font-size="10.00"> #target</text>
<text text-anchor="middle" x="413.5" y="-338" font-family="Helvetica,sans-Serif" font-size="10.00">#user</text>
</g>
<!-- Node11 -->
<g id="node9" class="node"><title>Node11</title>
<g id="a_node9"><a xlink:href="class_enemy.html" target="_top" xlink:title="Defines an AI controller enemy to fight in battle scenes">
<polygon fill="none" stroke="black" points="677,-403 677,-460 744,-460 744,-403 677,-403"/>
<text text-anchor="middle" x="710.5" y="-448" font-family="Helvetica,sans-Serif" font-size="10.00">Enemy</text>
<polyline fill="none" stroke="black" points="677,-441 744,-441 "/>
<text text-anchor="start" x="685" y="-429" font-family="Helvetica,sans-Serif" font-size="10.00">+ ExpGiven</text>
<polyline fill="none" stroke="black" points="677,-422 744,-422 "/>
<text text-anchor="start" x="685" y="-410" font-family="Helvetica,sans-Serif" font-size="10.00">+ Enemy()</text>
</a>
</g>
</g>
<!-- Node7&#45;&gt;Node11 -->
<g id="edge12" class="edge"><title>Node7&#45;&gt;Node11</title>
<path fill="none" stroke="midnightblue" d="M526.866,-579.253C573.276,-542.165 638.023,-490.421 676.944,-459.317"/>
<polygon fill="none" stroke="midnightblue" points="524.631,-576.559 519.004,-585.536 529.001,-582.027 524.631,-576.559"/>
</g>
<!-- Node13 -->
<g id="node11" class="node"><title>Node13</title>
<g id="a_node11"><a xlink:href="class_player.html" target="_top" xlink:title="Defines a playable character for use in battle scenes">
<polygon fill="none" stroke="black" points="497.5,-375.5 497.5,-487.5 609.5,-487.5 609.5,-375.5 497.5,-375.5"/>
<text text-anchor="middle" x="553.5" y="-475.5" font-family="Helvetica,sans-Serif" font-size="10.00">Player</text>
<polyline fill="none" stroke="black" points="497.5,-468.5 609.5,-468.5 "/>
<text text-anchor="start" x="505.5" y="-456.5" font-family="Helvetica,sans-Serif" font-size="10.00">+ Exp</text>
<text text-anchor="start" x="505.5" y="-445.5" font-family="Helvetica,sans-Serif" font-size="10.00">+ Item</text>
<text text-anchor="start" x="505.5" y="-434.5" font-family="Helvetica,sans-Serif" font-size="10.00">+ ExpToNextLevel</text>
<polyline fill="none" stroke="black" points="497.5,-427.5 609.5,-427.5 "/>
<text text-anchor="start" x="505.5" y="-415.5" font-family="Helvetica,sans-Serif" font-size="10.00">+ Player()</text>
<text text-anchor="start" x="505.5" y="-404.5" font-family="Helvetica,sans-Serif" font-size="10.00">+ gainExp()</text>
<text text-anchor="start" x="505.5" y="-393.5" font-family="Helvetica,sans-Serif" font-size="10.00">+ levelUp()</text>
<text text-anchor="start" x="505.5" y="-382.5" font-family="Helvetica,sans-Serif" font-size="10.00">&#45; setExpToNextLevel()</text>
</a>
</g>
</g>
<!-- Node7&#45;&gt;Node13 -->
<g id="edge17" class="edge"><title>Node7&#45;&gt;Node13</title>
<path fill="none" stroke="midnightblue" d="M513.469,-525.743C519.088,-512.656 524.682,-499.625 529.829,-487.635"/>
<polygon fill="none" stroke="midnightblue" points="510.109,-524.698 509.38,-535.268 516.541,-527.46 510.109,-524.698"/>
</g>
<!-- Node8 -->
<g id="node6" class="node"><title>Node8</title>
<polygon fill="none" stroke="#bfbfbf" points="606,-990.5 606,-1047.5 635,-1047.5 635,-990.5 606,-990.5"/>
<text text-anchor="middle" x="620.5" y="-1035.5" font-family="Helvetica,sans-Serif" font-size="10.00">int</text>
<polyline fill="none" stroke="#bfbfbf" points="606,-1028.5 635,-1028.5 "/>
<text text-anchor="middle" x="620.5" y="-1016.5" font-family="Helvetica,sans-Serif" font-size="10.00"> </text>
<polyline fill="none" stroke="#bfbfbf" points="606,-1009.5 635,-1009.5 "/>
<text text-anchor="middle" x="620.5" y="-997.5" font-family="Helvetica,sans-Serif" font-size="10.00"> </text>
</g>
<!-- Node8&#45;&gt;Node4 -->
<g id="edge23" class="edge"><title>Node8&#45;&gt;Node4</title>
<path fill="none" stroke="#404040" d="M605.812,-1013.61C578.668,-1005.48 518.826,-987.505 468.5,-972 390.298,-947.906 300.297,-919.586 242.244,-901.242"/>
<polygon fill="none" stroke="#404040" points="242.156,-901.215 235.23,-903.22 230.714,-897.598 237.641,-895.592 242.156,-901.215"/>
<text text-anchor="middle" x="486" y="-958.5" font-family="Helvetica,sans-Serif" font-size="10.00"> #magic</text>
</g>
<!-- Node8&#45;&gt;Node7 -->
<g id="edge6" class="edge"><title>Node8&#45;&gt;Node7</title>
<path fill="none" stroke="#404040" d="M605.969,-1008.62C585.609,-994.614 549.114,-966.19 531.5,-932 490.336,-852.097 520.389,-819.876 501.5,-732 501.036,-729.84 500.553,-727.66 500.053,-725.464"/>
<polygon fill="none" stroke="#404040" points="500.014,-725.296 494.737,-720.382 497.244,-713.62 502.521,-718.535 500.014,-725.296"/>
<text text-anchor="middle" x="569" y="-917" font-family="Helvetica,sans-Serif" font-size="10.00"> #speed</text>
<text text-anchor="middle" x="569" y="-906" font-family="Helvetica,sans-Serif" font-size="10.00">#luck</text>
<text text-anchor="middle" x="569" y="-895" font-family="Helvetica,sans-Serif" font-size="10.00">#health</text>
<text text-anchor="middle" x="569" y="-884" font-family="Helvetica,sans-Serif" font-size="10.00">#magic</text>
<text text-anchor="middle" x="569" y="-873" font-family="Helvetica,sans-Serif" font-size="10.00">#maximumMagic</text>
<text text-anchor="middle" x="569" y="-862" font-family="Helvetica,sans-Serif" font-size="10.00">#attack</text>
<text text-anchor="middle" x="569" y="-851" font-family="Helvetica,sans-Serif" font-size="10.00">#defence</text>
<text text-anchor="middle" x="569" y="-840" font-family="Helvetica,sans-Serif" font-size="10.00">#level</text>
</g>
<!-- Node8&#45;&gt;Node10 -->
<g id="edge14" class="edge"><title>Node8&#45;&gt;Node10</title>
<path fill="none" stroke="#404040" d="M635.092,-993.965C638.53,-987.109 641.712,-979.468 643.5,-972 660.055,-902.841 644.278,-883.112 644.5,-812 645.108,-617.435 679.769,-559.667 618.5,-375 610.868,-351.997 598.981,-329.006 586.11,-308.122"/>
<polygon fill="none" stroke="#404040" points="585.945,-307.862 579.353,-304.938 579.518,-297.729 586.109,-300.653 585.945,-307.862"/>
<text text-anchor="middle" x="674" y="-622" font-family="Helvetica,sans-Serif" font-size="10.00"> +money</text>
</g>
<!-- Node8&#45;&gt;Node11 -->
<g id="edge13" class="edge"><title>Node8&#45;&gt;Node11</title>
<path fill="none" stroke="#404040" d="M635.246,-1009.52C647.559,-1001.55 664.366,-988.416 672.5,-972 756.594,-802.279 731.752,-565.04 717.439,-472.078"/>
<polygon fill="none" stroke="#404040" points="717.434,-472.044 712.539,-466.749 715.544,-460.194 720.439,-465.489 717.434,-472.044"/>
<text text-anchor="middle" x="752.5" y="-769.5" font-family="Helvetica,sans-Serif" font-size="10.00"> &#45;expGiven</text>
</g>
<!-- Node8&#45;&gt;Node13 -->
<g id="edge20" class="edge"><title>Node8&#45;&gt;Node13</title>
<path fill="none" stroke="#404040" d="M626.39,-990.364C633.133,-951.078 639.395,-878.479 606.5,-830 596.232,-814.868 579.523,-827.296 569.5,-812 536.952,-762.33 542.282,-594.71 548.303,-499.69"/>
<polygon fill="none" stroke="#404040" points="548.309,-499.603 544.711,-493.354 549.096,-487.629 552.693,-493.879 548.309,-499.603"/>
<text text-anchor="middle" x="607" y="-775" font-family="Helvetica,sans-Serif" font-size="10.00"> &#45;expToNextLevel</text>
<text text-anchor="middle" x="607" y="-764" font-family="Helvetica,sans-Serif" font-size="10.00">&#45;exp</text>
</g>
<!-- Node9 -->
<g id="node7" class="node"><title>Node9</title>
<polygon fill="none" stroke="#bfbfbf" points="420,-852.5 420,-909.5 481,-909.5 481,-852.5 420,-852.5"/>
<text text-anchor="middle" x="450.5" y="-897.5" font-family="Helvetica,sans-Serif" font-size="10.00">Texture2D</text>
<polyline fill="none" stroke="#bfbfbf" points="420,-890.5 481,-890.5 "/>
<text text-anchor="middle" x="450.5" y="-878.5" font-family="Helvetica,sans-Serif" font-size="10.00"> </text>
<polyline fill="none" stroke="#bfbfbf" points="420,-871.5 481,-871.5 "/>
<text text-anchor="middle" x="450.5" y="-859.5" font-family="Helvetica,sans-Serif" font-size="10.00"> </text>
</g>
<!-- Node9&#45;&gt;Node7 -->
<g id="edge8" class="edge"><title>Node9&#45;&gt;Node7</title>
<path fill="none" stroke="#404040" d="M452.787,-852.28C455.295,-821.886 459.465,-771.353 463.233,-725.693"/>
<polygon fill="none" stroke="#404040" points="463.245,-725.546 459.752,-719.238 464.232,-713.587 467.725,-719.896 463.245,-725.546"/>
<text text-anchor="middle" x="480" y="-769.5" font-family="Helvetica,sans-Serif" font-size="10.00"> #image</text>
</g>
<!-- Node10&#45;&gt;Node5 -->
<g id="edge9" class="edge"><title>Node10&#45;&gt;Node5</title>
<path fill="none" stroke="#404040" d="M463.27,-141.139C449.925,-125.745 435.053,-110.533 419.5,-98 402.778,-84.5253 382.368,-72.891 363.689,-63.711"/>
<polygon fill="none" stroke="#404040" points="363.471,-63.6076 356.335,-64.6448 352.633,-58.4565 359.769,-57.4193 363.471,-63.6076"/>
<text text-anchor="middle" x="452.5" y="-101" font-family="Helvetica,sans-Serif" font-size="10.00"> #manager</text>
</g>
<!-- Node11&#45;&gt;Node10 -->
<g id="edge11" class="edge"><title>Node11&#45;&gt;Node10</title>
<path fill="none" stroke="#404040" d="M700.311,-402.716C692.073,-382.592 679.123,-355.445 662.5,-335 641.869,-309.624 614.554,-286.285 589.462,-267.555"/>
<polygon fill="none" stroke="#404040" points="589.294,-267.432 582.089,-267.117 579.609,-260.346 586.813,-260.661 589.294,-267.432"/>
<text text-anchor="middle" x="694.5" y="-343.5" font-family="Helvetica,sans-Serif" font-size="10.00"> &#45;enemy</text>
</g>
<!-- Node12 -->
<g id="node10" class="node"><title>Node12</title>
<polygon fill="none" stroke="#bfbfbf" points="444,-403 444,-460 479,-460 479,-403 444,-403"/>
<text text-anchor="middle" x="461.5" y="-448" font-family="Helvetica,sans-Serif" font-size="10.00">bool</text>
<polyline fill="none" stroke="#bfbfbf" points="444,-441 479,-441 "/>
<text text-anchor="middle" x="461.5" y="-429" font-family="Helvetica,sans-Serif" font-size="10.00"> </text>
<polyline fill="none" stroke="#bfbfbf" points="444,-422 479,-422 "/>
<text text-anchor="middle" x="461.5" y="-410" font-family="Helvetica,sans-Serif" font-size="10.00"> </text>
</g>
<!-- Node12&#45;&gt;Node10 -->
<g id="edge15" class="edge"><title>Node12&#45;&gt;Node10</title>
<path fill="none" stroke="#404040" d="M461.272,-402.898C461.725,-383.588 463.574,-357.355 469.5,-335 470.108,-332.708 470.76,-330.404 471.452,-328.095"/>
<polygon fill="none" stroke="#404040" points="471.504,-327.936 469.557,-320.992 475.218,-316.525 477.164,-323.468 471.504,-327.936"/>
<text text-anchor="middle" x="502.5" y="-343.5" font-family="Helvetica,sans-Serif" font-size="10.00"> &#45;wasCriticalHit</text>
</g>
<!-- Node13&#45;&gt;Node10 -->
<g id="edge16" class="edge"><title>Node13&#45;&gt;Node10</title>
<path fill="none" stroke="#404040" d="M545.009,-375.439C542.795,-361.087 540.334,-345.128 537.862,-329.095"/>
<polygon fill="none" stroke="#404040" points="537.801,-328.704 532.934,-323.384 535.972,-316.845 540.84,-322.165 537.801,-328.704"/>
<text text-anchor="middle" x="558" y="-343.5" font-family="Helvetica,sans-Serif" font-size="10.00"> &#45;player</text>
</g>
<!-- Node14&#45;&gt;Node13 -->
<g id="edge18" class="edge"><title>Node14&#45;&gt;Node13</title>
<path fill="none" stroke="#404040" d="M370.628,-732.229C360.262,-682.235 350.351,-594.642 389.5,-535 414.144,-497.456 442.59,-511.74 486.974,-487.49"/>
<polygon fill="none" stroke="#404040" points="487.031,-487.456 490.121,-480.94 497.324,-481.287 494.233,-487.802 487.031,-487.456"/>
<text text-anchor="middle" x="402" y="-622" font-family="Helvetica,sans-Serif" font-size="10.00"> &#45;item</text>
</g>
<!-- Node15 -->
<g id="node13" class="node"><title>Node15</title>
<polygon fill="none" stroke="#bfbfbf" points="0,-990.5 0,-1047.5 35,-1047.5 35,-990.5 0,-990.5"/>
<text text-anchor="middle" x="17.5" y="-1035.5" font-family="Helvetica,sans-Serif" font-size="10.00">float</text>
<polyline fill="none" stroke="#bfbfbf" points="0,-1028.5 35,-1028.5 "/>
<text text-anchor="middle" x="17.5" y="-1016.5" font-family="Helvetica,sans-Serif" font-size="10.00"> </text>
<polyline fill="none" stroke="#bfbfbf" points="0,-1009.5 35,-1009.5 "/>
<text text-anchor="middle" x="17.5" y="-997.5" font-family="Helvetica,sans-Serif" font-size="10.00"> </text>
</g>
<!-- Node15&#45;&gt;Node4 -->
<g id="edge22" class="edge"><title>Node15&#45;&gt;Node4</title>
<path fill="none" stroke="#404040" d="M35.0509,-1003.45C55.9438,-986.12 91.9165,-956.289 122.98,-930.529"/>
<polygon fill="none" stroke="#404040" points="123.203,-930.344 125.268,-923.435 132.44,-922.684 130.375,-929.593 123.203,-930.344"/>
<text text-anchor="middle" x="119.5" y="-958.5" font-family="Helvetica,sans-Serif" font-size="10.00"> #special</text>
</g>
</g>
</svg>
