<?xml version="1.0" encoding="UTF-8" standalone="no"?>
<!DOCTYPE svg PUBLIC "-//W3C//DTD SVG 1.1//EN"
 "http://www.w3.org/Graphics/SVG/1.1/DTD/svg11.dtd">
<!-- Generated by graphviz version 2.38.0 (20140413.2041)
 -->
<!-- Title: SpecialMove Pages: 1 -->
<svg width="644pt" height="1056pt"
 viewBox="0.00 0.00 644.00 1056.00" xmlns="http://www.w3.org/2000/svg" xmlns:xlink="http://www.w3.org/1999/xlink">
<g id="graph0" class="graph" transform="scale(1 1) rotate(0) translate(4 1052)">
<title>SpecialMove</title>
<!-- Node9 -->
<g id="node1" class="node"><title>Node9</title>
<polygon fill="#bfbfbf" stroke="black" points="112,-830.5 112,-931.5 210,-931.5 210,-830.5 112,-830.5"/>
<text text-anchor="middle" x="161" y="-919.5" font-family="Helvetica,sans-Serif" font-size="10.00">SpecialMove</text>
<polyline fill="none" stroke="black" points="112,-912.5 210,-912.5 "/>
<text text-anchor="start" x="120" y="-900.5" font-family="Helvetica,sans-Serif" font-size="10.00">+ Magic</text>
<text text-anchor="start" x="120" y="-889.5" font-family="Helvetica,sans-Serif" font-size="10.00">+ Desc</text>
<text text-anchor="start" x="120" y="-878.5" font-family="Helvetica,sans-Serif" font-size="10.00">+ Special</text>
<polyline fill="none" stroke="black" points="112,-871.5 210,-871.5 "/>
<text text-anchor="start" x="120" y="-859.5" font-family="Helvetica,sans-Serif" font-size="10.00">+ setUp()</text>
<text text-anchor="start" x="120" y="-848.5" font-family="Helvetica,sans-Serif" font-size="10.00">+ decreaseMagic()</text>
<text text-anchor="start" x="120" y="-837.5" font-family="Helvetica,sans-Serif" font-size="10.00"># SpecialMove()</text>
</g>
<!-- Node12 -->
<g id="node4" class="node"><title>Node12</title>
<g id="a_node4"><a xlink:href="class_character.html" target="_top" xlink:title="Base abstract class for Enemy and Player to inherit from. Defines all shared variables, their constructor and their setters and getters ">
<polygon fill="none" stroke="black" points="264.5,-535.5 264.5,-713.5 359.5,-713.5 359.5,-535.5 264.5,-535.5"/>
<text text-anchor="middle" x="312" y="-701.5" font-family="Helvetica,sans-Serif" font-size="10.00">Character</text>
<polyline fill="none" stroke="black" points="264.5,-694.5 359.5,-694.5 "/>
<text text-anchor="start" x="272.5" y="-682.5" font-family="Helvetica,sans-Serif" font-size="10.00">+ Name</text>
<text text-anchor="start" x="272.5" y="-671.5" font-family="Helvetica,sans-Serif" font-size="10.00">+ Level</text>
<text text-anchor="start" x="272.5" y="-660.5" font-family="Helvetica,sans-Serif" font-size="10.00">+ Health</text>
<text text-anchor="start" x="272.5" y="-649.5" font-family="Helvetica,sans-Serif" font-size="10.00">+ Attack</text>
<text text-anchor="start" x="272.5" y="-638.5" font-family="Helvetica,sans-Serif" font-size="10.00">+ Defence</text>
<text text-anchor="start" x="272.5" y="-627.5" font-family="Helvetica,sans-Serif" font-size="10.00">+ MaximumMagic</text>
<text text-anchor="start" x="272.5" y="-616.5" font-family="Helvetica,sans-Serif" font-size="10.00">+ Magic</text>
<text text-anchor="start" x="272.5" y="-605.5" font-family="Helvetica,sans-Serif" font-size="10.00">+ Luck</text>
<text text-anchor="start" x="272.5" y="-594.5" font-family="Helvetica,sans-Serif" font-size="10.00">+ Speed</text>
<text text-anchor="start" x="272.5" y="-583.5" font-family="Helvetica,sans-Serif" font-size="10.00">+ Special1</text>
<text text-anchor="start" x="272.5" y="-572.5" font-family="Helvetica,sans-Serif" font-size="10.00">+ Special2</text>
<text text-anchor="start" x="272.5" y="-561.5" font-family="Helvetica,sans-Serif" font-size="10.00">+ Image</text>
<polyline fill="none" stroke="black" points="264.5,-554.5 359.5,-554.5 "/>
<text text-anchor="start" x="272.5" y="-542.5" font-family="Helvetica,sans-Serif" font-size="10.00"># Character()</text>
</a>
</g>
</g>
<!-- Node9&#45;&gt;Node12 -->
<g id="edge6" class="edge"><title>Node9&#45;&gt;Node12</title>
<path fill="none" stroke="#404040" d="M168.868,-830.222C175.617,-790.171 185.287,-739.379 192,-732 210.163,-712.035 228.196,-729.908 250,-714 251.719,-712.746 253.408,-711.429 255.065,-710.057"/>
<polygon fill="none" stroke="#404040" points="255.37,-709.777 257.085,-702.773 264.21,-701.661 262.495,-708.666 255.37,-709.777"/>
<text text-anchor="middle" x="214.5" y="-775" font-family="Helvetica,sans-Serif" font-size="10.00"> #special1</text>
<text text-anchor="middle" x="214.5" y="-764" font-family="Helvetica,sans-Serif" font-size="10.00">#special2</text>
</g>
<!-- Node10 -->
<g id="node2" class="node"><title>Node10</title>
<g id="a_node2"><a xlink:href="class_character_move.html" target="_top" xlink:title="Astract base class for character moves ">
<polygon fill="none" stroke="black" points="134,-0.5 134,-79.5 220,-79.5 220,-0.5 134,-0.5"/>
<text text-anchor="middle" x="177" y="-67.5" font-family="Helvetica,sans-Serif" font-size="10.00">CharacterMove</text>
<polyline fill="none" stroke="black" points="134,-60.5 220,-60.5 "/>
<text text-anchor="start" x="142" y="-48.5" font-family="Helvetica,sans-Serif" font-size="10.00">+ User</text>
<text text-anchor="start" x="142" y="-37.5" font-family="Helvetica,sans-Serif" font-size="10.00">+ Target</text>
<text text-anchor="start" x="142" y="-26.5" font-family="Helvetica,sans-Serif" font-size="10.00">+ Text</text>
<polyline fill="none" stroke="black" points="134,-19.5 220,-19.5 "/>
<text text-anchor="start" x="142" y="-7.5" font-family="Helvetica,sans-Serif" font-size="10.00">+ performMove()</text>
</a>
</g>
</g>
<!-- Node10&#45;&gt;Node9 -->
<g id="edge1" class="edge"><title>Node10&#45;&gt;Node9</title>
<path fill="none" stroke="midnightblue" d="M169.001,-90.1072C163.807,-126.212 158,-176.526 158,-221 158,-625.5 158,-625.5 158,-625.5 158,-696.641 159.187,-778.961 160.067,-830.26"/>
<polygon fill="none" stroke="midnightblue" points="172.517,-90.254 170.514,-79.8501 165.592,-89.2319 172.517,-90.254"/>
</g>
<!-- Node11 -->
<g id="node3" class="node"><title>Node11</title>
<polygon fill="none" stroke="#bfbfbf" points="63.5,-990.5 63.5,-1047.5 104.5,-1047.5 104.5,-990.5 63.5,-990.5"/>
<text text-anchor="middle" x="84" y="-1035.5" font-family="Helvetica,sans-Serif" font-size="10.00">string</text>
<polyline fill="none" stroke="#bfbfbf" points="63.5,-1028.5 104.5,-1028.5 "/>
<text text-anchor="middle" x="84" y="-1016.5" font-family="Helvetica,sans-Serif" font-size="10.00"> </text>
<polyline fill="none" stroke="#bfbfbf" points="63.5,-1009.5 104.5,-1009.5 "/>
<text text-anchor="middle" x="84" y="-997.5" font-family="Helvetica,sans-Serif" font-size="10.00"> </text>
</g>
<!-- Node11&#45;&gt;Node9 -->
<g id="edge20" class="edge"><title>Node11&#45;&gt;Node9</title>
<path fill="none" stroke="#404040" d="M104.667,-991.839C109.295,-985.503 114.01,-978.639 118,-972 123.509,-962.833 128.862,-952.852 133.814,-942.982"/>
<polygon fill="none" stroke="#404040" points="133.946,-942.713 132.991,-935.565 139.222,-931.935 140.177,-939.083 133.946,-942.713"/>
<text text-anchor="middle" x="145" y="-958.5" font-family="Helvetica,sans-Serif" font-size="10.00"> #desc</text>
</g>
<!-- Node11&#45;&gt;Node10 -->
<g id="edge2" class="edge"><title>Node11&#45;&gt;Node10</title>
<path fill="none" stroke="#404040" d="M63.2359,-999.522C38.3611,-975.24 0,-930.01 0,-882 0,-882 0,-882 0,-221 0,-150.009 70.8611,-96.7919 122.912,-67.2775"/>
<polygon fill="none" stroke="#404040" points="123.187,-67.126 126.516,-60.7291 133.701,-61.3413 130.372,-67.7382 123.187,-67.126"/>
<text text-anchor="middle" x="12.5" y="-509" font-family="Helvetica,sans-Serif" font-size="10.00"> #text</text>
</g>
<!-- Node11&#45;&gt;Node12 -->
<g id="edge4" class="edge"><title>Node11&#45;&gt;Node12</title>
<path fill="none" stroke="#404040" d="M104.964,-1010.54C135.043,-998.718 190.006,-972.76 219,-932 225.279,-923.173 258.376,-811.516 283.313,-725.492"/>
<polygon fill="none" stroke="#404040" points="283.36,-725.331 281.186,-718.456 286.697,-713.805 288.871,-720.681 283.36,-725.331"/>
<text text-anchor="middle" x="268.5" y="-878.5" font-family="Helvetica,sans-Serif" font-size="10.00"> #name</text>
</g>
<!-- Node15 -->
<g id="node7" class="node"><title>Node15</title>
<g id="a_node7"><a xlink:href="class_battle_manager.html" target="_top" xlink:title="Holds current Player and Enemy objects in battle and provides functions for MainBattle and other obje...">
<polygon fill="none" stroke="black" points="297,-127.5 297,-316.5 413,-316.5 413,-127.5 297,-127.5"/>
<text text-anchor="middle" x="355" y="-304.5" font-family="Helvetica,sans-Serif" font-size="10.00">BattleManager</text>
<polyline fill="none" stroke="black" points="297,-297.5 413,-297.5 "/>
<text text-anchor="start" x="305" y="-285.5" font-family="Helvetica,sans-Serif" font-size="10.00">+ Player</text>
<text text-anchor="start" x="305" y="-274.5" font-family="Helvetica,sans-Serif" font-size="10.00">+ Enemy</text>
<text text-anchor="start" x="305" y="-263.5" font-family="Helvetica,sans-Serif" font-size="10.00">+ WasCriticalHit</text>
<polyline fill="none" stroke="black" points="297,-256.5 413,-256.5 "/>
<text text-anchor="start" x="305" y="-244.5" font-family="Helvetica,sans-Serif" font-size="10.00">+ BattleManager()</text>
<text text-anchor="start" x="305" y="-233.5" font-family="Helvetica,sans-Serif" font-size="10.00">+ playerFirst()</text>
<text text-anchor="start" x="305" y="-222.5" font-family="Helvetica,sans-Serif" font-size="10.00">+ switchPlayers()</text>
<text text-anchor="start" x="305" y="-211.5" font-family="Helvetica,sans-Serif" font-size="10.00">+ isCriticalHit()</text>
<text text-anchor="start" x="305" y="-200.5" font-family="Helvetica,sans-Serif" font-size="10.00">+ ranAway()</text>
<text text-anchor="start" x="305" y="-189.5" font-family="Helvetica,sans-Serif" font-size="10.00">+ damageCalculation()</text>
<text text-anchor="start" x="305" y="-178.5" font-family="Helvetica,sans-Serif" font-size="10.00">+ enemyMove()</text>
<text text-anchor="start" x="305" y="-167.5" font-family="Helvetica,sans-Serif" font-size="10.00">+ enemySpecialMove()</text>
<text text-anchor="start" x="305" y="-156.5" font-family="Helvetica,sans-Serif" font-size="10.00">+ battleWon()</text>
<text text-anchor="start" x="305" y="-145.5" font-family="Helvetica,sans-Serif" font-size="10.00">+ playerFainted()</text>
<text text-anchor="start" x="305" y="-134.5" font-family="Helvetica,sans-Serif" font-size="10.00">&#45; characterFainted()</text>
</a>
</g>
</g>
<!-- Node11&#45;&gt;Node15 -->
<g id="edge9" class="edge"><title>Node11&#45;&gt;Node15</title>
<path fill="none" stroke="#404040" d="M71.5574,-990.498C60.475,-963.461 46,-920.734 46,-882 46,-882 46,-882 46,-430.5 46,-316.091 193.8,-260.683 284.962,-237.389"/>
<polygon fill="none" stroke="#404040" points="285.23,-237.323 290.095,-232 296.879,-234.443 292.015,-239.766 285.23,-237.323"/>
<text text-anchor="middle" x="88" y="-627.5" font-family="Helvetica,sans-Serif" font-size="10.00"> +forceEnemyMove</text>
<text text-anchor="middle" x="88" y="-616.5" font-family="Helvetica,sans-Serif" font-size="10.00">+forceCriticalHits</text>
</g>
<!-- Node19 -->
<g id="node11" class="node"><title>Node19</title>
<g id="a_node11"><a xlink:href="class_item.html" target="_top" xlink:title="Abstract class for items that can be equipped to a player, increasing some of their stats ...">
<polygon fill="none" stroke="black" points="63.5,-732.5 63.5,-811.5 140.5,-811.5 140.5,-732.5 63.5,-732.5"/>
<text text-anchor="middle" x="102" y="-799.5" font-family="Helvetica,sans-Serif" font-size="10.00">Item</text>
<polyline fill="none" stroke="black" points="63.5,-792.5 140.5,-792.5 "/>
<text text-anchor="start" x="71.5" y="-780.5" font-family="Helvetica,sans-Serif" font-size="10.00">+ Name</text>
<text text-anchor="start" x="71.5" y="-769.5" font-family="Helvetica,sans-Serif" font-size="10.00">+ Desc</text>
<polyline fill="none" stroke="black" points="63.5,-762.5 140.5,-762.5 "/>
<text text-anchor="start" x="71.5" y="-750.5" font-family="Helvetica,sans-Serif" font-size="10.00">+ applyBuffs()</text>
<text text-anchor="start" x="71.5" y="-739.5" font-family="Helvetica,sans-Serif" font-size="10.00">+ revertBuffs()</text>
</a>
</g>
</g>
<!-- Node11&#45;&gt;Node19 -->
<g id="edge18" class="edge"><title>Node11&#45;&gt;Node19</title>
<path fill="none" stroke="#404040" d="M83.3643,-990.193C83.2466,-977.872 83.3303,-963.205 84,-950 86.1692,-907.229 91.2689,-858.866 95.4883,-823.516"/>
<polygon fill="none" stroke="#404040" points="95.4904,-823.498 92.2433,-817.059 96.9378,-811.586 100.185,-818.024 95.4904,-823.498"/>
<text text-anchor="middle" x="99" y="-964" font-family="Helvetica,sans-Serif" font-size="10.00"> #desc</text>
<text text-anchor="middle" x="99" y="-953" font-family="Helvetica,sans-Serif" font-size="10.00">#name</text>
</g>
<!-- Node12&#45;&gt;Node10 -->
<g id="edge3" class="edge"><title>Node12&#45;&gt;Node10</title>
<path fill="none" stroke="#404040" d="M264.377,-543.866C262.565,-540.871 260.768,-537.908 259,-535 246.25,-514.026 238.08,-511.177 230,-488 182.054,-350.463 175.83,-176.255 175.99,-91.6774"/>
<polygon fill="none" stroke="#404040" points="175.99,-91.6207 172.024,-85.5982 176.058,-79.6209 180.024,-85.6434 175.99,-91.6207"/>
<text text-anchor="middle" x="214" y="-349" font-family="Helvetica,sans-Serif" font-size="10.00"> #target</text>
<text text-anchor="middle" x="214" y="-338" font-family="Helvetica,sans-Serif" font-size="10.00">#user</text>
</g>
<!-- Node16 -->
<g id="node8" class="node"><title>Node16</title>
<g id="a_node8"><a xlink:href="class_enemy.html" target="_top" xlink:title="Defines an AI controller enemy to fight in battle scenes">
<polygon fill="none" stroke="black" points="438.5,-403 438.5,-460 505.5,-460 505.5,-403 438.5,-403"/>
<text text-anchor="middle" x="472" y="-448" font-family="Helvetica,sans-Serif" font-size="10.00">Enemy</text>
<polyline fill="none" stroke="black" points="438.5,-441 505.5,-441 "/>
<text text-anchor="start" x="446.5" y="-429" font-family="Helvetica,sans-Serif" font-size="10.00">+ ExpGiven</text>
<polyline fill="none" stroke="black" points="438.5,-422 505.5,-422 "/>
<text text-anchor="start" x="446.5" y="-410" font-family="Helvetica,sans-Serif" font-size="10.00">+ Enemy()</text>
</a>
</g>
</g>
<!-- Node12&#45;&gt;Node16 -->
<g id="edge11" class="edge"><title>Node12&#45;&gt;Node16</title>
<path fill="none" stroke="midnightblue" d="M366.244,-558.746C394.401,-525.133 427.324,-485.832 448.863,-460.12"/>
<polygon fill="none" stroke="midnightblue" points="363.311,-556.798 359.572,-566.711 368.677,-561.293 363.311,-556.798"/>
</g>
<!-- Node18 -->
<g id="node10" class="node"><title>Node18</title>
<g id="a_node10"><a xlink:href="class_player.html" target="_top" xlink:title="Defines a playable character for use in battle scenes">
<polygon fill="none" stroke="black" points="239,-375.5 239,-487.5 351,-487.5 351,-375.5 239,-375.5"/>
<text text-anchor="middle" x="295" y="-475.5" font-family="Helvetica,sans-Serif" font-size="10.00">Player</text>
<polyline fill="none" stroke="black" points="239,-468.5 351,-468.5 "/>
<text text-anchor="start" x="247" y="-456.5" font-family="Helvetica,sans-Serif" font-size="10.00">+ Exp</text>
<text text-anchor="start" x="247" y="-445.5" font-family="Helvetica,sans-Serif" font-size="10.00">+ Item</text>
<text text-anchor="start" x="247" y="-434.5" font-family="Helvetica,sans-Serif" font-size="10.00">+ ExpToNextLevel</text>
<polyline fill="none" stroke="black" points="239,-427.5 351,-427.5 "/>
<text text-anchor="start" x="247" y="-415.5" font-family="Helvetica,sans-Serif" font-size="10.00">+ Player()</text>
<text text-anchor="start" x="247" y="-404.5" font-family="Helvetica,sans-Serif" font-size="10.00">+ gainExp()</text>
<text text-anchor="start" x="247" y="-393.5" font-family="Helvetica,sans-Serif" font-size="10.00">+ levelUp()</text>
<text text-anchor="start" x="247" y="-382.5" font-family="Helvetica,sans-Serif" font-size="10.00">&#45; setExpToNextLevel()</text>
</a>
</g>
</g>
<!-- Node12&#45;&gt;Node18 -->
<g id="edge16" class="edge"><title>Node12&#45;&gt;Node18</title>
<path fill="none" stroke="midnightblue" d="M303.231,-524.981C302.089,-512.15 300.954,-499.392 299.907,-487.635"/>
<polygon fill="none" stroke="midnightblue" points="299.774,-525.618 304.147,-535.268 306.746,-524.997 299.774,-525.618"/>
</g>
<!-- Node13 -->
<g id="node5" class="node"><title>Node13</title>
<polygon fill="none" stroke="#bfbfbf" points="483.5,-990.5 483.5,-1047.5 512.5,-1047.5 512.5,-990.5 483.5,-990.5"/>
<text text-anchor="middle" x="498" y="-1035.5" font-family="Helvetica,sans-Serif" font-size="10.00">int</text>
<polyline fill="none" stroke="#bfbfbf" points="483.5,-1028.5 512.5,-1028.5 "/>
<text text-anchor="middle" x="498" y="-1016.5" font-family="Helvetica,sans-Serif" font-size="10.00"> </text>
<polyline fill="none" stroke="#bfbfbf" points="483.5,-1009.5 512.5,-1009.5 "/>
<text text-anchor="middle" x="498" y="-997.5" font-family="Helvetica,sans-Serif" font-size="10.00"> </text>
</g>
<!-- Node13&#45;&gt;Node9 -->
<g id="edge22" class="edge"><title>Node13&#45;&gt;Node9</title>
<path fill="none" stroke="#404040" d="M483.27,-1013.74C456.058,-1005.83 396.11,-988.189 346,-972 317.378,-962.753 310.589,-959.348 282,-950 256.346,-941.612 247.867,-944.604 224,-932 222.827,-931.381 221.654,-930.738 220.483,-930.075"/>
<polygon fill="none" stroke="#404040" points="220.253,-929.933 213.046,-930.186 210.04,-923.631 217.247,-923.378 220.253,-929.933"/>
<text text-anchor="middle" x="363.5" y="-958.5" font-family="Helvetica,sans-Serif" font-size="10.00"> #magic</text>
</g>
<!-- Node13&#45;&gt;Node12 -->
<g id="edge5" class="edge"><title>Node13&#45;&gt;Node12</title>
<path fill="none" stroke="#404040" d="M483.488,-1008.19C463.493,-993.869 427.814,-965.298 409,-932 364.131,-852.59 393.102,-818.099 363,-732 362.213,-729.75 361.393,-727.485 360.544,-725.211"/>
<polygon fill="none" stroke="#404040" points="360.448,-724.966 354.537,-720.836 356.077,-713.791 361.988,-717.922 360.448,-724.966"/>
<text text-anchor="middle" x="446.5" y="-917" font-family="Helvetica,sans-Serif" font-size="10.00"> #speed</text>
<text text-anchor="middle" x="446.5" y="-906" font-family="Helvetica,sans-Serif" font-size="10.00">#luck</text>
<text text-anchor="middle" x="446.5" y="-895" font-family="Helvetica,sans-Serif" font-size="10.00">#health</text>
<text text-anchor="middle" x="446.5" y="-884" font-family="Helvetica,sans-Serif" font-size="10.00">#magic</text>
<text text-anchor="middle" x="446.5" y="-873" font-family="Helvetica,sans-Serif" font-size="10.00">#maximumMagic</text>
<text text-anchor="middle" x="446.5" y="-862" font-family="Helvetica,sans-Serif" font-size="10.00">#attack</text>
<text text-anchor="middle" x="446.5" y="-851" font-family="Helvetica,sans-Serif" font-size="10.00">#defence</text>
<text text-anchor="middle" x="446.5" y="-840" font-family="Helvetica,sans-Serif" font-size="10.00">#level</text>
</g>
<!-- Node13&#45;&gt;Node15 -->
<g id="edge13" class="edge"><title>Node13&#45;&gt;Node15</title>
<path fill="none" stroke="#404040" d="M512.608,-1007.9C540.146,-987.545 597,-938.656 597,-882 597,-882 597,-882 597,-430.5 597,-338.961 495.979,-279.089 424.475,-248.176"/>
<polygon fill="none" stroke="#404040" points="424.334,-248.117 417.252,-249.477 413.273,-243.463 420.355,-242.103 424.334,-248.117"/>
<text text-anchor="middle" x="616.5" y="-622" font-family="Helvetica,sans-Serif" font-size="10.00"> +money</text>
</g>
<!-- Node13&#45;&gt;Node16 -->
<g id="edge12" class="edge"><title>Node13&#45;&gt;Node16</title>
<path fill="none" stroke="#404040" d="M507.872,-990.074C509.568,-984.176 511.078,-977.939 512,-972 522.907,-901.725 513.556,-883.115 514,-812 514.222,-776.445 516.475,-767.469 514,-732 507.459,-638.262 489.538,-529.215 479.344,-472.074"/>
<polygon fill="none" stroke="#404040" points="479.302,-471.839 474.3,-466.644 477.172,-460.03 482.173,-465.224 479.302,-471.839"/>
<text text-anchor="middle" x="539" y="-769.5" font-family="Helvetica,sans-Serif" font-size="10.00"> &#45;expGiven</text>
</g>
<!-- Node13&#45;&gt;Node18 -->
<g id="edge19" class="edge"><title>Node13&#45;&gt;Node18</title>
<path fill="none" stroke="#404040" d="M504.478,-990.231C512.035,-950.454 519.392,-876.892 484,-830 470.023,-811.482 450.438,-829.319 435,-812 350.719,-717.45 420.582,-650.231 368,-535 362.248,-522.395 354.866,-509.744 347.014,-497.844"/>
<polygon fill="none" stroke="#404040" points="346.787,-497.511 340.1,-494.811 340.022,-487.6 346.708,-490.301 346.787,-497.511"/>
<text text-anchor="middle" x="472.5" y="-775" font-family="Helvetica,sans-Serif" font-size="10.00"> &#45;expToNextLevel</text>
<text text-anchor="middle" x="472.5" y="-764" font-family="Helvetica,sans-Serif" font-size="10.00">&#45;exp</text>
</g>
<!-- Node14 -->
<g id="node6" class="node"><title>Node14</title>
<polygon fill="none" stroke="#bfbfbf" points="297.5,-852.5 297.5,-909.5 358.5,-909.5 358.5,-852.5 297.5,-852.5"/>
<text text-anchor="middle" x="328" y="-897.5" font-family="Helvetica,sans-Serif" font-size="10.00">Texture2D</text>
<polyline fill="none" stroke="#bfbfbf" points="297.5,-890.5 358.5,-890.5 "/>
<text text-anchor="middle" x="328" y="-878.5" font-family="Helvetica,sans-Serif" font-size="10.00"> </text>
<polyline fill="none" stroke="#bfbfbf" points="297.5,-871.5 358.5,-871.5 "/>
<text text-anchor="middle" x="328" y="-859.5" font-family="Helvetica,sans-Serif" font-size="10.00"> </text>
</g>
<!-- Node14&#45;&gt;Node12 -->
<g id="edge7" class="edge"><title>Node14&#45;&gt;Node12</title>
<path fill="none" stroke="#404040" d="M326.257,-852.28C324.346,-821.886 321.17,-771.353 318.299,-725.693"/>
<polygon fill="none" stroke="#404040" points="318.291,-725.563 313.922,-719.826 317.538,-713.587 321.907,-719.324 318.291,-725.563"/>
<text text-anchor="middle" x="341.5" y="-769.5" font-family="Helvetica,sans-Serif" font-size="10.00"> #image</text>
</g>
<!-- Node15&#45;&gt;Node10 -->
<g id="edge8" class="edge"><title>Node15&#45;&gt;Node10</title>
<path fill="none" stroke="#404040" d="M296.716,-162.061C273.086,-138.165 246.162,-110.939 223.84,-88.3667"/>
<polygon fill="none" stroke="#404040" points="223.651,-88.1747 216.587,-86.721 215.213,-79.6421 222.276,-81.0958 223.651,-88.1747"/>
<text text-anchor="middle" x="263" y="-101" font-family="Helvetica,sans-Serif" font-size="10.00"> #manager</text>
</g>
<!-- Node16&#45;&gt;Node15 -->
<g id="edge10" class="edge"><title>Node16&#45;&gt;Node15</title>
<path fill="none" stroke="#404040" d="M467.204,-402.65C463.096,-382.989 456.058,-356.438 445,-335 438.142,-321.706 429.559,-308.494 420.435,-296.055"/>
<polygon fill="none" stroke="#404040" points="420.263,-295.829 413.453,-293.457 413.024,-286.259 419.834,-288.631 420.263,-295.829"/>
<text text-anchor="middle" x="472" y="-343.5" font-family="Helvetica,sans-Serif" font-size="10.00"> &#45;enemy</text>
</g>
<!-- Node17 -->
<g id="node9" class="node"><title>Node17</title>
<polygon fill="none" stroke="#bfbfbf" points="369.5,-403 369.5,-460 404.5,-460 404.5,-403 369.5,-403"/>
<text text-anchor="middle" x="387" y="-448" font-family="Helvetica,sans-Serif" font-size="10.00">bool</text>
<polyline fill="none" stroke="#bfbfbf" points="369.5,-441 404.5,-441 "/>
<text text-anchor="middle" x="387" y="-429" font-family="Helvetica,sans-Serif" font-size="10.00"> </text>
<polyline fill="none" stroke="#bfbfbf" points="369.5,-422 404.5,-422 "/>
<text text-anchor="middle" x="387" y="-410" font-family="Helvetica,sans-Serif" font-size="10.00"> </text>
</g>
<!-- Node17&#45;&gt;Node15 -->
<g id="edge14" class="edge"><title>Node17&#45;&gt;Node15</title>
<path fill="none" stroke="#404040" d="M382.751,-402.946C379.759,-383.547 375.546,-356.229 371.305,-328.725"/>
<polygon fill="none" stroke="#404040" points="371.253,-328.387 366.385,-323.067 369.424,-316.528 374.291,-321.848 371.253,-328.387"/>
<text text-anchor="middle" x="408" y="-343.5" font-family="Helvetica,sans-Serif" font-size="10.00"> &#45;wasCriticalHit</text>
</g>
<!-- Node18&#45;&gt;Node15 -->
<g id="edge15" class="edge"><title>Node18&#45;&gt;Node15</title>
<path fill="none" stroke="#404040" d="M310.921,-375.439C315.112,-360.946 319.776,-344.815 324.458,-328.623"/>
<polygon fill="none" stroke="#404040" points="324.531,-328.372 322.355,-321.497 327.864,-316.845 330.04,-323.72 324.531,-328.372"/>
<text text-anchor="middle" x="338.5" y="-343.5" font-family="Helvetica,sans-Serif" font-size="10.00"> &#45;player</text>
</g>
<!-- Node19&#45;&gt;Node18 -->
<g id="edge17" class="edge"><title>Node19&#45;&gt;Node18</title>
<path fill="none" stroke="#404040" d="M123.79,-732.423C127.226,-726.272 130.724,-719.969 134,-714 177.432,-634.859 184.463,-612.948 230,-535 237.1,-522.847 244.92,-510.057 252.601,-497.791"/>
<polygon fill="none" stroke="#404040" points="252.603,-497.788 252.418,-490.579 259.002,-487.636 259.186,-494.845 252.603,-497.788"/>
<text text-anchor="middle" x="242.5" y="-622" font-family="Helvetica,sans-Serif" font-size="10.00"> &#45;item</text>
</g>
<!-- Node20 -->
<g id="node12" class="node"><title>Node20</title>
<polygon fill="none" stroke="#bfbfbf" points="261.5,-990.5 261.5,-1047.5 296.5,-1047.5 296.5,-990.5 261.5,-990.5"/>
<text text-anchor="middle" x="279" y="-1035.5" font-family="Helvetica,sans-Serif" font-size="10.00">float</text>
<polyline fill="none" stroke="#bfbfbf" points="261.5,-1028.5 296.5,-1028.5 "/>
<text text-anchor="middle" x="279" y="-1016.5" font-family="Helvetica,sans-Serif" font-size="10.00"> </text>
<polyline fill="none" stroke="#bfbfbf" points="261.5,-1009.5 296.5,-1009.5 "/>
<text text-anchor="middle" x="279" y="-997.5" font-family="Helvetica,sans-Serif" font-size="10.00"> </text>
</g>
<!-- Node20&#45;&gt;Node9 -->
<g id="edge21" class="edge"><title>Node20&#45;&gt;Node9</title>
<path fill="none" stroke="#404040" d="M261.334,-997.639C248.232,-982.539 229.664,-961.139 212.058,-940.846"/>
<polygon fill="none" stroke="#404040" points="211.923,-940.691 204.97,-938.781 204.059,-931.628 211.013,-933.538 211.923,-940.691"/>
<text text-anchor="middle" x="258" y="-958.5" font-family="Helvetica,sans-Serif" font-size="10.00"> #special</text>
</g>
</g>
</svg>
