<?xml version="1.0" encoding="UTF-8" standalone="no"?>
<!DOCTYPE svg PUBLIC "-//W3C//DTD SVG 1.1//EN"
 "http://www.w3.org/Graphics/SVG/1.1/DTD/svg11.dtd">
<!-- Generated by graphviz version 2.38.0 (20140413.2041)
 -->
<!-- Title: CarScript Pages: 1 -->
<svg width="197pt" height="193pt"
 viewBox="0.00 0.00 197.00 193.00" xmlns="http://www.w3.org/2000/svg" xmlns:xlink="http://www.w3.org/1999/xlink">
<g id="graph0" class="graph" transform="scale(1 1) rotate(0) translate(4 189)">
<title>CarScript</title>
<!-- Node2 -->
<g id="node1" class="node"><title>Node2</title>
<polygon fill="#bfbfbf" stroke="black" points="77,-0.5 77,-79.5 160,-79.5 160,-0.5 77,-0.5"/>
<text text-anchor="middle" x="118.5" y="-67.5" font-family="Helvetica,sans-Serif" font-size="10.00">CarScript</text>
<polyline fill="none" stroke="black" points="77,-60.5 160,-60.5 "/>
<text text-anchor="middle" x="118.5" y="-48.5" font-family="Helvetica,sans-Serif" font-size="10.00"> </text>
<polyline fill="none" stroke="black" points="77,-41.5 160,-41.5 "/>
<text text-anchor="start" x="85" y="-29.5" font-family="Helvetica,sans-Serif" font-size="10.00">+ SetSpeed()</text>
<text text-anchor="start" x="85" y="-18.5" font-family="Helvetica,sans-Serif" font-size="10.00">+ SetFacing()</text>
<text text-anchor="start" x="85" y="-7.5" font-family="Helvetica,sans-Serif" font-size="10.00">&#45; FixedUpdate()</text>
</g>
<!-- Node3 -->
<g id="node2" class="node"><title>Node3</title>
<g id="a_node2"><a xlink:href="class_mono_behaviour.html" target="_top" xlink:title="{MonoBehaviour\n||}">
<polygon fill="none" stroke="black" points="0,-127.5 0,-184.5 83,-184.5 83,-127.5 0,-127.5"/>
<text text-anchor="middle" x="41.5" y="-172.5" font-family="Helvetica,sans-Serif" font-size="10.00">MonoBehaviour</text>
<polyline fill="none" stroke="black" points="0,-165.5 83,-165.5 "/>
<text text-anchor="middle" x="41.5" y="-153.5" font-family="Helvetica,sans-Serif" font-size="10.00"> </text>
<polyline fill="none" stroke="black" points="0,-146.5 83,-146.5 "/>
<text text-anchor="middle" x="41.5" y="-134.5" font-family="Helvetica,sans-Serif" font-size="10.00"> </text>
</a>
</g>
</g>
<!-- Node3&#45;&gt;Node2 -->
<g id="edge1" class="edge"><title>Node3&#45;&gt;Node2</title>
<path fill="none" stroke="midnightblue" d="M65.8172,-118.998C74.3003,-106.438 83.8513,-92.298 92.4682,-79.5406"/>
<polygon fill="none" stroke="midnightblue" points="62.8364,-117.158 60.1396,-127.404 68.6372,-121.076 62.8364,-117.158"/>
</g>
<!-- Node4 -->
<g id="node3" class="node"><title>Node4</title>
<polygon fill="none" stroke="#bfbfbf" points="101,-127.5 101,-184.5 136,-184.5 136,-127.5 101,-127.5"/>
<text text-anchor="middle" x="118.5" y="-172.5" font-family="Helvetica,sans-Serif" font-size="10.00">float</text>
<polyline fill="none" stroke="#bfbfbf" points="101,-165.5 136,-165.5 "/>
<text text-anchor="middle" x="118.5" y="-153.5" font-family="Helvetica,sans-Serif" font-size="10.00"> </text>
<polyline fill="none" stroke="#bfbfbf" points="101,-146.5 136,-146.5 "/>
<text text-anchor="middle" x="118.5" y="-134.5" font-family="Helvetica,sans-Serif" font-size="10.00"> </text>
</g>
<!-- Node4&#45;&gt;Node2 -->
<g id="edge2" class="edge"><title>Node4&#45;&gt;Node2</title>
<path fill="none" stroke="#404040" d="M118.5,-127.404C118.5,-116.63 118.5,-103.926 118.5,-91.6231"/>
<polygon fill="none" stroke="#404040" points="118.5,-91.5406 114.5,-85.5406 118.5,-79.5406 122.5,-85.5405 118.5,-91.5406"/>
<text text-anchor="middle" x="135" y="-101" font-family="Helvetica,sans-Serif" font-size="10.00"> &#45;speed</text>
</g>
<!-- Node5 -->
<g id="node4" class="node"><title>Node5</title>
<polygon fill="none" stroke="#bfbfbf" points="160,-127.5 160,-184.5 189,-184.5 189,-127.5 160,-127.5"/>
<text text-anchor="middle" x="174.5" y="-172.5" font-family="Helvetica,sans-Serif" font-size="10.00">int</text>
<polyline fill="none" stroke="#bfbfbf" points="160,-165.5 189,-165.5 "/>
<text text-anchor="middle" x="174.5" y="-153.5" font-family="Helvetica,sans-Serif" font-size="10.00"> </text>
<polyline fill="none" stroke="#bfbfbf" points="160,-146.5 189,-146.5 "/>
<text text-anchor="middle" x="174.5" y="-134.5" font-family="Helvetica,sans-Serif" font-size="10.00"> </text>
</g>
<!-- Node5&#45;&gt;Node2 -->
<g id="edge3" class="edge"><title>Node5&#45;&gt;Node2</title>
<path fill="none" stroke="#404040" d="M164.904,-127.345C161.341,-117.89 157.05,-107.346 152.5,-98 151.266,-95.4651 149.957,-92.894 148.599,-90.3168"/>
<polygon fill="none" stroke="#404040" points="148.581,-90.2834 142.187,-86.9494 142.805,-79.7648 149.199,-83.0989 148.581,-90.2834"/>
<text text-anchor="middle" x="172.5" y="-101" font-family="Helvetica,sans-Serif" font-size="10.00"> &#45;facing</text>
</g>
</g>
</svg>
