<?xml version="1.0" encoding="UTF-8" standalone="no"?>
<!DOCTYPE svg PUBLIC "-//W3C//DTD SVG 1.1//EN"
 "http://www.w3.org/Graphics/SVG/1.1/DTD/svg11.dtd">
<!-- Generated by graphviz version 2.38.0 (20140413.2041)
 -->
<!-- Title: LevelManager Pages: 1 -->
<svg width="913pt" height="1064pt"
 viewBox="0.00 0.00 912.91 1064.00" xmlns="http://www.w3.org/2000/svg" xmlns:xlink="http://www.w3.org/1999/xlink">
<g id="graph0" class="graph" transform="scale(1 1) rotate(0) translate(4 1060)">
<title>LevelManager</title>
<!-- Node2 -->
<g id="node1" class="node"><title>Node2</title>
<polygon fill="#bfbfbf" stroke="black" points="541.914,-337 541.914,-405 617.914,-405 617.914,-337 541.914,-337"/>
<text text-anchor="middle" x="579.914" y="-393" font-family="Helvetica,sans-Serif" font-size="10.00">LevelManager</text>
<polyline fill="none" stroke="black" points="541.914,-386 617.914,-386 "/>
<text text-anchor="middle" x="579.914" y="-374" font-family="Helvetica,sans-Serif" font-size="10.00"> </text>
<polyline fill="none" stroke="black" points="541.914,-367 617.914,-367 "/>
<text text-anchor="start" x="549.914" y="-355" font-family="Helvetica,sans-Serif" font-size="10.00">&#45; Start()</text>
<text text-anchor="start" x="549.914" y="-344" font-family="Helvetica,sans-Serif" font-size="10.00">&#45; EndLevel()</text>
</g>
<!-- Node3 -->
<g id="node2" class="node"><title>Node3</title>
<g id="a_node2"><a xlink:href="class_mono_behaviour.html" target="_top" xlink:title="{MonoBehaviour\n||}">
<polygon fill="none" stroke="black" points="600.414,-552 600.414,-609 683.414,-609 683.414,-552 600.414,-552"/>
<text text-anchor="middle" x="641.914" y="-597" font-family="Helvetica,sans-Serif" font-size="10.00">MonoBehaviour</text>
<polyline fill="none" stroke="black" points="600.414,-590 683.414,-590 "/>
<text text-anchor="middle" x="641.914" y="-578" font-family="Helvetica,sans-Serif" font-size="10.00"> </text>
<polyline fill="none" stroke="black" points="600.414,-571 683.414,-571 "/>
<text text-anchor="middle" x="641.914" y="-559" font-family="Helvetica,sans-Serif" font-size="10.00"> </text>
</a>
</g>
</g>
<!-- Node3&#45;&gt;Node2 -->
<g id="edge1" class="edge"><title>Node3&#45;&gt;Node2</title>
<path fill="none" stroke="midnightblue" d="M630.719,-542.034C619.062,-503.019 600.977,-442.492 589.822,-405.159"/>
<polygon fill="none" stroke="midnightblue" points="627.464,-543.366 633.681,-551.946 634.171,-541.362 627.464,-543.366"/>
</g>
<!-- Node4 -->
<g id="node3" class="node"><title>Node4</title>
<polygon fill="none" stroke="#bfbfbf" points="523.414,-998.5 523.414,-1055.5 564.414,-1055.5 564.414,-998.5 523.414,-998.5"/>
<text text-anchor="middle" x="543.914" y="-1043.5" font-family="Helvetica,sans-Serif" font-size="10.00">string</text>
<polyline fill="none" stroke="#bfbfbf" points="523.414,-1036.5 564.414,-1036.5 "/>
<text text-anchor="middle" x="543.914" y="-1024.5" font-family="Helvetica,sans-Serif" font-size="10.00"> </text>
<polyline fill="none" stroke="#bfbfbf" points="523.414,-1017.5 564.414,-1017.5 "/>
<text text-anchor="middle" x="543.914" y="-1005.5" font-family="Helvetica,sans-Serif" font-size="10.00"> </text>
</g>
<!-- Node4&#45;&gt;Node2 -->
<g id="edge2" class="edge"><title>Node4&#45;&gt;Node2</title>
<path fill="none" stroke="#404040" d="M553.677,-998.056C555.381,-992.16 556.922,-985.928 557.914,-980 592.687,-772.201 586.628,-519.101 582.256,-417.452"/>
<polygon fill="none" stroke="#404040" points="582.247,-417.244 577.982,-411.429 581.708,-405.256 585.974,-411.07 582.247,-417.244"/>
<text text-anchor="middle" x="625.914" y="-669" font-family="Helvetica,sans-Serif" font-size="10.00"> &#45;bossObjectName</text>
<text text-anchor="middle" x="625.914" y="-658" font-family="Helvetica,sans-Serif" font-size="10.00">&#45;desc</text>
</g>
<!-- Node8 -->
<g id="node7" class="node"><title>Node8</title>
<g id="a_node7"><a xlink:href="class_character.html" target="_top" xlink:title="Base abstract class for Enemy and Player to inherit from. Defines all shared variables, their constructor and their setters and getters ">
<polygon fill="none" stroke="black" points="59.414,-695.5 59.414,-873.5 154.414,-873.5 154.414,-695.5 59.414,-695.5"/>
<text text-anchor="middle" x="106.914" y="-861.5" font-family="Helvetica,sans-Serif" font-size="10.00">Character</text>
<polyline fill="none" stroke="black" points="59.414,-854.5 154.414,-854.5 "/>
<text text-anchor="start" x="67.414" y="-842.5" font-family="Helvetica,sans-Serif" font-size="10.00">+ Name</text>
<text text-anchor="start" x="67.414" y="-831.5" font-family="Helvetica,sans-Serif" font-size="10.00">+ Level</text>
<text text-anchor="start" x="67.414" y="-820.5" font-family="Helvetica,sans-Serif" font-size="10.00">+ Health</text>
<text text-anchor="start" x="67.414" y="-809.5" font-family="Helvetica,sans-Serif" font-size="10.00">+ Attack</text>
<text text-anchor="start" x="67.414" y="-798.5" font-family="Helvetica,sans-Serif" font-size="10.00">+ Defence</text>
<text text-anchor="start" x="67.414" y="-787.5" font-family="Helvetica,sans-Serif" font-size="10.00">+ MaximumMagic</text>
<text text-anchor="start" x="67.414" y="-776.5" font-family="Helvetica,sans-Serif" font-size="10.00">+ Magic</text>
<text text-anchor="start" x="67.414" y="-765.5" font-family="Helvetica,sans-Serif" font-size="10.00">+ Luck</text>
<text text-anchor="start" x="67.414" y="-754.5" font-family="Helvetica,sans-Serif" font-size="10.00">+ Speed</text>
<text text-anchor="start" x="67.414" y="-743.5" font-family="Helvetica,sans-Serif" font-size="10.00">+ Special1</text>
<text text-anchor="start" x="67.414" y="-732.5" font-family="Helvetica,sans-Serif" font-size="10.00">+ Special2</text>
<text text-anchor="start" x="67.414" y="-721.5" font-family="Helvetica,sans-Serif" font-size="10.00">+ Image</text>
<polyline fill="none" stroke="black" points="59.414,-714.5 154.414,-714.5 "/>
<text text-anchor="start" x="67.414" y="-702.5" font-family="Helvetica,sans-Serif" font-size="10.00"># Character()</text>
</a>
</g>
</g>
<!-- Node4&#45;&gt;Node8 -->
<g id="edge7" class="edge"><title>Node4&#45;&gt;Node8</title>
<path fill="none" stroke="#404040" d="M523.225,-1022.42C462.361,-1010.99 281.165,-970.263 168.914,-874 167.045,-872.397 165.205,-870.726 163.395,-868.998"/>
<polygon fill="none" stroke="#404040" points="162.962,-868.551 155.914,-867.026 154.611,-859.933 161.659,-861.458 162.962,-868.551"/>
<text text-anchor="middle" x="376.414" y="-933.5" font-family="Helvetica,sans-Serif" font-size="10.00"> #name</text>
</g>
<!-- Node10 -->
<g id="node9" class="node"><title>Node10</title>
<g id="a_node9"><a xlink:href="class_special_move.html" target="_top" xlink:title="Special move abstract base class that expands upon CharacterMove, adding magic properties ...">
<polygon fill="none" stroke="black" points="220.914,-0.5 220.914,-101.5 318.914,-101.5 318.914,-0.5 220.914,-0.5"/>
<text text-anchor="middle" x="269.914" y="-89.5" font-family="Helvetica,sans-Serif" font-size="10.00">SpecialMove</text>
<polyline fill="none" stroke="black" points="220.914,-82.5 318.914,-82.5 "/>
<text text-anchor="start" x="228.914" y="-70.5" font-family="Helvetica,sans-Serif" font-size="10.00">+ Magic</text>
<text text-anchor="start" x="228.914" y="-59.5" font-family="Helvetica,sans-Serif" font-size="10.00">+ Desc</text>
<text text-anchor="start" x="228.914" y="-48.5" font-family="Helvetica,sans-Serif" font-size="10.00">+ Special</text>
<polyline fill="none" stroke="black" points="220.914,-41.5 318.914,-41.5 "/>
<text text-anchor="start" x="228.914" y="-29.5" font-family="Helvetica,sans-Serif" font-size="10.00">+ setUp()</text>
<text text-anchor="start" x="228.914" y="-18.5" font-family="Helvetica,sans-Serif" font-size="10.00">+ decreaseMagic()</text>
<text text-anchor="start" x="228.914" y="-7.5" font-family="Helvetica,sans-Serif" font-size="10.00"># SpecialMove()</text>
</a>
</g>
</g>
<!-- Node4&#45;&gt;Node10 -->
<g id="edge21" class="edge"><title>Node4&#45;&gt;Node10</title>
<path fill="none" stroke="#404040" d="M564.679,-1024.28C597.433,-1020.72 661.981,-1010.14 706.914,-980 794.096,-921.529 840.914,-890.474 840.914,-785.5 840.914,-785.5 840.914,-785.5 840.914,-188 840.914,-84.1538 478.999,-59.4578 331.434,-53.7044"/>
<polygon fill="none" stroke="#404040" points="331.083,-53.6916 324.939,-57.4671 319.091,-53.2482 325.235,-49.4726 331.083,-53.6916"/>
<text text-anchor="middle" x="855.914" y="-492.5" font-family="Helvetica,sans-Serif" font-size="10.00"> #desc</text>
</g>
<!-- Node11 -->
<g id="node10" class="node"><title>Node11</title>
<g id="a_node10"><a xlink:href="class_character_move.html" target="_top" xlink:title="Astract base class for character moves ">
<polygon fill="none" stroke="black" points="226.914,-149.5 226.914,-228.5 312.914,-228.5 312.914,-149.5 226.914,-149.5"/>
<text text-anchor="middle" x="269.914" y="-216.5" font-family="Helvetica,sans-Serif" font-size="10.00">CharacterMove</text>
<polyline fill="none" stroke="black" points="226.914,-209.5 312.914,-209.5 "/>
<text text-anchor="start" x="234.914" y="-197.5" font-family="Helvetica,sans-Serif" font-size="10.00">+ User</text>
<text text-anchor="start" x="234.914" y="-186.5" font-family="Helvetica,sans-Serif" font-size="10.00">+ Target</text>
<text text-anchor="start" x="234.914" y="-175.5" font-family="Helvetica,sans-Serif" font-size="10.00">+ Text</text>
<polyline fill="none" stroke="black" points="226.914,-168.5 312.914,-168.5 "/>
<text text-anchor="start" x="234.914" y="-156.5" font-family="Helvetica,sans-Serif" font-size="10.00">+ performMove()</text>
</a>
</g>
</g>
<!-- Node4&#45;&gt;Node11 -->
<g id="edge11" class="edge"><title>Node4&#45;&gt;Node11</title>
<path fill="none" stroke="#404040" d="M564.717,-1017.59C623.723,-992.224 787.914,-910.407 787.914,-785.5 787.914,-785.5 787.914,-785.5 787.914,-370 787.914,-272.83 458.568,-216.177 325.099,-197.207"/>
<polygon fill="none" stroke="#404040" points="325.072,-197.204 318.575,-200.334 313.187,-195.541 319.684,-192.411 325.072,-197.204"/>
<text text-anchor="middle" x="800.414" y="-578" font-family="Helvetica,sans-Serif" font-size="10.00"> #text</text>
</g>
<!-- Node12 -->
<g id="node11" class="node"><title>Node12</title>
<g id="a_node11"><a xlink:href="class_battle_manager.html" target="_top" xlink:title="Holds current Player and Enemy objects in battle and provides functions for MainBattle and other obje...">
<polygon fill="none" stroke="black" points="211.914,-276.5 211.914,-465.5 327.914,-465.5 327.914,-276.5 211.914,-276.5"/>
<text text-anchor="middle" x="269.914" y="-453.5" font-family="Helvetica,sans-Serif" font-size="10.00">BattleManager</text>
<polyline fill="none" stroke="black" points="211.914,-446.5 327.914,-446.5 "/>
<text text-anchor="start" x="219.914" y="-434.5" font-family="Helvetica,sans-Serif" font-size="10.00">+ Player</text>
<text text-anchor="start" x="219.914" y="-423.5" font-family="Helvetica,sans-Serif" font-size="10.00">+ Enemy</text>
<text text-anchor="start" x="219.914" y="-412.5" font-family="Helvetica,sans-Serif" font-size="10.00">+ WasCriticalHit</text>
<polyline fill="none" stroke="black" points="211.914,-405.5 327.914,-405.5 "/>
<text text-anchor="start" x="219.914" y="-393.5" font-family="Helvetica,sans-Serif" font-size="10.00">+ BattleManager()</text>
<text text-anchor="start" x="219.914" y="-382.5" font-family="Helvetica,sans-Serif" font-size="10.00">+ playerFirst()</text>
<text text-anchor="start" x="219.914" y="-371.5" font-family="Helvetica,sans-Serif" font-size="10.00">+ switchPlayers()</text>
<text text-anchor="start" x="219.914" y="-360.5" font-family="Helvetica,sans-Serif" font-size="10.00">+ isCriticalHit()</text>
<text text-anchor="start" x="219.914" y="-349.5" font-family="Helvetica,sans-Serif" font-size="10.00">+ ranAway()</text>
<text text-anchor="start" x="219.914" y="-338.5" font-family="Helvetica,sans-Serif" font-size="10.00">+ damageCalculation()</text>
<text text-anchor="start" x="219.914" y="-327.5" font-family="Helvetica,sans-Serif" font-size="10.00">+ enemyMove()</text>
<text text-anchor="start" x="219.914" y="-316.5" font-family="Helvetica,sans-Serif" font-size="10.00">+ enemySpecialMove()</text>
<text text-anchor="start" x="219.914" y="-305.5" font-family="Helvetica,sans-Serif" font-size="10.00">+ battleWon()</text>
<text text-anchor="start" x="219.914" y="-294.5" font-family="Helvetica,sans-Serif" font-size="10.00">+ playerFainted()</text>
<text text-anchor="start" x="219.914" y="-283.5" font-family="Helvetica,sans-Serif" font-size="10.00">&#45; characterFainted()</text>
</a>
</g>
</g>
<!-- Node4&#45;&gt;Node12 -->
<g id="edge14" class="edge"><title>Node4&#45;&gt;Node12</title>
<path fill="none" stroke="#404040" d="M523.333,-999.786C518.701,-993.453 513.963,-986.603 509.914,-980 482.38,-935.098 474.443,-923.669 456.914,-874 449.458,-852.873 416.547,-699.249 413.914,-677 408.872,-634.399 428.897,-522.47 409.914,-484 394.525,-452.814 365.903,-427.516 338.529,-408.907"/>
<polygon fill="none" stroke="#404040" points="338.171,-408.673 330.96,-408.736 328.129,-402.104 335.339,-402.041 338.171,-408.673"/>
<text text-anchor="middle" x="455.914" y="-669" font-family="Helvetica,sans-Serif" font-size="10.00"> +forceEnemyMove</text>
<text text-anchor="middle" x="455.914" y="-658" font-family="Helvetica,sans-Serif" font-size="10.00">+forceCriticalHits</text>
</g>
<!-- Node16 -->
<g id="node15" class="node"><title>Node16</title>
<g id="a_node15"><a xlink:href="class_item.html" target="_top" xlink:title="Abstract class for items that can be equipped to a player, increasing some of their stats ...">
<polygon fill="none" stroke="black" points="466.414,-745 466.414,-824 543.414,-824 543.414,-745 466.414,-745"/>
<text text-anchor="middle" x="504.914" y="-812" font-family="Helvetica,sans-Serif" font-size="10.00">Item</text>
<polyline fill="none" stroke="black" points="466.414,-805 543.414,-805 "/>
<text text-anchor="start" x="474.414" y="-793" font-family="Helvetica,sans-Serif" font-size="10.00">+ Name</text>
<text text-anchor="start" x="474.414" y="-782" font-family="Helvetica,sans-Serif" font-size="10.00">+ Desc</text>
<polyline fill="none" stroke="black" points="466.414,-775 543.414,-775 "/>
<text text-anchor="start" x="474.414" y="-763" font-family="Helvetica,sans-Serif" font-size="10.00">+ applyBuffs()</text>
<text text-anchor="start" x="474.414" y="-752" font-family="Helvetica,sans-Serif" font-size="10.00">+ revertBuffs()</text>
</a>
</g>
</g>
<!-- Node4&#45;&gt;Node16 -->
<g id="edge26" class="edge"><title>Node4&#45;&gt;Node16</title>
<path fill="none" stroke="#404040" d="M533.115,-998.064C531.142,-992.167 529.279,-985.933 527.914,-980 516.845,-931.906 510.934,-875.827 507.89,-836.276"/>
<polygon fill="none" stroke="#404040" points="507.89,-836.272 503.465,-830.579 507.018,-824.304 511.443,-829.997 507.89,-836.272"/>
<text text-anchor="middle" x="542.914" y="-939" font-family="Helvetica,sans-Serif" font-size="10.00"> #desc</text>
<text text-anchor="middle" x="542.914" y="-928" font-family="Helvetica,sans-Serif" font-size="10.00">#name</text>
</g>
<!-- Node5 -->
<g id="node4" class="node"><title>Node5</title>
<polygon fill="none" stroke="#bfbfbf" points="701.914,-552 701.914,-609 751.914,-609 751.914,-552 701.914,-552"/>
<text text-anchor="middle" x="726.914" y="-597" font-family="Helvetica,sans-Serif" font-size="10.00">Vector2</text>
<polyline fill="none" stroke="#bfbfbf" points="701.914,-590 751.914,-590 "/>
<text text-anchor="middle" x="726.914" y="-578" font-family="Helvetica,sans-Serif" font-size="10.00"> </text>
<polyline fill="none" stroke="#bfbfbf" points="701.914,-571 751.914,-571 "/>
<text text-anchor="middle" x="726.914" y="-559" font-family="Helvetica,sans-Serif" font-size="10.00"> </text>
</g>
<!-- Node5&#45;&gt;Node2 -->
<g id="edge3" class="edge"><title>Node5&#45;&gt;Node2</title>
<path fill="none" stroke="#404040" d="M711.162,-551.857C705.506,-542.692 698.81,-532.633 691.914,-524 684.853,-515.16 681.19,-514.664 673.914,-506 649.713,-477.184 625.397,-442.325 607.561,-415.385"/>
<polygon fill="none" stroke="#404040" points="607.401,-415.14 600.764,-412.319 600.816,-405.108 607.453,-407.929 607.401,-415.14"/>
<text text-anchor="middle" x="723.914" y="-492.5" font-family="Helvetica,sans-Serif" font-size="10.00"> &#45;worldMapExitPosition</text>
</g>
<!-- Node6 -->
<g id="node5" class="node"><title>Node6</title>
<polygon fill="none" stroke="#bfbfbf" points="329.414,-552 329.414,-609 364.414,-609 364.414,-552 329.414,-552"/>
<text text-anchor="middle" x="346.914" y="-597" font-family="Helvetica,sans-Serif" font-size="10.00">bool</text>
<polyline fill="none" stroke="#bfbfbf" points="329.414,-590 364.414,-590 "/>
<text text-anchor="middle" x="346.914" y="-578" font-family="Helvetica,sans-Serif" font-size="10.00"> </text>
<polyline fill="none" stroke="#bfbfbf" points="329.414,-571 364.414,-571 "/>
<text text-anchor="middle" x="346.914" y="-559" font-family="Helvetica,sans-Serif" font-size="10.00"> </text>
</g>
<!-- Node6&#45;&gt;Node2 -->
<g id="edge4" class="edge"><title>Node6&#45;&gt;Node2</title>
<path fill="none" stroke="#404040" d="M351.367,-551.786C355.869,-531.176 364.586,-503.382 380.914,-484 420.54,-436.964 485.22,-405.805 530.036,-388.553"/>
<polygon fill="none" stroke="#404040" points="530.299,-388.455 534.522,-382.61 541.542,-384.26 537.319,-390.105 530.299,-388.455"/>
<text text-anchor="middle" x="405.914" y="-492.5" font-family="Helvetica,sans-Serif" font-size="10.00"> &#45;addPlayer</text>
</g>
<!-- Node6&#45;&gt;Node12 -->
<g id="edge19" class="edge"><title>Node6&#45;&gt;Node12</title>
<path fill="none" stroke="#404040" d="M329.116,-568.566C310.625,-556.052 282.769,-533.67 270.914,-506 267.071,-497.03 264.46,-487.402 262.782,-477.573"/>
<polygon fill="none" stroke="#404040" points="262.76,-477.409 258.003,-471.989 261.176,-465.514 265.933,-470.933 262.76,-477.409"/>
<text text-anchor="middle" x="303.914" y="-492.5" font-family="Helvetica,sans-Serif" font-size="10.00"> &#45;wasCriticalHit</text>
</g>
<!-- Node7 -->
<g id="node6" class="node"><title>Node7</title>
<g id="a_node6"><a xlink:href="class_player.html" target="_top" xlink:title="Defines a playable character for use in battle scenes">
<polygon fill="none" stroke="black" points="431.914,-524.5 431.914,-636.5 543.914,-636.5 543.914,-524.5 431.914,-524.5"/>
<text text-anchor="middle" x="487.914" y="-624.5" font-family="Helvetica,sans-Serif" font-size="10.00">Player</text>
<polyline fill="none" stroke="black" points="431.914,-617.5 543.914,-617.5 "/>
<text text-anchor="start" x="439.914" y="-605.5" font-family="Helvetica,sans-Serif" font-size="10.00">+ Exp</text>
<text text-anchor="start" x="439.914" y="-594.5" font-family="Helvetica,sans-Serif" font-size="10.00">+ Item</text>
<text text-anchor="start" x="439.914" y="-583.5" font-family="Helvetica,sans-Serif" font-size="10.00">+ ExpToNextLevel</text>
<polyline fill="none" stroke="black" points="431.914,-576.5 543.914,-576.5 "/>
<text text-anchor="start" x="439.914" y="-564.5" font-family="Helvetica,sans-Serif" font-size="10.00">+ Player()</text>
<text text-anchor="start" x="439.914" y="-553.5" font-family="Helvetica,sans-Serif" font-size="10.00">+ gainExp()</text>
<text text-anchor="start" x="439.914" y="-542.5" font-family="Helvetica,sans-Serif" font-size="10.00">+ levelUp()</text>
<text text-anchor="start" x="439.914" y="-531.5" font-family="Helvetica,sans-Serif" font-size="10.00">&#45; setExpToNextLevel()</text>
</a>
</g>
</g>
<!-- Node7&#45;&gt;Node2 -->
<g id="edge5" class="edge"><title>Node7&#45;&gt;Node2</title>
<path fill="none" stroke="#404040" d="M500.238,-524.36C503.972,-510.918 508.538,-496.745 513.914,-484 523.923,-460.271 538.122,-435.443 550.788,-415.211"/>
<polygon fill="none" stroke="#404040" points="550.794,-415.201 550.644,-407.991 557.241,-405.08 557.391,-412.289 550.794,-415.201"/>
<text text-anchor="middle" x="539.914" y="-492.5" font-family="Helvetica,sans-Serif" font-size="10.00"> &#45;newPlayer</text>
</g>
<!-- Node7&#45;&gt;Node12 -->
<g id="edge20" class="edge"><title>Node7&#45;&gt;Node12</title>
<path fill="none" stroke="#404040" d="M462.842,-524.02C455.061,-510.08 445.661,-495.756 434.914,-484 407.526,-454.039 370.615,-428.029 338.649,-408.635"/>
<polygon fill="none" stroke="#404040" points="338.334,-408.448 331.132,-408.82 328.019,-402.316 335.22,-401.944 338.334,-408.448"/>
<text text-anchor="middle" x="468.414" y="-492.5" font-family="Helvetica,sans-Serif" font-size="10.00"> &#45;player</text>
</g>
<!-- Node8&#45;&gt;Node7 -->
<g id="edge6" class="edge"><title>Node8&#45;&gt;Node7</title>
<path fill="none" stroke="midnightblue" d="M161.516,-702.093C163.931,-699.627 166.399,-697.253 168.914,-695 196.471,-670.315 206.784,-666.599 241.914,-655 297.72,-636.574 316.651,-653.979 372.914,-637 392.758,-631.011 413.447,-621.994 431.717,-612.959"/>
<polygon fill="none" stroke="midnightblue" points="158.66,-700.026 154.435,-709.742 163.797,-704.781 158.66,-700.026"/>
</g>
<!-- Node8&#45;&gt;Node11 -->
<g id="edge12" class="edge"><title>Node8&#45;&gt;Node11</title>
<path fill="none" stroke="#404040" d="M108.956,-695.318C114.596,-590.202 134.501,-411.723 202.914,-276 209.436,-263.06 218.05,-250.168 226.921,-238.452"/>
<polygon fill="none" stroke="#404040" points="226.994,-238.36 227.544,-231.17 234.393,-228.913 233.842,-236.103 226.994,-238.36"/>
<text text-anchor="middle" x="151.914" y="-498" font-family="Helvetica,sans-Serif" font-size="10.00"> #target</text>
<text text-anchor="middle" x="151.914" y="-487" font-family="Helvetica,sans-Serif" font-size="10.00">#user</text>
</g>
<!-- Node13 -->
<g id="node12" class="node"><title>Node13</title>
<g id="a_node12"><a xlink:href="class_enemy.html" target="_top" xlink:title="Defines an AI controller enemy to fight in battle scenes">
<polygon fill="none" stroke="black" points="157.414,-552 157.414,-609 224.414,-609 224.414,-552 157.414,-552"/>
<text text-anchor="middle" x="190.914" y="-597" font-family="Helvetica,sans-Serif" font-size="10.00">Enemy</text>
<polyline fill="none" stroke="black" points="157.414,-590 224.414,-590 "/>
<text text-anchor="start" x="165.414" y="-578" font-family="Helvetica,sans-Serif" font-size="10.00">+ ExpGiven</text>
<polyline fill="none" stroke="black" points="157.414,-571 224.414,-571 "/>
<text text-anchor="start" x="165.414" y="-559" font-family="Helvetica,sans-Serif" font-size="10.00">+ Enemy()</text>
</a>
</g>
</g>
<!-- Node8&#45;&gt;Node13 -->
<g id="edge16" class="edge"><title>Node8&#45;&gt;Node13</title>
<path fill="none" stroke="midnightblue" d="M147.463,-685.99C159.142,-657.905 170.97,-629.46 179.331,-609.355"/>
<polygon fill="none" stroke="midnightblue" points="144.121,-684.91 143.513,-695.487 150.585,-687.598 144.121,-684.91"/>
</g>
<!-- Node9 -->
<g id="node8" class="node"><title>Node9</title>
<polygon fill="none" stroke="#bfbfbf" points="176.414,-998.5 176.414,-1055.5 205.414,-1055.5 205.414,-998.5 176.414,-998.5"/>
<text text-anchor="middle" x="190.914" y="-1043.5" font-family="Helvetica,sans-Serif" font-size="10.00">int</text>
<polyline fill="none" stroke="#bfbfbf" points="176.414,-1036.5 205.414,-1036.5 "/>
<text text-anchor="middle" x="190.914" y="-1024.5" font-family="Helvetica,sans-Serif" font-size="10.00"> </text>
<polyline fill="none" stroke="#bfbfbf" points="176.414,-1017.5 205.414,-1017.5 "/>
<text text-anchor="middle" x="190.914" y="-1005.5" font-family="Helvetica,sans-Serif" font-size="10.00"> </text>
</g>
<!-- Node9&#45;&gt;Node7 -->
<g id="edge27" class="edge"><title>Node9&#45;&gt;Node7</title>
<path fill="none" stroke="#404040" d="M205.641,-1022.7C226.421,-1017.29 264.227,-1004.61 285.914,-980 374.286,-879.724 281.126,-782.788 381.914,-695 414.319,-666.775 447.65,-708.469 476.914,-677 484.263,-669.097 488.602,-659.093 490.981,-648.554"/>
<polygon fill="none" stroke="#404040" points="491.011,-648.363 488.001,-641.811 492.892,-636.511 495.902,-643.064 491.011,-648.363"/>
<text text-anchor="middle" x="419.414" y="-787.5" font-family="Helvetica,sans-Serif" font-size="10.00"> &#45;expToNextLevel</text>
<text text-anchor="middle" x="419.414" y="-776.5" font-family="Helvetica,sans-Serif" font-size="10.00">&#45;exp</text>
</g>
<!-- Node9&#45;&gt;Node8 -->
<g id="edge8" class="edge"><title>Node9&#45;&gt;Node8</title>
<path fill="none" stroke="#404040" d="M176.344,-1023.32C155.581,-1018.62 118.195,-1006.74 101.914,-980 85.0143,-952.242 81.5231,-917.877 83.7491,-885.791"/>
<polygon fill="none" stroke="#404040" points="83.7689,-885.574 80.3343,-879.234 84.8661,-873.624 88.3008,-879.965 83.7689,-885.574"/>
<text text-anchor="middle" x="139.414" y="-972" font-family="Helvetica,sans-Serif" font-size="10.00"> #speed</text>
<text text-anchor="middle" x="139.414" y="-961" font-family="Helvetica,sans-Serif" font-size="10.00">#luck</text>
<text text-anchor="middle" x="139.414" y="-950" font-family="Helvetica,sans-Serif" font-size="10.00">#health</text>
<text text-anchor="middle" x="139.414" y="-939" font-family="Helvetica,sans-Serif" font-size="10.00">#magic</text>
<text text-anchor="middle" x="139.414" y="-928" font-family="Helvetica,sans-Serif" font-size="10.00">#maximumMagic</text>
<text text-anchor="middle" x="139.414" y="-917" font-family="Helvetica,sans-Serif" font-size="10.00">#attack</text>
<text text-anchor="middle" x="139.414" y="-906" font-family="Helvetica,sans-Serif" font-size="10.00">#defence</text>
<text text-anchor="middle" x="139.414" y="-895" font-family="Helvetica,sans-Serif" font-size="10.00">#level</text>
</g>
<!-- Node9&#45;&gt;Node10 -->
<g id="edge23" class="edge"><title>Node9&#45;&gt;Node10</title>
<path fill="none" stroke="#404040" d="M176.289,-1022.21C138.047,-1012.24 37.6909,-985.642 32.914,-980 -23.3358,-913.569 9.91396,-872.547 9.91396,-785.5 9.91396,-785.5 9.91396,-785.5 9.91396,-188 9.91396,-98.6654 131.924,-67.9043 208.782,-57.3893"/>
<polygon fill="none" stroke="#404040" points="208.801,-57.387 214.247,-52.6604 220.704,-55.8697 215.258,-60.5962 208.801,-57.387"/>
<text text-anchor="middle" x="27.414" y="-492.5" font-family="Helvetica,sans-Serif" font-size="10.00"> #magic</text>
</g>
<!-- Node9&#45;&gt;Node12 -->
<g id="edge18" class="edge"><title>Node9&#45;&gt;Node12</title>
<path fill="none" stroke="#404040" d="M205.574,-1020.73C221.726,-1014.05 246.875,-1000.82 257.914,-980 309.554,-882.621 256.163,-594.122 260.914,-484 261.002,-481.957 261.098,-479.893 261.201,-477.814"/>
<polygon fill="none" stroke="#404040" points="261.204,-477.755 257.54,-471.544 261.864,-465.773 265.528,-471.984 261.204,-477.755"/>
<text text-anchor="middle" x="292.414" y="-663.5" font-family="Helvetica,sans-Serif" font-size="10.00"> +money</text>
</g>
<!-- Node9&#45;&gt;Node13 -->
<g id="edge17" class="edge"><title>Node9&#45;&gt;Node13</title>
<path fill="none" stroke="#404040" d="M190.914,-998.195C190.914,-922.02 190.914,-709.768 190.914,-621.156"/>
<polygon fill="none" stroke="#404040" points="190.914,-621.011 186.914,-615.011 190.914,-609.011 194.914,-615.011 190.914,-621.011"/>
<text text-anchor="middle" x="213.914" y="-782" font-family="Helvetica,sans-Serif" font-size="10.00"> &#45;expGiven</text>
</g>
<!-- Node10&#45;&gt;Node8 -->
<g id="edge9" class="edge"><title>Node10&#45;&gt;Node8</title>
<path fill="none" stroke="#404040" d="M220.678,-61.2728C158.609,-76.1417 59.914,-111.77 59.914,-188 59.914,-581.5 59.914,-581.5 59.914,-581.5 59.914,-615.171 66.1857,-651.198 74.147,-683.366"/>
<polygon fill="none" stroke="#404040" points="74.1582,-683.409 79.527,-688.223 77.1481,-695.031 71.7793,-690.217 74.1582,-683.409"/>
<text text-anchor="middle" x="82.414" y="-374" font-family="Helvetica,sans-Serif" font-size="10.00"> #special1</text>
<text text-anchor="middle" x="82.414" y="-363" font-family="Helvetica,sans-Serif" font-size="10.00">#special2</text>
</g>
<!-- Node11&#45;&gt;Node10 -->
<g id="edge10" class="edge"><title>Node11&#45;&gt;Node10</title>
<path fill="none" stroke="midnightblue" d="M269.914,-139.047C269.914,-126.972 269.914,-114.025 269.914,-101.905"/>
<polygon fill="none" stroke="midnightblue" points="266.414,-139.392 269.914,-149.392 273.414,-139.392 266.414,-139.392"/>
</g>
<!-- Node12&#45;&gt;Node11 -->
<g id="edge13" class="edge"><title>Node12&#45;&gt;Node11</title>
<path fill="none" stroke="#404040" d="M269.914,-276.31C269.914,-264.145 269.914,-252.07 269.914,-240.976"/>
<polygon fill="none" stroke="#404040" points="269.914,-240.915 265.914,-234.915 269.914,-228.915 273.914,-234.915 269.914,-240.915"/>
<text text-anchor="middle" x="292.914" y="-250" font-family="Helvetica,sans-Serif" font-size="10.00"> #manager</text>
</g>
<!-- Node13&#45;&gt;Node12 -->
<g id="edge15" class="edge"><title>Node13&#45;&gt;Node12</title>
<path fill="none" stroke="#404040" d="M184.64,-551.615C181.483,-532.176 179.683,-505.903 186.914,-484 191.198,-471.024 197.629,-458.324 205.053,-446.409"/>
<polygon fill="none" stroke="#404040" points="205.206,-446.177 205.163,-438.966 211.803,-436.154 211.846,-443.365 205.206,-446.177"/>
<text text-anchor="middle" x="204.914" y="-492.5" font-family="Helvetica,sans-Serif" font-size="10.00"> &#45;enemy</text>
</g>
<!-- Node14 -->
<g id="node13" class="node"><title>Node14</title>
<polygon fill="none" stroke="#bfbfbf" points="869.414,-160.5 869.414,-217.5 904.414,-217.5 904.414,-160.5 869.414,-160.5"/>
<text text-anchor="middle" x="886.914" y="-205.5" font-family="Helvetica,sans-Serif" font-size="10.00">float</text>
<polyline fill="none" stroke="#bfbfbf" points="869.414,-198.5 904.414,-198.5 "/>
<text text-anchor="middle" x="886.914" y="-186.5" font-family="Helvetica,sans-Serif" font-size="10.00"> </text>
<polyline fill="none" stroke="#bfbfbf" points="869.414,-179.5 904.414,-179.5 "/>
<text text-anchor="middle" x="886.914" y="-167.5" font-family="Helvetica,sans-Serif" font-size="10.00"> </text>
</g>
<!-- Node14&#45;&gt;Node10 -->
<g id="edge22" class="edge"><title>Node14&#45;&gt;Node10</title>
<path fill="none" stroke="#404040" d="M880.754,-160.284C876.096,-145.956 868.156,-129.521 854.914,-120 772.279,-60.5891 464.394,-52.4576 331.563,-51.7789"/>
<polygon fill="none" stroke="#404040" points="331.268,-51.7779 325.254,-55.7564 319.268,-51.735 325.282,-47.7565 331.268,-51.7779"/>
<text text-anchor="middle" x="884.914" y="-123" font-family="Helvetica,sans-Serif" font-size="10.00"> #special</text>
</g>
<!-- Node15 -->
<g id="node14" class="node"><title>Node15</title>
<polygon fill="none" stroke="#bfbfbf" points="12.414,-998.5 12.414,-1055.5 73.414,-1055.5 73.414,-998.5 12.414,-998.5"/>
<text text-anchor="middle" x="42.914" y="-1043.5" font-family="Helvetica,sans-Serif" font-size="10.00">Texture2D</text>
<polyline fill="none" stroke="#bfbfbf" points="12.414,-1036.5 73.414,-1036.5 "/>
<text text-anchor="middle" x="42.914" y="-1024.5" font-family="Helvetica,sans-Serif" font-size="10.00"> </text>
<polyline fill="none" stroke="#bfbfbf" points="12.414,-1017.5 73.414,-1017.5 "/>
<text text-anchor="middle" x="42.914" y="-1005.5" font-family="Helvetica,sans-Serif" font-size="10.00"> </text>
</g>
<!-- Node15&#45;&gt;Node8 -->
<g id="edge24" class="edge"><title>Node15&#45;&gt;Node8</title>
<path fill="none" stroke="#404040" d="M39.0014,-998.475C36.0417,-970.973 33.987,-927.754 43.914,-892 46.4193,-882.976 49.8983,-873.938 53.9466,-865.151"/>
<polygon fill="none" stroke="#404040" points="54.0494,-864.942 53.1101,-857.792 59.3486,-854.175 60.2879,-861.325 54.0494,-864.942"/>
<text text-anchor="middle" x="61.414" y="-933.5" font-family="Helvetica,sans-Serif" font-size="10.00"> #image</text>
</g>
<!-- Node16&#45;&gt;Node7 -->
<g id="edge25" class="edge"><title>Node16&#45;&gt;Node7</title>
<path fill="none" stroke="#404040" d="M505.668,-744.876C505.76,-719.306 505.107,-685.068 501.914,-655 501.697,-652.957 501.454,-650.887 501.188,-648.799"/>
<polygon fill="none" stroke="#404040" points="501.161,-648.615 496.345,-643.248 499.447,-636.738 504.263,-642.105 501.161,-648.615"/>
<text text-anchor="middle" x="516.414" y="-663.5" font-family="Helvetica,sans-Serif" font-size="10.00"> &#45;item</text>
</g>
</g>
</svg>
