<?xml version="1.0" encoding="UTF-8" standalone="no"?>
<!DOCTYPE svg PUBLIC "-//W3C//DTD SVG 1.1//EN"
 "http://www.w3.org/Graphics/SVG/1.1/DTD/svg11.dtd">
<!-- Generated by graphviz version 2.38.0 (20140413.2041)
 -->
<!-- Title: PlayerMenu Pages: 1 -->
<!--zoomable 1308 -->
<svg id="main" version="1.1" xmlns="http://www.w3.org/2000/svg" xmlns:xlink="http://www.w3.org/1999/xlink" xml:space="preserve" onload="init(evt)">
<style type="text/css"><![CDATA[
.edge:hover path { stroke: red; }
.edge:hover polygon { stroke: red; fill: red; }
]]></style>
<script type="text/javascript"><![CDATA[
var edges = document.getElementsByTagName('g');
if (edges && edges.length) {
  for (var i=0;i<edges.length;i++) {
    if (edges[i].id.substr(0,4)=='edge') {
      edges[i].setAttribute('class','edge');
    }
  }
}
]]></script>
        <defs>
                <circle id="rim" cx="0" cy="0" r="7"/>
                <circle id="rim2" cx="0" cy="0" r="3.5"/>
                <g id="zoomPlus">
                        <use xlink:href="#rim" fill="#404040">
                                <set attributeName="fill" to="#808080" begin="zoomplus.mouseover" end="zoomplus.mouseout"/>
                        </use>
                        <path d="M-4,0h8M0,-4v8" fill="none" stroke="white" stroke-width="1.5" pointer-events="none"/>
                </g>
                <g id="zoomMin">
                        <use xlink:href="#rim" fill="#404040">
                                <set attributeName="fill" to="#808080" begin="zoomminus.mouseover" end="zoomminus.mouseout"/>
                        </use>
                        <path d="M-4,0h8" fill="none" stroke="white" stroke-width="1.5" pointer-events="none"/>
                </g>
                <g id="dirArrow">
                        <path fill="none" stroke="white" stroke-width="1.5" d="M0,-3.0v7 M-2.5,-0.5L0,-3.0L2.5,-0.5"/>
                </g>
               <g id="resetDef">
                       <use xlink:href="#rim2" fill="#404040">
                               <set attributeName="fill" to="#808080" begin="reset.mouseover" end="reset.mouseout"/>
                       </use>
               </g>
        </defs>

<script type="text/javascript">
var viewWidth = 880;
var viewHeight = 1308;
var sectionId = 'dynsection-1';
</script>
<script xlink:href="svgpan.js"/>
<svg id="graph" class="graph">
<g id="viewport">
<title>PlayerMenu</title>
<!-- Node2 -->
<g id="node1" class="node"><title>Node2</title>
<polygon fill="#bfbfbf" stroke="black" points="85.5,-740.5 85.5,-819.5 173.5,-819.5 173.5,-740.5 85.5,-740.5"/>
<text text-anchor="middle" x="129.5" y="-807.5" font-family="Helvetica,sans-Serif" font-size="10.00">PlayerMenu</text>
<polyline fill="none" stroke="black" points="85.5,-800.5 173.5,-800.5 "/>
<text text-anchor="middle" x="129.5" y="-788.5" font-family="Helvetica,sans-Serif" font-size="10.00"> </text>
<polyline fill="none" stroke="black" points="85.5,-781.5 173.5,-781.5 "/>
<text text-anchor="start" x="93.5" y="-769.5" font-family="Helvetica,sans-Serif" font-size="10.00">+ OnItemPlace()</text>
<text text-anchor="start" x="93.5" y="-758.5" font-family="Helvetica,sans-Serif" font-size="10.00">+ back()</text>
<text text-anchor="start" x="93.5" y="-747.5" font-family="Helvetica,sans-Serif" font-size="10.00">&#45; Start()</text>
</g>
<!-- Node3 -->
<g id="node2" class="node"><title>Node3</title>
<g id="a_node2"><a xlink:href="class_mono_behaviour.html" target="_top" xlink:title="{MonoBehaviour\n||}">
<polygon fill="none" stroke="black" points="89,-955.5 89,-1012.5 172,-1012.5 172,-955.5 89,-955.5"/>
<text text-anchor="middle" x="130.5" y="-1000.5" font-family="Helvetica,sans-Serif" font-size="10.00">MonoBehaviour</text>
<polyline fill="none" stroke="black" points="89,-993.5 172,-993.5 "/>
<text text-anchor="middle" x="130.5" y="-981.5" font-family="Helvetica,sans-Serif" font-size="10.00"> </text>
<polyline fill="none" stroke="black" points="89,-974.5 172,-974.5 "/>
<text text-anchor="middle" x="130.5" y="-962.5" font-family="Helvetica,sans-Serif" font-size="10.00"> </text>
</a>
</g>
</g>
<!-- Node3&#45;&gt;Node2 -->
<g id="edge1" class="edge"><title>Node3&#45;&gt;Node2</title>
<path fill="none" stroke="midnightblue" d="M130.313,-945.284C130.136,-909.468 129.871,-855.872 129.692,-819.726"/>
<polygon fill="none" stroke="midnightblue" points="126.813,-945.354 130.363,-955.336 133.813,-945.319 126.813,-945.354"/>
</g>
<!-- Node4 -->
<g id="node3" class="node"><title>Node4</title>
<polygon fill="none" stroke="#bfbfbf" points="0,-955.5 0,-1012.5 71,-1012.5 71,-955.5 0,-955.5"/>
<text text-anchor="middle" x="35.5" y="-1000.5" font-family="Helvetica,sans-Serif" font-size="10.00">GameObject</text>
<polyline fill="none" stroke="#bfbfbf" points="0,-993.5 71,-993.5 "/>
<text text-anchor="middle" x="35.5" y="-981.5" font-family="Helvetica,sans-Serif" font-size="10.00"> </text>
<polyline fill="none" stroke="#bfbfbf" points="0,-974.5 71,-974.5 "/>
<text text-anchor="middle" x="35.5" y="-962.5" font-family="Helvetica,sans-Serif" font-size="10.00"> </text>
</g>
<!-- Node4&#45;&gt;Node2 -->
<g id="edge2" class="edge"><title>Node4&#45;&gt;Node2</title>
<path fill="none" stroke="#404040" d="M48.3732,-955.336C63.2785,-923.306 88.1189,-869.925 106.394,-830.654"/>
<polygon fill="none" stroke="#404040" points="106.416,-830.606 105.321,-823.479 111.479,-819.726 112.574,-826.854 106.416,-830.606"/>
<text text-anchor="middle" x="94" y="-896" font-family="Helvetica,sans-Serif" font-size="10.00"> &#45;player</text>
</g>
<!-- Node5 -->
<g id="node4" class="node"><title>Node5</title>
<g id="a_node4"><a xlink:href="class_player.html" target="_top" xlink:title="Defines a playable character for use in battle scenes">
<polygon fill="none" stroke="black" points="229.5,-922.5 229.5,-1045.5 341.5,-1045.5 341.5,-922.5 229.5,-922.5"/>
<text text-anchor="middle" x="285.5" y="-1033.5" font-family="Helvetica,sans-Serif" font-size="10.00">Player</text>
<polyline fill="none" stroke="black" points="229.5,-1026.5 341.5,-1026.5 "/>
<text text-anchor="start" x="237.5" y="-1014.5" font-family="Helvetica,sans-Serif" font-size="10.00">+ Exp</text>
<text text-anchor="start" x="237.5" y="-1003.5" font-family="Helvetica,sans-Serif" font-size="10.00">+ Item</text>
<text text-anchor="start" x="237.5" y="-992.5" font-family="Helvetica,sans-Serif" font-size="10.00">+ ExpToNextLevel</text>
<polyline fill="none" stroke="black" points="229.5,-985.5 341.5,-985.5 "/>
<text text-anchor="start" x="237.5" y="-973.5" font-family="Helvetica,sans-Serif" font-size="10.00">+ Player()</text>
<text text-anchor="start" x="237.5" y="-962.5" font-family="Helvetica,sans-Serif" font-size="10.00">+ gainExp()</text>
<text text-anchor="start" x="237.5" y="-951.5" font-family="Helvetica,sans-Serif" font-size="10.00">+ levelUp()</text>
<text text-anchor="start" x="237.5" y="-940.5" font-family="Helvetica,sans-Serif" font-size="10.00">+ Clone()</text>
<text text-anchor="start" x="237.5" y="-929.5" font-family="Helvetica,sans-Serif" font-size="10.00">&#45; setExpToNextLevel()</text>
</a>
</g>
</g>
<!-- Node5&#45;&gt;Node2 -->
<g id="edge3" class="edge"><title>Node5&#45;&gt;Node2</title>
<path fill="none" stroke="#404040" d="M238.695,-922.393C215.654,-892.558 188.265,-857.093 166.682,-829.145"/>
<polygon fill="none" stroke="#404040" points="166.641,-829.092 159.807,-826.789 159.306,-819.595 166.139,-821.899 166.641,-829.092"/>
<text text-anchor="middle" x="240.5" y="-896" font-family="Helvetica,sans-Serif" font-size="10.00"> &#45;players</text>
</g>
<!-- Node11 -->
<g id="node10" class="node"><title>Node11</title>
<g id="a_node10"><a xlink:href="class_battle_manager.html" target="_top" xlink:title="Holds current Player and Enemy objects in battle and provides functions for MainBattle and other obje...">
<polygon fill="none" stroke="black" points="346.5,-685.5 346.5,-874.5 462.5,-874.5 462.5,-685.5 346.5,-685.5"/>
<text text-anchor="middle" x="404.5" y="-862.5" font-family="Helvetica,sans-Serif" font-size="10.00">BattleManager</text>
<polyline fill="none" stroke="black" points="346.5,-855.5 462.5,-855.5 "/>
<text text-anchor="start" x="354.5" y="-843.5" font-family="Helvetica,sans-Serif" font-size="10.00">+ Player</text>
<text text-anchor="start" x="354.5" y="-832.5" font-family="Helvetica,sans-Serif" font-size="10.00">+ Enemy</text>
<text text-anchor="start" x="354.5" y="-821.5" font-family="Helvetica,sans-Serif" font-size="10.00">+ WasCriticalHit</text>
<polyline fill="none" stroke="black" points="346.5,-814.5 462.5,-814.5 "/>
<text text-anchor="start" x="354.5" y="-802.5" font-family="Helvetica,sans-Serif" font-size="10.00">+ BattleManager()</text>
<text text-anchor="start" x="354.5" y="-791.5" font-family="Helvetica,sans-Serif" font-size="10.00">+ playerFirst()</text>
<text text-anchor="start" x="354.5" y="-780.5" font-family="Helvetica,sans-Serif" font-size="10.00">+ switchPlayers()</text>
<text text-anchor="start" x="354.5" y="-769.5" font-family="Helvetica,sans-Serif" font-size="10.00">+ isCriticalHit()</text>
<text text-anchor="start" x="354.5" y="-758.5" font-family="Helvetica,sans-Serif" font-size="10.00">+ ranAway()</text>
<text text-anchor="start" x="354.5" y="-747.5" font-family="Helvetica,sans-Serif" font-size="10.00">+ damageCalculation()</text>
<text text-anchor="start" x="354.5" y="-736.5" font-family="Helvetica,sans-Serif" font-size="10.00">+ enemyMove()</text>
<text text-anchor="start" x="354.5" y="-725.5" font-family="Helvetica,sans-Serif" font-size="10.00">+ enemySpecialMove()</text>
<text text-anchor="start" x="354.5" y="-714.5" font-family="Helvetica,sans-Serif" font-size="10.00">+ battleWon()</text>
<text text-anchor="start" x="354.5" y="-703.5" font-family="Helvetica,sans-Serif" font-size="10.00">+ playerFainted()</text>
<text text-anchor="start" x="354.5" y="-692.5" font-family="Helvetica,sans-Serif" font-size="10.00">&#45; characterFainted()</text>
</a>
</g>
</g>
<!-- Node5&#45;&gt;Node11 -->
<g id="edge18" class="edge"><title>Node5&#45;&gt;Node11</title>
<path fill="none" stroke="#404040" d="M321.204,-922.393C328.104,-910.681 335.514,-898.102 342.968,-885.45"/>
<polygon fill="none" stroke="#404040" points="343.137,-885.162 342.736,-877.962 349.228,-874.823 349.629,-882.023 343.137,-885.162"/>
<text text-anchor="middle" x="355" y="-896" font-family="Helvetica,sans-Serif" font-size="10.00"> &#45;player</text>
</g>
<!-- Node6 -->
<g id="node5" class="node"><title>Node6</title>
<g id="a_node5"><a xlink:href="class_character.html" target="_top" xlink:title="Base abstract class for Enemy and Player to inherit from. Defines all shared variables, their constructor and their setters and getters ">
<polygon fill="none" stroke="black" points="510,-95.5 510,-273.5 605,-273.5 605,-95.5 510,-95.5"/>
<text text-anchor="middle" x="557.5" y="-261.5" font-family="Helvetica,sans-Serif" font-size="10.00">Character</text>
<polyline fill="none" stroke="black" points="510,-254.5 605,-254.5 "/>
<text text-anchor="start" x="518" y="-242.5" font-family="Helvetica,sans-Serif" font-size="10.00">+ Name</text>
<text text-anchor="start" x="518" y="-231.5" font-family="Helvetica,sans-Serif" font-size="10.00">+ Level</text>
<text text-anchor="start" x="518" y="-220.5" font-family="Helvetica,sans-Serif" font-size="10.00">+ Health</text>
<text text-anchor="start" x="518" y="-209.5" font-family="Helvetica,sans-Serif" font-size="10.00">+ Attack</text>
<text text-anchor="start" x="518" y="-198.5" font-family="Helvetica,sans-Serif" font-size="10.00">+ Defence</text>
<text text-anchor="start" x="518" y="-187.5" font-family="Helvetica,sans-Serif" font-size="10.00">+ MaximumMagic</text>
<text text-anchor="start" x="518" y="-176.5" font-family="Helvetica,sans-Serif" font-size="10.00">+ Magic</text>
<text text-anchor="start" x="518" y="-165.5" font-family="Helvetica,sans-Serif" font-size="10.00">+ Luck</text>
<text text-anchor="start" x="518" y="-154.5" font-family="Helvetica,sans-Serif" font-size="10.00">+ Speed</text>
<text text-anchor="start" x="518" y="-143.5" font-family="Helvetica,sans-Serif" font-size="10.00">+ Special1</text>
<text text-anchor="start" x="518" y="-132.5" font-family="Helvetica,sans-Serif" font-size="10.00">+ Special2</text>
<text text-anchor="start" x="518" y="-121.5" font-family="Helvetica,sans-Serif" font-size="10.00">+ Image</text>
<polyline fill="none" stroke="black" points="510,-114.5 605,-114.5 "/>
<text text-anchor="start" x="518" y="-102.5" font-family="Helvetica,sans-Serif" font-size="10.00"># Character()</text>
</a>
</g>
</g>
<!-- Node6&#45;&gt;Node5 -->
<g id="edge4" class="edge"><title>Node6&#45;&gt;Node5</title>
<path fill="none" stroke="midnightblue" d="M499.988,-199.655C420.702,-223.009 287.5,-277.756 287.5,-382 287.5,-781 287.5,-781 287.5,-781 287.5,-828.521 286.94,-882.328 286.412,-922.454"/>
<polygon fill="none" stroke="midnightblue" points="501.202,-202.948 509.851,-196.829 499.274,-196.219 501.202,-202.948"/>
</g>
<!-- Node10 -->
<g id="node9" class="node"><title>Node10</title>
<g id="a_node9"><a xlink:href="class_character_move.html" target="_top" xlink:title="Astract base class for character moves ">
<polygon fill="none" stroke="black" points="526.5,-481.5 526.5,-560.5 612.5,-560.5 612.5,-481.5 526.5,-481.5"/>
<text text-anchor="middle" x="569.5" y="-548.5" font-family="Helvetica,sans-Serif" font-size="10.00">CharacterMove</text>
<polyline fill="none" stroke="black" points="526.5,-541.5 612.5,-541.5 "/>
<text text-anchor="start" x="534.5" y="-529.5" font-family="Helvetica,sans-Serif" font-size="10.00">+ User</text>
<text text-anchor="start" x="534.5" y="-518.5" font-family="Helvetica,sans-Serif" font-size="10.00">+ Target</text>
<text text-anchor="start" x="534.5" y="-507.5" font-family="Helvetica,sans-Serif" font-size="10.00">+ Text</text>
<polyline fill="none" stroke="black" points="526.5,-500.5 612.5,-500.5 "/>
<text text-anchor="start" x="534.5" y="-488.5" font-family="Helvetica,sans-Serif" font-size="10.00">+ performMove()</text>
</a>
</g>
</g>
<!-- Node6&#45;&gt;Node10 -->
<g id="edge10" class="edge"><title>Node6&#45;&gt;Node10</title>
<path fill="none" stroke="#404040" d="M560.659,-273.558C562.895,-335.88 565.815,-417.275 567.674,-469.11"/>
<polygon fill="none" stroke="#404040" points="567.681,-469.31 571.894,-475.162 568.112,-481.302 563.899,-475.449 567.681,-469.31"/>
<text text-anchor="middle" x="583.5" y="-386" font-family="Helvetica,sans-Serif" font-size="10.00"> #target</text>
<text text-anchor="middle" x="583.5" y="-375" font-family="Helvetica,sans-Serif" font-size="10.00">#user</text>
</g>
<!-- Node12 -->
<g id="node11" class="node"><title>Node12</title>
<g id="a_node11"><a xlink:href="class_enemy.html" target="_top" xlink:title="Defines an AI controller enemy to fight in battle scenes">
<polygon fill="none" stroke="black" points="363,-0.5 363,-57.5 430,-57.5 430,-0.5 363,-0.5"/>
<text text-anchor="middle" x="396.5" y="-45.5" font-family="Helvetica,sans-Serif" font-size="10.00">Enemy</text>
<polyline fill="none" stroke="black" points="363,-38.5 430,-38.5 "/>
<text text-anchor="start" x="371" y="-26.5" font-family="Helvetica,sans-Serif" font-size="10.00">+ ExpGiven</text>
<polyline fill="none" stroke="black" points="363,-19.5 430,-19.5 "/>
<text text-anchor="start" x="371" y="-7.5" font-family="Helvetica,sans-Serif" font-size="10.00">+ Enemy()</text>
</a>
</g>
</g>
<!-- Node6&#45;&gt;Node12 -->
<g id="edge14" class="edge"><title>Node6&#45;&gt;Node12</title>
<path fill="none" stroke="midnightblue" d="M502.152,-130.73C476.483,-106.257 447.021,-78.168 425.742,-57.8797"/>
<polygon fill="none" stroke="midnightblue" points="499.978,-133.493 509.631,-137.861 504.808,-128.427 499.978,-133.493"/>
</g>
<!-- Node7 -->
<g id="node6" class="node"><title>Node7</title>
<polygon fill="none" stroke="#bfbfbf" points="663,-1242.5 663,-1299.5 704,-1299.5 704,-1242.5 663,-1242.5"/>
<text text-anchor="middle" x="683.5" y="-1287.5" font-family="Helvetica,sans-Serif" font-size="10.00">string</text>
<polyline fill="none" stroke="#bfbfbf" points="663,-1280.5 704,-1280.5 "/>
<text text-anchor="middle" x="683.5" y="-1268.5" font-family="Helvetica,sans-Serif" font-size="10.00"> </text>
<polyline fill="none" stroke="#bfbfbf" points="663,-1261.5 704,-1261.5 "/>
<text text-anchor="middle" x="683.5" y="-1249.5" font-family="Helvetica,sans-Serif" font-size="10.00"> </text>
</g>
<!-- Node7&#45;&gt;Node6 -->
<g id="edge5" class="edge"><title>Node7&#45;&gt;Node6</title>
<path fill="none" stroke="#404040" d="M704.013,-1257C733.011,-1236.85 782.5,-1195.11 782.5,-1145 782.5,-1145 782.5,-1145 782.5,-382 782.5,-293.753 683.097,-236.005 616.432,-207.199"/>
<polygon fill="none" stroke="#404040" points="616.281,-207.136 609.2,-208.501 605.217,-202.49 612.297,-201.125 616.281,-207.136"/>
<text text-anchor="middle" x="799" y="-777.5" font-family="Helvetica,sans-Serif" font-size="10.00"> #name</text>
</g>
<!-- Node9 -->
<g id="node8" class="node"><title>Node9</title>
<g id="a_node8"><a xlink:href="class_special_move.html" target="_top" xlink:title="Special move abstract base class that expands upon CharacterMove, adding magic properties ...">
<polygon fill="none" stroke="black" points="609.5,-332.5 609.5,-433.5 707.5,-433.5 707.5,-332.5 609.5,-332.5"/>
<text text-anchor="middle" x="658.5" y="-421.5" font-family="Helvetica,sans-Serif" font-size="10.00">SpecialMove</text>
<polyline fill="none" stroke="black" points="609.5,-414.5 707.5,-414.5 "/>
<text text-anchor="start" x="617.5" y="-402.5" font-family="Helvetica,sans-Serif" font-size="10.00">+ Magic</text>
<text text-anchor="start" x="617.5" y="-391.5" font-family="Helvetica,sans-Serif" font-size="10.00">+ Desc</text>
<text text-anchor="start" x="617.5" y="-380.5" font-family="Helvetica,sans-Serif" font-size="10.00">+ Special</text>
<polyline fill="none" stroke="black" points="609.5,-373.5 707.5,-373.5 "/>
<text text-anchor="start" x="617.5" y="-361.5" font-family="Helvetica,sans-Serif" font-size="10.00">+ setUp()</text>
<text text-anchor="start" x="617.5" y="-350.5" font-family="Helvetica,sans-Serif" font-size="10.00">+ decreaseMagic()</text>
<text text-anchor="start" x="617.5" y="-339.5" font-family="Helvetica,sans-Serif" font-size="10.00"># SpecialMove()</text>
</a>
</g>
</g>
<!-- Node7&#45;&gt;Node9 -->
<g id="edge19" class="edge"><title>Node7&#45;&gt;Node9</title>
<path fill="none" stroke="#404040" d="M702.934,-1242.13C718.06,-1217.69 736.5,-1180.59 736.5,-1145 736.5,-1145 736.5,-1145 736.5,-520 736.5,-492.738 724.56,-465.99 710.023,-443.527"/>
<polygon fill="none" stroke="#404040" points="709.959,-443.433 703.273,-440.732 703.195,-433.521 709.881,-436.222 709.959,-443.433"/>
<text text-anchor="middle" x="751.5" y="-896" font-family="Helvetica,sans-Serif" font-size="10.00"> #desc</text>
</g>
<!-- Node7&#45;&gt;Node10 -->
<g id="edge9" class="edge"><title>Node7&#45;&gt;Node10</title>
<path fill="none" stroke="#404040" d="M685.084,-1242.16C690.546,-1140.68 706.565,-790.971 674.5,-685 661.7,-642.699 634.412,-600.914 610.863,-570.242"/>
<polygon fill="none" stroke="#404040" points="610.776,-570.131 603.926,-567.878 603.372,-560.688 610.222,-562.941 610.776,-570.131"/>
<text text-anchor="middle" x="707" y="-981.5" font-family="Helvetica,sans-Serif" font-size="10.00"> #text</text>
</g>
<!-- Node7&#45;&gt;Node11 -->
<g id="edge12" class="edge"><title>Node7&#45;&gt;Node11</title>
<path fill="none" stroke="#404040" d="M668.179,-1242.38C635.391,-1183.36 555.841,-1040.68 487.5,-922 480.578,-909.981 473.278,-897.417 465.994,-884.953"/>
<polygon fill="none" stroke="#404040" points="465.951,-884.878 459.468,-881.721 459.889,-874.522 466.372,-877.68 465.951,-884.878"/>
<text text-anchor="middle" x="621.5" y="-1078" font-family="Helvetica,sans-Serif" font-size="10.00"> +forceEnemyMove</text>
<text text-anchor="middle" x="621.5" y="-1067" font-family="Helvetica,sans-Serif" font-size="10.00">+forceCriticalHits</text>
</g>
<!-- Node16 -->
<g id="node15" class="node"><title>Node16</title>
<g id="a_node15"><a xlink:href="class_item.html" target="_top" xlink:title="Abstract class for items that can be equipped to a player, increasing some of their stats ...">
<polygon fill="none" stroke="black" points="223,-1104.5 223,-1183.5 300,-1183.5 300,-1104.5 223,-1104.5"/>
<text text-anchor="middle" x="261.5" y="-1171.5" font-family="Helvetica,sans-Serif" font-size="10.00">Item</text>
<polyline fill="none" stroke="black" points="223,-1164.5 300,-1164.5 "/>
<text text-anchor="start" x="231" y="-1152.5" font-family="Helvetica,sans-Serif" font-size="10.00">+ Name</text>
<text text-anchor="start" x="231" y="-1141.5" font-family="Helvetica,sans-Serif" font-size="10.00">+ Desc</text>
<polyline fill="none" stroke="black" points="223,-1134.5 300,-1134.5 "/>
<text text-anchor="start" x="231" y="-1122.5" font-family="Helvetica,sans-Serif" font-size="10.00">+ applyBuffs()</text>
<text text-anchor="start" x="231" y="-1111.5" font-family="Helvetica,sans-Serif" font-size="10.00">+ revertBuffs()</text>
</a>
</g>
</g>
<!-- Node7&#45;&gt;Node16 -->
<g id="edge24" class="edge"><title>Node7&#45;&gt;Node16</title>
<path fill="none" stroke="#404040" d="M662.983,-1265.72C627.824,-1258.23 553.91,-1241.85 492.5,-1224 429.6,-1205.71 358.457,-1180.71 311.947,-1163.77"/>
<polygon fill="none" stroke="#404040" points="311.653,-1163.66 304.643,-1165.36 300.383,-1159.54 307.393,-1157.85 311.653,-1163.66"/>
<text text-anchor="middle" x="507.5" y="-1216" font-family="Helvetica,sans-Serif" font-size="10.00"> #desc</text>
<text text-anchor="middle" x="507.5" y="-1205" font-family="Helvetica,sans-Serif" font-size="10.00">#name</text>
</g>
<!-- Node8 -->
<g id="node7" class="node"><title>Node8</title>
<polygon fill="none" stroke="#bfbfbf" points="417,-1115.5 417,-1172.5 446,-1172.5 446,-1115.5 417,-1115.5"/>
<text text-anchor="middle" x="431.5" y="-1160.5" font-family="Helvetica,sans-Serif" font-size="10.00">int</text>
<polyline fill="none" stroke="#bfbfbf" points="417,-1153.5 446,-1153.5 "/>
<text text-anchor="middle" x="431.5" y="-1141.5" font-family="Helvetica,sans-Serif" font-size="10.00"> </text>
<polyline fill="none" stroke="#bfbfbf" points="417,-1134.5 446,-1134.5 "/>
<text text-anchor="middle" x="431.5" y="-1122.5" font-family="Helvetica,sans-Serif" font-size="10.00"> </text>
</g>
<!-- Node8&#45;&gt;Node5 -->
<g id="edge25" class="edge"><title>Node8&#45;&gt;Node5</title>
<path fill="none" stroke="#404040" d="M416.708,-1136.34C397.669,-1127.19 364.437,-1109.2 342.5,-1086 334.061,-1077.08 326.407,-1066.67 319.643,-1055.99"/>
<polygon fill="none" stroke="#404040" points="319.639,-1055.99 313.113,-1052.92 313.434,-1045.72 319.961,-1048.78 319.639,-1055.99"/>
<text text-anchor="middle" x="380" y="-1078" font-family="Helvetica,sans-Serif" font-size="10.00"> &#45;expToNextLevel</text>
<text text-anchor="middle" x="380" y="-1067" font-family="Helvetica,sans-Serif" font-size="10.00">&#45;exp</text>
</g>
<!-- Node8&#45;&gt;Node6 -->
<g id="edge6" class="edge"><title>Node8&#45;&gt;Node6</title>
<path fill="none" stroke="#404040" d="M446.038,-1123.19C465.743,-1094.33 498.5,-1038.33 498.5,-985 498.5,-985 498.5,-985 498.5,-382 498.5,-349.784 505.865,-315.805 515.39,-285.329"/>
<polygon fill="none" stroke="#404040" points="515.418,-285.241 513.474,-278.297 519.135,-273.831 521.08,-280.775 515.418,-285.241"/>
<text text-anchor="middle" x="536" y="-659" font-family="Helvetica,sans-Serif" font-size="10.00"> #speed</text>
<text text-anchor="middle" x="536" y="-648" font-family="Helvetica,sans-Serif" font-size="10.00">#luck</text>
<text text-anchor="middle" x="536" y="-637" font-family="Helvetica,sans-Serif" font-size="10.00">#health</text>
<text text-anchor="middle" x="536" y="-626" font-family="Helvetica,sans-Serif" font-size="10.00">#magic</text>
<text text-anchor="middle" x="536" y="-615" font-family="Helvetica,sans-Serif" font-size="10.00">#maximumMagic</text>
<text text-anchor="middle" x="536" y="-604" font-family="Helvetica,sans-Serif" font-size="10.00">#attack</text>
<text text-anchor="middle" x="536" y="-593" font-family="Helvetica,sans-Serif" font-size="10.00">#defence</text>
<text text-anchor="middle" x="536" y="-582" font-family="Helvetica,sans-Serif" font-size="10.00">#level</text>
</g>
<!-- Node8&#45;&gt;Node9 -->
<g id="edge21" class="edge"><title>Node8&#45;&gt;Node9</title>
<path fill="none" stroke="#404040" d="M446.032,-1143.6C482.22,-1144.23 576.672,-1140.32 621.5,-1086 696.138,-995.562 665.026,-677.876 674.5,-561 678.42,-512.641 688.06,-499.925 680.5,-452 680.16,-449.842 679.762,-447.659 679.316,-445.464"/>
<polygon fill="none" stroke="#404040" points="679.296,-445.377 674.022,-440.46 676.532,-433.7 681.807,-438.617 679.296,-445.377"/>
<text text-anchor="middle" x="691" y="-777.5" font-family="Helvetica,sans-Serif" font-size="10.00"> #magic</text>
</g>
<!-- Node8&#45;&gt;Node11 -->
<g id="edge16" class="edge"><title>Node8&#45;&gt;Node11</title>
<path fill="none" stroke="#404040" d="M433.492,-1115.42C437.761,-1054.96 447.123,-914.422 443.5,-893 443.13,-890.811 442.722,-888.608 442.279,-886.396"/>
<polygon fill="none" stroke="#404040" points="442.239,-886.215 437.022,-881.237 439.61,-874.506 444.828,-879.485 442.239,-886.215"/>
<text text-anchor="middle" x="464" y="-981.5" font-family="Helvetica,sans-Serif" font-size="10.00"> +money</text>
</g>
<!-- Node8&#45;&gt;Node12 -->
<g id="edge15" class="edge"><title>Node8&#45;&gt;Node12</title>
<path fill="none" stroke="#404040" d="M416.836,-1138.02C373.711,-1123.13 248.576,-1077.95 220.5,-1046 201.757,-1024.67 201.5,-1013.4 201.5,-985 201.5,-985 201.5,-985 201.5,-183.5 201.5,-107.679 293.65,-63.5629 351.256,-43.3923"/>
<polygon fill="none" stroke="#404040" points="351.605,-43.275 356.016,-37.5707 362.978,-39.4488 358.567,-45.1531 351.605,-43.275"/>
<text text-anchor="middle" x="224.5" y="-518.5" font-family="Helvetica,sans-Serif" font-size="10.00"> &#45;expGiven</text>
</g>
<!-- Node9&#45;&gt;Node6 -->
<g id="edge7" class="edge"><title>Node9&#45;&gt;Node6</title>
<path fill="none" stroke="#404040" d="M633.013,-332.415C625.487,-317.772 616.969,-301.2 608.435,-284.596"/>
<polygon fill="none" stroke="#404040" points="608.32,-284.373 602.02,-280.865 602.834,-273.7 609.135,-277.208 608.32,-284.373"/>
<text text-anchor="middle" x="646" y="-306" font-family="Helvetica,sans-Serif" font-size="10.00"> #special1</text>
<text text-anchor="middle" x="646" y="-295" font-family="Helvetica,sans-Serif" font-size="10.00">#special2</text>
</g>
<!-- Node10&#45;&gt;Node9 -->
<g id="edge8" class="edge"><title>Node10&#45;&gt;Node9</title>
<path fill="none" stroke="midnightblue" d="M600.343,-472.87C608.58,-460.282 617.509,-446.637 625.841,-433.905"/>
<polygon fill="none" stroke="midnightblue" points="597.313,-471.108 594.766,-481.392 603.17,-474.941 597.313,-471.108"/>
</g>
<!-- Node11&#45;&gt;Node10 -->
<g id="edge11" class="edge"><title>Node11&#45;&gt;Node10</title>
<path fill="none" stroke="#404040" d="M407.753,-685.354C411.02,-641.77 417.535,-595.863 430.5,-579 450.69,-552.74 485.058,-538.506 514.567,-530.83"/>
<polygon fill="none" stroke="#404040" points="514.761,-530.784 519.677,-525.508 526.438,-528.016 521.522,-533.292 514.761,-530.784"/>
<text text-anchor="middle" x="453.5" y="-620.5" font-family="Helvetica,sans-Serif" font-size="10.00"> #manager</text>
</g>
<!-- Node12&#45;&gt;Node11 -->
<g id="edge13" class="edge"><title>Node12&#45;&gt;Node11</title>
<path fill="none" stroke="#404040" d="M396.5,-57.7302C396.5,-88.4721 396.5,-139.529 396.5,-183.5 396.5,-522 396.5,-522 396.5,-522 396.5,-571.686 398.012,-626.748 399.722,-673.12"/>
<polygon fill="none" stroke="#404040" points="399.73,-673.342 403.954,-679.186 400.184,-685.333 395.96,-679.489 399.73,-673.342"/>
<text text-anchor="middle" x="414.5" y="-380.5" font-family="Helvetica,sans-Serif" font-size="10.00"> &#45;enemy</text>
</g>
<!-- Node13 -->
<g id="node12" class="node"><title>Node13</title>
<polygon fill="none" stroke="#bfbfbf" points="360,-955.5 360,-1012.5 395,-1012.5 395,-955.5 360,-955.5"/>
<text text-anchor="middle" x="377.5" y="-1000.5" font-family="Helvetica,sans-Serif" font-size="10.00">bool</text>
<polyline fill="none" stroke="#bfbfbf" points="360,-993.5 395,-993.5 "/>
<text text-anchor="middle" x="377.5" y="-981.5" font-family="Helvetica,sans-Serif" font-size="10.00"> </text>
<polyline fill="none" stroke="#bfbfbf" points="360,-974.5 395,-974.5 "/>
<text text-anchor="middle" x="377.5" y="-962.5" font-family="Helvetica,sans-Serif" font-size="10.00"> </text>
</g>
<!-- Node13&#45;&gt;Node11 -->
<g id="edge17" class="edge"><title>Node13&#45;&gt;Node11</title>
<path fill="none" stroke="#404040" d="M375.817,-955.328C375.145,-937.475 375.029,-913.791 377.5,-893 377.759,-890.823 378.045,-888.627 378.355,-886.418"/>
<polygon fill="none" stroke="#404040" points="378.364,-886.362 375.348,-879.812 380.234,-874.508 383.25,-881.058 378.364,-886.362"/>
<text text-anchor="middle" x="410.5" y="-896" font-family="Helvetica,sans-Serif" font-size="10.00"> &#45;wasCriticalHit</text>
</g>
<!-- Node14 -->
<g id="node13" class="node"><title>Node14</title>
<polygon fill="none" stroke="#bfbfbf" points="631,-492.5 631,-549.5 666,-549.5 666,-492.5 631,-492.5"/>
<text text-anchor="middle" x="648.5" y="-537.5" font-family="Helvetica,sans-Serif" font-size="10.00">float</text>
<polyline fill="none" stroke="#bfbfbf" points="631,-530.5 666,-530.5 "/>
<text text-anchor="middle" x="648.5" y="-518.5" font-family="Helvetica,sans-Serif" font-size="10.00"> </text>
<polyline fill="none" stroke="#bfbfbf" points="631,-511.5 666,-511.5 "/>
<text text-anchor="middle" x="648.5" y="-499.5" font-family="Helvetica,sans-Serif" font-size="10.00"> </text>
</g>
<!-- Node14&#45;&gt;Node9 -->
<g id="edge20" class="edge"><title>Node14&#45;&gt;Node9</title>
<path fill="none" stroke="#404040" d="M643.814,-492.25C642.46,-482.978 641.168,-472.57 640.5,-463 640.115,-457.483 640.272,-451.798 640.815,-446.126"/>
<polygon fill="none" stroke="#404040" points="640.878,-445.683 637.757,-439.182 642.557,-433.801 645.678,-440.302 640.878,-445.683"/>
<text text-anchor="middle" x="660.5" y="-455" font-family="Helvetica,sans-Serif" font-size="10.00"> #special</text>
</g>
<!-- Node15 -->
<g id="node14" class="node"><title>Node15</title>
<polygon fill="none" stroke="#bfbfbf" points="811,-354.5 811,-411.5 872,-411.5 872,-354.5 811,-354.5"/>
<text text-anchor="middle" x="841.5" y="-399.5" font-family="Helvetica,sans-Serif" font-size="10.00">Texture2D</text>
<polyline fill="none" stroke="#bfbfbf" points="811,-392.5 872,-392.5 "/>
<text text-anchor="middle" x="841.5" y="-380.5" font-family="Helvetica,sans-Serif" font-size="10.00"> </text>
<polyline fill="none" stroke="#bfbfbf" points="811,-373.5 872,-373.5 "/>
<text text-anchor="middle" x="841.5" y="-361.5" font-family="Helvetica,sans-Serif" font-size="10.00"> </text>
</g>
<!-- Node15&#45;&gt;Node6 -->
<g id="edge22" class="edge"><title>Node15&#45;&gt;Node6</title>
<path fill="none" stroke="#404040" d="M833.192,-354.139C826.143,-334.599 814.3,-309.026 796.5,-292 745.945,-243.644 669.722,-214.926 617.01,-199.718"/>
<polygon fill="none" stroke="#404040" points="616.702,-199.632 609.847,-201.872 605.143,-196.407 611.997,-194.167 616.702,-199.632"/>
<text text-anchor="middle" x="831" y="-300.5" font-family="Helvetica,sans-Serif" font-size="10.00"> #image</text>
</g>
<!-- Node16&#45;&gt;Node5 -->
<g id="edge23" class="edge"><title>Node16&#45;&gt;Node5</title>
<path fill="none" stroke="#404040" d="M262.613,-1104.28C263.339,-1091.42 264.533,-1077.05 266.5,-1064 266.825,-1061.84 267.18,-1059.66 267.56,-1057.46"/>
<polygon fill="none" stroke="#404040" points="267.572,-1057.4 264.759,-1050.76 269.806,-1045.61 272.619,-1052.25 267.572,-1057.4"/>
<text text-anchor="middle" x="279" y="-1072.5" font-family="Helvetica,sans-Serif" font-size="10.00"> &#45;item</text>
</g>
</g>
</svg>
        <g id="navigator" transform="translate(0 0)" fill="#404254">
                <rect fill="#f2f5e9" fill-opacity="0.5" stroke="#606060" stroke-width=".5" x="0" y="0" width="60" height="60"/>
                <use id="zoomplus" xlink:href="#zoomPlus" x="17" y="9" onmousedown="handleZoom(evt,'in')"/>
                <use id="zoomminus" xlink:href="#zoomMin" x="42" y="9" onmousedown="handleZoom(evt,'out')"/>
                <use id="reset" xlink:href="#resetDef" x="30" y="36" onmousedown="handleReset()"/>
                <g id="arrowUp" xlink:href="#dirArrow" transform="translate(30 24)" onmousedown="handlePan(0,-1)">
                  <use xlink:href="#rim" fill="#404040">
                        <set attributeName="fill" to="#808080" begin="arrowUp.mouseover" end="arrowUp.mouseout"/>
                  </use>
                  <path fill="none" stroke="white" stroke-width="1.5" d="M0,-3.0v7 M-2.5,-0.5L0,-3.0L2.5,-0.5"/>
                </g>
                <g id="arrowRight" xlink:href="#dirArrow" transform="rotate(90) translate(36 -43)" onmousedown="handlePan(1,0)">
                  <use xlink:href="#rim" fill="#404040">
                        <set attributeName="fill" to="#808080" begin="arrowRight.mouseover" end="arrowRight.mouseout"/>
                  </use>
                  <path fill="none" stroke="white" stroke-width="1.5" d="M0,-3.0v7 M-2.5,-0.5L0,-3.0L2.5,-0.5"/>
                </g>
                <g id="arrowDown" xlink:href="#dirArrow" transform="rotate(180) translate(-30 -48)" onmousedown="handlePan(0,1)">
                  <use xlink:href="#rim" fill="#404040">
                        <set attributeName="fill" to="#808080" begin="arrowDown.mouseover" end="arrowDown.mouseout"/>
                  </use>
                  <path fill="none" stroke="white" stroke-width="1.5" d="M0,-3.0v7 M-2.5,-0.5L0,-3.0L2.5,-0.5"/>
                </g>
                <g id="arrowLeft" xlink:href="#dirArrow" transform="rotate(270) translate(-36 17)" onmousedown="handlePan(-1,0)">
                  <use xlink:href="#rim" fill="#404040">
                        <set attributeName="fill" to="#808080" begin="arrowLeft.mouseover" end="arrowLeft.mouseout"/>
                  </use>
                  <path fill="none" stroke="white" stroke-width="1.5" d="M0,-3.0v7 M-2.5,-0.5L0,-3.0L2.5,-0.5"/>
                </g>
        </g>
        <svg viewBox="0 0 15 15" width="100%" height="30px" preserveAspectRatio="xMaxYMin meet">
         <g id="arrow_out" transform="scale(0.3 0.3)">
          <a xlink:href="class_player_menu__coll__graph_org.svg" target="_base">
           <rect id="button" ry="5" rx="5" y="6" x="6" height="38" width="38"
                fill="#f2f5e9" fill-opacity="0.5" stroke="#606060" stroke-width="1.0"/>
           <path id="arrow"
             d="M 11.500037,31.436501 C 11.940474,20.09759 22.043105,11.32322 32.158766,21.979434 L 37.068811,17.246167 C 37.068811,17.246167 37.088388,32 37.088388,32 L 22.160133,31.978069 C 22.160133,31.978069 26.997745,27.140456 26.997745,27.140456 C 18.528582,18.264221 13.291696,25.230495 11.500037,31.436501 z"
             style="fill:#404040;"/>
          </a>
         </g>
        </svg>
</svg>
