<?xml version="1.0" encoding="UTF-8" standalone="no"?>
<!DOCTYPE svg PUBLIC "-//W3C//DTD SVG 1.1//EN"
 "http://www.w3.org/Graphics/SVG/1.1/DTD/svg11.dtd">
<!-- Generated by graphviz version 2.38.0 (20140413.2041)
 -->
<!-- Title: LevelManager Pages: 1 -->
<svg width="913pt" height="1075pt"
 viewBox="0.00 0.00 912.91 1075.00" xmlns="http://www.w3.org/2000/svg" xmlns:xlink="http://www.w3.org/1999/xlink">
<g id="graph0" class="graph" transform="scale(1 1) rotate(0) translate(4 1071)">
<title>LevelManager</title>
<!-- Node2 -->
<g id="node1" class="node"><title>Node2</title>
<polygon fill="#bfbfbf" stroke="black" points="533.914,-326 533.914,-416 625.914,-416 625.914,-326 533.914,-326"/>
<text text-anchor="middle" x="579.914" y="-404" font-family="Helvetica,sans-Serif" font-size="10.00">LevelManager</text>
<polyline fill="none" stroke="black" points="533.914,-397 625.914,-397 "/>
<text text-anchor="middle" x="579.914" y="-385" font-family="Helvetica,sans-Serif" font-size="10.00"> </text>
<polyline fill="none" stroke="black" points="533.914,-378 625.914,-378 "/>
<text text-anchor="start" x="541.914" y="-366" font-family="Helvetica,sans-Serif" font-size="10.00">&#45; Start()</text>
<text text-anchor="start" x="541.914" y="-355" font-family="Helvetica,sans-Serif" font-size="10.00">&#45; EndLevel()</text>
<text text-anchor="start" x="541.914" y="-344" font-family="Helvetica,sans-Serif" font-size="10.00">&#45; finishLevelText()</text>
<text text-anchor="start" x="541.914" y="-333" font-family="Helvetica,sans-Serif" font-size="10.00">&#45; waitForSpace()</text>
</g>
<!-- Node3 -->
<g id="node2" class="node"><title>Node3</title>
<g id="a_node2"><a xlink:href="class_mono_behaviour.html" target="_top" xlink:title="{MonoBehaviour\n||}">
<polygon fill="none" stroke="black" points="600.414,-557.5 600.414,-614.5 683.414,-614.5 683.414,-557.5 600.414,-557.5"/>
<text text-anchor="middle" x="641.914" y="-602.5" font-family="Helvetica,sans-Serif" font-size="10.00">MonoBehaviour</text>
<polyline fill="none" stroke="black" points="600.414,-595.5 683.414,-595.5 "/>
<text text-anchor="middle" x="641.914" y="-583.5" font-family="Helvetica,sans-Serif" font-size="10.00"> </text>
<polyline fill="none" stroke="black" points="600.414,-576.5 683.414,-576.5 "/>
<text text-anchor="middle" x="641.914" y="-564.5" font-family="Helvetica,sans-Serif" font-size="10.00"> </text>
</a>
</g>
</g>
<!-- Node3&#45;&gt;Node2 -->
<g id="edge1" class="edge"><title>Node3&#45;&gt;Node2</title>
<path fill="none" stroke="midnightblue" d="M630.953,-547.343C620.275,-510.661 604.048,-454.911 592.767,-416.158"/>
<polygon fill="none" stroke="midnightblue" points="627.653,-548.531 633.809,-557.154 634.374,-546.574 627.653,-548.531"/>
</g>
<!-- Node4 -->
<g id="node3" class="node"><title>Node4</title>
<polygon fill="none" stroke="#bfbfbf" points="523.414,-1009.5 523.414,-1066.5 564.414,-1066.5 564.414,-1009.5 523.414,-1009.5"/>
<text text-anchor="middle" x="543.914" y="-1054.5" font-family="Helvetica,sans-Serif" font-size="10.00">string</text>
<polyline fill="none" stroke="#bfbfbf" points="523.414,-1047.5 564.414,-1047.5 "/>
<text text-anchor="middle" x="543.914" y="-1035.5" font-family="Helvetica,sans-Serif" font-size="10.00"> </text>
<polyline fill="none" stroke="#bfbfbf" points="523.414,-1028.5 564.414,-1028.5 "/>
<text text-anchor="middle" x="543.914" y="-1016.5" font-family="Helvetica,sans-Serif" font-size="10.00"> </text>
</g>
<!-- Node4&#45;&gt;Node2 -->
<g id="edge2" class="edge"><title>Node4&#45;&gt;Node2</title>
<path fill="none" stroke="#404040" d="M553.68,-1009.06C555.383,-1003.16 556.924,-996.928 557.914,-991 592.155,-785.978 587.23,-537.652 582.763,-428.31"/>
<polygon fill="none" stroke="#404040" points="582.762,-428.287 578.51,-422.463 582.251,-416.298 586.503,-422.122 582.762,-428.287"/>
<text text-anchor="middle" x="626.914" y="-680" font-family="Helvetica,sans-Serif" font-size="10.00"> &#45;bossObjectName</text>
<text text-anchor="middle" x="626.914" y="-669" font-family="Helvetica,sans-Serif" font-size="10.00">&#45;desc</text>
</g>
<!-- Node8 -->
<g id="node7" class="node"><title>Node8</title>
<g id="a_node7"><a xlink:href="class_character.html" target="_top" xlink:title="Base abstract class for Enemy and Player to inherit from. Defines all shared variables, their constructor and their setters and getters ">
<polygon fill="none" stroke="black" points="59.414,-706.5 59.414,-884.5 154.414,-884.5 154.414,-706.5 59.414,-706.5"/>
<text text-anchor="middle" x="106.914" y="-872.5" font-family="Helvetica,sans-Serif" font-size="10.00">Character</text>
<polyline fill="none" stroke="black" points="59.414,-865.5 154.414,-865.5 "/>
<text text-anchor="start" x="67.414" y="-853.5" font-family="Helvetica,sans-Serif" font-size="10.00">+ Name</text>
<text text-anchor="start" x="67.414" y="-842.5" font-family="Helvetica,sans-Serif" font-size="10.00">+ Level</text>
<text text-anchor="start" x="67.414" y="-831.5" font-family="Helvetica,sans-Serif" font-size="10.00">+ Health</text>
<text text-anchor="start" x="67.414" y="-820.5" font-family="Helvetica,sans-Serif" font-size="10.00">+ Attack</text>
<text text-anchor="start" x="67.414" y="-809.5" font-family="Helvetica,sans-Serif" font-size="10.00">+ Defence</text>
<text text-anchor="start" x="67.414" y="-798.5" font-family="Helvetica,sans-Serif" font-size="10.00">+ MaximumMagic</text>
<text text-anchor="start" x="67.414" y="-787.5" font-family="Helvetica,sans-Serif" font-size="10.00">+ Magic</text>
<text text-anchor="start" x="67.414" y="-776.5" font-family="Helvetica,sans-Serif" font-size="10.00">+ Luck</text>
<text text-anchor="start" x="67.414" y="-765.5" font-family="Helvetica,sans-Serif" font-size="10.00">+ Speed</text>
<text text-anchor="start" x="67.414" y="-754.5" font-family="Helvetica,sans-Serif" font-size="10.00">+ Special1</text>
<text text-anchor="start" x="67.414" y="-743.5" font-family="Helvetica,sans-Serif" font-size="10.00">+ Special2</text>
<text text-anchor="start" x="67.414" y="-732.5" font-family="Helvetica,sans-Serif" font-size="10.00">+ Image</text>
<polyline fill="none" stroke="black" points="59.414,-725.5 154.414,-725.5 "/>
<text text-anchor="start" x="67.414" y="-713.5" font-family="Helvetica,sans-Serif" font-size="10.00"># Character()</text>
</a>
</g>
</g>
<!-- Node4&#45;&gt;Node8 -->
<g id="edge7" class="edge"><title>Node4&#45;&gt;Node8</title>
<path fill="none" stroke="#404040" d="M523.225,-1033.42C462.361,-1021.99 281.165,-981.263 168.914,-885 167.045,-883.397 165.205,-881.726 163.395,-879.998"/>
<polygon fill="none" stroke="#404040" points="162.962,-879.551 155.914,-878.026 154.611,-870.933 161.659,-872.458 162.962,-879.551"/>
<text text-anchor="middle" x="376.414" y="-944.5" font-family="Helvetica,sans-Serif" font-size="10.00"> #name</text>
</g>
<!-- Node10 -->
<g id="node9" class="node"><title>Node10</title>
<g id="a_node9"><a xlink:href="class_special_move.html" target="_top" xlink:title="Special move abstract base class that expands upon CharacterMove, adding magic properties ...">
<polygon fill="none" stroke="black" points="220.914,-0.5 220.914,-101.5 318.914,-101.5 318.914,-0.5 220.914,-0.5"/>
<text text-anchor="middle" x="269.914" y="-89.5" font-family="Helvetica,sans-Serif" font-size="10.00">SpecialMove</text>
<polyline fill="none" stroke="black" points="220.914,-82.5 318.914,-82.5 "/>
<text text-anchor="start" x="228.914" y="-70.5" font-family="Helvetica,sans-Serif" font-size="10.00">+ Magic</text>
<text text-anchor="start" x="228.914" y="-59.5" font-family="Helvetica,sans-Serif" font-size="10.00">+ Desc</text>
<text text-anchor="start" x="228.914" y="-48.5" font-family="Helvetica,sans-Serif" font-size="10.00">+ Special</text>
<polyline fill="none" stroke="black" points="220.914,-41.5 318.914,-41.5 "/>
<text text-anchor="start" x="228.914" y="-29.5" font-family="Helvetica,sans-Serif" font-size="10.00">+ setUp()</text>
<text text-anchor="start" x="228.914" y="-18.5" font-family="Helvetica,sans-Serif" font-size="10.00">+ decreaseMagic()</text>
<text text-anchor="start" x="228.914" y="-7.5" font-family="Helvetica,sans-Serif" font-size="10.00"># SpecialMove()</text>
</a>
</g>
</g>
<!-- Node4&#45;&gt;Node10 -->
<g id="edge21" class="edge"><title>Node4&#45;&gt;Node10</title>
<path fill="none" stroke="#404040" d="M564.679,-1035.28C597.433,-1031.72 661.981,-1021.14 706.914,-991 794.096,-932.529 840.914,-901.474 840.914,-796.5 840.914,-796.5 840.914,-796.5 840.914,-188 840.914,-84.1538 478.999,-59.4578 331.434,-53.7044"/>
<polygon fill="none" stroke="#404040" points="331.083,-53.6916 324.939,-57.4671 319.091,-53.2482 325.235,-49.4726 331.083,-53.6916"/>
<text text-anchor="middle" x="855.914" y="-492.5" font-family="Helvetica,sans-Serif" font-size="10.00"> #desc</text>
</g>
<!-- Node11 -->
<g id="node10" class="node"><title>Node11</title>
<g id="a_node10"><a xlink:href="class_character_move.html" target="_top" xlink:title="Astract base class for character moves ">
<polygon fill="none" stroke="black" points="226.914,-149.5 226.914,-228.5 312.914,-228.5 312.914,-149.5 226.914,-149.5"/>
<text text-anchor="middle" x="269.914" y="-216.5" font-family="Helvetica,sans-Serif" font-size="10.00">CharacterMove</text>
<polyline fill="none" stroke="black" points="226.914,-209.5 312.914,-209.5 "/>
<text text-anchor="start" x="234.914" y="-197.5" font-family="Helvetica,sans-Serif" font-size="10.00">+ User</text>
<text text-anchor="start" x="234.914" y="-186.5" font-family="Helvetica,sans-Serif" font-size="10.00">+ Target</text>
<text text-anchor="start" x="234.914" y="-175.5" font-family="Helvetica,sans-Serif" font-size="10.00">+ Text</text>
<polyline fill="none" stroke="black" points="226.914,-168.5 312.914,-168.5 "/>
<text text-anchor="start" x="234.914" y="-156.5" font-family="Helvetica,sans-Serif" font-size="10.00">+ performMove()</text>
</a>
</g>
</g>
<!-- Node4&#45;&gt;Node11 -->
<g id="edge11" class="edge"><title>Node4&#45;&gt;Node11</title>
<path fill="none" stroke="#404040" d="M564.717,-1028.59C623.723,-1003.22 787.914,-921.407 787.914,-796.5 787.914,-796.5 787.914,-796.5 787.914,-370 787.914,-272.83 458.568,-216.177 325.099,-197.207"/>
<polygon fill="none" stroke="#404040" points="325.072,-197.204 318.575,-200.334 313.187,-195.541 319.684,-192.411 325.072,-197.204"/>
<text text-anchor="middle" x="800.414" y="-583.5" font-family="Helvetica,sans-Serif" font-size="10.00"> #text</text>
</g>
<!-- Node12 -->
<g id="node11" class="node"><title>Node12</title>
<g id="a_node11"><a xlink:href="class_battle_manager.html" target="_top" xlink:title="Holds current Player and Enemy objects in battle and provides functions for MainBattle and other obje...">
<polygon fill="none" stroke="black" points="211.914,-276.5 211.914,-465.5 327.914,-465.5 327.914,-276.5 211.914,-276.5"/>
<text text-anchor="middle" x="269.914" y="-453.5" font-family="Helvetica,sans-Serif" font-size="10.00">BattleManager</text>
<polyline fill="none" stroke="black" points="211.914,-446.5 327.914,-446.5 "/>
<text text-anchor="start" x="219.914" y="-434.5" font-family="Helvetica,sans-Serif" font-size="10.00">+ Player</text>
<text text-anchor="start" x="219.914" y="-423.5" font-family="Helvetica,sans-Serif" font-size="10.00">+ Enemy</text>
<text text-anchor="start" x="219.914" y="-412.5" font-family="Helvetica,sans-Serif" font-size="10.00">+ WasCriticalHit</text>
<polyline fill="none" stroke="black" points="211.914,-405.5 327.914,-405.5 "/>
<text text-anchor="start" x="219.914" y="-393.5" font-family="Helvetica,sans-Serif" font-size="10.00">+ BattleManager()</text>
<text text-anchor="start" x="219.914" y="-382.5" font-family="Helvetica,sans-Serif" font-size="10.00">+ playerFirst()</text>
<text text-anchor="start" x="219.914" y="-371.5" font-family="Helvetica,sans-Serif" font-size="10.00">+ switchPlayers()</text>
<text text-anchor="start" x="219.914" y="-360.5" font-family="Helvetica,sans-Serif" font-size="10.00">+ isCriticalHit()</text>
<text text-anchor="start" x="219.914" y="-349.5" font-family="Helvetica,sans-Serif" font-size="10.00">+ ranAway()</text>
<text text-anchor="start" x="219.914" y="-338.5" font-family="Helvetica,sans-Serif" font-size="10.00">+ damageCalculation()</text>
<text text-anchor="start" x="219.914" y="-327.5" font-family="Helvetica,sans-Serif" font-size="10.00">+ enemyMove()</text>
<text text-anchor="start" x="219.914" y="-316.5" font-family="Helvetica,sans-Serif" font-size="10.00">+ enemySpecialMove()</text>
<text text-anchor="start" x="219.914" y="-305.5" font-family="Helvetica,sans-Serif" font-size="10.00">+ battleWon()</text>
<text text-anchor="start" x="219.914" y="-294.5" font-family="Helvetica,sans-Serif" font-size="10.00">+ playerFainted()</text>
<text text-anchor="start" x="219.914" y="-283.5" font-family="Helvetica,sans-Serif" font-size="10.00">&#45; characterFainted()</text>
</a>
</g>
</g>
<!-- Node4&#45;&gt;Node12 -->
<g id="edge14" class="edge"><title>Node4&#45;&gt;Node12</title>
<path fill="none" stroke="#404040" d="M523.333,-1010.79C518.701,-1004.45 513.963,-997.603 509.914,-991 482.38,-946.098 474.443,-934.669 456.914,-885 449.458,-863.873 416.535,-710.25 413.914,-688 408.61,-642.969 429.955,-524.672 409.914,-484 394.543,-452.805 365.922,-427.506 338.545,-408.899"/>
<polygon fill="none" stroke="#404040" points="338.187,-408.664 330.976,-408.728 328.144,-402.096 335.355,-402.033 338.187,-408.664"/>
<text text-anchor="middle" x="455.914" y="-680" font-family="Helvetica,sans-Serif" font-size="10.00"> +forceEnemyMove</text>
<text text-anchor="middle" x="455.914" y="-669" font-family="Helvetica,sans-Serif" font-size="10.00">+forceCriticalHits</text>
</g>
<!-- Node16 -->
<g id="node15" class="node"><title>Node16</title>
<g id="a_node15"><a xlink:href="class_item.html" target="_top" xlink:title="Abstract class for items that can be equipped to a player, increasing some of their stats ...">
<polygon fill="none" stroke="black" points="466.414,-756 466.414,-835 543.414,-835 543.414,-756 466.414,-756"/>
<text text-anchor="middle" x="504.914" y="-823" font-family="Helvetica,sans-Serif" font-size="10.00">Item</text>
<polyline fill="none" stroke="black" points="466.414,-816 543.414,-816 "/>
<text text-anchor="start" x="474.414" y="-804" font-family="Helvetica,sans-Serif" font-size="10.00">+ Name</text>
<text text-anchor="start" x="474.414" y="-793" font-family="Helvetica,sans-Serif" font-size="10.00">+ Desc</text>
<polyline fill="none" stroke="black" points="466.414,-786 543.414,-786 "/>
<text text-anchor="start" x="474.414" y="-774" font-family="Helvetica,sans-Serif" font-size="10.00">+ applyBuffs()</text>
<text text-anchor="start" x="474.414" y="-763" font-family="Helvetica,sans-Serif" font-size="10.00">+ revertBuffs()</text>
</a>
</g>
</g>
<!-- Node4&#45;&gt;Node16 -->
<g id="edge26" class="edge"><title>Node4&#45;&gt;Node16</title>
<path fill="none" stroke="#404040" d="M533.115,-1009.06C531.142,-1003.17 529.279,-996.933 527.914,-991 516.845,-942.906 510.934,-886.827 507.89,-847.276"/>
<polygon fill="none" stroke="#404040" points="507.89,-847.272 503.465,-841.579 507.018,-835.304 511.443,-840.997 507.89,-847.272"/>
<text text-anchor="middle" x="542.914" y="-950" font-family="Helvetica,sans-Serif" font-size="10.00"> #desc</text>
<text text-anchor="middle" x="542.914" y="-939" font-family="Helvetica,sans-Serif" font-size="10.00">#name</text>
</g>
<!-- Node5 -->
<g id="node4" class="node"><title>Node5</title>
<polygon fill="none" stroke="#bfbfbf" points="701.914,-557.5 701.914,-614.5 751.914,-614.5 751.914,-557.5 701.914,-557.5"/>
<text text-anchor="middle" x="726.914" y="-602.5" font-family="Helvetica,sans-Serif" font-size="10.00">Vector2</text>
<polyline fill="none" stroke="#bfbfbf" points="701.914,-595.5 751.914,-595.5 "/>
<text text-anchor="middle" x="726.914" y="-583.5" font-family="Helvetica,sans-Serif" font-size="10.00"> </text>
<polyline fill="none" stroke="#bfbfbf" points="701.914,-576.5 751.914,-576.5 "/>
<text text-anchor="middle" x="726.914" y="-564.5" font-family="Helvetica,sans-Serif" font-size="10.00"> </text>
</g>
<!-- Node5&#45;&gt;Node2 -->
<g id="edge3" class="edge"><title>Node5&#45;&gt;Node2</title>
<path fill="none" stroke="#404040" d="M713.047,-557.301C707.131,-546.503 699.779,-534.278 691.914,-524 685.039,-515.015 681.19,-514.664 673.914,-506 652.872,-480.945 631.743,-451.322 614.862,-426.308"/>
<polygon fill="none" stroke="#404040" points="614.81,-426.23 608.149,-423.466 608.138,-416.255 614.799,-419.019 614.81,-426.23"/>
<text text-anchor="middle" x="723.914" y="-492.5" font-family="Helvetica,sans-Serif" font-size="10.00"> &#45;worldMapExitPosition</text>
</g>
<!-- Node6 -->
<g id="node5" class="node"><title>Node6</title>
<polygon fill="none" stroke="#bfbfbf" points="329.414,-557.5 329.414,-614.5 364.414,-614.5 364.414,-557.5 329.414,-557.5"/>
<text text-anchor="middle" x="346.914" y="-602.5" font-family="Helvetica,sans-Serif" font-size="10.00">bool</text>
<polyline fill="none" stroke="#bfbfbf" points="329.414,-595.5 364.414,-595.5 "/>
<text text-anchor="middle" x="346.914" y="-583.5" font-family="Helvetica,sans-Serif" font-size="10.00"> </text>
<polyline fill="none" stroke="#bfbfbf" points="329.414,-576.5 364.414,-576.5 "/>
<text text-anchor="middle" x="346.914" y="-564.5" font-family="Helvetica,sans-Serif" font-size="10.00"> </text>
</g>
<!-- Node6&#45;&gt;Node2 -->
<g id="edge4" class="edge"><title>Node6&#45;&gt;Node2</title>
<path fill="none" stroke="#404040" d="M350.725,-557.056C354.935,-535.143 363.572,-504.951 380.914,-484 418.006,-439.19 477.952,-408.954 522.369,-391.305"/>
<polygon fill="none" stroke="#404040" points="522.392,-391.296 526.553,-385.406 533.59,-386.981 529.429,-392.871 522.392,-391.296"/>
<text text-anchor="middle" x="405.914" y="-492.5" font-family="Helvetica,sans-Serif" font-size="10.00"> &#45;addPlayer</text>
</g>
<!-- Node6&#45;&gt;Node12 -->
<g id="edge19" class="edge"><title>Node6&#45;&gt;Node12</title>
<path fill="none" stroke="#404040" d="M329.084,-572.925C310.566,-559.198 282.687,-534.906 270.914,-506 267.264,-497.039 264.774,-487.453 263.163,-477.681"/>
<polygon fill="none" stroke="#404040" points="263.153,-477.601 258.417,-472.163 261.615,-465.7 266.351,-471.138 263.153,-477.601"/>
<text text-anchor="middle" x="303.914" y="-492.5" font-family="Helvetica,sans-Serif" font-size="10.00"> &#45;wasCriticalHit</text>
</g>
<!-- Node7 -->
<g id="node6" class="node"><title>Node7</title>
<g id="a_node6"><a xlink:href="class_player.html" target="_top" xlink:title="Defines a playable character for use in battle scenes">
<polygon fill="none" stroke="black" points="431.914,-524.5 431.914,-647.5 543.914,-647.5 543.914,-524.5 431.914,-524.5"/>
<text text-anchor="middle" x="487.914" y="-635.5" font-family="Helvetica,sans-Serif" font-size="10.00">Player</text>
<polyline fill="none" stroke="black" points="431.914,-628.5 543.914,-628.5 "/>
<text text-anchor="start" x="439.914" y="-616.5" font-family="Helvetica,sans-Serif" font-size="10.00">+ Exp</text>
<text text-anchor="start" x="439.914" y="-605.5" font-family="Helvetica,sans-Serif" font-size="10.00">+ Item</text>
<text text-anchor="start" x="439.914" y="-594.5" font-family="Helvetica,sans-Serif" font-size="10.00">+ ExpToNextLevel</text>
<polyline fill="none" stroke="black" points="431.914,-587.5 543.914,-587.5 "/>
<text text-anchor="start" x="439.914" y="-575.5" font-family="Helvetica,sans-Serif" font-size="10.00">+ Player()</text>
<text text-anchor="start" x="439.914" y="-564.5" font-family="Helvetica,sans-Serif" font-size="10.00">+ gainExp()</text>
<text text-anchor="start" x="439.914" y="-553.5" font-family="Helvetica,sans-Serif" font-size="10.00">+ levelUp()</text>
<text text-anchor="start" x="439.914" y="-542.5" font-family="Helvetica,sans-Serif" font-size="10.00">+ Clone()</text>
<text text-anchor="start" x="439.914" y="-531.5" font-family="Helvetica,sans-Serif" font-size="10.00">&#45; setExpToNextLevel()</text>
</a>
</g>
</g>
<!-- Node7&#45;&gt;Node2 -->
<g id="edge5" class="edge"><title>Node7&#45;&gt;Node2</title>
<path fill="none" stroke="#404040" d="M500.599,-524.279C504.225,-510.783 508.654,-496.716 513.914,-484 521.989,-464.479 532.983,-444.259 543.681,-426.462"/>
<polygon fill="none" stroke="#404040" points="543.822,-426.233 543.551,-419.027 550.098,-416.006 550.369,-423.212 543.822,-426.233"/>
<text text-anchor="middle" x="539.914" y="-492.5" font-family="Helvetica,sans-Serif" font-size="10.00"> &#45;newPlayer</text>
</g>
<!-- Node7&#45;&gt;Node12 -->
<g id="edge20" class="edge"><title>Node7&#45;&gt;Node12</title>
<path fill="none" stroke="#404040" d="M462.309,-524.445C454.711,-510.291 445.531,-495.891 434.914,-484 407.879,-453.72 370.997,-427.684 338.96,-408.355"/>
<polygon fill="none" stroke="#404040" points="338.634,-408.163 331.434,-408.556 328.302,-402.06 335.502,-401.667 338.634,-408.163"/>
<text text-anchor="middle" x="467.414" y="-492.5" font-family="Helvetica,sans-Serif" font-size="10.00"> &#45;player</text>
</g>
<!-- Node8&#45;&gt;Node7 -->
<g id="edge6" class="edge"><title>Node8&#45;&gt;Node7</title>
<path fill="none" stroke="midnightblue" d="M161.516,-713.093C163.931,-710.627 166.399,-708.253 168.914,-706 196.471,-681.315 206.784,-677.599 241.914,-666 297.72,-647.574 316.984,-666.047 372.914,-648 392.917,-641.546 413.563,-631.731 431.746,-621.848"/>
<polygon fill="none" stroke="midnightblue" points="158.66,-711.026 154.435,-720.742 163.797,-715.781 158.66,-711.026"/>
</g>
<!-- Node8&#45;&gt;Node11 -->
<g id="edge12" class="edge"><title>Node8&#45;&gt;Node11</title>
<path fill="none" stroke="#404040" d="M108.376,-706.266C113.401,-599.098 132.657,-415.382 202.914,-276 209.436,-263.06 218.05,-250.168 226.921,-238.452"/>
<polygon fill="none" stroke="#404040" points="226.994,-238.36 227.544,-231.17 234.393,-228.913 233.842,-236.103 226.994,-238.36"/>
<text text-anchor="middle" x="151.914" y="-498" font-family="Helvetica,sans-Serif" font-size="10.00"> #target</text>
<text text-anchor="middle" x="151.914" y="-487" font-family="Helvetica,sans-Serif" font-size="10.00">#user</text>
</g>
<!-- Node13 -->
<g id="node12" class="node"><title>Node13</title>
<g id="a_node12"><a xlink:href="class_enemy.html" target="_top" xlink:title="Defines an AI controller enemy to fight in battle scenes">
<polygon fill="none" stroke="black" points="157.414,-557.5 157.414,-614.5 224.414,-614.5 224.414,-557.5 157.414,-557.5"/>
<text text-anchor="middle" x="190.914" y="-602.5" font-family="Helvetica,sans-Serif" font-size="10.00">Enemy</text>
<polyline fill="none" stroke="black" points="157.414,-595.5 224.414,-595.5 "/>
<text text-anchor="start" x="165.414" y="-583.5" font-family="Helvetica,sans-Serif" font-size="10.00">+ ExpGiven</text>
<polyline fill="none" stroke="black" points="157.414,-576.5 224.414,-576.5 "/>
<text text-anchor="start" x="165.414" y="-564.5" font-family="Helvetica,sans-Serif" font-size="10.00">+ Enemy()</text>
</a>
</g>
</g>
<!-- Node8&#45;&gt;Node13 -->
<g id="edge16" class="edge"><title>Node8&#45;&gt;Node13</title>
<path fill="none" stroke="midnightblue" d="M146.42,-696.911C158.581,-666.87 171.022,-636.138 179.645,-614.837"/>
<polygon fill="none" stroke="midnightblue" points="143.168,-695.618 142.659,-706.2 149.656,-698.245 143.168,-695.618"/>
</g>
<!-- Node9 -->
<g id="node8" class="node"><title>Node9</title>
<polygon fill="none" stroke="#bfbfbf" points="176.414,-1009.5 176.414,-1066.5 205.414,-1066.5 205.414,-1009.5 176.414,-1009.5"/>
<text text-anchor="middle" x="190.914" y="-1054.5" font-family="Helvetica,sans-Serif" font-size="10.00">int</text>
<polyline fill="none" stroke="#bfbfbf" points="176.414,-1047.5 205.414,-1047.5 "/>
<text text-anchor="middle" x="190.914" y="-1035.5" font-family="Helvetica,sans-Serif" font-size="10.00"> </text>
<polyline fill="none" stroke="#bfbfbf" points="176.414,-1028.5 205.414,-1028.5 "/>
<text text-anchor="middle" x="190.914" y="-1016.5" font-family="Helvetica,sans-Serif" font-size="10.00"> </text>
</g>
<!-- Node9&#45;&gt;Node7 -->
<g id="edge27" class="edge"><title>Node9&#45;&gt;Node7</title>
<path fill="none" stroke="#404040" d="M205.641,-1033.7C226.421,-1028.29 264.227,-1015.61 285.914,-991 374.286,-890.724 281.126,-793.788 381.914,-706 414.319,-677.775 447.747,-719.56 476.914,-688 484.264,-680.047 488.721,-670.1 491.25,-659.572"/>
<polygon fill="none" stroke="#404040" points="491.291,-659.339 488.373,-652.744 493.338,-647.515 496.256,-654.109 491.291,-659.339"/>
<text text-anchor="middle" x="419.414" y="-798.5" font-family="Helvetica,sans-Serif" font-size="10.00"> &#45;expToNextLevel</text>
<text text-anchor="middle" x="419.414" y="-787.5" font-family="Helvetica,sans-Serif" font-size="10.00">&#45;exp</text>
</g>
<!-- Node9&#45;&gt;Node8 -->
<g id="edge8" class="edge"><title>Node9&#45;&gt;Node8</title>
<path fill="none" stroke="#404040" d="M176.344,-1034.32C155.581,-1029.62 118.195,-1017.74 101.914,-991 85.0143,-963.242 81.5231,-928.877 83.7491,-896.791"/>
<polygon fill="none" stroke="#404040" points="83.7689,-896.574 80.3343,-890.234 84.8661,-884.624 88.3008,-890.965 83.7689,-896.574"/>
<text text-anchor="middle" x="139.414" y="-983" font-family="Helvetica,sans-Serif" font-size="10.00"> #speed</text>
<text text-anchor="middle" x="139.414" y="-972" font-family="Helvetica,sans-Serif" font-size="10.00">#luck</text>
<text text-anchor="middle" x="139.414" y="-961" font-family="Helvetica,sans-Serif" font-size="10.00">#health</text>
<text text-anchor="middle" x="139.414" y="-950" font-family="Helvetica,sans-Serif" font-size="10.00">#magic</text>
<text text-anchor="middle" x="139.414" y="-939" font-family="Helvetica,sans-Serif" font-size="10.00">#maximumMagic</text>
<text text-anchor="middle" x="139.414" y="-928" font-family="Helvetica,sans-Serif" font-size="10.00">#attack</text>
<text text-anchor="middle" x="139.414" y="-917" font-family="Helvetica,sans-Serif" font-size="10.00">#defence</text>
<text text-anchor="middle" x="139.414" y="-906" font-family="Helvetica,sans-Serif" font-size="10.00">#level</text>
</g>
<!-- Node9&#45;&gt;Node10 -->
<g id="edge23" class="edge"><title>Node9&#45;&gt;Node10</title>
<path fill="none" stroke="#404040" d="M176.289,-1033.21C138.047,-1023.24 37.6909,-996.642 32.914,-991 -23.3358,-924.569 9.91396,-883.547 9.91396,-796.5 9.91396,-796.5 9.91396,-796.5 9.91396,-188 9.91396,-98.6654 131.924,-67.9043 208.782,-57.3893"/>
<polygon fill="none" stroke="#404040" points="208.801,-57.387 214.247,-52.6604 220.704,-55.8697 215.258,-60.5962 208.801,-57.387"/>
<text text-anchor="middle" x="27.414" y="-492.5" font-family="Helvetica,sans-Serif" font-size="10.00"> #magic</text>
</g>
<!-- Node9&#45;&gt;Node12 -->
<g id="edge18" class="edge"><title>Node9&#45;&gt;Node12</title>
<path fill="none" stroke="#404040" d="M205.575,-1031.73C221.727,-1025.05 246.876,-1011.82 257.914,-991 310.693,-891.458 256.065,-596.564 260.914,-484 261.002,-481.957 261.098,-479.893 261.201,-477.814"/>
<polygon fill="none" stroke="#404040" points="261.204,-477.755 257.539,-471.544 261.863,-465.773 265.527,-471.984 261.204,-477.755"/>
<text text-anchor="middle" x="293.414" y="-674.5" font-family="Helvetica,sans-Serif" font-size="10.00"> +money</text>
</g>
<!-- Node9&#45;&gt;Node13 -->
<g id="edge17" class="edge"><title>Node9&#45;&gt;Node13</title>
<path fill="none" stroke="#404040" d="M190.914,-1009.19C190.914,-932.22 190.914,-716.171 190.914,-626.638"/>
<polygon fill="none" stroke="#404040" points="190.914,-626.624 186.914,-620.624 190.914,-614.624 194.914,-620.624 190.914,-626.624"/>
<text text-anchor="middle" x="213.914" y="-793" font-family="Helvetica,sans-Serif" font-size="10.00"> &#45;expGiven</text>
</g>
<!-- Node10&#45;&gt;Node8 -->
<g id="edge9" class="edge"><title>Node10&#45;&gt;Node8</title>
<path fill="none" stroke="#404040" d="M220.678,-61.2728C158.609,-76.1417 59.914,-111.77 59.914,-188 59.914,-587 59.914,-587 59.914,-587 59.914,-622.602 66.5766,-660.81 74.8847,-694.614"/>
<polygon fill="none" stroke="#404040" points="74.9188,-694.748 80.2773,-699.574 77.8838,-706.376 72.5253,-701.551 74.9188,-694.748"/>
<text text-anchor="middle" x="82.414" y="-374" font-family="Helvetica,sans-Serif" font-size="10.00"> #special1</text>
<text text-anchor="middle" x="82.414" y="-363" font-family="Helvetica,sans-Serif" font-size="10.00">#special2</text>
</g>
<!-- Node11&#45;&gt;Node10 -->
<g id="edge10" class="edge"><title>Node11&#45;&gt;Node10</title>
<path fill="none" stroke="midnightblue" d="M269.914,-139.047C269.914,-126.972 269.914,-114.025 269.914,-101.905"/>
<polygon fill="none" stroke="midnightblue" points="266.414,-139.392 269.914,-149.392 273.414,-139.392 266.414,-139.392"/>
</g>
<!-- Node12&#45;&gt;Node11 -->
<g id="edge13" class="edge"><title>Node12&#45;&gt;Node11</title>
<path fill="none" stroke="#404040" d="M269.914,-276.31C269.914,-264.145 269.914,-252.07 269.914,-240.976"/>
<polygon fill="none" stroke="#404040" points="269.914,-240.915 265.914,-234.915 269.914,-228.915 273.914,-234.915 269.914,-240.915"/>
<text text-anchor="middle" x="292.914" y="-250" font-family="Helvetica,sans-Serif" font-size="10.00"> #manager</text>
</g>
<!-- Node13&#45;&gt;Node12 -->
<g id="edge15" class="edge"><title>Node13&#45;&gt;Node12</title>
<path fill="none" stroke="#404040" d="M184.665,-557.265C181.217,-536.551 179.047,-507.829 186.914,-484 191.198,-471.024 197.629,-458.324 205.053,-446.409"/>
<polygon fill="none" stroke="#404040" points="205.206,-446.177 205.163,-438.966 211.803,-436.154 211.846,-443.365 205.206,-446.177"/>
<text text-anchor="middle" x="204.914" y="-492.5" font-family="Helvetica,sans-Serif" font-size="10.00"> &#45;enemy</text>
</g>
<!-- Node14 -->
<g id="node13" class="node"><title>Node14</title>
<polygon fill="none" stroke="#bfbfbf" points="869.414,-160.5 869.414,-217.5 904.414,-217.5 904.414,-160.5 869.414,-160.5"/>
<text text-anchor="middle" x="886.914" y="-205.5" font-family="Helvetica,sans-Serif" font-size="10.00">float</text>
<polyline fill="none" stroke="#bfbfbf" points="869.414,-198.5 904.414,-198.5 "/>
<text text-anchor="middle" x="886.914" y="-186.5" font-family="Helvetica,sans-Serif" font-size="10.00"> </text>
<polyline fill="none" stroke="#bfbfbf" points="869.414,-179.5 904.414,-179.5 "/>
<text text-anchor="middle" x="886.914" y="-167.5" font-family="Helvetica,sans-Serif" font-size="10.00"> </text>
</g>
<!-- Node14&#45;&gt;Node10 -->
<g id="edge22" class="edge"><title>Node14&#45;&gt;Node10</title>
<path fill="none" stroke="#404040" d="M880.754,-160.284C876.096,-145.956 868.156,-129.521 854.914,-120 772.279,-60.5891 464.394,-52.4576 331.563,-51.7789"/>
<polygon fill="none" stroke="#404040" points="331.268,-51.7779 325.254,-55.7564 319.268,-51.735 325.282,-47.7565 331.268,-51.7779"/>
<text text-anchor="middle" x="884.914" y="-123" font-family="Helvetica,sans-Serif" font-size="10.00"> #special</text>
</g>
<!-- Node15 -->
<g id="node14" class="node"><title>Node15</title>
<polygon fill="none" stroke="#bfbfbf" points="12.414,-1009.5 12.414,-1066.5 73.414,-1066.5 73.414,-1009.5 12.414,-1009.5"/>
<text text-anchor="middle" x="42.914" y="-1054.5" font-family="Helvetica,sans-Serif" font-size="10.00">Texture2D</text>
<polyline fill="none" stroke="#bfbfbf" points="12.414,-1047.5 73.414,-1047.5 "/>
<text text-anchor="middle" x="42.914" y="-1035.5" font-family="Helvetica,sans-Serif" font-size="10.00"> </text>
<polyline fill="none" stroke="#bfbfbf" points="12.414,-1028.5 73.414,-1028.5 "/>
<text text-anchor="middle" x="42.914" y="-1016.5" font-family="Helvetica,sans-Serif" font-size="10.00"> </text>
</g>
<!-- Node15&#45;&gt;Node8 -->
<g id="edge24" class="edge"><title>Node15&#45;&gt;Node8</title>
<path fill="none" stroke="#404040" d="M39.0014,-1009.47C36.0417,-981.973 33.987,-938.754 43.914,-903 46.4193,-893.976 49.8983,-884.938 53.9466,-876.151"/>
<polygon fill="none" stroke="#404040" points="54.0494,-875.942 53.1101,-868.792 59.3486,-865.175 60.2879,-872.325 54.0494,-875.942"/>
<text text-anchor="middle" x="61.414" y="-944.5" font-family="Helvetica,sans-Serif" font-size="10.00"> #image</text>
</g>
<!-- Node16&#45;&gt;Node7 -->
<g id="edge25" class="edge"><title>Node16&#45;&gt;Node7</title>
<path fill="none" stroke="#404040" d="M505.539,-755.889C505.578,-730.325 504.914,-696.088 501.914,-666 501.71,-663.951 501.482,-661.876 501.235,-659.783"/>
<polygon fill="none" stroke="#404040" points="501.208,-659.58 496.453,-654.159 499.628,-647.684 504.383,-653.105 501.208,-659.58"/>
<text text-anchor="middle" x="516.414" y="-674.5" font-family="Helvetica,sans-Serif" font-size="10.00"> &#45;item</text>
</g>
</g>
</svg>
