<?xml version="1.0" encoding="UTF-8" standalone="no"?>
<!DOCTYPE svg PUBLIC "-//W3C//DTD SVG 1.1//EN"
 "http://www.w3.org/Graphics/SVG/1.1/DTD/svg11.dtd">
<!-- Generated by graphviz version 2.38.0 (20140413.2041)
 -->
<!-- Title: CarController Pages: 1 -->
<svg width="817pt" height="601pt"
 viewBox="0.00 0.00 817.00 601.00" xmlns="http://www.w3.org/2000/svg" xmlns:xlink="http://www.w3.org/1999/xlink">
<g id="graph0" class="graph" transform="scale(1 1) rotate(0) translate(4 597)">
<title>CarController</title>
<!-- Node2 -->
<g id="node1" class="node"><title>Node2</title>
<polygon fill="#bfbfbf" stroke="black" points="576.5,-0.5 576.5,-101.5 668.5,-101.5 668.5,-0.5 576.5,-0.5"/>
<text text-anchor="middle" x="622.5" y="-89.5" font-family="Helvetica,sans-Serif" font-size="10.00">CarController</text>
<polyline fill="none" stroke="black" points="576.5,-82.5 668.5,-82.5 "/>
<text text-anchor="middle" x="622.5" y="-70.5" font-family="Helvetica,sans-Serif" font-size="10.00"> </text>
<polyline fill="none" stroke="black" points="576.5,-63.5 668.5,-63.5 "/>
<text text-anchor="start" x="584.5" y="-51.5" font-family="Helvetica,sans-Serif" font-size="10.00">+ OnGUI()</text>
<text text-anchor="start" x="584.5" y="-40.5" font-family="Helvetica,sans-Serif" font-size="10.00">+ ChangeSpeed()</text>
<text text-anchor="start" x="584.5" y="-29.5" font-family="Helvetica,sans-Serif" font-size="10.00">+ Restart()</text>
<text text-anchor="start" x="584.5" y="-18.5" font-family="Helvetica,sans-Serif" font-size="10.00">&#45; Start()</text>
<text text-anchor="start" x="584.5" y="-7.5" font-family="Helvetica,sans-Serif" font-size="10.00">&#45; FixedUpdate()</text>
</g>
<!-- Node3 -->
<g id="node2" class="node"><title>Node3</title>
<g id="a_node2"><a xlink:href="class_mono_behaviour.html" target="_top" xlink:title="{MonoBehaviour\n||}">
<polygon fill="none" stroke="black" points="0,-535.5 0,-592.5 83,-592.5 83,-535.5 0,-535.5"/>
<text text-anchor="middle" x="41.5" y="-580.5" font-family="Helvetica,sans-Serif" font-size="10.00">MonoBehaviour</text>
<polyline fill="none" stroke="black" points="0,-573.5 83,-573.5 "/>
<text text-anchor="middle" x="41.5" y="-561.5" font-family="Helvetica,sans-Serif" font-size="10.00"> </text>
<polyline fill="none" stroke="black" points="0,-554.5 83,-554.5 "/>
<text text-anchor="middle" x="41.5" y="-542.5" font-family="Helvetica,sans-Serif" font-size="10.00"> </text>
</a>
</g>
</g>
<!-- Node3&#45;&gt;Node2 -->
<g id="edge1" class="edge"><title>Node3&#45;&gt;Node2</title>
<path fill="none" stroke="midnightblue" d="M33.7641,-525.037C25.9642,-476.245 19.732,-390.718 56.5,-331 173.673,-140.69 463.517,-76.5188 576.432,-58.3014"/>
<polygon fill="none" stroke="midnightblue" points="30.359,-525.89 35.49,-535.16 37.2594,-524.714 30.359,-525.89"/>
</g>
<!-- Node5 -->
<g id="node4" class="node"><title>Node5</title>
<g id="a_node4"><a xlink:href="class_scene_changer.html" target="_top" xlink:title="A set of functions to be called to change scenes smoothly whilst handling the player&#39;s location and a...">
<polygon fill="none" stroke="black" points="441.5,-149.5 441.5,-272.5 539.5,-272.5 539.5,-149.5 441.5,-149.5"/>
<text text-anchor="middle" x="490.5" y="-260.5" font-family="Helvetica,sans-Serif" font-size="10.00">SceneChanger</text>
<polyline fill="none" stroke="black" points="441.5,-253.5 539.5,-253.5 "/>
<text text-anchor="middle" x="490.5" y="-241.5" font-family="Helvetica,sans-Serif" font-size="10.00"> </text>
<polyline fill="none" stroke="black" points="441.5,-234.5 539.5,-234.5 "/>
<text text-anchor="start" x="449.5" y="-222.5" font-family="Helvetica,sans-Serif" font-size="10.00">+ loadLevel()</text>
<text text-anchor="start" x="449.5" y="-211.5" font-family="Helvetica,sans-Serif" font-size="10.00">+ loadLevel()</text>
<text text-anchor="start" x="449.5" y="-200.5" font-family="Helvetica,sans-Serif" font-size="10.00">+ changePosition()</text>
<text text-anchor="start" x="449.5" y="-189.5" font-family="Helvetica,sans-Serif" font-size="10.00">&#45; Awake()</text>
<text text-anchor="start" x="449.5" y="-178.5" font-family="Helvetica,sans-Serif" font-size="10.00">&#45; OnDisable()</text>
<text text-anchor="start" x="449.5" y="-167.5" font-family="Helvetica,sans-Serif" font-size="10.00">&#45; sceneChanged()</text>
<text text-anchor="start" x="449.5" y="-156.5" font-family="Helvetica,sans-Serif" font-size="10.00">&#45; changeScene()</text>
</a>
</g>
</g>
<!-- Node3&#45;&gt;Node5 -->
<g id="edge4" class="edge"><title>Node3&#45;&gt;Node5</title>
<path fill="none" stroke="midnightblue" d="M46.0536,-525.379C54.1529,-474.514 75.7179,-384.079 130.5,-331 169.364,-293.344 192.635,-302.564 245.5,-291 327.067,-273.158 357.437,-309.564 432.5,-273 435.522,-271.528 438.468,-269.828 441.33,-267.954"/>
<polygon fill="none" stroke="midnightblue" points="42.5872,-524.895 44.5649,-535.303 49.5097,-525.933 42.5872,-524.895"/>
</g>
<!-- Node9 -->
<g id="node8" class="node"><title>Node9</title>
<g id="a_node8"><a xlink:href="class_player_movement.html" target="_top" xlink:title="A script to control the movement and animations of the player">
<polygon fill="none" stroke="black" points="266,-331.5 266,-465.5 371,-465.5 371,-331.5 266,-331.5"/>
<text text-anchor="middle" x="318.5" y="-453.5" font-family="Helvetica,sans-Serif" font-size="10.00">PlayerMovement</text>
<polyline fill="none" stroke="black" points="266,-446.5 371,-446.5 "/>
<text text-anchor="middle" x="318.5" y="-434.5" font-family="Helvetica,sans-Serif" font-size="10.00"> </text>
<polyline fill="none" stroke="black" points="266,-427.5 371,-427.5 "/>
<text text-anchor="start" x="274" y="-415.5" font-family="Helvetica,sans-Serif" font-size="10.00">+ move()</text>
<text text-anchor="start" x="274" y="-404.5" font-family="Helvetica,sans-Serif" font-size="10.00">+ setCanMove()</text>
<text text-anchor="start" x="274" y="-393.5" font-family="Helvetica,sans-Serif" font-size="10.00">&#45; Start()</text>
<text text-anchor="start" x="274" y="-382.5" font-family="Helvetica,sans-Serif" font-size="10.00">&#45; FixedUpdate()</text>
<text text-anchor="start" x="274" y="-371.5" font-family="Helvetica,sans-Serif" font-size="10.00">&#45; explorationMenu()</text>
<text text-anchor="start" x="274" y="-360.5" font-family="Helvetica,sans-Serif" font-size="10.00">&#45; randomEncounter()</text>
<text text-anchor="start" x="274" y="-349.5" font-family="Helvetica,sans-Serif" font-size="10.00">&#45; walkAnimation()</text>
<text text-anchor="start" x="274" y="-338.5" font-family="Helvetica,sans-Serif" font-size="10.00">&#45; setIdle()</text>
</a>
</g>
</g>
<!-- Node3&#45;&gt;Node9 -->
<g id="edge10" class="edge"><title>Node3&#45;&gt;Node9</title>
<path fill="none" stroke="midnightblue" d="M81.8321,-528.616C100.035,-513.939 122.197,-497.191 143.5,-484 182.798,-459.667 230.153,-437.177 265.688,-421.527"/>
<polygon fill="none" stroke="midnightblue" points="79.3033,-526.162 73.7647,-535.194 83.7268,-531.587 79.3033,-526.162"/>
</g>
<!-- Node4 -->
<g id="node3" class="node"><title>Node4</title>
<polygon fill="none" stroke="#bfbfbf" points="365.5,-182.5 365.5,-239.5 423.5,-239.5 423.5,-182.5 365.5,-182.5"/>
<text text-anchor="middle" x="394.5" y="-227.5" font-family="Helvetica,sans-Serif" font-size="10.00">AudioClip</text>
<polyline fill="none" stroke="#bfbfbf" points="365.5,-220.5 423.5,-220.5 "/>
<text text-anchor="middle" x="394.5" y="-208.5" font-family="Helvetica,sans-Serif" font-size="10.00"> </text>
<polyline fill="none" stroke="#bfbfbf" points="365.5,-201.5 423.5,-201.5 "/>
<text text-anchor="middle" x="394.5" y="-189.5" font-family="Helvetica,sans-Serif" font-size="10.00"> </text>
</g>
<!-- Node4&#45;&gt;Node2 -->
<g id="edge2" class="edge"><title>Node4&#45;&gt;Node2</title>
<path fill="none" stroke="#404040" d="M407.445,-182.475C413.8,-171.08 422.299,-158.368 432.5,-149 470.941,-113.698 524.635,-87.8686 565.14,-71.7802"/>
<polygon fill="none" stroke="#404040" points="565.265,-71.7319 569.417,-65.836 576.456,-67.401 572.304,-73.2969 565.265,-71.7319"/>
<text text-anchor="middle" x="482" y="-123" font-family="Helvetica,sans-Serif" font-size="10.00"> &#45;SFX</text>
</g>
<!-- Node5&#45;&gt;Node2 -->
<g id="edge3" class="edge"><title>Node5&#45;&gt;Node2</title>
<path fill="none" stroke="#404040" d="M539.652,-151.167C550.623,-138.035 562.259,-124.106 573.235,-110.969"/>
<polygon fill="none" stroke="#404040" points="573.397,-110.775 574.174,-103.605 581.091,-101.565 580.314,-108.735 573.397,-110.775"/>
<text text-anchor="middle" x="599" y="-123" font-family="Helvetica,sans-Serif" font-size="10.00"> &#45;sceneChanger</text>
</g>
<!-- Node5&#45;&gt;Node5 -->
<g id="edge5" class="edge"><title>Node5&#45;&gt;Node5</title>
<path fill="none" stroke="#404040" d="M539.58,-226.241C549.986,-224.694 557.5,-219.613 557.5,-211 557.5,-206.155 555.122,-202.428 551.19,-199.818"/>
<polygon fill="none" stroke="#404040" points="550.908,-199.72 543.924,-201.515 539.58,-195.759 546.565,-193.963 550.908,-199.72"/>
<text text-anchor="middle" x="580.5" y="-208.5" font-family="Helvetica,sans-Serif" font-size="10.00"> +instance</text>
</g>
<!-- Node6 -->
<g id="node5" class="node"><title>Node6</title>
<polygon fill="none" stroke="#bfbfbf" points="538,-535.5 538,-592.5 579,-592.5 579,-535.5 538,-535.5"/>
<text text-anchor="middle" x="558.5" y="-580.5" font-family="Helvetica,sans-Serif" font-size="10.00">string</text>
<polyline fill="none" stroke="#bfbfbf" points="538,-573.5 579,-573.5 "/>
<text text-anchor="middle" x="558.5" y="-561.5" font-family="Helvetica,sans-Serif" font-size="10.00"> </text>
<polyline fill="none" stroke="#bfbfbf" points="538,-554.5 579,-554.5 "/>
<text text-anchor="middle" x="558.5" y="-542.5" font-family="Helvetica,sans-Serif" font-size="10.00"> </text>
</g>
<!-- Node6&#45;&gt;Node5 -->
<g id="edge6" class="edge"><title>Node6&#45;&gt;Node5</title>
<path fill="none" stroke="#404040" d="M579.06,-551.377C590.943,-543.405 604.825,-531.632 611.5,-517 617.587,-503.656 618.726,-496.763 611.5,-484 603.839,-470.469 591.066,-478.259 581.5,-466 542.925,-416.563 561.784,-389.983 540.5,-331 534.93,-315.565 528.456,-299.223 522.05,-283.757"/>
<polygon fill="none" stroke="#404040" points="522.045,-283.744 516.038,-279.754 517.412,-272.675 523.418,-276.665 522.045,-283.744"/>
<text text-anchor="middle" x="612" y="-396" font-family="Helvetica,sans-Serif" font-size="10.00"> +menuScene</text>
</g>
<!-- Node6&#45;&gt;Node9 -->
<g id="edge11" class="edge"><title>Node6&#45;&gt;Node9</title>
<path fill="none" stroke="#404040" d="M537.766,-545.613C517.721,-529.088 486.247,-503.879 457.5,-484 433.32,-467.28 405.822,-450.186 381.702,-435.786"/>
<polygon fill="none" stroke="#404040" points="381.559,-435.702 374.358,-436.082 371.237,-429.581 378.439,-429.201 381.559,-435.702"/>
<text text-anchor="middle" x="523" y="-498" font-family="Helvetica,sans-Serif" font-size="10.00"> &#45;lastMove</text>
</g>
<!-- Node7 -->
<g id="node6" class="node"><title>Node7</title>
<polygon fill="none" stroke="#bfbfbf" points="652,-370 652,-427 723,-427 723,-370 652,-370"/>
<text text-anchor="middle" x="687.5" y="-415" font-family="Helvetica,sans-Serif" font-size="10.00">GameObject</text>
<polyline fill="none" stroke="#bfbfbf" points="652,-408 723,-408 "/>
<text text-anchor="middle" x="687.5" y="-396" font-family="Helvetica,sans-Serif" font-size="10.00"> </text>
<polyline fill="none" stroke="#bfbfbf" points="652,-389 723,-389 "/>
<text text-anchor="middle" x="687.5" y="-377" font-family="Helvetica,sans-Serif" font-size="10.00"> </text>
</g>
<!-- Node7&#45;&gt;Node2 -->
<g id="edge18" class="edge"><title>Node7&#45;&gt;Node2</title>
<path fill="none" stroke="#404040" d="M682.886,-369.862C674.461,-319.883 655.768,-211.199 637.5,-120 637.073,-117.87 636.633,-115.704 636.182,-113.518"/>
<polygon fill="none" stroke="#404040" points="636.17,-113.461 631.021,-108.413 633.701,-101.718 638.85,-106.766 636.17,-113.461"/>
<text text-anchor="middle" x="692.5" y="-208.5" font-family="Helvetica,sans-Serif" font-size="10.00"> +Spawners</text>
</g>
<!-- Node7&#45;&gt;Node5 -->
<g id="edge7" class="edge"><title>Node7&#45;&gt;Node5</title>
<path fill="none" stroke="#404040" d="M668.968,-369.755C660.099,-357.334 648.933,-342.85 637.5,-331 610.682,-303.204 577.473,-275.827 549.408,-254.353"/>
<polygon fill="none" stroke="#404040" points="549.281,-254.257 542.083,-253.823 539.714,-247.012 546.912,-247.446 549.281,-254.257"/>
<text text-anchor="middle" x="636" y="-299.5" font-family="Helvetica,sans-Serif" font-size="10.00"> &#45;player</text>
</g>
<!-- Node8 -->
<g id="node7" class="node"><title>Node8</title>
<polygon fill="none" stroke="#bfbfbf" points="106.5,-535.5 106.5,-592.5 156.5,-592.5 156.5,-535.5 106.5,-535.5"/>
<text text-anchor="middle" x="131.5" y="-580.5" font-family="Helvetica,sans-Serif" font-size="10.00">Vector2</text>
<polyline fill="none" stroke="#bfbfbf" points="106.5,-573.5 156.5,-573.5 "/>
<text text-anchor="middle" x="131.5" y="-561.5" font-family="Helvetica,sans-Serif" font-size="10.00"> </text>
<polyline fill="none" stroke="#bfbfbf" points="106.5,-554.5 156.5,-554.5 "/>
<text text-anchor="middle" x="131.5" y="-542.5" font-family="Helvetica,sans-Serif" font-size="10.00"> </text>
</g>
<!-- Node8&#45;&gt;Node5 -->
<g id="edge8" class="edge"><title>Node8&#45;&gt;Node5</title>
<path fill="none" stroke="#404040" d="M130.017,-535.433C129.017,-486.577 134.548,-384.879 192.5,-331 210.944,-313.852 377.748,-290.876 430.263,-272.096"/>
<polygon fill="none" stroke="#404040" points="430.439,-272.019 434.311,-265.935 441.416,-267.17 437.544,-273.253 430.439,-272.019"/>
<text text-anchor="middle" x="224.5" y="-396" font-family="Helvetica,sans-Serif" font-size="10.00"> +startPosition</text>
</g>
<!-- Node8&#45;&gt;Node9 -->
<g id="edge14" class="edge"><title>Node8&#45;&gt;Node9</title>
<path fill="none" stroke="#404040" d="M138.905,-535.266C144.392,-518.855 153.246,-498.509 166.5,-484 190.516,-457.711 224.662,-437.71 254.509,-423.784"/>
<polygon fill="none" stroke="#404040" points="254.765,-423.669 258.595,-417.558 265.708,-418.743 261.878,-424.853 254.765,-423.669"/>
<text text-anchor="middle" x="205" y="-498" font-family="Helvetica,sans-Serif" font-size="10.00"> &#45;previousPosition</text>
</g>
<!-- Node9&#45;&gt;Node5 -->
<g id="edge9" class="edge"><title>Node9&#45;&gt;Node5</title>
<path fill="none" stroke="#404040" d="M351.501,-331.498C361.214,-316.719 372.94,-302.141 386.5,-291 401.144,-278.969 411.207,-283.423 431.17,-272.734"/>
<polygon fill="none" stroke="#404040" points="431.243,-272.689 434.251,-266.135 441.458,-266.39 438.45,-272.944 431.243,-272.689"/>
<text text-anchor="middle" x="424.5" y="-299.5" font-family="Helvetica,sans-Serif" font-size="10.00"> &#45;movementScript</text>
</g>
<!-- Node10 -->
<g id="node9" class="node"><title>Node10</title>
<polygon fill="none" stroke="#bfbfbf" points="405.5,-535.5 405.5,-592.5 461.5,-592.5 461.5,-535.5 405.5,-535.5"/>
<text text-anchor="middle" x="433.5" y="-580.5" font-family="Helvetica,sans-Serif" font-size="10.00">Animator</text>
<polyline fill="none" stroke="#bfbfbf" points="405.5,-573.5 461.5,-573.5 "/>
<text text-anchor="middle" x="433.5" y="-561.5" font-family="Helvetica,sans-Serif" font-size="10.00"> </text>
<polyline fill="none" stroke="#bfbfbf" points="405.5,-554.5 461.5,-554.5 "/>
<text text-anchor="middle" x="433.5" y="-542.5" font-family="Helvetica,sans-Serif" font-size="10.00"> </text>
</g>
<!-- Node10&#45;&gt;Node9 -->
<g id="edge12" class="edge"><title>Node10&#45;&gt;Node9</title>
<path fill="none" stroke="#404040" d="M429.672,-535.135C426.563,-519.263 421.063,-499.513 411.5,-484 403.108,-470.386 391.895,-457.639 380.165,-446.38"/>
<polygon fill="none" stroke="#404040" points="379.964,-446.195 372.84,-445.076 371.133,-438.07 378.257,-439.188 379.964,-446.195"/>
<text text-anchor="middle" x="439.5" y="-498" font-family="Helvetica,sans-Serif" font-size="10.00"> &#45;anim</text>
</g>
<!-- Node11 -->
<g id="node10" class="node"><title>Node11</title>
<polygon fill="none" stroke="#bfbfbf" points="647,-535.5 647,-592.5 682,-592.5 682,-535.5 647,-535.5"/>
<text text-anchor="middle" x="664.5" y="-580.5" font-family="Helvetica,sans-Serif" font-size="10.00">float</text>
<polyline fill="none" stroke="#bfbfbf" points="647,-573.5 682,-573.5 "/>
<text text-anchor="middle" x="664.5" y="-561.5" font-family="Helvetica,sans-Serif" font-size="10.00"> </text>
<polyline fill="none" stroke="#bfbfbf" points="647,-554.5 682,-554.5 "/>
<text text-anchor="middle" x="664.5" y="-542.5" font-family="Helvetica,sans-Serif" font-size="10.00"> </text>
</g>
<!-- Node11&#45;&gt;Node2 -->
<g id="edge19" class="edge"><title>Node11&#45;&gt;Node2</title>
<path fill="none" stroke="#404040" d="M682.207,-544.811C698.609,-526.586 721.874,-496.872 731.5,-466 742.817,-429.702 722.813,-149.691 722.5,-149 712.563,-127.046 695.214,-107.488 677.728,-91.7864"/>
<polygon fill="none" stroke="#404040" points="677.703,-91.7649 670.546,-90.881 668.609,-83.9348 675.766,-84.8187 677.703,-91.7649"/>
<text text-anchor="middle" x="743.5" y="-305" font-family="Helvetica,sans-Serif" font-size="10.00"> &#45;spd</text>
<text text-anchor="middle" x="743.5" y="-294" font-family="Helvetica,sans-Serif" font-size="10.00">&#45;tick</text>
</g>
<!-- Node11&#45;&gt;Node9 -->
<g id="edge13" class="edge"><title>Node11&#45;&gt;Node9</title>
<path fill="none" stroke="#404040" d="M646.776,-547.282C625.303,-529.125 587.29,-499.737 549.5,-484 509.829,-467.48 495.278,-479.56 454.5,-466 429.96,-457.84 404.192,-446.128 381.766,-434.8"/>
<polygon fill="none" stroke="#404040" points="381.717,-434.775 374.552,-435.589 371.045,-429.288 378.21,-428.474 381.717,-434.775"/>
<text text-anchor="middle" x="623" y="-498" font-family="Helvetica,sans-Serif" font-size="10.00"> &#45;speed</text>
</g>
<!-- Node12 -->
<g id="node11" class="node"><title>Node12</title>
<polygon fill="none" stroke="#bfbfbf" points="320,-535.5 320,-592.5 355,-592.5 355,-535.5 320,-535.5"/>
<text text-anchor="middle" x="337.5" y="-580.5" font-family="Helvetica,sans-Serif" font-size="10.00">bool</text>
<polyline fill="none" stroke="#bfbfbf" points="320,-573.5 355,-573.5 "/>
<text text-anchor="middle" x="337.5" y="-561.5" font-family="Helvetica,sans-Serif" font-size="10.00"> </text>
<polyline fill="none" stroke="#bfbfbf" points="320,-554.5 355,-554.5 "/>
<text text-anchor="middle" x="337.5" y="-542.5" font-family="Helvetica,sans-Serif" font-size="10.00"> </text>
</g>
<!-- Node12&#45;&gt;Node5 -->
<g id="edge17" class="edge"><title>Node12&#45;&gt;Node5</title>
<path fill="none" stroke="#404040" d="M355.258,-553.679C366.808,-547.841 382.308,-540.423 396.5,-535 422.904,-524.91 439.446,-538.75 457.5,-517 484.038,-485.031 471.961,-372.3 476.5,-331 478.15,-315.989 479.989,-299.923 481.779,-284.606"/>
<polygon fill="none" stroke="#404040" points="481.799,-284.436 478.526,-278.01 483.199,-272.518 486.471,-278.944 481.799,-284.436"/>
<text text-anchor="middle" x="506.5" y="-401.5" font-family="Helvetica,sans-Serif" font-size="10.00"> +movePlayer</text>
<text text-anchor="middle" x="506.5" y="-390.5" font-family="Helvetica,sans-Serif" font-size="10.00">+menuOpen</text>
</g>
<!-- Node12&#45;&gt;Node9 -->
<g id="edge15" class="edge"><title>Node12&#45;&gt;Node9</title>
<path fill="none" stroke="#404040" d="M319.812,-548.324C311.319,-540.107 302.023,-529.093 297.5,-517 292.86,-504.591 291.846,-491.053 292.938,-477.722"/>
<polygon fill="none" stroke="#404040" points="292.969,-477.48 289.761,-471.022 294.489,-465.577 297.697,-472.035 292.969,-477.48"/>
<text text-anchor="middle" x="354.5" y="-509" font-family="Helvetica,sans-Serif" font-size="10.00"> &#45;playerExists</text>
<text text-anchor="middle" x="354.5" y="-498" font-family="Helvetica,sans-Serif" font-size="10.00">+pseudoEscapeKeyPress</text>
<text text-anchor="middle" x="354.5" y="-487" font-family="Helvetica,sans-Serif" font-size="10.00">&#45;canMove</text>
</g>
<!-- Node13 -->
<g id="node12" class="node"><title>Node13</title>
<polygon fill="none" stroke="#bfbfbf" points="211,-535.5 211,-592.5 270,-592.5 270,-535.5 211,-535.5"/>
<text text-anchor="middle" x="240.5" y="-580.5" font-family="Helvetica,sans-Serif" font-size="10.00">Transform</text>
<polyline fill="none" stroke="#bfbfbf" points="211,-573.5 270,-573.5 "/>
<text text-anchor="middle" x="240.5" y="-561.5" font-family="Helvetica,sans-Serif" font-size="10.00"> </text>
<polyline fill="none" stroke="#bfbfbf" points="211,-554.5 270,-554.5 "/>
<text text-anchor="middle" x="240.5" y="-542.5" font-family="Helvetica,sans-Serif" font-size="10.00"> </text>
</g>
<!-- Node13&#45;&gt;Node9 -->
<g id="edge16" class="edge"><title>Node13&#45;&gt;Node9</title>
<path fill="none" stroke="#404040" d="M243.118,-535.418C245.318,-519.823 249.311,-500.253 256.5,-484 257.649,-481.403 258.888,-478.808 260.202,-476.225"/>
<polygon fill="none" stroke="#404040" points="260.209,-476.213 259.594,-469.028 265.99,-465.697 266.604,-472.882 260.209,-476.213"/>
<text text-anchor="middle" x="273" y="-498" font-family="Helvetica,sans-Serif" font-size="10.00"> &#45;player</text>
</g>
<!-- Node14 -->
<g id="node13" class="node"><title>Node14</title>
<polygon fill="none" stroke="#bfbfbf" points="780,-182.5 780,-239.5 809,-239.5 809,-182.5 780,-182.5"/>
<text text-anchor="middle" x="794.5" y="-227.5" font-family="Helvetica,sans-Serif" font-size="10.00">int</text>
<polyline fill="none" stroke="#bfbfbf" points="780,-220.5 809,-220.5 "/>
<text text-anchor="middle" x="794.5" y="-208.5" font-family="Helvetica,sans-Serif" font-size="10.00"> </text>
<polyline fill="none" stroke="#bfbfbf" points="780,-201.5 809,-201.5 "/>
<text text-anchor="middle" x="794.5" y="-189.5" font-family="Helvetica,sans-Serif" font-size="10.00"> </text>
</g>
<!-- Node14&#45;&gt;Node2 -->
<g id="edge20" class="edge"><title>Node14&#45;&gt;Node2</title>
<path fill="none" stroke="#404040" d="M791.434,-182.373C787.999,-162.946 780.751,-137.412 765.5,-120 743.293,-94.6451 709.556,-77.9791 680.427,-67.4951"/>
<polygon fill="none" stroke="#404040" points="680.054,-67.3683 673.086,-69.2251 668.692,-63.5072 675.66,-61.6505 680.054,-67.3683"/>
<text text-anchor="middle" x="786" y="-123" font-family="Helvetica,sans-Serif" font-size="10.00"> &#45;level</text>
</g>
</g>
</svg>
