<?xml version="1.0" encoding="UTF-8" standalone="no"?>
<!DOCTYPE svg PUBLIC "-//W3C//DTD SVG 1.1//EN"
 "http://www.w3.org/Graphics/SVG/1.1/DTD/svg11.dtd">
<!-- Generated by graphviz version 2.38.0 (20140413.2041)
 -->
<!-- Title: MiniMove Pages: 1 -->
<svg width="478pt" height="281pt"
 viewBox="0.00 0.00 477.50 281.00" xmlns="http://www.w3.org/2000/svg" xmlns:xlink="http://www.w3.org/1999/xlink">
<g id="graph0" class="graph" transform="scale(1 1) rotate(0) translate(4 277)">
<title>MiniMove</title>
<!-- Node2 -->
<g id="node1" class="node"><title>Node2</title>
<polygon fill="#bfbfbf" stroke="black" points="224.5,-0.5 224.5,-145.5 330.5,-145.5 330.5,-0.5 224.5,-0.5"/>
<text text-anchor="middle" x="277.5" y="-133.5" font-family="Helvetica,sans-Serif" font-size="10.00">MiniMove</text>
<polyline fill="none" stroke="black" points="224.5,-126.5 330.5,-126.5 "/>
<text text-anchor="middle" x="277.5" y="-114.5" font-family="Helvetica,sans-Serif" font-size="10.00"> </text>
<polyline fill="none" stroke="black" points="224.5,-107.5 330.5,-107.5 "/>
<text text-anchor="start" x="232.5" y="-95.5" font-family="Helvetica,sans-Serif" font-size="10.00">+ setCanMove()</text>
<text text-anchor="start" x="232.5" y="-84.5" font-family="Helvetica,sans-Serif" font-size="10.00">+ OnGUI()</text>
<text text-anchor="start" x="232.5" y="-73.5" font-family="Helvetica,sans-Serif" font-size="10.00">+ move()</text>
<text text-anchor="start" x="232.5" y="-62.5" font-family="Helvetica,sans-Serif" font-size="10.00">&#45; Start()</text>
<text text-anchor="start" x="232.5" y="-51.5" font-family="Helvetica,sans-Serif" font-size="10.00">&#45; FixedUpdate()</text>
<text text-anchor="start" x="232.5" y="-40.5" font-family="Helvetica,sans-Serif" font-size="10.00">&#45; setIdle()</text>
<text text-anchor="start" x="232.5" y="-29.5" font-family="Helvetica,sans-Serif" font-size="10.00">&#45; walkAnimation()</text>
<text text-anchor="start" x="232.5" y="-18.5" font-family="Helvetica,sans-Serif" font-size="10.00">&#45; OnTriggerEnter2D()</text>
<text text-anchor="start" x="232.5" y="-7.5" font-family="Helvetica,sans-Serif" font-size="10.00">&#45; levelUp()</text>
</g>
<!-- Node3 -->
<g id="node2" class="node"><title>Node3</title>
<g id="a_node2"><a xlink:href="class_mono_behaviour.html" target="_top" xlink:title="{MonoBehaviour\n||}">
<polygon fill="none" stroke="black" points="0,-215.5 0,-272.5 83,-272.5 83,-215.5 0,-215.5"/>
<text text-anchor="middle" x="41.5" y="-260.5" font-family="Helvetica,sans-Serif" font-size="10.00">MonoBehaviour</text>
<polyline fill="none" stroke="black" points="0,-253.5 83,-253.5 "/>
<text text-anchor="middle" x="41.5" y="-241.5" font-family="Helvetica,sans-Serif" font-size="10.00"> </text>
<polyline fill="none" stroke="black" points="0,-234.5 83,-234.5 "/>
<text text-anchor="middle" x="41.5" y="-222.5" font-family="Helvetica,sans-Serif" font-size="10.00"> </text>
</a>
</g>
</g>
<!-- Node3&#45;&gt;Node2 -->
<g id="edge1" class="edge"><title>Node3&#45;&gt;Node2</title>
<path fill="none" stroke="midnightblue" d="M81.7261,-209.06C99.1708,-194.74 120.027,-178.144 139.5,-164 166.808,-144.165 198.262,-123.494 224.237,-106.971"/>
<polygon fill="none" stroke="midnightblue" points="79.4532,-206.397 73.9682,-215.462 83.9087,-211.796 79.4532,-206.397"/>
</g>
<!-- Node4 -->
<g id="node3" class="node"><title>Node4</title>
<polygon fill="none" stroke="#bfbfbf" points="101,-215.5 101,-272.5 142,-272.5 142,-215.5 101,-215.5"/>
<text text-anchor="middle" x="121.5" y="-260.5" font-family="Helvetica,sans-Serif" font-size="10.00">string</text>
<polyline fill="none" stroke="#bfbfbf" points="101,-253.5 142,-253.5 "/>
<text text-anchor="middle" x="121.5" y="-241.5" font-family="Helvetica,sans-Serif" font-size="10.00"> </text>
<polyline fill="none" stroke="#bfbfbf" points="101,-234.5 142,-234.5 "/>
<text text-anchor="middle" x="121.5" y="-222.5" font-family="Helvetica,sans-Serif" font-size="10.00"> </text>
</g>
<!-- Node4&#45;&gt;Node2 -->
<g id="edge2" class="edge"><title>Node4&#45;&gt;Node2</title>
<path fill="none" stroke="#404040" d="M133.186,-215.354C140.731,-199.368 151.549,-179.428 164.5,-164 178.99,-146.739 197.23,-130.507 214.803,-116.708"/>
<polygon fill="none" stroke="#404040" points="214.944,-116.6 217.273,-109.775 224.469,-109.301 222.139,-116.125 214.944,-116.6"/>
<text text-anchor="middle" x="187" y="-178" font-family="Helvetica,sans-Serif" font-size="10.00"> &#45;lastMove</text>
</g>
<!-- Node5 -->
<g id="node4" class="node"><title>Node5</title>
<polygon fill="none" stroke="#bfbfbf" points="160,-215.5 160,-272.5 231,-272.5 231,-215.5 160,-215.5"/>
<text text-anchor="middle" x="195.5" y="-260.5" font-family="Helvetica,sans-Serif" font-size="10.00">GameObject</text>
<polyline fill="none" stroke="#bfbfbf" points="160,-253.5 231,-253.5 "/>
<text text-anchor="middle" x="195.5" y="-241.5" font-family="Helvetica,sans-Serif" font-size="10.00"> </text>
<polyline fill="none" stroke="#bfbfbf" points="160,-234.5 231,-234.5 "/>
<text text-anchor="middle" x="195.5" y="-222.5" font-family="Helvetica,sans-Serif" font-size="10.00"> </text>
</g>
<!-- Node5&#45;&gt;Node2 -->
<g id="edge3" class="edge"><title>Node5&#45;&gt;Node2</title>
<path fill="none" stroke="#404040" d="M205.795,-215.221C211.705,-199.914 219.521,-180.688 227.5,-164 228.659,-161.576 229.854,-159.126 231.077,-156.663"/>
<polygon fill="none" stroke="#404040" points="231.159,-156.502 230.311,-149.341 236.595,-145.804 237.443,-152.965 231.159,-156.502"/>
<text text-anchor="middle" x="250.5" y="-178" font-family="Helvetica,sans-Serif" font-size="10.00"> &#45;controller</text>
</g>
<!-- Node6 -->
<g id="node5" class="node"><title>Node6</title>
<polygon fill="none" stroke="#bfbfbf" points="249.5,-215.5 249.5,-272.5 305.5,-272.5 305.5,-215.5 249.5,-215.5"/>
<text text-anchor="middle" x="277.5" y="-260.5" font-family="Helvetica,sans-Serif" font-size="10.00">Animator</text>
<polyline fill="none" stroke="#bfbfbf" points="249.5,-253.5 305.5,-253.5 "/>
<text text-anchor="middle" x="277.5" y="-241.5" font-family="Helvetica,sans-Serif" font-size="10.00"> </text>
<polyline fill="none" stroke="#bfbfbf" points="249.5,-234.5 305.5,-234.5 "/>
<text text-anchor="middle" x="277.5" y="-222.5" font-family="Helvetica,sans-Serif" font-size="10.00"> </text>
</g>
<!-- Node6&#45;&gt;Node2 -->
<g id="edge4" class="edge"><title>Node6&#45;&gt;Node2</title>
<path fill="none" stroke="#404040" d="M277.5,-215.471C277.5,-199.599 277.5,-178.708 277.5,-157.868"/>
<polygon fill="none" stroke="#404040" points="277.5,-157.642 273.5,-151.642 277.5,-145.642 281.5,-151.642 277.5,-157.642"/>
<text text-anchor="middle" x="291.5" y="-178" font-family="Helvetica,sans-Serif" font-size="10.00"> &#45;anim</text>
</g>
<!-- Node7 -->
<g id="node6" class="node"><title>Node7</title>
<polygon fill="none" stroke="#bfbfbf" points="324,-215.5 324,-272.5 359,-272.5 359,-215.5 324,-215.5"/>
<text text-anchor="middle" x="341.5" y="-260.5" font-family="Helvetica,sans-Serif" font-size="10.00">float</text>
<polyline fill="none" stroke="#bfbfbf" points="324,-253.5 359,-253.5 "/>
<text text-anchor="middle" x="341.5" y="-241.5" font-family="Helvetica,sans-Serif" font-size="10.00"> </text>
<polyline fill="none" stroke="#bfbfbf" points="324,-234.5 359,-234.5 "/>
<text text-anchor="middle" x="341.5" y="-222.5" font-family="Helvetica,sans-Serif" font-size="10.00"> </text>
</g>
<!-- Node7&#45;&gt;Node2 -->
<g id="edge5" class="edge"><title>Node7&#45;&gt;Node2</title>
<path fill="none" stroke="#404040" d="M331.075,-215.471C324.98,-199.377 316.93,-178.121 308.929,-156.991"/>
<polygon fill="none" stroke="#404040" points="308.88,-156.864 303.015,-152.669 304.631,-145.642 310.496,-149.836 308.88,-156.864"/>
<text text-anchor="middle" x="339" y="-189" font-family="Helvetica,sans-Serif" font-size="10.00"> &#45;ystart</text>
<text text-anchor="middle" x="339" y="-178" font-family="Helvetica,sans-Serif" font-size="10.00">&#45;speed</text>
<text text-anchor="middle" x="339" y="-167" font-family="Helvetica,sans-Serif" font-size="10.00">&#45;xstart</text>
</g>
<!-- Node8 -->
<g id="node7" class="node"><title>Node8</title>
<polygon fill="none" stroke="#bfbfbf" points="377,-215.5 377,-272.5 406,-272.5 406,-215.5 377,-215.5"/>
<text text-anchor="middle" x="391.5" y="-260.5" font-family="Helvetica,sans-Serif" font-size="10.00">int</text>
<polyline fill="none" stroke="#bfbfbf" points="377,-253.5 406,-253.5 "/>
<text text-anchor="middle" x="391.5" y="-241.5" font-family="Helvetica,sans-Serif" font-size="10.00"> </text>
<polyline fill="none" stroke="#bfbfbf" points="377,-234.5 406,-234.5 "/>
<text text-anchor="middle" x="391.5" y="-222.5" font-family="Helvetica,sans-Serif" font-size="10.00"> </text>
</g>
<!-- Node8&#45;&gt;Node2 -->
<g id="edge6" class="edge"><title>Node8&#45;&gt;Node2</title>
<path fill="none" stroke="#404040" d="M382.497,-215.188C376.796,-199.518 368.595,-179.951 358.5,-164 352.638,-154.738 345.804,-145.516 338.637,-136.701"/>
<polygon fill="none" stroke="#404040" points="338.473,-136.506 331.552,-134.481 330.76,-127.313 337.681,-129.338 338.473,-136.506"/>
<text text-anchor="middle" x="388" y="-178" font-family="Helvetica,sans-Serif" font-size="10.00"> &#45;lives</text>
</g>
<!-- Node9 -->
<g id="node8" class="node"><title>Node9</title>
<polygon fill="none" stroke="#bfbfbf" points="424,-215.5 424,-272.5 459,-272.5 459,-215.5 424,-215.5"/>
<text text-anchor="middle" x="441.5" y="-260.5" font-family="Helvetica,sans-Serif" font-size="10.00">bool</text>
<polyline fill="none" stroke="#bfbfbf" points="424,-253.5 459,-253.5 "/>
<text text-anchor="middle" x="441.5" y="-241.5" font-family="Helvetica,sans-Serif" font-size="10.00"> </text>
<polyline fill="none" stroke="#bfbfbf" points="424,-234.5 459,-234.5 "/>
<text text-anchor="middle" x="441.5" y="-222.5" font-family="Helvetica,sans-Serif" font-size="10.00"> </text>
</g>
<!-- Node9&#45;&gt;Node2 -->
<g id="edge7" class="edge"><title>Node9&#45;&gt;Node2</title>
<path fill="none" stroke="#404040" d="M432.609,-215.405C426.47,-199.243 417.126,-179.107 404.5,-164 386.847,-142.877 363.134,-124.314 340.979,-109.618"/>
<polygon fill="none" stroke="#404040" points="340.688,-109.431 333.478,-109.544 330.6,-102.932 337.81,-102.819 340.688,-109.431"/>
<text text-anchor="middle" x="447" y="-178" font-family="Helvetica,sans-Serif" font-size="10.00"> &#45;canMove</text>
</g>
</g>
</svg>
