<?xml version="1.0" encoding="UTF-8" standalone="no"?>
<!DOCTYPE svg PUBLIC "-//W3C//DTD SVG 1.1//EN"
 "http://www.w3.org/Graphics/SVG/1.1/DTD/svg11.dtd">
<!-- Generated by graphviz version 2.38.0 (20140413.2041)
 -->
<!-- Title: PlayerData Pages: 1 -->
<svg width="777pt" height="1418pt"
 viewBox="0.00 0.00 776.72 1418.00" xmlns="http://www.w3.org/2000/svg" xmlns:xlink="http://www.w3.org/1999/xlink">
<g id="graph0" class="graph" transform="scale(1 1) rotate(0) translate(4 1414)">
<title>PlayerData</title>
<!-- Node2 -->
<g id="node1" class="node"><title>Node2</title>
<polygon fill="#bfbfbf" stroke="black" points="126.222,-492.5 126.222,-549.5 191.222,-549.5 191.222,-492.5 126.222,-492.5"/>
<text text-anchor="middle" x="158.722" y="-537.5" font-family="Helvetica,sans-Serif" font-size="10.00">PlayerData</text>
<polyline fill="none" stroke="black" points="126.222,-530.5 191.222,-530.5 "/>
<text text-anchor="middle" x="158.722" y="-518.5" font-family="Helvetica,sans-Serif" font-size="10.00"> </text>
<polyline fill="none" stroke="black" points="126.222,-511.5 191.222,-511.5 "/>
<text text-anchor="start" x="134.222" y="-499.5" font-family="Helvetica,sans-Serif" font-size="10.00">&#45; Awake()</text>
</g>
<!-- Node2&#45;&gt;Node2 -->
<g id="edge2" class="edge"><title>Node2&#45;&gt;Node2</title>
<path fill="none" stroke="#404040" d="M191.264,-532.614C201.323,-532.379 209.222,-528.508 209.222,-521 209.222,-516.894 206.859,-513.876 203.073,-511.945"/>
<polygon fill="none" stroke="#404040" points="202.992,-511.928 196.281,-514.566 191.264,-509.386 197.975,-506.748 202.992,-511.928"/>
<text text-anchor="middle" x="232.222" y="-518.5" font-family="Helvetica,sans-Serif" font-size="10.00"> +instance</text>
</g>
<!-- Node3 -->
<g id="node2" class="node"><title>Node3</title>
<g id="a_node2"><a xlink:href="class_mono_behaviour.html" target="_top" xlink:title="{MonoBehaviour\n||}">
<polygon fill="none" stroke="black" points="46.2217,-812 46.2217,-869 129.222,-869 129.222,-812 46.2217,-812"/>
<text text-anchor="middle" x="87.7217" y="-857" font-family="Helvetica,sans-Serif" font-size="10.00">MonoBehaviour</text>
<polyline fill="none" stroke="black" points="46.2217,-850 129.222,-850 "/>
<text text-anchor="middle" x="87.7217" y="-838" font-family="Helvetica,sans-Serif" font-size="10.00"> </text>
<polyline fill="none" stroke="black" points="46.2217,-831 129.222,-831 "/>
<text text-anchor="middle" x="87.7217" y="-819" font-family="Helvetica,sans-Serif" font-size="10.00"> </text>
</a>
</g>
</g>
<!-- Node3&#45;&gt;Node2 -->
<g id="edge1" class="edge"><title>Node3&#45;&gt;Node2</title>
<path fill="none" stroke="midnightblue" d="M96.0807,-802.12C110.501,-737.636 139.732,-606.92 152.509,-549.783"/>
<polygon fill="none" stroke="midnightblue" points="92.6651,-801.357 93.8983,-811.879 99.4964,-802.884 92.6651,-801.357"/>
</g>
<!-- Node4 -->
<g id="node3" class="node"><title>Node4</title>
<g id="a_node3"><a xlink:href="class_data_manager.html" target="_top" xlink:title="An object to store all player data including players, items and money and provide useful functions ...">
<polygon fill="none" stroke="black" points="147.722,-685.5 147.722,-995.5 299.722,-995.5 299.722,-685.5 147.722,-685.5"/>
<text text-anchor="middle" x="223.722" y="-983.5" font-family="Helvetica,sans-Serif" font-size="10.00">DataManager</text>
<polyline fill="none" stroke="black" points="147.722,-976.5 299.722,-976.5 "/>
<text text-anchor="start" x="155.722" y="-964.5" font-family="Helvetica,sans-Serif" font-size="10.00">+ Players</text>
<text text-anchor="start" x="155.722" y="-953.5" font-family="Helvetica,sans-Serif" font-size="10.00">+ Items</text>
<text text-anchor="start" x="155.722" y="-942.5" font-family="Helvetica,sans-Serif" font-size="10.00">+ Money</text>
<polyline fill="none" stroke="black" points="147.722,-935.5 299.722,-935.5 "/>
<text text-anchor="start" x="155.722" y="-923.5" font-family="Helvetica,sans-Serif" font-size="10.00">+ DataManager()</text>
<text text-anchor="start" x="155.722" y="-912.5" font-family="Helvetica,sans-Serif" font-size="10.00">+ DataManager()</text>
<text text-anchor="start" x="155.722" y="-901.5" font-family="Helvetica,sans-Serif" font-size="10.00">+ getFirstPlayer()</text>
<text text-anchor="start" x="155.722" y="-890.5" font-family="Helvetica,sans-Serif" font-size="10.00">+ playersAlive()</text>
<text text-anchor="start" x="155.722" y="-879.5" font-family="Helvetica,sans-Serif" font-size="10.00">+ addPlayer()</text>
<text text-anchor="start" x="155.722" y="-868.5" font-family="Helvetica,sans-Serif" font-size="10.00">+ swapPlayers()</text>
<text text-anchor="start" x="155.722" y="-857.5" font-family="Helvetica,sans-Serif" font-size="10.00">+ addItem()</text>
<text text-anchor="start" x="155.722" y="-846.5" font-family="Helvetica,sans-Serif" font-size="10.00">+ countItems()</text>
<text text-anchor="start" x="155.722" y="-835.5" font-family="Helvetica,sans-Serif" font-size="10.00">+ Save()</text>
<text text-anchor="start" x="155.722" y="-824.5" font-family="Helvetica,sans-Serif" font-size="10.00">+ Load()</text>
<text text-anchor="start" x="155.722" y="-813.5" font-family="Helvetica,sans-Serif" font-size="10.00">+ PlayerToSerializable()</text>
<text text-anchor="start" x="155.722" y="-802.5" font-family="Helvetica,sans-Serif" font-size="10.00">+ SerializableToPLayer()</text>
<text text-anchor="start" x="155.722" y="-791.5" font-family="Helvetica,sans-Serif" font-size="10.00">+ ItemToSerializable()</text>
<text text-anchor="start" x="155.722" y="-780.5" font-family="Helvetica,sans-Serif" font-size="10.00">+ SerializableToItem()</text>
<text text-anchor="start" x="155.722" y="-769.5" font-family="Helvetica,sans-Serif" font-size="10.00">+ SpecialMoveToSerializable()</text>
<text text-anchor="start" x="155.722" y="-758.5" font-family="Helvetica,sans-Serif" font-size="10.00">+ SerializableToSpecialMove()</text>
<text text-anchor="start" x="155.722" y="-747.5" font-family="Helvetica,sans-Serif" font-size="10.00">+ ObjectsActiveToSerializable()</text>
<text text-anchor="start" x="155.722" y="-736.5" font-family="Helvetica,sans-Serif" font-size="10.00">+ SerializableToObjectsActive()</text>
<text text-anchor="start" x="155.722" y="-725.5" font-family="Helvetica,sans-Serif" font-size="10.00">+ Texture2DToSerializable()</text>
<text text-anchor="start" x="155.722" y="-714.5" font-family="Helvetica,sans-Serif" font-size="10.00">+ SerializableToTexture2D()</text>
<text text-anchor="start" x="155.722" y="-703.5" font-family="Helvetica,sans-Serif" font-size="10.00">+ VectorToSerializable()</text>
<text text-anchor="start" x="155.722" y="-692.5" font-family="Helvetica,sans-Serif" font-size="10.00">+ SerializableToVector()</text>
</a>
</g>
</g>
<!-- Node4&#45;&gt;Node2 -->
<g id="edge3" class="edge"><title>Node4&#45;&gt;Node2</title>
<path fill="none" stroke="#404040" d="M192.174,-685.4C182.821,-639.714 173.362,-593.513 166.901,-561.952"/>
<polygon fill="none" stroke="#404040" points="166.816,-561.536 161.694,-556.46 164.409,-549.78 169.531,-554.855 166.816,-561.536"/>
<text text-anchor="middle" x="201.722" y="-620.5" font-family="Helvetica,sans-Serif" font-size="10.00"> +data</text>
</g>
<!-- Node5 -->
<g id="node4" class="node"><title>Node5</title>
<g id="a_node4"><a xlink:href="class_item.html" target="_top" xlink:title="Abstract class for items that can be equipped to a player, increasing some of their stats ...">
<polygon fill="none" stroke="black" points="73.2217,-1214.5 73.2217,-1293.5 150.222,-1293.5 150.222,-1214.5 73.2217,-1214.5"/>
<text text-anchor="middle" x="111.722" y="-1281.5" font-family="Helvetica,sans-Serif" font-size="10.00">Item</text>
<polyline fill="none" stroke="black" points="73.2217,-1274.5 150.222,-1274.5 "/>
<text text-anchor="start" x="81.2217" y="-1262.5" font-family="Helvetica,sans-Serif" font-size="10.00">+ Name</text>
<text text-anchor="start" x="81.2217" y="-1251.5" font-family="Helvetica,sans-Serif" font-size="10.00">+ Desc</text>
<polyline fill="none" stroke="black" points="73.2217,-1244.5 150.222,-1244.5 "/>
<text text-anchor="start" x="81.2217" y="-1232.5" font-family="Helvetica,sans-Serif" font-size="10.00">+ applyBuffs()</text>
<text text-anchor="start" x="81.2217" y="-1221.5" font-family="Helvetica,sans-Serif" font-size="10.00">+ revertBuffs()</text>
</a>
</g>
</g>
<!-- Node5&#45;&gt;Node4 -->
<g id="edge4" class="edge"><title>Node5&#45;&gt;Node4</title>
<path fill="none" stroke="#404040" d="M111.302,-1214.38C111.734,-1171.72 115.117,-1101.35 130.722,-1043 134.225,-1029.9 138.522,-1016.6 143.329,-1003.39"/>
<polygon fill="none" stroke="#404040" points="143.457,-1003.05 141.823,-996.025 147.678,-991.816 149.312,-998.839 143.457,-1003.05"/>
<text text-anchor="middle" x="146.222" y="-1097" font-family="Helvetica,sans-Serif" font-size="10.00"> &#45;items</text>
</g>
<!-- Node8 -->
<g id="node7" class="node"><title>Node8</title>
<g id="a_node7"><a xlink:href="class_player.html" target="_top" xlink:title="Defines a playable character for use in battle scenes">
<polygon fill="none" stroke="black" points="232.722,-1043.5 232.722,-1155.5 344.722,-1155.5 344.722,-1043.5 232.722,-1043.5"/>
<text text-anchor="middle" x="288.722" y="-1143.5" font-family="Helvetica,sans-Serif" font-size="10.00">Player</text>
<polyline fill="none" stroke="black" points="232.722,-1136.5 344.722,-1136.5 "/>
<text text-anchor="start" x="240.722" y="-1124.5" font-family="Helvetica,sans-Serif" font-size="10.00">+ Exp</text>
<text text-anchor="start" x="240.722" y="-1113.5" font-family="Helvetica,sans-Serif" font-size="10.00">+ Item</text>
<text text-anchor="start" x="240.722" y="-1102.5" font-family="Helvetica,sans-Serif" font-size="10.00">+ ExpToNextLevel</text>
<polyline fill="none" stroke="black" points="232.722,-1095.5 344.722,-1095.5 "/>
<text text-anchor="start" x="240.722" y="-1083.5" font-family="Helvetica,sans-Serif" font-size="10.00">+ Player()</text>
<text text-anchor="start" x="240.722" y="-1072.5" font-family="Helvetica,sans-Serif" font-size="10.00">+ gainExp()</text>
<text text-anchor="start" x="240.722" y="-1061.5" font-family="Helvetica,sans-Serif" font-size="10.00">+ levelUp()</text>
<text text-anchor="start" x="240.722" y="-1050.5" font-family="Helvetica,sans-Serif" font-size="10.00">&#45; setExpToNextLevel()</text>
</a>
</g>
</g>
<!-- Node5&#45;&gt;Node8 -->
<g id="edge27" class="edge"><title>Node5&#45;&gt;Node8</title>
<path fill="none" stroke="#404040" d="M150.565,-1219.53C171.861,-1201.19 198.828,-1177.95 223.273,-1156.89"/>
<polygon fill="none" stroke="#404040" points="223.41,-1156.77 225.345,-1149.82 232.501,-1148.94 230.567,-1155.89 223.41,-1156.77"/>
<text text-anchor="middle" x="213.222" y="-1182.5" font-family="Helvetica,sans-Serif" font-size="10.00"> &#45;item</text>
</g>
<!-- Node6 -->
<g id="node5" class="node"><title>Node6</title>
<polygon fill="none" stroke="#bfbfbf" points="618.222,-1352.5 618.222,-1409.5 659.222,-1409.5 659.222,-1352.5 618.222,-1352.5"/>
<text text-anchor="middle" x="638.722" y="-1397.5" font-family="Helvetica,sans-Serif" font-size="10.00">string</text>
<polyline fill="none" stroke="#bfbfbf" points="618.222,-1390.5 659.222,-1390.5 "/>
<text text-anchor="middle" x="638.722" y="-1378.5" font-family="Helvetica,sans-Serif" font-size="10.00"> </text>
<polyline fill="none" stroke="#bfbfbf" points="618.222,-1371.5 659.222,-1371.5 "/>
<text text-anchor="middle" x="638.722" y="-1359.5" font-family="Helvetica,sans-Serif" font-size="10.00"> </text>
</g>
<!-- Node6&#45;&gt;Node5 -->
<g id="edge5" class="edge"><title>Node6&#45;&gt;Node5</title>
<path fill="none" stroke="#404040" d="M618.063,-1375.1C541.849,-1357.02 275.066,-1293.74 162.47,-1267.04"/>
<polygon fill="none" stroke="#404040" points="162.152,-1266.96 155.391,-1269.47 150.476,-1264.19 157.237,-1261.68 162.152,-1266.96"/>
<text text-anchor="middle" x="453.722" y="-1326" font-family="Helvetica,sans-Serif" font-size="10.00"> #desc</text>
<text text-anchor="middle" x="453.722" y="-1315" font-family="Helvetica,sans-Serif" font-size="10.00">#name</text>
</g>
<!-- Node9 -->
<g id="node8" class="node"><title>Node9</title>
<g id="a_node8"><a xlink:href="class_character.html" target="_top" xlink:title="Base abstract class for Enemy and Player to inherit from. Defines all shared variables, their constructor and their setters and getters ">
<polygon fill="none" stroke="black" points="405.222,-95.5 405.222,-273.5 500.222,-273.5 500.222,-95.5 405.222,-95.5"/>
<text text-anchor="middle" x="452.722" y="-261.5" font-family="Helvetica,sans-Serif" font-size="10.00">Character</text>
<polyline fill="none" stroke="black" points="405.222,-254.5 500.222,-254.5 "/>
<text text-anchor="start" x="413.222" y="-242.5" font-family="Helvetica,sans-Serif" font-size="10.00">+ Name</text>
<text text-anchor="start" x="413.222" y="-231.5" font-family="Helvetica,sans-Serif" font-size="10.00">+ Level</text>
<text text-anchor="start" x="413.222" y="-220.5" font-family="Helvetica,sans-Serif" font-size="10.00">+ Health</text>
<text text-anchor="start" x="413.222" y="-209.5" font-family="Helvetica,sans-Serif" font-size="10.00">+ Attack</text>
<text text-anchor="start" x="413.222" y="-198.5" font-family="Helvetica,sans-Serif" font-size="10.00">+ Defence</text>
<text text-anchor="start" x="413.222" y="-187.5" font-family="Helvetica,sans-Serif" font-size="10.00">+ MaximumMagic</text>
<text text-anchor="start" x="413.222" y="-176.5" font-family="Helvetica,sans-Serif" font-size="10.00">+ Magic</text>
<text text-anchor="start" x="413.222" y="-165.5" font-family="Helvetica,sans-Serif" font-size="10.00">+ Luck</text>
<text text-anchor="start" x="413.222" y="-154.5" font-family="Helvetica,sans-Serif" font-size="10.00">+ Speed</text>
<text text-anchor="start" x="413.222" y="-143.5" font-family="Helvetica,sans-Serif" font-size="10.00">+ Special1</text>
<text text-anchor="start" x="413.222" y="-132.5" font-family="Helvetica,sans-Serif" font-size="10.00">+ Special2</text>
<text text-anchor="start" x="413.222" y="-121.5" font-family="Helvetica,sans-Serif" font-size="10.00">+ Image</text>
<polyline fill="none" stroke="black" points="405.222,-114.5 500.222,-114.5 "/>
<text text-anchor="start" x="413.222" y="-102.5" font-family="Helvetica,sans-Serif" font-size="10.00"># Character()</text>
</a>
</g>
</g>
<!-- Node6&#45;&gt;Node9 -->
<g id="edge9" class="edge"><title>Node6&#45;&gt;Node9</title>
<path fill="none" stroke="#404040" d="M659.293,-1366.56C687.766,-1346.16 735.722,-1304.44 735.722,-1255 735.722,-1255 735.722,-1255 735.722,-382 735.722,-274.108 595.221,-220.702 512.215,-198.565"/>
<polygon fill="none" stroke="#404040" points="512.029,-198.518 505.221,-200.894 500.409,-195.523 507.217,-193.147 512.029,-198.518"/>
<text text-anchor="middle" x="752.222" y="-838" font-family="Helvetica,sans-Serif" font-size="10.00"> #name</text>
</g>
<!-- Node10 -->
<g id="node9" class="node"><title>Node10</title>
<g id="a_node9"><a xlink:href="class_special_move.html" target="_top" xlink:title="Special move abstract base class that expands upon CharacterMove, adding magic properties ...">
<polygon fill="none" stroke="black" points="584.722,-332.5 584.722,-433.5 682.722,-433.5 682.722,-332.5 584.722,-332.5"/>
<text text-anchor="middle" x="633.722" y="-421.5" font-family="Helvetica,sans-Serif" font-size="10.00">SpecialMove</text>
<polyline fill="none" stroke="black" points="584.722,-414.5 682.722,-414.5 "/>
<text text-anchor="start" x="592.722" y="-402.5" font-family="Helvetica,sans-Serif" font-size="10.00">+ Magic</text>
<text text-anchor="start" x="592.722" y="-391.5" font-family="Helvetica,sans-Serif" font-size="10.00">+ Desc</text>
<text text-anchor="start" x="592.722" y="-380.5" font-family="Helvetica,sans-Serif" font-size="10.00">+ Special</text>
<polyline fill="none" stroke="black" points="584.722,-373.5 682.722,-373.5 "/>
<text text-anchor="start" x="592.722" y="-361.5" font-family="Helvetica,sans-Serif" font-size="10.00">+ setUp()</text>
<text text-anchor="start" x="592.722" y="-350.5" font-family="Helvetica,sans-Serif" font-size="10.00">+ decreaseMagic()</text>
<text text-anchor="start" x="592.722" y="-339.5" font-family="Helvetica,sans-Serif" font-size="10.00"># SpecialMove()</text>
</a>
</g>
</g>
<!-- Node6&#45;&gt;Node10 -->
<g id="edge23" class="edge"><title>Node6&#45;&gt;Node10</title>
<path fill="none" stroke="#404040" d="M657.423,-1352.03C671.978,-1327.52 689.722,-1290.39 689.722,-1255 689.722,-1255 689.722,-1255 689.722,-520 689.722,-489.144 687.114,-480.676 675.722,-452 674.744,-449.538 673.678,-447.065 672.542,-444.596"/>
<polygon fill="none" stroke="#404040" points="672.537,-444.584 666.279,-441.001 667.18,-433.846 673.438,-437.43 672.537,-444.584"/>
<text text-anchor="middle" x="704.722" y="-1017" font-family="Helvetica,sans-Serif" font-size="10.00"> #desc</text>
</g>
<!-- Node11 -->
<g id="node10" class="node"><title>Node11</title>
<g id="a_node10"><a xlink:href="class_character_move.html" target="_top" xlink:title="Astract base class for character moves ">
<polygon fill="none" stroke="black" points="471.722,-481.5 471.722,-560.5 557.722,-560.5 557.722,-481.5 471.722,-481.5"/>
<text text-anchor="middle" x="514.722" y="-548.5" font-family="Helvetica,sans-Serif" font-size="10.00">CharacterMove</text>
<polyline fill="none" stroke="black" points="471.722,-541.5 557.722,-541.5 "/>
<text text-anchor="start" x="479.722" y="-529.5" font-family="Helvetica,sans-Serif" font-size="10.00">+ User</text>
<text text-anchor="start" x="479.722" y="-518.5" font-family="Helvetica,sans-Serif" font-size="10.00">+ Target</text>
<text text-anchor="start" x="479.722" y="-507.5" font-family="Helvetica,sans-Serif" font-size="10.00">+ Text</text>
<polyline fill="none" stroke="black" points="471.722,-500.5 557.722,-500.5 "/>
<text text-anchor="start" x="479.722" y="-488.5" font-family="Helvetica,sans-Serif" font-size="10.00">+ performMove()</text>
</a>
</g>
</g>
<!-- Node6&#45;&gt;Node11 -->
<g id="edge13" class="edge"><title>Node6&#45;&gt;Node11</title>
<path fill="none" stroke="#404040" d="M638.135,-1352.21C637.002,-1312.51 633.763,-1237.34 624.722,-1174 613.278,-1093.82 597.706,-1076.1 585.722,-996 558.205,-812.099 611.723,-755.002 551.722,-579 550.856,-576.46 549.851,-573.92 548.74,-571.403"/>
<polygon fill="none" stroke="#404040" points="548.678,-571.279 542.407,-567.718 543.281,-560.56 549.552,-564.121 548.678,-571.279"/>
<text text-anchor="middle" x="635.222" y="-1097" font-family="Helvetica,sans-Serif" font-size="10.00"> #text</text>
</g>
<!-- Node12 -->
<g id="node11" class="node"><title>Node12</title>
<g id="a_node11"><a xlink:href="class_battle_manager.html" target="_top" xlink:title="Holds current Player and Enemy objects in battle and provides functions for MainBattle and other obje...">
<polygon fill="none" stroke="black" points="355.722,-746 355.722,-935 471.722,-935 471.722,-746 355.722,-746"/>
<text text-anchor="middle" x="413.722" y="-923" font-family="Helvetica,sans-Serif" font-size="10.00">BattleManager</text>
<polyline fill="none" stroke="black" points="355.722,-916 471.722,-916 "/>
<text text-anchor="start" x="363.722" y="-904" font-family="Helvetica,sans-Serif" font-size="10.00">+ Player</text>
<text text-anchor="start" x="363.722" y="-893" font-family="Helvetica,sans-Serif" font-size="10.00">+ Enemy</text>
<text text-anchor="start" x="363.722" y="-882" font-family="Helvetica,sans-Serif" font-size="10.00">+ WasCriticalHit</text>
<polyline fill="none" stroke="black" points="355.722,-875 471.722,-875 "/>
<text text-anchor="start" x="363.722" y="-863" font-family="Helvetica,sans-Serif" font-size="10.00">+ BattleManager()</text>
<text text-anchor="start" x="363.722" y="-852" font-family="Helvetica,sans-Serif" font-size="10.00">+ playerFirst()</text>
<text text-anchor="start" x="363.722" y="-841" font-family="Helvetica,sans-Serif" font-size="10.00">+ switchPlayers()</text>
<text text-anchor="start" x="363.722" y="-830" font-family="Helvetica,sans-Serif" font-size="10.00">+ isCriticalHit()</text>
<text text-anchor="start" x="363.722" y="-819" font-family="Helvetica,sans-Serif" font-size="10.00">+ ranAway()</text>
<text text-anchor="start" x="363.722" y="-808" font-family="Helvetica,sans-Serif" font-size="10.00">+ damageCalculation()</text>
<text text-anchor="start" x="363.722" y="-797" font-family="Helvetica,sans-Serif" font-size="10.00">+ enemyMove()</text>
<text text-anchor="start" x="363.722" y="-786" font-family="Helvetica,sans-Serif" font-size="10.00">+ enemySpecialMove()</text>
<text text-anchor="start" x="363.722" y="-775" font-family="Helvetica,sans-Serif" font-size="10.00">+ battleWon()</text>
<text text-anchor="start" x="363.722" y="-764" font-family="Helvetica,sans-Serif" font-size="10.00">+ playerFainted()</text>
<text text-anchor="start" x="363.722" y="-753" font-family="Helvetica,sans-Serif" font-size="10.00">&#45; characterFainted()</text>
</a>
</g>
</g>
<!-- Node6&#45;&gt;Node12 -->
<g id="edge16" class="edge"><title>Node6&#45;&gt;Node12</title>
<path fill="none" stroke="#404040" d="M622.077,-1352.37C601.225,-1316.99 565.259,-1253.41 540.722,-1196 507.247,-1117.68 509.483,-1094.17 480.722,-1014 472.869,-992.111 464.1,-968.81 455.562,-946.645"/>
<polygon fill="none" stroke="#404040" points="455.453,-946.363 449.558,-942.21 451.124,-935.171 457.019,-939.324 455.453,-946.363"/>
<text text-anchor="middle" x="582.722" y="-1188" font-family="Helvetica,sans-Serif" font-size="10.00"> +forceEnemyMove</text>
<text text-anchor="middle" x="582.722" y="-1177" font-family="Helvetica,sans-Serif" font-size="10.00">+forceCriticalHits</text>
</g>
<!-- Node7 -->
<g id="node6" class="node"><title>Node7</title>
<polygon fill="none" stroke="#bfbfbf" points="320.222,-1225.5 320.222,-1282.5 349.222,-1282.5 349.222,-1225.5 320.222,-1225.5"/>
<text text-anchor="middle" x="334.722" y="-1270.5" font-family="Helvetica,sans-Serif" font-size="10.00">int</text>
<polyline fill="none" stroke="#bfbfbf" points="320.222,-1263.5 349.222,-1263.5 "/>
<text text-anchor="middle" x="334.722" y="-1251.5" font-family="Helvetica,sans-Serif" font-size="10.00"> </text>
<polyline fill="none" stroke="#bfbfbf" points="320.222,-1244.5 349.222,-1244.5 "/>
<text text-anchor="middle" x="334.722" y="-1232.5" font-family="Helvetica,sans-Serif" font-size="10.00"> </text>
</g>
<!-- Node7&#45;&gt;Node4 -->
<g id="edge6" class="edge"><title>Node7&#45;&gt;Node4</title>
<path fill="none" stroke="#404040" d="M319.923,-1248.53C288.659,-1238.18 216.415,-1209.31 187.722,-1156 163.608,-1111.2 161.644,-1057.67 168.961,-1007.59"/>
<polygon fill="none" stroke="#404040" points="168.982,-1007.46 165.989,-1000.9 170.894,-995.614 173.887,-1002.17 168.982,-1007.46"/>
<text text-anchor="middle" x="205.722" y="-1097" font-family="Helvetica,sans-Serif" font-size="10.00"> &#45;money</text>
</g>
<!-- Node7&#45;&gt;Node8 -->
<g id="edge28" class="edge"><title>Node7&#45;&gt;Node8</title>
<path fill="none" stroke="#404040" d="M320.216,-1239.03C310.163,-1228.32 297.573,-1212.6 291.722,-1196 288.581,-1187.09 286.69,-1177.42 285.647,-1167.76"/>
<polygon fill="none" stroke="#404040" points="285.633,-1167.57 281.202,-1161.88 284.749,-1155.6 289.18,-1161.29 285.633,-1167.57"/>
<text text-anchor="middle" x="329.222" y="-1188" font-family="Helvetica,sans-Serif" font-size="10.00"> &#45;expToNextLevel</text>
<text text-anchor="middle" x="329.222" y="-1177" font-family="Helvetica,sans-Serif" font-size="10.00">&#45;exp</text>
</g>
<!-- Node7&#45;&gt;Node9 -->
<g id="edge10" class="edge"><title>Node7&#45;&gt;Node9</title>
<path fill="none" stroke="#404040" d="M349.427,-1248.48C380.508,-1238.03 452.421,-1208.98 481.722,-1156 504.008,-1115.71 522.855,-737.46 480.722,-685 458.714,-657.599 425.562,-694.535 403.722,-667 379.417,-636.358 401.301,-618.036 403.722,-579 409.944,-478.678 425.007,-364.792 436.803,-285.448"/>
<polygon fill="none" stroke="#404040" points="436.814,-285.375 433.747,-278.849 438.592,-273.508 441.659,-280.034 436.814,-285.375"/>
<text text-anchor="middle" x="441.222" y="-659" font-family="Helvetica,sans-Serif" font-size="10.00"> #speed</text>
<text text-anchor="middle" x="441.222" y="-648" font-family="Helvetica,sans-Serif" font-size="10.00">#luck</text>
<text text-anchor="middle" x="441.222" y="-637" font-family="Helvetica,sans-Serif" font-size="10.00">#health</text>
<text text-anchor="middle" x="441.222" y="-626" font-family="Helvetica,sans-Serif" font-size="10.00">#magic</text>
<text text-anchor="middle" x="441.222" y="-615" font-family="Helvetica,sans-Serif" font-size="10.00">#maximumMagic</text>
<text text-anchor="middle" x="441.222" y="-604" font-family="Helvetica,sans-Serif" font-size="10.00">#attack</text>
<text text-anchor="middle" x="441.222" y="-593" font-family="Helvetica,sans-Serif" font-size="10.00">#defence</text>
<text text-anchor="middle" x="441.222" y="-582" font-family="Helvetica,sans-Serif" font-size="10.00">#level</text>
</g>
<!-- Node7&#45;&gt;Node10 -->
<g id="edge25" class="edge"><title>Node7&#45;&gt;Node10</title>
<path fill="none" stroke="#404040" d="M349.472,-1251.12C379.572,-1246.62 448.918,-1232.72 492.722,-1196 508.438,-1182.83 508.976,-1175.37 515.722,-1156 615.502,-869.541 568.091,-780.416 616.722,-481 618.573,-469.602 620.631,-457.467 622.657,-445.777"/>
<polygon fill="none" stroke="#404040" points="622.683,-445.626 619.775,-439.027 624.747,-433.805 627.656,-440.403 622.683,-445.626"/>
<text text-anchor="middle" x="611.222" y="-838" font-family="Helvetica,sans-Serif" font-size="10.00"> #magic</text>
</g>
<!-- Node7&#45;&gt;Node12 -->
<g id="edge20" class="edge"><title>Node7&#45;&gt;Node12</title>
<path fill="none" stroke="#404040" d="M349.231,-1231.71C355.599,-1221.36 362.56,-1208.49 366.722,-1196 370.665,-1184.17 388.181,-1047.47 400.674,-947.355"/>
<polygon fill="none" stroke="#404040" points="400.688,-947.245 397.46,-940.797 402.172,-935.337 405.399,-941.786 400.688,-947.245"/>
<text text-anchor="middle" x="408.222" y="-1097" font-family="Helvetica,sans-Serif" font-size="10.00"> +money</text>
</g>
<!-- Node13 -->
<g id="node12" class="node"><title>Node13</title>
<g id="a_node12"><a xlink:href="class_enemy.html" target="_top" xlink:title="Defines an AI controller enemy to fight in battle scenes">
<polygon fill="none" stroke="black" points="271.222,-0.5 271.222,-57.5 338.222,-57.5 338.222,-0.5 271.222,-0.5"/>
<text text-anchor="middle" x="304.722" y="-45.5" font-family="Helvetica,sans-Serif" font-size="10.00">Enemy</text>
<polyline fill="none" stroke="black" points="271.222,-38.5 338.222,-38.5 "/>
<text text-anchor="start" x="279.222" y="-26.5" font-family="Helvetica,sans-Serif" font-size="10.00">+ ExpGiven</text>
<polyline fill="none" stroke="black" points="271.222,-19.5 338.222,-19.5 "/>
<text text-anchor="start" x="279.222" y="-7.5" font-family="Helvetica,sans-Serif" font-size="10.00">+ Enemy()</text>
</a>
</g>
</g>
<!-- Node7&#45;&gt;Node13 -->
<g id="edge19" class="edge"><title>Node7&#45;&gt;Node13</title>
<path fill="none" stroke="#404040" d="M319.908,-1247.32C272.517,-1229.04 126.772,-1172.01 110.722,-1156 -59.1961,-986.464 17.7217,-864.03 17.7217,-624 17.7217,-624 17.7217,-624 17.7217,-183.5 17.7217,-75.5577 177.533,-43.2373 258.649,-33.7846"/>
<polygon fill="none" stroke="#404040" points="259.025,-33.7442 264.56,-29.1231 270.955,-32.4558 265.419,-37.0769 259.025,-33.7442"/>
<text text-anchor="middle" x="40.7217" y="-518.5" font-family="Helvetica,sans-Serif" font-size="10.00"> &#45;expGiven</text>
</g>
<!-- Node8&#45;&gt;Node4 -->
<g id="edge7" class="edge"><title>Node8&#45;&gt;Node4</title>
<path fill="none" stroke="#404040" d="M255.093,-1043.33C252.277,-1037.28 249.741,-1031.1 247.722,-1025 245.816,-1019.24 244.06,-1013.33 242.444,-1007.32"/>
<polygon fill="none" stroke="#404040" points="242.439,-1007.3 237.092,-1002.46 239.503,-995.665 244.849,-1000.5 242.439,-1007.3"/>
<text text-anchor="middle" x="266.722" y="-1017" font-family="Helvetica,sans-Serif" font-size="10.00"> &#45;players</text>
</g>
<!-- Node8&#45;&gt;Node12 -->
<g id="edge22" class="edge"><title>Node8&#45;&gt;Node12</title>
<path fill="none" stroke="#404040" d="M317.746,-1043.39C325.651,-1028.1 334.125,-1011.46 341.722,-996 349.589,-979.986 357.745,-962.945 365.616,-946.25"/>
<polygon fill="none" stroke="#404040" points="365.638,-946.203 364.569,-939.071 370.742,-935.342 371.81,-942.474 365.638,-946.203"/>
<text text-anchor="middle" x="349.222" y="-1017" font-family="Helvetica,sans-Serif" font-size="10.00"> &#45;player</text>
</g>
<!-- Node9&#45;&gt;Node8 -->
<g id="edge8" class="edge"><title>Node9&#45;&gt;Node8</title>
<path fill="none" stroke="midnightblue" d="M400.773,-271.164C397.728,-278.074 394.988,-285.066 392.722,-292 343.773,-441.758 333.158,-840.352 308.722,-996 306.303,-1011.4 303.253,-1028.03 300.268,-1043.31"/>
<polygon fill="none" stroke="midnightblue" points="404.079,-272.352 405.098,-261.807 397.725,-269.415 404.079,-272.352"/>
</g>
<!-- Node9&#45;&gt;Node11 -->
<g id="edge14" class="edge"><title>Node9&#45;&gt;Node11</title>
<path fill="none" stroke="#404040" d="M445.085,-273.548C443.558,-321.899 446.071,-382.356 461.722,-434 465.577,-446.722 471.796,-459.45 478.64,-471.064"/>
<polygon fill="none" stroke="#404040" points="478.72,-471.193 485.284,-474.178 485.052,-481.386 478.488,-478.4 478.72,-471.193"/>
<text text-anchor="middle" x="478.722" y="-386" font-family="Helvetica,sans-Serif" font-size="10.00"> #target</text>
<text text-anchor="middle" x="478.722" y="-375" font-family="Helvetica,sans-Serif" font-size="10.00">#user</text>
</g>
<!-- Node9&#45;&gt;Node13 -->
<g id="edge18" class="edge"><title>Node9&#45;&gt;Node13</title>
<path fill="none" stroke="midnightblue" d="M398.129,-126.879C375.431,-103.337 350.112,-77.0773 331.566,-57.8422"/>
<polygon fill="none" stroke="midnightblue" points="395.618,-129.317 405.079,-134.087 400.658,-124.458 395.618,-129.317"/>
</g>
<!-- Node10&#45;&gt;Node9 -->
<g id="edge11" class="edge"><title>Node10&#45;&gt;Node9</title>
<path fill="none" stroke="#404040" d="M588.048,-332.415C563.961,-306.265 534.206,-273.962 508.736,-246.311"/>
<polygon fill="none" stroke="#404040" points="508.407,-245.954 501.4,-244.251 500.277,-237.128 507.284,-238.831 508.407,-245.954"/>
<text text-anchor="middle" x="593.222" y="-306" font-family="Helvetica,sans-Serif" font-size="10.00"> #special1</text>
<text text-anchor="middle" x="593.222" y="-295" font-family="Helvetica,sans-Serif" font-size="10.00">#special2</text>
</g>
<!-- Node11&#45;&gt;Node10 -->
<g id="edge12" class="edge"><title>Node11&#45;&gt;Node10</title>
<path fill="none" stroke="midnightblue" d="M555.326,-473.595C566.516,-460.807 578.7,-446.882 590.055,-433.905"/>
<polygon fill="none" stroke="midnightblue" points="552.455,-471.561 548.504,-481.392 557.723,-476.171 552.455,-471.561"/>
</g>
<!-- Node12&#45;&gt;Node11 -->
<g id="edge15" class="edge"><title>Node12&#45;&gt;Node11</title>
<path fill="none" stroke="#404040" d="M454.507,-745.595C464.573,-720.366 474.744,-692.893 482.722,-667 492.243,-636.096 500.116,-600.665 505.671,-572.562"/>
<polygon fill="none" stroke="#404040" points="505.704,-572.387 502.916,-565.737 507.982,-560.606 510.771,-567.256 505.704,-572.387"/>
<text text-anchor="middle" x="527.722" y="-620.5" font-family="Helvetica,sans-Serif" font-size="10.00"> #manager</text>
</g>
<!-- Node13&#45;&gt;Node12 -->
<g id="edge17" class="edge"><title>Node13&#45;&gt;Node12</title>
<path fill="none" stroke="#404040" d="M307.782,-57.6843C317.681,-146.443 350.202,-431.834 384.722,-667 387.885,-688.549 391.552,-711.562 395.192,-733.529"/>
<polygon fill="none" stroke="#404040" points="395.232,-733.772 400.166,-739.032 397.208,-745.609 392.275,-740.349 395.232,-733.772"/>
<text text-anchor="middle" x="370.722" y="-380.5" font-family="Helvetica,sans-Serif" font-size="10.00"> &#45;enemy</text>
</g>
<!-- Node14 -->
<g id="node13" class="node"><title>Node14</title>
<polygon fill="none" stroke="#bfbfbf" points="438.222,-1071 438.222,-1128 473.222,-1128 473.222,-1071 438.222,-1071"/>
<text text-anchor="middle" x="455.722" y="-1116" font-family="Helvetica,sans-Serif" font-size="10.00">bool</text>
<polyline fill="none" stroke="#bfbfbf" points="438.222,-1109 473.222,-1109 "/>
<text text-anchor="middle" x="455.722" y="-1097" font-family="Helvetica,sans-Serif" font-size="10.00"> </text>
<polyline fill="none" stroke="#bfbfbf" points="438.222,-1090 473.222,-1090 "/>
<text text-anchor="middle" x="455.722" y="-1078" font-family="Helvetica,sans-Serif" font-size="10.00"> </text>
</g>
<!-- Node14&#45;&gt;Node12 -->
<g id="edge21" class="edge"><title>Node14&#45;&gt;Node12</title>
<path fill="none" stroke="#404040" d="M439.893,-1070.88C428.64,-1051.12 415.4,-1027.58 414.722,-1025 408.217,-1000.26 405.694,-972.995 405.295,-947.215"/>
<polygon fill="none" stroke="#404040" points="405.294,-947.094 401.276,-941.106 405.258,-935.094 409.276,-941.082 405.294,-947.094"/>
<text text-anchor="middle" x="447.722" y="-1017" font-family="Helvetica,sans-Serif" font-size="10.00"> &#45;wasCriticalHit</text>
</g>
<!-- Node15 -->
<g id="node14" class="node"><title>Node15</title>
<polygon fill="none" stroke="#bfbfbf" points="626.222,-492.5 626.222,-549.5 661.222,-549.5 661.222,-492.5 626.222,-492.5"/>
<text text-anchor="middle" x="643.722" y="-537.5" font-family="Helvetica,sans-Serif" font-size="10.00">float</text>
<polyline fill="none" stroke="#bfbfbf" points="626.222,-530.5 661.222,-530.5 "/>
<text text-anchor="middle" x="643.722" y="-518.5" font-family="Helvetica,sans-Serif" font-size="10.00"> </text>
<polyline fill="none" stroke="#bfbfbf" points="626.222,-511.5 661.222,-511.5 "/>
<text text-anchor="middle" x="643.722" y="-499.5" font-family="Helvetica,sans-Serif" font-size="10.00"> </text>
</g>
<!-- Node15&#45;&gt;Node10 -->
<g id="edge24" class="edge"><title>Node15&#45;&gt;Node10</title>
<path fill="none" stroke="#404040" d="M639.178,-492.239C637.833,-482.966 636.511,-472.561 635.722,-463 635.271,-457.546 634.913,-451.873 634.628,-446.182"/>
<polygon fill="none" stroke="#404040" points="634.611,-445.764 630.368,-439.934 634.117,-433.774 638.361,-439.604 634.611,-445.764"/>
<text text-anchor="middle" x="655.722" y="-455" font-family="Helvetica,sans-Serif" font-size="10.00"> #special</text>
</g>
<!-- Node16 -->
<g id="node15" class="node"><title>Node16</title>
<polygon fill="none" stroke="#bfbfbf" points="505.222,-354.5 505.222,-411.5 566.222,-411.5 566.222,-354.5 505.222,-354.5"/>
<text text-anchor="middle" x="535.722" y="-399.5" font-family="Helvetica,sans-Serif" font-size="10.00">Texture2D</text>
<polyline fill="none" stroke="#bfbfbf" points="505.222,-392.5 566.222,-392.5 "/>
<text text-anchor="middle" x="535.722" y="-380.5" font-family="Helvetica,sans-Serif" font-size="10.00"> </text>
<polyline fill="none" stroke="#bfbfbf" points="505.222,-373.5 566.222,-373.5 "/>
<text text-anchor="middle" x="535.722" y="-361.5" font-family="Helvetica,sans-Serif" font-size="10.00"> </text>
</g>
<!-- Node16&#45;&gt;Node9 -->
<g id="edge26" class="edge"><title>Node16&#45;&gt;Node9</title>
<path fill="none" stroke="#404040" d="M524.006,-354.263C516.221,-335.832 505.48,-310.404 494.697,-284.875"/>
<polygon fill="none" stroke="#404040" points="494.586,-284.611 488.566,-280.641 489.916,-273.557 495.936,-277.528 494.586,-284.611"/>
<text text-anchor="middle" x="524.222" y="-300.5" font-family="Helvetica,sans-Serif" font-size="10.00"> #image</text>
</g>
</g>
</svg>
