<?xml version="1.0" encoding="UTF-8" standalone="no"?>
<!DOCTYPE svg PUBLIC "-//W3C//DTD SVG 1.1//EN"
 "http://www.w3.org/Graphics/SVG/1.1/DTD/svg11.dtd">
<!-- Generated by graphviz version 2.38.0 (20140413.2041)
 -->
<!-- Title: IncreaseMoney Pages: 1 -->
<svg width="796pt" height="1056pt"
 viewBox="0.00 0.00 795.50 1056.00" xmlns="http://www.w3.org/2000/svg" xmlns:xlink="http://www.w3.org/1999/xlink">
<g id="graph0" class="graph" transform="scale(1 1) rotate(0) translate(4 1052)">
<title>IncreaseMoney</title>
<!-- Node3 -->
<g id="node1" class="node"><title>Node3</title>
<polygon fill="#bfbfbf" stroke="black" points="100.5,-590.5 100.5,-658.5 198.5,-658.5 198.5,-590.5 100.5,-590.5"/>
<text text-anchor="middle" x="149.5" y="-646.5" font-family="Helvetica,sans-Serif" font-size="10.00">IncreaseMoney</text>
<polyline fill="none" stroke="black" points="100.5,-639.5 198.5,-639.5 "/>
<text text-anchor="middle" x="149.5" y="-627.5" font-family="Helvetica,sans-Serif" font-size="10.00"> </text>
<polyline fill="none" stroke="black" points="100.5,-620.5 198.5,-620.5 "/>
<text text-anchor="start" x="108.5" y="-608.5" font-family="Helvetica,sans-Serif" font-size="10.00">+ IncreaseMoney()</text>
<text text-anchor="start" x="108.5" y="-597.5" font-family="Helvetica,sans-Serif" font-size="10.00">+ performMove()</text>
</g>
<!-- Node4 -->
<g id="node2" class="node"><title>Node4</title>
<g id="a_node2"><a xlink:href="class_special_move.html" target="_top" xlink:title="Special move abstract base class that expands upon CharacterMove, adding magic properties ...">
<polygon fill="none" stroke="black" points="144.5,-830.5 144.5,-931.5 242.5,-931.5 242.5,-830.5 144.5,-830.5"/>
<text text-anchor="middle" x="193.5" y="-919.5" font-family="Helvetica,sans-Serif" font-size="10.00">SpecialMove</text>
<polyline fill="none" stroke="black" points="144.5,-912.5 242.5,-912.5 "/>
<text text-anchor="start" x="152.5" y="-900.5" font-family="Helvetica,sans-Serif" font-size="10.00">+ Magic</text>
<text text-anchor="start" x="152.5" y="-889.5" font-family="Helvetica,sans-Serif" font-size="10.00">+ Desc</text>
<text text-anchor="start" x="152.5" y="-878.5" font-family="Helvetica,sans-Serif" font-size="10.00">+ Special</text>
<polyline fill="none" stroke="black" points="144.5,-871.5 242.5,-871.5 "/>
<text text-anchor="start" x="152.5" y="-859.5" font-family="Helvetica,sans-Serif" font-size="10.00">+ setUp()</text>
<text text-anchor="start" x="152.5" y="-848.5" font-family="Helvetica,sans-Serif" font-size="10.00">+ decreaseMagic()</text>
<text text-anchor="start" x="152.5" y="-837.5" font-family="Helvetica,sans-Serif" font-size="10.00"># SpecialMove()</text>
</a>
</g>
</g>
<!-- Node4&#45;&gt;Node3 -->
<g id="edge1" class="edge"><title>Node4&#45;&gt;Node3</title>
<path fill="none" stroke="midnightblue" d="M183.165,-820.222C174.464,-769.893 162.337,-699.752 155.263,-658.835"/>
<polygon fill="none" stroke="midnightblue" points="179.759,-821.068 184.912,-830.326 186.657,-819.876 179.759,-821.068"/>
</g>
<!-- Node7 -->
<g id="node5" class="node"><title>Node7</title>
<g id="a_node5"><a xlink:href="class_character.html" target="_top" xlink:title="Base abstract class for Enemy and Player to inherit from. Defines all shared variables, their constructor and their setters and getters ">
<polygon fill="none" stroke="black" points="436,-535.5 436,-713.5 531,-713.5 531,-535.5 436,-535.5"/>
<text text-anchor="middle" x="483.5" y="-701.5" font-family="Helvetica,sans-Serif" font-size="10.00">Character</text>
<polyline fill="none" stroke="black" points="436,-694.5 531,-694.5 "/>
<text text-anchor="start" x="444" y="-682.5" font-family="Helvetica,sans-Serif" font-size="10.00">+ Name</text>
<text text-anchor="start" x="444" y="-671.5" font-family="Helvetica,sans-Serif" font-size="10.00">+ Level</text>
<text text-anchor="start" x="444" y="-660.5" font-family="Helvetica,sans-Serif" font-size="10.00">+ Health</text>
<text text-anchor="start" x="444" y="-649.5" font-family="Helvetica,sans-Serif" font-size="10.00">+ Attack</text>
<text text-anchor="start" x="444" y="-638.5" font-family="Helvetica,sans-Serif" font-size="10.00">+ Defence</text>
<text text-anchor="start" x="444" y="-627.5" font-family="Helvetica,sans-Serif" font-size="10.00">+ MaximumMagic</text>
<text text-anchor="start" x="444" y="-616.5" font-family="Helvetica,sans-Serif" font-size="10.00">+ Magic</text>
<text text-anchor="start" x="444" y="-605.5" font-family="Helvetica,sans-Serif" font-size="10.00">+ Luck</text>
<text text-anchor="start" x="444" y="-594.5" font-family="Helvetica,sans-Serif" font-size="10.00">+ Speed</text>
<text text-anchor="start" x="444" y="-583.5" font-family="Helvetica,sans-Serif" font-size="10.00">+ Special1</text>
<text text-anchor="start" x="444" y="-572.5" font-family="Helvetica,sans-Serif" font-size="10.00">+ Special2</text>
<text text-anchor="start" x="444" y="-561.5" font-family="Helvetica,sans-Serif" font-size="10.00">+ Image</text>
<polyline fill="none" stroke="black" points="436,-554.5 531,-554.5 "/>
<text text-anchor="start" x="444" y="-542.5" font-family="Helvetica,sans-Serif" font-size="10.00"># Character()</text>
</a>
</g>
</g>
<!-- Node4&#45;&gt;Node7 -->
<g id="edge7" class="edge"><title>Node4&#45;&gt;Node7</title>
<path fill="none" stroke="#404040" d="M228.47,-830.22C258.331,-787.862 296.878,-733.6 299.5,-732 346.287,-703.451 374.862,-742.792 421.5,-714 423.096,-713.015 424.662,-711.971 426.198,-710.875"/>
<polygon fill="none" stroke="#404040" points="426.603,-710.545 428.719,-703.652 435.897,-702.954 433.78,-709.847 426.603,-710.545"/>
<text text-anchor="middle" x="322" y="-775" font-family="Helvetica,sans-Serif" font-size="10.00"> #special1</text>
<text text-anchor="middle" x="322" y="-764" font-family="Helvetica,sans-Serif" font-size="10.00">#special2</text>
</g>
<!-- Node5 -->
<g id="node3" class="node"><title>Node5</title>
<g id="a_node3"><a xlink:href="class_character_move.html" target="_top" xlink:title="Astract base class for character moves ">
<polygon fill="none" stroke="black" points="278.5,-0.5 278.5,-79.5 364.5,-79.5 364.5,-0.5 278.5,-0.5"/>
<text text-anchor="middle" x="321.5" y="-67.5" font-family="Helvetica,sans-Serif" font-size="10.00">CharacterMove</text>
<polyline fill="none" stroke="black" points="278.5,-60.5 364.5,-60.5 "/>
<text text-anchor="start" x="286.5" y="-48.5" font-family="Helvetica,sans-Serif" font-size="10.00">+ User</text>
<text text-anchor="start" x="286.5" y="-37.5" font-family="Helvetica,sans-Serif" font-size="10.00">+ Target</text>
<text text-anchor="start" x="286.5" y="-26.5" font-family="Helvetica,sans-Serif" font-size="10.00">+ Text</text>
<polyline fill="none" stroke="black" points="278.5,-19.5 364.5,-19.5 "/>
<text text-anchor="start" x="286.5" y="-7.5" font-family="Helvetica,sans-Serif" font-size="10.00">+ performMove()</text>
</a>
</g>
</g>
<!-- Node5&#45;&gt;Node4 -->
<g id="edge2" class="edge"><title>Node5&#45;&gt;Node4</title>
<path fill="none" stroke="midnightblue" d="M280.801,-87.7207C255.016,-122.156 226.5,-171.44 226.5,-221 226.5,-625.5 226.5,-625.5 226.5,-625.5 226.5,-697.009 213.529,-778.889 203.851,-830.027"/>
<polygon fill="none" stroke="midnightblue" points="283.62,-89.7961 286.934,-79.7328 278.068,-85.5332 283.62,-89.7961"/>
</g>
<!-- Node6 -->
<g id="node4" class="node"><title>Node6</title>
<polygon fill="none" stroke="#bfbfbf" points="250,-990.5 250,-1047.5 291,-1047.5 291,-990.5 250,-990.5"/>
<text text-anchor="middle" x="270.5" y="-1035.5" font-family="Helvetica,sans-Serif" font-size="10.00">string</text>
<polyline fill="none" stroke="#bfbfbf" points="250,-1028.5 291,-1028.5 "/>
<text text-anchor="middle" x="270.5" y="-1016.5" font-family="Helvetica,sans-Serif" font-size="10.00"> </text>
<polyline fill="none" stroke="#bfbfbf" points="250,-1009.5 291,-1009.5 "/>
<text text-anchor="middle" x="270.5" y="-997.5" font-family="Helvetica,sans-Serif" font-size="10.00"> </text>
</g>
<!-- Node6&#45;&gt;Node4 -->
<g id="edge21" class="edge"><title>Node6&#45;&gt;Node4</title>
<path fill="none" stroke="#404040" d="M249.715,-999.81C241.63,-991.899 232.813,-982.129 226.5,-972 220.936,-963.072 216.108,-953.066 211.991,-943.058"/>
<polygon fill="none" stroke="#404040" points="211.972,-943.009 206.077,-938.855 207.645,-931.816 213.539,-935.97 211.972,-943.009"/>
<text text-anchor="middle" x="241.5" y="-958.5" font-family="Helvetica,sans-Serif" font-size="10.00"> #desc</text>
</g>
<!-- Node6&#45;&gt;Node5 -->
<g id="edge3" class="edge"><title>Node6&#45;&gt;Node5</title>
<path fill="none" stroke="#404040" d="M249.685,-1014.06C198.849,-1003.1 72.5,-967.282 72.5,-882 72.5,-882 72.5,-882 72.5,-221 72.5,-125.88 193.318,-75.9374 266.637,-54.3872"/>
<polygon fill="none" stroke="#404040" points="266.867,-54.3222 271.548,-48.8374 278.412,-51.0492 273.73,-56.534 266.867,-54.3222"/>
<text text-anchor="middle" x="85" y="-509" font-family="Helvetica,sans-Serif" font-size="10.00"> #text</text>
</g>
<!-- Node6&#45;&gt;Node7 -->
<g id="edge5" class="edge"><title>Node6&#45;&gt;Node7</title>
<path fill="none" stroke="#404040" d="M291.091,-1007.38C304.992,-999.311 322.86,-987.042 334.5,-972 375.919,-918.474 342.291,-878.496 389.5,-830 403.951,-815.154 418.829,-827.567 432.5,-812 444.592,-798.231 455.647,-762.282 464.349,-725.578"/>
<polygon fill="none" stroke="#404040" points="464.4,-725.356 461.847,-718.612 467.09,-713.661 469.643,-720.405 464.4,-725.356"/>
<text text-anchor="middle" x="406" y="-878.5" font-family="Helvetica,sans-Serif" font-size="10.00"> #name</text>
</g>
<!-- Node10 -->
<g id="node8" class="node"><title>Node10</title>
<g id="a_node8"><a xlink:href="class_battle_manager.html" target="_top" xlink:title="Holds current Player and Enemy objects in battle and provides functions for MainBattle and other obje...">
<polygon fill="none" stroke="black" points="475.5,-127.5 475.5,-316.5 591.5,-316.5 591.5,-127.5 475.5,-127.5"/>
<text text-anchor="middle" x="533.5" y="-304.5" font-family="Helvetica,sans-Serif" font-size="10.00">BattleManager</text>
<polyline fill="none" stroke="black" points="475.5,-297.5 591.5,-297.5 "/>
<text text-anchor="start" x="483.5" y="-285.5" font-family="Helvetica,sans-Serif" font-size="10.00">+ Player</text>
<text text-anchor="start" x="483.5" y="-274.5" font-family="Helvetica,sans-Serif" font-size="10.00">+ Enemy</text>
<text text-anchor="start" x="483.5" y="-263.5" font-family="Helvetica,sans-Serif" font-size="10.00">+ WasCriticalHit</text>
<polyline fill="none" stroke="black" points="475.5,-256.5 591.5,-256.5 "/>
<text text-anchor="start" x="483.5" y="-244.5" font-family="Helvetica,sans-Serif" font-size="10.00">+ BattleManager()</text>
<text text-anchor="start" x="483.5" y="-233.5" font-family="Helvetica,sans-Serif" font-size="10.00">+ playerFirst()</text>
<text text-anchor="start" x="483.5" y="-222.5" font-family="Helvetica,sans-Serif" font-size="10.00">+ switchPlayers()</text>
<text text-anchor="start" x="483.5" y="-211.5" font-family="Helvetica,sans-Serif" font-size="10.00">+ isCriticalHit()</text>
<text text-anchor="start" x="483.5" y="-200.5" font-family="Helvetica,sans-Serif" font-size="10.00">+ ranAway()</text>
<text text-anchor="start" x="483.5" y="-189.5" font-family="Helvetica,sans-Serif" font-size="10.00">+ damageCalculation()</text>
<text text-anchor="start" x="483.5" y="-178.5" font-family="Helvetica,sans-Serif" font-size="10.00">+ enemyMove()</text>
<text text-anchor="start" x="483.5" y="-167.5" font-family="Helvetica,sans-Serif" font-size="10.00">+ enemySpecialMove()</text>
<text text-anchor="start" x="483.5" y="-156.5" font-family="Helvetica,sans-Serif" font-size="10.00">+ battleWon()</text>
<text text-anchor="start" x="483.5" y="-145.5" font-family="Helvetica,sans-Serif" font-size="10.00">+ playerFainted()</text>
<text text-anchor="start" x="483.5" y="-134.5" font-family="Helvetica,sans-Serif" font-size="10.00">&#45; characterFainted()</text>
</a>
</g>
</g>
<!-- Node6&#45;&gt;Node10 -->
<g id="edge10" class="edge"><title>Node6&#45;&gt;Node10</title>
<path fill="none" stroke="#404040" d="M266.762,-990.322C257.595,-915.267 238.045,-702.27 285.5,-535 313.485,-436.357 334.73,-413.663 400.5,-335 419.476,-312.305 443.414,-290.572 465.734,-272.391"/>
<polygon fill="none" stroke="#404040" points="465.815,-272.326 467.998,-265.453 475.181,-264.825 472.999,-271.698 465.815,-272.326"/>
<text text-anchor="middle" x="327.5" y="-627.5" font-family="Helvetica,sans-Serif" font-size="10.00"> +forceEnemyMove</text>
<text text-anchor="middle" x="327.5" y="-616.5" font-family="Helvetica,sans-Serif" font-size="10.00">+forceCriticalHits</text>
</g>
<!-- Node14 -->
<g id="node12" class="node"><title>Node14</title>
<g id="a_node12"><a xlink:href="class_item.html" target="_top" xlink:title="Abstract class for items that can be equipped to a player, increasing some of their stats ...">
<polygon fill="none" stroke="black" points="354,-732.5 354,-811.5 431,-811.5 431,-732.5 354,-732.5"/>
<text text-anchor="middle" x="392.5" y="-799.5" font-family="Helvetica,sans-Serif" font-size="10.00">Item</text>
<polyline fill="none" stroke="black" points="354,-792.5 431,-792.5 "/>
<text text-anchor="start" x="362" y="-780.5" font-family="Helvetica,sans-Serif" font-size="10.00">+ Name</text>
<text text-anchor="start" x="362" y="-769.5" font-family="Helvetica,sans-Serif" font-size="10.00">+ Desc</text>
<polyline fill="none" stroke="black" points="354,-762.5 431,-762.5 "/>
<text text-anchor="start" x="362" y="-750.5" font-family="Helvetica,sans-Serif" font-size="10.00">+ applyBuffs()</text>
<text text-anchor="start" x="362" y="-739.5" font-family="Helvetica,sans-Serif" font-size="10.00">+ revertBuffs()</text>
</a>
</g>
</g>
<!-- Node6&#45;&gt;Node14 -->
<g id="edge19" class="edge"><title>Node6&#45;&gt;Node14</title>
<path fill="none" stroke="#404040" d="M282.339,-990.495C298.5,-953.492 328.857,-885.869 358.5,-830 359.844,-827.466 361.249,-824.887 362.688,-822.294"/>
<polygon fill="none" stroke="#404040" points="362.813,-822.075 362.303,-814.882 368.746,-811.644 369.256,-818.837 362.813,-822.075"/>
<text text-anchor="middle" x="315.5" y="-964" font-family="Helvetica,sans-Serif" font-size="10.00"> #desc</text>
<text text-anchor="middle" x="315.5" y="-953" font-family="Helvetica,sans-Serif" font-size="10.00">#name</text>
</g>
<!-- Node7&#45;&gt;Node5 -->
<g id="edge4" class="edge"><title>Node7&#45;&gt;Node5</title>
<path fill="none" stroke="#404040" d="M458.984,-535.347C424.552,-411.543 363.007,-190.244 335.478,-91.26"/>
<polygon fill="none" stroke="#404040" points="335.431,-91.0899 329.969,-86.3811 332.215,-79.5287 337.677,-84.2375 335.431,-91.0899"/>
<text text-anchor="middle" x="425.5" y="-349" font-family="Helvetica,sans-Serif" font-size="10.00"> #target</text>
<text text-anchor="middle" x="425.5" y="-338" font-family="Helvetica,sans-Serif" font-size="10.00">#user</text>
</g>
<!-- Node11 -->
<g id="node9" class="node"><title>Node11</title>
<g id="a_node9"><a xlink:href="class_enemy.html" target="_top" xlink:title="Defines an AI controller enemy to fight in battle scenes">
<polygon fill="none" stroke="black" points="689,-403 689,-460 756,-460 756,-403 689,-403"/>
<text text-anchor="middle" x="722.5" y="-448" font-family="Helvetica,sans-Serif" font-size="10.00">Enemy</text>
<polyline fill="none" stroke="black" points="689,-441 756,-441 "/>
<text text-anchor="start" x="697" y="-429" font-family="Helvetica,sans-Serif" font-size="10.00">+ ExpGiven</text>
<polyline fill="none" stroke="black" points="689,-422 756,-422 "/>
<text text-anchor="start" x="697" y="-410" font-family="Helvetica,sans-Serif" font-size="10.00">+ Enemy()</text>
</a>
</g>
</g>
<!-- Node7&#45;&gt;Node11 -->
<g id="edge12" class="edge"><title>Node7&#45;&gt;Node11</title>
<path fill="none" stroke="midnightblue" d="M538.866,-579.253C585.276,-542.165 650.023,-490.421 688.944,-459.317"/>
<polygon fill="none" stroke="midnightblue" points="536.631,-576.559 531.004,-585.536 541.001,-582.027 536.631,-576.559"/>
</g>
<!-- Node13 -->
<g id="node11" class="node"><title>Node13</title>
<g id="a_node11"><a xlink:href="class_player.html" target="_top" xlink:title="Defines a playable character for use in battle scenes">
<polygon fill="none" stroke="black" points="509.5,-375.5 509.5,-487.5 621.5,-487.5 621.5,-375.5 509.5,-375.5"/>
<text text-anchor="middle" x="565.5" y="-475.5" font-family="Helvetica,sans-Serif" font-size="10.00">Player</text>
<polyline fill="none" stroke="black" points="509.5,-468.5 621.5,-468.5 "/>
<text text-anchor="start" x="517.5" y="-456.5" font-family="Helvetica,sans-Serif" font-size="10.00">+ Exp</text>
<text text-anchor="start" x="517.5" y="-445.5" font-family="Helvetica,sans-Serif" font-size="10.00">+ Item</text>
<text text-anchor="start" x="517.5" y="-434.5" font-family="Helvetica,sans-Serif" font-size="10.00">+ ExpToNextLevel</text>
<polyline fill="none" stroke="black" points="509.5,-427.5 621.5,-427.5 "/>
<text text-anchor="start" x="517.5" y="-415.5" font-family="Helvetica,sans-Serif" font-size="10.00">+ Player()</text>
<text text-anchor="start" x="517.5" y="-404.5" font-family="Helvetica,sans-Serif" font-size="10.00">+ gainExp()</text>
<text text-anchor="start" x="517.5" y="-393.5" font-family="Helvetica,sans-Serif" font-size="10.00">+ levelUp()</text>
<text text-anchor="start" x="517.5" y="-382.5" font-family="Helvetica,sans-Serif" font-size="10.00">&#45; setExpToNextLevel()</text>
</a>
</g>
</g>
<!-- Node7&#45;&gt;Node13 -->
<g id="edge17" class="edge"><title>Node7&#45;&gt;Node13</title>
<path fill="none" stroke="midnightblue" d="M525.469,-525.743C531.088,-512.656 536.682,-499.625 541.829,-487.635"/>
<polygon fill="none" stroke="midnightblue" points="522.109,-524.698 521.38,-535.268 528.541,-527.46 522.109,-524.698"/>
</g>
<!-- Node8 -->
<g id="node6" class="node"><title>Node8</title>
<polygon fill="none" stroke="#bfbfbf" points="618,-990.5 618,-1047.5 647,-1047.5 647,-990.5 618,-990.5"/>
<text text-anchor="middle" x="632.5" y="-1035.5" font-family="Helvetica,sans-Serif" font-size="10.00">int</text>
<polyline fill="none" stroke="#bfbfbf" points="618,-1028.5 647,-1028.5 "/>
<text text-anchor="middle" x="632.5" y="-1016.5" font-family="Helvetica,sans-Serif" font-size="10.00"> </text>
<polyline fill="none" stroke="#bfbfbf" points="618,-1009.5 647,-1009.5 "/>
<text text-anchor="middle" x="632.5" y="-997.5" font-family="Helvetica,sans-Serif" font-size="10.00"> </text>
</g>
<!-- Node8&#45;&gt;Node4 -->
<g id="edge23" class="edge"><title>Node8&#45;&gt;Node4</title>
<path fill="none" stroke="#404040" d="M617.812,-1013.61C590.668,-1005.48 530.826,-987.505 480.5,-972 402.298,-947.906 312.297,-919.586 254.244,-901.242"/>
<polygon fill="none" stroke="#404040" points="254.156,-901.215 247.23,-903.22 242.714,-897.598 249.641,-895.592 254.156,-901.215"/>
<text text-anchor="middle" x="498" y="-958.5" font-family="Helvetica,sans-Serif" font-size="10.00"> #magic</text>
</g>
<!-- Node8&#45;&gt;Node7 -->
<g id="edge6" class="edge"><title>Node8&#45;&gt;Node7</title>
<path fill="none" stroke="#404040" d="M617.969,-1008.62C597.609,-994.614 561.114,-966.19 543.5,-932 502.336,-852.097 532.389,-819.876 513.5,-732 513.036,-729.84 512.553,-727.66 512.053,-725.464"/>
<polygon fill="none" stroke="#404040" points="512.014,-725.296 506.737,-720.382 509.244,-713.62 514.521,-718.535 512.014,-725.296"/>
<text text-anchor="middle" x="581" y="-917" font-family="Helvetica,sans-Serif" font-size="10.00"> #speed</text>
<text text-anchor="middle" x="581" y="-906" font-family="Helvetica,sans-Serif" font-size="10.00">#luck</text>
<text text-anchor="middle" x="581" y="-895" font-family="Helvetica,sans-Serif" font-size="10.00">#health</text>
<text text-anchor="middle" x="581" y="-884" font-family="Helvetica,sans-Serif" font-size="10.00">#magic</text>
<text text-anchor="middle" x="581" y="-873" font-family="Helvetica,sans-Serif" font-size="10.00">#maximumMagic</text>
<text text-anchor="middle" x="581" y="-862" font-family="Helvetica,sans-Serif" font-size="10.00">#attack</text>
<text text-anchor="middle" x="581" y="-851" font-family="Helvetica,sans-Serif" font-size="10.00">#defence</text>
<text text-anchor="middle" x="581" y="-840" font-family="Helvetica,sans-Serif" font-size="10.00">#level</text>
</g>
<!-- Node8&#45;&gt;Node10 -->
<g id="edge14" class="edge"><title>Node8&#45;&gt;Node10</title>
<path fill="none" stroke="#404040" d="M647.092,-993.965C650.53,-987.109 653.712,-979.468 655.5,-972 672.055,-902.841 656.278,-883.112 656.5,-812 657.108,-617.435 691.769,-559.667 630.5,-375 622.868,-351.997 610.981,-329.006 598.11,-308.122"/>
<polygon fill="none" stroke="#404040" points="597.945,-307.862 591.353,-304.938 591.518,-297.729 598.109,-300.653 597.945,-307.862"/>
<text text-anchor="middle" x="686" y="-622" font-family="Helvetica,sans-Serif" font-size="10.00"> +money</text>
</g>
<!-- Node8&#45;&gt;Node11 -->
<g id="edge13" class="edge"><title>Node8&#45;&gt;Node11</title>
<path fill="none" stroke="#404040" d="M647.246,-1009.52C659.559,-1001.55 676.366,-988.416 684.5,-972 768.594,-802.279 743.752,-565.04 729.439,-472.078"/>
<polygon fill="none" stroke="#404040" points="729.434,-472.044 724.539,-466.749 727.544,-460.194 732.439,-465.489 729.434,-472.044"/>
<text text-anchor="middle" x="764.5" y="-769.5" font-family="Helvetica,sans-Serif" font-size="10.00"> &#45;expGiven</text>
</g>
<!-- Node8&#45;&gt;Node13 -->
<g id="edge20" class="edge"><title>Node8&#45;&gt;Node13</title>
<path fill="none" stroke="#404040" d="M638.39,-990.364C645.133,-951.078 651.395,-878.479 618.5,-830 608.232,-814.868 591.523,-827.296 581.5,-812 548.952,-762.33 554.282,-594.71 560.303,-499.69"/>
<polygon fill="none" stroke="#404040" points="560.309,-499.603 556.711,-493.354 561.096,-487.629 564.693,-493.879 560.309,-499.603"/>
<text text-anchor="middle" x="619" y="-775" font-family="Helvetica,sans-Serif" font-size="10.00"> &#45;expToNextLevel</text>
<text text-anchor="middle" x="619" y="-764" font-family="Helvetica,sans-Serif" font-size="10.00">&#45;exp</text>
</g>
<!-- Node9 -->
<g id="node7" class="node"><title>Node9</title>
<polygon fill="none" stroke="#bfbfbf" points="432,-852.5 432,-909.5 493,-909.5 493,-852.5 432,-852.5"/>
<text text-anchor="middle" x="462.5" y="-897.5" font-family="Helvetica,sans-Serif" font-size="10.00">Texture2D</text>
<polyline fill="none" stroke="#bfbfbf" points="432,-890.5 493,-890.5 "/>
<text text-anchor="middle" x="462.5" y="-878.5" font-family="Helvetica,sans-Serif" font-size="10.00"> </text>
<polyline fill="none" stroke="#bfbfbf" points="432,-871.5 493,-871.5 "/>
<text text-anchor="middle" x="462.5" y="-859.5" font-family="Helvetica,sans-Serif" font-size="10.00"> </text>
</g>
<!-- Node9&#45;&gt;Node7 -->
<g id="edge8" class="edge"><title>Node9&#45;&gt;Node7</title>
<path fill="none" stroke="#404040" d="M464.787,-852.28C467.295,-821.886 471.465,-771.353 475.233,-725.693"/>
<polygon fill="none" stroke="#404040" points="475.245,-725.546 471.752,-719.238 476.232,-713.587 479.725,-719.896 475.245,-725.546"/>
<text text-anchor="middle" x="492" y="-769.5" font-family="Helvetica,sans-Serif" font-size="10.00"> #image</text>
</g>
<!-- Node10&#45;&gt;Node5 -->
<g id="edge9" class="edge"><title>Node10&#45;&gt;Node5</title>
<path fill="none" stroke="#404040" d="M475.27,-141.139C461.925,-125.745 447.053,-110.533 431.5,-98 414.778,-84.5253 394.368,-72.891 375.689,-63.711"/>
<polygon fill="none" stroke="#404040" points="375.471,-63.6076 368.335,-64.6448 364.633,-58.4565 371.769,-57.4193 375.471,-63.6076"/>
<text text-anchor="middle" x="464.5" y="-101" font-family="Helvetica,sans-Serif" font-size="10.00"> #manager</text>
</g>
<!-- Node11&#45;&gt;Node10 -->
<g id="edge11" class="edge"><title>Node11&#45;&gt;Node10</title>
<path fill="none" stroke="#404040" d="M712.311,-402.716C704.073,-382.592 691.123,-355.445 674.5,-335 653.869,-309.624 626.554,-286.285 601.462,-267.555"/>
<polygon fill="none" stroke="#404040" points="601.294,-267.432 594.089,-267.117 591.609,-260.346 598.813,-260.661 601.294,-267.432"/>
<text text-anchor="middle" x="706.5" y="-343.5" font-family="Helvetica,sans-Serif" font-size="10.00"> &#45;enemy</text>
</g>
<!-- Node12 -->
<g id="node10" class="node"><title>Node12</title>
<polygon fill="none" stroke="#bfbfbf" points="456,-403 456,-460 491,-460 491,-403 456,-403"/>
<text text-anchor="middle" x="473.5" y="-448" font-family="Helvetica,sans-Serif" font-size="10.00">bool</text>
<polyline fill="none" stroke="#bfbfbf" points="456,-441 491,-441 "/>
<text text-anchor="middle" x="473.5" y="-429" font-family="Helvetica,sans-Serif" font-size="10.00"> </text>
<polyline fill="none" stroke="#bfbfbf" points="456,-422 491,-422 "/>
<text text-anchor="middle" x="473.5" y="-410" font-family="Helvetica,sans-Serif" font-size="10.00"> </text>
</g>
<!-- Node12&#45;&gt;Node10 -->
<g id="edge15" class="edge"><title>Node12&#45;&gt;Node10</title>
<path fill="none" stroke="#404040" d="M473.272,-402.898C473.725,-383.588 475.574,-357.355 481.5,-335 482.108,-332.708 482.76,-330.404 483.452,-328.095"/>
<polygon fill="none" stroke="#404040" points="483.504,-327.936 481.557,-320.992 487.218,-316.525 489.164,-323.468 483.504,-327.936"/>
<text text-anchor="middle" x="514.5" y="-343.5" font-family="Helvetica,sans-Serif" font-size="10.00"> &#45;wasCriticalHit</text>
</g>
<!-- Node13&#45;&gt;Node10 -->
<g id="edge16" class="edge"><title>Node13&#45;&gt;Node10</title>
<path fill="none" stroke="#404040" d="M557.009,-375.439C554.795,-361.087 552.334,-345.128 549.862,-329.095"/>
<polygon fill="none" stroke="#404040" points="549.801,-328.704 544.934,-323.384 547.972,-316.845 552.84,-322.165 549.801,-328.704"/>
<text text-anchor="middle" x="570" y="-343.5" font-family="Helvetica,sans-Serif" font-size="10.00"> &#45;player</text>
</g>
<!-- Node14&#45;&gt;Node13 -->
<g id="edge18" class="edge"><title>Node14&#45;&gt;Node13</title>
<path fill="none" stroke="#404040" d="M382.628,-732.229C372.262,-682.235 362.351,-594.642 401.5,-535 426.144,-497.456 454.59,-511.74 498.974,-487.49"/>
<polygon fill="none" stroke="#404040" points="499.031,-487.456 502.121,-480.94 509.324,-481.287 506.233,-487.802 499.031,-487.456"/>
<text text-anchor="middle" x="414" y="-622" font-family="Helvetica,sans-Serif" font-size="10.00"> &#45;item</text>
</g>
<!-- Node15 -->
<g id="node13" class="node"><title>Node15</title>
<polygon fill="none" stroke="#bfbfbf" points="0,-990.5 0,-1047.5 35,-1047.5 35,-990.5 0,-990.5"/>
<text text-anchor="middle" x="17.5" y="-1035.5" font-family="Helvetica,sans-Serif" font-size="10.00">float</text>
<polyline fill="none" stroke="#bfbfbf" points="0,-1028.5 35,-1028.5 "/>
<text text-anchor="middle" x="17.5" y="-1016.5" font-family="Helvetica,sans-Serif" font-size="10.00"> </text>
<polyline fill="none" stroke="#bfbfbf" points="0,-1009.5 35,-1009.5 "/>
<text text-anchor="middle" x="17.5" y="-997.5" font-family="Helvetica,sans-Serif" font-size="10.00"> </text>
</g>
<!-- Node15&#45;&gt;Node4 -->
<g id="edge22" class="edge"><title>Node15&#45;&gt;Node4</title>
<path fill="none" stroke="#404040" d="M35.019,-1004.46C58.0669,-986.653 99.7296,-954.459 134.554,-927.549"/>
<polygon fill="none" stroke="#404040" points="134.679,-927.453 136.981,-920.619 144.174,-920.115 141.872,-926.949 134.679,-927.453"/>
<text text-anchor="middle" x="125.5" y="-958.5" font-family="Helvetica,sans-Serif" font-size="10.00"> #special</text>
</g>
</g>
</svg>
