<?xml version="1.0" encoding="UTF-8" standalone="no"?>
<!DOCTYPE svg PUBLIC "-//W3C//DTD SVG 1.1//EN"
 "http://www.w3.org/Graphics/SVG/1.1/DTD/svg11.dtd">
<!-- Generated by graphviz version 2.38.0 (20140413.2041)
 -->
<!-- Title: CarSpawner Pages: 1 -->
<svg width="91pt" height="204pt"
 viewBox="0.00 0.00 91.00 204.00" xmlns="http://www.w3.org/2000/svg" xmlns:xlink="http://www.w3.org/1999/xlink">
<g id="graph0" class="graph" transform="scale(1 1) rotate(0) translate(4 200)">
<title>CarSpawner</title>
<!-- Node0 -->
<g id="node1" class="node"><title>Node0</title>
<polygon fill="#bfbfbf" stroke="black" points="7,-0.5 7,-101.5 76,-101.5 76,-0.5 7,-0.5"/>
<text text-anchor="middle" x="41.5" y="-89.5" font-family="Helvetica,sans-Serif" font-size="10.00">CarSpawner</text>
<polyline fill="none" stroke="black" points="7,-82.5 76,-82.5 "/>
<text text-anchor="start" x="15" y="-70.5" font-family="Helvetica,sans-Serif" font-size="10.00">+ Facing</text>
<text text-anchor="start" x="15" y="-59.5" font-family="Helvetica,sans-Serif" font-size="10.00">+ Cars</text>
<text text-anchor="start" x="15" y="-48.5" font-family="Helvetica,sans-Serif" font-size="10.00">&#45; carSpeeds</text>
<polyline fill="none" stroke="black" points="7,-41.5 76,-41.5 "/>
<text text-anchor="start" x="15" y="-29.5" font-family="Helvetica,sans-Serif" font-size="10.00">+ Trigger()</text>
<text text-anchor="start" x="15" y="-18.5" font-family="Helvetica,sans-Serif" font-size="10.00">+ Harder()</text>
<text text-anchor="start" x="15" y="-7.5" font-family="Helvetica,sans-Serif" font-size="10.00">+ Restart()</text>
</g>
<!-- Node1 -->
<g id="node2" class="node"><title>Node1</title>
<g id="a_node2"><a xlink:href="class_mono_behaviour.html" target="_top" xlink:title="{MonoBehaviour\n||}">
<polygon fill="none" stroke="black" points="0,-138.5 0,-195.5 83,-195.5 83,-138.5 0,-138.5"/>
<text text-anchor="middle" x="41.5" y="-183.5" font-family="Helvetica,sans-Serif" font-size="10.00">MonoBehaviour</text>
<polyline fill="none" stroke="black" points="0,-176.5 83,-176.5 "/>
<text text-anchor="middle" x="41.5" y="-164.5" font-family="Helvetica,sans-Serif" font-size="10.00"> </text>
<polyline fill="none" stroke="black" points="0,-157.5 83,-157.5 "/>
<text text-anchor="middle" x="41.5" y="-145.5" font-family="Helvetica,sans-Serif" font-size="10.00"> </text>
</a>
</g>
</g>
<!-- Node1&#45;&gt;Node0 -->
<g id="edge1" class="edge"><title>Node1&#45;&gt;Node0</title>
<path fill="none" stroke="midnightblue" d="M41.5,-128.354C41.5,-119.796 41.5,-110.578 41.5,-101.608"/>
<polygon fill="none" stroke="midnightblue" points="38.0001,-128.404 41.5,-138.404 45.0001,-128.404 38.0001,-128.404"/>
</g>
</g>
</svg>
