<?xml version="1.0" encoding="UTF-8" standalone="no"?>
<!DOCTYPE svg PUBLIC "-//W3C//DTD SVG 1.1//EN"
 "http://www.w3.org/Graphics/SVG/1.1/DTD/svg11.dtd">
<!-- Generated by graphviz version 2.38.0 (20140413.2041)
 -->
<!-- Title: QuestDef Pages: 1 -->
<svg width="206pt" height="204pt"
 viewBox="0.00 0.00 205.50 204.00" xmlns="http://www.w3.org/2000/svg" xmlns:xlink="http://www.w3.org/1999/xlink">
<g id="graph0" class="graph" transform="scale(1 1) rotate(0) translate(4 200)">
<title>QuestDef</title>
<!-- Node1 -->
<g id="node1" class="node"><title>Node1</title>
<polygon fill="#bfbfbf" stroke="black" points="87,-0.5 87,-79.5 159,-79.5 159,-0.5 87,-0.5"/>
<text text-anchor="middle" x="123" y="-67.5" font-family="Helvetica,sans-Serif" font-size="10.00">QuestDef</text>
<polyline fill="none" stroke="black" points="87,-60.5 159,-60.5 "/>
<text text-anchor="start" x="95" y="-48.5" font-family="Helvetica,sans-Serif" font-size="10.00">+ Type</text>
<text text-anchor="start" x="95" y="-37.5" font-family="Helvetica,sans-Serif" font-size="10.00">+ Data</text>
<text text-anchor="start" x="95" y="-26.5" font-family="Helvetica,sans-Serif" font-size="10.00">+ Desc</text>
<polyline fill="none" stroke="black" points="87,-19.5 159,-19.5 "/>
<text text-anchor="start" x="95" y="-7.5" font-family="Helvetica,sans-Serif" font-size="10.00">+ QuestDef()</text>
</g>
<!-- Node2 -->
<g id="node2" class="node"><title>Node2</title>
<polygon fill="none" stroke="#bfbfbf" points="0,-127.5 0,-195.5 138,-195.5 138,-127.5 0,-127.5"/>
<text text-anchor="start" x="8" y="-183.5" font-family="Helvetica,sans-Serif" font-size="10.00">KeyValuePair&lt; questTypes,</text>
<text text-anchor="middle" x="69" y="-172.5" font-family="Helvetica,sans-Serif" font-size="10.00"> string &gt;</text>
<polyline fill="none" stroke="#bfbfbf" points="0,-165.5 138,-165.5 "/>
<text text-anchor="middle" x="69" y="-153.5" font-family="Helvetica,sans-Serif" font-size="10.00"> </text>
<polyline fill="none" stroke="#bfbfbf" points="0,-146.5 138,-146.5 "/>
<text text-anchor="middle" x="69" y="-134.5" font-family="Helvetica,sans-Serif" font-size="10.00"> </text>
</g>
<!-- Node2&#45;&gt;Node1 -->
<g id="edge1" class="edge"><title>Node2&#45;&gt;Node1</title>
<path fill="none" stroke="#404040" d="M84.042,-127.213C89.1551,-115.897 94.9853,-102.996 100.55,-90.6812"/>
<polygon fill="none" stroke="#404040" points="100.616,-90.535 99.4416,-83.4202 105.557,-79.5997 106.732,-86.7146 100.616,-90.535"/>
<text text-anchor="middle" x="107" y="-101" font-family="Helvetica,sans-Serif" font-size="10.00"> &#45;pair</text>
</g>
<!-- Node3 -->
<g id="node3" class="node"><title>Node3</title>
<polygon fill="none" stroke="#bfbfbf" points="156.5,-133 156.5,-190 197.5,-190 197.5,-133 156.5,-133"/>
<text text-anchor="middle" x="177" y="-178" font-family="Helvetica,sans-Serif" font-size="10.00">string</text>
<polyline fill="none" stroke="#bfbfbf" points="156.5,-171 197.5,-171 "/>
<text text-anchor="middle" x="177" y="-159" font-family="Helvetica,sans-Serif" font-size="10.00"> </text>
<polyline fill="none" stroke="#bfbfbf" points="156.5,-152 197.5,-152 "/>
<text text-anchor="middle" x="177" y="-140" font-family="Helvetica,sans-Serif" font-size="10.00"> </text>
</g>
<!-- Node3&#45;&gt;Node1 -->
<g id="edge2" class="edge"><title>Node3&#45;&gt;Node1</title>
<path fill="none" stroke="#404040" d="M164.476,-132.784C158.87,-120.38 152.083,-105.36 145.637,-91.0951"/>
<polygon fill="none" stroke="#404040" points="145.511,-90.8161 139.395,-86.9957 140.57,-79.8808 146.685,-83.7013 145.511,-90.8161"/>
<text text-anchor="middle" x="168" y="-101" font-family="Helvetica,sans-Serif" font-size="10.00"> &#45;desc</text>
</g>
</g>
</svg>
