<?xml version="1.0" encoding="UTF-8" standalone="no"?>
<!DOCTYPE svg PUBLIC "-//W3C//DTD SVG 1.1//EN"
 "http://www.w3.org/Graphics/SVG/1.1/DTD/svg11.dtd">
<!-- Generated by graphviz version 2.38.0 (20140413.2041)
 -->
<!-- Title: QuestInstances Pages: 1 -->
<svg width="200pt" height="182pt"
 viewBox="0.00 0.00 200.00 182.00" xmlns="http://www.w3.org/2000/svg" xmlns:xlink="http://www.w3.org/1999/xlink">
<g id="graph0" class="graph" transform="scale(1 1) rotate(0) translate(4 178)">
<title>QuestInstances</title>
<!-- Node2 -->
<g id="node1" class="node"><title>Node2</title>
<polygon fill="#bfbfbf" stroke="black" points="51,-0.5 51,-57.5 136,-57.5 136,-0.5 51,-0.5"/>
<text text-anchor="middle" x="93.5" y="-45.5" font-family="Helvetica,sans-Serif" font-size="10.00">QuestInstances</text>
<polyline fill="none" stroke="black" points="51,-38.5 136,-38.5 "/>
<text text-anchor="middle" x="93.5" y="-26.5" font-family="Helvetica,sans-Serif" font-size="10.00"> </text>
<polyline fill="none" stroke="black" points="51,-19.5 136,-19.5 "/>
<text text-anchor="start" x="59" y="-7.5" font-family="Helvetica,sans-Serif" font-size="10.00">&#45; Start()</text>
</g>
<!-- Node3 -->
<g id="node2" class="node"><title>Node3</title>
<g id="a_node2"><a xlink:href="class_mono_behaviour.html" target="_top" xlink:title="{MonoBehaviour\n||}">
<polygon fill="none" stroke="black" points="0,-111 0,-168 83,-168 83,-111 0,-111"/>
<text text-anchor="middle" x="41.5" y="-156" font-family="Helvetica,sans-Serif" font-size="10.00">MonoBehaviour</text>
<polyline fill="none" stroke="black" points="0,-149 83,-149 "/>
<text text-anchor="middle" x="41.5" y="-137" font-family="Helvetica,sans-Serif" font-size="10.00"> </text>
<polyline fill="none" stroke="black" points="0,-130 83,-130 "/>
<text text-anchor="middle" x="41.5" y="-118" font-family="Helvetica,sans-Serif" font-size="10.00"> </text>
</a>
</g>
</g>
<!-- Node3&#45;&gt;Node2 -->
<g id="edge1" class="edge"><title>Node3&#45;&gt;Node2</title>
<path fill="none" stroke="midnightblue" d="M59.1481,-101.677C66.0603,-87.2541 73.8536,-70.993 80.2679,-57.6094"/>
<polygon fill="none" stroke="midnightblue" points="55.9221,-100.31 54.7563,-110.84 62.2345,-103.335 55.9221,-100.31"/>
</g>
<!-- Node4 -->
<g id="node3" class="node"><title>Node4</title>
<polygon fill="none" stroke="#bfbfbf" points="101,-105.5 101,-173.5 192,-173.5 192,-105.5 101,-105.5"/>
<text text-anchor="start" x="109" y="-161.5" font-family="Helvetica,sans-Serif" font-size="10.00">static IDictionary</text>
<text text-anchor="middle" x="146.5" y="-150.5" font-family="Helvetica,sans-Serif" font-size="10.00">&lt; string, Quest &gt;</text>
<polyline fill="none" stroke="#bfbfbf" points="101,-143.5 192,-143.5 "/>
<text text-anchor="middle" x="146.5" y="-131.5" font-family="Helvetica,sans-Serif" font-size="10.00"> </text>
<polyline fill="none" stroke="#bfbfbf" points="101,-124.5 192,-124.5 "/>
<text text-anchor="middle" x="146.5" y="-112.5" font-family="Helvetica,sans-Serif" font-size="10.00"> </text>
</g>
<!-- Node4&#45;&gt;Node2 -->
<g id="edge2" class="edge"><title>Node4&#45;&gt;Node2</title>
<path fill="none" stroke="#404040" d="M130.31,-105.357C124.681,-93.8335 118.317,-80.8049 112.483,-68.8612"/>
<polygon fill="none" stroke="#404040" points="112.36,-68.6093 106.132,-64.9738 107.093,-57.827 113.321,-61.4625 112.36,-68.6093"/>
<text text-anchor="middle" x="133.5" y="-79" font-family="Helvetica,sans-Serif" font-size="10.00"> +defs</text>
</g>
</g>
</svg>
