<?xml version="1.0" encoding="UTF-8" standalone="no"?>
<!DOCTYPE svg PUBLIC "-//W3C//DTD SVG 1.1//EN"
 "http://www.w3.org/Graphics/SVG/1.1/DTD/svg11.dtd">
<!-- Generated by graphviz version 2.38.0 (20140413.2041)
 -->
<!-- Title: CarController Pages: 1 -->
<svg width="817pt" height="612pt"
 viewBox="0.00 0.00 817.00 612.00" xmlns="http://www.w3.org/2000/svg" xmlns:xlink="http://www.w3.org/1999/xlink">
<g id="graph0" class="graph" transform="scale(1 1) rotate(0) translate(4 608)">
<title>CarController</title>
<!-- Node2 -->
<g id="node1" class="node"><title>Node2</title>
<polygon fill="#bfbfbf" stroke="black" points="576.5,-0.5 576.5,-101.5 668.5,-101.5 668.5,-0.5 576.5,-0.5"/>
<text text-anchor="middle" x="622.5" y="-89.5" font-family="Helvetica,sans-Serif" font-size="10.00">CarController</text>
<polyline fill="none" stroke="black" points="576.5,-82.5 668.5,-82.5 "/>
<text text-anchor="middle" x="622.5" y="-70.5" font-family="Helvetica,sans-Serif" font-size="10.00"> </text>
<polyline fill="none" stroke="black" points="576.5,-63.5 668.5,-63.5 "/>
<text text-anchor="start" x="584.5" y="-51.5" font-family="Helvetica,sans-Serif" font-size="10.00">+ OnGUI()</text>
<text text-anchor="start" x="584.5" y="-40.5" font-family="Helvetica,sans-Serif" font-size="10.00">+ ChangeSpeed()</text>
<text text-anchor="start" x="584.5" y="-29.5" font-family="Helvetica,sans-Serif" font-size="10.00">+ Restart()</text>
<text text-anchor="start" x="584.5" y="-18.5" font-family="Helvetica,sans-Serif" font-size="10.00">&#45; Start()</text>
<text text-anchor="start" x="584.5" y="-7.5" font-family="Helvetica,sans-Serif" font-size="10.00">&#45; FixedUpdate()</text>
</g>
<!-- Node3 -->
<g id="node2" class="node"><title>Node3</title>
<g id="a_node2"><a xlink:href="class_mono_behaviour.html" target="_top" xlink:title="{MonoBehaviour\n||}">
<polygon fill="none" stroke="black" points="0,-546.5 0,-603.5 83,-603.5 83,-546.5 0,-546.5"/>
<text text-anchor="middle" x="41.5" y="-591.5" font-family="Helvetica,sans-Serif" font-size="10.00">MonoBehaviour</text>
<polyline fill="none" stroke="black" points="0,-584.5 83,-584.5 "/>
<text text-anchor="middle" x="41.5" y="-572.5" font-family="Helvetica,sans-Serif" font-size="10.00"> </text>
<polyline fill="none" stroke="black" points="0,-565.5 83,-565.5 "/>
<text text-anchor="middle" x="41.5" y="-553.5" font-family="Helvetica,sans-Serif" font-size="10.00"> </text>
</a>
</g>
</g>
<!-- Node3&#45;&gt;Node2 -->
<g id="edge1" class="edge"><title>Node3&#45;&gt;Node2</title>
<path fill="none" stroke="midnightblue" d="M34.0089,-536.186C26.4721,-487.553 20.5225,-402.197 56.5,-342 172.051,-148.66 462.858,-79.3027 576.231,-59.1036"/>
<polygon fill="none" stroke="midnightblue" points="30.5925,-536.979 35.6777,-546.274 37.4986,-535.836 30.5925,-536.979"/>
</g>
<!-- Node5 -->
<g id="node4" class="node"><title>Node5</title>
<g id="a_node4"><a xlink:href="class_scene_changer.html" target="_top" xlink:title="A set of functions to be called to change scenes smoothly whilst handling the player&#39;s location and a...">
<polygon fill="none" stroke="black" points="441.5,-149.5 441.5,-283.5 539.5,-283.5 539.5,-149.5 441.5,-149.5"/>
<text text-anchor="middle" x="490.5" y="-271.5" font-family="Helvetica,sans-Serif" font-size="10.00">SceneChanger</text>
<polyline fill="none" stroke="black" points="441.5,-264.5 539.5,-264.5 "/>
<text text-anchor="middle" x="490.5" y="-252.5" font-family="Helvetica,sans-Serif" font-size="10.00"> </text>
<polyline fill="none" stroke="black" points="441.5,-245.5 539.5,-245.5 "/>
<text text-anchor="start" x="449.5" y="-233.5" font-family="Helvetica,sans-Serif" font-size="10.00">+ hidePlayer()</text>
<text text-anchor="start" x="449.5" y="-222.5" font-family="Helvetica,sans-Serif" font-size="10.00">+ loadLevel()</text>
<text text-anchor="start" x="449.5" y="-211.5" font-family="Helvetica,sans-Serif" font-size="10.00">+ loadLevel()</text>
<text text-anchor="start" x="449.5" y="-200.5" font-family="Helvetica,sans-Serif" font-size="10.00">+ changePosition()</text>
<text text-anchor="start" x="449.5" y="-189.5" font-family="Helvetica,sans-Serif" font-size="10.00">&#45; Awake()</text>
<text text-anchor="start" x="449.5" y="-178.5" font-family="Helvetica,sans-Serif" font-size="10.00">&#45; OnDisable()</text>
<text text-anchor="start" x="449.5" y="-167.5" font-family="Helvetica,sans-Serif" font-size="10.00">&#45; sceneChanged()</text>
<text text-anchor="start" x="449.5" y="-156.5" font-family="Helvetica,sans-Serif" font-size="10.00">&#45; changeScene()</text>
</a>
</g>
</g>
<!-- Node3&#45;&gt;Node5 -->
<g id="edge4" class="edge"><title>Node3&#45;&gt;Node5</title>
<path fill="none" stroke="midnightblue" d="M46.0536,-536.379C54.1529,-485.514 75.7179,-395.079 130.5,-342 169.364,-304.344 192.635,-313.564 245.5,-302 327.067,-284.158 358.239,-322.168 432.5,-284 435.498,-282.459 438.408,-280.692 441.225,-278.749"/>
<polygon fill="none" stroke="midnightblue" points="42.5872,-535.895 44.5649,-546.303 49.5097,-536.933 42.5872,-535.895"/>
</g>
<!-- Node9 -->
<g id="node8" class="node"><title>Node9</title>
<g id="a_node8"><a xlink:href="class_player_movement.html" target="_top" xlink:title="A script to control the movement and animations of the player">
<polygon fill="none" stroke="black" points="266,-342.5 266,-476.5 371,-476.5 371,-342.5 266,-342.5"/>
<text text-anchor="middle" x="318.5" y="-464.5" font-family="Helvetica,sans-Serif" font-size="10.00">PlayerMovement</text>
<polyline fill="none" stroke="black" points="266,-457.5 371,-457.5 "/>
<text text-anchor="middle" x="318.5" y="-445.5" font-family="Helvetica,sans-Serif" font-size="10.00"> </text>
<polyline fill="none" stroke="black" points="266,-438.5 371,-438.5 "/>
<text text-anchor="start" x="274" y="-426.5" font-family="Helvetica,sans-Serif" font-size="10.00">+ move()</text>
<text text-anchor="start" x="274" y="-415.5" font-family="Helvetica,sans-Serif" font-size="10.00">+ setCanMove()</text>
<text text-anchor="start" x="274" y="-404.5" font-family="Helvetica,sans-Serif" font-size="10.00">&#45; Start()</text>
<text text-anchor="start" x="274" y="-393.5" font-family="Helvetica,sans-Serif" font-size="10.00">&#45; FixedUpdate()</text>
<text text-anchor="start" x="274" y="-382.5" font-family="Helvetica,sans-Serif" font-size="10.00">&#45; explorationMenu()</text>
<text text-anchor="start" x="274" y="-371.5" font-family="Helvetica,sans-Serif" font-size="10.00">&#45; randomEncounter()</text>
<text text-anchor="start" x="274" y="-360.5" font-family="Helvetica,sans-Serif" font-size="10.00">&#45; walkAnimation()</text>
<text text-anchor="start" x="274" y="-349.5" font-family="Helvetica,sans-Serif" font-size="10.00">&#45; setIdle()</text>
</a>
</g>
</g>
<!-- Node3&#45;&gt;Node9 -->
<g id="edge10" class="edge"><title>Node3&#45;&gt;Node9</title>
<path fill="none" stroke="midnightblue" d="M81.8321,-539.616C100.035,-524.939 122.197,-508.191 143.5,-495 182.798,-470.667 230.153,-448.177 265.688,-432.527"/>
<polygon fill="none" stroke="midnightblue" points="79.3033,-537.162 73.7647,-546.194 83.7268,-542.587 79.3033,-537.162"/>
</g>
<!-- Node4 -->
<g id="node3" class="node"><title>Node4</title>
<polygon fill="none" stroke="#bfbfbf" points="365.5,-188 365.5,-245 423.5,-245 423.5,-188 365.5,-188"/>
<text text-anchor="middle" x="394.5" y="-233" font-family="Helvetica,sans-Serif" font-size="10.00">AudioClip</text>
<polyline fill="none" stroke="#bfbfbf" points="365.5,-226 423.5,-226 "/>
<text text-anchor="middle" x="394.5" y="-214" font-family="Helvetica,sans-Serif" font-size="10.00"> </text>
<polyline fill="none" stroke="#bfbfbf" points="365.5,-207 423.5,-207 "/>
<text text-anchor="middle" x="394.5" y="-195" font-family="Helvetica,sans-Serif" font-size="10.00"> </text>
</g>
<!-- Node4&#45;&gt;Node2 -->
<g id="edge2" class="edge"><title>Node4&#45;&gt;Node2</title>
<path fill="none" stroke="#404040" d="M405.825,-187.803C412.186,-174.805 421.147,-159.831 432.5,-149 470.264,-112.974 524.026,-87.2181 564.729,-71.3416"/>
<polygon fill="none" stroke="#404040" points="564.886,-71.2823 569.078,-65.4145 576.106,-67.0269 571.914,-72.8946 564.886,-71.2823"/>
<text text-anchor="middle" x="482" y="-123" font-family="Helvetica,sans-Serif" font-size="10.00"> &#45;SFX</text>
</g>
<!-- Node5&#45;&gt;Node2 -->
<g id="edge3" class="edge"><title>Node5&#45;&gt;Node2</title>
<path fill="none" stroke="#404040" d="M539.652,-154.619C551.087,-140.455 563.245,-125.396 574.623,-111.302"/>
<polygon fill="none" stroke="#404040" points="574.82,-111.058 575.477,-103.877 582.358,-101.721 581.701,-108.902 574.82,-111.058"/>
<text text-anchor="middle" x="599" y="-123" font-family="Helvetica,sans-Serif" font-size="10.00"> &#45;sceneChanger</text>
</g>
<!-- Node5&#45;&gt;Node5 -->
<g id="edge5" class="edge"><title>Node5&#45;&gt;Node5</title>
<path fill="none" stroke="#404040" d="M539.58,-232.83C549.986,-231.172 557.5,-225.729 557.5,-216.5 557.5,-211.165 554.989,-207.095 550.859,-204.29"/>
<polygon fill="none" stroke="#404040" points="550.852,-204.287 543.844,-205.986 539.58,-200.17 546.589,-198.471 550.852,-204.287"/>
<text text-anchor="middle" x="580.5" y="-214" font-family="Helvetica,sans-Serif" font-size="10.00"> +instance</text>
</g>
<!-- Node6 -->
<g id="node5" class="node"><title>Node6</title>
<polygon fill="none" stroke="#bfbfbf" points="538,-546.5 538,-603.5 579,-603.5 579,-546.5 538,-546.5"/>
<text text-anchor="middle" x="558.5" y="-591.5" font-family="Helvetica,sans-Serif" font-size="10.00">string</text>
<polyline fill="none" stroke="#bfbfbf" points="538,-584.5 579,-584.5 "/>
<text text-anchor="middle" x="558.5" y="-572.5" font-family="Helvetica,sans-Serif" font-size="10.00"> </text>
<polyline fill="none" stroke="#bfbfbf" points="538,-565.5 579,-565.5 "/>
<text text-anchor="middle" x="558.5" y="-553.5" font-family="Helvetica,sans-Serif" font-size="10.00"> </text>
</g>
<!-- Node6&#45;&gt;Node5 -->
<g id="edge6" class="edge"><title>Node6&#45;&gt;Node5</title>
<path fill="none" stroke="#404040" d="M579.06,-562.377C590.943,-554.405 604.825,-542.632 611.5,-528 617.587,-514.656 618.726,-507.763 611.5,-495 603.839,-481.469 591.066,-489.259 581.5,-477 542.925,-427.563 561.315,-401.15 540.5,-342 535.087,-326.618 528.895,-310.338 522.756,-294.802"/>
<polygon fill="none" stroke="#404040" points="522.751,-294.791 516.813,-290.699 518.306,-283.644 524.244,-287.736 522.751,-294.791"/>
<text text-anchor="middle" x="612" y="-407" font-family="Helvetica,sans-Serif" font-size="10.00"> +menuScene</text>
</g>
<!-- Node6&#45;&gt;Node9 -->
<g id="edge11" class="edge"><title>Node6&#45;&gt;Node9</title>
<path fill="none" stroke="#404040" d="M537.766,-556.613C517.721,-540.088 486.247,-514.879 457.5,-495 433.32,-478.28 405.822,-461.186 381.702,-446.786"/>
<polygon fill="none" stroke="#404040" points="381.559,-446.702 374.358,-447.082 371.237,-440.581 378.439,-440.201 381.559,-446.702"/>
<text text-anchor="middle" x="523" y="-509" font-family="Helvetica,sans-Serif" font-size="10.00"> &#45;lastMove</text>
</g>
<!-- Node7 -->
<g id="node6" class="node"><title>Node7</title>
<polygon fill="none" stroke="#bfbfbf" points="652,-381 652,-438 723,-438 723,-381 652,-381"/>
<text text-anchor="middle" x="687.5" y="-426" font-family="Helvetica,sans-Serif" font-size="10.00">GameObject</text>
<polyline fill="none" stroke="#bfbfbf" points="652,-419 723,-419 "/>
<text text-anchor="middle" x="687.5" y="-407" font-family="Helvetica,sans-Serif" font-size="10.00"> </text>
<polyline fill="none" stroke="#bfbfbf" points="652,-400 723,-400 "/>
<text text-anchor="middle" x="687.5" y="-388" font-family="Helvetica,sans-Serif" font-size="10.00"> </text>
</g>
<!-- Node7&#45;&gt;Node2 -->
<g id="edge18" class="edge"><title>Node7&#45;&gt;Node2</title>
<path fill="none" stroke="#404040" d="M683.158,-380.976C674.953,-329.567 656.301,-215.513 637.5,-120 637.08,-117.869 636.646,-115.701 636.201,-113.514"/>
<polygon fill="none" stroke="#404040" points="636.189,-113.457 631.048,-108.4 633.739,-101.71 638.88,-106.767 636.189,-113.457"/>
<text text-anchor="middle" x="693.5" y="-214" font-family="Helvetica,sans-Serif" font-size="10.00"> +Spawners</text>
</g>
<!-- Node7&#45;&gt;Node5 -->
<g id="edge7" class="edge"><title>Node7&#45;&gt;Node5</title>
<path fill="none" stroke="#404040" d="M668.846,-380.871C659.952,-368.474 648.801,-353.976 637.5,-342 622.237,-325.825 583.158,-292.854 549.128,-264.904"/>
<polygon fill="none" stroke="#404040" points="548.971,-264.776 541.795,-264.069 539.687,-257.172 546.864,-257.88 548.971,-264.776"/>
<text text-anchor="middle" x="634" y="-310.5" font-family="Helvetica,sans-Serif" font-size="10.00"> &#45;player</text>
</g>
<!-- Node8 -->
<g id="node7" class="node"><title>Node8</title>
<polygon fill="none" stroke="#bfbfbf" points="106.5,-546.5 106.5,-603.5 156.5,-603.5 156.5,-546.5 106.5,-546.5"/>
<text text-anchor="middle" x="131.5" y="-591.5" font-family="Helvetica,sans-Serif" font-size="10.00">Vector2</text>
<polyline fill="none" stroke="#bfbfbf" points="106.5,-584.5 156.5,-584.5 "/>
<text text-anchor="middle" x="131.5" y="-572.5" font-family="Helvetica,sans-Serif" font-size="10.00"> </text>
<polyline fill="none" stroke="#bfbfbf" points="106.5,-565.5 156.5,-565.5 "/>
<text text-anchor="middle" x="131.5" y="-553.5" font-family="Helvetica,sans-Serif" font-size="10.00"> </text>
</g>
<!-- Node8&#45;&gt;Node5 -->
<g id="edge8" class="edge"><title>Node8&#45;&gt;Node5</title>
<path fill="none" stroke="#404040" d="M130.017,-546.433C129.017,-497.577 134.548,-395.879 192.5,-342 210.944,-324.852 378.001,-302.304 430.241,-283.027"/>
<polygon fill="none" stroke="#404040" points="430.402,-282.953 434.185,-276.814 441.307,-277.944 437.524,-284.083 430.402,-282.953"/>
<text text-anchor="middle" x="224.5" y="-407" font-family="Helvetica,sans-Serif" font-size="10.00"> +startPosition</text>
</g>
<!-- Node8&#45;&gt;Node9 -->
<g id="edge14" class="edge"><title>Node8&#45;&gt;Node9</title>
<path fill="none" stroke="#404040" d="M138.905,-546.266C144.392,-529.855 153.246,-509.509 166.5,-495 190.516,-468.711 224.662,-448.71 254.509,-434.784"/>
<polygon fill="none" stroke="#404040" points="254.765,-434.669 258.595,-428.558 265.708,-429.743 261.878,-435.853 254.765,-434.669"/>
<text text-anchor="middle" x="205" y="-509" font-family="Helvetica,sans-Serif" font-size="10.00"> &#45;previousPosition</text>
</g>
<!-- Node9&#45;&gt;Node5 -->
<g id="edge9" class="edge"><title>Node9&#45;&gt;Node5</title>
<path fill="none" stroke="#404040" d="M351.501,-342.498C361.214,-327.719 372.94,-313.141 386.5,-302 401.144,-289.969 411.406,-294.712 431.177,-283.693"/>
<polygon fill="none" stroke="#404040" points="431.255,-283.643 434.131,-277.031 441.342,-277.142 438.465,-283.755 431.255,-283.643"/>
<text text-anchor="middle" x="424.5" y="-310.5" font-family="Helvetica,sans-Serif" font-size="10.00"> &#45;movementScript</text>
</g>
<!-- Node10 -->
<g id="node9" class="node"><title>Node10</title>
<polygon fill="none" stroke="#bfbfbf" points="405.5,-546.5 405.5,-603.5 461.5,-603.5 461.5,-546.5 405.5,-546.5"/>
<text text-anchor="middle" x="433.5" y="-591.5" font-family="Helvetica,sans-Serif" font-size="10.00">Animator</text>
<polyline fill="none" stroke="#bfbfbf" points="405.5,-584.5 461.5,-584.5 "/>
<text text-anchor="middle" x="433.5" y="-572.5" font-family="Helvetica,sans-Serif" font-size="10.00"> </text>
<polyline fill="none" stroke="#bfbfbf" points="405.5,-565.5 461.5,-565.5 "/>
<text text-anchor="middle" x="433.5" y="-553.5" font-family="Helvetica,sans-Serif" font-size="10.00"> </text>
</g>
<!-- Node10&#45;&gt;Node9 -->
<g id="edge12" class="edge"><title>Node10&#45;&gt;Node9</title>
<path fill="none" stroke="#404040" d="M429.672,-546.135C426.563,-530.263 421.063,-510.513 411.5,-495 403.108,-481.386 391.895,-468.639 380.165,-457.38"/>
<polygon fill="none" stroke="#404040" points="379.964,-457.195 372.84,-456.076 371.133,-449.07 378.257,-450.188 379.964,-457.195"/>
<text text-anchor="middle" x="439.5" y="-509" font-family="Helvetica,sans-Serif" font-size="10.00"> &#45;anim</text>
</g>
<!-- Node11 -->
<g id="node10" class="node"><title>Node11</title>
<polygon fill="none" stroke="#bfbfbf" points="647,-546.5 647,-603.5 682,-603.5 682,-546.5 647,-546.5"/>
<text text-anchor="middle" x="664.5" y="-591.5" font-family="Helvetica,sans-Serif" font-size="10.00">float</text>
<polyline fill="none" stroke="#bfbfbf" points="647,-584.5 682,-584.5 "/>
<text text-anchor="middle" x="664.5" y="-572.5" font-family="Helvetica,sans-Serif" font-size="10.00"> </text>
<polyline fill="none" stroke="#bfbfbf" points="647,-565.5 682,-565.5 "/>
<text text-anchor="middle" x="664.5" y="-553.5" font-family="Helvetica,sans-Serif" font-size="10.00"> </text>
</g>
<!-- Node11&#45;&gt;Node2 -->
<g id="edge19" class="edge"><title>Node11&#45;&gt;Node2</title>
<path fill="none" stroke="#404040" d="M682.207,-555.811C698.609,-537.586 721.874,-507.872 731.5,-477 743.388,-438.872 727.358,-157.558 723.5,-149 713.46,-126.729 695.741,-106.997 677.918,-91.2413"/>
<polygon fill="none" stroke="#404040" points="677.785,-91.1285 670.621,-90.3027 668.628,-83.3725 675.792,-84.1983 677.785,-91.1285"/>
<text text-anchor="middle" x="745.5" y="-316" font-family="Helvetica,sans-Serif" font-size="10.00"> &#45;spd</text>
<text text-anchor="middle" x="745.5" y="-305" font-family="Helvetica,sans-Serif" font-size="10.00">&#45;tick</text>
</g>
<!-- Node11&#45;&gt;Node9 -->
<g id="edge13" class="edge"><title>Node11&#45;&gt;Node9</title>
<path fill="none" stroke="#404040" d="M646.776,-558.282C625.303,-540.125 587.29,-510.737 549.5,-495 509.829,-478.48 495.278,-490.56 454.5,-477 429.96,-468.84 404.192,-457.128 381.766,-445.8"/>
<polygon fill="none" stroke="#404040" points="381.717,-445.775 374.552,-446.589 371.045,-440.288 378.21,-439.474 381.717,-445.775"/>
<text text-anchor="middle" x="623" y="-509" font-family="Helvetica,sans-Serif" font-size="10.00"> &#45;speed</text>
</g>
<!-- Node12 -->
<g id="node11" class="node"><title>Node12</title>
<polygon fill="none" stroke="#bfbfbf" points="320,-546.5 320,-603.5 355,-603.5 355,-546.5 320,-546.5"/>
<text text-anchor="middle" x="337.5" y="-591.5" font-family="Helvetica,sans-Serif" font-size="10.00">bool</text>
<polyline fill="none" stroke="#bfbfbf" points="320,-584.5 355,-584.5 "/>
<text text-anchor="middle" x="337.5" y="-572.5" font-family="Helvetica,sans-Serif" font-size="10.00"> </text>
<polyline fill="none" stroke="#bfbfbf" points="320,-565.5 355,-565.5 "/>
<text text-anchor="middle" x="337.5" y="-553.5" font-family="Helvetica,sans-Serif" font-size="10.00"> </text>
</g>
<!-- Node12&#45;&gt;Node5 -->
<g id="edge17" class="edge"><title>Node12&#45;&gt;Node5</title>
<path fill="none" stroke="#404040" d="M355.258,-564.679C366.808,-558.841 382.308,-551.423 396.5,-546 422.904,-535.91 439.446,-549.75 457.5,-528 484.038,-496.031 472.067,-383.311 476.5,-342 478.102,-327.068 479.858,-311.135 481.569,-295.826"/>
<polygon fill="none" stroke="#404040" points="481.59,-295.639 478.284,-289.231 482.928,-283.714 486.234,-290.122 481.59,-295.639"/>
<text text-anchor="middle" x="506.5" y="-412.5" font-family="Helvetica,sans-Serif" font-size="10.00"> +movePlayer</text>
<text text-anchor="middle" x="506.5" y="-401.5" font-family="Helvetica,sans-Serif" font-size="10.00">+menuOpen</text>
</g>
<!-- Node12&#45;&gt;Node9 -->
<g id="edge15" class="edge"><title>Node12&#45;&gt;Node9</title>
<path fill="none" stroke="#404040" d="M319.812,-559.324C311.319,-551.107 302.023,-540.093 297.5,-528 292.86,-515.591 291.846,-502.053 292.938,-488.722"/>
<polygon fill="none" stroke="#404040" points="292.969,-488.48 289.761,-482.022 294.489,-476.577 297.697,-483.035 292.969,-488.48"/>
<text text-anchor="middle" x="354.5" y="-520" font-family="Helvetica,sans-Serif" font-size="10.00"> &#45;playerExists</text>
<text text-anchor="middle" x="354.5" y="-509" font-family="Helvetica,sans-Serif" font-size="10.00">+pseudoEscapeKeyPress</text>
<text text-anchor="middle" x="354.5" y="-498" font-family="Helvetica,sans-Serif" font-size="10.00">&#45;canMove</text>
</g>
<!-- Node13 -->
<g id="node12" class="node"><title>Node13</title>
<polygon fill="none" stroke="#bfbfbf" points="211,-546.5 211,-603.5 270,-603.5 270,-546.5 211,-546.5"/>
<text text-anchor="middle" x="240.5" y="-591.5" font-family="Helvetica,sans-Serif" font-size="10.00">Transform</text>
<polyline fill="none" stroke="#bfbfbf" points="211,-584.5 270,-584.5 "/>
<text text-anchor="middle" x="240.5" y="-572.5" font-family="Helvetica,sans-Serif" font-size="10.00"> </text>
<polyline fill="none" stroke="#bfbfbf" points="211,-565.5 270,-565.5 "/>
<text text-anchor="middle" x="240.5" y="-553.5" font-family="Helvetica,sans-Serif" font-size="10.00"> </text>
</g>
<!-- Node13&#45;&gt;Node9 -->
<g id="edge16" class="edge"><title>Node13&#45;&gt;Node9</title>
<path fill="none" stroke="#404040" d="M243.118,-546.418C245.318,-530.823 249.311,-511.253 256.5,-495 257.649,-492.403 258.888,-489.808 260.202,-487.225"/>
<polygon fill="none" stroke="#404040" points="260.209,-487.213 259.594,-480.028 265.99,-476.697 266.604,-483.882 260.209,-487.213"/>
<text text-anchor="middle" x="273" y="-509" font-family="Helvetica,sans-Serif" font-size="10.00"> &#45;player</text>
</g>
<!-- Node14 -->
<g id="node13" class="node"><title>Node14</title>
<polygon fill="none" stroke="#bfbfbf" points="780,-188 780,-245 809,-245 809,-188 780,-188"/>
<text text-anchor="middle" x="794.5" y="-233" font-family="Helvetica,sans-Serif" font-size="10.00">int</text>
<polyline fill="none" stroke="#bfbfbf" points="780,-226 809,-226 "/>
<text text-anchor="middle" x="794.5" y="-214" font-family="Helvetica,sans-Serif" font-size="10.00"> </text>
<polyline fill="none" stroke="#bfbfbf" points="780,-207 809,-207 "/>
<text text-anchor="middle" x="794.5" y="-195" font-family="Helvetica,sans-Serif" font-size="10.00"> </text>
</g>
<!-- Node14&#45;&gt;Node2 -->
<g id="edge20" class="edge"><title>Node14&#45;&gt;Node2</title>
<path fill="none" stroke="#404040" d="M792.118,-187.945C789.02,-167.149 781.894,-139.039 765.5,-120 743.331,-94.2528 709.236,-77.5168 679.899,-67.0922"/>
<polygon fill="none" stroke="#404040" points="679.883,-67.0868 672.922,-68.9695 668.507,-63.2681 675.468,-61.3854 679.883,-67.0868"/>
<text text-anchor="middle" x="786" y="-123" font-family="Helvetica,sans-Serif" font-size="10.00"> &#45;level</text>
</g>
</g>
</svg>
