<?xml version="1.0" encoding="UTF-8" standalone="no"?>
<!DOCTYPE svg PUBLIC "-//W3C//DTD SVG 1.1//EN"
 "http://www.w3.org/Graphics/SVG/1.1/DTD/svg11.dtd">
<!-- Generated by graphviz version 2.38.0 (20140413.2041)
 -->
<!-- Title: ItemsMenuScript Pages: 1 -->
<!--zoomable 1473 -->
<svg id="main" version="1.1" xmlns="http://www.w3.org/2000/svg" xmlns:xlink="http://www.w3.org/1999/xlink" xml:space="preserve" onload="init(evt)">
<style type="text/css"><![CDATA[
.edge:hover path { stroke: red; }
.edge:hover polygon { stroke: red; fill: red; }
]]></style>
<script type="text/javascript"><![CDATA[
var edges = document.getElementsByTagName('g');
if (edges && edges.length) {
  for (var i=0;i<edges.length;i++) {
    if (edges[i].id.substr(0,4)=='edge') {
      edges[i].setAttribute('class','edge');
    }
  }
}
]]></script>
        <defs>
                <circle id="rim" cx="0" cy="0" r="7"/>
                <circle id="rim2" cx="0" cy="0" r="3.5"/>
                <g id="zoomPlus">
                        <use xlink:href="#rim" fill="#404040">
                                <set attributeName="fill" to="#808080" begin="zoomplus.mouseover" end="zoomplus.mouseout"/>
                        </use>
                        <path d="M-4,0h8M0,-4v8" fill="none" stroke="white" stroke-width="1.5" pointer-events="none"/>
                </g>
                <g id="zoomMin">
                        <use xlink:href="#rim" fill="#404040">
                                <set attributeName="fill" to="#808080" begin="zoomminus.mouseover" end="zoomminus.mouseout"/>
                        </use>
                        <path d="M-4,0h8" fill="none" stroke="white" stroke-width="1.5" pointer-events="none"/>
                </g>
                <g id="dirArrow">
                        <path fill="none" stroke="white" stroke-width="1.5" d="M0,-3.0v7 M-2.5,-0.5L0,-3.0L2.5,-0.5"/>
                </g>
               <g id="resetDef">
                       <use xlink:href="#rim2" fill="#404040">
                               <set attributeName="fill" to="#808080" begin="reset.mouseover" end="reset.mouseout"/>
                       </use>
               </g>
        </defs>

<script type="text/javascript">
var viewWidth = 1120;
var viewHeight = 1473;
var sectionId = 'dynsection-1';
</script>
<script xlink:href="svgpan.js"/>
<svg id="graph" class="graph">
<g id="viewport">
<title>ItemsMenuScript</title>
<!-- Node2 -->
<g id="node1" class="node"><title>Node2</title>
<polygon fill="#bfbfbf" stroke="black" points="284,-481.5 284,-571.5 375,-571.5 375,-481.5 284,-481.5"/>
<text text-anchor="middle" x="329.5" y="-559.5" font-family="Helvetica,sans-Serif" font-size="10.00">ItemsMenuScript</text>
<polyline fill="none" stroke="black" points="284,-552.5 375,-552.5 "/>
<text text-anchor="middle" x="329.5" y="-540.5" font-family="Helvetica,sans-Serif" font-size="10.00"> </text>
<polyline fill="none" stroke="black" points="284,-533.5 375,-533.5 "/>
<text text-anchor="start" x="292" y="-521.5" font-family="Helvetica,sans-Serif" font-size="10.00">+ OnItemPlace()</text>
<text text-anchor="start" x="292" y="-510.5" font-family="Helvetica,sans-Serif" font-size="10.00">+ back()</text>
<text text-anchor="start" x="292" y="-499.5" font-family="Helvetica,sans-Serif" font-size="10.00">&#45; Start()</text>
<text text-anchor="start" x="292" y="-488.5" font-family="Helvetica,sans-Serif" font-size="10.00">&#45; createItemCell()</text>
</g>
<!-- Node3 -->
<g id="node2" class="node"><title>Node3</title>
<g id="a_node2"><a xlink:href="class_mono_behaviour.html" target="_top" xlink:title="{MonoBehaviour\n||}">
<polygon fill="none" stroke="black" points="67,-839.5 67,-896.5 150,-896.5 150,-839.5 67,-839.5"/>
<text text-anchor="middle" x="108.5" y="-884.5" font-family="Helvetica,sans-Serif" font-size="10.00">MonoBehaviour</text>
<polyline fill="none" stroke="black" points="67,-877.5 150,-877.5 "/>
<text text-anchor="middle" x="108.5" y="-865.5" font-family="Helvetica,sans-Serif" font-size="10.00"> </text>
<polyline fill="none" stroke="black" points="67,-858.5 150,-858.5 "/>
<text text-anchor="middle" x="108.5" y="-846.5" font-family="Helvetica,sans-Serif" font-size="10.00"> </text>
</a>
</g>
</g>
<!-- Node3&#45;&gt;Node2 -->
<g id="edge1" class="edge"><title>Node3&#45;&gt;Node2</title>
<path fill="none" stroke="midnightblue" d="M114.207,-829.094C120.904,-792.904 134.427,-737.843 159.5,-696 191.859,-641.997 245.456,-592.899 283.821,-561.813"/>
<polygon fill="none" stroke="midnightblue" points="110.71,-828.772 112.42,-839.228 117.604,-829.988 110.71,-828.772"/>
</g>
<!-- Node4 -->
<g id="node3" class="node"><title>Node4</title>
<g id="a_node3"><a xlink:href="class_item.html" target="_top" xlink:title="Abstract class for items that can be equipped to a player, increasing some of their stats ...">
<polygon fill="none" stroke="black" points="0,-1269.5 0,-1348.5 77,-1348.5 77,-1269.5 0,-1269.5"/>
<text text-anchor="middle" x="38.5" y="-1336.5" font-family="Helvetica,sans-Serif" font-size="10.00">Item</text>
<polyline fill="none" stroke="black" points="0,-1329.5 77,-1329.5 "/>
<text text-anchor="start" x="8" y="-1317.5" font-family="Helvetica,sans-Serif" font-size="10.00">+ Name</text>
<text text-anchor="start" x="8" y="-1306.5" font-family="Helvetica,sans-Serif" font-size="10.00">+ Desc</text>
<polyline fill="none" stroke="black" points="0,-1299.5 77,-1299.5 "/>
<text text-anchor="start" x="8" y="-1287.5" font-family="Helvetica,sans-Serif" font-size="10.00">+ applyBuffs()</text>
<text text-anchor="start" x="8" y="-1276.5" font-family="Helvetica,sans-Serif" font-size="10.00">+ revertBuffs()</text>
</a>
</g>
</g>
<!-- Node4&#45;&gt;Node2 -->
<g id="edge2" class="edge"><title>Node4&#45;&gt;Node2</title>
<path fill="none" stroke="#404040" d="M29.9057,-1269.18C9.70174,-1168.87 -32.6196,-894.993 57.5,-696 96.6293,-609.598 204.566,-563.494 272.115,-542.368"/>
<polygon fill="none" stroke="#404040" points="272.335,-542.302 276.921,-536.737 283.822,-538.83 279.236,-544.395 272.335,-542.302"/>
<text text-anchor="middle" x="20" y="-1061" font-family="Helvetica,sans-Serif" font-size="10.00"> &#45;items</text>
</g>
<!-- Node8 -->
<g id="node7" class="node"><title>Node8</title>
<g id="a_node7"><a xlink:href="class_player.html" target="_top" xlink:title="Defines a playable character for use in battle scenes">
<polygon fill="none" stroke="black" points="514.5,-1087.5 514.5,-1210.5 626.5,-1210.5 626.5,-1087.5 514.5,-1087.5"/>
<text text-anchor="middle" x="570.5" y="-1198.5" font-family="Helvetica,sans-Serif" font-size="10.00">Player</text>
<polyline fill="none" stroke="black" points="514.5,-1191.5 626.5,-1191.5 "/>
<text text-anchor="start" x="522.5" y="-1179.5" font-family="Helvetica,sans-Serif" font-size="10.00">+ Exp</text>
<text text-anchor="start" x="522.5" y="-1168.5" font-family="Helvetica,sans-Serif" font-size="10.00">+ Item</text>
<text text-anchor="start" x="522.5" y="-1157.5" font-family="Helvetica,sans-Serif" font-size="10.00">+ ExpToNextLevel</text>
<polyline fill="none" stroke="black" points="514.5,-1150.5 626.5,-1150.5 "/>
<text text-anchor="start" x="522.5" y="-1138.5" font-family="Helvetica,sans-Serif" font-size="10.00">+ Player()</text>
<text text-anchor="start" x="522.5" y="-1127.5" font-family="Helvetica,sans-Serif" font-size="10.00">+ gainExp()</text>
<text text-anchor="start" x="522.5" y="-1116.5" font-family="Helvetica,sans-Serif" font-size="10.00">+ levelUp()</text>
<text text-anchor="start" x="522.5" y="-1105.5" font-family="Helvetica,sans-Serif" font-size="10.00">+ Clone()</text>
<text text-anchor="start" x="522.5" y="-1094.5" font-family="Helvetica,sans-Serif" font-size="10.00">&#45; setExpToNextLevel()</text>
</a>
</g>
</g>
<!-- Node4&#45;&gt;Node8 -->
<g id="edge26" class="edge"><title>Node4&#45;&gt;Node8</title>
<path fill="none" stroke="#404040" d="M77.0857,-1298.34C142.535,-1281.75 279.335,-1246.23 393.5,-1211 429.736,-1199.82 469.707,-1186.16 502.482,-1174.6"/>
<polygon fill="none" stroke="#404040" points="502.9,-1174.45 507.22,-1168.68 514.211,-1170.45 509.891,-1176.22 502.9,-1174.45"/>
<text text-anchor="middle" x="339" y="-1237.5" font-family="Helvetica,sans-Serif" font-size="10.00"> &#45;item</text>
</g>
<!-- Node18 -->
<g id="node17" class="node"><title>Node18</title>
<g id="a_node17"><a xlink:href="class_data_manager.html" target="_top" xlink:title="An object to store all player data including players, items and money and provide useful functions ...">
<polygon fill="none" stroke="black" points="168.5,-696.5 168.5,-1039.5 320.5,-1039.5 320.5,-696.5 168.5,-696.5"/>
<text text-anchor="middle" x="244.5" y="-1027.5" font-family="Helvetica,sans-Serif" font-size="10.00">DataManager</text>
<polyline fill="none" stroke="black" points="168.5,-1020.5 320.5,-1020.5 "/>
<text text-anchor="start" x="176.5" y="-1008.5" font-family="Helvetica,sans-Serif" font-size="10.00">+ Players</text>
<text text-anchor="start" x="176.5" y="-997.5" font-family="Helvetica,sans-Serif" font-size="10.00">+ Items</text>
<text text-anchor="start" x="176.5" y="-986.5" font-family="Helvetica,sans-Serif" font-size="10.00">+ Money</text>
<polyline fill="none" stroke="black" points="168.5,-979.5 320.5,-979.5 "/>
<text text-anchor="start" x="176.5" y="-967.5" font-family="Helvetica,sans-Serif" font-size="10.00">+ DataManager()</text>
<text text-anchor="start" x="176.5" y="-956.5" font-family="Helvetica,sans-Serif" font-size="10.00">+ DataManager()</text>
<text text-anchor="start" x="176.5" y="-945.5" font-family="Helvetica,sans-Serif" font-size="10.00">+ getFirstPlayer()</text>
<text text-anchor="start" x="176.5" y="-934.5" font-family="Helvetica,sans-Serif" font-size="10.00">+ getPlayerIndex()</text>
<text text-anchor="start" x="176.5" y="-923.5" font-family="Helvetica,sans-Serif" font-size="10.00">+ getAlivePlayer()</text>
<text text-anchor="start" x="176.5" y="-912.5" font-family="Helvetica,sans-Serif" font-size="10.00">+ playersAlive()</text>
<text text-anchor="start" x="176.5" y="-901.5" font-family="Helvetica,sans-Serif" font-size="10.00">+ addPlayer()</text>
<text text-anchor="start" x="176.5" y="-890.5" font-family="Helvetica,sans-Serif" font-size="10.00">+ swapPlayers()</text>
<text text-anchor="start" x="176.5" y="-879.5" font-family="Helvetica,sans-Serif" font-size="10.00">+ addItem()</text>
<text text-anchor="start" x="176.5" y="-868.5" font-family="Helvetica,sans-Serif" font-size="10.00">+ countItems()</text>
<text text-anchor="start" x="176.5" y="-857.5" font-family="Helvetica,sans-Serif" font-size="10.00">+ giveExpToAll()</text>
<text text-anchor="start" x="176.5" y="-846.5" font-family="Helvetica,sans-Serif" font-size="10.00">+ Save()</text>
<text text-anchor="start" x="176.5" y="-835.5" font-family="Helvetica,sans-Serif" font-size="10.00">+ Load()</text>
<text text-anchor="start" x="176.5" y="-824.5" font-family="Helvetica,sans-Serif" font-size="10.00">+ PlayerToSerializable()</text>
<text text-anchor="start" x="176.5" y="-813.5" font-family="Helvetica,sans-Serif" font-size="10.00">+ SerializableToPLayer()</text>
<text text-anchor="start" x="176.5" y="-802.5" font-family="Helvetica,sans-Serif" font-size="10.00">+ ItemToSerializable()</text>
<text text-anchor="start" x="176.5" y="-791.5" font-family="Helvetica,sans-Serif" font-size="10.00">+ SerializableToItem()</text>
<text text-anchor="start" x="176.5" y="-780.5" font-family="Helvetica,sans-Serif" font-size="10.00">+ SpecialMoveToSerializable()</text>
<text text-anchor="start" x="176.5" y="-769.5" font-family="Helvetica,sans-Serif" font-size="10.00">+ SerializableToSpecialMove()</text>
<text text-anchor="start" x="176.5" y="-758.5" font-family="Helvetica,sans-Serif" font-size="10.00">+ ObjectsActiveToSerializable()</text>
<text text-anchor="start" x="176.5" y="-747.5" font-family="Helvetica,sans-Serif" font-size="10.00">+ SerializableToObjectsActive()</text>
<text text-anchor="start" x="176.5" y="-736.5" font-family="Helvetica,sans-Serif" font-size="10.00">+ Texture2DToSerializable()</text>
<text text-anchor="start" x="176.5" y="-725.5" font-family="Helvetica,sans-Serif" font-size="10.00">+ SerializableToTexture2D()</text>
<text text-anchor="start" x="176.5" y="-714.5" font-family="Helvetica,sans-Serif" font-size="10.00">+ VectorToSerializable()</text>
<text text-anchor="start" x="176.5" y="-703.5" font-family="Helvetica,sans-Serif" font-size="10.00">+ SerializableToVector()</text>
</a>
</g>
</g>
<!-- Node4&#45;&gt;Node18 -->
<g id="edge29" class="edge"><title>Node4&#45;&gt;Node18</title>
<path fill="none" stroke="#404040" d="M56.6006,-1269.43C80.4909,-1218.51 124.114,-1125.55 163.318,-1042"/>
<polygon fill="none" stroke="#404040" points="163.348,-1041.94 162.276,-1034.81 168.446,-1031.08 169.518,-1038.21 163.348,-1041.94"/>
<text text-anchor="middle" x="157" y="-1146.5" font-family="Helvetica,sans-Serif" font-size="10.00"> &#45;items</text>
</g>
<!-- Node5 -->
<g id="node4" class="node"><title>Node5</title>
<polygon fill="none" stroke="#bfbfbf" points="838,-1407.5 838,-1464.5 879,-1464.5 879,-1407.5 838,-1407.5"/>
<text text-anchor="middle" x="858.5" y="-1452.5" font-family="Helvetica,sans-Serif" font-size="10.00">string</text>
<polyline fill="none" stroke="#bfbfbf" points="838,-1445.5 879,-1445.5 "/>
<text text-anchor="middle" x="858.5" y="-1433.5" font-family="Helvetica,sans-Serif" font-size="10.00"> </text>
<polyline fill="none" stroke="#bfbfbf" points="838,-1426.5 879,-1426.5 "/>
<text text-anchor="middle" x="858.5" y="-1414.5" font-family="Helvetica,sans-Serif" font-size="10.00"> </text>
</g>
<!-- Node5&#45;&gt;Node4 -->
<g id="edge3" class="edge"><title>Node5&#45;&gt;Node4</title>
<path fill="none" stroke="#404040" d="M837.825,-1435.21C718.784,-1436.21 123.906,-1438.7 61.5,-1389 52.5557,-1381.88 46.9561,-1371.48 43.4841,-1360.56"/>
<polygon fill="none" stroke="#404040" points="43.412,-1360.27 38.073,-1355.43 40.494,-1348.63 45.8329,-1353.48 43.412,-1360.27"/>
<text text-anchor="middle" x="76.5" y="-1381" font-family="Helvetica,sans-Serif" font-size="10.00"> #desc</text>
<text text-anchor="middle" x="76.5" y="-1370" font-family="Helvetica,sans-Serif" font-size="10.00">#name</text>
</g>
<!-- Node9 -->
<g id="node8" class="node"><title>Node9</title>
<g id="a_node8"><a xlink:href="class_character.html" target="_top" xlink:title="Base abstract class for Enemy and Player to inherit from. Defines all shared variables, their constructor and their setters and getters ">
<polygon fill="none" stroke="black" points="780,-95.5 780,-273.5 875,-273.5 875,-95.5 780,-95.5"/>
<text text-anchor="middle" x="827.5" y="-261.5" font-family="Helvetica,sans-Serif" font-size="10.00">Character</text>
<polyline fill="none" stroke="black" points="780,-254.5 875,-254.5 "/>
<text text-anchor="start" x="788" y="-242.5" font-family="Helvetica,sans-Serif" font-size="10.00">+ Name</text>
<text text-anchor="start" x="788" y="-231.5" font-family="Helvetica,sans-Serif" font-size="10.00">+ Level</text>
<text text-anchor="start" x="788" y="-220.5" font-family="Helvetica,sans-Serif" font-size="10.00">+ Health</text>
<text text-anchor="start" x="788" y="-209.5" font-family="Helvetica,sans-Serif" font-size="10.00">+ Attack</text>
<text text-anchor="start" x="788" y="-198.5" font-family="Helvetica,sans-Serif" font-size="10.00">+ Defence</text>
<text text-anchor="start" x="788" y="-187.5" font-family="Helvetica,sans-Serif" font-size="10.00">+ MaximumMagic</text>
<text text-anchor="start" x="788" y="-176.5" font-family="Helvetica,sans-Serif" font-size="10.00">+ Magic</text>
<text text-anchor="start" x="788" y="-165.5" font-family="Helvetica,sans-Serif" font-size="10.00">+ Luck</text>
<text text-anchor="start" x="788" y="-154.5" font-family="Helvetica,sans-Serif" font-size="10.00">+ Speed</text>
<text text-anchor="start" x="788" y="-143.5" font-family="Helvetica,sans-Serif" font-size="10.00">+ Special1</text>
<text text-anchor="start" x="788" y="-132.5" font-family="Helvetica,sans-Serif" font-size="10.00">+ Special2</text>
<text text-anchor="start" x="788" y="-121.5" font-family="Helvetica,sans-Serif" font-size="10.00">+ Image</text>
<polyline fill="none" stroke="black" points="780,-114.5 875,-114.5 "/>
<text text-anchor="start" x="788" y="-102.5" font-family="Helvetica,sans-Serif" font-size="10.00"># Character()</text>
</a>
</g>
</g>
<!-- Node5&#45;&gt;Node9 -->
<g id="edge8" class="edge"><title>Node5&#45;&gt;Node9</title>
<path fill="none" stroke="#404040" d="M879.197,-1433.06C933.963,-1426.66 1078.5,-1401.15 1078.5,-1310 1078.5,-1310 1078.5,-1310 1078.5,-633 1078.5,-553.286 955.817,-366.304 881.992,-261.004"/>
<polygon fill="none" stroke="#404040" points="881.912,-260.89 875.188,-258.284 875.006,-251.075 881.73,-253.681 881.912,-260.89"/>
<text text-anchor="middle" x="1095" y="-865.5" font-family="Helvetica,sans-Serif" font-size="10.00"> #name</text>
</g>
<!-- Node11 -->
<g id="node10" class="node"><title>Node11</title>
<g id="a_node10"><a xlink:href="class_special_move.html" target="_top" xlink:title="Special move abstract base class that expands upon CharacterMove, adding magic properties ...">
<polygon fill="none" stroke="black" points="642.5,-332.5 642.5,-433.5 740.5,-433.5 740.5,-332.5 642.5,-332.5"/>
<text text-anchor="middle" x="691.5" y="-421.5" font-family="Helvetica,sans-Serif" font-size="10.00">SpecialMove</text>
<polyline fill="none" stroke="black" points="642.5,-414.5 740.5,-414.5 "/>
<text text-anchor="start" x="650.5" y="-402.5" font-family="Helvetica,sans-Serif" font-size="10.00">+ Magic</text>
<text text-anchor="start" x="650.5" y="-391.5" font-family="Helvetica,sans-Serif" font-size="10.00">+ Desc</text>
<text text-anchor="start" x="650.5" y="-380.5" font-family="Helvetica,sans-Serif" font-size="10.00">+ Special</text>
<polyline fill="none" stroke="black" points="642.5,-373.5 740.5,-373.5 "/>
<text text-anchor="start" x="650.5" y="-361.5" font-family="Helvetica,sans-Serif" font-size="10.00">+ setUp()</text>
<text text-anchor="start" x="650.5" y="-350.5" font-family="Helvetica,sans-Serif" font-size="10.00">+ decreaseMagic()</text>
<text text-anchor="start" x="650.5" y="-339.5" font-family="Helvetica,sans-Serif" font-size="10.00"># SpecialMove()</text>
</a>
</g>
</g>
<!-- Node5&#45;&gt;Node11 -->
<g id="edge22" class="edge"><title>Node5&#45;&gt;Node11</title>
<path fill="none" stroke="#404040" d="M837.722,-1435.21C741.335,-1435.02 333.241,-1421.42 115.5,-1211 57.791,-1155.23 70.5631,-1119.18 57.5,-1040 32.6136,-889.15 -1.33486,-837.115 57.5,-696 109.746,-570.689 155.659,-546.644 274.5,-481 389.999,-417.202 545.832,-395.241 630.522,-387.772"/>
<polygon fill="none" stroke="#404040" points="630.53,-387.771 636.176,-383.285 642.488,-386.772 636.842,-391.258 630.53,-387.771"/>
<text text-anchor="middle" x="76.5" y="-1061" font-family="Helvetica,sans-Serif" font-size="10.00"> #desc</text>
</g>
<!-- Node12 -->
<g id="node11" class="node"><title>Node12</title>
<g id="a_node11"><a xlink:href="class_character_move.html" target="_top" xlink:title="Astract base class for character moves ">
<polygon fill="none" stroke="black" points="824.5,-487 824.5,-566 910.5,-566 910.5,-487 824.5,-487"/>
<text text-anchor="middle" x="867.5" y="-554" font-family="Helvetica,sans-Serif" font-size="10.00">CharacterMove</text>
<polyline fill="none" stroke="black" points="824.5,-547 910.5,-547 "/>
<text text-anchor="start" x="832.5" y="-535" font-family="Helvetica,sans-Serif" font-size="10.00">+ User</text>
<text text-anchor="start" x="832.5" y="-524" font-family="Helvetica,sans-Serif" font-size="10.00">+ Target</text>
<text text-anchor="start" x="832.5" y="-513" font-family="Helvetica,sans-Serif" font-size="10.00">+ Text</text>
<polyline fill="none" stroke="black" points="824.5,-506 910.5,-506 "/>
<text text-anchor="start" x="832.5" y="-494" font-family="Helvetica,sans-Serif" font-size="10.00">+ performMove()</text>
</a>
</g>
</g>
<!-- Node5&#45;&gt;Node12 -->
<g id="edge12" class="edge"><title>Node5&#45;&gt;Node12</title>
<path fill="none" stroke="#404040" d="M858.35,-1407.48C858.061,-1348.66 857.54,-1206.32 858.5,-1087 860.008,-899.473 864.359,-676.625 866.408,-578.353"/>
<polygon fill="none" stroke="#404040" points="866.412,-578.159 862.539,-572.076 866.664,-566.162 870.537,-572.244 866.412,-578.159"/>
<text text-anchor="middle" x="871" y="-1146.5" font-family="Helvetica,sans-Serif" font-size="10.00"> #text</text>
</g>
<!-- Node13 -->
<g id="node12" class="node"><title>Node13</title>
<g id="a_node12"><a xlink:href="class_battle_manager.html" target="_top" xlink:title="Holds current Player and Enemy objects in battle and provides functions for MainBattle and other obje...">
<polygon fill="none" stroke="black" points="899.5,-773.5 899.5,-962.5 1015.5,-962.5 1015.5,-773.5 899.5,-773.5"/>
<text text-anchor="middle" x="957.5" y="-950.5" font-family="Helvetica,sans-Serif" font-size="10.00">BattleManager</text>
<polyline fill="none" stroke="black" points="899.5,-943.5 1015.5,-943.5 "/>
<text text-anchor="start" x="907.5" y="-931.5" font-family="Helvetica,sans-Serif" font-size="10.00">+ Player</text>
<text text-anchor="start" x="907.5" y="-920.5" font-family="Helvetica,sans-Serif" font-size="10.00">+ Enemy</text>
<text text-anchor="start" x="907.5" y="-909.5" font-family="Helvetica,sans-Serif" font-size="10.00">+ WasCriticalHit</text>
<polyline fill="none" stroke="black" points="899.5,-902.5 1015.5,-902.5 "/>
<text text-anchor="start" x="907.5" y="-890.5" font-family="Helvetica,sans-Serif" font-size="10.00">+ BattleManager()</text>
<text text-anchor="start" x="907.5" y="-879.5" font-family="Helvetica,sans-Serif" font-size="10.00">+ playerFirst()</text>
<text text-anchor="start" x="907.5" y="-868.5" font-family="Helvetica,sans-Serif" font-size="10.00">+ switchPlayers()</text>
<text text-anchor="start" x="907.5" y="-857.5" font-family="Helvetica,sans-Serif" font-size="10.00">+ isCriticalHit()</text>
<text text-anchor="start" x="907.5" y="-846.5" font-family="Helvetica,sans-Serif" font-size="10.00">+ ranAway()</text>
<text text-anchor="start" x="907.5" y="-835.5" font-family="Helvetica,sans-Serif" font-size="10.00">+ damageCalculation()</text>
<text text-anchor="start" x="907.5" y="-824.5" font-family="Helvetica,sans-Serif" font-size="10.00">+ enemyMove()</text>
<text text-anchor="start" x="907.5" y="-813.5" font-family="Helvetica,sans-Serif" font-size="10.00">+ enemySpecialMove()</text>
<text text-anchor="start" x="907.5" y="-802.5" font-family="Helvetica,sans-Serif" font-size="10.00">+ battleWon()</text>
<text text-anchor="start" x="907.5" y="-791.5" font-family="Helvetica,sans-Serif" font-size="10.00">+ playerFainted()</text>
<text text-anchor="start" x="907.5" y="-780.5" font-family="Helvetica,sans-Serif" font-size="10.00">&#45; characterFainted()</text>
</a>
</g>
</g>
<!-- Node5&#45;&gt;Node13 -->
<g id="edge15" class="edge"><title>Node5&#45;&gt;Node13</title>
<path fill="none" stroke="#404040" d="M868.437,-1407.32C885.271,-1363.94 923.25,-1279.71 980.5,-1229 995.397,-1215.8 1010.33,-1227.47 1021.5,-1211 1068.74,-1141.37 1045.62,-1046.26 1014.73,-974.009"/>
<polygon fill="none" stroke="#404040" points="1014.55,-973.6 1008.47,-969.72 1009.71,-962.617 1015.79,-966.497 1014.55,-973.6"/>
<text text-anchor="middle" x="1022.5" y="-1243" font-family="Helvetica,sans-Serif" font-size="10.00"> +forceEnemyMove</text>
<text text-anchor="middle" x="1022.5" y="-1232" font-family="Helvetica,sans-Serif" font-size="10.00">+forceCriticalHits</text>
</g>
<!-- Node6 -->
<g id="node5" class="node"><title>Node6</title>
<polygon fill="none" stroke="#bfbfbf" points="428.5,-839.5 428.5,-896.5 528.5,-896.5 528.5,-839.5 428.5,-839.5"/>
<text text-anchor="middle" x="478.5" y="-884.5" font-family="Helvetica,sans-Serif" font-size="10.00">DragAndDropCell []</text>
<polyline fill="none" stroke="#bfbfbf" points="428.5,-877.5 528.5,-877.5 "/>
<text text-anchor="middle" x="478.5" y="-865.5" font-family="Helvetica,sans-Serif" font-size="10.00"> </text>
<polyline fill="none" stroke="#bfbfbf" points="428.5,-858.5 528.5,-858.5 "/>
<text text-anchor="middle" x="478.5" y="-846.5" font-family="Helvetica,sans-Serif" font-size="10.00"> </text>
</g>
<!-- Node6&#45;&gt;Node2 -->
<g id="edge4" class="edge"><title>Node6&#45;&gt;Node2</title>
<path fill="none" stroke="#404040" d="M481.067,-839.499C484.597,-786.401 485.371,-668.12 432.5,-590 421.092,-573.145 403.476,-560.073 386.019,-550.344"/>
<polygon fill="none" stroke="#404040" points="385.866,-550.264 378.696,-551.036 375.227,-544.714 382.397,-543.943 385.866,-550.264"/>
<text text-anchor="middle" x="504.5" y="-631.5" font-family="Helvetica,sans-Serif" font-size="10.00"> &#45;itemContainers</text>
</g>
<!-- Node7 -->
<g id="node6" class="node"><title>Node7</title>
<polygon fill="none" stroke="#bfbfbf" points="339,-839.5 339,-896.5 410,-896.5 410,-839.5 339,-839.5"/>
<text text-anchor="middle" x="374.5" y="-884.5" font-family="Helvetica,sans-Serif" font-size="10.00">GameObject</text>
<polyline fill="none" stroke="#bfbfbf" points="339,-877.5 410,-877.5 "/>
<text text-anchor="middle" x="374.5" y="-865.5" font-family="Helvetica,sans-Serif" font-size="10.00"> </text>
<polyline fill="none" stroke="#bfbfbf" points="339,-858.5 410,-858.5 "/>
<text text-anchor="middle" x="374.5" y="-846.5" font-family="Helvetica,sans-Serif" font-size="10.00"> </text>
</g>
<!-- Node7&#45;&gt;Node2 -->
<g id="edge5" class="edge"><title>Node7&#45;&gt;Node2</title>
<path fill="none" stroke="#404040" d="M370.817,-839.217C363.446,-783.602 346.748,-657.628 336.986,-583.979"/>
<polygon fill="none" stroke="#404040" points="336.942,-583.642 332.188,-578.22 335.365,-571.746 340.118,-577.169 336.942,-583.642"/>
<text text-anchor="middle" x="389" y="-637" font-family="Helvetica,sans-Serif" font-size="10.00"> &#45;playerContainers</text>
<text text-anchor="middle" x="389" y="-626" font-family="Helvetica,sans-Serif" font-size="10.00">&#45;player</text>
</g>
<!-- Node8&#45;&gt;Node2 -->
<g id="edge6" class="edge"><title>Node8&#45;&gt;Node2</title>
<path fill="none" stroke="#404040" d="M571.588,-1087.35C573.485,-950.84 574.675,-628.305 544.5,-590 525.003,-565.25 443.989,-546.784 387.184,-536.568"/>
<polygon fill="none" stroke="#404040" points="386.924,-536.522 380.324,-539.427 375.104,-534.453 381.704,-531.547 386.924,-536.522"/>
<text text-anchor="middle" x="591.5" y="-865.5" font-family="Helvetica,sans-Serif" font-size="10.00"> &#45;players</text>
</g>
<!-- Node8&#45;&gt;Node13 -->
<g id="edge21" class="edge"><title>Node8&#45;&gt;Node13</title>
<path fill="none" stroke="#404040" d="M626.773,-1107.43C696.391,-1057.24 814.835,-971.851 889.479,-918.039"/>
<polygon fill="none" stroke="#404040" points="889.525,-918.005 892.053,-911.251 899.259,-910.987 896.732,-917.741 889.525,-918.005"/>
<text text-anchor="middle" x="702" y="-1061" font-family="Helvetica,sans-Serif" font-size="10.00"> &#45;player</text>
</g>
<!-- Node8&#45;&gt;Node18 -->
<g id="edge31" class="edge"><title>Node8&#45;&gt;Node18</title>
<path fill="none" stroke="#404040" d="M514.232,-1123.06C443.584,-1091.71 331.311,-1041.74 329.5,-1040 329.407,-1039.91 329.313,-1039.82 329.22,-1039.73"/>
<polygon fill="none" stroke="#404040" points="329.143,-1039.65 322.096,-1038.12 320.801,-1031.02 327.847,-1032.56 329.143,-1039.65"/>
<text text-anchor="middle" x="408.5" y="-1061" font-family="Helvetica,sans-Serif" font-size="10.00"> &#45;players</text>
</g>
<!-- Node9&#45;&gt;Node8 -->
<g id="edge7" class="edge"><title>Node9&#45;&gt;Node8</title>
<path fill="none" stroke="midnightblue" d="M770.597,-210.876C724.486,-234.837 662.567,-275.537 633.5,-332 597.481,-401.968 630.662,-962.983 614.5,-1040 611.194,-1055.75 605.698,-1072.14 599.691,-1087.24"/>
<polygon fill="none" stroke="midnightblue" points="772.262,-213.956 779.594,-206.307 769.093,-207.714 772.262,-213.956"/>
</g>
<!-- Node9&#45;&gt;Node12 -->
<g id="edge13" class="edge"><title>Node9&#45;&gt;Node12</title>
<path fill="none" stroke="#404040" d="M862.423,-273.77C864.032,-279.878 865.421,-285.992 866.5,-292 877.647,-354.083 875.613,-426.957 872.303,-474.57"/>
<polygon fill="none" stroke="#404040" points="872.291,-474.737 875.831,-481.02 871.394,-486.704 867.854,-480.422 872.291,-474.737"/>
<text text-anchor="middle" x="892.5" y="-386" font-family="Helvetica,sans-Serif" font-size="10.00"> #target</text>
<text text-anchor="middle" x="892.5" y="-375" font-family="Helvetica,sans-Serif" font-size="10.00">#user</text>
</g>
<!-- Node14 -->
<g id="node13" class="node"><title>Node14</title>
<g id="a_node13"><a xlink:href="class_enemy.html" target="_top" xlink:title="Defines an AI controller enemy to fight in battle scenes">
<polygon fill="none" stroke="black" points="961,-0.5 961,-57.5 1028,-57.5 1028,-0.5 961,-0.5"/>
<text text-anchor="middle" x="994.5" y="-45.5" font-family="Helvetica,sans-Serif" font-size="10.00">Enemy</text>
<polyline fill="none" stroke="black" points="961,-38.5 1028,-38.5 "/>
<text text-anchor="start" x="969" y="-26.5" font-family="Helvetica,sans-Serif" font-size="10.00">+ ExpGiven</text>
<polyline fill="none" stroke="black" points="961,-19.5 1028,-19.5 "/>
<text text-anchor="start" x="969" y="-7.5" font-family="Helvetica,sans-Serif" font-size="10.00">+ Enemy()</text>
</a>
</g>
</g>
<!-- Node9&#45;&gt;Node14 -->
<g id="edge17" class="edge"><title>Node9&#45;&gt;Node14</title>
<path fill="none" stroke="midnightblue" d="M882.903,-132.576C910.125,-107.555 941.857,-78.3877 964.51,-57.5659"/>
<polygon fill="none" stroke="midnightblue" points="880.349,-130.169 875.355,-139.513 885.086,-135.323 880.349,-130.169"/>
</g>
<!-- Node10 -->
<g id="node9" class="node"><title>Node10</title>
<polygon fill="none" stroke="#bfbfbf" points="696,-1280.5 696,-1337.5 725,-1337.5 725,-1280.5 696,-1280.5"/>
<text text-anchor="middle" x="710.5" y="-1325.5" font-family="Helvetica,sans-Serif" font-size="10.00">int</text>
<polyline fill="none" stroke="#bfbfbf" points="696,-1318.5 725,-1318.5 "/>
<text text-anchor="middle" x="710.5" y="-1306.5" font-family="Helvetica,sans-Serif" font-size="10.00"> </text>
<polyline fill="none" stroke="#bfbfbf" points="696,-1299.5 725,-1299.5 "/>
<text text-anchor="middle" x="710.5" y="-1287.5" font-family="Helvetica,sans-Serif" font-size="10.00"> </text>
</g>
<!-- Node10&#45;&gt;Node8 -->
<g id="edge27" class="edge"><title>Node10&#45;&gt;Node8</title>
<path fill="none" stroke="#404040" d="M695.598,-1305.68C669.241,-1300.73 614.627,-1286.55 587.5,-1251 581.113,-1242.63 576.771,-1232.73 573.87,-1222.45"/>
<polygon fill="none" stroke="#404040" points="573.868,-1222.44 568.623,-1217.49 571.174,-1210.75 576.419,-1215.7 573.868,-1222.44"/>
<text text-anchor="middle" x="625" y="-1243" font-family="Helvetica,sans-Serif" font-size="10.00"> &#45;expToNextLevel</text>
<text text-anchor="middle" x="625" y="-1232" font-family="Helvetica,sans-Serif" font-size="10.00">&#45;exp</text>
</g>
<!-- Node10&#45;&gt;Node9 -->
<g id="edge9" class="edge"><title>Node10&#45;&gt;Node9</title>
<path fill="none" stroke="#404040" d="M711.09,-1280.21C713.323,-1184.24 722.544,-857.983 749.5,-590 761.1,-474.678 763.748,-445.444 787.5,-332 790.664,-316.886 794.475,-301.019 798.47,-285.535"/>
<polygon fill="none" stroke="#404040" points="798.506,-285.395 796.161,-278.576 801.553,-273.788 803.899,-280.607 798.506,-285.395"/>
<text text-anchor="middle" x="787" y="-670" font-family="Helvetica,sans-Serif" font-size="10.00"> #speed</text>
<text text-anchor="middle" x="787" y="-659" font-family="Helvetica,sans-Serif" font-size="10.00">#luck</text>
<text text-anchor="middle" x="787" y="-648" font-family="Helvetica,sans-Serif" font-size="10.00">#health</text>
<text text-anchor="middle" x="787" y="-637" font-family="Helvetica,sans-Serif" font-size="10.00">#magic</text>
<text text-anchor="middle" x="787" y="-626" font-family="Helvetica,sans-Serif" font-size="10.00">#maximumMagic</text>
<text text-anchor="middle" x="787" y="-615" font-family="Helvetica,sans-Serif" font-size="10.00">#attack</text>
<text text-anchor="middle" x="787" y="-604" font-family="Helvetica,sans-Serif" font-size="10.00">#defence</text>
<text text-anchor="middle" x="787" y="-593" font-family="Helvetica,sans-Serif" font-size="10.00">#level</text>
</g>
<!-- Node10&#45;&gt;Node11 -->
<g id="edge24" class="edge"><title>Node10&#45;&gt;Node11</title>
<path fill="none" stroke="#404040" d="M700.848,-1280.42C690.796,-1249.18 676.5,-1196.58 676.5,-1150 676.5,-1150 676.5,-1150 676.5,-525.5 676.5,-499.295 679.076,-470.511 682.092,-445.785"/>
<polygon fill="none" stroke="#404040" points="682.124,-445.535 678.919,-439.076 683.649,-433.633 686.854,-440.092 682.124,-445.535"/>
<text text-anchor="middle" x="694" y="-865.5" font-family="Helvetica,sans-Serif" font-size="10.00"> #magic</text>
</g>
<!-- Node10&#45;&gt;Node13 -->
<g id="edge19" class="edge"><title>Node10&#45;&gt;Node13</title>
<path fill="none" stroke="#404040" d="M725.24,-1304.75C760.098,-1296.24 847.66,-1269.72 887.5,-1211 913.255,-1173.04 933.028,-1060.39 944.887,-974.651"/>
<polygon fill="none" stroke="#404040" points="944.89,-974.632 941.735,-968.148 946.508,-962.742 949.662,-969.227 944.89,-974.632"/>
<text text-anchor="middle" x="945" y="-1146.5" font-family="Helvetica,sans-Serif" font-size="10.00"> +money</text>
</g>
<!-- Node10&#45;&gt;Node14 -->
<g id="edge18" class="edge"><title>Node10&#45;&gt;Node14</title>
<path fill="none" stroke="#404040" d="M718.562,-1280.24C721.183,-1270.96 724.047,-1260.56 726.5,-1251 764.001,-1104.91 785.237,-706.929 880.5,-590 892.558,-575.2 908.131,-587.336 919.5,-572 1034.55,-416.808 1014.14,-166.138 1000.88,-69.628"/>
<polygon fill="none" stroke="#404040" points="1000.86,-69.4617 996.046,-64.0912 999.153,-57.5835 1003.96,-62.9541 1000.86,-69.4617"/>
<text text-anchor="middle" x="990.5" y="-524" font-family="Helvetica,sans-Serif" font-size="10.00"> &#45;expGiven</text>
</g>
<!-- Node10&#45;&gt;Node18 -->
<g id="edge30" class="edge"><title>Node10&#45;&gt;Node18</title>
<path fill="none" stroke="#404040" d="M695.851,-1307.54C636.931,-1305.4 417.999,-1294.58 367.5,-1251 309.665,-1201.09 278.808,-1123.86 262.43,-1051.86"/>
<polygon fill="none" stroke="#404040" points="262.377,-1051.62 257.193,-1046.61 259.827,-1039.89 265.01,-1044.91 262.377,-1051.62"/>
<text text-anchor="middle" x="346.5" y="-1146.5" font-family="Helvetica,sans-Serif" font-size="10.00"> &#45;money</text>
</g>
<!-- Node11&#45;&gt;Node9 -->
<g id="edge10" class="edge"><title>Node11&#45;&gt;Node9</title>
<path fill="none" stroke="#404040" d="M695.627,-332.342C698.276,-318.634 702.569,-304.19 709.5,-292 724.352,-265.878 747.917,-242.711 770.097,-224.71"/>
<polygon fill="none" stroke="#404040" points="770.387,-224.482 772.631,-217.629 779.82,-217.065 777.576,-223.918 770.387,-224.482"/>
<text text-anchor="middle" x="732" y="-306" font-family="Helvetica,sans-Serif" font-size="10.00"> #special1</text>
<text text-anchor="middle" x="732" y="-295" font-family="Helvetica,sans-Serif" font-size="10.00">#special2</text>
</g>
<!-- Node12&#45;&gt;Node11 -->
<g id="edge11" class="edge"><title>Node12&#45;&gt;Node11</title>
<path fill="none" stroke="midnightblue" d="M816.528,-484.519C792.638,-465.313 764.295,-442.526 740.64,-423.507"/>
<polygon fill="none" stroke="midnightblue" points="814.459,-487.347 824.446,-490.885 818.845,-481.892 814.459,-487.347"/>
</g>
<!-- Node13&#45;&gt;Node12 -->
<g id="edge14" class="edge"><title>Node13&#45;&gt;Node12</title>
<path fill="none" stroke="#404040" d="M932.669,-773.331C915.954,-710.281 894.559,-629.573 880.937,-578.187"/>
<polygon fill="none" stroke="#404040" points="880.892,-578.017 875.488,-573.242 877.817,-566.418 883.221,-571.192 880.892,-578.017"/>
<text text-anchor="middle" x="929.5" y="-631.5" font-family="Helvetica,sans-Serif" font-size="10.00"> #manager</text>
</g>
<!-- Node14&#45;&gt;Node13 -->
<g id="edge16" class="edge"><title>Node14&#45;&gt;Node13</title>
<path fill="none" stroke="#404040" d="M1008.05,-57.5473C1021.62,-87.7105 1040.5,-137.875 1040.5,-183.5 1040.5,-527.5 1040.5,-527.5 1040.5,-527.5 1040.5,-607.636 1018.41,-695.447 997.021,-761.685"/>
<polygon fill="none" stroke="#404040" points="996.926,-761.975 998.854,-768.924 993.181,-773.376 991.253,-766.427 996.926,-761.975"/>
<text text-anchor="middle" x="1058.5" y="-380.5" font-family="Helvetica,sans-Serif" font-size="10.00"> &#45;enemy</text>
</g>
<!-- Node15 -->
<g id="node14" class="node"><title>Node15</title>
<polygon fill="none" stroke="#bfbfbf" points="977,-1120.5 977,-1177.5 1012,-1177.5 1012,-1120.5 977,-1120.5"/>
<text text-anchor="middle" x="994.5" y="-1165.5" font-family="Helvetica,sans-Serif" font-size="10.00">bool</text>
<polyline fill="none" stroke="#bfbfbf" points="977,-1158.5 1012,-1158.5 "/>
<text text-anchor="middle" x="994.5" y="-1146.5" font-family="Helvetica,sans-Serif" font-size="10.00"> </text>
<polyline fill="none" stroke="#bfbfbf" points="977,-1139.5 1012,-1139.5 "/>
<text text-anchor="middle" x="994.5" y="-1127.5" font-family="Helvetica,sans-Serif" font-size="10.00"> </text>
</g>
<!-- Node15&#45;&gt;Node13 -->
<g id="edge20" class="edge"><title>Node15&#45;&gt;Node13</title>
<path fill="none" stroke="#404040" d="M979.437,-1120.37C972.21,-1105.59 964.31,-1086.81 960.5,-1069 954.04,-1038.8 951.707,-1005.44 951.412,-974.763"/>
<polygon fill="none" stroke="#404040" points="951.412,-974.703 947.405,-968.708 951.398,-962.703 955.405,-968.698 951.412,-974.703"/>
<text text-anchor="middle" x="993.5" y="-1061" font-family="Helvetica,sans-Serif" font-size="10.00"> &#45;wasCriticalHit</text>
</g>
<!-- Node16 -->
<g id="node15" class="node"><title>Node16</title>
<polygon fill="none" stroke="#bfbfbf" points="705,-498 705,-555 740,-555 740,-498 705,-498"/>
<text text-anchor="middle" x="722.5" y="-543" font-family="Helvetica,sans-Serif" font-size="10.00">float</text>
<polyline fill="none" stroke="#bfbfbf" points="705,-536 740,-536 "/>
<text text-anchor="middle" x="722.5" y="-524" font-family="Helvetica,sans-Serif" font-size="10.00"> </text>
<polyline fill="none" stroke="#bfbfbf" points="705,-517 740,-517 "/>
<text text-anchor="middle" x="722.5" y="-505" font-family="Helvetica,sans-Serif" font-size="10.00"> </text>
</g>
<!-- Node16&#45;&gt;Node11 -->
<g id="edge23" class="edge"><title>Node16&#45;&gt;Node11</title>
<path fill="none" stroke="#404040" d="M716.449,-497.881C713.168,-482.905 708.974,-463.759 704.964,-445.457"/>
<polygon fill="none" stroke="#404040" points="704.935,-445.326 699.744,-440.321 702.367,-433.604 707.559,-438.609 704.935,-445.326"/>
<text text-anchor="middle" x="728.5" y="-455" font-family="Helvetica,sans-Serif" font-size="10.00"> #special</text>
</g>
<!-- Node17 -->
<g id="node16" class="node"><title>Node17</title>
<polygon fill="none" stroke="#bfbfbf" points="797,-354.5 797,-411.5 858,-411.5 858,-354.5 797,-354.5"/>
<text text-anchor="middle" x="827.5" y="-399.5" font-family="Helvetica,sans-Serif" font-size="10.00">Texture2D</text>
<polyline fill="none" stroke="#bfbfbf" points="797,-392.5 858,-392.5 "/>
<text text-anchor="middle" x="827.5" y="-380.5" font-family="Helvetica,sans-Serif" font-size="10.00"> </text>
<polyline fill="none" stroke="#bfbfbf" points="797,-373.5 858,-373.5 "/>
<text text-anchor="middle" x="827.5" y="-361.5" font-family="Helvetica,sans-Serif" font-size="10.00"> </text>
</g>
<!-- Node17&#45;&gt;Node9 -->
<g id="edge25" class="edge"><title>Node17&#45;&gt;Node9</title>
<path fill="none" stroke="#404040" d="M827.5,-354.263C827.5,-335.998 827.5,-310.86 827.5,-285.562"/>
<polygon fill="none" stroke="#404040" points="827.5,-285.557 823.5,-279.557 827.5,-273.557 831.5,-279.557 827.5,-285.557"/>
<text text-anchor="middle" x="845" y="-300.5" font-family="Helvetica,sans-Serif" font-size="10.00"> #image</text>
</g>
<!-- Node18&#45;&gt;Node2 -->
<g id="edge28" class="edge"><title>Node18&#45;&gt;Node2</title>
<path fill="none" stroke="#404040" d="M282.348,-696.161C290.781,-660.927 300.043,-624.157 309.5,-590 310.09,-587.869 310.705,-585.702 311.339,-583.517"/>
<polygon fill="none" stroke="#404040" points="311.418,-583.252 309.307,-576.356 314.86,-571.756 316.971,-578.651 311.418,-583.252"/>
<text text-anchor="middle" x="322" y="-631.5" font-family="Helvetica,sans-Serif" font-size="10.00"> &#45;data</text>
</g>
</g>
</svg>
        <g id="navigator" transform="translate(0 0)" fill="#404254">
                <rect fill="#f2f5e9" fill-opacity="0.5" stroke="#606060" stroke-width=".5" x="0" y="0" width="60" height="60"/>
                <use id="zoomplus" xlink:href="#zoomPlus" x="17" y="9" onmousedown="handleZoom(evt,'in')"/>
                <use id="zoomminus" xlink:href="#zoomMin" x="42" y="9" onmousedown="handleZoom(evt,'out')"/>
                <use id="reset" xlink:href="#resetDef" x="30" y="36" onmousedown="handleReset()"/>
                <g id="arrowUp" xlink:href="#dirArrow" transform="translate(30 24)" onmousedown="handlePan(0,-1)">
                  <use xlink:href="#rim" fill="#404040">
                        <set attributeName="fill" to="#808080" begin="arrowUp.mouseover" end="arrowUp.mouseout"/>
                  </use>
                  <path fill="none" stroke="white" stroke-width="1.5" d="M0,-3.0v7 M-2.5,-0.5L0,-3.0L2.5,-0.5"/>
                </g>
                <g id="arrowRight" xlink:href="#dirArrow" transform="rotate(90) translate(36 -43)" onmousedown="handlePan(1,0)">
                  <use xlink:href="#rim" fill="#404040">
                        <set attributeName="fill" to="#808080" begin="arrowRight.mouseover" end="arrowRight.mouseout"/>
                  </use>
                  <path fill="none" stroke="white" stroke-width="1.5" d="M0,-3.0v7 M-2.5,-0.5L0,-3.0L2.5,-0.5"/>
                </g>
                <g id="arrowDown" xlink:href="#dirArrow" transform="rotate(180) translate(-30 -48)" onmousedown="handlePan(0,1)">
                  <use xlink:href="#rim" fill="#404040">
                        <set attributeName="fill" to="#808080" begin="arrowDown.mouseover" end="arrowDown.mouseout"/>
                  </use>
                  <path fill="none" stroke="white" stroke-width="1.5" d="M0,-3.0v7 M-2.5,-0.5L0,-3.0L2.5,-0.5"/>
                </g>
                <g id="arrowLeft" xlink:href="#dirArrow" transform="rotate(270) translate(-36 17)" onmousedown="handlePan(-1,0)">
                  <use xlink:href="#rim" fill="#404040">
                        <set attributeName="fill" to="#808080" begin="arrowLeft.mouseover" end="arrowLeft.mouseout"/>
                  </use>
                  <path fill="none" stroke="white" stroke-width="1.5" d="M0,-3.0v7 M-2.5,-0.5L0,-3.0L2.5,-0.5"/>
                </g>
        </g>
        <svg viewBox="0 0 15 15" width="100%" height="30px" preserveAspectRatio="xMaxYMin meet">
         <g id="arrow_out" transform="scale(0.3 0.3)">
          <a xlink:href="class_items_menu_script__coll__graph_org.svg" target="_base">
           <rect id="button" ry="5" rx="5" y="6" x="6" height="38" width="38"
                fill="#f2f5e9" fill-opacity="0.5" stroke="#606060" stroke-width="1.0"/>
           <path id="arrow"
             d="M 11.500037,31.436501 C 11.940474,20.09759 22.043105,11.32322 32.158766,21.979434 L 37.068811,17.246167 C 37.068811,17.246167 37.088388,32 37.088388,32 L 22.160133,31.978069 C 22.160133,31.978069 26.997745,27.140456 26.997745,27.140456 C 18.528582,18.264221 13.291696,25.230495 11.500037,31.436501 z"
             style="fill:#404040;"/>
          </a>
         </g>
        </svg>
</svg>
