<?xml version="1.0" encoding="UTF-8" standalone="no"?>
<!DOCTYPE svg PUBLIC "-//W3C//DTD SVG 1.1//EN"
 "http://www.w3.org/Graphics/SVG/1.1/DTD/svg11.dtd">
<!-- Generated by graphviz version 2.38.0 (20140413.2041)
 -->
<!-- Title: Quest Pages: 1 -->
<svg width="276pt" height="364pt"
 viewBox="0.00 0.00 275.50 364.00" xmlns="http://www.w3.org/2000/svg" xmlns:xlink="http://www.w3.org/1999/xlink">
<g id="graph0" class="graph" transform="scale(1 1) rotate(0) translate(4 360)">
<title>Quest</title>
<!-- Node1 -->
<g id="node1" class="node"><title>Node1</title>
<polygon fill="#bfbfbf" stroke="black" points="126,-0.5 126,-90.5 228,-90.5 228,-0.5 126,-0.5"/>
<text text-anchor="middle" x="177" y="-78.5" font-family="Helvetica,sans-Serif" font-size="10.00">Quest</text>
<polyline fill="none" stroke="black" points="126,-71.5 228,-71.5 "/>
<text text-anchor="start" x="134" y="-59.5" font-family="Helvetica,sans-Serif" font-size="10.00">+ Main</text>
<text text-anchor="start" x="134" y="-48.5" font-family="Helvetica,sans-Serif" font-size="10.00">+ Side</text>
<text text-anchor="start" x="134" y="-37.5" font-family="Helvetica,sans-Serif" font-size="10.00">+ Cond</text>
<polyline fill="none" stroke="black" points="126,-30.5 228,-30.5 "/>
<text text-anchor="start" x="134" y="-18.5" font-family="Helvetica,sans-Serif" font-size="10.00">+ Quest()</text>
<text text-anchor="start" x="134" y="-7.5" font-family="Helvetica,sans-Serif" font-size="10.00">+ questCompleted()</text>
</g>
<!-- Node2 -->
<g id="node2" class="node"><title>Node2</title>
<g id="a_node2"><a xlink:href="class_quest_def.html" target="_top" xlink:title="Class defining one quest condition (part of a sequence of 3 in Quest) ">
<polygon fill="none" stroke="black" points="69,-160.5 69,-239.5 141,-239.5 141,-160.5 69,-160.5"/>
<text text-anchor="middle" x="105" y="-227.5" font-family="Helvetica,sans-Serif" font-size="10.00">QuestDef</text>
<polyline fill="none" stroke="black" points="69,-220.5 141,-220.5 "/>
<text text-anchor="start" x="77" y="-208.5" font-family="Helvetica,sans-Serif" font-size="10.00">+ Type</text>
<text text-anchor="start" x="77" y="-197.5" font-family="Helvetica,sans-Serif" font-size="10.00">+ Data</text>
<text text-anchor="start" x="77" y="-186.5" font-family="Helvetica,sans-Serif" font-size="10.00">+ Desc</text>
<polyline fill="none" stroke="black" points="69,-179.5 141,-179.5 "/>
<text text-anchor="start" x="77" y="-167.5" font-family="Helvetica,sans-Serif" font-size="10.00">+ QuestDef()</text>
</a>
</g>
</g>
<!-- Node2&#45;&gt;Node1 -->
<g id="edge1" class="edge"><title>Node2&#45;&gt;Node1</title>
<path fill="none" stroke="#404040" d="M117.267,-160.175C122.869,-144.032 130.034,-125.297 138,-109 139.256,-106.431 140.59,-103.834 141.979,-101.233"/>
<polygon fill="none" stroke="#404040" points="142.078,-101.056 141.517,-93.8667 147.938,-90.5844 148.499,-97.7738 142.078,-101.056"/>
<text text-anchor="middle" x="150.5" y="-134" font-family="Helvetica,sans-Serif" font-size="10.00"> &#45;side</text>
<text text-anchor="middle" x="150.5" y="-123" font-family="Helvetica,sans-Serif" font-size="10.00">&#45;main</text>
<text text-anchor="middle" x="150.5" y="-112" font-family="Helvetica,sans-Serif" font-size="10.00">&#45;cond</text>
</g>
<!-- Node3 -->
<g id="node3" class="node"><title>Node3</title>
<polygon fill="none" stroke="#bfbfbf" points="0,-287.5 0,-355.5 138,-355.5 138,-287.5 0,-287.5"/>
<text text-anchor="start" x="8" y="-343.5" font-family="Helvetica,sans-Serif" font-size="10.00">KeyValuePair&lt; questTypes,</text>
<text text-anchor="middle" x="69" y="-332.5" font-family="Helvetica,sans-Serif" font-size="10.00"> string &gt;</text>
<polyline fill="none" stroke="#bfbfbf" points="0,-325.5 138,-325.5 "/>
<text text-anchor="middle" x="69" y="-313.5" font-family="Helvetica,sans-Serif" font-size="10.00"> </text>
<polyline fill="none" stroke="#bfbfbf" points="0,-306.5 138,-306.5 "/>
<text text-anchor="middle" x="69" y="-294.5" font-family="Helvetica,sans-Serif" font-size="10.00"> </text>
</g>
<!-- Node3&#45;&gt;Node2 -->
<g id="edge2" class="edge"><title>Node3&#45;&gt;Node2</title>
<path fill="none" stroke="#404040" d="M73.311,-287.392C74.966,-277.799 77.1606,-267.385 80,-258 80.6806,-255.75 81.4259,-253.472 82.2202,-251.185"/>
<polygon fill="none" stroke="#404040" points="82.2865,-251.009 80.6637,-243.983 86.5252,-239.783 88.148,-246.809 82.2865,-251.009"/>
<text text-anchor="middle" x="91" y="-261" font-family="Helvetica,sans-Serif" font-size="10.00"> &#45;pair</text>
</g>
<!-- Node4 -->
<g id="node4" class="node"><title>Node4</title>
<polygon fill="none" stroke="#bfbfbf" points="156.5,-293 156.5,-350 197.5,-350 197.5,-293 156.5,-293"/>
<text text-anchor="middle" x="177" y="-338" font-family="Helvetica,sans-Serif" font-size="10.00">string</text>
<polyline fill="none" stroke="#bfbfbf" points="156.5,-331 197.5,-331 "/>
<text text-anchor="middle" x="177" y="-319" font-family="Helvetica,sans-Serif" font-size="10.00"> </text>
<polyline fill="none" stroke="#bfbfbf" points="156.5,-312 197.5,-312 "/>
<text text-anchor="middle" x="177" y="-300" font-family="Helvetica,sans-Serif" font-size="10.00"> </text>
</g>
<!-- Node4&#45;&gt;Node1 -->
<g id="edge4" class="edge"><title>Node4&#45;&gt;Node1</title>
<path fill="none" stroke="#404040" d="M177,-292.973C177,-248.722 177,-160.867 177,-102.895"/>
<polygon fill="none" stroke="#404040" points="177,-102.645 173,-96.6453 177,-90.6453 181,-96.6452 177,-102.645"/>
<text text-anchor="middle" x="198.5" y="-203" font-family="Helvetica,sans-Serif" font-size="10.00"> +location</text>
<text text-anchor="middle" x="198.5" y="-192" font-family="Helvetica,sans-Serif" font-size="10.00">+title</text>
</g>
<!-- Node4&#45;&gt;Node2 -->
<g id="edge3" class="edge"><title>Node4&#45;&gt;Node2</title>
<path fill="none" stroke="#404040" d="M156.365,-297.905C149.066,-289.248 141.149,-279.034 135,-269 131.502,-263.293 128.19,-257.106 125.132,-250.869"/>
<polygon fill="none" stroke="#404040" points="124.987,-250.557 118.827,-246.809 119.917,-239.681 126.078,-243.429 124.987,-250.557"/>
<text text-anchor="middle" x="149" y="-261" font-family="Helvetica,sans-Serif" font-size="10.00"> &#45;desc</text>
</g>
<!-- Node5 -->
<g id="node5" class="node"><title>Node5</title>
<polygon fill="none" stroke="#bfbfbf" points="238.5,-171.5 238.5,-228.5 267.5,-228.5 267.5,-171.5 238.5,-171.5"/>
<text text-anchor="middle" x="253" y="-216.5" font-family="Helvetica,sans-Serif" font-size="10.00">int</text>
<polyline fill="none" stroke="#bfbfbf" points="238.5,-209.5 267.5,-209.5 "/>
<text text-anchor="middle" x="253" y="-197.5" font-family="Helvetica,sans-Serif" font-size="10.00"> </text>
<polyline fill="none" stroke="#bfbfbf" points="238.5,-190.5 267.5,-190.5 "/>
<text text-anchor="middle" x="253" y="-178.5" font-family="Helvetica,sans-Serif" font-size="10.00"> </text>
</g>
<!-- Node5&#45;&gt;Node1 -->
<g id="edge5" class="edge"><title>Node5&#45;&gt;Node1</title>
<path fill="none" stroke="#404040" d="M239.237,-171.383C229.562,-151.97 216.289,-125.337 204.486,-101.653"/>
<polygon fill="none" stroke="#404040" points="204.361,-101.402 198.105,-97.8164 199.009,-90.6621 205.265,-94.248 204.361,-101.402"/>
<text text-anchor="middle" x="244.5" y="-128.5" font-family="Helvetica,sans-Serif" font-size="10.00"> +money</text>
<text text-anchor="middle" x="244.5" y="-117.5" font-family="Helvetica,sans-Serif" font-size="10.00">+exp</text>
</g>
</g>
</svg>
