<?xml version="1.0" encoding="UTF-8" standalone="no"?>
<!DOCTYPE svg PUBLIC "-//W3C//DTD SVG 1.1//EN"
 "http://www.w3.org/Graphics/SVG/1.1/DTD/svg11.dtd">
<!-- Generated by graphviz version 2.38.0 (20140413.2041)
 -->
<!-- Title: Enemy Pages: 1 -->
<svg width="739pt" height="1170pt"
 viewBox="0.00 0.00 739.00 1170.00" xmlns="http://www.w3.org/2000/svg" xmlns:xlink="http://www.w3.org/1999/xlink">
<g id="graph0" class="graph" transform="scale(1 1) rotate(0) translate(4 1166)">
<title>Enemy</title>
<!-- Node2 -->
<g id="node1" class="node"><title>Node2</title>
<polygon fill="#bfbfbf" stroke="black" points="92.5,-999.5 92.5,-1056.5 159.5,-1056.5 159.5,-999.5 92.5,-999.5"/>
<text text-anchor="middle" x="126" y="-1044.5" font-family="Helvetica,sans-Serif" font-size="10.00">Enemy</text>
<polyline fill="none" stroke="black" points="92.5,-1037.5 159.5,-1037.5 "/>
<text text-anchor="start" x="100.5" y="-1025.5" font-family="Helvetica,sans-Serif" font-size="10.00">+ ExpGiven</text>
<polyline fill="none" stroke="black" points="92.5,-1018.5 159.5,-1018.5 "/>
<text text-anchor="start" x="100.5" y="-1006.5" font-family="Helvetica,sans-Serif" font-size="10.00">+ Enemy()</text>
</g>
<!-- Node8 -->
<g id="node7" class="node"><title>Node8</title>
<g id="a_node7"><a xlink:href="class_battle_manager.html" target="_top" xlink:title="Holds current Player and Enemy objects in battle and provides functions for MainBattle and other obje...">
<polygon fill="none" stroke="black" points="156,-751.5 156,-940.5 272,-940.5 272,-751.5 156,-751.5"/>
<text text-anchor="middle" x="214" y="-928.5" font-family="Helvetica,sans-Serif" font-size="10.00">BattleManager</text>
<polyline fill="none" stroke="black" points="156,-921.5 272,-921.5 "/>
<text text-anchor="start" x="164" y="-909.5" font-family="Helvetica,sans-Serif" font-size="10.00">+ Player</text>
<text text-anchor="start" x="164" y="-898.5" font-family="Helvetica,sans-Serif" font-size="10.00">+ Enemy</text>
<text text-anchor="start" x="164" y="-887.5" font-family="Helvetica,sans-Serif" font-size="10.00">+ WasCriticalHit</text>
<polyline fill="none" stroke="black" points="156,-880.5 272,-880.5 "/>
<text text-anchor="start" x="164" y="-868.5" font-family="Helvetica,sans-Serif" font-size="10.00">+ BattleManager()</text>
<text text-anchor="start" x="164" y="-857.5" font-family="Helvetica,sans-Serif" font-size="10.00">+ playerFirst()</text>
<text text-anchor="start" x="164" y="-846.5" font-family="Helvetica,sans-Serif" font-size="10.00">+ switchPlayers()</text>
<text text-anchor="start" x="164" y="-835.5" font-family="Helvetica,sans-Serif" font-size="10.00">+ isCriticalHit()</text>
<text text-anchor="start" x="164" y="-824.5" font-family="Helvetica,sans-Serif" font-size="10.00">+ ranAway()</text>
<text text-anchor="start" x="164" y="-813.5" font-family="Helvetica,sans-Serif" font-size="10.00">+ damageCalculation()</text>
<text text-anchor="start" x="164" y="-802.5" font-family="Helvetica,sans-Serif" font-size="10.00">+ enemyMove()</text>
<text text-anchor="start" x="164" y="-791.5" font-family="Helvetica,sans-Serif" font-size="10.00">+ enemySpecialMove()</text>
<text text-anchor="start" x="164" y="-780.5" font-family="Helvetica,sans-Serif" font-size="10.00">+ battleWon()</text>
<text text-anchor="start" x="164" y="-769.5" font-family="Helvetica,sans-Serif" font-size="10.00">+ playerFainted()</text>
<text text-anchor="start" x="164" y="-758.5" font-family="Helvetica,sans-Serif" font-size="10.00">&#45; characterFainted()</text>
</a>
</g>
</g>
<!-- Node2&#45;&gt;Node8 -->
<g id="edge10" class="edge"><title>Node2&#45;&gt;Node8</title>
<path fill="none" stroke="#404040" d="M137.206,-999.31C142.39,-986.881 148.771,-972.097 155,-959 156.17,-956.541 157.364,-954.057 158.579,-951.558"/>
<polygon fill="none" stroke="#404040" points="158.713,-951.285 157.776,-944.135 164.015,-940.519 164.953,-947.669 158.713,-951.285"/>
<text text-anchor="middle" x="173" y="-967.5" font-family="Helvetica,sans-Serif" font-size="10.00"> &#45;enemy</text>
</g>
<!-- Node3 -->
<g id="node2" class="node"><title>Node3</title>
<g id="a_node2"><a xlink:href="class_character.html" target="_top" xlink:title="Base abstract class for Enemy and Player to inherit from. Defines all shared variables, their constructor and their setters and getters ">
<polygon fill="none" stroke="black" points="306.5,-161.5 306.5,-339.5 401.5,-339.5 401.5,-161.5 306.5,-161.5"/>
<text text-anchor="middle" x="354" y="-327.5" font-family="Helvetica,sans-Serif" font-size="10.00">Character</text>
<polyline fill="none" stroke="black" points="306.5,-320.5 401.5,-320.5 "/>
<text text-anchor="start" x="314.5" y="-308.5" font-family="Helvetica,sans-Serif" font-size="10.00">+ Name</text>
<text text-anchor="start" x="314.5" y="-297.5" font-family="Helvetica,sans-Serif" font-size="10.00">+ Level</text>
<text text-anchor="start" x="314.5" y="-286.5" font-family="Helvetica,sans-Serif" font-size="10.00">+ Health</text>
<text text-anchor="start" x="314.5" y="-275.5" font-family="Helvetica,sans-Serif" font-size="10.00">+ Attack</text>
<text text-anchor="start" x="314.5" y="-264.5" font-family="Helvetica,sans-Serif" font-size="10.00">+ Defence</text>
<text text-anchor="start" x="314.5" y="-253.5" font-family="Helvetica,sans-Serif" font-size="10.00">+ MaximumMagic</text>
<text text-anchor="start" x="314.5" y="-242.5" font-family="Helvetica,sans-Serif" font-size="10.00">+ Magic</text>
<text text-anchor="start" x="314.5" y="-231.5" font-family="Helvetica,sans-Serif" font-size="10.00">+ Luck</text>
<text text-anchor="start" x="314.5" y="-220.5" font-family="Helvetica,sans-Serif" font-size="10.00">+ Speed</text>
<text text-anchor="start" x="314.5" y="-209.5" font-family="Helvetica,sans-Serif" font-size="10.00">+ Special1</text>
<text text-anchor="start" x="314.5" y="-198.5" font-family="Helvetica,sans-Serif" font-size="10.00">+ Special2</text>
<text text-anchor="start" x="314.5" y="-187.5" font-family="Helvetica,sans-Serif" font-size="10.00">+ Image</text>
<polyline fill="none" stroke="black" points="306.5,-180.5 401.5,-180.5 "/>
<text text-anchor="start" x="314.5" y="-168.5" font-family="Helvetica,sans-Serif" font-size="10.00"># Character()</text>
</a>
</g>
</g>
<!-- Node3&#45;&gt;Node2 -->
<g id="edge1" class="edge"><title>Node3&#45;&gt;Node2</title>
<path fill="none" stroke="midnightblue" d="M296.807,-268.186C222.733,-293.728 103,-350.149 103,-448 103,-847 103,-847 103,-847 103,-901.345 113.443,-964.179 120.255,-999.388"/>
<polygon fill="none" stroke="midnightblue" points="298.129,-271.434 306.494,-264.931 295.9,-264.798 298.129,-271.434"/>
</g>
<!-- Node7 -->
<g id="node6" class="node"><title>Node7</title>
<g id="a_node6"><a xlink:href="class_character_move.html" target="_top" xlink:title="Astract base class for character moves ">
<polygon fill="none" stroke="black" points="339,-547.5 339,-626.5 425,-626.5 425,-547.5 339,-547.5"/>
<text text-anchor="middle" x="382" y="-614.5" font-family="Helvetica,sans-Serif" font-size="10.00">CharacterMove</text>
<polyline fill="none" stroke="black" points="339,-607.5 425,-607.5 "/>
<text text-anchor="start" x="347" y="-595.5" font-family="Helvetica,sans-Serif" font-size="10.00">+ User</text>
<text text-anchor="start" x="347" y="-584.5" font-family="Helvetica,sans-Serif" font-size="10.00">+ Target</text>
<text text-anchor="start" x="347" y="-573.5" font-family="Helvetica,sans-Serif" font-size="10.00">+ Text</text>
<polyline fill="none" stroke="black" points="339,-566.5 425,-566.5 "/>
<text text-anchor="start" x="347" y="-554.5" font-family="Helvetica,sans-Serif" font-size="10.00">+ performMove()</text>
</a>
</g>
</g>
<!-- Node3&#45;&gt;Node7 -->
<g id="edge7" class="edge"><title>Node3&#45;&gt;Node7</title>
<path fill="none" stroke="#404040" d="M356.711,-339.666C358.742,-387.252 362.204,-446.95 368,-500 369.243,-511.375 370.973,-523.535 372.795,-535.025"/>
<polygon fill="none" stroke="#404040" points="372.843,-535.319 377.763,-540.591 374.789,-547.16 369.869,-541.888 372.843,-535.319"/>
<text text-anchor="middle" x="385" y="-452" font-family="Helvetica,sans-Serif" font-size="10.00"> #target</text>
<text text-anchor="middle" x="385" y="-441" font-family="Helvetica,sans-Serif" font-size="10.00">#user</text>
</g>
<!-- Node10 -->
<g id="node9" class="node"><title>Node10</title>
<g id="a_node9"><a xlink:href="class_player.html" target="_top" xlink:title="Defines a playable character for use in battle scenes">
<polygon fill="none" stroke="black" points="193,-0.5 193,-123.5 305,-123.5 305,-0.5 193,-0.5"/>
<text text-anchor="middle" x="249" y="-111.5" font-family="Helvetica,sans-Serif" font-size="10.00">Player</text>
<polyline fill="none" stroke="black" points="193,-104.5 305,-104.5 "/>
<text text-anchor="start" x="201" y="-92.5" font-family="Helvetica,sans-Serif" font-size="10.00">+ Exp</text>
<text text-anchor="start" x="201" y="-81.5" font-family="Helvetica,sans-Serif" font-size="10.00">+ Item</text>
<text text-anchor="start" x="201" y="-70.5" font-family="Helvetica,sans-Serif" font-size="10.00">+ ExpToNextLevel</text>
<polyline fill="none" stroke="black" points="193,-63.5 305,-63.5 "/>
<text text-anchor="start" x="201" y="-51.5" font-family="Helvetica,sans-Serif" font-size="10.00">+ Player()</text>
<text text-anchor="start" x="201" y="-40.5" font-family="Helvetica,sans-Serif" font-size="10.00">+ gainExp()</text>
<text text-anchor="start" x="201" y="-29.5" font-family="Helvetica,sans-Serif" font-size="10.00">+ levelUp()</text>
<text text-anchor="start" x="201" y="-18.5" font-family="Helvetica,sans-Serif" font-size="10.00">+ Clone()</text>
<text text-anchor="start" x="201" y="-7.5" font-family="Helvetica,sans-Serif" font-size="10.00">&#45; setExpToNextLevel()</text>
</a>
</g>
</g>
<!-- Node3&#45;&gt;Node10 -->
<g id="edge14" class="edge"><title>Node3&#45;&gt;Node10</title>
<path fill="none" stroke="midnightblue" d="M301.423,-156.114C295.191,-145.044 288.96,-133.976 283.081,-123.535"/>
<polygon fill="none" stroke="midnightblue" points="298.46,-157.984 306.415,-164.981 304.559,-154.55 298.46,-157.984"/>
</g>
<!-- Node4 -->
<g id="node3" class="node"><title>Node4</title>
<polygon fill="none" stroke="#bfbfbf" points="444.5,-999.5 444.5,-1056.5 485.5,-1056.5 485.5,-999.5 444.5,-999.5"/>
<text text-anchor="middle" x="465" y="-1044.5" font-family="Helvetica,sans-Serif" font-size="10.00">string</text>
<polyline fill="none" stroke="#bfbfbf" points="444.5,-1037.5 485.5,-1037.5 "/>
<text text-anchor="middle" x="465" y="-1025.5" font-family="Helvetica,sans-Serif" font-size="10.00"> </text>
<polyline fill="none" stroke="#bfbfbf" points="444.5,-1018.5 485.5,-1018.5 "/>
<text text-anchor="middle" x="465" y="-1006.5" font-family="Helvetica,sans-Serif" font-size="10.00"> </text>
</g>
<!-- Node4&#45;&gt;Node3 -->
<g id="edge2" class="edge"><title>Node4&#45;&gt;Node3</title>
<path fill="none" stroke="#404040" d="M463.887,-999.168C461.829,-949.363 457.079,-841.715 451,-751 440.41,-592.961 443.345,-550.902 402,-398 397.908,-382.867 393.176,-366.991 388.311,-351.502"/>
<polygon fill="none" stroke="#404040" points="388.211,-351.188 382.58,-346.683 384.573,-339.753 390.204,-344.258 388.211,-351.188"/>
<text text-anchor="middle" x="460.5" y="-584.5" font-family="Helvetica,sans-Serif" font-size="10.00"> #name</text>
</g>
<!-- Node6 -->
<g id="node5" class="node"><title>Node6</title>
<g id="a_node5"><a xlink:href="class_special_move.html" target="_top" xlink:title="Special move abstract base class that expands upon CharacterMove, adding magic properties ...">
<polygon fill="none" stroke="black" points="524,-398.5 524,-499.5 622,-499.5 622,-398.5 524,-398.5"/>
<text text-anchor="middle" x="573" y="-487.5" font-family="Helvetica,sans-Serif" font-size="10.00">SpecialMove</text>
<polyline fill="none" stroke="black" points="524,-480.5 622,-480.5 "/>
<text text-anchor="start" x="532" y="-468.5" font-family="Helvetica,sans-Serif" font-size="10.00">+ Magic</text>
<text text-anchor="start" x="532" y="-457.5" font-family="Helvetica,sans-Serif" font-size="10.00">+ Desc</text>
<text text-anchor="start" x="532" y="-446.5" font-family="Helvetica,sans-Serif" font-size="10.00">+ Special</text>
<polyline fill="none" stroke="black" points="524,-439.5 622,-439.5 "/>
<text text-anchor="start" x="532" y="-427.5" font-family="Helvetica,sans-Serif" font-size="10.00">+ setUp()</text>
<text text-anchor="start" x="532" y="-416.5" font-family="Helvetica,sans-Serif" font-size="10.00">+ decreaseMagic()</text>
<text text-anchor="start" x="532" y="-405.5" font-family="Helvetica,sans-Serif" font-size="10.00"># SpecialMove()</text>
</a>
</g>
</g>
<!-- Node4&#45;&gt;Node6 -->
<g id="edge18" class="edge"><title>Node4&#45;&gt;Node6</title>
<path fill="none" stroke="#404040" d="M474.073,-999.439C475.867,-993.405 477.619,-987.021 479,-981 522.642,-790.698 506.557,-738.008 547,-547 549.465,-535.359 552.463,-523.03 555.536,-511.209"/>
<polygon fill="none" stroke="#404040" points="555.538,-511.198 553.211,-504.373 558.616,-499.6 560.943,-506.425 555.538,-511.198"/>
<text text-anchor="middle" x="543" y="-686.5" font-family="Helvetica,sans-Serif" font-size="10.00"> #desc</text>
</g>
<!-- Node4&#45;&gt;Node7 -->
<g id="edge6" class="edge"><title>Node4&#45;&gt;Node7</title>
<path fill="none" stroke="#404040" d="M449.772,-999.147C441.446,-982.697 431.696,-961.197 426,-941 410.298,-885.324 394.015,-722.102 386.409,-638.548"/>
<polygon fill="none" stroke="#404040" points="386.408,-638.529 381.885,-632.913 385.33,-626.578 389.853,-632.194 386.408,-638.529"/>
<text text-anchor="middle" x="438.5" y="-843.5" font-family="Helvetica,sans-Serif" font-size="10.00"> #text</text>
</g>
<!-- Node4&#45;&gt;Node8 -->
<g id="edge9" class="edge"><title>Node4&#45;&gt;Node8</title>
<path fill="none" stroke="#404040" d="M444.088,-1022.25C418.492,-1015.78 374.544,-1002.47 342,-981 319.992,-966.484 298.957,-947.53 280.528,-928.467"/>
<polygon fill="none" stroke="#404040" points="280.497,-928.433 273.468,-926.823 272.25,-919.716 279.279,-921.326 280.497,-928.433"/>
<text text-anchor="middle" x="384" y="-973" font-family="Helvetica,sans-Serif" font-size="10.00"> +forceEnemyMove</text>
<text text-anchor="middle" x="384" y="-962" font-family="Helvetica,sans-Serif" font-size="10.00">+forceCriticalHits</text>
</g>
<!-- Node11 -->
<g id="node10" class="node"><title>Node11</title>
<g id="a_node10"><a xlink:href="class_item.html" target="_top" xlink:title="Abstract class for items that can be equipped to a player, increasing some of their stats ...">
<polygon fill="none" stroke="black" points="579.5,-649.5 579.5,-728.5 656.5,-728.5 656.5,-649.5 579.5,-649.5"/>
<text text-anchor="middle" x="618" y="-716.5" font-family="Helvetica,sans-Serif" font-size="10.00">Item</text>
<polyline fill="none" stroke="black" points="579.5,-709.5 656.5,-709.5 "/>
<text text-anchor="start" x="587.5" y="-697.5" font-family="Helvetica,sans-Serif" font-size="10.00">+ Name</text>
<text text-anchor="start" x="587.5" y="-686.5" font-family="Helvetica,sans-Serif" font-size="10.00">+ Desc</text>
<polyline fill="none" stroke="black" points="579.5,-679.5 656.5,-679.5 "/>
<text text-anchor="start" x="587.5" y="-667.5" font-family="Helvetica,sans-Serif" font-size="10.00">+ applyBuffs()</text>
<text text-anchor="start" x="587.5" y="-656.5" font-family="Helvetica,sans-Serif" font-size="10.00">+ revertBuffs()</text>
</a>
</g>
</g>
<!-- Node4&#45;&gt;Node11 -->
<g id="edge16" class="edge"><title>Node4&#45;&gt;Node11</title>
<path fill="none" stroke="#404040" d="M485.586,-1019.23C502.375,-1011.87 525.452,-999.202 539,-981 592.513,-909.105 609.784,-803.222 615.353,-740.966"/>
<polygon fill="none" stroke="#404040" points="615.374,-740.706 611.873,-734.402 616.346,-728.746 619.847,-735.05 615.374,-740.706"/>
<text text-anchor="middle" x="566" y="-973" font-family="Helvetica,sans-Serif" font-size="10.00"> #desc</text>
<text text-anchor="middle" x="566" y="-962" font-family="Helvetica,sans-Serif" font-size="10.00">#name</text>
</g>
<!-- Node5 -->
<g id="node4" class="node"><title>Node5</title>
<polygon fill="none" stroke="#bfbfbf" points="234.5,-1104.5 234.5,-1161.5 263.5,-1161.5 263.5,-1104.5 234.5,-1104.5"/>
<text text-anchor="middle" x="249" y="-1149.5" font-family="Helvetica,sans-Serif" font-size="10.00">int</text>
<polyline fill="none" stroke="#bfbfbf" points="234.5,-1142.5 263.5,-1142.5 "/>
<text text-anchor="middle" x="249" y="-1130.5" font-family="Helvetica,sans-Serif" font-size="10.00"> </text>
<polyline fill="none" stroke="#bfbfbf" points="234.5,-1123.5 263.5,-1123.5 "/>
<text text-anchor="middle" x="249" y="-1111.5" font-family="Helvetica,sans-Serif" font-size="10.00"> </text>
</g>
<!-- Node5&#45;&gt;Node2 -->
<g id="edge22" class="edge"><title>Node5&#45;&gt;Node2</title>
<path fill="none" stroke="#404040" d="M234.438,-1121.35C222.125,-1112.23 204.125,-1098.6 189,-1086 181.019,-1079.35 172.66,-1072.04 164.736,-1064.94"/>
<polygon fill="none" stroke="#404040" points="164.584,-1064.81 157.451,-1063.75 155.682,-1056.76 162.815,-1057.82 164.584,-1064.81"/>
<text text-anchor="middle" x="212" y="-1078" font-family="Helvetica,sans-Serif" font-size="10.00"> &#45;expGiven</text>
</g>
<!-- Node5&#45;&gt;Node3 -->
<g id="edge3" class="edge"><title>Node5&#45;&gt;Node3</title>
<path fill="none" stroke="#404040" d="M263.589,-1117.14C276.402,-1102.99 294.182,-1080.44 302,-1057 331.538,-968.424 308,-940.371 308,-847 308,-847 308,-847 308,-448 308,-416.296 313.747,-382.454 321.179,-351.946"/>
<polygon fill="none" stroke="#404040" points="321.263,-351.617 318.863,-344.816 324.218,-339.986 326.617,-346.786 321.263,-351.617"/>
<text text-anchor="middle" x="345.5" y="-725" font-family="Helvetica,sans-Serif" font-size="10.00"> #speed</text>
<text text-anchor="middle" x="345.5" y="-714" font-family="Helvetica,sans-Serif" font-size="10.00">#luck</text>
<text text-anchor="middle" x="345.5" y="-703" font-family="Helvetica,sans-Serif" font-size="10.00">#health</text>
<text text-anchor="middle" x="345.5" y="-692" font-family="Helvetica,sans-Serif" font-size="10.00">#magic</text>
<text text-anchor="middle" x="345.5" y="-681" font-family="Helvetica,sans-Serif" font-size="10.00">#maximumMagic</text>
<text text-anchor="middle" x="345.5" y="-670" font-family="Helvetica,sans-Serif" font-size="10.00">#attack</text>
<text text-anchor="middle" x="345.5" y="-659" font-family="Helvetica,sans-Serif" font-size="10.00">#defence</text>
<text text-anchor="middle" x="345.5" y="-648" font-family="Helvetica,sans-Serif" font-size="10.00">#level</text>
</g>
<!-- Node5&#45;&gt;Node6 -->
<g id="edge20" class="edge"><title>Node5&#45;&gt;Node6</title>
<path fill="none" stroke="#404040" d="M263.872,-1131.83C341.434,-1130.56 696,-1119.79 696,-1029 696,-1029 696,-1029 696,-586 696,-564.903 663.03,-529.197 631.23,-499.664"/>
<polygon fill="none" stroke="#404040" points="631.175,-499.614 624.048,-498.516 622.32,-491.515 629.447,-492.613 631.175,-499.614"/>
<text text-anchor="middle" x="713.5" y="-843.5" font-family="Helvetica,sans-Serif" font-size="10.00"> #magic</text>
</g>
<!-- Node5&#45;&gt;Node8 -->
<g id="edge11" class="edge"><title>Node5&#45;&gt;Node8</title>
<path fill="none" stroke="#404040" d="M251.904,-1104.44C256.545,-1059.21 264.839,-972.83 262,-959 261.549,-956.803 261.053,-954.596 260.517,-952.383"/>
<polygon fill="none" stroke="#404040" points="260.44,-952.103 255.005,-947.365 257.288,-940.524 262.724,-945.263 260.44,-952.103"/>
<text text-anchor="middle" x="281.5" y="-1025.5" font-family="Helvetica,sans-Serif" font-size="10.00"> +money</text>
</g>
<!-- Node5&#45;&gt;Node10 -->
<g id="edge17" class="edge"><title>Node5&#45;&gt;Node10</title>
<path fill="none" stroke="#404040" d="M234.17,-1132.61C180.565,-1133.97 0,-1130.98 0,-1029 0,-1029 0,-1029 0,-249.5 0,-158.628 107.553,-106.645 181.287,-81.6852"/>
<polygon fill="none" stroke="#404040" points="181.406,-81.6464 185.862,-75.9769 192.809,-77.9095 188.353,-83.5791 181.406,-81.6464"/>
<text text-anchor="middle" x="37.5" y="-590" font-family="Helvetica,sans-Serif" font-size="10.00"> &#45;expToNextLevel</text>
<text text-anchor="middle" x="37.5" y="-579" font-family="Helvetica,sans-Serif" font-size="10.00">&#45;exp</text>
</g>
<!-- Node6&#45;&gt;Node3 -->
<g id="edge4" class="edge"><title>Node6&#45;&gt;Node3</title>
<path fill="none" stroke="#404040" d="M524.157,-398.167C510.718,-384.878 495.987,-370.692 482,-358 459.334,-337.432 433.523,-315.661 411.045,-297.199"/>
<polygon fill="none" stroke="#404040" points="410.923,-297.1 403.746,-296.398 401.634,-289.503 408.811,-290.205 410.923,-297.1"/>
<text text-anchor="middle" x="528.5" y="-372" font-family="Helvetica,sans-Serif" font-size="10.00"> #special1</text>
<text text-anchor="middle" x="528.5" y="-361" font-family="Helvetica,sans-Serif" font-size="10.00">#special2</text>
</g>
<!-- Node7&#45;&gt;Node6 -->
<g id="edge5" class="edge"><title>Node7&#45;&gt;Node6</title>
<path fill="none" stroke="midnightblue" d="M434.088,-550.86C436.081,-549.552 438.057,-548.262 440,-547 472.993,-525.578 483.345,-523.354 515,-500 517.888,-497.869 520.813,-495.631 523.733,-493.333"/>
<polygon fill="none" stroke="midnightblue" points="431.704,-548.24 425.289,-556.671 435.562,-554.081 431.704,-548.24"/>
</g>
<!-- Node8&#45;&gt;Node7 -->
<g id="edge8" class="edge"><title>Node8&#45;&gt;Node7</title>
<path fill="none" stroke="#404040" d="M217.201,-751.314C220.454,-707.72 226.972,-661.815 240,-645 260.899,-618.026 296.575,-603.771 326.938,-596.262"/>
<polygon fill="none" stroke="#404040" points="326.994,-596.249 331.97,-591.029 338.702,-593.614 333.726,-598.834 326.994,-596.249"/>
<text text-anchor="middle" x="263" y="-686.5" font-family="Helvetica,sans-Serif" font-size="10.00"> #manager</text>
</g>
<!-- Node9 -->
<g id="node8" class="node"><title>Node9</title>
<polygon fill="none" stroke="#bfbfbf" points="177.5,-999.5 177.5,-1056.5 212.5,-1056.5 212.5,-999.5 177.5,-999.5"/>
<text text-anchor="middle" x="195" y="-1044.5" font-family="Helvetica,sans-Serif" font-size="10.00">bool</text>
<polyline fill="none" stroke="#bfbfbf" points="177.5,-1037.5 212.5,-1037.5 "/>
<text text-anchor="middle" x="195" y="-1025.5" font-family="Helvetica,sans-Serif" font-size="10.00"> </text>
<polyline fill="none" stroke="#bfbfbf" points="177.5,-1018.5 212.5,-1018.5 "/>
<text text-anchor="middle" x="195" y="-1006.5" font-family="Helvetica,sans-Serif" font-size="10.00"> </text>
</g>
<!-- Node9&#45;&gt;Node8 -->
<g id="edge12" class="edge"><title>Node9&#45;&gt;Node8</title>
<path fill="none" stroke="#404040" d="M194.502,-999.492C194.51,-987.098 194.84,-972.291 196,-959 196.179,-956.943 196.374,-954.867 196.583,-952.776"/>
<polygon fill="none" stroke="#404040" points="196.602,-952.608 193.286,-946.204 197.921,-940.68 201.237,-947.084 196.602,-952.608"/>
<text text-anchor="middle" x="229" y="-967.5" font-family="Helvetica,sans-Serif" font-size="10.00"> &#45;wasCriticalHit</text>
</g>
<!-- Node10&#45;&gt;Node8 -->
<g id="edge13" class="edge"><title>Node10&#45;&gt;Node8</title>
<path fill="none" stroke="#404040" d="M227.752,-123.51C216.919,-159.614 206,-206.636 206,-249.5 206,-588 206,-588 206,-588 206,-637.686 207.512,-692.748 209.222,-739.12"/>
<polygon fill="none" stroke="#404040" points="209.23,-739.342 213.454,-745.186 209.684,-751.333 205.46,-745.489 209.23,-739.342"/>
<text text-anchor="middle" x="222.5" y="-446.5" font-family="Helvetica,sans-Serif" font-size="10.00"> &#45;player</text>
</g>
<!-- Node11&#45;&gt;Node10 -->
<g id="edge15" class="edge"><title>Node11&#45;&gt;Node10</title>
<path fill="none" stroke="#404040" d="M633.008,-649.336C644.358,-616.609 658,-568.188 658,-524.5 658,-524.5 658,-524.5 658,-249.5 658,-101.541 433.673,-70.4458 317.288,-64.2695"/>
<polygon fill="none" stroke="#404040" points="316.999,-64.2559 310.817,-67.968 305.012,-63.6891 311.194,-59.9769 316.999,-64.2559"/>
<text text-anchor="middle" x="670.5" y="-446.5" font-family="Helvetica,sans-Serif" font-size="10.00"> &#45;item</text>
</g>
<!-- Node12 -->
<g id="node11" class="node"><title>Node12</title>
<polygon fill="none" stroke="#bfbfbf" points="555.5,-558.5 555.5,-615.5 590.5,-615.5 590.5,-558.5 555.5,-558.5"/>
<text text-anchor="middle" x="573" y="-603.5" font-family="Helvetica,sans-Serif" font-size="10.00">float</text>
<polyline fill="none" stroke="#bfbfbf" points="555.5,-596.5 590.5,-596.5 "/>
<text text-anchor="middle" x="573" y="-584.5" font-family="Helvetica,sans-Serif" font-size="10.00"> </text>
<polyline fill="none" stroke="#bfbfbf" points="555.5,-577.5 590.5,-577.5 "/>
<text text-anchor="middle" x="573" y="-565.5" font-family="Helvetica,sans-Serif" font-size="10.00"> </text>
</g>
<!-- Node12&#45;&gt;Node6 -->
<g id="edge19" class="edge"><title>Node12&#45;&gt;Node6</title>
<path fill="none" stroke="#404040" d="M573,-558.478C573,-545.057 573,-528.327 573,-512.055"/>
<polygon fill="none" stroke="#404040" points="573,-511.764 569,-505.764 573,-499.764 577,-505.764 573,-511.764"/>
<text text-anchor="middle" x="593" y="-521" font-family="Helvetica,sans-Serif" font-size="10.00"> #special</text>
</g>
<!-- Node13 -->
<g id="node12" class="node"><title>Node13</title>
<polygon fill="none" stroke="#bfbfbf" points="444.5,-420.5 444.5,-477.5 505.5,-477.5 505.5,-420.5 444.5,-420.5"/>
<text text-anchor="middle" x="475" y="-465.5" font-family="Helvetica,sans-Serif" font-size="10.00">Texture2D</text>
<polyline fill="none" stroke="#bfbfbf" points="444.5,-458.5 505.5,-458.5 "/>
<text text-anchor="middle" x="475" y="-446.5" font-family="Helvetica,sans-Serif" font-size="10.00"> </text>
<polyline fill="none" stroke="#bfbfbf" points="444.5,-439.5 505.5,-439.5 "/>
<text text-anchor="middle" x="475" y="-427.5" font-family="Helvetica,sans-Serif" font-size="10.00"> </text>
</g>
<!-- Node13&#45;&gt;Node3 -->
<g id="edge21" class="edge"><title>Node13&#45;&gt;Node3</title>
<path fill="none" stroke="#404040" d="M462.494,-420.231C454.009,-402.13 442.16,-378.207 430,-358 423.409,-347.048 416.044,-335.765 408.562,-324.825"/>
<polygon fill="none" stroke="#404040" points="408.515,-324.756 401.809,-322.104 401.678,-314.894 408.384,-317.546 408.515,-324.756"/>
<text text-anchor="middle" x="460.5" y="-366.5" font-family="Helvetica,sans-Serif" font-size="10.00"> #image</text>
</g>
</g>
</svg>
