<?xml version="1.0" encoding="UTF-8" standalone="no"?>
<!DOCTYPE svg PUBLIC "-//W3C//DTD SVG 1.1//EN"
 "http://www.w3.org/Graphics/SVG/1.1/DTD/svg11.dtd">
<!-- Generated by graphviz version 2.38.0 (20140413.2041)
 -->
<!-- Title: DiamondShield Pages: 1 -->
<svg width="105pt" height="321pt"
 viewBox="0.00 0.00 105.00 321.00" xmlns="http://www.w3.org/2000/svg" xmlns:xlink="http://www.w3.org/1999/xlink">
<g id="graph0" class="graph" transform="scale(1 1) rotate(0) translate(4 317)">
<title>DiamondShield</title>
<!-- Node2 -->
<g id="node1" class="node"><title>Node2</title>
<polygon fill="#bfbfbf" stroke="black" points="0,-0.5 0,-79.5 97,-79.5 97,-0.5 0,-0.5"/>
<text text-anchor="middle" x="48.5" y="-67.5" font-family="Helvetica,sans-Serif" font-size="10.00">DiamondShield</text>
<polyline fill="none" stroke="black" points="0,-60.5 97,-60.5 "/>
<text text-anchor="middle" x="48.5" y="-48.5" font-family="Helvetica,sans-Serif" font-size="10.00"> </text>
<polyline fill="none" stroke="black" points="0,-41.5 97,-41.5 "/>
<text text-anchor="start" x="8" y="-29.5" font-family="Helvetica,sans-Serif" font-size="10.00">+ DiamondShield()</text>
<text text-anchor="start" x="8" y="-18.5" font-family="Helvetica,sans-Serif" font-size="10.00">+ applyBuffs()</text>
<text text-anchor="start" x="8" y="-7.5" font-family="Helvetica,sans-Serif" font-size="10.00">+ revertBuffs()</text>
</g>
<!-- Node3 -->
<g id="node2" class="node"><title>Node3</title>
<g id="a_node2"><a xlink:href="class_item.html" target="_top" xlink:title="Abstract class for items that can be equipped to a player, increasing some of their stats ...">
<polygon fill="none" stroke="black" points="10,-117.5 10,-196.5 87,-196.5 87,-117.5 10,-117.5"/>
<text text-anchor="middle" x="48.5" y="-184.5" font-family="Helvetica,sans-Serif" font-size="10.00">Item</text>
<polyline fill="none" stroke="black" points="10,-177.5 87,-177.5 "/>
<text text-anchor="start" x="18" y="-165.5" font-family="Helvetica,sans-Serif" font-size="10.00">+ Name</text>
<text text-anchor="start" x="18" y="-154.5" font-family="Helvetica,sans-Serif" font-size="10.00">+ Desc</text>
<polyline fill="none" stroke="black" points="10,-147.5 87,-147.5 "/>
<text text-anchor="start" x="18" y="-135.5" font-family="Helvetica,sans-Serif" font-size="10.00">+ applyBuffs()</text>
<text text-anchor="start" x="18" y="-124.5" font-family="Helvetica,sans-Serif" font-size="10.00">+ revertBuffs()</text>
</a>
</g>
</g>
<!-- Node3&#45;&gt;Node2 -->
<g id="edge1" class="edge"><title>Node3&#45;&gt;Node2</title>
<path fill="none" stroke="midnightblue" d="M48.5,-107.199C48.5,-98.016 48.5,-88.5299 48.5,-79.7071"/>
<polygon fill="none" stroke="midnightblue" points="45.0001,-107.387 48.5,-117.387 52.0001,-107.387 45.0001,-107.387"/>
</g>
<!-- Node4 -->
<g id="node3" class="node"><title>Node4</title>
<polygon fill="none" stroke="#bfbfbf" points="28,-255.5 28,-312.5 69,-312.5 69,-255.5 28,-255.5"/>
<text text-anchor="middle" x="48.5" y="-300.5" font-family="Helvetica,sans-Serif" font-size="10.00">string</text>
<polyline fill="none" stroke="#bfbfbf" points="28,-293.5 69,-293.5 "/>
<text text-anchor="middle" x="48.5" y="-281.5" font-family="Helvetica,sans-Serif" font-size="10.00"> </text>
<polyline fill="none" stroke="#bfbfbf" points="28,-274.5 69,-274.5 "/>
<text text-anchor="middle" x="48.5" y="-262.5" font-family="Helvetica,sans-Serif" font-size="10.00"> </text>
</g>
<!-- Node4&#45;&gt;Node3 -->
<g id="edge2" class="edge"><title>Node4&#45;&gt;Node3</title>
<path fill="none" stroke="#404040" d="M48.5,-255.258C48.5,-241.637 48.5,-224.787 48.5,-208.96"/>
<polygon fill="none" stroke="#404040" points="48.5001,-208.567 44.5,-202.567 48.5,-196.567 52.5,-202.567 48.5001,-208.567"/>
<text text-anchor="middle" x="63.5" y="-229" font-family="Helvetica,sans-Serif" font-size="10.00"> #desc</text>
<text text-anchor="middle" x="63.5" y="-218" font-family="Helvetica,sans-Serif" font-size="10.00">#name</text>
</g>
</g>
</svg>
