<?xml version="1.0" encoding="UTF-8" standalone="no"?>
<!DOCTYPE svg PUBLIC "-//W3C//DTD SVG 1.1//EN"
 "http://www.w3.org/Graphics/SVG/1.1/DTD/svg11.dtd">
<!-- Generated by graphviz version 2.38.0 (20140413.2041)
 -->
<!-- Title: RaiseDefence Pages: 1 -->
<svg width="790pt" height="1056pt"
 viewBox="0.00 0.00 789.50 1056.00" xmlns="http://www.w3.org/2000/svg" xmlns:xlink="http://www.w3.org/1999/xlink">
<g id="graph0" class="graph" transform="scale(1 1) rotate(0) translate(4 1052)">
<title>RaiseDefence</title>
<!-- Node3 -->
<g id="node1" class="node"><title>Node3</title>
<polygon fill="#bfbfbf" stroke="black" points="100.5,-590.5 100.5,-658.5 192.5,-658.5 192.5,-590.5 100.5,-590.5"/>
<text text-anchor="middle" x="146.5" y="-646.5" font-family="Helvetica,sans-Serif" font-size="10.00">RaiseDefence</text>
<polyline fill="none" stroke="black" points="100.5,-639.5 192.5,-639.5 "/>
<text text-anchor="middle" x="146.5" y="-627.5" font-family="Helvetica,sans-Serif" font-size="10.00"> </text>
<polyline fill="none" stroke="black" points="100.5,-620.5 192.5,-620.5 "/>
<text text-anchor="start" x="108.5" y="-608.5" font-family="Helvetica,sans-Serif" font-size="10.00">+ RaiseDefence()</text>
<text text-anchor="start" x="108.5" y="-597.5" font-family="Helvetica,sans-Serif" font-size="10.00">+ performMove()</text>
</g>
<!-- Node4 -->
<g id="node2" class="node"><title>Node4</title>
<g id="a_node2"><a xlink:href="class_special_move.html" target="_top" xlink:title="Special move abstract base class that expands upon CharacterMove, adding magic properties ...">
<polygon fill="none" stroke="black" points="138.5,-830.5 138.5,-931.5 236.5,-931.5 236.5,-830.5 138.5,-830.5"/>
<text text-anchor="middle" x="187.5" y="-919.5" font-family="Helvetica,sans-Serif" font-size="10.00">SpecialMove</text>
<polyline fill="none" stroke="black" points="138.5,-912.5 236.5,-912.5 "/>
<text text-anchor="start" x="146.5" y="-900.5" font-family="Helvetica,sans-Serif" font-size="10.00">+ Magic</text>
<text text-anchor="start" x="146.5" y="-889.5" font-family="Helvetica,sans-Serif" font-size="10.00">+ Desc</text>
<text text-anchor="start" x="146.5" y="-878.5" font-family="Helvetica,sans-Serif" font-size="10.00">+ Special</text>
<polyline fill="none" stroke="black" points="138.5,-871.5 236.5,-871.5 "/>
<text text-anchor="start" x="146.5" y="-859.5" font-family="Helvetica,sans-Serif" font-size="10.00">+ setUp()</text>
<text text-anchor="start" x="146.5" y="-848.5" font-family="Helvetica,sans-Serif" font-size="10.00">+ decreaseMagic()</text>
<text text-anchor="start" x="146.5" y="-837.5" font-family="Helvetica,sans-Serif" font-size="10.00"># SpecialMove()</text>
</a>
</g>
</g>
<!-- Node4&#45;&gt;Node3 -->
<g id="edge1" class="edge"><title>Node4&#45;&gt;Node3</title>
<path fill="none" stroke="midnightblue" d="M177.87,-820.222C169.762,-769.893 158.462,-699.752 151.87,-658.835"/>
<polygon fill="none" stroke="midnightblue" points="174.451,-821.01 179.497,-830.326 181.362,-819.896 174.451,-821.01"/>
</g>
<!-- Node7 -->
<g id="node5" class="node"><title>Node7</title>
<g id="a_node5"><a xlink:href="class_character.html" target="_top" xlink:title="Base abstract class for Enemy and Player to inherit from. Defines all shared variables, their constructor and their setters and getters ">
<polygon fill="none" stroke="black" points="430,-535.5 430,-713.5 525,-713.5 525,-535.5 430,-535.5"/>
<text text-anchor="middle" x="477.5" y="-701.5" font-family="Helvetica,sans-Serif" font-size="10.00">Character</text>
<polyline fill="none" stroke="black" points="430,-694.5 525,-694.5 "/>
<text text-anchor="start" x="438" y="-682.5" font-family="Helvetica,sans-Serif" font-size="10.00">+ Name</text>
<text text-anchor="start" x="438" y="-671.5" font-family="Helvetica,sans-Serif" font-size="10.00">+ Level</text>
<text text-anchor="start" x="438" y="-660.5" font-family="Helvetica,sans-Serif" font-size="10.00">+ Health</text>
<text text-anchor="start" x="438" y="-649.5" font-family="Helvetica,sans-Serif" font-size="10.00">+ Attack</text>
<text text-anchor="start" x="438" y="-638.5" font-family="Helvetica,sans-Serif" font-size="10.00">+ Defence</text>
<text text-anchor="start" x="438" y="-627.5" font-family="Helvetica,sans-Serif" font-size="10.00">+ MaximumMagic</text>
<text text-anchor="start" x="438" y="-616.5" font-family="Helvetica,sans-Serif" font-size="10.00">+ Magic</text>
<text text-anchor="start" x="438" y="-605.5" font-family="Helvetica,sans-Serif" font-size="10.00">+ Luck</text>
<text text-anchor="start" x="438" y="-594.5" font-family="Helvetica,sans-Serif" font-size="10.00">+ Speed</text>
<text text-anchor="start" x="438" y="-583.5" font-family="Helvetica,sans-Serif" font-size="10.00">+ Special1</text>
<text text-anchor="start" x="438" y="-572.5" font-family="Helvetica,sans-Serif" font-size="10.00">+ Special2</text>
<text text-anchor="start" x="438" y="-561.5" font-family="Helvetica,sans-Serif" font-size="10.00">+ Image</text>
<polyline fill="none" stroke="black" points="430,-554.5 525,-554.5 "/>
<text text-anchor="start" x="438" y="-542.5" font-family="Helvetica,sans-Serif" font-size="10.00"># Character()</text>
</a>
</g>
</g>
<!-- Node4&#45;&gt;Node7 -->
<g id="edge7" class="edge"><title>Node4&#45;&gt;Node7</title>
<path fill="none" stroke="#404040" d="M222.47,-830.22C252.331,-787.862 290.878,-733.6 293.5,-732 340.287,-703.451 368.862,-742.792 415.5,-714 417.096,-713.015 418.662,-711.971 420.198,-710.875"/>
<polygon fill="none" stroke="#404040" points="420.603,-710.545 422.719,-703.652 429.897,-702.954 427.78,-709.847 420.603,-710.545"/>
<text text-anchor="middle" x="316" y="-775" font-family="Helvetica,sans-Serif" font-size="10.00"> #special1</text>
<text text-anchor="middle" x="316" y="-764" font-family="Helvetica,sans-Serif" font-size="10.00">#special2</text>
</g>
<!-- Node5 -->
<g id="node3" class="node"><title>Node5</title>
<g id="a_node3"><a xlink:href="class_character_move.html" target="_top" xlink:title="Astract base class for character moves ">
<polygon fill="none" stroke="black" points="272.5,-0.5 272.5,-79.5 358.5,-79.5 358.5,-0.5 272.5,-0.5"/>
<text text-anchor="middle" x="315.5" y="-67.5" font-family="Helvetica,sans-Serif" font-size="10.00">CharacterMove</text>
<polyline fill="none" stroke="black" points="272.5,-60.5 358.5,-60.5 "/>
<text text-anchor="start" x="280.5" y="-48.5" font-family="Helvetica,sans-Serif" font-size="10.00">+ User</text>
<text text-anchor="start" x="280.5" y="-37.5" font-family="Helvetica,sans-Serif" font-size="10.00">+ Target</text>
<text text-anchor="start" x="280.5" y="-26.5" font-family="Helvetica,sans-Serif" font-size="10.00">+ Text</text>
<polyline fill="none" stroke="black" points="272.5,-19.5 358.5,-19.5 "/>
<text text-anchor="start" x="280.5" y="-7.5" font-family="Helvetica,sans-Serif" font-size="10.00">+ performMove()</text>
</a>
</g>
</g>
<!-- Node5&#45;&gt;Node4 -->
<g id="edge2" class="edge"><title>Node5&#45;&gt;Node4</title>
<path fill="none" stroke="midnightblue" d="M274.801,-87.7207C249.016,-122.156 220.5,-171.44 220.5,-221 220.5,-625.5 220.5,-625.5 220.5,-625.5 220.5,-697.009 207.529,-778.889 197.851,-830.027"/>
<polygon fill="none" stroke="midnightblue" points="277.62,-89.7961 280.934,-79.7328 272.068,-85.5332 277.62,-89.7961"/>
</g>
<!-- Node6 -->
<g id="node4" class="node"><title>Node6</title>
<polygon fill="none" stroke="#bfbfbf" points="244,-990.5 244,-1047.5 285,-1047.5 285,-990.5 244,-990.5"/>
<text text-anchor="middle" x="264.5" y="-1035.5" font-family="Helvetica,sans-Serif" font-size="10.00">string</text>
<polyline fill="none" stroke="#bfbfbf" points="244,-1028.5 285,-1028.5 "/>
<text text-anchor="middle" x="264.5" y="-1016.5" font-family="Helvetica,sans-Serif" font-size="10.00"> </text>
<polyline fill="none" stroke="#bfbfbf" points="244,-1009.5 285,-1009.5 "/>
<text text-anchor="middle" x="264.5" y="-997.5" font-family="Helvetica,sans-Serif" font-size="10.00"> </text>
</g>
<!-- Node6&#45;&gt;Node4 -->
<g id="edge21" class="edge"><title>Node6&#45;&gt;Node4</title>
<path fill="none" stroke="#404040" d="M243.715,-999.81C235.63,-991.899 226.813,-982.129 220.5,-972 214.936,-963.072 210.108,-953.066 205.991,-943.058"/>
<polygon fill="none" stroke="#404040" points="205.972,-943.009 200.077,-938.855 201.645,-931.816 207.539,-935.97 205.972,-943.009"/>
<text text-anchor="middle" x="235.5" y="-958.5" font-family="Helvetica,sans-Serif" font-size="10.00"> #desc</text>
</g>
<!-- Node6&#45;&gt;Node5 -->
<g id="edge3" class="edge"><title>Node6&#45;&gt;Node5</title>
<path fill="none" stroke="#404040" d="M243.953,-1013.76C194.422,-1002.21 72.5,-965.331 72.5,-882 72.5,-882 72.5,-882 72.5,-221 72.5,-127.876 189.158,-77.3852 260.815,-55.155"/>
<polygon fill="none" stroke="#404040" points="260.841,-55.1472 265.441,-49.5932 272.336,-51.7026 267.737,-57.2566 260.841,-55.1472"/>
<text text-anchor="middle" x="85" y="-509" font-family="Helvetica,sans-Serif" font-size="10.00"> #text</text>
</g>
<!-- Node6&#45;&gt;Node7 -->
<g id="edge5" class="edge"><title>Node6&#45;&gt;Node7</title>
<path fill="none" stroke="#404040" d="M285.091,-1007.38C298.992,-999.311 316.86,-987.042 328.5,-972 369.919,-918.474 336.291,-878.496 383.5,-830 397.951,-815.154 412.829,-827.567 426.5,-812 438.592,-798.231 449.647,-762.282 458.349,-725.578"/>
<polygon fill="none" stroke="#404040" points="458.4,-725.356 455.847,-718.612 461.09,-713.661 463.643,-720.405 458.4,-725.356"/>
<text text-anchor="middle" x="400" y="-878.5" font-family="Helvetica,sans-Serif" font-size="10.00"> #name</text>
</g>
<!-- Node10 -->
<g id="node8" class="node"><title>Node10</title>
<g id="a_node8"><a xlink:href="class_battle_manager.html" target="_top" xlink:title="Holds current Player and Enemy objects in battle and provides functions for MainBattle and other obje...">
<polygon fill="none" stroke="black" points="469.5,-127.5 469.5,-316.5 585.5,-316.5 585.5,-127.5 469.5,-127.5"/>
<text text-anchor="middle" x="527.5" y="-304.5" font-family="Helvetica,sans-Serif" font-size="10.00">BattleManager</text>
<polyline fill="none" stroke="black" points="469.5,-297.5 585.5,-297.5 "/>
<text text-anchor="start" x="477.5" y="-285.5" font-family="Helvetica,sans-Serif" font-size="10.00">+ Player</text>
<text text-anchor="start" x="477.5" y="-274.5" font-family="Helvetica,sans-Serif" font-size="10.00">+ Enemy</text>
<text text-anchor="start" x="477.5" y="-263.5" font-family="Helvetica,sans-Serif" font-size="10.00">+ WasCriticalHit</text>
<polyline fill="none" stroke="black" points="469.5,-256.5 585.5,-256.5 "/>
<text text-anchor="start" x="477.5" y="-244.5" font-family="Helvetica,sans-Serif" font-size="10.00">+ BattleManager()</text>
<text text-anchor="start" x="477.5" y="-233.5" font-family="Helvetica,sans-Serif" font-size="10.00">+ playerFirst()</text>
<text text-anchor="start" x="477.5" y="-222.5" font-family="Helvetica,sans-Serif" font-size="10.00">+ switchPlayers()</text>
<text text-anchor="start" x="477.5" y="-211.5" font-family="Helvetica,sans-Serif" font-size="10.00">+ isCriticalHit()</text>
<text text-anchor="start" x="477.5" y="-200.5" font-family="Helvetica,sans-Serif" font-size="10.00">+ ranAway()</text>
<text text-anchor="start" x="477.5" y="-189.5" font-family="Helvetica,sans-Serif" font-size="10.00">+ damageCalculation()</text>
<text text-anchor="start" x="477.5" y="-178.5" font-family="Helvetica,sans-Serif" font-size="10.00">+ enemyMove()</text>
<text text-anchor="start" x="477.5" y="-167.5" font-family="Helvetica,sans-Serif" font-size="10.00">+ enemySpecialMove()</text>
<text text-anchor="start" x="477.5" y="-156.5" font-family="Helvetica,sans-Serif" font-size="10.00">+ battleWon()</text>
<text text-anchor="start" x="477.5" y="-145.5" font-family="Helvetica,sans-Serif" font-size="10.00">+ playerFainted()</text>
<text text-anchor="start" x="477.5" y="-134.5" font-family="Helvetica,sans-Serif" font-size="10.00">&#45; characterFainted()</text>
</a>
</g>
</g>
<!-- Node6&#45;&gt;Node10 -->
<g id="edge10" class="edge"><title>Node6&#45;&gt;Node10</title>
<path fill="none" stroke="#404040" d="M260.762,-990.322C251.595,-915.267 232.045,-702.27 279.5,-535 307.485,-436.357 328.73,-413.663 394.5,-335 413.476,-312.305 437.414,-290.572 459.734,-272.391"/>
<polygon fill="none" stroke="#404040" points="459.815,-272.326 461.998,-265.453 469.181,-264.825 466.999,-271.698 459.815,-272.326"/>
<text text-anchor="middle" x="321.5" y="-627.5" font-family="Helvetica,sans-Serif" font-size="10.00"> +forceEnemyMove</text>
<text text-anchor="middle" x="321.5" y="-616.5" font-family="Helvetica,sans-Serif" font-size="10.00">+forceCriticalHits</text>
</g>
<!-- Node14 -->
<g id="node12" class="node"><title>Node14</title>
<g id="a_node12"><a xlink:href="class_item.html" target="_top" xlink:title="Abstract class for items that can be equipped to a player, increasing some of their stats ...">
<polygon fill="none" stroke="black" points="348,-732.5 348,-811.5 425,-811.5 425,-732.5 348,-732.5"/>
<text text-anchor="middle" x="386.5" y="-799.5" font-family="Helvetica,sans-Serif" font-size="10.00">Item</text>
<polyline fill="none" stroke="black" points="348,-792.5 425,-792.5 "/>
<text text-anchor="start" x="356" y="-780.5" font-family="Helvetica,sans-Serif" font-size="10.00">+ Name</text>
<text text-anchor="start" x="356" y="-769.5" font-family="Helvetica,sans-Serif" font-size="10.00">+ Desc</text>
<polyline fill="none" stroke="black" points="348,-762.5 425,-762.5 "/>
<text text-anchor="start" x="356" y="-750.5" font-family="Helvetica,sans-Serif" font-size="10.00">+ applyBuffs()</text>
<text text-anchor="start" x="356" y="-739.5" font-family="Helvetica,sans-Serif" font-size="10.00">+ revertBuffs()</text>
</a>
</g>
</g>
<!-- Node6&#45;&gt;Node14 -->
<g id="edge19" class="edge"><title>Node6&#45;&gt;Node14</title>
<path fill="none" stroke="#404040" d="M276.339,-990.495C292.5,-953.492 322.857,-885.869 352.5,-830 353.844,-827.466 355.249,-824.887 356.688,-822.294"/>
<polygon fill="none" stroke="#404040" points="356.813,-822.075 356.303,-814.882 362.746,-811.644 363.256,-818.837 356.813,-822.075"/>
<text text-anchor="middle" x="309.5" y="-964" font-family="Helvetica,sans-Serif" font-size="10.00"> #desc</text>
<text text-anchor="middle" x="309.5" y="-953" font-family="Helvetica,sans-Serif" font-size="10.00">#name</text>
</g>
<!-- Node7&#45;&gt;Node5 -->
<g id="edge4" class="edge"><title>Node7&#45;&gt;Node5</title>
<path fill="none" stroke="#404040" d="M452.984,-535.347C418.552,-411.543 357.007,-190.244 329.478,-91.26"/>
<polygon fill="none" stroke="#404040" points="329.431,-91.0899 323.969,-86.3811 326.215,-79.5287 331.677,-84.2375 329.431,-91.0899"/>
<text text-anchor="middle" x="419.5" y="-349" font-family="Helvetica,sans-Serif" font-size="10.00"> #target</text>
<text text-anchor="middle" x="419.5" y="-338" font-family="Helvetica,sans-Serif" font-size="10.00">#user</text>
</g>
<!-- Node11 -->
<g id="node9" class="node"><title>Node11</title>
<g id="a_node9"><a xlink:href="class_enemy.html" target="_top" xlink:title="Defines an AI controller enemy to fight in battle scenes">
<polygon fill="none" stroke="black" points="683,-403 683,-460 750,-460 750,-403 683,-403"/>
<text text-anchor="middle" x="716.5" y="-448" font-family="Helvetica,sans-Serif" font-size="10.00">Enemy</text>
<polyline fill="none" stroke="black" points="683,-441 750,-441 "/>
<text text-anchor="start" x="691" y="-429" font-family="Helvetica,sans-Serif" font-size="10.00">+ ExpGiven</text>
<polyline fill="none" stroke="black" points="683,-422 750,-422 "/>
<text text-anchor="start" x="691" y="-410" font-family="Helvetica,sans-Serif" font-size="10.00">+ Enemy()</text>
</a>
</g>
</g>
<!-- Node7&#45;&gt;Node11 -->
<g id="edge12" class="edge"><title>Node7&#45;&gt;Node11</title>
<path fill="none" stroke="midnightblue" d="M532.866,-579.253C579.276,-542.165 644.023,-490.421 682.944,-459.317"/>
<polygon fill="none" stroke="midnightblue" points="530.631,-576.559 525.004,-585.536 535.001,-582.027 530.631,-576.559"/>
</g>
<!-- Node13 -->
<g id="node11" class="node"><title>Node13</title>
<g id="a_node11"><a xlink:href="class_player.html" target="_top" xlink:title="Defines a playable character for use in battle scenes">
<polygon fill="none" stroke="black" points="503.5,-375.5 503.5,-487.5 615.5,-487.5 615.5,-375.5 503.5,-375.5"/>
<text text-anchor="middle" x="559.5" y="-475.5" font-family="Helvetica,sans-Serif" font-size="10.00">Player</text>
<polyline fill="none" stroke="black" points="503.5,-468.5 615.5,-468.5 "/>
<text text-anchor="start" x="511.5" y="-456.5" font-family="Helvetica,sans-Serif" font-size="10.00">+ Exp</text>
<text text-anchor="start" x="511.5" y="-445.5" font-family="Helvetica,sans-Serif" font-size="10.00">+ Item</text>
<text text-anchor="start" x="511.5" y="-434.5" font-family="Helvetica,sans-Serif" font-size="10.00">+ ExpToNextLevel</text>
<polyline fill="none" stroke="black" points="503.5,-427.5 615.5,-427.5 "/>
<text text-anchor="start" x="511.5" y="-415.5" font-family="Helvetica,sans-Serif" font-size="10.00">+ Player()</text>
<text text-anchor="start" x="511.5" y="-404.5" font-family="Helvetica,sans-Serif" font-size="10.00">+ gainExp()</text>
<text text-anchor="start" x="511.5" y="-393.5" font-family="Helvetica,sans-Serif" font-size="10.00">+ levelUp()</text>
<text text-anchor="start" x="511.5" y="-382.5" font-family="Helvetica,sans-Serif" font-size="10.00">&#45; setExpToNextLevel()</text>
</a>
</g>
</g>
<!-- Node7&#45;&gt;Node13 -->
<g id="edge17" class="edge"><title>Node7&#45;&gt;Node13</title>
<path fill="none" stroke="midnightblue" d="M519.469,-525.743C525.088,-512.656 530.682,-499.625 535.829,-487.635"/>
<polygon fill="none" stroke="midnightblue" points="516.109,-524.698 515.38,-535.268 522.541,-527.46 516.109,-524.698"/>
</g>
<!-- Node8 -->
<g id="node6" class="node"><title>Node8</title>
<polygon fill="none" stroke="#bfbfbf" points="612,-990.5 612,-1047.5 641,-1047.5 641,-990.5 612,-990.5"/>
<text text-anchor="middle" x="626.5" y="-1035.5" font-family="Helvetica,sans-Serif" font-size="10.00">int</text>
<polyline fill="none" stroke="#bfbfbf" points="612,-1028.5 641,-1028.5 "/>
<text text-anchor="middle" x="626.5" y="-1016.5" font-family="Helvetica,sans-Serif" font-size="10.00"> </text>
<polyline fill="none" stroke="#bfbfbf" points="612,-1009.5 641,-1009.5 "/>
<text text-anchor="middle" x="626.5" y="-997.5" font-family="Helvetica,sans-Serif" font-size="10.00"> </text>
</g>
<!-- Node8&#45;&gt;Node4 -->
<g id="edge23" class="edge"><title>Node8&#45;&gt;Node4</title>
<path fill="none" stroke="#404040" d="M611.812,-1013.61C584.668,-1005.48 524.826,-987.505 474.5,-972 396.298,-947.906 306.297,-919.586 248.244,-901.242"/>
<polygon fill="none" stroke="#404040" points="248.156,-901.215 241.23,-903.22 236.714,-897.598 243.641,-895.592 248.156,-901.215"/>
<text text-anchor="middle" x="492" y="-958.5" font-family="Helvetica,sans-Serif" font-size="10.00"> #magic</text>
</g>
<!-- Node8&#45;&gt;Node7 -->
<g id="edge6" class="edge"><title>Node8&#45;&gt;Node7</title>
<path fill="none" stroke="#404040" d="M611.969,-1008.62C591.609,-994.614 555.114,-966.19 537.5,-932 496.336,-852.097 526.389,-819.876 507.5,-732 507.036,-729.84 506.553,-727.66 506.053,-725.464"/>
<polygon fill="none" stroke="#404040" points="506.014,-725.296 500.737,-720.382 503.244,-713.62 508.521,-718.535 506.014,-725.296"/>
<text text-anchor="middle" x="575" y="-917" font-family="Helvetica,sans-Serif" font-size="10.00"> #speed</text>
<text text-anchor="middle" x="575" y="-906" font-family="Helvetica,sans-Serif" font-size="10.00">#luck</text>
<text text-anchor="middle" x="575" y="-895" font-family="Helvetica,sans-Serif" font-size="10.00">#health</text>
<text text-anchor="middle" x="575" y="-884" font-family="Helvetica,sans-Serif" font-size="10.00">#magic</text>
<text text-anchor="middle" x="575" y="-873" font-family="Helvetica,sans-Serif" font-size="10.00">#maximumMagic</text>
<text text-anchor="middle" x="575" y="-862" font-family="Helvetica,sans-Serif" font-size="10.00">#attack</text>
<text text-anchor="middle" x="575" y="-851" font-family="Helvetica,sans-Serif" font-size="10.00">#defence</text>
<text text-anchor="middle" x="575" y="-840" font-family="Helvetica,sans-Serif" font-size="10.00">#level</text>
</g>
<!-- Node8&#45;&gt;Node10 -->
<g id="edge14" class="edge"><title>Node8&#45;&gt;Node10</title>
<path fill="none" stroke="#404040" d="M641.092,-993.965C644.53,-987.109 647.712,-979.468 649.5,-972 666.055,-902.841 650.278,-883.112 650.5,-812 651.108,-617.435 685.769,-559.667 624.5,-375 616.868,-351.997 604.981,-329.006 592.11,-308.122"/>
<polygon fill="none" stroke="#404040" points="591.945,-307.862 585.353,-304.938 585.518,-297.729 592.109,-300.653 591.945,-307.862"/>
<text text-anchor="middle" x="680" y="-622" font-family="Helvetica,sans-Serif" font-size="10.00"> +money</text>
</g>
<!-- Node8&#45;&gt;Node11 -->
<g id="edge13" class="edge"><title>Node8&#45;&gt;Node11</title>
<path fill="none" stroke="#404040" d="M641.246,-1009.52C653.559,-1001.55 670.366,-988.416 678.5,-972 762.594,-802.279 737.752,-565.04 723.439,-472.078"/>
<polygon fill="none" stroke="#404040" points="723.434,-472.044 718.539,-466.749 721.544,-460.194 726.439,-465.489 723.434,-472.044"/>
<text text-anchor="middle" x="758.5" y="-769.5" font-family="Helvetica,sans-Serif" font-size="10.00"> &#45;expGiven</text>
</g>
<!-- Node8&#45;&gt;Node13 -->
<g id="edge20" class="edge"><title>Node8&#45;&gt;Node13</title>
<path fill="none" stroke="#404040" d="M632.39,-990.364C639.133,-951.078 645.395,-878.479 612.5,-830 602.232,-814.868 585.523,-827.296 575.5,-812 542.952,-762.33 548.282,-594.71 554.303,-499.69"/>
<polygon fill="none" stroke="#404040" points="554.309,-499.603 550.711,-493.354 555.096,-487.629 558.693,-493.879 554.309,-499.603"/>
<text text-anchor="middle" x="613" y="-775" font-family="Helvetica,sans-Serif" font-size="10.00"> &#45;expToNextLevel</text>
<text text-anchor="middle" x="613" y="-764" font-family="Helvetica,sans-Serif" font-size="10.00">&#45;exp</text>
</g>
<!-- Node9 -->
<g id="node7" class="node"><title>Node9</title>
<polygon fill="none" stroke="#bfbfbf" points="426,-852.5 426,-909.5 487,-909.5 487,-852.5 426,-852.5"/>
<text text-anchor="middle" x="456.5" y="-897.5" font-family="Helvetica,sans-Serif" font-size="10.00">Texture2D</text>
<polyline fill="none" stroke="#bfbfbf" points="426,-890.5 487,-890.5 "/>
<text text-anchor="middle" x="456.5" y="-878.5" font-family="Helvetica,sans-Serif" font-size="10.00"> </text>
<polyline fill="none" stroke="#bfbfbf" points="426,-871.5 487,-871.5 "/>
<text text-anchor="middle" x="456.5" y="-859.5" font-family="Helvetica,sans-Serif" font-size="10.00"> </text>
</g>
<!-- Node9&#45;&gt;Node7 -->
<g id="edge8" class="edge"><title>Node9&#45;&gt;Node7</title>
<path fill="none" stroke="#404040" d="M458.787,-852.28C461.295,-821.886 465.465,-771.353 469.233,-725.693"/>
<polygon fill="none" stroke="#404040" points="469.245,-725.546 465.752,-719.238 470.232,-713.587 473.725,-719.896 469.245,-725.546"/>
<text text-anchor="middle" x="486" y="-769.5" font-family="Helvetica,sans-Serif" font-size="10.00"> #image</text>
</g>
<!-- Node10&#45;&gt;Node5 -->
<g id="edge9" class="edge"><title>Node10&#45;&gt;Node5</title>
<path fill="none" stroke="#404040" d="M469.27,-141.139C455.925,-125.745 441.053,-110.533 425.5,-98 408.778,-84.5253 388.368,-72.891 369.689,-63.711"/>
<polygon fill="none" stroke="#404040" points="369.471,-63.6076 362.335,-64.6448 358.633,-58.4565 365.769,-57.4193 369.471,-63.6076"/>
<text text-anchor="middle" x="458.5" y="-101" font-family="Helvetica,sans-Serif" font-size="10.00"> #manager</text>
</g>
<!-- Node11&#45;&gt;Node10 -->
<g id="edge11" class="edge"><title>Node11&#45;&gt;Node10</title>
<path fill="none" stroke="#404040" d="M706.311,-402.716C698.073,-382.592 685.123,-355.445 668.5,-335 647.869,-309.624 620.554,-286.285 595.462,-267.555"/>
<polygon fill="none" stroke="#404040" points="595.294,-267.432 588.089,-267.117 585.609,-260.346 592.813,-260.661 595.294,-267.432"/>
<text text-anchor="middle" x="700.5" y="-343.5" font-family="Helvetica,sans-Serif" font-size="10.00"> &#45;enemy</text>
</g>
<!-- Node12 -->
<g id="node10" class="node"><title>Node12</title>
<polygon fill="none" stroke="#bfbfbf" points="450,-403 450,-460 485,-460 485,-403 450,-403"/>
<text text-anchor="middle" x="467.5" y="-448" font-family="Helvetica,sans-Serif" font-size="10.00">bool</text>
<polyline fill="none" stroke="#bfbfbf" points="450,-441 485,-441 "/>
<text text-anchor="middle" x="467.5" y="-429" font-family="Helvetica,sans-Serif" font-size="10.00"> </text>
<polyline fill="none" stroke="#bfbfbf" points="450,-422 485,-422 "/>
<text text-anchor="middle" x="467.5" y="-410" font-family="Helvetica,sans-Serif" font-size="10.00"> </text>
</g>
<!-- Node12&#45;&gt;Node10 -->
<g id="edge15" class="edge"><title>Node12&#45;&gt;Node10</title>
<path fill="none" stroke="#404040" d="M467.272,-402.898C467.725,-383.588 469.574,-357.355 475.5,-335 476.108,-332.708 476.76,-330.404 477.452,-328.095"/>
<polygon fill="none" stroke="#404040" points="477.504,-327.936 475.557,-320.992 481.218,-316.525 483.164,-323.468 477.504,-327.936"/>
<text text-anchor="middle" x="508.5" y="-343.5" font-family="Helvetica,sans-Serif" font-size="10.00"> &#45;wasCriticalHit</text>
</g>
<!-- Node13&#45;&gt;Node10 -->
<g id="edge16" class="edge"><title>Node13&#45;&gt;Node10</title>
<path fill="none" stroke="#404040" d="M551.009,-375.439C548.795,-361.087 546.334,-345.128 543.862,-329.095"/>
<polygon fill="none" stroke="#404040" points="543.801,-328.704 538.934,-323.384 541.972,-316.845 546.84,-322.165 543.801,-328.704"/>
<text text-anchor="middle" x="564" y="-343.5" font-family="Helvetica,sans-Serif" font-size="10.00"> &#45;player</text>
</g>
<!-- Node14&#45;&gt;Node13 -->
<g id="edge18" class="edge"><title>Node14&#45;&gt;Node13</title>
<path fill="none" stroke="#404040" d="M376.628,-732.229C366.262,-682.235 356.351,-594.642 395.5,-535 420.144,-497.456 448.59,-511.74 492.974,-487.49"/>
<polygon fill="none" stroke="#404040" points="493.031,-487.456 496.121,-480.94 503.324,-481.287 500.233,-487.802 493.031,-487.456"/>
<text text-anchor="middle" x="408" y="-622" font-family="Helvetica,sans-Serif" font-size="10.00"> &#45;item</text>
</g>
<!-- Node15 -->
<g id="node13" class="node"><title>Node15</title>
<polygon fill="none" stroke="#bfbfbf" points="0,-990.5 0,-1047.5 35,-1047.5 35,-990.5 0,-990.5"/>
<text text-anchor="middle" x="17.5" y="-1035.5" font-family="Helvetica,sans-Serif" font-size="10.00">float</text>
<polyline fill="none" stroke="#bfbfbf" points="0,-1028.5 35,-1028.5 "/>
<text text-anchor="middle" x="17.5" y="-1016.5" font-family="Helvetica,sans-Serif" font-size="10.00"> </text>
<polyline fill="none" stroke="#bfbfbf" points="0,-1009.5 35,-1009.5 "/>
<text text-anchor="middle" x="17.5" y="-997.5" font-family="Helvetica,sans-Serif" font-size="10.00"> </text>
</g>
<!-- Node15&#45;&gt;Node4 -->
<g id="edge22" class="edge"><title>Node15&#45;&gt;Node4</title>
<path fill="none" stroke="#404040" d="M35.0527,-1003.96C57.058,-986.354 95.8955,-955.284 128.862,-928.911"/>
<polygon fill="none" stroke="#404040" points="129.06,-928.752 131.247,-921.88 138.431,-921.256 136.244,-928.127 129.06,-928.752"/>
<text text-anchor="middle" x="122.5" y="-958.5" font-family="Helvetica,sans-Serif" font-size="10.00"> #special</text>
</g>
</g>
</svg>
