<?xml version="1.0" encoding="UTF-8" standalone="no"?>
<!DOCTYPE svg PUBLIC "-//W3C//DTD SVG 1.1//EN"
 "http://www.w3.org/Graphics/SVG/1.1/DTD/svg11.dtd">
<!-- Generated by graphviz version 2.38.0 (20140413.2041)
 -->
<!-- Title: Character Pages: 1 -->
<!--zoomable 1064 -->
<svg id="main" version="1.1" xmlns="http://www.w3.org/2000/svg" xmlns:xlink="http://www.w3.org/1999/xlink" xml:space="preserve" onload="init(evt)">
<style type="text/css"><![CDATA[
.edge:hover path { stroke: red; }
.edge:hover polygon { stroke: red; fill: red; }
]]></style>
<script type="text/javascript"><![CDATA[
var edges = document.getElementsByTagName('g');
if (edges && edges.length) {
  for (var i=0;i<edges.length;i++) {
    if (edges[i].id.substr(0,4)=='edge') {
      edges[i].setAttribute('class','edge');
    }
  }
}
]]></script>
        <defs>
                <circle id="rim" cx="0" cy="0" r="7"/>
                <circle id="rim2" cx="0" cy="0" r="3.5"/>
                <g id="zoomPlus">
                        <use xlink:href="#rim" fill="#404040">
                                <set attributeName="fill" to="#808080" begin="zoomplus.mouseover" end="zoomplus.mouseout"/>
                        </use>
                        <path d="M-4,0h8M0,-4v8" fill="none" stroke="white" stroke-width="1.5" pointer-events="none"/>
                </g>
                <g id="zoomMin">
                        <use xlink:href="#rim" fill="#404040">
                                <set attributeName="fill" to="#808080" begin="zoomminus.mouseover" end="zoomminus.mouseout"/>
                        </use>
                        <path d="M-4,0h8" fill="none" stroke="white" stroke-width="1.5" pointer-events="none"/>
                </g>
                <g id="dirArrow">
                        <path fill="none" stroke="white" stroke-width="1.5" d="M0,-3.0v7 M-2.5,-0.5L0,-3.0L2.5,-0.5"/>
                </g>
               <g id="resetDef">
                       <use xlink:href="#rim2" fill="#404040">
                               <set attributeName="fill" to="#808080" begin="reset.mouseover" end="reset.mouseout"/>
                       </use>
               </g>
        </defs>

<script type="text/javascript">
var viewWidth = 729;
var viewHeight = 1064;
var sectionId = 'dynsection-1';
</script>
<script xlink:href="svgpan.js"/>
<svg id="graph" class="graph">
<g id="viewport">
<title>Character</title>
<!-- Node3 -->
<g id="node1" class="node"><title>Node3</title>
<polygon fill="#bfbfbf" stroke="black" points="121,-695.5 121,-873.5 216,-873.5 216,-695.5 121,-695.5"/>
<text text-anchor="middle" x="168.5" y="-861.5" font-family="Helvetica,sans-Serif" font-size="10.00">Character</text>
<polyline fill="none" stroke="black" points="121,-854.5 216,-854.5 "/>
<text text-anchor="start" x="129" y="-842.5" font-family="Helvetica,sans-Serif" font-size="10.00">+ Name</text>
<text text-anchor="start" x="129" y="-831.5" font-family="Helvetica,sans-Serif" font-size="10.00">+ Level</text>
<text text-anchor="start" x="129" y="-820.5" font-family="Helvetica,sans-Serif" font-size="10.00">+ Health</text>
<text text-anchor="start" x="129" y="-809.5" font-family="Helvetica,sans-Serif" font-size="10.00">+ Attack</text>
<text text-anchor="start" x="129" y="-798.5" font-family="Helvetica,sans-Serif" font-size="10.00">+ Defence</text>
<text text-anchor="start" x="129" y="-787.5" font-family="Helvetica,sans-Serif" font-size="10.00">+ MaximumMagic</text>
<text text-anchor="start" x="129" y="-776.5" font-family="Helvetica,sans-Serif" font-size="10.00">+ Magic</text>
<text text-anchor="start" x="129" y="-765.5" font-family="Helvetica,sans-Serif" font-size="10.00">+ Luck</text>
<text text-anchor="start" x="129" y="-754.5" font-family="Helvetica,sans-Serif" font-size="10.00">+ Speed</text>
<text text-anchor="start" x="129" y="-743.5" font-family="Helvetica,sans-Serif" font-size="10.00">+ Special1</text>
<text text-anchor="start" x="129" y="-732.5" font-family="Helvetica,sans-Serif" font-size="10.00">+ Special2</text>
<text text-anchor="start" x="129" y="-721.5" font-family="Helvetica,sans-Serif" font-size="10.00">+ Image</text>
<polyline fill="none" stroke="black" points="121,-714.5 216,-714.5 "/>
<text text-anchor="start" x="129" y="-702.5" font-family="Helvetica,sans-Serif" font-size="10.00"># Character()</text>
</g>
<!-- Node7 -->
<g id="node5" class="node"><title>Node7</title>
<g id="a_node5"><a xlink:href="class_character_move.html" target="_top" xlink:title="Astract base class for character moves ">
<polygon fill="none" stroke="black" points="327.5,-149.5 327.5,-228.5 413.5,-228.5 413.5,-149.5 327.5,-149.5"/>
<text text-anchor="middle" x="370.5" y="-216.5" font-family="Helvetica,sans-Serif" font-size="10.00">CharacterMove</text>
<polyline fill="none" stroke="black" points="327.5,-209.5 413.5,-209.5 "/>
<text text-anchor="start" x="335.5" y="-197.5" font-family="Helvetica,sans-Serif" font-size="10.00">+ User</text>
<text text-anchor="start" x="335.5" y="-186.5" font-family="Helvetica,sans-Serif" font-size="10.00">+ Target</text>
<text text-anchor="start" x="335.5" y="-175.5" font-family="Helvetica,sans-Serif" font-size="10.00">+ Text</text>
<polyline fill="none" stroke="black" points="327.5,-168.5 413.5,-168.5 "/>
<text text-anchor="start" x="335.5" y="-156.5" font-family="Helvetica,sans-Serif" font-size="10.00">+ performMove()</text>
</a>
</g>
</g>
<!-- Node3&#45;&gt;Node7 -->
<g id="edge6" class="edge"><title>Node3&#45;&gt;Node7</title>
<path fill="none" stroke="#404040" d="M169.689,-695.413C171.678,-644.855 176.437,-580.408 187.5,-524 205.123,-434.138 274.774,-321.736 303.5,-276 311.443,-263.353 320.855,-250.332 330.076,-238.369"/>
<polygon fill="none" stroke="#404040" points="330.333,-238.042 330.889,-230.852 337.74,-228.601 337.183,-235.79 330.333,-238.042"/>
<text text-anchor="middle" x="215.5" y="-498" font-family="Helvetica,sans-Serif" font-size="10.00"> #target</text>
<text text-anchor="middle" x="215.5" y="-487" font-family="Helvetica,sans-Serif" font-size="10.00">#user</text>
</g>
<!-- Node9 -->
<g id="node7" class="node"><title>Node9</title>
<g id="a_node7"><a xlink:href="class_enemy.html" target="_top" xlink:title="Defines an AI controller enemy to fight in battle scenes">
<polygon fill="none" stroke="black" points="197,-552 197,-609 264,-609 264,-552 197,-552"/>
<text text-anchor="middle" x="230.5" y="-597" font-family="Helvetica,sans-Serif" font-size="10.00">Enemy</text>
<polyline fill="none" stroke="black" points="197,-590 264,-590 "/>
<text text-anchor="start" x="205" y="-578" font-family="Helvetica,sans-Serif" font-size="10.00">+ ExpGiven</text>
<polyline fill="none" stroke="black" points="197,-571 264,-571 "/>
<text text-anchor="start" x="205" y="-559" font-family="Helvetica,sans-Serif" font-size="10.00">+ Enemy()</text>
</a>
</g>
</g>
<!-- Node3&#45;&gt;Node9 -->
<g id="edge10" class="edge"><title>Node3&#45;&gt;Node9</title>
<path fill="none" stroke="midnightblue" d="M198.541,-685.623C207.125,-657.658 215.806,-629.373 221.95,-609.355"/>
<polygon fill="none" stroke="midnightblue" points="195.102,-684.901 195.514,-695.487 201.794,-686.955 195.102,-684.901"/>
</g>
<!-- Node11 -->
<g id="node9" class="node"><title>Node11</title>
<g id="a_node9"><a xlink:href="class_player.html" target="_top" xlink:title="Defines a playable character for use in battle scenes">
<polygon fill="none" stroke="black" points="373.5,-524.5 373.5,-636.5 485.5,-636.5 485.5,-524.5 373.5,-524.5"/>
<text text-anchor="middle" x="429.5" y="-624.5" font-family="Helvetica,sans-Serif" font-size="10.00">Player</text>
<polyline fill="none" stroke="black" points="373.5,-617.5 485.5,-617.5 "/>
<text text-anchor="start" x="381.5" y="-605.5" font-family="Helvetica,sans-Serif" font-size="10.00">+ Exp</text>
<text text-anchor="start" x="381.5" y="-594.5" font-family="Helvetica,sans-Serif" font-size="10.00">+ Item</text>
<text text-anchor="start" x="381.5" y="-583.5" font-family="Helvetica,sans-Serif" font-size="10.00">+ ExpToNextLevel</text>
<polyline fill="none" stroke="black" points="373.5,-576.5 485.5,-576.5 "/>
<text text-anchor="start" x="381.5" y="-564.5" font-family="Helvetica,sans-Serif" font-size="10.00">+ Player()</text>
<text text-anchor="start" x="381.5" y="-553.5" font-family="Helvetica,sans-Serif" font-size="10.00">+ gainExp()</text>
<text text-anchor="start" x="381.5" y="-542.5" font-family="Helvetica,sans-Serif" font-size="10.00">+ levelUp()</text>
<text text-anchor="start" x="381.5" y="-531.5" font-family="Helvetica,sans-Serif" font-size="10.00">&#45; setExpToNextLevel()</text>
</a>
</g>
</g>
<!-- Node3&#45;&gt;Node11 -->
<g id="edge15" class="edge"><title>Node3&#45;&gt;Node11</title>
<path fill="none" stroke="midnightblue" d="M223.206,-703.073C225.911,-700.261 228.679,-697.557 231.5,-695 243.353,-684.257 319.052,-641.897 373.323,-612.088"/>
<polygon fill="none" stroke="midnightblue" points="220.359,-700.999 216.196,-710.742 225.526,-705.722 220.359,-700.999"/>
</g>
<!-- Node4 -->
<g id="node2" class="node"><title>Node4</title>
<polygon fill="none" stroke="#bfbfbf" points="552,-998.5 552,-1055.5 593,-1055.5 593,-998.5 552,-998.5"/>
<text text-anchor="middle" x="572.5" y="-1043.5" font-family="Helvetica,sans-Serif" font-size="10.00">string</text>
<polyline fill="none" stroke="#bfbfbf" points="552,-1036.5 593,-1036.5 "/>
<text text-anchor="middle" x="572.5" y="-1024.5" font-family="Helvetica,sans-Serif" font-size="10.00"> </text>
<polyline fill="none" stroke="#bfbfbf" points="552,-1017.5 593,-1017.5 "/>
<text text-anchor="middle" x="572.5" y="-1005.5" font-family="Helvetica,sans-Serif" font-size="10.00"> </text>
</g>
<!-- Node4&#45;&gt;Node3 -->
<g id="edge1" class="edge"><title>Node4&#45;&gt;Node3</title>
<path fill="none" stroke="#404040" d="M551.622,-1020.88C494.953,-1006.16 335.539,-959.233 231.5,-874 229.138,-872.065 226.823,-870.021 224.559,-867.89"/>
<polygon fill="none" stroke="#404040" points="224.5,-867.83 217.44,-866.361 216.081,-859.279 223.141,-860.748 224.5,-867.83"/>
<text text-anchor="middle" x="442" y="-933.5" font-family="Helvetica,sans-Serif" font-size="10.00"> #name</text>
</g>
<!-- Node6 -->
<g id="node4" class="node"><title>Node6</title>
<g id="a_node4"><a xlink:href="class_special_move.html" target="_top" xlink:title="Special move abstract base class that expands upon CharacterMove, adding magic properties ...">
<polygon fill="none" stroke="black" points="321.5,-0.5 321.5,-101.5 419.5,-101.5 419.5,-0.5 321.5,-0.5"/>
<text text-anchor="middle" x="370.5" y="-89.5" font-family="Helvetica,sans-Serif" font-size="10.00">SpecialMove</text>
<polyline fill="none" stroke="black" points="321.5,-82.5 419.5,-82.5 "/>
<text text-anchor="start" x="329.5" y="-70.5" font-family="Helvetica,sans-Serif" font-size="10.00">+ Magic</text>
<text text-anchor="start" x="329.5" y="-59.5" font-family="Helvetica,sans-Serif" font-size="10.00">+ Desc</text>
<text text-anchor="start" x="329.5" y="-48.5" font-family="Helvetica,sans-Serif" font-size="10.00">+ Special</text>
<polyline fill="none" stroke="black" points="321.5,-41.5 419.5,-41.5 "/>
<text text-anchor="start" x="329.5" y="-29.5" font-family="Helvetica,sans-Serif" font-size="10.00">+ setUp()</text>
<text text-anchor="start" x="329.5" y="-18.5" font-family="Helvetica,sans-Serif" font-size="10.00">+ decreaseMagic()</text>
<text text-anchor="start" x="329.5" y="-7.5" font-family="Helvetica,sans-Serif" font-size="10.00"># SpecialMove()</text>
</a>
</g>
</g>
<!-- Node4&#45;&gt;Node6 -->
<g id="edge19" class="edge"><title>Node4&#45;&gt;Node6</title>
<path fill="none" stroke="#404040" d="M593.112,-1011.65C603.227,-1003.53 614.675,-992.493 621.5,-980 663.647,-902.849 657.5,-873.413 657.5,-785.5 657.5,-785.5 657.5,-785.5 657.5,-188 657.5,-88.8062 515.765,-61.8646 431.502,-54.6124"/>
<polygon fill="none" stroke="#404040" points="431.475,-54.6103 425.182,-58.1326 419.511,-53.679 425.803,-50.1567 431.475,-54.6103"/>
<text text-anchor="middle" x="672.5" y="-492.5" font-family="Helvetica,sans-Serif" font-size="10.00"> #desc</text>
</g>
<!-- Node4&#45;&gt;Node7 -->
<g id="edge5" class="edge"><title>Node4&#45;&gt;Node7</title>
<path fill="none" stroke="#404040" d="M591.144,-998.272C594.182,-992.464 596.866,-986.21 598.5,-980 635.246,-840.308 627.317,-796.541 598.5,-655 561.988,-475.666 519.724,-439.502 437.5,-276 430.788,-262.653 429.243,-259.115 420.5,-247 418.373,-244.053 416.123,-241.079 413.802,-238.117"/>
<polygon fill="none" stroke="#404040" points="413.766,-238.072 406.88,-235.931 406.208,-228.752 413.094,-230.892 413.766,-238.072"/>
<text text-anchor="middle" x="607" y="-578" font-family="Helvetica,sans-Serif" font-size="10.00"> #text</text>
</g>
<!-- Node8 -->
<g id="node6" class="node"><title>Node8</title>
<g id="a_node6"><a xlink:href="class_battle_manager.html" target="_top" xlink:title="Holds current Player and Enemy objects in battle and provides functions for MainBattle and other obje...">
<polygon fill="none" stroke="black" points="312.5,-276.5 312.5,-465.5 428.5,-465.5 428.5,-276.5 312.5,-276.5"/>
<text text-anchor="middle" x="370.5" y="-453.5" font-family="Helvetica,sans-Serif" font-size="10.00">BattleManager</text>
<polyline fill="none" stroke="black" points="312.5,-446.5 428.5,-446.5 "/>
<text text-anchor="start" x="320.5" y="-434.5" font-family="Helvetica,sans-Serif" font-size="10.00">+ Player</text>
<text text-anchor="start" x="320.5" y="-423.5" font-family="Helvetica,sans-Serif" font-size="10.00">+ Enemy</text>
<text text-anchor="start" x="320.5" y="-412.5" font-family="Helvetica,sans-Serif" font-size="10.00">+ WasCriticalHit</text>
<polyline fill="none" stroke="black" points="312.5,-405.5 428.5,-405.5 "/>
<text text-anchor="start" x="320.5" y="-393.5" font-family="Helvetica,sans-Serif" font-size="10.00">+ BattleManager()</text>
<text text-anchor="start" x="320.5" y="-382.5" font-family="Helvetica,sans-Serif" font-size="10.00">+ playerFirst()</text>
<text text-anchor="start" x="320.5" y="-371.5" font-family="Helvetica,sans-Serif" font-size="10.00">+ switchPlayers()</text>
<text text-anchor="start" x="320.5" y="-360.5" font-family="Helvetica,sans-Serif" font-size="10.00">+ isCriticalHit()</text>
<text text-anchor="start" x="320.5" y="-349.5" font-family="Helvetica,sans-Serif" font-size="10.00">+ ranAway()</text>
<text text-anchor="start" x="320.5" y="-338.5" font-family="Helvetica,sans-Serif" font-size="10.00">+ damageCalculation()</text>
<text text-anchor="start" x="320.5" y="-327.5" font-family="Helvetica,sans-Serif" font-size="10.00">+ enemyMove()</text>
<text text-anchor="start" x="320.5" y="-316.5" font-family="Helvetica,sans-Serif" font-size="10.00">+ enemySpecialMove()</text>
<text text-anchor="start" x="320.5" y="-305.5" font-family="Helvetica,sans-Serif" font-size="10.00">+ battleWon()</text>
<text text-anchor="start" x="320.5" y="-294.5" font-family="Helvetica,sans-Serif" font-size="10.00">+ playerFainted()</text>
<text text-anchor="start" x="320.5" y="-283.5" font-family="Helvetica,sans-Serif" font-size="10.00">&#45; characterFainted()</text>
</a>
</g>
</g>
<!-- Node4&#45;&gt;Node8 -->
<g id="edge8" class="edge"><title>Node4&#45;&gt;Node8</title>
<path fill="none" stroke="#404040" d="M579.683,-998.159C593.692,-937.171 617.974,-789.675 553.5,-695 542.754,-679.221 525.811,-692.378 514.5,-677 473.866,-621.756 521.656,-586.973 494.5,-524 480.868,-492.388 458.667,-462.041 436.791,-436.89"/>
<polygon fill="none" stroke="#404040" points="436.739,-436.831 429.762,-435.007 428.762,-427.865 435.739,-429.689 436.739,-436.831"/>
<text text-anchor="middle" x="556.5" y="-669" font-family="Helvetica,sans-Serif" font-size="10.00"> +forceEnemyMove</text>
<text text-anchor="middle" x="556.5" y="-658" font-family="Helvetica,sans-Serif" font-size="10.00">+forceCriticalHits</text>
</g>
<!-- Node12 -->
<g id="node10" class="node"><title>Node12</title>
<g id="a_node10"><a xlink:href="class_item.html" target="_top" xlink:title="Abstract class for items that can be equipped to a player, increasing some of their stats ...">
<polygon fill="none" stroke="black" points="467,-745 467,-824 544,-824 544,-745 467,-745"/>
<text text-anchor="middle" x="505.5" y="-812" font-family="Helvetica,sans-Serif" font-size="10.00">Item</text>
<polyline fill="none" stroke="black" points="467,-805 544,-805 "/>
<text text-anchor="start" x="475" y="-793" font-family="Helvetica,sans-Serif" font-size="10.00">+ Name</text>
<text text-anchor="start" x="475" y="-782" font-family="Helvetica,sans-Serif" font-size="10.00">+ Desc</text>
<polyline fill="none" stroke="black" points="467,-775 544,-775 "/>
<text text-anchor="start" x="475" y="-763" font-family="Helvetica,sans-Serif" font-size="10.00">+ applyBuffs()</text>
<text text-anchor="start" x="475" y="-752" font-family="Helvetica,sans-Serif" font-size="10.00">+ revertBuffs()</text>
</a>
</g>
</g>
<!-- Node4&#45;&gt;Node12 -->
<g id="edge17" class="edge"><title>Node4&#45;&gt;Node12</title>
<path fill="none" stroke="#404040" d="M551.863,-1009.76C543.184,-1001.76 533.871,-991.396 528.5,-980 507.086,-934.565 502.727,-876.804 502.87,-836.07"/>
<polygon fill="none" stroke="#404040" points="502.871,-836.006 498.959,-829.948 503.045,-824.007 506.958,-830.065 502.871,-836.006"/>
<text text-anchor="middle" x="543.5" y="-939" font-family="Helvetica,sans-Serif" font-size="10.00"> #desc</text>
<text text-anchor="middle" x="543.5" y="-928" font-family="Helvetica,sans-Serif" font-size="10.00">#name</text>
</g>
<!-- Node5 -->
<g id="node3" class="node"><title>Node5</title>
<polygon fill="none" stroke="#bfbfbf" points="239,-998.5 239,-1055.5 268,-1055.5 268,-998.5 239,-998.5"/>
<text text-anchor="middle" x="253.5" y="-1043.5" font-family="Helvetica,sans-Serif" font-size="10.00">int</text>
<polyline fill="none" stroke="#bfbfbf" points="239,-1036.5 268,-1036.5 "/>
<text text-anchor="middle" x="253.5" y="-1024.5" font-family="Helvetica,sans-Serif" font-size="10.00"> </text>
<polyline fill="none" stroke="#bfbfbf" points="239,-1017.5 268,-1017.5 "/>
<text text-anchor="middle" x="253.5" y="-1005.5" font-family="Helvetica,sans-Serif" font-size="10.00"> </text>
</g>
<!-- Node5&#45;&gt;Node3 -->
<g id="edge2" class="edge"><title>Node5&#45;&gt;Node3</title>
<path fill="none" stroke="#404040" d="M238.93,-1023.32C218.167,-1018.62 180.781,-1006.74 164.5,-980 147.602,-952.245 143.97,-917.881 146.02,-885.795"/>
<polygon fill="none" stroke="#404040" points="146.038,-885.584 142.568,-879.263 147.068,-873.628 150.538,-879.949 146.038,-885.584"/>
<text text-anchor="middle" x="202" y="-972" font-family="Helvetica,sans-Serif" font-size="10.00"> #speed</text>
<text text-anchor="middle" x="202" y="-961" font-family="Helvetica,sans-Serif" font-size="10.00">#luck</text>
<text text-anchor="middle" x="202" y="-950" font-family="Helvetica,sans-Serif" font-size="10.00">#health</text>
<text text-anchor="middle" x="202" y="-939" font-family="Helvetica,sans-Serif" font-size="10.00">#magic</text>
<text text-anchor="middle" x="202" y="-928" font-family="Helvetica,sans-Serif" font-size="10.00">#maximumMagic</text>
<text text-anchor="middle" x="202" y="-917" font-family="Helvetica,sans-Serif" font-size="10.00">#attack</text>
<text text-anchor="middle" x="202" y="-906" font-family="Helvetica,sans-Serif" font-size="10.00">#defence</text>
<text text-anchor="middle" x="202" y="-895" font-family="Helvetica,sans-Serif" font-size="10.00">#level</text>
</g>
<!-- Node5&#45;&gt;Node6 -->
<g id="edge21" class="edge"><title>Node5&#45;&gt;Node6</title>
<path fill="none" stroke="#404040" d="M238.648,-1023.9C214.953,-1019.78 168.614,-1008.41 142.5,-980 81.1041,-913.198 80.5,-876.23 80.5,-785.5 80.5,-785.5 80.5,-785.5 80.5,-188 80.5,-87.8261 224.096,-61.2904 309.198,-54.3601"/>
<polygon fill="none" stroke="#404040" points="309.338,-54.35 315.029,-49.9224 321.305,-53.4734 315.614,-57.901 309.338,-54.35"/>
<text text-anchor="middle" x="98" y="-492.5" font-family="Helvetica,sans-Serif" font-size="10.00"> #magic</text>
</g>
<!-- Node5&#45;&gt;Node8 -->
<g id="edge12" class="edge"><title>Node5&#45;&gt;Node8</title>
<path fill="none" stroke="#404040" d="M262.046,-998.482C271.229,-968.201 285.807,-917.981 295.5,-874 331.183,-712.098 334.321,-670.297 356.5,-506 357.732,-496.873 358.916,-487.383 360.038,-477.859"/>
<polygon fill="none" stroke="#404040" points="360.054,-477.722 356.766,-471.304 361.425,-465.8 364.714,-472.218 360.054,-477.722"/>
<text text-anchor="middle" x="356" y="-663.5" font-family="Helvetica,sans-Serif" font-size="10.00"> +money</text>
</g>
<!-- Node5&#45;&gt;Node9 -->
<g id="edge11" class="edge"><title>Node5&#45;&gt;Node9</title>
<path fill="none" stroke="#404040" d="M252.061,-998.195C248.12,-922.02 237.137,-709.768 232.552,-621.156"/>
<polygon fill="none" stroke="#404040" points="232.544,-620.995 228.239,-615.209 231.923,-609.011 236.228,-614.796 232.544,-620.995"/>
<text text-anchor="middle" x="268.5" y="-782" font-family="Helvetica,sans-Serif" font-size="10.00"> &#45;expGiven</text>
</g>
<!-- Node5&#45;&gt;Node11 -->
<g id="edge18" class="edge"><title>Node5&#45;&gt;Node11</title>
<path fill="none" stroke="#404040" d="M268.092,-1022.77C288.152,-1017.5 323.77,-1005.05 341.5,-980 415.439,-875.551 348.645,-818.411 382.5,-695 386.771,-679.43 392.627,-663.143 398.755,-647.925"/>
<polygon fill="none" stroke="#404040" points="398.884,-647.613 397.483,-640.539 403.474,-636.525 404.875,-643.599 398.884,-647.613"/>
<text text-anchor="middle" x="420" y="-787.5" font-family="Helvetica,sans-Serif" font-size="10.00"> &#45;expToNextLevel</text>
<text text-anchor="middle" x="420" y="-776.5" font-family="Helvetica,sans-Serif" font-size="10.00">&#45;exp</text>
</g>
<!-- Node6&#45;&gt;Node3 -->
<g id="edge3" class="edge"><title>Node6&#45;&gt;Node3</title>
<path fill="none" stroke="#404040" d="M321.353,-57.7652C251.138,-69.0465 130.5,-101.077 130.5,-188 130.5,-581.5 130.5,-581.5 130.5,-581.5 130.5,-614.883 135.574,-650.842 142.014,-683.036"/>
<polygon fill="none" stroke="#404040" points="142.096,-683.43 147.235,-688.489 144.542,-695.178 139.403,-690.119 142.096,-683.43"/>
<text text-anchor="middle" x="153" y="-374" font-family="Helvetica,sans-Serif" font-size="10.00"> #special1</text>
<text text-anchor="middle" x="153" y="-363" font-family="Helvetica,sans-Serif" font-size="10.00">#special2</text>
</g>
<!-- Node7&#45;&gt;Node6 -->
<g id="edge4" class="edge"><title>Node7&#45;&gt;Node6</title>
<path fill="none" stroke="midnightblue" d="M370.5,-139.047C370.5,-126.972 370.5,-114.025 370.5,-101.905"/>
<polygon fill="none" stroke="midnightblue" points="367,-139.392 370.5,-149.392 374,-139.392 367,-139.392"/>
</g>
<!-- Node8&#45;&gt;Node7 -->
<g id="edge7" class="edge"><title>Node8&#45;&gt;Node7</title>
<path fill="none" stroke="#404040" d="M370.5,-276.31C370.5,-264.145 370.5,-252.07 370.5,-240.976"/>
<polygon fill="none" stroke="#404040" points="370.5,-240.915 366.5,-234.915 370.5,-228.915 374.5,-234.915 370.5,-240.915"/>
<text text-anchor="middle" x="393.5" y="-250" font-family="Helvetica,sans-Serif" font-size="10.00"> #manager</text>
</g>
<!-- Node9&#45;&gt;Node8 -->
<g id="edge9" class="edge"><title>Node9&#45;&gt;Node8</title>
<path fill="none" stroke="#404040" d="M230.765,-551.586C232.037,-531.65 236.029,-504.791 247.5,-484 261.112,-459.329 282.213,-437.196 303.118,-419.249"/>
<polygon fill="none" stroke="#404040" points="303.135,-419.235 305.19,-412.323 312.361,-411.562 310.306,-418.474 303.135,-419.235"/>
<text text-anchor="middle" x="265.5" y="-492.5" font-family="Helvetica,sans-Serif" font-size="10.00"> &#45;enemy</text>
</g>
<!-- Node10 -->
<g id="node8" class="node"><title>Node10</title>
<polygon fill="none" stroke="#bfbfbf" points="282,-552 282,-609 317,-609 317,-552 282,-552"/>
<text text-anchor="middle" x="299.5" y="-597" font-family="Helvetica,sans-Serif" font-size="10.00">bool</text>
<polyline fill="none" stroke="#bfbfbf" points="282,-590 317,-590 "/>
<text text-anchor="middle" x="299.5" y="-578" font-family="Helvetica,sans-Serif" font-size="10.00"> </text>
<polyline fill="none" stroke="#bfbfbf" points="282,-571 317,-571 "/>
<text text-anchor="middle" x="299.5" y="-559" font-family="Helvetica,sans-Serif" font-size="10.00"> </text>
</g>
<!-- Node10&#45;&gt;Node8 -->
<g id="edge13" class="edge"><title>Node10&#45;&gt;Node8</title>
<path fill="none" stroke="#404040" d="M291.152,-551.704C286.696,-532.304 283.436,-506.044 290.5,-484 294.258,-472.274 299.744,-460.73 306.111,-449.771"/>
<polygon fill="none" stroke="#404040" points="306.17,-449.676 305.907,-442.47 312.458,-439.456 312.721,-446.662 306.17,-449.676"/>
<text text-anchor="middle" x="323.5" y="-492.5" font-family="Helvetica,sans-Serif" font-size="10.00"> &#45;wasCriticalHit</text>
</g>
<!-- Node11&#45;&gt;Node8 -->
<g id="edge14" class="edge"><title>Node11&#45;&gt;Node8</title>
<path fill="none" stroke="#404040" d="M413.844,-524.439C409.723,-509.946 405.137,-493.815 400.533,-477.623"/>
<polygon fill="none" stroke="#404040" points="400.466,-477.387 394.977,-472.71 397.184,-465.845 402.672,-470.522 400.466,-477.387"/>
<text text-anchor="middle" x="424" y="-492.5" font-family="Helvetica,sans-Serif" font-size="10.00"> &#45;player</text>
</g>
<!-- Node12&#45;&gt;Node11 -->
<g id="edge16" class="edge"><title>Node12&#45;&gt;Node11</title>
<path fill="none" stroke="#404040" d="M490.846,-744.552C480.589,-717.29 466.627,-680.179 454.613,-648.249"/>
<polygon fill="none" stroke="#404040" points="454.512,-647.979 448.655,-643.772 450.286,-636.747 456.143,-640.955 454.512,-647.979"/>
<text text-anchor="middle" x="478" y="-663.5" font-family="Helvetica,sans-Serif" font-size="10.00"> &#45;item</text>
</g>
<!-- Node13 -->
<g id="node11" class="node"><title>Node13</title>
<polygon fill="none" stroke="#bfbfbf" points="686,-160.5 686,-217.5 721,-217.5 721,-160.5 686,-160.5"/>
<text text-anchor="middle" x="703.5" y="-205.5" font-family="Helvetica,sans-Serif" font-size="10.00">float</text>
<polyline fill="none" stroke="#bfbfbf" points="686,-198.5 721,-198.5 "/>
<text text-anchor="middle" x="703.5" y="-186.5" font-family="Helvetica,sans-Serif" font-size="10.00"> </text>
<polyline fill="none" stroke="#bfbfbf" points="686,-179.5 721,-179.5 "/>
<text text-anchor="middle" x="703.5" y="-167.5" font-family="Helvetica,sans-Serif" font-size="10.00"> </text>
</g>
<!-- Node13&#45;&gt;Node6 -->
<g id="edge20" class="edge"><title>Node13&#45;&gt;Node6</title>
<path fill="none" stroke="#404040" d="M696.812,-160.486C692.017,-146.401 684.115,-130.13 671.5,-120 635.07,-90.7467 508.556,-69.7896 431.622,-59.4033"/>
<polygon fill="none" stroke="#404040" points="431.618,-59.4029 425.145,-62.5806 419.722,-57.8275 426.195,-54.6498 431.618,-59.4029"/>
<text text-anchor="middle" x="700.5" y="-123" font-family="Helvetica,sans-Serif" font-size="10.00"> #special</text>
</g>
<!-- Node14 -->
<g id="node12" class="node"><title>Node14</title>
<polygon fill="none" stroke="#bfbfbf" points="0,-998.5 0,-1055.5 61,-1055.5 61,-998.5 0,-998.5"/>
<text text-anchor="middle" x="30.5" y="-1043.5" font-family="Helvetica,sans-Serif" font-size="10.00">Texture2D</text>
<polyline fill="none" stroke="#bfbfbf" points="0,-1036.5 61,-1036.5 "/>
<text text-anchor="middle" x="30.5" y="-1024.5" font-family="Helvetica,sans-Serif" font-size="10.00"> </text>
<polyline fill="none" stroke="#bfbfbf" points="0,-1017.5 61,-1017.5 "/>
<text text-anchor="middle" x="30.5" y="-1005.5" font-family="Helvetica,sans-Serif" font-size="10.00"> </text>
</g>
<!-- Node14&#45;&gt;Node3 -->
<g id="edge22" class="edge"><title>Node14&#45;&gt;Node3</title>
<path fill="none" stroke="#404040" d="M46.3304,-998.412C63.0412,-969.289 90.3092,-921.767 114.849,-879.001"/>
<polygon fill="none" stroke="#404040" points="114.883,-878.94 114.4,-871.746 120.856,-868.532 121.339,-875.727 114.883,-878.94"/>
<text text-anchor="middle" x="122" y="-933.5" font-family="Helvetica,sans-Serif" font-size="10.00"> #image</text>
</g>
</g>
</svg>
        <g id="navigator" transform="translate(0 0)" fill="#404254">
                <rect fill="#f2f5e9" fill-opacity="0.5" stroke="#606060" stroke-width=".5" x="0" y="0" width="60" height="60"/>
                <use id="zoomplus" xlink:href="#zoomPlus" x="17" y="9" onmousedown="handleZoom(evt,'in')"/>
                <use id="zoomminus" xlink:href="#zoomMin" x="42" y="9" onmousedown="handleZoom(evt,'out')"/>
                <use id="reset" xlink:href="#resetDef" x="30" y="36" onmousedown="handleReset()"/>
                <g id="arrowUp" xlink:href="#dirArrow" transform="translate(30 24)" onmousedown="handlePan(0,-1)">
                  <use xlink:href="#rim" fill="#404040">
                        <set attributeName="fill" to="#808080" begin="arrowUp.mouseover" end="arrowUp.mouseout"/>
                  </use>
                  <path fill="none" stroke="white" stroke-width="1.5" d="M0,-3.0v7 M-2.5,-0.5L0,-3.0L2.5,-0.5"/>
                </g>
                <g id="arrowRight" xlink:href="#dirArrow" transform="rotate(90) translate(36 -43)" onmousedown="handlePan(1,0)">
                  <use xlink:href="#rim" fill="#404040">
                        <set attributeName="fill" to="#808080" begin="arrowRight.mouseover" end="arrowRight.mouseout"/>
                  </use>
                  <path fill="none" stroke="white" stroke-width="1.5" d="M0,-3.0v7 M-2.5,-0.5L0,-3.0L2.5,-0.5"/>
                </g>
                <g id="arrowDown" xlink:href="#dirArrow" transform="rotate(180) translate(-30 -48)" onmousedown="handlePan(0,1)">
                  <use xlink:href="#rim" fill="#404040">
                        <set attributeName="fill" to="#808080" begin="arrowDown.mouseover" end="arrowDown.mouseout"/>
                  </use>
                  <path fill="none" stroke="white" stroke-width="1.5" d="M0,-3.0v7 M-2.5,-0.5L0,-3.0L2.5,-0.5"/>
                </g>
                <g id="arrowLeft" xlink:href="#dirArrow" transform="rotate(270) translate(-36 17)" onmousedown="handlePan(-1,0)">
                  <use xlink:href="#rim" fill="#404040">
                        <set attributeName="fill" to="#808080" begin="arrowLeft.mouseover" end="arrowLeft.mouseout"/>
                  </use>
                  <path fill="none" stroke="white" stroke-width="1.5" d="M0,-3.0v7 M-2.5,-0.5L0,-3.0L2.5,-0.5"/>
                </g>
        </g>
        <svg viewBox="0 0 15 15" width="100%" height="30px" preserveAspectRatio="xMaxYMin meet">
         <g id="arrow_out" transform="scale(0.3 0.3)">
          <a xlink:href="class_character__coll__graph_org.svg" target="_base">
           <rect id="button" ry="5" rx="5" y="6" x="6" height="38" width="38"
                fill="#f2f5e9" fill-opacity="0.5" stroke="#606060" stroke-width="1.0"/>
           <path id="arrow"
             d="M 11.500037,31.436501 C 11.940474,20.09759 22.043105,11.32322 32.158766,21.979434 L 37.068811,17.246167 C 37.068811,17.246167 37.088388,32 37.088388,32 L 22.160133,31.978069 C 22.160133,31.978069 26.997745,27.140456 26.997745,27.140456 C 18.528582,18.264221 13.291696,25.230495 11.500037,31.436501 z"
             style="fill:#404040;"/>
          </a>
         </g>
        </svg>
</svg>
