<?xml version="1.0" encoding="UTF-8" standalone="no"?>
<!DOCTYPE svg PUBLIC "-//W3C//DTD SVG 1.1//EN"
 "http://www.w3.org/Graphics/SVG/1.1/DTD/svg11.dtd">
<!-- Generated by graphviz version 2.38.0 (20140413.2041)
 -->
<!-- Title: SwitchPlayers Pages: 1 -->
<svg width="889pt" height="1046pt"
 viewBox="0.00 0.00 889.00 1046.00" xmlns="http://www.w3.org/2000/svg" xmlns:xlink="http://www.w3.org/1999/xlink">
<g id="graph0" class="graph" transform="scale(1 1) rotate(0) translate(4 1042)">
<title>SwitchPlayers</title>
<!-- Node2 -->
<g id="node1" class="node"><title>Node2</title>
<polygon fill="#bfbfbf" stroke="black" points="127,-641 127,-709 221,-709 221,-641 127,-641"/>
<text text-anchor="middle" x="174" y="-697" font-family="Helvetica,sans-Serif" font-size="10.00">SwitchPlayers</text>
<polyline fill="none" stroke="black" points="127,-690 221,-690 "/>
<text text-anchor="middle" x="174" y="-678" font-family="Helvetica,sans-Serif" font-size="10.00"> </text>
<polyline fill="none" stroke="black" points="127,-671 221,-671 "/>
<text text-anchor="start" x="135" y="-659" font-family="Helvetica,sans-Serif" font-size="10.00">+ SwitchPlayers()</text>
<text text-anchor="start" x="135" y="-648" font-family="Helvetica,sans-Serif" font-size="10.00">+ performMove()</text>
</g>
<!-- Node3 -->
<g id="node2" class="node"><title>Node3</title>
<g id="a_node2"><a xlink:href="class_character_move.html" target="_top" xlink:title="Astract base class for character moves ">
<polygon fill="none" stroke="black" points="205,-842.5 205,-921.5 291,-921.5 291,-842.5 205,-842.5"/>
<text text-anchor="middle" x="248" y="-909.5" font-family="Helvetica,sans-Serif" font-size="10.00">CharacterMove</text>
<polyline fill="none" stroke="black" points="205,-902.5 291,-902.5 "/>
<text text-anchor="start" x="213" y="-890.5" font-family="Helvetica,sans-Serif" font-size="10.00">+ User</text>
<text text-anchor="start" x="213" y="-879.5" font-family="Helvetica,sans-Serif" font-size="10.00">+ Target</text>
<text text-anchor="start" x="213" y="-868.5" font-family="Helvetica,sans-Serif" font-size="10.00">+ Text</text>
<polyline fill="none" stroke="black" points="205,-861.5 291,-861.5 "/>
<text text-anchor="start" x="213" y="-849.5" font-family="Helvetica,sans-Serif" font-size="10.00">+ performMove()</text>
</a>
</g>
</g>
<!-- Node3&#45;&gt;Node2 -->
<g id="edge1" class="edge"><title>Node3&#45;&gt;Node2</title>
<path fill="none" stroke="midnightblue" d="M230.534,-832.614C216.823,-794.63 198.094,-742.746 186.021,-709.302"/>
<polygon fill="none" stroke="midnightblue" points="227.394,-834.223 234.081,-842.441 233.978,-831.847 227.394,-834.223"/>
</g>
<!-- Node7 -->
<g id="node6" class="node"><title>Node7</title>
<g id="a_node6"><a xlink:href="class_special_move.html" target="_top" xlink:title="Special move abstract base class that expands upon CharacterMove, adding magic properties ...">
<polygon fill="none" stroke="black" points="347,-624.5 347,-725.5 445,-725.5 445,-624.5 347,-624.5"/>
<text text-anchor="middle" x="396" y="-713.5" font-family="Helvetica,sans-Serif" font-size="10.00">SpecialMove</text>
<polyline fill="none" stroke="black" points="347,-706.5 445,-706.5 "/>
<text text-anchor="start" x="355" y="-694.5" font-family="Helvetica,sans-Serif" font-size="10.00">+ Magic</text>
<text text-anchor="start" x="355" y="-683.5" font-family="Helvetica,sans-Serif" font-size="10.00">+ Desc</text>
<text text-anchor="start" x="355" y="-672.5" font-family="Helvetica,sans-Serif" font-size="10.00">+ Special</text>
<polyline fill="none" stroke="black" points="347,-665.5 445,-665.5 "/>
<text text-anchor="start" x="355" y="-653.5" font-family="Helvetica,sans-Serif" font-size="10.00">+ setUp()</text>
<text text-anchor="start" x="355" y="-642.5" font-family="Helvetica,sans-Serif" font-size="10.00">+ decreaseMagic()</text>
<text text-anchor="start" x="355" y="-631.5" font-family="Helvetica,sans-Serif" font-size="10.00"># SpecialMove()</text>
</a>
</g>
</g>
<!-- Node3&#45;&gt;Node7 -->
<g id="edge7" class="edge"><title>Node3&#45;&gt;Node7</title>
<path fill="none" stroke="midnightblue" d="M300.323,-862.564C319.279,-853.56 339.358,-840.936 353,-824 375.492,-796.078 386.219,-756.837 391.335,-725.776"/>
<polygon fill="none" stroke="midnightblue" points="298.823,-859.4 291.141,-866.696 301.696,-865.784 298.823,-859.4"/>
</g>
<!-- Node4 -->
<g id="node3" class="node"><title>Node4</title>
<polygon fill="none" stroke="#bfbfbf" points="298.5,-980.5 298.5,-1037.5 339.5,-1037.5 339.5,-980.5 298.5,-980.5"/>
<text text-anchor="middle" x="319" y="-1025.5" font-family="Helvetica,sans-Serif" font-size="10.00">string</text>
<polyline fill="none" stroke="#bfbfbf" points="298.5,-1018.5 339.5,-1018.5 "/>
<text text-anchor="middle" x="319" y="-1006.5" font-family="Helvetica,sans-Serif" font-size="10.00"> </text>
<polyline fill="none" stroke="#bfbfbf" points="298.5,-999.5 339.5,-999.5 "/>
<text text-anchor="middle" x="319" y="-987.5" font-family="Helvetica,sans-Serif" font-size="10.00"> </text>
</g>
<!-- Node4&#45;&gt;Node3 -->
<g id="edge2" class="edge"><title>Node4&#45;&gt;Node3</title>
<path fill="none" stroke="#404040" d="M298.437,-986.633C291.988,-979.219 285.203,-970.6 280,-962 274.55,-952.991 269.657,-942.886 265.433,-932.992"/>
<polygon fill="none" stroke="#404040" points="265.303,-932.669 259.339,-928.615 260.789,-921.551 266.752,-925.605 265.303,-932.669"/>
<text text-anchor="middle" x="292.5" y="-948.5" font-family="Helvetica,sans-Serif" font-size="10.00"> #text</text>
</g>
<!-- Node5 -->
<g id="node4" class="node"><title>Node5</title>
<g id="a_node4"><a xlink:href="class_character.html" target="_top" xlink:title="Base abstract class for Enemy and Player to inherit from. Defines all shared variables, their constructor and their setters and getters ">
<polygon fill="none" stroke="black" points="446.5,-387.5 446.5,-565.5 541.5,-565.5 541.5,-387.5 446.5,-387.5"/>
<text text-anchor="middle" x="494" y="-553.5" font-family="Helvetica,sans-Serif" font-size="10.00">Character</text>
<polyline fill="none" stroke="black" points="446.5,-546.5 541.5,-546.5 "/>
<text text-anchor="start" x="454.5" y="-534.5" font-family="Helvetica,sans-Serif" font-size="10.00">+ Name</text>
<text text-anchor="start" x="454.5" y="-523.5" font-family="Helvetica,sans-Serif" font-size="10.00">+ Level</text>
<text text-anchor="start" x="454.5" y="-512.5" font-family="Helvetica,sans-Serif" font-size="10.00">+ Health</text>
<text text-anchor="start" x="454.5" y="-501.5" font-family="Helvetica,sans-Serif" font-size="10.00">+ Attack</text>
<text text-anchor="start" x="454.5" y="-490.5" font-family="Helvetica,sans-Serif" font-size="10.00">+ Defence</text>
<text text-anchor="start" x="454.5" y="-479.5" font-family="Helvetica,sans-Serif" font-size="10.00">+ MaximumMagic</text>
<text text-anchor="start" x="454.5" y="-468.5" font-family="Helvetica,sans-Serif" font-size="10.00">+ Magic</text>
<text text-anchor="start" x="454.5" y="-457.5" font-family="Helvetica,sans-Serif" font-size="10.00">+ Luck</text>
<text text-anchor="start" x="454.5" y="-446.5" font-family="Helvetica,sans-Serif" font-size="10.00">+ Speed</text>
<text text-anchor="start" x="454.5" y="-435.5" font-family="Helvetica,sans-Serif" font-size="10.00">+ Special1</text>
<text text-anchor="start" x="454.5" y="-424.5" font-family="Helvetica,sans-Serif" font-size="10.00">+ Special2</text>
<text text-anchor="start" x="454.5" y="-413.5" font-family="Helvetica,sans-Serif" font-size="10.00">+ Image</text>
<polyline fill="none" stroke="black" points="446.5,-406.5 541.5,-406.5 "/>
<text text-anchor="start" x="454.5" y="-394.5" font-family="Helvetica,sans-Serif" font-size="10.00"># Character()</text>
</a>
</g>
</g>
<!-- Node4&#45;&gt;Node5 -->
<g id="edge4" class="edge"><title>Node4&#45;&gt;Node5</title>
<path fill="none" stroke="#404040" d="M313.626,-980.286C302.297,-914.716 281.411,-746.381 338,-624 359.005,-578.574 401.097,-540.392 436.268,-514.407"/>
<polygon fill="none" stroke="#404040" points="436.716,-514.084 439.248,-507.332 446.455,-507.073 443.923,-513.825 436.716,-514.084"/>
<text text-anchor="middle" x="322.5" y="-781.5" font-family="Helvetica,sans-Serif" font-size="10.00"> #name</text>
</g>
<!-- Node4&#45;&gt;Node7 -->
<g id="edge8" class="edge"><title>Node4&#45;&gt;Node7</title>
<path fill="none" stroke="#404040" d="M339.825,-997.531C364.745,-983.82 405.65,-957.31 426,-922 465.643,-853.214 463.877,-820.024 441,-744 440.267,-741.564 439.415,-739.135 438.465,-736.724"/>
<polygon fill="none" stroke="#404040" points="438.373,-736.524 432.238,-732.735 433.375,-725.614 439.511,-729.403 438.373,-736.524"/>
<text text-anchor="middle" x="472" y="-879.5" font-family="Helvetica,sans-Serif" font-size="10.00"> #desc</text>
</g>
<!-- Node10 -->
<g id="node9" class="node"><title>Node10</title>
<g id="a_node9"><a xlink:href="class_battle_manager.html" target="_top" xlink:title="Holds current Player and Enemy objects in battle and provides functions for MainBattle and other obje...">
<polygon fill="none" stroke="black" points="600,-0.5 600,-189.5 716,-189.5 716,-0.5 600,-0.5"/>
<text text-anchor="middle" x="658" y="-177.5" font-family="Helvetica,sans-Serif" font-size="10.00">BattleManager</text>
<polyline fill="none" stroke="black" points="600,-170.5 716,-170.5 "/>
<text text-anchor="start" x="608" y="-158.5" font-family="Helvetica,sans-Serif" font-size="10.00">+ Player</text>
<text text-anchor="start" x="608" y="-147.5" font-family="Helvetica,sans-Serif" font-size="10.00">+ Enemy</text>
<text text-anchor="start" x="608" y="-136.5" font-family="Helvetica,sans-Serif" font-size="10.00">+ WasCriticalHit</text>
<polyline fill="none" stroke="black" points="600,-129.5 716,-129.5 "/>
<text text-anchor="start" x="608" y="-117.5" font-family="Helvetica,sans-Serif" font-size="10.00">+ BattleManager()</text>
<text text-anchor="start" x="608" y="-106.5" font-family="Helvetica,sans-Serif" font-size="10.00">+ playerFirst()</text>
<text text-anchor="start" x="608" y="-95.5" font-family="Helvetica,sans-Serif" font-size="10.00">+ switchPlayers()</text>
<text text-anchor="start" x="608" y="-84.5" font-family="Helvetica,sans-Serif" font-size="10.00">+ isCriticalHit()</text>
<text text-anchor="start" x="608" y="-73.5" font-family="Helvetica,sans-Serif" font-size="10.00">+ ranAway()</text>
<text text-anchor="start" x="608" y="-62.5" font-family="Helvetica,sans-Serif" font-size="10.00">+ damageCalculation()</text>
<text text-anchor="start" x="608" y="-51.5" font-family="Helvetica,sans-Serif" font-size="10.00">+ enemyMove()</text>
<text text-anchor="start" x="608" y="-40.5" font-family="Helvetica,sans-Serif" font-size="10.00">+ enemySpecialMove()</text>
<text text-anchor="start" x="608" y="-29.5" font-family="Helvetica,sans-Serif" font-size="10.00">+ battleWon()</text>
<text text-anchor="start" x="608" y="-18.5" font-family="Helvetica,sans-Serif" font-size="10.00">+ playerFainted()</text>
<text text-anchor="start" x="608" y="-7.5" font-family="Helvetica,sans-Serif" font-size="10.00">&#45; characterFainted()</text>
</a>
</g>
</g>
<!-- Node4&#45;&gt;Node10 -->
<g id="edge13" class="edge"><title>Node4&#45;&gt;Node10</title>
<path fill="none" stroke="#404040" d="M298.07,-1004.5C227.101,-992.064 0,-947.241 0,-883 0,-883 0,-883 0,-292.5 0,-170.822 418.334,-118.256 587.886,-101.948"/>
<polygon fill="none" stroke="#404040" points="587.949,-101.942 593.546,-97.3951 599.896,-100.813 594.298,-105.36 587.949,-101.942"/>
<text text-anchor="middle" x="42" y="-598" font-family="Helvetica,sans-Serif" font-size="10.00"> +forceEnemyMove</text>
<text text-anchor="middle" x="42" y="-587" font-family="Helvetica,sans-Serif" font-size="10.00">+forceCriticalHits</text>
</g>
<!-- Node14 -->
<g id="node13" class="node"><title>Node14</title>
<g id="a_node13"><a xlink:href="class_item.html" target="_top" xlink:title="Abstract class for items that can be equipped to a player, increasing some of their stats ...">
<polygon fill="none" stroke="black" points="791.5,-744.5 791.5,-823.5 868.5,-823.5 868.5,-744.5 791.5,-744.5"/>
<text text-anchor="middle" x="830" y="-811.5" font-family="Helvetica,sans-Serif" font-size="10.00">Item</text>
<polyline fill="none" stroke="black" points="791.5,-804.5 868.5,-804.5 "/>
<text text-anchor="start" x="799.5" y="-792.5" font-family="Helvetica,sans-Serif" font-size="10.00">+ Name</text>
<text text-anchor="start" x="799.5" y="-781.5" font-family="Helvetica,sans-Serif" font-size="10.00">+ Desc</text>
<polyline fill="none" stroke="black" points="791.5,-774.5 868.5,-774.5 "/>
<text text-anchor="start" x="799.5" y="-762.5" font-family="Helvetica,sans-Serif" font-size="10.00">+ applyBuffs()</text>
<text text-anchor="start" x="799.5" y="-751.5" font-family="Helvetica,sans-Serif" font-size="10.00">+ revertBuffs()</text>
</a>
</g>
</g>
<!-- Node4&#45;&gt;Node14 -->
<g id="edge22" class="edge"><title>Node4&#45;&gt;Node14</title>
<path fill="none" stroke="#404040" d="M339.886,-1006.95C398.265,-1003.24 566.738,-987.197 687,-922 727.774,-899.896 765.284,-863.045 791.648,-833.127"/>
<polygon fill="none" stroke="#404040" points="791.961,-832.765 792.857,-825.61 799.807,-823.685 798.911,-830.84 791.961,-832.765"/>
<text text-anchor="middle" x="663" y="-954" font-family="Helvetica,sans-Serif" font-size="10.00"> #desc</text>
<text text-anchor="middle" x="663" y="-943" font-family="Helvetica,sans-Serif" font-size="10.00">#name</text>
</g>
<!-- Node5&#45;&gt;Node3 -->
<g id="edge3" class="edge"><title>Node5&#45;&gt;Node3</title>
<path fill="none" stroke="#404040" d="M446.208,-491.234C390.31,-510.361 301.529,-551.159 271,-624 242.867,-691.126 241.179,-776.566 243.702,-830.036"/>
<polygon fill="none" stroke="#404040" points="243.715,-830.272 248.04,-836.042 244.378,-842.254 240.052,-836.484 243.715,-830.272"/>
<text text-anchor="middle" x="288" y="-678" font-family="Helvetica,sans-Serif" font-size="10.00"> #target</text>
<text text-anchor="middle" x="288" y="-667" font-family="Helvetica,sans-Serif" font-size="10.00">#user</text>
</g>
<!-- Node11 -->
<g id="node10" class="node"><title>Node11</title>
<g id="a_node10"><a xlink:href="class_enemy.html" target="_top" xlink:title="Defines an AI controller enemy to fight in battle scenes">
<polygon fill="none" stroke="black" points="591.5,-265 591.5,-322 658.5,-322 658.5,-265 591.5,-265"/>
<text text-anchor="middle" x="625" y="-310" font-family="Helvetica,sans-Serif" font-size="10.00">Enemy</text>
<polyline fill="none" stroke="black" points="591.5,-303 658.5,-303 "/>
<text text-anchor="start" x="599.5" y="-291" font-family="Helvetica,sans-Serif" font-size="10.00">+ ExpGiven</text>
<polyline fill="none" stroke="black" points="591.5,-284 658.5,-284 "/>
<text text-anchor="start" x="599.5" y="-272" font-family="Helvetica,sans-Serif" font-size="10.00">+ Enemy()</text>
</a>
</g>
</g>
<!-- Node5&#45;&gt;Node11 -->
<g id="edge15" class="edge"><title>Node5&#45;&gt;Node11</title>
<path fill="none" stroke="midnightblue" d="M547.602,-401.439C567.832,-373.488 589.629,-343.372 604.92,-322.244"/>
<polygon fill="none" stroke="midnightblue" points="544.692,-399.49 541.665,-409.643 550.363,-403.594 544.692,-399.49"/>
</g>
<!-- Node13 -->
<g id="node12" class="node"><title>Node13</title>
<g id="a_node12"><a xlink:href="class_player.html" target="_top" xlink:title="Defines a playable character for use in battle scenes">
<polygon fill="none" stroke="black" points="769,-237.5 769,-349.5 881,-349.5 881,-237.5 769,-237.5"/>
<text text-anchor="middle" x="825" y="-337.5" font-family="Helvetica,sans-Serif" font-size="10.00">Player</text>
<polyline fill="none" stroke="black" points="769,-330.5 881,-330.5 "/>
<text text-anchor="start" x="777" y="-318.5" font-family="Helvetica,sans-Serif" font-size="10.00">+ Exp</text>
<text text-anchor="start" x="777" y="-307.5" font-family="Helvetica,sans-Serif" font-size="10.00">+ Item</text>
<text text-anchor="start" x="777" y="-296.5" font-family="Helvetica,sans-Serif" font-size="10.00">+ ExpToNextLevel</text>
<polyline fill="none" stroke="black" points="769,-289.5 881,-289.5 "/>
<text text-anchor="start" x="777" y="-277.5" font-family="Helvetica,sans-Serif" font-size="10.00">+ Player()</text>
<text text-anchor="start" x="777" y="-266.5" font-family="Helvetica,sans-Serif" font-size="10.00">+ gainExp()</text>
<text text-anchor="start" x="777" y="-255.5" font-family="Helvetica,sans-Serif" font-size="10.00">+ levelUp()</text>
<text text-anchor="start" x="777" y="-244.5" font-family="Helvetica,sans-Serif" font-size="10.00">&#45; setExpToNextLevel()</text>
</a>
</g>
</g>
<!-- Node5&#45;&gt;Node13 -->
<g id="edge20" class="edge"><title>Node5&#45;&gt;Node13</title>
<path fill="none" stroke="midnightblue" d="M550.636,-444.264C583.586,-426.579 626.159,-404.555 665,-387 706.29,-368.338 721.114,-373.26 760,-350 762.929,-348.248 765.856,-346.363 768.759,-344.383"/>
<polygon fill="none" stroke="midnightblue" points="548.75,-441.304 541.608,-449.13 552.071,-447.466 548.75,-441.304"/>
</g>
<!-- Node6 -->
<g id="node5" class="node"><title>Node6</title>
<polygon fill="none" stroke="#bfbfbf" points="649.5,-853.5 649.5,-910.5 678.5,-910.5 678.5,-853.5 649.5,-853.5"/>
<text text-anchor="middle" x="664" y="-898.5" font-family="Helvetica,sans-Serif" font-size="10.00">int</text>
<polyline fill="none" stroke="#bfbfbf" points="649.5,-891.5 678.5,-891.5 "/>
<text text-anchor="middle" x="664" y="-879.5" font-family="Helvetica,sans-Serif" font-size="10.00"> </text>
<polyline fill="none" stroke="#bfbfbf" points="649.5,-872.5 678.5,-872.5 "/>
<text text-anchor="middle" x="664" y="-860.5" font-family="Helvetica,sans-Serif" font-size="10.00"> </text>
</g>
<!-- Node6&#45;&gt;Node5 -->
<g id="edge5" class="edge"><title>Node6&#45;&gt;Node5</title>
<path fill="none" stroke="#404040" d="M649.49,-859.511C630.304,-830.333 596.428,-776.065 575,-726 549.104,-665.495 553.659,-646.487 533,-584 532.258,-581.757 531.5,-579.489 530.73,-577.206"/>
<polygon fill="none" stroke="#404040" points="530.671,-577.035 524.942,-572.656 526.781,-565.683 532.51,-570.062 530.671,-577.035"/>
<text text-anchor="middle" x="612.5" y="-711" font-family="Helvetica,sans-Serif" font-size="10.00"> #speed</text>
<text text-anchor="middle" x="612.5" y="-700" font-family="Helvetica,sans-Serif" font-size="10.00">#luck</text>
<text text-anchor="middle" x="612.5" y="-689" font-family="Helvetica,sans-Serif" font-size="10.00">#health</text>
<text text-anchor="middle" x="612.5" y="-678" font-family="Helvetica,sans-Serif" font-size="10.00">#magic</text>
<text text-anchor="middle" x="612.5" y="-667" font-family="Helvetica,sans-Serif" font-size="10.00">#maximumMagic</text>
<text text-anchor="middle" x="612.5" y="-656" font-family="Helvetica,sans-Serif" font-size="10.00">#attack</text>
<text text-anchor="middle" x="612.5" y="-645" font-family="Helvetica,sans-Serif" font-size="10.00">#defence</text>
<text text-anchor="middle" x="612.5" y="-634" font-family="Helvetica,sans-Serif" font-size="10.00">#level</text>
</g>
<!-- Node6&#45;&gt;Node7 -->
<g id="edge10" class="edge"><title>Node6&#45;&gt;Node7</title>
<path fill="none" stroke="#404040" d="M649.271,-878.993C619.914,-874.306 553.383,-860.163 512,-824 481.604,-797.438 493.654,-775.963 469,-744 464.349,-737.97 459.142,-732.005 453.707,-726.261"/>
<polygon fill="none" stroke="#404040" points="453.443,-725.993 446.384,-724.522 445.027,-717.44 452.086,-718.911 453.443,-725.993"/>
<text text-anchor="middle" x="529.5" y="-781.5" font-family="Helvetica,sans-Serif" font-size="10.00"> #magic</text>
</g>
<!-- Node6&#45;&gt;Node10 -->
<g id="edge17" class="edge"><title>Node6&#45;&gt;Node10</title>
<path fill="none" stroke="#404040" d="M673.849,-853.213C676.681,-844.029 679.428,-833.683 681,-824 696.537,-728.314 686.444,-702.926 688,-606 690.841,-429.008 688.293,-384.353 673,-208 672.822,-205.951 672.634,-203.882 672.436,-201.798"/>
<polygon fill="none" stroke="#404040" points="672.424,-201.672 667.837,-196.108 671.209,-189.733 675.796,-195.298 672.424,-201.672"/>
<text text-anchor="middle" x="709.5" y="-474" font-family="Helvetica,sans-Serif" font-size="10.00"> +money</text>
</g>
<!-- Node6&#45;&gt;Node11 -->
<g id="edge16" class="edge"><title>Node6&#45;&gt;Node11</title>
<path fill="none" stroke="#404040" d="M665.743,-853.141C668.008,-805.456 669.616,-705.454 650,-624 647.95,-615.489 644.05,-614.511 642,-606 619.018,-510.588 620.053,-394.179 622.62,-334.3"/>
<polygon fill="none" stroke="#404040" points="622.632,-334.05 618.921,-327.867 623.201,-322.063 626.912,-328.246 622.632,-334.05"/>
<text text-anchor="middle" x="665" y="-592.5" font-family="Helvetica,sans-Serif" font-size="10.00"> &#45;expGiven</text>
</g>
<!-- Node6&#45;&gt;Node13 -->
<g id="edge23" class="edge"><title>Node6&#45;&gt;Node13</title>
<path fill="none" stroke="#404040" d="M674.87,-853.17C677.177,-849.147 679.879,-845.268 683,-842 694.539,-829.918 706.455,-837.711 716,-824 777.587,-735.531 729.845,-689.699 751,-584 766.43,-506.906 789.527,-419.627 805.804,-361.244"/>
<polygon fill="none" stroke="#404040" points="805.829,-361.156 803.596,-354.299 809.067,-349.601 811.299,-356.458 805.829,-361.156"/>
<text text-anchor="middle" x="788.5" y="-598" font-family="Helvetica,sans-Serif" font-size="10.00"> &#45;expToNextLevel</text>
<text text-anchor="middle" x="788.5" y="-587" font-family="Helvetica,sans-Serif" font-size="10.00">&#45;exp</text>
</g>
<!-- Node7&#45;&gt;Node5 -->
<g id="edge6" class="edge"><title>Node7&#45;&gt;Node5</title>
<path fill="none" stroke="#404040" d="M420.73,-624.415C428.032,-609.772 436.297,-593.2 444.578,-576.596"/>
<polygon fill="none" stroke="#404040" points="444.656,-576.439 443.755,-569.284 450.012,-565.7 450.914,-572.855 444.656,-576.439"/>
<text text-anchor="middle" x="462.5" y="-598" font-family="Helvetica,sans-Serif" font-size="10.00"> #special1</text>
<text text-anchor="middle" x="462.5" y="-587" font-family="Helvetica,sans-Serif" font-size="10.00">#special2</text>
</g>
<!-- Node8 -->
<g id="node7" class="node"><title>Node8</title>
<polygon fill="none" stroke="#bfbfbf" points="382.5,-853.5 382.5,-910.5 417.5,-910.5 417.5,-853.5 382.5,-853.5"/>
<text text-anchor="middle" x="400" y="-898.5" font-family="Helvetica,sans-Serif" font-size="10.00">float</text>
<polyline fill="none" stroke="#bfbfbf" points="382.5,-891.5 417.5,-891.5 "/>
<text text-anchor="middle" x="400" y="-879.5" font-family="Helvetica,sans-Serif" font-size="10.00"> </text>
<polyline fill="none" stroke="#bfbfbf" points="382.5,-872.5 417.5,-872.5 "/>
<text text-anchor="middle" x="400" y="-860.5" font-family="Helvetica,sans-Serif" font-size="10.00"> </text>
</g>
<!-- Node8&#45;&gt;Node7 -->
<g id="edge9" class="edge"><title>Node8&#45;&gt;Node7</title>
<path fill="none" stroke="#404040" d="M399.461,-853.353C398.885,-823.866 397.955,-776.208 397.204,-737.718"/>
<polygon fill="none" stroke="#404040" points="397.202,-737.576 393.085,-731.655 396.967,-725.578 401.084,-731.499 397.202,-737.576"/>
<text text-anchor="middle" x="419" y="-781.5" font-family="Helvetica,sans-Serif" font-size="10.00"> #special</text>
</g>
<!-- Node9 -->
<g id="node8" class="node"><title>Node9</title>
<polygon fill="none" stroke="#bfbfbf" points="463.5,-646.5 463.5,-703.5 524.5,-703.5 524.5,-646.5 463.5,-646.5"/>
<text text-anchor="middle" x="494" y="-691.5" font-family="Helvetica,sans-Serif" font-size="10.00">Texture2D</text>
<polyline fill="none" stroke="#bfbfbf" points="463.5,-684.5 524.5,-684.5 "/>
<text text-anchor="middle" x="494" y="-672.5" font-family="Helvetica,sans-Serif" font-size="10.00"> </text>
<polyline fill="none" stroke="#bfbfbf" points="463.5,-665.5 524.5,-665.5 "/>
<text text-anchor="middle" x="494" y="-653.5" font-family="Helvetica,sans-Serif" font-size="10.00"> </text>
</g>
<!-- Node9&#45;&gt;Node5 -->
<g id="edge11" class="edge"><title>Node9&#45;&gt;Node5</title>
<path fill="none" stroke="#404040" d="M494,-646.263C494,-627.998 494,-602.86 494,-577.562"/>
<polygon fill="none" stroke="#404040" points="494,-577.557 490,-571.557 494,-565.557 498,-571.557 494,-577.557"/>
<text text-anchor="middle" x="511.5" y="-592.5" font-family="Helvetica,sans-Serif" font-size="10.00"> #image</text>
</g>
<!-- Node10&#45;&gt;Node3 -->
<g id="edge12" class="edge"><title>Node10&#45;&gt;Node3</title>
<path fill="none" stroke="#404040" d="M599.759,-103.811C456.585,-124.635 99,-187.187 99,-292.5 99,-676 99,-676 99,-676 99,-743.634 152.724,-803.959 195.653,-841.367"/>
<polygon fill="none" stroke="#404040" points="195.758,-841.456 202.92,-842.292 204.903,-849.225 197.741,-848.389 195.758,-841.456"/>
<text text-anchor="middle" x="122" y="-474" font-family="Helvetica,sans-Serif" font-size="10.00"> #manager</text>
</g>
<!-- Node11&#45;&gt;Node10 -->
<g id="edge14" class="edge"><title>Node11&#45;&gt;Node10</title>
<path fill="none" stroke="#404040" d="M628.637,-264.67C630.871,-248.169 633.894,-226.86 637,-208 637.337,-205.953 637.682,-203.887 638.033,-201.805"/>
<polygon fill="none" stroke="#404040" points="638.072,-201.577 635.146,-194.986 640.105,-189.751 643.031,-196.342 638.072,-201.577"/>
<text text-anchor="middle" x="655" y="-211" font-family="Helvetica,sans-Serif" font-size="10.00"> &#45;enemy</text>
</g>
<!-- Node12 -->
<g id="node11" class="node"><title>Node12</title>
<polygon fill="none" stroke="#bfbfbf" points="715.5,-265 715.5,-322 750.5,-322 750.5,-265 715.5,-265"/>
<text text-anchor="middle" x="733" y="-310" font-family="Helvetica,sans-Serif" font-size="10.00">bool</text>
<polyline fill="none" stroke="#bfbfbf" points="715.5,-303 750.5,-303 "/>
<text text-anchor="middle" x="733" y="-291" font-family="Helvetica,sans-Serif" font-size="10.00"> </text>
<polyline fill="none" stroke="#bfbfbf" points="715.5,-284 750.5,-284 "/>
<text text-anchor="middle" x="733" y="-272" font-family="Helvetica,sans-Serif" font-size="10.00"> </text>
</g>
<!-- Node12&#45;&gt;Node10 -->
<g id="edge18" class="edge"><title>Node12&#45;&gt;Node10</title>
<path fill="none" stroke="#404040" d="M722.511,-264.705C716.279,-248.217 708.21,-226.908 701,-208 700.151,-205.774 699.292,-203.524 698.426,-201.255"/>
<polygon fill="none" stroke="#404040" points="698.33,-201.002 692.451,-196.825 694.046,-189.793 699.924,-193.969 698.33,-201.002"/>
<text text-anchor="middle" x="738" y="-211" font-family="Helvetica,sans-Serif" font-size="10.00"> &#45;wasCriticalHit</text>
</g>
<!-- Node13&#45;&gt;Node10 -->
<g id="edge19" class="edge"><title>Node13&#45;&gt;Node10</title>
<path fill="none" stroke="#404040" d="M795.366,-237.409C789.11,-227.298 782.205,-217.08 775,-208 760.19,-189.336 742.367,-170.758 725.148,-154.253"/>
<polygon fill="none" stroke="#404040" points="724.943,-154.06 717.834,-152.849 716.217,-145.822 723.326,-147.032 724.943,-154.06"/>
<text text-anchor="middle" x="798.5" y="-211" font-family="Helvetica,sans-Serif" font-size="10.00"> &#45;player</text>
</g>
<!-- Node14&#45;&gt;Node13 -->
<g id="edge21" class="edge"><title>Node14&#45;&gt;Node13</title>
<path fill="none" stroke="#404040" d="M830.197,-744.478C830.356,-704.39 830.482,-639.794 830,-584 829.343,-507.859 827.713,-420.467 826.491,-361.795"/>
<polygon fill="none" stroke="#404040" points="826.49,-361.723 822.364,-355.809 826.237,-349.726 830.363,-355.64 826.49,-361.723"/>
<text text-anchor="middle" x="842.5" y="-592.5" font-family="Helvetica,sans-Serif" font-size="10.00"> &#45;item</text>
</g>
</g>
</svg>
