<?xml version="1.0" encoding="UTF-8" standalone="no"?>
<!DOCTYPE svg PUBLIC "-//W3C//DTD SVG 1.1//EN"
 "http://www.w3.org/Graphics/SVG/1.1/DTD/svg11.dtd">
<!-- Generated by graphviz version 2.38.0 (20140413.2041)
 -->
<!-- Title: SwitchPlayers Pages: 1 -->
<!--zoomable 1057 -->
<svg id="main" version="1.1" xmlns="http://www.w3.org/2000/svg" xmlns:xlink="http://www.w3.org/1999/xlink" xml:space="preserve" onload="init(evt)">
<style type="text/css"><![CDATA[
.edge:hover path { stroke: red; }
.edge:hover polygon { stroke: red; fill: red; }
]]></style>
<script type="text/javascript"><![CDATA[
var edges = document.getElementsByTagName('g');
if (edges && edges.length) {
  for (var i=0;i<edges.length;i++) {
    if (edges[i].id.substr(0,4)=='edge') {
      edges[i].setAttribute('class','edge');
    }
  }
}
]]></script>
        <defs>
                <circle id="rim" cx="0" cy="0" r="7"/>
                <circle id="rim2" cx="0" cy="0" r="3.5"/>
                <g id="zoomPlus">
                        <use xlink:href="#rim" fill="#404040">
                                <set attributeName="fill" to="#808080" begin="zoomplus.mouseover" end="zoomplus.mouseout"/>
                        </use>
                        <path d="M-4,0h8M0,-4v8" fill="none" stroke="white" stroke-width="1.5" pointer-events="none"/>
                </g>
                <g id="zoomMin">
                        <use xlink:href="#rim" fill="#404040">
                                <set attributeName="fill" to="#808080" begin="zoomminus.mouseover" end="zoomminus.mouseout"/>
                        </use>
                        <path d="M-4,0h8" fill="none" stroke="white" stroke-width="1.5" pointer-events="none"/>
                </g>
                <g id="dirArrow">
                        <path fill="none" stroke="white" stroke-width="1.5" d="M0,-3.0v7 M-2.5,-0.5L0,-3.0L2.5,-0.5"/>
                </g>
               <g id="resetDef">
                       <use xlink:href="#rim2" fill="#404040">
                               <set attributeName="fill" to="#808080" begin="reset.mouseover" end="reset.mouseout"/>
                       </use>
               </g>
        </defs>

<script type="text/javascript">
var viewWidth = 889;
var viewHeight = 1057;
var sectionId = 'dynsection-1';
</script>
<script xlink:href="svgpan.js"/>
<svg id="graph" class="graph">
<g id="viewport">
<title>SwitchPlayers</title>
<!-- Node2 -->
<g id="node1" class="node"><title>Node2</title>
<polygon fill="#bfbfbf" stroke="black" points="127,-652 127,-720 221,-720 221,-652 127,-652"/>
<text text-anchor="middle" x="174" y="-708" font-family="Helvetica,sans-Serif" font-size="10.00">SwitchPlayers</text>
<polyline fill="none" stroke="black" points="127,-701 221,-701 "/>
<text text-anchor="middle" x="174" y="-689" font-family="Helvetica,sans-Serif" font-size="10.00"> </text>
<polyline fill="none" stroke="black" points="127,-682 221,-682 "/>
<text text-anchor="start" x="135" y="-670" font-family="Helvetica,sans-Serif" font-size="10.00">+ SwitchPlayers()</text>
<text text-anchor="start" x="135" y="-659" font-family="Helvetica,sans-Serif" font-size="10.00">+ performMove()</text>
</g>
<!-- Node3 -->
<g id="node2" class="node"><title>Node3</title>
<g id="a_node2"><a xlink:href="class_character_move.html" target="_top" xlink:title="Astract base class for character moves ">
<polygon fill="none" stroke="black" points="205,-853.5 205,-932.5 291,-932.5 291,-853.5 205,-853.5"/>
<text text-anchor="middle" x="248" y="-920.5" font-family="Helvetica,sans-Serif" font-size="10.00">CharacterMove</text>
<polyline fill="none" stroke="black" points="205,-913.5 291,-913.5 "/>
<text text-anchor="start" x="213" y="-901.5" font-family="Helvetica,sans-Serif" font-size="10.00">+ User</text>
<text text-anchor="start" x="213" y="-890.5" font-family="Helvetica,sans-Serif" font-size="10.00">+ Target</text>
<text text-anchor="start" x="213" y="-879.5" font-family="Helvetica,sans-Serif" font-size="10.00">+ Text</text>
<polyline fill="none" stroke="black" points="205,-872.5 291,-872.5 "/>
<text text-anchor="start" x="213" y="-860.5" font-family="Helvetica,sans-Serif" font-size="10.00">+ performMove()</text>
</a>
</g>
</g>
<!-- Node3&#45;&gt;Node2 -->
<g id="edge1" class="edge"><title>Node3&#45;&gt;Node2</title>
<path fill="none" stroke="midnightblue" d="M230.534,-843.614C216.823,-805.63 198.094,-753.746 186.021,-720.302"/>
<polygon fill="none" stroke="midnightblue" points="227.394,-845.223 234.081,-853.441 233.978,-842.847 227.394,-845.223"/>
</g>
<!-- Node7 -->
<g id="node6" class="node"><title>Node7</title>
<g id="a_node6"><a xlink:href="class_special_move.html" target="_top" xlink:title="Special move abstract base class that expands upon CharacterMove, adding magic properties ...">
<polygon fill="none" stroke="black" points="347,-635.5 347,-736.5 445,-736.5 445,-635.5 347,-635.5"/>
<text text-anchor="middle" x="396" y="-724.5" font-family="Helvetica,sans-Serif" font-size="10.00">SpecialMove</text>
<polyline fill="none" stroke="black" points="347,-717.5 445,-717.5 "/>
<text text-anchor="start" x="355" y="-705.5" font-family="Helvetica,sans-Serif" font-size="10.00">+ Magic</text>
<text text-anchor="start" x="355" y="-694.5" font-family="Helvetica,sans-Serif" font-size="10.00">+ Desc</text>
<text text-anchor="start" x="355" y="-683.5" font-family="Helvetica,sans-Serif" font-size="10.00">+ Special</text>
<polyline fill="none" stroke="black" points="347,-676.5 445,-676.5 "/>
<text text-anchor="start" x="355" y="-664.5" font-family="Helvetica,sans-Serif" font-size="10.00">+ setUp()</text>
<text text-anchor="start" x="355" y="-653.5" font-family="Helvetica,sans-Serif" font-size="10.00">+ decreaseMagic()</text>
<text text-anchor="start" x="355" y="-642.5" font-family="Helvetica,sans-Serif" font-size="10.00"># SpecialMove()</text>
</a>
</g>
</g>
<!-- Node3&#45;&gt;Node7 -->
<g id="edge7" class="edge"><title>Node3&#45;&gt;Node7</title>
<path fill="none" stroke="midnightblue" d="M300.323,-873.564C319.279,-864.56 339.358,-851.936 353,-835 375.492,-807.078 386.219,-767.837 391.335,-736.776"/>
<polygon fill="none" stroke="midnightblue" points="298.823,-870.4 291.141,-877.696 301.696,-876.784 298.823,-870.4"/>
</g>
<!-- Node4 -->
<g id="node3" class="node"><title>Node4</title>
<polygon fill="none" stroke="#bfbfbf" points="298.5,-991.5 298.5,-1048.5 339.5,-1048.5 339.5,-991.5 298.5,-991.5"/>
<text text-anchor="middle" x="319" y="-1036.5" font-family="Helvetica,sans-Serif" font-size="10.00">string</text>
<polyline fill="none" stroke="#bfbfbf" points="298.5,-1029.5 339.5,-1029.5 "/>
<text text-anchor="middle" x="319" y="-1017.5" font-family="Helvetica,sans-Serif" font-size="10.00"> </text>
<polyline fill="none" stroke="#bfbfbf" points="298.5,-1010.5 339.5,-1010.5 "/>
<text text-anchor="middle" x="319" y="-998.5" font-family="Helvetica,sans-Serif" font-size="10.00"> </text>
</g>
<!-- Node4&#45;&gt;Node3 -->
<g id="edge2" class="edge"><title>Node4&#45;&gt;Node3</title>
<path fill="none" stroke="#404040" d="M298.437,-997.633C291.988,-990.219 285.203,-981.6 280,-973 274.55,-963.991 269.657,-953.886 265.433,-943.992"/>
<polygon fill="none" stroke="#404040" points="265.303,-943.669 259.339,-939.615 260.789,-932.551 266.752,-936.605 265.303,-943.669"/>
<text text-anchor="middle" x="292.5" y="-959.5" font-family="Helvetica,sans-Serif" font-size="10.00"> #text</text>
</g>
<!-- Node5 -->
<g id="node4" class="node"><title>Node5</title>
<g id="a_node4"><a xlink:href="class_character.html" target="_top" xlink:title="Base abstract class for Enemy and Player to inherit from. Defines all shared variables, their constructor and their setters and getters ">
<polygon fill="none" stroke="black" points="446.5,-398.5 446.5,-576.5 541.5,-576.5 541.5,-398.5 446.5,-398.5"/>
<text text-anchor="middle" x="494" y="-564.5" font-family="Helvetica,sans-Serif" font-size="10.00">Character</text>
<polyline fill="none" stroke="black" points="446.5,-557.5 541.5,-557.5 "/>
<text text-anchor="start" x="454.5" y="-545.5" font-family="Helvetica,sans-Serif" font-size="10.00">+ Name</text>
<text text-anchor="start" x="454.5" y="-534.5" font-family="Helvetica,sans-Serif" font-size="10.00">+ Level</text>
<text text-anchor="start" x="454.5" y="-523.5" font-family="Helvetica,sans-Serif" font-size="10.00">+ Health</text>
<text text-anchor="start" x="454.5" y="-512.5" font-family="Helvetica,sans-Serif" font-size="10.00">+ Attack</text>
<text text-anchor="start" x="454.5" y="-501.5" font-family="Helvetica,sans-Serif" font-size="10.00">+ Defence</text>
<text text-anchor="start" x="454.5" y="-490.5" font-family="Helvetica,sans-Serif" font-size="10.00">+ MaximumMagic</text>
<text text-anchor="start" x="454.5" y="-479.5" font-family="Helvetica,sans-Serif" font-size="10.00">+ Magic</text>
<text text-anchor="start" x="454.5" y="-468.5" font-family="Helvetica,sans-Serif" font-size="10.00">+ Luck</text>
<text text-anchor="start" x="454.5" y="-457.5" font-family="Helvetica,sans-Serif" font-size="10.00">+ Speed</text>
<text text-anchor="start" x="454.5" y="-446.5" font-family="Helvetica,sans-Serif" font-size="10.00">+ Special1</text>
<text text-anchor="start" x="454.5" y="-435.5" font-family="Helvetica,sans-Serif" font-size="10.00">+ Special2</text>
<text text-anchor="start" x="454.5" y="-424.5" font-family="Helvetica,sans-Serif" font-size="10.00">+ Image</text>
<polyline fill="none" stroke="black" points="446.5,-417.5 541.5,-417.5 "/>
<text text-anchor="start" x="454.5" y="-405.5" font-family="Helvetica,sans-Serif" font-size="10.00"># Character()</text>
</a>
</g>
</g>
<!-- Node4&#45;&gt;Node5 -->
<g id="edge4" class="edge"><title>Node4&#45;&gt;Node5</title>
<path fill="none" stroke="#404040" d="M313.626,-991.286C302.297,-925.716 281.411,-757.381 338,-635 359.005,-589.574 401.097,-551.392 436.268,-525.407"/>
<polygon fill="none" stroke="#404040" points="436.716,-525.084 439.248,-518.332 446.455,-518.073 443.923,-524.825 436.716,-525.084"/>
<text text-anchor="middle" x="322.5" y="-792.5" font-family="Helvetica,sans-Serif" font-size="10.00"> #name</text>
</g>
<!-- Node4&#45;&gt;Node7 -->
<g id="edge8" class="edge"><title>Node4&#45;&gt;Node7</title>
<path fill="none" stroke="#404040" d="M339.825,-1008.53C364.745,-994.82 405.65,-968.31 426,-933 465.643,-864.214 463.877,-831.024 441,-755 440.267,-752.564 439.415,-750.135 438.465,-747.724"/>
<polygon fill="none" stroke="#404040" points="438.373,-747.524 432.238,-743.735 433.375,-736.614 439.511,-740.403 438.373,-747.524"/>
<text text-anchor="middle" x="472" y="-890.5" font-family="Helvetica,sans-Serif" font-size="10.00"> #desc</text>
</g>
<!-- Node10 -->
<g id="node9" class="node"><title>Node10</title>
<g id="a_node9"><a xlink:href="class_battle_manager.html" target="_top" xlink:title="Holds current Player and Enemy objects in battle and provides functions for MainBattle and other obje...">
<polygon fill="none" stroke="black" points="600,-0.5 600,-189.5 716,-189.5 716,-0.5 600,-0.5"/>
<text text-anchor="middle" x="658" y="-177.5" font-family="Helvetica,sans-Serif" font-size="10.00">BattleManager</text>
<polyline fill="none" stroke="black" points="600,-170.5 716,-170.5 "/>
<text text-anchor="start" x="608" y="-158.5" font-family="Helvetica,sans-Serif" font-size="10.00">+ Player</text>
<text text-anchor="start" x="608" y="-147.5" font-family="Helvetica,sans-Serif" font-size="10.00">+ Enemy</text>
<text text-anchor="start" x="608" y="-136.5" font-family="Helvetica,sans-Serif" font-size="10.00">+ WasCriticalHit</text>
<polyline fill="none" stroke="black" points="600,-129.5 716,-129.5 "/>
<text text-anchor="start" x="608" y="-117.5" font-family="Helvetica,sans-Serif" font-size="10.00">+ BattleManager()</text>
<text text-anchor="start" x="608" y="-106.5" font-family="Helvetica,sans-Serif" font-size="10.00">+ playerFirst()</text>
<text text-anchor="start" x="608" y="-95.5" font-family="Helvetica,sans-Serif" font-size="10.00">+ switchPlayers()</text>
<text text-anchor="start" x="608" y="-84.5" font-family="Helvetica,sans-Serif" font-size="10.00">+ isCriticalHit()</text>
<text text-anchor="start" x="608" y="-73.5" font-family="Helvetica,sans-Serif" font-size="10.00">+ ranAway()</text>
<text text-anchor="start" x="608" y="-62.5" font-family="Helvetica,sans-Serif" font-size="10.00">+ damageCalculation()</text>
<text text-anchor="start" x="608" y="-51.5" font-family="Helvetica,sans-Serif" font-size="10.00">+ enemyMove()</text>
<text text-anchor="start" x="608" y="-40.5" font-family="Helvetica,sans-Serif" font-size="10.00">+ enemySpecialMove()</text>
<text text-anchor="start" x="608" y="-29.5" font-family="Helvetica,sans-Serif" font-size="10.00">+ battleWon()</text>
<text text-anchor="start" x="608" y="-18.5" font-family="Helvetica,sans-Serif" font-size="10.00">+ playerFainted()</text>
<text text-anchor="start" x="608" y="-7.5" font-family="Helvetica,sans-Serif" font-size="10.00">&#45; characterFainted()</text>
</a>
</g>
</g>
<!-- Node4&#45;&gt;Node10 -->
<g id="edge13" class="edge"><title>Node4&#45;&gt;Node10</title>
<path fill="none" stroke="#404040" d="M298.07,-1015.5C227.101,-1003.06 0,-958.241 0,-894 0,-894 0,-894 0,-298 0,-176.04 418.334,-120.144 587.886,-102.499"/>
<polygon fill="none" stroke="#404040" points="587.958,-102.491 593.519,-97.9014 599.896,-101.27 594.334,-105.86 587.958,-102.491"/>
<text text-anchor="middle" x="42" y="-609" font-family="Helvetica,sans-Serif" font-size="10.00"> +forceEnemyMove</text>
<text text-anchor="middle" x="42" y="-598" font-family="Helvetica,sans-Serif" font-size="10.00">+forceCriticalHits</text>
</g>
<!-- Node14 -->
<g id="node13" class="node"><title>Node14</title>
<g id="a_node13"><a xlink:href="class_item.html" target="_top" xlink:title="Abstract class for items that can be equipped to a player, increasing some of their stats ...">
<polygon fill="none" stroke="black" points="791.5,-755.5 791.5,-834.5 868.5,-834.5 868.5,-755.5 791.5,-755.5"/>
<text text-anchor="middle" x="830" y="-822.5" font-family="Helvetica,sans-Serif" font-size="10.00">Item</text>
<polyline fill="none" stroke="black" points="791.5,-815.5 868.5,-815.5 "/>
<text text-anchor="start" x="799.5" y="-803.5" font-family="Helvetica,sans-Serif" font-size="10.00">+ Name</text>
<text text-anchor="start" x="799.5" y="-792.5" font-family="Helvetica,sans-Serif" font-size="10.00">+ Desc</text>
<polyline fill="none" stroke="black" points="791.5,-785.5 868.5,-785.5 "/>
<text text-anchor="start" x="799.5" y="-773.5" font-family="Helvetica,sans-Serif" font-size="10.00">+ applyBuffs()</text>
<text text-anchor="start" x="799.5" y="-762.5" font-family="Helvetica,sans-Serif" font-size="10.00">+ revertBuffs()</text>
</a>
</g>
</g>
<!-- Node4&#45;&gt;Node14 -->
<g id="edge22" class="edge"><title>Node4&#45;&gt;Node14</title>
<path fill="none" stroke="#404040" d="M339.886,-1017.95C398.265,-1014.24 566.738,-998.197 687,-933 727.774,-910.896 765.284,-874.045 791.648,-844.127"/>
<polygon fill="none" stroke="#404040" points="791.961,-843.765 792.857,-836.61 799.807,-834.685 798.911,-841.84 791.961,-843.765"/>
<text text-anchor="middle" x="663" y="-965" font-family="Helvetica,sans-Serif" font-size="10.00"> #desc</text>
<text text-anchor="middle" x="663" y="-954" font-family="Helvetica,sans-Serif" font-size="10.00">#name</text>
</g>
<!-- Node5&#45;&gt;Node3 -->
<g id="edge3" class="edge"><title>Node5&#45;&gt;Node3</title>
<path fill="none" stroke="#404040" d="M446.208,-502.234C390.31,-521.361 301.529,-562.159 271,-635 242.867,-702.126 241.179,-787.566 243.702,-841.036"/>
<polygon fill="none" stroke="#404040" points="243.715,-841.272 248.04,-847.042 244.378,-853.254 240.052,-847.484 243.715,-841.272"/>
<text text-anchor="middle" x="288" y="-689" font-family="Helvetica,sans-Serif" font-size="10.00"> #target</text>
<text text-anchor="middle" x="288" y="-678" font-family="Helvetica,sans-Serif" font-size="10.00">#user</text>
</g>
<!-- Node11 -->
<g id="node10" class="node"><title>Node11</title>
<g id="a_node10"><a xlink:href="class_enemy.html" target="_top" xlink:title="Defines an AI controller enemy to fight in battle scenes">
<polygon fill="none" stroke="black" points="591.5,-270.5 591.5,-327.5 658.5,-327.5 658.5,-270.5 591.5,-270.5"/>
<text text-anchor="middle" x="625" y="-315.5" font-family="Helvetica,sans-Serif" font-size="10.00">Enemy</text>
<polyline fill="none" stroke="black" points="591.5,-308.5 658.5,-308.5 "/>
<text text-anchor="start" x="599.5" y="-296.5" font-family="Helvetica,sans-Serif" font-size="10.00">+ ExpGiven</text>
<polyline fill="none" stroke="black" points="591.5,-289.5 658.5,-289.5 "/>
<text text-anchor="start" x="599.5" y="-277.5" font-family="Helvetica,sans-Serif" font-size="10.00">+ Enemy()</text>
</a>
</g>
</g>
<!-- Node5&#45;&gt;Node11 -->
<g id="edge15" class="edge"><title>Node5&#45;&gt;Node11</title>
<path fill="none" stroke="midnightblue" d="M547.418,-410.45C567.998,-381.151 590.226,-349.506 605.592,-327.63"/>
<polygon fill="none" stroke="midnightblue" points="544.548,-408.447 541.665,-418.642 550.277,-412.47 544.548,-408.447"/>
</g>
<!-- Node13 -->
<g id="node12" class="node"><title>Node13</title>
<g id="a_node12"><a xlink:href="class_player.html" target="_top" xlink:title="Defines a playable character for use in battle scenes">
<polygon fill="none" stroke="black" points="769,-237.5 769,-360.5 881,-360.5 881,-237.5 769,-237.5"/>
<text text-anchor="middle" x="825" y="-348.5" font-family="Helvetica,sans-Serif" font-size="10.00">Player</text>
<polyline fill="none" stroke="black" points="769,-341.5 881,-341.5 "/>
<text text-anchor="start" x="777" y="-329.5" font-family="Helvetica,sans-Serif" font-size="10.00">+ Exp</text>
<text text-anchor="start" x="777" y="-318.5" font-family="Helvetica,sans-Serif" font-size="10.00">+ Item</text>
<text text-anchor="start" x="777" y="-307.5" font-family="Helvetica,sans-Serif" font-size="10.00">+ ExpToNextLevel</text>
<polyline fill="none" stroke="black" points="769,-300.5 881,-300.5 "/>
<text text-anchor="start" x="777" y="-288.5" font-family="Helvetica,sans-Serif" font-size="10.00">+ Player()</text>
<text text-anchor="start" x="777" y="-277.5" font-family="Helvetica,sans-Serif" font-size="10.00">+ gainExp()</text>
<text text-anchor="start" x="777" y="-266.5" font-family="Helvetica,sans-Serif" font-size="10.00">+ levelUp()</text>
<text text-anchor="start" x="777" y="-255.5" font-family="Helvetica,sans-Serif" font-size="10.00">+ Clone()</text>
<text text-anchor="start" x="777" y="-244.5" font-family="Helvetica,sans-Serif" font-size="10.00">&#45; setExpToNextLevel()</text>
</a>
</g>
</g>
<!-- Node5&#45;&gt;Node13 -->
<g id="edge20" class="edge"><title>Node5&#45;&gt;Node13</title>
<path fill="none" stroke="midnightblue" d="M550.636,-455.264C583.586,-437.579 626.159,-415.555 665,-398 706.29,-379.338 721.671,-385.166 760,-361 763.011,-359.102 766.006,-357.052 768.962,-354.894"/>
<polygon fill="none" stroke="midnightblue" points="548.75,-452.304 541.608,-460.13 552.071,-458.466 548.75,-452.304"/>
</g>
<!-- Node6 -->
<g id="node5" class="node"><title>Node6</title>
<polygon fill="none" stroke="#bfbfbf" points="649.5,-864.5 649.5,-921.5 678.5,-921.5 678.5,-864.5 649.5,-864.5"/>
<text text-anchor="middle" x="664" y="-909.5" font-family="Helvetica,sans-Serif" font-size="10.00">int</text>
<polyline fill="none" stroke="#bfbfbf" points="649.5,-902.5 678.5,-902.5 "/>
<text text-anchor="middle" x="664" y="-890.5" font-family="Helvetica,sans-Serif" font-size="10.00"> </text>
<polyline fill="none" stroke="#bfbfbf" points="649.5,-883.5 678.5,-883.5 "/>
<text text-anchor="middle" x="664" y="-871.5" font-family="Helvetica,sans-Serif" font-size="10.00"> </text>
</g>
<!-- Node6&#45;&gt;Node5 -->
<g id="edge5" class="edge"><title>Node6&#45;&gt;Node5</title>
<path fill="none" stroke="#404040" d="M649.49,-870.511C630.304,-841.333 596.428,-787.065 575,-737 549.104,-676.495 553.659,-657.487 533,-595 532.258,-592.757 531.5,-590.489 530.73,-588.206"/>
<polygon fill="none" stroke="#404040" points="530.671,-588.035 524.942,-583.656 526.781,-576.683 532.51,-581.062 530.671,-588.035"/>
<text text-anchor="middle" x="612.5" y="-722" font-family="Helvetica,sans-Serif" font-size="10.00"> #speed</text>
<text text-anchor="middle" x="612.5" y="-711" font-family="Helvetica,sans-Serif" font-size="10.00">#luck</text>
<text text-anchor="middle" x="612.5" y="-700" font-family="Helvetica,sans-Serif" font-size="10.00">#health</text>
<text text-anchor="middle" x="612.5" y="-689" font-family="Helvetica,sans-Serif" font-size="10.00">#magic</text>
<text text-anchor="middle" x="612.5" y="-678" font-family="Helvetica,sans-Serif" font-size="10.00">#maximumMagic</text>
<text text-anchor="middle" x="612.5" y="-667" font-family="Helvetica,sans-Serif" font-size="10.00">#attack</text>
<text text-anchor="middle" x="612.5" y="-656" font-family="Helvetica,sans-Serif" font-size="10.00">#defence</text>
<text text-anchor="middle" x="612.5" y="-645" font-family="Helvetica,sans-Serif" font-size="10.00">#level</text>
</g>
<!-- Node6&#45;&gt;Node7 -->
<g id="edge10" class="edge"><title>Node6&#45;&gt;Node7</title>
<path fill="none" stroke="#404040" d="M649.271,-889.993C619.914,-885.306 553.383,-871.163 512,-835 481.604,-808.438 493.654,-786.963 469,-755 464.349,-748.97 459.142,-743.005 453.707,-737.261"/>
<polygon fill="none" stroke="#404040" points="453.443,-736.993 446.384,-735.522 445.027,-728.44 452.086,-729.911 453.443,-736.993"/>
<text text-anchor="middle" x="529.5" y="-792.5" font-family="Helvetica,sans-Serif" font-size="10.00"> #magic</text>
</g>
<!-- Node6&#45;&gt;Node10 -->
<g id="edge17" class="edge"><title>Node6&#45;&gt;Node10</title>
<path fill="none" stroke="#404040" d="M673.849,-864.213C676.681,-855.029 679.428,-844.683 681,-835 696.537,-739.314 686.444,-713.926 688,-617 690.919,-435.123 688.613,-389.229 673,-208 672.823,-205.951 672.636,-203.882 672.439,-201.797"/>
<polygon fill="none" stroke="#404040" points="672.427,-201.672 667.842,-196.106 671.217,-189.733 675.801,-195.299 672.427,-201.672"/>
<text text-anchor="middle" x="709.5" y="-485" font-family="Helvetica,sans-Serif" font-size="10.00"> +money</text>
</g>
<!-- Node6&#45;&gt;Node11 -->
<g id="edge16" class="edge"><title>Node6&#45;&gt;Node11</title>
<path fill="none" stroke="#404040" d="M665.743,-864.141C668.008,-816.456 669.616,-716.454 650,-635 647.95,-626.489 644.046,-625.512 642,-617 618.55,-519.444 619.855,-400.328 622.566,-339.651"/>
<polygon fill="none" stroke="#404040" points="622.568,-339.605 618.867,-333.416 623.157,-327.619 626.858,-333.808 622.568,-339.605"/>
<text text-anchor="middle" x="665" y="-603.5" font-family="Helvetica,sans-Serif" font-size="10.00"> &#45;expGiven</text>
</g>
<!-- Node6&#45;&gt;Node13 -->
<g id="edge23" class="edge"><title>Node6&#45;&gt;Node13</title>
<path fill="none" stroke="#404040" d="M674.87,-864.17C677.177,-860.147 679.879,-856.268 683,-853 694.539,-840.918 706.455,-848.711 716,-835 777.587,-746.531 730.082,-700.746 751,-595 766.146,-518.434 788.473,-431.934 804.638,-372.5"/>
<polygon fill="none" stroke="#404040" points="804.723,-372.189 802.447,-365.347 807.887,-360.614 810.164,-367.456 804.723,-372.189"/>
<text text-anchor="middle" x="788.5" y="-609" font-family="Helvetica,sans-Serif" font-size="10.00"> &#45;expToNextLevel</text>
<text text-anchor="middle" x="788.5" y="-598" font-family="Helvetica,sans-Serif" font-size="10.00">&#45;exp</text>
</g>
<!-- Node7&#45;&gt;Node5 -->
<g id="edge6" class="edge"><title>Node7&#45;&gt;Node5</title>
<path fill="none" stroke="#404040" d="M420.73,-635.415C428.032,-620.772 436.297,-604.2 444.578,-587.596"/>
<polygon fill="none" stroke="#404040" points="444.656,-587.439 443.755,-580.284 450.012,-576.7 450.914,-583.855 444.656,-587.439"/>
<text text-anchor="middle" x="462.5" y="-609" font-family="Helvetica,sans-Serif" font-size="10.00"> #special1</text>
<text text-anchor="middle" x="462.5" y="-598" font-family="Helvetica,sans-Serif" font-size="10.00">#special2</text>
</g>
<!-- Node8 -->
<g id="node7" class="node"><title>Node8</title>
<polygon fill="none" stroke="#bfbfbf" points="382.5,-864.5 382.5,-921.5 417.5,-921.5 417.5,-864.5 382.5,-864.5"/>
<text text-anchor="middle" x="400" y="-909.5" font-family="Helvetica,sans-Serif" font-size="10.00">float</text>
<polyline fill="none" stroke="#bfbfbf" points="382.5,-902.5 417.5,-902.5 "/>
<text text-anchor="middle" x="400" y="-890.5" font-family="Helvetica,sans-Serif" font-size="10.00"> </text>
<polyline fill="none" stroke="#bfbfbf" points="382.5,-883.5 417.5,-883.5 "/>
<text text-anchor="middle" x="400" y="-871.5" font-family="Helvetica,sans-Serif" font-size="10.00"> </text>
</g>
<!-- Node8&#45;&gt;Node7 -->
<g id="edge9" class="edge"><title>Node8&#45;&gt;Node7</title>
<path fill="none" stroke="#404040" d="M399.461,-864.353C398.885,-834.866 397.955,-787.208 397.204,-748.718"/>
<polygon fill="none" stroke="#404040" points="397.202,-748.576 393.085,-742.655 396.967,-736.578 401.084,-742.499 397.202,-748.576"/>
<text text-anchor="middle" x="419" y="-792.5" font-family="Helvetica,sans-Serif" font-size="10.00"> #special</text>
</g>
<!-- Node9 -->
<g id="node8" class="node"><title>Node9</title>
<polygon fill="none" stroke="#bfbfbf" points="463.5,-657.5 463.5,-714.5 524.5,-714.5 524.5,-657.5 463.5,-657.5"/>
<text text-anchor="middle" x="494" y="-702.5" font-family="Helvetica,sans-Serif" font-size="10.00">Texture2D</text>
<polyline fill="none" stroke="#bfbfbf" points="463.5,-695.5 524.5,-695.5 "/>
<text text-anchor="middle" x="494" y="-683.5" font-family="Helvetica,sans-Serif" font-size="10.00"> </text>
<polyline fill="none" stroke="#bfbfbf" points="463.5,-676.5 524.5,-676.5 "/>
<text text-anchor="middle" x="494" y="-664.5" font-family="Helvetica,sans-Serif" font-size="10.00"> </text>
</g>
<!-- Node9&#45;&gt;Node5 -->
<g id="edge11" class="edge"><title>Node9&#45;&gt;Node5</title>
<path fill="none" stroke="#404040" d="M494,-657.263C494,-638.998 494,-613.86 494,-588.562"/>
<polygon fill="none" stroke="#404040" points="494,-588.557 490,-582.557 494,-576.557 498,-582.557 494,-588.557"/>
<text text-anchor="middle" x="511.5" y="-603.5" font-family="Helvetica,sans-Serif" font-size="10.00"> #image</text>
</g>
<!-- Node10&#45;&gt;Node3 -->
<g id="edge12" class="edge"><title>Node10&#45;&gt;Node3</title>
<path fill="none" stroke="#404040" d="M599.759,-104.344C456.585,-126.485 99,-192.359 99,-298 99,-687 99,-687 99,-687 99,-754.634 152.724,-814.959 195.653,-852.367"/>
<polygon fill="none" stroke="#404040" points="195.758,-852.456 202.92,-853.292 204.903,-860.225 197.741,-859.389 195.758,-852.456"/>
<text text-anchor="middle" x="122" y="-485" font-family="Helvetica,sans-Serif" font-size="10.00"> #manager</text>
</g>
<!-- Node11&#45;&gt;Node10 -->
<g id="edge14" class="edge"><title>Node11&#45;&gt;Node10</title>
<path fill="none" stroke="#404040" d="M628.3,-270.372C630.526,-252.538 633.657,-228.857 637,-208 637.328,-205.952 637.665,-203.884 638.009,-201.801"/>
<polygon fill="none" stroke="#404040" points="638.047,-201.573 635.103,-194.991 640.046,-189.741 642.991,-196.324 638.047,-201.573"/>
<text text-anchor="middle" x="655" y="-211" font-family="Helvetica,sans-Serif" font-size="10.00"> &#45;enemy</text>
</g>
<!-- Node12 -->
<g id="node11" class="node"><title>Node12</title>
<polygon fill="none" stroke="#bfbfbf" points="715.5,-270.5 715.5,-327.5 750.5,-327.5 750.5,-270.5 715.5,-270.5"/>
<text text-anchor="middle" x="733" y="-315.5" font-family="Helvetica,sans-Serif" font-size="10.00">bool</text>
<polyline fill="none" stroke="#bfbfbf" points="715.5,-308.5 750.5,-308.5 "/>
<text text-anchor="middle" x="733" y="-296.5" font-family="Helvetica,sans-Serif" font-size="10.00"> </text>
<polyline fill="none" stroke="#bfbfbf" points="715.5,-289.5 750.5,-289.5 "/>
<text text-anchor="middle" x="733" y="-277.5" font-family="Helvetica,sans-Serif" font-size="10.00"> </text>
</g>
<!-- Node12&#45;&gt;Node10 -->
<g id="edge18" class="edge"><title>Node12&#45;&gt;Node10</title>
<path fill="none" stroke="#404040" d="M723.374,-270.363C717.112,-252.525 708.705,-228.843 701,-208 700.174,-205.766 699.336,-203.507 698.489,-201.232"/>
<polygon fill="none" stroke="#404040" points="698.394,-200.978 692.544,-196.761 694.187,-189.74 700.037,-193.957 698.394,-200.978"/>
<text text-anchor="middle" x="738" y="-211" font-family="Helvetica,sans-Serif" font-size="10.00"> &#45;wasCriticalHit</text>
</g>
<!-- Node13&#45;&gt;Node10 -->
<g id="edge19" class="edge"><title>Node13&#45;&gt;Node10</title>
<path fill="none" stroke="#404040" d="M794.605,-237.346C788.607,-227.211 781.988,-217.057 775,-208 760.373,-189.042 742.53,-170.303 725.231,-153.736"/>
<polygon fill="none" stroke="#404040" points="724.989,-153.509 717.879,-152.307 716.253,-145.281 723.364,-146.483 724.989,-153.509"/>
<text text-anchor="middle" x="797.5" y="-211" font-family="Helvetica,sans-Serif" font-size="10.00"> &#45;player</text>
</g>
<!-- Node14&#45;&gt;Node13 -->
<g id="edge21" class="edge"><title>Node14&#45;&gt;Node13</title>
<path fill="none" stroke="#404040" d="M830.193,-755.478C830.349,-715.39 830.473,-650.794 830,-595 829.359,-519.326 827.792,-432.744 826.582,-373.049"/>
<polygon fill="none" stroke="#404040" points="826.576,-372.729 822.454,-366.813 826.33,-360.732 830.452,-366.649 826.576,-372.729"/>
<text text-anchor="middle" x="842.5" y="-603.5" font-family="Helvetica,sans-Serif" font-size="10.00"> &#45;item</text>
</g>
</g>
</svg>
        <g id="navigator" transform="translate(0 0)" fill="#404254">
                <rect fill="#f2f5e9" fill-opacity="0.5" stroke="#606060" stroke-width=".5" x="0" y="0" width="60" height="60"/>
                <use id="zoomplus" xlink:href="#zoomPlus" x="17" y="9" onmousedown="handleZoom(evt,'in')"/>
                <use id="zoomminus" xlink:href="#zoomMin" x="42" y="9" onmousedown="handleZoom(evt,'out')"/>
                <use id="reset" xlink:href="#resetDef" x="30" y="36" onmousedown="handleReset()"/>
                <g id="arrowUp" xlink:href="#dirArrow" transform="translate(30 24)" onmousedown="handlePan(0,-1)">
                  <use xlink:href="#rim" fill="#404040">
                        <set attributeName="fill" to="#808080" begin="arrowUp.mouseover" end="arrowUp.mouseout"/>
                  </use>
                  <path fill="none" stroke="white" stroke-width="1.5" d="M0,-3.0v7 M-2.5,-0.5L0,-3.0L2.5,-0.5"/>
                </g>
                <g id="arrowRight" xlink:href="#dirArrow" transform="rotate(90) translate(36 -43)" onmousedown="handlePan(1,0)">
                  <use xlink:href="#rim" fill="#404040">
                        <set attributeName="fill" to="#808080" begin="arrowRight.mouseover" end="arrowRight.mouseout"/>
                  </use>
                  <path fill="none" stroke="white" stroke-width="1.5" d="M0,-3.0v7 M-2.5,-0.5L0,-3.0L2.5,-0.5"/>
                </g>
                <g id="arrowDown" xlink:href="#dirArrow" transform="rotate(180) translate(-30 -48)" onmousedown="handlePan(0,1)">
                  <use xlink:href="#rim" fill="#404040">
                        <set attributeName="fill" to="#808080" begin="arrowDown.mouseover" end="arrowDown.mouseout"/>
                  </use>
                  <path fill="none" stroke="white" stroke-width="1.5" d="M0,-3.0v7 M-2.5,-0.5L0,-3.0L2.5,-0.5"/>
                </g>
                <g id="arrowLeft" xlink:href="#dirArrow" transform="rotate(270) translate(-36 17)" onmousedown="handlePan(-1,0)">
                  <use xlink:href="#rim" fill="#404040">
                        <set attributeName="fill" to="#808080" begin="arrowLeft.mouseover" end="arrowLeft.mouseout"/>
                  </use>
                  <path fill="none" stroke="white" stroke-width="1.5" d="M0,-3.0v7 M-2.5,-0.5L0,-3.0L2.5,-0.5"/>
                </g>
        </g>
        <svg viewBox="0 0 15 15" width="100%" height="30px" preserveAspectRatio="xMaxYMin meet">
         <g id="arrow_out" transform="scale(0.3 0.3)">
          <a xlink:href="class_switch_players__coll__graph_org.svg" target="_base">
           <rect id="button" ry="5" rx="5" y="6" x="6" height="38" width="38"
                fill="#f2f5e9" fill-opacity="0.5" stroke="#606060" stroke-width="1.0"/>
           <path id="arrow"
             d="M 11.500037,31.436501 C 11.940474,20.09759 22.043105,11.32322 32.158766,21.979434 L 37.068811,17.246167 C 37.068811,17.246167 37.088388,32 37.088388,32 L 22.160133,31.978069 C 22.160133,31.978069 26.997745,27.140456 26.997745,27.140456 C 18.528582,18.264221 13.291696,25.230495 11.500037,31.436501 z"
             style="fill:#404040;"/>
          </a>
         </g>
        </svg>
</svg>
