<?xml version="1.0" encoding="UTF-8" standalone="no"?>
<!DOCTYPE svg PUBLIC "-//W3C//DTD SVG 1.1//EN"
 "http://www.w3.org/Graphics/SVG/1.1/DTD/svg11.dtd">
<!-- Generated by graphviz version 2.38.0 (20140413.2041)
 -->
<!-- Title: QManagerObj Pages: 1 -->
<svg width="352pt" height="607pt"
 viewBox="0.00 0.00 351.50 607.00" xmlns="http://www.w3.org/2000/svg" xmlns:xlink="http://www.w3.org/1999/xlink">
<g id="graph0" class="graph" transform="scale(1 1) rotate(0) translate(4 603)">
<title>QManagerObj</title>
<!-- Node2 -->
<g id="node1" class="node"><title>Node2</title>
<polygon fill="#bfbfbf" stroke="black" points="39,-0.5 39,-57.5 116,-57.5 116,-0.5 39,-0.5"/>
<text text-anchor="middle" x="77.5" y="-45.5" font-family="Helvetica,sans-Serif" font-size="10.00">QManagerObj</text>
<polyline fill="none" stroke="black" points="39,-38.5 116,-38.5 "/>
<text text-anchor="middle" x="77.5" y="-26.5" font-family="Helvetica,sans-Serif" font-size="10.00"> </text>
<polyline fill="none" stroke="black" points="39,-19.5 116,-19.5 "/>
<text text-anchor="start" x="47" y="-7.5" font-family="Helvetica,sans-Serif" font-size="10.00">&#45; Start()</text>
</g>
<!-- Node3 -->
<g id="node2" class="node"><title>Node3</title>
<g id="a_node2"><a xlink:href="class_mono_behaviour.html" target="_top" xlink:title="{MonoBehaviour\n||}">
<polygon fill="none" stroke="black" points="0,-127.5 0,-184.5 83,-184.5 83,-127.5 0,-127.5"/>
<text text-anchor="middle" x="41.5" y="-172.5" font-family="Helvetica,sans-Serif" font-size="10.00">MonoBehaviour</text>
<polyline fill="none" stroke="black" points="0,-165.5 83,-165.5 "/>
<text text-anchor="middle" x="41.5" y="-153.5" font-family="Helvetica,sans-Serif" font-size="10.00"> </text>
<polyline fill="none" stroke="black" points="0,-146.5 83,-146.5 "/>
<text text-anchor="middle" x="41.5" y="-134.5" font-family="Helvetica,sans-Serif" font-size="10.00"> </text>
</a>
</g>
</g>
<!-- Node3&#45;&gt;Node2 -->
<g id="edge1" class="edge"><title>Node3&#45;&gt;Node2</title>
<path fill="none" stroke="midnightblue" d="M52.2743,-117.589C57.8176,-98.3417 64.4571,-75.2879 69.5328,-57.664"/>
<polygon fill="none" stroke="midnightblue" points="48.8939,-116.68 49.4896,-127.258 55.6204,-118.618 48.8939,-116.68"/>
</g>
<!-- Node4 -->
<g id="node3" class="node"><title>Node4</title>
<g id="a_node3"><a xlink:href="class_quest_manager.html" target="_top" xlink:title="A class to manage the tracking and completion of quests ">
<polygon fill="none" stroke="black" points="101.5,-105.5 101.5,-206.5 207.5,-206.5 207.5,-105.5 101.5,-105.5"/>
<text text-anchor="middle" x="154.5" y="-194.5" font-family="Helvetica,sans-Serif" font-size="10.00">QuestManager</text>
<polyline fill="none" stroke="black" points="101.5,-187.5 207.5,-187.5 "/>
<text text-anchor="middle" x="154.5" y="-175.5" font-family="Helvetica,sans-Serif" font-size="10.00"> </text>
<polyline fill="none" stroke="black" points="101.5,-168.5 207.5,-168.5 "/>
<text text-anchor="start" x="109.5" y="-156.5" font-family="Helvetica,sans-Serif" font-size="10.00">+ QuestManager()</text>
<text text-anchor="start" x="109.5" y="-145.5" font-family="Helvetica,sans-Serif" font-size="10.00">+ logQuestVariable()</text>
<text text-anchor="start" x="109.5" y="-134.5" font-family="Helvetica,sans-Serif" font-size="10.00">&#45; startQuest()</text>
<text text-anchor="start" x="109.5" y="-123.5" font-family="Helvetica,sans-Serif" font-size="10.00">&#45; questDefVal()</text>
<text text-anchor="start" x="109.5" y="-112.5" font-family="Helvetica,sans-Serif" font-size="10.00">&#45; startNewQuest()</text>
</a>
</g>
</g>
<!-- Node4&#45;&gt;Node2 -->
<g id="edge2" class="edge"><title>Node4&#45;&gt;Node2</title>
<path fill="none" stroke="#404040" d="M123.846,-105.238C116.204,-92.8315 108.131,-79.7263 100.902,-67.9909"/>
<polygon fill="none" stroke="#404040" points="100.831,-67.8751 94.2785,-64.8644 94.5373,-57.6579 101.09,-60.6686 100.831,-67.8751"/>
<text text-anchor="middle" x="135" y="-79" font-family="Helvetica,sans-Serif" font-size="10.00"> +manager</text>
</g>
<!-- Node5 -->
<g id="node4" class="node"><title>Node5</title>
<polygon fill="none" stroke="#bfbfbf" points="3,-265.5 3,-333.5 118,-333.5 118,-265.5 3,-265.5"/>
<text text-anchor="start" x="11" y="-321.5" font-family="Helvetica,sans-Serif" font-size="10.00">IDictionary&lt; QuestDef,</text>
<text text-anchor="middle" x="60.5" y="-310.5" font-family="Helvetica,sans-Serif" font-size="10.00"> bool &gt;</text>
<polyline fill="none" stroke="#bfbfbf" points="3,-303.5 118,-303.5 "/>
<text text-anchor="middle" x="60.5" y="-291.5" font-family="Helvetica,sans-Serif" font-size="10.00"> </text>
<polyline fill="none" stroke="#bfbfbf" points="3,-284.5 118,-284.5 "/>
<text text-anchor="middle" x="60.5" y="-272.5" font-family="Helvetica,sans-Serif" font-size="10.00"> </text>
</g>
<!-- Node5&#45;&gt;Node4 -->
<g id="edge3" class="edge"><title>Node5&#45;&gt;Node4</title>
<path fill="none" stroke="#404040" d="M68.8186,-265.236C72.9641,-252.1 78.7739,-237.25 86.5,-225 88.7044,-221.505 91.1181,-218.05 93.6802,-214.66"/>
<polygon fill="none" stroke="#404040" points="93.7009,-214.635 94.3601,-207.454 101.242,-205.3 100.583,-212.481 93.7009,-214.635"/>
<text text-anchor="middle" x="113.5" y="-228" font-family="Helvetica,sans-Serif" font-size="10.00"> +conditions</text>
</g>
<!-- Node6 -->
<g id="node5" class="node"><title>Node6</title>
<polygon fill="none" stroke="#bfbfbf" points="153,-420 153,-477 182,-477 182,-420 153,-420"/>
<text text-anchor="middle" x="167.5" y="-465" font-family="Helvetica,sans-Serif" font-size="10.00">int</text>
<polyline fill="none" stroke="#bfbfbf" points="153,-458 182,-458 "/>
<text text-anchor="middle" x="167.5" y="-446" font-family="Helvetica,sans-Serif" font-size="10.00"> </text>
<polyline fill="none" stroke="#bfbfbf" points="153,-439 182,-439 "/>
<text text-anchor="middle" x="167.5" y="-427" font-family="Helvetica,sans-Serif" font-size="10.00"> </text>
</g>
<!-- Node6&#45;&gt;Node4 -->
<g id="edge4" class="edge"><title>Node6&#45;&gt;Node4</title>
<path fill="none" stroke="#404040" d="M166.265,-419.909C164.209,-373.968 160.036,-280.712 157.254,-218.533"/>
<polygon fill="none" stroke="#404040" points="157.253,-218.523 152.989,-212.708 156.717,-206.535 160.981,-212.35 157.253,-218.523"/>
<text text-anchor="middle" x="186" y="-297" font-family="Helvetica,sans-Serif" font-size="10.00"> &#45;startTime</text>
</g>
<!-- Node7 -->
<g id="node6" class="node"><title>Node7</title>
<g id="a_node6"><a xlink:href="class_quest.html" target="_top" xlink:title="A class to store a whole quest, being a sequence of 3 QuestDefs Also stores a name of the quest...">
<polygon fill="none" stroke="black" points="219.5,-254.5 219.5,-344.5 321.5,-344.5 321.5,-254.5 219.5,-254.5"/>
<text text-anchor="middle" x="270.5" y="-332.5" font-family="Helvetica,sans-Serif" font-size="10.00">Quest</text>
<polyline fill="none" stroke="black" points="219.5,-325.5 321.5,-325.5 "/>
<text text-anchor="start" x="227.5" y="-313.5" font-family="Helvetica,sans-Serif" font-size="10.00">+ Main</text>
<text text-anchor="start" x="227.5" y="-302.5" font-family="Helvetica,sans-Serif" font-size="10.00">+ Side</text>
<text text-anchor="start" x="227.5" y="-291.5" font-family="Helvetica,sans-Serif" font-size="10.00">+ Cond</text>
<polyline fill="none" stroke="black" points="219.5,-284.5 321.5,-284.5 "/>
<text text-anchor="start" x="227.5" y="-272.5" font-family="Helvetica,sans-Serif" font-size="10.00">+ Quest()</text>
<text text-anchor="start" x="227.5" y="-261.5" font-family="Helvetica,sans-Serif" font-size="10.00">+ questCompleted()</text>
</a>
</g>
</g>
<!-- Node6&#45;&gt;Node7 -->
<g id="edge9" class="edge"><title>Node6&#45;&gt;Node7</title>
<path fill="none" stroke="#404040" d="M178.115,-419.978C185.383,-402.81 195.96,-380.694 208.5,-363 210.64,-359.98 212.931,-356.972 215.323,-354.001"/>
<polygon fill="none" stroke="#404040" points="215.484,-353.811 216.322,-346.649 223.255,-344.667 222.418,-351.829 215.484,-353.811"/>
<text text-anchor="middle" x="228" y="-382.5" font-family="Helvetica,sans-Serif" font-size="10.00"> +money</text>
<text text-anchor="middle" x="228" y="-371.5" font-family="Helvetica,sans-Serif" font-size="10.00">+exp</text>
</g>
<!-- Node7&#45;&gt;Node4 -->
<g id="edge5" class="edge"><title>Node7&#45;&gt;Node4</title>
<path fill="none" stroke="#404040" d="M234.115,-254.117C224.267,-242.104 213.449,-228.907 203.047,-216.219"/>
<polygon fill="none" stroke="#404040" points="202.805,-215.924 195.908,-213.82 195.197,-206.644 202.095,-208.748 202.805,-215.924"/>
<text text-anchor="middle" x="250.5" y="-228" font-family="Helvetica,sans-Serif" font-size="10.00"> &#45;chosenQuests</text>
</g>
<!-- Node8 -->
<g id="node7" class="node"><title>Node8</title>
<g id="a_node7"><a xlink:href="class_quest_def.html" target="_top" xlink:title="Class defining one quest condition (part of a sequence of 3 in Quest) ">
<polygon fill="none" stroke="black" points="206.5,-414.5 206.5,-482.5 278.5,-482.5 278.5,-414.5 206.5,-414.5"/>
<text text-anchor="middle" x="242.5" y="-470.5" font-family="Helvetica,sans-Serif" font-size="10.00">QuestDef</text>
<polyline fill="none" stroke="black" points="206.5,-463.5 278.5,-463.5 "/>
<text text-anchor="start" x="214.5" y="-451.5" font-family="Helvetica,sans-Serif" font-size="10.00">+ Type</text>
<text text-anchor="start" x="214.5" y="-440.5" font-family="Helvetica,sans-Serif" font-size="10.00">+ Data</text>
<polyline fill="none" stroke="black" points="206.5,-433.5 278.5,-433.5 "/>
<text text-anchor="start" x="214.5" y="-421.5" font-family="Helvetica,sans-Serif" font-size="10.00">+ QuestDef()</text>
</a>
</g>
</g>
<!-- Node8&#45;&gt;Node7 -->
<g id="edge6" class="edge"><title>Node8&#45;&gt;Node7</title>
<path fill="none" stroke="#404040" d="M248.854,-414.143C252.101,-397.097 256.139,-375.895 259.845,-356.437"/>
<polygon fill="none" stroke="#404040" points="259.855,-356.388 257.048,-349.746 262.1,-344.6 264.907,-351.243 259.855,-356.388"/>
<text text-anchor="middle" x="270" y="-388" font-family="Helvetica,sans-Serif" font-size="10.00"> &#45;side</text>
<text text-anchor="middle" x="270" y="-377" font-family="Helvetica,sans-Serif" font-size="10.00">&#45;main</text>
<text text-anchor="middle" x="270" y="-366" font-family="Helvetica,sans-Serif" font-size="10.00">&#45;cond</text>
</g>
<!-- Node9 -->
<g id="node8" class="node"><title>Node9</title>
<polygon fill="none" stroke="#bfbfbf" points="173.5,-530.5 173.5,-598.5 311.5,-598.5 311.5,-530.5 173.5,-530.5"/>
<text text-anchor="start" x="181.5" y="-586.5" font-family="Helvetica,sans-Serif" font-size="10.00">KeyValuePair&lt; questTypes,</text>
<text text-anchor="middle" x="242.5" y="-575.5" font-family="Helvetica,sans-Serif" font-size="10.00"> string &gt;</text>
<polyline fill="none" stroke="#bfbfbf" points="173.5,-568.5 311.5,-568.5 "/>
<text text-anchor="middle" x="242.5" y="-556.5" font-family="Helvetica,sans-Serif" font-size="10.00"> </text>
<polyline fill="none" stroke="#bfbfbf" points="173.5,-549.5 311.5,-549.5 "/>
<text text-anchor="middle" x="242.5" y="-537.5" font-family="Helvetica,sans-Serif" font-size="10.00"> </text>
</g>
<!-- Node9&#45;&gt;Node8 -->
<g id="edge7" class="edge"><title>Node9&#45;&gt;Node8</title>
<path fill="none" stroke="#404040" d="M242.5,-530.22C242.5,-519.099 242.5,-506.512 242.5,-494.642"/>
<polygon fill="none" stroke="#404040" points="242.5,-494.624 238.5,-488.624 242.5,-482.624 246.5,-488.624 242.5,-494.624"/>
<text text-anchor="middle" x="253.5" y="-504" font-family="Helvetica,sans-Serif" font-size="10.00"> &#45;pair</text>
</g>
<!-- Node10 -->
<g id="node9" class="node"><title>Node10</title>
<polygon fill="none" stroke="#bfbfbf" points="297,-420 297,-477 338,-477 338,-420 297,-420"/>
<text text-anchor="middle" x="317.5" y="-465" font-family="Helvetica,sans-Serif" font-size="10.00">string</text>
<polyline fill="none" stroke="#bfbfbf" points="297,-458 338,-458 "/>
<text text-anchor="middle" x="317.5" y="-446" font-family="Helvetica,sans-Serif" font-size="10.00"> </text>
<polyline fill="none" stroke="#bfbfbf" points="297,-439 338,-439 "/>
<text text-anchor="middle" x="317.5" y="-427" font-family="Helvetica,sans-Serif" font-size="10.00"> </text>
</g>
<!-- Node10&#45;&gt;Node7 -->
<g id="edge8" class="edge"><title>Node10&#45;&gt;Node7</title>
<path fill="none" stroke="#404040" d="M308.66,-419.85C302.934,-401.944 295.276,-377.992 288.323,-356.246"/>
<polygon fill="none" stroke="#404040" points="288.313,-356.212 282.676,-351.716 284.658,-344.782 290.296,-349.279 288.313,-356.212"/>
<text text-anchor="middle" x="322" y="-382.5" font-family="Helvetica,sans-Serif" font-size="10.00"> +location</text>
<text text-anchor="middle" x="322" y="-371.5" font-family="Helvetica,sans-Serif" font-size="10.00">+title</text>
</g>
</g>
</svg>
