<?xml version="1.0" encoding="UTF-8" standalone="no"?>
<!DOCTYPE svg PUBLIC "-//W3C//DTD SVG 1.1//EN"
 "http://www.w3.org/Graphics/SVG/1.1/DTD/svg11.dtd">
<!-- Generated by graphviz version 2.38.0 (20140413.2041)
 -->
<!-- Title: ItemsMenuScript Pages: 1 -->
<svg width="1120pt" height="1462pt"
 viewBox="0.00 0.00 1119.50 1462.00" xmlns="http://www.w3.org/2000/svg" xmlns:xlink="http://www.w3.org/1999/xlink">
<g id="graph0" class="graph" transform="scale(1 1) rotate(0) translate(4 1458)">
<title>ItemsMenuScript</title>
<!-- Node2 -->
<g id="node1" class="node"><title>Node2</title>
<polygon fill="#bfbfbf" stroke="black" points="284,-481.5 284,-571.5 375,-571.5 375,-481.5 284,-481.5"/>
<text text-anchor="middle" x="329.5" y="-559.5" font-family="Helvetica,sans-Serif" font-size="10.00">ItemsMenuScript</text>
<polyline fill="none" stroke="black" points="284,-552.5 375,-552.5 "/>
<text text-anchor="middle" x="329.5" y="-540.5" font-family="Helvetica,sans-Serif" font-size="10.00"> </text>
<polyline fill="none" stroke="black" points="284,-533.5 375,-533.5 "/>
<text text-anchor="start" x="292" y="-521.5" font-family="Helvetica,sans-Serif" font-size="10.00">+ OnItemPlace()</text>
<text text-anchor="start" x="292" y="-510.5" font-family="Helvetica,sans-Serif" font-size="10.00">+ back()</text>
<text text-anchor="start" x="292" y="-499.5" font-family="Helvetica,sans-Serif" font-size="10.00">&#45; Start()</text>
<text text-anchor="start" x="292" y="-488.5" font-family="Helvetica,sans-Serif" font-size="10.00">&#45; createItemCell()</text>
</g>
<!-- Node3 -->
<g id="node2" class="node"><title>Node3</title>
<g id="a_node2"><a xlink:href="class_mono_behaviour.html" target="_top" xlink:title="{MonoBehaviour\n||}">
<polygon fill="none" stroke="black" points="67,-839.5 67,-896.5 150,-896.5 150,-839.5 67,-839.5"/>
<text text-anchor="middle" x="108.5" y="-884.5" font-family="Helvetica,sans-Serif" font-size="10.00">MonoBehaviour</text>
<polyline fill="none" stroke="black" points="67,-877.5 150,-877.5 "/>
<text text-anchor="middle" x="108.5" y="-865.5" font-family="Helvetica,sans-Serif" font-size="10.00"> </text>
<polyline fill="none" stroke="black" points="67,-858.5 150,-858.5 "/>
<text text-anchor="middle" x="108.5" y="-846.5" font-family="Helvetica,sans-Serif" font-size="10.00"> </text>
</a>
</g>
</g>
<!-- Node3&#45;&gt;Node2 -->
<g id="edge1" class="edge"><title>Node3&#45;&gt;Node2</title>
<path fill="none" stroke="midnightblue" d="M114.207,-829.094C120.904,-792.904 134.427,-737.843 159.5,-696 191.859,-641.997 245.456,-592.899 283.821,-561.813"/>
<polygon fill="none" stroke="midnightblue" points="110.71,-828.772 112.42,-839.228 117.604,-829.988 110.71,-828.772"/>
</g>
<!-- Node4 -->
<g id="node3" class="node"><title>Node4</title>
<g id="a_node3"><a xlink:href="class_item.html" target="_top" xlink:title="Abstract class for items that can be equipped to a player, increasing some of their stats ...">
<polygon fill="none" stroke="black" points="0,-1258.5 0,-1337.5 77,-1337.5 77,-1258.5 0,-1258.5"/>
<text text-anchor="middle" x="38.5" y="-1325.5" font-family="Helvetica,sans-Serif" font-size="10.00">Item</text>
<polyline fill="none" stroke="black" points="0,-1318.5 77,-1318.5 "/>
<text text-anchor="start" x="8" y="-1306.5" font-family="Helvetica,sans-Serif" font-size="10.00">+ Name</text>
<text text-anchor="start" x="8" y="-1295.5" font-family="Helvetica,sans-Serif" font-size="10.00">+ Desc</text>
<polyline fill="none" stroke="black" points="0,-1288.5 77,-1288.5 "/>
<text text-anchor="start" x="8" y="-1276.5" font-family="Helvetica,sans-Serif" font-size="10.00">+ applyBuffs()</text>
<text text-anchor="start" x="8" y="-1265.5" font-family="Helvetica,sans-Serif" font-size="10.00">+ revertBuffs()</text>
</a>
</g>
</g>
<!-- Node4&#45;&gt;Node2 -->
<g id="edge2" class="edge"><title>Node4&#45;&gt;Node2</title>
<path fill="none" stroke="#404040" d="M29.9501,-1258.16C10.1398,-1159.06 -30.786,-890.945 57.5,-696 96.6293,-609.598 204.566,-563.494 272.115,-542.368"/>
<polygon fill="none" stroke="#404040" points="272.335,-542.302 276.921,-536.737 283.822,-538.83 279.236,-544.395 272.335,-542.302"/>
<text text-anchor="middle" x="21" y="-1061" font-family="Helvetica,sans-Serif" font-size="10.00"> &#45;items</text>
</g>
<!-- Node8 -->
<g id="node7" class="node"><title>Node8</title>
<g id="a_node7"><a xlink:href="class_player.html" target="_top" xlink:title="Defines a playable character for use in battle scenes">
<polygon fill="none" stroke="black" points="514.5,-1087.5 514.5,-1199.5 626.5,-1199.5 626.5,-1087.5 514.5,-1087.5"/>
<text text-anchor="middle" x="570.5" y="-1187.5" font-family="Helvetica,sans-Serif" font-size="10.00">Player</text>
<polyline fill="none" stroke="black" points="514.5,-1180.5 626.5,-1180.5 "/>
<text text-anchor="start" x="522.5" y="-1168.5" font-family="Helvetica,sans-Serif" font-size="10.00">+ Exp</text>
<text text-anchor="start" x="522.5" y="-1157.5" font-family="Helvetica,sans-Serif" font-size="10.00">+ Item</text>
<text text-anchor="start" x="522.5" y="-1146.5" font-family="Helvetica,sans-Serif" font-size="10.00">+ ExpToNextLevel</text>
<polyline fill="none" stroke="black" points="514.5,-1139.5 626.5,-1139.5 "/>
<text text-anchor="start" x="522.5" y="-1127.5" font-family="Helvetica,sans-Serif" font-size="10.00">+ Player()</text>
<text text-anchor="start" x="522.5" y="-1116.5" font-family="Helvetica,sans-Serif" font-size="10.00">+ gainExp()</text>
<text text-anchor="start" x="522.5" y="-1105.5" font-family="Helvetica,sans-Serif" font-size="10.00">+ levelUp()</text>
<text text-anchor="start" x="522.5" y="-1094.5" font-family="Helvetica,sans-Serif" font-size="10.00">&#45; setExpToNextLevel()</text>
</a>
</g>
</g>
<!-- Node4&#45;&gt;Node8 -->
<g id="edge26" class="edge"><title>Node4&#45;&gt;Node8</title>
<path fill="none" stroke="#404040" d="M77.2427,-1286.92C142.64,-1269.79 279.006,-1233.58 393.5,-1200 429.692,-1189.39 469.815,-1176.87 502.697,-1166.41"/>
<polygon fill="none" stroke="#404040" points="503.03,-1166.3 507.531,-1160.67 514.463,-1162.66 509.962,-1168.29 503.03,-1166.3"/>
<text text-anchor="middle" x="339" y="-1226.5" font-family="Helvetica,sans-Serif" font-size="10.00"> &#45;item</text>
</g>
<!-- Node18 -->
<g id="node17" class="node"><title>Node18</title>
<g id="a_node17"><a xlink:href="class_data_manager.html" target="_top" xlink:title="An object to store all player data including players, items and money and provide useful functions ...">
<polygon fill="none" stroke="black" points="168.5,-696.5 168.5,-1039.5 320.5,-1039.5 320.5,-696.5 168.5,-696.5"/>
<text text-anchor="middle" x="244.5" y="-1027.5" font-family="Helvetica,sans-Serif" font-size="10.00">DataManager</text>
<polyline fill="none" stroke="black" points="168.5,-1020.5 320.5,-1020.5 "/>
<text text-anchor="start" x="176.5" y="-1008.5" font-family="Helvetica,sans-Serif" font-size="10.00">+ Players</text>
<text text-anchor="start" x="176.5" y="-997.5" font-family="Helvetica,sans-Serif" font-size="10.00">+ Items</text>
<text text-anchor="start" x="176.5" y="-986.5" font-family="Helvetica,sans-Serif" font-size="10.00">+ Money</text>
<polyline fill="none" stroke="black" points="168.5,-979.5 320.5,-979.5 "/>
<text text-anchor="start" x="176.5" y="-967.5" font-family="Helvetica,sans-Serif" font-size="10.00">+ DataManager()</text>
<text text-anchor="start" x="176.5" y="-956.5" font-family="Helvetica,sans-Serif" font-size="10.00">+ DataManager()</text>
<text text-anchor="start" x="176.5" y="-945.5" font-family="Helvetica,sans-Serif" font-size="10.00">+ getFirstPlayer()</text>
<text text-anchor="start" x="176.5" y="-934.5" font-family="Helvetica,sans-Serif" font-size="10.00">+ getPlayerIndex()</text>
<text text-anchor="start" x="176.5" y="-923.5" font-family="Helvetica,sans-Serif" font-size="10.00">+ getAlivePlayer()</text>
<text text-anchor="start" x="176.5" y="-912.5" font-family="Helvetica,sans-Serif" font-size="10.00">+ playersAlive()</text>
<text text-anchor="start" x="176.5" y="-901.5" font-family="Helvetica,sans-Serif" font-size="10.00">+ addPlayer()</text>
<text text-anchor="start" x="176.5" y="-890.5" font-family="Helvetica,sans-Serif" font-size="10.00">+ swapPlayers()</text>
<text text-anchor="start" x="176.5" y="-879.5" font-family="Helvetica,sans-Serif" font-size="10.00">+ addItem()</text>
<text text-anchor="start" x="176.5" y="-868.5" font-family="Helvetica,sans-Serif" font-size="10.00">+ countItems()</text>
<text text-anchor="start" x="176.5" y="-857.5" font-family="Helvetica,sans-Serif" font-size="10.00">+ giveExpToAll()</text>
<text text-anchor="start" x="176.5" y="-846.5" font-family="Helvetica,sans-Serif" font-size="10.00">+ Save()</text>
<text text-anchor="start" x="176.5" y="-835.5" font-family="Helvetica,sans-Serif" font-size="10.00">+ Load()</text>
<text text-anchor="start" x="176.5" y="-824.5" font-family="Helvetica,sans-Serif" font-size="10.00">+ PlayerToSerializable()</text>
<text text-anchor="start" x="176.5" y="-813.5" font-family="Helvetica,sans-Serif" font-size="10.00">+ SerializableToPLayer()</text>
<text text-anchor="start" x="176.5" y="-802.5" font-family="Helvetica,sans-Serif" font-size="10.00">+ ItemToSerializable()</text>
<text text-anchor="start" x="176.5" y="-791.5" font-family="Helvetica,sans-Serif" font-size="10.00">+ SerializableToItem()</text>
<text text-anchor="start" x="176.5" y="-780.5" font-family="Helvetica,sans-Serif" font-size="10.00">+ SpecialMoveToSerializable()</text>
<text text-anchor="start" x="176.5" y="-769.5" font-family="Helvetica,sans-Serif" font-size="10.00">+ SerializableToSpecialMove()</text>
<text text-anchor="start" x="176.5" y="-758.5" font-family="Helvetica,sans-Serif" font-size="10.00">+ ObjectsActiveToSerializable()</text>
<text text-anchor="start" x="176.5" y="-747.5" font-family="Helvetica,sans-Serif" font-size="10.00">+ SerializableToObjectsActive()</text>
<text text-anchor="start" x="176.5" y="-736.5" font-family="Helvetica,sans-Serif" font-size="10.00">+ Texture2DToSerializable()</text>
<text text-anchor="start" x="176.5" y="-725.5" font-family="Helvetica,sans-Serif" font-size="10.00">+ SerializableToTexture2D()</text>
<text text-anchor="start" x="176.5" y="-714.5" font-family="Helvetica,sans-Serif" font-size="10.00">+ VectorToSerializable()</text>
<text text-anchor="start" x="176.5" y="-703.5" font-family="Helvetica,sans-Serif" font-size="10.00">+ SerializableToVector()</text>
</a>
</g>
</g>
<!-- Node4&#45;&gt;Node18 -->
<g id="edge29" class="edge"><title>Node4&#45;&gt;Node18</title>
<path fill="none" stroke="#404040" d="M57.1445,-1258.26C81.125,-1208.44 124.325,-1118.68 163.203,-1037.91"/>
<polygon fill="none" stroke="#404040" points="163.207,-1037.9 162.205,-1030.76 168.412,-1027.09 169.414,-1034.23 163.207,-1037.9"/>
<text text-anchor="middle" x="154" y="-1141" font-family="Helvetica,sans-Serif" font-size="10.00"> &#45;items</text>
</g>
<!-- Node5 -->
<g id="node4" class="node"><title>Node5</title>
<polygon fill="none" stroke="#bfbfbf" points="838,-1396.5 838,-1453.5 879,-1453.5 879,-1396.5 838,-1396.5"/>
<text text-anchor="middle" x="858.5" y="-1441.5" font-family="Helvetica,sans-Serif" font-size="10.00">string</text>
<polyline fill="none" stroke="#bfbfbf" points="838,-1434.5 879,-1434.5 "/>
<text text-anchor="middle" x="858.5" y="-1422.5" font-family="Helvetica,sans-Serif" font-size="10.00"> </text>
<polyline fill="none" stroke="#bfbfbf" points="838,-1415.5 879,-1415.5 "/>
<text text-anchor="middle" x="858.5" y="-1403.5" font-family="Helvetica,sans-Serif" font-size="10.00"> </text>
</g>
<!-- Node5&#45;&gt;Node4 -->
<g id="edge3" class="edge"><title>Node5&#45;&gt;Node4</title>
<path fill="none" stroke="#404040" d="M837.825,-1424.21C718.784,-1425.21 123.906,-1427.7 61.5,-1378 52.5557,-1370.88 46.9561,-1360.48 43.4841,-1349.56"/>
<polygon fill="none" stroke="#404040" points="43.412,-1349.27 38.073,-1344.43 40.494,-1337.63 45.8329,-1342.48 43.412,-1349.27"/>
<text text-anchor="middle" x="76.5" y="-1370" font-family="Helvetica,sans-Serif" font-size="10.00"> #desc</text>
<text text-anchor="middle" x="76.5" y="-1359" font-family="Helvetica,sans-Serif" font-size="10.00">#name</text>
</g>
<!-- Node9 -->
<g id="node8" class="node"><title>Node9</title>
<g id="a_node8"><a xlink:href="class_character.html" target="_top" xlink:title="Base abstract class for Enemy and Player to inherit from. Defines all shared variables, their constructor and their setters and getters ">
<polygon fill="none" stroke="black" points="780,-95.5 780,-273.5 875,-273.5 875,-95.5 780,-95.5"/>
<text text-anchor="middle" x="827.5" y="-261.5" font-family="Helvetica,sans-Serif" font-size="10.00">Character</text>
<polyline fill="none" stroke="black" points="780,-254.5 875,-254.5 "/>
<text text-anchor="start" x="788" y="-242.5" font-family="Helvetica,sans-Serif" font-size="10.00">+ Name</text>
<text text-anchor="start" x="788" y="-231.5" font-family="Helvetica,sans-Serif" font-size="10.00">+ Level</text>
<text text-anchor="start" x="788" y="-220.5" font-family="Helvetica,sans-Serif" font-size="10.00">+ Health</text>
<text text-anchor="start" x="788" y="-209.5" font-family="Helvetica,sans-Serif" font-size="10.00">+ Attack</text>
<text text-anchor="start" x="788" y="-198.5" font-family="Helvetica,sans-Serif" font-size="10.00">+ Defence</text>
<text text-anchor="start" x="788" y="-187.5" font-family="Helvetica,sans-Serif" font-size="10.00">+ MaximumMagic</text>
<text text-anchor="start" x="788" y="-176.5" font-family="Helvetica,sans-Serif" font-size="10.00">+ Magic</text>
<text text-anchor="start" x="788" y="-165.5" font-family="Helvetica,sans-Serif" font-size="10.00">+ Luck</text>
<text text-anchor="start" x="788" y="-154.5" font-family="Helvetica,sans-Serif" font-size="10.00">+ Speed</text>
<text text-anchor="start" x="788" y="-143.5" font-family="Helvetica,sans-Serif" font-size="10.00">+ Special1</text>
<text text-anchor="start" x="788" y="-132.5" font-family="Helvetica,sans-Serif" font-size="10.00">+ Special2</text>
<text text-anchor="start" x="788" y="-121.5" font-family="Helvetica,sans-Serif" font-size="10.00">+ Image</text>
<polyline fill="none" stroke="black" points="780,-114.5 875,-114.5 "/>
<text text-anchor="start" x="788" y="-102.5" font-family="Helvetica,sans-Serif" font-size="10.00"># Character()</text>
</a>
</g>
</g>
<!-- Node5&#45;&gt;Node9 -->
<g id="edge8" class="edge"><title>Node5&#45;&gt;Node9</title>
<path fill="none" stroke="#404040" d="M879.197,-1422.06C933.963,-1415.66 1078.5,-1390.15 1078.5,-1299 1078.5,-1299 1078.5,-1299 1078.5,-633 1078.5,-553.286 955.817,-366.304 881.992,-261.004"/>
<polygon fill="none" stroke="#404040" points="881.912,-260.89 875.188,-258.284 875.006,-251.075 881.73,-253.681 881.912,-260.89"/>
<text text-anchor="middle" x="1095" y="-865.5" font-family="Helvetica,sans-Serif" font-size="10.00"> #name</text>
</g>
<!-- Node11 -->
<g id="node10" class="node"><title>Node11</title>
<g id="a_node10"><a xlink:href="class_special_move.html" target="_top" xlink:title="Special move abstract base class that expands upon CharacterMove, adding magic properties ...">
<polygon fill="none" stroke="black" points="642.5,-332.5 642.5,-433.5 740.5,-433.5 740.5,-332.5 642.5,-332.5"/>
<text text-anchor="middle" x="691.5" y="-421.5" font-family="Helvetica,sans-Serif" font-size="10.00">SpecialMove</text>
<polyline fill="none" stroke="black" points="642.5,-414.5 740.5,-414.5 "/>
<text text-anchor="start" x="650.5" y="-402.5" font-family="Helvetica,sans-Serif" font-size="10.00">+ Magic</text>
<text text-anchor="start" x="650.5" y="-391.5" font-family="Helvetica,sans-Serif" font-size="10.00">+ Desc</text>
<text text-anchor="start" x="650.5" y="-380.5" font-family="Helvetica,sans-Serif" font-size="10.00">+ Special</text>
<polyline fill="none" stroke="black" points="642.5,-373.5 740.5,-373.5 "/>
<text text-anchor="start" x="650.5" y="-361.5" font-family="Helvetica,sans-Serif" font-size="10.00">+ setUp()</text>
<text text-anchor="start" x="650.5" y="-350.5" font-family="Helvetica,sans-Serif" font-size="10.00">+ decreaseMagic()</text>
<text text-anchor="start" x="650.5" y="-339.5" font-family="Helvetica,sans-Serif" font-size="10.00"># SpecialMove()</text>
</a>
</g>
</g>
<!-- Node5&#45;&gt;Node11 -->
<g id="edge22" class="edge"><title>Node5&#45;&gt;Node11</title>
<path fill="none" stroke="#404040" d="M837.819,-1424.11C741.865,-1423.47 335.414,-1408.15 115.5,-1200 60.5658,-1148 70.5862,-1114.5 57.5,-1040 31.0489,-889.417 -1.33486,-837.115 57.5,-696 109.746,-570.689 155.659,-546.644 274.5,-481 389.999,-417.202 545.832,-395.241 630.522,-387.772"/>
<polygon fill="none" stroke="#404040" points="630.53,-387.771 636.176,-383.285 642.488,-386.772 636.842,-391.258 630.53,-387.771"/>
<text text-anchor="middle" x="77.5" y="-1061" font-family="Helvetica,sans-Serif" font-size="10.00"> #desc</text>
</g>
<!-- Node12 -->
<g id="node11" class="node"><title>Node12</title>
<g id="a_node11"><a xlink:href="class_character_move.html" target="_top" xlink:title="Astract base class for character moves ">
<polygon fill="none" stroke="black" points="824.5,-487 824.5,-566 910.5,-566 910.5,-487 824.5,-487"/>
<text text-anchor="middle" x="867.5" y="-554" font-family="Helvetica,sans-Serif" font-size="10.00">CharacterMove</text>
<polyline fill="none" stroke="black" points="824.5,-547 910.5,-547 "/>
<text text-anchor="start" x="832.5" y="-535" font-family="Helvetica,sans-Serif" font-size="10.00">+ User</text>
<text text-anchor="start" x="832.5" y="-524" font-family="Helvetica,sans-Serif" font-size="10.00">+ Target</text>
<text text-anchor="start" x="832.5" y="-513" font-family="Helvetica,sans-Serif" font-size="10.00">+ Text</text>
<polyline fill="none" stroke="black" points="824.5,-506 910.5,-506 "/>
<text text-anchor="start" x="832.5" y="-494" font-family="Helvetica,sans-Serif" font-size="10.00">+ performMove()</text>
</a>
</g>
</g>
<!-- Node5&#45;&gt;Node12 -->
<g id="edge12" class="edge"><title>Node5&#45;&gt;Node12</title>
<path fill="none" stroke="#404040" d="M858.35,-1396.48C858.07,-1338.99 857.575,-1201.96 858.5,-1087 860.008,-899.473 864.359,-676.625 866.408,-578.353"/>
<polygon fill="none" stroke="#404040" points="866.412,-578.159 862.539,-572.076 866.664,-566.162 870.537,-572.244 866.412,-578.159"/>
<text text-anchor="middle" x="871" y="-1141" font-family="Helvetica,sans-Serif" font-size="10.00"> #text</text>
</g>
<!-- Node13 -->
<g id="node12" class="node"><title>Node13</title>
<g id="a_node12"><a xlink:href="class_battle_manager.html" target="_top" xlink:title="Holds current Player and Enemy objects in battle and provides functions for MainBattle and other obje...">
<polygon fill="none" stroke="black" points="899.5,-773.5 899.5,-962.5 1015.5,-962.5 1015.5,-773.5 899.5,-773.5"/>
<text text-anchor="middle" x="957.5" y="-950.5" font-family="Helvetica,sans-Serif" font-size="10.00">BattleManager</text>
<polyline fill="none" stroke="black" points="899.5,-943.5 1015.5,-943.5 "/>
<text text-anchor="start" x="907.5" y="-931.5" font-family="Helvetica,sans-Serif" font-size="10.00">+ Player</text>
<text text-anchor="start" x="907.5" y="-920.5" font-family="Helvetica,sans-Serif" font-size="10.00">+ Enemy</text>
<text text-anchor="start" x="907.5" y="-909.5" font-family="Helvetica,sans-Serif" font-size="10.00">+ WasCriticalHit</text>
<polyline fill="none" stroke="black" points="899.5,-902.5 1015.5,-902.5 "/>
<text text-anchor="start" x="907.5" y="-890.5" font-family="Helvetica,sans-Serif" font-size="10.00">+ BattleManager()</text>
<text text-anchor="start" x="907.5" y="-879.5" font-family="Helvetica,sans-Serif" font-size="10.00">+ playerFirst()</text>
<text text-anchor="start" x="907.5" y="-868.5" font-family="Helvetica,sans-Serif" font-size="10.00">+ switchPlayers()</text>
<text text-anchor="start" x="907.5" y="-857.5" font-family="Helvetica,sans-Serif" font-size="10.00">+ isCriticalHit()</text>
<text text-anchor="start" x="907.5" y="-846.5" font-family="Helvetica,sans-Serif" font-size="10.00">+ ranAway()</text>
<text text-anchor="start" x="907.5" y="-835.5" font-family="Helvetica,sans-Serif" font-size="10.00">+ damageCalculation()</text>
<text text-anchor="start" x="907.5" y="-824.5" font-family="Helvetica,sans-Serif" font-size="10.00">+ enemyMove()</text>
<text text-anchor="start" x="907.5" y="-813.5" font-family="Helvetica,sans-Serif" font-size="10.00">+ enemySpecialMove()</text>
<text text-anchor="start" x="907.5" y="-802.5" font-family="Helvetica,sans-Serif" font-size="10.00">+ battleWon()</text>
<text text-anchor="start" x="907.5" y="-791.5" font-family="Helvetica,sans-Serif" font-size="10.00">+ playerFainted()</text>
<text text-anchor="start" x="907.5" y="-780.5" font-family="Helvetica,sans-Serif" font-size="10.00">&#45; characterFainted()</text>
</a>
</g>
</g>
<!-- Node5&#45;&gt;Node13 -->
<g id="edge15" class="edge"><title>Node5&#45;&gt;Node13</title>
<path fill="none" stroke="#404040" d="M868.437,-1396.32C885.271,-1352.94 923.25,-1268.71 980.5,-1218 995.397,-1204.8 1010.3,-1216.45 1021.5,-1200 1066.75,-1133.52 1044.99,-1043.05 1015.12,-973.497"/>
<polygon fill="none" stroke="#404040" points="1015.12,-973.494 1009.03,-969.625 1010.26,-962.52 1016.35,-966.389 1015.12,-973.494"/>
<text text-anchor="middle" x="1022.5" y="-1232" font-family="Helvetica,sans-Serif" font-size="10.00"> +forceEnemyMove</text>
<text text-anchor="middle" x="1022.5" y="-1221" font-family="Helvetica,sans-Serif" font-size="10.00">+forceCriticalHits</text>
</g>
<!-- Node6 -->
<g id="node5" class="node"><title>Node6</title>
<polygon fill="none" stroke="#bfbfbf" points="428.5,-839.5 428.5,-896.5 528.5,-896.5 528.5,-839.5 428.5,-839.5"/>
<text text-anchor="middle" x="478.5" y="-884.5" font-family="Helvetica,sans-Serif" font-size="10.00">DragAndDropCell []</text>
<polyline fill="none" stroke="#bfbfbf" points="428.5,-877.5 528.5,-877.5 "/>
<text text-anchor="middle" x="478.5" y="-865.5" font-family="Helvetica,sans-Serif" font-size="10.00"> </text>
<polyline fill="none" stroke="#bfbfbf" points="428.5,-858.5 528.5,-858.5 "/>
<text text-anchor="middle" x="478.5" y="-846.5" font-family="Helvetica,sans-Serif" font-size="10.00"> </text>
</g>
<!-- Node6&#45;&gt;Node2 -->
<g id="edge4" class="edge"><title>Node6&#45;&gt;Node2</title>
<path fill="none" stroke="#404040" d="M481.067,-839.499C484.597,-786.401 485.371,-668.12 432.5,-590 421.092,-573.145 403.476,-560.073 386.019,-550.344"/>
<polygon fill="none" stroke="#404040" points="385.866,-550.264 378.696,-551.036 375.227,-544.714 382.397,-543.943 385.866,-550.264"/>
<text text-anchor="middle" x="504.5" y="-631.5" font-family="Helvetica,sans-Serif" font-size="10.00"> &#45;itemContainers</text>
</g>
<!-- Node7 -->
<g id="node6" class="node"><title>Node7</title>
<polygon fill="none" stroke="#bfbfbf" points="339,-839.5 339,-896.5 410,-896.5 410,-839.5 339,-839.5"/>
<text text-anchor="middle" x="374.5" y="-884.5" font-family="Helvetica,sans-Serif" font-size="10.00">GameObject</text>
<polyline fill="none" stroke="#bfbfbf" points="339,-877.5 410,-877.5 "/>
<text text-anchor="middle" x="374.5" y="-865.5" font-family="Helvetica,sans-Serif" font-size="10.00"> </text>
<polyline fill="none" stroke="#bfbfbf" points="339,-858.5 410,-858.5 "/>
<text text-anchor="middle" x="374.5" y="-846.5" font-family="Helvetica,sans-Serif" font-size="10.00"> </text>
</g>
<!-- Node7&#45;&gt;Node2 -->
<g id="edge5" class="edge"><title>Node7&#45;&gt;Node2</title>
<path fill="none" stroke="#404040" d="M370.817,-839.217C363.446,-783.602 346.748,-657.628 336.986,-583.979"/>
<polygon fill="none" stroke="#404040" points="336.942,-583.642 332.188,-578.22 335.365,-571.746 340.118,-577.169 336.942,-583.642"/>
<text text-anchor="middle" x="389" y="-637" font-family="Helvetica,sans-Serif" font-size="10.00"> &#45;playerContainers</text>
<text text-anchor="middle" x="389" y="-626" font-family="Helvetica,sans-Serif" font-size="10.00">&#45;player</text>
</g>
<!-- Node8&#45;&gt;Node2 -->
<g id="edge6" class="edge"><title>Node8&#45;&gt;Node2</title>
<path fill="none" stroke="#404040" d="M571.483,-1087.16C573.333,-954.863 574.74,-628.369 544.5,-590 524.998,-565.255 443.985,-546.787 387.181,-536.569"/>
<polygon fill="none" stroke="#404040" points="386.922,-536.524 380.322,-539.429 375.102,-534.454 381.702,-531.549 386.922,-536.524"/>
<text text-anchor="middle" x="591.5" y="-865.5" font-family="Helvetica,sans-Serif" font-size="10.00"> &#45;players</text>
</g>
<!-- Node8&#45;&gt;Node13 -->
<g id="edge21" class="edge"><title>Node8&#45;&gt;Node13</title>
<path fill="none" stroke="#404040" d="M626.773,-1102.73C696.249,-1053.63 814.352,-970.165 889.021,-917.395"/>
<polygon fill="none" stroke="#404040" points="889.46,-917.085 892.051,-910.356 899.259,-910.16 896.668,-916.889 889.46,-917.085"/>
<text text-anchor="middle" x="702" y="-1061" font-family="Helvetica,sans-Serif" font-size="10.00"> &#45;player</text>
</g>
<!-- Node8&#45;&gt;Node18 -->
<g id="edge31" class="edge"><title>Node8&#45;&gt;Node18</title>
<path fill="none" stroke="#404040" d="M514.473,-1119.23C444.409,-1090.06 333.119,-1043.41 329.5,-1040 329.406,-1039.91 329.312,-1039.82 329.218,-1039.73"/>
<polygon fill="none" stroke="#404040" points="329.142,-1039.66 322.083,-1038.18 320.727,-1031.1 327.786,-1032.57 329.142,-1039.66"/>
<text text-anchor="middle" x="409.5" y="-1061" font-family="Helvetica,sans-Serif" font-size="10.00"> &#45;players</text>
</g>
<!-- Node9&#45;&gt;Node8 -->
<g id="edge7" class="edge"><title>Node9&#45;&gt;Node8</title>
<path fill="none" stroke="midnightblue" d="M770.597,-210.876C724.486,-234.837 662.567,-275.537 633.5,-332 597.481,-401.968 631.378,-963.136 614.5,-1040 611.011,-1055.89 605.075,-1072.39 598.672,-1087.38"/>
<polygon fill="none" stroke="midnightblue" points="772.262,-213.956 779.594,-206.307 769.093,-207.714 772.262,-213.956"/>
</g>
<!-- Node9&#45;&gt;Node12 -->
<g id="edge13" class="edge"><title>Node9&#45;&gt;Node12</title>
<path fill="none" stroke="#404040" d="M862.423,-273.77C864.032,-279.878 865.421,-285.992 866.5,-292 877.647,-354.083 875.613,-426.957 872.303,-474.57"/>
<polygon fill="none" stroke="#404040" points="872.291,-474.737 875.831,-481.02 871.394,-486.704 867.854,-480.422 872.291,-474.737"/>
<text text-anchor="middle" x="892.5" y="-386" font-family="Helvetica,sans-Serif" font-size="10.00"> #target</text>
<text text-anchor="middle" x="892.5" y="-375" font-family="Helvetica,sans-Serif" font-size="10.00">#user</text>
</g>
<!-- Node14 -->
<g id="node13" class="node"><title>Node14</title>
<g id="a_node13"><a xlink:href="class_enemy.html" target="_top" xlink:title="Defines an AI controller enemy to fight in battle scenes">
<polygon fill="none" stroke="black" points="961,-0.5 961,-57.5 1028,-57.5 1028,-0.5 961,-0.5"/>
<text text-anchor="middle" x="994.5" y="-45.5" font-family="Helvetica,sans-Serif" font-size="10.00">Enemy</text>
<polyline fill="none" stroke="black" points="961,-38.5 1028,-38.5 "/>
<text text-anchor="start" x="969" y="-26.5" font-family="Helvetica,sans-Serif" font-size="10.00">+ ExpGiven</text>
<polyline fill="none" stroke="black" points="961,-19.5 1028,-19.5 "/>
<text text-anchor="start" x="969" y="-7.5" font-family="Helvetica,sans-Serif" font-size="10.00">+ Enemy()</text>
</a>
</g>
</g>
<!-- Node9&#45;&gt;Node14 -->
<g id="edge17" class="edge"><title>Node9&#45;&gt;Node14</title>
<path fill="none" stroke="midnightblue" d="M882.903,-132.576C910.125,-107.555 941.857,-78.3877 964.51,-57.5659"/>
<polygon fill="none" stroke="midnightblue" points="880.349,-130.169 875.355,-139.513 885.086,-135.323 880.349,-130.169"/>
</g>
<!-- Node10 -->
<g id="node9" class="node"><title>Node10</title>
<polygon fill="none" stroke="#bfbfbf" points="696,-1269.5 696,-1326.5 725,-1326.5 725,-1269.5 696,-1269.5"/>
<text text-anchor="middle" x="710.5" y="-1314.5" font-family="Helvetica,sans-Serif" font-size="10.00">int</text>
<polyline fill="none" stroke="#bfbfbf" points="696,-1307.5 725,-1307.5 "/>
<text text-anchor="middle" x="710.5" y="-1295.5" font-family="Helvetica,sans-Serif" font-size="10.00"> </text>
<polyline fill="none" stroke="#bfbfbf" points="696,-1288.5 725,-1288.5 "/>
<text text-anchor="middle" x="710.5" y="-1276.5" font-family="Helvetica,sans-Serif" font-size="10.00"> </text>
</g>
<!-- Node10&#45;&gt;Node8 -->
<g id="edge27" class="edge"><title>Node10&#45;&gt;Node8</title>
<path fill="none" stroke="#404040" d="M695.631,-1294.65C669.327,-1289.66 614.794,-1275.42 587.5,-1240 581.147,-1231.75 576.87,-1221.92 574.038,-1211.75"/>
<polygon fill="none" stroke="#404040" points="573.968,-1211.44 568.751,-1206.46 571.339,-1199.73 576.556,-1204.71 573.968,-1211.44"/>
<text text-anchor="middle" x="625" y="-1232" font-family="Helvetica,sans-Serif" font-size="10.00"> &#45;expToNextLevel</text>
<text text-anchor="middle" x="625" y="-1221" font-family="Helvetica,sans-Serif" font-size="10.00">&#45;exp</text>
</g>
<!-- Node10&#45;&gt;Node9 -->
<g id="edge9" class="edge"><title>Node10&#45;&gt;Node9</title>
<path fill="none" stroke="#404040" d="M711.12,-1269.3C713.44,-1174.39 722.876,-853.572 749.5,-590 761.148,-474.683 763.748,-445.444 787.5,-332 790.664,-316.886 794.475,-301.019 798.47,-285.535"/>
<polygon fill="none" stroke="#404040" points="798.506,-285.395 796.161,-278.576 801.553,-273.788 803.899,-280.607 798.506,-285.395"/>
<text text-anchor="middle" x="787" y="-670" font-family="Helvetica,sans-Serif" font-size="10.00"> #speed</text>
<text text-anchor="middle" x="787" y="-659" font-family="Helvetica,sans-Serif" font-size="10.00">#luck</text>
<text text-anchor="middle" x="787" y="-648" font-family="Helvetica,sans-Serif" font-size="10.00">#health</text>
<text text-anchor="middle" x="787" y="-637" font-family="Helvetica,sans-Serif" font-size="10.00">#magic</text>
<text text-anchor="middle" x="787" y="-626" font-family="Helvetica,sans-Serif" font-size="10.00">#maximumMagic</text>
<text text-anchor="middle" x="787" y="-615" font-family="Helvetica,sans-Serif" font-size="10.00">#attack</text>
<text text-anchor="middle" x="787" y="-604" font-family="Helvetica,sans-Serif" font-size="10.00">#defence</text>
<text text-anchor="middle" x="787" y="-593" font-family="Helvetica,sans-Serif" font-size="10.00">#level</text>
</g>
<!-- Node10&#45;&gt;Node11 -->
<g id="edge24" class="edge"><title>Node10&#45;&gt;Node11</title>
<path fill="none" stroke="#404040" d="M700.483,-1269.31C690.454,-1239.06 676.5,-1188.99 676.5,-1144.5 676.5,-1144.5 676.5,-1144.5 676.5,-525.5 676.5,-499.295 679.076,-470.511 682.092,-445.785"/>
<polygon fill="none" stroke="#404040" points="682.124,-445.535 678.919,-439.076 683.649,-433.633 686.854,-440.092 682.124,-445.535"/>
<text text-anchor="middle" x="694" y="-865.5" font-family="Helvetica,sans-Serif" font-size="10.00"> #magic</text>
</g>
<!-- Node10&#45;&gt;Node13 -->
<g id="edge19" class="edge"><title>Node10&#45;&gt;Node13</title>
<path fill="none" stroke="#404040" d="M725.215,-1293.74C760.018,-1285.18 847.469,-1258.59 887.5,-1200 912.253,-1163.77 931.956,-1057.09 944.072,-974.534"/>
<polygon fill="none" stroke="#404040" points="944.089,-974.416 940.988,-967.906 945.804,-962.539 948.906,-969.049 944.089,-974.416"/>
<text text-anchor="middle" x="942" y="-1141" font-family="Helvetica,sans-Serif" font-size="10.00"> +money</text>
</g>
<!-- Node10&#45;&gt;Node14 -->
<g id="edge18" class="edge"><title>Node10&#45;&gt;Node14</title>
<path fill="none" stroke="#404040" d="M718.542,-1269.23C721.161,-1259.96 724.029,-1249.55 726.5,-1240 763.678,-1096.29 786.525,-704.909 880.5,-590 892.586,-575.222 908.131,-587.336 919.5,-572 1034.55,-416.808 1014.14,-166.138 1000.88,-69.628"/>
<polygon fill="none" stroke="#404040" points="1000.86,-69.4617 996.046,-64.0912 999.153,-57.5835 1003.96,-62.9541 1000.86,-69.4617"/>
<text text-anchor="middle" x="990.5" y="-524" font-family="Helvetica,sans-Serif" font-size="10.00"> &#45;expGiven</text>
</g>
<!-- Node10&#45;&gt;Node18 -->
<g id="edge30" class="edge"><title>Node10&#45;&gt;Node18</title>
<path fill="none" stroke="#404040" d="M695.861,-1296.53C636.982,-1294.34 418.187,-1283.36 367.5,-1240 312.298,-1192.78 281.755,-1120.17 264.901,-1051.66"/>
<polygon fill="none" stroke="#404040" points="264.863,-1051.5 259.594,-1046.58 262.111,-1039.82 267.381,-1044.75 264.863,-1051.5"/>
<text text-anchor="middle" x="347.5" y="-1141" font-family="Helvetica,sans-Serif" font-size="10.00"> &#45;money</text>
</g>
<!-- Node11&#45;&gt;Node9 -->
<g id="edge10" class="edge"><title>Node11&#45;&gt;Node9</title>
<path fill="none" stroke="#404040" d="M695.627,-332.342C698.276,-318.634 702.569,-304.19 709.5,-292 724.352,-265.878 747.917,-242.711 770.097,-224.71"/>
<polygon fill="none" stroke="#404040" points="770.387,-224.482 772.631,-217.629 779.82,-217.065 777.576,-223.918 770.387,-224.482"/>
<text text-anchor="middle" x="732" y="-306" font-family="Helvetica,sans-Serif" font-size="10.00"> #special1</text>
<text text-anchor="middle" x="732" y="-295" font-family="Helvetica,sans-Serif" font-size="10.00">#special2</text>
</g>
<!-- Node12&#45;&gt;Node11 -->
<g id="edge11" class="edge"><title>Node12&#45;&gt;Node11</title>
<path fill="none" stroke="midnightblue" d="M816.528,-484.519C792.638,-465.313 764.295,-442.526 740.64,-423.507"/>
<polygon fill="none" stroke="midnightblue" points="814.459,-487.347 824.446,-490.885 818.845,-481.892 814.459,-487.347"/>
</g>
<!-- Node13&#45;&gt;Node12 -->
<g id="edge14" class="edge"><title>Node13&#45;&gt;Node12</title>
<path fill="none" stroke="#404040" d="M932.669,-773.331C915.954,-710.281 894.559,-629.573 880.937,-578.187"/>
<polygon fill="none" stroke="#404040" points="880.892,-578.017 875.488,-573.242 877.817,-566.418 883.221,-571.192 880.892,-578.017"/>
<text text-anchor="middle" x="929.5" y="-631.5" font-family="Helvetica,sans-Serif" font-size="10.00"> #manager</text>
</g>
<!-- Node14&#45;&gt;Node13 -->
<g id="edge16" class="edge"><title>Node14&#45;&gt;Node13</title>
<path fill="none" stroke="#404040" d="M1008.05,-57.5473C1021.62,-87.7105 1040.5,-137.875 1040.5,-183.5 1040.5,-527.5 1040.5,-527.5 1040.5,-527.5 1040.5,-607.636 1018.41,-695.447 997.021,-761.685"/>
<polygon fill="none" stroke="#404040" points="996.926,-761.975 998.854,-768.924 993.181,-773.376 991.253,-766.427 996.926,-761.975"/>
<text text-anchor="middle" x="1058.5" y="-380.5" font-family="Helvetica,sans-Serif" font-size="10.00"> &#45;enemy</text>
</g>
<!-- Node15 -->
<g id="node14" class="node"><title>Node15</title>
<polygon fill="none" stroke="#bfbfbf" points="977,-1115 977,-1172 1012,-1172 1012,-1115 977,-1115"/>
<text text-anchor="middle" x="994.5" y="-1160" font-family="Helvetica,sans-Serif" font-size="10.00">bool</text>
<polyline fill="none" stroke="#bfbfbf" points="977,-1153 1012,-1153 "/>
<text text-anchor="middle" x="994.5" y="-1141" font-family="Helvetica,sans-Serif" font-size="10.00"> </text>
<polyline fill="none" stroke="#bfbfbf" points="977,-1134 1012,-1134 "/>
<text text-anchor="middle" x="994.5" y="-1122" font-family="Helvetica,sans-Serif" font-size="10.00"> </text>
</g>
<!-- Node15&#45;&gt;Node13 -->
<g id="edge20" class="edge"><title>Node15&#45;&gt;Node13</title>
<path fill="none" stroke="#404040" d="M978.369,-1114.86C971.446,-1101.48 964.125,-1084.9 960.5,-1069 953.618,-1038.81 951.166,-1005.39 950.893,-974.649"/>
<polygon fill="none" stroke="#404040" points="950.893,-974.563 946.894,-968.563 950.894,-962.563 954.894,-968.564 950.893,-974.563"/>
<text text-anchor="middle" x="993.5" y="-1061" font-family="Helvetica,sans-Serif" font-size="10.00"> &#45;wasCriticalHit</text>
</g>
<!-- Node16 -->
<g id="node15" class="node"><title>Node16</title>
<polygon fill="none" stroke="#bfbfbf" points="705,-498 705,-555 740,-555 740,-498 705,-498"/>
<text text-anchor="middle" x="722.5" y="-543" font-family="Helvetica,sans-Serif" font-size="10.00">float</text>
<polyline fill="none" stroke="#bfbfbf" points="705,-536 740,-536 "/>
<text text-anchor="middle" x="722.5" y="-524" font-family="Helvetica,sans-Serif" font-size="10.00"> </text>
<polyline fill="none" stroke="#bfbfbf" points="705,-517 740,-517 "/>
<text text-anchor="middle" x="722.5" y="-505" font-family="Helvetica,sans-Serif" font-size="10.00"> </text>
</g>
<!-- Node16&#45;&gt;Node11 -->
<g id="edge23" class="edge"><title>Node16&#45;&gt;Node11</title>
<path fill="none" stroke="#404040" d="M716.449,-497.881C713.168,-482.905 708.974,-463.759 704.964,-445.457"/>
<polygon fill="none" stroke="#404040" points="704.935,-445.326 699.744,-440.321 702.367,-433.604 707.559,-438.609 704.935,-445.326"/>
<text text-anchor="middle" x="728.5" y="-455" font-family="Helvetica,sans-Serif" font-size="10.00"> #special</text>
</g>
<!-- Node17 -->
<g id="node16" class="node"><title>Node17</title>
<polygon fill="none" stroke="#bfbfbf" points="797,-354.5 797,-411.5 858,-411.5 858,-354.5 797,-354.5"/>
<text text-anchor="middle" x="827.5" y="-399.5" font-family="Helvetica,sans-Serif" font-size="10.00">Texture2D</text>
<polyline fill="none" stroke="#bfbfbf" points="797,-392.5 858,-392.5 "/>
<text text-anchor="middle" x="827.5" y="-380.5" font-family="Helvetica,sans-Serif" font-size="10.00"> </text>
<polyline fill="none" stroke="#bfbfbf" points="797,-373.5 858,-373.5 "/>
<text text-anchor="middle" x="827.5" y="-361.5" font-family="Helvetica,sans-Serif" font-size="10.00"> </text>
</g>
<!-- Node17&#45;&gt;Node9 -->
<g id="edge25" class="edge"><title>Node17&#45;&gt;Node9</title>
<path fill="none" stroke="#404040" d="M827.5,-354.263C827.5,-335.998 827.5,-310.86 827.5,-285.562"/>
<polygon fill="none" stroke="#404040" points="827.5,-285.557 823.5,-279.557 827.5,-273.557 831.5,-279.557 827.5,-285.557"/>
<text text-anchor="middle" x="845" y="-300.5" font-family="Helvetica,sans-Serif" font-size="10.00"> #image</text>
</g>
<!-- Node18&#45;&gt;Node2 -->
<g id="edge28" class="edge"><title>Node18&#45;&gt;Node2</title>
<path fill="none" stroke="#404040" d="M282.348,-696.161C290.781,-660.927 300.043,-624.157 309.5,-590 310.09,-587.869 310.705,-585.702 311.339,-583.517"/>
<polygon fill="none" stroke="#404040" points="311.418,-583.252 309.307,-576.356 314.86,-571.756 316.971,-578.651 311.418,-583.252"/>
<text text-anchor="middle" x="322" y="-631.5" font-family="Helvetica,sans-Serif" font-size="10.00"> &#45;data</text>
</g>
</g>
</svg>
