<?xml version="1.0" encoding="UTF-8" standalone="no"?>
<!DOCTYPE svg PUBLIC "-//W3C//DTD SVG 1.1//EN"
 "http://www.w3.org/Graphics/SVG/1.1/DTD/svg11.dtd">
<!-- Generated by graphviz version 2.38.0 (20140413.2041)
 -->
<!-- Title: MainBattle Pages: 1 -->
<svg width="1368pt" height="1753pt"
 viewBox="0.00 0.00 1368.00 1753.00" xmlns="http://www.w3.org/2000/svg" xmlns:xlink="http://www.w3.org/1999/xlink">
<g id="graph0" class="graph" transform="scale(1 1) rotate(0) translate(4 1749)">
<title>MainBattle</title>
<!-- Node2 -->
<g id="node1" class="node"><title>Node2</title>
<polygon fill="#bfbfbf" stroke="black" points="809,-0.5 809,-277.5 935,-277.5 935,-0.5 809,-0.5"/>
<text text-anchor="middle" x="872" y="-265.5" font-family="Helvetica,sans-Serif" font-size="10.00">MainBattle</text>
<polyline fill="none" stroke="black" points="809,-258.5 935,-258.5 "/>
<text text-anchor="middle" x="872" y="-246.5" font-family="Helvetica,sans-Serif" font-size="10.00"> </text>
<polyline fill="none" stroke="black" points="809,-239.5 935,-239.5 "/>
<text text-anchor="start" x="817" y="-227.5" font-family="Helvetica,sans-Serif" font-size="10.00">+ standardAttack()</text>
<text text-anchor="start" x="817" y="-216.5" font-family="Helvetica,sans-Serif" font-size="10.00">+ special1()</text>
<text text-anchor="start" x="817" y="-205.5" font-family="Helvetica,sans-Serif" font-size="10.00">+ special2()</text>
<text text-anchor="start" x="817" y="-194.5" font-family="Helvetica,sans-Serif" font-size="10.00">+ switchPlayers()</text>
<text text-anchor="start" x="817" y="-183.5" font-family="Helvetica,sans-Serif" font-size="10.00">+ updateToNewPlayer()</text>
<text text-anchor="start" x="817" y="-172.5" font-family="Helvetica,sans-Serif" font-size="10.00">+ ranAway()</text>
<text text-anchor="start" x="817" y="-161.5" font-family="Helvetica,sans-Serif" font-size="10.00">&#45; Start()</text>
<text text-anchor="start" x="817" y="-150.5" font-family="Helvetica,sans-Serif" font-size="10.00">&#45; Update()</text>
<text text-anchor="start" x="817" y="-139.5" font-family="Helvetica,sans-Serif" font-size="10.00">&#45; playerThenEnemy()</text>
<text text-anchor="start" x="817" y="-128.5" font-family="Helvetica,sans-Serif" font-size="10.00">&#45; enemyThenPlayer()</text>
<text text-anchor="start" x="817" y="-117.5" font-family="Helvetica,sans-Serif" font-size="10.00">&#45; performTurn()</text>
<text text-anchor="start" x="817" y="-106.5" font-family="Helvetica,sans-Serif" font-size="10.00">&#45; updateBars()</text>
<text text-anchor="start" x="817" y="-95.5" font-family="Helvetica,sans-Serif" font-size="10.00">&#45; checkIfPlayerWon()</text>
<text text-anchor="start" x="817" y="-84.5" font-family="Helvetica,sans-Serif" font-size="10.00">&#45; updateExp()</text>
<text text-anchor="start" x="817" y="-73.5" font-family="Helvetica,sans-Serif" font-size="10.00">&#45; updateExpHelper()</text>
<text text-anchor="start" x="817" y="-62.5" font-family="Helvetica,sans-Serif" font-size="10.00">&#45; createOriginalCopy()</text>
<text text-anchor="start" x="817" y="-51.5" font-family="Helvetica,sans-Serif" font-size="10.00">&#45; restoreOriginalStats()</text>
<text text-anchor="start" x="817" y="-40.5" font-family="Helvetica,sans-Serif" font-size="10.00">&#45; checkIfPlayerLost()</text>
<text text-anchor="start" x="817" y="-29.5" font-family="Helvetica,sans-Serif" font-size="10.00">&#45; setButtonsInteractable()</text>
<text text-anchor="start" x="817" y="-18.5" font-family="Helvetica,sans-Serif" font-size="10.00">&#45; prepareTurn()</text>
<text text-anchor="start" x="817" y="-7.5" font-family="Helvetica,sans-Serif" font-size="10.00">&#45; runAway()</text>
</g>
<!-- Node3 -->
<g id="node2" class="node"><title>Node3</title>
<g id="a_node2"><a xlink:href="class_mono_behaviour.html" target="_top" xlink:title="{MonoBehaviour\n||}">
<polygon fill="none" stroke="black" points="943.5,-926.5 943.5,-983.5 1026.5,-983.5 1026.5,-926.5 943.5,-926.5"/>
<text text-anchor="middle" x="985" y="-971.5" font-family="Helvetica,sans-Serif" font-size="10.00">MonoBehaviour</text>
<polyline fill="none" stroke="black" points="943.5,-964.5 1026.5,-964.5 "/>
<text text-anchor="middle" x="985" y="-952.5" font-family="Helvetica,sans-Serif" font-size="10.00"> </text>
<polyline fill="none" stroke="black" points="943.5,-945.5 1026.5,-945.5 "/>
<text text-anchor="middle" x="985" y="-933.5" font-family="Helvetica,sans-Serif" font-size="10.00"> </text>
</a>
</g>
</g>
<!-- Node3&#45;&gt;Node2 -->
<g id="edge1" class="edge"><title>Node3&#45;&gt;Node2</title>
<path fill="none" stroke="midnightblue" d="M976.661,-916.364C975.353,-909.92 974.078,-903.279 973,-897 936.001,-681.549 904.766,-429.62 887.217,-277.568"/>
<polygon fill="none" stroke="midnightblue" points="973.255,-917.173 978.722,-926.248 980.107,-915.744 973.255,-917.173"/>
</g>
<!-- Node19 -->
<g id="node18" class="node"><title>Node19</title>
<g id="a_node18"><a xlink:href="class_stats_script.html" target="_top" xlink:title="A script used to manage and update all of the stat displays in the battle scene ">
<polygon fill="none" stroke="black" points="1038.5,-766.5 1038.5,-845.5 1131.5,-845.5 1131.5,-766.5 1038.5,-766.5"/>
<text text-anchor="middle" x="1085" y="-833.5" font-family="Helvetica,sans-Serif" font-size="10.00">StatsScript</text>
<polyline fill="none" stroke="black" points="1038.5,-826.5 1131.5,-826.5 "/>
<text text-anchor="middle" x="1085" y="-814.5" font-family="Helvetica,sans-Serif" font-size="10.00"> </text>
<polyline fill="none" stroke="black" points="1038.5,-807.5 1131.5,-807.5 "/>
<text text-anchor="start" x="1046.5" y="-795.5" font-family="Helvetica,sans-Serif" font-size="10.00">+ setUpDisplay()</text>
<text text-anchor="start" x="1046.5" y="-784.5" font-family="Helvetica,sans-Serif" font-size="10.00">+ updateDisplay()</text>
<text text-anchor="start" x="1046.5" y="-773.5" font-family="Helvetica,sans-Serif" font-size="10.00">&#45; Start()</text>
</a>
</g>
</g>
<!-- Node3&#45;&gt;Node19 -->
<g id="edge33" class="edge"><title>Node3&#45;&gt;Node19</title>
<path fill="none" stroke="midnightblue" d="M1029.93,-919.989C1040.63,-911.21 1050.08,-902.652 1054,-897 1064.64,-881.651 1071.92,-862.317 1076.75,-845.506"/>
<polygon fill="none" stroke="midnightblue" points="1027.58,-917.387 1021.98,-926.382 1031.97,-922.841 1027.58,-917.387"/>
</g>
<!-- Node4 -->
<g id="node3" class="node"><title>Node4</title>
<polygon fill="none" stroke="#bfbfbf" points="976,-369.5 976,-426.5 1034,-426.5 1034,-369.5 976,-369.5"/>
<text text-anchor="middle" x="1005" y="-414.5" font-family="Helvetica,sans-Serif" font-size="10.00">AudioClip</text>
<polyline fill="none" stroke="#bfbfbf" points="976,-407.5 1034,-407.5 "/>
<text text-anchor="middle" x="1005" y="-395.5" font-family="Helvetica,sans-Serif" font-size="10.00"> </text>
<polyline fill="none" stroke="#bfbfbf" points="976,-388.5 1034,-388.5 "/>
<text text-anchor="middle" x="1005" y="-376.5" font-family="Helvetica,sans-Serif" font-size="10.00"> </text>
</g>
<!-- Node4&#45;&gt;Node2 -->
<g id="edge2" class="edge"><title>Node4&#45;&gt;Node2</title>
<path fill="none" stroke="#404040" d="M994.202,-369.157C985.993,-348.641 974.084,-320.214 962,-296 955.5,-282.975 948.388,-269.529 941.101,-256.245"/>
<polygon fill="none" stroke="#404040" points="941.04,-256.135 934.635,-252.824 935.228,-245.637 941.634,-248.949 941.04,-256.135"/>
<text text-anchor="middle" x="1002.5" y="-326.5" font-family="Helvetica,sans-Serif" font-size="10.00"> &#45;BGM</text>
<text text-anchor="middle" x="1002.5" y="-315.5" font-family="Helvetica,sans-Serif" font-size="10.00">&#45;victory</text>
</g>
<!-- Node5 -->
<g id="node4" class="node"><title>Node5</title>
<g id="a_node4"><a xlink:href="class_item.html" target="_top" xlink:title="Abstract class for items that can be equipped to a player, increasing some of their stats ...">
<polygon fill="none" stroke="black" points="241.5,-1549.5 241.5,-1628.5 318.5,-1628.5 318.5,-1549.5 241.5,-1549.5"/>
<text text-anchor="middle" x="280" y="-1616.5" font-family="Helvetica,sans-Serif" font-size="10.00">Item</text>
<polyline fill="none" stroke="black" points="241.5,-1609.5 318.5,-1609.5 "/>
<text text-anchor="start" x="249.5" y="-1597.5" font-family="Helvetica,sans-Serif" font-size="10.00">+ Name</text>
<text text-anchor="start" x="249.5" y="-1586.5" font-family="Helvetica,sans-Serif" font-size="10.00">+ Desc</text>
<polyline fill="none" stroke="black" points="241.5,-1579.5 318.5,-1579.5 "/>
<text text-anchor="start" x="249.5" y="-1567.5" font-family="Helvetica,sans-Serif" font-size="10.00">+ applyBuffs()</text>
<text text-anchor="start" x="249.5" y="-1556.5" font-family="Helvetica,sans-Serif" font-size="10.00">+ revertBuffs()</text>
</a>
</g>
</g>
<!-- Node5&#45;&gt;Node2 -->
<g id="edge3" class="edge"><title>Node5&#45;&gt;Node2</title>
<path fill="none" stroke="#404040" d="M241.412,-1580.02C176.149,-1564.02 51,-1521.41 51,-1430 51,-1430 51,-1430 51,-397 51,-241.487 594.27,-168.92 796.953,-147.258"/>
<polygon fill="none" stroke="#404040" points="797.007,-147.252 802.554,-142.645 808.941,-145.994 803.393,-150.601 797.007,-147.252"/>
<text text-anchor="middle" x="80" y="-883.5" font-family="Helvetica,sans-Serif" font-size="10.00"> &#45;itemReward</text>
</g>
<!-- Node15 -->
<g id="node14" class="node"><title>Node15</title>
<g id="a_node14"><a xlink:href="class_player.html" target="_top" xlink:title="Defines a playable character for use in battle scenes">
<polygon fill="none" stroke="black" points="272,-1367.5 272,-1490.5 384,-1490.5 384,-1367.5 272,-1367.5"/>
<text text-anchor="middle" x="328" y="-1478.5" font-family="Helvetica,sans-Serif" font-size="10.00">Player</text>
<polyline fill="none" stroke="black" points="272,-1471.5 384,-1471.5 "/>
<text text-anchor="start" x="280" y="-1459.5" font-family="Helvetica,sans-Serif" font-size="10.00">+ Exp</text>
<text text-anchor="start" x="280" y="-1448.5" font-family="Helvetica,sans-Serif" font-size="10.00">+ Item</text>
<text text-anchor="start" x="280" y="-1437.5" font-family="Helvetica,sans-Serif" font-size="10.00">+ ExpToNextLevel</text>
<polyline fill="none" stroke="black" points="272,-1430.5 384,-1430.5 "/>
<text text-anchor="start" x="280" y="-1418.5" font-family="Helvetica,sans-Serif" font-size="10.00">+ Player()</text>
<text text-anchor="start" x="280" y="-1407.5" font-family="Helvetica,sans-Serif" font-size="10.00">+ gainExp()</text>
<text text-anchor="start" x="280" y="-1396.5" font-family="Helvetica,sans-Serif" font-size="10.00">+ levelUp()</text>
<text text-anchor="start" x="280" y="-1385.5" font-family="Helvetica,sans-Serif" font-size="10.00">+ Clone()</text>
<text text-anchor="start" x="280" y="-1374.5" font-family="Helvetica,sans-Serif" font-size="10.00">&#45; setExpToNextLevel()</text>
</a>
</g>
</g>
<!-- Node5&#45;&gt;Node15 -->
<g id="edge22" class="edge"><title>Node5&#45;&gt;Node15</title>
<path fill="none" stroke="#404040" d="M276.502,-1549.25C276.374,-1536.25 277.391,-1521.81 281,-1509 281.649,-1506.7 282.384,-1504.39 283.191,-1502.09"/>
<polygon fill="none" stroke="#404040" points="283.299,-1501.83 281.83,-1494.77 287.782,-1490.69 289.251,-1497.75 283.299,-1501.83"/>
<text text-anchor="middle" x="293.5" y="-1517.5" font-family="Helvetica,sans-Serif" font-size="10.00"> &#45;item</text>
</g>
<!-- Node6 -->
<g id="node5" class="node"><title>Node6</title>
<polygon fill="none" stroke="#bfbfbf" points="624.5,-1687.5 624.5,-1744.5 665.5,-1744.5 665.5,-1687.5 624.5,-1687.5"/>
<text text-anchor="middle" x="645" y="-1732.5" font-family="Helvetica,sans-Serif" font-size="10.00">string</text>
<polyline fill="none" stroke="#bfbfbf" points="624.5,-1725.5 665.5,-1725.5 "/>
<text text-anchor="middle" x="645" y="-1713.5" font-family="Helvetica,sans-Serif" font-size="10.00"> </text>
<polyline fill="none" stroke="#bfbfbf" points="624.5,-1706.5 665.5,-1706.5 "/>
<text text-anchor="middle" x="645" y="-1694.5" font-family="Helvetica,sans-Serif" font-size="10.00"> </text>
</g>
<!-- Node6&#45;&gt;Node2 -->
<g id="edge5" class="edge"><title>Node6&#45;&gt;Node2</title>
<path fill="none" stroke="#404040" d="M624.27,-1713.24C513.869,-1703.59 0,-1655.16 0,-1590 0,-1590 0,-1590 0,-397 0,-342.384 24.2687,-325.859 70,-296 190.119,-217.572 621.101,-165.69 796.719,-147.367"/>
<polygon fill="none" stroke="#404040" points="796.978,-147.34 802.535,-142.744 808.914,-146.105 803.358,-150.701 796.978,-147.34"/>
<text text-anchor="middle" x="11.5" y="-952.5" font-family="Helvetica,sans-Serif" font-size="10.00"> &#45;text</text>
</g>
<!-- Node6&#45;&gt;Node5 -->
<g id="edge4" class="edge"><title>Node6&#45;&gt;Node5</title>
<path fill="none" stroke="#404040" d="M624.314,-1709.91C576.941,-1698.01 457.249,-1666.48 361,-1629 350.64,-1624.97 339.774,-1620.16 329.485,-1615.32"/>
<polygon fill="none" stroke="#404040" points="329.416,-1615.28 322.276,-1616.29 318.599,-1610.09 325.74,-1609.08 329.416,-1615.28"/>
<text text-anchor="middle" x="492" y="-1661" font-family="Helvetica,sans-Serif" font-size="10.00"> #desc</text>
<text text-anchor="middle" x="492" y="-1650" font-family="Helvetica,sans-Serif" font-size="10.00">#name</text>
</g>
<!-- Node9 -->
<g id="node8" class="node"><title>Node9</title>
<g id="a_node8"><a xlink:href="class_character.html" target="_top" xlink:title="Base abstract class for Enemy and Player to inherit from. Defines all shared variables, their constructor and their setters and getters ">
<polygon fill="none" stroke="black" points="475.5,-518.5 475.5,-696.5 570.5,-696.5 570.5,-518.5 475.5,-518.5"/>
<text text-anchor="middle" x="523" y="-684.5" font-family="Helvetica,sans-Serif" font-size="10.00">Character</text>
<polyline fill="none" stroke="black" points="475.5,-677.5 570.5,-677.5 "/>
<text text-anchor="start" x="483.5" y="-665.5" font-family="Helvetica,sans-Serif" font-size="10.00">+ Name</text>
<text text-anchor="start" x="483.5" y="-654.5" font-family="Helvetica,sans-Serif" font-size="10.00">+ Level</text>
<text text-anchor="start" x="483.5" y="-643.5" font-family="Helvetica,sans-Serif" font-size="10.00">+ Health</text>
<text text-anchor="start" x="483.5" y="-632.5" font-family="Helvetica,sans-Serif" font-size="10.00">+ Attack</text>
<text text-anchor="start" x="483.5" y="-621.5" font-family="Helvetica,sans-Serif" font-size="10.00">+ Defence</text>
<text text-anchor="start" x="483.5" y="-610.5" font-family="Helvetica,sans-Serif" font-size="10.00">+ MaximumMagic</text>
<text text-anchor="start" x="483.5" y="-599.5" font-family="Helvetica,sans-Serif" font-size="10.00">+ Magic</text>
<text text-anchor="start" x="483.5" y="-588.5" font-family="Helvetica,sans-Serif" font-size="10.00">+ Luck</text>
<text text-anchor="start" x="483.5" y="-577.5" font-family="Helvetica,sans-Serif" font-size="10.00">+ Speed</text>
<text text-anchor="start" x="483.5" y="-566.5" font-family="Helvetica,sans-Serif" font-size="10.00">+ Special1</text>
<text text-anchor="start" x="483.5" y="-555.5" font-family="Helvetica,sans-Serif" font-size="10.00">+ Special2</text>
<text text-anchor="start" x="483.5" y="-544.5" font-family="Helvetica,sans-Serif" font-size="10.00">+ Image</text>
<polyline fill="none" stroke="black" points="475.5,-537.5 570.5,-537.5 "/>
<text text-anchor="start" x="483.5" y="-525.5" font-family="Helvetica,sans-Serif" font-size="10.00"># Character()</text>
</a>
</g>
</g>
<!-- Node6&#45;&gt;Node9 -->
<g id="edge9" class="edge"><title>Node6&#45;&gt;Node9</title>
<path fill="none" stroke="#404040" d="M665.738,-1714.91C728.962,-1713.43 915,-1699.77 915,-1590 915,-1590 915,-1590 915,-1056 915,-992.706 924.214,-971.148 895,-915 882.99,-891.917 744.051,-771.583 724,-755 677.373,-716.438 621.568,-676.198 580.604,-647.671"/>
<polygon fill="none" stroke="#404040" points="580.383,-647.518 573.173,-647.385 570.523,-640.679 577.733,-640.812 580.383,-647.518"/>
<text text-anchor="middle" x="931.5" y="-1211.5" font-family="Helvetica,sans-Serif" font-size="10.00"> #name</text>
</g>
<!-- Node11 -->
<g id="node10" class="node"><title>Node11</title>
<g id="a_node10"><a xlink:href="class_special_move.html" target="_top" xlink:title="Special move abstract base class that expands upon CharacterMove, adding magic properties ...">
<polygon fill="none" stroke="black" points="474,-755.5 474,-856.5 572,-856.5 572,-755.5 474,-755.5"/>
<text text-anchor="middle" x="523" y="-844.5" font-family="Helvetica,sans-Serif" font-size="10.00">SpecialMove</text>
<polyline fill="none" stroke="black" points="474,-837.5 572,-837.5 "/>
<text text-anchor="start" x="482" y="-825.5" font-family="Helvetica,sans-Serif" font-size="10.00">+ Magic</text>
<text text-anchor="start" x="482" y="-814.5" font-family="Helvetica,sans-Serif" font-size="10.00">+ Desc</text>
<text text-anchor="start" x="482" y="-803.5" font-family="Helvetica,sans-Serif" font-size="10.00">+ Special</text>
<polyline fill="none" stroke="black" points="474,-796.5 572,-796.5 "/>
<text text-anchor="start" x="482" y="-784.5" font-family="Helvetica,sans-Serif" font-size="10.00">+ setUp()</text>
<text text-anchor="start" x="482" y="-773.5" font-family="Helvetica,sans-Serif" font-size="10.00">+ decreaseMagic()</text>
<text text-anchor="start" x="482" y="-762.5" font-family="Helvetica,sans-Serif" font-size="10.00"># SpecialMove()</text>
</a>
</g>
</g>
<!-- Node6&#45;&gt;Node11 -->
<g id="edge24" class="edge"><title>Node6&#45;&gt;Node11</title>
<path fill="none" stroke="#404040" d="M628.517,-1687.22C605.077,-1646.04 563.066,-1565.6 546,-1491 494.693,-1266.71 507.846,-990.361 517.297,-869.049"/>
<polygon fill="none" stroke="#404040" points="517.323,-868.723 513.817,-862.422 518.284,-856.761 521.791,-863.062 517.323,-868.723"/>
<text text-anchor="middle" x="537" y="-1335.5" font-family="Helvetica,sans-Serif" font-size="10.00"> #desc</text>
</g>
<!-- Node12 -->
<g id="node11" class="node"><title>Node12</title>
<g id="a_node11"><a xlink:href="class_character_move.html" target="_top" xlink:title="Astract base class for character moves ">
<polygon fill="none" stroke="black" points="645,-915.5 645,-994.5 731,-994.5 731,-915.5 645,-915.5"/>
<text text-anchor="middle" x="688" y="-982.5" font-family="Helvetica,sans-Serif" font-size="10.00">CharacterMove</text>
<polyline fill="none" stroke="black" points="645,-975.5 731,-975.5 "/>
<text text-anchor="start" x="653" y="-963.5" font-family="Helvetica,sans-Serif" font-size="10.00">+ User</text>
<text text-anchor="start" x="653" y="-952.5" font-family="Helvetica,sans-Serif" font-size="10.00">+ Target</text>
<text text-anchor="start" x="653" y="-941.5" font-family="Helvetica,sans-Serif" font-size="10.00">+ Text</text>
<polyline fill="none" stroke="black" points="645,-934.5 731,-934.5 "/>
<text text-anchor="start" x="653" y="-922.5" font-family="Helvetica,sans-Serif" font-size="10.00">+ performMove()</text>
</a>
</g>
</g>
<!-- Node6&#45;&gt;Node12 -->
<g id="edge13" class="edge"><title>Node6&#45;&gt;Node12</title>
<path fill="none" stroke="#404040" d="M665.645,-1704.48C698.496,-1686.08 759,-1644.78 759,-1590 759,-1590 759,-1590 759,-1213 759,-1123.36 767.806,-1095.6 733,-1013 731.885,-1010.35 730.612,-1007.73 729.217,-1005.14"/>
<polygon fill="none" stroke="#404040" points="729.133,-1005 722.598,-1001.95 722.9,-994.742 729.435,-997.792 729.133,-1005"/>
<text text-anchor="middle" x="771.5" y="-1426.5" font-family="Helvetica,sans-Serif" font-size="10.00"> #text</text>
</g>
<!-- Node13 -->
<g id="node12" class="node"><title>Node13</title>
<g id="a_node12"><a xlink:href="class_battle_manager.html" target="_top" xlink:title="Holds current Player and Enemy objects in battle and provides functions for MainBattle and other obje...">
<polygon fill="none" stroke="black" points="607,-1119.5 607,-1308.5 723,-1308.5 723,-1119.5 607,-1119.5"/>
<text text-anchor="middle" x="665" y="-1296.5" font-family="Helvetica,sans-Serif" font-size="10.00">BattleManager</text>
<polyline fill="none" stroke="black" points="607,-1289.5 723,-1289.5 "/>
<text text-anchor="start" x="615" y="-1277.5" font-family="Helvetica,sans-Serif" font-size="10.00">+ Player</text>
<text text-anchor="start" x="615" y="-1266.5" font-family="Helvetica,sans-Serif" font-size="10.00">+ Enemy</text>
<text text-anchor="start" x="615" y="-1255.5" font-family="Helvetica,sans-Serif" font-size="10.00">+ WasCriticalHit</text>
<polyline fill="none" stroke="black" points="607,-1248.5 723,-1248.5 "/>
<text text-anchor="start" x="615" y="-1236.5" font-family="Helvetica,sans-Serif" font-size="10.00">+ BattleManager()</text>
<text text-anchor="start" x="615" y="-1225.5" font-family="Helvetica,sans-Serif" font-size="10.00">+ playerFirst()</text>
<text text-anchor="start" x="615" y="-1214.5" font-family="Helvetica,sans-Serif" font-size="10.00">+ switchPlayers()</text>
<text text-anchor="start" x="615" y="-1203.5" font-family="Helvetica,sans-Serif" font-size="10.00">+ isCriticalHit()</text>
<text text-anchor="start" x="615" y="-1192.5" font-family="Helvetica,sans-Serif" font-size="10.00">+ ranAway()</text>
<text text-anchor="start" x="615" y="-1181.5" font-family="Helvetica,sans-Serif" font-size="10.00">+ damageCalculation()</text>
<text text-anchor="start" x="615" y="-1170.5" font-family="Helvetica,sans-Serif" font-size="10.00">+ enemyMove()</text>
<text text-anchor="start" x="615" y="-1159.5" font-family="Helvetica,sans-Serif" font-size="10.00">+ enemySpecialMove()</text>
<text text-anchor="start" x="615" y="-1148.5" font-family="Helvetica,sans-Serif" font-size="10.00">+ battleWon()</text>
<text text-anchor="start" x="615" y="-1137.5" font-family="Helvetica,sans-Serif" font-size="10.00">+ playerFainted()</text>
<text text-anchor="start" x="615" y="-1126.5" font-family="Helvetica,sans-Serif" font-size="10.00">&#45; characterFainted()</text>
</a>
</g>
</g>
<!-- Node6&#45;&gt;Node13 -->
<g id="edge16" class="edge"><title>Node6&#45;&gt;Node13</title>
<path fill="none" stroke="#404040" d="M646.104,-1687.41C648.846,-1618.84 656.086,-1437.86 660.766,-1320.85"/>
<polygon fill="none" stroke="#404040" points="660.773,-1320.67 657.016,-1314.52 661.253,-1308.68 665.01,-1314.84 660.773,-1320.67"/>
<text text-anchor="middle" x="696" y="-1523" font-family="Helvetica,sans-Serif" font-size="10.00"> +forceEnemyMove</text>
<text text-anchor="middle" x="696" y="-1512" font-family="Helvetica,sans-Serif" font-size="10.00">+forceCriticalHits</text>
</g>
<!-- Node6&#45;&gt;Node19 -->
<g id="edge34" class="edge"><title>Node6&#45;&gt;Node19</title>
<path fill="none" stroke="#404040" d="M665.516,-1715.17C770.316,-1715.49 1241,-1710.26 1241,-1590 1241,-1590 1241,-1590 1241,-954 1241,-897.963 1187.02,-856.988 1142.57,-832.744"/>
<polygon fill="none" stroke="#404040" points="1142.43,-832.669 1135.26,-833.421 1131.81,-827.089 1138.98,-826.338 1142.43,-832.669"/>
<text text-anchor="middle" x="1268" y="-1341" font-family="Helvetica,sans-Serif" font-size="10.00"> &#45;textHeader</text>
<text text-anchor="middle" x="1268" y="-1330" font-family="Helvetica,sans-Serif" font-size="10.00">&#45;textFooter</text>
</g>
<!-- Node7 -->
<g id="node6" class="node"><title>Node7</title>
<polygon fill="none" stroke="#bfbfbf" points="1052.5,-369.5 1052.5,-426.5 1123.5,-426.5 1123.5,-369.5 1052.5,-369.5"/>
<text text-anchor="middle" x="1088" y="-414.5" font-family="Helvetica,sans-Serif" font-size="10.00">GameObject</text>
<polyline fill="none" stroke="#bfbfbf" points="1052.5,-407.5 1123.5,-407.5 "/>
<text text-anchor="middle" x="1088" y="-395.5" font-family="Helvetica,sans-Serif" font-size="10.00"> </text>
<polyline fill="none" stroke="#bfbfbf" points="1052.5,-388.5 1123.5,-388.5 "/>
<text text-anchor="middle" x="1088" y="-376.5" font-family="Helvetica,sans-Serif" font-size="10.00"> </text>
</g>
<!-- Node7&#45;&gt;Node2 -->
<g id="edge6" class="edge"><title>Node7&#45;&gt;Node2</title>
<path fill="none" stroke="#404040" d="M1071.94,-369.471C1059.32,-348.606 1040.79,-319.599 1022,-296 998.139,-266.024 969.487,-235.176 943.647,-208.908"/>
<polygon fill="none" stroke="#404040" points="943.448,-208.708 936.384,-207.261 935.002,-200.183 942.067,-201.63 943.448,-208.708"/>
<text text-anchor="middle" x="1092" y="-343" font-family="Helvetica,sans-Serif" font-size="10.00"> &#45;enemyStats</text>
<text text-anchor="middle" x="1092" y="-332" font-family="Helvetica,sans-Serif" font-size="10.00">&#45;playerCamera</text>
<text text-anchor="middle" x="1092" y="-321" font-family="Helvetica,sans-Serif" font-size="10.00">&#45;attacksPanel</text>
<text text-anchor="middle" x="1092" y="-310" font-family="Helvetica,sans-Serif" font-size="10.00">&#45;playerStats</text>
<text text-anchor="middle" x="1092" y="-299" font-family="Helvetica,sans-Serif" font-size="10.00">&#45;globalData</text>
</g>
<!-- Node8 -->
<g id="node7" class="node"><title>Node8</title>
<g id="a_node7"><a xlink:href="class_enemy.html" target="_top" xlink:title="Defines an AI controller enemy to fight in battle scenes">
<polygon fill="none" stroke="black" points="390.5,-369.5 390.5,-426.5 457.5,-426.5 457.5,-369.5 390.5,-369.5"/>
<text text-anchor="middle" x="424" y="-414.5" font-family="Helvetica,sans-Serif" font-size="10.00">Enemy</text>
<polyline fill="none" stroke="black" points="390.5,-407.5 457.5,-407.5 "/>
<text text-anchor="start" x="398.5" y="-395.5" font-family="Helvetica,sans-Serif" font-size="10.00">+ ExpGiven</text>
<polyline fill="none" stroke="black" points="390.5,-388.5 457.5,-388.5 "/>
<text text-anchor="start" x="398.5" y="-376.5" font-family="Helvetica,sans-Serif" font-size="10.00">+ Enemy()</text>
</a>
</g>
</g>
<!-- Node8&#45;&gt;Node2 -->
<g id="edge7" class="edge"><title>Node8&#45;&gt;Node2</title>
<path fill="none" stroke="#404040" d="M457.673,-377.683C529.63,-336.404 699.828,-238.768 798.242,-182.312"/>
<polygon fill="none" stroke="#404040" points="798.296,-182.281 801.51,-175.826 808.705,-176.31 805.491,-182.765 798.296,-182.281"/>
<text text-anchor="middle" x="627" y="-326.5" font-family="Helvetica,sans-Serif" font-size="10.00"> &#45;enemyObject</text>
<text text-anchor="middle" x="627" y="-315.5" font-family="Helvetica,sans-Serif" font-size="10.00">&#45;enemy</text>
</g>
<!-- Node8&#45;&gt;Node13 -->
<g id="edge17" class="edge"><title>Node8&#45;&gt;Node13</title>
<path fill="none" stroke="#404040" d="M418.991,-426.67C406.965,-499.271 380.879,-700.419 429,-857 446.619,-914.331 536.205,-1041.36 599.771,-1127.1"/>
<polygon fill="none" stroke="#404040" points="599.84,-1127.2 606.629,-1129.63 606.998,-1136.83 600.209,-1134.4 599.84,-1127.2"/>
<text text-anchor="middle" x="447" y="-803.5" font-family="Helvetica,sans-Serif" font-size="10.00"> &#45;enemy</text>
</g>
<!-- Node9&#45;&gt;Node8 -->
<g id="edge8" class="edge"><title>Node9&#45;&gt;Node8</title>
<path fill="none" stroke="midnightblue" d="M476.439,-508.911C462.107,-478.87 447.444,-448.138 437.281,-426.837"/>
<polygon fill="none" stroke="midnightblue" points="473.407,-510.682 480.872,-518.2 479.724,-507.668 473.407,-510.682"/>
</g>
<!-- Node9&#45;&gt;Node12 -->
<g id="edge14" class="edge"><title>Node9&#45;&gt;Node12</title>
<path fill="none" stroke="#404040" d="M570.602,-644.952C601.761,-671.733 640.24,-711.005 660,-755 681.226,-802.259 687.249,-861.647 688.564,-903.193"/>
<polygon fill="none" stroke="#404040" points="688.564,-903.216 692.695,-909.126 688.829,-915.213 684.697,-909.303 688.564,-903.216"/>
<text text-anchor="middle" x="703" y="-809" font-family="Helvetica,sans-Serif" font-size="10.00"> #target</text>
<text text-anchor="middle" x="703" y="-798" font-family="Helvetica,sans-Serif" font-size="10.00">#user</text>
</g>
<!-- Node9&#45;&gt;Node15 -->
<g id="edge21" class="edge"><title>Node9&#45;&gt;Node15</title>
<path fill="none" stroke="midnightblue" d="M466.608,-644.548C430.376,-670.755 385.478,-709.517 360,-755 331.286,-806.26 336,-826.246 336,-885 336,-1215 336,-1215 336,-1215 336,-1266.44 333.641,-1324.81 331.486,-1367.43"/>
<polygon fill="none" stroke="midnightblue" points="469.012,-647.133 475.14,-638.49 464.96,-641.425 469.012,-647.133"/>
</g>
<!-- Node10 -->
<g id="node9" class="node"><title>Node10</title>
<polygon fill="none" stroke="#bfbfbf" points="370.5,-1560.5 370.5,-1617.5 399.5,-1617.5 399.5,-1560.5 370.5,-1560.5"/>
<text text-anchor="middle" x="385" y="-1605.5" font-family="Helvetica,sans-Serif" font-size="10.00">int</text>
<polyline fill="none" stroke="#bfbfbf" points="370.5,-1598.5 399.5,-1598.5 "/>
<text text-anchor="middle" x="385" y="-1586.5" font-family="Helvetica,sans-Serif" font-size="10.00"> </text>
<polyline fill="none" stroke="#bfbfbf" points="370.5,-1579.5 399.5,-1579.5 "/>
<text text-anchor="middle" x="385" y="-1567.5" font-family="Helvetica,sans-Serif" font-size="10.00"> </text>
</g>
<!-- Node10&#45;&gt;Node2 -->
<g id="edge31" class="edge"><title>Node10&#45;&gt;Node2</title>
<path fill="none" stroke="#404040" d="M370.164,-1575.72C358.956,-1567.03 342.843,-1555.77 327,-1549 292.692,-1534.33 278.22,-1547.99 245,-1531 185.028,-1500.33 132,-1497.36 132,-1430 132,-1430 132,-1430 132,-397 132,-257.268 608.789,-176.271 796.94,-149.748"/>
<polygon fill="none" stroke="#404040" points="797.023,-149.737 802.413,-144.946 808.908,-148.08 803.518,-152.87 797.023,-149.737"/>
<text text-anchor="middle" x="166" y="-883.5" font-family="Helvetica,sans-Serif" font-size="10.00"> &#45;moneyReward</text>
</g>
<!-- Node10&#45;&gt;Node8 -->
<g id="edge28" class="edge"><title>Node10&#45;&gt;Node8</title>
<path fill="none" stroke="#404040" d="M370.401,-1576.59C359.053,-1568.12 342.659,-1556.75 327,-1549 304.705,-1537.96 293.269,-1546.73 274,-1531 233.732,-1498.12 215,-1481.99 215,-1430 215,-1430 215,-1430 215,-954 215,-865.337 204.014,-840.07 229,-755 265.871,-629.465 351.828,-498.767 396.278,-436.425"/>
<polygon fill="none" stroke="#404040" points="396.294,-436.403 396.55,-429.197 403.3,-426.661 403.045,-433.868 396.294,-436.403"/>
<text text-anchor="middle" x="238" y="-952.5" font-family="Helvetica,sans-Serif" font-size="10.00"> &#45;expGiven</text>
</g>
<!-- Node10&#45;&gt;Node9 -->
<g id="edge10" class="edge"><title>Node10&#45;&gt;Node9</title>
<path fill="none" stroke="#404040" d="M395.919,-1560.28C399.079,-1551.1 402.168,-1540.74 404,-1531 467.96,-1191.01 377.433,-1089.69 465,-755 469,-739.711 474.149,-723.861 479.724,-708.483"/>
<polygon fill="none" stroke="#404040" points="479.874,-708.079 478.217,-701.061 484.058,-696.832 485.715,-703.85 479.874,-708.079"/>
<text text-anchor="middle" x="462.5" y="-1093" font-family="Helvetica,sans-Serif" font-size="10.00"> #speed</text>
<text text-anchor="middle" x="462.5" y="-1082" font-family="Helvetica,sans-Serif" font-size="10.00">#luck</text>
<text text-anchor="middle" x="462.5" y="-1071" font-family="Helvetica,sans-Serif" font-size="10.00">#health</text>
<text text-anchor="middle" x="462.5" y="-1060" font-family="Helvetica,sans-Serif" font-size="10.00">#magic</text>
<text text-anchor="middle" x="462.5" y="-1049" font-family="Helvetica,sans-Serif" font-size="10.00">#maximumMagic</text>
<text text-anchor="middle" x="462.5" y="-1038" font-family="Helvetica,sans-Serif" font-size="10.00">#attack</text>
<text text-anchor="middle" x="462.5" y="-1027" font-family="Helvetica,sans-Serif" font-size="10.00">#defence</text>
<text text-anchor="middle" x="462.5" y="-1016" font-family="Helvetica,sans-Serif" font-size="10.00">#level</text>
</g>
<!-- Node10&#45;&gt;Node11 -->
<g id="edge26" class="edge"><title>Node10&#45;&gt;Node11</title>
<path fill="none" stroke="#404040" d="M399.738,-1571.61C409.403,-1560.52 422.046,-1545.32 432,-1531 480.068,-1461.83 482.504,-1438.52 527,-1367 532.079,-1358.84 536.214,-1358.2 539,-1349 565.671,-1260.91 542.264,-991.185 529.72,-868.684"/>
<polygon fill="none" stroke="#404040" points="529.704,-868.533 525.107,-862.977 528.468,-856.597 533.065,-862.153 529.704,-868.533"/>
<text text-anchor="middle" x="569.5" y="-1211.5" font-family="Helvetica,sans-Serif" font-size="10.00"> #magic</text>
</g>
<!-- Node10&#45;&gt;Node13 -->
<g id="edge18" class="edge"><title>Node10&#45;&gt;Node13</title>
<path fill="none" stroke="#404040" d="M399.713,-1584.6C424.82,-1578.13 476.291,-1561.86 508,-1531 512.291,-1526.82 569.933,-1409.82 614.14,-1319.39"/>
<polygon fill="none" stroke="#404040" points="614.19,-1319.29 613.231,-1312.14 619.459,-1308.51 620.419,-1315.66 614.19,-1319.29"/>
<text text-anchor="middle" x="609.5" y="-1426.5" font-family="Helvetica,sans-Serif" font-size="10.00"> +money</text>
</g>
<!-- Node10&#45;&gt;Node15 -->
<g id="edge23" class="edge"><title>Node10&#45;&gt;Node15</title>
<path fill="none" stroke="#404040" d="M370.356,-1578.24C356.762,-1568.21 337.399,-1551.25 329,-1531 325.339,-1522.17 323.191,-1512.53 322.078,-1502.81"/>
<polygon fill="none" stroke="#404040" points="322.055,-1502.49 317.631,-1496.8 321.186,-1490.53 325.61,-1496.22 322.055,-1502.49"/>
<text text-anchor="middle" x="366.5" y="-1523" font-family="Helvetica,sans-Serif" font-size="10.00"> &#45;expToNextLevel</text>
<text text-anchor="middle" x="366.5" y="-1512" font-family="Helvetica,sans-Serif" font-size="10.00">&#45;exp</text>
</g>
<!-- Node11&#45;&gt;Node9 -->
<g id="edge11" class="edge"><title>Node11&#45;&gt;Node9</title>
<path fill="none" stroke="#404040" d="M523,-755.415C523,-741.191 523,-725.146 523,-709.019"/>
<polygon fill="none" stroke="#404040" points="523,-708.7 519,-702.7 523,-696.7 527,-702.7 523,-708.7"/>
<text text-anchor="middle" x="545.5" y="-729" font-family="Helvetica,sans-Serif" font-size="10.00"> #special1</text>
<text text-anchor="middle" x="545.5" y="-718" font-family="Helvetica,sans-Serif" font-size="10.00">#special2</text>
</g>
<!-- Node12&#45;&gt;Node2 -->
<g id="edge30" class="edge"><title>Node12&#45;&gt;Node2</title>
<path fill="none" stroke="#404040" d="M714.294,-915.302C731.192,-886.682 750,-846.054 750,-807 750,-807 750,-807 750,-397 750,-339.603 775.14,-281.357 802.596,-234.86"/>
<polygon fill="none" stroke="#404040" points="802.643,-234.784 802.327,-227.58 808.856,-224.518 809.171,-231.722 802.643,-234.784"/>
<text text-anchor="middle" x="777.5" y="-610.5" font-family="Helvetica,sans-Serif" font-size="10.00"> &#45;playerMove</text>
<text text-anchor="middle" x="777.5" y="-599.5" font-family="Helvetica,sans-Serif" font-size="10.00">&#45;enemyMove</text>
</g>
<!-- Node12&#45;&gt;Node11 -->
<g id="edge12" class="edge"><title>Node12&#45;&gt;Node11</title>
<path fill="none" stroke="midnightblue" d="M636.91,-908.484C616.294,-890.116 592.601,-869.008 572.181,-850.816"/>
<polygon fill="none" stroke="midnightblue" points="634.853,-911.339 644.648,-915.377 639.51,-906.112 634.853,-911.339"/>
</g>
<!-- Node13&#45;&gt;Node2 -->
<g id="edge40" class="edge"><title>Node13&#45;&gt;Node2</title>
<path fill="none" stroke="#404040" d="M723.011,-1123.65C726.716,-1116.14 730.111,-1108.54 733,-1101 788.537,-956.01 836.118,-522.118 858.438,-290.15"/>
<polygon fill="none" stroke="#404040" points="858.468,-289.84 855.058,-283.486 859.612,-277.895 863.022,-284.249 858.468,-289.84"/>
<text text-anchor="middle" x="833.5" y="-723.5" font-family="Helvetica,sans-Serif" font-size="10.00"> +manager</text>
</g>
<!-- Node13&#45;&gt;Node12 -->
<g id="edge15" class="edge"><title>Node13&#45;&gt;Node12</title>
<path fill="none" stroke="#404040" d="M673.369,-1119.49C676.77,-1081.48 680.568,-1039.05 683.441,-1006.94"/>
<polygon fill="none" stroke="#404040" points="683.464,-1006.68 680.015,-1000.35 684.534,-994.732 687.983,-1001.06 683.464,-1006.68"/>
<text text-anchor="middle" x="706" y="-1054.5" font-family="Helvetica,sans-Serif" font-size="10.00"> #manager</text>
</g>
<!-- Node14 -->
<g id="node13" class="node"><title>Node14</title>
<polygon fill="none" stroke="#bfbfbf" points="804.5,-1400.5 804.5,-1457.5 839.5,-1457.5 839.5,-1400.5 804.5,-1400.5"/>
<text text-anchor="middle" x="822" y="-1445.5" font-family="Helvetica,sans-Serif" font-size="10.00">bool</text>
<polyline fill="none" stroke="#bfbfbf" points="804.5,-1438.5 839.5,-1438.5 "/>
<text text-anchor="middle" x="822" y="-1426.5" font-family="Helvetica,sans-Serif" font-size="10.00"> </text>
<polyline fill="none" stroke="#bfbfbf" points="804.5,-1419.5 839.5,-1419.5 "/>
<text text-anchor="middle" x="822" y="-1407.5" font-family="Helvetica,sans-Serif" font-size="10.00"> </text>
</g>
<!-- Node14&#45;&gt;Node2 -->
<g id="edge38" class="edge"><title>Node14&#45;&gt;Node2</title>
<path fill="none" stroke="#404040" d="M820.882,-1400.23C818.026,-1319.02 812.379,-1075.07 838,-875 846.573,-808.056 872,-794.491 872,-727 872,-727 872,-727 872,-397 872,-362.376 872,-325.128 872,-290.029"/>
<polygon fill="none" stroke="#404040" points="872,-289.711 868,-283.711 872,-277.711 876,-283.711 872,-289.711"/>
<text text-anchor="middle" x="900.5" y="-814.5" font-family="Helvetica,sans-Serif" font-size="10.00"> +playerDied</text>
<text text-anchor="middle" x="900.5" y="-803.5" font-family="Helvetica,sans-Serif" font-size="10.00">&#45;moveChosen</text>
<text text-anchor="middle" x="900.5" y="-792.5" font-family="Helvetica,sans-Serif" font-size="10.00">&#45;gorillaMove</text>
</g>
<!-- Node14&#45;&gt;Node13 -->
<g id="edge19" class="edge"><title>Node14&#45;&gt;Node13</title>
<path fill="none" stroke="#404040" d="M811.508,-1400.32C805.979,-1388.77 798.196,-1375.97 788,-1367 771.826,-1352.77 759.306,-1363.07 743,-1349 732.835,-1340.23 723.669,-1329.78 715.5,-1318.65"/>
<polygon fill="none" stroke="#404040" points="715.439,-1318.57 708.726,-1315.93 708.577,-1308.72 715.289,-1311.36 715.439,-1318.57"/>
<text text-anchor="middle" x="776" y="-1335.5" font-family="Helvetica,sans-Serif" font-size="10.00"> &#45;wasCriticalHit</text>
</g>
<!-- Node15&#45;&gt;Node2 -->
<g id="edge41" class="edge"><title>Node15&#45;&gt;Node2</title>
<path fill="none" stroke="#404040" d="M320.582,-1367.46C301.284,-1209.08 251,-790.321 251,-727 251,-727 251,-727 251,-397 251,-280.109 631.398,-188.763 796.749,-154.578"/>
<polygon fill="none" stroke="#404040" points="796.994,-154.528 802.069,-149.405 808.749,-152.119 803.674,-157.242 796.994,-154.528"/>
<text text-anchor="middle" x="290.5" y="-814.5" font-family="Helvetica,sans-Serif" font-size="10.00"> &#45;playerArray</text>
<text text-anchor="middle" x="290.5" y="-803.5" font-family="Helvetica,sans-Serif" font-size="10.00">+player</text>
<text text-anchor="middle" x="290.5" y="-792.5" font-family="Helvetica,sans-Serif" font-size="10.00">&#45;originalCopy</text>
</g>
<!-- Node15&#45;&gt;Node13 -->
<g id="edge20" class="edge"><title>Node15&#45;&gt;Node13</title>
<path fill="none" stroke="#404040" d="M384.272,-1371.55C404.386,-1354.53 428.241,-1337.58 453,-1327 510.691,-1302.35 538.636,-1340.31 593,-1309 594.353,-1308.22 595.689,-1307.41 597.007,-1306.56"/>
<polygon fill="none" stroke="#404040" points="597.082,-1306.5 599.575,-1299.74 606.78,-1299.43 604.287,-1306.2 597.082,-1306.5"/>
<text text-anchor="middle" x="469.5" y="-1335.5" font-family="Helvetica,sans-Serif" font-size="10.00"> &#45;player</text>
</g>
<!-- Node16 -->
<g id="node15" class="node"><title>Node16</title>
<polygon fill="none" stroke="#bfbfbf" points="851.5,-926.5 851.5,-983.5 886.5,-983.5 886.5,-926.5 851.5,-926.5"/>
<text text-anchor="middle" x="869" y="-971.5" font-family="Helvetica,sans-Serif" font-size="10.00">float</text>
<polyline fill="none" stroke="#bfbfbf" points="851.5,-964.5 886.5,-964.5 "/>
<text text-anchor="middle" x="869" y="-952.5" font-family="Helvetica,sans-Serif" font-size="10.00"> </text>
<polyline fill="none" stroke="#bfbfbf" points="851.5,-945.5 886.5,-945.5 "/>
<text text-anchor="middle" x="869" y="-933.5" font-family="Helvetica,sans-Serif" font-size="10.00"> </text>
</g>
<!-- Node16&#45;&gt;Node11 -->
<g id="edge25" class="edge"><title>Node16&#45;&gt;Node11</title>
<path fill="none" stroke="#404040" d="M851.1,-948.414C796.759,-931.398 634.671,-880.215 582.918,-856.842"/>
<polygon fill="none" stroke="#404040" points="582.789,-856.778 575.633,-857.673 572.055,-851.412 579.211,-850.517 582.789,-856.778"/>
<text text-anchor="middle" x="708" y="-883.5" font-family="Helvetica,sans-Serif" font-size="10.00"> #special</text>
</g>
<!-- Node16&#45;&gt;Node19 -->
<g id="edge37" class="edge"><title>Node16&#45;&gt;Node19</title>
<path fill="none" stroke="#404040" d="M886.676,-941.97C917.183,-921.208 980.967,-877.8 1028,-845.792"/>
<polygon fill="none" stroke="#404040" points="1028.14,-845.695 1030.85,-839.012 1038.06,-838.944 1035.35,-845.626 1028.14,-845.695"/>
<text text-anchor="middle" x="1014.5" y="-889" font-family="Helvetica,sans-Serif" font-size="10.00"> &#45;widthPerUnit</text>
<text text-anchor="middle" x="1014.5" y="-878" font-family="Helvetica,sans-Serif" font-size="10.00">&#45;initialWidth</text>
</g>
<!-- Node17 -->
<g id="node16" class="node"><title>Node17</title>
<polygon fill="none" stroke="#bfbfbf" points="590.5,-777.5 590.5,-834.5 651.5,-834.5 651.5,-777.5 590.5,-777.5"/>
<text text-anchor="middle" x="621" y="-822.5" font-family="Helvetica,sans-Serif" font-size="10.00">Texture2D</text>
<polyline fill="none" stroke="#bfbfbf" points="590.5,-815.5 651.5,-815.5 "/>
<text text-anchor="middle" x="621" y="-803.5" font-family="Helvetica,sans-Serif" font-size="10.00"> </text>
<polyline fill="none" stroke="#bfbfbf" points="590.5,-796.5 651.5,-796.5 "/>
<text text-anchor="middle" x="621" y="-784.5" font-family="Helvetica,sans-Serif" font-size="10.00"> </text>
</g>
<!-- Node17&#45;&gt;Node9 -->
<g id="edge27" class="edge"><title>Node17&#45;&gt;Node9</title>
<path fill="none" stroke="#404040" d="M607.167,-777.263C597.934,-758.75 585.179,-733.176 572.39,-707.531"/>
<polygon fill="none" stroke="#404040" points="572.272,-707.296 566.015,-703.711 566.916,-696.557 573.174,-700.141 572.272,-707.296"/>
<text text-anchor="middle" x="604.5" y="-723.5" font-family="Helvetica,sans-Serif" font-size="10.00"> #image</text>
</g>
<!-- Node18 -->
<g id="node17" class="node"><title>Node18</title>
<polygon fill="none" stroke="#bfbfbf" points="1141.5,-369.5 1141.5,-426.5 1184.5,-426.5 1184.5,-369.5 1141.5,-369.5"/>
<text text-anchor="middle" x="1163" y="-414.5" font-family="Helvetica,sans-Serif" font-size="10.00">Image</text>
<polyline fill="none" stroke="#bfbfbf" points="1141.5,-407.5 1184.5,-407.5 "/>
<text text-anchor="middle" x="1163" y="-395.5" font-family="Helvetica,sans-Serif" font-size="10.00"> </text>
<polyline fill="none" stroke="#bfbfbf" points="1141.5,-388.5 1184.5,-388.5 "/>
<text text-anchor="middle" x="1163" y="-376.5" font-family="Helvetica,sans-Serif" font-size="10.00"> </text>
</g>
<!-- Node18&#45;&gt;Node2 -->
<g id="edge29" class="edge"><title>Node18&#45;&gt;Node2</title>
<path fill="none" stroke="#404040" d="M1158.68,-369.212C1154.12,-347.387 1145.12,-317.237 1128,-296 1080.15,-236.649 1003.24,-194.142 946.194,-168.636"/>
<polygon fill="none" stroke="#404040" points="946.056,-168.576 938.955,-169.833 935.064,-163.762 942.165,-162.505 946.056,-168.576"/>
<text text-anchor="middle" x="1184.5" y="-326.5" font-family="Helvetica,sans-Serif" font-size="10.00"> &#45;enemySprite</text>
<text text-anchor="middle" x="1184.5" y="-315.5" font-family="Helvetica,sans-Serif" font-size="10.00">&#45;playerSprite</text>
</g>
<!-- Node19&#45;&gt;Node2 -->
<g id="edge32" class="edge"><title>Node19&#45;&gt;Node2</title>
<path fill="none" stroke="#404040" d="M1072.98,-766.304C1046.49,-681.158 980.904,-471.199 924,-296 923.272,-293.76 922.538,-291.502 921.797,-289.23"/>
<polygon fill="none" stroke="#404040" points="921.779,-289.175 916.113,-284.715 918.051,-277.769 923.717,-282.229 921.779,-289.175"/>
<text text-anchor="middle" x="1026" y="-492" font-family="Helvetica,sans-Serif" font-size="10.00"> &#45;expBar</text>
<text text-anchor="middle" x="1026" y="-481" font-family="Helvetica,sans-Serif" font-size="10.00">&#45;enemyMagicBar</text>
<text text-anchor="middle" x="1026" y="-470" font-family="Helvetica,sans-Serif" font-size="10.00">&#45;enemyHealthBar</text>
<text text-anchor="middle" x="1026" y="-459" font-family="Helvetica,sans-Serif" font-size="10.00">&#45;playerMagicBar</text>
<text text-anchor="middle" x="1026" y="-448" font-family="Helvetica,sans-Serif" font-size="10.00">&#45;playerHealthBar</text>
</g>
<!-- Node20 -->
<g id="node19" class="node"><title>Node20</title>
<polygon fill="none" stroke="#bfbfbf" points="1045,-926.5 1045,-983.5 1125,-983.5 1125,-926.5 1045,-926.5"/>
<text text-anchor="middle" x="1085" y="-971.5" font-family="Helvetica,sans-Serif" font-size="10.00">RectTransform</text>
<polyline fill="none" stroke="#bfbfbf" points="1045,-964.5 1125,-964.5 "/>
<text text-anchor="middle" x="1085" y="-952.5" font-family="Helvetica,sans-Serif" font-size="10.00"> </text>
<polyline fill="none" stroke="#bfbfbf" points="1045,-945.5 1125,-945.5 "/>
<text text-anchor="middle" x="1085" y="-933.5" font-family="Helvetica,sans-Serif" font-size="10.00"> </text>
</g>
<!-- Node20&#45;&gt;Node19 -->
<g id="edge35" class="edge"><title>Node20&#45;&gt;Node19</title>
<path fill="none" stroke="#404040" d="M1085,-926.35C1085,-907.034 1085,-880.683 1085,-857.654"/>
<polygon fill="none" stroke="#404040" points="1085,-857.62 1081,-851.62 1085,-845.62 1089,-851.619 1085,-857.62"/>
<text text-anchor="middle" x="1096.5" y="-883.5" font-family="Helvetica,sans-Serif" font-size="10.00"> &#45;rect</text>
</g>
<!-- Node21 -->
<g id="node20" class="node"><title>Node21</title>
<polygon fill="none" stroke="#bfbfbf" points="1143.5,-926.5 1143.5,-983.5 1212.5,-983.5 1212.5,-926.5 1143.5,-926.5"/>
<text text-anchor="middle" x="1178" y="-971.5" font-family="Helvetica,sans-Serif" font-size="10.00">UnityEngine</text>
<polyline fill="none" stroke="#bfbfbf" points="1143.5,-964.5 1212.5,-964.5 "/>
<text text-anchor="middle" x="1178" y="-952.5" font-family="Helvetica,sans-Serif" font-size="10.00"> </text>
<polyline fill="none" stroke="#bfbfbf" points="1143.5,-945.5 1212.5,-945.5 "/>
<text text-anchor="middle" x="1178" y="-933.5" font-family="Helvetica,sans-Serif" font-size="10.00"> </text>
</g>
<!-- Node21&#45;&gt;Node19 -->
<g id="edge36" class="edge"><title>Node21&#45;&gt;Node19</title>
<path fill="none" stroke="#404040" d="M1160.51,-926.35C1148.01,-906.589 1130.84,-879.465 1116.04,-856.067"/>
<polygon fill="none" stroke="#404040" points="1115.85,-855.76 1109.26,-852.829 1109.43,-845.62 1116.02,-848.551 1115.85,-855.76"/>
<text text-anchor="middle" x="1167.5" y="-883.5" font-family="Helvetica,sans-Serif" font-size="10.00"> &#45;textDisplay</text>
</g>
<!-- Node22 -->
<g id="node21" class="node"><title>Node22</title>
<polygon fill="none" stroke="#bfbfbf" points="1220.5,-369.5 1220.5,-426.5 1255.5,-426.5 1255.5,-369.5 1220.5,-369.5"/>
<text text-anchor="middle" x="1238" y="-414.5" font-family="Helvetica,sans-Serif" font-size="10.00">Text</text>
<polyline fill="none" stroke="#bfbfbf" points="1220.5,-407.5 1255.5,-407.5 "/>
<text text-anchor="middle" x="1238" y="-395.5" font-family="Helvetica,sans-Serif" font-size="10.00"> </text>
<polyline fill="none" stroke="#bfbfbf" points="1220.5,-388.5 1255.5,-388.5 "/>
<text text-anchor="middle" x="1238" y="-376.5" font-family="Helvetica,sans-Serif" font-size="10.00"> </text>
</g>
<!-- Node22&#45;&gt;Node2 -->
<g id="edge39" class="edge"><title>Node22&#45;&gt;Node2</title>
<path fill="none" stroke="#404040" d="M1238.47,-369.269C1237.44,-347.186 1232.7,-316.656 1216,-296 1148.36,-212.32 1026.12,-171.823 947.046,-153.529"/>
<polygon fill="none" stroke="#404040" points="946.934,-153.504 940.206,-156.098 935.223,-150.884 941.952,-148.291 946.934,-153.504"/>
<text text-anchor="middle" x="1257" y="-321" font-family="Helvetica,sans-Serif" font-size="10.00"> &#45;textBox</text>
</g>
<!-- Node23 -->
<g id="node22" class="node"><title>Node23</title>
<polygon fill="none" stroke="#bfbfbf" points="1278.5,-369.5 1278.5,-426.5 1323.5,-426.5 1323.5,-369.5 1278.5,-369.5"/>
<text text-anchor="middle" x="1301" y="-414.5" font-family="Helvetica,sans-Serif" font-size="10.00">Button</text>
<polyline fill="none" stroke="#bfbfbf" points="1278.5,-407.5 1323.5,-407.5 "/>
<text text-anchor="middle" x="1301" y="-395.5" font-family="Helvetica,sans-Serif" font-size="10.00"> </text>
<polyline fill="none" stroke="#bfbfbf" points="1278.5,-388.5 1323.5,-388.5 "/>
<text text-anchor="middle" x="1301" y="-376.5" font-family="Helvetica,sans-Serif" font-size="10.00"> </text>
</g>
<!-- Node23&#45;&gt;Node2 -->
<g id="edge42" class="edge"><title>Node23&#45;&gt;Node2</title>
<path fill="none" stroke="#404040" d="M1301.81,-369.447C1301.02,-347.172 1296.42,-316.285 1279,-296 1194.18,-197.247 1039.57,-160.771 947.27,-147.467"/>
<polygon fill="none" stroke="#404040" points="947.114,-147.446 940.625,-150.592 935.225,-145.812 941.714,-142.666 947.114,-147.446"/>
<text text-anchor="middle" x="1330.5" y="-332" font-family="Helvetica,sans-Serif" font-size="10.00"> &#45;runButton</text>
<text text-anchor="middle" x="1330.5" y="-321" font-family="Helvetica,sans-Serif" font-size="10.00">&#45;playerButton</text>
<text text-anchor="middle" x="1330.5" y="-310" font-family="Helvetica,sans-Serif" font-size="10.00">&#45;attackButton</text>
</g>
</g>
</svg>
