<?xml version="1.0" encoding="UTF-8" standalone="no"?>
<!DOCTYPE svg PUBLIC "-//W3C//DTD SVG 1.1//EN"
 "http://www.w3.org/Graphics/SVG/1.1/DTD/svg11.dtd">
<!-- Generated by graphviz version 2.38.0 (20140413.2041)
 -->
<!-- Title: BattleDescriptor Pages: 1 -->
<svg width="1225pt" height="1690pt"
 viewBox="0.00 0.00 1224.50 1690.00" xmlns="http://www.w3.org/2000/svg" xmlns:xlink="http://www.w3.org/1999/xlink">
<g id="graph0" class="graph" transform="scale(1 1) rotate(0) translate(4 1686)">
<title>BattleDescriptor</title>
<!-- Node2 -->
<g id="node1" class="node"><title>Node2</title>
<polygon fill="#bfbfbf" stroke="black" points="758,-0.5 758,-68.5 868,-68.5 868,-0.5 758,-0.5"/>
<text text-anchor="middle" x="813" y="-56.5" font-family="Helvetica,sans-Serif" font-size="10.00">BattleDescriptor</text>
<polyline fill="none" stroke="black" points="758,-49.5 868,-49.5 "/>
<text text-anchor="middle" x="813" y="-37.5" font-family="Helvetica,sans-Serif" font-size="10.00"> </text>
<polyline fill="none" stroke="black" points="758,-30.5 868,-30.5 "/>
<text text-anchor="start" x="766" y="-18.5" font-family="Helvetica,sans-Serif" font-size="10.00">+ createBattle()</text>
<text text-anchor="start" x="766" y="-7.5" font-family="Helvetica,sans-Serif" font-size="10.00">&#45; createSpecialMove()</text>
</g>
<!-- Node3 -->
<g id="node2" class="node"><title>Node3</title>
<g id="a_node2"><a xlink:href="class_mono_behaviour.html" target="_top" xlink:title="{MonoBehaviour\n||}">
<polygon fill="none" stroke="black" points="66.5,-315 66.5,-372 149.5,-372 149.5,-315 66.5,-315"/>
<text text-anchor="middle" x="108" y="-360" font-family="Helvetica,sans-Serif" font-size="10.00">MonoBehaviour</text>
<polyline fill="none" stroke="black" points="66.5,-353 149.5,-353 "/>
<text text-anchor="middle" x="108" y="-341" font-family="Helvetica,sans-Serif" font-size="10.00"> </text>
<polyline fill="none" stroke="black" points="66.5,-334 149.5,-334 "/>
<text text-anchor="middle" x="108" y="-322" font-family="Helvetica,sans-Serif" font-size="10.00"> </text>
</a>
</g>
</g>
<!-- Node3&#45;&gt;Node2 -->
<g id="edge1" class="edge"><title>Node3&#45;&gt;Node2</title>
<path fill="none" stroke="midnightblue" d="M128.121,-306.35C133.955,-297.288 140.731,-287.905 148,-280 223.756,-197.621 245.978,-173.009 348,-127 486.943,-64.3405 668.293,-44.4525 757.919,-38.2455"/>
<polygon fill="none" stroke="midnightblue" points="125.127,-304.537 122.831,-314.88 131.076,-308.226 125.127,-304.537"/>
</g>
<!-- Node5 -->
<g id="node4" class="node"><title>Node5</title>
<g id="a_node4"><a xlink:href="class_global_functions.html" target="_top" xlink:title="Provides functions and variables to be accessed by any game object to allow data to be passed between...">
<polygon fill="none" stroke="black" points="357.5,-127.5 357.5,-261.5 444.5,-261.5 444.5,-127.5 357.5,-127.5"/>
<text text-anchor="middle" x="401" y="-249.5" font-family="Helvetica,sans-Serif" font-size="10.00">GlobalFunctions</text>
<polyline fill="none" stroke="black" points="357.5,-242.5 444.5,-242.5 "/>
<text text-anchor="middle" x="401" y="-230.5" font-family="Helvetica,sans-Serif" font-size="10.00"> </text>
<polyline fill="none" stroke="black" points="357.5,-223.5 444.5,-223.5 "/>
<text text-anchor="start" x="365.5" y="-211.5" font-family="Helvetica,sans-Serif" font-size="10.00">+ loadMenu()</text>
<text text-anchor="start" x="365.5" y="-200.5" font-family="Helvetica,sans-Serif" font-size="10.00">+ createBattle()</text>
<text text-anchor="start" x="365.5" y="-189.5" font-family="Helvetica,sans-Serif" font-size="10.00">+ getEnemy()</text>
<text text-anchor="start" x="365.5" y="-178.5" font-family="Helvetica,sans-Serif" font-size="10.00">+ getMoney()</text>
<text text-anchor="start" x="365.5" y="-167.5" font-family="Helvetica,sans-Serif" font-size="10.00">+ getItem()</text>
<text text-anchor="start" x="365.5" y="-156.5" font-family="Helvetica,sans-Serif" font-size="10.00">+ endBattle()</text>
<text text-anchor="start" x="365.5" y="-145.5" font-family="Helvetica,sans-Serif" font-size="10.00">+ createItem()</text>
<text text-anchor="start" x="365.5" y="-134.5" font-family="Helvetica,sans-Serif" font-size="10.00">&#45; Awake()</text>
</a>
</g>
</g>
<!-- Node3&#45;&gt;Node5 -->
<g id="edge4" class="edge"><title>Node3&#45;&gt;Node5</title>
<path fill="none" stroke="midnightblue" d="M134.385,-306.948C142.972,-297.194 153.12,-287.306 164,-280 224.744,-239.21 307.46,-215.623 357.39,-204.189"/>
<polygon fill="none" stroke="midnightblue" points="131.625,-304.791 127.848,-314.69 136.974,-309.307 131.625,-304.791"/>
</g>
<!-- Node4 -->
<g id="node3" class="node"><title>Node4</title>
<polygon fill="none" stroke="#bfbfbf" points="558.5,-1624.5 558.5,-1681.5 599.5,-1681.5 599.5,-1624.5 558.5,-1624.5"/>
<text text-anchor="middle" x="579" y="-1669.5" font-family="Helvetica,sans-Serif" font-size="10.00">string</text>
<polyline fill="none" stroke="#bfbfbf" points="558.5,-1662.5 599.5,-1662.5 "/>
<text text-anchor="middle" x="579" y="-1650.5" font-family="Helvetica,sans-Serif" font-size="10.00"> </text>
<polyline fill="none" stroke="#bfbfbf" points="558.5,-1643.5 599.5,-1643.5 "/>
<text text-anchor="middle" x="579" y="-1631.5" font-family="Helvetica,sans-Serif" font-size="10.00"> </text>
</g>
<!-- Node4&#45;&gt;Node2 -->
<g id="edge2" class="edge"><title>Node4&#45;&gt;Node2</title>
<path fill="none" stroke="#404040" d="M558.267,-1651.44C477.54,-1649.06 184.433,-1638.32 98,-1606 45.5977,-1586.41 0,-1582.95 0,-1527 0,-1527 0,-1527 0,-193.5 0,-95.5292 96.8671,-105.887 193,-87 391.379,-48.0243 631.119,-38.5119 745.68,-36.2143"/>
<polygon fill="none" stroke="#404040" points="745.699,-36.214 751.623,-32.1031 757.697,-35.9908 751.772,-40.1017 745.699,-36.214"/>
<text text-anchor="middle" x="32" y="-837" font-family="Helvetica,sans-Serif" font-size="10.00"> +special1Text</text>
<text text-anchor="middle" x="32" y="-826" font-family="Helvetica,sans-Serif" font-size="10.00">+name</text>
<text text-anchor="middle" x="32" y="-815" font-family="Helvetica,sans-Serif" font-size="10.00">+special2Text</text>
</g>
<!-- Node4&#45;&gt;Node5 -->
<g id="edge8" class="edge"><title>Node4&#45;&gt;Node5</title>
<path fill="none" stroke="#404040" d="M558.432,-1651.67C460.479,-1649.56 46,-1634.28 46,-1527 46,-1527 46,-1527 46,-1004 46,-941.025 46.8502,-924.587 60,-863 61.7608,-854.753 63.8433,-853.152 66,-845 113.394,-665.855 79.9419,-608.749 147,-436 170.887,-374.465 178.466,-356.789 224,-309 239.901,-292.311 247.693,-292.594 267,-280 293.203,-262.908 322.576,-244.322 347.129,-228.944"/>
<polygon fill="none" stroke="#404040" points="347.159,-228.926 350.126,-222.353 357.334,-222.564 354.367,-229.136 347.159,-228.926"/>
<text text-anchor="middle" x="95" y="-906" font-family="Helvetica,sans-Serif" font-size="10.00"> &#45;previousScene</text>
<text text-anchor="middle" x="95" y="-895" font-family="Helvetica,sans-Serif" font-size="10.00">+levelOrder</text>
</g>
<!-- Node7 -->
<g id="node6" class="node"><title>Node7</title>
<g id="a_node6"><a xlink:href="class_item.html" target="_top" xlink:title="Abstract class for items that can be equipped to a player, increasing some of their stats ...">
<polygon fill="none" stroke="black" points="187.5,-1486.5 187.5,-1565.5 264.5,-1565.5 264.5,-1486.5 187.5,-1486.5"/>
<text text-anchor="middle" x="226" y="-1553.5" font-family="Helvetica,sans-Serif" font-size="10.00">Item</text>
<polyline fill="none" stroke="black" points="187.5,-1546.5 264.5,-1546.5 "/>
<text text-anchor="start" x="195.5" y="-1534.5" font-family="Helvetica,sans-Serif" font-size="10.00">+ Name</text>
<text text-anchor="start" x="195.5" y="-1523.5" font-family="Helvetica,sans-Serif" font-size="10.00">+ Desc</text>
<polyline fill="none" stroke="black" points="187.5,-1516.5 264.5,-1516.5 "/>
<text text-anchor="start" x="195.5" y="-1504.5" font-family="Helvetica,sans-Serif" font-size="10.00">+ applyBuffs()</text>
<text text-anchor="start" x="195.5" y="-1493.5" font-family="Helvetica,sans-Serif" font-size="10.00">+ revertBuffs()</text>
</a>
</g>
</g>
<!-- Node4&#45;&gt;Node7 -->
<g id="edge7" class="edge"><title>Node4&#45;&gt;Node7</title>
<path fill="none" stroke="#404040" d="M558.495,-1644.74C504.12,-1625.48 355.035,-1572.69 276.276,-1544.8"/>
<polygon fill="none" stroke="#404040" points="276.037,-1544.72 269.046,-1546.49 264.726,-1540.71 271.717,-1538.95 276.037,-1544.72"/>
<text text-anchor="middle" x="460" y="-1598" font-family="Helvetica,sans-Serif" font-size="10.00"> #desc</text>
<text text-anchor="middle" x="460" y="-1587" font-family="Helvetica,sans-Serif" font-size="10.00">#name</text>
</g>
<!-- Node10 -->
<g id="node9" class="node"><title>Node10</title>
<g id="a_node9"><a xlink:href="class_character.html" target="_top" xlink:title="Base abstract class for Enemy and Player to inherit from. Defines all shared variables, their constructor and their setters and getters ">
<polygon fill="none" stroke="black" points="648.5,-436.5 648.5,-614.5 743.5,-614.5 743.5,-436.5 648.5,-436.5"/>
<text text-anchor="middle" x="696" y="-602.5" font-family="Helvetica,sans-Serif" font-size="10.00">Character</text>
<polyline fill="none" stroke="black" points="648.5,-595.5 743.5,-595.5 "/>
<text text-anchor="start" x="656.5" y="-583.5" font-family="Helvetica,sans-Serif" font-size="10.00">+ Name</text>
<text text-anchor="start" x="656.5" y="-572.5" font-family="Helvetica,sans-Serif" font-size="10.00">+ Level</text>
<text text-anchor="start" x="656.5" y="-561.5" font-family="Helvetica,sans-Serif" font-size="10.00">+ Health</text>
<text text-anchor="start" x="656.5" y="-550.5" font-family="Helvetica,sans-Serif" font-size="10.00">+ Attack</text>
<text text-anchor="start" x="656.5" y="-539.5" font-family="Helvetica,sans-Serif" font-size="10.00">+ Defence</text>
<text text-anchor="start" x="656.5" y="-528.5" font-family="Helvetica,sans-Serif" font-size="10.00">+ MaximumMagic</text>
<text text-anchor="start" x="656.5" y="-517.5" font-family="Helvetica,sans-Serif" font-size="10.00">+ Magic</text>
<text text-anchor="start" x="656.5" y="-506.5" font-family="Helvetica,sans-Serif" font-size="10.00">+ Luck</text>
<text text-anchor="start" x="656.5" y="-495.5" font-family="Helvetica,sans-Serif" font-size="10.00">+ Speed</text>
<text text-anchor="start" x="656.5" y="-484.5" font-family="Helvetica,sans-Serif" font-size="10.00">+ Special1</text>
<text text-anchor="start" x="656.5" y="-473.5" font-family="Helvetica,sans-Serif" font-size="10.00">+ Special2</text>
<text text-anchor="start" x="656.5" y="-462.5" font-family="Helvetica,sans-Serif" font-size="10.00">+ Image</text>
<polyline fill="none" stroke="black" points="648.5,-455.5 743.5,-455.5 "/>
<text text-anchor="start" x="656.5" y="-443.5" font-family="Helvetica,sans-Serif" font-size="10.00"># Character()</text>
</a>
</g>
</g>
<!-- Node4&#45;&gt;Node10 -->
<g id="edge12" class="edge"><title>Node4&#45;&gt;Node10</title>
<path fill="none" stroke="#404040" d="M599.682,-1638.69C612.622,-1630 629.363,-1618.05 643,-1606 661.146,-1589.96 664.983,-1585 680,-1566 772.949,-1448.41 824.327,-1429.39 868,-1286 871.896,-1273.21 863.745,-1269.84 860,-1257 841.62,-1194.01 784.099,-737.496 772,-673 768.64,-655.09 769.952,-649.844 763,-633 759.166,-623.712 754.547,-614.323 749.549,-605.169"/>
<polygon fill="none" stroke="#404040" points="749.448,-604.992 743.01,-601.744 743.531,-594.552 749.969,-597.799 749.448,-604.992"/>
<text text-anchor="middle" x="876.5" y="-1159.5" font-family="Helvetica,sans-Serif" font-size="10.00"> #name</text>
</g>
<!-- Node12 -->
<g id="node11" class="node"><title>Node12</title>
<g id="a_node11"><a xlink:href="class_special_move.html" target="_top" xlink:title="Special move abstract base class that expands upon CharacterMove, adding magic properties ...">
<polygon fill="none" stroke="black" points="647,-683 647,-784 745,-784 745,-683 647,-683"/>
<text text-anchor="middle" x="696" y="-772" font-family="Helvetica,sans-Serif" font-size="10.00">SpecialMove</text>
<polyline fill="none" stroke="black" points="647,-765 745,-765 "/>
<text text-anchor="start" x="655" y="-753" font-family="Helvetica,sans-Serif" font-size="10.00">+ Magic</text>
<text text-anchor="start" x="655" y="-742" font-family="Helvetica,sans-Serif" font-size="10.00">+ Desc</text>
<text text-anchor="start" x="655" y="-731" font-family="Helvetica,sans-Serif" font-size="10.00">+ Special</text>
<polyline fill="none" stroke="black" points="647,-724 745,-724 "/>
<text text-anchor="start" x="655" y="-712" font-family="Helvetica,sans-Serif" font-size="10.00">+ setUp()</text>
<text text-anchor="start" x="655" y="-701" font-family="Helvetica,sans-Serif" font-size="10.00">+ decreaseMagic()</text>
<text text-anchor="start" x="655" y="-690" font-family="Helvetica,sans-Serif" font-size="10.00"># SpecialMove()</text>
</a>
</g>
</g>
<!-- Node4&#45;&gt;Node12 -->
<g id="edge27" class="edge"><title>Node4&#45;&gt;Node12</title>
<path fill="none" stroke="#404040" d="M599.84,-1630.64C606.843,-1623.09 614.518,-1614.38 621,-1606 633.97,-1589.23 637.133,-1584.77 647,-1566 677.881,-1507.26 683.603,-1491.15 704,-1428 717.303,-1386.81 788.966,-1091.99 794,-1049 798.549,-1010.15 801.93,-999.299 794,-961 781.787,-902.016 753.433,-839.508 730.349,-795.134"/>
<polygon fill="none" stroke="#404040" points="730.209,-794.869 723.871,-791.43 724.607,-784.257 730.945,-787.696 730.209,-794.869"/>
<text text-anchor="middle" x="759" y="-1278" font-family="Helvetica,sans-Serif" font-size="10.00"> #desc</text>
</g>
<!-- Node13 -->
<g id="node12" class="node"><title>Node13</title>
<g id="a_node12"><a xlink:href="class_character_move.html" target="_top" xlink:title="Astract base class for character moves ">
<polygon fill="none" stroke="black" points="551,-863.5 551,-942.5 637,-942.5 637,-863.5 551,-863.5"/>
<text text-anchor="middle" x="594" y="-930.5" font-family="Helvetica,sans-Serif" font-size="10.00">CharacterMove</text>
<polyline fill="none" stroke="black" points="551,-923.5 637,-923.5 "/>
<text text-anchor="start" x="559" y="-911.5" font-family="Helvetica,sans-Serif" font-size="10.00">+ User</text>
<text text-anchor="start" x="559" y="-900.5" font-family="Helvetica,sans-Serif" font-size="10.00">+ Target</text>
<text text-anchor="start" x="559" y="-889.5" font-family="Helvetica,sans-Serif" font-size="10.00">+ Text</text>
<polyline fill="none" stroke="black" points="551,-882.5 637,-882.5 "/>
<text text-anchor="start" x="559" y="-870.5" font-family="Helvetica,sans-Serif" font-size="10.00">+ performMove()</text>
</a>
</g>
</g>
<!-- Node4&#45;&gt;Node13 -->
<g id="edge16" class="edge"><title>Node4&#45;&gt;Node13</title>
<path fill="none" stroke="#404040" d="M593.168,-1624.22C610.334,-1588.95 638.395,-1525.74 650,-1468 685.122,-1293.25 680.502,-1243.55 656,-1067 649.269,-1018.5 644.781,-1006.22 626,-961 624.974,-958.531 623.866,-956.033 622.7,-953.533"/>
<polygon fill="none" stroke="#404040" points="622.626,-953.385 616.374,-949.793 617.285,-942.639 623.538,-946.232 622.626,-953.385"/>
<text text-anchor="middle" x="687.5" y="-1363.5" font-family="Helvetica,sans-Serif" font-size="10.00"> #text</text>
</g>
<!-- Node14 -->
<g id="node13" class="node"><title>Node14</title>
<g id="a_node13"><a xlink:href="class_battle_manager.html" target="_top" xlink:title="Holds current Player and Enemy objects in battle and provides functions for MainBattle and other obje...">
<polygon fill="none" stroke="black" points="465,-1067.5 465,-1256.5 581,-1256.5 581,-1067.5 465,-1067.5"/>
<text text-anchor="middle" x="523" y="-1244.5" font-family="Helvetica,sans-Serif" font-size="10.00">BattleManager</text>
<polyline fill="none" stroke="black" points="465,-1237.5 581,-1237.5 "/>
<text text-anchor="start" x="473" y="-1225.5" font-family="Helvetica,sans-Serif" font-size="10.00">+ Player</text>
<text text-anchor="start" x="473" y="-1214.5" font-family="Helvetica,sans-Serif" font-size="10.00">+ Enemy</text>
<text text-anchor="start" x="473" y="-1203.5" font-family="Helvetica,sans-Serif" font-size="10.00">+ WasCriticalHit</text>
<polyline fill="none" stroke="black" points="465,-1196.5 581,-1196.5 "/>
<text text-anchor="start" x="473" y="-1184.5" font-family="Helvetica,sans-Serif" font-size="10.00">+ BattleManager()</text>
<text text-anchor="start" x="473" y="-1173.5" font-family="Helvetica,sans-Serif" font-size="10.00">+ playerFirst()</text>
<text text-anchor="start" x="473" y="-1162.5" font-family="Helvetica,sans-Serif" font-size="10.00">+ switchPlayers()</text>
<text text-anchor="start" x="473" y="-1151.5" font-family="Helvetica,sans-Serif" font-size="10.00">+ isCriticalHit()</text>
<text text-anchor="start" x="473" y="-1140.5" font-family="Helvetica,sans-Serif" font-size="10.00">+ ranAway()</text>
<text text-anchor="start" x="473" y="-1129.5" font-family="Helvetica,sans-Serif" font-size="10.00">+ damageCalculation()</text>
<text text-anchor="start" x="473" y="-1118.5" font-family="Helvetica,sans-Serif" font-size="10.00">+ enemyMove()</text>
<text text-anchor="start" x="473" y="-1107.5" font-family="Helvetica,sans-Serif" font-size="10.00">+ enemySpecialMove()</text>
<text text-anchor="start" x="473" y="-1096.5" font-family="Helvetica,sans-Serif" font-size="10.00">+ battleWon()</text>
<text text-anchor="start" x="473" y="-1085.5" font-family="Helvetica,sans-Serif" font-size="10.00">+ playerFainted()</text>
<text text-anchor="start" x="473" y="-1074.5" font-family="Helvetica,sans-Serif" font-size="10.00">&#45; characterFainted()</text>
</a>
</g>
</g>
<!-- Node4&#45;&gt;Node14 -->
<g id="edge19" class="edge"><title>Node4&#45;&gt;Node14</title>
<path fill="none" stroke="#404040" d="M576.677,-1624.43C571.613,-1565.51 558.838,-1423 544,-1304 542.565,-1292.49 540.951,-1280.46 539.272,-1268.5"/>
<polygon fill="none" stroke="#404040" points="539.267,-1268.46 534.461,-1263.09 537.576,-1256.58 542.381,-1261.96 539.267,-1268.46"/>
<text text-anchor="middle" x="604" y="-1460" font-family="Helvetica,sans-Serif" font-size="10.00"> +forceEnemyMove</text>
<text text-anchor="middle" x="604" y="-1449" font-family="Helvetica,sans-Serif" font-size="10.00">+forceCriticalHits</text>
</g>
<!-- Node5&#45;&gt;Node2 -->
<g id="edge3" class="edge"><title>Node5&#45;&gt;Node2</title>
<path fill="none" stroke="#404040" d="M444.701,-176.741C516.87,-149.064 661.415,-93.632 746.381,-61.0481"/>
<polygon fill="none" stroke="#404040" points="746.503,-61.0015 750.672,-55.1183 757.707,-56.7046 753.537,-62.5878 746.503,-61.0015"/>
<text text-anchor="middle" x="694" y="-95.5" font-family="Helvetica,sans-Serif" font-size="10.00"> +battleItem</text>
</g>
<!-- Node5&#45;&gt;Node5 -->
<g id="edge32" class="edge"><title>Node5&#45;&gt;Node5</title>
<path fill="none" stroke="#404040" d="M444.669,-211.041C454.93,-209.682 462.5,-204.168 462.5,-194.5 462.5,-189.062 460.105,-184.938 456.183,-182.129"/>
<polygon fill="none" stroke="#404040" points="455.952,-182.045 448.949,-183.763 444.669,-177.959 451.673,-176.241 455.952,-182.045"/>
<text text-anchor="middle" x="485.5" y="-192" font-family="Helvetica,sans-Serif" font-size="10.00"> +instance</text>
</g>
<!-- Node6 -->
<g id="node5" class="node"><title>Node6</title>
<polygon fill="none" stroke="#bfbfbf" points="282,-315 282,-372 340,-372 340,-315 282,-315"/>
<text text-anchor="middle" x="311" y="-360" font-family="Helvetica,sans-Serif" font-size="10.00">AudioClip</text>
<polyline fill="none" stroke="#bfbfbf" points="282,-353 340,-353 "/>
<text text-anchor="middle" x="311" y="-341" font-family="Helvetica,sans-Serif" font-size="10.00"> </text>
<polyline fill="none" stroke="#bfbfbf" points="282,-334 340,-334 "/>
<text text-anchor="middle" x="311" y="-322" font-family="Helvetica,sans-Serif" font-size="10.00"> </text>
</g>
<!-- Node6&#45;&gt;Node5 -->
<g id="edge5" class="edge"><title>Node6&#45;&gt;Node5</title>
<path fill="none" stroke="#404040" d="M314.656,-314.7C316.887,-303.479 320.427,-290.686 326,-280 332.181,-268.149 340.385,-256.62 349.097,-246.082"/>
<polygon fill="none" stroke="#404040" points="349.355,-245.783 350.249,-238.628 357.198,-236.701 356.304,-243.856 349.355,-245.783"/>
<text text-anchor="middle" x="359.5" y="-283" font-family="Helvetica,sans-Serif" font-size="10.00"> +previousBGM</text>
</g>
<!-- Node7&#45;&gt;Node5 -->
<g id="edge6" class="edge"><title>Node7&#45;&gt;Node5</title>
<path fill="none" stroke="#404040" d="M187.223,-1493.02C179.957,-1485.47 173.064,-1476.98 168,-1468 145.327,-1427.82 144,-1413.14 144,-1367 144,-1367 144,-1367 144,-1004 144,-918.551 129.409,-897.326 134,-812 146.375,-581.977 156.712,-515.399 259,-309 277.571,-271.526 314.967,-242.435 346.721,-223.09"/>
<polygon fill="none" stroke="#404040" points="346.894,-222.988 350.039,-216.498 357.238,-216.905 354.094,-223.394 346.894,-222.988"/>
<text text-anchor="middle" x="146.5" y="-826" font-family="Helvetica,sans-Serif" font-size="10.00"> &#45;item</text>
</g>
<!-- Node16 -->
<g id="node15" class="node"><title>Node16</title>
<g id="a_node15"><a xlink:href="class_player.html" target="_top" xlink:title="Defines a playable character for use in battle scenes">
<polygon fill="none" stroke="black" points="340,-1304.5 340,-1427.5 452,-1427.5 452,-1304.5 340,-1304.5"/>
<text text-anchor="middle" x="396" y="-1415.5" font-family="Helvetica,sans-Serif" font-size="10.00">Player</text>
<polyline fill="none" stroke="black" points="340,-1408.5 452,-1408.5 "/>
<text text-anchor="start" x="348" y="-1396.5" font-family="Helvetica,sans-Serif" font-size="10.00">+ Exp</text>
<text text-anchor="start" x="348" y="-1385.5" font-family="Helvetica,sans-Serif" font-size="10.00">+ Item</text>
<text text-anchor="start" x="348" y="-1374.5" font-family="Helvetica,sans-Serif" font-size="10.00">+ ExpToNextLevel</text>
<polyline fill="none" stroke="black" points="340,-1367.5 452,-1367.5 "/>
<text text-anchor="start" x="348" y="-1355.5" font-family="Helvetica,sans-Serif" font-size="10.00">+ Player()</text>
<text text-anchor="start" x="348" y="-1344.5" font-family="Helvetica,sans-Serif" font-size="10.00">+ gainExp()</text>
<text text-anchor="start" x="348" y="-1333.5" font-family="Helvetica,sans-Serif" font-size="10.00">+ levelUp()</text>
<text text-anchor="start" x="348" y="-1322.5" font-family="Helvetica,sans-Serif" font-size="10.00">+ Clone()</text>
<text text-anchor="start" x="348" y="-1311.5" font-family="Helvetica,sans-Serif" font-size="10.00">&#45; setExpToNextLevel()</text>
</a>
</g>
</g>
<!-- Node7&#45;&gt;Node16 -->
<g id="edge25" class="edge"><title>Node7&#45;&gt;Node16</title>
<path fill="none" stroke="#404040" d="M264.576,-1489.15C284.207,-1470.9 308.605,-1448.23 331.03,-1427.38"/>
<polygon fill="none" stroke="#404040" points="331.051,-1427.36 332.722,-1420.35 339.841,-1419.2 338.169,-1426.21 331.051,-1427.36"/>
<text text-anchor="middle" x="323.5" y="-1454.5" font-family="Helvetica,sans-Serif" font-size="10.00"> &#45;item</text>
</g>
<!-- Node8 -->
<g id="node7" class="node"><title>Node8</title>
<polygon fill="none" stroke="#bfbfbf" points="358.5,-315 358.5,-372 429.5,-372 429.5,-315 358.5,-315"/>
<text text-anchor="middle" x="394" y="-360" font-family="Helvetica,sans-Serif" font-size="10.00">GameObject</text>
<polyline fill="none" stroke="#bfbfbf" points="358.5,-353 429.5,-353 "/>
<text text-anchor="middle" x="394" y="-341" font-family="Helvetica,sans-Serif" font-size="10.00"> </text>
<polyline fill="none" stroke="#bfbfbf" points="358.5,-334 429.5,-334 "/>
<text text-anchor="middle" x="394" y="-322" font-family="Helvetica,sans-Serif" font-size="10.00"> </text>
</g>
<!-- Node8&#45;&gt;Node5 -->
<g id="edge9" class="edge"><title>Node8&#45;&gt;Node5</title>
<path fill="none" stroke="#404040" d="M395.317,-314.85C395.877,-303.09 396.561,-288.722 397.258,-274.083"/>
<polygon fill="none" stroke="#404040" points="397.273,-273.761 393.563,-267.578 397.844,-261.775 401.554,-267.958 397.273,-273.761"/>
<text text-anchor="middle" x="415" y="-283" font-family="Helvetica,sans-Serif" font-size="10.00"> +player</text>
</g>
<!-- Node9 -->
<g id="node8" class="node"><title>Node9</title>
<g id="a_node8"><a xlink:href="class_enemy.html" target="_top" xlink:title="Defines an AI controller enemy to fight in battle scenes">
<polygon fill="none" stroke="black" points="602.5,-315 602.5,-372 669.5,-372 669.5,-315 602.5,-315"/>
<text text-anchor="middle" x="636" y="-360" font-family="Helvetica,sans-Serif" font-size="10.00">Enemy</text>
<polyline fill="none" stroke="black" points="602.5,-353 669.5,-353 "/>
<text text-anchor="start" x="610.5" y="-341" font-family="Helvetica,sans-Serif" font-size="10.00">+ ExpGiven</text>
<polyline fill="none" stroke="black" points="602.5,-334 669.5,-334 "/>
<text text-anchor="start" x="610.5" y="-322" font-family="Helvetica,sans-Serif" font-size="10.00">+ Enemy()</text>
</a>
</g>
</g>
<!-- Node9&#45;&gt;Node5 -->
<g id="edge10" class="edge"><title>Node9&#45;&gt;Node5</title>
<path fill="none" stroke="#404040" d="M619.143,-314.77C610.889,-302.905 600.117,-289.602 588,-280 548.568,-248.751 495.732,-226.264 456.282,-212.381"/>
<polygon fill="none" stroke="#404040" points="456.111,-212.323 449.138,-214.163 444.758,-208.435 451.73,-206.595 456.111,-212.323"/>
<text text-anchor="middle" x="618" y="-283" font-family="Helvetica,sans-Serif" font-size="10.00"> &#45;enemy</text>
</g>
<!-- Node9&#45;&gt;Node14 -->
<g id="edge20" class="edge"><title>Node9&#45;&gt;Node14</title>
<path fill="none" stroke="#404040" d="M604.823,-372.004C571.376,-404.71 523,-462.697 523,-524.5 523,-904 523,-904 523,-904 523,-953.662 523,-1008.72 523,-1055.1"/>
<polygon fill="none" stroke="#404040" points="523,-1055.31 527,-1061.31 523,-1067.31 519,-1061.31 523,-1055.31"/>
<text text-anchor="middle" x="541" y="-731" font-family="Helvetica,sans-Serif" font-size="10.00"> &#45;enemy</text>
</g>
<!-- Node10&#45;&gt;Node9 -->
<g id="edge11" class="edge"><title>Node10&#45;&gt;Node9</title>
<path fill="none" stroke="midnightblue" d="M663.427,-426.78C656.732,-406.695 650.209,-387.127 645.205,-372.116"/>
<polygon fill="none" stroke="midnightblue" points="660.132,-427.966 666.615,-436.346 666.773,-425.752 660.132,-427.966"/>
</g>
<!-- Node10&#45;&gt;Node13 -->
<g id="edge17" class="edge"><title>Node10&#45;&gt;Node13</title>
<path fill="none" stroke="#404040" d="M648.259,-586.79C631.041,-611.98 613.519,-642.464 604,-673 585.572,-732.113 585.851,-803.965 588.904,-851.233"/>
<polygon fill="none" stroke="#404040" points="588.91,-851.321 593.334,-857.016 589.778,-863.29 585.355,-857.594 588.91,-851.321"/>
<text text-anchor="middle" x="621" y="-736.5" font-family="Helvetica,sans-Serif" font-size="10.00"> #target</text>
<text text-anchor="middle" x="621" y="-725.5" font-family="Helvetica,sans-Serif" font-size="10.00">#user</text>
</g>
<!-- Node10&#45;&gt;Node16 -->
<g id="edge24" class="edge"><title>Node10&#45;&gt;Node16</title>
<path fill="none" stroke="midnightblue" d="M639.012,-553.622C593.906,-578.231 533.305,-618.928 501,-673 468.768,-726.951 420.061,-1145.61 402.555,-1304.29"/>
<polygon fill="none" stroke="midnightblue" points="640.93,-556.566 648.1,-548.766 637.631,-550.392 640.93,-556.566"/>
</g>
<!-- Node11 -->
<g id="node10" class="node"><title>Node11</title>
<polygon fill="none" stroke="#bfbfbf" points="381.5,-1497.5 381.5,-1554.5 410.5,-1554.5 410.5,-1497.5 381.5,-1497.5"/>
<text text-anchor="middle" x="396" y="-1542.5" font-family="Helvetica,sans-Serif" font-size="10.00">int</text>
<polyline fill="none" stroke="#bfbfbf" points="381.5,-1535.5 410.5,-1535.5 "/>
<text text-anchor="middle" x="396" y="-1523.5" font-family="Helvetica,sans-Serif" font-size="10.00"> </text>
<polyline fill="none" stroke="#bfbfbf" points="381.5,-1516.5 410.5,-1516.5 "/>
<text text-anchor="middle" x="396" y="-1504.5" font-family="Helvetica,sans-Serif" font-size="10.00"> </text>
</g>
<!-- Node11&#45;&gt;Node2 -->
<g id="edge38" class="edge"><title>Node11&#45;&gt;Node2</title>
<path fill="none" stroke="#404040" d="M381.291,-1521.78C332.942,-1510.25 182,-1466.29 182,-1367 182,-1367 182,-1367 182,-1004 182,-856.16 178.493,-817.869 149,-673 121.602,-538.421 77.6802,-513.773 57,-378 52.3823,-347.683 49.1288,-338.639 57,-309 80.9122,-218.957 84.7411,-180.517 161,-127 254.356,-61.4842 598.36,-42.51 745.51,-37.328"/>
<polygon fill="none" stroke="#404040" points="745.871,-37.3158 751.732,-33.1148 757.864,-36.9092 752.003,-41.1102 745.871,-37.3158"/>
<text text-anchor="middle" x="211.5" y="-786" font-family="Helvetica,sans-Serif" font-size="10.00"> +maximumMagic</text>
<text text-anchor="middle" x="211.5" y="-775" font-family="Helvetica,sans-Serif" font-size="10.00">+attack</text>
<text text-anchor="middle" x="211.5" y="-764" font-family="Helvetica,sans-Serif" font-size="10.00">+defence</text>
<text text-anchor="middle" x="211.5" y="-753" font-family="Helvetica,sans-Serif" font-size="10.00">+level</text>
<text text-anchor="middle" x="211.5" y="-742" font-family="Helvetica,sans-Serif" font-size="10.00">+special1Magic</text>
<text text-anchor="middle" x="211.5" y="-731" font-family="Helvetica,sans-Serif" font-size="10.00">+battleMoney</text>
<text text-anchor="middle" x="211.5" y="-720" font-family="Helvetica,sans-Serif" font-size="10.00">+special2Magic</text>
<text text-anchor="middle" x="211.5" y="-709" font-family="Helvetica,sans-Serif" font-size="10.00">+speed</text>
<text text-anchor="middle" x="211.5" y="-698" font-family="Helvetica,sans-Serif" font-size="10.00">+luck</text>
<text text-anchor="middle" x="211.5" y="-687" font-family="Helvetica,sans-Serif" font-size="10.00">+health</text>
<text text-anchor="middle" x="211.5" y="-676" font-family="Helvetica,sans-Serif" font-size="10.00">...</text>
</g>
<!-- Node11&#45;&gt;Node5 -->
<g id="edge33" class="edge"><title>Node11&#45;&gt;Node5</title>
<path fill="none" stroke="#404040" d="M381.34,-1516.61C347.342,-1495.93 266,-1438.93 266,-1367 266,-1367 266,-1367 266,-902 266,-836.107 245.493,-368.877 273,-309 288.57,-275.108 319.665,-247.155 347.307,-227.471"/>
<polygon fill="none" stroke="#404040" points="347.413,-227.398 350.089,-220.702 357.3,-220.597 354.623,-227.293 347.413,-227.398"/>
<text text-anchor="middle" x="295.5" y="-837" font-family="Helvetica,sans-Serif" font-size="10.00"> +currentLevel</text>
<text text-anchor="middle" x="295.5" y="-826" font-family="Helvetica,sans-Serif" font-size="10.00">+lastLevel</text>
<text text-anchor="middle" x="295.5" y="-815" font-family="Helvetica,sans-Serif" font-size="10.00">&#45;money</text>
</g>
<!-- Node11&#45;&gt;Node9 -->
<g id="edge31" class="edge"><title>Node11&#45;&gt;Node9</title>
<path fill="none" stroke="#404040" d="M381.214,-1509.39C365.284,-1491.4 340.889,-1460.17 331,-1428 257.203,-1187.97 303.256,-1112.89 328,-863 336.486,-777.302 334.847,-753.284 366,-673 410.503,-558.31 426.223,-527.008 509,-436 532.946,-409.673 565.626,-386.337 591.839,-369.822"/>
<polygon fill="none" stroke="#404040" points="592.051,-369.691 595.059,-363.137 602.266,-363.394 599.257,-369.947 592.051,-369.691"/>
<text text-anchor="middle" x="351" y="-900.5" font-family="Helvetica,sans-Serif" font-size="10.00"> &#45;expGiven</text>
</g>
<!-- Node11&#45;&gt;Node10 -->
<g id="edge13" class="edge"><title>Node11&#45;&gt;Node10</title>
<path fill="none" stroke="#404040" d="M410.739,-1522.7C462.466,-1514.48 633.492,-1486.13 650,-1468 674.739,-1440.83 663.751,-1340.02 671,-1304 675.276,-1282.75 679.969,-1278.29 684,-1257 708.604,-1127.03 693.028,-1091.44 715,-961 727.661,-885.84 745.276,-869.718 754,-794 762.203,-722.804 767.97,-700.887 745,-633 744.197,-630.628 743.359,-628.238 742.489,-625.837"/>
<polygon fill="none" stroke="#404040" points="742.465,-625.771 736.599,-621.576 738.216,-614.548 744.081,-618.744 742.465,-625.771"/>
<text text-anchor="middle" x="752.5" y="-1041" font-family="Helvetica,sans-Serif" font-size="10.00"> #speed</text>
<text text-anchor="middle" x="752.5" y="-1030" font-family="Helvetica,sans-Serif" font-size="10.00">#luck</text>
<text text-anchor="middle" x="752.5" y="-1019" font-family="Helvetica,sans-Serif" font-size="10.00">#health</text>
<text text-anchor="middle" x="752.5" y="-1008" font-family="Helvetica,sans-Serif" font-size="10.00">#magic</text>
<text text-anchor="middle" x="752.5" y="-997" font-family="Helvetica,sans-Serif" font-size="10.00">#maximumMagic</text>
<text text-anchor="middle" x="752.5" y="-986" font-family="Helvetica,sans-Serif" font-size="10.00">#attack</text>
<text text-anchor="middle" x="752.5" y="-975" font-family="Helvetica,sans-Serif" font-size="10.00">#defence</text>
<text text-anchor="middle" x="752.5" y="-964" font-family="Helvetica,sans-Serif" font-size="10.00">#level</text>
</g>
<!-- Node11&#45;&gt;Node12 -->
<g id="edge29" class="edge"><title>Node11&#45;&gt;Node12</title>
<path fill="none" stroke="#404040" d="M410.739,-1519.65C440.579,-1508.02 508.093,-1477.41 541,-1428 610.678,-1323.38 667.637,-945.92 687.978,-796.255"/>
<polygon fill="none" stroke="#404040" points="688.002,-796.077 684.84,-789.596 689.607,-784.184 692.769,-790.665 688.002,-796.077"/>
<text text-anchor="middle" x="662.5" y="-1159.5" font-family="Helvetica,sans-Serif" font-size="10.00"> #magic</text>
</g>
<!-- Node11&#45;&gt;Node14 -->
<g id="edge21" class="edge"><title>Node11&#45;&gt;Node14</title>
<path fill="none" stroke="#404040" d="M410.502,-1518.71C428.553,-1510.08 458.846,-1492.74 474,-1468 476.683,-1463.62 493.722,-1355.13 506.962,-1268.78"/>
<polygon fill="none" stroke="#404040" points="506.987,-1268.61 503.941,-1262.08 508.804,-1256.75 511.849,-1263.29 506.987,-1268.61"/>
<text text-anchor="middle" x="520.5" y="-1363.5" font-family="Helvetica,sans-Serif" font-size="10.00"> +money</text>
</g>
<!-- Node11&#45;&gt;Node16 -->
<g id="edge26" class="edge"><title>Node11&#45;&gt;Node16</title>
<path fill="none" stroke="#404040" d="M396,-1497.48C396,-1481.37 396,-1460.19 396,-1439.61"/>
<polygon fill="none" stroke="#404040" points="396,-1439.59 392,-1433.59 396,-1427.59 400,-1433.59 396,-1439.59"/>
<text text-anchor="middle" x="433.5" y="-1460" font-family="Helvetica,sans-Serif" font-size="10.00"> &#45;expToNextLevel</text>
<text text-anchor="middle" x="433.5" y="-1449" font-family="Helvetica,sans-Serif" font-size="10.00">&#45;exp</text>
</g>
<!-- Node12&#45;&gt;Node10 -->
<g id="edge14" class="edge"><title>Node12&#45;&gt;Node10</title>
<path fill="none" stroke="#404040" d="M696,-682.896C696,-665.938 696,-646.312 696,-626.813"/>
<polygon fill="none" stroke="#404040" points="696,-626.715 692,-620.715 696,-614.715 700,-620.715 696,-626.715"/>
<text text-anchor="middle" x="718.5" y="-647" font-family="Helvetica,sans-Serif" font-size="10.00"> #special1</text>
<text text-anchor="middle" x="718.5" y="-636" font-family="Helvetica,sans-Serif" font-size="10.00">#special2</text>
</g>
<!-- Node13&#45;&gt;Node12 -->
<g id="edge15" class="edge"><title>Node13&#45;&gt;Node12</title>
<path fill="none" stroke="midnightblue" d="M623.019,-854.346C636.364,-832.432 652.191,-806.441 665.69,-784.274"/>
<polygon fill="none" stroke="midnightblue" points="619.869,-852.79 617.657,-863.151 625.848,-856.431 619.869,-852.79"/>
</g>
<!-- Node14&#45;&gt;Node13 -->
<g id="edge18" class="edge"><title>Node14&#45;&gt;Node13</title>
<path fill="none" stroke="#404040" d="M546.837,-1067.39C555.659,-1033.75 565.963,-995.584 576,-961 576.651,-958.758 577.326,-956.469 578.017,-954.16"/>
<polygon fill="none" stroke="#404040" points="578.054,-954.037 575.978,-947.131 581.555,-942.559 583.631,-949.465 578.054,-954.037"/>
<text text-anchor="middle" x="599" y="-1002.5" font-family="Helvetica,sans-Serif" font-size="10.00"> #manager</text>
</g>
<!-- Node15 -->
<g id="node14" class="node"><title>Node15</title>
<polygon fill="none" stroke="#bfbfbf" points="910.5,-1337.5 910.5,-1394.5 945.5,-1394.5 945.5,-1337.5 910.5,-1337.5"/>
<text text-anchor="middle" x="928" y="-1382.5" font-family="Helvetica,sans-Serif" font-size="10.00">bool</text>
<polyline fill="none" stroke="#bfbfbf" points="910.5,-1375.5 945.5,-1375.5 "/>
<text text-anchor="middle" x="928" y="-1363.5" font-family="Helvetica,sans-Serif" font-size="10.00"> </text>
<polyline fill="none" stroke="#bfbfbf" points="910.5,-1356.5 945.5,-1356.5 "/>
<text text-anchor="middle" x="928" y="-1344.5" font-family="Helvetica,sans-Serif" font-size="10.00"> </text>
</g>
<!-- Node15&#45;&gt;Node2 -->
<g id="edge39" class="edge"><title>Node15&#45;&gt;Node2</title>
<path fill="none" stroke="#404040" d="M945.739,-1356.45C992.043,-1332.76 1113,-1261.44 1113,-1163 1113,-1163 1113,-1163 1113,-193.5 1113,-88.9292 968.541,-53.405 880.11,-41.4552"/>
<polygon fill="none" stroke="#404040" points="879.929,-41.4323 873.473,-44.6447 868.025,-39.9207 874.481,-36.7084 879.929,-41.4323"/>
<text text-anchor="middle" x="1146.5" y="-641.5" font-family="Helvetica,sans-Serif" font-size="10.00"> +canRunAway</text>
</g>
<!-- Node15&#45;&gt;Node5 -->
<g id="edge34" class="edge"><title>Node15&#45;&gt;Node5</title>
<path fill="none" stroke="#404040" d="M924.834,-1337.47C913.498,-1238.67 875.125,-902.055 866,-794 860.418,-727.892 857,-711.343 857,-645 857,-645 857,-645 857,-342.5 857,-259.269 578.326,-216.333 456.683,-201.556"/>
<polygon fill="none" stroke="#404040" points="456.639,-201.551 450.208,-204.814 444.723,-200.133 451.154,-196.87 456.639,-201.551"/>
<text text-anchor="middle" x="899.5" y="-731" font-family="Helvetica,sans-Serif" font-size="10.00"> +canRunAway</text>
</g>
<!-- Node15&#45;&gt;Node14 -->
<g id="edge22" class="edge"><title>Node15&#45;&gt;Node14</title>
<path fill="none" stroke="#404040" d="M910.495,-1350.79C883.903,-1330.09 830.915,-1292.23 779,-1275 701.015,-1249.12 666.818,-1296.92 595,-1257 593.636,-1256.24 592.289,-1255.45 590.96,-1254.61"/>
<polygon fill="none" stroke="#404040" points="590.897,-1254.57 583.689,-1254.35 581.121,-1247.61 588.328,-1247.83 590.897,-1254.57"/>
<text text-anchor="middle" x="839" y="-1278" font-family="Helvetica,sans-Serif" font-size="10.00"> &#45;wasCriticalHit</text>
</g>
<!-- Node16&#45;&gt;Node5 -->
<g id="edge35" class="edge"><title>Node16&#45;&gt;Node5</title>
<path fill="none" stroke="#404040" d="M392.351,-1304.48C390.241,-1264.36 388,-1210.56 388,-1163 388,-1163 388,-1163 388,-524.5 388,-425.766 514.259,-467.936 555,-378 573.343,-337.508 567.073,-310.78 535,-280 511.56,-257.505 481.221,-237.778 455.341,-223.055"/>
<polygon fill="none" stroke="#404040" points="455.043,-222.889 447.855,-223.469 444.555,-217.057 451.743,-216.477 455.043,-222.889"/>
<text text-anchor="middle" x="418.5" y="-731" font-family="Helvetica,sans-Serif" font-size="10.00"> +takenPlayer</text>
</g>
<!-- Node16&#45;&gt;Node14 -->
<g id="edge23" class="edge"><title>Node16&#45;&gt;Node14</title>
<path fill="none" stroke="#404040" d="M434.104,-1304.39C441.848,-1292.08 450.195,-1278.8 458.563,-1265.49"/>
<polygon fill="none" stroke="#404040" points="458.57,-1265.48 458.377,-1258.27 464.957,-1255.32 465.15,-1262.53 458.57,-1265.48"/>
<text text-anchor="middle" x="468.5" y="-1278" font-family="Helvetica,sans-Serif" font-size="10.00"> &#45;player</text>
</g>
<!-- Node17 -->
<g id="node16" class="node"><title>Node17</title>
<polygon fill="none" stroke="#bfbfbf" points="987.5,-874.5 987.5,-931.5 1022.5,-931.5 1022.5,-874.5 987.5,-874.5"/>
<text text-anchor="middle" x="1005" y="-919.5" font-family="Helvetica,sans-Serif" font-size="10.00">float</text>
<polyline fill="none" stroke="#bfbfbf" points="987.5,-912.5 1022.5,-912.5 "/>
<text text-anchor="middle" x="1005" y="-900.5" font-family="Helvetica,sans-Serif" font-size="10.00"> </text>
<polyline fill="none" stroke="#bfbfbf" points="987.5,-893.5 1022.5,-893.5 "/>
<text text-anchor="middle" x="1005" y="-881.5" font-family="Helvetica,sans-Serif" font-size="10.00"> </text>
</g>
<!-- Node17&#45;&gt;Node2 -->
<g id="edge37" class="edge"><title>Node17&#45;&gt;Node2</title>
<path fill="none" stroke="#404040" d="M1007.31,-874.053C1008.99,-852.262 1011.12,-821.23 1012,-794 1013.74,-740.25 1013.7,-726.751 1012,-673 1008.16,-551.279 1023.77,-233.664 965,-127 946.851,-94.0594 911.435,-71.726 879.353,-57.375"/>
<polygon fill="none" stroke="#404040" points="879.223,-57.3197 872.136,-58.6552 868.178,-52.6275 875.264,-51.2921 879.223,-57.3197"/>
<text text-anchor="middle" x="1045" y="-410" font-family="Helvetica,sans-Serif" font-size="10.00"> +special2Value</text>
<text text-anchor="middle" x="1045" y="-399" font-family="Helvetica,sans-Serif" font-size="10.00">+special1Value</text>
</g>
<!-- Node17&#45;&gt;Node12 -->
<g id="edge28" class="edge"><title>Node17&#45;&gt;Node12</title>
<path fill="none" stroke="#404040" d="M987.051,-892.27C942.884,-868.329 827.332,-805.691 755.821,-766.927"/>
<polygon fill="none" stroke="#404040" points="755.722,-766.874 748.541,-767.531 745.172,-761.155 752.353,-760.498 755.722,-766.874"/>
<text text-anchor="middle" x="917" y="-826" font-family="Helvetica,sans-Serif" font-size="10.00"> #special</text>
</g>
<!-- Node18 -->
<g id="node17" class="node"><title>Node18</title>
<polygon fill="none" stroke="#bfbfbf" points="942.5,-705 942.5,-762 1003.5,-762 1003.5,-705 942.5,-705"/>
<text text-anchor="middle" x="973" y="-750" font-family="Helvetica,sans-Serif" font-size="10.00">Texture2D</text>
<polyline fill="none" stroke="#bfbfbf" points="942.5,-743 1003.5,-743 "/>
<text text-anchor="middle" x="973" y="-731" font-family="Helvetica,sans-Serif" font-size="10.00"> </text>
<polyline fill="none" stroke="#bfbfbf" points="942.5,-724 1003.5,-724 "/>
<text text-anchor="middle" x="973" y="-712" font-family="Helvetica,sans-Serif" font-size="10.00"> </text>
</g>
<!-- Node18&#45;&gt;Node2 -->
<g id="edge41" class="edge"><title>Node18&#45;&gt;Node2</title>
<path fill="none" stroke="#404040" d="M968.172,-704.944C961.696,-665.525 951,-590.702 951,-526.5 951,-526.5 951,-526.5 951,-193.5 951,-145.062 913.754,-104.309 877.962,-76.3295"/>
<polygon fill="none" stroke="#404040" points="877.524,-75.9993 870.325,-75.5853 867.938,-68.7806 875.137,-69.1946 877.524,-75.9993"/>
<text text-anchor="middle" x="968" y="-341" font-family="Helvetica,sans-Serif" font-size="10.00"> +sprite</text>
</g>
<!-- Node18&#45;&gt;Node10 -->
<g id="edge30" class="edge"><title>Node18&#45;&gt;Node10</title>
<path fill="none" stroke="#404040" d="M955.167,-704.724C947.56,-694.088 938.108,-682.29 928,-673 920.53,-666.135 820.233,-603.512 753.983,-562.393"/>
<polygon fill="none" stroke="#404040" points="753.859,-562.316 746.652,-562.552 743.662,-555.99 750.869,-555.754 753.859,-562.316"/>
<text text-anchor="middle" x="917.5" y="-641.5" font-family="Helvetica,sans-Serif" font-size="10.00"> #image</text>
</g>
<!-- Node19 -->
<g id="node18" class="node"><title>Node19</title>
<polygon fill="none" stroke="#bfbfbf" points="448,-309.5 448,-377.5 546,-377.5 546,-309.5 448,-309.5"/>
<text text-anchor="start" x="456" y="-365.5" font-family="Helvetica,sans-Serif" font-size="10.00">IDictionary&lt; string,</text>
<text text-anchor="middle" x="497" y="-354.5" font-family="Helvetica,sans-Serif" font-size="10.00"> bool &gt;</text>
<polyline fill="none" stroke="#bfbfbf" points="448,-347.5 546,-347.5 "/>
<text text-anchor="middle" x="497" y="-335.5" font-family="Helvetica,sans-Serif" font-size="10.00"> </text>
<polyline fill="none" stroke="#bfbfbf" points="448,-328.5 546,-328.5 "/>
<text text-anchor="middle" x="497" y="-316.5" font-family="Helvetica,sans-Serif" font-size="10.00"> </text>
</g>
<!-- Node19&#45;&gt;Node5 -->
<g id="edge36" class="edge"><title>Node19&#45;&gt;Node5</title>
<path fill="none" stroke="#404040" d="M475.216,-309.143C467.97,-298.048 459.574,-285.192 451.091,-272.202"/>
<polygon fill="none" stroke="#404040" points="450.851,-271.834 444.221,-268.997 444.289,-261.787 450.919,-264.623 450.851,-271.834"/>
<text text-anchor="middle" x="497.5" y="-283" font-family="Helvetica,sans-Serif" font-size="10.00"> +objectsActive</text>
</g>
<!-- Node20 -->
<g id="node19" class="node"><title>Node20</title>
<polygon fill="none" stroke="#bfbfbf" points="1141.5,-166 1141.5,-223 1216.5,-223 1216.5,-166 1141.5,-166"/>
<text text-anchor="middle" x="1179" y="-211" font-family="Helvetica,sans-Serif" font-size="10.00">EnemyMoves</text>
<polyline fill="none" stroke="#bfbfbf" points="1141.5,-204 1216.5,-204 "/>
<text text-anchor="middle" x="1179" y="-192" font-family="Helvetica,sans-Serif" font-size="10.00"> </text>
<polyline fill="none" stroke="#bfbfbf" points="1141.5,-185 1216.5,-185 "/>
<text text-anchor="middle" x="1179" y="-173" font-family="Helvetica,sans-Serif" font-size="10.00"> </text>
</g>
<!-- Node20&#45;&gt;Node2 -->
<g id="edge40" class="edge"><title>Node20&#45;&gt;Node2</title>
<path fill="none" stroke="#404040" d="M1173.05,-165.738C1166.25,-141.062 1152.59,-106.035 1127,-87 1088.98,-58.7152 960.881,-45.2112 880.525,-39.3804"/>
<polygon fill="none" stroke="#404040" points="880.03,-39.3459 873.766,-42.9179 868.059,-38.5094 874.323,-34.9374 880.03,-39.3459"/>
<text text-anchor="middle" x="1170" y="-101" font-family="Helvetica,sans-Serif" font-size="10.00"> +special1</text>
<text text-anchor="middle" x="1170" y="-90" font-family="Helvetica,sans-Serif" font-size="10.00">+special2</text>
</g>
</g>
</svg>
