<?xml version="1.0" encoding="UTF-8" standalone="no"?>
<!DOCTYPE svg PUBLIC "-//W3C//DTD SVG 1.1//EN"
 "http://www.w3.org/Graphics/SVG/1.1/DTD/svg11.dtd">
<!-- Generated by graphviz version 2.38.0 (20140413.2041)
 -->
<!-- Title: BiologyScript Pages: 1 -->
<!--zoomable 1462 -->
<svg id="main" version="1.1" xmlns="http://www.w3.org/2000/svg" xmlns:xlink="http://www.w3.org/1999/xlink" xml:space="preserve" onload="init(evt)">
<style type="text/css"><![CDATA[
.edge:hover path { stroke: red; }
.edge:hover polygon { stroke: red; fill: red; }
]]></style>
<script type="text/javascript"><![CDATA[
var edges = document.getElementsByTagName('g');
if (edges && edges.length) {
  for (var i=0;i<edges.length;i++) {
    if (edges[i].id.substr(0,4)=='edge') {
      edges[i].setAttribute('class','edge');
    }
  }
}
]]></script>
        <defs>
                <circle id="rim" cx="0" cy="0" r="7"/>
                <circle id="rim2" cx="0" cy="0" r="3.5"/>
                <g id="zoomPlus">
                        <use xlink:href="#rim" fill="#404040">
                                <set attributeName="fill" to="#808080" begin="zoomplus.mouseover" end="zoomplus.mouseout"/>
                        </use>
                        <path d="M-4,0h8M0,-4v8" fill="none" stroke="white" stroke-width="1.5" pointer-events="none"/>
                </g>
                <g id="zoomMin">
                        <use xlink:href="#rim" fill="#404040">
                                <set attributeName="fill" to="#808080" begin="zoomminus.mouseover" end="zoomminus.mouseout"/>
                        </use>
                        <path d="M-4,0h8" fill="none" stroke="white" stroke-width="1.5" pointer-events="none"/>
                </g>
                <g id="dirArrow">
                        <path fill="none" stroke="white" stroke-width="1.5" d="M0,-3.0v7 M-2.5,-0.5L0,-3.0L2.5,-0.5"/>
                </g>
               <g id="resetDef">
                       <use xlink:href="#rim2" fill="#404040">
                               <set attributeName="fill" to="#808080" begin="reset.mouseover" end="reset.mouseout"/>
                       </use>
               </g>
        </defs>

<script type="text/javascript">
var viewWidth = 781;
var viewHeight = 1462;
var sectionId = 'dynsection-1';
</script>
<script xlink:href="svgpan.js"/>
<svg id="graph" class="graph">
<g id="viewport">
<title>BiologyScript</title>
<!-- Node2 -->
<g id="node1" class="node"><title>Node2</title>
<polygon fill="#bfbfbf" stroke="black" points="118.929,-487 118.929,-555 207.929,-555 207.929,-487 118.929,-487"/>
<text text-anchor="middle" x="163.429" y="-543" font-family="Helvetica,sans-Serif" font-size="10.00">BiologyScript</text>
<polyline fill="none" stroke="black" points="118.929,-536 207.929,-536 "/>
<text text-anchor="middle" x="163.429" y="-524" font-family="Helvetica,sans-Serif" font-size="10.00"> </text>
<polyline fill="none" stroke="black" points="118.929,-517 207.929,-517 "/>
<text text-anchor="start" x="126.929" y="-505" font-family="Helvetica,sans-Serif" font-size="10.00">+ restorePlayer()</text>
<text text-anchor="start" x="126.929" y="-494" font-family="Helvetica,sans-Serif" font-size="10.00">&#45; Start()</text>
</g>
<!-- Node2&#45;&gt;Node2 -->
<g id="edge2" class="edge"><title>Node2&#45;&gt;Node2</title>
<path fill="none" stroke="#404040" d="M208.092,-532.369C218.375,-531.389 225.929,-527.6 225.929,-521 225.929,-517.391 223.669,-514.622 219.94,-512.694"/>
<polygon fill="none" stroke="#404040" points="219.71,-512.634 212.9,-515.005 208.092,-509.631 214.902,-507.26 219.71,-512.634"/>
<text text-anchor="middle" x="248.929" y="-518.5" font-family="Helvetica,sans-Serif" font-size="10.00"> +instance</text>
</g>
<!-- Node3 -->
<g id="node2" class="node"><title>Node3</title>
<g id="a_node2"><a xlink:href="class_mono_behaviour.html" target="_top" xlink:title="{MonoBehaviour\n||}">
<polygon fill="none" stroke="black" points="50.9285,-828.5 50.9285,-885.5 133.929,-885.5 133.929,-828.5 50.9285,-828.5"/>
<text text-anchor="middle" x="92.4285" y="-873.5" font-family="Helvetica,sans-Serif" font-size="10.00">MonoBehaviour</text>
<polyline fill="none" stroke="black" points="50.9285,-866.5 133.929,-866.5 "/>
<text text-anchor="middle" x="92.4285" y="-854.5" font-family="Helvetica,sans-Serif" font-size="10.00"> </text>
<polyline fill="none" stroke="black" points="50.9285,-847.5 133.929,-847.5 "/>
<text text-anchor="middle" x="92.4285" y="-835.5" font-family="Helvetica,sans-Serif" font-size="10.00"> </text>
</a>
</g>
</g>
<!-- Node3&#45;&gt;Node2 -->
<g id="edge1" class="edge"><title>Node3&#45;&gt;Node2</title>
<path fill="none" stroke="midnightblue" d="M100.414,-818.435C114.407,-752.606 143.133,-617.476 156.412,-555.008"/>
<polygon fill="none" stroke="midnightblue" points="96.955,-817.874 98.2991,-828.383 103.802,-819.33 96.955,-817.874"/>
</g>
<!-- Node4 -->
<g id="node3" class="node"><title>Node4</title>
<g id="a_node3"><a xlink:href="class_data_manager.html" target="_top" xlink:title="An object to store all player data including players, items and money and provide useful functions ...">
<polygon fill="none" stroke="black" points="152.429,-685.5 152.429,-1028.5 304.429,-1028.5 304.429,-685.5 152.429,-685.5"/>
<text text-anchor="middle" x="228.429" y="-1016.5" font-family="Helvetica,sans-Serif" font-size="10.00">DataManager</text>
<polyline fill="none" stroke="black" points="152.429,-1009.5 304.429,-1009.5 "/>
<text text-anchor="start" x="160.429" y="-997.5" font-family="Helvetica,sans-Serif" font-size="10.00">+ Players</text>
<text text-anchor="start" x="160.429" y="-986.5" font-family="Helvetica,sans-Serif" font-size="10.00">+ Items</text>
<text text-anchor="start" x="160.429" y="-975.5" font-family="Helvetica,sans-Serif" font-size="10.00">+ Money</text>
<polyline fill="none" stroke="black" points="152.429,-968.5 304.429,-968.5 "/>
<text text-anchor="start" x="160.429" y="-956.5" font-family="Helvetica,sans-Serif" font-size="10.00">+ DataManager()</text>
<text text-anchor="start" x="160.429" y="-945.5" font-family="Helvetica,sans-Serif" font-size="10.00">+ DataManager()</text>
<text text-anchor="start" x="160.429" y="-934.5" font-family="Helvetica,sans-Serif" font-size="10.00">+ getFirstPlayer()</text>
<text text-anchor="start" x="160.429" y="-923.5" font-family="Helvetica,sans-Serif" font-size="10.00">+ getPlayerIndex()</text>
<text text-anchor="start" x="160.429" y="-912.5" font-family="Helvetica,sans-Serif" font-size="10.00">+ getAlivePlayer()</text>
<text text-anchor="start" x="160.429" y="-901.5" font-family="Helvetica,sans-Serif" font-size="10.00">+ playersAlive()</text>
<text text-anchor="start" x="160.429" y="-890.5" font-family="Helvetica,sans-Serif" font-size="10.00">+ addPlayer()</text>
<text text-anchor="start" x="160.429" y="-879.5" font-family="Helvetica,sans-Serif" font-size="10.00">+ swapPlayers()</text>
<text text-anchor="start" x="160.429" y="-868.5" font-family="Helvetica,sans-Serif" font-size="10.00">+ addItem()</text>
<text text-anchor="start" x="160.429" y="-857.5" font-family="Helvetica,sans-Serif" font-size="10.00">+ countItems()</text>
<text text-anchor="start" x="160.429" y="-846.5" font-family="Helvetica,sans-Serif" font-size="10.00">+ giveExpToAll()</text>
<text text-anchor="start" x="160.429" y="-835.5" font-family="Helvetica,sans-Serif" font-size="10.00">+ Save()</text>
<text text-anchor="start" x="160.429" y="-824.5" font-family="Helvetica,sans-Serif" font-size="10.00">+ Load()</text>
<text text-anchor="start" x="160.429" y="-813.5" font-family="Helvetica,sans-Serif" font-size="10.00">+ PlayerToSerializable()</text>
<text text-anchor="start" x="160.429" y="-802.5" font-family="Helvetica,sans-Serif" font-size="10.00">+ SerializableToPLayer()</text>
<text text-anchor="start" x="160.429" y="-791.5" font-family="Helvetica,sans-Serif" font-size="10.00">+ ItemToSerializable()</text>
<text text-anchor="start" x="160.429" y="-780.5" font-family="Helvetica,sans-Serif" font-size="10.00">+ SerializableToItem()</text>
<text text-anchor="start" x="160.429" y="-769.5" font-family="Helvetica,sans-Serif" font-size="10.00">+ SpecialMoveToSerializable()</text>
<text text-anchor="start" x="160.429" y="-758.5" font-family="Helvetica,sans-Serif" font-size="10.00">+ SerializableToSpecialMove()</text>
<text text-anchor="start" x="160.429" y="-747.5" font-family="Helvetica,sans-Serif" font-size="10.00">+ ObjectsActiveToSerializable()</text>
<text text-anchor="start" x="160.429" y="-736.5" font-family="Helvetica,sans-Serif" font-size="10.00">+ SerializableToObjectsActive()</text>
<text text-anchor="start" x="160.429" y="-725.5" font-family="Helvetica,sans-Serif" font-size="10.00">+ Texture2DToSerializable()</text>
<text text-anchor="start" x="160.429" y="-714.5" font-family="Helvetica,sans-Serif" font-size="10.00">+ SerializableToTexture2D()</text>
<text text-anchor="start" x="160.429" y="-703.5" font-family="Helvetica,sans-Serif" font-size="10.00">+ VectorToSerializable()</text>
<text text-anchor="start" x="160.429" y="-692.5" font-family="Helvetica,sans-Serif" font-size="10.00">+ SerializableToVector()</text>
</a>
</g>
</g>
<!-- Node4&#45;&gt;Node2 -->
<g id="edge3" class="edge"><title>Node4&#45;&gt;Node2</title>
<path fill="none" stroke="#404040" d="M195.167,-685.086C186.684,-641.498 178.27,-598.265 172.239,-567.275"/>
<polygon fill="none" stroke="#404040" points="172.181,-566.972 167.108,-561.847 169.888,-555.193 174.961,-560.319 172.181,-566.972"/>
<text text-anchor="middle" x="202.929" y="-620.5" font-family="Helvetica,sans-Serif" font-size="10.00"> &#45;data</text>
</g>
<!-- Node5 -->
<g id="node4" class="node"><title>Node5</title>
<g id="a_node4"><a xlink:href="class_item.html" target="_top" xlink:title="Abstract class for items that can be equipped to a player, increasing some of their stats ...">
<polygon fill="none" stroke="black" points="77.9285,-1258.5 77.9285,-1337.5 154.929,-1337.5 154.929,-1258.5 77.9285,-1258.5"/>
<text text-anchor="middle" x="116.429" y="-1325.5" font-family="Helvetica,sans-Serif" font-size="10.00">Item</text>
<polyline fill="none" stroke="black" points="77.9285,-1318.5 154.929,-1318.5 "/>
<text text-anchor="start" x="85.9285" y="-1306.5" font-family="Helvetica,sans-Serif" font-size="10.00">+ Name</text>
<text text-anchor="start" x="85.9285" y="-1295.5" font-family="Helvetica,sans-Serif" font-size="10.00">+ Desc</text>
<polyline fill="none" stroke="black" points="77.9285,-1288.5 154.929,-1288.5 "/>
<text text-anchor="start" x="85.9285" y="-1276.5" font-family="Helvetica,sans-Serif" font-size="10.00">+ applyBuffs()</text>
<text text-anchor="start" x="85.9285" y="-1265.5" font-family="Helvetica,sans-Serif" font-size="10.00">+ revertBuffs()</text>
</a>
</g>
</g>
<!-- Node5&#45;&gt;Node4 -->
<g id="edge4" class="edge"><title>Node5&#45;&gt;Node4</title>
<path fill="none" stroke="#404040" d="M115.539,-1258.45C115.39,-1213.86 117.865,-1138.55 133.429,-1076 137.399,-1060.04 142.434,-1043.77 148.106,-1027.67"/>
<polygon fill="none" stroke="#404040" points="148.252,-1027.27 146.537,-1020.27 152.343,-1015.99 154.058,-1022.99 148.252,-1027.27"/>
<text text-anchor="middle" x="148.929" y="-1135.5" font-family="Helvetica,sans-Serif" font-size="10.00"> &#45;items</text>
</g>
<!-- Node8 -->
<g id="node7" class="node"><title>Node8</title>
<g id="a_node7"><a xlink:href="class_player.html" target="_top" xlink:title="Defines a playable character for use in battle scenes">
<polygon fill="none" stroke="black" points="237.429,-1076.5 237.429,-1199.5 349.429,-1199.5 349.429,-1076.5 237.429,-1076.5"/>
<text text-anchor="middle" x="293.429" y="-1187.5" font-family="Helvetica,sans-Serif" font-size="10.00">Player</text>
<polyline fill="none" stroke="black" points="237.429,-1180.5 349.429,-1180.5 "/>
<text text-anchor="start" x="245.429" y="-1168.5" font-family="Helvetica,sans-Serif" font-size="10.00">+ Exp</text>
<text text-anchor="start" x="245.429" y="-1157.5" font-family="Helvetica,sans-Serif" font-size="10.00">+ Item</text>
<text text-anchor="start" x="245.429" y="-1146.5" font-family="Helvetica,sans-Serif" font-size="10.00">+ ExpToNextLevel</text>
<polyline fill="none" stroke="black" points="237.429,-1139.5 349.429,-1139.5 "/>
<text text-anchor="start" x="245.429" y="-1127.5" font-family="Helvetica,sans-Serif" font-size="10.00">+ Player()</text>
<text text-anchor="start" x="245.429" y="-1116.5" font-family="Helvetica,sans-Serif" font-size="10.00">+ gainExp()</text>
<text text-anchor="start" x="245.429" y="-1105.5" font-family="Helvetica,sans-Serif" font-size="10.00">+ levelUp()</text>
<text text-anchor="start" x="245.429" y="-1094.5" font-family="Helvetica,sans-Serif" font-size="10.00">+ Clone()</text>
<text text-anchor="start" x="245.429" y="-1083.5" font-family="Helvetica,sans-Serif" font-size="10.00">&#45; setExpToNextLevel()</text>
</a>
</g>
</g>
<!-- Node5&#45;&gt;Node8 -->
<g id="edge27" class="edge"><title>Node5&#45;&gt;Node8</title>
<path fill="none" stroke="#404040" d="M155.272,-1262.33C176.567,-1243.32 203.535,-1219.24 227.98,-1197.42"/>
<polygon fill="none" stroke="#404040" points="228.256,-1197.18 230.068,-1190.2 237.208,-1189.19 235.396,-1196.17 228.256,-1197.18"/>
<text text-anchor="middle" x="217.929" y="-1226.5" font-family="Helvetica,sans-Serif" font-size="10.00"> &#45;item</text>
</g>
<!-- Node6 -->
<g id="node5" class="node"><title>Node6</title>
<polygon fill="none" stroke="#bfbfbf" points="622.929,-1396.5 622.929,-1453.5 663.929,-1453.5 663.929,-1396.5 622.929,-1396.5"/>
<text text-anchor="middle" x="643.429" y="-1441.5" font-family="Helvetica,sans-Serif" font-size="10.00">string</text>
<polyline fill="none" stroke="#bfbfbf" points="622.929,-1434.5 663.929,-1434.5 "/>
<text text-anchor="middle" x="643.429" y="-1422.5" font-family="Helvetica,sans-Serif" font-size="10.00"> </text>
<polyline fill="none" stroke="#bfbfbf" points="622.929,-1415.5 663.929,-1415.5 "/>
<text text-anchor="middle" x="643.429" y="-1403.5" font-family="Helvetica,sans-Serif" font-size="10.00"> </text>
</g>
<!-- Node6&#45;&gt;Node5 -->
<g id="edge5" class="edge"><title>Node6&#45;&gt;Node5</title>
<path fill="none" stroke="#404040" d="M622.769,-1419.1C546.556,-1401.02 279.772,-1337.74 167.177,-1311.04"/>
<polygon fill="none" stroke="#404040" points="166.859,-1310.96 160.097,-1313.47 155.183,-1308.19 161.944,-1305.68 166.859,-1310.96"/>
<text text-anchor="middle" x="458.429" y="-1370" font-family="Helvetica,sans-Serif" font-size="10.00"> #desc</text>
<text text-anchor="middle" x="458.429" y="-1359" font-family="Helvetica,sans-Serif" font-size="10.00">#name</text>
</g>
<!-- Node9 -->
<g id="node8" class="node"><title>Node9</title>
<g id="a_node8"><a xlink:href="class_character.html" target="_top" xlink:title="Base abstract class for Enemy and Player to inherit from. Defines all shared variables, their constructor and their setters and getters ">
<polygon fill="none" stroke="black" points="409.929,-95.5 409.929,-273.5 504.929,-273.5 504.929,-95.5 409.929,-95.5"/>
<text text-anchor="middle" x="457.429" y="-261.5" font-family="Helvetica,sans-Serif" font-size="10.00">Character</text>
<polyline fill="none" stroke="black" points="409.929,-254.5 504.929,-254.5 "/>
<text text-anchor="start" x="417.929" y="-242.5" font-family="Helvetica,sans-Serif" font-size="10.00">+ Name</text>
<text text-anchor="start" x="417.929" y="-231.5" font-family="Helvetica,sans-Serif" font-size="10.00">+ Level</text>
<text text-anchor="start" x="417.929" y="-220.5" font-family="Helvetica,sans-Serif" font-size="10.00">+ Health</text>
<text text-anchor="start" x="417.929" y="-209.5" font-family="Helvetica,sans-Serif" font-size="10.00">+ Attack</text>
<text text-anchor="start" x="417.929" y="-198.5" font-family="Helvetica,sans-Serif" font-size="10.00">+ Defence</text>
<text text-anchor="start" x="417.929" y="-187.5" font-family="Helvetica,sans-Serif" font-size="10.00">+ MaximumMagic</text>
<text text-anchor="start" x="417.929" y="-176.5" font-family="Helvetica,sans-Serif" font-size="10.00">+ Magic</text>
<text text-anchor="start" x="417.929" y="-165.5" font-family="Helvetica,sans-Serif" font-size="10.00">+ Luck</text>
<text text-anchor="start" x="417.929" y="-154.5" font-family="Helvetica,sans-Serif" font-size="10.00">+ Speed</text>
<text text-anchor="start" x="417.929" y="-143.5" font-family="Helvetica,sans-Serif" font-size="10.00">+ Special1</text>
<text text-anchor="start" x="417.929" y="-132.5" font-family="Helvetica,sans-Serif" font-size="10.00">+ Special2</text>
<text text-anchor="start" x="417.929" y="-121.5" font-family="Helvetica,sans-Serif" font-size="10.00">+ Image</text>
<polyline fill="none" stroke="black" points="409.929,-114.5 504.929,-114.5 "/>
<text text-anchor="start" x="417.929" y="-102.5" font-family="Helvetica,sans-Serif" font-size="10.00"># Character()</text>
</a>
</g>
</g>
<!-- Node6&#45;&gt;Node9 -->
<g id="edge9" class="edge"><title>Node6&#45;&gt;Node9</title>
<path fill="none" stroke="#404040" d="M664,-1410.56C692.473,-1390.16 740.429,-1348.44 740.429,-1299 740.429,-1299 740.429,-1299 740.429,-382 740.429,-274.108 599.928,-220.702 516.922,-198.565"/>
<polygon fill="none" stroke="#404040" points="516.736,-198.518 509.928,-200.894 505.116,-195.523 511.924,-193.147 516.736,-198.518"/>
<text text-anchor="middle" x="756.929" y="-854.5" font-family="Helvetica,sans-Serif" font-size="10.00"> #name</text>
</g>
<!-- Node10 -->
<g id="node9" class="node"><title>Node10</title>
<g id="a_node9"><a xlink:href="class_special_move.html" target="_top" xlink:title="Special move abstract base class that expands upon CharacterMove, adding magic properties ...">
<polygon fill="none" stroke="black" points="589.429,-332.5 589.429,-433.5 687.429,-433.5 687.429,-332.5 589.429,-332.5"/>
<text text-anchor="middle" x="638.429" y="-421.5" font-family="Helvetica,sans-Serif" font-size="10.00">SpecialMove</text>
<polyline fill="none" stroke="black" points="589.429,-414.5 687.429,-414.5 "/>
<text text-anchor="start" x="597.429" y="-402.5" font-family="Helvetica,sans-Serif" font-size="10.00">+ Magic</text>
<text text-anchor="start" x="597.429" y="-391.5" font-family="Helvetica,sans-Serif" font-size="10.00">+ Desc</text>
<text text-anchor="start" x="597.429" y="-380.5" font-family="Helvetica,sans-Serif" font-size="10.00">+ Special</text>
<polyline fill="none" stroke="black" points="589.429,-373.5 687.429,-373.5 "/>
<text text-anchor="start" x="597.429" y="-361.5" font-family="Helvetica,sans-Serif" font-size="10.00">+ setUp()</text>
<text text-anchor="start" x="597.429" y="-350.5" font-family="Helvetica,sans-Serif" font-size="10.00">+ decreaseMagic()</text>
<text text-anchor="start" x="597.429" y="-339.5" font-family="Helvetica,sans-Serif" font-size="10.00"># SpecialMove()</text>
</a>
</g>
</g>
<!-- Node6&#45;&gt;Node10 -->
<g id="edge23" class="edge"><title>Node6&#45;&gt;Node10</title>
<path fill="none" stroke="#404040" d="M662.129,-1396.03C676.685,-1371.52 694.429,-1334.39 694.429,-1299 694.429,-1299 694.429,-1299 694.429,-520 694.429,-489.144 691.821,-480.676 680.429,-452 679.45,-449.538 678.384,-447.065 677.249,-444.596"/>
<polygon fill="none" stroke="#404040" points="677.244,-444.584 670.986,-441.001 671.887,-433.846 678.144,-437.43 677.244,-444.584"/>
<text text-anchor="middle" x="709.429" y="-1050" font-family="Helvetica,sans-Serif" font-size="10.00"> #desc</text>
</g>
<!-- Node11 -->
<g id="node10" class="node"><title>Node11</title>
<g id="a_node10"><a xlink:href="class_character_move.html" target="_top" xlink:title="Astract base class for character moves ">
<polygon fill="none" stroke="black" points="476.429,-481.5 476.429,-560.5 562.429,-560.5 562.429,-481.5 476.429,-481.5"/>
<text text-anchor="middle" x="519.429" y="-548.5" font-family="Helvetica,sans-Serif" font-size="10.00">CharacterMove</text>
<polyline fill="none" stroke="black" points="476.429,-541.5 562.429,-541.5 "/>
<text text-anchor="start" x="484.429" y="-529.5" font-family="Helvetica,sans-Serif" font-size="10.00">+ User</text>
<text text-anchor="start" x="484.429" y="-518.5" font-family="Helvetica,sans-Serif" font-size="10.00">+ Target</text>
<text text-anchor="start" x="484.429" y="-507.5" font-family="Helvetica,sans-Serif" font-size="10.00">+ Text</text>
<polyline fill="none" stroke="black" points="476.429,-500.5 562.429,-500.5 "/>
<text text-anchor="start" x="484.429" y="-488.5" font-family="Helvetica,sans-Serif" font-size="10.00">+ performMove()</text>
</a>
</g>
</g>
<!-- Node6&#45;&gt;Node11 -->
<g id="edge13" class="edge"><title>Node6&#45;&gt;Node11</title>
<path fill="none" stroke="#404040" d="M642.736,-1396.22C641.475,-1356.54 638.083,-1281.4 629.429,-1218 617.827,-1133.02 602.351,-1113.94 590.429,-1029 562.549,-830.377 620.584,-769.033 556.429,-579 555.57,-576.457 554.572,-573.916 553.466,-571.396"/>
<polygon fill="none" stroke="#404040" points="553.404,-571.274 547.138,-567.706 548.022,-560.549 554.288,-564.117 553.404,-571.274"/>
<text text-anchor="middle" x="639.929" y="-1135.5" font-family="Helvetica,sans-Serif" font-size="10.00"> #text</text>
</g>
<!-- Node12 -->
<g id="node11" class="node"><title>Node12</title>
<g id="a_node11"><a xlink:href="class_battle_manager.html" target="_top" xlink:title="Holds current Player and Enemy objects in battle and provides functions for MainBattle and other obje...">
<polygon fill="none" stroke="black" points="360.429,-762.5 360.429,-951.5 476.429,-951.5 476.429,-762.5 360.429,-762.5"/>
<text text-anchor="middle" x="418.429" y="-939.5" font-family="Helvetica,sans-Serif" font-size="10.00">BattleManager</text>
<polyline fill="none" stroke="black" points="360.429,-932.5 476.429,-932.5 "/>
<text text-anchor="start" x="368.429" y="-920.5" font-family="Helvetica,sans-Serif" font-size="10.00">+ Player</text>
<text text-anchor="start" x="368.429" y="-909.5" font-family="Helvetica,sans-Serif" font-size="10.00">+ Enemy</text>
<text text-anchor="start" x="368.429" y="-898.5" font-family="Helvetica,sans-Serif" font-size="10.00">+ WasCriticalHit</text>
<polyline fill="none" stroke="black" points="360.429,-891.5 476.429,-891.5 "/>
<text text-anchor="start" x="368.429" y="-879.5" font-family="Helvetica,sans-Serif" font-size="10.00">+ BattleManager()</text>
<text text-anchor="start" x="368.429" y="-868.5" font-family="Helvetica,sans-Serif" font-size="10.00">+ playerFirst()</text>
<text text-anchor="start" x="368.429" y="-857.5" font-family="Helvetica,sans-Serif" font-size="10.00">+ switchPlayers()</text>
<text text-anchor="start" x="368.429" y="-846.5" font-family="Helvetica,sans-Serif" font-size="10.00">+ isCriticalHit()</text>
<text text-anchor="start" x="368.429" y="-835.5" font-family="Helvetica,sans-Serif" font-size="10.00">+ ranAway()</text>
<text text-anchor="start" x="368.429" y="-824.5" font-family="Helvetica,sans-Serif" font-size="10.00">+ damageCalculation()</text>
<text text-anchor="start" x="368.429" y="-813.5" font-family="Helvetica,sans-Serif" font-size="10.00">+ enemyMove()</text>
<text text-anchor="start" x="368.429" y="-802.5" font-family="Helvetica,sans-Serif" font-size="10.00">+ enemySpecialMove()</text>
<text text-anchor="start" x="368.429" y="-791.5" font-family="Helvetica,sans-Serif" font-size="10.00">+ battleWon()</text>
<text text-anchor="start" x="368.429" y="-780.5" font-family="Helvetica,sans-Serif" font-size="10.00">+ playerFainted()</text>
<text text-anchor="start" x="368.429" y="-769.5" font-family="Helvetica,sans-Serif" font-size="10.00">&#45; characterFainted()</text>
</a>
</g>
</g>
<!-- Node6&#45;&gt;Node12 -->
<g id="edge16" class="edge"><title>Node6&#45;&gt;Node12</title>
<path fill="none" stroke="#404040" d="M626.627,-1396.43C605.612,-1361.13 569.476,-1297.62 545.429,-1240 510.829,-1157.1 513.774,-1132.24 485.429,-1047 476.393,-1019.83 466.247,-990.608 456.637,-963.458"/>
<polygon fill="none" stroke="#404040" points="456.571,-963.27 450.794,-958.954 452.557,-951.962 458.333,-956.278 456.571,-963.27"/>
<text text-anchor="middle" x="587.429" y="-1232" font-family="Helvetica,sans-Serif" font-size="10.00"> +forceEnemyMove</text>
<text text-anchor="middle" x="587.429" y="-1221" font-family="Helvetica,sans-Serif" font-size="10.00">+forceCriticalHits</text>
</g>
<!-- Node7 -->
<g id="node6" class="node"><title>Node7</title>
<polygon fill="none" stroke="#bfbfbf" points="324.929,-1269.5 324.929,-1326.5 353.929,-1326.5 353.929,-1269.5 324.929,-1269.5"/>
<text text-anchor="middle" x="339.429" y="-1314.5" font-family="Helvetica,sans-Serif" font-size="10.00">int</text>
<polyline fill="none" stroke="#bfbfbf" points="324.929,-1307.5 353.929,-1307.5 "/>
<text text-anchor="middle" x="339.429" y="-1295.5" font-family="Helvetica,sans-Serif" font-size="10.00"> </text>
<polyline fill="none" stroke="#bfbfbf" points="324.929,-1288.5 353.929,-1288.5 "/>
<text text-anchor="middle" x="339.429" y="-1276.5" font-family="Helvetica,sans-Serif" font-size="10.00"> </text>
</g>
<!-- Node7&#45;&gt;Node4 -->
<g id="edge6" class="edge"><title>Node7&#45;&gt;Node4</title>
<path fill="none" stroke="#404040" d="M324.629,-1292.53C293.366,-1282.18 221.121,-1253.31 192.429,-1200 166.583,-1151.98 163.764,-1094.69 170.83,-1040.85"/>
<polygon fill="none" stroke="#404040" points="170.87,-1040.58 167.775,-1034.07 172.597,-1028.7 175.692,-1035.22 170.87,-1040.58"/>
<text text-anchor="middle" x="210.429" y="-1135.5" font-family="Helvetica,sans-Serif" font-size="10.00"> &#45;money</text>
</g>
<!-- Node7&#45;&gt;Node8 -->
<g id="edge28" class="edge"><title>Node7&#45;&gt;Node8</title>
<path fill="none" stroke="#404040" d="M324.914,-1283.04C314.857,-1272.33 302.265,-1256.61 296.429,-1240 293.3,-1231.1 291.353,-1221.48 290.23,-1211.83"/>
<polygon fill="none" stroke="#404040" points="290.212,-1211.62 285.731,-1205.97 289.221,-1199.66 293.703,-1205.31 290.212,-1211.62"/>
<text text-anchor="middle" x="333.929" y="-1232" font-family="Helvetica,sans-Serif" font-size="10.00"> &#45;expToNextLevel</text>
<text text-anchor="middle" x="333.929" y="-1221" font-family="Helvetica,sans-Serif" font-size="10.00">&#45;exp</text>
</g>
<!-- Node7&#45;&gt;Node9 -->
<g id="edge10" class="edge"><title>Node7&#45;&gt;Node9</title>
<path fill="none" stroke="#404040" d="M354.141,-1292.48C385.236,-1282.04 457.174,-1253 486.429,-1200 510.824,-1155.8 533.544,-744.976 485.429,-685 463.436,-657.586 430.269,-694.535 408.429,-667 384.123,-636.358 406.007,-618.036 408.429,-579 414.651,-478.678 429.714,-364.792 441.51,-285.448"/>
<polygon fill="none" stroke="#404040" points="441.521,-285.375 438.454,-278.849 443.299,-273.508 446.366,-280.034 441.521,-285.375"/>
<text text-anchor="middle" x="445.929" y="-659" font-family="Helvetica,sans-Serif" font-size="10.00"> #speed</text>
<text text-anchor="middle" x="445.929" y="-648" font-family="Helvetica,sans-Serif" font-size="10.00">#luck</text>
<text text-anchor="middle" x="445.929" y="-637" font-family="Helvetica,sans-Serif" font-size="10.00">#health</text>
<text text-anchor="middle" x="445.929" y="-626" font-family="Helvetica,sans-Serif" font-size="10.00">#magic</text>
<text text-anchor="middle" x="445.929" y="-615" font-family="Helvetica,sans-Serif" font-size="10.00">#maximumMagic</text>
<text text-anchor="middle" x="445.929" y="-604" font-family="Helvetica,sans-Serif" font-size="10.00">#attack</text>
<text text-anchor="middle" x="445.929" y="-593" font-family="Helvetica,sans-Serif" font-size="10.00">#defence</text>
<text text-anchor="middle" x="445.929" y="-582" font-family="Helvetica,sans-Serif" font-size="10.00">#level</text>
</g>
<!-- Node7&#45;&gt;Node10 -->
<g id="edge25" class="edge"><title>Node7&#45;&gt;Node10</title>
<path fill="none" stroke="#404040" d="M354.179,-1295.12C384.279,-1290.62 453.625,-1276.72 497.429,-1240 513.145,-1226.83 513.77,-1219.4 520.429,-1200 625.208,-894.792 571.124,-799.748 621.429,-481 623.229,-469.594 625.262,-457.455 627.281,-445.763"/>
<polygon fill="none" stroke="#404040" points="627.307,-445.613 624.397,-439.015 629.368,-433.791 632.278,-440.389 627.307,-445.613"/>
<text text-anchor="middle" x="616.929" y="-854.5" font-family="Helvetica,sans-Serif" font-size="10.00"> #magic</text>
</g>
<!-- Node7&#45;&gt;Node12 -->
<g id="edge20" class="edge"><title>Node7&#45;&gt;Node12</title>
<path fill="none" stroke="#404040" d="M353.99,-1275.73C360.37,-1265.38 367.325,-1252.51 371.429,-1240 375.72,-1226.92 393.968,-1072.34 406.422,-963.879"/>
<polygon fill="none" stroke="#404040" points="406.43,-963.808 403.14,-957.391 407.797,-951.886 411.088,-958.303 406.43,-963.808"/>
<text text-anchor="middle" x="412.929" y="-1135.5" font-family="Helvetica,sans-Serif" font-size="10.00"> +money</text>
</g>
<!-- Node13 -->
<g id="node12" class="node"><title>Node13</title>
<g id="a_node12"><a xlink:href="class_enemy.html" target="_top" xlink:title="Defines an AI controller enemy to fight in battle scenes">
<polygon fill="none" stroke="black" points="275.929,-0.5 275.929,-57.5 342.929,-57.5 342.929,-0.5 275.929,-0.5"/>
<text text-anchor="middle" x="309.429" y="-45.5" font-family="Helvetica,sans-Serif" font-size="10.00">Enemy</text>
<polyline fill="none" stroke="black" points="275.929,-38.5 342.929,-38.5 "/>
<text text-anchor="start" x="283.929" y="-26.5" font-family="Helvetica,sans-Serif" font-size="10.00">+ ExpGiven</text>
<polyline fill="none" stroke="black" points="275.929,-19.5 342.929,-19.5 "/>
<text text-anchor="start" x="283.929" y="-7.5" font-family="Helvetica,sans-Serif" font-size="10.00">+ Enemy()</text>
</a>
</g>
</g>
<!-- Node7&#45;&gt;Node13 -->
<g id="edge19" class="edge"><title>Node7&#45;&gt;Node13</title>
<path fill="none" stroke="#404040" d="M324.798,-1291.47C277.28,-1273.41 129.424,-1216.38 113.429,-1200 -67.6363,-1014.56 22.4285,-883.175 22.4285,-624 22.4285,-624 22.4285,-624 22.4285,-183.5 22.4285,-75.5577 182.239,-43.2373 263.356,-33.7846"/>
<polygon fill="none" stroke="#404040" points="263.731,-33.7442 269.267,-29.1231 275.662,-32.4558 270.126,-37.0769 263.731,-33.7442"/>
<text text-anchor="middle" x="45.4285" y="-518.5" font-family="Helvetica,sans-Serif" font-size="10.00"> &#45;expGiven</text>
</g>
<!-- Node8&#45;&gt;Node4 -->
<g id="edge7" class="edge"><title>Node8&#45;&gt;Node4</title>
<path fill="none" stroke="#404040" d="M259.196,-1076.24C256.616,-1070.2 254.295,-1064.05 252.429,-1058 250.639,-1052.2 248.982,-1046.26 247.447,-1040.23"/>
<polygon fill="none" stroke="#404040" points="247.444,-1040.22 242.155,-1035.32 244.645,-1028.55 249.934,-1033.45 247.444,-1040.22"/>
<text text-anchor="middle" x="271.429" y="-1050" font-family="Helvetica,sans-Serif" font-size="10.00"> &#45;players</text>
</g>
<!-- Node8&#45;&gt;Node12 -->
<g id="edge22" class="edge"><title>Node8&#45;&gt;Node12</title>
<path fill="none" stroke="#404040" d="M323.899,-1076.46C331.438,-1061.06 339.373,-1044.49 346.429,-1029 356.137,-1007.68 366.139,-984.681 375.485,-962.669"/>
<polygon fill="none" stroke="#404040" points="375.487,-962.663 374.14,-955.579 380.161,-951.61 381.508,-958.694 375.487,-962.663"/>
<text text-anchor="middle" x="353.929" y="-1050" font-family="Helvetica,sans-Serif" font-size="10.00"> &#45;player</text>
</g>
<!-- Node9&#45;&gt;Node8 -->
<g id="edge8" class="edge"><title>Node9&#45;&gt;Node8</title>
<path fill="none" stroke="midnightblue" d="M405.553,-270.951C402.476,-277.93 399.71,-284.994 397.429,-292 346.392,-448.738 337.502,-865.929 313.429,-1029 311.159,-1044.37 308.307,-1060.91 305.474,-1076.3"/>
<polygon fill="none" stroke="midnightblue" points="408.902,-272.048 409.926,-261.502 402.55,-269.108 408.902,-272.048"/>
</g>
<!-- Node9&#45;&gt;Node11 -->
<g id="edge14" class="edge"><title>Node9&#45;&gt;Node11</title>
<path fill="none" stroke="#404040" d="M449.792,-273.548C448.265,-321.899 450.778,-382.356 466.429,-434 470.284,-446.722 476.503,-459.45 483.347,-471.064"/>
<polygon fill="none" stroke="#404040" points="483.426,-471.193 489.99,-474.178 489.759,-481.386 483.195,-478.4 483.426,-471.193"/>
<text text-anchor="middle" x="483.429" y="-386" font-family="Helvetica,sans-Serif" font-size="10.00"> #target</text>
<text text-anchor="middle" x="483.429" y="-375" font-family="Helvetica,sans-Serif" font-size="10.00">#user</text>
</g>
<!-- Node9&#45;&gt;Node13 -->
<g id="edge18" class="edge"><title>Node9&#45;&gt;Node13</title>
<path fill="none" stroke="midnightblue" d="M402.836,-126.879C380.138,-103.337 354.819,-77.0773 336.273,-57.8422"/>
<polygon fill="none" stroke="midnightblue" points="400.325,-129.317 409.786,-134.087 405.364,-124.458 400.325,-129.317"/>
</g>
<!-- Node10&#45;&gt;Node9 -->
<g id="edge11" class="edge"><title>Node10&#45;&gt;Node9</title>
<path fill="none" stroke="#404040" d="M592.755,-332.415C568.668,-306.265 538.913,-273.962 513.443,-246.311"/>
<polygon fill="none" stroke="#404040" points="513.114,-245.954 506.107,-244.251 504.984,-237.128 511.991,-238.831 513.114,-245.954"/>
<text text-anchor="middle" x="597.929" y="-306" font-family="Helvetica,sans-Serif" font-size="10.00"> #special1</text>
<text text-anchor="middle" x="597.929" y="-295" font-family="Helvetica,sans-Serif" font-size="10.00">#special2</text>
</g>
<!-- Node11&#45;&gt;Node10 -->
<g id="edge12" class="edge"><title>Node11&#45;&gt;Node10</title>
<path fill="none" stroke="midnightblue" d="M560.033,-473.595C571.222,-460.807 583.407,-446.882 594.761,-433.905"/>
<polygon fill="none" stroke="midnightblue" points="557.162,-471.561 553.211,-481.392 562.43,-476.171 557.162,-471.561"/>
</g>
<!-- Node12&#45;&gt;Node11 -->
<g id="edge15" class="edge"><title>Node12&#45;&gt;Node11</title>
<path fill="none" stroke="#404040" d="M455.491,-762.121C466.621,-732.019 478.289,-698.355 487.429,-667 496.478,-635.955 504.342,-600.52 510.009,-572.451"/>
<polygon fill="none" stroke="#404040" points="510.043,-572.283 507.287,-565.619 512.378,-560.512 515.134,-567.176 510.043,-572.283"/>
<text text-anchor="middle" x="531.429" y="-620.5" font-family="Helvetica,sans-Serif" font-size="10.00"> #manager</text>
</g>
<!-- Node13&#45;&gt;Node12 -->
<g id="edge17" class="edge"><title>Node13&#45;&gt;Node12</title>
<path fill="none" stroke="#404040" d="M312.629,-57.6641C322.95,-146.362 356.592,-431.593 389.429,-667 393.204,-694.065 397.55,-723.266 401.709,-750.432"/>
<polygon fill="none" stroke="#404040" points="401.717,-750.484 406.582,-755.806 403.541,-762.344 398.675,-757.022 401.717,-750.484"/>
<text text-anchor="middle" x="376.429" y="-380.5" font-family="Helvetica,sans-Serif" font-size="10.00"> &#45;enemy</text>
</g>
<!-- Node14 -->
<g id="node13" class="node"><title>Node14</title>
<polygon fill="none" stroke="#bfbfbf" points="442.929,-1109.5 442.929,-1166.5 477.929,-1166.5 477.929,-1109.5 442.929,-1109.5"/>
<text text-anchor="middle" x="460.429" y="-1154.5" font-family="Helvetica,sans-Serif" font-size="10.00">bool</text>
<polyline fill="none" stroke="#bfbfbf" points="442.929,-1147.5 477.929,-1147.5 "/>
<text text-anchor="middle" x="460.429" y="-1135.5" font-family="Helvetica,sans-Serif" font-size="10.00"> </text>
<polyline fill="none" stroke="#bfbfbf" points="442.929,-1128.5 477.929,-1128.5 "/>
<text text-anchor="middle" x="460.429" y="-1116.5" font-family="Helvetica,sans-Serif" font-size="10.00"> </text>
</g>
<!-- Node14&#45;&gt;Node12 -->
<g id="edge21" class="edge"><title>Node14&#45;&gt;Node12</title>
<path fill="none" stroke="#404040" d="M445.801,-1109.18C434.168,-1087.01 419.78,-1059.43 419.429,-1058 412.013,-1027.94 409.642,-994.559 409.701,-963.815"/>
<polygon fill="none" stroke="#404040" points="409.702,-963.724 405.775,-957.676 409.847,-951.725 413.774,-957.773 409.702,-963.724"/>
<text text-anchor="middle" x="452.429" y="-1050" font-family="Helvetica,sans-Serif" font-size="10.00"> &#45;wasCriticalHit</text>
</g>
<!-- Node15 -->
<g id="node14" class="node"><title>Node15</title>
<polygon fill="none" stroke="#bfbfbf" points="630.929,-492.5 630.929,-549.5 665.929,-549.5 665.929,-492.5 630.929,-492.5"/>
<text text-anchor="middle" x="648.429" y="-537.5" font-family="Helvetica,sans-Serif" font-size="10.00">float</text>
<polyline fill="none" stroke="#bfbfbf" points="630.929,-530.5 665.929,-530.5 "/>
<text text-anchor="middle" x="648.429" y="-518.5" font-family="Helvetica,sans-Serif" font-size="10.00"> </text>
<polyline fill="none" stroke="#bfbfbf" points="630.929,-511.5 665.929,-511.5 "/>
<text text-anchor="middle" x="648.429" y="-499.5" font-family="Helvetica,sans-Serif" font-size="10.00"> </text>
</g>
<!-- Node15&#45;&gt;Node10 -->
<g id="edge24" class="edge"><title>Node15&#45;&gt;Node10</title>
<path fill="none" stroke="#404040" d="M643.885,-492.239C642.54,-482.966 641.218,-472.561 640.429,-463 639.978,-457.546 639.62,-451.873 639.335,-446.182"/>
<polygon fill="none" stroke="#404040" points="639.318,-445.764 635.074,-439.934 638.824,-433.774 643.068,-439.604 639.318,-445.764"/>
<text text-anchor="middle" x="660.429" y="-455" font-family="Helvetica,sans-Serif" font-size="10.00"> #special</text>
</g>
<!-- Node16 -->
<g id="node15" class="node"><title>Node16</title>
<polygon fill="none" stroke="#bfbfbf" points="509.929,-354.5 509.929,-411.5 570.929,-411.5 570.929,-354.5 509.929,-354.5"/>
<text text-anchor="middle" x="540.429" y="-399.5" font-family="Helvetica,sans-Serif" font-size="10.00">Texture2D</text>
<polyline fill="none" stroke="#bfbfbf" points="509.929,-392.5 570.929,-392.5 "/>
<text text-anchor="middle" x="540.429" y="-380.5" font-family="Helvetica,sans-Serif" font-size="10.00"> </text>
<polyline fill="none" stroke="#bfbfbf" points="509.929,-373.5 570.929,-373.5 "/>
<text text-anchor="middle" x="540.429" y="-361.5" font-family="Helvetica,sans-Serif" font-size="10.00"> </text>
</g>
<!-- Node16&#45;&gt;Node9 -->
<g id="edge26" class="edge"><title>Node16&#45;&gt;Node9</title>
<path fill="none" stroke="#404040" d="M528.713,-354.263C520.928,-335.832 510.187,-310.404 499.404,-284.875"/>
<polygon fill="none" stroke="#404040" points="499.292,-284.611 493.273,-280.641 494.623,-273.557 500.642,-277.528 499.292,-284.611"/>
<text text-anchor="middle" x="528.929" y="-300.5" font-family="Helvetica,sans-Serif" font-size="10.00"> #image</text>
</g>
</g>
</svg>
        <g id="navigator" transform="translate(0 0)" fill="#404254">
                <rect fill="#f2f5e9" fill-opacity="0.5" stroke="#606060" stroke-width=".5" x="0" y="0" width="60" height="60"/>
                <use id="zoomplus" xlink:href="#zoomPlus" x="17" y="9" onmousedown="handleZoom(evt,'in')"/>
                <use id="zoomminus" xlink:href="#zoomMin" x="42" y="9" onmousedown="handleZoom(evt,'out')"/>
                <use id="reset" xlink:href="#resetDef" x="30" y="36" onmousedown="handleReset()"/>
                <g id="arrowUp" xlink:href="#dirArrow" transform="translate(30 24)" onmousedown="handlePan(0,-1)">
                  <use xlink:href="#rim" fill="#404040">
                        <set attributeName="fill" to="#808080" begin="arrowUp.mouseover" end="arrowUp.mouseout"/>
                  </use>
                  <path fill="none" stroke="white" stroke-width="1.5" d="M0,-3.0v7 M-2.5,-0.5L0,-3.0L2.5,-0.5"/>
                </g>
                <g id="arrowRight" xlink:href="#dirArrow" transform="rotate(90) translate(36 -43)" onmousedown="handlePan(1,0)">
                  <use xlink:href="#rim" fill="#404040">
                        <set attributeName="fill" to="#808080" begin="arrowRight.mouseover" end="arrowRight.mouseout"/>
                  </use>
                  <path fill="none" stroke="white" stroke-width="1.5" d="M0,-3.0v7 M-2.5,-0.5L0,-3.0L2.5,-0.5"/>
                </g>
                <g id="arrowDown" xlink:href="#dirArrow" transform="rotate(180) translate(-30 -48)" onmousedown="handlePan(0,1)">
                  <use xlink:href="#rim" fill="#404040">
                        <set attributeName="fill" to="#808080" begin="arrowDown.mouseover" end="arrowDown.mouseout"/>
                  </use>
                  <path fill="none" stroke="white" stroke-width="1.5" d="M0,-3.0v7 M-2.5,-0.5L0,-3.0L2.5,-0.5"/>
                </g>
                <g id="arrowLeft" xlink:href="#dirArrow" transform="rotate(270) translate(-36 17)" onmousedown="handlePan(-1,0)">
                  <use xlink:href="#rim" fill="#404040">
                        <set attributeName="fill" to="#808080" begin="arrowLeft.mouseover" end="arrowLeft.mouseout"/>
                  </use>
                  <path fill="none" stroke="white" stroke-width="1.5" d="M0,-3.0v7 M-2.5,-0.5L0,-3.0L2.5,-0.5"/>
                </g>
        </g>
        <svg viewBox="0 0 15 15" width="100%" height="30px" preserveAspectRatio="xMaxYMin meet">
         <g id="arrow_out" transform="scale(0.3 0.3)">
          <a xlink:href="class_biology_script__coll__graph_org.svg" target="_base">
           <rect id="button" ry="5" rx="5" y="6" x="6" height="38" width="38"
                fill="#f2f5e9" fill-opacity="0.5" stroke="#606060" stroke-width="1.0"/>
           <path id="arrow"
             d="M 11.500037,31.436501 C 11.940474,20.09759 22.043105,11.32322 32.158766,21.979434 L 37.068811,17.246167 C 37.068811,17.246167 37.088388,32 37.088388,32 L 22.160133,31.978069 C 22.160133,31.978069 26.997745,27.140456 26.997745,27.140456 C 18.528582,18.264221 13.291696,25.230495 11.500037,31.436501 z"
             style="fill:#404040;"/>
          </a>
         </g>
        </svg>
</svg>
