<?xml version="1.0" encoding="UTF-8" standalone="no"?>
<!DOCTYPE svg PUBLIC "-//W3C//DTD SVG 1.1//EN"
 "http://www.w3.org/Graphics/SVG/1.1/DTD/svg11.dtd">
<!-- Generated by graphviz version 2.38.0 (20140413.2041)
 -->
<!-- Title: Player Pages: 1 -->
<svg width="588pt" height="1308pt"
 viewBox="0.00 0.00 588.23 1308.00" xmlns="http://www.w3.org/2000/svg" xmlns:xlink="http://www.w3.org/1999/xlink">
<g id="graph0" class="graph" transform="scale(1 1) rotate(0) translate(4 1304)">
<title>Player</title>
<!-- Node2 -->
<g id="node1" class="node"><title>Node2</title>
<polygon fill="#bfbfbf" stroke="black" points="245.233,-922.5 245.233,-1045.5 357.233,-1045.5 357.233,-922.5 245.233,-922.5"/>
<text text-anchor="middle" x="301.233" y="-1033.5" font-family="Helvetica,sans-Serif" font-size="10.00">Player</text>
<polyline fill="none" stroke="black" points="245.233,-1026.5 357.233,-1026.5 "/>
<text text-anchor="start" x="253.233" y="-1014.5" font-family="Helvetica,sans-Serif" font-size="10.00">+ Exp</text>
<text text-anchor="start" x="253.233" y="-1003.5" font-family="Helvetica,sans-Serif" font-size="10.00">+ Item</text>
<text text-anchor="start" x="253.233" y="-992.5" font-family="Helvetica,sans-Serif" font-size="10.00">+ ExpToNextLevel</text>
<polyline fill="none" stroke="black" points="245.233,-985.5 357.233,-985.5 "/>
<text text-anchor="start" x="253.233" y="-973.5" font-family="Helvetica,sans-Serif" font-size="10.00">+ Player()</text>
<text text-anchor="start" x="253.233" y="-962.5" font-family="Helvetica,sans-Serif" font-size="10.00">+ gainExp()</text>
<text text-anchor="start" x="253.233" y="-951.5" font-family="Helvetica,sans-Serif" font-size="10.00">+ levelUp()</text>
<text text-anchor="start" x="253.233" y="-940.5" font-family="Helvetica,sans-Serif" font-size="10.00">+ Clone()</text>
<text text-anchor="start" x="253.233" y="-929.5" font-family="Helvetica,sans-Serif" font-size="10.00">&#45; setExpToNextLevel()</text>
</g>
<!-- Node8 -->
<g id="node7" class="node"><title>Node8</title>
<g id="a_node7"><a xlink:href="class_battle_manager.html" target="_top" xlink:title="Holds current Player and Enemy objects in battle and provides functions for MainBattle and other obje...">
<polygon fill="none" stroke="black" points="123.233,-685.5 123.233,-874.5 239.233,-874.5 239.233,-685.5 123.233,-685.5"/>
<text text-anchor="middle" x="181.233" y="-862.5" font-family="Helvetica,sans-Serif" font-size="10.00">BattleManager</text>
<polyline fill="none" stroke="black" points="123.233,-855.5 239.233,-855.5 "/>
<text text-anchor="start" x="131.233" y="-843.5" font-family="Helvetica,sans-Serif" font-size="10.00">+ Player</text>
<text text-anchor="start" x="131.233" y="-832.5" font-family="Helvetica,sans-Serif" font-size="10.00">+ Enemy</text>
<text text-anchor="start" x="131.233" y="-821.5" font-family="Helvetica,sans-Serif" font-size="10.00">+ WasCriticalHit</text>
<polyline fill="none" stroke="black" points="123.233,-814.5 239.233,-814.5 "/>
<text text-anchor="start" x="131.233" y="-802.5" font-family="Helvetica,sans-Serif" font-size="10.00">+ BattleManager()</text>
<text text-anchor="start" x="131.233" y="-791.5" font-family="Helvetica,sans-Serif" font-size="10.00">+ playerFirst()</text>
<text text-anchor="start" x="131.233" y="-780.5" font-family="Helvetica,sans-Serif" font-size="10.00">+ switchPlayers()</text>
<text text-anchor="start" x="131.233" y="-769.5" font-family="Helvetica,sans-Serif" font-size="10.00">+ isCriticalHit()</text>
<text text-anchor="start" x="131.233" y="-758.5" font-family="Helvetica,sans-Serif" font-size="10.00">+ ranAway()</text>
<text text-anchor="start" x="131.233" y="-747.5" font-family="Helvetica,sans-Serif" font-size="10.00">+ damageCalculation()</text>
<text text-anchor="start" x="131.233" y="-736.5" font-family="Helvetica,sans-Serif" font-size="10.00">+ enemyMove()</text>
<text text-anchor="start" x="131.233" y="-725.5" font-family="Helvetica,sans-Serif" font-size="10.00">+ enemySpecialMove()</text>
<text text-anchor="start" x="131.233" y="-714.5" font-family="Helvetica,sans-Serif" font-size="10.00">+ battleWon()</text>
<text text-anchor="start" x="131.233" y="-703.5" font-family="Helvetica,sans-Serif" font-size="10.00">+ playerFainted()</text>
<text text-anchor="start" x="131.233" y="-692.5" font-family="Helvetica,sans-Serif" font-size="10.00">&#45; characterFainted()</text>
</a>
</g>
</g>
<!-- Node2&#45;&gt;Node8 -->
<g id="edge15" class="edge"><title>Node2&#45;&gt;Node8</title>
<path fill="none" stroke="#404040" d="M245.187,-931.722C237.479,-922.982 230.183,-913.607 224.233,-904 220.698,-898.29 217.404,-892.251 214.343,-886.035"/>
<polygon fill="none" stroke="#404040" points="214.13,-885.575 207.978,-881.814 209.084,-874.688 215.236,-878.45 214.13,-885.575"/>
<text text-anchor="middle" x="240.733" y="-896" font-family="Helvetica,sans-Serif" font-size="10.00"> &#45;player</text>
</g>
<!-- Node3 -->
<g id="node2" class="node"><title>Node3</title>
<g id="a_node2"><a xlink:href="class_character.html" target="_top" xlink:title="Base abstract class for Enemy and Player to inherit from. Defines all shared variables, their constructor and their setters and getters ">
<polygon fill="none" stroke="black" points="241.733,-95.5 241.733,-273.5 336.733,-273.5 336.733,-95.5 241.733,-95.5"/>
<text text-anchor="middle" x="289.233" y="-261.5" font-family="Helvetica,sans-Serif" font-size="10.00">Character</text>
<polyline fill="none" stroke="black" points="241.733,-254.5 336.733,-254.5 "/>
<text text-anchor="start" x="249.733" y="-242.5" font-family="Helvetica,sans-Serif" font-size="10.00">+ Name</text>
<text text-anchor="start" x="249.733" y="-231.5" font-family="Helvetica,sans-Serif" font-size="10.00">+ Level</text>
<text text-anchor="start" x="249.733" y="-220.5" font-family="Helvetica,sans-Serif" font-size="10.00">+ Health</text>
<text text-anchor="start" x="249.733" y="-209.5" font-family="Helvetica,sans-Serif" font-size="10.00">+ Attack</text>
<text text-anchor="start" x="249.733" y="-198.5" font-family="Helvetica,sans-Serif" font-size="10.00">+ Defence</text>
<text text-anchor="start" x="249.733" y="-187.5" font-family="Helvetica,sans-Serif" font-size="10.00">+ MaximumMagic</text>
<text text-anchor="start" x="249.733" y="-176.5" font-family="Helvetica,sans-Serif" font-size="10.00">+ Magic</text>
<text text-anchor="start" x="249.733" y="-165.5" font-family="Helvetica,sans-Serif" font-size="10.00">+ Luck</text>
<text text-anchor="start" x="249.733" y="-154.5" font-family="Helvetica,sans-Serif" font-size="10.00">+ Speed</text>
<text text-anchor="start" x="249.733" y="-143.5" font-family="Helvetica,sans-Serif" font-size="10.00">+ Special1</text>
<text text-anchor="start" x="249.733" y="-132.5" font-family="Helvetica,sans-Serif" font-size="10.00">+ Special2</text>
<text text-anchor="start" x="249.733" y="-121.5" font-family="Helvetica,sans-Serif" font-size="10.00">+ Image</text>
<polyline fill="none" stroke="black" points="241.733,-114.5 336.733,-114.5 "/>
<text text-anchor="start" x="249.733" y="-102.5" font-family="Helvetica,sans-Serif" font-size="10.00"># Character()</text>
</a>
</g>
</g>
<!-- Node3&#45;&gt;Node2 -->
<g id="edge1" class="edge"><title>Node3&#45;&gt;Node2</title>
<path fill="none" stroke="midnightblue" d="M277.994,-283.764C271.993,-341.183 265.238,-415.097 262.233,-481 254.958,-640.586 277.945,-828.148 291.695,-922.418"/>
<polygon fill="none" stroke="midnightblue" points="281.498,-283.917 279.066,-273.605 274.536,-283.183 281.498,-283.917"/>
</g>
<!-- Node7 -->
<g id="node6" class="node"><title>Node7</title>
<g id="a_node6"><a xlink:href="class_character_move.html" target="_top" xlink:title="Astract base class for character moves ">
<polygon fill="none" stroke="black" points="271.233,-481.5 271.233,-560.5 357.233,-560.5 357.233,-481.5 271.233,-481.5"/>
<text text-anchor="middle" x="314.233" y="-548.5" font-family="Helvetica,sans-Serif" font-size="10.00">CharacterMove</text>
<polyline fill="none" stroke="black" points="271.233,-541.5 357.233,-541.5 "/>
<text text-anchor="start" x="279.233" y="-529.5" font-family="Helvetica,sans-Serif" font-size="10.00">+ User</text>
<text text-anchor="start" x="279.233" y="-518.5" font-family="Helvetica,sans-Serif" font-size="10.00">+ Target</text>
<text text-anchor="start" x="279.233" y="-507.5" font-family="Helvetica,sans-Serif" font-size="10.00">+ Text</text>
<polyline fill="none" stroke="black" points="271.233,-500.5 357.233,-500.5 "/>
<text text-anchor="start" x="279.233" y="-488.5" font-family="Helvetica,sans-Serif" font-size="10.00">+ performMove()</text>
</a>
</g>
</g>
<!-- Node3&#45;&gt;Node7 -->
<g id="edge7" class="edge"><title>Node3&#45;&gt;Node7</title>
<path fill="none" stroke="#404040" d="M289.264,-273.711C290.076,-321.31 292.377,-381.007 298.233,-434 299.495,-445.418 301.408,-457.596 303.478,-469.089"/>
<polygon fill="none" stroke="#404040" points="303.542,-469.43 308.582,-474.587 305.761,-481.223 300.72,-476.066 303.542,-469.43"/>
<text text-anchor="middle" x="315.233" y="-386" font-family="Helvetica,sans-Serif" font-size="10.00"> #target</text>
<text text-anchor="middle" x="315.233" y="-375" font-family="Helvetica,sans-Serif" font-size="10.00">#user</text>
</g>
<!-- Node9 -->
<g id="node8" class="node"><title>Node9</title>
<g id="a_node8"><a xlink:href="class_enemy.html" target="_top" xlink:title="Defines an AI controller enemy to fight in battle scenes">
<polygon fill="none" stroke="black" points="143.733,-0.5 143.733,-57.5 210.733,-57.5 210.733,-0.5 143.733,-0.5"/>
<text text-anchor="middle" x="177.233" y="-45.5" font-family="Helvetica,sans-Serif" font-size="10.00">Enemy</text>
<polyline fill="none" stroke="black" points="143.733,-38.5 210.733,-38.5 "/>
<text text-anchor="start" x="151.733" y="-26.5" font-family="Helvetica,sans-Serif" font-size="10.00">+ ExpGiven</text>
<polyline fill="none" stroke="black" points="143.733,-19.5 210.733,-19.5 "/>
<text text-anchor="start" x="151.733" y="-7.5" font-family="Helvetica,sans-Serif" font-size="10.00">+ Enemy()</text>
</a>
</g>
</g>
<!-- Node3&#45;&gt;Node9 -->
<g id="edge11" class="edge"><title>Node3&#45;&gt;Node9</title>
<path fill="none" stroke="midnightblue" d="M235.4,-109.72C221.814,-91.0994 208.057,-72.2453 197.336,-57.5507"/>
<polygon fill="none" stroke="midnightblue" points="232.689,-111.942 241.41,-117.957 238.344,-107.816 232.689,-111.942"/>
</g>
<!-- Node4 -->
<g id="node3" class="node"><title>Node4</title>
<polygon fill="none" stroke="#bfbfbf" points="427.733,-1242.5 427.733,-1299.5 468.733,-1299.5 468.733,-1242.5 427.733,-1242.5"/>
<text text-anchor="middle" x="448.233" y="-1287.5" font-family="Helvetica,sans-Serif" font-size="10.00">string</text>
<polyline fill="none" stroke="#bfbfbf" points="427.733,-1280.5 468.733,-1280.5 "/>
<text text-anchor="middle" x="448.233" y="-1268.5" font-family="Helvetica,sans-Serif" font-size="10.00"> </text>
<polyline fill="none" stroke="#bfbfbf" points="427.733,-1261.5 468.733,-1261.5 "/>
<text text-anchor="middle" x="448.233" y="-1249.5" font-family="Helvetica,sans-Serif" font-size="10.00"> </text>
</g>
<!-- Node4&#45;&gt;Node3 -->
<g id="edge2" class="edge"><title>Node4&#45;&gt;Node3</title>
<path fill="none" stroke="#404040" d="M468.746,-1257C497.744,-1236.85 547.233,-1195.11 547.233,-1145 547.233,-1145 547.233,-1145 547.233,-382 547.233,-282.727 424.848,-226.988 348.66,-201.908"/>
<polygon fill="none" stroke="#404040" points="348.288,-201.789 341.357,-203.777 336.855,-198.144 343.787,-196.155 348.288,-201.789"/>
<text text-anchor="middle" x="563.733" y="-777.5" font-family="Helvetica,sans-Serif" font-size="10.00"> #name</text>
</g>
<!-- Node6 -->
<g id="node5" class="node"><title>Node6</title>
<g id="a_node5"><a xlink:href="class_special_move.html" target="_top" xlink:title="Special move abstract base class that expands upon CharacterMove, adding magic properties ...">
<polygon fill="none" stroke="black" points="341.233,-332.5 341.233,-433.5 439.233,-433.5 439.233,-332.5 341.233,-332.5"/>
<text text-anchor="middle" x="390.233" y="-421.5" font-family="Helvetica,sans-Serif" font-size="10.00">SpecialMove</text>
<polyline fill="none" stroke="black" points="341.233,-414.5 439.233,-414.5 "/>
<text text-anchor="start" x="349.233" y="-402.5" font-family="Helvetica,sans-Serif" font-size="10.00">+ Magic</text>
<text text-anchor="start" x="349.233" y="-391.5" font-family="Helvetica,sans-Serif" font-size="10.00">+ Desc</text>
<text text-anchor="start" x="349.233" y="-380.5" font-family="Helvetica,sans-Serif" font-size="10.00">+ Special</text>
<polyline fill="none" stroke="black" points="341.233,-373.5 439.233,-373.5 "/>
<text text-anchor="start" x="349.233" y="-361.5" font-family="Helvetica,sans-Serif" font-size="10.00">+ setUp()</text>
<text text-anchor="start" x="349.233" y="-350.5" font-family="Helvetica,sans-Serif" font-size="10.00">+ decreaseMagic()</text>
<text text-anchor="start" x="349.233" y="-339.5" font-family="Helvetica,sans-Serif" font-size="10.00"># SpecialMove()</text>
</a>
</g>
</g>
<!-- Node4&#45;&gt;Node6 -->
<g id="edge16" class="edge"><title>Node4&#45;&gt;Node6</title>
<path fill="none" stroke="#404040" d="M467.668,-1242.13C482.794,-1217.69 501.233,-1180.59 501.233,-1145 501.233,-1145 501.233,-1145 501.233,-520 501.233,-500.942 474.743,-468.048 447.644,-439.384"/>
<polygon fill="none" stroke="#404040" points="447.559,-439.295 440.517,-437.741 439.243,-430.644 446.285,-432.197 447.559,-439.295"/>
<text text-anchor="middle" x="516.233" y="-896" font-family="Helvetica,sans-Serif" font-size="10.00"> #desc</text>
</g>
<!-- Node4&#45;&gt;Node7 -->
<g id="edge6" class="edge"><title>Node4&#45;&gt;Node7</title>
<path fill="none" stroke="#404040" d="M448.233,-1242.2C448.233,-1216.87 448.233,-1178.42 448.233,-1145 448.233,-1145 448.233,-1145 448.233,-779 448.233,-698.804 396.298,-618.854 357.093,-569.925"/>
<polygon fill="none" stroke="#404040" points="357.034,-569.854 350.14,-567.74 349.44,-560.562 356.335,-562.677 357.034,-569.854"/>
<text text-anchor="middle" x="460.733" y="-981.5" font-family="Helvetica,sans-Serif" font-size="10.00"> #text</text>
</g>
<!-- Node4&#45;&gt;Node8 -->
<g id="edge9" class="edge"><title>Node4&#45;&gt;Node8</title>
<path fill="none" stroke="#404040" d="M427.547,-1269.05C355.078,-1264.44 113.087,-1237.75 39.2334,-1086 -0.639129,-1004.07 60.8053,-908.744 114.897,-846.764"/>
<polygon fill="none" stroke="#404040" points="115.176,-846.451 116.178,-839.31 123.155,-837.489 122.153,-844.63 115.176,-846.451"/>
<text text-anchor="middle" x="81.2334" y="-1078" font-family="Helvetica,sans-Serif" font-size="10.00"> +forceEnemyMove</text>
<text text-anchor="middle" x="81.2334" y="-1067" font-family="Helvetica,sans-Serif" font-size="10.00">+forceCriticalHits</text>
</g>
<!-- Node13 -->
<g id="node12" class="node"><title>Node13</title>
<g id="a_node12"><a xlink:href="class_item.html" target="_top" xlink:title="Abstract class for items that can be equipped to a player, increasing some of their stats ...">
<polygon fill="none" stroke="black" points="321.733,-1104.5 321.733,-1183.5 398.733,-1183.5 398.733,-1104.5 321.733,-1104.5"/>
<text text-anchor="middle" x="360.233" y="-1171.5" font-family="Helvetica,sans-Serif" font-size="10.00">Item</text>
<polyline fill="none" stroke="black" points="321.733,-1164.5 398.733,-1164.5 "/>
<text text-anchor="start" x="329.733" y="-1152.5" font-family="Helvetica,sans-Serif" font-size="10.00">+ Name</text>
<text text-anchor="start" x="329.733" y="-1141.5" font-family="Helvetica,sans-Serif" font-size="10.00">+ Desc</text>
<polyline fill="none" stroke="black" points="321.733,-1134.5 398.733,-1134.5 "/>
<text text-anchor="start" x="329.733" y="-1122.5" font-family="Helvetica,sans-Serif" font-size="10.00">+ applyBuffs()</text>
<text text-anchor="start" x="329.733" y="-1111.5" font-family="Helvetica,sans-Serif" font-size="10.00">+ revertBuffs()</text>
</a>
</g>
</g>
<!-- Node4&#45;&gt;Node13 -->
<g id="edge21" class="edge"><title>Node4&#45;&gt;Node13</title>
<path fill="none" stroke="#404040" d="M427.335,-1250.39C419.598,-1242.57 411.057,-1233.25 404.233,-1224 397.457,-1214.82 390.981,-1204.48 385.181,-1194.38"/>
<polygon fill="none" stroke="#404040" points="385.007,-1194.07 378.594,-1190.77 379.17,-1183.58 385.584,-1186.88 385.007,-1194.07"/>
<text text-anchor="middle" x="419.233" y="-1216" font-family="Helvetica,sans-Serif" font-size="10.00"> #desc</text>
<text text-anchor="middle" x="419.233" y="-1205" font-family="Helvetica,sans-Serif" font-size="10.00">#name</text>
</g>
<!-- Node5 -->
<g id="node4" class="node"><title>Node5</title>
<polygon fill="none" stroke="#bfbfbf" points="173.733,-1115.5 173.733,-1172.5 202.733,-1172.5 202.733,-1115.5 173.733,-1115.5"/>
<text text-anchor="middle" x="188.233" y="-1160.5" font-family="Helvetica,sans-Serif" font-size="10.00">int</text>
<polyline fill="none" stroke="#bfbfbf" points="173.733,-1153.5 202.733,-1153.5 "/>
<text text-anchor="middle" x="188.233" y="-1141.5" font-family="Helvetica,sans-Serif" font-size="10.00"> </text>
<polyline fill="none" stroke="#bfbfbf" points="173.733,-1134.5 202.733,-1134.5 "/>
<text text-anchor="middle" x="188.233" y="-1122.5" font-family="Helvetica,sans-Serif" font-size="10.00"> </text>
</g>
<!-- Node5&#45;&gt;Node2 -->
<g id="edge22" class="edge"><title>Node5&#45;&gt;Node2</title>
<path fill="none" stroke="#404040" d="M202.775,-1122.67C214.982,-1105.6 233.175,-1080.16 250.613,-1055.78"/>
<polygon fill="none" stroke="#404040" points="250.779,-1055.55 251.016,-1048.34 257.76,-1045.79 257.523,-1052.99 250.779,-1055.55"/>
<text text-anchor="middle" x="282.733" y="-1078" font-family="Helvetica,sans-Serif" font-size="10.00"> &#45;expToNextLevel</text>
<text text-anchor="middle" x="282.733" y="-1067" font-family="Helvetica,sans-Serif" font-size="10.00">&#45;exp</text>
</g>
<!-- Node5&#45;&gt;Node3 -->
<g id="edge3" class="edge"><title>Node5&#45;&gt;Node3</title>
<path fill="none" stroke="#404040" d="M173.528,-1121.67C161.28,-1104.82 142.744,-1081.35 123.233,-1064 112.178,-1054.17 103.145,-1058.5 95.2334,-1046 60.1234,-990.52 76.2334,-965.156 76.2334,-899.5 76.2334,-899.5 76.2334,-899.5 76.2334,-382 76.2334,-297.636 167.618,-239.485 230.672,-209.402"/>
<polygon fill="none" stroke="#404040" points="230.811,-209.338 234.571,-203.184 241.697,-204.288 237.938,-210.441 230.811,-209.338"/>
<text text-anchor="middle" x="113.733" y="-659" font-family="Helvetica,sans-Serif" font-size="10.00"> #speed</text>
<text text-anchor="middle" x="113.733" y="-648" font-family="Helvetica,sans-Serif" font-size="10.00">#luck</text>
<text text-anchor="middle" x="113.733" y="-637" font-family="Helvetica,sans-Serif" font-size="10.00">#health</text>
<text text-anchor="middle" x="113.733" y="-626" font-family="Helvetica,sans-Serif" font-size="10.00">#magic</text>
<text text-anchor="middle" x="113.733" y="-615" font-family="Helvetica,sans-Serif" font-size="10.00">#maximumMagic</text>
<text text-anchor="middle" x="113.733" y="-604" font-family="Helvetica,sans-Serif" font-size="10.00">#attack</text>
<text text-anchor="middle" x="113.733" y="-593" font-family="Helvetica,sans-Serif" font-size="10.00">#defence</text>
<text text-anchor="middle" x="113.733" y="-582" font-family="Helvetica,sans-Serif" font-size="10.00">#level</text>
</g>
<!-- Node5&#45;&gt;Node6 -->
<g id="edge18" class="edge"><title>Node5&#45;&gt;Node6</title>
<path fill="none" stroke="#404040" d="M202.816,-1138.41C245.383,-1125.01 366.525,-1086.81 367.233,-1086 397.28,-1051.7 385.233,-1030.6 385.233,-985 385.233,-985 385.233,-985 385.233,-520 385.233,-495.767 386.036,-469.121 386.998,-445.885"/>
<polygon fill="none" stroke="#404040" points="387.006,-445.71 383.271,-439.542 387.529,-433.722 391.263,-439.89 387.006,-445.71"/>
<text text-anchor="middle" x="402.733" y="-777.5" font-family="Helvetica,sans-Serif" font-size="10.00"> #magic</text>
</g>
<!-- Node5&#45;&gt;Node8 -->
<g id="edge13" class="edge"><title>Node5&#45;&gt;Node8</title>
<path fill="none" stroke="#404040" d="M187.702,-1115.49C186.772,-1067.41 184.805,-965.706 183.283,-886.993"/>
<polygon fill="none" stroke="#404040" points="183.275,-886.566 179.16,-880.645 183.043,-874.569 187.158,-880.49 183.275,-886.566"/>
<text text-anchor="middle" x="206.733" y="-981.5" font-family="Helvetica,sans-Serif" font-size="10.00"> +money</text>
</g>
<!-- Node5&#45;&gt;Node9 -->
<g id="edge12" class="edge"><title>Node5&#45;&gt;Node9</title>
<path fill="none" stroke="#404040" d="M173.442,-1142.13C141.97,-1139.46 68.0102,-1128.74 28.2334,-1086 -3.50158,-1051.9 0.233438,-1031.58 0.233438,-985 0.233438,-985 0.233438,-985 0.233438,-183.5 0.233438,-113.731 79.6955,-68.5444 132.136,-46.3204"/>
<polygon fill="none" stroke="#404040" points="132.415,-46.2067 136.458,-40.2357 143.524,-41.6713 139.481,-47.6423 132.415,-46.2067"/>
<text text-anchor="middle" x="23.2334" y="-518.5" font-family="Helvetica,sans-Serif" font-size="10.00"> &#45;expGiven</text>
</g>
<!-- Node6&#45;&gt;Node3 -->
<g id="edge4" class="edge"><title>Node6&#45;&gt;Node3</title>
<path fill="none" stroke="#404040" d="M364.747,-332.415C357.221,-317.772 348.703,-301.2 340.168,-284.596"/>
<polygon fill="none" stroke="#404040" points="340.054,-284.373 333.753,-280.865 334.568,-273.7 340.868,-277.208 340.054,-284.373"/>
<text text-anchor="middle" x="377.733" y="-306" font-family="Helvetica,sans-Serif" font-size="10.00"> #special1</text>
<text text-anchor="middle" x="377.733" y="-295" font-family="Helvetica,sans-Serif" font-size="10.00">#special2</text>
</g>
<!-- Node7&#45;&gt;Node6 -->
<g id="edge5" class="edge"><title>Node7&#45;&gt;Node6</title>
<path fill="none" stroke="midnightblue" d="M340.774,-472.506C347.752,-460.019 355.299,-446.515 362.345,-433.905"/>
<polygon fill="none" stroke="midnightblue" points="337.632,-470.955 335.809,-481.392 343.742,-474.37 337.632,-470.955"/>
</g>
<!-- Node8&#45;&gt;Node7 -->
<g id="edge8" class="edge"><title>Node8&#45;&gt;Node7</title>
<path fill="none" stroke="#404040" d="M229.626,-685.49C249.558,-646.975 271.839,-603.92 288.531,-571.665"/>
<polygon fill="none" stroke="#404040" points="288.674,-571.389 287.879,-564.222 294.189,-560.732 294.984,-567.899 288.674,-571.389"/>
<text text-anchor="middle" x="305.233" y="-620.5" font-family="Helvetica,sans-Serif" font-size="10.00"> #manager</text>
</g>
<!-- Node9&#45;&gt;Node8 -->
<g id="edge10" class="edge"><title>Node9&#45;&gt;Node8</title>
<path fill="none" stroke="#404040" d="M177.233,-57.7302C177.233,-88.4721 177.233,-139.529 177.233,-183.5 177.233,-522 177.233,-522 177.233,-522 177.233,-571.668 177.99,-626.728 178.844,-673.103"/>
<polygon fill="none" stroke="#404040" points="178.848,-673.319 182.961,-679.242 179.075,-685.317 174.963,-679.394 178.848,-673.319"/>
<text text-anchor="middle" x="195.233" y="-380.5" font-family="Helvetica,sans-Serif" font-size="10.00"> &#45;enemy</text>
</g>
<!-- Node10 -->
<g id="node9" class="node"><title>Node10</title>
<polygon fill="none" stroke="#bfbfbf" points="104.733,-955.5 104.733,-1012.5 139.733,-1012.5 139.733,-955.5 104.733,-955.5"/>
<text text-anchor="middle" x="122.233" y="-1000.5" font-family="Helvetica,sans-Serif" font-size="10.00">bool</text>
<polyline fill="none" stroke="#bfbfbf" points="104.733,-993.5 139.733,-993.5 "/>
<text text-anchor="middle" x="122.233" y="-981.5" font-family="Helvetica,sans-Serif" font-size="10.00"> </text>
<polyline fill="none" stroke="#bfbfbf" points="104.733,-974.5 139.733,-974.5 "/>
<text text-anchor="middle" x="122.233" y="-962.5" font-family="Helvetica,sans-Serif" font-size="10.00"> </text>
</g>
<!-- Node10&#45;&gt;Node8 -->
<g id="edge14" class="edge"><title>Node10&#45;&gt;Node8</title>
<path fill="none" stroke="#404040" d="M112.749,-955.385C107.963,-937.348 104.301,-913.437 110.233,-893 112.248,-886.06 114.836,-879.137 117.827,-872.333"/>
<polygon fill="none" stroke="#404040" points="118.057,-871.848 117.021,-864.712 123.209,-861.011 124.246,-868.147 118.057,-871.848"/>
<text text-anchor="middle" x="143.233" y="-896" font-family="Helvetica,sans-Serif" font-size="10.00"> &#45;wasCriticalHit</text>
</g>
<!-- Node11 -->
<g id="node10" class="node"><title>Node11</title>
<polygon fill="none" stroke="#bfbfbf" points="413.733,-492.5 413.733,-549.5 448.733,-549.5 448.733,-492.5 413.733,-492.5"/>
<text text-anchor="middle" x="431.233" y="-537.5" font-family="Helvetica,sans-Serif" font-size="10.00">float</text>
<polyline fill="none" stroke="#bfbfbf" points="413.733,-530.5 448.733,-530.5 "/>
<text text-anchor="middle" x="431.233" y="-518.5" font-family="Helvetica,sans-Serif" font-size="10.00"> </text>
<polyline fill="none" stroke="#bfbfbf" points="413.733,-511.5 448.733,-511.5 "/>
<text text-anchor="middle" x="431.233" y="-499.5" font-family="Helvetica,sans-Serif" font-size="10.00"> </text>
</g>
<!-- Node11&#45;&gt;Node6 -->
<g id="edge17" class="edge"><title>Node11&#45;&gt;Node6</title>
<path fill="none" stroke="#404040" d="M422.936,-492.478C418.851,-478.925 413.748,-461.999 408.797,-445.577"/>
<polygon fill="none" stroke="#404040" points="408.699,-445.253 403.138,-440.663 405.236,-433.764 410.797,-438.354 408.699,-445.253"/>
<text text-anchor="middle" x="433.233" y="-455" font-family="Helvetica,sans-Serif" font-size="10.00"> #special</text>
</g>
<!-- Node12 -->
<g id="node11" class="node"><title>Node12</title>
<polygon fill="none" stroke="#bfbfbf" points="457.733,-354.5 457.733,-411.5 518.733,-411.5 518.733,-354.5 457.733,-354.5"/>
<text text-anchor="middle" x="488.233" y="-399.5" font-family="Helvetica,sans-Serif" font-size="10.00">Texture2D</text>
<polyline fill="none" stroke="#bfbfbf" points="457.733,-392.5 518.733,-392.5 "/>
<text text-anchor="middle" x="488.233" y="-380.5" font-family="Helvetica,sans-Serif" font-size="10.00"> </text>
<polyline fill="none" stroke="#bfbfbf" points="457.733,-373.5 518.733,-373.5 "/>
<text text-anchor="middle" x="488.233" y="-361.5" font-family="Helvetica,sans-Serif" font-size="10.00"> </text>
</g>
<!-- Node12&#45;&gt;Node3 -->
<g id="edge19" class="edge"><title>Node12&#45;&gt;Node3</title>
<path fill="none" stroke="#404040" d="M467.369,-354.387C461.407,-346.929 454.754,-338.992 448.233,-332 416.08,-297.521 377.203,-261.61 345.94,-233.971"/>
<polygon fill="none" stroke="#404040" points="345.93,-233.962 338.783,-233.004 336.919,-226.038 344.066,-226.996 345.93,-233.962"/>
<text text-anchor="middle" x="445.733" y="-300.5" font-family="Helvetica,sans-Serif" font-size="10.00"> #image</text>
</g>
<!-- Node13&#45;&gt;Node2 -->
<g id="edge20" class="edge"><title>Node13&#45;&gt;Node2</title>
<path fill="none" stroke="#404040" d="M345.8,-1104.35C340.502,-1090.16 334.318,-1073.6 328.272,-1057.41"/>
<polygon fill="none" stroke="#404040" points="328.107,-1056.97 322.261,-1052.74 323.909,-1045.72 329.755,-1049.95 328.107,-1056.97"/>
<text text-anchor="middle" x="350.733" y="-1072.5" font-family="Helvetica,sans-Serif" font-size="10.00"> &#45;item</text>
</g>
</g>
</svg>
