<?xml version="1.0" encoding="UTF-8" standalone="no"?>
<!DOCTYPE svg PUBLIC "-//W3C//DTD SVG 1.1//EN"
 "http://www.w3.org/Graphics/SVG/1.1/DTD/svg11.dtd">
<!-- Generated by graphviz version 2.38.0 (20140413.2041)
 -->
<!-- Title: QuestManager Pages: 1 -->
<!--zoomable 590 -->
<svg id="main" version="1.1" xmlns="http://www.w3.org/2000/svg" xmlns:xlink="http://www.w3.org/1999/xlink" xml:space="preserve" onload="init(evt)">
<style type="text/css"><![CDATA[
.edge:hover path { stroke: red; }
.edge:hover polygon { stroke: red; fill: red; }
]]></style>
<script type="text/javascript"><![CDATA[
var edges = document.getElementsByTagName('g');
if (edges && edges.length) {
  for (var i=0;i<edges.length;i++) {
    if (edges[i].id.substr(0,4)=='edge') {
      edges[i].setAttribute('class','edge');
    }
  }
}
]]></script>
        <defs>
                <circle id="rim" cx="0" cy="0" r="7"/>
                <circle id="rim2" cx="0" cy="0" r="3.5"/>
                <g id="zoomPlus">
                        <use xlink:href="#rim" fill="#404040">
                                <set attributeName="fill" to="#808080" begin="zoomplus.mouseover" end="zoomplus.mouseout"/>
                        </use>
                        <path d="M-4,0h8M0,-4v8" fill="none" stroke="white" stroke-width="1.5" pointer-events="none"/>
                </g>
                <g id="zoomMin">
                        <use xlink:href="#rim" fill="#404040">
                                <set attributeName="fill" to="#808080" begin="zoomminus.mouseover" end="zoomminus.mouseout"/>
                        </use>
                        <path d="M-4,0h8" fill="none" stroke="white" stroke-width="1.5" pointer-events="none"/>
                </g>
                <g id="dirArrow">
                        <path fill="none" stroke="white" stroke-width="1.5" d="M0,-3.0v7 M-2.5,-0.5L0,-3.0L2.5,-0.5"/>
                </g>
               <g id="resetDef">
                       <use xlink:href="#rim2" fill="#404040">
                               <set attributeName="fill" to="#808080" begin="reset.mouseover" end="reset.mouseout"/>
                       </use>
               </g>
        </defs>

<script type="text/javascript">
var viewWidth = 556;
var viewHeight = 590;
var sectionId = 'dynsection-0';
</script>
<script xlink:href="svgpan.js"/>
<svg id="graph" class="graph">
<g id="viewport">
<title>QuestManager</title>
<!-- Node1 -->
<g id="node1" class="node"><title>Node1</title>
<polygon fill="#bfbfbf" stroke="black" points="162.5,-0.5 162.5,-156.5 284.5,-156.5 284.5,-0.5 162.5,-0.5"/>
<text text-anchor="middle" x="223.5" y="-144.5" font-family="Helvetica,sans-Serif" font-size="10.00">QuestManager</text>
<polyline fill="none" stroke="black" points="162.5,-137.5 284.5,-137.5 "/>
<text text-anchor="start" x="170.5" y="-125.5" font-family="Helvetica,sans-Serif" font-size="10.00">+ CurrentQuest</text>
<text text-anchor="start" x="170.5" y="-114.5" font-family="Helvetica,sans-Serif" font-size="10.00">+ firstQuest</text>
<text text-anchor="start" x="170.5" y="-103.5" font-family="Helvetica,sans-Serif" font-size="10.00">+ secondQuest</text>
<polyline fill="none" stroke="black" points="162.5,-96.5 284.5,-96.5 "/>
<text text-anchor="start" x="170.5" y="-84.5" font-family="Helvetica,sans-Serif" font-size="10.00">+ QuestManager()</text>
<text text-anchor="start" x="170.5" y="-73.5" font-family="Helvetica,sans-Serif" font-size="10.00">+ addQuest()</text>
<text text-anchor="start" x="170.5" y="-62.5" font-family="Helvetica,sans-Serif" font-size="10.00">+ updateCurrentQuest()</text>
<text text-anchor="start" x="170.5" y="-51.5" font-family="Helvetica,sans-Serif" font-size="10.00">+ logQuestVariable()</text>
<text text-anchor="start" x="170.5" y="-40.5" font-family="Helvetica,sans-Serif" font-size="10.00">&#45; startQuest()</text>
<text text-anchor="start" x="170.5" y="-29.5" font-family="Helvetica,sans-Serif" font-size="10.00">&#45; isNegativeQuestCond()</text>
<text text-anchor="start" x="170.5" y="-18.5" font-family="Helvetica,sans-Serif" font-size="10.00">&#45; questDefVal()</text>
<text text-anchor="start" x="170.5" y="-7.5" font-family="Helvetica,sans-Serif" font-size="10.00">&#45; finishQuest()</text>
</g>
<!-- Node2 -->
<g id="node2" class="node"><title>Node2</title>
<polygon fill="none" stroke="#bfbfbf" points="0,-237.5 0,-294.5 101,-294.5 101,-237.5 0,-237.5"/>
<text text-anchor="middle" x="50.5" y="-282.5" font-family="Helvetica,sans-Serif" font-size="10.00">List&lt; questTypes &gt;</text>
<polyline fill="none" stroke="#bfbfbf" points="0,-275.5 101,-275.5 "/>
<text text-anchor="middle" x="50.5" y="-263.5" font-family="Helvetica,sans-Serif" font-size="10.00"> </text>
<polyline fill="none" stroke="#bfbfbf" points="0,-256.5 101,-256.5 "/>
<text text-anchor="middle" x="50.5" y="-244.5" font-family="Helvetica,sans-Serif" font-size="10.00"> </text>
</g>
<!-- Node2&#45;&gt;Node1 -->
<g id="edge1" class="edge"><title>Node2&#45;&gt;Node1</title>
<path fill="none" stroke="#404040" d="M58.8908,-237.359C65.5942,-218.414 76.3825,-193.468 91.5,-175 108.359,-154.405 130.659,-136.047 152.121,-121.064"/>
<polygon fill="none" stroke="#404040" points="152.301,-120.943 155.02,-114.264 162.231,-114.205 159.512,-120.884 152.301,-120.943"/>
<text text-anchor="middle" x="141" y="-183.5" font-family="Helvetica,sans-Serif" font-size="10.00"> +negativeQuestConds</text>
</g>
<!-- Node3 -->
<g id="node3" class="node"><title>Node3</title>
<polygon fill="none" stroke="#bfbfbf" points="119,-232 119,-300 234,-300 234,-232 119,-232"/>
<text text-anchor="start" x="127" y="-288" font-family="Helvetica,sans-Serif" font-size="10.00">IDictionary&lt; QuestDef,</text>
<text text-anchor="middle" x="176.5" y="-277" font-family="Helvetica,sans-Serif" font-size="10.00"> bool &gt;</text>
<polyline fill="none" stroke="#bfbfbf" points="119,-270 234,-270 "/>
<text text-anchor="middle" x="176.5" y="-258" font-family="Helvetica,sans-Serif" font-size="10.00"> </text>
<polyline fill="none" stroke="#bfbfbf" points="119,-251 234,-251 "/>
<text text-anchor="middle" x="176.5" y="-239" font-family="Helvetica,sans-Serif" font-size="10.00"> </text>
</g>
<!-- Node3&#45;&gt;Node1 -->
<g id="edge2" class="edge"><title>Node3&#45;&gt;Node1</title>
<path fill="none" stroke="#404040" d="M184.903,-231.836C189.422,-213.999 195.233,-191.063 200.968,-168.43"/>
<polygon fill="none" stroke="#404040" points="201.005,-168.284 198.601,-161.485 203.952,-156.651 206.356,-163.45 201.005,-168.284"/>
<text text-anchor="middle" x="226.5" y="-183.5" font-family="Helvetica,sans-Serif" font-size="10.00"> +conditions</text>
</g>
<!-- Node4 -->
<g id="node4" class="node"><title>Node4</title>
<polygon fill="none" stroke="#bfbfbf" points="257,-397.5 257,-454.5 286,-454.5 286,-397.5 257,-397.5"/>
<text text-anchor="middle" x="271.5" y="-442.5" font-family="Helvetica,sans-Serif" font-size="10.00">int</text>
<polyline fill="none" stroke="#bfbfbf" points="257,-435.5 286,-435.5 "/>
<text text-anchor="middle" x="271.5" y="-423.5" font-family="Helvetica,sans-Serif" font-size="10.00"> </text>
<polyline fill="none" stroke="#bfbfbf" points="257,-416.5 286,-416.5 "/>
<text text-anchor="middle" x="271.5" y="-404.5" font-family="Helvetica,sans-Serif" font-size="10.00"> </text>
</g>
<!-- Node4&#45;&gt;Node1 -->
<g id="edge3" class="edge"><title>Node4&#45;&gt;Node1</title>
<path fill="none" stroke="#404040" d="M272.281,-397.313C273.049,-350.868 272.318,-254.534 256.5,-175 256.07,-172.836 255.602,-170.654 255.101,-168.461"/>
<polygon fill="none" stroke="#404040" points="255.063,-168.308 249.722,-163.463 252.141,-156.67 257.481,-161.515 255.063,-168.308"/>
<text text-anchor="middle" x="300.5" y="-269" font-family="Helvetica,sans-Serif" font-size="10.00"> &#45;noOfQuests</text>
<text text-anchor="middle" x="300.5" y="-258" font-family="Helvetica,sans-Serif" font-size="10.00">&#45;finishTime</text>
</g>
<!-- Node5 -->
<g id="node5" class="node"><title>Node5</title>
<g id="a_node5"><a xlink:href="class_quest.html" target="_top" xlink:title="A class to store a whole quest, being a sequence of 3 QuestDefs Also stores a name of the quest...">
<polygon fill="none" stroke="black" points="347,-215.5 347,-316.5 478,-316.5 478,-215.5 347,-215.5"/>
<text text-anchor="middle" x="412.5" y="-304.5" font-family="Helvetica,sans-Serif" font-size="10.00">Quest</text>
<polyline fill="none" stroke="black" points="347,-297.5 478,-297.5 "/>
<text text-anchor="start" x="355" y="-285.5" font-family="Helvetica,sans-Serif" font-size="10.00">+ Main</text>
<text text-anchor="start" x="355" y="-274.5" font-family="Helvetica,sans-Serif" font-size="10.00">+ Side</text>
<text text-anchor="start" x="355" y="-263.5" font-family="Helvetica,sans-Serif" font-size="10.00">+ Cond</text>
<text text-anchor="start" x="355" y="-252.5" font-family="Helvetica,sans-Serif" font-size="10.00">+ Completed</text>
<polyline fill="none" stroke="black" points="347,-245.5 478,-245.5 "/>
<text text-anchor="start" x="355" y="-233.5" font-family="Helvetica,sans-Serif" font-size="10.00">+ Quest()</text>
<text text-anchor="start" x="355" y="-222.5" font-family="Helvetica,sans-Serif" font-size="10.00">+ checkQuestCompleted()</text>
</a>
</g>
</g>
<!-- Node4&#45;&gt;Node5 -->
<g id="edge10" class="edge"><title>Node4&#45;&gt;Node5</title>
<path fill="none" stroke="#404040" d="M281.568,-397.367C289.389,-378.426 301.582,-353.481 317.5,-335 323.324,-328.238 329.953,-321.792 336.937,-315.752"/>
<polygon fill="none" stroke="#404040" points="337.369,-315.397 339.464,-308.497 346.639,-307.777 344.544,-314.677 337.369,-315.397"/>
<text text-anchor="middle" x="337" y="-354.5" font-family="Helvetica,sans-Serif" font-size="10.00"> +money</text>
<text text-anchor="middle" x="337" y="-343.5" font-family="Helvetica,sans-Serif" font-size="10.00">+exp</text>
</g>
<!-- Node5&#45;&gt;Node1 -->
<g id="edge4" class="edge"><title>Node5&#45;&gt;Node1</title>
<path fill="none" stroke="#404040" d="M361.851,-215.289C340.812,-194.639 316.046,-170.332 293.326,-148.033"/>
<polygon fill="none" stroke="#404040" points="293.295,-148.002 286.211,-146.654 284.73,-139.596 291.814,-140.944 293.295,-148.002"/>
<text text-anchor="middle" x="374" y="-189" font-family="Helvetica,sans-Serif" font-size="10.00"> &#45;currentQuest</text>
<text text-anchor="middle" x="374" y="-178" font-family="Helvetica,sans-Serif" font-size="10.00">&#45;chosenQuests</text>
</g>
<!-- Node6 -->
<g id="node6" class="node"><title>Node6</title>
<g id="a_node6"><a xlink:href="class_quest_def.html" target="_top" xlink:title="Class defining one quest condition (part of a sequence of 3 in Quest) ">
<polygon fill="none" stroke="black" points="304.5,-386.5 304.5,-465.5 376.5,-465.5 376.5,-386.5 304.5,-386.5"/>
<text text-anchor="middle" x="340.5" y="-453.5" font-family="Helvetica,sans-Serif" font-size="10.00">QuestDef</text>
<polyline fill="none" stroke="black" points="304.5,-446.5 376.5,-446.5 "/>
<text text-anchor="start" x="312.5" y="-434.5" font-family="Helvetica,sans-Serif" font-size="10.00">+ Type</text>
<text text-anchor="start" x="312.5" y="-423.5" font-family="Helvetica,sans-Serif" font-size="10.00">+ Data</text>
<text text-anchor="start" x="312.5" y="-412.5" font-family="Helvetica,sans-Serif" font-size="10.00">+ Desc</text>
<polyline fill="none" stroke="black" points="304.5,-405.5 376.5,-405.5 "/>
<text text-anchor="start" x="312.5" y="-393.5" font-family="Helvetica,sans-Serif" font-size="10.00">+ QuestDef()</text>
</a>
</g>
</g>
<!-- Node6&#45;&gt;Node5 -->
<g id="edge5" class="edge"><title>Node6&#45;&gt;Node5</title>
<path fill="none" stroke="#404040" d="M353.067,-386.319C358.718,-370.199 365.838,-351.442 373.5,-335 374.688,-332.45 375.939,-329.868 377.234,-327.277"/>
<polygon fill="none" stroke="#404040" points="377.236,-327.274 376.45,-320.106 382.765,-316.624 383.55,-323.792 377.236,-327.274"/>
<text text-anchor="middle" x="386" y="-360" font-family="Helvetica,sans-Serif" font-size="10.00"> &#45;side</text>
<text text-anchor="middle" x="386" y="-349" font-family="Helvetica,sans-Serif" font-size="10.00">&#45;main</text>
<text text-anchor="middle" x="386" y="-338" font-family="Helvetica,sans-Serif" font-size="10.00">&#45;cond</text>
</g>
<!-- Node7 -->
<g id="node7" class="node"><title>Node7</title>
<polygon fill="none" stroke="#bfbfbf" points="235.5,-513.5 235.5,-581.5 373.5,-581.5 373.5,-513.5 235.5,-513.5"/>
<text text-anchor="start" x="243.5" y="-569.5" font-family="Helvetica,sans-Serif" font-size="10.00">KeyValuePair&lt; questTypes,</text>
<text text-anchor="middle" x="304.5" y="-558.5" font-family="Helvetica,sans-Serif" font-size="10.00"> string &gt;</text>
<polyline fill="none" stroke="#bfbfbf" points="235.5,-551.5 373.5,-551.5 "/>
<text text-anchor="middle" x="304.5" y="-539.5" font-family="Helvetica,sans-Serif" font-size="10.00"> </text>
<polyline fill="none" stroke="#bfbfbf" points="235.5,-532.5 373.5,-532.5 "/>
<text text-anchor="middle" x="304.5" y="-520.5" font-family="Helvetica,sans-Serif" font-size="10.00"> </text>
</g>
<!-- Node7&#45;&gt;Node6 -->
<g id="edge6" class="edge"><title>Node7&#45;&gt;Node6</title>
<path fill="none" stroke="#404040" d="M308.811,-513.392C310.466,-503.799 312.661,-493.385 315.5,-484 316.181,-481.75 316.926,-479.472 317.72,-477.185"/>
<polygon fill="none" stroke="#404040" points="317.787,-477.009 316.164,-469.983 322.025,-465.783 323.648,-472.809 317.787,-477.009"/>
<text text-anchor="middle" x="326.5" y="-487" font-family="Helvetica,sans-Serif" font-size="10.00"> &#45;pair</text>
</g>
<!-- Node8 -->
<g id="node8" class="node"><title>Node8</title>
<polygon fill="none" stroke="#bfbfbf" points="392,-519 392,-576 433,-576 433,-519 392,-519"/>
<text text-anchor="middle" x="412.5" y="-564" font-family="Helvetica,sans-Serif" font-size="10.00">string</text>
<polyline fill="none" stroke="#bfbfbf" points="392,-557 433,-557 "/>
<text text-anchor="middle" x="412.5" y="-545" font-family="Helvetica,sans-Serif" font-size="10.00"> </text>
<polyline fill="none" stroke="#bfbfbf" points="392,-538 433,-538 "/>
<text text-anchor="middle" x="412.5" y="-526" font-family="Helvetica,sans-Serif" font-size="10.00"> </text>
</g>
<!-- Node8&#45;&gt;Node5 -->
<g id="edge8" class="edge"><title>Node8&#45;&gt;Node5</title>
<path fill="none" stroke="#404040" d="M412.5,-518.936C412.5,-475.027 412.5,-388.113 412.5,-328.778"/>
<polygon fill="none" stroke="#404040" points="412.5,-328.561 408.5,-322.561 412.5,-316.561 416.5,-322.561 412.5,-328.561"/>
<text text-anchor="middle" x="434" y="-429" font-family="Helvetica,sans-Serif" font-size="10.00"> +location</text>
<text text-anchor="middle" x="434" y="-418" font-family="Helvetica,sans-Serif" font-size="10.00">+title</text>
</g>
<!-- Node8&#45;&gt;Node6 -->
<g id="edge7" class="edge"><title>Node8&#45;&gt;Node6</title>
<path fill="none" stroke="#404040" d="M391.865,-523.905C384.566,-515.248 376.649,-505.034 370.5,-495 367.002,-489.293 363.69,-483.106 360.632,-476.869"/>
<polygon fill="none" stroke="#404040" points="360.487,-476.557 354.327,-472.809 355.417,-465.681 361.578,-469.429 360.487,-476.557"/>
<text text-anchor="middle" x="384.5" y="-487" font-family="Helvetica,sans-Serif" font-size="10.00"> &#45;desc</text>
</g>
<!-- Node9 -->
<g id="node9" class="node"><title>Node9</title>
<polygon fill="none" stroke="#bfbfbf" points="473.5,-397.5 473.5,-454.5 547.5,-454.5 547.5,-397.5 473.5,-397.5"/>
<text text-anchor="middle" x="510.5" y="-442.5" font-family="Helvetica,sans-Serif" font-size="10.00">questStatues</text>
<polyline fill="none" stroke="#bfbfbf" points="473.5,-435.5 547.5,-435.5 "/>
<text text-anchor="middle" x="510.5" y="-423.5" font-family="Helvetica,sans-Serif" font-size="10.00"> </text>
<polyline fill="none" stroke="#bfbfbf" points="473.5,-416.5 547.5,-416.5 "/>
<text text-anchor="middle" x="510.5" y="-404.5" font-family="Helvetica,sans-Serif" font-size="10.00"> </text>
</g>
<!-- Node9&#45;&gt;Node5 -->
<g id="edge9" class="edge"><title>Node9&#45;&gt;Node5</title>
<path fill="none" stroke="#404040" d="M493.43,-397.479C481.338,-377.983 464.651,-351.08 449.569,-326.765"/>
<polygon fill="none" stroke="#404040" points="449.547,-326.729 442.986,-323.739 443.222,-316.532 449.784,-319.522 449.547,-326.729"/>
<text text-anchor="middle" x="498.5" y="-349" font-family="Helvetica,sans-Serif" font-size="10.00"> &#45;completed</text>
</g>
</g>
</svg>
        <g id="navigator" transform="translate(0 0)" fill="#404254">
                <rect fill="#f2f5e9" fill-opacity="0.5" stroke="#606060" stroke-width=".5" x="0" y="0" width="60" height="60"/>
                <use id="zoomplus" xlink:href="#zoomPlus" x="17" y="9" onmousedown="handleZoom(evt,'in')"/>
                <use id="zoomminus" xlink:href="#zoomMin" x="42" y="9" onmousedown="handleZoom(evt,'out')"/>
                <use id="reset" xlink:href="#resetDef" x="30" y="36" onmousedown="handleReset()"/>
                <g id="arrowUp" xlink:href="#dirArrow" transform="translate(30 24)" onmousedown="handlePan(0,-1)">
                  <use xlink:href="#rim" fill="#404040">
                        <set attributeName="fill" to="#808080" begin="arrowUp.mouseover" end="arrowUp.mouseout"/>
                  </use>
                  <path fill="none" stroke="white" stroke-width="1.5" d="M0,-3.0v7 M-2.5,-0.5L0,-3.0L2.5,-0.5"/>
                </g>
                <g id="arrowRight" xlink:href="#dirArrow" transform="rotate(90) translate(36 -43)" onmousedown="handlePan(1,0)">
                  <use xlink:href="#rim" fill="#404040">
                        <set attributeName="fill" to="#808080" begin="arrowRight.mouseover" end="arrowRight.mouseout"/>
                  </use>
                  <path fill="none" stroke="white" stroke-width="1.5" d="M0,-3.0v7 M-2.5,-0.5L0,-3.0L2.5,-0.5"/>
                </g>
                <g id="arrowDown" xlink:href="#dirArrow" transform="rotate(180) translate(-30 -48)" onmousedown="handlePan(0,1)">
                  <use xlink:href="#rim" fill="#404040">
                        <set attributeName="fill" to="#808080" begin="arrowDown.mouseover" end="arrowDown.mouseout"/>
                  </use>
                  <path fill="none" stroke="white" stroke-width="1.5" d="M0,-3.0v7 M-2.5,-0.5L0,-3.0L2.5,-0.5"/>
                </g>
                <g id="arrowLeft" xlink:href="#dirArrow" transform="rotate(270) translate(-36 17)" onmousedown="handlePan(-1,0)">
                  <use xlink:href="#rim" fill="#404040">
                        <set attributeName="fill" to="#808080" begin="arrowLeft.mouseover" end="arrowLeft.mouseout"/>
                  </use>
                  <path fill="none" stroke="white" stroke-width="1.5" d="M0,-3.0v7 M-2.5,-0.5L0,-3.0L2.5,-0.5"/>
                </g>
        </g>
        <svg viewBox="0 0 15 15" width="100%" height="30px" preserveAspectRatio="xMaxYMin meet">
         <g id="arrow_out" transform="scale(0.3 0.3)">
          <a xlink:href="class_quest_manager__coll__graph_org.svg" target="_base">
           <rect id="button" ry="5" rx="5" y="6" x="6" height="38" width="38"
                fill="#f2f5e9" fill-opacity="0.5" stroke="#606060" stroke-width="1.0"/>
           <path id="arrow"
             d="M 11.500037,31.436501 C 11.940474,20.09759 22.043105,11.32322 32.158766,21.979434 L 37.068811,17.246167 C 37.068811,17.246167 37.088388,32 37.088388,32 L 22.160133,31.978069 C 22.160133,31.978069 26.997745,27.140456 26.997745,27.140456 C 18.528582,18.264221 13.291696,25.230495 11.500037,31.436501 z"
             style="fill:#404040;"/>
          </a>
         </g>
        </svg>
</svg>
