<?xml version="1.0" encoding="UTF-8" standalone="no"?>
<!DOCTYPE svg PUBLIC "-//W3C//DTD SVG 1.1//EN"
 "http://www.w3.org/Graphics/SVG/1.1/DTD/svg11.dtd">
<!-- Generated by graphviz version 2.38.0 (20140413.2041)
 -->
<!-- Title: Quest Pages: 1 -->
<svg width="247pt" height="353pt"
 viewBox="0.00 0.00 247.00 353.00" xmlns="http://www.w3.org/2000/svg" xmlns:xlink="http://www.w3.org/1999/xlink">
<g id="graph0" class="graph" transform="scale(1 1) rotate(0) translate(4 349)">
<title>Quest</title>
<!-- Node1 -->
<g id="node1" class="node"><title>Node1</title>
<polygon fill="#bfbfbf" stroke="black" points="93,-0.5 93,-90.5 195,-90.5 195,-0.5 93,-0.5"/>
<text text-anchor="middle" x="144" y="-78.5" font-family="Helvetica,sans-Serif" font-size="10.00">Quest</text>
<polyline fill="none" stroke="black" points="93,-71.5 195,-71.5 "/>
<text text-anchor="start" x="101" y="-59.5" font-family="Helvetica,sans-Serif" font-size="10.00">+ Main</text>
<text text-anchor="start" x="101" y="-48.5" font-family="Helvetica,sans-Serif" font-size="10.00">+ Side</text>
<text text-anchor="start" x="101" y="-37.5" font-family="Helvetica,sans-Serif" font-size="10.00">+ Cond</text>
<polyline fill="none" stroke="black" points="93,-30.5 195,-30.5 "/>
<text text-anchor="start" x="101" y="-18.5" font-family="Helvetica,sans-Serif" font-size="10.00">+ Quest()</text>
<text text-anchor="start" x="101" y="-7.5" font-family="Helvetica,sans-Serif" font-size="10.00">+ questCompleted()</text>
</g>
<!-- Node2 -->
<g id="node2" class="node"><title>Node2</title>
<g id="a_node2"><a xlink:href="class_quest_def.html" target="_top" xlink:title="Class defining one quest condition (part of a sequence of 3 in Quest) ">
<polygon fill="none" stroke="black" points="33,-160.5 33,-228.5 105,-228.5 105,-160.5 33,-160.5"/>
<text text-anchor="middle" x="69" y="-216.5" font-family="Helvetica,sans-Serif" font-size="10.00">QuestDef</text>
<polyline fill="none" stroke="black" points="33,-209.5 105,-209.5 "/>
<text text-anchor="start" x="41" y="-197.5" font-family="Helvetica,sans-Serif" font-size="10.00">+ Type</text>
<text text-anchor="start" x="41" y="-186.5" font-family="Helvetica,sans-Serif" font-size="10.00">+ Data</text>
<polyline fill="none" stroke="black" points="33,-179.5 105,-179.5 "/>
<text text-anchor="start" x="41" y="-167.5" font-family="Helvetica,sans-Serif" font-size="10.00">+ QuestDef()</text>
</a>
</g>
</g>
<!-- Node2&#45;&gt;Node1 -->
<g id="edge1" class="edge"><title>Node2&#45;&gt;Node1</title>
<path fill="none" stroke="#404040" d="M86.0187,-160.143C94.8799,-142.775 105.942,-121.093 116.022,-101.338"/>
<polygon fill="none" stroke="#404040" points="116.046,-101.289 115.21,-94.1269 121.5,-90.6002 122.336,-97.7627 116.046,-101.289"/>
<text text-anchor="middle" x="123.5" y="-134" font-family="Helvetica,sans-Serif" font-size="10.00"> &#45;side</text>
<text text-anchor="middle" x="123.5" y="-123" font-family="Helvetica,sans-Serif" font-size="10.00">&#45;main</text>
<text text-anchor="middle" x="123.5" y="-112" font-family="Helvetica,sans-Serif" font-size="10.00">&#45;cond</text>
</g>
<!-- Node3 -->
<g id="node3" class="node"><title>Node3</title>
<polygon fill="none" stroke="#bfbfbf" points="0,-276.5 0,-344.5 138,-344.5 138,-276.5 0,-276.5"/>
<text text-anchor="start" x="8" y="-332.5" font-family="Helvetica,sans-Serif" font-size="10.00">KeyValuePair&lt; questTypes,</text>
<text text-anchor="middle" x="69" y="-321.5" font-family="Helvetica,sans-Serif" font-size="10.00"> string &gt;</text>
<polyline fill="none" stroke="#bfbfbf" points="0,-314.5 138,-314.5 "/>
<text text-anchor="middle" x="69" y="-302.5" font-family="Helvetica,sans-Serif" font-size="10.00"> </text>
<polyline fill="none" stroke="#bfbfbf" points="0,-295.5 138,-295.5 "/>
<text text-anchor="middle" x="69" y="-283.5" font-family="Helvetica,sans-Serif" font-size="10.00"> </text>
</g>
<!-- Node3&#45;&gt;Node2 -->
<g id="edge2" class="edge"><title>Node3&#45;&gt;Node2</title>
<path fill="none" stroke="#404040" d="M69,-276.22C69,-265.099 69,-252.512 69,-240.642"/>
<polygon fill="none" stroke="#404040" points="69.0001,-240.624 65,-234.624 69,-228.624 73,-234.624 69.0001,-240.624"/>
<text text-anchor="middle" x="80" y="-250" font-family="Helvetica,sans-Serif" font-size="10.00"> &#45;pair</text>
</g>
<!-- Node4 -->
<g id="node4" class="node"><title>Node4</title>
<polygon fill="none" stroke="#bfbfbf" points="123.5,-166 123.5,-223 164.5,-223 164.5,-166 123.5,-166"/>
<text text-anchor="middle" x="144" y="-211" font-family="Helvetica,sans-Serif" font-size="10.00">string</text>
<polyline fill="none" stroke="#bfbfbf" points="123.5,-204 164.5,-204 "/>
<text text-anchor="middle" x="144" y="-192" font-family="Helvetica,sans-Serif" font-size="10.00"> </text>
<polyline fill="none" stroke="#bfbfbf" points="123.5,-185 164.5,-185 "/>
<text text-anchor="middle" x="144" y="-173" font-family="Helvetica,sans-Serif" font-size="10.00"> </text>
</g>
<!-- Node4&#45;&gt;Node1 -->
<g id="edge3" class="edge"><title>Node4&#45;&gt;Node1</title>
<path fill="none" stroke="#404040" d="M144,-165.85C144,-148.109 144,-124.433 144,-102.848"/>
<polygon fill="none" stroke="#404040" points="144,-102.782 140,-96.7824 144,-90.7824 148,-96.7823 144,-102.782"/>
<text text-anchor="middle" x="165.5" y="-128.5" font-family="Helvetica,sans-Serif" font-size="10.00"> +location</text>
<text text-anchor="middle" x="165.5" y="-117.5" font-family="Helvetica,sans-Serif" font-size="10.00">+title</text>
</g>
<!-- Node5 -->
<g id="node5" class="node"><title>Node5</title>
<polygon fill="none" stroke="#bfbfbf" points="195.5,-166 195.5,-223 224.5,-223 224.5,-166 195.5,-166"/>
<text text-anchor="middle" x="210" y="-211" font-family="Helvetica,sans-Serif" font-size="10.00">int</text>
<polyline fill="none" stroke="#bfbfbf" points="195.5,-204 224.5,-204 "/>
<text text-anchor="middle" x="210" y="-192" font-family="Helvetica,sans-Serif" font-size="10.00"> </text>
<polyline fill="none" stroke="#bfbfbf" points="195.5,-185 224.5,-185 "/>
<text text-anchor="middle" x="210" y="-173" font-family="Helvetica,sans-Serif" font-size="10.00"> </text>
</g>
<!-- Node5&#45;&gt;Node1 -->
<g id="edge4" class="edge"><title>Node5&#45;&gt;Node1</title>
<path fill="none" stroke="#404040" d="M205.36,-165.622C201.917,-148.722 196.352,-127.017 188,-109 186.799,-106.41 185.49,-103.813 184.098,-101.23"/>
<polygon fill="none" stroke="#404040" points="184.024,-101.103 177.547,-97.9328 177.982,-90.7348 184.459,-93.9049 184.024,-101.103"/>
<text text-anchor="middle" x="219.5" y="-128.5" font-family="Helvetica,sans-Serif" font-size="10.00"> +money</text>
<text text-anchor="middle" x="219.5" y="-117.5" font-family="Helvetica,sans-Serif" font-size="10.00">+exp</text>
</g>
</g>
</svg>
