<?xml version="1.0" encoding="UTF-8" standalone="no"?>
<!DOCTYPE svg PUBLIC "-//W3C//DTD SVG 1.1//EN"
 "http://www.w3.org/Graphics/SVG/1.1/DTD/svg11.dtd">
<!-- Generated by graphviz version 2.38.0 (20140413.2041)
 -->
<!-- Title: SaveData.PlayerSaveData Pages: 1 -->
<!--zoomable 350 -->
<svg id="main" version="1.1" xmlns="http://www.w3.org/2000/svg" xmlns:xlink="http://www.w3.org/1999/xlink" xml:space="preserve" onload="init(evt)">
<style type="text/css"><![CDATA[
.edge:hover path { stroke: red; }
.edge:hover polygon { stroke: red; fill: red; }
]]></style>
<script type="text/javascript"><![CDATA[
var edges = document.getElementsByTagName('g');
if (edges && edges.length) {
  for (var i=0;i<edges.length;i++) {
    if (edges[i].id.substr(0,4)=='edge') {
      edges[i].setAttribute('class','edge');
    }
  }
}
]]></script>
        <defs>
                <circle id="rim" cx="0" cy="0" r="7"/>
                <circle id="rim2" cx="0" cy="0" r="3.5"/>
                <g id="zoomPlus">
                        <use xlink:href="#rim" fill="#404040">
                                <set attributeName="fill" to="#808080" begin="zoomplus.mouseover" end="zoomplus.mouseout"/>
                        </use>
                        <path d="M-4,0h8M0,-4v8" fill="none" stroke="white" stroke-width="1.5" pointer-events="none"/>
                </g>
                <g id="zoomMin">
                        <use xlink:href="#rim" fill="#404040">
                                <set attributeName="fill" to="#808080" begin="zoomminus.mouseover" end="zoomminus.mouseout"/>
                        </use>
                        <path d="M-4,0h8" fill="none" stroke="white" stroke-width="1.5" pointer-events="none"/>
                </g>
                <g id="dirArrow">
                        <path fill="none" stroke="white" stroke-width="1.5" d="M0,-3.0v7 M-2.5,-0.5L0,-3.0L2.5,-0.5"/>
                </g>
               <g id="resetDef">
                       <use xlink:href="#rim2" fill="#404040">
                               <set attributeName="fill" to="#808080" begin="reset.mouseover" end="reset.mouseout"/>
                       </use>
               </g>
        </defs>

<script type="text/javascript">
var viewWidth = 631;
var viewHeight = 350;
var sectionId = 'dynsection-0';
</script>
<script xlink:href="svgpan.js"/>
<svg id="graph" class="graph">
<g id="viewport">
<title>SaveData.PlayerSaveData</title>
<!-- Node1 -->
<g id="node1" class="node"><title>Node1</title>
<polygon fill="#bfbfbf" stroke="black" points="211.598,-0.5 211.598,-57.5 341.598,-57.5 341.598,-0.5 211.598,-0.5"/>
<text text-anchor="middle" x="276.598" y="-45.5" font-family="Helvetica,sans-Serif" font-size="10.00">SaveData.PlayerSaveData</text>
<polyline fill="none" stroke="black" points="211.598,-38.5 341.598,-38.5 "/>
<text text-anchor="middle" x="276.598" y="-26.5" font-family="Helvetica,sans-Serif" font-size="10.00"> </text>
<polyline fill="none" stroke="black" points="211.598,-19.5 341.598,-19.5 "/>
<text text-anchor="middle" x="276.598" y="-7.5" font-family="Helvetica,sans-Serif" font-size="10.00"> </text>
</g>
<!-- Node2 -->
<g id="node2" class="node"><title>Node2</title>
<polygon fill="none" stroke="#bfbfbf" points="67.0983,-284.5 67.0983,-341.5 108.098,-341.5 108.098,-284.5 67.0983,-284.5"/>
<text text-anchor="middle" x="87.5983" y="-329.5" font-family="Helvetica,sans-Serif" font-size="10.00">string</text>
<polyline fill="none" stroke="#bfbfbf" points="67.0983,-322.5 108.098,-322.5 "/>
<text text-anchor="middle" x="87.5983" y="-310.5" font-family="Helvetica,sans-Serif" font-size="10.00"> </text>
<polyline fill="none" stroke="#bfbfbf" points="67.0983,-303.5 108.098,-303.5 "/>
<text text-anchor="middle" x="87.5983" y="-291.5" font-family="Helvetica,sans-Serif" font-size="10.00"> </text>
</g>
<!-- Node2&#45;&gt;Node1 -->
<g id="edge1" class="edge"><title>Node2&#45;&gt;Node1</title>
<path fill="none" stroke="#404040" d="M66.9022,-292.324C49.4206,-274.164 25.6698,-245.466 15.5983,-215 1.78802,-173.224 -10.1905,-151.65 15.5983,-116 57.128,-58.5899 138.316,-38.8473 199.17,-32.3895"/>
<polygon fill="none" stroke="#404040" points="199.49,-32.3594 205.09,-27.8152 211.438,-31.2359 205.839,-35.7801 199.49,-32.3594"/>
<text text-anchor="middle" x="32.5983" y="-163" font-family="Helvetica,sans-Serif" font-size="10.00"> +name</text>
</g>
<!-- Node3 -->
<g id="node3" class="node"><title>Node3</title>
<g id="a_node3"><a xlink:href="class_save_data_1_1_special_move_save_data.html" target="_top" xlink:title="A serializable class to represent a SpecialMove. ">
<polygon fill="none" stroke="black" points="198.098,-137 198.098,-194 355.098,-194 355.098,-137 198.098,-137"/>
<text text-anchor="middle" x="276.598" y="-182" font-family="Helvetica,sans-Serif" font-size="10.00">SaveData.SpecialMoveSaveData</text>
<polyline fill="none" stroke="black" points="198.098,-175 355.098,-175 "/>
<text text-anchor="middle" x="276.598" y="-163" font-family="Helvetica,sans-Serif" font-size="10.00"> </text>
<polyline fill="none" stroke="black" points="198.098,-156 355.098,-156 "/>
<text text-anchor="middle" x="276.598" y="-144" font-family="Helvetica,sans-Serif" font-size="10.00"> </text>
</a>
</g>
</g>
<!-- Node2&#45;&gt;Node3 -->
<g id="edge3" class="edge"><title>Node2&#45;&gt;Node3</title>
<path fill="none" stroke="#404040" d="M108.312,-294.677C131.927,-274.977 169.13,-244.105 183.598,-233 197.409,-222.399 212.673,-211.256 226.773,-201.187"/>
<polygon fill="none" stroke="#404040" points="227.014,-201.016 229.59,-194.281 236.798,-194.068 234.222,-200.803 227.014,-201.016"/>
<text text-anchor="middle" x="228.598" y="-258" font-family="Helvetica,sans-Serif" font-size="10.00"> +text</text>
<text text-anchor="middle" x="228.598" y="-247" font-family="Helvetica,sans-Serif" font-size="10.00">+desc</text>
<text text-anchor="middle" x="228.598" y="-236" font-family="Helvetica,sans-Serif" font-size="10.00">+typeOfSpecialMove</text>
</g>
<!-- Node8 -->
<g id="node8" class="node"><title>Node8</title>
<g id="a_node8"><a xlink:href="class_save_data_1_1_item_save_data.html" target="_top" xlink:title="A serializable class to represent an Item. ">
<polygon fill="none" stroke="black" points="59.0983,-137 59.0983,-194 180.098,-194 180.098,-137 59.0983,-137"/>
<text text-anchor="middle" x="119.598" y="-182" font-family="Helvetica,sans-Serif" font-size="10.00">SaveData.ItemSaveData</text>
<polyline fill="none" stroke="black" points="59.0983,-175 180.098,-175 "/>
<text text-anchor="middle" x="119.598" y="-163" font-family="Helvetica,sans-Serif" font-size="10.00"> </text>
<polyline fill="none" stroke="black" points="59.0983,-156 180.098,-156 "/>
<text text-anchor="middle" x="119.598" y="-144" font-family="Helvetica,sans-Serif" font-size="10.00"> </text>
</a>
</g>
</g>
<!-- Node2&#45;&gt;Node8 -->
<g id="edge11" class="edge"><title>Node2&#45;&gt;Node8</title>
<path fill="none" stroke="#404040" d="M85.1183,-284.243C84.4546,-268.942 84.7825,-249.715 88.5983,-233 90.7511,-223.57 94.3544,-213.883 98.3583,-204.921"/>
<polygon fill="none" stroke="#404040" points="98.3885,-204.858 97.3681,-197.719 103.565,-194.032 104.585,-201.17 98.3885,-204.858"/>
<text text-anchor="middle" x="115.598" y="-258" font-family="Helvetica,sans-Serif" font-size="10.00"> +name</text>
<text text-anchor="middle" x="115.598" y="-247" font-family="Helvetica,sans-Serif" font-size="10.00">+desc</text>
<text text-anchor="middle" x="115.598" y="-236" font-family="Helvetica,sans-Serif" font-size="10.00">+typeOfItem</text>
</g>
<!-- Node3&#45;&gt;Node1 -->
<g id="edge2" class="edge"><title>Node3&#45;&gt;Node1</title>
<path fill="none" stroke="#404040" d="M276.598,-136.957C276.598,-117.555 276.598,-91.2827 276.598,-69.6323"/>
<polygon fill="none" stroke="#404040" points="276.598,-69.5058 272.598,-63.5058 276.598,-57.5058 280.598,-63.5058 276.598,-69.5058"/>
<text text-anchor="middle" x="299.598" y="-90" font-family="Helvetica,sans-Serif" font-size="10.00"> +special1</text>
<text text-anchor="middle" x="299.598" y="-79" font-family="Helvetica,sans-Serif" font-size="10.00">+special2</text>
</g>
<!-- Node4 -->
<g id="node4" class="node"><title>Node4</title>
<polygon fill="none" stroke="#bfbfbf" points="260.098,-284.5 260.098,-341.5 295.098,-341.5 295.098,-284.5 260.098,-284.5"/>
<text text-anchor="middle" x="277.598" y="-329.5" font-family="Helvetica,sans-Serif" font-size="10.00">float</text>
<polyline fill="none" stroke="#bfbfbf" points="260.098,-322.5 295.098,-322.5 "/>
<text text-anchor="middle" x="277.598" y="-310.5" font-family="Helvetica,sans-Serif" font-size="10.00"> </text>
<polyline fill="none" stroke="#bfbfbf" points="260.098,-303.5 295.098,-303.5 "/>
<text text-anchor="middle" x="277.598" y="-291.5" font-family="Helvetica,sans-Serif" font-size="10.00"> </text>
</g>
<!-- Node4&#45;&gt;Node3 -->
<g id="edge4" class="edge"><title>Node4&#45;&gt;Node3</title>
<path fill="none" stroke="#404040" d="M277.408,-284.29C277.256,-262.243 277.042,-231.098 276.872,-206.37"/>
<polygon fill="none" stroke="#404040" points="276.871,-206.106 272.829,-200.134 276.788,-194.107 280.829,-200.079 276.871,-206.106"/>
<text text-anchor="middle" x="297.598" y="-247" font-family="Helvetica,sans-Serif" font-size="10.00"> +special</text>
</g>
<!-- Node5 -->
<g id="node5" class="node"><title>Node5</title>
<polygon fill="none" stroke="#bfbfbf" points="377.098,-284.5 377.098,-341.5 406.098,-341.5 406.098,-284.5 377.098,-284.5"/>
<text text-anchor="middle" x="391.598" y="-329.5" font-family="Helvetica,sans-Serif" font-size="10.00">int</text>
<polyline fill="none" stroke="#bfbfbf" points="377.098,-322.5 406.098,-322.5 "/>
<text text-anchor="middle" x="391.598" y="-310.5" font-family="Helvetica,sans-Serif" font-size="10.00"> </text>
<polyline fill="none" stroke="#bfbfbf" points="377.098,-303.5 406.098,-303.5 "/>
<text text-anchor="middle" x="391.598" y="-291.5" font-family="Helvetica,sans-Serif" font-size="10.00"> </text>
</g>
<!-- Node5&#45;&gt;Node1 -->
<g id="edge9" class="edge"><title>Node5&#45;&gt;Node1</title>
<path fill="none" stroke="#404040" d="M392.703,-284.22C393.175,-244.836 389.964,-171.403 363.598,-116 354.529,-96.9426 339.391,-79.7217 324.263,-65.7832"/>
<polygon fill="none" stroke="#404040" points="323.907,-65.4698 316.76,-64.5084 314.899,-57.5416 322.045,-58.5031 323.907,-65.4698"/>
<text text-anchor="middle" x="429.098" y="-207" font-family="Helvetica,sans-Serif" font-size="10.00"> +maximumMagic</text>
<text text-anchor="middle" x="429.098" y="-196" font-family="Helvetica,sans-Serif" font-size="10.00">+attack</text>
<text text-anchor="middle" x="429.098" y="-185" font-family="Helvetica,sans-Serif" font-size="10.00">+defence</text>
<text text-anchor="middle" x="429.098" y="-174" font-family="Helvetica,sans-Serif" font-size="10.00">+level</text>
<text text-anchor="middle" x="429.098" y="-163" font-family="Helvetica,sans-Serif" font-size="10.00">+speed</text>
<text text-anchor="middle" x="429.098" y="-152" font-family="Helvetica,sans-Serif" font-size="10.00">+luck</text>
<text text-anchor="middle" x="429.098" y="-141" font-family="Helvetica,sans-Serif" font-size="10.00">+health</text>
<text text-anchor="middle" x="429.098" y="-130" font-family="Helvetica,sans-Serif" font-size="10.00">+magic</text>
<text text-anchor="middle" x="429.098" y="-119" font-family="Helvetica,sans-Serif" font-size="10.00">+exp</text>
</g>
<!-- Node5&#45;&gt;Node3 -->
<g id="edge5" class="edge"><title>Node5&#45;&gt;Node3</title>
<path fill="none" stroke="#404040" d="M376.679,-299.986C366.226,-291.176 352.273,-278.6 341.598,-266 336.836,-260.379 317.156,-230.06 300.686,-204.351"/>
<polygon fill="none" stroke="#404040" points="300.573,-204.174 293.971,-201.274 294.109,-194.064 300.711,-196.964 300.573,-204.174"/>
<text text-anchor="middle" x="359.598" y="-247" font-family="Helvetica,sans-Serif" font-size="10.00"> +magic</text>
</g>
<!-- Node6 -->
<g id="node6" class="node"><title>Node6</title>
<g id="a_node6"><a xlink:href="class_save_data_1_1_texture_data.html" target="_top" xlink:title="A serializable class for holding textures. ">
<polygon fill="none" stroke="black" points="489.098,-137 489.098,-194 602.098,-194 602.098,-137 489.098,-137"/>
<text text-anchor="middle" x="545.598" y="-182" font-family="Helvetica,sans-Serif" font-size="10.00">SaveData.TextureData</text>
<polyline fill="none" stroke="black" points="489.098,-175 602.098,-175 "/>
<text text-anchor="middle" x="545.598" y="-163" font-family="Helvetica,sans-Serif" font-size="10.00"> </text>
<polyline fill="none" stroke="black" points="489.098,-156 602.098,-156 "/>
<text text-anchor="middle" x="545.598" y="-144" font-family="Helvetica,sans-Serif" font-size="10.00"> </text>
</a>
</g>
</g>
<!-- Node5&#45;&gt;Node6 -->
<g id="edge7" class="edge"><title>Node5&#45;&gt;Node6</title>
<path fill="none" stroke="#404040" d="M406.365,-298.049C429.417,-276.269 474.698,-233.487 507.373,-202.616"/>
<polygon fill="none" stroke="#404040" points="507.503,-202.493 509.117,-195.465 516.226,-194.251 514.611,-201.28 507.503,-202.493"/>
<text text-anchor="middle" x="491.598" y="-252.5" font-family="Helvetica,sans-Serif" font-size="10.00"> +height</text>
<text text-anchor="middle" x="491.598" y="-241.5" font-family="Helvetica,sans-Serif" font-size="10.00">+width</text>
</g>
<!-- Node6&#45;&gt;Node1 -->
<g id="edge6" class="edge"><title>Node6&#45;&gt;Node1</title>
<path fill="none" stroke="#404040" d="M506.138,-136.785C495.96,-129.848 484.954,-122.526 474.598,-116 444.61,-97.1011 437.76,-90.904 405.598,-76 388.963,-68.2912 370.646,-61.0528 353.169,-54.701"/>
<polygon fill="none" stroke="#404040" points="353.134,-54.6888 346.139,-56.4415 341.831,-50.6589 348.826,-48.9061 353.134,-54.6888"/>
<text text-anchor="middle" x="463.598" y="-84.5" font-family="Helvetica,sans-Serif" font-size="10.00"> +image</text>
</g>
<!-- Node7 -->
<g id="node7" class="node"><title>Node7</title>
<polygon fill="none" stroke="#bfbfbf" points="523.598,-284.5 523.598,-341.5 567.598,-341.5 567.598,-284.5 523.598,-284.5"/>
<text text-anchor="middle" x="545.598" y="-329.5" font-family="Helvetica,sans-Serif" font-size="10.00">byte []</text>
<polyline fill="none" stroke="#bfbfbf" points="523.598,-322.5 567.598,-322.5 "/>
<text text-anchor="middle" x="545.598" y="-310.5" font-family="Helvetica,sans-Serif" font-size="10.00"> </text>
<polyline fill="none" stroke="#bfbfbf" points="523.598,-303.5 567.598,-303.5 "/>
<text text-anchor="middle" x="545.598" y="-291.5" font-family="Helvetica,sans-Serif" font-size="10.00"> </text>
</g>
<!-- Node7&#45;&gt;Node6 -->
<g id="edge8" class="edge"><title>Node7&#45;&gt;Node6</title>
<path fill="none" stroke="#404040" d="M545.598,-284.29C545.598,-262.243 545.598,-231.098 545.598,-206.37"/>
<polygon fill="none" stroke="#404040" points="545.598,-206.107 541.598,-200.107 545.598,-194.107 549.598,-200.107 545.598,-206.107"/>
<text text-anchor="middle" x="584.098" y="-247" font-family="Helvetica,sans-Serif" font-size="10.00"> +rawTextureData</text>
</g>
<!-- Node8&#45;&gt;Node1 -->
<g id="edge10" class="edge"><title>Node8&#45;&gt;Node1</title>
<path fill="none" stroke="#404040" d="M151.748,-136.957C175.878,-116.286 209.111,-87.8158 235.223,-65.4457"/>
<polygon fill="none" stroke="#404040" points="235.378,-65.313 237.332,-58.3717 244.491,-57.5058 242.537,-64.4471 235.378,-65.313"/>
<text text-anchor="middle" x="235.598" y="-84.5" font-family="Helvetica,sans-Serif" font-size="10.00"> +item</text>
</g>
</g>
</svg>
        <g id="navigator" transform="translate(0 0)" fill="#404254">
                <rect fill="#f2f5e9" fill-opacity="0.5" stroke="#606060" stroke-width=".5" x="0" y="0" width="60" height="60"/>
                <use id="zoomplus" xlink:href="#zoomPlus" x="17" y="9" onmousedown="handleZoom(evt,'in')"/>
                <use id="zoomminus" xlink:href="#zoomMin" x="42" y="9" onmousedown="handleZoom(evt,'out')"/>
                <use id="reset" xlink:href="#resetDef" x="30" y="36" onmousedown="handleReset()"/>
                <g id="arrowUp" xlink:href="#dirArrow" transform="translate(30 24)" onmousedown="handlePan(0,-1)">
                  <use xlink:href="#rim" fill="#404040">
                        <set attributeName="fill" to="#808080" begin="arrowUp.mouseover" end="arrowUp.mouseout"/>
                  </use>
                  <path fill="none" stroke="white" stroke-width="1.5" d="M0,-3.0v7 M-2.5,-0.5L0,-3.0L2.5,-0.5"/>
                </g>
                <g id="arrowRight" xlink:href="#dirArrow" transform="rotate(90) translate(36 -43)" onmousedown="handlePan(1,0)">
                  <use xlink:href="#rim" fill="#404040">
                        <set attributeName="fill" to="#808080" begin="arrowRight.mouseover" end="arrowRight.mouseout"/>
                  </use>
                  <path fill="none" stroke="white" stroke-width="1.5" d="M0,-3.0v7 M-2.5,-0.5L0,-3.0L2.5,-0.5"/>
                </g>
                <g id="arrowDown" xlink:href="#dirArrow" transform="rotate(180) translate(-30 -48)" onmousedown="handlePan(0,1)">
                  <use xlink:href="#rim" fill="#404040">
                        <set attributeName="fill" to="#808080" begin="arrowDown.mouseover" end="arrowDown.mouseout"/>
                  </use>
                  <path fill="none" stroke="white" stroke-width="1.5" d="M0,-3.0v7 M-2.5,-0.5L0,-3.0L2.5,-0.5"/>
                </g>
                <g id="arrowLeft" xlink:href="#dirArrow" transform="rotate(270) translate(-36 17)" onmousedown="handlePan(-1,0)">
                  <use xlink:href="#rim" fill="#404040">
                        <set attributeName="fill" to="#808080" begin="arrowLeft.mouseover" end="arrowLeft.mouseout"/>
                  </use>
                  <path fill="none" stroke="white" stroke-width="1.5" d="M0,-3.0v7 M-2.5,-0.5L0,-3.0L2.5,-0.5"/>
                </g>
        </g>
        <svg viewBox="0 0 15 15" width="100%" height="30px" preserveAspectRatio="xMaxYMin meet">
         <g id="arrow_out" transform="scale(0.3 0.3)">
          <a xlink:href="class_save_data_1_1_player_save_data__coll__graph_org.svg" target="_base">
           <rect id="button" ry="5" rx="5" y="6" x="6" height="38" width="38"
                fill="#f2f5e9" fill-opacity="0.5" stroke="#606060" stroke-width="1.0"/>
           <path id="arrow"
             d="M 11.500037,31.436501 C 11.940474,20.09759 22.043105,11.32322 32.158766,21.979434 L 37.068811,17.246167 C 37.068811,17.246167 37.088388,32 37.088388,32 L 22.160133,31.978069 C 22.160133,31.978069 26.997745,27.140456 26.997745,27.140456 C 18.528582,18.264221 13.291696,25.230495 11.500037,31.436501 z"
             style="fill:#404040;"/>
          </a>
         </g>
        </svg>
</svg>
