<?xml version="1.0" encoding="UTF-8" standalone="no"?>
<!DOCTYPE svg PUBLIC "-//W3C//DTD SVG 1.1//EN"
 "http://www.w3.org/Graphics/SVG/1.1/DTD/svg11.dtd">
<!-- Generated by graphviz version 2.38.0 (20140413.2041)
 -->
<!-- Title: ItemsMenuScript Pages: 1 -->
<svg width="1120pt" height="1429pt"
 viewBox="0.00 0.00 1119.50 1429.00" xmlns="http://www.w3.org/2000/svg" xmlns:xlink="http://www.w3.org/1999/xlink">
<g id="graph0" class="graph" transform="scale(1 1) rotate(0) translate(4 1425)">
<title>ItemsMenuScript</title>
<!-- Node2 -->
<g id="node1" class="node"><title>Node2</title>
<polygon fill="#bfbfbf" stroke="black" points="284,-481.5 284,-571.5 375,-571.5 375,-481.5 284,-481.5"/>
<text text-anchor="middle" x="329.5" y="-559.5" font-family="Helvetica,sans-Serif" font-size="10.00">ItemsMenuScript</text>
<polyline fill="none" stroke="black" points="284,-552.5 375,-552.5 "/>
<text text-anchor="middle" x="329.5" y="-540.5" font-family="Helvetica,sans-Serif" font-size="10.00"> </text>
<polyline fill="none" stroke="black" points="284,-533.5 375,-533.5 "/>
<text text-anchor="start" x="292" y="-521.5" font-family="Helvetica,sans-Serif" font-size="10.00">+ OnItemPlace()</text>
<text text-anchor="start" x="292" y="-510.5" font-family="Helvetica,sans-Serif" font-size="10.00">+ back()</text>
<text text-anchor="start" x="292" y="-499.5" font-family="Helvetica,sans-Serif" font-size="10.00">&#45; Start()</text>
<text text-anchor="start" x="292" y="-488.5" font-family="Helvetica,sans-Serif" font-size="10.00">&#45; createItemCell()</text>
</g>
<!-- Node3 -->
<g id="node2" class="node"><title>Node3</title>
<g id="a_node2"><a xlink:href="class_mono_behaviour.html" target="_top" xlink:title="{MonoBehaviour\n||}">
<polygon fill="none" stroke="black" points="67,-823 67,-880 150,-880 150,-823 67,-823"/>
<text text-anchor="middle" x="108.5" y="-868" font-family="Helvetica,sans-Serif" font-size="10.00">MonoBehaviour</text>
<polyline fill="none" stroke="black" points="67,-861 150,-861 "/>
<text text-anchor="middle" x="108.5" y="-849" font-family="Helvetica,sans-Serif" font-size="10.00"> </text>
<polyline fill="none" stroke="black" points="67,-842 150,-842 "/>
<text text-anchor="middle" x="108.5" y="-830" font-family="Helvetica,sans-Serif" font-size="10.00"> </text>
</a>
</g>
</g>
<!-- Node3&#45;&gt;Node2 -->
<g id="edge1" class="edge"><title>Node3&#45;&gt;Node2</title>
<path fill="none" stroke="midnightblue" d="M115.716,-812.825C123.15,-780.156 136.894,-732.516 159.5,-696 192.529,-642.648 245.74,-593.611 283.833,-562.36"/>
<polygon fill="none" stroke="midnightblue" points="112.236,-812.357 113.521,-822.873 119.075,-813.851 112.236,-812.357"/>
</g>
<!-- Node4 -->
<g id="node3" class="node"><title>Node4</title>
<g id="a_node3"><a xlink:href="class_item.html" target="_top" xlink:title="Abstract class for items that can be equipped to a player, increasing some of their stats ...">
<polygon fill="none" stroke="black" points="0,-1225.5 0,-1304.5 77,-1304.5 77,-1225.5 0,-1225.5"/>
<text text-anchor="middle" x="38.5" y="-1292.5" font-family="Helvetica,sans-Serif" font-size="10.00">Item</text>
<polyline fill="none" stroke="black" points="0,-1285.5 77,-1285.5 "/>
<text text-anchor="start" x="8" y="-1273.5" font-family="Helvetica,sans-Serif" font-size="10.00">+ Name</text>
<text text-anchor="start" x="8" y="-1262.5" font-family="Helvetica,sans-Serif" font-size="10.00">+ Desc</text>
<polyline fill="none" stroke="black" points="0,-1255.5 77,-1255.5 "/>
<text text-anchor="start" x="8" y="-1243.5" font-family="Helvetica,sans-Serif" font-size="10.00">+ applyBuffs()</text>
<text text-anchor="start" x="8" y="-1232.5" font-family="Helvetica,sans-Serif" font-size="10.00">+ revertBuffs()</text>
</a>
</g>
</g>
<!-- Node4&#45;&gt;Node2 -->
<g id="edge2" class="edge"><title>Node4&#45;&gt;Node2</title>
<path fill="none" stroke="#404040" d="M30.0801,-1225.19C11.395,-1129.88 -25.6364,-878.766 57.5,-696 96.7727,-609.663 204.661,-563.537 272.163,-542.39"/>
<polygon fill="none" stroke="#404040" points="272.376,-542.325 276.959,-536.758 283.861,-538.848 279.278,-544.415 272.376,-542.325"/>
<text text-anchor="middle" x="23" y="-1028" font-family="Helvetica,sans-Serif" font-size="10.00"> &#45;items</text>
</g>
<!-- Node8 -->
<g id="node7" class="node"><title>Node8</title>
<g id="a_node7"><a xlink:href="class_player.html" target="_top" xlink:title="Defines a playable character for use in battle scenes">
<polygon fill="none" stroke="black" points="514.5,-1054.5 514.5,-1166.5 626.5,-1166.5 626.5,-1054.5 514.5,-1054.5"/>
<text text-anchor="middle" x="570.5" y="-1154.5" font-family="Helvetica,sans-Serif" font-size="10.00">Player</text>
<polyline fill="none" stroke="black" points="514.5,-1147.5 626.5,-1147.5 "/>
<text text-anchor="start" x="522.5" y="-1135.5" font-family="Helvetica,sans-Serif" font-size="10.00">+ Exp</text>
<text text-anchor="start" x="522.5" y="-1124.5" font-family="Helvetica,sans-Serif" font-size="10.00">+ Item</text>
<text text-anchor="start" x="522.5" y="-1113.5" font-family="Helvetica,sans-Serif" font-size="10.00">+ ExpToNextLevel</text>
<polyline fill="none" stroke="black" points="514.5,-1106.5 626.5,-1106.5 "/>
<text text-anchor="start" x="522.5" y="-1094.5" font-family="Helvetica,sans-Serif" font-size="10.00">+ Player()</text>
<text text-anchor="start" x="522.5" y="-1083.5" font-family="Helvetica,sans-Serif" font-size="10.00">+ gainExp()</text>
<text text-anchor="start" x="522.5" y="-1072.5" font-family="Helvetica,sans-Serif" font-size="10.00">+ levelUp()</text>
<text text-anchor="start" x="522.5" y="-1061.5" font-family="Helvetica,sans-Serif" font-size="10.00">&#45; setExpToNextLevel()</text>
</a>
</g>
</g>
<!-- Node4&#45;&gt;Node8 -->
<g id="edge26" class="edge"><title>Node4&#45;&gt;Node8</title>
<path fill="none" stroke="#404040" d="M77.2427,-1253.92C142.64,-1236.79 279.006,-1200.58 393.5,-1167 429.692,-1156.39 469.815,-1143.87 502.697,-1133.41"/>
<polygon fill="none" stroke="#404040" points="503.03,-1133.3 507.531,-1127.67 514.463,-1129.66 509.962,-1135.29 503.03,-1133.3"/>
<text text-anchor="middle" x="339" y="-1193.5" font-family="Helvetica,sans-Serif" font-size="10.00"> &#45;item</text>
</g>
<!-- Node18 -->
<g id="node17" class="node"><title>Node18</title>
<g id="a_node17"><a xlink:href="class_data_manager.html" target="_top" xlink:title="An object to store all player data including players, items and money and provide useful functions ...">
<polygon fill="none" stroke="black" points="168.5,-696.5 168.5,-1006.5 320.5,-1006.5 320.5,-696.5 168.5,-696.5"/>
<text text-anchor="middle" x="244.5" y="-994.5" font-family="Helvetica,sans-Serif" font-size="10.00">DataManager</text>
<polyline fill="none" stroke="black" points="168.5,-987.5 320.5,-987.5 "/>
<text text-anchor="start" x="176.5" y="-975.5" font-family="Helvetica,sans-Serif" font-size="10.00">+ Players</text>
<text text-anchor="start" x="176.5" y="-964.5" font-family="Helvetica,sans-Serif" font-size="10.00">+ Items</text>
<text text-anchor="start" x="176.5" y="-953.5" font-family="Helvetica,sans-Serif" font-size="10.00">+ Money</text>
<polyline fill="none" stroke="black" points="168.5,-946.5 320.5,-946.5 "/>
<text text-anchor="start" x="176.5" y="-934.5" font-family="Helvetica,sans-Serif" font-size="10.00">+ DataManager()</text>
<text text-anchor="start" x="176.5" y="-923.5" font-family="Helvetica,sans-Serif" font-size="10.00">+ DataManager()</text>
<text text-anchor="start" x="176.5" y="-912.5" font-family="Helvetica,sans-Serif" font-size="10.00">+ getFirstPlayer()</text>
<text text-anchor="start" x="176.5" y="-901.5" font-family="Helvetica,sans-Serif" font-size="10.00">+ playersAlive()</text>
<text text-anchor="start" x="176.5" y="-890.5" font-family="Helvetica,sans-Serif" font-size="10.00">+ addPlayer()</text>
<text text-anchor="start" x="176.5" y="-879.5" font-family="Helvetica,sans-Serif" font-size="10.00">+ swapPlayers()</text>
<text text-anchor="start" x="176.5" y="-868.5" font-family="Helvetica,sans-Serif" font-size="10.00">+ addItem()</text>
<text text-anchor="start" x="176.5" y="-857.5" font-family="Helvetica,sans-Serif" font-size="10.00">+ countItems()</text>
<text text-anchor="start" x="176.5" y="-846.5" font-family="Helvetica,sans-Serif" font-size="10.00">+ Save()</text>
<text text-anchor="start" x="176.5" y="-835.5" font-family="Helvetica,sans-Serif" font-size="10.00">+ Load()</text>
<text text-anchor="start" x="176.5" y="-824.5" font-family="Helvetica,sans-Serif" font-size="10.00">+ PlayerToSerializable()</text>
<text text-anchor="start" x="176.5" y="-813.5" font-family="Helvetica,sans-Serif" font-size="10.00">+ SerializableToPLayer()</text>
<text text-anchor="start" x="176.5" y="-802.5" font-family="Helvetica,sans-Serif" font-size="10.00">+ ItemToSerializable()</text>
<text text-anchor="start" x="176.5" y="-791.5" font-family="Helvetica,sans-Serif" font-size="10.00">+ SerializableToItem()</text>
<text text-anchor="start" x="176.5" y="-780.5" font-family="Helvetica,sans-Serif" font-size="10.00">+ SpecialMoveToSerializable()</text>
<text text-anchor="start" x="176.5" y="-769.5" font-family="Helvetica,sans-Serif" font-size="10.00">+ SerializableToSpecialMove()</text>
<text text-anchor="start" x="176.5" y="-758.5" font-family="Helvetica,sans-Serif" font-size="10.00">+ ObjectsActiveToSerializable()</text>
<text text-anchor="start" x="176.5" y="-747.5" font-family="Helvetica,sans-Serif" font-size="10.00">+ SerializableToObjectsActive()</text>
<text text-anchor="start" x="176.5" y="-736.5" font-family="Helvetica,sans-Serif" font-size="10.00">+ Texture2DToSerializable()</text>
<text text-anchor="start" x="176.5" y="-725.5" font-family="Helvetica,sans-Serif" font-size="10.00">+ SerializableToTexture2D()</text>
<text text-anchor="start" x="176.5" y="-714.5" font-family="Helvetica,sans-Serif" font-size="10.00">+ VectorToSerializable()</text>
<text text-anchor="start" x="176.5" y="-703.5" font-family="Helvetica,sans-Serif" font-size="10.00">+ SerializableToVector()</text>
</a>
</g>
</g>
<!-- Node4&#45;&gt;Node18 -->
<g id="edge29" class="edge"><title>Node4&#45;&gt;Node18</title>
<path fill="none" stroke="#404040" d="M57.88,-1225.29C81.9381,-1177.23 124.497,-1092.21 162.903,-1015.5"/>
<polygon fill="none" stroke="#404040" points="162.92,-1015.46 162.029,-1008.31 168.292,-1004.73 169.183,-1011.89 162.92,-1015.46"/>
<text text-anchor="middle" x="157" y="-1108" font-family="Helvetica,sans-Serif" font-size="10.00"> &#45;items</text>
</g>
<!-- Node5 -->
<g id="node4" class="node"><title>Node5</title>
<polygon fill="none" stroke="#bfbfbf" points="838,-1363.5 838,-1420.5 879,-1420.5 879,-1363.5 838,-1363.5"/>
<text text-anchor="middle" x="858.5" y="-1408.5" font-family="Helvetica,sans-Serif" font-size="10.00">string</text>
<polyline fill="none" stroke="#bfbfbf" points="838,-1401.5 879,-1401.5 "/>
<text text-anchor="middle" x="858.5" y="-1389.5" font-family="Helvetica,sans-Serif" font-size="10.00"> </text>
<polyline fill="none" stroke="#bfbfbf" points="838,-1382.5 879,-1382.5 "/>
<text text-anchor="middle" x="858.5" y="-1370.5" font-family="Helvetica,sans-Serif" font-size="10.00"> </text>
</g>
<!-- Node5&#45;&gt;Node4 -->
<g id="edge3" class="edge"><title>Node5&#45;&gt;Node4</title>
<path fill="none" stroke="#404040" d="M837.825,-1391.21C718.784,-1392.21 123.906,-1394.7 61.5,-1345 52.5557,-1337.88 46.9561,-1327.48 43.4841,-1316.56"/>
<polygon fill="none" stroke="#404040" points="43.412,-1316.27 38.073,-1311.43 40.494,-1304.63 45.8329,-1309.48 43.412,-1316.27"/>
<text text-anchor="middle" x="76.5" y="-1337" font-family="Helvetica,sans-Serif" font-size="10.00"> #desc</text>
<text text-anchor="middle" x="76.5" y="-1326" font-family="Helvetica,sans-Serif" font-size="10.00">#name</text>
</g>
<!-- Node9 -->
<g id="node8" class="node"><title>Node9</title>
<g id="a_node8"><a xlink:href="class_character.html" target="_top" xlink:title="Base abstract class for Enemy and Player to inherit from. Defines all shared variables, their constructor and their setters and getters ">
<polygon fill="none" stroke="black" points="780,-95.5 780,-273.5 875,-273.5 875,-95.5 780,-95.5"/>
<text text-anchor="middle" x="827.5" y="-261.5" font-family="Helvetica,sans-Serif" font-size="10.00">Character</text>
<polyline fill="none" stroke="black" points="780,-254.5 875,-254.5 "/>
<text text-anchor="start" x="788" y="-242.5" font-family="Helvetica,sans-Serif" font-size="10.00">+ Name</text>
<text text-anchor="start" x="788" y="-231.5" font-family="Helvetica,sans-Serif" font-size="10.00">+ Level</text>
<text text-anchor="start" x="788" y="-220.5" font-family="Helvetica,sans-Serif" font-size="10.00">+ Health</text>
<text text-anchor="start" x="788" y="-209.5" font-family="Helvetica,sans-Serif" font-size="10.00">+ Attack</text>
<text text-anchor="start" x="788" y="-198.5" font-family="Helvetica,sans-Serif" font-size="10.00">+ Defence</text>
<text text-anchor="start" x="788" y="-187.5" font-family="Helvetica,sans-Serif" font-size="10.00">+ MaximumMagic</text>
<text text-anchor="start" x="788" y="-176.5" font-family="Helvetica,sans-Serif" font-size="10.00">+ Magic</text>
<text text-anchor="start" x="788" y="-165.5" font-family="Helvetica,sans-Serif" font-size="10.00">+ Luck</text>
<text text-anchor="start" x="788" y="-154.5" font-family="Helvetica,sans-Serif" font-size="10.00">+ Speed</text>
<text text-anchor="start" x="788" y="-143.5" font-family="Helvetica,sans-Serif" font-size="10.00">+ Special1</text>
<text text-anchor="start" x="788" y="-132.5" font-family="Helvetica,sans-Serif" font-size="10.00">+ Special2</text>
<text text-anchor="start" x="788" y="-121.5" font-family="Helvetica,sans-Serif" font-size="10.00">+ Image</text>
<polyline fill="none" stroke="black" points="780,-114.5 875,-114.5 "/>
<text text-anchor="start" x="788" y="-102.5" font-family="Helvetica,sans-Serif" font-size="10.00"># Character()</text>
</a>
</g>
</g>
<!-- Node5&#45;&gt;Node9 -->
<g id="edge8" class="edge"><title>Node5&#45;&gt;Node9</title>
<path fill="none" stroke="#404040" d="M879.197,-1389.06C933.963,-1382.66 1078.5,-1357.15 1078.5,-1266 1078.5,-1266 1078.5,-1266 1078.5,-633 1078.5,-553.286 955.817,-366.304 881.992,-261.004"/>
<polygon fill="none" stroke="#404040" points="881.912,-260.89 875.188,-258.284 875.006,-251.075 881.73,-253.681 881.912,-260.89"/>
<text text-anchor="middle" x="1095" y="-849" font-family="Helvetica,sans-Serif" font-size="10.00"> #name</text>
</g>
<!-- Node11 -->
<g id="node10" class="node"><title>Node11</title>
<g id="a_node10"><a xlink:href="class_special_move.html" target="_top" xlink:title="Special move abstract base class that expands upon CharacterMove, adding magic properties ...">
<polygon fill="none" stroke="black" points="642.5,-332.5 642.5,-433.5 740.5,-433.5 740.5,-332.5 642.5,-332.5"/>
<text text-anchor="middle" x="691.5" y="-421.5" font-family="Helvetica,sans-Serif" font-size="10.00">SpecialMove</text>
<polyline fill="none" stroke="black" points="642.5,-414.5 740.5,-414.5 "/>
<text text-anchor="start" x="650.5" y="-402.5" font-family="Helvetica,sans-Serif" font-size="10.00">+ Magic</text>
<text text-anchor="start" x="650.5" y="-391.5" font-family="Helvetica,sans-Serif" font-size="10.00">+ Desc</text>
<text text-anchor="start" x="650.5" y="-380.5" font-family="Helvetica,sans-Serif" font-size="10.00">+ Special</text>
<polyline fill="none" stroke="black" points="642.5,-373.5 740.5,-373.5 "/>
<text text-anchor="start" x="650.5" y="-361.5" font-family="Helvetica,sans-Serif" font-size="10.00">+ setUp()</text>
<text text-anchor="start" x="650.5" y="-350.5" font-family="Helvetica,sans-Serif" font-size="10.00">+ decreaseMagic()</text>
<text text-anchor="start" x="650.5" y="-339.5" font-family="Helvetica,sans-Serif" font-size="10.00"># SpecialMove()</text>
</a>
</g>
</g>
<!-- Node5&#45;&gt;Node11 -->
<g id="edge22" class="edge"><title>Node5&#45;&gt;Node11</title>
<path fill="none" stroke="#404040" d="M837.819,-1391.11C741.865,-1390.47 335.414,-1375.15 115.5,-1167 60.5658,-1115 70.5862,-1081.5 57.5,-1007 33.5864,-870.862 4.30919,-823.578 57.5,-696 109.746,-570.689 155.659,-546.644 274.5,-481 389.999,-417.202 545.832,-395.241 630.522,-387.772"/>
<polygon fill="none" stroke="#404040" points="630.53,-387.771 636.176,-383.285 642.488,-386.772 636.842,-391.258 630.53,-387.771"/>
<text text-anchor="middle" x="77.5" y="-1028" font-family="Helvetica,sans-Serif" font-size="10.00"> #desc</text>
</g>
<!-- Node12 -->
<g id="node11" class="node"><title>Node12</title>
<g id="a_node11"><a xlink:href="class_character_move.html" target="_top" xlink:title="Astract base class for character moves ">
<polygon fill="none" stroke="black" points="824.5,-487 824.5,-566 910.5,-566 910.5,-487 824.5,-487"/>
<text text-anchor="middle" x="867.5" y="-554" font-family="Helvetica,sans-Serif" font-size="10.00">CharacterMove</text>
<polyline fill="none" stroke="black" points="824.5,-547 910.5,-547 "/>
<text text-anchor="start" x="832.5" y="-535" font-family="Helvetica,sans-Serif" font-size="10.00">+ User</text>
<text text-anchor="start" x="832.5" y="-524" font-family="Helvetica,sans-Serif" font-size="10.00">+ Target</text>
<text text-anchor="start" x="832.5" y="-513" font-family="Helvetica,sans-Serif" font-size="10.00">+ Text</text>
<polyline fill="none" stroke="black" points="824.5,-506 910.5,-506 "/>
<text text-anchor="start" x="832.5" y="-494" font-family="Helvetica,sans-Serif" font-size="10.00">+ performMove()</text>
</a>
</g>
</g>
<!-- Node5&#45;&gt;Node12 -->
<g id="edge12" class="edge"><title>Node5&#45;&gt;Node12</title>
<path fill="none" stroke="#404040" d="M858.341,-1363.48C858.043,-1305.99 857.517,-1168.96 858.5,-1054 859.992,-879.421 864.266,-672.315 866.342,-578.363"/>
<polygon fill="none" stroke="#404040" points="866.347,-578.136 862.481,-572.049 866.613,-566.139 870.479,-572.227 866.347,-578.136"/>
<text text-anchor="middle" x="871" y="-1108" font-family="Helvetica,sans-Serif" font-size="10.00"> #text</text>
</g>
<!-- Node13 -->
<g id="node12" class="node"><title>Node13</title>
<g id="a_node12"><a xlink:href="class_battle_manager.html" target="_top" xlink:title="Holds current Player and Enemy objects in battle and provides functions for MainBattle and other obje...">
<polygon fill="none" stroke="black" points="899.5,-757 899.5,-946 1015.5,-946 1015.5,-757 899.5,-757"/>
<text text-anchor="middle" x="957.5" y="-934" font-family="Helvetica,sans-Serif" font-size="10.00">BattleManager</text>
<polyline fill="none" stroke="black" points="899.5,-927 1015.5,-927 "/>
<text text-anchor="start" x="907.5" y="-915" font-family="Helvetica,sans-Serif" font-size="10.00">+ Player</text>
<text text-anchor="start" x="907.5" y="-904" font-family="Helvetica,sans-Serif" font-size="10.00">+ Enemy</text>
<text text-anchor="start" x="907.5" y="-893" font-family="Helvetica,sans-Serif" font-size="10.00">+ WasCriticalHit</text>
<polyline fill="none" stroke="black" points="899.5,-886 1015.5,-886 "/>
<text text-anchor="start" x="907.5" y="-874" font-family="Helvetica,sans-Serif" font-size="10.00">+ BattleManager()</text>
<text text-anchor="start" x="907.5" y="-863" font-family="Helvetica,sans-Serif" font-size="10.00">+ playerFirst()</text>
<text text-anchor="start" x="907.5" y="-852" font-family="Helvetica,sans-Serif" font-size="10.00">+ switchPlayers()</text>
<text text-anchor="start" x="907.5" y="-841" font-family="Helvetica,sans-Serif" font-size="10.00">+ isCriticalHit()</text>
<text text-anchor="start" x="907.5" y="-830" font-family="Helvetica,sans-Serif" font-size="10.00">+ ranAway()</text>
<text text-anchor="start" x="907.5" y="-819" font-family="Helvetica,sans-Serif" font-size="10.00">+ damageCalculation()</text>
<text text-anchor="start" x="907.5" y="-808" font-family="Helvetica,sans-Serif" font-size="10.00">+ enemyMove()</text>
<text text-anchor="start" x="907.5" y="-797" font-family="Helvetica,sans-Serif" font-size="10.00">+ enemySpecialMove()</text>
<text text-anchor="start" x="907.5" y="-786" font-family="Helvetica,sans-Serif" font-size="10.00">+ battleWon()</text>
<text text-anchor="start" x="907.5" y="-775" font-family="Helvetica,sans-Serif" font-size="10.00">+ playerFainted()</text>
<text text-anchor="start" x="907.5" y="-764" font-family="Helvetica,sans-Serif" font-size="10.00">&#45; characterFainted()</text>
</a>
</g>
</g>
<!-- Node5&#45;&gt;Node13 -->
<g id="edge15" class="edge"><title>Node5&#45;&gt;Node13</title>
<path fill="none" stroke="#404040" d="M868.437,-1363.32C885.271,-1319.94 923.25,-1235.71 980.5,-1185 995.397,-1171.8 1010.3,-1183.45 1021.5,-1167 1063.36,-1105.5 1044.15,-1022.59 1016.17,-957.342"/>
<polygon fill="none" stroke="#404040" points="1016.1,-957.176 1010.01,-953.309 1011.24,-946.203 1017.33,-950.07 1016.1,-957.176"/>
<text text-anchor="middle" x="1022.5" y="-1199" font-family="Helvetica,sans-Serif" font-size="10.00"> +forceEnemyMove</text>
<text text-anchor="middle" x="1022.5" y="-1188" font-family="Helvetica,sans-Serif" font-size="10.00">+forceCriticalHits</text>
</g>
<!-- Node6 -->
<g id="node5" class="node"><title>Node6</title>
<polygon fill="none" stroke="#bfbfbf" points="428.5,-823 428.5,-880 528.5,-880 528.5,-823 428.5,-823"/>
<text text-anchor="middle" x="478.5" y="-868" font-family="Helvetica,sans-Serif" font-size="10.00">DragAndDropCell []</text>
<polyline fill="none" stroke="#bfbfbf" points="428.5,-861 528.5,-861 "/>
<text text-anchor="middle" x="478.5" y="-849" font-family="Helvetica,sans-Serif" font-size="10.00"> </text>
<polyline fill="none" stroke="#bfbfbf" points="428.5,-842 528.5,-842 "/>
<text text-anchor="middle" x="478.5" y="-830" font-family="Helvetica,sans-Serif" font-size="10.00"> </text>
</g>
<!-- Node6&#45;&gt;Node2 -->
<g id="edge4" class="edge"><title>Node6&#45;&gt;Node2</title>
<path fill="none" stroke="#404040" d="M480.69,-822.647C483.261,-771.77 482.035,-662.392 432.5,-590 421.006,-573.203 403.37,-560.146 385.92,-550.411"/>
<polygon fill="none" stroke="#404040" points="385.771,-550.334 378.601,-551.1 375.136,-544.776 382.306,-544.01 385.771,-550.334"/>
<text text-anchor="middle" x="505.5" y="-631.5" font-family="Helvetica,sans-Serif" font-size="10.00"> &#45;itemContainers</text>
</g>
<!-- Node7 -->
<g id="node6" class="node"><title>Node7</title>
<polygon fill="none" stroke="#bfbfbf" points="339,-823 339,-880 410,-880 410,-823 339,-823"/>
<text text-anchor="middle" x="374.5" y="-868" font-family="Helvetica,sans-Serif" font-size="10.00">GameObject</text>
<polyline fill="none" stroke="#bfbfbf" points="339,-861 410,-861 "/>
<text text-anchor="middle" x="374.5" y="-849" font-family="Helvetica,sans-Serif" font-size="10.00"> </text>
<polyline fill="none" stroke="#bfbfbf" points="339,-842 410,-842 "/>
<text text-anchor="middle" x="374.5" y="-830" font-family="Helvetica,sans-Serif" font-size="10.00"> </text>
</g>
<!-- Node7&#45;&gt;Node2 -->
<g id="edge5" class="edge"><title>Node7&#45;&gt;Node2</title>
<path fill="none" stroke="#404040" d="M370.663,-822.961C363.305,-770.143 347.076,-653.659 337.338,-583.76"/>
<polygon fill="none" stroke="#404040" points="337.313,-583.583 332.524,-578.192 335.658,-571.698 340.447,-577.088 337.313,-583.583"/>
<text text-anchor="middle" x="389" y="-637" font-family="Helvetica,sans-Serif" font-size="10.00"> &#45;playerContainers</text>
<text text-anchor="middle" x="389" y="-626" font-family="Helvetica,sans-Serif" font-size="10.00">&#45;player</text>
</g>
<!-- Node8&#45;&gt;Node2 -->
<g id="edge6" class="edge"><title>Node8&#45;&gt;Node2</title>
<path fill="none" stroke="#404040" d="M571.411,-1054.21C572.992,-927.797 573.732,-625.737 545.5,-590 525.885,-565.171 444.502,-546.726 387.441,-536.536"/>
<polygon fill="none" stroke="#404040" points="387.13,-536.482 380.534,-539.395 375.307,-534.426 381.904,-531.513 387.13,-536.482"/>
<text text-anchor="middle" x="591.5" y="-849" font-family="Helvetica,sans-Serif" font-size="10.00"> &#45;players</text>
</g>
<!-- Node8&#45;&gt;Node13 -->
<g id="edge21" class="edge"><title>Node8&#45;&gt;Node13</title>
<path fill="none" stroke="#404040" d="M626.773,-1072.13C696.249,-1025.99 814.352,-947.562 889.021,-897.976"/>
<polygon fill="none" stroke="#404040" points="889.263,-897.815 892.048,-891.164 899.259,-891.177 896.474,-897.828 889.263,-897.815"/>
<text text-anchor="middle" x="713" y="-1028" font-family="Helvetica,sans-Serif" font-size="10.00"> &#45;player</text>
</g>
<!-- Node8&#45;&gt;Node18 -->
<g id="edge31" class="edge"><title>Node8&#45;&gt;Node18</title>
<path fill="none" stroke="#404040" d="M514.494,-1086.21C444.454,-1057.01 333.189,-1010.33 329.5,-1007 329.404,-1006.91 329.308,-1006.83 329.213,-1006.74"/>
<polygon fill="none" stroke="#404040" points="329.15,-1006.68 322.062,-1005.35 320.562,-998.296 327.65,-999.625 329.15,-1006.68"/>
<text text-anchor="middle" x="409.5" y="-1028" font-family="Helvetica,sans-Serif" font-size="10.00"> &#45;players</text>
</g>
<!-- Node9&#45;&gt;Node8 -->
<g id="edge7" class="edge"><title>Node9&#45;&gt;Node8</title>
<path fill="none" stroke="midnightblue" d="M770.616,-210.886C724.517,-234.853 662.604,-275.556 633.5,-332 599.114,-398.687 630.64,-933.727 614.5,-1007 611.001,-1022.89 605.061,-1039.38 598.658,-1054.38"/>
<polygon fill="none" stroke="midnightblue" points="772.28,-213.966 779.61,-206.316 769.11,-207.725 772.28,-213.966"/>
</g>
<!-- Node9&#45;&gt;Node12 -->
<g id="edge13" class="edge"><title>Node9&#45;&gt;Node12</title>
<path fill="none" stroke="#404040" d="M862.423,-273.77C864.032,-279.878 865.421,-285.992 866.5,-292 877.647,-354.083 875.613,-426.957 872.303,-474.57"/>
<polygon fill="none" stroke="#404040" points="872.291,-474.737 875.831,-481.02 871.394,-486.704 867.854,-480.422 872.291,-474.737"/>
<text text-anchor="middle" x="892.5" y="-386" font-family="Helvetica,sans-Serif" font-size="10.00"> #target</text>
<text text-anchor="middle" x="892.5" y="-375" font-family="Helvetica,sans-Serif" font-size="10.00">#user</text>
</g>
<!-- Node14 -->
<g id="node13" class="node"><title>Node14</title>
<g id="a_node13"><a xlink:href="class_enemy.html" target="_top" xlink:title="Defines an AI controller enemy to fight in battle scenes">
<polygon fill="none" stroke="black" points="961,-0.5 961,-57.5 1028,-57.5 1028,-0.5 961,-0.5"/>
<text text-anchor="middle" x="994.5" y="-45.5" font-family="Helvetica,sans-Serif" font-size="10.00">Enemy</text>
<polyline fill="none" stroke="black" points="961,-38.5 1028,-38.5 "/>
<text text-anchor="start" x="969" y="-26.5" font-family="Helvetica,sans-Serif" font-size="10.00">+ ExpGiven</text>
<polyline fill="none" stroke="black" points="961,-19.5 1028,-19.5 "/>
<text text-anchor="start" x="969" y="-7.5" font-family="Helvetica,sans-Serif" font-size="10.00">+ Enemy()</text>
</a>
</g>
</g>
<!-- Node9&#45;&gt;Node14 -->
<g id="edge17" class="edge"><title>Node9&#45;&gt;Node14</title>
<path fill="none" stroke="midnightblue" d="M882.903,-132.576C910.125,-107.555 941.857,-78.3877 964.51,-57.5659"/>
<polygon fill="none" stroke="midnightblue" points="880.349,-130.169 875.355,-139.513 885.086,-135.323 880.349,-130.169"/>
</g>
<!-- Node10 -->
<g id="node9" class="node"><title>Node10</title>
<polygon fill="none" stroke="#bfbfbf" points="696,-1236.5 696,-1293.5 725,-1293.5 725,-1236.5 696,-1236.5"/>
<text text-anchor="middle" x="710.5" y="-1281.5" font-family="Helvetica,sans-Serif" font-size="10.00">int</text>
<polyline fill="none" stroke="#bfbfbf" points="696,-1274.5 725,-1274.5 "/>
<text text-anchor="middle" x="710.5" y="-1262.5" font-family="Helvetica,sans-Serif" font-size="10.00"> </text>
<polyline fill="none" stroke="#bfbfbf" points="696,-1255.5 725,-1255.5 "/>
<text text-anchor="middle" x="710.5" y="-1243.5" font-family="Helvetica,sans-Serif" font-size="10.00"> </text>
</g>
<!-- Node10&#45;&gt;Node8 -->
<g id="edge27" class="edge"><title>Node10&#45;&gt;Node8</title>
<path fill="none" stroke="#404040" d="M695.631,-1261.65C669.327,-1256.66 614.794,-1242.42 587.5,-1207 581.147,-1198.75 576.87,-1188.92 574.038,-1178.75"/>
<polygon fill="none" stroke="#404040" points="573.968,-1178.44 568.751,-1173.46 571.339,-1166.73 576.556,-1171.71 573.968,-1178.44"/>
<text text-anchor="middle" x="625" y="-1199" font-family="Helvetica,sans-Serif" font-size="10.00"> &#45;expToNextLevel</text>
<text text-anchor="middle" x="625" y="-1188" font-family="Helvetica,sans-Serif" font-size="10.00">&#45;exp</text>
</g>
<!-- Node10&#45;&gt;Node9 -->
<g id="edge9" class="edge"><title>Node10&#45;&gt;Node9</title>
<path fill="none" stroke="#404040" d="M711.224,-1236.32C713.818,-1144.28 723.896,-840.107 749.5,-590 761.304,-474.699 763.748,-445.444 787.5,-332 790.664,-316.886 794.475,-301.019 798.47,-285.535"/>
<polygon fill="none" stroke="#404040" points="798.506,-285.395 796.161,-278.576 801.553,-273.788 803.899,-280.607 798.506,-285.395"/>
<text text-anchor="middle" x="787" y="-670" font-family="Helvetica,sans-Serif" font-size="10.00"> #speed</text>
<text text-anchor="middle" x="787" y="-659" font-family="Helvetica,sans-Serif" font-size="10.00">#luck</text>
<text text-anchor="middle" x="787" y="-648" font-family="Helvetica,sans-Serif" font-size="10.00">#health</text>
<text text-anchor="middle" x="787" y="-637" font-family="Helvetica,sans-Serif" font-size="10.00">#magic</text>
<text text-anchor="middle" x="787" y="-626" font-family="Helvetica,sans-Serif" font-size="10.00">#maximumMagic</text>
<text text-anchor="middle" x="787" y="-615" font-family="Helvetica,sans-Serif" font-size="10.00">#attack</text>
<text text-anchor="middle" x="787" y="-604" font-family="Helvetica,sans-Serif" font-size="10.00">#defence</text>
<text text-anchor="middle" x="787" y="-593" font-family="Helvetica,sans-Serif" font-size="10.00">#level</text>
</g>
<!-- Node10&#45;&gt;Node11 -->
<g id="edge24" class="edge"><title>Node10&#45;&gt;Node11</title>
<path fill="none" stroke="#404040" d="M700.483,-1236.31C690.454,-1206.06 676.5,-1155.99 676.5,-1111.5 676.5,-1111.5 676.5,-1111.5 676.5,-525.5 676.5,-499.295 679.076,-470.511 682.092,-445.785"/>
<polygon fill="none" stroke="#404040" points="682.124,-445.535 678.919,-439.076 683.649,-433.633 686.854,-440.092 682.124,-445.535"/>
<text text-anchor="middle" x="694" y="-849" font-family="Helvetica,sans-Serif" font-size="10.00"> #magic</text>
</g>
<!-- Node10&#45;&gt;Node13 -->
<g id="edge19" class="edge"><title>Node10&#45;&gt;Node13</title>
<path fill="none" stroke="#404040" d="M725.174,-1260.71C759.889,-1252.09 847.159,-1225.38 887.5,-1167 910.706,-1133.42 930.203,-1035.92 942.678,-958.284"/>
<polygon fill="none" stroke="#404040" points="942.745,-957.861 939.731,-951.309 944.619,-946.008 947.633,-952.559 942.745,-957.861"/>
<text text-anchor="middle" x="944" y="-1108" font-family="Helvetica,sans-Serif" font-size="10.00"> +money</text>
</g>
<!-- Node10&#45;&gt;Node14 -->
<g id="edge18" class="edge"><title>Node10&#45;&gt;Node14</title>
<path fill="none" stroke="#404040" d="M718.376,-1236.5C721.011,-1227.15 723.931,-1216.63 726.5,-1207 762.947,-1070.35 793.261,-699.716 882.5,-590 894.039,-575.813 908.759,-586.801 919.5,-572 1032.83,-415.828 1013.53,-166.248 1000.73,-69.8205"/>
<polygon fill="none" stroke="#404040" points="1000.7,-69.6667 995.917,-64.2743 999.053,-57.7809 1003.84,-63.1732 1000.7,-69.6667"/>
<text text-anchor="middle" x="990.5" y="-524" font-family="Helvetica,sans-Serif" font-size="10.00"> &#45;expGiven</text>
</g>
<!-- Node10&#45;&gt;Node18 -->
<g id="edge30" class="edge"><title>Node10&#45;&gt;Node18</title>
<path fill="none" stroke="#404040" d="M695.878,-1263.51C637.064,-1261.24 418.485,-1250.01 367.5,-1207 311.839,-1160.05 281.335,-1086.51 264.631,-1018.55"/>
<polygon fill="none" stroke="#404040" points="264.619,-1018.5 259.35,-1013.58 261.869,-1006.82 267.137,-1011.74 264.619,-1018.5"/>
<text text-anchor="middle" x="348.5" y="-1108" font-family="Helvetica,sans-Serif" font-size="10.00"> &#45;money</text>
</g>
<!-- Node11&#45;&gt;Node9 -->
<g id="edge10" class="edge"><title>Node11&#45;&gt;Node9</title>
<path fill="none" stroke="#404040" d="M695.627,-332.342C698.276,-318.634 702.569,-304.19 709.5,-292 724.352,-265.878 747.917,-242.711 770.097,-224.71"/>
<polygon fill="none" stroke="#404040" points="770.387,-224.482 772.631,-217.629 779.82,-217.065 777.576,-223.918 770.387,-224.482"/>
<text text-anchor="middle" x="732" y="-306" font-family="Helvetica,sans-Serif" font-size="10.00"> #special1</text>
<text text-anchor="middle" x="732" y="-295" font-family="Helvetica,sans-Serif" font-size="10.00">#special2</text>
</g>
<!-- Node12&#45;&gt;Node11 -->
<g id="edge11" class="edge"><title>Node12&#45;&gt;Node11</title>
<path fill="none" stroke="midnightblue" d="M816.528,-484.519C792.638,-465.313 764.295,-442.526 740.64,-423.507"/>
<polygon fill="none" stroke="midnightblue" points="814.459,-487.347 824.446,-490.885 818.845,-481.892 814.459,-487.347"/>
</g>
<!-- Node13&#45;&gt;Node12 -->
<g id="edge14" class="edge"><title>Node13&#45;&gt;Node12</title>
<path fill="none" stroke="#404040" d="M931.347,-756.641C915.114,-698.383 894.888,-625.792 881.605,-578.12"/>
<polygon fill="none" stroke="#404040" points="881.522,-577.823 876.058,-573.117 878.301,-566.263 883.765,-570.969 881.522,-577.823"/>
<text text-anchor="middle" x="929.5" y="-631.5" font-family="Helvetica,sans-Serif" font-size="10.00"> #manager</text>
</g>
<!-- Node14&#45;&gt;Node13 -->
<g id="edge16" class="edge"><title>Node14&#45;&gt;Node13</title>
<path fill="none" stroke="#404040" d="M1008.05,-57.5473C1021.62,-87.7105 1040.5,-137.875 1040.5,-183.5 1040.5,-527.5 1040.5,-527.5 1040.5,-527.5 1040.5,-601.9 1019.59,-682.993 998.756,-745.313"/>
<polygon fill="none" stroke="#404040" points="998.738,-745.365 1000.59,-752.334 994.872,-756.726 993.019,-749.757 998.738,-745.365"/>
<text text-anchor="middle" x="1058.5" y="-380.5" font-family="Helvetica,sans-Serif" font-size="10.00"> &#45;enemy</text>
</g>
<!-- Node15 -->
<g id="node14" class="node"><title>Node15</title>
<polygon fill="none" stroke="#bfbfbf" points="977,-1082 977,-1139 1012,-1139 1012,-1082 977,-1082"/>
<text text-anchor="middle" x="994.5" y="-1127" font-family="Helvetica,sans-Serif" font-size="10.00">bool</text>
<polyline fill="none" stroke="#bfbfbf" points="977,-1120 1012,-1120 "/>
<text text-anchor="middle" x="994.5" y="-1108" font-family="Helvetica,sans-Serif" font-size="10.00"> </text>
<polyline fill="none" stroke="#bfbfbf" points="977,-1101 1012,-1101 "/>
<text text-anchor="middle" x="994.5" y="-1089" font-family="Helvetica,sans-Serif" font-size="10.00"> </text>
</g>
<!-- Node15&#45;&gt;Node13 -->
<g id="edge20" class="edge"><title>Node15&#45;&gt;Node13</title>
<path fill="none" stroke="#404040" d="M978.378,-1081.86C971.457,-1068.48 964.136,-1051.9 960.5,-1036 954.828,-1011.2 952.403,-984.014 951.751,-958.348"/>
<polygon fill="none" stroke="#404040" points="951.75,-958.282 947.66,-952.343 951.568,-946.283 955.659,-952.222 951.75,-958.282"/>
<text text-anchor="middle" x="993.5" y="-1028" font-family="Helvetica,sans-Serif" font-size="10.00"> &#45;wasCriticalHit</text>
</g>
<!-- Node16 -->
<g id="node15" class="node"><title>Node16</title>
<polygon fill="none" stroke="#bfbfbf" points="705,-498 705,-555 740,-555 740,-498 705,-498"/>
<text text-anchor="middle" x="722.5" y="-543" font-family="Helvetica,sans-Serif" font-size="10.00">float</text>
<polyline fill="none" stroke="#bfbfbf" points="705,-536 740,-536 "/>
<text text-anchor="middle" x="722.5" y="-524" font-family="Helvetica,sans-Serif" font-size="10.00"> </text>
<polyline fill="none" stroke="#bfbfbf" points="705,-517 740,-517 "/>
<text text-anchor="middle" x="722.5" y="-505" font-family="Helvetica,sans-Serif" font-size="10.00"> </text>
</g>
<!-- Node16&#45;&gt;Node11 -->
<g id="edge23" class="edge"><title>Node16&#45;&gt;Node11</title>
<path fill="none" stroke="#404040" d="M716.449,-497.881C713.168,-482.905 708.974,-463.759 704.964,-445.457"/>
<polygon fill="none" stroke="#404040" points="704.935,-445.326 699.744,-440.321 702.367,-433.604 707.559,-438.609 704.935,-445.326"/>
<text text-anchor="middle" x="728.5" y="-455" font-family="Helvetica,sans-Serif" font-size="10.00"> #special</text>
</g>
<!-- Node17 -->
<g id="node16" class="node"><title>Node17</title>
<polygon fill="none" stroke="#bfbfbf" points="797,-354.5 797,-411.5 858,-411.5 858,-354.5 797,-354.5"/>
<text text-anchor="middle" x="827.5" y="-399.5" font-family="Helvetica,sans-Serif" font-size="10.00">Texture2D</text>
<polyline fill="none" stroke="#bfbfbf" points="797,-392.5 858,-392.5 "/>
<text text-anchor="middle" x="827.5" y="-380.5" font-family="Helvetica,sans-Serif" font-size="10.00"> </text>
<polyline fill="none" stroke="#bfbfbf" points="797,-373.5 858,-373.5 "/>
<text text-anchor="middle" x="827.5" y="-361.5" font-family="Helvetica,sans-Serif" font-size="10.00"> </text>
</g>
<!-- Node17&#45;&gt;Node9 -->
<g id="edge25" class="edge"><title>Node17&#45;&gt;Node9</title>
<path fill="none" stroke="#404040" d="M827.5,-354.263C827.5,-335.998 827.5,-310.86 827.5,-285.562"/>
<polygon fill="none" stroke="#404040" points="827.5,-285.557 823.5,-279.557 827.5,-273.557 831.5,-279.557 827.5,-285.557"/>
<text text-anchor="middle" x="845" y="-300.5" font-family="Helvetica,sans-Serif" font-size="10.00"> #image</text>
</g>
<!-- Node18&#45;&gt;Node2 -->
<g id="edge28" class="edge"><title>Node18&#45;&gt;Node2</title>
<path fill="none" stroke="#404040" d="M282.305,-696.251C291.241,-661.235 300.955,-624.27 310.5,-590 311.09,-587.88 311.701,-585.722 312.324,-583.544"/>
<polygon fill="none" stroke="#404040" points="312.386,-583.33 310.228,-576.45 315.749,-571.811 317.907,-578.691 312.386,-583.33"/>
<text text-anchor="middle" x="323" y="-631.5" font-family="Helvetica,sans-Serif" font-size="10.00"> &#45;data</text>
</g>
</g>
</svg>
