<?xml version="1.0" encoding="UTF-8" standalone="no"?>
<!DOCTYPE svg PUBLIC "-//W3C//DTD SVG 1.1//EN"
 "http://www.w3.org/Graphics/SVG/1.1/DTD/svg11.dtd">
<!-- Generated by graphviz version 2.38.0 (20140413.2041)
 -->
<!-- Title: SceneChanger Pages: 1 -->
<!--zoomable 441 -->
<svg id="main" version="1.1" xmlns="http://www.w3.org/2000/svg" xmlns:xlink="http://www.w3.org/1999/xlink" xml:space="preserve" onload="init(evt)">
<style type="text/css"><![CDATA[
.edge:hover path { stroke: red; }
.edge:hover polygon { stroke: red; fill: red; }
]]></style>
<script type="text/javascript"><![CDATA[
var edges = document.getElementsByTagName('g');
if (edges && edges.length) {
  for (var i=0;i<edges.length;i++) {
    if (edges[i].id.substr(0,4)=='edge') {
      edges[i].setAttribute('class','edge');
    }
  }
}
]]></script>
        <defs>
                <circle id="rim" cx="0" cy="0" r="7"/>
                <circle id="rim2" cx="0" cy="0" r="3.5"/>
                <g id="zoomPlus">
                        <use xlink:href="#rim" fill="#404040">
                                <set attributeName="fill" to="#808080" begin="zoomplus.mouseover" end="zoomplus.mouseout"/>
                        </use>
                        <path d="M-4,0h8M0,-4v8" fill="none" stroke="white" stroke-width="1.5" pointer-events="none"/>
                </g>
                <g id="zoomMin">
                        <use xlink:href="#rim" fill="#404040">
                                <set attributeName="fill" to="#808080" begin="zoomminus.mouseover" end="zoomminus.mouseout"/>
                        </use>
                        <path d="M-4,0h8" fill="none" stroke="white" stroke-width="1.5" pointer-events="none"/>
                </g>
                <g id="dirArrow">
                        <path fill="none" stroke="white" stroke-width="1.5" d="M0,-3.0v7 M-2.5,-0.5L0,-3.0L2.5,-0.5"/>
                </g>
               <g id="resetDef">
                       <use xlink:href="#rim2" fill="#404040">
                               <set attributeName="fill" to="#808080" begin="reset.mouseover" end="reset.mouseout"/>
                       </use>
               </g>
        </defs>

<script type="text/javascript">
var viewWidth = 688;
var viewHeight = 441;
var sectionId = 'dynsection-1';
</script>
<script xlink:href="svgpan.js"/>
<svg id="graph" class="graph">
<g id="viewport">
<title>SceneChanger</title>
<!-- Node2 -->
<g id="node1" class="node"><title>Node2</title>
<polygon fill="#bfbfbf" stroke="black" points="213.5,-0.5 213.5,-123.5 311.5,-123.5 311.5,-0.5 213.5,-0.5"/>
<text text-anchor="middle" x="262.5" y="-111.5" font-family="Helvetica,sans-Serif" font-size="10.00">SceneChanger</text>
<polyline fill="none" stroke="black" points="213.5,-104.5 311.5,-104.5 "/>
<text text-anchor="middle" x="262.5" y="-92.5" font-family="Helvetica,sans-Serif" font-size="10.00"> </text>
<polyline fill="none" stroke="black" points="213.5,-85.5 311.5,-85.5 "/>
<text text-anchor="start" x="221.5" y="-73.5" font-family="Helvetica,sans-Serif" font-size="10.00">+ loadLevel()</text>
<text text-anchor="start" x="221.5" y="-62.5" font-family="Helvetica,sans-Serif" font-size="10.00">+ loadLevel()</text>
<text text-anchor="start" x="221.5" y="-51.5" font-family="Helvetica,sans-Serif" font-size="10.00">+ changePosition()</text>
<text text-anchor="start" x="221.5" y="-40.5" font-family="Helvetica,sans-Serif" font-size="10.00">&#45; Awake()</text>
<text text-anchor="start" x="221.5" y="-29.5" font-family="Helvetica,sans-Serif" font-size="10.00">&#45; OnDisable()</text>
<text text-anchor="start" x="221.5" y="-18.5" font-family="Helvetica,sans-Serif" font-size="10.00">&#45; sceneChanged()</text>
<text text-anchor="start" x="221.5" y="-7.5" font-family="Helvetica,sans-Serif" font-size="10.00">&#45; changeScene()</text>
</g>
<!-- Node2&#45;&gt;Node2 -->
<g id="edge2" class="edge"><title>Node2&#45;&gt;Node2</title>
<path fill="none" stroke="#404040" d="M311.58,-77.2415C321.986,-75.6938 329.5,-70.6133 329.5,-62 329.5,-57.155 327.122,-53.4279 323.19,-50.8185"/>
<polygon fill="none" stroke="#404040" points="322.908,-50.7198 315.924,-52.5149 311.58,-46.7585 318.565,-44.9634 322.908,-50.7198"/>
<text text-anchor="middle" x="352.5" y="-59.5" font-family="Helvetica,sans-Serif" font-size="10.00"> +instance</text>
</g>
<!-- Node3 -->
<g id="node2" class="node"><title>Node3</title>
<g id="a_node2"><a xlink:href="class_mono_behaviour.html" target="_top" xlink:title="{MonoBehaviour\n||}">
<polygon fill="none" stroke="black" points="0,-375.5 0,-432.5 83,-432.5 83,-375.5 0,-375.5"/>
<text text-anchor="middle" x="41.5" y="-420.5" font-family="Helvetica,sans-Serif" font-size="10.00">MonoBehaviour</text>
<polyline fill="none" stroke="black" points="0,-413.5 83,-413.5 "/>
<text text-anchor="middle" x="41.5" y="-401.5" font-family="Helvetica,sans-Serif" font-size="10.00"> </text>
<polyline fill="none" stroke="black" points="0,-394.5 83,-394.5 "/>
<text text-anchor="middle" x="41.5" y="-382.5" font-family="Helvetica,sans-Serif" font-size="10.00"> </text>
</a>
</g>
</g>
<!-- Node3&#45;&gt;Node2 -->
<g id="edge1" class="edge"><title>Node3&#45;&gt;Node2</title>
<path fill="none" stroke="midnightblue" d="M41.1703,-364.903C42.282,-316.937 49.3881,-233.284 82.5,-171 109.102,-120.962 169.8,-91.8646 213.357,-76.7303"/>
<polygon fill="none" stroke="midnightblue" points="37.667,-365.096 41.0123,-375.149 44.6662,-365.204 37.667,-365.096"/>
</g>
<!-- Node7 -->
<g id="node6" class="node"><title>Node7</title>
<g id="a_node6"><a xlink:href="class_player_movement.html" target="_top" xlink:title="A script to control the movement and animations of the player">
<polygon fill="none" stroke="black" points="263,-171.5 263,-305.5 368,-305.5 368,-171.5 263,-171.5"/>
<text text-anchor="middle" x="315.5" y="-293.5" font-family="Helvetica,sans-Serif" font-size="10.00">PlayerMovement</text>
<polyline fill="none" stroke="black" points="263,-286.5 368,-286.5 "/>
<text text-anchor="middle" x="315.5" y="-274.5" font-family="Helvetica,sans-Serif" font-size="10.00"> </text>
<polyline fill="none" stroke="black" points="263,-267.5 368,-267.5 "/>
<text text-anchor="start" x="271" y="-255.5" font-family="Helvetica,sans-Serif" font-size="10.00">+ move()</text>
<text text-anchor="start" x="271" y="-244.5" font-family="Helvetica,sans-Serif" font-size="10.00">+ setCanMove()</text>
<text text-anchor="start" x="271" y="-233.5" font-family="Helvetica,sans-Serif" font-size="10.00">&#45; Start()</text>
<text text-anchor="start" x="271" y="-222.5" font-family="Helvetica,sans-Serif" font-size="10.00">&#45; FixedUpdate()</text>
<text text-anchor="start" x="271" y="-211.5" font-family="Helvetica,sans-Serif" font-size="10.00">&#45; explorationMenu()</text>
<text text-anchor="start" x="271" y="-200.5" font-family="Helvetica,sans-Serif" font-size="10.00">&#45; randomEncounter()</text>
<text text-anchor="start" x="271" y="-189.5" font-family="Helvetica,sans-Serif" font-size="10.00">&#45; walkAnimation()</text>
<text text-anchor="start" x="271" y="-178.5" font-family="Helvetica,sans-Serif" font-size="10.00">&#45; setIdle()</text>
</a>
</g>
</g>
<!-- Node3&#45;&gt;Node7 -->
<g id="edge7" class="edge"><title>Node3&#45;&gt;Node7</title>
<path fill="none" stroke="midnightblue" d="M74.5001,-368.286C91.7418,-352.253 114.099,-334.486 137.5,-324 185.112,-302.666 207.397,-330.424 253.5,-306 256.708,-304.3 259.84,-302.37 262.884,-300.263"/>
<polygon fill="none" stroke="midnightblue" points="71.7648,-366.058 66.9528,-375.497 76.6008,-371.119 71.7648,-366.058"/>
</g>
<!-- Node4 -->
<g id="node3" class="node"><title>Node4</title>
<polygon fill="none" stroke="#bfbfbf" points="101,-375.5 101,-432.5 142,-432.5 142,-375.5 101,-375.5"/>
<text text-anchor="middle" x="121.5" y="-420.5" font-family="Helvetica,sans-Serif" font-size="10.00">string</text>
<polyline fill="none" stroke="#bfbfbf" points="101,-413.5 142,-413.5 "/>
<text text-anchor="middle" x="121.5" y="-401.5" font-family="Helvetica,sans-Serif" font-size="10.00"> </text>
<polyline fill="none" stroke="#bfbfbf" points="101,-394.5 142,-394.5 "/>
<text text-anchor="middle" x="121.5" y="-382.5" font-family="Helvetica,sans-Serif" font-size="10.00"> </text>
</g>
<!-- Node4&#45;&gt;Node2 -->
<g id="edge3" class="edge"><title>Node4&#45;&gt;Node2</title>
<path fill="none" stroke="#404040" d="M110.31,-375.342C93.769,-329.786 68.3309,-237.403 103.5,-171 124.287,-131.751 166.438,-104.121 202.119,-86.6374"/>
<polygon fill="none" stroke="#404040" points="202.581,-86.4203 206.309,-80.2479 213.441,-81.3156 209.712,-87.488 202.581,-86.4203"/>
<text text-anchor="middle" x="134" y="-236" font-family="Helvetica,sans-Serif" font-size="10.00"> +menuScene</text>
</g>
<!-- Node4&#45;&gt;Node7 -->
<g id="edge8" class="edge"><title>Node4&#45;&gt;Node7</title>
<path fill="none" stroke="#404040" d="M130.969,-375.138C138.282,-357.818 150.123,-336.535 167.5,-324 196.325,-303.207 215.742,-321.24 251.635,-305.706"/>
<polygon fill="none" stroke="#404040" points="252.07,-305.486 255.61,-299.203 262.771,-300.055 259.23,-306.337 252.07,-305.486"/>
<text text-anchor="middle" x="190" y="-338" font-family="Helvetica,sans-Serif" font-size="10.00"> &#45;lastMove</text>
</g>
<!-- Node5 -->
<g id="node4" class="node"><title>Node5</title>
<polygon fill="none" stroke="#bfbfbf" points="174,-210 174,-267 245,-267 245,-210 174,-210"/>
<text text-anchor="middle" x="209.5" y="-255" font-family="Helvetica,sans-Serif" font-size="10.00">GameObject</text>
<polyline fill="none" stroke="#bfbfbf" points="174,-248 245,-248 "/>
<text text-anchor="middle" x="209.5" y="-236" font-family="Helvetica,sans-Serif" font-size="10.00"> </text>
<polyline fill="none" stroke="#bfbfbf" points="174,-229 245,-229 "/>
<text text-anchor="middle" x="209.5" y="-217" font-family="Helvetica,sans-Serif" font-size="10.00"> </text>
</g>
<!-- Node5&#45;&gt;Node2 -->
<g id="edge4" class="edge"><title>Node5&#45;&gt;Node2</title>
<path fill="none" stroke="#404040" d="M216.548,-209.785C221.535,-190.651 228.547,-164.671 235.5,-142 236.185,-139.766 236.891,-137.499 237.613,-135.214"/>
<polygon fill="none" stroke="#404040" points="237.646,-135.11 235.678,-128.172 241.324,-123.687 243.293,-130.624 237.646,-135.11"/>
<text text-anchor="middle" x="252" y="-145" font-family="Helvetica,sans-Serif" font-size="10.00"> &#45;player</text>
</g>
<!-- Node6 -->
<g id="node5" class="node"><title>Node6</title>
<polygon fill="none" stroke="#bfbfbf" points="413.5,-375.5 413.5,-432.5 463.5,-432.5 463.5,-375.5 413.5,-375.5"/>
<text text-anchor="middle" x="438.5" y="-420.5" font-family="Helvetica,sans-Serif" font-size="10.00">Vector2</text>
<polyline fill="none" stroke="#bfbfbf" points="413.5,-413.5 463.5,-413.5 "/>
<text text-anchor="middle" x="438.5" y="-401.5" font-family="Helvetica,sans-Serif" font-size="10.00"> </text>
<polyline fill="none" stroke="#bfbfbf" points="413.5,-394.5 463.5,-394.5 "/>
<text text-anchor="middle" x="438.5" y="-382.5" font-family="Helvetica,sans-Serif" font-size="10.00"> </text>
</g>
<!-- Node6&#45;&gt;Node2 -->
<g id="edge5" class="edge"><title>Node6&#45;&gt;Node2</title>
<path fill="none" stroke="#404040" d="M446.989,-375.419C450.52,-360.172 453.059,-340.94 449.5,-324 431.334,-237.529 424.679,-211.011 369.5,-142 356.24,-125.416 338.701,-110.554 321.668,-98.3153"/>
<polygon fill="none" stroke="#404040" points="321.591,-98.2622 314.381,-98.1268 311.733,-91.4195 318.943,-91.5549 321.591,-98.2622"/>
<text text-anchor="middle" x="477.5" y="-236" font-family="Helvetica,sans-Serif" font-size="10.00"> +startPosition</text>
</g>
<!-- Node6&#45;&gt;Node7 -->
<g id="edge11" class="edge"><title>Node6&#45;&gt;Node7</title>
<path fill="none" stroke="#404040" d="M413.247,-389.62C399.84,-381.554 383.839,-370.275 372.5,-357 362.233,-344.979 353.33,-330.79 345.81,-316.505"/>
<polygon fill="none" stroke="#404040" points="345.717,-316.319 339.449,-312.754 340.329,-305.597 346.597,-309.162 345.717,-316.319"/>
<text text-anchor="middle" x="411" y="-338" font-family="Helvetica,sans-Serif" font-size="10.00"> &#45;previousPosition</text>
</g>
<!-- Node7&#45;&gt;Node2 -->
<g id="edge6" class="edge"><title>Node7&#45;&gt;Node2</title>
<path fill="none" stroke="#404040" d="M295.312,-171.031C291.757,-159.329 288.042,-147.097 284.443,-135.246"/>
<polygon fill="none" stroke="#404040" points="284.38,-135.037 278.809,-130.459 280.892,-123.555 286.463,-128.134 284.38,-135.037"/>
<text text-anchor="middle" x="327.5" y="-145" font-family="Helvetica,sans-Serif" font-size="10.00"> &#45;movementScript</text>
</g>
<!-- Node8 -->
<g id="node7" class="node"><title>Node8</title>
<polygon fill="none" stroke="#bfbfbf" points="237.5,-375.5 237.5,-432.5 293.5,-432.5 293.5,-375.5 237.5,-375.5"/>
<text text-anchor="middle" x="265.5" y="-420.5" font-family="Helvetica,sans-Serif" font-size="10.00">Animator</text>
<polyline fill="none" stroke="#bfbfbf" points="237.5,-413.5 293.5,-413.5 "/>
<text text-anchor="middle" x="265.5" y="-401.5" font-family="Helvetica,sans-Serif" font-size="10.00"> </text>
<polyline fill="none" stroke="#bfbfbf" points="237.5,-394.5 293.5,-394.5 "/>
<text text-anchor="middle" x="265.5" y="-382.5" font-family="Helvetica,sans-Serif" font-size="10.00"> </text>
</g>
<!-- Node8&#45;&gt;Node7 -->
<g id="edge9" class="edge"><title>Node8&#45;&gt;Node7</title>
<path fill="none" stroke="#404040" d="M270.331,-375.304C273.278,-360.022 277.449,-340.794 282.5,-324 283.18,-321.738 283.894,-319.45 284.636,-317.149"/>
<polygon fill="none" stroke="#404040" points="284.705,-316.942 282.832,-309.978 288.54,-305.571 290.413,-312.535 284.705,-316.942"/>
<text text-anchor="middle" x="296.5" y="-338" font-family="Helvetica,sans-Serif" font-size="10.00"> &#45;anim</text>
</g>
<!-- Node9 -->
<g id="node8" class="node"><title>Node9</title>
<polygon fill="none" stroke="#bfbfbf" points="312,-375.5 312,-432.5 347,-432.5 347,-375.5 312,-375.5"/>
<text text-anchor="middle" x="329.5" y="-420.5" font-family="Helvetica,sans-Serif" font-size="10.00">float</text>
<polyline fill="none" stroke="#bfbfbf" points="312,-413.5 347,-413.5 "/>
<text text-anchor="middle" x="329.5" y="-401.5" font-family="Helvetica,sans-Serif" font-size="10.00"> </text>
<polyline fill="none" stroke="#bfbfbf" points="312,-394.5 347,-394.5 "/>
<text text-anchor="middle" x="329.5" y="-382.5" font-family="Helvetica,sans-Serif" font-size="10.00"> </text>
</g>
<!-- Node9&#45;&gt;Node7 -->
<g id="edge10" class="edge"><title>Node9&#45;&gt;Node7</title>
<path fill="none" stroke="#404040" d="M320.317,-375.037C318.744,-369.142 317.345,-362.915 316.5,-357 314.706,-344.451 313.725,-331.071 313.266,-318.002"/>
<polygon fill="none" stroke="#404040" points="313.257,-317.603 309.118,-311.697 312.978,-305.606 317.116,-311.511 313.257,-317.603"/>
<text text-anchor="middle" x="333" y="-338" font-family="Helvetica,sans-Serif" font-size="10.00"> &#45;speed</text>
</g>
<!-- Node10 -->
<g id="node9" class="node"><title>Node10</title>
<polygon fill="none" stroke="#bfbfbf" points="504,-375.5 504,-432.5 539,-432.5 539,-375.5 504,-375.5"/>
<text text-anchor="middle" x="521.5" y="-420.5" font-family="Helvetica,sans-Serif" font-size="10.00">bool</text>
<polyline fill="none" stroke="#bfbfbf" points="504,-413.5 539,-413.5 "/>
<text text-anchor="middle" x="521.5" y="-401.5" font-family="Helvetica,sans-Serif" font-size="10.00"> </text>
<polyline fill="none" stroke="#bfbfbf" points="504,-394.5 539,-394.5 "/>
<text text-anchor="middle" x="521.5" y="-382.5" font-family="Helvetica,sans-Serif" font-size="10.00"> </text>
</g>
<!-- Node10&#45;&gt;Node2 -->
<g id="edge14" class="edge"><title>Node10&#45;&gt;Node2</title>
<path fill="none" stroke="#404040" d="M539.2,-398.884C559.097,-393.206 590.452,-380.847 604.5,-357 644.857,-288.493 602.374,-248.993 513.5,-171 458.357,-122.608 378.237,-93.2699 323.441,-77.6248"/>
<polygon fill="none" stroke="#404040" points="323.372,-77.6057 316.522,-79.8574 311.808,-74.3999 318.659,-72.1482 323.372,-77.6057"/>
<text text-anchor="middle" x="649.5" y="-241.5" font-family="Helvetica,sans-Serif" font-size="10.00"> +movePlayer</text>
<text text-anchor="middle" x="649.5" y="-230.5" font-family="Helvetica,sans-Serif" font-size="10.00">+menuOpen</text>
</g>
<!-- Node10&#45;&gt;Node7 -->
<g id="edge12" class="edge"><title>Node10&#45;&gt;Node7</title>
<path fill="none" stroke="#404040" d="M503.879,-378.791C491.062,-362.186 472.662,-340.296 453.5,-324 430.85,-304.737 403.341,-286.959 378.862,-272.73"/>
<polygon fill="none" stroke="#404040" points="378.64,-272.604 371.446,-273.102 368.219,-266.654 375.413,-266.155 378.64,-272.604"/>
<text text-anchor="middle" x="543.5" y="-349" font-family="Helvetica,sans-Serif" font-size="10.00"> &#45;playerExists</text>
<text text-anchor="middle" x="543.5" y="-338" font-family="Helvetica,sans-Serif" font-size="10.00">+pseudoEscapeKeyPress</text>
<text text-anchor="middle" x="543.5" y="-327" font-family="Helvetica,sans-Serif" font-size="10.00">&#45;canMove</text>
</g>
<!-- Node11 -->
<g id="node10" class="node"><title>Node11</title>
<polygon fill="none" stroke="#bfbfbf" points="160,-375.5 160,-432.5 219,-432.5 219,-375.5 160,-375.5"/>
<text text-anchor="middle" x="189.5" y="-420.5" font-family="Helvetica,sans-Serif" font-size="10.00">Transform</text>
<polyline fill="none" stroke="#bfbfbf" points="160,-413.5 219,-413.5 "/>
<text text-anchor="middle" x="189.5" y="-401.5" font-family="Helvetica,sans-Serif" font-size="10.00"> </text>
<polyline fill="none" stroke="#bfbfbf" points="160,-394.5 219,-394.5 "/>
<text text-anchor="middle" x="189.5" y="-382.5" font-family="Helvetica,sans-Serif" font-size="10.00"> </text>
</g>
<!-- Node11&#45;&gt;Node7 -->
<g id="edge13" class="edge"><title>Node11&#45;&gt;Node7</title>
<path fill="none" stroke="#404040" d="M204.438,-375.437C213.326,-359.848 225.235,-340.278 237.5,-324 238.591,-322.552 245.346,-315.119 254.461,-305.216"/>
<polygon fill="none" stroke="#404040" points="254.464,-305.213 255.593,-298.09 262.601,-296.393 261.473,-303.515 254.464,-305.213"/>
<text text-anchor="middle" x="254" y="-338" font-family="Helvetica,sans-Serif" font-size="10.00"> &#45;player</text>
</g>
</g>
</svg>
        <g id="navigator" transform="translate(0 0)" fill="#404254">
                <rect fill="#f2f5e9" fill-opacity="0.5" stroke="#606060" stroke-width=".5" x="0" y="0" width="60" height="60"/>
                <use id="zoomplus" xlink:href="#zoomPlus" x="17" y="9" onmousedown="handleZoom(evt,'in')"/>
                <use id="zoomminus" xlink:href="#zoomMin" x="42" y="9" onmousedown="handleZoom(evt,'out')"/>
                <use id="reset" xlink:href="#resetDef" x="30" y="36" onmousedown="handleReset()"/>
                <g id="arrowUp" xlink:href="#dirArrow" transform="translate(30 24)" onmousedown="handlePan(0,-1)">
                  <use xlink:href="#rim" fill="#404040">
                        <set attributeName="fill" to="#808080" begin="arrowUp.mouseover" end="arrowUp.mouseout"/>
                  </use>
                  <path fill="none" stroke="white" stroke-width="1.5" d="M0,-3.0v7 M-2.5,-0.5L0,-3.0L2.5,-0.5"/>
                </g>
                <g id="arrowRight" xlink:href="#dirArrow" transform="rotate(90) translate(36 -43)" onmousedown="handlePan(1,0)">
                  <use xlink:href="#rim" fill="#404040">
                        <set attributeName="fill" to="#808080" begin="arrowRight.mouseover" end="arrowRight.mouseout"/>
                  </use>
                  <path fill="none" stroke="white" stroke-width="1.5" d="M0,-3.0v7 M-2.5,-0.5L0,-3.0L2.5,-0.5"/>
                </g>
                <g id="arrowDown" xlink:href="#dirArrow" transform="rotate(180) translate(-30 -48)" onmousedown="handlePan(0,1)">
                  <use xlink:href="#rim" fill="#404040">
                        <set attributeName="fill" to="#808080" begin="arrowDown.mouseover" end="arrowDown.mouseout"/>
                  </use>
                  <path fill="none" stroke="white" stroke-width="1.5" d="M0,-3.0v7 M-2.5,-0.5L0,-3.0L2.5,-0.5"/>
                </g>
                <g id="arrowLeft" xlink:href="#dirArrow" transform="rotate(270) translate(-36 17)" onmousedown="handlePan(-1,0)">
                  <use xlink:href="#rim" fill="#404040">
                        <set attributeName="fill" to="#808080" begin="arrowLeft.mouseover" end="arrowLeft.mouseout"/>
                  </use>
                  <path fill="none" stroke="white" stroke-width="1.5" d="M0,-3.0v7 M-2.5,-0.5L0,-3.0L2.5,-0.5"/>
                </g>
        </g>
        <svg viewBox="0 0 15 15" width="100%" height="30px" preserveAspectRatio="xMaxYMin meet">
         <g id="arrow_out" transform="scale(0.3 0.3)">
          <a xlink:href="class_scene_changer__coll__graph_org.svg" target="_base">
           <rect id="button" ry="5" rx="5" y="6" x="6" height="38" width="38"
                fill="#f2f5e9" fill-opacity="0.5" stroke="#606060" stroke-width="1.0"/>
           <path id="arrow"
             d="M 11.500037,31.436501 C 11.940474,20.09759 22.043105,11.32322 32.158766,21.979434 L 37.068811,17.246167 C 37.068811,17.246167 37.088388,32 37.088388,32 L 22.160133,31.978069 C 22.160133,31.978069 26.997745,27.140456 26.997745,27.140456 C 18.528582,18.264221 13.291696,25.230495 11.500037,31.436501 z"
             style="fill:#404040;"/>
          </a>
         </g>
        </svg>
</svg>
