<?xml version="1.0" encoding="UTF-8" standalone="no"?>
<!DOCTYPE svg PUBLIC "-//W3C//DTD SVG 1.1//EN"
 "http://www.w3.org/Graphics/SVG/1.1/DTD/svg11.dtd">
<!-- Generated by graphviz version 2.38.0 (20140413.2041)
 -->
<!-- Title: Vendor Pages: 1 -->
<!--zoomable 1693 -->
<svg id="main" version="1.1" xmlns="http://www.w3.org/2000/svg" xmlns:xlink="http://www.w3.org/1999/xlink" xml:space="preserve" onload="init(evt)">
<style type="text/css"><![CDATA[
.edge:hover path { stroke: red; }
.edge:hover polygon { stroke: red; fill: red; }
]]></style>
<script type="text/javascript"><![CDATA[
var edges = document.getElementsByTagName('g');
if (edges && edges.length) {
  for (var i=0;i<edges.length;i++) {
    if (edges[i].id.substr(0,4)=='edge') {
      edges[i].setAttribute('class','edge');
    }
  }
}
]]></script>
        <defs>
                <circle id="rim" cx="0" cy="0" r="7"/>
                <circle id="rim2" cx="0" cy="0" r="3.5"/>
                <g id="zoomPlus">
                        <use xlink:href="#rim" fill="#404040">
                                <set attributeName="fill" to="#808080" begin="zoomplus.mouseover" end="zoomplus.mouseout"/>
                        </use>
                        <path d="M-4,0h8M0,-4v8" fill="none" stroke="white" stroke-width="1.5" pointer-events="none"/>
                </g>
                <g id="zoomMin">
                        <use xlink:href="#rim" fill="#404040">
                                <set attributeName="fill" to="#808080" begin="zoomminus.mouseover" end="zoomminus.mouseout"/>
                        </use>
                        <path d="M-4,0h8" fill="none" stroke="white" stroke-width="1.5" pointer-events="none"/>
                </g>
                <g id="dirArrow">
                        <path fill="none" stroke="white" stroke-width="1.5" d="M0,-3.0v7 M-2.5,-0.5L0,-3.0L2.5,-0.5"/>
                </g>
               <g id="resetDef">
                       <use xlink:href="#rim2" fill="#404040">
                               <set attributeName="fill" to="#808080" begin="reset.mouseover" end="reset.mouseout"/>
                       </use>
               </g>
        </defs>

<script type="text/javascript">
var viewWidth = 1211;
var viewHeight = 1693;
var sectionId = 'dynsection-1';
</script>
<script xlink:href="svgpan.js"/>
<svg id="graph" class="graph">
<g id="viewport">
<title>Vendor</title>
<!-- Node2 -->
<g id="node1" class="node"><title>Node2</title>
<polygon fill="#bfbfbf" stroke="black" points="888,-0.5 888,-101.5 971,-101.5 971,-0.5 888,-0.5"/>
<text text-anchor="middle" x="929.5" y="-89.5" font-family="Helvetica,sans-Serif" font-size="10.00">Vendor</text>
<polyline fill="none" stroke="black" points="888,-82.5 971,-82.5 "/>
<text text-anchor="middle" x="929.5" y="-70.5" font-family="Helvetica,sans-Serif" font-size="10.00"> </text>
<polyline fill="none" stroke="black" points="888,-63.5 971,-63.5 "/>
<text text-anchor="start" x="896" y="-51.5" font-family="Helvetica,sans-Serif" font-size="10.00">+ setDraw()</text>
<text text-anchor="start" x="896" y="-40.5" font-family="Helvetica,sans-Serif" font-size="10.00">&#45; Start()</text>
<text text-anchor="start" x="896" y="-29.5" font-family="Helvetica,sans-Serif" font-size="10.00">&#45; FixedUpdate()</text>
<text text-anchor="start" x="896" y="-18.5" font-family="Helvetica,sans-Serif" font-size="10.00">&#45; OnGUI()</text>
<text text-anchor="start" x="896" y="-7.5" font-family="Helvetica,sans-Serif" font-size="10.00">&#45; sellItem()</text>
</g>
<!-- Node3 -->
<g id="node2" class="node"><title>Node3</title>
<g id="a_node2"><a xlink:href="class_mono_behaviour.html" target="_top" xlink:title="{MonoBehaviour\n||}">
<polygon fill="none" stroke="black" points="0,-337 0,-394 83,-394 83,-337 0,-337"/>
<text text-anchor="middle" x="41.5" y="-382" font-family="Helvetica,sans-Serif" font-size="10.00">MonoBehaviour</text>
<polyline fill="none" stroke="black" points="0,-375 83,-375 "/>
<text text-anchor="middle" x="41.5" y="-363" font-family="Helvetica,sans-Serif" font-size="10.00"> </text>
<polyline fill="none" stroke="black" points="0,-356 83,-356 "/>
<text text-anchor="middle" x="41.5" y="-344" font-family="Helvetica,sans-Serif" font-size="10.00"> </text>
</a>
</g>
</g>
<!-- Node3&#45;&gt;Node2 -->
<g id="edge1" class="edge"><title>Node3&#45;&gt;Node2</title>
<path fill="none" stroke="midnightblue" d="M57.5641,-328.21C63.3008,-318.569 70.5993,-308.926 79.5,-302 262.234,-159.8 355.198,-213.763 577.5,-149 689.328,-116.421 821.972,-80.6364 887.935,-63.0326"/>
<polygon fill="none" stroke="midnightblue" points="54.4898,-326.537 52.7335,-336.985 60.6221,-329.913 54.4898,-326.537"/>
</g>
<!-- Node4 -->
<g id="node3" class="node"><title>Node4</title>
<g id="a_node3"><a xlink:href="class_global_functions.html" target="_top" xlink:title="Provides functions and variables to be accessed by any game object to allow data to be passed between...">
<polygon fill="none" stroke="black" points="587,-149.5 587,-283.5 674,-283.5 674,-149.5 587,-149.5"/>
<text text-anchor="middle" x="630.5" y="-271.5" font-family="Helvetica,sans-Serif" font-size="10.00">GlobalFunctions</text>
<polyline fill="none" stroke="black" points="587,-264.5 674,-264.5 "/>
<text text-anchor="middle" x="630.5" y="-252.5" font-family="Helvetica,sans-Serif" font-size="10.00"> </text>
<polyline fill="none" stroke="black" points="587,-245.5 674,-245.5 "/>
<text text-anchor="start" x="595" y="-233.5" font-family="Helvetica,sans-Serif" font-size="10.00">+ loadMenu()</text>
<text text-anchor="start" x="595" y="-222.5" font-family="Helvetica,sans-Serif" font-size="10.00">+ createBattle()</text>
<text text-anchor="start" x="595" y="-211.5" font-family="Helvetica,sans-Serif" font-size="10.00">+ getEnemy()</text>
<text text-anchor="start" x="595" y="-200.5" font-family="Helvetica,sans-Serif" font-size="10.00">+ getMoney()</text>
<text text-anchor="start" x="595" y="-189.5" font-family="Helvetica,sans-Serif" font-size="10.00">+ getItem()</text>
<text text-anchor="start" x="595" y="-178.5" font-family="Helvetica,sans-Serif" font-size="10.00">+ endBattle()</text>
<text text-anchor="start" x="595" y="-167.5" font-family="Helvetica,sans-Serif" font-size="10.00">+ createItem()</text>
<text text-anchor="start" x="595" y="-156.5" font-family="Helvetica,sans-Serif" font-size="10.00">&#45; Awake()</text>
</a>
</g>
</g>
<!-- Node3&#45;&gt;Node4 -->
<g id="edge3" class="edge"><title>Node3&#45;&gt;Node4</title>
<path fill="none" stroke="midnightblue" d="M65.9365,-328.971C74.721,-318.724 85.4691,-308.552 97.5,-302 182.144,-255.9 475.022,-229.319 586.737,-220.66"/>
<polygon fill="none" stroke="midnightblue" points="63.1965,-326.793 59.613,-336.764 68.632,-331.204 63.1965,-326.793"/>
</g>
<!-- Node4&#45;&gt;Node2 -->
<g id="edge2" class="edge"><title>Node4&#45;&gt;Node2</title>
<path fill="none" stroke="#404040" d="M674.297,-191.551C728.242,-162.052 819.78,-111.998 877.314,-80.5365"/>
<polygon fill="none" stroke="#404040" points="877.467,-80.4531 880.812,-74.0648 887.995,-74.6957 884.65,-81.084 877.467,-80.4531"/>
<text text-anchor="middle" x="815.5" y="-123" font-family="Helvetica,sans-Serif" font-size="10.00"> +items</text>
</g>
<!-- Node4&#45;&gt;Node4 -->
<g id="edge31" class="edge"><title>Node4&#45;&gt;Node4</title>
<path fill="none" stroke="#404040" d="M674.169,-233.041C684.43,-231.682 692,-226.168 692,-216.5 692,-211.062 689.605,-206.938 685.683,-204.129"/>
<polygon fill="none" stroke="#404040" points="685.452,-204.045 678.449,-205.763 674.169,-199.959 681.173,-198.241 685.452,-204.045"/>
<text text-anchor="middle" x="715" y="-214" font-family="Helvetica,sans-Serif" font-size="10.00"> +instance</text>
</g>
<!-- Node5 -->
<g id="node4" class="node"><title>Node5</title>
<polygon fill="none" stroke="#bfbfbf" points="774.5,-337 774.5,-394 832.5,-394 832.5,-337 774.5,-337"/>
<text text-anchor="middle" x="803.5" y="-382" font-family="Helvetica,sans-Serif" font-size="10.00">AudioClip</text>
<polyline fill="none" stroke="#bfbfbf" points="774.5,-375 832.5,-375 "/>
<text text-anchor="middle" x="803.5" y="-363" font-family="Helvetica,sans-Serif" font-size="10.00"> </text>
<polyline fill="none" stroke="#bfbfbf" points="774.5,-356 832.5,-356 "/>
<text text-anchor="middle" x="803.5" y="-344" font-family="Helvetica,sans-Serif" font-size="10.00"> </text>
</g>
<!-- Node5&#45;&gt;Node4 -->
<g id="edge4" class="edge"><title>Node5&#45;&gt;Node4</title>
<path fill="none" stroke="#404040" d="M783.207,-336.954C774.141,-325.523 762.932,-312.506 751.5,-302 730.979,-283.141 706.052,-265.053 684.168,-250.485"/>
<polygon fill="none" stroke="#404040" points="684.065,-250.418 676.854,-250.474 674.029,-243.84 681.239,-243.783 684.065,-250.418"/>
<text text-anchor="middle" x="797" y="-305" font-family="Helvetica,sans-Serif" font-size="10.00"> +previousBGM</text>
</g>
<!-- Node6 -->
<g id="node5" class="node"><title>Node6</title>
<g id="a_node5"><a xlink:href="class_item.html" target="_top" xlink:title="Abstract class for items that can be equipped to a player, increasing some of their stats ...">
<polygon fill="none" stroke="black" points="79,-1489.5 79,-1568.5 156,-1568.5 156,-1489.5 79,-1489.5"/>
<text text-anchor="middle" x="117.5" y="-1556.5" font-family="Helvetica,sans-Serif" font-size="10.00">Item</text>
<polyline fill="none" stroke="black" points="79,-1549.5 156,-1549.5 "/>
<text text-anchor="start" x="87" y="-1537.5" font-family="Helvetica,sans-Serif" font-size="10.00">+ Name</text>
<text text-anchor="start" x="87" y="-1526.5" font-family="Helvetica,sans-Serif" font-size="10.00">+ Desc</text>
<polyline fill="none" stroke="black" points="79,-1519.5 156,-1519.5 "/>
<text text-anchor="start" x="87" y="-1507.5" font-family="Helvetica,sans-Serif" font-size="10.00">+ applyBuffs()</text>
<text text-anchor="start" x="87" y="-1496.5" font-family="Helvetica,sans-Serif" font-size="10.00">+ revertBuffs()</text>
</a>
</g>
</g>
<!-- Node6&#45;&gt;Node4 -->
<g id="edge5" class="edge"><title>Node6&#45;&gt;Node4</title>
<path fill="none" stroke="#404040" d="M115.215,-1489.38C113.519,-1457.4 111.5,-1410.76 111.5,-1370 111.5,-1370 111.5,-1370 111.5,-364.5 111.5,-323.778 139.869,-314.881 178.5,-302 254.351,-276.708 278.69,-297.494 357.5,-284 433.716,-270.95 520.214,-248.565 575.041,-233.409"/>
<polygon fill="none" stroke="#404040" points="575.358,-233.32 580.065,-227.857 586.919,-230.101 582.212,-235.564 575.358,-233.32"/>
<text text-anchor="middle" x="124" y="-829" font-family="Helvetica,sans-Serif" font-size="10.00"> &#45;item</text>
</g>
<!-- Node16 -->
<g id="node15" class="node"><title>Node16</title>
<g id="a_node15"><a xlink:href="class_player.html" target="_top" xlink:title="Defines a playable character for use in battle scenes">
<polygon fill="none" stroke="black" points="227.5,-1307.5 227.5,-1430.5 339.5,-1430.5 339.5,-1307.5 227.5,-1307.5"/>
<text text-anchor="middle" x="283.5" y="-1418.5" font-family="Helvetica,sans-Serif" font-size="10.00">Player</text>
<polyline fill="none" stroke="black" points="227.5,-1411.5 339.5,-1411.5 "/>
<text text-anchor="start" x="235.5" y="-1399.5" font-family="Helvetica,sans-Serif" font-size="10.00">+ Exp</text>
<text text-anchor="start" x="235.5" y="-1388.5" font-family="Helvetica,sans-Serif" font-size="10.00">+ Item</text>
<text text-anchor="start" x="235.5" y="-1377.5" font-family="Helvetica,sans-Serif" font-size="10.00">+ ExpToNextLevel</text>
<polyline fill="none" stroke="black" points="227.5,-1370.5 339.5,-1370.5 "/>
<text text-anchor="start" x="235.5" y="-1358.5" font-family="Helvetica,sans-Serif" font-size="10.00">+ Player()</text>
<text text-anchor="start" x="235.5" y="-1347.5" font-family="Helvetica,sans-Serif" font-size="10.00">+ gainExp()</text>
<text text-anchor="start" x="235.5" y="-1336.5" font-family="Helvetica,sans-Serif" font-size="10.00">+ levelUp()</text>
<text text-anchor="start" x="235.5" y="-1325.5" font-family="Helvetica,sans-Serif" font-size="10.00">+ Clone()</text>
<text text-anchor="start" x="235.5" y="-1314.5" font-family="Helvetica,sans-Serif" font-size="10.00">&#45; setExpToNextLevel()</text>
</a>
</g>
</g>
<!-- Node6&#45;&gt;Node16 -->
<g id="edge24" class="edge"><title>Node6&#45;&gt;Node16</title>
<path fill="none" stroke="#404040" d="M156.001,-1491.35C174.522,-1473.73 197.24,-1452.1 218.343,-1432.02"/>
<polygon fill="none" stroke="#404040" points="218.579,-1431.79 220.167,-1424.76 227.271,-1423.52 225.683,-1430.55 218.579,-1431.79"/>
<text text-anchor="middle" x="213" y="-1457.5" font-family="Helvetica,sans-Serif" font-size="10.00"> &#45;item</text>
</g>
<!-- Node7 -->
<g id="node6" class="node"><title>Node7</title>
<polygon fill="none" stroke="#bfbfbf" points="381,-1627.5 381,-1684.5 422,-1684.5 422,-1627.5 381,-1627.5"/>
<text text-anchor="middle" x="401.5" y="-1672.5" font-family="Helvetica,sans-Serif" font-size="10.00">string</text>
<polyline fill="none" stroke="#bfbfbf" points="381,-1665.5 422,-1665.5 "/>
<text text-anchor="middle" x="401.5" y="-1653.5" font-family="Helvetica,sans-Serif" font-size="10.00"> </text>
<polyline fill="none" stroke="#bfbfbf" points="381,-1646.5 422,-1646.5 "/>
<text text-anchor="middle" x="401.5" y="-1634.5" font-family="Helvetica,sans-Serif" font-size="10.00"> </text>
</g>
<!-- Node7&#45;&gt;Node4 -->
<g id="edge7" class="edge"><title>Node7&#45;&gt;Node4</title>
<path fill="none" stroke="#404040" d="M422.2,-1653.71C541.161,-1646.03 1132.5,-1604.11 1132.5,-1530 1132.5,-1530 1132.5,-1530 1132.5,-364.5 1132.5,-318.423 816.988,-253.014 686.231,-227.884"/>
<polygon fill="none" stroke="#404040" points="685.958,-227.832 679.314,-230.635 674.171,-225.58 680.815,-222.777 685.958,-227.832"/>
<text text-anchor="middle" x="1167.5" y="-909" font-family="Helvetica,sans-Serif" font-size="10.00"> &#45;previousScene</text>
<text text-anchor="middle" x="1167.5" y="-898" font-family="Helvetica,sans-Serif" font-size="10.00">+levelOrder</text>
</g>
<!-- Node7&#45;&gt;Node6 -->
<g id="edge6" class="edge"><title>Node7&#45;&gt;Node6</title>
<path fill="none" stroke="#404040" d="M380.773,-1654.1C325.44,-1651.3 176.041,-1640.87 140.5,-1609 132.143,-1601.51 126.749,-1591.17 123.287,-1580.44"/>
<polygon fill="none" stroke="#404040" points="123.27,-1580.37 117.884,-1575.58 120.24,-1568.76 125.625,-1573.56 123.27,-1580.37"/>
<text text-anchor="middle" x="155.5" y="-1601" font-family="Helvetica,sans-Serif" font-size="10.00"> #desc</text>
<text text-anchor="middle" x="155.5" y="-1590" font-family="Helvetica,sans-Serif" font-size="10.00">#name</text>
</g>
<!-- Node10 -->
<g id="node9" class="node"><title>Node10</title>
<g id="a_node9"><a xlink:href="class_character.html" target="_top" xlink:title="Base abstract class for Enemy and Player to inherit from. Defines all shared variables, their constructor and their setters and getters ">
<polygon fill="none" stroke="black" points="365,-458.5 365,-636.5 460,-636.5 460,-458.5 365,-458.5"/>
<text text-anchor="middle" x="412.5" y="-624.5" font-family="Helvetica,sans-Serif" font-size="10.00">Character</text>
<polyline fill="none" stroke="black" points="365,-617.5 460,-617.5 "/>
<text text-anchor="start" x="373" y="-605.5" font-family="Helvetica,sans-Serif" font-size="10.00">+ Name</text>
<text text-anchor="start" x="373" y="-594.5" font-family="Helvetica,sans-Serif" font-size="10.00">+ Level</text>
<text text-anchor="start" x="373" y="-583.5" font-family="Helvetica,sans-Serif" font-size="10.00">+ Health</text>
<text text-anchor="start" x="373" y="-572.5" font-family="Helvetica,sans-Serif" font-size="10.00">+ Attack</text>
<text text-anchor="start" x="373" y="-561.5" font-family="Helvetica,sans-Serif" font-size="10.00">+ Defence</text>
<text text-anchor="start" x="373" y="-550.5" font-family="Helvetica,sans-Serif" font-size="10.00">+ MaximumMagic</text>
<text text-anchor="start" x="373" y="-539.5" font-family="Helvetica,sans-Serif" font-size="10.00">+ Magic</text>
<text text-anchor="start" x="373" y="-528.5" font-family="Helvetica,sans-Serif" font-size="10.00">+ Luck</text>
<text text-anchor="start" x="373" y="-517.5" font-family="Helvetica,sans-Serif" font-size="10.00">+ Speed</text>
<text text-anchor="start" x="373" y="-506.5" font-family="Helvetica,sans-Serif" font-size="10.00">+ Special1</text>
<text text-anchor="start" x="373" y="-495.5" font-family="Helvetica,sans-Serif" font-size="10.00">+ Special2</text>
<text text-anchor="start" x="373" y="-484.5" font-family="Helvetica,sans-Serif" font-size="10.00">+ Image</text>
<polyline fill="none" stroke="black" points="365,-477.5 460,-477.5 "/>
<text text-anchor="start" x="373" y="-465.5" font-family="Helvetica,sans-Serif" font-size="10.00"># Character()</text>
</a>
</g>
</g>
<!-- Node7&#45;&gt;Node10 -->
<g id="edge11" class="edge"><title>Node7&#45;&gt;Node10</title>
<path fill="none" stroke="#404040" d="M380.816,-1635.82C342.898,-1599.52 262.152,-1516.69 218.5,-1431 132.536,-1262.25 159.5,-1198.38 159.5,-1009 159.5,-1009 159.5,-1009 159.5,-745 159.5,-647.336 278.547,-591.198 353.318,-565.57"/>
<polygon fill="none" stroke="#404040" points="353.525,-565.502 357.957,-559.814 364.913,-561.718 360.48,-567.406 353.525,-565.502"/>
<text text-anchor="middle" x="177" y="-1162.5" font-family="Helvetica,sans-Serif" font-size="10.00"> #name</text>
</g>
<!-- Node12 -->
<g id="node11" class="node"><title>Node12</title>
<g id="a_node11"><a xlink:href="class_special_move.html" target="_top" xlink:title="Special move abstract base class that expands upon CharacterMove, adding magic properties ...">
<polygon fill="none" stroke="black" points="510.5,-695.5 510.5,-796.5 608.5,-796.5 608.5,-695.5 510.5,-695.5"/>
<text text-anchor="middle" x="559.5" y="-784.5" font-family="Helvetica,sans-Serif" font-size="10.00">SpecialMove</text>
<polyline fill="none" stroke="black" points="510.5,-777.5 608.5,-777.5 "/>
<text text-anchor="start" x="518.5" y="-765.5" font-family="Helvetica,sans-Serif" font-size="10.00">+ Magic</text>
<text text-anchor="start" x="518.5" y="-754.5" font-family="Helvetica,sans-Serif" font-size="10.00">+ Desc</text>
<text text-anchor="start" x="518.5" y="-743.5" font-family="Helvetica,sans-Serif" font-size="10.00">+ Special</text>
<polyline fill="none" stroke="black" points="510.5,-736.5 608.5,-736.5 "/>
<text text-anchor="start" x="518.5" y="-724.5" font-family="Helvetica,sans-Serif" font-size="10.00">+ setUp()</text>
<text text-anchor="start" x="518.5" y="-713.5" font-family="Helvetica,sans-Serif" font-size="10.00">+ decreaseMagic()</text>
<text text-anchor="start" x="518.5" y="-702.5" font-family="Helvetica,sans-Serif" font-size="10.00"># SpecialMove()</text>
</a>
</g>
</g>
<!-- Node7&#45;&gt;Node12 -->
<g id="edge26" class="edge"><title>Node7&#45;&gt;Node12</title>
<path fill="none" stroke="#404040" d="M406.304,-1627.34C407.184,-1621.31 407.986,-1614.96 408.5,-1609 421.151,-1462.4 391.363,-1423.15 415.5,-1278 432.793,-1174.01 455.518,-1152.45 487.5,-1052 499.952,-1012.89 493.69,-998.769 515.5,-964 521.681,-954.146 529.245,-956.378 534.5,-946 555.999,-903.539 561.667,-849.69 562.281,-808.718"/>
<polygon fill="none" stroke="#404040" points="562.281,-808.714 558.302,-802.7 562.323,-796.714 566.302,-802.728 562.281,-808.714"/>
<text text-anchor="middle" x="430.5" y="-1281" font-family="Helvetica,sans-Serif" font-size="10.00"> #desc</text>
</g>
<!-- Node13 -->
<g id="node12" class="node"><title>Node13</title>
<g id="a_node12"><a xlink:href="class_character_move.html" target="_top" xlink:title="Astract base class for character moves ">
<polygon fill="none" stroke="black" points="439.5,-866.5 439.5,-945.5 525.5,-945.5 525.5,-866.5 439.5,-866.5"/>
<text text-anchor="middle" x="482.5" y="-933.5" font-family="Helvetica,sans-Serif" font-size="10.00">CharacterMove</text>
<polyline fill="none" stroke="black" points="439.5,-926.5 525.5,-926.5 "/>
<text text-anchor="start" x="447.5" y="-914.5" font-family="Helvetica,sans-Serif" font-size="10.00">+ User</text>
<text text-anchor="start" x="447.5" y="-903.5" font-family="Helvetica,sans-Serif" font-size="10.00">+ Target</text>
<text text-anchor="start" x="447.5" y="-892.5" font-family="Helvetica,sans-Serif" font-size="10.00">+ Text</text>
<polyline fill="none" stroke="black" points="439.5,-885.5 525.5,-885.5 "/>
<text text-anchor="start" x="447.5" y="-873.5" font-family="Helvetica,sans-Serif" font-size="10.00">+ performMove()</text>
</a>
</g>
</g>
<!-- Node7&#45;&gt;Node13 -->
<g id="edge15" class="edge"><title>Node7&#45;&gt;Node13</title>
<path fill="none" stroke="#404040" d="M397.533,-1627.44C381.673,-1513.56 326.732,-1080.19 391.5,-964 399.826,-949.063 413.87,-937.512 428.465,-928.838"/>
<polygon fill="none" stroke="#404040" points="428.583,-928.773 431.933,-922.387 439.116,-923.023 435.766,-929.409 428.583,-928.773"/>
<text text-anchor="middle" x="387" y="-1366.5" font-family="Helvetica,sans-Serif" font-size="10.00"> #text</text>
</g>
<!-- Node14 -->
<g id="node13" class="node"><title>Node14</title>
<g id="a_node13"><a xlink:href="class_battle_manager.html" target="_top" xlink:title="Holds current Player and Enemy objects in battle and provides functions for MainBattle and other obje...">
<polygon fill="none" stroke="black" points="497.5,-1070.5 497.5,-1259.5 613.5,-1259.5 613.5,-1070.5 497.5,-1070.5"/>
<text text-anchor="middle" x="555.5" y="-1247.5" font-family="Helvetica,sans-Serif" font-size="10.00">BattleManager</text>
<polyline fill="none" stroke="black" points="497.5,-1240.5 613.5,-1240.5 "/>
<text text-anchor="start" x="505.5" y="-1228.5" font-family="Helvetica,sans-Serif" font-size="10.00">+ Player</text>
<text text-anchor="start" x="505.5" y="-1217.5" font-family="Helvetica,sans-Serif" font-size="10.00">+ Enemy</text>
<text text-anchor="start" x="505.5" y="-1206.5" font-family="Helvetica,sans-Serif" font-size="10.00">+ WasCriticalHit</text>
<polyline fill="none" stroke="black" points="497.5,-1199.5 613.5,-1199.5 "/>
<text text-anchor="start" x="505.5" y="-1187.5" font-family="Helvetica,sans-Serif" font-size="10.00">+ BattleManager()</text>
<text text-anchor="start" x="505.5" y="-1176.5" font-family="Helvetica,sans-Serif" font-size="10.00">+ playerFirst()</text>
<text text-anchor="start" x="505.5" y="-1165.5" font-family="Helvetica,sans-Serif" font-size="10.00">+ switchPlayers()</text>
<text text-anchor="start" x="505.5" y="-1154.5" font-family="Helvetica,sans-Serif" font-size="10.00">+ isCriticalHit()</text>
<text text-anchor="start" x="505.5" y="-1143.5" font-family="Helvetica,sans-Serif" font-size="10.00">+ ranAway()</text>
<text text-anchor="start" x="505.5" y="-1132.5" font-family="Helvetica,sans-Serif" font-size="10.00">+ damageCalculation()</text>
<text text-anchor="start" x="505.5" y="-1121.5" font-family="Helvetica,sans-Serif" font-size="10.00">+ enemyMove()</text>
<text text-anchor="start" x="505.5" y="-1110.5" font-family="Helvetica,sans-Serif" font-size="10.00">+ enemySpecialMove()</text>
<text text-anchor="start" x="505.5" y="-1099.5" font-family="Helvetica,sans-Serif" font-size="10.00">+ battleWon()</text>
<text text-anchor="start" x="505.5" y="-1088.5" font-family="Helvetica,sans-Serif" font-size="10.00">+ playerFainted()</text>
<text text-anchor="start" x="505.5" y="-1077.5" font-family="Helvetica,sans-Serif" font-size="10.00">&#45; characterFainted()</text>
</a>
</g>
</g>
<!-- Node7&#45;&gt;Node14 -->
<g id="edge18" class="edge"><title>Node7&#45;&gt;Node14</title>
<path fill="none" stroke="#404040" d="M422.243,-1636.69C429.792,-1628.9 437.655,-1619.25 442.5,-1609 473.254,-1543.93 451.215,-1519.11 467.5,-1449 481.356,-1389.35 501.348,-1324 518.777,-1271.13"/>
<polygon fill="none" stroke="#404040" points="518.79,-1271.1 516.883,-1264.14 522.569,-1259.71 524.476,-1266.66 518.79,-1271.1"/>
<text text-anchor="middle" x="509.5" y="-1463" font-family="Helvetica,sans-Serif" font-size="10.00"> +forceEnemyMove</text>
<text text-anchor="middle" x="509.5" y="-1452" font-family="Helvetica,sans-Serif" font-size="10.00">+forceCriticalHits</text>
</g>
<!-- Node8 -->
<g id="node7" class="node"><title>Node8</title>
<polygon fill="none" stroke="#bfbfbf" points="140,-337 140,-394 211,-394 211,-337 140,-337"/>
<text text-anchor="middle" x="175.5" y="-382" font-family="Helvetica,sans-Serif" font-size="10.00">GameObject</text>
<polyline fill="none" stroke="#bfbfbf" points="140,-375 211,-375 "/>
<text text-anchor="middle" x="175.5" y="-363" font-family="Helvetica,sans-Serif" font-size="10.00"> </text>
<polyline fill="none" stroke="#bfbfbf" points="140,-356 211,-356 "/>
<text text-anchor="middle" x="175.5" y="-344" font-family="Helvetica,sans-Serif" font-size="10.00"> </text>
</g>
<!-- Node8&#45;&gt;Node4 -->
<g id="edge8" class="edge"><title>Node8&#45;&gt;Node4</title>
<path fill="none" stroke="#404040" d="M175.172,-336.924C176.496,-324.652 180.239,-310.978 189.5,-302 243.744,-249.415 468.651,-228.018 574.697,-220.726"/>
<polygon fill="none" stroke="#404040" points="574.743,-220.723 580.463,-216.333 586.716,-219.926 580.995,-224.316 574.743,-220.723"/>
<text text-anchor="middle" x="207.5" y="-305" font-family="Helvetica,sans-Serif" font-size="10.00"> +player</text>
</g>
<!-- Node9 -->
<g id="node8" class="node"><title>Node9</title>
<g id="a_node8"><a xlink:href="class_enemy.html" target="_top" xlink:title="Defines an AI controller enemy to fight in battle scenes">
<polygon fill="none" stroke="black" points="535,-337 535,-394 602,-394 602,-337 535,-337"/>
<text text-anchor="middle" x="568.5" y="-382" font-family="Helvetica,sans-Serif" font-size="10.00">Enemy</text>
<polyline fill="none" stroke="black" points="535,-375 602,-375 "/>
<text text-anchor="start" x="543" y="-363" font-family="Helvetica,sans-Serif" font-size="10.00">+ ExpGiven</text>
<polyline fill="none" stroke="black" points="535,-356 602,-356 "/>
<text text-anchor="start" x="543" y="-344" font-family="Helvetica,sans-Serif" font-size="10.00">+ Enemy()</text>
</a>
</g>
</g>
<!-- Node9&#45;&gt;Node4 -->
<g id="edge9" class="edge"><title>Node9&#45;&gt;Node4</title>
<path fill="none" stroke="#404040" d="M571.708,-336.865C573.53,-325.789 576.313,-313.056 580.5,-302 581.396,-299.634 582.356,-297.258 583.37,-294.881"/>
<polygon fill="none" stroke="#404040" points="583.457,-294.692 582.328,-287.57 588.468,-283.789 589.597,-290.911 583.457,-294.692"/>
<text text-anchor="middle" x="598.5" y="-305" font-family="Helvetica,sans-Serif" font-size="10.00"> &#45;enemy</text>
</g>
<!-- Node9&#45;&gt;Node14 -->
<g id="edge19" class="edge"><title>Node9&#45;&gt;Node14</title>
<path fill="none" stroke="#404040" d="M574.019,-394.033C584.982,-450.284 609.162,-582.579 617.5,-695 626.807,-820.48 602.772,-963.735 581.967,-1058.55"/>
<polygon fill="none" stroke="#404040" points="581.926,-1058.74 584.527,-1065.46 579.318,-1070.45 576.718,-1063.72 581.926,-1058.74"/>
<text text-anchor="middle" x="638.5" y="-743.5" font-family="Helvetica,sans-Serif" font-size="10.00"> &#45;enemy</text>
</g>
<!-- Node10&#45;&gt;Node9 -->
<g id="edge10" class="edge"><title>Node10&#45;&gt;Node9</title>
<path fill="none" stroke="midnightblue" d="M466.809,-483.835C493.368,-453.19 523.976,-417.874 544.616,-394.059"/>
<polygon fill="none" stroke="midnightblue" points="464.057,-481.667 460.153,-491.516 469.347,-486.251 464.057,-481.667"/>
</g>
<!-- Node10&#45;&gt;Node13 -->
<g id="edge16" class="edge"><title>Node10&#45;&gt;Node13</title>
<path fill="none" stroke="#404040" d="M429.828,-636.751C443.278,-705.247 461.447,-797.781 472.55,-854.327"/>
<polygon fill="none" stroke="#404040" points="472.563,-854.394 477.644,-859.511 474.876,-866.17 469.794,-861.053 472.563,-854.394"/>
<text text-anchor="middle" x="478.5" y="-749" font-family="Helvetica,sans-Serif" font-size="10.00"> #target</text>
<text text-anchor="middle" x="478.5" y="-738" font-family="Helvetica,sans-Serif" font-size="10.00">#user</text>
</g>
<!-- Node10&#45;&gt;Node16 -->
<g id="edge23" class="edge"><title>Node10&#45;&gt;Node16</title>
<path fill="none" stroke="midnightblue" d="M397.019,-646.848C370.031,-818.295 315.141,-1167 293.038,-1307.41"/>
<polygon fill="none" stroke="midnightblue" points="400.5,-647.239 398.598,-636.816 393.585,-646.15 400.5,-647.239"/>
</g>
<!-- Node11 -->
<g id="node10" class="node"><title>Node11</title>
<polygon fill="none" stroke="#bfbfbf" points="643,-1500.5 643,-1557.5 672,-1557.5 672,-1500.5 643,-1500.5"/>
<text text-anchor="middle" x="657.5" y="-1545.5" font-family="Helvetica,sans-Serif" font-size="10.00">int</text>
<polyline fill="none" stroke="#bfbfbf" points="643,-1538.5 672,-1538.5 "/>
<text text-anchor="middle" x="657.5" y="-1526.5" font-family="Helvetica,sans-Serif" font-size="10.00"> </text>
<polyline fill="none" stroke="#bfbfbf" points="643,-1519.5 672,-1519.5 "/>
<text text-anchor="middle" x="657.5" y="-1507.5" font-family="Helvetica,sans-Serif" font-size="10.00"> </text>
</g>
<!-- Node11&#45;&gt;Node2 -->
<g id="edge38" class="edge"><title>Node11&#45;&gt;Node2</title>
<path fill="none" stroke="#404040" d="M672.152,-1528.06C737.422,-1527.51 998.5,-1516.15 998.5,-1370 998.5,-1370 998.5,-1370 998.5,-215.5 998.5,-179.417 984.059,-142.129 968.389,-112.291"/>
<polygon fill="none" stroke="#404040" points="968.332,-112.185 961.947,-108.834 962.585,-101.651 968.97,-105.003 968.332,-112.185"/>
<text text-anchor="middle" x="1051.5" y="-754.5" font-family="Helvetica,sans-Serif" font-size="10.00"> +numberOfItems</text>
<text text-anchor="middle" x="1051.5" y="-743.5" font-family="Helvetica,sans-Serif" font-size="10.00">+costs</text>
<text text-anchor="middle" x="1051.5" y="-732.5" font-family="Helvetica,sans-Serif" font-size="10.00">+numberOfItemsPerRow</text>
</g>
<!-- Node11&#45;&gt;Node4 -->
<g id="edge32" class="edge"><title>Node11&#45;&gt;Node4</title>
<path fill="none" stroke="#404040" d="M672.405,-1523.43C704.889,-1512.7 782.509,-1482.85 824.5,-1431 842.456,-1408.83 844.5,-1398.53 844.5,-1370 844.5,-1370 844.5,-1370 844.5,-905 844.5,-798.983 860.5,-773.017 860.5,-667 860.5,-667 860.5,-667 860.5,-364.5 860.5,-281.907 753.897,-243.64 685.842,-227.625"/>
<polygon fill="none" stroke="#404040" points="685.741,-227.603 679.011,-230.193 674.032,-224.976 680.762,-222.387 685.741,-227.603"/>
<text text-anchor="middle" x="880" y="-840" font-family="Helvetica,sans-Serif" font-size="10.00"> +currentLevel</text>
<text text-anchor="middle" x="880" y="-829" font-family="Helvetica,sans-Serif" font-size="10.00">+lastLevel</text>
<text text-anchor="middle" x="880" y="-818" font-family="Helvetica,sans-Serif" font-size="10.00">&#45;money</text>
</g>
<!-- Node11&#45;&gt;Node9 -->
<g id="edge30" class="edge"><title>Node11&#45;&gt;Node9</title>
<path fill="none" stroke="#404040" d="M663.684,-1500.2C684.06,-1404.25 745.187,-1078.4 698.5,-815 670.034,-654.401 666.089,-612.391 613.5,-458 607.391,-440.066 598.525,-421.135 590.275,-405.175"/>
<polygon fill="none" stroke="#404040" points="590.044,-404.739 583.7,-401.31 584.425,-394.136 590.769,-397.564 590.044,-404.739"/>
<text text-anchor="middle" x="736.5" y="-903.5" font-family="Helvetica,sans-Serif" font-size="10.00"> &#45;expGiven</text>
</g>
<!-- Node11&#45;&gt;Node10 -->
<g id="edge12" class="edge"><title>Node11&#45;&gt;Node10</title>
<path fill="none" stroke="#404040" d="M642.846,-1514.72C623.991,-1497.05 591.099,-1464.15 569.5,-1431 528.875,-1368.65 538.594,-1342.51 501.5,-1278 496.581,-1269.45 492.956,-1268.8 488.5,-1260 388.062,-1061.56 390.935,-792.697 401.742,-648.96"/>
<polygon fill="none" stroke="#404040" points="401.764,-648.679 398.247,-642.384 402.705,-636.716 406.222,-643.011 401.764,-648.679"/>
<text text-anchor="middle" x="458" y="-1044" font-family="Helvetica,sans-Serif" font-size="10.00"> #speed</text>
<text text-anchor="middle" x="458" y="-1033" font-family="Helvetica,sans-Serif" font-size="10.00">#luck</text>
<text text-anchor="middle" x="458" y="-1022" font-family="Helvetica,sans-Serif" font-size="10.00">#health</text>
<text text-anchor="middle" x="458" y="-1011" font-family="Helvetica,sans-Serif" font-size="10.00">#magic</text>
<text text-anchor="middle" x="458" y="-1000" font-family="Helvetica,sans-Serif" font-size="10.00">#maximumMagic</text>
<text text-anchor="middle" x="458" y="-989" font-family="Helvetica,sans-Serif" font-size="10.00">#attack</text>
<text text-anchor="middle" x="458" y="-978" font-family="Helvetica,sans-Serif" font-size="10.00">#defence</text>
<text text-anchor="middle" x="458" y="-967" font-family="Helvetica,sans-Serif" font-size="10.00">#level</text>
</g>
<!-- Node11&#45;&gt;Node12 -->
<g id="edge28" class="edge"><title>Node11&#45;&gt;Node12</title>
<path fill="none" stroke="#404040" d="M655.976,-1500.42C653.614,-1458.58 648.785,-1376.58 643.5,-1307 635.49,-1201.56 637.309,-1174.7 622.5,-1070 609.534,-978.325 587.738,-873.281 573.487,-808.531"/>
<polygon fill="none" stroke="#404040" points="573.424,-808.245 568.221,-803.251 570.83,-796.528 576.032,-801.522 573.424,-808.245"/>
<text text-anchor="middle" x="658" y="-1162.5" font-family="Helvetica,sans-Serif" font-size="10.00"> #magic</text>
</g>
<!-- Node11&#45;&gt;Node14 -->
<g id="edge20" class="edge"><title>Node11&#45;&gt;Node14</title>
<path fill="none" stroke="#404040" d="M642.963,-1506.21C630.899,-1487.15 614.203,-1458.3 604.5,-1431 586.372,-1379.99 574.621,-1320.95 567.185,-1271.57"/>
<polygon fill="none" stroke="#404040" points="567.166,-1271.43 562.341,-1266.07 565.433,-1259.56 570.258,-1264.92 567.166,-1271.43"/>
<text text-anchor="middle" x="624" y="-1366.5" font-family="Helvetica,sans-Serif" font-size="10.00"> +money</text>
</g>
<!-- Node11&#45;&gt;Node16 -->
<g id="edge25" class="edge"><title>Node11&#45;&gt;Node16</title>
<path fill="none" stroke="#404040" d="M642.848,-1528.38C598.405,-1528.87 462.489,-1525.54 369.5,-1471 355.727,-1462.92 343.107,-1451.81 332.025,-1439.91"/>
<polygon fill="none" stroke="#404040" points="331.813,-1439.67 324.84,-1437.83 323.857,-1430.68 330.83,-1432.52 331.813,-1439.67"/>
<text text-anchor="middle" x="407" y="-1463" font-family="Helvetica,sans-Serif" font-size="10.00"> &#45;expToNextLevel</text>
<text text-anchor="middle" x="407" y="-1452" font-family="Helvetica,sans-Serif" font-size="10.00">&#45;exp</text>
</g>
<!-- Node12&#45;&gt;Node10 -->
<g id="edge13" class="edge"><title>Node12&#45;&gt;Node10</title>
<path fill="none" stroke="#404040" d="M522.406,-695.415C505.736,-673.132 485.725,-646.382 467.372,-621.85"/>
<polygon fill="none" stroke="#404040" points="467.352,-621.822 460.554,-619.414 460.163,-612.213 466.96,-614.621 467.352,-621.822"/>
<text text-anchor="middle" x="531" y="-669" font-family="Helvetica,sans-Serif" font-size="10.00"> #special1</text>
<text text-anchor="middle" x="531" y="-658" font-family="Helvetica,sans-Serif" font-size="10.00">#special2</text>
</g>
<!-- Node13&#45;&gt;Node12 -->
<g id="edge14" class="edge"><title>Node13&#45;&gt;Node12</title>
<path fill="none" stroke="midnightblue" d="M505.795,-857.2C515.134,-838.036 525.896,-815.953 535.322,-796.611"/>
<polygon fill="none" stroke="midnightblue" points="502.571,-855.826 501.336,-866.349 508.864,-858.893 502.571,-855.826"/>
</g>
<!-- Node14&#45;&gt;Node13 -->
<g id="edge17" class="edge"><title>Node14&#45;&gt;Node13</title>
<path fill="none" stroke="#404040" d="M528.939,-1070.49C518.094,-1032.31 505.983,-989.672 496.848,-957.513"/>
<polygon fill="none" stroke="#404040" points="496.781,-957.275 491.293,-952.597 493.502,-945.732 498.989,-950.411 496.781,-957.275"/>
<text text-anchor="middle" x="546.5" y="-1005.5" font-family="Helvetica,sans-Serif" font-size="10.00"> #manager</text>
</g>
<!-- Node15 -->
<g id="node14" class="node"><title>Node15</title>
<polygon fill="none" stroke="#bfbfbf" points="781,-1340.5 781,-1397.5 816,-1397.5 816,-1340.5 781,-1340.5"/>
<text text-anchor="middle" x="798.5" y="-1385.5" font-family="Helvetica,sans-Serif" font-size="10.00">bool</text>
<polyline fill="none" stroke="#bfbfbf" points="781,-1378.5 816,-1378.5 "/>
<text text-anchor="middle" x="798.5" y="-1366.5" font-family="Helvetica,sans-Serif" font-size="10.00"> </text>
<polyline fill="none" stroke="#bfbfbf" points="781,-1359.5 816,-1359.5 "/>
<text text-anchor="middle" x="798.5" y="-1347.5" font-family="Helvetica,sans-Serif" font-size="10.00"> </text>
</g>
<!-- Node15&#45;&gt;Node2 -->
<g id="edge39" class="edge"><title>Node15&#45;&gt;Node2</title>
<path fill="none" stroke="#404040" d="M816.166,-1356.72C856.617,-1329.35 952.5,-1255.08 952.5,-1166 952.5,-1166 952.5,-1166 952.5,-830.5 952.5,-514.642 957.981,-435.127 936.5,-120 936.361,-117.965 936.21,-115.897 936.047,-113.809"/>
<polygon fill="none" stroke="#404040" points="936.037,-113.688 931.543,-108.049 935.019,-101.731 939.514,-107.37 936.037,-113.688"/>
<text text-anchor="middle" x="967" y="-663.5" font-family="Helvetica,sans-Serif" font-size="10.00"> &#45;draw</text>
</g>
<!-- Node15&#45;&gt;Node4 -->
<g id="edge33" class="edge"><title>Node15&#45;&gt;Node4</title>
<path fill="none" stroke="#404040" d="M798.22,-1340.34C797.096,-1264.2 791.478,-1045.33 763.5,-866 730.633,-655.33 685.957,-610.079 649.5,-400 643.608,-366.047 639.302,-328.2 636.295,-295.813"/>
<polygon fill="none" stroke="#404040" points="636.28,-295.639 631.759,-290.021 635.205,-283.688 639.726,-289.305 636.28,-295.639"/>
<text text-anchor="middle" x="783.5" y="-749" font-family="Helvetica,sans-Serif" font-size="10.00"> +autoSave</text>
<text text-anchor="middle" x="783.5" y="-738" font-family="Helvetica,sans-Serif" font-size="10.00">+canRunAway</text>
</g>
<!-- Node15&#45;&gt;Node14 -->
<g id="edge21" class="edge"><title>Node15&#45;&gt;Node14</title>
<path fill="none" stroke="#404040" d="M780.878,-1359.29C748.6,-1342.8 678.78,-1304.66 629.5,-1260 627.143,-1257.86 624.804,-1255.65 622.488,-1253.37"/>
<polygon fill="none" stroke="#404040" points="622.042,-1252.91 614.993,-1251.39 613.686,-1244.3 620.735,-1245.82 622.042,-1252.91"/>
<text text-anchor="middle" x="696.5" y="-1281" font-family="Helvetica,sans-Serif" font-size="10.00"> &#45;wasCriticalHit</text>
</g>
<!-- Node16&#45;&gt;Node4 -->
<g id="edge34" class="edge"><title>Node16&#45;&gt;Node4</title>
<path fill="none" stroke="#404040" d="M262.688,-1307.36C224.863,-1187.91 154.087,-914.704 214.5,-695 270.598,-490.991 477.429,-323.871 576.676,-253.461"/>
<polygon fill="none" stroke="#404040" points="576.978,-253.249 579.588,-246.527 586.797,-246.352 584.187,-253.074 576.978,-253.249"/>
<text text-anchor="middle" x="245" y="-743.5" font-family="Helvetica,sans-Serif" font-size="10.00"> +takenPlayer</text>
</g>
<!-- Node16&#45;&gt;Node14 -->
<g id="edge22" class="edge"><title>Node16&#45;&gt;Node14</title>
<path fill="none" stroke="#404040" d="M339.829,-1314.79C344.282,-1311.89 348.858,-1309.25 353.5,-1307 392.568,-1288.08 411.88,-1310.66 449.5,-1289 463.752,-1280.79 477.014,-1269.94 488.995,-1258.07"/>
<polygon fill="none" stroke="#404040" points="489.155,-1257.91 490.445,-1250.81 497.49,-1249.27 496.2,-1256.37 489.155,-1257.91"/>
<text text-anchor="middle" x="481" y="-1281" font-family="Helvetica,sans-Serif" font-size="10.00"> &#45;player</text>
</g>
<!-- Node17 -->
<g id="node16" class="node"><title>Node17</title>
<polygon fill="none" stroke="#bfbfbf" points="661,-877.5 661,-934.5 696,-934.5 696,-877.5 661,-877.5"/>
<text text-anchor="middle" x="678.5" y="-922.5" font-family="Helvetica,sans-Serif" font-size="10.00">float</text>
<polyline fill="none" stroke="#bfbfbf" points="661,-915.5 696,-915.5 "/>
<text text-anchor="middle" x="678.5" y="-903.5" font-family="Helvetica,sans-Serif" font-size="10.00"> </text>
<polyline fill="none" stroke="#bfbfbf" points="661,-896.5 696,-896.5 "/>
<text text-anchor="middle" x="678.5" y="-884.5" font-family="Helvetica,sans-Serif" font-size="10.00"> </text>
</g>
<!-- Node17&#45;&gt;Node2 -->
<g id="edge36" class="edge"><title>Node17&#45;&gt;Node2</title>
<path fill="none" stroke="#404040" d="M696.053,-877.702C700.237,-873.09 705.084,-868.872 710.5,-866 749.141,-845.507 877.02,-880.311 906.5,-848 916.385,-837.165 906.637,-829.666 906.5,-815 904.853,-638.536 892.286,-594.324 899.5,-418 903.886,-310.812 915.467,-186.409 922.89,-113.729"/>
<polygon fill="none" stroke="#404040" points="922.905,-113.585 919.54,-107.207 924.134,-101.648 927.498,-108.026 922.905,-113.585"/>
<text text-anchor="middle" x="923" y="-432" font-family="Helvetica,sans-Serif" font-size="10.00"> &#45;cellWidth</text>
<text text-anchor="middle" x="923" y="-421" font-family="Helvetica,sans-Serif" font-size="10.00">&#45;cellHeight</text>
</g>
<!-- Node17&#45;&gt;Node12 -->
<g id="edge27" class="edge"><title>Node17&#45;&gt;Node12</title>
<path fill="none" stroke="#404040" d="M667.704,-877.13C659.776,-858.547 647.901,-834.116 633.5,-815 628.633,-808.539 623.102,-802.189 617.307,-796.12"/>
<polygon fill="none" stroke="#404040" points="617.142,-795.954 610.074,-794.525 608.675,-787.451 615.743,-788.88 617.142,-795.954"/>
<text text-anchor="middle" x="674.5" y="-829" font-family="Helvetica,sans-Serif" font-size="10.00"> #special</text>
</g>
<!-- Node18 -->
<g id="node17" class="node"><title>Node18</title>
<polygon fill="none" stroke="#bfbfbf" points="285,-717.5 285,-774.5 346,-774.5 346,-717.5 285,-717.5"/>
<text text-anchor="middle" x="315.5" y="-762.5" font-family="Helvetica,sans-Serif" font-size="10.00">Texture2D</text>
<polyline fill="none" stroke="#bfbfbf" points="285,-755.5 346,-755.5 "/>
<text text-anchor="middle" x="315.5" y="-743.5" font-family="Helvetica,sans-Serif" font-size="10.00"> </text>
<polyline fill="none" stroke="#bfbfbf" points="285,-736.5 346,-736.5 "/>
<text text-anchor="middle" x="315.5" y="-724.5" font-family="Helvetica,sans-Serif" font-size="10.00"> </text>
</g>
<!-- Node18&#45;&gt;Node10 -->
<g id="edge29" class="edge"><title>Node18&#45;&gt;Node10</title>
<path fill="none" stroke="#404040" d="M314.572,-717.206C314.913,-698.88 317.217,-674.711 325.5,-655 333.083,-636.955 344.732,-619.545 357.064,-604.214"/>
<polygon fill="none" stroke="#404040" points="357.109,-604.161 357.885,-596.991 364.801,-594.95 364.025,-602.119 357.109,-604.161"/>
<text text-anchor="middle" x="343" y="-663.5" font-family="Helvetica,sans-Serif" font-size="10.00"> #image</text>
</g>
<!-- Node19 -->
<g id="node18" class="node"><title>Node19</title>
<polygon fill="none" stroke="#bfbfbf" points="658.5,-331.5 658.5,-399.5 756.5,-399.5 756.5,-331.5 658.5,-331.5"/>
<text text-anchor="start" x="666.5" y="-387.5" font-family="Helvetica,sans-Serif" font-size="10.00">IDictionary&lt; string,</text>
<text text-anchor="middle" x="707.5" y="-376.5" font-family="Helvetica,sans-Serif" font-size="10.00"> bool &gt;</text>
<polyline fill="none" stroke="#bfbfbf" points="658.5,-369.5 756.5,-369.5 "/>
<text text-anchor="middle" x="707.5" y="-357.5" font-family="Helvetica,sans-Serif" font-size="10.00"> </text>
<polyline fill="none" stroke="#bfbfbf" points="658.5,-350.5 756.5,-350.5 "/>
<text text-anchor="middle" x="707.5" y="-338.5" font-family="Helvetica,sans-Serif" font-size="10.00"> </text>
</g>
<!-- Node19&#45;&gt;Node4 -->
<g id="edge35" class="edge"><title>Node19&#45;&gt;Node4</title>
<path fill="none" stroke="#404040" d="M690.028,-331.143C684.273,-320.158 677.615,-307.446 670.879,-294.588"/>
<polygon fill="none" stroke="#404040" points="670.79,-294.417 664.462,-290.958 665.222,-283.787 671.549,-287.246 670.79,-294.417"/>
<text text-anchor="middle" x="714" y="-305" font-family="Helvetica,sans-Serif" font-size="10.00"> +objectsActive</text>
</g>
<!-- Node20 -->
<g id="node19" class="node"><title>Node20</title>
<polygon fill="none" stroke="#bfbfbf" points="1026.5,-188 1026.5,-245 1084.5,-245 1084.5,-188 1026.5,-188"/>
<text text-anchor="middle" x="1055.5" y="-233" font-family="Helvetica,sans-Serif" font-size="10.00">Texture []</text>
<polyline fill="none" stroke="#bfbfbf" points="1026.5,-226 1084.5,-226 "/>
<text text-anchor="middle" x="1055.5" y="-214" font-family="Helvetica,sans-Serif" font-size="10.00"> </text>
<polyline fill="none" stroke="#bfbfbf" points="1026.5,-207 1084.5,-207 "/>
<text text-anchor="middle" x="1055.5" y="-195" font-family="Helvetica,sans-Serif" font-size="10.00"> </text>
</g>
<!-- Node20&#45;&gt;Node2 -->
<g id="edge37" class="edge"><title>Node20&#45;&gt;Node2</title>
<path fill="none" stroke="#404040" d="M1046.85,-187.746C1039.72,-167.638 1028.2,-140.496 1012.5,-120 1003.56,-108.332 992.247,-97.3963 980.871,-87.8503"/>
<polygon fill="none" stroke="#404040" points="980.693,-87.7063 973.511,-87.0531 971.352,-80.1728 978.534,-80.826 980.693,-87.7063"/>
<text text-anchor="middle" x="1031" y="-123" font-family="Helvetica,sans-Serif" font-size="10.00"> +tex</text>
</g>
</g>
</svg>
        <g id="navigator" transform="translate(0 0)" fill="#404254">
                <rect fill="#f2f5e9" fill-opacity="0.5" stroke="#606060" stroke-width=".5" x="0" y="0" width="60" height="60"/>
                <use id="zoomplus" xlink:href="#zoomPlus" x="17" y="9" onmousedown="handleZoom(evt,'in')"/>
                <use id="zoomminus" xlink:href="#zoomMin" x="42" y="9" onmousedown="handleZoom(evt,'out')"/>
                <use id="reset" xlink:href="#resetDef" x="30" y="36" onmousedown="handleReset()"/>
                <g id="arrowUp" xlink:href="#dirArrow" transform="translate(30 24)" onmousedown="handlePan(0,-1)">
                  <use xlink:href="#rim" fill="#404040">
                        <set attributeName="fill" to="#808080" begin="arrowUp.mouseover" end="arrowUp.mouseout"/>
                  </use>
                  <path fill="none" stroke="white" stroke-width="1.5" d="M0,-3.0v7 M-2.5,-0.5L0,-3.0L2.5,-0.5"/>
                </g>
                <g id="arrowRight" xlink:href="#dirArrow" transform="rotate(90) translate(36 -43)" onmousedown="handlePan(1,0)">
                  <use xlink:href="#rim" fill="#404040">
                        <set attributeName="fill" to="#808080" begin="arrowRight.mouseover" end="arrowRight.mouseout"/>
                  </use>
                  <path fill="none" stroke="white" stroke-width="1.5" d="M0,-3.0v7 M-2.5,-0.5L0,-3.0L2.5,-0.5"/>
                </g>
                <g id="arrowDown" xlink:href="#dirArrow" transform="rotate(180) translate(-30 -48)" onmousedown="handlePan(0,1)">
                  <use xlink:href="#rim" fill="#404040">
                        <set attributeName="fill" to="#808080" begin="arrowDown.mouseover" end="arrowDown.mouseout"/>
                  </use>
                  <path fill="none" stroke="white" stroke-width="1.5" d="M0,-3.0v7 M-2.5,-0.5L0,-3.0L2.5,-0.5"/>
                </g>
                <g id="arrowLeft" xlink:href="#dirArrow" transform="rotate(270) translate(-36 17)" onmousedown="handlePan(-1,0)">
                  <use xlink:href="#rim" fill="#404040">
                        <set attributeName="fill" to="#808080" begin="arrowLeft.mouseover" end="arrowLeft.mouseout"/>
                  </use>
                  <path fill="none" stroke="white" stroke-width="1.5" d="M0,-3.0v7 M-2.5,-0.5L0,-3.0L2.5,-0.5"/>
                </g>
        </g>
        <svg viewBox="0 0 15 15" width="100%" height="30px" preserveAspectRatio="xMaxYMin meet">
         <g id="arrow_out" transform="scale(0.3 0.3)">
          <a xlink:href="class_vendor__coll__graph_org.svg" target="_base">
           <rect id="button" ry="5" rx="5" y="6" x="6" height="38" width="38"
                fill="#f2f5e9" fill-opacity="0.5" stroke="#606060" stroke-width="1.0"/>
           <path id="arrow"
             d="M 11.500037,31.436501 C 11.940474,20.09759 22.043105,11.32322 32.158766,21.979434 L 37.068811,17.246167 C 37.068811,17.246167 37.088388,32 37.088388,32 L 22.160133,31.978069 C 22.160133,31.978069 26.997745,27.140456 26.997745,27.140456 C 18.528582,18.264221 13.291696,25.230495 11.500037,31.436501 z"
             style="fill:#404040;"/>
          </a>
         </g>
        </svg>
</svg>
