<?xml version="1.0" encoding="UTF-8" standalone="no"?>
<!DOCTYPE svg PUBLIC "-//W3C//DTD SVG 1.1//EN"
 "http://www.w3.org/Graphics/SVG/1.1/DTD/svg11.dtd">
<!-- Generated by graphviz version 2.38.0 (20140413.2041)
 -->
<!-- Title: SoundManager Pages: 1 -->
<svg width="302pt" height="237pt"
 viewBox="0.00 0.00 301.50 237.00" xmlns="http://www.w3.org/2000/svg" xmlns:xlink="http://www.w3.org/1999/xlink">
<g id="graph0" class="graph" transform="scale(1 1) rotate(0) translate(4 233)">
<title>SoundManager</title>
<!-- Node2 -->
<g id="node1" class="node"><title>Node2</title>
<polygon fill="#bfbfbf" stroke="black" points="109.5,-0.5 109.5,-101.5 191.5,-101.5 191.5,-0.5 109.5,-0.5"/>
<text text-anchor="middle" x="150.5" y="-89.5" font-family="Helvetica,sans-Serif" font-size="10.00">SoundManager</text>
<polyline fill="none" stroke="black" points="109.5,-82.5 191.5,-82.5 "/>
<text text-anchor="middle" x="150.5" y="-70.5" font-family="Helvetica,sans-Serif" font-size="10.00"> </text>
<polyline fill="none" stroke="black" points="109.5,-63.5 191.5,-63.5 "/>
<text text-anchor="start" x="117.5" y="-51.5" font-family="Helvetica,sans-Serif" font-size="10.00">+ playBGM()</text>
<text text-anchor="start" x="117.5" y="-40.5" font-family="Helvetica,sans-Serif" font-size="10.00">+ playSFX()</text>
<text text-anchor="start" x="117.5" y="-29.5" font-family="Helvetica,sans-Serif" font-size="10.00">+ soundOn()</text>
<text text-anchor="start" x="117.5" y="-18.5" font-family="Helvetica,sans-Serif" font-size="10.00">+ isSoundOn()</text>
<text text-anchor="start" x="117.5" y="-7.5" font-family="Helvetica,sans-Serif" font-size="10.00">&#45; Awake()</text>
</g>
<!-- Node2&#45;&gt;Node2 -->
<g id="edge2" class="edge"><title>Node2&#45;&gt;Node2</title>
<path fill="none" stroke="#404040" d="M191.583,-65.794C201.836,-64.7595 209.5,-59.8281 209.5,-51 209.5,-46.0342 207.075,-42.3013 203.129,-39.8014"/>
<polygon fill="none" stroke="#404040" points="203.04,-39.7741 196.122,-41.8091 191.583,-36.206 198.501,-34.1709 203.04,-39.7741"/>
<text text-anchor="middle" x="232.5" y="-48.5" font-family="Helvetica,sans-Serif" font-size="10.00"> +instance</text>
</g>
<!-- Node3 -->
<g id="node2" class="node"><title>Node3</title>
<g id="a_node2"><a xlink:href="class_mono_behaviour.html" target="_top" xlink:title="{MonoBehaviour\n||}">
<polygon fill="none" stroke="black" points="0,-166 0,-223 83,-223 83,-166 0,-166"/>
<text text-anchor="middle" x="41.5" y="-211" font-family="Helvetica,sans-Serif" font-size="10.00">MonoBehaviour</text>
<polyline fill="none" stroke="black" points="0,-204 83,-204 "/>
<text text-anchor="middle" x="41.5" y="-192" font-family="Helvetica,sans-Serif" font-size="10.00"> </text>
<polyline fill="none" stroke="black" points="0,-185 83,-185 "/>
<text text-anchor="middle" x="41.5" y="-173" font-family="Helvetica,sans-Serif" font-size="10.00"> </text>
</a>
</g>
</g>
<!-- Node3&#45;&gt;Node2 -->
<g id="edge1" class="edge"><title>Node3&#45;&gt;Node2</title>
<path fill="none" stroke="midnightblue" d="M68.9719,-157.837C82.0928,-140.804 98.0121,-120.138 112.289,-101.604"/>
<polygon fill="none" stroke="midnightblue" points="66.1049,-155.823 62.7751,-165.881 71.6503,-160.095 66.1049,-155.823"/>
</g>
<!-- Node4 -->
<g id="node3" class="node"><title>Node4</title>
<polygon fill="none" stroke="#bfbfbf" points="101.5,-160.5 101.5,-228.5 199.5,-228.5 199.5,-160.5 101.5,-160.5"/>
<text text-anchor="start" x="109.5" y="-216.5" font-family="Helvetica,sans-Serif" font-size="10.00">IDictionary&lt; string,</text>
<text text-anchor="middle" x="150.5" y="-205.5" font-family="Helvetica,sans-Serif" font-size="10.00"> AudioClip &gt;</text>
<polyline fill="none" stroke="#bfbfbf" points="101.5,-198.5 199.5,-198.5 "/>
<text text-anchor="middle" x="150.5" y="-186.5" font-family="Helvetica,sans-Serif" font-size="10.00"> </text>
<polyline fill="none" stroke="#bfbfbf" points="101.5,-179.5 199.5,-179.5 "/>
<text text-anchor="middle" x="150.5" y="-167.5" font-family="Helvetica,sans-Serif" font-size="10.00"> </text>
</g>
<!-- Node4&#45;&gt;Node2 -->
<g id="edge3" class="edge"><title>Node4&#45;&gt;Node2</title>
<path fill="none" stroke="#404040" d="M150.5,-160.325C150.5,-146.395 150.5,-129.727 150.5,-113.691"/>
<polygon fill="none" stroke="#404040" points="150.5,-113.606 146.5,-107.606 150.5,-101.606 154.5,-107.606 150.5,-113.606"/>
<text text-anchor="middle" x="182" y="-128.5" font-family="Helvetica,sans-Serif" font-size="10.00"> &#45;soundEffects</text>
</g>
<!-- Node5 -->
<g id="node4" class="node"><title>Node5</title>
<polygon fill="none" stroke="#bfbfbf" points="217.5,-166 217.5,-223 289.5,-223 289.5,-166 217.5,-166"/>
<text text-anchor="middle" x="253.5" y="-211" font-family="Helvetica,sans-Serif" font-size="10.00">AudioSource</text>
<polyline fill="none" stroke="#bfbfbf" points="217.5,-204 289.5,-204 "/>
<text text-anchor="middle" x="253.5" y="-192" font-family="Helvetica,sans-Serif" font-size="10.00"> </text>
<polyline fill="none" stroke="#bfbfbf" points="217.5,-185 289.5,-185 "/>
<text text-anchor="middle" x="253.5" y="-173" font-family="Helvetica,sans-Serif" font-size="10.00"> </text>
</g>
<!-- Node5&#45;&gt;Node2 -->
<g id="edge4" class="edge"><title>Node5&#45;&gt;Node2</title>
<path fill="none" stroke="#404040" d="M242.476,-165.792C236.172,-151.497 227.526,-134.141 217.5,-120 212.36,-112.75 206.433,-105.553 200.275,-98.7061"/>
<polygon fill="none" stroke="#404040" points="199.976,-98.3851 192.957,-96.7288 191.787,-89.6133 198.805,-91.2696 199.976,-98.3851"/>
<text text-anchor="middle" x="262" y="-134" font-family="Helvetica,sans-Serif" font-size="10.00"> +BGMSource</text>
<text text-anchor="middle" x="262" y="-123" font-family="Helvetica,sans-Serif" font-size="10.00">+SFXSource</text>
</g>
</g>
</svg>
