<?xml version="1.0" encoding="UTF-8" standalone="no"?>
<!DOCTYPE svg PUBLIC "-//W3C//DTD SVG 1.1//EN"
 "http://www.w3.org/Graphics/SVG/1.1/DTD/svg11.dtd">
<!-- Generated by graphviz version 2.38.0 (20140413.2041)
 -->
<!-- Title: Item Pages: 1 -->
<!--zoomable 226 -->
<svg id="main" version="1.1" xmlns="http://www.w3.org/2000/svg" xmlns:xlink="http://www.w3.org/1999/xlink" xml:space="preserve" onload="init(evt)">
<style type="text/css"><![CDATA[
.edge:hover path { stroke: red; }
.edge:hover polygon { stroke: red; fill: red; }
]]></style>
<script type="text/javascript"><![CDATA[
var edges = document.getElementsByTagName('g');
if (edges && edges.length) {
  for (var i=0;i<edges.length;i++) {
    if (edges[i].id.substr(0,4)=='edge') {
      edges[i].setAttribute('class','edge');
    }
  }
}
]]></script>
        <defs>
                <circle id="rim" cx="0" cy="0" r="7"/>
                <circle id="rim2" cx="0" cy="0" r="3.5"/>
                <g id="zoomPlus">
                        <use xlink:href="#rim" fill="#404040">
                                <set attributeName="fill" to="#808080" begin="zoomplus.mouseover" end="zoomplus.mouseout"/>
                        </use>
                        <path d="M-4,0h8M0,-4v8" fill="none" stroke="white" stroke-width="1.5" pointer-events="none"/>
                </g>
                <g id="zoomMin">
                        <use xlink:href="#rim" fill="#404040">
                                <set attributeName="fill" to="#808080" begin="zoomminus.mouseover" end="zoomminus.mouseout"/>
                        </use>
                        <path d="M-4,0h8" fill="none" stroke="white" stroke-width="1.5" pointer-events="none"/>
                </g>
                <g id="dirArrow">
                        <path fill="none" stroke="white" stroke-width="1.5" d="M0,-3.0v7 M-2.5,-0.5L0,-3.0L2.5,-0.5"/>
                </g>
               <g id="resetDef">
                       <use xlink:href="#rim2" fill="#404040">
                               <set attributeName="fill" to="#808080" begin="reset.mouseover" end="reset.mouseout"/>
                       </use>
               </g>
        </defs>

<script type="text/javascript">
var viewWidth = 1349;
var viewHeight = 226;
var sectionId = 'dynsection-0';
</script>
<script xlink:href="svgpan.js"/>
<svg id="graph" class="graph">
<g id="viewport">
<title>Item</title>
<!-- Node0 -->
<g id="node1" class="node"><title>Node0</title>
<polygon fill="#bfbfbf" stroke="black" points="624,-116.5 624,-217.5 701,-217.5 701,-116.5 624,-116.5"/>
<text text-anchor="middle" x="662.5" y="-205.5" font-family="Helvetica,sans-Serif" font-size="10.00">Item</text>
<polyline fill="none" stroke="black" points="624,-198.5 701,-198.5 "/>
<text text-anchor="start" x="632" y="-186.5" font-family="Helvetica,sans-Serif" font-size="10.00">+ Name</text>
<text text-anchor="start" x="632" y="-175.5" font-family="Helvetica,sans-Serif" font-size="10.00">+ Desc</text>
<text text-anchor="start" x="632" y="-164.5" font-family="Helvetica,sans-Serif" font-size="10.00"># name</text>
<text text-anchor="start" x="632" y="-153.5" font-family="Helvetica,sans-Serif" font-size="10.00"># desc</text>
<polyline fill="none" stroke="black" points="624,-146.5 701,-146.5 "/>
<text text-anchor="start" x="632" y="-134.5" font-family="Helvetica,sans-Serif" font-size="10.00">+ applyBuffs()</text>
<text text-anchor="start" x="632" y="-123.5" font-family="Helvetica,sans-Serif" font-size="10.00">+ revertBuffs()</text>
</g>
<!-- Node1 -->
<g id="node2" class="node"><title>Node1</title>
<g id="a_node2"><a xlink:href="class_armour.html" target="_top" xlink:title="An item that increases a player&#39;s attack stat by 2 and defence stat by 3 ">
<polygon fill="none" stroke="black" points="0,-0.5 0,-79.5 77,-79.5 77,-0.5 0,-0.5"/>
<text text-anchor="middle" x="38.5" y="-67.5" font-family="Helvetica,sans-Serif" font-size="10.00">Armour</text>
<polyline fill="none" stroke="black" points="0,-60.5 77,-60.5 "/>
<text text-anchor="middle" x="38.5" y="-48.5" font-family="Helvetica,sans-Serif" font-size="10.00"> </text>
<polyline fill="none" stroke="black" points="0,-41.5 77,-41.5 "/>
<text text-anchor="start" x="8" y="-29.5" font-family="Helvetica,sans-Serif" font-size="10.00">+ Armour()</text>
<text text-anchor="start" x="8" y="-18.5" font-family="Helvetica,sans-Serif" font-size="10.00">+ applyBuffs()</text>
<text text-anchor="start" x="8" y="-7.5" font-family="Helvetica,sans-Serif" font-size="10.00">+ revertBuffs()</text>
</a>
</g>
</g>
<!-- Node0&#45;&gt;Node1 -->
<g id="edge1" class="edge"><title>Node0&#45;&gt;Node1</title>
<path fill="none" stroke="midnightblue" d="M613.821,-162.131C492.597,-151.962 180.176,-122.314 85.5,-80 82.6927,-78.7453 79.9183,-77.2745 77.2054,-75.6525"/>
<polygon fill="none" stroke="midnightblue" points="613.668,-165.631 623.923,-162.971 614.248,-158.655 613.668,-165.631"/>
</g>
<!-- Node2 -->
<g id="node3" class="node"><title>Node2</title>
<g id="a_node3"><a xlink:href="class_diamond_shield.html" target="_top" xlink:title="An item that increases a player&#39;s defence stat by 10 ">
<polygon fill="none" stroke="black" points="95,-0.5 95,-79.5 192,-79.5 192,-0.5 95,-0.5"/>
<text text-anchor="middle" x="143.5" y="-67.5" font-family="Helvetica,sans-Serif" font-size="10.00">DiamondShield</text>
<polyline fill="none" stroke="black" points="95,-60.5 192,-60.5 "/>
<text text-anchor="middle" x="143.5" y="-48.5" font-family="Helvetica,sans-Serif" font-size="10.00"> </text>
<polyline fill="none" stroke="black" points="95,-41.5 192,-41.5 "/>
<text text-anchor="start" x="103" y="-29.5" font-family="Helvetica,sans-Serif" font-size="10.00">+ DiamondShield()</text>
<text text-anchor="start" x="103" y="-18.5" font-family="Helvetica,sans-Serif" font-size="10.00">+ applyBuffs()</text>
<text text-anchor="start" x="103" y="-7.5" font-family="Helvetica,sans-Serif" font-size="10.00">+ revertBuffs()</text>
</a>
</g>
</g>
<!-- Node0&#45;&gt;Node2 -->
<g id="edge2" class="edge"><title>Node0&#45;&gt;Node2</title>
<path fill="none" stroke="midnightblue" d="M613.981,-163.409C527.915,-157.424 344.155,-138.339 201.5,-80 198.355,-78.7139 195.205,-77.2427 192.087,-75.642"/>
<polygon fill="none" stroke="midnightblue" points="613.773,-166.903 623.983,-164.076 614.238,-159.918 613.773,-166.903"/>
</g>
<!-- Node3 -->
<g id="node4" class="node"><title>Node3</title>
<g id="a_node4"><a xlink:href="class_golden_armour.html" target="_top" xlink:title="An item that increases a player&#39;s attack stat by 5 and defence stat by 7 ">
<polygon fill="none" stroke="black" points="210.5,-0.5 210.5,-79.5 304.5,-79.5 304.5,-0.5 210.5,-0.5"/>
<text text-anchor="middle" x="257.5" y="-67.5" font-family="Helvetica,sans-Serif" font-size="10.00">GoldenArmour</text>
<polyline fill="none" stroke="black" points="210.5,-60.5 304.5,-60.5 "/>
<text text-anchor="middle" x="257.5" y="-48.5" font-family="Helvetica,sans-Serif" font-size="10.00"> </text>
<polyline fill="none" stroke="black" points="210.5,-41.5 304.5,-41.5 "/>
<text text-anchor="start" x="218.5" y="-29.5" font-family="Helvetica,sans-Serif" font-size="10.00">+ GoldenArmour()</text>
<text text-anchor="start" x="218.5" y="-18.5" font-family="Helvetica,sans-Serif" font-size="10.00">+ applyBuffs()</text>
<text text-anchor="start" x="218.5" y="-7.5" font-family="Helvetica,sans-Serif" font-size="10.00">+ revertBuffs()</text>
</a>
</g>
</g>
<!-- Node0&#45;&gt;Node3 -->
<g id="edge3" class="edge"><title>Node0&#45;&gt;Node3</title>
<path fill="none" stroke="midnightblue" d="M613.631,-159.727C544.395,-149.576 414.893,-125.884 313.5,-80 310.586,-78.6811 307.663,-77.2067 304.767,-75.6241"/>
<polygon fill="none" stroke="midnightblue" points="613.411,-163.231 623.806,-161.185 614.403,-156.302 613.411,-163.231"/>
</g>
<!-- Node4 -->
<g id="node5" class="node"><title>Node4</title>
<g id="a_node5"><a xlink:href="class_hammer.html" target="_top" xlink:title="An item that increases a player&#39;s attack stat by 5 ">
<polygon fill="none" stroke="black" points="323,-0.5 323,-79.5 400,-79.5 400,-0.5 323,-0.5"/>
<text text-anchor="middle" x="361.5" y="-67.5" font-family="Helvetica,sans-Serif" font-size="10.00">Hammer</text>
<polyline fill="none" stroke="black" points="323,-60.5 400,-60.5 "/>
<text text-anchor="middle" x="361.5" y="-48.5" font-family="Helvetica,sans-Serif" font-size="10.00"> </text>
<polyline fill="none" stroke="black" points="323,-41.5 400,-41.5 "/>
<text text-anchor="start" x="331" y="-29.5" font-family="Helvetica,sans-Serif" font-size="10.00">+ Hammer()</text>
<text text-anchor="start" x="331" y="-18.5" font-family="Helvetica,sans-Serif" font-size="10.00">+ applyBuffs()</text>
<text text-anchor="start" x="331" y="-7.5" font-family="Helvetica,sans-Serif" font-size="10.00">+ revertBuffs()</text>
</a>
</g>
</g>
<!-- Node0&#45;&gt;Node4 -->
<g id="edge4" class="edge"><title>Node0&#45;&gt;Node4</title>
<path fill="none" stroke="midnightblue" d="M613.88,-155.189C561.07,-142.186 475.317,-117.336 408.5,-80 405.723,-78.4484 402.952,-76.7248 400.223,-74.891"/>
<polygon fill="none" stroke="midnightblue" points="613.124,-158.607 623.667,-157.555 614.769,-151.803 613.124,-158.607"/>
</g>
<!-- Node5 -->
<g id="node6" class="node"><title>Node5</title>
<g id="a_node6"><a xlink:href="class_magic_amulet.html" target="_top" xlink:title="An item that increases a player&#39;s maximum magic points by 3 ">
<polygon fill="none" stroke="black" points="418,-0.5 418,-79.5 507,-79.5 507,-0.5 418,-0.5"/>
<text text-anchor="middle" x="462.5" y="-67.5" font-family="Helvetica,sans-Serif" font-size="10.00">MagicAmulet</text>
<polyline fill="none" stroke="black" points="418,-60.5 507,-60.5 "/>
<text text-anchor="middle" x="462.5" y="-48.5" font-family="Helvetica,sans-Serif" font-size="10.00"> </text>
<polyline fill="none" stroke="black" points="418,-41.5 507,-41.5 "/>
<text text-anchor="start" x="426" y="-29.5" font-family="Helvetica,sans-Serif" font-size="10.00">+ MagicAmulet()</text>
<text text-anchor="start" x="426" y="-18.5" font-family="Helvetica,sans-Serif" font-size="10.00">+ applyBuffs()</text>
<text text-anchor="start" x="426" y="-7.5" font-family="Helvetica,sans-Serif" font-size="10.00">+ revertBuffs()</text>
</a>
</g>
</g>
<!-- Node0&#45;&gt;Node5 -->
<g id="edge5" class="edge"><title>Node0&#45;&gt;Node5</title>
<path fill="none" stroke="midnightblue" d="M615,-139.89C585.828,-123.444 547.96,-101.353 515.5,-80 512.732,-78.1792 509.911,-76.2705 507.085,-74.3172"/>
<polygon fill="none" stroke="midnightblue" points="613.325,-142.963 623.758,-144.805 616.75,-136.859 613.325,-142.963"/>
</g>
<!-- Node6 -->
<g id="node7" class="node"><title>Node6</title>
<g id="a_node7"><a xlink:href="class_magic_hat.html" target="_top" xlink:title="An item that increases a player&#39;s maximum magic points by 6 ">
<polygon fill="none" stroke="black" points="525,-0.5 525,-79.5 602,-79.5 602,-0.5 525,-0.5"/>
<text text-anchor="middle" x="563.5" y="-67.5" font-family="Helvetica,sans-Serif" font-size="10.00">MagicHat</text>
<polyline fill="none" stroke="black" points="525,-60.5 602,-60.5 "/>
<text text-anchor="middle" x="563.5" y="-48.5" font-family="Helvetica,sans-Serif" font-size="10.00"> </text>
<polyline fill="none" stroke="black" points="525,-41.5 602,-41.5 "/>
<text text-anchor="start" x="533" y="-29.5" font-family="Helvetica,sans-Serif" font-size="10.00">+ MagicHat()</text>
<text text-anchor="start" x="533" y="-18.5" font-family="Helvetica,sans-Serif" font-size="10.00">+ applyBuffs()</text>
<text text-anchor="start" x="533" y="-7.5" font-family="Helvetica,sans-Serif" font-size="10.00">+ revertBuffs()</text>
</a>
</g>
</g>
<!-- Node0&#45;&gt;Node6 -->
<g id="edge6" class="edge"><title>Node0&#45;&gt;Node6</title>
<path fill="none" stroke="midnightblue" d="M617.622,-109.335C609.68,-99.3083 601.579,-89.079 594.144,-79.6921"/>
<polygon fill="none" stroke="midnightblue" points="614.988,-111.648 623.941,-117.314 620.476,-107.302 614.988,-111.648"/>
</g>
<!-- Node7 -->
<g id="node8" class="node"><title>Node7</title>
<g id="a_node8"><a xlink:href="class_magic_sword.html" target="_top" xlink:title="An item that increases a player&#39;s attack stat by 25 ">
<polygon fill="none" stroke="black" points="620,-0.5 620,-79.5 705,-79.5 705,-0.5 620,-0.5"/>
<text text-anchor="middle" x="662.5" y="-67.5" font-family="Helvetica,sans-Serif" font-size="10.00">MagicSword</text>
<polyline fill="none" stroke="black" points="620,-60.5 705,-60.5 "/>
<text text-anchor="middle" x="662.5" y="-48.5" font-family="Helvetica,sans-Serif" font-size="10.00"> </text>
<polyline fill="none" stroke="black" points="620,-41.5 705,-41.5 "/>
<text text-anchor="start" x="628" y="-29.5" font-family="Helvetica,sans-Serif" font-size="10.00">+ MagicSword()</text>
<text text-anchor="start" x="628" y="-18.5" font-family="Helvetica,sans-Serif" font-size="10.00">+ applyBuffs()</text>
<text text-anchor="start" x="628" y="-7.5" font-family="Helvetica,sans-Serif" font-size="10.00">+ revertBuffs()</text>
</a>
</g>
</g>
<!-- Node0&#45;&gt;Node7 -->
<g id="edge7" class="edge"><title>Node0&#45;&gt;Node7</title>
<path fill="none" stroke="midnightblue" d="M662.5,-106.186C662.5,-97.2207 662.5,-88.1815 662.5,-79.8082"/>
<polygon fill="none" stroke="midnightblue" points="659,-106.237 662.5,-116.238 666,-106.238 659,-106.237"/>
</g>
<!-- Node8 -->
<g id="node9" class="node"><title>Node8</title>
<g id="a_node9"><a xlink:href="class_nikes_premium_shoes.html" target="_top" xlink:title="An item that increases a player&#39;s speed stat by 10 ">
<polygon fill="none" stroke="black" points="723,-0.5 723,-79.5 846,-79.5 846,-0.5 723,-0.5"/>
<text text-anchor="middle" x="784.5" y="-67.5" font-family="Helvetica,sans-Serif" font-size="10.00">NikesPremiumShoes</text>
<polyline fill="none" stroke="black" points="723,-60.5 846,-60.5 "/>
<text text-anchor="middle" x="784.5" y="-48.5" font-family="Helvetica,sans-Serif" font-size="10.00"> </text>
<polyline fill="none" stroke="black" points="723,-41.5 846,-41.5 "/>
<text text-anchor="start" x="731" y="-29.5" font-family="Helvetica,sans-Serif" font-size="10.00">+ NikesPremiumShoes()</text>
<text text-anchor="start" x="731" y="-18.5" font-family="Helvetica,sans-Serif" font-size="10.00">+ applyBuffs()</text>
<text text-anchor="start" x="731" y="-7.5" font-family="Helvetica,sans-Serif" font-size="10.00">+ revertBuffs()</text>
</a>
</g>
</g>
<!-- Node0&#45;&gt;Node8 -->
<g id="edge8" class="edge"><title>Node0&#45;&gt;Node8</title>
<path fill="none" stroke="midnightblue" d="M708.389,-118.982C720.977,-106.085 734.481,-92.2495 746.567,-79.8656"/>
<polygon fill="none" stroke="midnightblue" points="705.582,-116.848 701.102,-126.449 710.591,-121.737 705.582,-116.848"/>
</g>
<!-- Node9 -->
<g id="node10" class="node"><title>Node9</title>
<g id="a_node10"><a xlink:href="class_rabbit_carcass.html" target="_top" xlink:title="An item that increases a player&#39;s luck stat by 10 ">
<polygon fill="none" stroke="black" points="864,-0.5 864,-79.5 959,-79.5 959,-0.5 864,-0.5"/>
<text text-anchor="middle" x="911.5" y="-67.5" font-family="Helvetica,sans-Serif" font-size="10.00">RabbitCarcass</text>
<polyline fill="none" stroke="black" points="864,-60.5 959,-60.5 "/>
<text text-anchor="middle" x="911.5" y="-48.5" font-family="Helvetica,sans-Serif" font-size="10.00"> </text>
<polyline fill="none" stroke="black" points="864,-41.5 959,-41.5 "/>
<text text-anchor="start" x="872" y="-29.5" font-family="Helvetica,sans-Serif" font-size="10.00">+ RabbitCarcass()</text>
<text text-anchor="start" x="872" y="-18.5" font-family="Helvetica,sans-Serif" font-size="10.00">+ applyBuffs()</text>
<text text-anchor="start" x="872" y="-7.5" font-family="Helvetica,sans-Serif" font-size="10.00">+ revertBuffs()</text>
</a>
</g>
</g>
<!-- Node0&#45;&gt;Node9 -->
<g id="edge9" class="edge"><title>Node0&#45;&gt;Node9</title>
<path fill="none" stroke="midnightblue" d="M710.729,-147.48C750.531,-131.5 807.983,-106.814 855.5,-80 858.286,-78.4279 861.107,-76.7536 863.925,-75.0162"/>
<polygon fill="none" stroke="midnightblue" points="709.254,-144.3 701.259,-151.252 711.844,-150.803 709.254,-144.3"/>
</g>
<!-- Node10 -->
<g id="node11" class="node"><title>Node10</title>
<g id="a_node11"><a xlink:href="class_rabbit_foot.html" target="_top" xlink:title="An item that increases a player&#39;s luck stat by 5 ">
<polygon fill="none" stroke="black" points="977,-0.5 977,-79.5 1056,-79.5 1056,-0.5 977,-0.5"/>
<text text-anchor="middle" x="1016.5" y="-67.5" font-family="Helvetica,sans-Serif" font-size="10.00">RabbitFoot</text>
<polyline fill="none" stroke="black" points="977,-60.5 1056,-60.5 "/>
<text text-anchor="middle" x="1016.5" y="-48.5" font-family="Helvetica,sans-Serif" font-size="10.00"> </text>
<polyline fill="none" stroke="black" points="977,-41.5 1056,-41.5 "/>
<text text-anchor="start" x="985" y="-29.5" font-family="Helvetica,sans-Serif" font-size="10.00">+ RabbitFoot()</text>
<text text-anchor="start" x="985" y="-18.5" font-family="Helvetica,sans-Serif" font-size="10.00">+ applyBuffs()</text>
<text text-anchor="start" x="985" y="-7.5" font-family="Helvetica,sans-Serif" font-size="10.00">+ revertBuffs()</text>
</a>
</g>
</g>
<!-- Node0&#45;&gt;Node10 -->
<g id="edge10" class="edge"><title>Node0&#45;&gt;Node10</title>
<path fill="none" stroke="midnightblue" d="M711.033,-158.66C773.35,-147.855 883.568,-124.016 968.5,-80 971.265,-78.5672 974.019,-76.9586 976.729,-75.2323"/>
<polygon fill="none" stroke="midnightblue" points="710.359,-155.224 701.084,-160.344 711.528,-162.126 710.359,-155.224"/>
</g>
<!-- Node11 -->
<g id="node12" class="node"><title>Node11</title>
<g id="a_node12"><a xlink:href="class_shield.html" target="_top" xlink:title="An item that increases a player&#39;s defence stat by 5 ">
<polygon fill="none" stroke="black" points="1074,-0.5 1074,-79.5 1151,-79.5 1151,-0.5 1074,-0.5"/>
<text text-anchor="middle" x="1112.5" y="-67.5" font-family="Helvetica,sans-Serif" font-size="10.00">Shield</text>
<polyline fill="none" stroke="black" points="1074,-60.5 1151,-60.5 "/>
<text text-anchor="middle" x="1112.5" y="-48.5" font-family="Helvetica,sans-Serif" font-size="10.00"> </text>
<polyline fill="none" stroke="black" points="1074,-41.5 1151,-41.5 "/>
<text text-anchor="start" x="1082" y="-29.5" font-family="Helvetica,sans-Serif" font-size="10.00">+ Shield()</text>
<text text-anchor="start" x="1082" y="-18.5" font-family="Helvetica,sans-Serif" font-size="10.00">+ applyBuffs()</text>
<text text-anchor="start" x="1082" y="-7.5" font-family="Helvetica,sans-Serif" font-size="10.00">+ revertBuffs()</text>
</a>
</g>
</g>
<!-- Node0&#45;&gt;Node11 -->
<g id="edge11" class="edge"><title>Node0&#45;&gt;Node11</title>
<path fill="none" stroke="midnightblue" d="M711.192,-163.118C789.481,-156.879 946.598,-137.648 1065.5,-80 1068.36,-78.6123 1071.2,-77.0142 1073.98,-75.2742"/>
<polygon fill="none" stroke="midnightblue" points="710.84,-159.635 701.134,-163.883 711.371,-166.615 710.84,-159.635"/>
</g>
<!-- Node12 -->
<g id="node13" class="node"><title>Node12</title>
<g id="a_node13"><a xlink:href="class_sword.html" target="_top" xlink:title="An item that increases a player&#39;s attack stat by 10 ">
<polygon fill="none" stroke="black" points="1169,-0.5 1169,-79.5 1246,-79.5 1246,-0.5 1169,-0.5"/>
<text text-anchor="middle" x="1207.5" y="-67.5" font-family="Helvetica,sans-Serif" font-size="10.00">Sword</text>
<polyline fill="none" stroke="black" points="1169,-60.5 1246,-60.5 "/>
<text text-anchor="middle" x="1207.5" y="-48.5" font-family="Helvetica,sans-Serif" font-size="10.00"> </text>
<polyline fill="none" stroke="black" points="1169,-41.5 1246,-41.5 "/>
<text text-anchor="start" x="1177" y="-29.5" font-family="Helvetica,sans-Serif" font-size="10.00">+ Sword()</text>
<text text-anchor="start" x="1177" y="-18.5" font-family="Helvetica,sans-Serif" font-size="10.00">+ applyBuffs()</text>
<text text-anchor="start" x="1177" y="-7.5" font-family="Helvetica,sans-Serif" font-size="10.00">+ revertBuffs()</text>
</a>
</g>
</g>
<!-- Node0&#45;&gt;Node12 -->
<g id="edge12" class="edge"><title>Node0&#45;&gt;Node12</title>
<path fill="none" stroke="midnightblue" d="M711.141,-165.793C803.162,-163.673 1007.24,-150.628 1160.5,-80 1163.29,-78.7131 1166.06,-77.2172 1168.76,-75.5764"/>
<polygon fill="none" stroke="midnightblue" points="710.939,-162.296 701.01,-165.992 711.077,-169.295 710.939,-162.296"/>
</g>
<!-- Node13 -->
<g id="node14" class="node"><title>Node13</title>
<g id="a_node14"><a xlink:href="class_trainers.html" target="_top" xlink:title="An item that increases a player&#39;s speed stat by 5 ">
<polygon fill="none" stroke="black" points="1264,-0.5 1264,-79.5 1341,-79.5 1341,-0.5 1264,-0.5"/>
<text text-anchor="middle" x="1302.5" y="-67.5" font-family="Helvetica,sans-Serif" font-size="10.00">Trainers</text>
<polyline fill="none" stroke="black" points="1264,-60.5 1341,-60.5 "/>
<text text-anchor="middle" x="1302.5" y="-48.5" font-family="Helvetica,sans-Serif" font-size="10.00"> </text>
<polyline fill="none" stroke="black" points="1264,-41.5 1341,-41.5 "/>
<text text-anchor="start" x="1272" y="-29.5" font-family="Helvetica,sans-Serif" font-size="10.00">+ Trainers()</text>
<text text-anchor="start" x="1272" y="-18.5" font-family="Helvetica,sans-Serif" font-size="10.00">+ applyBuffs()</text>
<text text-anchor="start" x="1272" y="-7.5" font-family="Helvetica,sans-Serif" font-size="10.00">+ revertBuffs()</text>
</a>
</g>
</g>
<!-- Node0&#45;&gt;Node13 -->
<g id="edge13" class="edge"><title>Node0&#45;&gt;Node13</title>
<path fill="none" stroke="midnightblue" d="M711.642,-162.316C835.578,-152.482 1157.94,-123.373 1255.5,-80 1258.31,-78.7509 1261.09,-77.2843 1263.8,-75.6655"/>
<polygon fill="none" stroke="midnightblue" points="711.016,-158.855 701.321,-163.127 711.565,-165.833 711.016,-158.855"/>
</g>
</g>
</svg>
        <g id="navigator" transform="translate(0 0)" fill="#404254">
                <rect fill="#f2f5e9" fill-opacity="0.5" stroke="#606060" stroke-width=".5" x="0" y="0" width="60" height="60"/>
                <use id="zoomplus" xlink:href="#zoomPlus" x="17" y="9" onmousedown="handleZoom(evt,'in')"/>
                <use id="zoomminus" xlink:href="#zoomMin" x="42" y="9" onmousedown="handleZoom(evt,'out')"/>
                <use id="reset" xlink:href="#resetDef" x="30" y="36" onmousedown="handleReset()"/>
                <g id="arrowUp" xlink:href="#dirArrow" transform="translate(30 24)" onmousedown="handlePan(0,-1)">
                  <use xlink:href="#rim" fill="#404040">
                        <set attributeName="fill" to="#808080" begin="arrowUp.mouseover" end="arrowUp.mouseout"/>
                  </use>
                  <path fill="none" stroke="white" stroke-width="1.5" d="M0,-3.0v7 M-2.5,-0.5L0,-3.0L2.5,-0.5"/>
                </g>
                <g id="arrowRight" xlink:href="#dirArrow" transform="rotate(90) translate(36 -43)" onmousedown="handlePan(1,0)">
                  <use xlink:href="#rim" fill="#404040">
                        <set attributeName="fill" to="#808080" begin="arrowRight.mouseover" end="arrowRight.mouseout"/>
                  </use>
                  <path fill="none" stroke="white" stroke-width="1.5" d="M0,-3.0v7 M-2.5,-0.5L0,-3.0L2.5,-0.5"/>
                </g>
                <g id="arrowDown" xlink:href="#dirArrow" transform="rotate(180) translate(-30 -48)" onmousedown="handlePan(0,1)">
                  <use xlink:href="#rim" fill="#404040">
                        <set attributeName="fill" to="#808080" begin="arrowDown.mouseover" end="arrowDown.mouseout"/>
                  </use>
                  <path fill="none" stroke="white" stroke-width="1.5" d="M0,-3.0v7 M-2.5,-0.5L0,-3.0L2.5,-0.5"/>
                </g>
                <g id="arrowLeft" xlink:href="#dirArrow" transform="rotate(270) translate(-36 17)" onmousedown="handlePan(-1,0)">
                  <use xlink:href="#rim" fill="#404040">
                        <set attributeName="fill" to="#808080" begin="arrowLeft.mouseover" end="arrowLeft.mouseout"/>
                  </use>
                  <path fill="none" stroke="white" stroke-width="1.5" d="M0,-3.0v7 M-2.5,-0.5L0,-3.0L2.5,-0.5"/>
                </g>
        </g>
        <svg viewBox="0 0 15 15" width="100%" height="30px" preserveAspectRatio="xMaxYMin meet">
         <g id="arrow_out" transform="scale(0.3 0.3)">
          <a xlink:href="class_item__inherit__graph_org.svg" target="_base">
           <rect id="button" ry="5" rx="5" y="6" x="6" height="38" width="38"
                fill="#f2f5e9" fill-opacity="0.5" stroke="#606060" stroke-width="1.0"/>
           <path id="arrow"
             d="M 11.500037,31.436501 C 11.940474,20.09759 22.043105,11.32322 32.158766,21.979434 L 37.068811,17.246167 C 37.068811,17.246167 37.088388,32 37.088388,32 L 22.160133,31.978069 C 22.160133,31.978069 26.997745,27.140456 26.997745,27.140456 C 18.528582,18.264221 13.291696,25.230495 11.500037,31.436501 z"
             style="fill:#404040;"/>
          </a>
         </g>
        </svg>
</svg>
