<?xml version="1.0" encoding="UTF-8" standalone="no"?>
<!DOCTYPE svg PUBLIC "-//W3C//DTD SVG 1.1//EN"
 "http://www.w3.org/Graphics/SVG/1.1/DTD/svg11.dtd">
<!-- Generated by graphviz version 2.38.0 (20140413.2041)
 -->
<!-- Title: DataManager Pages: 1 -->
<!--zoomable 1462 -->
<svg id="main" version="1.1" xmlns="http://www.w3.org/2000/svg" xmlns:xlink="http://www.w3.org/1999/xlink" xml:space="preserve" onload="init(evt)">
<style type="text/css"><![CDATA[
.edge:hover path { stroke: red; }
.edge:hover polygon { stroke: red; fill: red; }
]]></style>
<script type="text/javascript"><![CDATA[
var edges = document.getElementsByTagName('g');
if (edges && edges.length) {
  for (var i=0;i<edges.length;i++) {
    if (edges[i].id.substr(0,4)=='edge') {
      edges[i].setAttribute('class','edge');
    }
  }
}
]]></script>
        <defs>
                <circle id="rim" cx="0" cy="0" r="7"/>
                <circle id="rim2" cx="0" cy="0" r="3.5"/>
                <g id="zoomPlus">
                        <use xlink:href="#rim" fill="#404040">
                                <set attributeName="fill" to="#808080" begin="zoomplus.mouseover" end="zoomplus.mouseout"/>
                        </use>
                        <path d="M-4,0h8M0,-4v8" fill="none" stroke="white" stroke-width="1.5" pointer-events="none"/>
                </g>
                <g id="zoomMin">
                        <use xlink:href="#rim" fill="#404040">
                                <set attributeName="fill" to="#808080" begin="zoomminus.mouseover" end="zoomminus.mouseout"/>
                        </use>
                        <path d="M-4,0h8" fill="none" stroke="white" stroke-width="1.5" pointer-events="none"/>
                </g>
                <g id="dirArrow">
                        <path fill="none" stroke="white" stroke-width="1.5" d="M0,-3.0v7 M-2.5,-0.5L0,-3.0L2.5,-0.5"/>
                </g>
               <g id="resetDef">
                       <use xlink:href="#rim2" fill="#404040">
                               <set attributeName="fill" to="#808080" begin="reset.mouseover" end="reset.mouseout"/>
                       </use>
               </g>
        </defs>

<script type="text/javascript">
var viewWidth = 697;
var viewHeight = 1462;
var sectionId = 'dynsection-0';
</script>
<script xlink:href="svgpan.js"/>
<svg id="graph" class="graph">
<g id="viewport">
<title>DataManager</title>
<!-- Node1 -->
<g id="node1" class="node"><title>Node1</title>
<polygon fill="#bfbfbf" stroke="black" points="37.5,-685.5 37.5,-1028.5 189.5,-1028.5 189.5,-685.5 37.5,-685.5"/>
<text text-anchor="middle" x="113.5" y="-1016.5" font-family="Helvetica,sans-Serif" font-size="10.00">DataManager</text>
<polyline fill="none" stroke="black" points="37.5,-1009.5 189.5,-1009.5 "/>
<text text-anchor="start" x="45.5" y="-997.5" font-family="Helvetica,sans-Serif" font-size="10.00">+ Players</text>
<text text-anchor="start" x="45.5" y="-986.5" font-family="Helvetica,sans-Serif" font-size="10.00">+ Items</text>
<text text-anchor="start" x="45.5" y="-975.5" font-family="Helvetica,sans-Serif" font-size="10.00">+ Money</text>
<polyline fill="none" stroke="black" points="37.5,-968.5 189.5,-968.5 "/>
<text text-anchor="start" x="45.5" y="-956.5" font-family="Helvetica,sans-Serif" font-size="10.00">+ DataManager()</text>
<text text-anchor="start" x="45.5" y="-945.5" font-family="Helvetica,sans-Serif" font-size="10.00">+ DataManager()</text>
<text text-anchor="start" x="45.5" y="-934.5" font-family="Helvetica,sans-Serif" font-size="10.00">+ getFirstPlayer()</text>
<text text-anchor="start" x="45.5" y="-923.5" font-family="Helvetica,sans-Serif" font-size="10.00">+ getPlayerIndex()</text>
<text text-anchor="start" x="45.5" y="-912.5" font-family="Helvetica,sans-Serif" font-size="10.00">+ getAlivePlayer()</text>
<text text-anchor="start" x="45.5" y="-901.5" font-family="Helvetica,sans-Serif" font-size="10.00">+ playersAlive()</text>
<text text-anchor="start" x="45.5" y="-890.5" font-family="Helvetica,sans-Serif" font-size="10.00">+ addPlayer()</text>
<text text-anchor="start" x="45.5" y="-879.5" font-family="Helvetica,sans-Serif" font-size="10.00">+ swapPlayers()</text>
<text text-anchor="start" x="45.5" y="-868.5" font-family="Helvetica,sans-Serif" font-size="10.00">+ addItem()</text>
<text text-anchor="start" x="45.5" y="-857.5" font-family="Helvetica,sans-Serif" font-size="10.00">+ countItems()</text>
<text text-anchor="start" x="45.5" y="-846.5" font-family="Helvetica,sans-Serif" font-size="10.00">+ giveExpToAll()</text>
<text text-anchor="start" x="45.5" y="-835.5" font-family="Helvetica,sans-Serif" font-size="10.00">+ Save()</text>
<text text-anchor="start" x="45.5" y="-824.5" font-family="Helvetica,sans-Serif" font-size="10.00">+ Load()</text>
<text text-anchor="start" x="45.5" y="-813.5" font-family="Helvetica,sans-Serif" font-size="10.00">+ PlayerToSerializable()</text>
<text text-anchor="start" x="45.5" y="-802.5" font-family="Helvetica,sans-Serif" font-size="10.00">+ SerializableToPLayer()</text>
<text text-anchor="start" x="45.5" y="-791.5" font-family="Helvetica,sans-Serif" font-size="10.00">+ ItemToSerializable()</text>
<text text-anchor="start" x="45.5" y="-780.5" font-family="Helvetica,sans-Serif" font-size="10.00">+ SerializableToItem()</text>
<text text-anchor="start" x="45.5" y="-769.5" font-family="Helvetica,sans-Serif" font-size="10.00">+ SpecialMoveToSerializable()</text>
<text text-anchor="start" x="45.5" y="-758.5" font-family="Helvetica,sans-Serif" font-size="10.00">+ SerializableToSpecialMove()</text>
<text text-anchor="start" x="45.5" y="-747.5" font-family="Helvetica,sans-Serif" font-size="10.00">+ ObjectsActiveToSerializable()</text>
<text text-anchor="start" x="45.5" y="-736.5" font-family="Helvetica,sans-Serif" font-size="10.00">+ SerializableToObjectsActive()</text>
<text text-anchor="start" x="45.5" y="-725.5" font-family="Helvetica,sans-Serif" font-size="10.00">+ Texture2DToSerializable()</text>
<text text-anchor="start" x="45.5" y="-714.5" font-family="Helvetica,sans-Serif" font-size="10.00">+ SerializableToTexture2D()</text>
<text text-anchor="start" x="45.5" y="-703.5" font-family="Helvetica,sans-Serif" font-size="10.00">+ VectorToSerializable()</text>
<text text-anchor="start" x="45.5" y="-692.5" font-family="Helvetica,sans-Serif" font-size="10.00">+ SerializableToVector()</text>
</g>
<!-- Node2 -->
<g id="node2" class="node"><title>Node2</title>
<g id="a_node2"><a xlink:href="class_item.html" target="_top" xlink:title="Abstract class for items that can be equipped to a player, increasing some of their stats ...">
<polygon fill="none" stroke="black" points="0,-1258.5 0,-1337.5 77,-1337.5 77,-1258.5 0,-1258.5"/>
<text text-anchor="middle" x="38.5" y="-1325.5" font-family="Helvetica,sans-Serif" font-size="10.00">Item</text>
<polyline fill="none" stroke="black" points="0,-1318.5 77,-1318.5 "/>
<text text-anchor="start" x="8" y="-1306.5" font-family="Helvetica,sans-Serif" font-size="10.00">+ Name</text>
<text text-anchor="start" x="8" y="-1295.5" font-family="Helvetica,sans-Serif" font-size="10.00">+ Desc</text>
<polyline fill="none" stroke="black" points="0,-1288.5 77,-1288.5 "/>
<text text-anchor="start" x="8" y="-1276.5" font-family="Helvetica,sans-Serif" font-size="10.00">+ applyBuffs()</text>
<text text-anchor="start" x="8" y="-1265.5" font-family="Helvetica,sans-Serif" font-size="10.00">+ revertBuffs()</text>
</a>
</g>
</g>
<!-- Node2&#45;&gt;Node1 -->
<g id="edge1" class="edge"><title>Node2&#45;&gt;Node1</title>
<path fill="none" stroke="#404040" d="M39.8795,-1258.43C41.9109,-1214.13 46.7083,-1139.4 57.5,-1076 59.4671,-1064.44 61.7423,-1052.6 64.2262,-1040.7"/>
<polygon fill="none" stroke="#404040" points="64.2644,-1040.52 61.6088,-1033.82 66.7761,-1028.79 69.4316,-1035.49 64.2644,-1040.52"/>
<text text-anchor="middle" x="73" y="-1135.5" font-family="Helvetica,sans-Serif" font-size="10.00"> &#45;items</text>
</g>
<!-- Node5 -->
<g id="node5" class="node"><title>Node5</title>
<g id="a_node5"><a xlink:href="class_player.html" target="_top" xlink:title="Defines a playable character for use in battle scenes">
<polygon fill="none" stroke="black" points="164.5,-1076.5 164.5,-1199.5 276.5,-1199.5 276.5,-1076.5 164.5,-1076.5"/>
<text text-anchor="middle" x="220.5" y="-1187.5" font-family="Helvetica,sans-Serif" font-size="10.00">Player</text>
<polyline fill="none" stroke="black" points="164.5,-1180.5 276.5,-1180.5 "/>
<text text-anchor="start" x="172.5" y="-1168.5" font-family="Helvetica,sans-Serif" font-size="10.00">+ Exp</text>
<text text-anchor="start" x="172.5" y="-1157.5" font-family="Helvetica,sans-Serif" font-size="10.00">+ Item</text>
<text text-anchor="start" x="172.5" y="-1146.5" font-family="Helvetica,sans-Serif" font-size="10.00">+ ExpToNextLevel</text>
<polyline fill="none" stroke="black" points="164.5,-1139.5 276.5,-1139.5 "/>
<text text-anchor="start" x="172.5" y="-1127.5" font-family="Helvetica,sans-Serif" font-size="10.00">+ Player()</text>
<text text-anchor="start" x="172.5" y="-1116.5" font-family="Helvetica,sans-Serif" font-size="10.00">+ gainExp()</text>
<text text-anchor="start" x="172.5" y="-1105.5" font-family="Helvetica,sans-Serif" font-size="10.00">+ levelUp()</text>
<text text-anchor="start" x="172.5" y="-1094.5" font-family="Helvetica,sans-Serif" font-size="10.00">+ Clone()</text>
<text text-anchor="start" x="172.5" y="-1083.5" font-family="Helvetica,sans-Serif" font-size="10.00">&#45; setExpToNextLevel()</text>
</a>
</g>
</g>
<!-- Node2&#45;&gt;Node5 -->
<g id="edge24" class="edge"><title>Node2&#45;&gt;Node5</title>
<path fill="none" stroke="#404040" d="M77.1416,-1263.58C98.7366,-1244.9 126.13,-1221.17 150.5,-1200 152.048,-1198.66 153.614,-1197.29 155.194,-1195.92"/>
<polygon fill="none" stroke="#404040" points="155.295,-1195.83 157.197,-1188.88 164.349,-1187.96 162.447,-1194.91 155.295,-1195.83"/>
<text text-anchor="middle" x="142" y="-1226.5" font-family="Helvetica,sans-Serif" font-size="10.00"> &#45;item</text>
</g>
<!-- Node3 -->
<g id="node3" class="node"><title>Node3</title>
<polygon fill="none" stroke="#bfbfbf" points="544,-1396.5 544,-1453.5 585,-1453.5 585,-1396.5 544,-1396.5"/>
<text text-anchor="middle" x="564.5" y="-1441.5" font-family="Helvetica,sans-Serif" font-size="10.00">string</text>
<polyline fill="none" stroke="#bfbfbf" points="544,-1434.5 585,-1434.5 "/>
<text text-anchor="middle" x="564.5" y="-1422.5" font-family="Helvetica,sans-Serif" font-size="10.00"> </text>
<polyline fill="none" stroke="#bfbfbf" points="544,-1415.5 585,-1415.5 "/>
<text text-anchor="middle" x="564.5" y="-1403.5" font-family="Helvetica,sans-Serif" font-size="10.00"> </text>
</g>
<!-- Node3&#45;&gt;Node2 -->
<g id="edge2" class="edge"><title>Node3&#45;&gt;Node2</title>
<path fill="none" stroke="#404040" d="M543.88,-1419.1C467.811,-1401.02 201.534,-1337.74 89.1523,-1311.04"/>
<polygon fill="none" stroke="#404040" points="88.8554,-1310.97 82.0931,-1313.47 77.1805,-1308.19 83.9428,-1305.69 88.8554,-1310.97"/>
<text text-anchor="middle" x="379.5" y="-1370" font-family="Helvetica,sans-Serif" font-size="10.00"> #desc</text>
<text text-anchor="middle" x="379.5" y="-1359" font-family="Helvetica,sans-Serif" font-size="10.00">#name</text>
</g>
<!-- Node6 -->
<g id="node6" class="node"><title>Node6</title>
<g id="a_node6"><a xlink:href="class_character.html" target="_top" xlink:title="Base abstract class for Enemy and Player to inherit from. Defines all shared variables, their constructor and their setters and getters ">
<polygon fill="none" stroke="black" points="371,-95.5 371,-273.5 466,-273.5 466,-95.5 371,-95.5"/>
<text text-anchor="middle" x="418.5" y="-261.5" font-family="Helvetica,sans-Serif" font-size="10.00">Character</text>
<polyline fill="none" stroke="black" points="371,-254.5 466,-254.5 "/>
<text text-anchor="start" x="379" y="-242.5" font-family="Helvetica,sans-Serif" font-size="10.00">+ Name</text>
<text text-anchor="start" x="379" y="-231.5" font-family="Helvetica,sans-Serif" font-size="10.00">+ Level</text>
<text text-anchor="start" x="379" y="-220.5" font-family="Helvetica,sans-Serif" font-size="10.00">+ Health</text>
<text text-anchor="start" x="379" y="-209.5" font-family="Helvetica,sans-Serif" font-size="10.00">+ Attack</text>
<text text-anchor="start" x="379" y="-198.5" font-family="Helvetica,sans-Serif" font-size="10.00">+ Defence</text>
<text text-anchor="start" x="379" y="-187.5" font-family="Helvetica,sans-Serif" font-size="10.00">+ MaximumMagic</text>
<text text-anchor="start" x="379" y="-176.5" font-family="Helvetica,sans-Serif" font-size="10.00">+ Magic</text>
<text text-anchor="start" x="379" y="-165.5" font-family="Helvetica,sans-Serif" font-size="10.00">+ Luck</text>
<text text-anchor="start" x="379" y="-154.5" font-family="Helvetica,sans-Serif" font-size="10.00">+ Speed</text>
<text text-anchor="start" x="379" y="-143.5" font-family="Helvetica,sans-Serif" font-size="10.00">+ Special1</text>
<text text-anchor="start" x="379" y="-132.5" font-family="Helvetica,sans-Serif" font-size="10.00">+ Special2</text>
<text text-anchor="start" x="379" y="-121.5" font-family="Helvetica,sans-Serif" font-size="10.00">+ Image</text>
<polyline fill="none" stroke="black" points="371,-114.5 466,-114.5 "/>
<text text-anchor="start" x="379" y="-102.5" font-family="Helvetica,sans-Serif" font-size="10.00"># Character()</text>
</a>
</g>
</g>
<!-- Node3&#45;&gt;Node6 -->
<g id="edge6" class="edge"><title>Node3&#45;&gt;Node6</title>
<path fill="none" stroke="#404040" d="M585.149,-1409.21C611.998,-1388.08 655.5,-1346.51 655.5,-1299 655.5,-1299 655.5,-1299 655.5,-382 655.5,-289.726 547.718,-232.542 477.524,-205.085"/>
<polygon fill="none" stroke="#404040" points="477.394,-205.036 470.364,-206.645 466.175,-200.775 473.205,-199.166 477.394,-205.036"/>
<text text-anchor="middle" x="672" y="-854.5" font-family="Helvetica,sans-Serif" font-size="10.00"> #name</text>
</g>
<!-- Node7 -->
<g id="node7" class="node"><title>Node7</title>
<g id="a_node7"><a xlink:href="class_special_move.html" target="_top" xlink:title="Special move abstract base class that expands upon CharacterMove, adding magic properties ...">
<polygon fill="none" stroke="black" points="467.5,-332.5 467.5,-433.5 565.5,-433.5 565.5,-332.5 467.5,-332.5"/>
<text text-anchor="middle" x="516.5" y="-421.5" font-family="Helvetica,sans-Serif" font-size="10.00">SpecialMove</text>
<polyline fill="none" stroke="black" points="467.5,-414.5 565.5,-414.5 "/>
<text text-anchor="start" x="475.5" y="-402.5" font-family="Helvetica,sans-Serif" font-size="10.00">+ Magic</text>
<text text-anchor="start" x="475.5" y="-391.5" font-family="Helvetica,sans-Serif" font-size="10.00">+ Desc</text>
<text text-anchor="start" x="475.5" y="-380.5" font-family="Helvetica,sans-Serif" font-size="10.00">+ Special</text>
<polyline fill="none" stroke="black" points="467.5,-373.5 565.5,-373.5 "/>
<text text-anchor="start" x="475.5" y="-361.5" font-family="Helvetica,sans-Serif" font-size="10.00">+ setUp()</text>
<text text-anchor="start" x="475.5" y="-350.5" font-family="Helvetica,sans-Serif" font-size="10.00">+ decreaseMagic()</text>
<text text-anchor="start" x="475.5" y="-339.5" font-family="Helvetica,sans-Serif" font-size="10.00"># SpecialMove()</text>
</a>
</g>
</g>
<!-- Node3&#45;&gt;Node7 -->
<g id="edge20" class="edge"><title>Node3&#45;&gt;Node7</title>
<path fill="none" stroke="#404040" d="M576.758,-1396.17C578.969,-1390.26 581.034,-1384 582.5,-1378 601.386,-1300.71 597.272,-1279.45 601.5,-1200 610.35,-1033.71 622.308,-742.856 595.5,-579 585.923,-520.465 578.193,-506.375 554.5,-452 553.425,-449.532 552.287,-447.037 551.102,-444.533"/>
<polygon fill="none" stroke="#404040" points="550.994,-444.315 544.746,-440.716 545.664,-433.564 551.913,-437.163 550.994,-444.315"/>
<text text-anchor="middle" x="622.5" y="-1050" font-family="Helvetica,sans-Serif" font-size="10.00"> #desc</text>
</g>
<!-- Node8 -->
<g id="node8" class="node"><title>Node8</title>
<g id="a_node8"><a xlink:href="class_character_move.html" target="_top" xlink:title="Astract base class for character moves ">
<polygon fill="none" stroke="black" points="326.5,-481.5 326.5,-560.5 412.5,-560.5 412.5,-481.5 326.5,-481.5"/>
<text text-anchor="middle" x="369.5" y="-548.5" font-family="Helvetica,sans-Serif" font-size="10.00">CharacterMove</text>
<polyline fill="none" stroke="black" points="326.5,-541.5 412.5,-541.5 "/>
<text text-anchor="start" x="334.5" y="-529.5" font-family="Helvetica,sans-Serif" font-size="10.00">+ User</text>
<text text-anchor="start" x="334.5" y="-518.5" font-family="Helvetica,sans-Serif" font-size="10.00">+ Target</text>
<text text-anchor="start" x="334.5" y="-507.5" font-family="Helvetica,sans-Serif" font-size="10.00">+ Text</text>
<polyline fill="none" stroke="black" points="326.5,-500.5 412.5,-500.5 "/>
<text text-anchor="start" x="334.5" y="-488.5" font-family="Helvetica,sans-Serif" font-size="10.00">+ performMove()</text>
</a>
</g>
</g>
<!-- Node3&#45;&gt;Node8 -->
<g id="edge10" class="edge"><title>Node3&#45;&gt;Node8</title>
<path fill="none" stroke="#404040" d="M566.992,-1396.26C574.918,-1296.19 593.387,-945.896 491.5,-685 474.662,-641.883 443.127,-600.226 416.337,-569.817"/>
<polygon fill="none" stroke="#404040" points="416.214,-569.681 409.229,-567.889 408.196,-560.752 415.181,-562.544 416.214,-569.681"/>
<text text-anchor="middle" x="585" y="-1135.5" font-family="Helvetica,sans-Serif" font-size="10.00"> #text</text>
</g>
<!-- Node9 -->
<g id="node9" class="node"><title>Node9</title>
<g id="a_node9"><a xlink:href="class_battle_manager.html" target="_top" xlink:title="Holds current Player and Enemy objects in battle and provides functions for MainBattle and other obje...">
<polygon fill="none" stroke="black" points="278.5,-762.5 278.5,-951.5 394.5,-951.5 394.5,-762.5 278.5,-762.5"/>
<text text-anchor="middle" x="336.5" y="-939.5" font-family="Helvetica,sans-Serif" font-size="10.00">BattleManager</text>
<polyline fill="none" stroke="black" points="278.5,-932.5 394.5,-932.5 "/>
<text text-anchor="start" x="286.5" y="-920.5" font-family="Helvetica,sans-Serif" font-size="10.00">+ Player</text>
<text text-anchor="start" x="286.5" y="-909.5" font-family="Helvetica,sans-Serif" font-size="10.00">+ Enemy</text>
<text text-anchor="start" x="286.5" y="-898.5" font-family="Helvetica,sans-Serif" font-size="10.00">+ WasCriticalHit</text>
<polyline fill="none" stroke="black" points="278.5,-891.5 394.5,-891.5 "/>
<text text-anchor="start" x="286.5" y="-879.5" font-family="Helvetica,sans-Serif" font-size="10.00">+ BattleManager()</text>
<text text-anchor="start" x="286.5" y="-868.5" font-family="Helvetica,sans-Serif" font-size="10.00">+ playerFirst()</text>
<text text-anchor="start" x="286.5" y="-857.5" font-family="Helvetica,sans-Serif" font-size="10.00">+ switchPlayers()</text>
<text text-anchor="start" x="286.5" y="-846.5" font-family="Helvetica,sans-Serif" font-size="10.00">+ isCriticalHit()</text>
<text text-anchor="start" x="286.5" y="-835.5" font-family="Helvetica,sans-Serif" font-size="10.00">+ ranAway()</text>
<text text-anchor="start" x="286.5" y="-824.5" font-family="Helvetica,sans-Serif" font-size="10.00">+ damageCalculation()</text>
<text text-anchor="start" x="286.5" y="-813.5" font-family="Helvetica,sans-Serif" font-size="10.00">+ enemyMove()</text>
<text text-anchor="start" x="286.5" y="-802.5" font-family="Helvetica,sans-Serif" font-size="10.00">+ enemySpecialMove()</text>
<text text-anchor="start" x="286.5" y="-791.5" font-family="Helvetica,sans-Serif" font-size="10.00">+ battleWon()</text>
<text text-anchor="start" x="286.5" y="-780.5" font-family="Helvetica,sans-Serif" font-size="10.00">+ playerFainted()</text>
<text text-anchor="start" x="286.5" y="-769.5" font-family="Helvetica,sans-Serif" font-size="10.00">&#45; characterFainted()</text>
</a>
</g>
</g>
<!-- Node3&#45;&gt;Node9 -->
<g id="edge13" class="edge"><title>Node3&#45;&gt;Node9</title>
<path fill="none" stroke="#404040" d="M547.149,-1396.27C525.731,-1361.06 489.345,-1297.91 466.5,-1240 438.806,-1169.8 446.163,-1147.66 422.5,-1076 410.183,-1038.7 394.924,-998.525 380.693,-962.951"/>
<polygon fill="none" stroke="#404040" points="380.594,-962.705 374.644,-958.632 376.115,-951.572 382.065,-955.645 380.594,-962.705"/>
<text text-anchor="middle" x="508.5" y="-1232" font-family="Helvetica,sans-Serif" font-size="10.00"> +forceEnemyMove</text>
<text text-anchor="middle" x="508.5" y="-1221" font-family="Helvetica,sans-Serif" font-size="10.00">+forceCriticalHits</text>
</g>
<!-- Node4 -->
<g id="node4" class="node"><title>Node4</title>
<polygon fill="none" stroke="#bfbfbf" points="293,-1269.5 293,-1326.5 322,-1326.5 322,-1269.5 293,-1269.5"/>
<text text-anchor="middle" x="307.5" y="-1314.5" font-family="Helvetica,sans-Serif" font-size="10.00">int</text>
<polyline fill="none" stroke="#bfbfbf" points="293,-1307.5 322,-1307.5 "/>
<text text-anchor="middle" x="307.5" y="-1295.5" font-family="Helvetica,sans-Serif" font-size="10.00"> </text>
<polyline fill="none" stroke="#bfbfbf" points="293,-1288.5 322,-1288.5 "/>
<text text-anchor="middle" x="307.5" y="-1276.5" font-family="Helvetica,sans-Serif" font-size="10.00"> </text>
</g>
<!-- Node4&#45;&gt;Node1 -->
<g id="edge3" class="edge"><title>Node4&#45;&gt;Node1</title>
<path fill="none" stroke="#404040" d="M292.82,-1294.6C255.888,-1287.68 159.238,-1263.95 119.5,-1200 90.5068,-1153.34 81.6832,-1095.75 82.2385,-1041.21"/>
<polygon fill="none" stroke="#404040" points="82.2457,-1040.9 78.3842,-1034.81 82.5207,-1028.9 86.3821,-1034.99 82.2457,-1040.9"/>
<text text-anchor="middle" x="137.5" y="-1135.5" font-family="Helvetica,sans-Serif" font-size="10.00"> &#45;money</text>
</g>
<!-- Node4&#45;&gt;Node5 -->
<g id="edge25" class="edge"><title>Node4&#45;&gt;Node5</title>
<path fill="none" stroke="#404040" d="M292.938,-1270.55C283.834,-1254.02 271.636,-1231.87 259.847,-1210.46"/>
<polygon fill="none" stroke="#404040" points="259.713,-1210.21 253.315,-1206.89 253.925,-1199.7 260.323,-1203.03 259.713,-1210.21"/>
<text text-anchor="middle" x="312" y="-1232" font-family="Helvetica,sans-Serif" font-size="10.00"> &#45;expToNextLevel</text>
<text text-anchor="middle" x="312" y="-1221" font-family="Helvetica,sans-Serif" font-size="10.00">&#45;exp</text>
</g>
<!-- Node4&#45;&gt;Node6 -->
<g id="edge7" class="edge"><title>Node4&#45;&gt;Node6</title>
<path fill="none" stroke="#404040" d="M322.273,-1295.37C366.947,-1290.1 499.173,-1272.04 525.5,-1240 529.06,-1235.67 574.33,-439.605 574.5,-434 575.876,-388.688 592.504,-373.605 574.5,-332 554.472,-285.716 511.824,-247.327 476.175,-221.473"/>
<polygon fill="none" stroke="#404040" points="476.131,-221.442 468.923,-221.246 466.331,-214.517 473.539,-214.712 476.131,-221.442"/>
<text text-anchor="middle" x="603" y="-659" font-family="Helvetica,sans-Serif" font-size="10.00"> #speed</text>
<text text-anchor="middle" x="603" y="-648" font-family="Helvetica,sans-Serif" font-size="10.00">#luck</text>
<text text-anchor="middle" x="603" y="-637" font-family="Helvetica,sans-Serif" font-size="10.00">#health</text>
<text text-anchor="middle" x="603" y="-626" font-family="Helvetica,sans-Serif" font-size="10.00">#magic</text>
<text text-anchor="middle" x="603" y="-615" font-family="Helvetica,sans-Serif" font-size="10.00">#maximumMagic</text>
<text text-anchor="middle" x="603" y="-604" font-family="Helvetica,sans-Serif" font-size="10.00">#attack</text>
<text text-anchor="middle" x="603" y="-593" font-family="Helvetica,sans-Serif" font-size="10.00">#defence</text>
<text text-anchor="middle" x="603" y="-582" font-family="Helvetica,sans-Serif" font-size="10.00">#level</text>
</g>
<!-- Node4&#45;&gt;Node7 -->
<g id="edge22" class="edge"><title>Node4&#45;&gt;Node7</title>
<path fill="none" stroke="#404040" d="M322.328,-1289.21C347.349,-1275.16 397.384,-1243.01 419.5,-1200 456.193,-1128.65 470.84,-559.692 486.5,-481 488.822,-469.33 492.006,-457.071 495.434,-445.344"/>
<polygon fill="none" stroke="#404040" points="495.441,-445.32 493.354,-438.418 498.922,-433.836 501.01,-440.739 495.441,-445.32"/>
<text text-anchor="middle" x="488" y="-854.5" font-family="Helvetica,sans-Serif" font-size="10.00"> #magic</text>
</g>
<!-- Node4&#45;&gt;Node9 -->
<g id="edge17" class="edge"><title>Node4&#45;&gt;Node9</title>
<path fill="none" stroke="#404040" d="M322.258,-1283C332.569,-1272.28 345.667,-1256.55 352.5,-1240 385.43,-1160.25 381.827,-1132.88 373.5,-1047 370.858,-1019.75 366.12,-990.596 360.899,-963.544"/>
<polygon fill="none" stroke="#404040" points="360.882,-963.457 355.794,-958.347 358.554,-951.685 363.642,-956.795 360.882,-963.457"/>
<text text-anchor="middle" x="399" y="-1135.5" font-family="Helvetica,sans-Serif" font-size="10.00"> +money</text>
</g>
<!-- Node10 -->
<g id="node10" class="node"><title>Node10</title>
<g id="a_node10"><a xlink:href="class_enemy.html" target="_top" xlink:title="Defines an AI controller enemy to fight in battle scenes">
<polygon fill="none" stroke="black" points="230,-0.5 230,-57.5 297,-57.5 297,-0.5 230,-0.5"/>
<text text-anchor="middle" x="263.5" y="-45.5" font-family="Helvetica,sans-Serif" font-size="10.00">Enemy</text>
<polyline fill="none" stroke="black" points="230,-38.5 297,-38.5 "/>
<text text-anchor="start" x="238" y="-26.5" font-family="Helvetica,sans-Serif" font-size="10.00">+ ExpGiven</text>
<polyline fill="none" stroke="black" points="230,-19.5 297,-19.5 "/>
<text text-anchor="start" x="238" y="-7.5" font-family="Helvetica,sans-Serif" font-size="10.00">+ Enemy()</text>
</a>
</g>
</g>
<!-- Node4&#45;&gt;Node10 -->
<g id="edge16" class="edge"><title>Node4&#45;&gt;Node10</title>
<path fill="none" stroke="#404040" d="M292.801,-1296.09C250.509,-1292.56 128.432,-1275.93 79.5,-1200 48.8425,-1152.42 69.0418,-1129.47 50.5,-1076 42.9441,-1054.21 34.7458,-1051.2 28.5,-1029 7.79253,-955.389 9.5,-934.468 9.5,-858 9.5,-858 9.5,-858 9.5,-183.5 9.5,-87.3046 144.595,-49.7767 217.737,-36.5079"/>
<polygon fill="none" stroke="#404040" points="217.944,-36.4725 223.18,-31.5149 229.771,-34.442 224.534,-39.3996 217.944,-36.4725"/>
<text text-anchor="middle" x="32.5" y="-518.5" font-family="Helvetica,sans-Serif" font-size="10.00"> &#45;expGiven</text>
</g>
<!-- Node5&#45;&gt;Node1 -->
<g id="edge4" class="edge"><title>Node5&#45;&gt;Node1</title>
<path fill="none" stroke="#404040" d="M175.077,-1076.15C171.558,-1070.18 168.294,-1064.07 165.5,-1058 162.782,-1052.09 160.188,-1046.02 157.714,-1039.83"/>
<polygon fill="none" stroke="#404040" points="157.697,-1039.79 151.81,-1035.62 153.39,-1028.59 159.277,-1032.75 157.697,-1039.79"/>
<text text-anchor="middle" x="184.5" y="-1050" font-family="Helvetica,sans-Serif" font-size="10.00"> &#45;players</text>
</g>
<!-- Node5&#45;&gt;Node9 -->
<g id="edge19" class="edge"><title>Node5&#45;&gt;Node9</title>
<path fill="none" stroke="#404040" d="M245.67,-1076.46C259.468,-1043.28 276.96,-1001.2 292.903,-962.857"/>
<polygon fill="none" stroke="#404040" points="292.967,-962.703 291.577,-955.628 297.574,-951.623 298.964,-958.699 292.967,-962.703"/>
<text text-anchor="middle" x="272" y="-1050" font-family="Helvetica,sans-Serif" font-size="10.00"> &#45;player</text>
</g>
<!-- Node6&#45;&gt;Node5 -->
<g id="edge5" class="edge"><title>Node6&#45;&gt;Node5</title>
<path fill="none" stroke="midnightblue" d="M362.096,-217.496C322.067,-243.222 270.485,-283.084 241.5,-332 212.773,-380.48 217.5,-400.148 217.5,-456.5 217.5,-858 217.5,-858 217.5,-858 217.5,-933.204 218.603,-1019.8 219.472,-1076.32"/>
<polygon fill="none" stroke="midnightblue" points="364.117,-220.36 370.707,-212.064 360.382,-214.439 364.117,-220.36"/>
</g>
<!-- Node6&#45;&gt;Node8 -->
<g id="edge11" class="edge"><title>Node6&#45;&gt;Node8</title>
<path fill="none" stroke="#404040" d="M370.877,-263.117C360.039,-284.656 350.08,-308.578 344.5,-332 333.994,-376.099 338.109,-389.119 344.5,-434 346.159,-445.653 349.024,-457.935 352.235,-469.454"/>
<polygon fill="none" stroke="#404040" points="352.282,-469.613 357.813,-474.239 355.671,-481.124 350.139,-476.499 352.282,-469.613"/>
<text text-anchor="middle" x="361.5" y="-386" font-family="Helvetica,sans-Serif" font-size="10.00"> #target</text>
<text text-anchor="middle" x="361.5" y="-375" font-family="Helvetica,sans-Serif" font-size="10.00">#user</text>
</g>
<!-- Node6&#45;&gt;Node10 -->
<g id="edge15" class="edge"><title>Node6&#45;&gt;Node10</title>
<path fill="none" stroke="midnightblue" d="M363.613,-129.144C339.22,-104.987 311.552,-77.5868 291.494,-57.7227"/>
<polygon fill="none" stroke="midnightblue" points="361.162,-131.643 370.73,-136.192 366.088,-126.669 361.162,-131.643"/>
</g>
<!-- Node7&#45;&gt;Node6 -->
<g id="edge8" class="edge"><title>Node7&#45;&gt;Node6</title>
<path fill="none" stroke="#404040" d="M491.77,-332.415C484.468,-317.772 476.203,-301.2 467.922,-284.596"/>
<polygon fill="none" stroke="#404040" points="467.844,-284.439 461.586,-280.855 462.488,-273.7 468.745,-277.284 467.844,-284.439"/>
<text text-anchor="middle" x="505" y="-306" font-family="Helvetica,sans-Serif" font-size="10.00"> #special1</text>
<text text-anchor="middle" x="505" y="-295" font-family="Helvetica,sans-Serif" font-size="10.00">#special2</text>
</g>
<!-- Node8&#45;&gt;Node7 -->
<g id="edge9" class="edge"><title>Node8&#45;&gt;Node7</title>
<path fill="none" stroke="midnightblue" d="M418.77,-474.417C434.426,-459.933 451.733,-443.92 467.379,-429.446"/>
<polygon fill="none" stroke="midnightblue" points="416.195,-472.031 411.231,-481.392 420.948,-477.17 416.195,-472.031"/>
</g>
<!-- Node9&#45;&gt;Node8 -->
<g id="edge12" class="edge"><title>Node9&#45;&gt;Node8</title>
<path fill="none" stroke="#404040" d="M345.78,-762.074C351.843,-700.707 359.527,-622.943 364.478,-572.833"/>
<polygon fill="none" stroke="#404040" points="364.495,-572.658 361.104,-566.293 365.675,-560.716 369.065,-567.08 364.495,-572.658"/>
<text text-anchor="middle" x="386.5" y="-620.5" font-family="Helvetica,sans-Serif" font-size="10.00"> #manager</text>
</g>
<!-- Node10&#45;&gt;Node9 -->
<g id="edge14" class="edge"><title>Node10&#45;&gt;Node9</title>
<path fill="none" stroke="#404040" d="M263.5,-57.7302C263.5,-88.4721 263.5,-139.529 263.5,-183.5 263.5,-522 263.5,-522 263.5,-522 263.5,-599.669 282.573,-685.204 301.221,-750.269"/>
<polygon fill="none" stroke="#404040" points="301.333,-750.654 306.853,-755.294 304.693,-762.174 299.173,-757.534 301.333,-750.654"/>
<text text-anchor="middle" x="281.5" y="-380.5" font-family="Helvetica,sans-Serif" font-size="10.00"> &#45;enemy</text>
</g>
<!-- Node11 -->
<g id="node11" class="node"><title>Node11</title>
<polygon fill="none" stroke="#bfbfbf" points="295,-1109.5 295,-1166.5 330,-1166.5 330,-1109.5 295,-1109.5"/>
<text text-anchor="middle" x="312.5" y="-1154.5" font-family="Helvetica,sans-Serif" font-size="10.00">bool</text>
<polyline fill="none" stroke="#bfbfbf" points="295,-1147.5 330,-1147.5 "/>
<text text-anchor="middle" x="312.5" y="-1135.5" font-family="Helvetica,sans-Serif" font-size="10.00"> </text>
<polyline fill="none" stroke="#bfbfbf" points="295,-1128.5 330,-1128.5 "/>
<text text-anchor="middle" x="312.5" y="-1116.5" font-family="Helvetica,sans-Serif" font-size="10.00"> </text>
</g>
<!-- Node11&#45;&gt;Node9 -->
<g id="edge18" class="edge"><title>Node11&#45;&gt;Node9</title>
<path fill="none" stroke="#404040" d="M310.312,-1109.23C309.228,-1094.1 308.038,-1075.03 307.5,-1058 306.526,-1027.2 309.635,-993.985 314.139,-963.645"/>
<polygon fill="none" stroke="#404040" points="314.149,-963.583 311.123,-957.037 316.001,-951.726 319.027,-958.272 314.149,-963.583"/>
<text text-anchor="middle" x="340.5" y="-1050" font-family="Helvetica,sans-Serif" font-size="10.00"> &#45;wasCriticalHit</text>
</g>
<!-- Node12 -->
<g id="node12" class="node"><title>Node12</title>
<polygon fill="none" stroke="#bfbfbf" points="496,-492.5 496,-549.5 531,-549.5 531,-492.5 496,-492.5"/>
<text text-anchor="middle" x="513.5" y="-537.5" font-family="Helvetica,sans-Serif" font-size="10.00">float</text>
<polyline fill="none" stroke="#bfbfbf" points="496,-530.5 531,-530.5 "/>
<text text-anchor="middle" x="513.5" y="-518.5" font-family="Helvetica,sans-Serif" font-size="10.00"> </text>
<polyline fill="none" stroke="#bfbfbf" points="496,-511.5 531,-511.5 "/>
<text text-anchor="middle" x="513.5" y="-499.5" font-family="Helvetica,sans-Serif" font-size="10.00"> </text>
</g>
<!-- Node12&#45;&gt;Node7 -->
<g id="edge21" class="edge"><title>Node12&#45;&gt;Node7</title>
<path fill="none" stroke="#404040" d="M513.816,-492.207C513.981,-479.889 514.208,-465.22 514.5,-452 514.545,-449.971 514.593,-447.907 514.643,-445.823"/>
<polygon fill="none" stroke="#404040" points="514.644,-445.759 510.799,-439.658 514.952,-433.763 518.797,-439.863 514.644,-445.759"/>
<text text-anchor="middle" x="534.5" y="-455" font-family="Helvetica,sans-Serif" font-size="10.00"> #special</text>
</g>
<!-- Node13 -->
<g id="node13" class="node"><title>Node13</title>
<polygon fill="none" stroke="#bfbfbf" points="388,-354.5 388,-411.5 449,-411.5 449,-354.5 388,-354.5"/>
<text text-anchor="middle" x="418.5" y="-399.5" font-family="Helvetica,sans-Serif" font-size="10.00">Texture2D</text>
<polyline fill="none" stroke="#bfbfbf" points="388,-392.5 449,-392.5 "/>
<text text-anchor="middle" x="418.5" y="-380.5" font-family="Helvetica,sans-Serif" font-size="10.00"> </text>
<polyline fill="none" stroke="#bfbfbf" points="388,-373.5 449,-373.5 "/>
<text text-anchor="middle" x="418.5" y="-361.5" font-family="Helvetica,sans-Serif" font-size="10.00"> </text>
</g>
<!-- Node13&#45;&gt;Node6 -->
<g id="edge23" class="edge"><title>Node13&#45;&gt;Node6</title>
<path fill="none" stroke="#404040" d="M418.5,-354.263C418.5,-335.998 418.5,-310.86 418.5,-285.562"/>
<polygon fill="none" stroke="#404040" points="418.5,-285.557 414.5,-279.557 418.5,-273.557 422.5,-279.557 418.5,-285.557"/>
<text text-anchor="middle" x="436" y="-300.5" font-family="Helvetica,sans-Serif" font-size="10.00"> #image</text>
</g>
</g>
</svg>
        <g id="navigator" transform="translate(0 0)" fill="#404254">
                <rect fill="#f2f5e9" fill-opacity="0.5" stroke="#606060" stroke-width=".5" x="0" y="0" width="60" height="60"/>
                <use id="zoomplus" xlink:href="#zoomPlus" x="17" y="9" onmousedown="handleZoom(evt,'in')"/>
                <use id="zoomminus" xlink:href="#zoomMin" x="42" y="9" onmousedown="handleZoom(evt,'out')"/>
                <use id="reset" xlink:href="#resetDef" x="30" y="36" onmousedown="handleReset()"/>
                <g id="arrowUp" xlink:href="#dirArrow" transform="translate(30 24)" onmousedown="handlePan(0,-1)">
                  <use xlink:href="#rim" fill="#404040">
                        <set attributeName="fill" to="#808080" begin="arrowUp.mouseover" end="arrowUp.mouseout"/>
                  </use>
                  <path fill="none" stroke="white" stroke-width="1.5" d="M0,-3.0v7 M-2.5,-0.5L0,-3.0L2.5,-0.5"/>
                </g>
                <g id="arrowRight" xlink:href="#dirArrow" transform="rotate(90) translate(36 -43)" onmousedown="handlePan(1,0)">
                  <use xlink:href="#rim" fill="#404040">
                        <set attributeName="fill" to="#808080" begin="arrowRight.mouseover" end="arrowRight.mouseout"/>
                  </use>
                  <path fill="none" stroke="white" stroke-width="1.5" d="M0,-3.0v7 M-2.5,-0.5L0,-3.0L2.5,-0.5"/>
                </g>
                <g id="arrowDown" xlink:href="#dirArrow" transform="rotate(180) translate(-30 -48)" onmousedown="handlePan(0,1)">
                  <use xlink:href="#rim" fill="#404040">
                        <set attributeName="fill" to="#808080" begin="arrowDown.mouseover" end="arrowDown.mouseout"/>
                  </use>
                  <path fill="none" stroke="white" stroke-width="1.5" d="M0,-3.0v7 M-2.5,-0.5L0,-3.0L2.5,-0.5"/>
                </g>
                <g id="arrowLeft" xlink:href="#dirArrow" transform="rotate(270) translate(-36 17)" onmousedown="handlePan(-1,0)">
                  <use xlink:href="#rim" fill="#404040">
                        <set attributeName="fill" to="#808080" begin="arrowLeft.mouseover" end="arrowLeft.mouseout"/>
                  </use>
                  <path fill="none" stroke="white" stroke-width="1.5" d="M0,-3.0v7 M-2.5,-0.5L0,-3.0L2.5,-0.5"/>
                </g>
        </g>
        <svg viewBox="0 0 15 15" width="100%" height="30px" preserveAspectRatio="xMaxYMin meet">
         <g id="arrow_out" transform="scale(0.3 0.3)">
          <a xlink:href="class_data_manager__coll__graph_org.svg" target="_base">
           <rect id="button" ry="5" rx="5" y="6" x="6" height="38" width="38"
                fill="#f2f5e9" fill-opacity="0.5" stroke="#606060" stroke-width="1.0"/>
           <path id="arrow"
             d="M 11.500037,31.436501 C 11.940474,20.09759 22.043105,11.32322 32.158766,21.979434 L 37.068811,17.246167 C 37.068811,17.246167 37.088388,32 37.088388,32 L 22.160133,31.978069 C 22.160133,31.978069 26.997745,27.140456 26.997745,27.140456 C 18.528582,18.264221 13.291696,25.230495 11.500037,31.436501 z"
             style="fill:#404040;"/>
          </a>
         </g>
        </svg>
</svg>
