<?xml version="1.0" encoding="UTF-8" standalone="no"?>
<!DOCTYPE svg PUBLIC "-//W3C//DTD SVG 1.1//EN"
 "http://www.w3.org/Graphics/SVG/1.1/DTD/svg11.dtd">
<!-- Generated by graphviz version 2.38.0 (20140413.2041)
 -->
<!-- Title: Quest Pages: 1 -->
<svg width="377pt" height="375pt"
 viewBox="0.00 0.00 377.00 375.00" xmlns="http://www.w3.org/2000/svg" xmlns:xlink="http://www.w3.org/1999/xlink">
<g id="graph0" class="graph" transform="scale(1 1) rotate(0) translate(4 371)">
<title>Quest</title>
<!-- Node1 -->
<g id="node1" class="node"><title>Node1</title>
<polygon fill="#bfbfbf" stroke="black" points="157.5,-0.5 157.5,-101.5 288.5,-101.5 288.5,-0.5 157.5,-0.5"/>
<text text-anchor="middle" x="223" y="-89.5" font-family="Helvetica,sans-Serif" font-size="10.00">Quest</text>
<polyline fill="none" stroke="black" points="157.5,-82.5 288.5,-82.5 "/>
<text text-anchor="start" x="165.5" y="-70.5" font-family="Helvetica,sans-Serif" font-size="10.00">+ Main</text>
<text text-anchor="start" x="165.5" y="-59.5" font-family="Helvetica,sans-Serif" font-size="10.00">+ Side</text>
<text text-anchor="start" x="165.5" y="-48.5" font-family="Helvetica,sans-Serif" font-size="10.00">+ Cond</text>
<text text-anchor="start" x="165.5" y="-37.5" font-family="Helvetica,sans-Serif" font-size="10.00">+ Completed</text>
<polyline fill="none" stroke="black" points="157.5,-30.5 288.5,-30.5 "/>
<text text-anchor="start" x="165.5" y="-18.5" font-family="Helvetica,sans-Serif" font-size="10.00">+ Quest()</text>
<text text-anchor="start" x="165.5" y="-7.5" font-family="Helvetica,sans-Serif" font-size="10.00">+ checkQuestCompleted()</text>
</g>
<!-- Node2 -->
<g id="node2" class="node"><title>Node2</title>
<g id="a_node2"><a xlink:href="class_quest_def.html" target="_top" xlink:title="Class defining one quest condition (part of a sequence of 3 in Quest) ">
<polygon fill="none" stroke="black" points="69,-171.5 69,-250.5 141,-250.5 141,-171.5 69,-171.5"/>
<text text-anchor="middle" x="105" y="-238.5" font-family="Helvetica,sans-Serif" font-size="10.00">QuestDef</text>
<polyline fill="none" stroke="black" points="69,-231.5 141,-231.5 "/>
<text text-anchor="start" x="77" y="-219.5" font-family="Helvetica,sans-Serif" font-size="10.00">+ Type</text>
<text text-anchor="start" x="77" y="-208.5" font-family="Helvetica,sans-Serif" font-size="10.00">+ Data</text>
<text text-anchor="start" x="77" y="-197.5" font-family="Helvetica,sans-Serif" font-size="10.00">+ Desc</text>
<polyline fill="none" stroke="black" points="69,-190.5 141,-190.5 "/>
<text text-anchor="start" x="77" y="-178.5" font-family="Helvetica,sans-Serif" font-size="10.00">+ QuestDef()</text>
</a>
</g>
</g>
<!-- Node2&#45;&gt;Node1 -->
<g id="edge1" class="edge"><title>Node2&#45;&gt;Node1</title>
<path fill="none" stroke="#404040" d="M114.105,-171.415C119.299,-154.589 127.016,-135.264 138,-120 141.191,-115.566 144.745,-111.266 148.539,-107.127"/>
<polygon fill="none" stroke="#404040" points="148.771,-106.891 150.123,-99.808 157.182,-98.3323 155.829,-105.415 148.771,-106.891"/>
<text text-anchor="middle" x="150.5" y="-145" font-family="Helvetica,sans-Serif" font-size="10.00"> &#45;side</text>
<text text-anchor="middle" x="150.5" y="-134" font-family="Helvetica,sans-Serif" font-size="10.00">&#45;main</text>
<text text-anchor="middle" x="150.5" y="-123" font-family="Helvetica,sans-Serif" font-size="10.00">&#45;cond</text>
</g>
<!-- Node3 -->
<g id="node3" class="node"><title>Node3</title>
<polygon fill="none" stroke="#bfbfbf" points="0,-298.5 0,-366.5 138,-366.5 138,-298.5 0,-298.5"/>
<text text-anchor="start" x="8" y="-354.5" font-family="Helvetica,sans-Serif" font-size="10.00">KeyValuePair&lt; questTypes,</text>
<text text-anchor="middle" x="69" y="-343.5" font-family="Helvetica,sans-Serif" font-size="10.00"> string &gt;</text>
<polyline fill="none" stroke="#bfbfbf" points="0,-336.5 138,-336.5 "/>
<text text-anchor="middle" x="69" y="-324.5" font-family="Helvetica,sans-Serif" font-size="10.00"> </text>
<polyline fill="none" stroke="#bfbfbf" points="0,-317.5 138,-317.5 "/>
<text text-anchor="middle" x="69" y="-305.5" font-family="Helvetica,sans-Serif" font-size="10.00"> </text>
</g>
<!-- Node3&#45;&gt;Node2 -->
<g id="edge2" class="edge"><title>Node3&#45;&gt;Node2</title>
<path fill="none" stroke="#404040" d="M73.311,-298.392C74.966,-288.799 77.1606,-278.385 80,-269 80.6806,-266.75 81.4259,-264.472 82.2202,-262.185"/>
<polygon fill="none" stroke="#404040" points="82.2865,-262.009 80.6637,-254.983 86.5252,-250.783 88.148,-257.809 82.2865,-262.009"/>
<text text-anchor="middle" x="91" y="-272" font-family="Helvetica,sans-Serif" font-size="10.00"> &#45;pair</text>
</g>
<!-- Node4 -->
<g id="node4" class="node"><title>Node4</title>
<polygon fill="none" stroke="#bfbfbf" points="156.5,-304 156.5,-361 197.5,-361 197.5,-304 156.5,-304"/>
<text text-anchor="middle" x="177" y="-349" font-family="Helvetica,sans-Serif" font-size="10.00">string</text>
<polyline fill="none" stroke="#bfbfbf" points="156.5,-342 197.5,-342 "/>
<text text-anchor="middle" x="177" y="-330" font-family="Helvetica,sans-Serif" font-size="10.00"> </text>
<polyline fill="none" stroke="#bfbfbf" points="156.5,-323 197.5,-323 "/>
<text text-anchor="middle" x="177" y="-311" font-family="Helvetica,sans-Serif" font-size="10.00"> </text>
</g>
<!-- Node4&#45;&gt;Node1 -->
<g id="edge4" class="edge"><title>Node4&#45;&gt;Node1</title>
<path fill="none" stroke="#404040" d="M176.504,-303.999C176.393,-271.842 177.664,-217.139 186,-171 189.456,-151.873 195.043,-131.514 200.839,-113.145"/>
<polygon fill="none" stroke="#404040" points="200.851,-113.108 198.9,-106.166 204.558,-101.695 206.509,-108.637 200.851,-113.108"/>
<text text-anchor="middle" x="207.5" y="-214" font-family="Helvetica,sans-Serif" font-size="10.00"> +location</text>
<text text-anchor="middle" x="207.5" y="-203" font-family="Helvetica,sans-Serif" font-size="10.00">+title</text>
</g>
<!-- Node4&#45;&gt;Node2 -->
<g id="edge3" class="edge"><title>Node4&#45;&gt;Node2</title>
<path fill="none" stroke="#404040" d="M156.365,-308.905C149.066,-300.248 141.149,-290.034 135,-280 131.502,-274.293 128.19,-268.106 125.132,-261.869"/>
<polygon fill="none" stroke="#404040" points="124.987,-261.557 118.827,-257.809 119.917,-250.681 126.078,-254.429 124.987,-261.557"/>
<text text-anchor="middle" x="149" y="-272" font-family="Helvetica,sans-Serif" font-size="10.00"> &#45;desc</text>
</g>
<!-- Node5 -->
<g id="node5" class="node"><title>Node5</title>
<polygon fill="none" stroke="#bfbfbf" points="238,-182.5 238,-239.5 312,-239.5 312,-182.5 238,-182.5"/>
<text text-anchor="middle" x="275" y="-227.5" font-family="Helvetica,sans-Serif" font-size="10.00">questStatues</text>
<polyline fill="none" stroke="#bfbfbf" points="238,-220.5 312,-220.5 "/>
<text text-anchor="middle" x="275" y="-208.5" font-family="Helvetica,sans-Serif" font-size="10.00"> </text>
<polyline fill="none" stroke="#bfbfbf" points="238,-201.5 312,-201.5 "/>
<text text-anchor="middle" x="275" y="-189.5" font-family="Helvetica,sans-Serif" font-size="10.00"> </text>
</g>
<!-- Node5&#45;&gt;Node1 -->
<g id="edge5" class="edge"><title>Node5&#45;&gt;Node1</title>
<path fill="none" stroke="#404040" d="M265.942,-182.479C259.641,-163.331 250.987,-137.038 243.099,-113.07"/>
<polygon fill="none" stroke="#404040" points="243.053,-112.93 237.378,-108.481 239.302,-101.532 244.977,-105.98 243.053,-112.93"/>
<text text-anchor="middle" x="282" y="-134" font-family="Helvetica,sans-Serif" font-size="10.00"> &#45;completed</text>
</g>
<!-- Node6 -->
<g id="node6" class="node"><title>Node6</title>
<polygon fill="none" stroke="#bfbfbf" points="332.5,-182.5 332.5,-239.5 361.5,-239.5 361.5,-182.5 332.5,-182.5"/>
<text text-anchor="middle" x="347" y="-227.5" font-family="Helvetica,sans-Serif" font-size="10.00">int</text>
<polyline fill="none" stroke="#bfbfbf" points="332.5,-220.5 361.5,-220.5 "/>
<text text-anchor="middle" x="347" y="-208.5" font-family="Helvetica,sans-Serif" font-size="10.00"> </text>
<polyline fill="none" stroke="#bfbfbf" points="332.5,-201.5 361.5,-201.5 "/>
<text text-anchor="middle" x="347" y="-189.5" font-family="Helvetica,sans-Serif" font-size="10.00"> </text>
</g>
<!-- Node6&#45;&gt;Node1 -->
<g id="edge6" class="edge"><title>Node6&#45;&gt;Node1</title>
<path fill="none" stroke="#404040" d="M340.525,-182.459C335.118,-163.559 326.003,-138.627 312,-120 307.733,-114.324 302.873,-108.884 297.675,-103.728"/>
<polygon fill="none" stroke="#404040" points="297.436,-103.506 290.319,-102.344 288.654,-95.3273 295.771,-96.4892 297.436,-103.506"/>
<text text-anchor="middle" x="349.5" y="-139.5" font-family="Helvetica,sans-Serif" font-size="10.00"> +money</text>
<text text-anchor="middle" x="349.5" y="-128.5" font-family="Helvetica,sans-Serif" font-size="10.00">+exp</text>
</g>
</g>
</svg>
