<?xml version="1.0" encoding="UTF-8" standalone="no"?>
<!DOCTYPE svg PUBLIC "-//W3C//DTD SVG 1.1//EN"
 "http://www.w3.org/Graphics/SVG/1.1/DTD/svg11.dtd">
<!-- Generated by graphviz version 2.38.0 (20140413.2041)
 -->
<!-- Title: QuestManager Pages: 1 -->
<svg width="555pt" height="590pt"
 viewBox="0.00 0.00 554.50 590.00" xmlns="http://www.w3.org/2000/svg" xmlns:xlink="http://www.w3.org/1999/xlink">
<g id="graph0" class="graph" transform="scale(1 1) rotate(0) translate(4 586)">
<title>QuestManager</title>
<!-- Node1 -->
<g id="node1" class="node"><title>Node1</title>
<polygon fill="#bfbfbf" stroke="black" points="158,-0.5 158,-167.5 289,-167.5 289,-0.5 158,-0.5"/>
<text text-anchor="middle" x="223.5" y="-155.5" font-family="Helvetica,sans-Serif" font-size="10.00">QuestManager</text>
<polyline fill="none" stroke="black" points="158,-148.5 289,-148.5 "/>
<text text-anchor="start" x="166" y="-136.5" font-family="Helvetica,sans-Serif" font-size="10.00">+ CurrentQuest</text>
<text text-anchor="start" x="166" y="-125.5" font-family="Helvetica,sans-Serif" font-size="10.00">+ firstQuest</text>
<text text-anchor="start" x="166" y="-114.5" font-family="Helvetica,sans-Serif" font-size="10.00">+ secondQuest</text>
<polyline fill="none" stroke="black" points="158,-107.5 289,-107.5 "/>
<text text-anchor="start" x="166" y="-95.5" font-family="Helvetica,sans-Serif" font-size="10.00">+ QuestManager()</text>
<text text-anchor="start" x="166" y="-84.5" font-family="Helvetica,sans-Serif" font-size="10.00">+ addQuest()</text>
<text text-anchor="start" x="166" y="-73.5" font-family="Helvetica,sans-Serif" font-size="10.00">+ updateCurrentQuest()</text>
<text text-anchor="start" x="166" y="-62.5" font-family="Helvetica,sans-Serif" font-size="10.00">+ logQuestVariable()</text>
<text text-anchor="start" x="166" y="-51.5" font-family="Helvetica,sans-Serif" font-size="10.00">+ finishQuest()</text>
<text text-anchor="start" x="166" y="-40.5" font-family="Helvetica,sans-Serif" font-size="10.00">+ checkQuestCompleted()</text>
<text text-anchor="start" x="166" y="-29.5" font-family="Helvetica,sans-Serif" font-size="10.00">&#45; startQuest()</text>
<text text-anchor="start" x="166" y="-18.5" font-family="Helvetica,sans-Serif" font-size="10.00">&#45; isNegativeQuestCond()</text>
<text text-anchor="start" x="166" y="-7.5" font-family="Helvetica,sans-Serif" font-size="10.00">&#45; questDefVal()</text>
</g>
<!-- Node2 -->
<g id="node2" class="node"><title>Node2</title>
<polygon fill="none" stroke="#bfbfbf" points="0,-243 0,-300 101,-300 101,-243 0,-243"/>
<text text-anchor="middle" x="50.5" y="-288" font-family="Helvetica,sans-Serif" font-size="10.00">List&lt; questTypes &gt;</text>
<polyline fill="none" stroke="#bfbfbf" points="0,-281 101,-281 "/>
<text text-anchor="middle" x="50.5" y="-269" font-family="Helvetica,sans-Serif" font-size="10.00"> </text>
<polyline fill="none" stroke="#bfbfbf" points="0,-262 101,-262 "/>
<text text-anchor="middle" x="50.5" y="-250" font-family="Helvetica,sans-Serif" font-size="10.00"> </text>
</g>
<!-- Node2&#45;&gt;Node1 -->
<g id="edge1" class="edge"><title>Node2&#45;&gt;Node1</title>
<path fill="none" stroke="#404040" d="M59.7573,-242.725C66.4782,-225.248 76.7953,-202.888 90.5,-186 106.671,-166.072 127.56,-147.85 147.971,-132.537"/>
<polygon fill="none" stroke="#404040" points="148.242,-132.339 150.725,-125.569 157.93,-125.258 155.446,-132.028 148.242,-132.339"/>
<text text-anchor="middle" x="140" y="-194.5" font-family="Helvetica,sans-Serif" font-size="10.00"> +negativeQuestConds</text>
</g>
<!-- Node3 -->
<g id="node3" class="node"><title>Node3</title>
<polygon fill="none" stroke="#bfbfbf" points="119,-237.5 119,-305.5 234,-305.5 234,-237.5 119,-237.5"/>
<text text-anchor="start" x="127" y="-293.5" font-family="Helvetica,sans-Serif" font-size="10.00">IDictionary&lt; QuestDef,</text>
<text text-anchor="middle" x="176.5" y="-282.5" font-family="Helvetica,sans-Serif" font-size="10.00"> bool &gt;</text>
<polyline fill="none" stroke="#bfbfbf" points="119,-275.5 234,-275.5 "/>
<text text-anchor="middle" x="176.5" y="-263.5" font-family="Helvetica,sans-Serif" font-size="10.00"> </text>
<polyline fill="none" stroke="#bfbfbf" points="119,-256.5 234,-256.5 "/>
<text text-anchor="middle" x="176.5" y="-244.5" font-family="Helvetica,sans-Serif" font-size="10.00"> </text>
</g>
<!-- Node3&#45;&gt;Node1 -->
<g id="edge2" class="edge"><title>Node3&#45;&gt;Node1</title>
<path fill="none" stroke="#404040" d="M184.903,-237.336C189.049,-220.97 194.284,-200.311 199.548,-179.532"/>
<polygon fill="none" stroke="#404040" points="199.609,-179.293 197.205,-172.495 202.556,-167.661 204.96,-174.459 199.609,-179.293"/>
<text text-anchor="middle" x="224.5" y="-194.5" font-family="Helvetica,sans-Serif" font-size="10.00"> +conditions</text>
</g>
<!-- Node4 -->
<g id="node4" class="node"><title>Node4</title>
<polygon fill="none" stroke="#bfbfbf" points="256,-397.5 256,-454.5 285,-454.5 285,-397.5 256,-397.5"/>
<text text-anchor="middle" x="270.5" y="-442.5" font-family="Helvetica,sans-Serif" font-size="10.00">int</text>
<polyline fill="none" stroke="#bfbfbf" points="256,-435.5 285,-435.5 "/>
<text text-anchor="middle" x="270.5" y="-423.5" font-family="Helvetica,sans-Serif" font-size="10.00"> </text>
<polyline fill="none" stroke="#bfbfbf" points="256,-416.5 285,-416.5 "/>
<text text-anchor="middle" x="270.5" y="-404.5" font-family="Helvetica,sans-Serif" font-size="10.00"> </text>
</g>
<!-- Node4&#45;&gt;Node1 -->
<g id="edge3" class="edge"><title>Node4&#45;&gt;Node1</title>
<path fill="none" stroke="#404040" d="M270.939,-397.492C271.171,-352.75 269.629,-261.604 255.5,-186 255.093,-183.823 254.654,-181.628 254.186,-179.42"/>
<polygon fill="none" stroke="#404040" points="254.142,-179.228 248.891,-174.285 251.434,-167.537 256.685,-172.48 254.142,-179.228"/>
<text text-anchor="middle" x="298.5" y="-274.5" font-family="Helvetica,sans-Serif" font-size="10.00"> &#45;noOfQuests</text>
<text text-anchor="middle" x="298.5" y="-263.5" font-family="Helvetica,sans-Serif" font-size="10.00">&#45;finishTime</text>
</g>
<!-- Node5 -->
<g id="node5" class="node"><title>Node5</title>
<g id="a_node5"><a xlink:href="class_quest.html" target="_top" xlink:title="A class to store a whole quest, being a sequence of 3 QuestDefs Also stores a name of the quest...">
<polygon fill="none" stroke="black" points="346.5,-226.5 346.5,-316.5 418.5,-316.5 418.5,-226.5 346.5,-226.5"/>
<text text-anchor="middle" x="382.5" y="-304.5" font-family="Helvetica,sans-Serif" font-size="10.00">Quest</text>
<polyline fill="none" stroke="black" points="346.5,-297.5 418.5,-297.5 "/>
<text text-anchor="start" x="354.5" y="-285.5" font-family="Helvetica,sans-Serif" font-size="10.00">+ Main</text>
<text text-anchor="start" x="354.5" y="-274.5" font-family="Helvetica,sans-Serif" font-size="10.00">+ Side</text>
<text text-anchor="start" x="354.5" y="-263.5" font-family="Helvetica,sans-Serif" font-size="10.00">+ Cond</text>
<text text-anchor="start" x="354.5" y="-252.5" font-family="Helvetica,sans-Serif" font-size="10.00">+ Completed</text>
<polyline fill="none" stroke="black" points="346.5,-245.5 418.5,-245.5 "/>
<text text-anchor="start" x="354.5" y="-233.5" font-family="Helvetica,sans-Serif" font-size="10.00">+ Quest()</text>
</a>
</g>
</g>
<!-- Node4&#45;&gt;Node5 -->
<g id="edge10" class="edge"><title>Node4&#45;&gt;Node5</title>
<path fill="none" stroke="#404040" d="M280.386,-397.478C287.844,-378.82 299.224,-354.164 313.5,-335 314.675,-333.422 324.938,-324.004 337.205,-312.937"/>
<polygon fill="none" stroke="#404040" points="337.469,-312.7 339.255,-305.713 346.391,-304.675 344.605,-311.662 337.469,-312.7"/>
<text text-anchor="middle" x="333" y="-354.5" font-family="Helvetica,sans-Serif" font-size="10.00"> +money</text>
<text text-anchor="middle" x="333" y="-343.5" font-family="Helvetica,sans-Serif" font-size="10.00">+exp</text>
</g>
<!-- Node5&#45;&gt;Node1 -->
<g id="edge4" class="edge"><title>Node5&#45;&gt;Node1</title>
<path fill="none" stroke="#404040" d="M346.42,-228.407C331.721,-211.258 314.165,-190.776 296.986,-170.733"/>
<polygon fill="none" stroke="#404040" points="296.94,-170.68 289.998,-168.728 289.131,-161.569 296.072,-163.521 296.94,-170.68"/>
<text text-anchor="middle" x="361" y="-200" font-family="Helvetica,sans-Serif" font-size="10.00"> &#45;currentQuest</text>
<text text-anchor="middle" x="361" y="-189" font-family="Helvetica,sans-Serif" font-size="10.00">&#45;chosenQuests</text>
</g>
<!-- Node6 -->
<g id="node6" class="node"><title>Node6</title>
<g id="a_node6"><a xlink:href="class_quest_def.html" target="_top" xlink:title="Class defining one quest condition (part of a sequence of 3 in Quest) ">
<polygon fill="none" stroke="black" points="303.5,-386.5 303.5,-465.5 375.5,-465.5 375.5,-386.5 303.5,-386.5"/>
<text text-anchor="middle" x="339.5" y="-453.5" font-family="Helvetica,sans-Serif" font-size="10.00">QuestDef</text>
<polyline fill="none" stroke="black" points="303.5,-446.5 375.5,-446.5 "/>
<text text-anchor="start" x="311.5" y="-434.5" font-family="Helvetica,sans-Serif" font-size="10.00">+ Type</text>
<text text-anchor="start" x="311.5" y="-423.5" font-family="Helvetica,sans-Serif" font-size="10.00">+ Data</text>
<text text-anchor="start" x="311.5" y="-412.5" font-family="Helvetica,sans-Serif" font-size="10.00">+ Desc</text>
<polyline fill="none" stroke="black" points="303.5,-405.5 375.5,-405.5 "/>
<text text-anchor="start" x="311.5" y="-393.5" font-family="Helvetica,sans-Serif" font-size="10.00">+ QuestDef()</text>
</a>
</g>
</g>
<!-- Node6&#45;&gt;Node5 -->
<g id="edge5" class="edge"><title>Node6&#45;&gt;Node5</title>
<path fill="none" stroke="#404040" d="M350.462,-386.123C355.407,-368.584 361.341,-347.541 366.75,-328.356"/>
<polygon fill="none" stroke="#404040" points="366.781,-328.249 364.559,-321.388 370.037,-316.699 372.259,-323.559 366.781,-328.249"/>
<text text-anchor="middle" x="378" y="-360" font-family="Helvetica,sans-Serif" font-size="10.00"> &#45;side</text>
<text text-anchor="middle" x="378" y="-349" font-family="Helvetica,sans-Serif" font-size="10.00">&#45;main</text>
<text text-anchor="middle" x="378" y="-338" font-family="Helvetica,sans-Serif" font-size="10.00">&#45;cond</text>
</g>
<!-- Node7 -->
<g id="node7" class="node"><title>Node7</title>
<polygon fill="none" stroke="#bfbfbf" points="234.5,-513.5 234.5,-581.5 372.5,-581.5 372.5,-513.5 234.5,-513.5"/>
<text text-anchor="start" x="242.5" y="-569.5" font-family="Helvetica,sans-Serif" font-size="10.00">KeyValuePair&lt; questTypes,</text>
<text text-anchor="middle" x="303.5" y="-558.5" font-family="Helvetica,sans-Serif" font-size="10.00"> string &gt;</text>
<polyline fill="none" stroke="#bfbfbf" points="234.5,-551.5 372.5,-551.5 "/>
<text text-anchor="middle" x="303.5" y="-539.5" font-family="Helvetica,sans-Serif" font-size="10.00"> </text>
<polyline fill="none" stroke="#bfbfbf" points="234.5,-532.5 372.5,-532.5 "/>
<text text-anchor="middle" x="303.5" y="-520.5" font-family="Helvetica,sans-Serif" font-size="10.00"> </text>
</g>
<!-- Node7&#45;&gt;Node6 -->
<g id="edge6" class="edge"><title>Node7&#45;&gt;Node6</title>
<path fill="none" stroke="#404040" d="M307.811,-513.392C309.466,-503.799 311.661,-493.385 314.5,-484 315.181,-481.75 315.926,-479.472 316.72,-477.185"/>
<polygon fill="none" stroke="#404040" points="316.787,-477.009 315.164,-469.983 321.025,-465.783 322.648,-472.809 316.787,-477.009"/>
<text text-anchor="middle" x="325.5" y="-487" font-family="Helvetica,sans-Serif" font-size="10.00"> &#45;pair</text>
</g>
<!-- Node8 -->
<g id="node8" class="node"><title>Node8</title>
<polygon fill="none" stroke="#bfbfbf" points="391,-519 391,-576 432,-576 432,-519 391,-519"/>
<text text-anchor="middle" x="411.5" y="-564" font-family="Helvetica,sans-Serif" font-size="10.00">string</text>
<polyline fill="none" stroke="#bfbfbf" points="391,-557 432,-557 "/>
<text text-anchor="middle" x="411.5" y="-545" font-family="Helvetica,sans-Serif" font-size="10.00"> </text>
<polyline fill="none" stroke="#bfbfbf" points="391,-538 432,-538 "/>
<text text-anchor="middle" x="411.5" y="-526" font-family="Helvetica,sans-Serif" font-size="10.00"> </text>
</g>
<!-- Node8&#45;&gt;Node5 -->
<g id="edge8" class="edge"><title>Node8&#45;&gt;Node5</title>
<path fill="none" stroke="#404040" d="M410.236,-518.681C408.175,-478.142 403.396,-400.522 394.5,-335 394.224,-332.968 393.925,-330.902 393.608,-328.817"/>
<polygon fill="none" stroke="#404040" points="393.577,-328.627 388.654,-323.358 391.624,-316.787 396.547,-322.057 393.577,-328.627"/>
<text text-anchor="middle" x="428" y="-429" font-family="Helvetica,sans-Serif" font-size="10.00"> +location</text>
<text text-anchor="middle" x="428" y="-418" font-family="Helvetica,sans-Serif" font-size="10.00">+title</text>
</g>
<!-- Node8&#45;&gt;Node6 -->
<g id="edge7" class="edge"><title>Node8&#45;&gt;Node6</title>
<path fill="none" stroke="#404040" d="M390.865,-523.905C383.566,-515.248 375.649,-505.034 369.5,-495 366.002,-489.293 362.69,-483.106 359.632,-476.869"/>
<polygon fill="none" stroke="#404040" points="359.487,-476.557 353.327,-472.809 354.417,-465.681 360.578,-469.429 359.487,-476.557"/>
<text text-anchor="middle" x="383.5" y="-487" font-family="Helvetica,sans-Serif" font-size="10.00"> &#45;desc</text>
</g>
<!-- Node9 -->
<g id="node9" class="node"><title>Node9</title>
<polygon fill="none" stroke="#bfbfbf" points="472.5,-397.5 472.5,-454.5 546.5,-454.5 546.5,-397.5 472.5,-397.5"/>
<text text-anchor="middle" x="509.5" y="-442.5" font-family="Helvetica,sans-Serif" font-size="10.00">questStatues</text>
<polyline fill="none" stroke="#bfbfbf" points="472.5,-435.5 546.5,-435.5 "/>
<text text-anchor="middle" x="509.5" y="-423.5" font-family="Helvetica,sans-Serif" font-size="10.00"> </text>
<polyline fill="none" stroke="#bfbfbf" points="472.5,-416.5 546.5,-416.5 "/>
<text text-anchor="middle" x="509.5" y="-404.5" font-family="Helvetica,sans-Serif" font-size="10.00"> </text>
</g>
<!-- Node9&#45;&gt;Node5 -->
<g id="edge9" class="edge"><title>Node9&#45;&gt;Node5</title>
<path fill="none" stroke="#404040" d="M486.501,-397.383C469.779,-377.303 446.625,-349.5 426.408,-325.224"/>
<polygon fill="none" stroke="#404040" points="426.213,-324.991 419.3,-322.94 418.534,-315.769 425.448,-317.82 426.213,-324.991"/>
<text text-anchor="middle" x="486.5" y="-349" font-family="Helvetica,sans-Serif" font-size="10.00"> &#45;completed</text>
</g>
</g>
</svg>
