<?xml version="1.0" encoding="UTF-8" standalone="no"?>
<!DOCTYPE svg PUBLIC "-//W3C//DTD SVG 1.1//EN"
 "http://www.w3.org/Graphics/SVG/1.1/DTD/svg11.dtd">
<!-- Generated by graphviz version 2.38.0 (20140413.2041)
 -->
<!-- Title: BattleManager Pages: 1 -->
<svg width="728pt" height="1065pt"
 viewBox="0.00 0.00 727.50 1065.00" xmlns="http://www.w3.org/2000/svg" xmlns:xlink="http://www.w3.org/1999/xlink">
<g id="graph0" class="graph" transform="scale(1 1) rotate(0) translate(4 1061)">
<title>BattleManager</title>
<!-- Node1 -->
<g id="node1" class="node"><title>Node1</title>
<polygon fill="#bfbfbf" stroke="black" points="258.5,-751.5 258.5,-940.5 374.5,-940.5 374.5,-751.5 258.5,-751.5"/>
<text text-anchor="middle" x="316.5" y="-928.5" font-family="Helvetica,sans-Serif" font-size="10.00">BattleManager</text>
<polyline fill="none" stroke="black" points="258.5,-921.5 374.5,-921.5 "/>
<text text-anchor="start" x="266.5" y="-909.5" font-family="Helvetica,sans-Serif" font-size="10.00">+ Player</text>
<text text-anchor="start" x="266.5" y="-898.5" font-family="Helvetica,sans-Serif" font-size="10.00">+ Enemy</text>
<text text-anchor="start" x="266.5" y="-887.5" font-family="Helvetica,sans-Serif" font-size="10.00">+ WasCriticalHit</text>
<polyline fill="none" stroke="black" points="258.5,-880.5 374.5,-880.5 "/>
<text text-anchor="start" x="266.5" y="-868.5" font-family="Helvetica,sans-Serif" font-size="10.00">+ BattleManager()</text>
<text text-anchor="start" x="266.5" y="-857.5" font-family="Helvetica,sans-Serif" font-size="10.00">+ playerFirst()</text>
<text text-anchor="start" x="266.5" y="-846.5" font-family="Helvetica,sans-Serif" font-size="10.00">+ switchPlayers()</text>
<text text-anchor="start" x="266.5" y="-835.5" font-family="Helvetica,sans-Serif" font-size="10.00">+ isCriticalHit()</text>
<text text-anchor="start" x="266.5" y="-824.5" font-family="Helvetica,sans-Serif" font-size="10.00">+ ranAway()</text>
<text text-anchor="start" x="266.5" y="-813.5" font-family="Helvetica,sans-Serif" font-size="10.00">+ damageCalculation()</text>
<text text-anchor="start" x="266.5" y="-802.5" font-family="Helvetica,sans-Serif" font-size="10.00">+ enemyMove()</text>
<text text-anchor="start" x="266.5" y="-791.5" font-family="Helvetica,sans-Serif" font-size="10.00">+ enemySpecialMove()</text>
<text text-anchor="start" x="266.5" y="-780.5" font-family="Helvetica,sans-Serif" font-size="10.00">+ battleWon()</text>
<text text-anchor="start" x="266.5" y="-769.5" font-family="Helvetica,sans-Serif" font-size="10.00">+ playerFainted()</text>
<text text-anchor="start" x="266.5" y="-758.5" font-family="Helvetica,sans-Serif" font-size="10.00">&#45; characterFainted()</text>
</g>
<!-- Node7 -->
<g id="node7" class="node"><title>Node7</title>
<g id="a_node7"><a xlink:href="class_character_move.html" target="_top" xlink:title="Astract base class for character moves ">
<polygon fill="none" stroke="black" points="273.5,-551.5 273.5,-630.5 359.5,-630.5 359.5,-551.5 273.5,-551.5"/>
<text text-anchor="middle" x="316.5" y="-618.5" font-family="Helvetica,sans-Serif" font-size="10.00">CharacterMove</text>
<polyline fill="none" stroke="black" points="273.5,-611.5 359.5,-611.5 "/>
<text text-anchor="start" x="281.5" y="-599.5" font-family="Helvetica,sans-Serif" font-size="10.00">+ User</text>
<text text-anchor="start" x="281.5" y="-588.5" font-family="Helvetica,sans-Serif" font-size="10.00">+ Target</text>
<text text-anchor="start" x="281.5" y="-577.5" font-family="Helvetica,sans-Serif" font-size="10.00">+ Text</text>
<polyline fill="none" stroke="black" points="273.5,-570.5 359.5,-570.5 "/>
<text text-anchor="start" x="281.5" y="-558.5" font-family="Helvetica,sans-Serif" font-size="10.00">+ performMove()</text>
</a>
</g>
</g>
<!-- Node1&#45;&gt;Node7 -->
<g id="edge10" class="edge"><title>Node1&#45;&gt;Node7</title>
<path fill="none" stroke="#404040" d="M316.5,-751.152C316.5,-714.443 316.5,-673.797 316.5,-642.769"/>
<polygon fill="none" stroke="#404040" points="316.5,-642.528 312.5,-636.528 316.5,-630.528 320.5,-636.528 316.5,-642.528"/>
<text text-anchor="middle" x="339.5" y="-690.5" font-family="Helvetica,sans-Serif" font-size="10.00"> #manager</text>
</g>
<!-- Node2 -->
<g id="node2" class="node"><title>Node2</title>
<polygon fill="none" stroke="#bfbfbf" points="126,-999.5 126,-1056.5 167,-1056.5 167,-999.5 126,-999.5"/>
<text text-anchor="middle" x="146.5" y="-1044.5" font-family="Helvetica,sans-Serif" font-size="10.00">string</text>
<polyline fill="none" stroke="#bfbfbf" points="126,-1037.5 167,-1037.5 "/>
<text text-anchor="middle" x="146.5" y="-1025.5" font-family="Helvetica,sans-Serif" font-size="10.00"> </text>
<polyline fill="none" stroke="#bfbfbf" points="126,-1018.5 167,-1018.5 "/>
<text text-anchor="middle" x="146.5" y="-1006.5" font-family="Helvetica,sans-Serif" font-size="10.00"> </text>
</g>
<!-- Node2&#45;&gt;Node1 -->
<g id="edge1" class="edge"><title>Node2&#45;&gt;Node1</title>
<path fill="none" stroke="#404040" d="M167.284,-1007.23C185.16,-990.039 211.47,-964.306 233.5,-941 238.976,-935.207 244.584,-929.147 250.173,-923.017"/>
<polygon fill="none" stroke="#404040" points="250.277,-922.902 251.34,-915.769 258.332,-914.007 257.27,-921.139 250.277,-922.902"/>
<text text-anchor="middle" x="257.5" y="-973" font-family="Helvetica,sans-Serif" font-size="10.00"> +forceEnemyMove</text>
<text text-anchor="middle" x="257.5" y="-962" font-family="Helvetica,sans-Serif" font-size="10.00">+forceCriticalHits</text>
</g>
<!-- Node4 -->
<g id="node4" class="node"><title>Node4</title>
<g id="a_node4"><a xlink:href="class_character.html" target="_top" xlink:title="Base abstract class for Enemy and Player to inherit from. Defines all shared variables, their constructor and their setters and getters ">
<polygon fill="none" stroke="black" points="276,-150.5 276,-328.5 371,-328.5 371,-150.5 276,-150.5"/>
<text text-anchor="middle" x="323.5" y="-316.5" font-family="Helvetica,sans-Serif" font-size="10.00">Character</text>
<polyline fill="none" stroke="black" points="276,-309.5 371,-309.5 "/>
<text text-anchor="start" x="284" y="-297.5" font-family="Helvetica,sans-Serif" font-size="10.00">+ Name</text>
<text text-anchor="start" x="284" y="-286.5" font-family="Helvetica,sans-Serif" font-size="10.00">+ Level</text>
<text text-anchor="start" x="284" y="-275.5" font-family="Helvetica,sans-Serif" font-size="10.00">+ Health</text>
<text text-anchor="start" x="284" y="-264.5" font-family="Helvetica,sans-Serif" font-size="10.00">+ Attack</text>
<text text-anchor="start" x="284" y="-253.5" font-family="Helvetica,sans-Serif" font-size="10.00">+ Defence</text>
<text text-anchor="start" x="284" y="-242.5" font-family="Helvetica,sans-Serif" font-size="10.00">+ MaximumMagic</text>
<text text-anchor="start" x="284" y="-231.5" font-family="Helvetica,sans-Serif" font-size="10.00">+ Magic</text>
<text text-anchor="start" x="284" y="-220.5" font-family="Helvetica,sans-Serif" font-size="10.00">+ Luck</text>
<text text-anchor="start" x="284" y="-209.5" font-family="Helvetica,sans-Serif" font-size="10.00">+ Speed</text>
<text text-anchor="start" x="284" y="-198.5" font-family="Helvetica,sans-Serif" font-size="10.00">+ Special1</text>
<text text-anchor="start" x="284" y="-187.5" font-family="Helvetica,sans-Serif" font-size="10.00">+ Special2</text>
<text text-anchor="start" x="284" y="-176.5" font-family="Helvetica,sans-Serif" font-size="10.00">+ Image</text>
<polyline fill="none" stroke="black" points="276,-169.5 371,-169.5 "/>
<text text-anchor="start" x="284" y="-157.5" font-family="Helvetica,sans-Serif" font-size="10.00"># Character()</text>
</a>
</g>
</g>
<!-- Node2&#45;&gt;Node4 -->
<g id="edge4" class="edge"><title>Node2&#45;&gt;Node4</title>
<path fill="none" stroke="#404040" d="M132.734,-999.401C116.735,-964.721 92.5,-902.954 92.5,-847 92.5,-847 92.5,-847 92.5,-517 92.5,-456.144 100.431,-436.736 135.5,-387 169.462,-338.834 223.827,-298.916 265.38,-272.977"/>
<polygon fill="none" stroke="#404040" points="265.415,-272.956 268.442,-266.411 275.648,-266.687 272.621,-273.232 265.415,-272.956"/>
<text text-anchor="middle" x="109" y="-588.5" font-family="Helvetica,sans-Serif" font-size="10.00"> #name</text>
</g>
<!-- Node6 -->
<g id="node6" class="node"><title>Node6</title>
<g id="a_node6"><a xlink:href="class_special_move.html" target="_top" xlink:title="Special move abstract base class that expands upon CharacterMove, adding magic properties ...">
<polygon fill="none" stroke="black" points="189.5,-387.5 189.5,-488.5 287.5,-488.5 287.5,-387.5 189.5,-387.5"/>
<text text-anchor="middle" x="238.5" y="-476.5" font-family="Helvetica,sans-Serif" font-size="10.00">SpecialMove</text>
<polyline fill="none" stroke="black" points="189.5,-469.5 287.5,-469.5 "/>
<text text-anchor="start" x="197.5" y="-457.5" font-family="Helvetica,sans-Serif" font-size="10.00">+ Magic</text>
<text text-anchor="start" x="197.5" y="-446.5" font-family="Helvetica,sans-Serif" font-size="10.00">+ Desc</text>
<text text-anchor="start" x="197.5" y="-435.5" font-family="Helvetica,sans-Serif" font-size="10.00">+ Special</text>
<polyline fill="none" stroke="black" points="189.5,-428.5 287.5,-428.5 "/>
<text text-anchor="start" x="197.5" y="-416.5" font-family="Helvetica,sans-Serif" font-size="10.00">+ setUp()</text>
<text text-anchor="start" x="197.5" y="-405.5" font-family="Helvetica,sans-Serif" font-size="10.00">+ decreaseMagic()</text>
<text text-anchor="start" x="197.5" y="-394.5" font-family="Helvetica,sans-Serif" font-size="10.00"># SpecialMove()</text>
</a>
</g>
</g>
<!-- Node2&#45;&gt;Node6 -->
<g id="edge11" class="edge"><title>Node2&#45;&gt;Node6</title>
<path fill="none" stroke="#404040" d="M147.394,-999.448C149.277,-949.639 154.593,-841.388 167.5,-751 180.599,-659.272 189.312,-637.204 210.5,-547 214.047,-531.898 218.116,-515.674 222.032,-500.51"/>
<polygon fill="none" stroke="#404040" points="222.105,-500.229 219.745,-493.415 225.127,-488.616 227.487,-495.43 222.105,-500.229"/>
<text text-anchor="middle" x="200.5" y="-690.5" font-family="Helvetica,sans-Serif" font-size="10.00"> #desc</text>
</g>
<!-- Node2&#45;&gt;Node7 -->
<g id="edge8" class="edge"><title>Node2&#45;&gt;Node7</title>
<path fill="none" stroke="#404040" d="M155.048,-999.302C156.874,-993.277 158.773,-986.931 160.5,-981 190.171,-879.127 183.379,-848.814 224.5,-751 240.697,-712.472 264.42,-671.724 283.719,-641.124"/>
<polygon fill="none" stroke="#404040" points="283.887,-640.861 283.742,-633.651 290.342,-630.745 290.487,-637.954 283.887,-640.861"/>
<text text-anchor="middle" x="237" y="-843.5" font-family="Helvetica,sans-Serif" font-size="10.00"> #text</text>
</g>
<!-- Node12 -->
<g id="node12" class="node"><title>Node12</title>
<g id="a_node12"><a xlink:href="class_item.html" target="_top" xlink:title="Abstract class for items that can be equipped to a player, increasing some of their stats ...">
<polygon fill="none" stroke="black" points="0,-653.5 0,-732.5 77,-732.5 77,-653.5 0,-653.5"/>
<text text-anchor="middle" x="38.5" y="-720.5" font-family="Helvetica,sans-Serif" font-size="10.00">Item</text>
<polyline fill="none" stroke="black" points="0,-713.5 77,-713.5 "/>
<text text-anchor="start" x="8" y="-701.5" font-family="Helvetica,sans-Serif" font-size="10.00">+ Name</text>
<text text-anchor="start" x="8" y="-690.5" font-family="Helvetica,sans-Serif" font-size="10.00">+ Desc</text>
<polyline fill="none" stroke="black" points="0,-683.5 77,-683.5 "/>
<text text-anchor="start" x="8" y="-671.5" font-family="Helvetica,sans-Serif" font-size="10.00">+ applyBuffs()</text>
<text text-anchor="start" x="8" y="-660.5" font-family="Helvetica,sans-Serif" font-size="10.00">+ revertBuffs()</text>
</a>
</g>
</g>
<!-- Node2&#45;&gt;Node12 -->
<g id="edge21" class="edge"><title>Node2&#45;&gt;Node12</title>
<path fill="none" stroke="#404040" d="M125.887,-1023.77C102.663,-1018.93 65.8934,-1007.35 48.5,-981 1.60947,-909.955 12.8174,-806.015 25.4846,-744.659"/>
<polygon fill="none" stroke="#404040" points="25.555,-744.335 22.9213,-737.623 28.1049,-732.61 30.7386,-739.322 25.555,-744.335"/>
<text text-anchor="middle" x="63.5" y="-973" font-family="Helvetica,sans-Serif" font-size="10.00"> #desc</text>
<text text-anchor="middle" x="63.5" y="-962" font-family="Helvetica,sans-Serif" font-size="10.00">#name</text>
</g>
<!-- Node3 -->
<g id="node3" class="node"><title>Node3</title>
<g id="a_node3"><a xlink:href="class_enemy.html" target="_top" xlink:title="Defines an AI controller enemy to fight in battle scenes">
<polygon fill="none" stroke="black" points="440,-28 440,-85 507,-85 507,-28 440,-28"/>
<text text-anchor="middle" x="473.5" y="-73" font-family="Helvetica,sans-Serif" font-size="10.00">Enemy</text>
<polyline fill="none" stroke="black" points="440,-66 507,-66 "/>
<text text-anchor="start" x="448" y="-54" font-family="Helvetica,sans-Serif" font-size="10.00">+ ExpGiven</text>
<polyline fill="none" stroke="black" points="440,-47 507,-47 "/>
<text text-anchor="start" x="448" y="-35" font-family="Helvetica,sans-Serif" font-size="10.00">+ Enemy()</text>
</a>
</g>
</g>
<!-- Node3&#45;&gt;Node1 -->
<g id="edge2" class="edge"><title>Node3&#45;&gt;Node1</title>
<path fill="none" stroke="#404040" d="M473.5,-85.0981C473.5,-120.59 473.5,-184.137 473.5,-238.5 473.5,-592 473.5,-592 473.5,-592 473.5,-654.975 489.839,-677.815 459.5,-733 442.384,-764.133 412.636,-789.556 384.691,-808.264"/>
<polygon fill="none" stroke="#404040" points="384.58,-808.336 381.714,-814.953 374.503,-814.851 377.37,-808.235 384.58,-808.336"/>
<text text-anchor="middle" x="491.5" y="-435.5" font-family="Helvetica,sans-Serif" font-size="10.00"> &#45;enemy</text>
</g>
<!-- Node4&#45;&gt;Node3 -->
<g id="edge3" class="edge"><title>Node4&#45;&gt;Node3</title>
<path fill="none" stroke="midnightblue" d="M377.968,-172.775C402.893,-142.699 431.096,-108.668 450.358,-85.4248"/>
<polygon fill="none" stroke="midnightblue" points="375.059,-170.8 371.373,-180.733 380.449,-175.267 375.059,-170.8"/>
</g>
<!-- Node4&#45;&gt;Node7 -->
<g id="edge9" class="edge"><title>Node4&#45;&gt;Node7</title>
<path fill="none" stroke="#404040" d="M321.732,-328.792C320.401,-395.24 318.623,-483.983 317.521,-539.037"/>
<polygon fill="none" stroke="#404040" points="317.516,-539.264 321.395,-545.343 317.276,-551.262 313.397,-545.183 317.516,-539.264"/>
<text text-anchor="middle" x="337.5" y="-441" font-family="Helvetica,sans-Serif" font-size="10.00"> #target</text>
<text text-anchor="middle" x="337.5" y="-430" font-family="Helvetica,sans-Serif" font-size="10.00">#user</text>
</g>
<!-- Node11 -->
<g id="node11" class="node"><title>Node11</title>
<g id="a_node11"><a xlink:href="class_player.html" target="_top" xlink:title="Defines a playable character for use in battle scenes">
<polygon fill="none" stroke="black" points="159.5,-0.5 159.5,-112.5 271.5,-112.5 271.5,-0.5 159.5,-0.5"/>
<text text-anchor="middle" x="215.5" y="-100.5" font-family="Helvetica,sans-Serif" font-size="10.00">Player</text>
<polyline fill="none" stroke="black" points="159.5,-93.5 271.5,-93.5 "/>
<text text-anchor="start" x="167.5" y="-81.5" font-family="Helvetica,sans-Serif" font-size="10.00">+ Exp</text>
<text text-anchor="start" x="167.5" y="-70.5" font-family="Helvetica,sans-Serif" font-size="10.00">+ Item</text>
<text text-anchor="start" x="167.5" y="-59.5" font-family="Helvetica,sans-Serif" font-size="10.00">+ ExpToNextLevel</text>
<polyline fill="none" stroke="black" points="159.5,-52.5 271.5,-52.5 "/>
<text text-anchor="start" x="167.5" y="-40.5" font-family="Helvetica,sans-Serif" font-size="10.00">+ Player()</text>
<text text-anchor="start" x="167.5" y="-29.5" font-family="Helvetica,sans-Serif" font-size="10.00">+ gainExp()</text>
<text text-anchor="start" x="167.5" y="-18.5" font-family="Helvetica,sans-Serif" font-size="10.00">+ levelUp()</text>
<text text-anchor="start" x="167.5" y="-7.5" font-family="Helvetica,sans-Serif" font-size="10.00">&#45; setExpToNextLevel()</text>
</a>
</g>
</g>
<!-- Node4&#45;&gt;Node11 -->
<g id="edge19" class="edge"><title>Node4&#45;&gt;Node11</title>
<path fill="none" stroke="midnightblue" d="M270.732,-150.065C263.144,-137.348 255.524,-124.577 248.471,-112.757"/>
<polygon fill="none" stroke="midnightblue" points="267.843,-152.053 275.972,-158.847 273.854,-148.466 267.843,-152.053"/>
</g>
<!-- Node5 -->
<g id="node5" class="node"><title>Node5</title>
<polygon fill="none" stroke="#bfbfbf" points="505,-999.5 505,-1056.5 534,-1056.5 534,-999.5 505,-999.5"/>
<text text-anchor="middle" x="519.5" y="-1044.5" font-family="Helvetica,sans-Serif" font-size="10.00">int</text>
<polyline fill="none" stroke="#bfbfbf" points="505,-1037.5 534,-1037.5 "/>
<text text-anchor="middle" x="519.5" y="-1025.5" font-family="Helvetica,sans-Serif" font-size="10.00"> </text>
<polyline fill="none" stroke="#bfbfbf" points="505,-1018.5 534,-1018.5 "/>
<text text-anchor="middle" x="519.5" y="-1006.5" font-family="Helvetica,sans-Serif" font-size="10.00"> </text>
</g>
<!-- Node5&#45;&gt;Node1 -->
<g id="edge16" class="edge"><title>Node5&#45;&gt;Node1</title>
<path fill="none" stroke="#404040" d="M504.887,-1023.97C481.881,-1018.6 436.732,-1005.6 406.5,-981 395.546,-972.088 385.417,-961.492 376.213,-950.221"/>
<polygon fill="none" stroke="#404040" points="376.094,-950.07 369.247,-947.808 368.702,-940.617 375.549,-942.879 376.094,-950.07"/>
<text text-anchor="middle" x="426" y="-967.5" font-family="Helvetica,sans-Serif" font-size="10.00"> +money</text>
</g>
<!-- Node5&#45;&gt;Node3 -->
<g id="edge15" class="edge"><title>Node5&#45;&gt;Node3</title>
<path fill="none" stroke="#404040" d="M534.07,-1025.44C558.819,-1022.01 609.051,-1011.5 636.5,-981 677.831,-935.076 673.5,-908.784 673.5,-847 673.5,-847 673.5,-847 673.5,-238.5 673.5,-155.523 577.689,-100.7 518.696,-74.8087"/>
<polygon fill="none" stroke="#404040" points="518.47,-74.7128 511.383,-76.0455 507.427,-70.0164 514.514,-68.6836 518.47,-74.7128"/>
<text text-anchor="middle" x="696.5" y="-515.5" font-family="Helvetica,sans-Serif" font-size="10.00"> &#45;expGiven</text>
</g>
<!-- Node5&#45;&gt;Node4 -->
<g id="edge5" class="edge"><title>Node5&#45;&gt;Node4</title>
<path fill="none" stroke="#404040" d="M520.649,-999.444C525.273,-883.948 541.001,-442.275 513.5,-387 486.075,-331.877 426.977,-291.569 381.925,-267.344"/>
<polygon fill="none" stroke="#404040" points="381.728,-267.241 374.557,-268.006 371.093,-261.681 378.264,-260.916 381.728,-267.241"/>
<text text-anchor="middle" x="567" y="-627" font-family="Helvetica,sans-Serif" font-size="10.00"> #speed</text>
<text text-anchor="middle" x="567" y="-616" font-family="Helvetica,sans-Serif" font-size="10.00">#luck</text>
<text text-anchor="middle" x="567" y="-605" font-family="Helvetica,sans-Serif" font-size="10.00">#health</text>
<text text-anchor="middle" x="567" y="-594" font-family="Helvetica,sans-Serif" font-size="10.00">#magic</text>
<text text-anchor="middle" x="567" y="-583" font-family="Helvetica,sans-Serif" font-size="10.00">#maximumMagic</text>
<text text-anchor="middle" x="567" y="-572" font-family="Helvetica,sans-Serif" font-size="10.00">#attack</text>
<text text-anchor="middle" x="567" y="-561" font-family="Helvetica,sans-Serif" font-size="10.00">#defence</text>
<text text-anchor="middle" x="567" y="-550" font-family="Helvetica,sans-Serif" font-size="10.00">#level</text>
</g>
<!-- Node5&#45;&gt;Node6 -->
<g id="edge13" class="edge"><title>Node5&#45;&gt;Node6</title>
<path fill="none" stroke="#404040" d="M511.051,-999.411C480.209,-898.793 375.141,-556.894 368.5,-547 350.021,-519.471 322.526,-495.202 297.575,-476.679"/>
<polygon fill="none" stroke="#404040" points="297.525,-476.643 290.32,-476.369 287.801,-469.612 295.007,-469.886 297.525,-476.643"/>
<text text-anchor="middle" x="446" y="-690.5" font-family="Helvetica,sans-Serif" font-size="10.00"> #magic</text>
</g>
<!-- Node5&#45;&gt;Node11 -->
<g id="edge22" class="edge"><title>Node5&#45;&gt;Node11</title>
<path fill="none" stroke="#404040" d="M534.057,-1003.86C577.79,-931.105 699.531,-702.648 608.5,-547 600.262,-532.914 586.671,-541.76 576.5,-529 535.476,-477.536 561.522,-447.011 534.5,-387 505.142,-321.8 492.708,-255.574 379.5,-150 351.379,-123.775 314.474,-102.12 282.796,-86.3731"/>
<polygon fill="none" stroke="#404040" points="282.627,-86.2914 275.483,-87.2701 271.832,-81.0517 278.976,-80.073 282.627,-86.2914"/>
<text text-anchor="middle" x="614" y="-521" font-family="Helvetica,sans-Serif" font-size="10.00"> &#45;expToNextLevel</text>
<text text-anchor="middle" x="614" y="-510" font-family="Helvetica,sans-Serif" font-size="10.00">&#45;exp</text>
</g>
<!-- Node6&#45;&gt;Node4 -->
<g id="edge6" class="edge"><title>Node6&#45;&gt;Node4</title>
<path fill="none" stroke="#404040" d="M250.708,-387.267C254.551,-373.979 259.199,-359.767 264.5,-347 266.415,-342.388 268.479,-337.72 270.648,-333.046"/>
<polygon fill="none" stroke="#404040" points="270.685,-332.97 269.677,-325.83 275.88,-322.153 276.888,-329.293 270.685,-332.97"/>
<text text-anchor="middle" x="287" y="-361" font-family="Helvetica,sans-Serif" font-size="10.00"> #special1</text>
<text text-anchor="middle" x="287" y="-350" font-family="Helvetica,sans-Serif" font-size="10.00">#special2</text>
</g>
<!-- Node7&#45;&gt;Node6 -->
<g id="edge7" class="edge"><title>Node7&#45;&gt;Node6</title>
<path fill="none" stroke="midnightblue" d="M295.563,-542.059C290.224,-530.47 284.338,-518.2 278.5,-507 275.398,-501.049 272.017,-494.884 268.579,-488.807"/>
<polygon fill="none" stroke="midnightblue" points="292.384,-543.525 299.715,-551.174 298.754,-540.623 292.384,-543.525"/>
</g>
<!-- Node8 -->
<g id="node8" class="node"><title>Node8</title>
<polygon fill="none" stroke="#bfbfbf" points="220,-562.5 220,-619.5 255,-619.5 255,-562.5 220,-562.5"/>
<text text-anchor="middle" x="237.5" y="-607.5" font-family="Helvetica,sans-Serif" font-size="10.00">float</text>
<polyline fill="none" stroke="#bfbfbf" points="220,-600.5 255,-600.5 "/>
<text text-anchor="middle" x="237.5" y="-588.5" font-family="Helvetica,sans-Serif" font-size="10.00"> </text>
<polyline fill="none" stroke="#bfbfbf" points="220,-581.5 255,-581.5 "/>
<text text-anchor="middle" x="237.5" y="-569.5" font-family="Helvetica,sans-Serif" font-size="10.00"> </text>
</g>
<!-- Node8&#45;&gt;Node6 -->
<g id="edge12" class="edge"><title>Node8&#45;&gt;Node6</title>
<path fill="none" stroke="#404040" d="M237.683,-562.304C237.798,-545 237.95,-522.004 238.092,-500.562"/>
<polygon fill="none" stroke="#404040" points="238.093,-500.515 234.132,-494.488 238.172,-488.515 242.132,-494.541 238.093,-500.515"/>
<text text-anchor="middle" x="258.5" y="-515.5" font-family="Helvetica,sans-Serif" font-size="10.00"> #special</text>
</g>
<!-- Node9 -->
<g id="node9" class="node"><title>Node9</title>
<polygon fill="none" stroke="#bfbfbf" points="376,-409.5 376,-466.5 437,-466.5 437,-409.5 376,-409.5"/>
<text text-anchor="middle" x="406.5" y="-454.5" font-family="Helvetica,sans-Serif" font-size="10.00">Texture2D</text>
<polyline fill="none" stroke="#bfbfbf" points="376,-447.5 437,-447.5 "/>
<text text-anchor="middle" x="406.5" y="-435.5" font-family="Helvetica,sans-Serif" font-size="10.00"> </text>
<polyline fill="none" stroke="#bfbfbf" points="376,-428.5 437,-428.5 "/>
<text text-anchor="middle" x="406.5" y="-416.5" font-family="Helvetica,sans-Serif" font-size="10.00"> </text>
</g>
<!-- Node9&#45;&gt;Node4 -->
<g id="edge14" class="edge"><title>Node9&#45;&gt;Node4</title>
<path fill="none" stroke="#404040" d="M394.784,-409.263C386.999,-390.832 376.259,-365.404 365.475,-339.875"/>
<polygon fill="none" stroke="#404040" points="365.364,-339.611 359.344,-335.641 360.695,-328.557 366.714,-332.528 365.364,-339.611"/>
<text text-anchor="middle" x="395" y="-355.5" font-family="Helvetica,sans-Serif" font-size="10.00"> #image</text>
</g>
<!-- Node10 -->
<g id="node10" class="node"><title>Node10</title>
<polygon fill="none" stroke="#bfbfbf" points="299,-999.5 299,-1056.5 334,-1056.5 334,-999.5 299,-999.5"/>
<text text-anchor="middle" x="316.5" y="-1044.5" font-family="Helvetica,sans-Serif" font-size="10.00">bool</text>
<polyline fill="none" stroke="#bfbfbf" points="299,-1037.5 334,-1037.5 "/>
<text text-anchor="middle" x="316.5" y="-1025.5" font-family="Helvetica,sans-Serif" font-size="10.00"> </text>
<polyline fill="none" stroke="#bfbfbf" points="299,-1018.5 334,-1018.5 "/>
<text text-anchor="middle" x="316.5" y="-1006.5" font-family="Helvetica,sans-Serif" font-size="10.00"> </text>
</g>
<!-- Node10&#45;&gt;Node1 -->
<g id="edge17" class="edge"><title>Node10&#45;&gt;Node1</title>
<path fill="none" stroke="#404040" d="M316.5,-999.269C316.5,-986.414 316.5,-970.234 316.5,-953.255"/>
<polygon fill="none" stroke="#404040" points="316.5,-952.787 312.5,-946.787 316.5,-940.787 320.5,-946.787 316.5,-952.787"/>
<text text-anchor="middle" x="349.5" y="-967.5" font-family="Helvetica,sans-Serif" font-size="10.00"> &#45;wasCriticalHit</text>
</g>
<!-- Node11&#45;&gt;Node1 -->
<g id="edge18" class="edge"><title>Node11&#45;&gt;Node1</title>
<path fill="none" stroke="#404040" d="M194.14,-112.634C165.098,-194.971 119.772,-354.757 147.5,-489 166.324,-580.134 212.853,-674.925 252.333,-743.759"/>
<polygon fill="none" stroke="#404040" points="252.338,-743.767 258.807,-746.953 258.353,-754.15 251.884,-750.963 252.338,-743.767"/>
<text text-anchor="middle" x="164" y="-435.5" font-family="Helvetica,sans-Serif" font-size="10.00"> &#45;player</text>
</g>
<!-- Node12&#45;&gt;Node11 -->
<g id="edge20" class="edge"><title>Node12&#45;&gt;Node11</title>
<path fill="none" stroke="#404040" d="M38.8526,-653.18C39.1405,-618.118 39.5,-565.104 39.5,-519 39.5,-519 39.5,-519 39.5,-238.5 39.5,-173.233 99.0484,-122.654 148.87,-91.7585"/>
<polygon fill="none" stroke="#404040" points="149.046,-91.6525 152.125,-85.1319 159.329,-85.4662 156.249,-91.9869 149.046,-91.6525"/>
<text text-anchor="middle" x="52" y="-435.5" font-family="Helvetica,sans-Serif" font-size="10.00"> &#45;item</text>
</g>
</g>
</svg>
