<?xml version="1.0" encoding="UTF-8" standalone="no"?>
<!DOCTYPE svg PUBLIC "-//W3C//DTD SVG 1.1//EN"
 "http://www.w3.org/Graphics/SVG/1.1/DTD/svg11.dtd">
<!-- Generated by graphviz version 2.38.0 (20140413.2041)
 -->
<!-- Title: Character Pages: 1 -->
<!--zoomable 1075 -->
<svg id="main" version="1.1" xmlns="http://www.w3.org/2000/svg" xmlns:xlink="http://www.w3.org/1999/xlink" xml:space="preserve" onload="init(evt)">
<style type="text/css"><![CDATA[
.edge:hover path { stroke: red; }
.edge:hover polygon { stroke: red; fill: red; }
]]></style>
<script type="text/javascript"><![CDATA[
var edges = document.getElementsByTagName('g');
if (edges && edges.length) {
  for (var i=0;i<edges.length;i++) {
    if (edges[i].id.substr(0,4)=='edge') {
      edges[i].setAttribute('class','edge');
    }
  }
}
]]></script>
        <defs>
                <circle id="rim" cx="0" cy="0" r="7"/>
                <circle id="rim2" cx="0" cy="0" r="3.5"/>
                <g id="zoomPlus">
                        <use xlink:href="#rim" fill="#404040">
                                <set attributeName="fill" to="#808080" begin="zoomplus.mouseover" end="zoomplus.mouseout"/>
                        </use>
                        <path d="M-4,0h8M0,-4v8" fill="none" stroke="white" stroke-width="1.5" pointer-events="none"/>
                </g>
                <g id="zoomMin">
                        <use xlink:href="#rim" fill="#404040">
                                <set attributeName="fill" to="#808080" begin="zoomminus.mouseover" end="zoomminus.mouseout"/>
                        </use>
                        <path d="M-4,0h8" fill="none" stroke="white" stroke-width="1.5" pointer-events="none"/>
                </g>
                <g id="dirArrow">
                        <path fill="none" stroke="white" stroke-width="1.5" d="M0,-3.0v7 M-2.5,-0.5L0,-3.0L2.5,-0.5"/>
                </g>
               <g id="resetDef">
                       <use xlink:href="#rim2" fill="#404040">
                               <set attributeName="fill" to="#808080" begin="reset.mouseover" end="reset.mouseout"/>
                       </use>
               </g>
        </defs>

<script type="text/javascript">
var viewWidth = 729;
var viewHeight = 1075;
var sectionId = 'dynsection-1';
</script>
<script xlink:href="svgpan.js"/>
<svg id="graph" class="graph">
<g id="viewport">
<title>Character</title>
<!-- Node3 -->
<g id="node1" class="node"><title>Node3</title>
<polygon fill="#bfbfbf" stroke="black" points="121,-706.5 121,-884.5 216,-884.5 216,-706.5 121,-706.5"/>
<text text-anchor="middle" x="168.5" y="-872.5" font-family="Helvetica,sans-Serif" font-size="10.00">Character</text>
<polyline fill="none" stroke="black" points="121,-865.5 216,-865.5 "/>
<text text-anchor="start" x="129" y="-853.5" font-family="Helvetica,sans-Serif" font-size="10.00">+ Name</text>
<text text-anchor="start" x="129" y="-842.5" font-family="Helvetica,sans-Serif" font-size="10.00">+ Level</text>
<text text-anchor="start" x="129" y="-831.5" font-family="Helvetica,sans-Serif" font-size="10.00">+ Health</text>
<text text-anchor="start" x="129" y="-820.5" font-family="Helvetica,sans-Serif" font-size="10.00">+ Attack</text>
<text text-anchor="start" x="129" y="-809.5" font-family="Helvetica,sans-Serif" font-size="10.00">+ Defence</text>
<text text-anchor="start" x="129" y="-798.5" font-family="Helvetica,sans-Serif" font-size="10.00">+ MaximumMagic</text>
<text text-anchor="start" x="129" y="-787.5" font-family="Helvetica,sans-Serif" font-size="10.00">+ Magic</text>
<text text-anchor="start" x="129" y="-776.5" font-family="Helvetica,sans-Serif" font-size="10.00">+ Luck</text>
<text text-anchor="start" x="129" y="-765.5" font-family="Helvetica,sans-Serif" font-size="10.00">+ Speed</text>
<text text-anchor="start" x="129" y="-754.5" font-family="Helvetica,sans-Serif" font-size="10.00">+ Special1</text>
<text text-anchor="start" x="129" y="-743.5" font-family="Helvetica,sans-Serif" font-size="10.00">+ Special2</text>
<text text-anchor="start" x="129" y="-732.5" font-family="Helvetica,sans-Serif" font-size="10.00">+ Image</text>
<polyline fill="none" stroke="black" points="121,-725.5 216,-725.5 "/>
<text text-anchor="start" x="129" y="-713.5" font-family="Helvetica,sans-Serif" font-size="10.00"># Character()</text>
</g>
<!-- Node7 -->
<g id="node5" class="node"><title>Node7</title>
<g id="a_node5"><a xlink:href="class_character_move.html" target="_top" xlink:title="Astract base class for character moves ">
<polygon fill="none" stroke="black" points="327.5,-149.5 327.5,-228.5 413.5,-228.5 413.5,-149.5 327.5,-149.5"/>
<text text-anchor="middle" x="370.5" y="-216.5" font-family="Helvetica,sans-Serif" font-size="10.00">CharacterMove</text>
<polyline fill="none" stroke="black" points="327.5,-209.5 413.5,-209.5 "/>
<text text-anchor="start" x="335.5" y="-197.5" font-family="Helvetica,sans-Serif" font-size="10.00">+ User</text>
<text text-anchor="start" x="335.5" y="-186.5" font-family="Helvetica,sans-Serif" font-size="10.00">+ Target</text>
<text text-anchor="start" x="335.5" y="-175.5" font-family="Helvetica,sans-Serif" font-size="10.00">+ Text</text>
<polyline fill="none" stroke="black" points="327.5,-168.5 413.5,-168.5 "/>
<text text-anchor="start" x="335.5" y="-156.5" font-family="Helvetica,sans-Serif" font-size="10.00">+ performMove()</text>
</a>
</g>
</g>
<!-- Node3&#45;&gt;Node7 -->
<g id="edge6" class="edge"><title>Node3&#45;&gt;Node7</title>
<path fill="none" stroke="#404040" d="M169.272,-706.385C171.076,-653.155 175.788,-584.19 187.5,-524 204.923,-434.457 273.669,-323.495 303.5,-276 311.443,-263.353 320.855,-250.332 330.076,-238.369"/>
<polygon fill="none" stroke="#404040" points="330.333,-238.042 330.889,-230.852 337.74,-228.601 337.183,-235.79 330.333,-238.042"/>
<text text-anchor="middle" x="214.5" y="-498" font-family="Helvetica,sans-Serif" font-size="10.00"> #target</text>
<text text-anchor="middle" x="214.5" y="-487" font-family="Helvetica,sans-Serif" font-size="10.00">#user</text>
</g>
<!-- Node9 -->
<g id="node7" class="node"><title>Node9</title>
<g id="a_node7"><a xlink:href="class_enemy.html" target="_top" xlink:title="Defines an AI controller enemy to fight in battle scenes">
<polygon fill="none" stroke="black" points="197,-557.5 197,-614.5 264,-614.5 264,-557.5 197,-557.5"/>
<text text-anchor="middle" x="230.5" y="-602.5" font-family="Helvetica,sans-Serif" font-size="10.00">Enemy</text>
<polyline fill="none" stroke="black" points="197,-595.5 264,-595.5 "/>
<text text-anchor="start" x="205" y="-583.5" font-family="Helvetica,sans-Serif" font-size="10.00">+ ExpGiven</text>
<polyline fill="none" stroke="black" points="197,-576.5 264,-576.5 "/>
<text text-anchor="start" x="205" y="-564.5" font-family="Helvetica,sans-Serif" font-size="10.00">+ Enemy()</text>
</a>
</g>
</g>
<!-- Node3&#45;&gt;Node9 -->
<g id="edge10" class="edge"><title>Node3&#45;&gt;Node9</title>
<path fill="none" stroke="midnightblue" d="M197.775,-696.522C206.714,-666.606 215.845,-636.047 222.182,-614.837"/>
<polygon fill="none" stroke="midnightblue" points="194.393,-695.617 194.883,-706.2 201.1,-697.621 194.393,-695.617"/>
</g>
<!-- Node11 -->
<g id="node9" class="node"><title>Node11</title>
<g id="a_node9"><a xlink:href="class_player.html" target="_top" xlink:title="Defines a playable character for use in battle scenes">
<polygon fill="none" stroke="black" points="373.5,-524.5 373.5,-647.5 485.5,-647.5 485.5,-524.5 373.5,-524.5"/>
<text text-anchor="middle" x="429.5" y="-635.5" font-family="Helvetica,sans-Serif" font-size="10.00">Player</text>
<polyline fill="none" stroke="black" points="373.5,-628.5 485.5,-628.5 "/>
<text text-anchor="start" x="381.5" y="-616.5" font-family="Helvetica,sans-Serif" font-size="10.00">+ Exp</text>
<text text-anchor="start" x="381.5" y="-605.5" font-family="Helvetica,sans-Serif" font-size="10.00">+ Item</text>
<text text-anchor="start" x="381.5" y="-594.5" font-family="Helvetica,sans-Serif" font-size="10.00">+ ExpToNextLevel</text>
<polyline fill="none" stroke="black" points="373.5,-587.5 485.5,-587.5 "/>
<text text-anchor="start" x="381.5" y="-575.5" font-family="Helvetica,sans-Serif" font-size="10.00">+ Player()</text>
<text text-anchor="start" x="381.5" y="-564.5" font-family="Helvetica,sans-Serif" font-size="10.00">+ gainExp()</text>
<text text-anchor="start" x="381.5" y="-553.5" font-family="Helvetica,sans-Serif" font-size="10.00">+ levelUp()</text>
<text text-anchor="start" x="381.5" y="-542.5" font-family="Helvetica,sans-Serif" font-size="10.00">+ Clone()</text>
<text text-anchor="start" x="381.5" y="-531.5" font-family="Helvetica,sans-Serif" font-size="10.00">&#45; setExpToNextLevel()</text>
</a>
</g>
</g>
<!-- Node3&#45;&gt;Node11 -->
<g id="edge15" class="edge"><title>Node3&#45;&gt;Node11</title>
<path fill="none" stroke="midnightblue" d="M223.036,-714.397C225.799,-711.475 228.623,-708.662 231.5,-706 237.525,-700.424 316.854,-653.293 373.244,-620.049"/>
<polygon fill="none" stroke="midnightblue" points="220.403,-712.091 216.304,-721.86 225.601,-716.779 220.403,-712.091"/>
</g>
<!-- Node4 -->
<g id="node2" class="node"><title>Node4</title>
<polygon fill="none" stroke="#bfbfbf" points="552,-1009.5 552,-1066.5 593,-1066.5 593,-1009.5 552,-1009.5"/>
<text text-anchor="middle" x="572.5" y="-1054.5" font-family="Helvetica,sans-Serif" font-size="10.00">string</text>
<polyline fill="none" stroke="#bfbfbf" points="552,-1047.5 593,-1047.5 "/>
<text text-anchor="middle" x="572.5" y="-1035.5" font-family="Helvetica,sans-Serif" font-size="10.00"> </text>
<polyline fill="none" stroke="#bfbfbf" points="552,-1028.5 593,-1028.5 "/>
<text text-anchor="middle" x="572.5" y="-1016.5" font-family="Helvetica,sans-Serif" font-size="10.00"> </text>
</g>
<!-- Node4&#45;&gt;Node3 -->
<g id="edge1" class="edge"><title>Node4&#45;&gt;Node3</title>
<path fill="none" stroke="#404040" d="M551.622,-1031.88C494.953,-1017.16 335.539,-970.233 231.5,-885 229.138,-883.065 226.823,-881.021 224.559,-878.89"/>
<polygon fill="none" stroke="#404040" points="224.5,-878.83 217.44,-877.361 216.081,-870.279 223.141,-871.748 224.5,-878.83"/>
<text text-anchor="middle" x="442" y="-944.5" font-family="Helvetica,sans-Serif" font-size="10.00"> #name</text>
</g>
<!-- Node6 -->
<g id="node4" class="node"><title>Node6</title>
<g id="a_node4"><a xlink:href="class_special_move.html" target="_top" xlink:title="Special move abstract base class that expands upon CharacterMove, adding magic properties ...">
<polygon fill="none" stroke="black" points="321.5,-0.5 321.5,-101.5 419.5,-101.5 419.5,-0.5 321.5,-0.5"/>
<text text-anchor="middle" x="370.5" y="-89.5" font-family="Helvetica,sans-Serif" font-size="10.00">SpecialMove</text>
<polyline fill="none" stroke="black" points="321.5,-82.5 419.5,-82.5 "/>
<text text-anchor="start" x="329.5" y="-70.5" font-family="Helvetica,sans-Serif" font-size="10.00">+ Magic</text>
<text text-anchor="start" x="329.5" y="-59.5" font-family="Helvetica,sans-Serif" font-size="10.00">+ Desc</text>
<text text-anchor="start" x="329.5" y="-48.5" font-family="Helvetica,sans-Serif" font-size="10.00">+ Special</text>
<polyline fill="none" stroke="black" points="321.5,-41.5 419.5,-41.5 "/>
<text text-anchor="start" x="329.5" y="-29.5" font-family="Helvetica,sans-Serif" font-size="10.00">+ setUp()</text>
<text text-anchor="start" x="329.5" y="-18.5" font-family="Helvetica,sans-Serif" font-size="10.00">+ decreaseMagic()</text>
<text text-anchor="start" x="329.5" y="-7.5" font-family="Helvetica,sans-Serif" font-size="10.00"># SpecialMove()</text>
</a>
</g>
</g>
<!-- Node4&#45;&gt;Node6 -->
<g id="edge19" class="edge"><title>Node4&#45;&gt;Node6</title>
<path fill="none" stroke="#404040" d="M593.112,-1022.65C603.227,-1014.53 614.675,-1003.49 621.5,-991 663.647,-913.849 657.5,-884.413 657.5,-796.5 657.5,-796.5 657.5,-796.5 657.5,-188 657.5,-88.8062 515.765,-61.8646 431.502,-54.6124"/>
<polygon fill="none" stroke="#404040" points="431.475,-54.6103 425.182,-58.1326 419.511,-53.679 425.803,-50.1567 431.475,-54.6103"/>
<text text-anchor="middle" x="672.5" y="-492.5" font-family="Helvetica,sans-Serif" font-size="10.00"> #desc</text>
</g>
<!-- Node4&#45;&gt;Node7 -->
<g id="edge5" class="edge"><title>Node4&#45;&gt;Node7</title>
<path fill="none" stroke="#404040" d="M591.144,-1009.27C594.182,-1003.46 596.866,-997.21 598.5,-991 635.246,-851.308 626.595,-807.686 598.5,-666 562.026,-482.059 520.895,-443.958 437.5,-276 430.856,-262.619 429.243,-259.115 420.5,-247 418.373,-244.053 416.123,-241.079 413.802,-238.117"/>
<polygon fill="none" stroke="#404040" points="413.766,-238.072 406.88,-235.931 406.208,-228.752 413.094,-230.892 413.766,-238.072"/>
<text text-anchor="middle" x="607" y="-583.5" font-family="Helvetica,sans-Serif" font-size="10.00"> #text</text>
</g>
<!-- Node8 -->
<g id="node6" class="node"><title>Node8</title>
<g id="a_node6"><a xlink:href="class_battle_manager.html" target="_top" xlink:title="Holds current Player and Enemy objects in battle and provides functions for MainBattle and other obje...">
<polygon fill="none" stroke="black" points="312.5,-276.5 312.5,-465.5 428.5,-465.5 428.5,-276.5 312.5,-276.5"/>
<text text-anchor="middle" x="370.5" y="-453.5" font-family="Helvetica,sans-Serif" font-size="10.00">BattleManager</text>
<polyline fill="none" stroke="black" points="312.5,-446.5 428.5,-446.5 "/>
<text text-anchor="start" x="320.5" y="-434.5" font-family="Helvetica,sans-Serif" font-size="10.00">+ Player</text>
<text text-anchor="start" x="320.5" y="-423.5" font-family="Helvetica,sans-Serif" font-size="10.00">+ Enemy</text>
<text text-anchor="start" x="320.5" y="-412.5" font-family="Helvetica,sans-Serif" font-size="10.00">+ WasCriticalHit</text>
<polyline fill="none" stroke="black" points="312.5,-405.5 428.5,-405.5 "/>
<text text-anchor="start" x="320.5" y="-393.5" font-family="Helvetica,sans-Serif" font-size="10.00">+ BattleManager()</text>
<text text-anchor="start" x="320.5" y="-382.5" font-family="Helvetica,sans-Serif" font-size="10.00">+ playerFirst()</text>
<text text-anchor="start" x="320.5" y="-371.5" font-family="Helvetica,sans-Serif" font-size="10.00">+ switchPlayers()</text>
<text text-anchor="start" x="320.5" y="-360.5" font-family="Helvetica,sans-Serif" font-size="10.00">+ isCriticalHit()</text>
<text text-anchor="start" x="320.5" y="-349.5" font-family="Helvetica,sans-Serif" font-size="10.00">+ ranAway()</text>
<text text-anchor="start" x="320.5" y="-338.5" font-family="Helvetica,sans-Serif" font-size="10.00">+ damageCalculation()</text>
<text text-anchor="start" x="320.5" y="-327.5" font-family="Helvetica,sans-Serif" font-size="10.00">+ enemyMove()</text>
<text text-anchor="start" x="320.5" y="-316.5" font-family="Helvetica,sans-Serif" font-size="10.00">+ enemySpecialMove()</text>
<text text-anchor="start" x="320.5" y="-305.5" font-family="Helvetica,sans-Serif" font-size="10.00">+ battleWon()</text>
<text text-anchor="start" x="320.5" y="-294.5" font-family="Helvetica,sans-Serif" font-size="10.00">+ playerFainted()</text>
<text text-anchor="start" x="320.5" y="-283.5" font-family="Helvetica,sans-Serif" font-size="10.00">&#45; characterFainted()</text>
</a>
</g>
</g>
<!-- Node4&#45;&gt;Node8 -->
<g id="edge8" class="edge"><title>Node4&#45;&gt;Node8</title>
<path fill="none" stroke="#404040" d="M579.683,-1009.16C593.692,-948.171 617.974,-800.675 553.5,-706 542.754,-690.221 525.745,-703.427 514.5,-688 471.247,-628.662 523.285,-591.551 494.5,-524 480.945,-492.19 458.637,-461.703 436.652,-436.493"/>
<polygon fill="none" stroke="#404040" points="436.573,-436.405 429.593,-434.592 428.583,-427.452 435.562,-429.265 436.573,-436.405"/>
<text text-anchor="middle" x="556.5" y="-680" font-family="Helvetica,sans-Serif" font-size="10.00"> +forceEnemyMove</text>
<text text-anchor="middle" x="556.5" y="-669" font-family="Helvetica,sans-Serif" font-size="10.00">+forceCriticalHits</text>
</g>
<!-- Node12 -->
<g id="node10" class="node"><title>Node12</title>
<g id="a_node10"><a xlink:href="class_item.html" target="_top" xlink:title="Abstract class for items that can be equipped to a player, increasing some of their stats ...">
<polygon fill="none" stroke="black" points="467,-756 467,-835 544,-835 544,-756 467,-756"/>
<text text-anchor="middle" x="505.5" y="-823" font-family="Helvetica,sans-Serif" font-size="10.00">Item</text>
<polyline fill="none" stroke="black" points="467,-816 544,-816 "/>
<text text-anchor="start" x="475" y="-804" font-family="Helvetica,sans-Serif" font-size="10.00">+ Name</text>
<text text-anchor="start" x="475" y="-793" font-family="Helvetica,sans-Serif" font-size="10.00">+ Desc</text>
<polyline fill="none" stroke="black" points="467,-786 544,-786 "/>
<text text-anchor="start" x="475" y="-774" font-family="Helvetica,sans-Serif" font-size="10.00">+ applyBuffs()</text>
<text text-anchor="start" x="475" y="-763" font-family="Helvetica,sans-Serif" font-size="10.00">+ revertBuffs()</text>
</a>
</g>
</g>
<!-- Node4&#45;&gt;Node12 -->
<g id="edge17" class="edge"><title>Node4&#45;&gt;Node12</title>
<path fill="none" stroke="#404040" d="M551.863,-1020.76C543.184,-1012.76 533.871,-1002.4 528.5,-991 507.086,-945.565 502.727,-887.804 502.87,-847.07"/>
<polygon fill="none" stroke="#404040" points="502.871,-847.006 498.959,-840.948 503.045,-835.007 506.958,-841.065 502.871,-847.006"/>
<text text-anchor="middle" x="543.5" y="-950" font-family="Helvetica,sans-Serif" font-size="10.00"> #desc</text>
<text text-anchor="middle" x="543.5" y="-939" font-family="Helvetica,sans-Serif" font-size="10.00">#name</text>
</g>
<!-- Node5 -->
<g id="node3" class="node"><title>Node5</title>
<polygon fill="none" stroke="#bfbfbf" points="239,-1009.5 239,-1066.5 268,-1066.5 268,-1009.5 239,-1009.5"/>
<text text-anchor="middle" x="253.5" y="-1054.5" font-family="Helvetica,sans-Serif" font-size="10.00">int</text>
<polyline fill="none" stroke="#bfbfbf" points="239,-1047.5 268,-1047.5 "/>
<text text-anchor="middle" x="253.5" y="-1035.5" font-family="Helvetica,sans-Serif" font-size="10.00"> </text>
<polyline fill="none" stroke="#bfbfbf" points="239,-1028.5 268,-1028.5 "/>
<text text-anchor="middle" x="253.5" y="-1016.5" font-family="Helvetica,sans-Serif" font-size="10.00"> </text>
</g>
<!-- Node5&#45;&gt;Node3 -->
<g id="edge2" class="edge"><title>Node5&#45;&gt;Node3</title>
<path fill="none" stroke="#404040" d="M238.93,-1034.32C218.167,-1029.62 180.781,-1017.74 164.5,-991 147.602,-963.245 143.97,-928.881 146.02,-896.795"/>
<polygon fill="none" stroke="#404040" points="146.038,-896.584 142.568,-890.263 147.068,-884.628 150.538,-890.949 146.038,-896.584"/>
<text text-anchor="middle" x="202" y="-983" font-family="Helvetica,sans-Serif" font-size="10.00"> #speed</text>
<text text-anchor="middle" x="202" y="-972" font-family="Helvetica,sans-Serif" font-size="10.00">#luck</text>
<text text-anchor="middle" x="202" y="-961" font-family="Helvetica,sans-Serif" font-size="10.00">#health</text>
<text text-anchor="middle" x="202" y="-950" font-family="Helvetica,sans-Serif" font-size="10.00">#magic</text>
<text text-anchor="middle" x="202" y="-939" font-family="Helvetica,sans-Serif" font-size="10.00">#maximumMagic</text>
<text text-anchor="middle" x="202" y="-928" font-family="Helvetica,sans-Serif" font-size="10.00">#attack</text>
<text text-anchor="middle" x="202" y="-917" font-family="Helvetica,sans-Serif" font-size="10.00">#defence</text>
<text text-anchor="middle" x="202" y="-906" font-family="Helvetica,sans-Serif" font-size="10.00">#level</text>
</g>
<!-- Node5&#45;&gt;Node6 -->
<g id="edge21" class="edge"><title>Node5&#45;&gt;Node6</title>
<path fill="none" stroke="#404040" d="M238.648,-1034.9C214.953,-1030.78 168.614,-1019.41 142.5,-991 81.1041,-924.198 80.5,-887.23 80.5,-796.5 80.5,-796.5 80.5,-796.5 80.5,-188 80.5,-87.8261 224.096,-61.2904 309.198,-54.3601"/>
<polygon fill="none" stroke="#404040" points="309.338,-54.35 315.029,-49.9224 321.305,-53.4734 315.614,-57.901 309.338,-54.35"/>
<text text-anchor="middle" x="98" y="-492.5" font-family="Helvetica,sans-Serif" font-size="10.00"> #magic</text>
</g>
<!-- Node5&#45;&gt;Node8 -->
<g id="edge12" class="edge"><title>Node5&#45;&gt;Node8</title>
<path fill="none" stroke="#404040" d="M262.086,-1009.49C271.302,-979.217 285.91,-929.003 295.5,-885 331.831,-718.301 334.071,-675.132 356.5,-506 357.711,-496.87 358.88,-487.378 359.993,-477.852"/>
<polygon fill="none" stroke="#404040" points="360.008,-477.715 356.715,-471.3 361.37,-465.793 364.663,-472.208 360.008,-477.715"/>
<text text-anchor="middle" x="355" y="-674.5" font-family="Helvetica,sans-Serif" font-size="10.00"> +money</text>
</g>
<!-- Node5&#45;&gt;Node9 -->
<g id="edge11" class="edge"><title>Node5&#45;&gt;Node9</title>
<path fill="none" stroke="#404040" d="M252.079,-1009.19C248.145,-932.22 237.102,-716.171 232.526,-626.638"/>
<polygon fill="none" stroke="#404040" points="232.525,-626.609 228.223,-620.821 231.912,-614.624 236.213,-620.412 232.525,-626.609"/>
<text text-anchor="middle" x="268.5" y="-793" font-family="Helvetica,sans-Serif" font-size="10.00"> &#45;expGiven</text>
</g>
<!-- Node5&#45;&gt;Node11 -->
<g id="edge18" class="edge"><title>Node5&#45;&gt;Node11</title>
<path fill="none" stroke="#404040" d="M268.092,-1033.77C288.152,-1028.5 323.77,-1016.05 341.5,-991 415.439,-886.551 349.661,-829.685 382.5,-706 386.611,-690.517 392.135,-674.314 397.951,-659.025"/>
<polygon fill="none" stroke="#404040" points="398.071,-658.716 396.528,-651.672 402.436,-647.538 403.98,-654.582 398.071,-658.716"/>
<text text-anchor="middle" x="420" y="-798.5" font-family="Helvetica,sans-Serif" font-size="10.00"> &#45;expToNextLevel</text>
<text text-anchor="middle" x="420" y="-787.5" font-family="Helvetica,sans-Serif" font-size="10.00">&#45;exp</text>
</g>
<!-- Node6&#45;&gt;Node3 -->
<g id="edge3" class="edge"><title>Node6&#45;&gt;Node3</title>
<path fill="none" stroke="#404040" d="M321.353,-57.7652C251.138,-69.0465 130.5,-101.077 130.5,-188 130.5,-587 130.5,-587 130.5,-587 130.5,-622.382 135.912,-660.61 142.651,-694.497"/>
<polygon fill="none" stroke="#404040" points="142.659,-694.538 147.789,-699.607 145.083,-706.291 139.954,-701.223 142.659,-694.538"/>
<text text-anchor="middle" x="153" y="-374" font-family="Helvetica,sans-Serif" font-size="10.00"> #special1</text>
<text text-anchor="middle" x="153" y="-363" font-family="Helvetica,sans-Serif" font-size="10.00">#special2</text>
</g>
<!-- Node7&#45;&gt;Node6 -->
<g id="edge4" class="edge"><title>Node7&#45;&gt;Node6</title>
<path fill="none" stroke="midnightblue" d="M370.5,-139.047C370.5,-126.972 370.5,-114.025 370.5,-101.905"/>
<polygon fill="none" stroke="midnightblue" points="367,-139.392 370.5,-149.392 374,-139.392 367,-139.392"/>
</g>
<!-- Node8&#45;&gt;Node7 -->
<g id="edge7" class="edge"><title>Node8&#45;&gt;Node7</title>
<path fill="none" stroke="#404040" d="M370.5,-276.31C370.5,-264.145 370.5,-252.07 370.5,-240.976"/>
<polygon fill="none" stroke="#404040" points="370.5,-240.915 366.5,-234.915 370.5,-228.915 374.5,-234.915 370.5,-240.915"/>
<text text-anchor="middle" x="393.5" y="-250" font-family="Helvetica,sans-Serif" font-size="10.00"> #manager</text>
</g>
<!-- Node9&#45;&gt;Node8 -->
<g id="edge9" class="edge"><title>Node9&#45;&gt;Node8</title>
<path fill="none" stroke="#404040" d="M229.997,-557.266C230.73,-536.029 234.234,-506.632 246.5,-484 260.106,-458.895 281.582,-436.538 302.863,-418.526"/>
<polygon fill="none" stroke="#404040" points="302.988,-418.424 305.096,-411.528 312.273,-410.821 310.165,-417.717 302.988,-418.424"/>
<text text-anchor="middle" x="264.5" y="-492.5" font-family="Helvetica,sans-Serif" font-size="10.00"> &#45;enemy</text>
</g>
<!-- Node10 -->
<g id="node8" class="node"><title>Node10</title>
<polygon fill="none" stroke="#bfbfbf" points="282,-557.5 282,-614.5 317,-614.5 317,-557.5 282,-557.5"/>
<text text-anchor="middle" x="299.5" y="-602.5" font-family="Helvetica,sans-Serif" font-size="10.00">bool</text>
<polyline fill="none" stroke="#bfbfbf" points="282,-595.5 317,-595.5 "/>
<text text-anchor="middle" x="299.5" y="-583.5" font-family="Helvetica,sans-Serif" font-size="10.00"> </text>
<polyline fill="none" stroke="#bfbfbf" points="282,-576.5 317,-576.5 "/>
<text text-anchor="middle" x="299.5" y="-564.5" font-family="Helvetica,sans-Serif" font-size="10.00"> </text>
</g>
<!-- Node10&#45;&gt;Node8 -->
<g id="edge13" class="edge"><title>Node10&#45;&gt;Node8</title>
<path fill="none" stroke="#404040" d="M291.297,-557.349C286.526,-536.678 282.817,-507.973 290.5,-484 294.258,-472.274 299.744,-460.73 306.111,-449.771"/>
<polygon fill="none" stroke="#404040" points="306.17,-449.676 305.907,-442.47 312.458,-439.456 312.721,-446.662 306.17,-449.676"/>
<text text-anchor="middle" x="323.5" y="-492.5" font-family="Helvetica,sans-Serif" font-size="10.00"> &#45;wasCriticalHit</text>
</g>
<!-- Node11&#45;&gt;Node8 -->
<g id="edge14" class="edge"><title>Node11&#45;&gt;Node8</title>
<path fill="none" stroke="#404040" d="M412.672,-524.248C408.616,-509.604 404.165,-493.535 399.722,-477.496"/>
<polygon fill="none" stroke="#404040" points="399.698,-477.408 394.241,-472.694 396.494,-465.844 401.951,-470.558 399.698,-477.408"/>
<text text-anchor="middle" x="424" y="-492.5" font-family="Helvetica,sans-Serif" font-size="10.00"> &#45;player</text>
</g>
<!-- Node12&#45;&gt;Node11 -->
<g id="edge16" class="edge"><title>Node12&#45;&gt;Node11</title>
<path fill="none" stroke="#404040" d="M491.383,-755.957C481.438,-728.803 467.822,-691.628 455.893,-659.061"/>
<polygon fill="none" stroke="#404040" points="455.881,-659.026 450.061,-654.767 451.753,-647.758 457.573,-652.016 455.881,-659.026"/>
<text text-anchor="middle" x="478" y="-674.5" font-family="Helvetica,sans-Serif" font-size="10.00"> &#45;item</text>
</g>
<!-- Node13 -->
<g id="node11" class="node"><title>Node13</title>
<polygon fill="none" stroke="#bfbfbf" points="686,-160.5 686,-217.5 721,-217.5 721,-160.5 686,-160.5"/>
<text text-anchor="middle" x="703.5" y="-205.5" font-family="Helvetica,sans-Serif" font-size="10.00">float</text>
<polyline fill="none" stroke="#bfbfbf" points="686,-198.5 721,-198.5 "/>
<text text-anchor="middle" x="703.5" y="-186.5" font-family="Helvetica,sans-Serif" font-size="10.00"> </text>
<polyline fill="none" stroke="#bfbfbf" points="686,-179.5 721,-179.5 "/>
<text text-anchor="middle" x="703.5" y="-167.5" font-family="Helvetica,sans-Serif" font-size="10.00"> </text>
</g>
<!-- Node13&#45;&gt;Node6 -->
<g id="edge20" class="edge"><title>Node13&#45;&gt;Node6</title>
<path fill="none" stroke="#404040" d="M696.812,-160.486C692.017,-146.401 684.115,-130.13 671.5,-120 635.07,-90.7467 508.556,-69.7896 431.622,-59.4033"/>
<polygon fill="none" stroke="#404040" points="431.618,-59.4029 425.145,-62.5806 419.722,-57.8275 426.195,-54.6498 431.618,-59.4029"/>
<text text-anchor="middle" x="700.5" y="-123" font-family="Helvetica,sans-Serif" font-size="10.00"> #special</text>
</g>
<!-- Node14 -->
<g id="node12" class="node"><title>Node14</title>
<polygon fill="none" stroke="#bfbfbf" points="0,-1009.5 0,-1066.5 61,-1066.5 61,-1009.5 0,-1009.5"/>
<text text-anchor="middle" x="30.5" y="-1054.5" font-family="Helvetica,sans-Serif" font-size="10.00">Texture2D</text>
<polyline fill="none" stroke="#bfbfbf" points="0,-1047.5 61,-1047.5 "/>
<text text-anchor="middle" x="30.5" y="-1035.5" font-family="Helvetica,sans-Serif" font-size="10.00"> </text>
<polyline fill="none" stroke="#bfbfbf" points="0,-1028.5 61,-1028.5 "/>
<text text-anchor="middle" x="30.5" y="-1016.5" font-family="Helvetica,sans-Serif" font-size="10.00"> </text>
</g>
<!-- Node14&#45;&gt;Node3 -->
<g id="edge22" class="edge"><title>Node14&#45;&gt;Node3</title>
<path fill="none" stroke="#404040" d="M46.3304,-1009.41C63.0412,-980.289 90.3092,-932.767 114.849,-890.001"/>
<polygon fill="none" stroke="#404040" points="114.883,-889.94 114.4,-882.746 120.856,-879.532 121.339,-886.727 114.883,-889.94"/>
<text text-anchor="middle" x="122" y="-944.5" font-family="Helvetica,sans-Serif" font-size="10.00"> #image</text>
</g>
</g>
</svg>
        <g id="navigator" transform="translate(0 0)" fill="#404254">
                <rect fill="#f2f5e9" fill-opacity="0.5" stroke="#606060" stroke-width=".5" x="0" y="0" width="60" height="60"/>
                <use id="zoomplus" xlink:href="#zoomPlus" x="17" y="9" onmousedown="handleZoom(evt,'in')"/>
                <use id="zoomminus" xlink:href="#zoomMin" x="42" y="9" onmousedown="handleZoom(evt,'out')"/>
                <use id="reset" xlink:href="#resetDef" x="30" y="36" onmousedown="handleReset()"/>
                <g id="arrowUp" xlink:href="#dirArrow" transform="translate(30 24)" onmousedown="handlePan(0,-1)">
                  <use xlink:href="#rim" fill="#404040">
                        <set attributeName="fill" to="#808080" begin="arrowUp.mouseover" end="arrowUp.mouseout"/>
                  </use>
                  <path fill="none" stroke="white" stroke-width="1.5" d="M0,-3.0v7 M-2.5,-0.5L0,-3.0L2.5,-0.5"/>
                </g>
                <g id="arrowRight" xlink:href="#dirArrow" transform="rotate(90) translate(36 -43)" onmousedown="handlePan(1,0)">
                  <use xlink:href="#rim" fill="#404040">
                        <set attributeName="fill" to="#808080" begin="arrowRight.mouseover" end="arrowRight.mouseout"/>
                  </use>
                  <path fill="none" stroke="white" stroke-width="1.5" d="M0,-3.0v7 M-2.5,-0.5L0,-3.0L2.5,-0.5"/>
                </g>
                <g id="arrowDown" xlink:href="#dirArrow" transform="rotate(180) translate(-30 -48)" onmousedown="handlePan(0,1)">
                  <use xlink:href="#rim" fill="#404040">
                        <set attributeName="fill" to="#808080" begin="arrowDown.mouseover" end="arrowDown.mouseout"/>
                  </use>
                  <path fill="none" stroke="white" stroke-width="1.5" d="M0,-3.0v7 M-2.5,-0.5L0,-3.0L2.5,-0.5"/>
                </g>
                <g id="arrowLeft" xlink:href="#dirArrow" transform="rotate(270) translate(-36 17)" onmousedown="handlePan(-1,0)">
                  <use xlink:href="#rim" fill="#404040">
                        <set attributeName="fill" to="#808080" begin="arrowLeft.mouseover" end="arrowLeft.mouseout"/>
                  </use>
                  <path fill="none" stroke="white" stroke-width="1.5" d="M0,-3.0v7 M-2.5,-0.5L0,-3.0L2.5,-0.5"/>
                </g>
        </g>
        <svg viewBox="0 0 15 15" width="100%" height="30px" preserveAspectRatio="xMaxYMin meet">
         <g id="arrow_out" transform="scale(0.3 0.3)">
          <a xlink:href="class_character__coll__graph_org.svg" target="_base">
           <rect id="button" ry="5" rx="5" y="6" x="6" height="38" width="38"
                fill="#f2f5e9" fill-opacity="0.5" stroke="#606060" stroke-width="1.0"/>
           <path id="arrow"
             d="M 11.500037,31.436501 C 11.940474,20.09759 22.043105,11.32322 32.158766,21.979434 L 37.068811,17.246167 C 37.068811,17.246167 37.088388,32 37.088388,32 L 22.160133,31.978069 C 22.160133,31.978069 26.997745,27.140456 26.997745,27.140456 C 18.528582,18.264221 13.291696,25.230495 11.500037,31.436501 z"
             style="fill:#404040;"/>
          </a>
         </g>
        </svg>
</svg>
