<?xml version="1.0" encoding="UTF-8" standalone="no"?>
<!DOCTYPE svg PUBLIC "-//W3C//DTD SVG 1.1//EN"
 "http://www.w3.org/Graphics/SVG/1.1/DTD/svg11.dtd">
<!-- Generated by graphviz version 2.38.0 (20140413.2041)
 -->
<!-- Title: Quest Pages: 1 -->
<svg width="378pt" height="364pt"
 viewBox="0.00 0.00 378.00 364.00" xmlns="http://www.w3.org/2000/svg" xmlns:xlink="http://www.w3.org/1999/xlink">
<g id="graph0" class="graph" transform="scale(1 1) rotate(0) translate(4 360)">
<title>Quest</title>
<!-- Node1 -->
<g id="node1" class="node"><title>Node1</title>
<polygon fill="#bfbfbf" stroke="black" points="187,-0.5 187,-90.5 259,-90.5 259,-0.5 187,-0.5"/>
<text text-anchor="middle" x="223" y="-78.5" font-family="Helvetica,sans-Serif" font-size="10.00">Quest</text>
<polyline fill="none" stroke="black" points="187,-71.5 259,-71.5 "/>
<text text-anchor="start" x="195" y="-59.5" font-family="Helvetica,sans-Serif" font-size="10.00">+ Main</text>
<text text-anchor="start" x="195" y="-48.5" font-family="Helvetica,sans-Serif" font-size="10.00">+ Side</text>
<text text-anchor="start" x="195" y="-37.5" font-family="Helvetica,sans-Serif" font-size="10.00">+ Cond</text>
<text text-anchor="start" x="195" y="-26.5" font-family="Helvetica,sans-Serif" font-size="10.00">+ Completed</text>
<polyline fill="none" stroke="black" points="187,-19.5 259,-19.5 "/>
<text text-anchor="start" x="195" y="-7.5" font-family="Helvetica,sans-Serif" font-size="10.00">+ Quest()</text>
</g>
<!-- Node2 -->
<g id="node2" class="node"><title>Node2</title>
<g id="a_node2"><a xlink:href="class_quest_def.html" target="_top" xlink:title="Class defining one quest condition (part of a sequence of 3 in Quest) ">
<polygon fill="none" stroke="black" points="69,-160.5 69,-239.5 141,-239.5 141,-160.5 69,-160.5"/>
<text text-anchor="middle" x="105" y="-227.5" font-family="Helvetica,sans-Serif" font-size="10.00">QuestDef</text>
<polyline fill="none" stroke="black" points="69,-220.5 141,-220.5 "/>
<text text-anchor="start" x="77" y="-208.5" font-family="Helvetica,sans-Serif" font-size="10.00">+ Type</text>
<text text-anchor="start" x="77" y="-197.5" font-family="Helvetica,sans-Serif" font-size="10.00">+ Data</text>
<text text-anchor="start" x="77" y="-186.5" font-family="Helvetica,sans-Serif" font-size="10.00">+ Desc</text>
<polyline fill="none" stroke="black" points="69,-179.5 141,-179.5 "/>
<text text-anchor="start" x="77" y="-167.5" font-family="Helvetica,sans-Serif" font-size="10.00">+ QuestDef()</text>
</a>
</g>
</g>
<!-- Node2&#45;&gt;Node1 -->
<g id="edge1" class="edge"><title>Node2&#45;&gt;Node1</title>
<path fill="none" stroke="#404040" d="M113.816,-160.203C118.954,-143.336 126.707,-124.038 138,-109 148.444,-95.0925 162.834,-82.9034 176.806,-73.0714"/>
<polygon fill="none" stroke="#404040" points="176.879,-73.0229 179.633,-66.3585 186.844,-66.3378 184.09,-73.0022 176.879,-73.0229"/>
<text text-anchor="middle" x="150.5" y="-134" font-family="Helvetica,sans-Serif" font-size="10.00"> &#45;side</text>
<text text-anchor="middle" x="150.5" y="-123" font-family="Helvetica,sans-Serif" font-size="10.00">&#45;main</text>
<text text-anchor="middle" x="150.5" y="-112" font-family="Helvetica,sans-Serif" font-size="10.00">&#45;cond</text>
</g>
<!-- Node3 -->
<g id="node3" class="node"><title>Node3</title>
<polygon fill="none" stroke="#bfbfbf" points="0,-287.5 0,-355.5 138,-355.5 138,-287.5 0,-287.5"/>
<text text-anchor="start" x="8" y="-343.5" font-family="Helvetica,sans-Serif" font-size="10.00">KeyValuePair&lt; questTypes,</text>
<text text-anchor="middle" x="69" y="-332.5" font-family="Helvetica,sans-Serif" font-size="10.00"> string &gt;</text>
<polyline fill="none" stroke="#bfbfbf" points="0,-325.5 138,-325.5 "/>
<text text-anchor="middle" x="69" y="-313.5" font-family="Helvetica,sans-Serif" font-size="10.00"> </text>
<polyline fill="none" stroke="#bfbfbf" points="0,-306.5 138,-306.5 "/>
<text text-anchor="middle" x="69" y="-294.5" font-family="Helvetica,sans-Serif" font-size="10.00"> </text>
</g>
<!-- Node3&#45;&gt;Node2 -->
<g id="edge2" class="edge"><title>Node3&#45;&gt;Node2</title>
<path fill="none" stroke="#404040" d="M73.311,-287.392C74.966,-277.799 77.1606,-267.385 80,-258 80.6806,-255.75 81.4259,-253.472 82.2202,-251.185"/>
<polygon fill="none" stroke="#404040" points="82.2865,-251.009 80.6637,-243.983 86.5252,-239.783 88.148,-246.809 82.2865,-251.009"/>
<text text-anchor="middle" x="91" y="-261" font-family="Helvetica,sans-Serif" font-size="10.00"> &#45;pair</text>
</g>
<!-- Node4 -->
<g id="node4" class="node"><title>Node4</title>
<polygon fill="none" stroke="#bfbfbf" points="156.5,-293 156.5,-350 197.5,-350 197.5,-293 156.5,-293"/>
<text text-anchor="middle" x="177" y="-338" font-family="Helvetica,sans-Serif" font-size="10.00">string</text>
<polyline fill="none" stroke="#bfbfbf" points="156.5,-331 197.5,-331 "/>
<text text-anchor="middle" x="177" y="-319" font-family="Helvetica,sans-Serif" font-size="10.00"> </text>
<polyline fill="none" stroke="#bfbfbf" points="156.5,-312 197.5,-312 "/>
<text text-anchor="middle" x="177" y="-300" font-family="Helvetica,sans-Serif" font-size="10.00"> </text>
</g>
<!-- Node4&#45;&gt;Node1 -->
<g id="edge4" class="edge"><title>Node4&#45;&gt;Node1</title>
<path fill="none" stroke="#404040" d="M176.393,-292.978C176.177,-260.802 177.349,-206.081 186,-160 189.607,-140.784 195.58,-120.318 201.686,-102.132"/>
<polygon fill="none" stroke="#404040" points="201.77,-101.888 199.952,-94.9097 205.694,-90.5471 207.512,-97.5251 201.77,-101.888"/>
<text text-anchor="middle" x="207.5" y="-203" font-family="Helvetica,sans-Serif" font-size="10.00"> +location</text>
<text text-anchor="middle" x="207.5" y="-192" font-family="Helvetica,sans-Serif" font-size="10.00">+title</text>
</g>
<!-- Node4&#45;&gt;Node2 -->
<g id="edge3" class="edge"><title>Node4&#45;&gt;Node2</title>
<path fill="none" stroke="#404040" d="M156.365,-297.905C149.066,-289.248 141.149,-279.034 135,-269 131.502,-263.293 128.19,-257.106 125.132,-250.869"/>
<polygon fill="none" stroke="#404040" points="124.987,-250.557 118.827,-246.809 119.917,-239.681 126.078,-243.429 124.987,-250.557"/>
<text text-anchor="middle" x="149" y="-261" font-family="Helvetica,sans-Serif" font-size="10.00"> &#45;desc</text>
</g>
<!-- Node5 -->
<g id="node5" class="node"><title>Node5</title>
<polygon fill="none" stroke="#bfbfbf" points="238,-171.5 238,-228.5 312,-228.5 312,-171.5 238,-171.5"/>
<text text-anchor="middle" x="275" y="-216.5" font-family="Helvetica,sans-Serif" font-size="10.00">questStatues</text>
<polyline fill="none" stroke="#bfbfbf" points="238,-209.5 312,-209.5 "/>
<text text-anchor="middle" x="275" y="-197.5" font-family="Helvetica,sans-Serif" font-size="10.00"> </text>
<polyline fill="none" stroke="#bfbfbf" points="238,-190.5 312,-190.5 "/>
<text text-anchor="middle" x="275" y="-178.5" font-family="Helvetica,sans-Serif" font-size="10.00"> </text>
</g>
<!-- Node5&#45;&gt;Node1 -->
<g id="edge5" class="edge"><title>Node5&#45;&gt;Node1</title>
<path fill="none" stroke="#404040" d="M265.583,-171.383C259.023,-152.145 250.046,-125.819 242.026,-102.297"/>
<polygon fill="none" stroke="#404040" points="241.931,-102.02 236.209,-97.632 238.059,-90.6621 243.781,-95.0501 241.931,-102.02"/>
<text text-anchor="middle" x="282" y="-123" font-family="Helvetica,sans-Serif" font-size="10.00"> &#45;completed</text>
</g>
<!-- Node6 -->
<g id="node6" class="node"><title>Node6</title>
<polygon fill="none" stroke="#bfbfbf" points="332.5,-171.5 332.5,-228.5 361.5,-228.5 361.5,-171.5 332.5,-171.5"/>
<text text-anchor="middle" x="347" y="-216.5" font-family="Helvetica,sans-Serif" font-size="10.00">int</text>
<polyline fill="none" stroke="#bfbfbf" points="332.5,-209.5 361.5,-209.5 "/>
<text text-anchor="middle" x="347" y="-197.5" font-family="Helvetica,sans-Serif" font-size="10.00"> </text>
<polyline fill="none" stroke="#bfbfbf" points="332.5,-190.5 361.5,-190.5 "/>
<text text-anchor="middle" x="347" y="-178.5" font-family="Helvetica,sans-Serif" font-size="10.00"> </text>
</g>
<!-- Node6&#45;&gt;Node1 -->
<g id="edge6" class="edge"><title>Node6&#45;&gt;Node1</title>
<path fill="none" stroke="#404040" d="M340.758,-171.28C335.458,-152.299 326.374,-127.342 312,-109 300.55,-94.39 284.769,-81.7839 269.671,-71.7972"/>
<polygon fill="none" stroke="#404040" points="269.538,-71.7134 262.329,-71.8942 259.39,-65.3094 266.599,-65.1286 269.538,-71.7134"/>
<text text-anchor="middle" x="350.5" y="-128.5" font-family="Helvetica,sans-Serif" font-size="10.00"> +money</text>
<text text-anchor="middle" x="350.5" y="-117.5" font-family="Helvetica,sans-Serif" font-size="10.00">+exp</text>
</g>
</g>
</svg>
