<?xml version="1.0" encoding="UTF-8" standalone="no"?>
<!DOCTYPE svg PUBLIC "-//W3C//DTD SVG 1.1//EN"
 "http://www.w3.org/Graphics/SVG/1.1/DTD/svg11.dtd">
<!-- Generated by graphviz version 2.38.0 (20140413.2041)
 -->
<!-- Title: MenuScript Pages: 1 -->
<svg width="458pt" height="248pt"
 viewBox="0.00 0.00 457.50 248.00" xmlns="http://www.w3.org/2000/svg" xmlns:xlink="http://www.w3.org/1999/xlink">
<g id="graph0" class="graph" transform="scale(1 1) rotate(0) translate(4 244)">
<title>MenuScript</title>
<!-- Node2 -->
<g id="node1" class="node"><title>Node2</title>
<polygon fill="#bfbfbf" stroke="black" points="205.5,-0.5 205.5,-123.5 283.5,-123.5 283.5,-0.5 205.5,-0.5"/>
<text text-anchor="middle" x="244.5" y="-111.5" font-family="Helvetica,sans-Serif" font-size="10.00">MenuScript</text>
<polyline fill="none" stroke="black" points="205.5,-104.5 283.5,-104.5 "/>
<text text-anchor="middle" x="244.5" y="-92.5" font-family="Helvetica,sans-Serif" font-size="10.00"> </text>
<polyline fill="none" stroke="black" points="205.5,-85.5 283.5,-85.5 "/>
<text text-anchor="start" x="213.5" y="-73.5" font-family="Helvetica,sans-Serif" font-size="10.00">+ ExitPress()</text>
<text text-anchor="start" x="213.5" y="-62.5" font-family="Helvetica,sans-Serif" font-size="10.00">+ NoPress()</text>
<text text-anchor="start" x="213.5" y="-51.5" font-family="Helvetica,sans-Serif" font-size="10.00">+ StartLevel()</text>
<text text-anchor="start" x="213.5" y="-40.5" font-family="Helvetica,sans-Serif" font-size="10.00">+ LoadPress()</text>
<text text-anchor="start" x="213.5" y="-29.5" font-family="Helvetica,sans-Serif" font-size="10.00">+ ExitGame()</text>
<text text-anchor="start" x="213.5" y="-18.5" font-family="Helvetica,sans-Serif" font-size="10.00">+ sound()</text>
<text text-anchor="start" x="213.5" y="-7.5" font-family="Helvetica,sans-Serif" font-size="10.00">&#45; Start()</text>
</g>
<!-- Node3 -->
<g id="node2" class="node"><title>Node3</title>
<g id="a_node2"><a xlink:href="class_mono_behaviour.html" target="_top" xlink:title="{MonoBehaviour\n||}">
<polygon fill="none" stroke="black" points="0,-182.5 0,-239.5 83,-239.5 83,-182.5 0,-182.5"/>
<text text-anchor="middle" x="41.5" y="-227.5" font-family="Helvetica,sans-Serif" font-size="10.00">MonoBehaviour</text>
<polyline fill="none" stroke="black" points="0,-220.5 83,-220.5 "/>
<text text-anchor="middle" x="41.5" y="-208.5" font-family="Helvetica,sans-Serif" font-size="10.00"> </text>
<polyline fill="none" stroke="black" points="0,-201.5 83,-201.5 "/>
<text text-anchor="middle" x="41.5" y="-189.5" font-family="Helvetica,sans-Serif" font-size="10.00"> </text>
</a>
</g>
</g>
<!-- Node3&#45;&gt;Node2 -->
<g id="edge1" class="edge"><title>Node3&#45;&gt;Node2</title>
<path fill="none" stroke="midnightblue" d="M87.9642,-176.354C123.491,-150.627 171.912,-115.564 205.452,-91.2765"/>
<polygon fill="none" stroke="midnightblue" points="85.7294,-173.65 79.6827,-182.35 89.835,-179.32 85.7294,-173.65"/>
</g>
<!-- Node4 -->
<g id="node3" class="node"><title>Node4</title>
<polygon fill="none" stroke="#bfbfbf" points="101,-182.5 101,-239.5 172,-239.5 172,-182.5 101,-182.5"/>
<text text-anchor="middle" x="136.5" y="-227.5" font-family="Helvetica,sans-Serif" font-size="10.00">GameObject</text>
<polyline fill="none" stroke="#bfbfbf" points="101,-220.5 172,-220.5 "/>
<text text-anchor="middle" x="136.5" y="-208.5" font-family="Helvetica,sans-Serif" font-size="10.00"> </text>
<polyline fill="none" stroke="#bfbfbf" points="101,-201.5 172,-201.5 "/>
<text text-anchor="middle" x="136.5" y="-189.5" font-family="Helvetica,sans-Serif" font-size="10.00"> </text>
</g>
<!-- Node4&#45;&gt;Node2 -->
<g id="edge2" class="edge"><title>Node4&#45;&gt;Node2</title>
<path fill="none" stroke="#404040" d="M148.689,-182.223C154.793,-169.502 162.745,-154.51 171.5,-142 179.042,-131.223 187.961,-120.396 196.927,-110.363"/>
<polygon fill="none" stroke="#404040" points="197.033,-110.246 198.134,-103.12 205.136,-101.395 204.035,-108.521 197.033,-110.246"/>
<text text-anchor="middle" x="188" y="-150.5" font-family="Helvetica,sans-Serif" font-size="10.00"> &#45;player</text>
</g>
<!-- Node5 -->
<g id="node4" class="node"><title>Node5</title>
<polygon fill="none" stroke="#bfbfbf" points="190.5,-182.5 190.5,-239.5 238.5,-239.5 238.5,-182.5 190.5,-182.5"/>
<text text-anchor="middle" x="214.5" y="-227.5" font-family="Helvetica,sans-Serif" font-size="10.00">Canvas</text>
<polyline fill="none" stroke="#bfbfbf" points="190.5,-220.5 238.5,-220.5 "/>
<text text-anchor="middle" x="214.5" y="-208.5" font-family="Helvetica,sans-Serif" font-size="10.00"> </text>
<polyline fill="none" stroke="#bfbfbf" points="190.5,-201.5 238.5,-201.5 "/>
<text text-anchor="middle" x="214.5" y="-189.5" font-family="Helvetica,sans-Serif" font-size="10.00"> </text>
</g>
<!-- Node5&#45;&gt;Node2 -->
<g id="edge3" class="edge"><title>Node5&#45;&gt;Node2</title>
<path fill="none" stroke="#404040" d="M208.97,-182.301C207.381,-169.869 206.731,-155.087 209.5,-142 209.958,-139.838 210.478,-137.662 211.054,-135.483"/>
<polygon fill="none" stroke="#404040" points="211.104,-135.317 209.026,-128.412 214.6,-123.838 216.679,-130.743 211.104,-135.317"/>
<text text-anchor="middle" x="234" y="-150.5" font-family="Helvetica,sans-Serif" font-size="10.00"> +quitMenu</text>
</g>
<!-- Node6 -->
<g id="node5" class="node"><title>Node6</title>
<polygon fill="none" stroke="#bfbfbf" points="263,-182.5 263,-239.5 298,-239.5 298,-182.5 263,-182.5"/>
<text text-anchor="middle" x="280.5" y="-227.5" font-family="Helvetica,sans-Serif" font-size="10.00">bool</text>
<polyline fill="none" stroke="#bfbfbf" points="263,-220.5 298,-220.5 "/>
<text text-anchor="middle" x="280.5" y="-208.5" font-family="Helvetica,sans-Serif" font-size="10.00"> </text>
<polyline fill="none" stroke="#bfbfbf" points="263,-201.5 298,-201.5 "/>
<text text-anchor="middle" x="280.5" y="-189.5" font-family="Helvetica,sans-Serif" font-size="10.00"> </text>
</g>
<!-- Node6&#45;&gt;Node2 -->
<g id="edge4" class="edge"><title>Node6&#45;&gt;Node2</title>
<path fill="none" stroke="#404040" d="M273.729,-182.35C270.467,-169.032 266.387,-152.37 262.318,-135.759"/>
<polygon fill="none" stroke="#404040" points="262.225,-135.376 256.912,-130.5 259.37,-123.721 264.683,-128.597 262.225,-135.376"/>
<text text-anchor="middle" x="292.5" y="-150.5" font-family="Helvetica,sans-Serif" font-size="10.00"> &#45;soundOn</text>
</g>
<!-- Node7 -->
<g id="node6" class="node"><title>Node7</title>
<polygon fill="none" stroke="#bfbfbf" points="332,-182.5 332,-239.5 367,-239.5 367,-182.5 332,-182.5"/>
<text text-anchor="middle" x="349.5" y="-227.5" font-family="Helvetica,sans-Serif" font-size="10.00">Text</text>
<polyline fill="none" stroke="#bfbfbf" points="332,-220.5 367,-220.5 "/>
<text text-anchor="middle" x="349.5" y="-208.5" font-family="Helvetica,sans-Serif" font-size="10.00"> </text>
<polyline fill="none" stroke="#bfbfbf" points="332,-201.5 367,-201.5 "/>
<text text-anchor="middle" x="349.5" y="-189.5" font-family="Helvetica,sans-Serif" font-size="10.00"> </text>
</g>
<!-- Node7&#45;&gt;Node2 -->
<g id="edge5" class="edge"><title>Node7&#45;&gt;Node2</title>
<path fill="none" stroke="#404040" d="M339.84,-182.411C334.733,-169.588 327.796,-154.459 319.5,-142 311.557,-130.071 301.744,-118.282 291.865,-107.595"/>
<polygon fill="none" stroke="#404040" points="291.862,-107.592 284.828,-106.003 283.59,-98.8988 290.624,-100.488 291.862,-107.592"/>
<text text-anchor="middle" x="356" y="-150.5" font-family="Helvetica,sans-Serif" font-size="10.00"> &#45;audioText</text>
</g>
<!-- Node8 -->
<g id="node7" class="node"><title>Node8</title>
<polygon fill="none" stroke="#bfbfbf" points="399,-182.5 399,-239.5 444,-239.5 444,-182.5 399,-182.5"/>
<text text-anchor="middle" x="421.5" y="-227.5" font-family="Helvetica,sans-Serif" font-size="10.00">Button</text>
<polyline fill="none" stroke="#bfbfbf" points="399,-220.5 444,-220.5 "/>
<text text-anchor="middle" x="421.5" y="-208.5" font-family="Helvetica,sans-Serif" font-size="10.00"> </text>
<polyline fill="none" stroke="#bfbfbf" points="399,-201.5 444,-201.5 "/>
<text text-anchor="middle" x="421.5" y="-189.5" font-family="Helvetica,sans-Serif" font-size="10.00"> </text>
</g>
<!-- Node8&#45;&gt;Node2 -->
<g id="edge6" class="edge"><title>Node8&#45;&gt;Node2</title>
<path fill="none" stroke="#404040" d="M410.693,-182.211C404.506,-168.891 395.722,-153.396 384.5,-142 359.175,-116.281 323.706,-96.3858 294.807,-82.9938"/>
<polygon fill="none" stroke="#404040" points="294.634,-82.9164 287.523,-84.1111 283.685,-78.0061 290.796,-76.8114 294.634,-82.9164"/>
<text text-anchor="middle" x="425.5" y="-156" font-family="Helvetica,sans-Serif" font-size="10.00"> +startText</text>
<text text-anchor="middle" x="425.5" y="-145" font-family="Helvetica,sans-Serif" font-size="10.00">+exitText</text>
</g>
</g>
</svg>
