<?xml version="1.0" encoding="UTF-8" standalone="no"?>
<!DOCTYPE svg PUBLIC "-//W3C//DTD SVG 1.1//EN"
 "http://www.w3.org/Graphics/SVG/1.1/DTD/svg11.dtd">
<!-- Generated by graphviz version 2.38.0 (20140413.2041)
 -->
<!-- Title: BattleDescriptor Pages: 1 -->
<svg width="1080pt" height="1668pt"
 viewBox="0.00 0.00 1079.50 1668.00" xmlns="http://www.w3.org/2000/svg" xmlns:xlink="http://www.w3.org/1999/xlink">
<g id="graph0" class="graph" transform="scale(1 1) rotate(0) translate(4 1664)">
<title>BattleDescriptor</title>
<!-- Node2 -->
<g id="node1" class="node"><title>Node2</title>
<polygon fill="#bfbfbf" stroke="black" points="572,-0.5 572,-68.5 682,-68.5 682,-0.5 572,-0.5"/>
<text text-anchor="middle" x="627" y="-56.5" font-family="Helvetica,sans-Serif" font-size="10.00">BattleDescriptor</text>
<polyline fill="none" stroke="black" points="572,-49.5 682,-49.5 "/>
<text text-anchor="middle" x="627" y="-37.5" font-family="Helvetica,sans-Serif" font-size="10.00"> </text>
<polyline fill="none" stroke="black" points="572,-30.5 682,-30.5 "/>
<text text-anchor="start" x="580" y="-18.5" font-family="Helvetica,sans-Serif" font-size="10.00">+ createBattle()</text>
<text text-anchor="start" x="580" y="-7.5" font-family="Helvetica,sans-Serif" font-size="10.00">&#45; createSpecialMove()</text>
</g>
<!-- Node3 -->
<g id="node2" class="node"><title>Node3</title>
<g id="a_node2"><a xlink:href="class_mono_behaviour.html" target="_top" xlink:title="{MonoBehaviour\n||}">
<polygon fill="none" stroke="black" points="98.5,-304 98.5,-361 181.5,-361 181.5,-304 98.5,-304"/>
<text text-anchor="middle" x="140" y="-349" font-family="Helvetica,sans-Serif" font-size="10.00">MonoBehaviour</text>
<polyline fill="none" stroke="black" points="98.5,-342 181.5,-342 "/>
<text text-anchor="middle" x="140" y="-330" font-family="Helvetica,sans-Serif" font-size="10.00"> </text>
<polyline fill="none" stroke="black" points="98.5,-323 181.5,-323 "/>
<text text-anchor="middle" x="140" y="-311" font-family="Helvetica,sans-Serif" font-size="10.00"> </text>
</a>
</g>
</g>
<!-- Node3&#45;&gt;Node2 -->
<g id="edge1" class="edge"><title>Node3&#45;&gt;Node2</title>
<path fill="none" stroke="midnightblue" d="M161.178,-295.069C166.885,-286.235 173.336,-277.03 180,-269 238.833,-198.109 251.386,-173.353 331,-127 408.279,-82.0063 510.02,-56.8626 571.86,-44.7628"/>
<polygon fill="none" stroke="midnightblue" points="158.098,-293.392 155.74,-303.721 164.025,-297.117 158.098,-293.392"/>
</g>
<!-- Node5 -->
<g id="node4" class="node"><title>Node5</title>
<g id="a_node4"><a xlink:href="class_global_functions.html" target="_top" xlink:title="Provides functions and variables to be accessed by any game object to allow data to be passed between...">
<polygon fill="none" stroke="black" points="340.5,-127.5 340.5,-250.5 427.5,-250.5 427.5,-127.5 340.5,-127.5"/>
<text text-anchor="middle" x="384" y="-238.5" font-family="Helvetica,sans-Serif" font-size="10.00">GlobalFunctions</text>
<polyline fill="none" stroke="black" points="340.5,-231.5 427.5,-231.5 "/>
<text text-anchor="middle" x="384" y="-219.5" font-family="Helvetica,sans-Serif" font-size="10.00"> </text>
<polyline fill="none" stroke="black" points="340.5,-212.5 427.5,-212.5 "/>
<text text-anchor="start" x="348.5" y="-200.5" font-family="Helvetica,sans-Serif" font-size="10.00">+ createBattle()</text>
<text text-anchor="start" x="348.5" y="-189.5" font-family="Helvetica,sans-Serif" font-size="10.00">+ getEnemy()</text>
<text text-anchor="start" x="348.5" y="-178.5" font-family="Helvetica,sans-Serif" font-size="10.00">+ getMoney()</text>
<text text-anchor="start" x="348.5" y="-167.5" font-family="Helvetica,sans-Serif" font-size="10.00">+ getItem()</text>
<text text-anchor="start" x="348.5" y="-156.5" font-family="Helvetica,sans-Serif" font-size="10.00">+ endBattle()</text>
<text text-anchor="start" x="348.5" y="-145.5" font-family="Helvetica,sans-Serif" font-size="10.00">+ createItem()</text>
<text text-anchor="start" x="348.5" y="-134.5" font-family="Helvetica,sans-Serif" font-size="10.00">&#45; Awake()</text>
</a>
</g>
</g>
<!-- Node3&#45;&gt;Node5 -->
<g id="edge4" class="edge"><title>Node3&#45;&gt;Node5</title>
<path fill="none" stroke="midnightblue" d="M166.871,-296.068C175.416,-286.406 185.42,-276.537 196,-269 240.694,-237.16 300.185,-214.915 340.171,-202.319"/>
<polygon fill="none" stroke="midnightblue" points="164.17,-293.842 160.348,-303.724 169.498,-298.382 164.17,-293.842"/>
</g>
<!-- Node4 -->
<g id="node3" class="node"><title>Node4</title>
<polygon fill="none" stroke="#bfbfbf" points="480.5,-1602.5 480.5,-1659.5 521.5,-1659.5 521.5,-1602.5 480.5,-1602.5"/>
<text text-anchor="middle" x="501" y="-1647.5" font-family="Helvetica,sans-Serif" font-size="10.00">string</text>
<polyline fill="none" stroke="#bfbfbf" points="480.5,-1640.5 521.5,-1640.5 "/>
<text text-anchor="middle" x="501" y="-1628.5" font-family="Helvetica,sans-Serif" font-size="10.00"> </text>
<polyline fill="none" stroke="#bfbfbf" points="480.5,-1621.5 521.5,-1621.5 "/>
<text text-anchor="middle" x="501" y="-1609.5" font-family="Helvetica,sans-Serif" font-size="10.00"> </text>
</g>
<!-- Node4&#45;&gt;Node2 -->
<g id="edge2" class="edge"><title>Node4&#45;&gt;Node2</title>
<path fill="none" stroke="#404040" d="M480.319,-1628.98C408.454,-1625.23 170.089,-1611 99,-1584 46.3746,-1564.02 0,-1561.29 0,-1505 0,-1505 0,-1505 0,-188 0,-73.7671 397.905,-44.7575 559.75,-37.6827"/>
<polygon fill="none" stroke="#404040" points="559.918,-37.6757 565.745,-33.428 571.907,-37.1733 566.08,-41.421 559.918,-37.6757"/>
<text text-anchor="middle" x="32" y="-826" font-family="Helvetica,sans-Serif" font-size="10.00"> +special1Text</text>
<text text-anchor="middle" x="32" y="-815" font-family="Helvetica,sans-Serif" font-size="10.00">+name</text>
<text text-anchor="middle" x="32" y="-804" font-family="Helvetica,sans-Serif" font-size="10.00">+special2Text</text>
</g>
<!-- Node4&#45;&gt;Node5 -->
<g id="edge8" class="edge"><title>Node4&#45;&gt;Node5</title>
<path fill="none" stroke="#404040" d="M480.267,-1628.86C391.256,-1623.4 46,-1596.34 46,-1505 46,-1505 46,-1505 46,-993 46,-961.944 132.609,-460.806 148,-425 160.569,-395.76 172.24,-393.41 190,-367 210.164,-337.015 208.274,-324.35 233,-298 261.31,-267.83 299.195,-240.762 329.935,-221.27"/>
<polygon fill="none" stroke="#404040" points="330.297,-221.045 333.275,-214.477 340.482,-214.699 337.505,-221.267 330.297,-221.045"/>
<text text-anchor="middle" x="102" y="-895" font-family="Helvetica,sans-Serif" font-size="10.00"> &#45;previousScene</text>
<text text-anchor="middle" x="102" y="-884" font-family="Helvetica,sans-Serif" font-size="10.00">+levelOrder</text>
</g>
<!-- Node7 -->
<g id="node6" class="node"><title>Node7</title>
<g id="a_node6"><a xlink:href="class_item.html" target="_top" xlink:title="Abstract class for items that can be equipped to a player, increasing some of their stats ...">
<polygon fill="none" stroke="black" points="214.5,-1464.5 214.5,-1543.5 291.5,-1543.5 291.5,-1464.5 214.5,-1464.5"/>
<text text-anchor="middle" x="253" y="-1531.5" font-family="Helvetica,sans-Serif" font-size="10.00">Item</text>
<polyline fill="none" stroke="black" points="214.5,-1524.5 291.5,-1524.5 "/>
<text text-anchor="start" x="222.5" y="-1512.5" font-family="Helvetica,sans-Serif" font-size="10.00">+ Name</text>
<text text-anchor="start" x="222.5" y="-1501.5" font-family="Helvetica,sans-Serif" font-size="10.00">+ Desc</text>
<polyline fill="none" stroke="black" points="214.5,-1494.5 291.5,-1494.5 "/>
<text text-anchor="start" x="222.5" y="-1482.5" font-family="Helvetica,sans-Serif" font-size="10.00">+ applyBuffs()</text>
<text text-anchor="start" x="222.5" y="-1471.5" font-family="Helvetica,sans-Serif" font-size="10.00">+ revertBuffs()</text>
</a>
</g>
</g>
<!-- Node4&#45;&gt;Node7 -->
<g id="edge7" class="edge"><title>Node4&#45;&gt;Node7</title>
<path fill="none" stroke="#404040" d="M480.282,-1619.56C441.51,-1600.02 357.006,-1557.42 302.674,-1530.04"/>
<polygon fill="none" stroke="#404040" points="302.615,-1530.01 295.457,-1530.88 291.899,-1524.61 299.057,-1523.74 302.615,-1530.01"/>
<text text-anchor="middle" x="422" y="-1576" font-family="Helvetica,sans-Serif" font-size="10.00"> #desc</text>
<text text-anchor="middle" x="422" y="-1565" font-family="Helvetica,sans-Serif" font-size="10.00">#name</text>
</g>
<!-- Node10 -->
<g id="node9" class="node"><title>Node10</title>
<g id="a_node9"><a xlink:href="class_character.html" target="_top" xlink:title="Base abstract class for Enemy and Player to inherit from. Defines all shared variables, their constructor and their setters and getters ">
<polygon fill="none" stroke="black" points="547.5,-425.5 547.5,-603.5 642.5,-603.5 642.5,-425.5 547.5,-425.5"/>
<text text-anchor="middle" x="595" y="-591.5" font-family="Helvetica,sans-Serif" font-size="10.00">Character</text>
<polyline fill="none" stroke="black" points="547.5,-584.5 642.5,-584.5 "/>
<text text-anchor="start" x="555.5" y="-572.5" font-family="Helvetica,sans-Serif" font-size="10.00">+ Name</text>
<text text-anchor="start" x="555.5" y="-561.5" font-family="Helvetica,sans-Serif" font-size="10.00">+ Level</text>
<text text-anchor="start" x="555.5" y="-550.5" font-family="Helvetica,sans-Serif" font-size="10.00">+ Health</text>
<text text-anchor="start" x="555.5" y="-539.5" font-family="Helvetica,sans-Serif" font-size="10.00">+ Attack</text>
<text text-anchor="start" x="555.5" y="-528.5" font-family="Helvetica,sans-Serif" font-size="10.00">+ Defence</text>
<text text-anchor="start" x="555.5" y="-517.5" font-family="Helvetica,sans-Serif" font-size="10.00">+ MaximumMagic</text>
<text text-anchor="start" x="555.5" y="-506.5" font-family="Helvetica,sans-Serif" font-size="10.00">+ Magic</text>
<text text-anchor="start" x="555.5" y="-495.5" font-family="Helvetica,sans-Serif" font-size="10.00">+ Luck</text>
<text text-anchor="start" x="555.5" y="-484.5" font-family="Helvetica,sans-Serif" font-size="10.00">+ Speed</text>
<text text-anchor="start" x="555.5" y="-473.5" font-family="Helvetica,sans-Serif" font-size="10.00">+ Special1</text>
<text text-anchor="start" x="555.5" y="-462.5" font-family="Helvetica,sans-Serif" font-size="10.00">+ Special2</text>
<text text-anchor="start" x="555.5" y="-451.5" font-family="Helvetica,sans-Serif" font-size="10.00">+ Image</text>
<polyline fill="none" stroke="black" points="547.5,-444.5 642.5,-444.5 "/>
<text text-anchor="start" x="555.5" y="-432.5" font-family="Helvetica,sans-Serif" font-size="10.00"># Character()</text>
</a>
</g>
</g>
<!-- Node4&#45;&gt;Node10 -->
<g id="edge12" class="edge"><title>Node4&#45;&gt;Node10</title>
<path fill="none" stroke="#404040" d="M521.955,-1630.7C589.786,-1631.77 799,-1625.34 799,-1505 799,-1505 799,-1505 799,-993 799,-929.706 798.949,-912.068 779,-852 747.975,-758.58 691.418,-660.834 649.166,-594.916"/>
<polygon fill="none" stroke="#404040" points="649.024,-594.696 642.409,-591.826 642.514,-584.615 649.129,-587.486 649.024,-594.696"/>
<text text-anchor="middle" x="815.5" y="-1148.5" font-family="Helvetica,sans-Serif" font-size="10.00"> #name</text>
</g>
<!-- Node12 -->
<g id="node11" class="node"><title>Node12</title>
<g id="a_node11"><a xlink:href="class_special_move.html" target="_top" xlink:title="Special move abstract base class that expands upon CharacterMove, adding magic properties ...">
<polygon fill="none" stroke="black" points="462,-672 462,-773 560,-773 560,-672 462,-672"/>
<text text-anchor="middle" x="511" y="-761" font-family="Helvetica,sans-Serif" font-size="10.00">SpecialMove</text>
<polyline fill="none" stroke="black" points="462,-754 560,-754 "/>
<text text-anchor="start" x="470" y="-742" font-family="Helvetica,sans-Serif" font-size="10.00">+ Magic</text>
<text text-anchor="start" x="470" y="-731" font-family="Helvetica,sans-Serif" font-size="10.00">+ Desc</text>
<text text-anchor="start" x="470" y="-720" font-family="Helvetica,sans-Serif" font-size="10.00">+ Special</text>
<polyline fill="none" stroke="black" points="462,-713 560,-713 "/>
<text text-anchor="start" x="470" y="-701" font-family="Helvetica,sans-Serif" font-size="10.00">+ setUp()</text>
<text text-anchor="start" x="470" y="-690" font-family="Helvetica,sans-Serif" font-size="10.00">+ decreaseMagic()</text>
<text text-anchor="start" x="470" y="-679" font-family="Helvetica,sans-Serif" font-size="10.00"># SpecialMove()</text>
</a>
</g>
</g>
<!-- Node4&#45;&gt;Node12 -->
<g id="edge27" class="edge"><title>Node4&#45;&gt;Node12</title>
<path fill="none" stroke="#404040" d="M516.24,-1602.38C534.655,-1567.27 564.589,-1504.23 576,-1446 588.548,-1381.97 538.19,-948.181 518.546,-785.212"/>
<polygon fill="none" stroke="#404040" points="518.514,-784.951 513.823,-779.474 517.075,-773.038 521.765,-778.514 518.514,-784.951"/>
<text text-anchor="middle" x="586" y="-1267" font-family="Helvetica,sans-Serif" font-size="10.00"> #desc</text>
</g>
<!-- Node13 -->
<g id="node12" class="node"><title>Node13</title>
<g id="a_node12"><a xlink:href="class_character_move.html" target="_top" xlink:title="Astract base class for character moves ">
<polygon fill="none" stroke="black" points="549,-852.5 549,-931.5 635,-931.5 635,-852.5 549,-852.5"/>
<text text-anchor="middle" x="592" y="-919.5" font-family="Helvetica,sans-Serif" font-size="10.00">CharacterMove</text>
<polyline fill="none" stroke="black" points="549,-912.5 635,-912.5 "/>
<text text-anchor="start" x="557" y="-900.5" font-family="Helvetica,sans-Serif" font-size="10.00">+ User</text>
<text text-anchor="start" x="557" y="-889.5" font-family="Helvetica,sans-Serif" font-size="10.00">+ Target</text>
<text text-anchor="start" x="557" y="-878.5" font-family="Helvetica,sans-Serif" font-size="10.00">+ Text</text>
<polyline fill="none" stroke="black" points="549,-871.5 635,-871.5 "/>
<text text-anchor="start" x="557" y="-859.5" font-family="Helvetica,sans-Serif" font-size="10.00">+ performMove()</text>
</a>
</g>
</g>
<!-- Node4&#45;&gt;Node13 -->
<g id="edge16" class="edge"><title>Node4&#45;&gt;Node13</title>
<path fill="none" stroke="#404040" d="M521.756,-1629.69C554.182,-1628.06 616.779,-1620.09 652,-1584 751.57,-1481.98 718.712,-1416.24 738,-1275 755.214,-1148.95 676.8,-1012.2 628.194,-941.491"/>
<polygon fill="none" stroke="#404040" points="628.122,-941.387 621.408,-938.756 621.254,-931.546 627.968,-934.177 628.122,-941.387"/>
<text text-anchor="middle" x="748.5" y="-1347" font-family="Helvetica,sans-Serif" font-size="10.00"> #text</text>
</g>
<!-- Node14 -->
<g id="node13" class="node"><title>Node14</title>
<g id="a_node13"><a xlink:href="class_battle_manager.html" target="_top" xlink:title="Holds current Player and Enemy objects in battle and provides functions for MainBattle and other obje...">
<polygon fill="none" stroke="black" points="378,-1056.5 378,-1245.5 494,-1245.5 494,-1056.5 378,-1056.5"/>
<text text-anchor="middle" x="436" y="-1233.5" font-family="Helvetica,sans-Serif" font-size="10.00">BattleManager</text>
<polyline fill="none" stroke="black" points="378,-1226.5 494,-1226.5 "/>
<text text-anchor="start" x="386" y="-1214.5" font-family="Helvetica,sans-Serif" font-size="10.00">+ Player</text>
<text text-anchor="start" x="386" y="-1203.5" font-family="Helvetica,sans-Serif" font-size="10.00">+ Enemy</text>
<text text-anchor="start" x="386" y="-1192.5" font-family="Helvetica,sans-Serif" font-size="10.00">+ WasCriticalHit</text>
<polyline fill="none" stroke="black" points="378,-1185.5 494,-1185.5 "/>
<text text-anchor="start" x="386" y="-1173.5" font-family="Helvetica,sans-Serif" font-size="10.00">+ BattleManager()</text>
<text text-anchor="start" x="386" y="-1162.5" font-family="Helvetica,sans-Serif" font-size="10.00">+ playerFirst()</text>
<text text-anchor="start" x="386" y="-1151.5" font-family="Helvetica,sans-Serif" font-size="10.00">+ switchPlayers()</text>
<text text-anchor="start" x="386" y="-1140.5" font-family="Helvetica,sans-Serif" font-size="10.00">+ isCriticalHit()</text>
<text text-anchor="start" x="386" y="-1129.5" font-family="Helvetica,sans-Serif" font-size="10.00">+ ranAway()</text>
<text text-anchor="start" x="386" y="-1118.5" font-family="Helvetica,sans-Serif" font-size="10.00">+ damageCalculation()</text>
<text text-anchor="start" x="386" y="-1107.5" font-family="Helvetica,sans-Serif" font-size="10.00">+ enemyMove()</text>
<text text-anchor="start" x="386" y="-1096.5" font-family="Helvetica,sans-Serif" font-size="10.00">+ enemySpecialMove()</text>
<text text-anchor="start" x="386" y="-1085.5" font-family="Helvetica,sans-Serif" font-size="10.00">+ battleWon()</text>
<text text-anchor="start" x="386" y="-1074.5" font-family="Helvetica,sans-Serif" font-size="10.00">+ playerFainted()</text>
<text text-anchor="start" x="386" y="-1063.5" font-family="Helvetica,sans-Serif" font-size="10.00">&#45; characterFainted()</text>
</a>
</g>
</g>
<!-- Node4&#45;&gt;Node14 -->
<g id="edge19" class="edge"><title>Node4&#45;&gt;Node14</title>
<path fill="none" stroke="#404040" d="M499.47,-1602.33C496.018,-1544.56 486.448,-1407.03 468,-1293 466.136,-1281.48 463.893,-1269.49 461.471,-1257.58"/>
<polygon fill="none" stroke="#404040" points="461.448,-1257.47 456.306,-1252.42 458.996,-1245.73 464.138,-1250.78 461.448,-1257.47"/>
<text text-anchor="middle" x="530" y="-1438" font-family="Helvetica,sans-Serif" font-size="10.00"> +forceEnemyMove</text>
<text text-anchor="middle" x="530" y="-1427" font-family="Helvetica,sans-Serif" font-size="10.00">+forceCriticalHits</text>
</g>
<!-- Node5&#45;&gt;Node2 -->
<g id="edge3" class="edge"><title>Node5&#45;&gt;Node2</title>
<path fill="none" stroke="#404040" d="M427.724,-160.56C465.721,-136.714 521.225,-101.882 564.012,-75.0298"/>
<polygon fill="none" stroke="#404040" points="564.155,-74.9401 567.11,-68.3626 574.319,-68.5612 571.363,-75.1387 564.155,-74.9401"/>
<text text-anchor="middle" x="568" y="-95.5" font-family="Helvetica,sans-Serif" font-size="10.00"> +battleItem</text>
</g>
<!-- Node5&#45;&gt;Node5 -->
<g id="edge32" class="edge"><title>Node5&#45;&gt;Node5</title>
<path fill="none" stroke="#404040" d="M427.669,-204.439C437.93,-203.17 445.5,-198.023 445.5,-189 445.5,-183.924 443.105,-180.075 439.183,-177.453"/>
<polygon fill="none" stroke="#404040" points="439.037,-177.404 432.073,-179.272 427.669,-173.561 434.634,-171.693 439.037,-177.404"/>
<text text-anchor="middle" x="468.5" y="-186.5" font-family="Helvetica,sans-Serif" font-size="10.00"> +instance</text>
</g>
<!-- Node6 -->
<g id="node5" class="node"><title>Node6</title>
<polygon fill="none" stroke="#bfbfbf" points="314,-304 314,-361 372,-361 372,-304 314,-304"/>
<text text-anchor="middle" x="343" y="-349" font-family="Helvetica,sans-Serif" font-size="10.00">AudioClip</text>
<polyline fill="none" stroke="#bfbfbf" points="314,-342 372,-342 "/>
<text text-anchor="middle" x="343" y="-330" font-family="Helvetica,sans-Serif" font-size="10.00"> </text>
<polyline fill="none" stroke="#bfbfbf" points="314,-323 372,-323 "/>
<text text-anchor="middle" x="343" y="-311" font-family="Helvetica,sans-Serif" font-size="10.00"> </text>
</g>
<!-- Node6&#45;&gt;Node5 -->
<g id="edge5" class="edge"><title>Node6&#45;&gt;Node5</title>
<path fill="none" stroke="#404040" d="M338.136,-303.752C337.122,-292.776 337.106,-280.145 340,-269 340.592,-266.721 341.266,-264.437 342.009,-262.158"/>
<polygon fill="none" stroke="#404040" points="342.042,-262.071 340.405,-255.048 346.258,-250.836 347.895,-257.858 342.042,-262.071"/>
<text text-anchor="middle" x="373.5" y="-272" font-family="Helvetica,sans-Serif" font-size="10.00"> +previousBGM</text>
</g>
<!-- Node7&#45;&gt;Node5 -->
<g id="edge6" class="edge"><title>Node7&#45;&gt;Node5</title>
<path fill="none" stroke="#404040" d="M214.314,-1485.13C197.786,-1475.68 179.656,-1462.57 168,-1446 142.816,-1410.21 144,-1394.26 144,-1350.5 144,-1350.5 144,-1350.5 144,-993 144,-922.321 141.667,-904.676 141,-834 138.687,-588.777 152.553,-512.178 272,-298 286.613,-271.799 309.627,-248.004 331.002,-229.459"/>
<polygon fill="none" stroke="#404040" points="331.175,-229.314 333.186,-222.388 340.352,-221.581 338.341,-228.506 331.175,-229.314"/>
<text text-anchor="middle" x="153.5" y="-815" font-family="Helvetica,sans-Serif" font-size="10.00"> &#45;item</text>
</g>
<!-- Node16 -->
<g id="node15" class="node"><title>Node16</title>
<g id="a_node15"><a xlink:href="class_player.html" target="_top" xlink:title="Defines a playable character for use in battle scenes">
<polygon fill="none" stroke="black" points="248,-1293.5 248,-1405.5 360,-1405.5 360,-1293.5 248,-1293.5"/>
<text text-anchor="middle" x="304" y="-1393.5" font-family="Helvetica,sans-Serif" font-size="10.00">Player</text>
<polyline fill="none" stroke="black" points="248,-1386.5 360,-1386.5 "/>
<text text-anchor="start" x="256" y="-1374.5" font-family="Helvetica,sans-Serif" font-size="10.00">+ Exp</text>
<text text-anchor="start" x="256" y="-1363.5" font-family="Helvetica,sans-Serif" font-size="10.00">+ Item</text>
<text text-anchor="start" x="256" y="-1352.5" font-family="Helvetica,sans-Serif" font-size="10.00">+ ExpToNextLevel</text>
<polyline fill="none" stroke="black" points="248,-1345.5 360,-1345.5 "/>
<text text-anchor="start" x="256" y="-1333.5" font-family="Helvetica,sans-Serif" font-size="10.00">+ Player()</text>
<text text-anchor="start" x="256" y="-1322.5" font-family="Helvetica,sans-Serif" font-size="10.00">+ gainExp()</text>
<text text-anchor="start" x="256" y="-1311.5" font-family="Helvetica,sans-Serif" font-size="10.00">+ levelUp()</text>
<text text-anchor="start" x="256" y="-1300.5" font-family="Helvetica,sans-Serif" font-size="10.00">&#45; setExpToNextLevel()</text>
</a>
</g>
</g>
<!-- Node7&#45;&gt;Node16 -->
<g id="edge25" class="edge"><title>Node7&#45;&gt;Node16</title>
<path fill="none" stroke="#404040" d="M249.054,-1464.12C248.893,-1451.11 250.005,-1436.69 254,-1424 254.76,-1421.58 255.629,-1419.18 256.588,-1416.79"/>
<polygon fill="none" stroke="#404040" points="256.651,-1416.65 255.531,-1409.53 261.677,-1405.75 262.796,-1412.88 256.651,-1416.65"/>
<text text-anchor="middle" x="266.5" y="-1432.5" font-family="Helvetica,sans-Serif" font-size="10.00"> &#45;item</text>
</g>
<!-- Node8 -->
<g id="node7" class="node"><title>Node8</title>
<polygon fill="none" stroke="#bfbfbf" points="390.5,-304 390.5,-361 461.5,-361 461.5,-304 390.5,-304"/>
<text text-anchor="middle" x="426" y="-349" font-family="Helvetica,sans-Serif" font-size="10.00">GameObject</text>
<polyline fill="none" stroke="#bfbfbf" points="390.5,-342 461.5,-342 "/>
<text text-anchor="middle" x="426" y="-330" font-family="Helvetica,sans-Serif" font-size="10.00"> </text>
<polyline fill="none" stroke="#bfbfbf" points="390.5,-323 461.5,-323 "/>
<text text-anchor="middle" x="426" y="-311" font-family="Helvetica,sans-Serif" font-size="10.00"> </text>
</g>
<!-- Node8&#45;&gt;Node5 -->
<g id="edge9" class="edge"><title>Node8&#45;&gt;Node5</title>
<path fill="none" stroke="#404040" d="M417.802,-303.881C414.242,-291.887 409.888,-277.218 405.505,-262.45"/>
<polygon fill="none" stroke="#404040" points="405.412,-262.139 399.87,-257.525 401.998,-250.635 407.54,-255.249 405.412,-262.139"/>
<text text-anchor="middle" x="428" y="-272" font-family="Helvetica,sans-Serif" font-size="10.00"> +player</text>
</g>
<!-- Node9 -->
<g id="node8" class="node"><title>Node9</title>
<g id="a_node8"><a xlink:href="class_enemy.html" target="_top" xlink:title="Defines an AI controller enemy to fight in battle scenes">
<polygon fill="none" stroke="black" points="596.5,-304 596.5,-361 663.5,-361 663.5,-304 596.5,-304"/>
<text text-anchor="middle" x="630" y="-349" font-family="Helvetica,sans-Serif" font-size="10.00">Enemy</text>
<polyline fill="none" stroke="black" points="596.5,-342 663.5,-342 "/>
<text text-anchor="start" x="604.5" y="-330" font-family="Helvetica,sans-Serif" font-size="10.00">+ ExpGiven</text>
<polyline fill="none" stroke="black" points="596.5,-323 663.5,-323 "/>
<text text-anchor="start" x="604.5" y="-311" font-family="Helvetica,sans-Serif" font-size="10.00">+ Enemy()</text>
</a>
</g>
</g>
<!-- Node9&#45;&gt;Node5 -->
<g id="edge10" class="edge"><title>Node9&#45;&gt;Node5</title>
<path fill="none" stroke="#404040" d="M596.339,-304.981C593.2,-302.597 590.052,-300.24 587,-298 568.712,-284.579 564.569,-280.472 545,-269 510.672,-248.876 470.492,-229.155 438.86,-214.451"/>
<polygon fill="none" stroke="#404040" points="438.517,-214.293 431.393,-215.414 427.619,-209.269 434.742,-208.149 438.517,-214.293"/>
<text text-anchor="middle" x="581" y="-272" font-family="Helvetica,sans-Serif" font-size="10.00"> &#45;enemy</text>
</g>
<!-- Node9&#45;&gt;Node14 -->
<g id="edge20" class="edge"><title>Node9&#45;&gt;Node14</title>
<path fill="none" stroke="#404040" d="M597.181,-361.378C578.349,-378.47 555.122,-401.521 538,-425 468.315,-520.557 444.656,-547.012 417,-662 387.054,-786.512 419.357,-822.11 426,-950 427.585,-980.515 429.261,-1013.65 430.777,-1044.01"/>
<polygon fill="none" stroke="#404040" points="430.797,-1044.4 435.091,-1050.2 431.395,-1056.39 427.101,-1050.59 430.797,-1044.4"/>
<text text-anchor="middle" x="435" y="-720" font-family="Helvetica,sans-Serif" font-size="10.00"> &#45;enemy</text>
</g>
<!-- Node10&#45;&gt;Node9 -->
<g id="edge11" class="edge"><title>Node10&#45;&gt;Node9</title>
<path fill="none" stroke="midnightblue" d="M614.054,-415.508C617.941,-395.518 621.725,-376.059 624.63,-361.116"/>
<polygon fill="none" stroke="midnightblue" points="610.614,-414.861 612.141,-425.346 617.486,-416.198 610.614,-414.861"/>
</g>
<!-- Node10&#45;&gt;Node13 -->
<g id="edge17" class="edge"><title>Node10&#45;&gt;Node13</title>
<path fill="none" stroke="#404040" d="M594.294,-603.877C593.707,-677.365 592.892,-779.389 592.408,-839.959"/>
<polygon fill="none" stroke="#404040" points="592.406,-840.23 596.358,-846.261 592.31,-852.229 588.358,-846.197 592.406,-840.23"/>
<text text-anchor="middle" x="611" y="-725.5" font-family="Helvetica,sans-Serif" font-size="10.00"> #target</text>
<text text-anchor="middle" x="611" y="-714.5" font-family="Helvetica,sans-Serif" font-size="10.00">#user</text>
</g>
<!-- Node10&#45;&gt;Node16 -->
<g id="edge24" class="edge"><title>Node10&#45;&gt;Node16</title>
<path fill="none" stroke="midnightblue" d="M538.16,-539.543C500.705,-557.711 452.716,-585.719 420,-622 406.82,-636.616 407.847,-643.548 401,-662 370.544,-744.082 369.736,-766.941 349,-852 338.45,-895.277 334.023,-905.865 328,-950 311.366,-1071.89 306.261,-1216.33 304.694,-1293.45"/>
<polygon fill="none" stroke="midnightblue" points="539.907,-542.588 547.439,-535.137 536.904,-536.265 539.907,-542.588"/>
</g>
<!-- Node11 -->
<g id="node10" class="node"><title>Node11</title>
<polygon fill="none" stroke="#bfbfbf" points="376.5,-1475.5 376.5,-1532.5 405.5,-1532.5 405.5,-1475.5 376.5,-1475.5"/>
<text text-anchor="middle" x="391" y="-1520.5" font-family="Helvetica,sans-Serif" font-size="10.00">int</text>
<polyline fill="none" stroke="#bfbfbf" points="376.5,-1513.5 405.5,-1513.5 "/>
<text text-anchor="middle" x="391" y="-1501.5" font-family="Helvetica,sans-Serif" font-size="10.00"> </text>
<polyline fill="none" stroke="#bfbfbf" points="376.5,-1494.5 405.5,-1494.5 "/>
<text text-anchor="middle" x="391" y="-1482.5" font-family="Helvetica,sans-Serif" font-size="10.00"> </text>
</g>
<!-- Node11&#45;&gt;Node2 -->
<g id="edge37" class="edge"><title>Node11&#45;&gt;Node2</title>
<path fill="none" stroke="#404040" d="M376.426,-1496.03C358.654,-1487.7 327.572,-1473.68 300,-1464 271.715,-1454.07 258.549,-1464.55 235,-1446 196.865,-1415.96 182,-1399.04 182,-1350.5 182,-1350.5 182,-1350.5 182,-993 182,-907.371 177.047,-885.914 166,-801 136.824,-576.73 27.977,-515.772 89,-298 113.001,-212.347 120.938,-179.149 193,-127 250.831,-85.1492 452.545,-55.9239 559.392,-42.9885"/>
<polygon fill="none" stroke="#404040" points="559.707,-42.951 565.191,-38.2681 571.622,-41.5288 566.139,-46.2117 559.707,-42.951"/>
<text text-anchor="middle" x="203.5" y="-775" font-family="Helvetica,sans-Serif" font-size="10.00"> +maximumMagic</text>
<text text-anchor="middle" x="203.5" y="-764" font-family="Helvetica,sans-Serif" font-size="10.00">+attack</text>
<text text-anchor="middle" x="203.5" y="-753" font-family="Helvetica,sans-Serif" font-size="10.00">+defence</text>
<text text-anchor="middle" x="203.5" y="-742" font-family="Helvetica,sans-Serif" font-size="10.00">+level</text>
<text text-anchor="middle" x="203.5" y="-731" font-family="Helvetica,sans-Serif" font-size="10.00">+special1Magic</text>
<text text-anchor="middle" x="203.5" y="-720" font-family="Helvetica,sans-Serif" font-size="10.00">+battleMoney</text>
<text text-anchor="middle" x="203.5" y="-709" font-family="Helvetica,sans-Serif" font-size="10.00">+special2Magic</text>
<text text-anchor="middle" x="203.5" y="-698" font-family="Helvetica,sans-Serif" font-size="10.00">+speed</text>
<text text-anchor="middle" x="203.5" y="-687" font-family="Helvetica,sans-Serif" font-size="10.00">+luck</text>
<text text-anchor="middle" x="203.5" y="-676" font-family="Helvetica,sans-Serif" font-size="10.00">+health</text>
<text text-anchor="middle" x="203.5" y="-665" font-family="Helvetica,sans-Serif" font-size="10.00">...</text>
</g>
<!-- Node11&#45;&gt;Node5 -->
<g id="edge33" class="edge"><title>Node11&#45;&gt;Node5</title>
<path fill="none" stroke="#404040" d="M376.338,-1496.27C358.48,-1488.18 327.313,-1474.38 300,-1464 276.353,-1455.01 262.512,-1465.17 246,-1446 234.22,-1432.33 240.561,-1423.98 239,-1406 234.655,-1355.97 237.212,-1343.19 239,-1293 249.451,-999.553 286,-927.633 286,-634 286,-634 286,-634 286,-331.5 286,-294.745 308.623,-260.645 332.129,-235.132"/>
<polygon fill="none" stroke="#404040" points="332.132,-235.13 333.404,-228.032 340.445,-226.476 339.173,-233.574 332.132,-235.13"/>
<text text-anchor="middle" x="312.5" y="-826" font-family="Helvetica,sans-Serif" font-size="10.00"> +currentLevel</text>
<text text-anchor="middle" x="312.5" y="-815" font-family="Helvetica,sans-Serif" font-size="10.00">+lastLevel</text>
<text text-anchor="middle" x="312.5" y="-804" font-family="Helvetica,sans-Serif" font-size="10.00">&#45;money</text>
</g>
<!-- Node11&#45;&gt;Node9 -->
<g id="edge31" class="edge"><title>Node11&#45;&gt;Node9</title>
<path fill="none" stroke="#404040" d="M405.646,-1499.43C447.33,-1489.12 564.366,-1459.27 576,-1446 611.705,-1405.29 671,-1169.1 671,-818.5 671,-818.5 671,-818.5 671,-513.5 671,-463.972 656.06,-408.65 644.218,-372.576"/>
<polygon fill="none" stroke="#404040" points="644.187,-372.485 638.477,-368.08 640.346,-361.116 646.056,-365.52 644.187,-372.485"/>
<text text-anchor="middle" x="694" y="-889.5" font-family="Helvetica,sans-Serif" font-size="10.00"> &#45;expGiven</text>
</g>
<!-- Node11&#45;&gt;Node10 -->
<g id="edge13" class="edge"><title>Node11&#45;&gt;Node10</title>
<path fill="none" stroke="#404040" d="M390.818,-1475.18C390.124,-1430.39 387.058,-1339.63 374,-1264 372.587,-1255.82 370.553,-1254.16 369,-1246 351.611,-1154.68 351.896,-1130.83 347,-1038 344.94,-998.943 338.998,-988.284 347,-950 363.573,-870.71 393.049,-859.389 420,-783 438.546,-730.434 425.398,-710.428 453,-662 464.914,-641.096 504.176,-601.118 538.403,-568.2"/>
<polygon fill="none" stroke="#404040" points="538.762,-567.856 540.334,-560.819 547.435,-559.563 545.863,-566.6 538.762,-567.856"/>
<text text-anchor="middle" x="384.5" y="-1030" font-family="Helvetica,sans-Serif" font-size="10.00"> #speed</text>
<text text-anchor="middle" x="384.5" y="-1019" font-family="Helvetica,sans-Serif" font-size="10.00">#luck</text>
<text text-anchor="middle" x="384.5" y="-1008" font-family="Helvetica,sans-Serif" font-size="10.00">#health</text>
<text text-anchor="middle" x="384.5" y="-997" font-family="Helvetica,sans-Serif" font-size="10.00">#magic</text>
<text text-anchor="middle" x="384.5" y="-986" font-family="Helvetica,sans-Serif" font-size="10.00">#maximumMagic</text>
<text text-anchor="middle" x="384.5" y="-975" font-family="Helvetica,sans-Serif" font-size="10.00">#attack</text>
<text text-anchor="middle" x="384.5" y="-964" font-family="Helvetica,sans-Serif" font-size="10.00">#defence</text>
<text text-anchor="middle" x="384.5" y="-953" font-family="Helvetica,sans-Serif" font-size="10.00">#level</text>
</g>
<!-- Node11&#45;&gt;Node12 -->
<g id="edge29" class="edge"><title>Node11&#45;&gt;Node12</title>
<path fill="none" stroke="#404040" d="M405.615,-1489.01C423.175,-1471.34 452.235,-1439.22 468,-1406 499.213,-1340.24 494.852,-1318.34 503,-1246 508.535,-1196.86 505.503,-850.424 507,-801 507.154,-795.925 507.349,-790.664 507.57,-785.383"/>
<polygon fill="none" stroke="#404040" points="507.583,-785.087 503.858,-778.913 508.125,-773.1 511.85,-779.274 507.583,-785.087"/>
<text text-anchor="middle" x="524.5" y="-1148.5" font-family="Helvetica,sans-Serif" font-size="10.00"> #magic</text>
</g>
<!-- Node11&#45;&gt;Node14 -->
<g id="edge21" class="edge"><title>Node11&#45;&gt;Node14</title>
<path fill="none" stroke="#404040" d="M398.598,-1475.33C400.927,-1466.06 403.317,-1455.64 405,-1446 415.821,-1384.06 423.384,-1314.07 428.33,-1257.93"/>
<polygon fill="none" stroke="#404040" points="428.345,-1257.75 424.876,-1251.43 429.377,-1245.8 432.846,-1252.12 428.345,-1257.75"/>
<text text-anchor="middle" x="444.5" y="-1347" font-family="Helvetica,sans-Serif" font-size="10.00"> +money</text>
</g>
<!-- Node11&#45;&gt;Node16 -->
<g id="edge26" class="edge"><title>Node11&#45;&gt;Node16</title>
<path fill="none" stroke="#404040" d="M376.316,-1498.57C355.412,-1491.38 317.851,-1474.98 302,-1446 297.304,-1437.42 294.878,-1427.71 293.927,-1417.87"/>
<polygon fill="none" stroke="#404040" points="293.926,-1417.84 289.688,-1412.01 293.444,-1405.85 297.682,-1411.68 293.926,-1417.84"/>
<text text-anchor="middle" x="339.5" y="-1438" font-family="Helvetica,sans-Serif" font-size="10.00"> &#45;expToNextLevel</text>
<text text-anchor="middle" x="339.5" y="-1427" font-family="Helvetica,sans-Serif" font-size="10.00">&#45;exp</text>
</g>
<!-- Node12&#45;&gt;Node10 -->
<g id="edge14" class="edge"><title>Node12&#45;&gt;Node10</title>
<path fill="none" stroke="#404040" d="M521.44,-671.903C525.508,-655.724 530.721,-637.853 537,-622 538.648,-617.841 540.421,-613.638 542.289,-609.428"/>
<polygon fill="none" stroke="#404040" points="542.4,-609.186 541.283,-602.062 547.429,-598.29 548.547,-605.414 542.4,-609.186"/>
<text text-anchor="middle" x="559.5" y="-636" font-family="Helvetica,sans-Serif" font-size="10.00"> #special1</text>
<text text-anchor="middle" x="559.5" y="-625" font-family="Helvetica,sans-Serif" font-size="10.00">#special2</text>
</g>
<!-- Node13&#45;&gt;Node12 -->
<g id="edge15" class="edge"><title>Node13&#45;&gt;Node12</title>
<path fill="none" stroke="midnightblue" d="M568.814,-843.054C558.247,-821.201 545.742,-795.342 535.07,-773.274"/>
<polygon fill="none" stroke="midnightblue" points="565.709,-844.672 573.213,-852.151 572.011,-841.625 565.709,-844.672"/>
</g>
<!-- Node14&#45;&gt;Node13 -->
<g id="edge18" class="edge"><title>Node14&#45;&gt;Node13</title>
<path fill="none" stroke="#404040" d="M492.761,-1056.49C516.242,-1017.81 542.503,-974.544 562.109,-942.243"/>
<polygon fill="none" stroke="#404040" points="562.263,-941.99 561.957,-934.785 568.49,-931.732 568.796,-938.937 562.263,-941.99"/>
<text text-anchor="middle" x="578" y="-991.5" font-family="Helvetica,sans-Serif" font-size="10.00"> #manager</text>
</g>
<!-- Node15 -->
<g id="node14" class="node"><title>Node15</title>
<polygon fill="none" stroke="#bfbfbf" points="855.5,-1321 855.5,-1378 890.5,-1378 890.5,-1321 855.5,-1321"/>
<text text-anchor="middle" x="873" y="-1366" font-family="Helvetica,sans-Serif" font-size="10.00">bool</text>
<polyline fill="none" stroke="#bfbfbf" points="855.5,-1359 890.5,-1359 "/>
<text text-anchor="middle" x="873" y="-1347" font-family="Helvetica,sans-Serif" font-size="10.00"> </text>
<polyline fill="none" stroke="#bfbfbf" points="855.5,-1340 890.5,-1340 "/>
<text text-anchor="middle" x="873" y="-1328" font-family="Helvetica,sans-Serif" font-size="10.00"> </text>
</g>
<!-- Node15&#45;&gt;Node2 -->
<g id="edge38" class="edge"><title>Node15&#45;&gt;Node2</title>
<path fill="none" stroke="#404040" d="M890.646,-1327.99C918.119,-1293.89 968,-1222.29 968,-1152 968,-1152 968,-1152 968,-188 968,-69.2481 793.534,-42.3551 694.187,-36.6678"/>
<polygon fill="none" stroke="#404040" points="694.151,-36.666 687.957,-40.3588 682.167,-36.0617 688.36,-32.3689 694.151,-36.666"/>
<text text-anchor="middle" x="1001.5" y="-630.5" font-family="Helvetica,sans-Serif" font-size="10.00"> +canRunAway</text>
</g>
<!-- Node15&#45;&gt;Node5 -->
<g id="edge34" class="edge"><title>Node15&#45;&gt;Node5</title>
<path fill="none" stroke="#404040" d="M873,-1320.84C873,-1282.8 873,-1212.21 873,-1152 873,-1152 873,-1152 873,-816.5 873,-737.319 793.252,-401.239 783,-385 706.367,-263.61 530.143,-215.645 439.732,-198.513"/>
<polygon fill="none" stroke="#404040" points="439.632,-198.494 433.012,-201.353 427.827,-196.341 434.447,-193.483 439.632,-198.494"/>
<text text-anchor="middle" x="904.5" y="-720" font-family="Helvetica,sans-Serif" font-size="10.00"> +canRunAway</text>
</g>
<!-- Node15&#45;&gt;Node14 -->
<g id="edge22" class="edge"><title>Node15&#45;&gt;Node14</title>
<path fill="none" stroke="#404040" d="M855.431,-1336.23C836.448,-1323.54 804.891,-1304.06 775,-1293 712.137,-1269.74 693.042,-1275.46 627,-1264 574.297,-1254.86 554.053,-1273.21 508,-1246 506.656,-1245.21 505.328,-1244.38 504.017,-1243.51"/>
<polygon fill="none" stroke="#404040" points="503.935,-1243.45 496.733,-1243.09 494.295,-1236.31 501.497,-1236.67 503.935,-1243.45"/>
<text text-anchor="middle" x="741" y="-1267" font-family="Helvetica,sans-Serif" font-size="10.00"> &#45;wasCriticalHit</text>
</g>
<!-- Node16&#45;&gt;Node14 -->
<g id="edge23" class="edge"><title>Node16&#45;&gt;Node14</title>
<path fill="none" stroke="#404040" d="M341.121,-1293.24C350.504,-1279.27 360.856,-1263.86 371.171,-1248.51"/>
<polygon fill="none" stroke="#404040" points="371.242,-1248.4 371.267,-1241.19 377.933,-1238.44 377.908,-1245.65 371.242,-1248.4"/>
<text text-anchor="middle" x="375.5" y="-1267" font-family="Helvetica,sans-Serif" font-size="10.00"> &#45;player</text>
</g>
<!-- Node17 -->
<g id="node16" class="node"><title>Node17</title>
<polygon fill="none" stroke="#bfbfbf" points="735.5,-863.5 735.5,-920.5 770.5,-920.5 770.5,-863.5 735.5,-863.5"/>
<text text-anchor="middle" x="753" y="-908.5" font-family="Helvetica,sans-Serif" font-size="10.00">float</text>
<polyline fill="none" stroke="#bfbfbf" points="735.5,-901.5 770.5,-901.5 "/>
<text text-anchor="middle" x="753" y="-889.5" font-family="Helvetica,sans-Serif" font-size="10.00"> </text>
<polyline fill="none" stroke="#bfbfbf" points="735.5,-882.5 770.5,-882.5 "/>
<text text-anchor="middle" x="753" y="-870.5" font-family="Helvetica,sans-Serif" font-size="10.00"> </text>
</g>
<!-- Node17&#45;&gt;Node2 -->
<g id="edge36" class="edge"><title>Node17&#45;&gt;Node2</title>
<path fill="none" stroke="#404040" d="M741.093,-863.428C728.062,-830.698 709,-774.162 709,-723.5 709,-723.5 709,-723.5 709,-188 709,-147.396 686.171,-107.185 664.605,-78.2554"/>
<polygon fill="none" stroke="#404040" points="664.41,-78.0034 657.575,-75.7045 657.068,-68.5112 663.903,-70.8101 664.41,-78.0034"/>
<text text-anchor="middle" x="744" y="-399" font-family="Helvetica,sans-Serif" font-size="10.00"> +special2Value</text>
<text text-anchor="middle" x="744" y="-388" font-family="Helvetica,sans-Serif" font-size="10.00">+special1Value</text>
</g>
<!-- Node17&#45;&gt;Node12 -->
<g id="edge28" class="edge"><title>Node17&#45;&gt;Node12</title>
<path fill="none" stroke="#404040" d="M735.372,-864.834C731.139,-860.014 726.292,-855.429 721,-852 695.484,-835.466 682.835,-846.233 655,-834 616.054,-816.883 607.624,-809.062 574,-783 572.551,-781.877 571.097,-780.726 569.642,-779.552"/>
<polygon fill="none" stroke="#404040" points="569.263,-779.234 562.095,-778.449 560.063,-771.53 567.231,-772.315 569.263,-779.234"/>
<text text-anchor="middle" x="675" y="-815" font-family="Helvetica,sans-Serif" font-size="10.00"> #special</text>
</g>
<!-- Node18 -->
<g id="node17" class="node"><title>Node18</title>
<polygon fill="none" stroke="#bfbfbf" points="775.5,-694 775.5,-751 836.5,-751 836.5,-694 775.5,-694"/>
<text text-anchor="middle" x="806" y="-739" font-family="Helvetica,sans-Serif" font-size="10.00">Texture2D</text>
<polyline fill="none" stroke="#bfbfbf" points="775.5,-732 836.5,-732 "/>
<text text-anchor="middle" x="806" y="-720" font-family="Helvetica,sans-Serif" font-size="10.00"> </text>
<polyline fill="none" stroke="#bfbfbf" points="775.5,-713 836.5,-713 "/>
<text text-anchor="middle" x="806" y="-701" font-family="Helvetica,sans-Serif" font-size="10.00"> </text>
</g>
<!-- Node18&#45;&gt;Node2 -->
<g id="edge40" class="edge"><title>Node18&#45;&gt;Node2</title>
<path fill="none" stroke="#404040" d="M811.267,-693.963C818.332,-654.567 830,-579.77 830,-515.5 830,-515.5 830,-515.5 830,-188 830,-118.471 752.933,-76.7273 693.769,-54.9252"/>
<polygon fill="none" stroke="#404040" points="693.514,-54.835 686.523,-56.6021 682.203,-50.8283 689.194,-49.0612 693.514,-54.835"/>
<text text-anchor="middle" x="847" y="-330" font-family="Helvetica,sans-Serif" font-size="10.00"> +sprite</text>
</g>
<!-- Node18&#45;&gt;Node10 -->
<g id="edge30" class="edge"><title>Node18&#45;&gt;Node10</title>
<path fill="none" stroke="#404040" d="M797.265,-693.828C789.494,-672.442 776.48,-643.038 758,-622 729.012,-589 687.458,-562.063 653.562,-543.535"/>
<polygon fill="none" stroke="#404040" points="653.438,-543.469 646.261,-544.172 642.852,-537.818 650.028,-537.114 653.438,-543.469"/>
<text text-anchor="middle" x="791.5" y="-630.5" font-family="Helvetica,sans-Serif" font-size="10.00"> #image</text>
</g>
<!-- Node19 -->
<g id="node18" class="node"><title>Node19</title>
<polygon fill="none" stroke="#bfbfbf" points="480,-298.5 480,-366.5 578,-366.5 578,-298.5 480,-298.5"/>
<text text-anchor="start" x="488" y="-354.5" font-family="Helvetica,sans-Serif" font-size="10.00">IDictionary&lt; string,</text>
<text text-anchor="middle" x="529" y="-343.5" font-family="Helvetica,sans-Serif" font-size="10.00"> bool &gt;</text>
<polyline fill="none" stroke="#bfbfbf" points="480,-336.5 578,-336.5 "/>
<text text-anchor="middle" x="529" y="-324.5" font-family="Helvetica,sans-Serif" font-size="10.00"> </text>
<polyline fill="none" stroke="#bfbfbf" points="480,-317.5 578,-317.5 "/>
<text text-anchor="middle" x="529" y="-305.5" font-family="Helvetica,sans-Serif" font-size="10.00"> </text>
</g>
<!-- Node19&#45;&gt;Node5 -->
<g id="edge35" class="edge"><title>Node19&#45;&gt;Node5</title>
<path fill="none" stroke="#404040" d="M495.004,-298.325C477.583,-281.324 455.983,-260.245 436.48,-241.213"/>
<polygon fill="none" stroke="#404040" points="436.277,-241.016 429.19,-239.688 427.689,-232.635 434.777,-233.962 436.277,-241.016"/>
<text text-anchor="middle" x="507.5" y="-272" font-family="Helvetica,sans-Serif" font-size="10.00"> +objectsActive</text>
</g>
<!-- Node20 -->
<g id="node19" class="node"><title>Node20</title>
<polygon fill="none" stroke="#bfbfbf" points="996.5,-160.5 996.5,-217.5 1071.5,-217.5 1071.5,-160.5 996.5,-160.5"/>
<text text-anchor="middle" x="1034" y="-205.5" font-family="Helvetica,sans-Serif" font-size="10.00">EnemyMoves</text>
<polyline fill="none" stroke="#bfbfbf" points="996.5,-198.5 1071.5,-198.5 "/>
<text text-anchor="middle" x="1034" y="-186.5" font-family="Helvetica,sans-Serif" font-size="10.00"> </text>
<polyline fill="none" stroke="#bfbfbf" points="996.5,-179.5 1071.5,-179.5 "/>
<text text-anchor="middle" x="1034" y="-167.5" font-family="Helvetica,sans-Serif" font-size="10.00"> </text>
</g>
<!-- Node20&#45;&gt;Node2 -->
<g id="edge39" class="edge"><title>Node20&#45;&gt;Node2</title>
<path fill="none" stroke="#404040" d="M1027.31,-160.157C1020.16,-136.753 1006.4,-104.411 982,-87 937.091,-54.9593 784.316,-42.601 694.483,-38.0281"/>
<polygon fill="none" stroke="#404040" points="694.228,-38.0158 688.041,-41.7198 682.243,-37.4333 688.43,-33.7293 694.228,-38.0158"/>
<text text-anchor="middle" x="1027" y="-101" font-family="Helvetica,sans-Serif" font-size="10.00"> +special1</text>
<text text-anchor="middle" x="1027" y="-90" font-family="Helvetica,sans-Serif" font-size="10.00">+special2</text>
</g>
</g>
</svg>
