<?xml version="1.0" encoding="UTF-8" standalone="no"?>
<!DOCTYPE svg PUBLIC "-//W3C//DTD SVG 1.1//EN"
 "http://www.w3.org/Graphics/SVG/1.1/DTD/svg11.dtd">
<!-- Generated by graphviz version 2.38.0 (20140413.2041)
 -->
<!-- Title: GlobalFunctions Pages: 1 -->
<!--zoomable 1501 -->
<svg id="main" version="1.1" xmlns="http://www.w3.org/2000/svg" xmlns:xlink="http://www.w3.org/1999/xlink" xml:space="preserve" onload="init(evt)">
<style type="text/css"><![CDATA[
.edge:hover path { stroke: red; }
.edge:hover polygon { stroke: red; fill: red; }
]]></style>
<script type="text/javascript"><![CDATA[
var edges = document.getElementsByTagName('g');
if (edges && edges.length) {
  for (var i=0;i<edges.length;i++) {
    if (edges[i].id.substr(0,4)=='edge') {
      edges[i].setAttribute('class','edge');
    }
  }
}
]]></script>
        <defs>
                <circle id="rim" cx="0" cy="0" r="7"/>
                <circle id="rim2" cx="0" cy="0" r="3.5"/>
                <g id="zoomPlus">
                        <use xlink:href="#rim" fill="#404040">
                                <set attributeName="fill" to="#808080" begin="zoomplus.mouseover" end="zoomplus.mouseout"/>
                        </use>
                        <path d="M-4,0h8M0,-4v8" fill="none" stroke="white" stroke-width="1.5" pointer-events="none"/>
                </g>
                <g id="zoomMin">
                        <use xlink:href="#rim" fill="#404040">
                                <set attributeName="fill" to="#808080" begin="zoomminus.mouseover" end="zoomminus.mouseout"/>
                        </use>
                        <path d="M-4,0h8" fill="none" stroke="white" stroke-width="1.5" pointer-events="none"/>
                </g>
                <g id="dirArrow">
                        <path fill="none" stroke="white" stroke-width="1.5" d="M0,-3.0v7 M-2.5,-0.5L0,-3.0L2.5,-0.5"/>
                </g>
               <g id="resetDef">
                       <use xlink:href="#rim2" fill="#404040">
                               <set attributeName="fill" to="#808080" begin="reset.mouseover" end="reset.mouseout"/>
                       </use>
               </g>
        </defs>

<script type="text/javascript">
var viewWidth = 1142;
var viewHeight = 1501;
var sectionId = 'dynsection-1';
</script>
<script xlink:href="svgpan.js"/>
<svg id="graph" class="graph">
<g id="viewport">
<title>GlobalFunctions</title>
<!-- Node2 -->
<g id="node1" class="node"><title>Node2</title>
<polygon fill="#bfbfbf" stroke="black" points="295,-0.5 295,-123.5 382,-123.5 382,-0.5 295,-0.5"/>
<text text-anchor="middle" x="338.5" y="-111.5" font-family="Helvetica,sans-Serif" font-size="10.00">GlobalFunctions</text>
<polyline fill="none" stroke="black" points="295,-104.5 382,-104.5 "/>
<text text-anchor="middle" x="338.5" y="-92.5" font-family="Helvetica,sans-Serif" font-size="10.00"> </text>
<polyline fill="none" stroke="black" points="295,-85.5 382,-85.5 "/>
<text text-anchor="start" x="303" y="-73.5" font-family="Helvetica,sans-Serif" font-size="10.00">+ createBattle()</text>
<text text-anchor="start" x="303" y="-62.5" font-family="Helvetica,sans-Serif" font-size="10.00">+ getEnemy()</text>
<text text-anchor="start" x="303" y="-51.5" font-family="Helvetica,sans-Serif" font-size="10.00">+ getMoney()</text>
<text text-anchor="start" x="303" y="-40.5" font-family="Helvetica,sans-Serif" font-size="10.00">+ getItem()</text>
<text text-anchor="start" x="303" y="-29.5" font-family="Helvetica,sans-Serif" font-size="10.00">+ endBattle()</text>
<text text-anchor="start" x="303" y="-18.5" font-family="Helvetica,sans-Serif" font-size="10.00">+ createItem()</text>
<text text-anchor="start" x="303" y="-7.5" font-family="Helvetica,sans-Serif" font-size="10.00">&#45; Awake()</text>
</g>
<!-- Node2&#45;&gt;Node2 -->
<g id="edge29" class="edge"><title>Node2&#45;&gt;Node2</title>
<path fill="none" stroke="#404040" d="M382.169,-77.4385C392.43,-76.1696 400,-71.0234 400,-62 400,-56.9243 397.605,-53.0754 393.683,-50.4533"/>
<polygon fill="none" stroke="#404040" points="393.537,-50.4042 386.573,-52.2722 382.169,-46.5615 389.134,-44.6935 393.537,-50.4042"/>
<text text-anchor="middle" x="423" y="-59.5" font-family="Helvetica,sans-Serif" font-size="10.00"> +instance</text>
</g>
<!-- Node3 -->
<g id="node2" class="node"><title>Node3</title>
<g id="a_node2"><a xlink:href="class_mono_behaviour.html" target="_top" xlink:title="{MonoBehaviour\n||}">
<polygon fill="none" stroke="black" points="0,-177 0,-234 83,-234 83,-177 0,-177"/>
<text text-anchor="middle" x="41.5" y="-222" font-family="Helvetica,sans-Serif" font-size="10.00">MonoBehaviour</text>
<polyline fill="none" stroke="black" points="0,-215 83,-215 "/>
<text text-anchor="middle" x="41.5" y="-203" font-family="Helvetica,sans-Serif" font-size="10.00"> </text>
<polyline fill="none" stroke="black" points="0,-196 83,-196 "/>
<text text-anchor="middle" x="41.5" y="-184" font-family="Helvetica,sans-Serif" font-size="10.00"> </text>
</a>
</g>
</g>
<!-- Node3&#45;&gt;Node2 -->
<g id="edge1" class="edge"><title>Node3&#45;&gt;Node2</title>
<path fill="none" stroke="midnightblue" d="M80.7296,-170.354C93.4852,-160.337 108.082,-149.95 122.5,-142 178.796,-110.959 249.715,-87.7157 294.598,-74.7391"/>
<polygon fill="none" stroke="midnightblue" points="78.2404,-167.864 72.6337,-176.854 82.6227,-173.323 78.2404,-167.864"/>
</g>
<!-- Node4 -->
<g id="node3" class="node"><title>Node4</title>
<polygon fill="none" stroke="#bfbfbf" points="101.5,-177 101.5,-234 159.5,-234 159.5,-177 101.5,-177"/>
<text text-anchor="middle" x="130.5" y="-222" font-family="Helvetica,sans-Serif" font-size="10.00">AudioClip</text>
<polyline fill="none" stroke="#bfbfbf" points="101.5,-215 159.5,-215 "/>
<text text-anchor="middle" x="130.5" y="-203" font-family="Helvetica,sans-Serif" font-size="10.00"> </text>
<polyline fill="none" stroke="#bfbfbf" points="101.5,-196 159.5,-196 "/>
<text text-anchor="middle" x="130.5" y="-184" font-family="Helvetica,sans-Serif" font-size="10.00"> </text>
</g>
<!-- Node4&#45;&gt;Node2 -->
<g id="edge2" class="edge"><title>Node4&#45;&gt;Node2</title>
<path fill="none" stroke="#404040" d="M124.474,-176.87C123.463,-165.162 124.526,-151.955 131.5,-142 165.58,-93.3535 233.859,-74.6499 282.682,-67.4662"/>
<polygon fill="none" stroke="#404040" points="282.747,-67.4576 288.168,-62.7021 294.643,-65.8768 289.222,-70.6323 282.747,-67.4576"/>
<text text-anchor="middle" x="165" y="-145" font-family="Helvetica,sans-Serif" font-size="10.00"> +previousBGM</text>
</g>
<!-- Node5 -->
<g id="node4" class="node"><title>Node5</title>
<g id="a_node4"><a xlink:href="class_item.html" target="_top" xlink:title="Abstract class for items that can be equipped to a player, increasing some of their stats ...">
<polygon fill="none" stroke="black" points="496,-1297.5 496,-1376.5 573,-1376.5 573,-1297.5 496,-1297.5"/>
<text text-anchor="middle" x="534.5" y="-1364.5" font-family="Helvetica,sans-Serif" font-size="10.00">Item</text>
<polyline fill="none" stroke="black" points="496,-1357.5 573,-1357.5 "/>
<text text-anchor="start" x="504" y="-1345.5" font-family="Helvetica,sans-Serif" font-size="10.00">+ Name</text>
<text text-anchor="start" x="504" y="-1334.5" font-family="Helvetica,sans-Serif" font-size="10.00">+ Desc</text>
<polyline fill="none" stroke="black" points="496,-1327.5 573,-1327.5 "/>
<text text-anchor="start" x="504" y="-1315.5" font-family="Helvetica,sans-Serif" font-size="10.00">+ applyBuffs()</text>
<text text-anchor="start" x="504" y="-1304.5" font-family="Helvetica,sans-Serif" font-size="10.00">+ revertBuffs()</text>
</a>
</g>
</g>
<!-- Node5&#45;&gt;Node2 -->
<g id="edge3" class="edge"><title>Node5&#45;&gt;Node2</title>
<path fill="none" stroke="#404040" d="M495.993,-1328.28C431.948,-1312.95 310.5,-1272.18 310.5,-1183.5 310.5,-1183.5 310.5,-1183.5 310.5,-826 310.5,-565.446 297.278,-500.527 293.5,-240 293.055,-209.337 287.486,-201.071 293.5,-171 295.875,-159.124 299.585,-146.921 303.879,-135.188"/>
<polygon fill="none" stroke="#404040" points="304.016,-134.835 302.447,-127.797 308.34,-123.642 309.909,-130.68 304.016,-134.835"/>
<text text-anchor="middle" x="321" y="-648" font-family="Helvetica,sans-Serif" font-size="10.00"> &#45;item</text>
</g>
<!-- Node15 -->
<g id="node14" class="node"><title>Node15</title>
<g id="a_node14"><a xlink:href="class_player.html" target="_top" xlink:title="Defines a playable character for use in battle scenes">
<polygon fill="none" stroke="black" points="495.5,-1126.5 495.5,-1238.5 607.5,-1238.5 607.5,-1126.5 495.5,-1126.5"/>
<text text-anchor="middle" x="551.5" y="-1226.5" font-family="Helvetica,sans-Serif" font-size="10.00">Player</text>
<polyline fill="none" stroke="black" points="495.5,-1219.5 607.5,-1219.5 "/>
<text text-anchor="start" x="503.5" y="-1207.5" font-family="Helvetica,sans-Serif" font-size="10.00">+ Exp</text>
<text text-anchor="start" x="503.5" y="-1196.5" font-family="Helvetica,sans-Serif" font-size="10.00">+ Item</text>
<text text-anchor="start" x="503.5" y="-1185.5" font-family="Helvetica,sans-Serif" font-size="10.00">+ ExpToNextLevel</text>
<polyline fill="none" stroke="black" points="495.5,-1178.5 607.5,-1178.5 "/>
<text text-anchor="start" x="503.5" y="-1166.5" font-family="Helvetica,sans-Serif" font-size="10.00">+ Player()</text>
<text text-anchor="start" x="503.5" y="-1155.5" font-family="Helvetica,sans-Serif" font-size="10.00">+ gainExp()</text>
<text text-anchor="start" x="503.5" y="-1144.5" font-family="Helvetica,sans-Serif" font-size="10.00">+ levelUp()</text>
<text text-anchor="start" x="503.5" y="-1133.5" font-family="Helvetica,sans-Serif" font-size="10.00">&#45; setExpToNextLevel()</text>
</a>
</g>
</g>
<!-- Node5&#45;&gt;Node15 -->
<g id="edge22" class="edge"><title>Node5&#45;&gt;Node15</title>
<path fill="none" stroke="#404040" d="M548.415,-1297.44C550.108,-1291.34 551.567,-1285.05 552.5,-1279 553.912,-1269.84 554.66,-1260.13 554.966,-1250.54"/>
<polygon fill="none" stroke="#404040" points="554.966,-1250.51 551.051,-1244.46 555.134,-1238.51 559.05,-1244.57 554.966,-1250.51"/>
<text text-anchor="middle" x="568" y="-1265.5" font-family="Helvetica,sans-Serif" font-size="10.00"> &#45;item</text>
</g>
<!-- Node6 -->
<g id="node5" class="node"><title>Node6</title>
<polygon fill="none" stroke="#bfbfbf" points="472,-1435.5 472,-1492.5 513,-1492.5 513,-1435.5 472,-1435.5"/>
<text text-anchor="middle" x="492.5" y="-1480.5" font-family="Helvetica,sans-Serif" font-size="10.00">string</text>
<polyline fill="none" stroke="#bfbfbf" points="472,-1473.5 513,-1473.5 "/>
<text text-anchor="middle" x="492.5" y="-1461.5" font-family="Helvetica,sans-Serif" font-size="10.00"> </text>
<polyline fill="none" stroke="#bfbfbf" points="472,-1454.5 513,-1454.5 "/>
<text text-anchor="middle" x="492.5" y="-1442.5" font-family="Helvetica,sans-Serif" font-size="10.00"> </text>
</g>
<!-- Node6&#45;&gt;Node2 -->
<g id="edge5" class="edge"><title>Node6&#45;&gt;Node2</title>
<path fill="none" stroke="#404040" d="M471.911,-1463.21C407.248,-1462.68 212.5,-1451.66 212.5,-1338 212.5,-1338 212.5,-1338 212.5,-204.5 212.5,-158.245 250.517,-120.111 284.786,-95.1331"/>
<polygon fill="none" stroke="#404040" points="284.958,-95.0128 287.576,-88.2936 294.785,-88.1256 292.167,-94.8448 284.958,-95.0128"/>
<text text-anchor="middle" x="247.5" y="-728" font-family="Helvetica,sans-Serif" font-size="10.00"> &#45;previousScene</text>
<text text-anchor="middle" x="247.5" y="-717" font-family="Helvetica,sans-Serif" font-size="10.00">+levelOrder</text>
</g>
<!-- Node6&#45;&gt;Node5 -->
<g id="edge4" class="edge"><title>Node6&#45;&gt;Node5</title>
<path fill="none" stroke="#404040" d="M501.821,-1435.26C506.488,-1421.37 512.284,-1404.12 517.693,-1388.02"/>
<polygon fill="none" stroke="#404040" points="517.719,-1387.94 515.839,-1380.98 521.542,-1376.57 523.422,-1383.53 517.719,-1387.94"/>
<text text-anchor="middle" x="530.5" y="-1409" font-family="Helvetica,sans-Serif" font-size="10.00"> #desc</text>
<text text-anchor="middle" x="530.5" y="-1398" font-family="Helvetica,sans-Serif" font-size="10.00">#name</text>
</g>
<!-- Node9 -->
<g id="node8" class="node"><title>Node9</title>
<g id="a_node8"><a xlink:href="class_character.html" target="_top" xlink:title="Base abstract class for Enemy and Player to inherit from. Defines all shared variables, their constructor and their setters and getters ">
<polygon fill="none" stroke="black" points="654,-277.5 654,-455.5 749,-455.5 749,-277.5 654,-277.5"/>
<text text-anchor="middle" x="701.5" y="-443.5" font-family="Helvetica,sans-Serif" font-size="10.00">Character</text>
<polyline fill="none" stroke="black" points="654,-436.5 749,-436.5 "/>
<text text-anchor="start" x="662" y="-424.5" font-family="Helvetica,sans-Serif" font-size="10.00">+ Name</text>
<text text-anchor="start" x="662" y="-413.5" font-family="Helvetica,sans-Serif" font-size="10.00">+ Level</text>
<text text-anchor="start" x="662" y="-402.5" font-family="Helvetica,sans-Serif" font-size="10.00">+ Health</text>
<text text-anchor="start" x="662" y="-391.5" font-family="Helvetica,sans-Serif" font-size="10.00">+ Attack</text>
<text text-anchor="start" x="662" y="-380.5" font-family="Helvetica,sans-Serif" font-size="10.00">+ Defence</text>
<text text-anchor="start" x="662" y="-369.5" font-family="Helvetica,sans-Serif" font-size="10.00">+ MaximumMagic</text>
<text text-anchor="start" x="662" y="-358.5" font-family="Helvetica,sans-Serif" font-size="10.00">+ Magic</text>
<text text-anchor="start" x="662" y="-347.5" font-family="Helvetica,sans-Serif" font-size="10.00">+ Luck</text>
<text text-anchor="start" x="662" y="-336.5" font-family="Helvetica,sans-Serif" font-size="10.00">+ Speed</text>
<text text-anchor="start" x="662" y="-325.5" font-family="Helvetica,sans-Serif" font-size="10.00">+ Special1</text>
<text text-anchor="start" x="662" y="-314.5" font-family="Helvetica,sans-Serif" font-size="10.00">+ Special2</text>
<text text-anchor="start" x="662" y="-303.5" font-family="Helvetica,sans-Serif" font-size="10.00">+ Image</text>
<polyline fill="none" stroke="black" points="654,-296.5 749,-296.5 "/>
<text text-anchor="start" x="662" y="-284.5" font-family="Helvetica,sans-Serif" font-size="10.00"># Character()</text>
</a>
</g>
</g>
<!-- Node6&#45;&gt;Node9 -->
<g id="edge9" class="edge"><title>Node6&#45;&gt;Node9</title>
<path fill="none" stroke="#404040" d="M513.284,-1462.26C606.739,-1458.38 983.5,-1436.63 983.5,-1338 983.5,-1338 983.5,-1338 983.5,-1101.5 983.5,-915.62 1058.6,-832.508 945.5,-685 891.595,-614.699 817.007,-682.52 758.5,-616 738.912,-593.729 724.211,-526.673 714.649,-467.825"/>
<polygon fill="none" stroke="#404040" points="714.622,-467.65 709.733,-462.348 712.746,-455.797 717.635,-461.098 714.622,-467.65"/>
<text text-anchor="middle" x="1023" y="-981.5" font-family="Helvetica,sans-Serif" font-size="10.00"> #name</text>
</g>
<!-- Node11 -->
<g id="node10" class="node"><title>Node11</title>
<g id="a_node10"><a xlink:href="class_special_move.html" target="_top" xlink:title="Special move abstract base class that expands upon CharacterMove, adding magic properties ...">
<polygon fill="none" stroke="black" points="505.5,-514.5 505.5,-615.5 603.5,-615.5 603.5,-514.5 505.5,-514.5"/>
<text text-anchor="middle" x="554.5" y="-603.5" font-family="Helvetica,sans-Serif" font-size="10.00">SpecialMove</text>
<polyline fill="none" stroke="black" points="505.5,-596.5 603.5,-596.5 "/>
<text text-anchor="start" x="513.5" y="-584.5" font-family="Helvetica,sans-Serif" font-size="10.00">+ Magic</text>
<text text-anchor="start" x="513.5" y="-573.5" font-family="Helvetica,sans-Serif" font-size="10.00">+ Desc</text>
<text text-anchor="start" x="513.5" y="-562.5" font-family="Helvetica,sans-Serif" font-size="10.00">+ Special</text>
<polyline fill="none" stroke="black" points="505.5,-555.5 603.5,-555.5 "/>
<text text-anchor="start" x="513.5" y="-543.5" font-family="Helvetica,sans-Serif" font-size="10.00">+ setUp()</text>
<text text-anchor="start" x="513.5" y="-532.5" font-family="Helvetica,sans-Serif" font-size="10.00">+ decreaseMagic()</text>
<text text-anchor="start" x="513.5" y="-521.5" font-family="Helvetica,sans-Serif" font-size="10.00"># SpecialMove()</text>
</a>
</g>
</g>
<!-- Node6&#45;&gt;Node11 -->
<g id="edge24" class="edge"><title>Node6&#45;&gt;Node11</title>
<path fill="none" stroke="#404040" d="M475.853,-1435.27C452.238,-1394.15 410.144,-1313.79 394.5,-1239 343.396,-994.693 397.186,-918.067 486.5,-685 494.152,-665.033 504.81,-644.421 515.422,-626.076"/>
<polygon fill="none" stroke="#404040" points="515.533,-625.889 515.145,-618.688 521.642,-615.56 522.03,-622.76 515.533,-625.889"/>
<text text-anchor="middle" x="391.5" y="-1100" font-family="Helvetica,sans-Serif" font-size="10.00"> #desc</text>
</g>
<!-- Node12 -->
<g id="node11" class="node"><title>Node12</title>
<g id="a_node11"><a xlink:href="class_character_move.html" target="_top" xlink:title="Astract base class for character moves ">
<polygon fill="none" stroke="black" points="549.5,-685.5 549.5,-764.5 635.5,-764.5 635.5,-685.5 549.5,-685.5"/>
<text text-anchor="middle" x="592.5" y="-752.5" font-family="Helvetica,sans-Serif" font-size="10.00">CharacterMove</text>
<polyline fill="none" stroke="black" points="549.5,-745.5 635.5,-745.5 "/>
<text text-anchor="start" x="557.5" y="-733.5" font-family="Helvetica,sans-Serif" font-size="10.00">+ User</text>
<text text-anchor="start" x="557.5" y="-722.5" font-family="Helvetica,sans-Serif" font-size="10.00">+ Target</text>
<text text-anchor="start" x="557.5" y="-711.5" font-family="Helvetica,sans-Serif" font-size="10.00">+ Text</text>
<polyline fill="none" stroke="black" points="549.5,-704.5 635.5,-704.5 "/>
<text text-anchor="start" x="557.5" y="-692.5" font-family="Helvetica,sans-Serif" font-size="10.00">+ performMove()</text>
</a>
</g>
</g>
<!-- Node6&#45;&gt;Node12 -->
<g id="edge13" class="edge"><title>Node6&#45;&gt;Node12</title>
<path fill="none" stroke="#404040" d="M513.177,-1452.78C557.865,-1429.36 662.552,-1366.97 701.5,-1279 750.397,-1168.56 649.234,-834.984 628.5,-783 627.496,-780.483 626.379,-777.954 625.178,-775.437"/>
<polygon fill="none" stroke="#404040" points="625.038,-775.172 618.708,-771.719 619.46,-764.548 625.791,-768 625.038,-775.172"/>
<text text-anchor="middle" x="728" y="-1180" font-family="Helvetica,sans-Serif" font-size="10.00"> #text</text>
</g>
<!-- Node13 -->
<g id="node12" class="node"><title>Node13</title>
<g id="a_node12"><a xlink:href="class_battle_manager.html" target="_top" xlink:title="Holds current Player and Enemy objects in battle and provides functions for MainBattle and other obje...">
<polygon fill="none" stroke="black" points="472.5,-889.5 472.5,-1078.5 588.5,-1078.5 588.5,-889.5 472.5,-889.5"/>
<text text-anchor="middle" x="530.5" y="-1066.5" font-family="Helvetica,sans-Serif" font-size="10.00">BattleManager</text>
<polyline fill="none" stroke="black" points="472.5,-1059.5 588.5,-1059.5 "/>
<text text-anchor="start" x="480.5" y="-1047.5" font-family="Helvetica,sans-Serif" font-size="10.00">+ Player</text>
<text text-anchor="start" x="480.5" y="-1036.5" font-family="Helvetica,sans-Serif" font-size="10.00">+ Enemy</text>
<text text-anchor="start" x="480.5" y="-1025.5" font-family="Helvetica,sans-Serif" font-size="10.00">+ WasCriticalHit</text>
<polyline fill="none" stroke="black" points="472.5,-1018.5 588.5,-1018.5 "/>
<text text-anchor="start" x="480.5" y="-1006.5" font-family="Helvetica,sans-Serif" font-size="10.00">+ BattleManager()</text>
<text text-anchor="start" x="480.5" y="-995.5" font-family="Helvetica,sans-Serif" font-size="10.00">+ playerFirst()</text>
<text text-anchor="start" x="480.5" y="-984.5" font-family="Helvetica,sans-Serif" font-size="10.00">+ switchPlayers()</text>
<text text-anchor="start" x="480.5" y="-973.5" font-family="Helvetica,sans-Serif" font-size="10.00">+ isCriticalHit()</text>
<text text-anchor="start" x="480.5" y="-962.5" font-family="Helvetica,sans-Serif" font-size="10.00">+ ranAway()</text>
<text text-anchor="start" x="480.5" y="-951.5" font-family="Helvetica,sans-Serif" font-size="10.00">+ damageCalculation()</text>
<text text-anchor="start" x="480.5" y="-940.5" font-family="Helvetica,sans-Serif" font-size="10.00">+ enemyMove()</text>
<text text-anchor="start" x="480.5" y="-929.5" font-family="Helvetica,sans-Serif" font-size="10.00">+ enemySpecialMove()</text>
<text text-anchor="start" x="480.5" y="-918.5" font-family="Helvetica,sans-Serif" font-size="10.00">+ battleWon()</text>
<text text-anchor="start" x="480.5" y="-907.5" font-family="Helvetica,sans-Serif" font-size="10.00">+ playerFainted()</text>
<text text-anchor="start" x="480.5" y="-896.5" font-family="Helvetica,sans-Serif" font-size="10.00">&#45; characterFainted()</text>
</a>
</g>
</g>
<!-- Node6&#45;&gt;Node13 -->
<g id="edge16" class="edge"><title>Node6&#45;&gt;Node13</title>
<path fill="none" stroke="#404040" d="M486.968,-1435.41C480.087,-1399.55 468.729,-1334.9 464.5,-1279 459.318,-1210.5 457.826,-1188.43 486.5,-1126 490.846,-1116.54 496.848,-1117.32 501.5,-1108 504.307,-1102.38 506.849,-1096.47 509.151,-1090.42"/>
<polygon fill="none" stroke="#404040" points="509.313,-1089.96 507.524,-1082.98 513.285,-1078.64 515.073,-1085.62 509.313,-1089.96"/>
<text text-anchor="middle" x="506.5" y="-1271" font-family="Helvetica,sans-Serif" font-size="10.00"> +forceEnemyMove</text>
<text text-anchor="middle" x="506.5" y="-1260" font-family="Helvetica,sans-Serif" font-size="10.00">+forceCriticalHits</text>
</g>
<!-- Node7 -->
<g id="node6" class="node"><title>Node7</title>
<polygon fill="none" stroke="#bfbfbf" points="303,-177 303,-234 374,-234 374,-177 303,-177"/>
<text text-anchor="middle" x="338.5" y="-222" font-family="Helvetica,sans-Serif" font-size="10.00">GameObject</text>
<polyline fill="none" stroke="#bfbfbf" points="303,-215 374,-215 "/>
<text text-anchor="middle" x="338.5" y="-203" font-family="Helvetica,sans-Serif" font-size="10.00"> </text>
<polyline fill="none" stroke="#bfbfbf" points="303,-196 374,-196 "/>
<text text-anchor="middle" x="338.5" y="-184" font-family="Helvetica,sans-Serif" font-size="10.00"> </text>
</g>
<!-- Node7&#45;&gt;Node2 -->
<g id="edge6" class="edge"><title>Node7&#45;&gt;Node2</title>
<path fill="none" stroke="#404040" d="M338.5,-176.881C338.5,-165.006 338.5,-150.508 338.5,-135.889"/>
<polygon fill="none" stroke="#404040" points="338.5,-135.635 334.5,-129.635 338.5,-123.635 342.5,-129.635 338.5,-135.635"/>
<text text-anchor="middle" x="356.5" y="-145" font-family="Helvetica,sans-Serif" font-size="10.00"> +player</text>
</g>
<!-- Node8 -->
<g id="node7" class="node"><title>Node8</title>
<g id="a_node7"><a xlink:href="class_enemy.html" target="_top" xlink:title="Defines an AI controller enemy to fight in battle scenes">
<polygon fill="none" stroke="black" points="572,-177 572,-234 639,-234 639,-177 572,-177"/>
<text text-anchor="middle" x="605.5" y="-222" font-family="Helvetica,sans-Serif" font-size="10.00">Enemy</text>
<polyline fill="none" stroke="black" points="572,-215 639,-215 "/>
<text text-anchor="start" x="580" y="-203" font-family="Helvetica,sans-Serif" font-size="10.00">+ ExpGiven</text>
<polyline fill="none" stroke="black" points="572,-196 639,-196 "/>
<text text-anchor="start" x="580" y="-184" font-family="Helvetica,sans-Serif" font-size="10.00">+ Enemy()</text>
</a>
</g>
</g>
<!-- Node8&#45;&gt;Node2 -->
<g id="edge7" class="edge"><title>Node8&#45;&gt;Node2</title>
<path fill="none" stroke="#404040" d="M571.955,-186.722C527.01,-162.903 446.701,-120.342 393.01,-91.8881"/>
<polygon fill="none" stroke="#404040" points="392.915,-91.8381 385.741,-92.5628 382.312,-86.2188 389.487,-85.4941 392.915,-91.8381"/>
<text text-anchor="middle" x="522.5" y="-145" font-family="Helvetica,sans-Serif" font-size="10.00"> &#45;enemy</text>
</g>
<!-- Node8&#45;&gt;Node13 -->
<g id="edge17" class="edge"><title>Node8&#45;&gt;Node13</title>
<path fill="none" stroke="#404040" d="M587.228,-234.219C554.085,-286.352 485.201,-403.703 460.5,-514 432.824,-637.583 463.686,-781.995 492.728,-877.578"/>
<polygon fill="none" stroke="#404040" points="492.801,-877.814 498.396,-882.364 496.348,-889.278 490.753,-884.728 492.801,-877.814"/>
<text text-anchor="middle" x="478.5" y="-562.5" font-family="Helvetica,sans-Serif" font-size="10.00"> &#45;enemy</text>
</g>
<!-- Node9&#45;&gt;Node8 -->
<g id="edge8" class="edge"><title>Node9&#45;&gt;Node8</title>
<path fill="none" stroke="midnightblue" d="M648.451,-277.638C638.89,-261.802 629.599,-246.414 622.118,-234.024"/>
<polygon fill="none" stroke="midnightblue" points="645.616,-279.714 653.781,-286.466 651.609,-276.096 645.616,-279.714"/>
</g>
<!-- Node9&#45;&gt;Node12 -->
<g id="edge14" class="edge"><title>Node9&#45;&gt;Node12</title>
<path fill="none" stroke="#404040" d="M672.079,-455.661C665.824,-474.853 659.347,-495.077 653.5,-514 636.736,-568.26 618.736,-630.81 606.668,-673.436"/>
<polygon fill="none" stroke="#404040" points="606.613,-673.63 608.831,-680.491 603.351,-685.178 601.133,-678.316 606.613,-673.63"/>
<text text-anchor="middle" x="670.5" y="-568" font-family="Helvetica,sans-Serif" font-size="10.00"> #target</text>
<text text-anchor="middle" x="670.5" y="-557" font-family="Helvetica,sans-Serif" font-size="10.00">#user</text>
</g>
<!-- Node9&#45;&gt;Node15 -->
<g id="edge21" class="edge"><title>Node9&#45;&gt;Node15</title>
<path fill="none" stroke="midnightblue" d="M699.027,-465.957C697.092,-511.711 693.643,-566.769 687.5,-616 661.545,-824.016 660.833,-879.167 597.5,-1079 592.521,-1094.71 585.817,-1111.22 579.069,-1126.28"/>
<polygon fill="none" stroke="midnightblue" points="702.534,-465.875 699.441,-455.742 695.539,-465.592 702.534,-465.875"/>
</g>
<!-- Node10 -->
<g id="node9" class="node"><title>Node10</title>
<polygon fill="none" stroke="#bfbfbf" points="776,-1308.5 776,-1365.5 805,-1365.5 805,-1308.5 776,-1308.5"/>
<text text-anchor="middle" x="790.5" y="-1353.5" font-family="Helvetica,sans-Serif" font-size="10.00">int</text>
<polyline fill="none" stroke="#bfbfbf" points="776,-1346.5 805,-1346.5 "/>
<text text-anchor="middle" x="790.5" y="-1334.5" font-family="Helvetica,sans-Serif" font-size="10.00"> </text>
<polyline fill="none" stroke="#bfbfbf" points="776,-1327.5 805,-1327.5 "/>
<text text-anchor="middle" x="790.5" y="-1315.5" font-family="Helvetica,sans-Serif" font-size="10.00"> </text>
</g>
<!-- Node10&#45;&gt;Node2 -->
<g id="edge30" class="edge"><title>Node10&#45;&gt;Node2</title>
<path fill="none" stroke="#404040" d="M805.103,-1314.97C817.718,-1295.92 835.59,-1266.68 846.5,-1239 896.14,-1113.06 1007.5,-786.869 1007.5,-651.5 1007.5,-651.5 1007.5,-651.5 1007.5,-204.5 1007.5,-79.5958 555.491,-64.4244 394.557,-62.9812"/>
<polygon fill="none" stroke="#404040" points="394.137,-62.9783 388.108,-66.9352 382.137,-62.8923 388.165,-58.9354 394.137,-62.9783"/>
<text text-anchor="middle" x="1038" y="-659" font-family="Helvetica,sans-Serif" font-size="10.00"> +currentLevel</text>
<text text-anchor="middle" x="1038" y="-648" font-family="Helvetica,sans-Serif" font-size="10.00">+lastLevel</text>
<text text-anchor="middle" x="1038" y="-637" font-family="Helvetica,sans-Serif" font-size="10.00">&#45;money</text>
</g>
<!-- Node10&#45;&gt;Node8 -->
<g id="edge28" class="edge"><title>Node10&#45;&gt;Node8</title>
<path fill="none" stroke="#404040" d="M799.959,-1308.36C802.934,-1299.09 806.072,-1288.66 808.5,-1279 877.122,-1005.93 895.5,-933.057 895.5,-651.5 895.5,-651.5 895.5,-651.5 895.5,-365.5 895.5,-255.428 732.881,-221.048 651.193,-210.721"/>
<polygon fill="none" stroke="#404040" points="650.967,-210.695 644.54,-213.964 639.05,-209.288 645.477,-206.019 650.967,-210.695"/>
<text text-anchor="middle" x="918.5" y="-722.5" font-family="Helvetica,sans-Serif" font-size="10.00"> &#45;expGiven</text>
</g>
<!-- Node10&#45;&gt;Node9 -->
<g id="edge10" class="edge"><title>Node10&#45;&gt;Node9</title>
<path fill="none" stroke="#404040" d="M792.051,-1308.46C792.551,-1299.11 793.083,-1288.6 793.5,-1279 803.075,-1058.63 789.077,-1002.53 810.5,-783 817.802,-708.169 831.481,-690.945 837.5,-616 841.129,-570.812 853.14,-556.55 837.5,-514 822.255,-472.525 788.531,-436.066 758.481,-409.893"/>
<polygon fill="none" stroke="#404040" points="758.451,-409.867 751.287,-409.038 749.298,-402.107 756.461,-402.936 758.451,-409.867"/>
<text text-anchor="middle" x="848" y="-863" font-family="Helvetica,sans-Serif" font-size="10.00"> #speed</text>
<text text-anchor="middle" x="848" y="-852" font-family="Helvetica,sans-Serif" font-size="10.00">#luck</text>
<text text-anchor="middle" x="848" y="-841" font-family="Helvetica,sans-Serif" font-size="10.00">#health</text>
<text text-anchor="middle" x="848" y="-830" font-family="Helvetica,sans-Serif" font-size="10.00">#magic</text>
<text text-anchor="middle" x="848" y="-819" font-family="Helvetica,sans-Serif" font-size="10.00">#maximumMagic</text>
<text text-anchor="middle" x="848" y="-808" font-family="Helvetica,sans-Serif" font-size="10.00">#attack</text>
<text text-anchor="middle" x="848" y="-797" font-family="Helvetica,sans-Serif" font-size="10.00">#defence</text>
<text text-anchor="middle" x="848" y="-786" font-family="Helvetica,sans-Serif" font-size="10.00">#level</text>
</g>
<!-- Node10&#45;&gt;Node11 -->
<g id="edge26" class="edge"><title>Node10&#45;&gt;Node11</title>
<path fill="none" stroke="#404040" d="M786.005,-1308.18C768.093,-1198.94 700.08,-799.81 644.5,-685 634.406,-664.15 620.382,-643.346 606.405,-625.099"/>
<polygon fill="none" stroke="#404040" points="606.301,-624.967 599.451,-622.713 598.897,-615.524 605.747,-617.777 606.301,-624.967"/>
<text text-anchor="middle" x="763" y="-981.5" font-family="Helvetica,sans-Serif" font-size="10.00"> #magic</text>
</g>
<!-- Node10&#45;&gt;Node13 -->
<g id="edge18" class="edge"><title>Node10&#45;&gt;Node13</title>
<path fill="none" stroke="#404040" d="M775.781,-1310.29C764.464,-1292.76 747.271,-1270.39 726.5,-1257 699.861,-1239.83 680.926,-1260.35 657.5,-1239 618.009,-1203.02 639.636,-1174.16 616.5,-1126 609.92,-1112.3 602.379,-1098.24 594.557,-1084.54"/>
<polygon fill="none" stroke="#404040" points="594.551,-1084.53 588.081,-1081.34 588.532,-1074.15 595.002,-1077.33 594.551,-1084.53"/>
<text text-anchor="middle" x="677" y="-1180" font-family="Helvetica,sans-Serif" font-size="10.00"> +money</text>
</g>
<!-- Node10&#45;&gt;Node15 -->
<g id="edge23" class="edge"><title>Node10&#45;&gt;Node15</title>
<path fill="none" stroke="#404040" d="M775.835,-1331.97C749.5,-1324.31 693.066,-1305.98 651.5,-1279 637.403,-1269.85 623.538,-1258.56 610.832,-1246.99"/>
<polygon fill="none" stroke="#404040" points="610.562,-1246.74 603.448,-1245.56 601.798,-1238.54 608.913,-1239.72 610.562,-1246.74"/>
<text text-anchor="middle" x="689" y="-1271" font-family="Helvetica,sans-Serif" font-size="10.00"> &#45;expToNextLevel</text>
<text text-anchor="middle" x="689" y="-1260" font-family="Helvetica,sans-Serif" font-size="10.00">&#45;exp</text>
</g>
<!-- Node11&#45;&gt;Node9 -->
<g id="edge11" class="edge"><title>Node11&#45;&gt;Node9</title>
<path fill="none" stroke="#404040" d="M563.493,-514.209C567.368,-500.499 572.835,-486.087 580.5,-474 596.957,-448.047 621.56,-424.763 644.292,-406.634"/>
<polygon fill="none" stroke="#404040" points="644.409,-406.543 646.698,-399.705 653.891,-399.187 651.602,-406.026 644.409,-406.543"/>
<text text-anchor="middle" x="603" y="-488" font-family="Helvetica,sans-Serif" font-size="10.00"> #special1</text>
<text text-anchor="middle" x="603" y="-477" font-family="Helvetica,sans-Serif" font-size="10.00">#special2</text>
</g>
<!-- Node12&#45;&gt;Node11 -->
<g id="edge12" class="edge"><title>Node12&#45;&gt;Node11</title>
<path fill="none" stroke="midnightblue" d="M580.815,-675.415C576.25,-656.434 571.02,-634.689 566.432,-615.611"/>
<polygon fill="none" stroke="midnightblue" points="577.463,-676.445 583.204,-685.349 584.269,-674.808 577.463,-676.445"/>
</g>
<!-- Node13&#45;&gt;Node12 -->
<g id="edge15" class="edge"><title>Node13&#45;&gt;Node12</title>
<path fill="none" stroke="#404040" d="M553.059,-889.49C562.269,-851.311 572.556,-808.672 580.314,-776.513"/>
<polygon fill="none" stroke="#404040" points="580.342,-776.397 577.861,-769.627 583.156,-764.732 585.637,-771.503 580.342,-776.397"/>
<text text-anchor="middle" x="601.5" y="-824.5" font-family="Helvetica,sans-Serif" font-size="10.00"> #manager</text>
</g>
<!-- Node14 -->
<g id="node13" class="node"><title>Node14</title>
<polygon fill="none" stroke="#bfbfbf" points="404,-1154 404,-1211 439,-1211 439,-1154 404,-1154"/>
<text text-anchor="middle" x="421.5" y="-1199" font-family="Helvetica,sans-Serif" font-size="10.00">bool</text>
<polyline fill="none" stroke="#bfbfbf" points="404,-1192 439,-1192 "/>
<text text-anchor="middle" x="421.5" y="-1180" font-family="Helvetica,sans-Serif" font-size="10.00"> </text>
<polyline fill="none" stroke="#bfbfbf" points="404,-1173 439,-1173 "/>
<text text-anchor="middle" x="421.5" y="-1161" font-family="Helvetica,sans-Serif" font-size="10.00"> </text>
</g>
<!-- Node14&#45;&gt;Node2 -->
<g id="edge31" class="edge"><title>Node14&#45;&gt;Node2</title>
<path fill="none" stroke="#404040" d="M403.872,-1160.67C392.913,-1146.65 379.442,-1127.26 371.5,-1108 350.299,-1056.59 348.5,-1040.61 348.5,-985 348.5,-985 348.5,-985 348.5,-649.5 348.5,-436.297 397.1,-383.702 382.5,-171 381.609,-158.02 382.381,-154.419 378.5,-142 377.795,-139.744 377.03,-137.474 376.216,-135.2"/>
<polygon fill="none" stroke="#404040" points="376.144,-135.015 370.233,-130.885 371.773,-123.84 377.683,-127.971 376.144,-135.015"/>
<text text-anchor="middle" x="390" y="-562.5" font-family="Helvetica,sans-Serif" font-size="10.00"> +canRunAway</text>
</g>
<!-- Node14&#45;&gt;Node13 -->
<g id="edge19" class="edge"><title>Node14&#45;&gt;Node13</title>
<path fill="none" stroke="#404040" d="M422.365,-1153.77C423.785,-1136.72 427.249,-1114.81 435.5,-1097 442.945,-1080.93 453.345,-1065.33 464.549,-1051.14"/>
<polygon fill="none" stroke="#404040" points="464.802,-1050.83 465.51,-1043.65 472.406,-1041.54 471.699,-1048.72 464.802,-1050.83"/>
<text text-anchor="middle" x="468.5" y="-1100" font-family="Helvetica,sans-Serif" font-size="10.00"> &#45;wasCriticalHit</text>
</g>
<!-- Node15&#45;&gt;Node13 -->
<g id="edge20" class="edge"><title>Node15&#45;&gt;Node13</title>
<path fill="none" stroke="#404040" d="M545.594,-1126.24C544.403,-1115.09 543.112,-1103.01 541.805,-1090.78"/>
<polygon fill="none" stroke="#404040" points="541.771,-1090.46 537.156,-1084.92 540.496,-1078.53 545.111,-1084.07 541.771,-1090.46"/>
<text text-anchor="middle" x="560" y="-1100" font-family="Helvetica,sans-Serif" font-size="10.00"> &#45;player</text>
</g>
<!-- Node16 -->
<g id="node15" class="node"><title>Node16</title>
<polygon fill="none" stroke="#bfbfbf" points="496,-696.5 496,-753.5 531,-753.5 531,-696.5 496,-696.5"/>
<text text-anchor="middle" x="513.5" y="-741.5" font-family="Helvetica,sans-Serif" font-size="10.00">float</text>
<polyline fill="none" stroke="#bfbfbf" points="496,-734.5 531,-734.5 "/>
<text text-anchor="middle" x="513.5" y="-722.5" font-family="Helvetica,sans-Serif" font-size="10.00"> </text>
<polyline fill="none" stroke="#bfbfbf" points="496,-715.5 531,-715.5 "/>
<text text-anchor="middle" x="513.5" y="-703.5" font-family="Helvetica,sans-Serif" font-size="10.00"> </text>
</g>
<!-- Node16&#45;&gt;Node11 -->
<g id="edge25" class="edge"><title>Node16&#45;&gt;Node11</title>
<path fill="none" stroke="#404040" d="M516.163,-696.491C518.299,-678.498 521.885,-654.596 527.5,-634 528.114,-631.748 528.779,-629.469 529.484,-627.179"/>
<polygon fill="none" stroke="#404040" points="529.514,-627.089 527.611,-620.133 533.3,-615.701 535.203,-622.657 529.514,-627.089"/>
<text text-anchor="middle" x="547.5" y="-648" font-family="Helvetica,sans-Serif" font-size="10.00"> #special</text>
</g>
<!-- Node17 -->
<g id="node16" class="node"><title>Node17</title>
<polygon fill="none" stroke="#bfbfbf" points="768,-536.5 768,-593.5 829,-593.5 829,-536.5 768,-536.5"/>
<text text-anchor="middle" x="798.5" y="-581.5" font-family="Helvetica,sans-Serif" font-size="10.00">Texture2D</text>
<polyline fill="none" stroke="#bfbfbf" points="768,-574.5 829,-574.5 "/>
<text text-anchor="middle" x="798.5" y="-562.5" font-family="Helvetica,sans-Serif" font-size="10.00"> </text>
<polyline fill="none" stroke="#bfbfbf" points="768,-555.5 829,-555.5 "/>
<text text-anchor="middle" x="798.5" y="-543.5" font-family="Helvetica,sans-Serif" font-size="10.00"> </text>
</g>
<!-- Node17&#45;&gt;Node9 -->
<g id="edge27" class="edge"><title>Node17&#45;&gt;Node9</title>
<path fill="none" stroke="#404040" d="M784.808,-536.263C775.669,-517.75 763.045,-492.176 750.386,-466.531"/>
<polygon fill="none" stroke="#404040" points="750.28,-466.317 744.037,-462.708 744.968,-455.557 751.211,-459.167 750.28,-466.317"/>
<text text-anchor="middle" x="782" y="-482.5" font-family="Helvetica,sans-Serif" font-size="10.00"> #image</text>
</g>
<!-- Node18 -->
<g id="node17" class="node"><title>Node18</title>
<polygon fill="none" stroke="#bfbfbf" points="1035.5,-171.5 1035.5,-239.5 1133.5,-239.5 1133.5,-171.5 1035.5,-171.5"/>
<text text-anchor="start" x="1043.5" y="-227.5" font-family="Helvetica,sans-Serif" font-size="10.00">IDictionary&lt; string,</text>
<text text-anchor="middle" x="1084.5" y="-216.5" font-family="Helvetica,sans-Serif" font-size="10.00"> bool &gt;</text>
<polyline fill="none" stroke="#bfbfbf" points="1035.5,-209.5 1133.5,-209.5 "/>
<text text-anchor="middle" x="1084.5" y="-197.5" font-family="Helvetica,sans-Serif" font-size="10.00"> </text>
<polyline fill="none" stroke="#bfbfbf" points="1035.5,-190.5 1133.5,-190.5 "/>
<text text-anchor="middle" x="1084.5" y="-178.5" font-family="Helvetica,sans-Serif" font-size="10.00"> </text>
</g>
<!-- Node18&#45;&gt;Node2 -->
<g id="edge32" class="edge"><title>Node18&#45;&gt;Node2</title>
<path fill="none" stroke="#404040" d="M1058.91,-171.254C1048.54,-160.117 1035.66,-148.811 1021.5,-142 910.944,-88.8292 537.61,-70.1125 394.748,-64.8003"/>
<polygon fill="none" stroke="#404040" points="394.448,-64.7895 388.308,-68.5698 382.456,-64.3553 388.597,-60.575 394.448,-64.7895"/>
<text text-anchor="middle" x="1072" y="-145" font-family="Helvetica,sans-Serif" font-size="10.00"> +objectsActive</text>
</g>
</g>
</svg>
        <g id="navigator" transform="translate(0 0)" fill="#404254">
                <rect fill="#f2f5e9" fill-opacity="0.5" stroke="#606060" stroke-width=".5" x="0" y="0" width="60" height="60"/>
                <use id="zoomplus" xlink:href="#zoomPlus" x="17" y="9" onmousedown="handleZoom(evt,'in')"/>
                <use id="zoomminus" xlink:href="#zoomMin" x="42" y="9" onmousedown="handleZoom(evt,'out')"/>
                <use id="reset" xlink:href="#resetDef" x="30" y="36" onmousedown="handleReset()"/>
                <g id="arrowUp" xlink:href="#dirArrow" transform="translate(30 24)" onmousedown="handlePan(0,-1)">
                  <use xlink:href="#rim" fill="#404040">
                        <set attributeName="fill" to="#808080" begin="arrowUp.mouseover" end="arrowUp.mouseout"/>
                  </use>
                  <path fill="none" stroke="white" stroke-width="1.5" d="M0,-3.0v7 M-2.5,-0.5L0,-3.0L2.5,-0.5"/>
                </g>
                <g id="arrowRight" xlink:href="#dirArrow" transform="rotate(90) translate(36 -43)" onmousedown="handlePan(1,0)">
                  <use xlink:href="#rim" fill="#404040">
                        <set attributeName="fill" to="#808080" begin="arrowRight.mouseover" end="arrowRight.mouseout"/>
                  </use>
                  <path fill="none" stroke="white" stroke-width="1.5" d="M0,-3.0v7 M-2.5,-0.5L0,-3.0L2.5,-0.5"/>
                </g>
                <g id="arrowDown" xlink:href="#dirArrow" transform="rotate(180) translate(-30 -48)" onmousedown="handlePan(0,1)">
                  <use xlink:href="#rim" fill="#404040">
                        <set attributeName="fill" to="#808080" begin="arrowDown.mouseover" end="arrowDown.mouseout"/>
                  </use>
                  <path fill="none" stroke="white" stroke-width="1.5" d="M0,-3.0v7 M-2.5,-0.5L0,-3.0L2.5,-0.5"/>
                </g>
                <g id="arrowLeft" xlink:href="#dirArrow" transform="rotate(270) translate(-36 17)" onmousedown="handlePan(-1,0)">
                  <use xlink:href="#rim" fill="#404040">
                        <set attributeName="fill" to="#808080" begin="arrowLeft.mouseover" end="arrowLeft.mouseout"/>
                  </use>
                  <path fill="none" stroke="white" stroke-width="1.5" d="M0,-3.0v7 M-2.5,-0.5L0,-3.0L2.5,-0.5"/>
                </g>
        </g>
        <svg viewBox="0 0 15 15" width="100%" height="30px" preserveAspectRatio="xMaxYMin meet">
         <g id="arrow_out" transform="scale(0.3 0.3)">
          <a xlink:href="class_global_functions__coll__graph_org.svg" target="_base">
           <rect id="button" ry="5" rx="5" y="6" x="6" height="38" width="38"
                fill="#f2f5e9" fill-opacity="0.5" stroke="#606060" stroke-width="1.0"/>
           <path id="arrow"
             d="M 11.500037,31.436501 C 11.940474,20.09759 22.043105,11.32322 32.158766,21.979434 L 37.068811,17.246167 C 37.068811,17.246167 37.088388,32 37.088388,32 L 22.160133,31.978069 C 22.160133,31.978069 26.997745,27.140456 26.997745,27.140456 C 18.528582,18.264221 13.291696,25.230495 11.500037,31.436501 z"
             style="fill:#404040;"/>
          </a>
         </g>
        </svg>
</svg>
