<?xml version="1.0" encoding="UTF-8" standalone="no"?>
<!DOCTYPE svg PUBLIC "-//W3C//DTD SVG 1.1//EN"
 "http://www.w3.org/Graphics/SVG/1.1/DTD/svg11.dtd">
<!-- Generated by graphviz version 2.38.0 (20140413.2041)
 -->
<!-- Title: SaveData Pages: 1 -->
<svg width="1506pt" height="742pt"
 viewBox="0.00 0.00 1505.50 742.00" xmlns="http://www.w3.org/2000/svg" xmlns:xlink="http://www.w3.org/1999/xlink">
<g id="graph0" class="graph" transform="scale(1 1) rotate(0) translate(4 738)">
<title>SaveData</title>
<!-- Node1 -->
<g id="node1" class="node"><title>Node1</title>
<polygon fill="#bfbfbf" stroke="black" points="654.5,-0.5 654.5,-57.5 712.5,-57.5 712.5,-0.5 654.5,-0.5"/>
<text text-anchor="middle" x="683.5" y="-45.5" font-family="Helvetica,sans-Serif" font-size="10.00">SaveData</text>
<polyline fill="none" stroke="black" points="654.5,-38.5 712.5,-38.5 "/>
<text text-anchor="middle" x="683.5" y="-26.5" font-family="Helvetica,sans-Serif" font-size="10.00"> </text>
<polyline fill="none" stroke="black" points="654.5,-19.5 712.5,-19.5 "/>
<text text-anchor="middle" x="683.5" y="-7.5" font-family="Helvetica,sans-Serif" font-size="10.00"> </text>
</g>
<!-- Node2 -->
<g id="node2" class="node"><title>Node2</title>
<g id="a_node2"><a xlink:href="class_save_data_1_1_vector_data.html" target="_top" xlink:title="A serialzable class to represent 2D vector information. ">
<polygon fill="none" stroke="black" points="98.5,-291.5 98.5,-348.5 208.5,-348.5 208.5,-291.5 98.5,-291.5"/>
<text text-anchor="middle" x="153.5" y="-336.5" font-family="Helvetica,sans-Serif" font-size="10.00">SaveData.VectorData</text>
<polyline fill="none" stroke="black" points="98.5,-329.5 208.5,-329.5 "/>
<text text-anchor="middle" x="153.5" y="-317.5" font-family="Helvetica,sans-Serif" font-size="10.00"> </text>
<polyline fill="none" stroke="black" points="98.5,-310.5 208.5,-310.5 "/>
<text text-anchor="middle" x="153.5" y="-298.5" font-family="Helvetica,sans-Serif" font-size="10.00"> </text>
</a>
</g>
</g>
<!-- Node2&#45;&gt;Node1 -->
<g id="edge1" class="edge"><title>Node2&#45;&gt;Node1</title>
<path fill="none" stroke="#404040" d="M160.061,-291.374C172.114,-246.992 202.167,-160.31 261.5,-116 321.782,-70.9814 548.082,-43.5957 642.121,-33.9409"/>
<polygon fill="none" stroke="#404040" points="642.282,-33.9248 647.851,-29.3435 654.222,-32.7219 648.653,-37.3032 642.282,-33.9248"/>
<text text-anchor="middle" x="297" y="-192" font-family="Helvetica,sans-Serif" font-size="10.00"> +playerPosition</text>
</g>
<!-- Node3 -->
<g id="node3" class="node"><title>Node3</title>
<polygon fill="none" stroke="#bfbfbf" points="177,-549.5 177,-606.5 212,-606.5 212,-549.5 177,-549.5"/>
<text text-anchor="middle" x="194.5" y="-594.5" font-family="Helvetica,sans-Serif" font-size="10.00">float</text>
<polyline fill="none" stroke="#bfbfbf" points="177,-587.5 212,-587.5 "/>
<text text-anchor="middle" x="194.5" y="-575.5" font-family="Helvetica,sans-Serif" font-size="10.00"> </text>
<polyline fill="none" stroke="#bfbfbf" points="177,-568.5 212,-568.5 "/>
<text text-anchor="middle" x="194.5" y="-556.5" font-family="Helvetica,sans-Serif" font-size="10.00"> </text>
</g>
<!-- Node3&#45;&gt;Node2 -->
<g id="edge2" class="edge"><title>Node3&#45;&gt;Node2</title>
<path fill="none" stroke="#404040" d="M176.911,-556.849C169.067,-546.558 160.668,-533.401 156.5,-520 139.982,-466.892 143.05,-401.895 147.604,-360.955"/>
<polygon fill="none" stroke="#404040" points="147.633,-360.721 144.385,-354.283 149.079,-348.808 152.327,-355.247 147.633,-360.721"/>
<text text-anchor="middle" x="176" y="-506.5" font-family="Helvetica,sans-Serif" font-size="10.00"> +ycoord</text>
<text text-anchor="middle" x="176" y="-495.5" font-family="Helvetica,sans-Serif" font-size="10.00">+xcoord</text>
</g>
<!-- Node18 -->
<g id="node18" class="node"><title>Node18</title>
<g id="a_node18"><a xlink:href="class_save_data_1_1_special_move_save_data.html" target="_top" xlink:title="A serializable class to represent a SpecialMove. ">
<polygon fill="none" stroke="black" points="252,-389.5 252,-446.5 409,-446.5 409,-389.5 252,-389.5"/>
<text text-anchor="middle" x="330.5" y="-434.5" font-family="Helvetica,sans-Serif" font-size="10.00">SaveData.SpecialMoveSaveData</text>
<polyline fill="none" stroke="black" points="252,-427.5 409,-427.5 "/>
<text text-anchor="middle" x="330.5" y="-415.5" font-family="Helvetica,sans-Serif" font-size="10.00"> </text>
<polyline fill="none" stroke="black" points="252,-408.5 409,-408.5 "/>
<text text-anchor="middle" x="330.5" y="-396.5" font-family="Helvetica,sans-Serif" font-size="10.00"> </text>
</a>
</g>
</g>
<!-- Node3&#45;&gt;Node18 -->
<g id="edge25" class="edge"><title>Node3&#45;&gt;Node18</title>
<path fill="none" stroke="#404040" d="M194.224,-549.472C195.326,-530.339 199.489,-505.121 212.5,-487 222.265,-473.399 235.657,-462.12 249.921,-452.918"/>
<polygon fill="none" stroke="#404040" points="250.148,-452.781 253.219,-446.257 260.423,-446.582 257.352,-453.107 250.148,-452.781"/>
<text text-anchor="middle" x="232.5" y="-501" font-family="Helvetica,sans-Serif" font-size="10.00"> +special</text>
</g>
<!-- Node4 -->
<g id="node4" class="node"><title>Node4</title>
<g id="a_node4"><a xlink:href="class_save_data_1_1_objects_active_data.html" target="_top" xlink:title="A serializable class to represent string,bool dictonaries. ">
<polygon fill="none" stroke="black" points="1301,-166 1301,-223 1442,-223 1442,-166 1301,-166"/>
<text text-anchor="middle" x="1371.5" y="-211" font-family="Helvetica,sans-Serif" font-size="10.00">SaveData.ObjectsActiveData</text>
<polyline fill="none" stroke="black" points="1301,-204 1442,-204 "/>
<text text-anchor="middle" x="1371.5" y="-192" font-family="Helvetica,sans-Serif" font-size="10.00"> </text>
<polyline fill="none" stroke="black" points="1301,-185 1442,-185 "/>
<text text-anchor="middle" x="1371.5" y="-173" font-family="Helvetica,sans-Serif" font-size="10.00"> </text>
</a>
</g>
</g>
<!-- Node4&#45;&gt;Node1 -->
<g id="edge3" class="edge"><title>Node4&#45;&gt;Node1</title>
<path fill="none" stroke="#404040" d="M1350.09,-165.788C1326.59,-137.692 1286.1,-95.6417 1240.5,-76 1147.72,-36.0323 837.368,-30.6494 724.762,-30.0323"/>
<polygon fill="none" stroke="#404040" points="724.648,-30.0319 718.631,-34.0062 712.648,-29.9805 718.665,-26.0062 724.648,-30.0319"/>
<text text-anchor="middle" x="1334" y="-84.5" font-family="Helvetica,sans-Serif" font-size="10.00"> +serializedObjectsActive</text>
</g>
<!-- Node5 -->
<g id="node5" class="node"><title>Node5</title>
<polygon fill="none" stroke="#bfbfbf" points="1423.5,-389.5 1423.5,-446.5 1497.5,-446.5 1497.5,-389.5 1423.5,-389.5"/>
<text text-anchor="middle" x="1460.5" y="-434.5" font-family="Helvetica,sans-Serif" font-size="10.00">List&lt; string &gt;</text>
<polyline fill="none" stroke="#bfbfbf" points="1423.5,-427.5 1497.5,-427.5 "/>
<text text-anchor="middle" x="1460.5" y="-415.5" font-family="Helvetica,sans-Serif" font-size="10.00"> </text>
<polyline fill="none" stroke="#bfbfbf" points="1423.5,-408.5 1497.5,-408.5 "/>
<text text-anchor="middle" x="1460.5" y="-396.5" font-family="Helvetica,sans-Serif" font-size="10.00"> </text>
</g>
<!-- Node5&#45;&gt;Node4 -->
<g id="edge4" class="edge"><title>Node5&#45;&gt;Node4</title>
<path fill="none" stroke="#404040" d="M1450.34,-389.342C1440.84,-363.727 1426.12,-324.631 1412.5,-291 1404.96,-272.384 1396.23,-251.901 1388.76,-234.695"/>
<polygon fill="none" stroke="#404040" points="1388.62,-234.371 1382.56,-230.468 1383.83,-223.37 1389.89,-227.272 1388.62,-234.371"/>
<text text-anchor="middle" x="1449" y="-317.5" font-family="Helvetica,sans-Serif" font-size="10.00"> +keys</text>
</g>
<!-- Node6 -->
<g id="node6" class="node"><title>Node6</title>
<polygon fill="none" stroke="#bfbfbf" points="1337.5,-389.5 1337.5,-446.5 1405.5,-446.5 1405.5,-389.5 1337.5,-389.5"/>
<text text-anchor="middle" x="1371.5" y="-434.5" font-family="Helvetica,sans-Serif" font-size="10.00">List&lt; bool &gt;</text>
<polyline fill="none" stroke="#bfbfbf" points="1337.5,-427.5 1405.5,-427.5 "/>
<text text-anchor="middle" x="1371.5" y="-415.5" font-family="Helvetica,sans-Serif" font-size="10.00"> </text>
<polyline fill="none" stroke="#bfbfbf" points="1337.5,-408.5 1405.5,-408.5 "/>
<text text-anchor="middle" x="1371.5" y="-396.5" font-family="Helvetica,sans-Serif" font-size="10.00"> </text>
</g>
<!-- Node6&#45;&gt;Node4 -->
<g id="edge5" class="edge"><title>Node6&#45;&gt;Node4</title>
<path fill="none" stroke="#404040" d="M1371.5,-389.395C1371.5,-350.574 1371.5,-279.635 1371.5,-235.169"/>
<polygon fill="none" stroke="#404040" points="1371.5,-235.104 1367.5,-229.104 1371.5,-223.104 1375.5,-229.104 1371.5,-235.104"/>
<text text-anchor="middle" x="1390" y="-317.5" font-family="Helvetica,sans-Serif" font-size="10.00"> +values</text>
</g>
<!-- Node7 -->
<g id="node7" class="node"><title>Node7</title>
<polygon fill="none" stroke="#bfbfbf" points="618,-671 618,-728 659,-728 659,-671 618,-671"/>
<text text-anchor="middle" x="638.5" y="-716" font-family="Helvetica,sans-Serif" font-size="10.00">string</text>
<polyline fill="none" stroke="#bfbfbf" points="618,-709 659,-709 "/>
<text text-anchor="middle" x="638.5" y="-697" font-family="Helvetica,sans-Serif" font-size="10.00"> </text>
<polyline fill="none" stroke="#bfbfbf" points="618,-690 659,-690 "/>
<text text-anchor="middle" x="638.5" y="-678" font-family="Helvetica,sans-Serif" font-size="10.00"> </text>
</g>
<!-- Node7&#45;&gt;Node1 -->
<g id="edge6" class="edge"><title>Node7&#45;&gt;Node1</title>
<path fill="none" stroke="#404040" d="M659.082,-698.796C763.154,-699.752 1226.5,-697.363 1226.5,-579 1226.5,-579 1226.5,-579 1226.5,-193.5 1226.5,-88.799 851.669,-45.2142 724.857,-33.4647"/>
<polygon fill="none" stroke="#404040" points="724.645,-33.4457 718.31,-36.8894 712.694,-32.3656 719.03,-28.9219 724.645,-33.4457"/>
<text text-anchor="middle" x="1273" y="-415.5" font-family="Helvetica,sans-Serif" font-size="10.00"> +currentSceneName</text>
</g>
<!-- Node9 -->
<g id="node9" class="node"><title>Node9</title>
<g id="a_node9"><a xlink:href="class_save_data_1_1_item_save_data.html" target="_top" xlink:title="A serializable class to represent an Item. ">
<polygon fill="none" stroke="black" points="0,-389.5 0,-446.5 121,-446.5 121,-389.5 0,-389.5"/>
<text text-anchor="middle" x="60.5" y="-434.5" font-family="Helvetica,sans-Serif" font-size="10.00">SaveData.ItemSaveData</text>
<polyline fill="none" stroke="black" points="0,-427.5 121,-427.5 "/>
<text text-anchor="middle" x="60.5" y="-415.5" font-family="Helvetica,sans-Serif" font-size="10.00"> </text>
<polyline fill="none" stroke="black" points="0,-408.5 121,-408.5 "/>
<text text-anchor="middle" x="60.5" y="-396.5" font-family="Helvetica,sans-Serif" font-size="10.00"> </text>
</a>
</g>
</g>
<!-- Node7&#45;&gt;Node9 -->
<g id="edge9" class="edge"><title>Node7&#45;&gt;Node9</title>
<path fill="none" stroke="#404040" d="M617.729,-698.328C529.684,-697.163 188.375,-688.124 113.5,-618 69.7043,-576.983 60.5532,-504.219 59.4447,-458.962"/>
<polygon fill="none" stroke="#404040" points="59.4423,-458.697 55.3836,-452.737 59.3246,-446.698 63.3832,-452.658 59.4423,-458.697"/>
<text text-anchor="middle" x="140.5" y="-586.5" font-family="Helvetica,sans-Serif" font-size="10.00"> +name</text>
<text text-anchor="middle" x="140.5" y="-575.5" font-family="Helvetica,sans-Serif" font-size="10.00">+desc</text>
<text text-anchor="middle" x="140.5" y="-564.5" font-family="Helvetica,sans-Serif" font-size="10.00">+typeOfItem</text>
</g>
<!-- Node13 -->
<g id="node13" class="node"><title>Node13</title>
<g id="a_node13"><a xlink:href="class_quest.html" target="_top" xlink:title="A class to store a whole quest, being a sequence of 3 QuestDefs Also stores a name of the quest...">
<polygon fill="none" stroke="black" points="940,-367.5 940,-468.5 1071,-468.5 1071,-367.5 940,-367.5"/>
<text text-anchor="middle" x="1005.5" y="-456.5" font-family="Helvetica,sans-Serif" font-size="10.00">Quest</text>
<polyline fill="none" stroke="black" points="940,-449.5 1071,-449.5 "/>
<text text-anchor="start" x="948" y="-437.5" font-family="Helvetica,sans-Serif" font-size="10.00">+ Main</text>
<text text-anchor="start" x="948" y="-426.5" font-family="Helvetica,sans-Serif" font-size="10.00">+ Side</text>
<text text-anchor="start" x="948" y="-415.5" font-family="Helvetica,sans-Serif" font-size="10.00">+ Cond</text>
<text text-anchor="start" x="948" y="-404.5" font-family="Helvetica,sans-Serif" font-size="10.00">+ Completed</text>
<polyline fill="none" stroke="black" points="940,-397.5 1071,-397.5 "/>
<text text-anchor="start" x="948" y="-385.5" font-family="Helvetica,sans-Serif" font-size="10.00">+ Quest()</text>
<text text-anchor="start" x="948" y="-374.5" font-family="Helvetica,sans-Serif" font-size="10.00">+ checkQuestCompleted()</text>
</a>
</g>
</g>
<!-- Node7&#45;&gt;Node13 -->
<g id="edge18" class="edge"><title>Node7&#45;&gt;Node13</title>
<path fill="none" stroke="#404040" d="M659.307,-689.839C710.888,-667.62 846.951,-604.36 936.5,-520 949.31,-507.932 961.058,-493.093 971.088,-478.541"/>
<polygon fill="none" stroke="#404040" points="971.092,-478.535 971.093,-471.323 977.749,-468.55 977.749,-475.762 971.092,-478.535"/>
<text text-anchor="middle" x="935" y="-581" font-family="Helvetica,sans-Serif" font-size="10.00"> +location</text>
<text text-anchor="middle" x="935" y="-570" font-family="Helvetica,sans-Serif" font-size="10.00">+title</text>
</g>
<!-- Node14 -->
<g id="node14" class="node"><title>Node14</title>
<g id="a_node14"><a xlink:href="class_quest_def.html" target="_top" xlink:title="Class defining one quest condition (part of a sequence of 3 in Quest) ">
<polygon fill="none" stroke="black" points="1103.5,-538.5 1103.5,-617.5 1175.5,-617.5 1175.5,-538.5 1103.5,-538.5"/>
<text text-anchor="middle" x="1139.5" y="-605.5" font-family="Helvetica,sans-Serif" font-size="10.00">QuestDef</text>
<polyline fill="none" stroke="black" points="1103.5,-598.5 1175.5,-598.5 "/>
<text text-anchor="start" x="1111.5" y="-586.5" font-family="Helvetica,sans-Serif" font-size="10.00">+ Type</text>
<text text-anchor="start" x="1111.5" y="-575.5" font-family="Helvetica,sans-Serif" font-size="10.00">+ Data</text>
<text text-anchor="start" x="1111.5" y="-564.5" font-family="Helvetica,sans-Serif" font-size="10.00">+ Desc</text>
<polyline fill="none" stroke="black" points="1103.5,-557.5 1175.5,-557.5 "/>
<text text-anchor="start" x="1111.5" y="-545.5" font-family="Helvetica,sans-Serif" font-size="10.00">+ QuestDef()</text>
</a>
</g>
</g>
<!-- Node7&#45;&gt;Node14 -->
<g id="edge17" class="edge"><title>Node7&#45;&gt;Node14</title>
<path fill="none" stroke="#404040" d="M659.358,-698.967C724.94,-699.621 931.653,-695.434 1092.48,-618.17"/>
<polygon fill="none" stroke="#404040" points="1092.73,-618.045 1096.33,-611.801 1103.49,-612.728 1099.88,-618.973 1092.73,-618.045"/>
<text text-anchor="middle" x="1063.5" y="-639" font-family="Helvetica,sans-Serif" font-size="10.00"> &#45;desc</text>
</g>
<!-- Node17 -->
<g id="node17" class="node"><title>Node17</title>
<g id="a_node17"><a xlink:href="class_save_data_1_1_player_save_data.html" target="_top" xlink:title="A serialzable class to represent a Player. ">
<polygon fill="none" stroke="black" points="341.5,-166 341.5,-223 471.5,-223 471.5,-166 341.5,-166"/>
<text text-anchor="middle" x="406.5" y="-211" font-family="Helvetica,sans-Serif" font-size="10.00">SaveData.PlayerSaveData</text>
<polyline fill="none" stroke="black" points="341.5,-204 471.5,-204 "/>
<text text-anchor="middle" x="406.5" y="-192" font-family="Helvetica,sans-Serif" font-size="10.00"> </text>
<polyline fill="none" stroke="black" points="341.5,-185 471.5,-185 "/>
<text text-anchor="middle" x="406.5" y="-173" font-family="Helvetica,sans-Serif" font-size="10.00"> </text>
</a>
</g>
</g>
<!-- Node7&#45;&gt;Node17 -->
<g id="edge22" class="edge"><title>Node7&#45;&gt;Node17</title>
<path fill="none" stroke="#404040" d="M617.713,-697.991C569.658,-696.128 447.992,-687.447 356.5,-647 337.069,-638.41 332.069,-634.347 318.5,-618 276.86,-567.836 283.003,-544.618 252.5,-487 248.218,-478.912 244.796,-477.859 242.5,-469 231.129,-425.116 225.152,-408.883 242.5,-367 265.11,-312.415 295.797,-315.825 336.5,-273 348.963,-259.887 362.345,-245.222 374.037,-232.207"/>
<polygon fill="none" stroke="#404040" points="374.212,-232.011 375.232,-224.873 382.214,-223.068 381.194,-230.207 374.212,-232.011"/>
<text text-anchor="middle" x="285.5" y="-501" font-family="Helvetica,sans-Serif" font-size="10.00"> +name</text>
</g>
<!-- Node7&#45;&gt;Node18 -->
<g id="edge24" class="edge"><title>Node7&#45;&gt;Node18</title>
<path fill="none" stroke="#404040" d="M617.892,-696.197C555.581,-688.775 371.243,-663.29 335.5,-618 316.75,-594.241 321.317,-509.835 326.071,-458.894"/>
<polygon fill="none" stroke="#404040" points="326.094,-458.664 322.701,-452.301 327.27,-446.722 330.663,-453.085 326.094,-458.664"/>
<text text-anchor="middle" x="380.5" y="-586.5" font-family="Helvetica,sans-Serif" font-size="10.00"> +text</text>
<text text-anchor="middle" x="380.5" y="-575.5" font-family="Helvetica,sans-Serif" font-size="10.00">+desc</text>
<text text-anchor="middle" x="380.5" y="-564.5" font-family="Helvetica,sans-Serif" font-size="10.00">+typeOfSpecialMove</text>
</g>
<!-- Node8 -->
<g id="node8" class="node"><title>Node8</title>
<polygon fill="none" stroke="#bfbfbf" points="636,-549.5 636,-606.5 665,-606.5 665,-549.5 636,-549.5"/>
<text text-anchor="middle" x="650.5" y="-594.5" font-family="Helvetica,sans-Serif" font-size="10.00">int</text>
<polyline fill="none" stroke="#bfbfbf" points="636,-587.5 665,-587.5 "/>
<text text-anchor="middle" x="650.5" y="-575.5" font-family="Helvetica,sans-Serif" font-size="10.00"> </text>
<polyline fill="none" stroke="#bfbfbf" points="636,-568.5 665,-568.5 "/>
<text text-anchor="middle" x="650.5" y="-556.5" font-family="Helvetica,sans-Serif" font-size="10.00"> </text>
</g>
<!-- Node8&#45;&gt;Node1 -->
<g id="edge7" class="edge"><title>Node8&#45;&gt;Node1</title>
<path fill="none" stroke="#404040" d="M656.518,-549.182C660.943,-527.46 666.661,-496.459 669.5,-469 684.64,-322.549 684.906,-147.287 684.122,-69.9813"/>
<polygon fill="none" stroke="#404040" points="684.118,-69.5719 680.048,-63.6187 683.978,-57.5727 688.048,-63.5259 684.118,-69.5719"/>
<text text-anchor="middle" x="710.5" y="-323" font-family="Helvetica,sans-Serif" font-size="10.00"> +Money</text>
<text text-anchor="middle" x="710.5" y="-312" font-family="Helvetica,sans-Serif" font-size="10.00">+currentLevel</text>
</g>
<!-- Node10 -->
<g id="node10" class="node"><title>Node10</title>
<g id="a_node10"><a xlink:href="class_quest_manager.html" target="_top" xlink:title="A class to manage the tracking and completion of quests ">
<polygon fill="none" stroke="black" points="802.5,-116.5 802.5,-272.5 924.5,-272.5 924.5,-116.5 802.5,-116.5"/>
<text text-anchor="middle" x="863.5" y="-260.5" font-family="Helvetica,sans-Serif" font-size="10.00">QuestManager</text>
<polyline fill="none" stroke="black" points="802.5,-253.5 924.5,-253.5 "/>
<text text-anchor="start" x="810.5" y="-241.5" font-family="Helvetica,sans-Serif" font-size="10.00">+ CurrentQuest</text>
<text text-anchor="start" x="810.5" y="-230.5" font-family="Helvetica,sans-Serif" font-size="10.00">+ firstQuest</text>
<text text-anchor="start" x="810.5" y="-219.5" font-family="Helvetica,sans-Serif" font-size="10.00">+ secondQuest</text>
<polyline fill="none" stroke="black" points="802.5,-212.5 924.5,-212.5 "/>
<text text-anchor="start" x="810.5" y="-200.5" font-family="Helvetica,sans-Serif" font-size="10.00">+ QuestManager()</text>
<text text-anchor="start" x="810.5" y="-189.5" font-family="Helvetica,sans-Serif" font-size="10.00">+ addQuest()</text>
<text text-anchor="start" x="810.5" y="-178.5" font-family="Helvetica,sans-Serif" font-size="10.00">+ updateCurrentQuest()</text>
<text text-anchor="start" x="810.5" y="-167.5" font-family="Helvetica,sans-Serif" font-size="10.00">+ logQuestVariable()</text>
<text text-anchor="start" x="810.5" y="-156.5" font-family="Helvetica,sans-Serif" font-size="10.00">+ finishQuest()</text>
<text text-anchor="start" x="810.5" y="-145.5" font-family="Helvetica,sans-Serif" font-size="10.00">&#45; startQuest()</text>
<text text-anchor="start" x="810.5" y="-134.5" font-family="Helvetica,sans-Serif" font-size="10.00">&#45; isNegativeQuestCond()</text>
<text text-anchor="start" x="810.5" y="-123.5" font-family="Helvetica,sans-Serif" font-size="10.00">&#45; questDefVal()</text>
</a>
</g>
</g>
<!-- Node8&#45;&gt;Node10 -->
<g id="edge13" class="edge"><title>Node8&#45;&gt;Node10</title>
<path fill="none" stroke="#404040" d="M665.158,-573.301C701.151,-563.375 793.969,-532.492 835.5,-469 870.735,-415.133 876.618,-342.123 874.295,-285.086"/>
<polygon fill="none" stroke="#404040" points="874.28,-284.787 869.975,-279.002 873.66,-272.803 877.964,-278.588 874.28,-284.787"/>
<text text-anchor="middle" x="899.5" y="-421" font-family="Helvetica,sans-Serif" font-size="10.00"> &#45;noOfQuests</text>
<text text-anchor="middle" x="899.5" y="-410" font-family="Helvetica,sans-Serif" font-size="10.00">&#45;finishTime</text>
</g>
<!-- Node8&#45;&gt;Node13 -->
<g id="edge20" class="edge"><title>Node8&#45;&gt;Node13</title>
<path fill="none" stroke="#404040" d="M665.019,-576.712C702.908,-575.291 806.539,-567.06 874.5,-520 889.198,-509.823 884.567,-499.342 897.5,-487 898.4,-486.141 911.976,-477.506 929.218,-466.66"/>
<polygon fill="none" stroke="#404040" points="929.564,-466.443 932.517,-459.865 939.725,-460.061 936.772,-466.639 929.564,-466.443"/>
<text text-anchor="middle" x="917" y="-506.5" font-family="Helvetica,sans-Serif" font-size="10.00"> +money</text>
<text text-anchor="middle" x="917" y="-495.5" font-family="Helvetica,sans-Serif" font-size="10.00">+exp</text>
</g>
<!-- Node8&#45;&gt;Node17 -->
<g id="edge30" class="edge"><title>Node8&#45;&gt;Node17</title>
<path fill="none" stroke="#404040" d="M637.308,-549.256C628.393,-531.166 616.007,-507.245 603.5,-487 598.314,-478.605 595.301,-477.622 590.5,-469 566.65,-426.166 571.21,-410.449 548.5,-367 529.883,-331.382 524.533,-322.442 499.5,-291 483.051,-270.34 462.789,-249.124 445.38,-231.952"/>
<polygon fill="none" stroke="#404040" points="445.165,-231.742 438.076,-230.418 436.572,-223.365 443.661,-224.689 445.165,-231.742"/>
<text text-anchor="middle" x="630" y="-459.5" font-family="Helvetica,sans-Serif" font-size="10.00"> +maximumMagic</text>
<text text-anchor="middle" x="630" y="-448.5" font-family="Helvetica,sans-Serif" font-size="10.00">+attack</text>
<text text-anchor="middle" x="630" y="-437.5" font-family="Helvetica,sans-Serif" font-size="10.00">+defence</text>
<text text-anchor="middle" x="630" y="-426.5" font-family="Helvetica,sans-Serif" font-size="10.00">+level</text>
<text text-anchor="middle" x="630" y="-415.5" font-family="Helvetica,sans-Serif" font-size="10.00">+speed</text>
<text text-anchor="middle" x="630" y="-404.5" font-family="Helvetica,sans-Serif" font-size="10.00">+luck</text>
<text text-anchor="middle" x="630" y="-393.5" font-family="Helvetica,sans-Serif" font-size="10.00">+health</text>
<text text-anchor="middle" x="630" y="-382.5" font-family="Helvetica,sans-Serif" font-size="10.00">+magic</text>
<text text-anchor="middle" x="630" y="-371.5" font-family="Helvetica,sans-Serif" font-size="10.00">+exp</text>
</g>
<!-- Node8&#45;&gt;Node18 -->
<g id="edge26" class="edge"><title>Node8&#45;&gt;Node18</title>
<path fill="none" stroke="#404040" d="M636,-574.646C607.731,-569.407 544.522,-554.421 504.5,-520 491.669,-508.965 498.936,-497.29 485.5,-487 460.68,-467.991 446.413,-480.892 417.5,-469 406.262,-464.378 394.69,-458.563 383.799,-452.548"/>
<polygon fill="none" stroke="#404040" points="383.604,-452.437 376.411,-452.947 373.174,-446.503 380.367,-445.993 383.604,-452.437"/>
<text text-anchor="middle" x="522.5" y="-501" font-family="Helvetica,sans-Serif" font-size="10.00"> +magic</text>
</g>
<!-- Node19 -->
<g id="node19" class="node"><title>Node19</title>
<g id="a_node19"><a xlink:href="class_save_data_1_1_texture_data.html" target="_top" xlink:title="A serializable class for holding textures. ">
<polygon fill="none" stroke="black" points="427,-389.5 427,-446.5 540,-446.5 540,-389.5 427,-389.5"/>
<text text-anchor="middle" x="483.5" y="-434.5" font-family="Helvetica,sans-Serif" font-size="10.00">SaveData.TextureData</text>
<polyline fill="none" stroke="black" points="427,-427.5 540,-427.5 "/>
<text text-anchor="middle" x="483.5" y="-415.5" font-family="Helvetica,sans-Serif" font-size="10.00"> </text>
<polyline fill="none" stroke="black" points="427,-408.5 540,-408.5 "/>
<text text-anchor="middle" x="483.5" y="-396.5" font-family="Helvetica,sans-Serif" font-size="10.00"> </text>
</a>
</g>
</g>
<!-- Node8&#45;&gt;Node19 -->
<g id="edge28" class="edge"><title>Node8&#45;&gt;Node19</title>
<path fill="none" stroke="#404040" d="M635.831,-569.113C618.268,-559.205 588.585,-540.94 567.5,-520 554.815,-507.402 555.601,-501.013 544.5,-487 536.291,-476.637 526.96,-465.813 518.109,-455.927"/>
<polygon fill="none" stroke="#404040" points="517.879,-455.673 510.886,-453.913 509.821,-446.781 516.814,-448.541 517.879,-455.673"/>
<text text-anchor="middle" x="585.5" y="-506.5" font-family="Helvetica,sans-Serif" font-size="10.00"> +height</text>
<text text-anchor="middle" x="585.5" y="-495.5" font-family="Helvetica,sans-Serif" font-size="10.00">+width</text>
</g>
<!-- Node9&#45;&gt;Node1 -->
<g id="edge8" class="edge"><title>Node9&#45;&gt;Node1</title>
<path fill="none" stroke="#404040" d="M52.6172,-389.196C37.5569,-329.412 12.4589,-188.217 87.5,-116 166.982,-39.5086 520.43,-30.6869 642.148,-29.9479"/>
<polygon fill="none" stroke="#404040" points="642.178,-29.9479 648.161,-25.9226 654.178,-29.8972 648.195,-33.9225 642.178,-29.9479"/>
<text text-anchor="middle" x="125" y="-192" font-family="Helvetica,sans-Serif" font-size="10.00"> +serializedItems</text>
</g>
<!-- Node9&#45;&gt;Node17 -->
<g id="edge31" class="edge"><title>Node9&#45;&gt;Node17</title>
<path fill="none" stroke="#404040" d="M51.1079,-389.265C43.4009,-360.772 37.2743,-317.015 61.5,-291 95.9855,-253.968 240.63,-289.404 288.5,-273 315.922,-263.603 343.192,-246.348 364.597,-230.5"/>
<polygon fill="none" stroke="#404040" points="364.754,-230.381 367.107,-223.564 374.304,-223.114 371.951,-229.931 364.754,-230.381"/>
<text text-anchor="middle" x="75.5" y="-317.5" font-family="Helvetica,sans-Serif" font-size="10.00"> +item</text>
</g>
<!-- Node10&#45;&gt;Node1 -->
<g id="edge10" class="edge"><title>Node10&#45;&gt;Node1</title>
<path fill="none" stroke="#404040" d="M802.309,-137.918C775.676,-113.727 745.281,-86.118 721.902,-64.8815"/>
<polygon fill="none" stroke="#404040" points="721.87,-64.8526 714.739,-63.7793 712.987,-56.7842 720.118,-57.8575 721.87,-64.8526"/>
<text text-anchor="middle" x="793" y="-84.5" font-family="Helvetica,sans-Serif" font-size="10.00"> +questManager</text>
</g>
<!-- Node11 -->
<g id="node11" class="node"><title>Node11</title>
<polygon fill="none" stroke="#bfbfbf" points="1089,-389.5 1089,-446.5 1190,-446.5 1190,-389.5 1089,-389.5"/>
<text text-anchor="middle" x="1139.5" y="-434.5" font-family="Helvetica,sans-Serif" font-size="10.00">List&lt; questTypes &gt;</text>
<polyline fill="none" stroke="#bfbfbf" points="1089,-427.5 1190,-427.5 "/>
<text text-anchor="middle" x="1139.5" y="-415.5" font-family="Helvetica,sans-Serif" font-size="10.00"> </text>
<polyline fill="none" stroke="#bfbfbf" points="1089,-408.5 1190,-408.5 "/>
<text text-anchor="middle" x="1139.5" y="-396.5" font-family="Helvetica,sans-Serif" font-size="10.00"> </text>
</g>
<!-- Node11&#45;&gt;Node10 -->
<g id="edge11" class="edge"><title>Node11&#45;&gt;Node10</title>
<path fill="none" stroke="#404040" d="M1120.15,-389.249C1100.15,-361.952 1066.96,-320.235 1031.5,-291 1002.44,-267.039 966.56,-245.728 935.43,-229.35"/>
<polygon fill="none" stroke="#404040" points="935.294,-229.28 928.127,-230.076 924.635,-223.767 931.802,-222.97 935.294,-229.28"/>
<text text-anchor="middle" x="1139" y="-317.5" font-family="Helvetica,sans-Serif" font-size="10.00"> +negativeQuestConds</text>
</g>
<!-- Node12 -->
<g id="node12" class="node"><title>Node12</title>
<polygon fill="none" stroke="#bfbfbf" points="712,-384 712,-452 827,-452 827,-384 712,-384"/>
<text text-anchor="start" x="720" y="-440" font-family="Helvetica,sans-Serif" font-size="10.00">IDictionary&lt; QuestDef,</text>
<text text-anchor="middle" x="769.5" y="-429" font-family="Helvetica,sans-Serif" font-size="10.00"> bool &gt;</text>
<polyline fill="none" stroke="#bfbfbf" points="712,-422 827,-422 "/>
<text text-anchor="middle" x="769.5" y="-410" font-family="Helvetica,sans-Serif" font-size="10.00"> </text>
<polyline fill="none" stroke="#bfbfbf" points="712,-403 827,-403 "/>
<text text-anchor="middle" x="769.5" y="-391" font-family="Helvetica,sans-Serif" font-size="10.00"> </text>
</g>
<!-- Node12&#45;&gt;Node10 -->
<g id="edge12" class="edge"><title>Node12&#45;&gt;Node10</title>
<path fill="none" stroke="#404040" d="M772.557,-383.759C775.844,-357.672 782.467,-320.893 795.5,-291 796.59,-288.499 797.753,-285.998 798.978,-283.503"/>
<polygon fill="none" stroke="#404040" points="799.112,-283.248 798.372,-276.075 804.709,-272.633 805.449,-279.806 799.112,-283.248"/>
<text text-anchor="middle" x="822.5" y="-317.5" font-family="Helvetica,sans-Serif" font-size="10.00"> +conditions</text>
</g>
<!-- Node13&#45;&gt;Node10 -->
<g id="edge14" class="edge"><title>Node13&#45;&gt;Node10</title>
<path fill="none" stroke="#404040" d="M973.632,-367.291C957.756,-342.526 938.084,-311.84 919.777,-283.284"/>
<polygon fill="none" stroke="#404040" points="919.58,-282.977 912.975,-280.085 913.104,-272.875 919.71,-275.768 919.58,-282.977"/>
<text text-anchor="middle" x="994" y="-323" font-family="Helvetica,sans-Serif" font-size="10.00"> &#45;currentQuest</text>
<text text-anchor="middle" x="994" y="-312" font-family="Helvetica,sans-Serif" font-size="10.00">&#45;chosenQuests</text>
</g>
<!-- Node14&#45;&gt;Node13 -->
<g id="edge15" class="edge"><title>Node14&#45;&gt;Node13</title>
<path fill="none" stroke="#404040" d="M1121.54,-538.21C1112.84,-521.534 1101.46,-502.385 1088.5,-487 1085.78,-483.768 1082.89,-480.574 1079.88,-477.438"/>
<polygon fill="none" stroke="#404040" points="1079.65,-477.212 1072.57,-475.831 1071.12,-468.766 1078.2,-470.148 1079.65,-477.212"/>
<text text-anchor="middle" x="1124" y="-512" font-family="Helvetica,sans-Serif" font-size="10.00"> &#45;side</text>
<text text-anchor="middle" x="1124" y="-501" font-family="Helvetica,sans-Serif" font-size="10.00">&#45;main</text>
<text text-anchor="middle" x="1124" y="-490" font-family="Helvetica,sans-Serif" font-size="10.00">&#45;cond</text>
</g>
<!-- Node15 -->
<g id="node15" class="node"><title>Node15</title>
<polygon fill="none" stroke="#bfbfbf" points="1190.5,-665.5 1190.5,-733.5 1328.5,-733.5 1328.5,-665.5 1190.5,-665.5"/>
<text text-anchor="start" x="1198.5" y="-721.5" font-family="Helvetica,sans-Serif" font-size="10.00">KeyValuePair&lt; questTypes,</text>
<text text-anchor="middle" x="1259.5" y="-710.5" font-family="Helvetica,sans-Serif" font-size="10.00"> string &gt;</text>
<polyline fill="none" stroke="#bfbfbf" points="1190.5,-703.5 1328.5,-703.5 "/>
<text text-anchor="middle" x="1259.5" y="-691.5" font-family="Helvetica,sans-Serif" font-size="10.00"> </text>
<polyline fill="none" stroke="#bfbfbf" points="1190.5,-684.5 1328.5,-684.5 "/>
<text text-anchor="middle" x="1259.5" y="-672.5" font-family="Helvetica,sans-Serif" font-size="10.00"> </text>
</g>
<!-- Node15&#45;&gt;Node14 -->
<g id="edge16" class="edge"><title>Node15&#45;&gt;Node14</title>
<path fill="none" stroke="#404040" d="M1226.07,-665.213C1213.22,-652.409 1198.32,-637.575 1184.55,-623.858"/>
<polygon fill="none" stroke="#404040" points="1184.19,-623.506 1177.12,-622.107 1175.69,-615.039 1182.76,-616.438 1184.19,-623.506"/>
<text text-anchor="middle" x="1218.5" y="-639" font-family="Helvetica,sans-Serif" font-size="10.00"> &#45;pair</text>
</g>
<!-- Node16 -->
<g id="node16" class="node"><title>Node16</title>
<polygon fill="none" stroke="#bfbfbf" points="1011.5,-549.5 1011.5,-606.5 1085.5,-606.5 1085.5,-549.5 1011.5,-549.5"/>
<text text-anchor="middle" x="1048.5" y="-594.5" font-family="Helvetica,sans-Serif" font-size="10.00">questStatues</text>
<polyline fill="none" stroke="#bfbfbf" points="1011.5,-587.5 1085.5,-587.5 "/>
<text text-anchor="middle" x="1048.5" y="-575.5" font-family="Helvetica,sans-Serif" font-size="10.00"> </text>
<polyline fill="none" stroke="#bfbfbf" points="1011.5,-568.5 1085.5,-568.5 "/>
<text text-anchor="middle" x="1048.5" y="-556.5" font-family="Helvetica,sans-Serif" font-size="10.00"> </text>
</g>
<!-- Node16&#45;&gt;Node13 -->
<g id="edge19" class="edge"><title>Node16&#45;&gt;Node13</title>
<path fill="none" stroke="#404040" d="M1041.01,-549.479C1035.82,-530.418 1028.71,-504.277 1022.21,-480.397"/>
<polygon fill="none" stroke="#404040" points="1022.13,-480.11 1016.7,-475.371 1018.98,-468.532 1024.42,-473.271 1022.13,-480.11"/>
<text text-anchor="middle" x="1058.5" y="-501" font-family="Helvetica,sans-Serif" font-size="10.00"> &#45;completed</text>
</g>
<!-- Node17&#45;&gt;Node1 -->
<g id="edge21" class="edge"><title>Node17&#45;&gt;Node1</title>
<path fill="none" stroke="#404040" d="M446.109,-165.921C482.405,-141.137 538.011,-104.381 588.5,-76 606.021,-66.1507 625.969,-56.2967 643.046,-48.2503"/>
<polygon fill="none" stroke="#404040" points="643.466,-48.0547 647.218,-41.8963 654.346,-42.9907 650.594,-49.1491 643.466,-48.0547"/>
<text text-anchor="middle" x="629" y="-90" font-family="Helvetica,sans-Serif" font-size="10.00"> +biologyPlayer</text>
<text text-anchor="middle" x="629" y="-79" font-family="Helvetica,sans-Serif" font-size="10.00">+serializedPlayers</text>
</g>
<!-- Node18&#45;&gt;Node17 -->
<g id="edge23" class="edge"><title>Node18&#45;&gt;Node17</title>
<path fill="none" stroke="#404040" d="M339.972,-389.395C353.349,-350.408 377.841,-279.027 393.085,-234.599"/>
<polygon fill="none" stroke="#404040" points="393.134,-234.455 391.298,-227.481 397.029,-223.104 398.865,-230.078 393.134,-234.455"/>
<text text-anchor="middle" x="396.5" y="-323" font-family="Helvetica,sans-Serif" font-size="10.00"> +special1</text>
<text text-anchor="middle" x="396.5" y="-312" font-family="Helvetica,sans-Serif" font-size="10.00">+special2</text>
</g>
<!-- Node19&#45;&gt;Node17 -->
<g id="edge27" class="edge"><title>Node19&#45;&gt;Node17</title>
<path fill="none" stroke="#404040" d="M473.904,-389.395C460.351,-350.408 435.536,-279.027 420.092,-234.599"/>
<polygon fill="none" stroke="#404040" points="420.036,-234.439 414.288,-230.085 416.096,-223.104 421.844,-227.458 420.036,-234.439"/>
<text text-anchor="middle" x="477.5" y="-317.5" font-family="Helvetica,sans-Serif" font-size="10.00"> +image</text>
</g>
<!-- Node20 -->
<g id="node20" class="node"><title>Node20</title>
<polygon fill="none" stroke="#bfbfbf" points="434.5,-549.5 434.5,-606.5 478.5,-606.5 478.5,-549.5 434.5,-549.5"/>
<text text-anchor="middle" x="456.5" y="-594.5" font-family="Helvetica,sans-Serif" font-size="10.00">byte []</text>
<polyline fill="none" stroke="#bfbfbf" points="434.5,-587.5 478.5,-587.5 "/>
<text text-anchor="middle" x="456.5" y="-575.5" font-family="Helvetica,sans-Serif" font-size="10.00"> </text>
<polyline fill="none" stroke="#bfbfbf" points="434.5,-568.5 478.5,-568.5 "/>
<text text-anchor="middle" x="456.5" y="-556.5" font-family="Helvetica,sans-Serif" font-size="10.00"> </text>
</g>
<!-- Node20&#45;&gt;Node19 -->
<g id="edge29" class="edge"><title>Node20&#45;&gt;Node19</title>
<path fill="none" stroke="#404040" d="M434.383,-552.349C422.488,-538.813 409.953,-523.98 408.5,-520 403.472,-506.222 402.558,-500.409 408.5,-487 413.843,-474.943 422.497,-464.113 432.062,-454.825"/>
<polygon fill="none" stroke="#404040" points="432.119,-454.773 433.898,-447.785 441.033,-446.739 439.254,-453.727 432.119,-454.773"/>
<text text-anchor="middle" x="447" y="-501" font-family="Helvetica,sans-Serif" font-size="10.00"> +rawTextureData</text>
</g>
</g>
</svg>
