<?xml version="1.0" encoding="UTF-8" standalone="no"?>
<!DOCTYPE svg PUBLIC "-//W3C//DTD SVG 1.1//EN"
 "http://www.w3.org/Graphics/SVG/1.1/DTD/svg11.dtd">
<!-- Generated by graphviz version 2.38.0 (20140413.2041)
 -->
<!-- Title: SaveData.ObjectsActiveData Pages: 1 -->
<svg width="168pt" height="171pt"
 viewBox="0.00 0.00 168.00 171.00" xmlns="http://www.w3.org/2000/svg" xmlns:xlink="http://www.w3.org/1999/xlink">
<g id="graph0" class="graph" transform="scale(1 1) rotate(0) translate(4 167)">
<title>SaveData.ObjectsActiveData</title>
<!-- Node1 -->
<g id="node1" class="node"><title>Node1</title>
<polygon fill="#bfbfbf" stroke="black" points="10.5,-0.5 10.5,-57.5 151.5,-57.5 151.5,-0.5 10.5,-0.5"/>
<text text-anchor="middle" x="81" y="-45.5" font-family="Helvetica,sans-Serif" font-size="10.00">SaveData.ObjectsActiveData</text>
<polyline fill="none" stroke="black" points="10.5,-38.5 151.5,-38.5 "/>
<text text-anchor="middle" x="81" y="-26.5" font-family="Helvetica,sans-Serif" font-size="10.00"> </text>
<polyline fill="none" stroke="black" points="10.5,-19.5 151.5,-19.5 "/>
<text text-anchor="middle" x="81" y="-7.5" font-family="Helvetica,sans-Serif" font-size="10.00"> </text>
</g>
<!-- Node2 -->
<g id="node2" class="node"><title>Node2</title>
<polygon fill="none" stroke="#bfbfbf" points="0,-105.5 0,-162.5 74,-162.5 74,-105.5 0,-105.5"/>
<text text-anchor="middle" x="37" y="-150.5" font-family="Helvetica,sans-Serif" font-size="10.00">List&lt; string &gt;</text>
<polyline fill="none" stroke="#bfbfbf" points="0,-143.5 74,-143.5 "/>
<text text-anchor="middle" x="37" y="-131.5" font-family="Helvetica,sans-Serif" font-size="10.00"> </text>
<polyline fill="none" stroke="#bfbfbf" points="0,-124.5 74,-124.5 "/>
<text text-anchor="middle" x="37" y="-112.5" font-family="Helvetica,sans-Serif" font-size="10.00"> </text>
</g>
<!-- Node2&#45;&gt;Node1 -->
<g id="edge1" class="edge"><title>Node2&#45;&gt;Node1</title>
<path fill="none" stroke="#404040" d="M48.7912,-105.398C53.5753,-94.1988 59.1869,-81.0624 64.374,-68.9199"/>
<polygon fill="none" stroke="#404040" points="64.4621,-68.7136 63.1408,-61.6246 69.1763,-57.6783 70.4976,-64.7673 64.4621,-68.7136"/>
<text text-anchor="middle" x="76.5" y="-79" font-family="Helvetica,sans-Serif" font-size="10.00"> +keys</text>
</g>
<!-- Node3 -->
<g id="node3" class="node"><title>Node3</title>
<polygon fill="none" stroke="#bfbfbf" points="92,-105.5 92,-162.5 160,-162.5 160,-105.5 92,-105.5"/>
<text text-anchor="middle" x="126" y="-150.5" font-family="Helvetica,sans-Serif" font-size="10.00">List&lt; bool &gt;</text>
<polyline fill="none" stroke="#bfbfbf" points="92,-143.5 160,-143.5 "/>
<text text-anchor="middle" x="126" y="-131.5" font-family="Helvetica,sans-Serif" font-size="10.00"> </text>
<polyline fill="none" stroke="#bfbfbf" points="92,-124.5 160,-124.5 "/>
<text text-anchor="middle" x="126" y="-112.5" font-family="Helvetica,sans-Serif" font-size="10.00"> </text>
</g>
<!-- Node3&#45;&gt;Node1 -->
<g id="edge2" class="edge"><title>Node3&#45;&gt;Node1</title>
<path fill="none" stroke="#404040" d="M113.941,-105.398C109.048,-94.1988 103.309,-81.0624 98.0038,-68.9199"/>
<polygon fill="none" stroke="#404040" points="97.8967,-68.6746 91.8292,-64.7779 93.0925,-57.6783 99.1601,-61.575 97.8967,-68.6746"/>
<text text-anchor="middle" x="122.5" y="-79" font-family="Helvetica,sans-Serif" font-size="10.00"> +values</text>
</g>
</g>
</svg>
