<?xml version="1.0" encoding="UTF-8" standalone="no"?>
<!DOCTYPE svg PUBLIC "-//W3C//DTD SVG 1.1//EN"
 "http://www.w3.org/Graphics/SVG/1.1/DTD/svg11.dtd">
<!-- Generated by graphviz version 2.38.0 (20140413.2041)
 -->
<!-- Title: QuestManager Pages: 1 -->
<svg width="349pt" height="502pt"
 viewBox="0.00 0.00 348.50 502.00" xmlns="http://www.w3.org/2000/svg" xmlns:xlink="http://www.w3.org/1999/xlink">
<g id="graph0" class="graph" transform="scale(1 1) rotate(0) translate(4 498)">
<title>QuestManager</title>
<!-- Node1 -->
<g id="node1" class="node"><title>Node1</title>
<polygon fill="#bfbfbf" stroke="black" points="98.5,-0.5 98.5,-101.5 204.5,-101.5 204.5,-0.5 98.5,-0.5"/>
<text text-anchor="middle" x="151.5" y="-89.5" font-family="Helvetica,sans-Serif" font-size="10.00">QuestManager</text>
<polyline fill="none" stroke="black" points="98.5,-82.5 204.5,-82.5 "/>
<text text-anchor="middle" x="151.5" y="-70.5" font-family="Helvetica,sans-Serif" font-size="10.00"> </text>
<polyline fill="none" stroke="black" points="98.5,-63.5 204.5,-63.5 "/>
<text text-anchor="start" x="106.5" y="-51.5" font-family="Helvetica,sans-Serif" font-size="10.00">+ QuestManager()</text>
<text text-anchor="start" x="106.5" y="-40.5" font-family="Helvetica,sans-Serif" font-size="10.00">+ logQuestVariable()</text>
<text text-anchor="start" x="106.5" y="-29.5" font-family="Helvetica,sans-Serif" font-size="10.00">&#45; startQuest()</text>
<text text-anchor="start" x="106.5" y="-18.5" font-family="Helvetica,sans-Serif" font-size="10.00">&#45; questDefVal()</text>
<text text-anchor="start" x="106.5" y="-7.5" font-family="Helvetica,sans-Serif" font-size="10.00">&#45; startNewQuest()</text>
</g>
<!-- Node2 -->
<g id="node2" class="node"><title>Node2</title>
<polygon fill="none" stroke="#bfbfbf" points="0,-160.5 0,-228.5 115,-228.5 115,-160.5 0,-160.5"/>
<text text-anchor="start" x="8" y="-216.5" font-family="Helvetica,sans-Serif" font-size="10.00">IDictionary&lt; QuestDef,</text>
<text text-anchor="middle" x="57.5" y="-205.5" font-family="Helvetica,sans-Serif" font-size="10.00"> bool &gt;</text>
<polyline fill="none" stroke="#bfbfbf" points="0,-198.5 115,-198.5 "/>
<text text-anchor="middle" x="57.5" y="-186.5" font-family="Helvetica,sans-Serif" font-size="10.00"> </text>
<polyline fill="none" stroke="#bfbfbf" points="0,-179.5 115,-179.5 "/>
<text text-anchor="middle" x="57.5" y="-167.5" font-family="Helvetica,sans-Serif" font-size="10.00"> </text>
</g>
<!-- Node2&#45;&gt;Node1 -->
<g id="edge1" class="edge"><title>Node2&#45;&gt;Node1</title>
<path fill="none" stroke="#404040" d="M65.8186,-160.236C69.9641,-147.1 75.7739,-132.25 83.5,-120 85.7044,-116.505 88.1181,-113.05 90.6802,-109.66"/>
<polygon fill="none" stroke="#404040" points="90.7009,-109.635 91.3601,-102.454 98.2423,-100.3 97.583,-107.481 90.7009,-109.635"/>
<text text-anchor="middle" x="110.5" y="-123" font-family="Helvetica,sans-Serif" font-size="10.00"> +conditions</text>
</g>
<!-- Node3 -->
<g id="node3" class="node"><title>Node3</title>
<polygon fill="none" stroke="#bfbfbf" points="150,-315 150,-372 179,-372 179,-315 150,-315"/>
<text text-anchor="middle" x="164.5" y="-360" font-family="Helvetica,sans-Serif" font-size="10.00">int</text>
<polyline fill="none" stroke="#bfbfbf" points="150,-353 179,-353 "/>
<text text-anchor="middle" x="164.5" y="-341" font-family="Helvetica,sans-Serif" font-size="10.00"> </text>
<polyline fill="none" stroke="#bfbfbf" points="150,-334 179,-334 "/>
<text text-anchor="middle" x="164.5" y="-322" font-family="Helvetica,sans-Serif" font-size="10.00"> </text>
</g>
<!-- Node3&#45;&gt;Node1 -->
<g id="edge2" class="edge"><title>Node3&#45;&gt;Node1</title>
<path fill="none" stroke="#404040" d="M163.265,-314.909C161.209,-268.968 157.036,-175.712 154.254,-113.533"/>
<polygon fill="none" stroke="#404040" points="154.253,-113.523 149.989,-107.708 153.717,-101.535 157.981,-107.35 154.253,-113.523"/>
<text text-anchor="middle" x="184" y="-192" font-family="Helvetica,sans-Serif" font-size="10.00"> &#45;startTime</text>
</g>
<!-- Node4 -->
<g id="node4" class="node"><title>Node4</title>
<g id="a_node4"><a xlink:href="class_quest.html" target="_top" xlink:title="A class to store a whole quest, being a sequence of 3 QuestDefs Also stores a name of the quest...">
<polygon fill="none" stroke="black" points="216.5,-149.5 216.5,-239.5 318.5,-239.5 318.5,-149.5 216.5,-149.5"/>
<text text-anchor="middle" x="267.5" y="-227.5" font-family="Helvetica,sans-Serif" font-size="10.00">Quest</text>
<polyline fill="none" stroke="black" points="216.5,-220.5 318.5,-220.5 "/>
<text text-anchor="start" x="224.5" y="-208.5" font-family="Helvetica,sans-Serif" font-size="10.00">+ Main</text>
<text text-anchor="start" x="224.5" y="-197.5" font-family="Helvetica,sans-Serif" font-size="10.00">+ Side</text>
<text text-anchor="start" x="224.5" y="-186.5" font-family="Helvetica,sans-Serif" font-size="10.00">+ Cond</text>
<polyline fill="none" stroke="black" points="216.5,-179.5 318.5,-179.5 "/>
<text text-anchor="start" x="224.5" y="-167.5" font-family="Helvetica,sans-Serif" font-size="10.00">+ Quest()</text>
<text text-anchor="start" x="224.5" y="-156.5" font-family="Helvetica,sans-Serif" font-size="10.00">+ questCompleted()</text>
</a>
</g>
</g>
<!-- Node3&#45;&gt;Node4 -->
<g id="edge7" class="edge"><title>Node3&#45;&gt;Node4</title>
<path fill="none" stroke="#404040" d="M175.115,-314.978C182.383,-297.81 192.96,-275.694 205.5,-258 207.64,-254.98 209.931,-251.972 212.323,-249.001"/>
<polygon fill="none" stroke="#404040" points="212.484,-248.811 213.322,-241.649 220.255,-239.667 219.418,-246.829 212.484,-248.811"/>
<text text-anchor="middle" x="225" y="-277.5" font-family="Helvetica,sans-Serif" font-size="10.00"> +money</text>
<text text-anchor="middle" x="225" y="-266.5" font-family="Helvetica,sans-Serif" font-size="10.00">+exp</text>
</g>
<!-- Node4&#45;&gt;Node1 -->
<g id="edge3" class="edge"><title>Node4&#45;&gt;Node1</title>
<path fill="none" stroke="#404040" d="M231.115,-149.117C221.267,-137.104 210.449,-123.907 200.047,-111.219"/>
<polygon fill="none" stroke="#404040" points="199.805,-110.924 192.908,-108.82 192.197,-101.644 199.095,-103.748 199.805,-110.924"/>
<text text-anchor="middle" x="247.5" y="-123" font-family="Helvetica,sans-Serif" font-size="10.00"> &#45;chosenQuests</text>
</g>
<!-- Node5 -->
<g id="node5" class="node"><title>Node5</title>
<g id="a_node5"><a xlink:href="class_quest_def.html" target="_top" xlink:title="Class defining one quest condition (part of a sequence of 3 in Quest) ">
<polygon fill="none" stroke="black" points="203.5,-309.5 203.5,-377.5 275.5,-377.5 275.5,-309.5 203.5,-309.5"/>
<text text-anchor="middle" x="239.5" y="-365.5" font-family="Helvetica,sans-Serif" font-size="10.00">QuestDef</text>
<polyline fill="none" stroke="black" points="203.5,-358.5 275.5,-358.5 "/>
<text text-anchor="start" x="211.5" y="-346.5" font-family="Helvetica,sans-Serif" font-size="10.00">+ Type</text>
<text text-anchor="start" x="211.5" y="-335.5" font-family="Helvetica,sans-Serif" font-size="10.00">+ Data</text>
<polyline fill="none" stroke="black" points="203.5,-328.5 275.5,-328.5 "/>
<text text-anchor="start" x="211.5" y="-316.5" font-family="Helvetica,sans-Serif" font-size="10.00">+ QuestDef()</text>
</a>
</g>
</g>
<!-- Node5&#45;&gt;Node4 -->
<g id="edge4" class="edge"><title>Node5&#45;&gt;Node4</title>
<path fill="none" stroke="#404040" d="M245.854,-309.143C249.101,-292.097 253.139,-270.895 256.845,-251.437"/>
<polygon fill="none" stroke="#404040" points="256.855,-251.388 254.048,-244.746 259.1,-239.6 261.907,-246.243 256.855,-251.388"/>
<text text-anchor="middle" x="267" y="-283" font-family="Helvetica,sans-Serif" font-size="10.00"> &#45;side</text>
<text text-anchor="middle" x="267" y="-272" font-family="Helvetica,sans-Serif" font-size="10.00">&#45;main</text>
<text text-anchor="middle" x="267" y="-261" font-family="Helvetica,sans-Serif" font-size="10.00">&#45;cond</text>
</g>
<!-- Node6 -->
<g id="node6" class="node"><title>Node6</title>
<polygon fill="none" stroke="#bfbfbf" points="170.5,-425.5 170.5,-493.5 308.5,-493.5 308.5,-425.5 170.5,-425.5"/>
<text text-anchor="start" x="178.5" y="-481.5" font-family="Helvetica,sans-Serif" font-size="10.00">KeyValuePair&lt; questTypes,</text>
<text text-anchor="middle" x="239.5" y="-470.5" font-family="Helvetica,sans-Serif" font-size="10.00"> string &gt;</text>
<polyline fill="none" stroke="#bfbfbf" points="170.5,-463.5 308.5,-463.5 "/>
<text text-anchor="middle" x="239.5" y="-451.5" font-family="Helvetica,sans-Serif" font-size="10.00"> </text>
<polyline fill="none" stroke="#bfbfbf" points="170.5,-444.5 308.5,-444.5 "/>
<text text-anchor="middle" x="239.5" y="-432.5" font-family="Helvetica,sans-Serif" font-size="10.00"> </text>
</g>
<!-- Node6&#45;&gt;Node5 -->
<g id="edge5" class="edge"><title>Node6&#45;&gt;Node5</title>
<path fill="none" stroke="#404040" d="M239.5,-425.22C239.5,-414.099 239.5,-401.512 239.5,-389.642"/>
<polygon fill="none" stroke="#404040" points="239.5,-389.624 235.5,-383.624 239.5,-377.624 243.5,-383.624 239.5,-389.624"/>
<text text-anchor="middle" x="250.5" y="-399" font-family="Helvetica,sans-Serif" font-size="10.00"> &#45;pair</text>
</g>
<!-- Node7 -->
<g id="node7" class="node"><title>Node7</title>
<polygon fill="none" stroke="#bfbfbf" points="294,-315 294,-372 335,-372 335,-315 294,-315"/>
<text text-anchor="middle" x="314.5" y="-360" font-family="Helvetica,sans-Serif" font-size="10.00">string</text>
<polyline fill="none" stroke="#bfbfbf" points="294,-353 335,-353 "/>
<text text-anchor="middle" x="314.5" y="-341" font-family="Helvetica,sans-Serif" font-size="10.00"> </text>
<polyline fill="none" stroke="#bfbfbf" points="294,-334 335,-334 "/>
<text text-anchor="middle" x="314.5" y="-322" font-family="Helvetica,sans-Serif" font-size="10.00"> </text>
</g>
<!-- Node7&#45;&gt;Node4 -->
<g id="edge6" class="edge"><title>Node7&#45;&gt;Node4</title>
<path fill="none" stroke="#404040" d="M305.66,-314.85C299.934,-296.944 292.276,-272.992 285.323,-251.246"/>
<polygon fill="none" stroke="#404040" points="285.313,-251.212 279.676,-246.716 281.658,-239.782 287.296,-244.279 285.313,-251.212"/>
<text text-anchor="middle" x="319" y="-277.5" font-family="Helvetica,sans-Serif" font-size="10.00"> +location</text>
<text text-anchor="middle" x="319" y="-266.5" font-family="Helvetica,sans-Serif" font-size="10.00">+title</text>
</g>
</g>
</svg>
