<?xml version="1.0" encoding="UTF-8" standalone="no"?>
<!DOCTYPE svg PUBLIC "-//W3C//DTD SVG 1.1//EN"
 "http://www.w3.org/Graphics/SVG/1.1/DTD/svg11.dtd">
<!-- Generated by graphviz version 2.38.0 (20140413.2041)
 -->
<!-- Title: StandardAttack Pages: 1 -->
<svg width="913pt" height="1057pt"
 viewBox="0.00 0.00 912.50 1057.00" xmlns="http://www.w3.org/2000/svg" xmlns:xlink="http://www.w3.org/1999/xlink">
<g id="graph0" class="graph" transform="scale(1 1) rotate(0) translate(4 1053)">
<title>StandardAttack</title>
<!-- Node2 -->
<g id="node1" class="node"><title>Node2</title>
<polygon fill="#bfbfbf" stroke="black" points="317.5,-652 317.5,-720 416.5,-720 416.5,-652 317.5,-652"/>
<text text-anchor="middle" x="367" y="-708" font-family="Helvetica,sans-Serif" font-size="10.00">StandardAttack</text>
<polyline fill="none" stroke="black" points="317.5,-701 416.5,-701 "/>
<text text-anchor="middle" x="367" y="-689" font-family="Helvetica,sans-Serif" font-size="10.00"> </text>
<polyline fill="none" stroke="black" points="317.5,-682 416.5,-682 "/>
<text text-anchor="start" x="325.5" y="-670" font-family="Helvetica,sans-Serif" font-size="10.00">+ StandardAttack()</text>
<text text-anchor="start" x="325.5" y="-659" font-family="Helvetica,sans-Serif" font-size="10.00">+ performMove()</text>
</g>
<!-- Node3 -->
<g id="node2" class="node"><title>Node3</title>
<g id="a_node2"><a xlink:href="class_character_move.html" target="_top" xlink:title="Astract base class for character moves ">
<polygon fill="none" stroke="black" points="324,-853.5 324,-932.5 410,-932.5 410,-853.5 324,-853.5"/>
<text text-anchor="middle" x="367" y="-920.5" font-family="Helvetica,sans-Serif" font-size="10.00">CharacterMove</text>
<polyline fill="none" stroke="black" points="324,-913.5 410,-913.5 "/>
<text text-anchor="start" x="332" y="-901.5" font-family="Helvetica,sans-Serif" font-size="10.00">+ User</text>
<text text-anchor="start" x="332" y="-890.5" font-family="Helvetica,sans-Serif" font-size="10.00">+ Target</text>
<text text-anchor="start" x="332" y="-879.5" font-family="Helvetica,sans-Serif" font-size="10.00">+ Text</text>
<polyline fill="none" stroke="black" points="324,-872.5 410,-872.5 "/>
<text text-anchor="start" x="332" y="-860.5" font-family="Helvetica,sans-Serif" font-size="10.00">+ performMove()</text>
</a>
</g>
</g>
<!-- Node3&#45;&gt;Node2 -->
<g id="edge1" class="edge"><title>Node3&#45;&gt;Node2</title>
<path fill="none" stroke="midnightblue" d="M367,-843.129C367,-805.189 367,-753.604 367,-720.302"/>
<polygon fill="none" stroke="midnightblue" points="363.5,-843.441 367,-853.441 370.5,-843.441 363.5,-843.441"/>
</g>
<!-- Node7 -->
<g id="node6" class="node"><title>Node7</title>
<g id="a_node6"><a xlink:href="class_special_move.html" target="_top" xlink:title="Special move abstract base class that expands upon CharacterMove, adding magic properties ...">
<polygon fill="none" stroke="black" points="663,-635.5 663,-736.5 761,-736.5 761,-635.5 663,-635.5"/>
<text text-anchor="middle" x="712" y="-724.5" font-family="Helvetica,sans-Serif" font-size="10.00">SpecialMove</text>
<polyline fill="none" stroke="black" points="663,-717.5 761,-717.5 "/>
<text text-anchor="start" x="671" y="-705.5" font-family="Helvetica,sans-Serif" font-size="10.00">+ Magic</text>
<text text-anchor="start" x="671" y="-694.5" font-family="Helvetica,sans-Serif" font-size="10.00">+ Desc</text>
<text text-anchor="start" x="671" y="-683.5" font-family="Helvetica,sans-Serif" font-size="10.00">+ Special</text>
<polyline fill="none" stroke="black" points="663,-676.5 761,-676.5 "/>
<text text-anchor="start" x="671" y="-664.5" font-family="Helvetica,sans-Serif" font-size="10.00">+ setUp()</text>
<text text-anchor="start" x="671" y="-653.5" font-family="Helvetica,sans-Serif" font-size="10.00">+ decreaseMagic()</text>
<text text-anchor="start" x="671" y="-642.5" font-family="Helvetica,sans-Serif" font-size="10.00"># SpecialMove()</text>
</a>
</g>
</g>
<!-- Node3&#45;&gt;Node7 -->
<g id="edge7" class="edge"><title>Node3&#45;&gt;Node7</title>
<path fill="none" stroke="midnightblue" d="M419.161,-866.427C437.91,-856.918 459.089,-845.807 478,-835 543.106,-797.794 615.757,-750.975 662.581,-720.074"/>
<polygon fill="none" stroke="midnightblue" points="417.528,-863.331 410.174,-870.958 420.679,-869.582 417.528,-863.331"/>
</g>
<!-- Node4 -->
<g id="node3" class="node"><title>Node4</title>
<polygon fill="none" stroke="#bfbfbf" points="656.5,-991.5 656.5,-1048.5 697.5,-1048.5 697.5,-991.5 656.5,-991.5"/>
<text text-anchor="middle" x="677" y="-1036.5" font-family="Helvetica,sans-Serif" font-size="10.00">string</text>
<polyline fill="none" stroke="#bfbfbf" points="656.5,-1029.5 697.5,-1029.5 "/>
<text text-anchor="middle" x="677" y="-1017.5" font-family="Helvetica,sans-Serif" font-size="10.00"> </text>
<polyline fill="none" stroke="#bfbfbf" points="656.5,-1010.5 697.5,-1010.5 "/>
<text text-anchor="middle" x="677" y="-998.5" font-family="Helvetica,sans-Serif" font-size="10.00"> </text>
</g>
<!-- Node4&#45;&gt;Node3 -->
<g id="edge2" class="edge"><title>Node4&#45;&gt;Node3</title>
<path fill="none" stroke="#404040" d="M656.179,-1010.6C608.663,-991.445 490.968,-943.987 421.252,-915.876"/>
<polygon fill="none" stroke="#404040" points="421.205,-915.857 414.144,-917.323 410.076,-911.369 417.136,-909.903 421.205,-915.857"/>
<text text-anchor="middle" x="571.5" y="-959.5" font-family="Helvetica,sans-Serif" font-size="10.00"> #text</text>
</g>
<!-- Node5 -->
<g id="node4" class="node"><title>Node5</title>
<g id="a_node4"><a xlink:href="class_character.html" target="_top" xlink:title="Base abstract class for Enemy and Player to inherit from. Defines all shared variables, their constructor and their setters and getters ">
<polygon fill="none" stroke="black" points="484.5,-398.5 484.5,-576.5 579.5,-576.5 579.5,-398.5 484.5,-398.5"/>
<text text-anchor="middle" x="532" y="-564.5" font-family="Helvetica,sans-Serif" font-size="10.00">Character</text>
<polyline fill="none" stroke="black" points="484.5,-557.5 579.5,-557.5 "/>
<text text-anchor="start" x="492.5" y="-545.5" font-family="Helvetica,sans-Serif" font-size="10.00">+ Name</text>
<text text-anchor="start" x="492.5" y="-534.5" font-family="Helvetica,sans-Serif" font-size="10.00">+ Level</text>
<text text-anchor="start" x="492.5" y="-523.5" font-family="Helvetica,sans-Serif" font-size="10.00">+ Health</text>
<text text-anchor="start" x="492.5" y="-512.5" font-family="Helvetica,sans-Serif" font-size="10.00">+ Attack</text>
<text text-anchor="start" x="492.5" y="-501.5" font-family="Helvetica,sans-Serif" font-size="10.00">+ Defence</text>
<text text-anchor="start" x="492.5" y="-490.5" font-family="Helvetica,sans-Serif" font-size="10.00">+ MaximumMagic</text>
<text text-anchor="start" x="492.5" y="-479.5" font-family="Helvetica,sans-Serif" font-size="10.00">+ Magic</text>
<text text-anchor="start" x="492.5" y="-468.5" font-family="Helvetica,sans-Serif" font-size="10.00">+ Luck</text>
<text text-anchor="start" x="492.5" y="-457.5" font-family="Helvetica,sans-Serif" font-size="10.00">+ Speed</text>
<text text-anchor="start" x="492.5" y="-446.5" font-family="Helvetica,sans-Serif" font-size="10.00">+ Special1</text>
<text text-anchor="start" x="492.5" y="-435.5" font-family="Helvetica,sans-Serif" font-size="10.00">+ Special2</text>
<text text-anchor="start" x="492.5" y="-424.5" font-family="Helvetica,sans-Serif" font-size="10.00">+ Image</text>
<polyline fill="none" stroke="black" points="484.5,-417.5 579.5,-417.5 "/>
<text text-anchor="start" x="492.5" y="-405.5" font-family="Helvetica,sans-Serif" font-size="10.00"># Character()</text>
</a>
</g>
</g>
<!-- Node4&#45;&gt;Node5 -->
<g id="edge4" class="edge"><title>Node4&#45;&gt;Node5</title>
<path fill="none" stroke="#404040" d="M697.727,-1006.92C720.095,-992.543 754.463,-966.256 769,-933 782.262,-902.661 786.051,-663.961 770,-635 767.459,-630.415 659.816,-565.215 590.18,-523.357"/>
<polygon fill="none" stroke="#404040" points="590.062,-523.286 582.859,-523.625 579.775,-517.106 586.979,-516.767 590.062,-523.286"/>
<text text-anchor="middle" x="797.5" y="-792.5" font-family="Helvetica,sans-Serif" font-size="10.00"> #name</text>
</g>
<!-- Node4&#45;&gt;Node7 -->
<g id="edge8" class="edge"><title>Node4&#45;&gt;Node7</title>
<path fill="none" stroke="#404040" d="M677.645,-991.322C678.611,-958.315 680.899,-901.509 686,-853 689.649,-818.297 695.565,-779.781 700.832,-748.592"/>
<polygon fill="none" stroke="#404040" points="700.863,-748.413 697.933,-741.823 702.889,-736.585 705.818,-743.174 700.863,-748.413"/>
<text text-anchor="middle" x="701" y="-890.5" font-family="Helvetica,sans-Serif" font-size="10.00"> #desc</text>
</g>
<!-- Node10 -->
<g id="node9" class="node"><title>Node10</title>
<g id="a_node9"><a xlink:href="class_battle_manager.html" target="_top" xlink:title="Holds current Player and Enemy objects in battle and provides functions for MainBattle and other obje...">
<polygon fill="none" stroke="black" points="147,-0.5 147,-189.5 263,-189.5 263,-0.5 147,-0.5"/>
<text text-anchor="middle" x="205" y="-177.5" font-family="Helvetica,sans-Serif" font-size="10.00">BattleManager</text>
<polyline fill="none" stroke="black" points="147,-170.5 263,-170.5 "/>
<text text-anchor="start" x="155" y="-158.5" font-family="Helvetica,sans-Serif" font-size="10.00">+ Player</text>
<text text-anchor="start" x="155" y="-147.5" font-family="Helvetica,sans-Serif" font-size="10.00">+ Enemy</text>
<text text-anchor="start" x="155" y="-136.5" font-family="Helvetica,sans-Serif" font-size="10.00">+ WasCriticalHit</text>
<polyline fill="none" stroke="black" points="147,-129.5 263,-129.5 "/>
<text text-anchor="start" x="155" y="-117.5" font-family="Helvetica,sans-Serif" font-size="10.00">+ BattleManager()</text>
<text text-anchor="start" x="155" y="-106.5" font-family="Helvetica,sans-Serif" font-size="10.00">+ playerFirst()</text>
<text text-anchor="start" x="155" y="-95.5" font-family="Helvetica,sans-Serif" font-size="10.00">+ switchPlayers()</text>
<text text-anchor="start" x="155" y="-84.5" font-family="Helvetica,sans-Serif" font-size="10.00">+ isCriticalHit()</text>
<text text-anchor="start" x="155" y="-73.5" font-family="Helvetica,sans-Serif" font-size="10.00">+ ranAway()</text>
<text text-anchor="start" x="155" y="-62.5" font-family="Helvetica,sans-Serif" font-size="10.00">+ damageCalculation()</text>
<text text-anchor="start" x="155" y="-51.5" font-family="Helvetica,sans-Serif" font-size="10.00">+ enemyMove()</text>
<text text-anchor="start" x="155" y="-40.5" font-family="Helvetica,sans-Serif" font-size="10.00">+ enemySpecialMove()</text>
<text text-anchor="start" x="155" y="-29.5" font-family="Helvetica,sans-Serif" font-size="10.00">+ battleWon()</text>
<text text-anchor="start" x="155" y="-18.5" font-family="Helvetica,sans-Serif" font-size="10.00">+ playerFainted()</text>
<text text-anchor="start" x="155" y="-7.5" font-family="Helvetica,sans-Serif" font-size="10.00">&#45; characterFainted()</text>
</a>
</g>
</g>
<!-- Node4&#45;&gt;Node10 -->
<g id="edge13" class="edge"><title>Node4&#45;&gt;Node10</title>
<path fill="none" stroke="#404040" d="M656.369,-1017.43C542.909,-1008.56 0,-962.501 0,-894 0,-894 0,-894 0,-298 0,-219.917 76.3914,-161.891 135.909,-128.532"/>
<polygon fill="none" stroke="#404040" points="136.268,-128.336 139.621,-121.952 146.804,-122.591 143.451,-128.975 136.268,-128.336"/>
<text text-anchor="middle" x="42" y="-609" font-family="Helvetica,sans-Serif" font-size="10.00"> +forceEnemyMove</text>
<text text-anchor="middle" x="42" y="-598" font-family="Helvetica,sans-Serif" font-size="10.00">+forceCriticalHits</text>
</g>
<!-- Node14 -->
<g id="node13" class="node"><title>Node14</title>
<g id="a_node13"><a xlink:href="class_item.html" target="_top" xlink:title="Abstract class for items that can be equipped to a player, increasing some of their stats ...">
<polygon fill="none" stroke="black" points="827.5,-755.5 827.5,-834.5 904.5,-834.5 904.5,-755.5 827.5,-755.5"/>
<text text-anchor="middle" x="866" y="-822.5" font-family="Helvetica,sans-Serif" font-size="10.00">Item</text>
<polyline fill="none" stroke="black" points="827.5,-815.5 904.5,-815.5 "/>
<text text-anchor="start" x="835.5" y="-803.5" font-family="Helvetica,sans-Serif" font-size="10.00">+ Name</text>
<text text-anchor="start" x="835.5" y="-792.5" font-family="Helvetica,sans-Serif" font-size="10.00">+ Desc</text>
<polyline fill="none" stroke="black" points="827.5,-785.5 904.5,-785.5 "/>
<text text-anchor="start" x="835.5" y="-773.5" font-family="Helvetica,sans-Serif" font-size="10.00">+ applyBuffs()</text>
<text text-anchor="start" x="835.5" y="-762.5" font-family="Helvetica,sans-Serif" font-size="10.00">+ revertBuffs()</text>
</a>
</g>
</g>
<!-- Node4&#45;&gt;Node14 -->
<g id="edge22" class="edge"><title>Node4&#45;&gt;Node14</title>
<path fill="none" stroke="#404040" d="M697.768,-1016.86C725.406,-1012.93 774.136,-1002.1 803,-973 836.755,-938.971 852.516,-885.688 859.819,-846.467"/>
<polygon fill="none" stroke="#404040" points="859.838,-846.354 856.909,-839.765 861.865,-834.527 864.794,-841.116 859.838,-846.354"/>
<text text-anchor="middle" x="835" y="-965" font-family="Helvetica,sans-Serif" font-size="10.00"> #desc</text>
<text text-anchor="middle" x="835" y="-954" font-family="Helvetica,sans-Serif" font-size="10.00">#name</text>
</g>
<!-- Node5&#45;&gt;Node3 -->
<g id="edge3" class="edge"><title>Node5&#45;&gt;Node3</title>
<path fill="none" stroke="#404040" d="M484.478,-499.821C423.262,-517.243 319.35,-557.098 274,-635 234.56,-702.751 284.763,-790.096 325.329,-843.524"/>
<polygon fill="none" stroke="#404040" points="325.403,-843.619 332.243,-845.902 332.768,-853.094 325.927,-850.811 325.403,-843.619"/>
<text text-anchor="middle" x="291" y="-689" font-family="Helvetica,sans-Serif" font-size="10.00"> #target</text>
<text text-anchor="middle" x="291" y="-678" font-family="Helvetica,sans-Serif" font-size="10.00">#user</text>
</g>
<!-- Node11 -->
<g id="node10" class="node"><title>Node11</title>
<g id="a_node10"><a xlink:href="class_enemy.html" target="_top" xlink:title="Defines an AI controller enemy to fight in battle scenes">
<polygon fill="none" stroke="black" points="211.5,-270.5 211.5,-327.5 278.5,-327.5 278.5,-270.5 211.5,-270.5"/>
<text text-anchor="middle" x="245" y="-315.5" font-family="Helvetica,sans-Serif" font-size="10.00">Enemy</text>
<polyline fill="none" stroke="black" points="211.5,-308.5 278.5,-308.5 "/>
<text text-anchor="start" x="219.5" y="-296.5" font-family="Helvetica,sans-Serif" font-size="10.00">+ ExpGiven</text>
<polyline fill="none" stroke="black" points="211.5,-289.5 278.5,-289.5 "/>
<text text-anchor="start" x="219.5" y="-277.5" font-family="Helvetica,sans-Serif" font-size="10.00">+ Enemy()</text>
</a>
</g>
</g>
<!-- Node5&#45;&gt;Node11 -->
<g id="edge15" class="edge"><title>Node5&#45;&gt;Node11</title>
<path fill="none" stroke="midnightblue" d="M474.497,-466.452C421.544,-445.944 342.949,-410.131 287,-361 276.372,-351.668 267.123,-339.093 260.03,-327.785"/>
<polygon fill="none" stroke="midnightblue" points="473.484,-469.812 484.075,-470.103 475.977,-463.271 473.484,-469.812"/>
</g>
<!-- Node13 -->
<g id="node12" class="node"><title>Node13</title>
<g id="a_node12"><a xlink:href="class_player.html" target="_top" xlink:title="Defines a playable character for use in battle scenes">
<polygon fill="none" stroke="black" points="553,-237.5 553,-360.5 665,-360.5 665,-237.5 553,-237.5"/>
<text text-anchor="middle" x="609" y="-348.5" font-family="Helvetica,sans-Serif" font-size="10.00">Player</text>
<polyline fill="none" stroke="black" points="553,-341.5 665,-341.5 "/>
<text text-anchor="start" x="561" y="-329.5" font-family="Helvetica,sans-Serif" font-size="10.00">+ Exp</text>
<text text-anchor="start" x="561" y="-318.5" font-family="Helvetica,sans-Serif" font-size="10.00">+ Item</text>
<text text-anchor="start" x="561" y="-307.5" font-family="Helvetica,sans-Serif" font-size="10.00">+ ExpToNextLevel</text>
<polyline fill="none" stroke="black" points="553,-300.5 665,-300.5 "/>
<text text-anchor="start" x="561" y="-288.5" font-family="Helvetica,sans-Serif" font-size="10.00">+ Player()</text>
<text text-anchor="start" x="561" y="-277.5" font-family="Helvetica,sans-Serif" font-size="10.00">+ gainExp()</text>
<text text-anchor="start" x="561" y="-266.5" font-family="Helvetica,sans-Serif" font-size="10.00">+ levelUp()</text>
<text text-anchor="start" x="561" y="-255.5" font-family="Helvetica,sans-Serif" font-size="10.00">+ Clone()</text>
<text text-anchor="start" x="561" y="-244.5" font-family="Helvetica,sans-Serif" font-size="10.00">&#45; setExpToNextLevel()</text>
</a>
</g>
</g>
<!-- Node5&#45;&gt;Node13 -->
<g id="edge20" class="edge"><title>Node5&#45;&gt;Node13</title>
<path fill="none" stroke="midnightblue" d="M572.209,-389.11C576.225,-379.385 580.215,-369.72 584.005,-360.539"/>
<polygon fill="none" stroke="midnightblue" points="568.939,-387.859 568.358,-398.438 575.409,-390.531 568.939,-387.859"/>
</g>
<!-- Node6 -->
<g id="node5" class="node"><title>Node6</title>
<polygon fill="none" stroke="#bfbfbf" points="473.5,-864.5 473.5,-921.5 502.5,-921.5 502.5,-864.5 473.5,-864.5"/>
<text text-anchor="middle" x="488" y="-909.5" font-family="Helvetica,sans-Serif" font-size="10.00">int</text>
<polyline fill="none" stroke="#bfbfbf" points="473.5,-902.5 502.5,-902.5 "/>
<text text-anchor="middle" x="488" y="-890.5" font-family="Helvetica,sans-Serif" font-size="10.00"> </text>
<polyline fill="none" stroke="#bfbfbf" points="473.5,-883.5 502.5,-883.5 "/>
<text text-anchor="middle" x="488" y="-871.5" font-family="Helvetica,sans-Serif" font-size="10.00"> </text>
</g>
<!-- Node6&#45;&gt;Node2 -->
<g id="edge24" class="edge"><title>Node6&#45;&gt;Node2</title>
<path fill="none" stroke="#404040" d="M473.405,-867.272C453.456,-833.475 417.354,-772.31 392.789,-730.692"/>
<polygon fill="none" stroke="#404040" points="392.754,-730.633 386.26,-727.5 386.655,-720.299 393.149,-723.433 392.754,-730.633"/>
<text text-anchor="middle" x="469" y="-792.5" font-family="Helvetica,sans-Serif" font-size="10.00"> &#45;power</text>
</g>
<!-- Node6&#45;&gt;Node5 -->
<g id="edge5" class="edge"><title>Node6&#45;&gt;Node5</title>
<path fill="none" stroke="#404040" d="M491.025,-864.286C496.437,-814.689 508.137,-707.474 518,-617 519,-607.824 520.041,-598.279 521.082,-588.721"/>
<polygon fill="none" stroke="#404040" points="521.1,-588.563 517.773,-582.165 522.4,-576.633 525.726,-583.031 521.1,-588.563"/>
<text text-anchor="middle" x="553.5" y="-722" font-family="Helvetica,sans-Serif" font-size="10.00"> #speed</text>
<text text-anchor="middle" x="553.5" y="-711" font-family="Helvetica,sans-Serif" font-size="10.00">#luck</text>
<text text-anchor="middle" x="553.5" y="-700" font-family="Helvetica,sans-Serif" font-size="10.00">#health</text>
<text text-anchor="middle" x="553.5" y="-689" font-family="Helvetica,sans-Serif" font-size="10.00">#magic</text>
<text text-anchor="middle" x="553.5" y="-678" font-family="Helvetica,sans-Serif" font-size="10.00">#maximumMagic</text>
<text text-anchor="middle" x="553.5" y="-667" font-family="Helvetica,sans-Serif" font-size="10.00">#attack</text>
<text text-anchor="middle" x="553.5" y="-656" font-family="Helvetica,sans-Serif" font-size="10.00">#defence</text>
<text text-anchor="middle" x="553.5" y="-645" font-family="Helvetica,sans-Serif" font-size="10.00">#level</text>
</g>
<!-- Node6&#45;&gt;Node7 -->
<g id="edge10" class="edge"><title>Node6&#45;&gt;Node7</title>
<path fill="none" stroke="#404040" d="M502.741,-889.432C528.888,-884.096 583.411,-869.324 613,-835 637.156,-806.979 616.335,-786.337 636,-755 641.029,-746.986 647.27,-739.355 653.998,-732.296"/>
<polygon fill="none" stroke="#404040" points="654.188,-732.108 655.646,-725.046 662.726,-723.675 661.268,-730.737 654.188,-732.108"/>
<text text-anchor="middle" x="653.5" y="-792.5" font-family="Helvetica,sans-Serif" font-size="10.00"> #magic</text>
</g>
<!-- Node6&#45;&gt;Node10 -->
<g id="edge17" class="edge"><title>Node6&#45;&gt;Node10</title>
<path fill="none" stroke="#404040" d="M473.454,-881.513C460.011,-872.389 439.13,-859.62 419,-853 356.054,-832.298 323.664,-875.214 271,-835 257.771,-824.898 181,-623.824 181,-607 181,-607 181,-607 181,-298 181,-266.589 183.897,-232.62 187.678,-201.664"/>
<polygon fill="none" stroke="#404040" points="187.71,-201.412 184.5,-194.955 189.226,-189.508 192.436,-195.965 187.71,-201.412"/>
<text text-anchor="middle" x="200.5" y="-485" font-family="Helvetica,sans-Serif" font-size="10.00"> +money</text>
</g>
<!-- Node6&#45;&gt;Node11 -->
<g id="edge16" class="edge"><title>Node6&#45;&gt;Node11</title>
<path fill="none" stroke="#404040" d="M473.363,-883.306C424.384,-854.069 268.591,-759.859 256,-737 218.849,-669.554 233.683,-434.457 241.431,-339.869"/>
<polygon fill="none" stroke="#404040" points="241.445,-339.704 237.961,-333.39 242.449,-327.746 245.933,-334.06 241.445,-339.704"/>
<text text-anchor="middle" x="257" y="-603.5" font-family="Helvetica,sans-Serif" font-size="10.00"> &#45;expGiven</text>
</g>
<!-- Node6&#45;&gt;Node13 -->
<g id="edge23" class="edge"><title>Node6&#45;&gt;Node13</title>
<path fill="none" stroke="#404040" d="M502.609,-876.257C526.285,-849.754 572.636,-793.559 595,-737 642.718,-616.322 632.946,-461.935 621.189,-372.681"/>
<polygon fill="none" stroke="#404040" points="621.153,-372.418 616.375,-367.017 619.522,-360.529 624.3,-365.93 621.153,-372.418"/>
<text text-anchor="middle" x="664.5" y="-609" font-family="Helvetica,sans-Serif" font-size="10.00"> &#45;expToNextLevel</text>
<text text-anchor="middle" x="664.5" y="-598" font-family="Helvetica,sans-Serif" font-size="10.00">&#45;exp</text>
</g>
<!-- Node7&#45;&gt;Node5 -->
<g id="edge6" class="edge"><title>Node7&#45;&gt;Node5</title>
<path fill="none" stroke="#404040" d="M662.982,-659.957C646.564,-651.778 628.088,-642.797 611,-635 592.151,-626.4 581.719,-632.524 568,-617 560.428,-608.432 554.437,-598.391 549.7,-587.764"/>
<polygon fill="none" stroke="#404040" points="549.658,-587.657 543.716,-583.571 545.203,-576.514 551.145,-580.601 549.658,-587.657"/>
<text text-anchor="middle" x="590.5" y="-609" font-family="Helvetica,sans-Serif" font-size="10.00"> #special1</text>
<text text-anchor="middle" x="590.5" y="-598" font-family="Helvetica,sans-Serif" font-size="10.00">#special2</text>
</g>
<!-- Node8 -->
<g id="node7" class="node"><title>Node8</title>
<polygon fill="none" stroke="#bfbfbf" points="725.5,-864.5 725.5,-921.5 760.5,-921.5 760.5,-864.5 725.5,-864.5"/>
<text text-anchor="middle" x="743" y="-909.5" font-family="Helvetica,sans-Serif" font-size="10.00">float</text>
<polyline fill="none" stroke="#bfbfbf" points="725.5,-902.5 760.5,-902.5 "/>
<text text-anchor="middle" x="743" y="-890.5" font-family="Helvetica,sans-Serif" font-size="10.00"> </text>
<polyline fill="none" stroke="#bfbfbf" points="725.5,-883.5 760.5,-883.5 "/>
<text text-anchor="middle" x="743" y="-871.5" font-family="Helvetica,sans-Serif" font-size="10.00"> </text>
</g>
<!-- Node8&#45;&gt;Node7 -->
<g id="edge9" class="edge"><title>Node8&#45;&gt;Node7</title>
<path fill="none" stroke="#404040" d="M734.216,-864.396C731.547,-855.134 728.838,-844.695 727,-835 721.685,-806.961 718.164,-775.554 715.878,-748.909"/>
<polygon fill="none" stroke="#404040" points="715.853,-748.601 711.381,-742.945 714.883,-736.641 719.355,-742.298 715.853,-748.601"/>
<text text-anchor="middle" x="747" y="-792.5" font-family="Helvetica,sans-Serif" font-size="10.00"> #special</text>
</g>
<!-- Node9 -->
<g id="node8" class="node"><title>Node9</title>
<polygon fill="none" stroke="#bfbfbf" points="434.5,-657.5 434.5,-714.5 495.5,-714.5 495.5,-657.5 434.5,-657.5"/>
<text text-anchor="middle" x="465" y="-702.5" font-family="Helvetica,sans-Serif" font-size="10.00">Texture2D</text>
<polyline fill="none" stroke="#bfbfbf" points="434.5,-695.5 495.5,-695.5 "/>
<text text-anchor="middle" x="465" y="-683.5" font-family="Helvetica,sans-Serif" font-size="10.00"> </text>
<polyline fill="none" stroke="#bfbfbf" points="434.5,-676.5 495.5,-676.5 "/>
<text text-anchor="middle" x="465" y="-664.5" font-family="Helvetica,sans-Serif" font-size="10.00"> </text>
</g>
<!-- Node9&#45;&gt;Node5 -->
<g id="edge11" class="edge"><title>Node9&#45;&gt;Node5</title>
<path fill="none" stroke="#404040" d="M468.805,-657.399C471.708,-639.367 476.35,-615.458 483,-595 483.731,-592.75 484.498,-590.485 485.294,-588.21"/>
<polygon fill="none" stroke="#404040" points="485.353,-588.048 483.674,-581.035 489.502,-576.788 491.181,-583.801 485.353,-588.048"/>
<text text-anchor="middle" x="500.5" y="-603.5" font-family="Helvetica,sans-Serif" font-size="10.00"> #image</text>
</g>
<!-- Node10&#45;&gt;Node3 -->
<g id="edge12" class="edge"><title>Node10&#45;&gt;Node3</title>
<path fill="none" stroke="#404040" d="M146.728,-166.679C122.097,-203.514 99,-250.672 99,-298 99,-687 99,-687 99,-687 99,-793.423 233.971,-852.039 312.345,-877.106"/>
<polygon fill="none" stroke="#404040" points="312.48,-877.147 319.396,-875.105 323.941,-880.703 317.025,-882.745 312.48,-877.147"/>
<text text-anchor="middle" x="122" y="-485" font-family="Helvetica,sans-Serif" font-size="10.00"> #manager</text>
</g>
<!-- Node11&#45;&gt;Node10 -->
<g id="edge14" class="edge"><title>Node11&#45;&gt;Node10</title>
<path fill="none" stroke="#404040" d="M239.522,-270.336C235.92,-252.147 230.955,-227.072 225.912,-201.606"/>
<polygon fill="none" stroke="#404040" points="225.847,-201.275 220.757,-196.166 223.516,-189.503 228.605,-194.612 225.847,-201.275"/>
<text text-anchor="middle" x="247" y="-211" font-family="Helvetica,sans-Serif" font-size="10.00"> &#45;enemy</text>
</g>
<!-- Node12 -->
<g id="node11" class="node"><title>Node12</title>
<polygon fill="none" stroke="#bfbfbf" points="296.5,-270.5 296.5,-327.5 331.5,-327.5 331.5,-270.5 296.5,-270.5"/>
<text text-anchor="middle" x="314" y="-315.5" font-family="Helvetica,sans-Serif" font-size="10.00">bool</text>
<polyline fill="none" stroke="#bfbfbf" points="296.5,-308.5 331.5,-308.5 "/>
<text text-anchor="middle" x="314" y="-296.5" font-family="Helvetica,sans-Serif" font-size="10.00"> </text>
<polyline fill="none" stroke="#bfbfbf" points="296.5,-289.5 331.5,-289.5 "/>
<text text-anchor="middle" x="314" y="-277.5" font-family="Helvetica,sans-Serif" font-size="10.00"> </text>
</g>
<!-- Node12&#45;&gt;Node10 -->
<g id="edge18" class="edge"><title>Node12&#45;&gt;Node10</title>
<path fill="none" stroke="#404040" d="M302.536,-270.37C297.956,-259.808 292.473,-247.729 287,-237 280.879,-225.001 274.202,-212.594 267.386,-200.343"/>
<polygon fill="none" stroke="#404040" points="267.247,-200.096 260.822,-196.822 261.372,-189.632 267.797,-192.905 267.247,-200.096"/>
<text text-anchor="middle" x="310" y="-211" font-family="Helvetica,sans-Serif" font-size="10.00"> &#45;wasCriticalHit</text>
</g>
<!-- Node13&#45;&gt;Node10 -->
<g id="edge19" class="edge"><title>Node13&#45;&gt;Node10</title>
<path fill="none" stroke="#404040" d="M552.826,-269.913C479.936,-233.468 352.804,-169.902 274.089,-130.544"/>
<polygon fill="none" stroke="#404040" points="274.047,-130.523 266.891,-131.418 263.314,-125.157 270.469,-124.262 274.047,-130.523"/>
<text text-anchor="middle" x="460.5" y="-211" font-family="Helvetica,sans-Serif" font-size="10.00"> &#45;player</text>
</g>
<!-- Node14&#45;&gt;Node13 -->
<g id="edge21" class="edge"><title>Node14&#45;&gt;Node13</title>
<path fill="none" stroke="#404040" d="M857.147,-755.411C846.982,-714.43 828.382,-648.338 803,-595 764.22,-513.507 705.877,-428.174 663.301,-370.374"/>
<polygon fill="none" stroke="#404040" points="663.222,-370.266 656.435,-367.827 656.077,-360.625 662.863,-363.064 663.222,-370.266"/>
<text text-anchor="middle" x="825.5" y="-603.5" font-family="Helvetica,sans-Serif" font-size="10.00"> &#45;item</text>
</g>
</g>
</svg>
