<?xml version="1.0" encoding="UTF-8" standalone="no"?>
<!DOCTYPE svg PUBLIC "-//W3C//DTD SVG 1.1//EN"
 "http://www.w3.org/Graphics/SVG/1.1/DTD/svg11.dtd">
<!-- Generated by graphviz version 2.38.0 (20140413.2041)
 -->
<!-- Title: ItemsMenuScript Pages: 1 -->
<svg width="1120pt" height="1484pt"
 viewBox="0.00 0.00 1119.50 1484.00" xmlns="http://www.w3.org/2000/svg" xmlns:xlink="http://www.w3.org/1999/xlink">
<g id="graph0" class="graph" transform="scale(1 1) rotate(0) translate(4 1480)">
<title>ItemsMenuScript</title>
<!-- Node2 -->
<g id="node1" class="node"><title>Node2</title>
<polygon fill="#bfbfbf" stroke="black" points="275,-481.5 275,-582.5 384,-582.5 384,-481.5 275,-481.5"/>
<text text-anchor="middle" x="329.5" y="-570.5" font-family="Helvetica,sans-Serif" font-size="10.00">ItemsMenuScript</text>
<polyline fill="none" stroke="black" points="275,-563.5 384,-563.5 "/>
<text text-anchor="middle" x="329.5" y="-551.5" font-family="Helvetica,sans-Serif" font-size="10.00"> </text>
<polyline fill="none" stroke="black" points="275,-544.5 384,-544.5 "/>
<text text-anchor="start" x="283" y="-532.5" font-family="Helvetica,sans-Serif" font-size="10.00">+ OnItemPlace()</text>
<text text-anchor="start" x="283" y="-521.5" font-family="Helvetica,sans-Serif" font-size="10.00">+ back()</text>
<text text-anchor="start" x="283" y="-510.5" font-family="Helvetica,sans-Serif" font-size="10.00">&#45; Start()</text>
<text text-anchor="start" x="283" y="-499.5" font-family="Helvetica,sans-Serif" font-size="10.00">&#45; updatePlayerStats()</text>
<text text-anchor="start" x="283" y="-488.5" font-family="Helvetica,sans-Serif" font-size="10.00">&#45; createItemCell()</text>
</g>
<!-- Node3 -->
<g id="node2" class="node"><title>Node3</title>
<g id="a_node2"><a xlink:href="class_mono_behaviour.html" target="_top" xlink:title="{MonoBehaviour\n||}">
<polygon fill="none" stroke="black" points="67,-850.5 67,-907.5 150,-907.5 150,-850.5 67,-850.5"/>
<text text-anchor="middle" x="108.5" y="-895.5" font-family="Helvetica,sans-Serif" font-size="10.00">MonoBehaviour</text>
<polyline fill="none" stroke="black" points="67,-888.5 150,-888.5 "/>
<text text-anchor="middle" x="108.5" y="-876.5" font-family="Helvetica,sans-Serif" font-size="10.00"> </text>
<polyline fill="none" stroke="black" points="67,-869.5 150,-869.5 "/>
<text text-anchor="middle" x="108.5" y="-857.5" font-family="Helvetica,sans-Serif" font-size="10.00"> </text>
</a>
</g>
</g>
<!-- Node3&#45;&gt;Node2 -->
<g id="edge1" class="edge"><title>Node3&#45;&gt;Node2</title>
<path fill="none" stroke="midnightblue" d="M114.357,-840.182C121.163,-804.058 134.764,-749.043 159.5,-707 189.482,-656.04 237.514,-608.779 274.886,-576.412"/>
<polygon fill="none" stroke="midnightblue" points="110.863,-839.836 112.536,-850.297 117.753,-841.076 110.863,-839.836"/>
</g>
<!-- Node4 -->
<g id="node3" class="node"><title>Node4</title>
<g id="a_node3"><a xlink:href="class_item.html" target="_top" xlink:title="Abstract class for items that can be equipped to a player, increasing some of their stats ...">
<polygon fill="none" stroke="black" points="0,-1280.5 0,-1359.5 77,-1359.5 77,-1280.5 0,-1280.5"/>
<text text-anchor="middle" x="38.5" y="-1347.5" font-family="Helvetica,sans-Serif" font-size="10.00">Item</text>
<polyline fill="none" stroke="black" points="0,-1340.5 77,-1340.5 "/>
<text text-anchor="start" x="8" y="-1328.5" font-family="Helvetica,sans-Serif" font-size="10.00">+ Name</text>
<text text-anchor="start" x="8" y="-1317.5" font-family="Helvetica,sans-Serif" font-size="10.00">+ Desc</text>
<polyline fill="none" stroke="black" points="0,-1310.5 77,-1310.5 "/>
<text text-anchor="start" x="8" y="-1298.5" font-family="Helvetica,sans-Serif" font-size="10.00">+ applyBuffs()</text>
<text text-anchor="start" x="8" y="-1287.5" font-family="Helvetica,sans-Serif" font-size="10.00">+ revertBuffs()</text>
</a>
</g>
</g>
<!-- Node4&#45;&gt;Node2 -->
<g id="edge2" class="edge"><title>Node4&#45;&gt;Node2</title>
<path fill="none" stroke="#404040" d="M29.9057,-1280.18C9.70174,-1179.87 -32.6196,-905.993 57.5,-707 95.3205,-623.488 195.822,-575.666 263.486,-552.016"/>
<polygon fill="none" stroke="#404040" points="263.516,-552.006 267.914,-546.291 274.881,-548.152 270.483,-553.867 263.516,-552.006"/>
<text text-anchor="middle" x="20" y="-1072" font-family="Helvetica,sans-Serif" font-size="10.00"> &#45;items</text>
</g>
<!-- Node8 -->
<g id="node7" class="node"><title>Node8</title>
<g id="a_node7"><a xlink:href="class_player.html" target="_top" xlink:title="Defines a playable character for use in battle scenes">
<polygon fill="none" stroke="black" points="514.5,-1098.5 514.5,-1221.5 626.5,-1221.5 626.5,-1098.5 514.5,-1098.5"/>
<text text-anchor="middle" x="570.5" y="-1209.5" font-family="Helvetica,sans-Serif" font-size="10.00">Player</text>
<polyline fill="none" stroke="black" points="514.5,-1202.5 626.5,-1202.5 "/>
<text text-anchor="start" x="522.5" y="-1190.5" font-family="Helvetica,sans-Serif" font-size="10.00">+ Exp</text>
<text text-anchor="start" x="522.5" y="-1179.5" font-family="Helvetica,sans-Serif" font-size="10.00">+ Item</text>
<text text-anchor="start" x="522.5" y="-1168.5" font-family="Helvetica,sans-Serif" font-size="10.00">+ ExpToNextLevel</text>
<polyline fill="none" stroke="black" points="514.5,-1161.5 626.5,-1161.5 "/>
<text text-anchor="start" x="522.5" y="-1149.5" font-family="Helvetica,sans-Serif" font-size="10.00">+ Player()</text>
<text text-anchor="start" x="522.5" y="-1138.5" font-family="Helvetica,sans-Serif" font-size="10.00">+ gainExp()</text>
<text text-anchor="start" x="522.5" y="-1127.5" font-family="Helvetica,sans-Serif" font-size="10.00">+ levelUp()</text>
<text text-anchor="start" x="522.5" y="-1116.5" font-family="Helvetica,sans-Serif" font-size="10.00">+ Clone()</text>
<text text-anchor="start" x="522.5" y="-1105.5" font-family="Helvetica,sans-Serif" font-size="10.00">&#45; setExpToNextLevel()</text>
</a>
</g>
</g>
<!-- Node4&#45;&gt;Node8 -->
<g id="edge26" class="edge"><title>Node4&#45;&gt;Node8</title>
<path fill="none" stroke="#404040" d="M77.0857,-1309.34C142.535,-1292.75 279.335,-1257.23 393.5,-1222 429.736,-1210.82 469.707,-1197.16 502.482,-1185.6"/>
<polygon fill="none" stroke="#404040" points="502.9,-1185.45 507.22,-1179.68 514.211,-1181.45 509.891,-1187.22 502.9,-1185.45"/>
<text text-anchor="middle" x="339" y="-1248.5" font-family="Helvetica,sans-Serif" font-size="10.00"> &#45;item</text>
</g>
<!-- Node18 -->
<g id="node17" class="node"><title>Node18</title>
<g id="a_node17"><a xlink:href="class_data_manager.html" target="_top" xlink:title="An object to store all player data including players, items and money and provide useful functions ...">
<polygon fill="none" stroke="black" points="168.5,-707.5 168.5,-1050.5 320.5,-1050.5 320.5,-707.5 168.5,-707.5"/>
<text text-anchor="middle" x="244.5" y="-1038.5" font-family="Helvetica,sans-Serif" font-size="10.00">DataManager</text>
<polyline fill="none" stroke="black" points="168.5,-1031.5 320.5,-1031.5 "/>
<text text-anchor="start" x="176.5" y="-1019.5" font-family="Helvetica,sans-Serif" font-size="10.00">+ Players</text>
<text text-anchor="start" x="176.5" y="-1008.5" font-family="Helvetica,sans-Serif" font-size="10.00">+ Items</text>
<text text-anchor="start" x="176.5" y="-997.5" font-family="Helvetica,sans-Serif" font-size="10.00">+ Money</text>
<polyline fill="none" stroke="black" points="168.5,-990.5 320.5,-990.5 "/>
<text text-anchor="start" x="176.5" y="-978.5" font-family="Helvetica,sans-Serif" font-size="10.00">+ DataManager()</text>
<text text-anchor="start" x="176.5" y="-967.5" font-family="Helvetica,sans-Serif" font-size="10.00">+ DataManager()</text>
<text text-anchor="start" x="176.5" y="-956.5" font-family="Helvetica,sans-Serif" font-size="10.00">+ getFirstPlayer()</text>
<text text-anchor="start" x="176.5" y="-945.5" font-family="Helvetica,sans-Serif" font-size="10.00">+ getPlayerIndex()</text>
<text text-anchor="start" x="176.5" y="-934.5" font-family="Helvetica,sans-Serif" font-size="10.00">+ getAlivePlayer()</text>
<text text-anchor="start" x="176.5" y="-923.5" font-family="Helvetica,sans-Serif" font-size="10.00">+ playersAlive()</text>
<text text-anchor="start" x="176.5" y="-912.5" font-family="Helvetica,sans-Serif" font-size="10.00">+ addPlayer()</text>
<text text-anchor="start" x="176.5" y="-901.5" font-family="Helvetica,sans-Serif" font-size="10.00">+ swapPlayers()</text>
<text text-anchor="start" x="176.5" y="-890.5" font-family="Helvetica,sans-Serif" font-size="10.00">+ addItem()</text>
<text text-anchor="start" x="176.5" y="-879.5" font-family="Helvetica,sans-Serif" font-size="10.00">+ countItems()</text>
<text text-anchor="start" x="176.5" y="-868.5" font-family="Helvetica,sans-Serif" font-size="10.00">+ giveExpToAll()</text>
<text text-anchor="start" x="176.5" y="-857.5" font-family="Helvetica,sans-Serif" font-size="10.00">+ Save()</text>
<text text-anchor="start" x="176.5" y="-846.5" font-family="Helvetica,sans-Serif" font-size="10.00">+ Load()</text>
<text text-anchor="start" x="176.5" y="-835.5" font-family="Helvetica,sans-Serif" font-size="10.00">+ PlayerToSerializable()</text>
<text text-anchor="start" x="176.5" y="-824.5" font-family="Helvetica,sans-Serif" font-size="10.00">+ SerializableToPLayer()</text>
<text text-anchor="start" x="176.5" y="-813.5" font-family="Helvetica,sans-Serif" font-size="10.00">+ ItemToSerializable()</text>
<text text-anchor="start" x="176.5" y="-802.5" font-family="Helvetica,sans-Serif" font-size="10.00">+ SerializableToItem()</text>
<text text-anchor="start" x="176.5" y="-791.5" font-family="Helvetica,sans-Serif" font-size="10.00">+ SpecialMoveToSerializable()</text>
<text text-anchor="start" x="176.5" y="-780.5" font-family="Helvetica,sans-Serif" font-size="10.00">+ SerializableToSpecialMove()</text>
<text text-anchor="start" x="176.5" y="-769.5" font-family="Helvetica,sans-Serif" font-size="10.00">+ ObjectsActiveToSerializable()</text>
<text text-anchor="start" x="176.5" y="-758.5" font-family="Helvetica,sans-Serif" font-size="10.00">+ SerializableToObjectsActive()</text>
<text text-anchor="start" x="176.5" y="-747.5" font-family="Helvetica,sans-Serif" font-size="10.00">+ Texture2DToSerializable()</text>
<text text-anchor="start" x="176.5" y="-736.5" font-family="Helvetica,sans-Serif" font-size="10.00">+ SerializableToTexture2D()</text>
<text text-anchor="start" x="176.5" y="-725.5" font-family="Helvetica,sans-Serif" font-size="10.00">+ VectorToSerializable()</text>
<text text-anchor="start" x="176.5" y="-714.5" font-family="Helvetica,sans-Serif" font-size="10.00">+ SerializableToVector()</text>
</a>
</g>
</g>
<!-- Node4&#45;&gt;Node18 -->
<g id="edge29" class="edge"><title>Node4&#45;&gt;Node18</title>
<path fill="none" stroke="#404040" d="M56.6006,-1280.43C80.4909,-1229.51 124.114,-1136.55 163.318,-1053"/>
<polygon fill="none" stroke="#404040" points="163.348,-1052.94 162.276,-1045.81 168.446,-1042.08 169.518,-1049.21 163.348,-1052.94"/>
<text text-anchor="middle" x="157" y="-1157.5" font-family="Helvetica,sans-Serif" font-size="10.00"> &#45;items</text>
</g>
<!-- Node5 -->
<g id="node4" class="node"><title>Node5</title>
<polygon fill="none" stroke="#bfbfbf" points="838,-1418.5 838,-1475.5 879,-1475.5 879,-1418.5 838,-1418.5"/>
<text text-anchor="middle" x="858.5" y="-1463.5" font-family="Helvetica,sans-Serif" font-size="10.00">string</text>
<polyline fill="none" stroke="#bfbfbf" points="838,-1456.5 879,-1456.5 "/>
<text text-anchor="middle" x="858.5" y="-1444.5" font-family="Helvetica,sans-Serif" font-size="10.00"> </text>
<polyline fill="none" stroke="#bfbfbf" points="838,-1437.5 879,-1437.5 "/>
<text text-anchor="middle" x="858.5" y="-1425.5" font-family="Helvetica,sans-Serif" font-size="10.00"> </text>
</g>
<!-- Node5&#45;&gt;Node4 -->
<g id="edge3" class="edge"><title>Node5&#45;&gt;Node4</title>
<path fill="none" stroke="#404040" d="M837.825,-1446.21C718.784,-1447.21 123.906,-1449.7 61.5,-1400 52.5557,-1392.88 46.9561,-1382.48 43.4841,-1371.56"/>
<polygon fill="none" stroke="#404040" points="43.412,-1371.27 38.073,-1366.43 40.494,-1359.63 45.8329,-1364.48 43.412,-1371.27"/>
<text text-anchor="middle" x="76.5" y="-1392" font-family="Helvetica,sans-Serif" font-size="10.00"> #desc</text>
<text text-anchor="middle" x="76.5" y="-1381" font-family="Helvetica,sans-Serif" font-size="10.00">#name</text>
</g>
<!-- Node9 -->
<g id="node8" class="node"><title>Node9</title>
<g id="a_node8"><a xlink:href="class_character.html" target="_top" xlink:title="Base abstract class for Enemy and Player to inherit from. Defines all shared variables, their constructor and their setters and getters ">
<polygon fill="none" stroke="black" points="780,-95.5 780,-273.5 875,-273.5 875,-95.5 780,-95.5"/>
<text text-anchor="middle" x="827.5" y="-261.5" font-family="Helvetica,sans-Serif" font-size="10.00">Character</text>
<polyline fill="none" stroke="black" points="780,-254.5 875,-254.5 "/>
<text text-anchor="start" x="788" y="-242.5" font-family="Helvetica,sans-Serif" font-size="10.00">+ Name</text>
<text text-anchor="start" x="788" y="-231.5" font-family="Helvetica,sans-Serif" font-size="10.00">+ Level</text>
<text text-anchor="start" x="788" y="-220.5" font-family="Helvetica,sans-Serif" font-size="10.00">+ Health</text>
<text text-anchor="start" x="788" y="-209.5" font-family="Helvetica,sans-Serif" font-size="10.00">+ Attack</text>
<text text-anchor="start" x="788" y="-198.5" font-family="Helvetica,sans-Serif" font-size="10.00">+ Defence</text>
<text text-anchor="start" x="788" y="-187.5" font-family="Helvetica,sans-Serif" font-size="10.00">+ MaximumMagic</text>
<text text-anchor="start" x="788" y="-176.5" font-family="Helvetica,sans-Serif" font-size="10.00">+ Magic</text>
<text text-anchor="start" x="788" y="-165.5" font-family="Helvetica,sans-Serif" font-size="10.00">+ Luck</text>
<text text-anchor="start" x="788" y="-154.5" font-family="Helvetica,sans-Serif" font-size="10.00">+ Speed</text>
<text text-anchor="start" x="788" y="-143.5" font-family="Helvetica,sans-Serif" font-size="10.00">+ Special1</text>
<text text-anchor="start" x="788" y="-132.5" font-family="Helvetica,sans-Serif" font-size="10.00">+ Special2</text>
<text text-anchor="start" x="788" y="-121.5" font-family="Helvetica,sans-Serif" font-size="10.00">+ Image</text>
<polyline fill="none" stroke="black" points="780,-114.5 875,-114.5 "/>
<text text-anchor="start" x="788" y="-102.5" font-family="Helvetica,sans-Serif" font-size="10.00"># Character()</text>
</a>
</g>
</g>
<!-- Node5&#45;&gt;Node9 -->
<g id="edge8" class="edge"><title>Node5&#45;&gt;Node9</title>
<path fill="none" stroke="#404040" d="M879.197,-1444.06C933.963,-1437.66 1078.5,-1412.15 1078.5,-1321 1078.5,-1321 1078.5,-1321 1078.5,-644 1078.5,-562.791 955.817,-371.028 881.992,-262.987"/>
<polygon fill="none" stroke="#404040" points="881.793,-262.696 875.101,-260.009 875.006,-252.799 881.698,-255.485 881.793,-262.696"/>
<text text-anchor="middle" x="1095" y="-876.5" font-family="Helvetica,sans-Serif" font-size="10.00"> #name</text>
</g>
<!-- Node11 -->
<g id="node10" class="node"><title>Node11</title>
<g id="a_node10"><a xlink:href="class_special_move.html" target="_top" xlink:title="Special move abstract base class that expands upon CharacterMove, adding magic properties ...">
<polygon fill="none" stroke="black" points="642.5,-332.5 642.5,-433.5 740.5,-433.5 740.5,-332.5 642.5,-332.5"/>
<text text-anchor="middle" x="691.5" y="-421.5" font-family="Helvetica,sans-Serif" font-size="10.00">SpecialMove</text>
<polyline fill="none" stroke="black" points="642.5,-414.5 740.5,-414.5 "/>
<text text-anchor="start" x="650.5" y="-402.5" font-family="Helvetica,sans-Serif" font-size="10.00">+ Magic</text>
<text text-anchor="start" x="650.5" y="-391.5" font-family="Helvetica,sans-Serif" font-size="10.00">+ Desc</text>
<text text-anchor="start" x="650.5" y="-380.5" font-family="Helvetica,sans-Serif" font-size="10.00">+ Special</text>
<polyline fill="none" stroke="black" points="642.5,-373.5 740.5,-373.5 "/>
<text text-anchor="start" x="650.5" y="-361.5" font-family="Helvetica,sans-Serif" font-size="10.00">+ setUp()</text>
<text text-anchor="start" x="650.5" y="-350.5" font-family="Helvetica,sans-Serif" font-size="10.00">+ decreaseMagic()</text>
<text text-anchor="start" x="650.5" y="-339.5" font-family="Helvetica,sans-Serif" font-size="10.00"># SpecialMove()</text>
</a>
</g>
</g>
<!-- Node5&#45;&gt;Node11 -->
<g id="edge22" class="edge"><title>Node5&#45;&gt;Node11</title>
<path fill="none" stroke="#404040" d="M837.722,-1446.21C741.335,-1446.02 333.241,-1432.42 115.5,-1222 57.791,-1166.23 70.5631,-1130.18 57.5,-1051 32.6136,-900.15 1.9318,-849.433 57.5,-707 107.115,-579.825 147.399,-549.464 265.5,-481 382.617,-413.106 543.485,-392.733 630.178,-386.62"/>
<polygon fill="none" stroke="#404040" points="630.443,-386.603 636.168,-382.219 642.417,-385.818 636.692,-390.202 630.443,-386.603"/>
<text text-anchor="middle" x="76.5" y="-1072" font-family="Helvetica,sans-Serif" font-size="10.00"> #desc</text>
</g>
<!-- Node12 -->
<g id="node11" class="node"><title>Node12</title>
<g id="a_node11"><a xlink:href="class_character_move.html" target="_top" xlink:title="Astract base class for character moves ">
<polygon fill="none" stroke="black" points="824.5,-492.5 824.5,-571.5 910.5,-571.5 910.5,-492.5 824.5,-492.5"/>
<text text-anchor="middle" x="867.5" y="-559.5" font-family="Helvetica,sans-Serif" font-size="10.00">CharacterMove</text>
<polyline fill="none" stroke="black" points="824.5,-552.5 910.5,-552.5 "/>
<text text-anchor="start" x="832.5" y="-540.5" font-family="Helvetica,sans-Serif" font-size="10.00">+ User</text>
<text text-anchor="start" x="832.5" y="-529.5" font-family="Helvetica,sans-Serif" font-size="10.00">+ Target</text>
<text text-anchor="start" x="832.5" y="-518.5" font-family="Helvetica,sans-Serif" font-size="10.00">+ Text</text>
<polyline fill="none" stroke="black" points="824.5,-511.5 910.5,-511.5 "/>
<text text-anchor="start" x="832.5" y="-499.5" font-family="Helvetica,sans-Serif" font-size="10.00">+ performMove()</text>
</a>
</g>
</g>
<!-- Node5&#45;&gt;Node12 -->
<g id="edge12" class="edge"><title>Node5&#45;&gt;Node12</title>
<path fill="none" stroke="#404040" d="M858.351,-1418.48C858.066,-1359.66 857.55,-1217.32 858.5,-1098 860.01,-908.395 864.37,-683.033 866.416,-583.984"/>
<polygon fill="none" stroke="#404040" points="866.422,-583.698 862.547,-577.616 866.671,-571.701 870.546,-577.783 866.422,-583.698"/>
<text text-anchor="middle" x="871" y="-1157.5" font-family="Helvetica,sans-Serif" font-size="10.00"> #text</text>
</g>
<!-- Node13 -->
<g id="node12" class="node"><title>Node13</title>
<g id="a_node12"><a xlink:href="class_battle_manager.html" target="_top" xlink:title="Holds current Player and Enemy objects in battle and provides functions for MainBattle and other obje...">
<polygon fill="none" stroke="black" points="899.5,-784.5 899.5,-973.5 1015.5,-973.5 1015.5,-784.5 899.5,-784.5"/>
<text text-anchor="middle" x="957.5" y="-961.5" font-family="Helvetica,sans-Serif" font-size="10.00">BattleManager</text>
<polyline fill="none" stroke="black" points="899.5,-954.5 1015.5,-954.5 "/>
<text text-anchor="start" x="907.5" y="-942.5" font-family="Helvetica,sans-Serif" font-size="10.00">+ Player</text>
<text text-anchor="start" x="907.5" y="-931.5" font-family="Helvetica,sans-Serif" font-size="10.00">+ Enemy</text>
<text text-anchor="start" x="907.5" y="-920.5" font-family="Helvetica,sans-Serif" font-size="10.00">+ WasCriticalHit</text>
<polyline fill="none" stroke="black" points="899.5,-913.5 1015.5,-913.5 "/>
<text text-anchor="start" x="907.5" y="-901.5" font-family="Helvetica,sans-Serif" font-size="10.00">+ BattleManager()</text>
<text text-anchor="start" x="907.5" y="-890.5" font-family="Helvetica,sans-Serif" font-size="10.00">+ playerFirst()</text>
<text text-anchor="start" x="907.5" y="-879.5" font-family="Helvetica,sans-Serif" font-size="10.00">+ switchPlayers()</text>
<text text-anchor="start" x="907.5" y="-868.5" font-family="Helvetica,sans-Serif" font-size="10.00">+ isCriticalHit()</text>
<text text-anchor="start" x="907.5" y="-857.5" font-family="Helvetica,sans-Serif" font-size="10.00">+ ranAway()</text>
<text text-anchor="start" x="907.5" y="-846.5" font-family="Helvetica,sans-Serif" font-size="10.00">+ damageCalculation()</text>
<text text-anchor="start" x="907.5" y="-835.5" font-family="Helvetica,sans-Serif" font-size="10.00">+ enemyMove()</text>
<text text-anchor="start" x="907.5" y="-824.5" font-family="Helvetica,sans-Serif" font-size="10.00">+ enemySpecialMove()</text>
<text text-anchor="start" x="907.5" y="-813.5" font-family="Helvetica,sans-Serif" font-size="10.00">+ battleWon()</text>
<text text-anchor="start" x="907.5" y="-802.5" font-family="Helvetica,sans-Serif" font-size="10.00">+ playerFainted()</text>
<text text-anchor="start" x="907.5" y="-791.5" font-family="Helvetica,sans-Serif" font-size="10.00">&#45; characterFainted()</text>
</a>
</g>
</g>
<!-- Node5&#45;&gt;Node13 -->
<g id="edge15" class="edge"><title>Node5&#45;&gt;Node13</title>
<path fill="none" stroke="#404040" d="M868.437,-1418.32C885.271,-1374.94 923.25,-1290.71 980.5,-1240 995.397,-1226.8 1010.33,-1238.47 1021.5,-1222 1068.74,-1152.37 1045.62,-1057.26 1014.73,-985.009"/>
<polygon fill="none" stroke="#404040" points="1014.55,-984.6 1008.47,-980.72 1009.71,-973.617 1015.79,-977.497 1014.55,-984.6"/>
<text text-anchor="middle" x="1022.5" y="-1254" font-family="Helvetica,sans-Serif" font-size="10.00"> +forceEnemyMove</text>
<text text-anchor="middle" x="1022.5" y="-1243" font-family="Helvetica,sans-Serif" font-size="10.00">+forceCriticalHits</text>
</g>
<!-- Node6 -->
<g id="node5" class="node"><title>Node6</title>
<polygon fill="none" stroke="#bfbfbf" points="428.5,-850.5 428.5,-907.5 528.5,-907.5 528.5,-850.5 428.5,-850.5"/>
<text text-anchor="middle" x="478.5" y="-895.5" font-family="Helvetica,sans-Serif" font-size="10.00">DragAndDropCell []</text>
<polyline fill="none" stroke="#bfbfbf" points="428.5,-888.5 528.5,-888.5 "/>
<text text-anchor="middle" x="478.5" y="-876.5" font-family="Helvetica,sans-Serif" font-size="10.00"> </text>
<polyline fill="none" stroke="#bfbfbf" points="428.5,-869.5 528.5,-869.5 "/>
<text text-anchor="middle" x="478.5" y="-857.5" font-family="Helvetica,sans-Serif" font-size="10.00"> </text>
</g>
<!-- Node6&#45;&gt;Node2 -->
<g id="edge4" class="edge"><title>Node6&#45;&gt;Node2</title>
<path fill="none" stroke="#404040" d="M480.823,-850.266C483.865,-797.277 483.74,-679.908 432.5,-601 422.924,-586.253 408.903,-573.972 394.271,-564.093"/>
<polygon fill="none" stroke="#404040" points="394.225,-564.064 387.015,-564.228 384.091,-557.637 391.3,-557.472 394.225,-564.064"/>
<text text-anchor="middle" x="503.5" y="-642.5" font-family="Helvetica,sans-Serif" font-size="10.00"> &#45;itemContainers</text>
</g>
<!-- Node7 -->
<g id="node6" class="node"><title>Node7</title>
<polygon fill="none" stroke="#bfbfbf" points="339,-850.5 339,-907.5 410,-907.5 410,-850.5 339,-850.5"/>
<text text-anchor="middle" x="374.5" y="-895.5" font-family="Helvetica,sans-Serif" font-size="10.00">GameObject</text>
<polyline fill="none" stroke="#bfbfbf" points="339,-888.5 410,-888.5 "/>
<text text-anchor="middle" x="374.5" y="-876.5" font-family="Helvetica,sans-Serif" font-size="10.00"> </text>
<polyline fill="none" stroke="#bfbfbf" points="339,-869.5 410,-869.5 "/>
<text text-anchor="middle" x="374.5" y="-857.5" font-family="Helvetica,sans-Serif" font-size="10.00"> </text>
</g>
<!-- Node7&#45;&gt;Node2 -->
<g id="edge5" class="edge"><title>Node7&#45;&gt;Node2</title>
<path fill="none" stroke="#404040" d="M370.894,-850.35C363.702,-795.217 347.424,-670.414 337.559,-594.784"/>
<polygon fill="none" stroke="#404040" points="337.526,-594.53 332.783,-589.098 335.974,-582.631 340.716,-588.063 337.526,-594.53"/>
<text text-anchor="middle" x="389" y="-648" font-family="Helvetica,sans-Serif" font-size="10.00"> &#45;playerContainers</text>
<text text-anchor="middle" x="389" y="-637" font-family="Helvetica,sans-Serif" font-size="10.00">&#45;player</text>
</g>
<!-- Node8&#45;&gt;Node2 -->
<g id="edge6" class="edge"><title>Node8&#45;&gt;Node2</title>
<path fill="none" stroke="#404040" d="M571.409,-1098.4C572.913,-961.989 573.235,-639.653 543.5,-601 509.097,-556.28 445.191,-540.391 396.139,-535.027"/>
<polygon fill="none" stroke="#404040" points="395.962,-535.01 389.612,-538.427 384.016,-533.879 390.366,-530.462 395.962,-535.01"/>
<text text-anchor="middle" x="591.5" y="-876.5" font-family="Helvetica,sans-Serif" font-size="10.00"> &#45;players</text>
</g>
<!-- Node8&#45;&gt;Node13 -->
<g id="edge21" class="edge"><title>Node8&#45;&gt;Node13</title>
<path fill="none" stroke="#404040" d="M626.773,-1118.43C696.391,-1068.24 814.835,-982.851 889.479,-929.039"/>
<polygon fill="none" stroke="#404040" points="889.525,-929.005 892.053,-922.251 899.259,-921.987 896.732,-928.741 889.525,-929.005"/>
<text text-anchor="middle" x="702" y="-1072" font-family="Helvetica,sans-Serif" font-size="10.00"> &#45;player</text>
</g>
<!-- Node8&#45;&gt;Node18 -->
<g id="edge31" class="edge"><title>Node8&#45;&gt;Node18</title>
<path fill="none" stroke="#404040" d="M514.232,-1134.06C443.584,-1102.71 331.311,-1052.74 329.5,-1051 329.407,-1050.91 329.313,-1050.82 329.22,-1050.73"/>
<polygon fill="none" stroke="#404040" points="329.143,-1050.65 322.096,-1049.12 320.801,-1042.02 327.847,-1043.56 329.143,-1050.65"/>
<text text-anchor="middle" x="408.5" y="-1072" font-family="Helvetica,sans-Serif" font-size="10.00"> &#45;players</text>
</g>
<!-- Node9&#45;&gt;Node8 -->
<g id="edge7" class="edge"><title>Node9&#45;&gt;Node8</title>
<path fill="none" stroke="midnightblue" d="M770.591,-210.873C724.477,-234.832 662.555,-275.531 633.5,-332 596.936,-403.062 630.897,-972.784 614.5,-1051 611.197,-1066.75 605.703,-1083.14 599.696,-1098.24"/>
<polygon fill="none" stroke="midnightblue" points="772.257,-213.953 779.589,-206.305 769.087,-207.711 772.257,-213.953"/>
</g>
<!-- Node9&#45;&gt;Node12 -->
<g id="edge13" class="edge"><title>Node9&#45;&gt;Node12</title>
<path fill="none" stroke="#404040" d="M862.424,-273.77C864.032,-279.877 865.422,-285.992 866.5,-292 877.998,-356.057 875.782,-431.337 872.341,-480.041"/>
<polygon fill="none" stroke="#404040" points="872.332,-480.166 875.866,-486.452 871.423,-492.131 867.889,-485.846 872.332,-480.166"/>
<text text-anchor="middle" x="892.5" y="-386" font-family="Helvetica,sans-Serif" font-size="10.00"> #target</text>
<text text-anchor="middle" x="892.5" y="-375" font-family="Helvetica,sans-Serif" font-size="10.00">#user</text>
</g>
<!-- Node14 -->
<g id="node13" class="node"><title>Node14</title>
<g id="a_node13"><a xlink:href="class_enemy.html" target="_top" xlink:title="Defines an AI controller enemy to fight in battle scenes">
<polygon fill="none" stroke="black" points="961,-0.5 961,-57.5 1028,-57.5 1028,-0.5 961,-0.5"/>
<text text-anchor="middle" x="994.5" y="-45.5" font-family="Helvetica,sans-Serif" font-size="10.00">Enemy</text>
<polyline fill="none" stroke="black" points="961,-38.5 1028,-38.5 "/>
<text text-anchor="start" x="969" y="-26.5" font-family="Helvetica,sans-Serif" font-size="10.00">+ ExpGiven</text>
<polyline fill="none" stroke="black" points="961,-19.5 1028,-19.5 "/>
<text text-anchor="start" x="969" y="-7.5" font-family="Helvetica,sans-Serif" font-size="10.00">+ Enemy()</text>
</a>
</g>
</g>
<!-- Node9&#45;&gt;Node14 -->
<g id="edge17" class="edge"><title>Node9&#45;&gt;Node14</title>
<path fill="none" stroke="midnightblue" d="M882.903,-132.576C910.125,-107.555 941.857,-78.3877 964.51,-57.5659"/>
<polygon fill="none" stroke="midnightblue" points="880.349,-130.169 875.355,-139.513 885.086,-135.323 880.349,-130.169"/>
</g>
<!-- Node10 -->
<g id="node9" class="node"><title>Node10</title>
<polygon fill="none" stroke="#bfbfbf" points="696,-1291.5 696,-1348.5 725,-1348.5 725,-1291.5 696,-1291.5"/>
<text text-anchor="middle" x="710.5" y="-1336.5" font-family="Helvetica,sans-Serif" font-size="10.00">int</text>
<polyline fill="none" stroke="#bfbfbf" points="696,-1329.5 725,-1329.5 "/>
<text text-anchor="middle" x="710.5" y="-1317.5" font-family="Helvetica,sans-Serif" font-size="10.00"> </text>
<polyline fill="none" stroke="#bfbfbf" points="696,-1310.5 725,-1310.5 "/>
<text text-anchor="middle" x="710.5" y="-1298.5" font-family="Helvetica,sans-Serif" font-size="10.00"> </text>
</g>
<!-- Node10&#45;&gt;Node8 -->
<g id="edge27" class="edge"><title>Node10&#45;&gt;Node8</title>
<path fill="none" stroke="#404040" d="M695.598,-1316.68C669.241,-1311.73 614.627,-1297.55 587.5,-1262 581.113,-1253.63 576.771,-1243.73 573.87,-1233.45"/>
<polygon fill="none" stroke="#404040" points="573.868,-1233.44 568.623,-1228.49 571.174,-1221.75 576.419,-1226.7 573.868,-1233.44"/>
<text text-anchor="middle" x="625" y="-1254" font-family="Helvetica,sans-Serif" font-size="10.00"> &#45;expToNextLevel</text>
<text text-anchor="middle" x="625" y="-1243" font-family="Helvetica,sans-Serif" font-size="10.00">&#45;exp</text>
</g>
<!-- Node10&#45;&gt;Node9 -->
<g id="edge9" class="edge"><title>Node10&#45;&gt;Node9</title>
<path fill="none" stroke="#404040" d="M711.149,-1291.21C713.572,-1195.26 723.335,-869.061 749.5,-601 761.23,-480.829 763.105,-450.253 787.5,-332 790.62,-316.876 794.406,-301.004 798.39,-285.518"/>
<polygon fill="none" stroke="#404040" points="798.427,-285.378 796.078,-278.561 801.468,-273.77 803.817,-280.588 798.427,-285.378"/>
<text text-anchor="middle" x="787" y="-681" font-family="Helvetica,sans-Serif" font-size="10.00"> #speed</text>
<text text-anchor="middle" x="787" y="-670" font-family="Helvetica,sans-Serif" font-size="10.00">#luck</text>
<text text-anchor="middle" x="787" y="-659" font-family="Helvetica,sans-Serif" font-size="10.00">#health</text>
<text text-anchor="middle" x="787" y="-648" font-family="Helvetica,sans-Serif" font-size="10.00">#magic</text>
<text text-anchor="middle" x="787" y="-637" font-family="Helvetica,sans-Serif" font-size="10.00">#maximumMagic</text>
<text text-anchor="middle" x="787" y="-626" font-family="Helvetica,sans-Serif" font-size="10.00">#attack</text>
<text text-anchor="middle" x="787" y="-615" font-family="Helvetica,sans-Serif" font-size="10.00">#defence</text>
<text text-anchor="middle" x="787" y="-604" font-family="Helvetica,sans-Serif" font-size="10.00">#level</text>
</g>
<!-- Node10&#45;&gt;Node11 -->
<g id="edge24" class="edge"><title>Node10&#45;&gt;Node11</title>
<path fill="none" stroke="#404040" d="M700.848,-1291.42C690.796,-1260.18 676.5,-1207.58 676.5,-1161 676.5,-1161 676.5,-1161 676.5,-531 676.5,-502.875 679.251,-471.878 682.397,-445.628"/>
<polygon fill="none" stroke="#404040" points="682.419,-445.45 679.197,-438.999 683.912,-433.543 687.135,-439.994 682.419,-445.45"/>
<text text-anchor="middle" x="694" y="-876.5" font-family="Helvetica,sans-Serif" font-size="10.00"> #magic</text>
</g>
<!-- Node10&#45;&gt;Node13 -->
<g id="edge19" class="edge"><title>Node10&#45;&gt;Node13</title>
<path fill="none" stroke="#404040" d="M725.24,-1315.75C760.098,-1307.24 847.66,-1280.72 887.5,-1222 913.255,-1184.04 933.028,-1071.39 944.887,-985.651"/>
<polygon fill="none" stroke="#404040" points="944.89,-985.632 941.735,-979.148 946.508,-973.742 949.662,-980.227 944.89,-985.632"/>
<text text-anchor="middle" x="945" y="-1157.5" font-family="Helvetica,sans-Serif" font-size="10.00"> +money</text>
</g>
<!-- Node10&#45;&gt;Node14 -->
<g id="edge18" class="edge"><title>Node10&#45;&gt;Node14</title>
<path fill="none" stroke="#404040" d="M718.546,-1291.23C721.166,-1281.96 724.033,-1271.55 726.5,-1262 764.236,-1115.87 788.201,-718.838 882.5,-601 893.926,-586.722 908.779,-597.815 919.5,-583 1035.26,-423.023 1014.24,-167.252 1000.85,-69.6248"/>
<polygon fill="none" stroke="#404040" points="1000.85,-69.5989 996.039,-64.226 999.148,-57.7199 1003.96,-63.0927 1000.85,-69.5989"/>
<text text-anchor="middle" x="994.5" y="-529.5" font-family="Helvetica,sans-Serif" font-size="10.00"> &#45;expGiven</text>
</g>
<!-- Node10&#45;&gt;Node18 -->
<g id="edge30" class="edge"><title>Node10&#45;&gt;Node18</title>
<path fill="none" stroke="#404040" d="M695.851,-1318.54C636.931,-1316.4 417.999,-1305.58 367.5,-1262 309.665,-1212.09 278.808,-1134.86 262.43,-1062.86"/>
<polygon fill="none" stroke="#404040" points="262.377,-1062.62 257.193,-1057.61 259.827,-1050.89 265.01,-1055.91 262.377,-1062.62"/>
<text text-anchor="middle" x="346.5" y="-1157.5" font-family="Helvetica,sans-Serif" font-size="10.00"> &#45;money</text>
</g>
<!-- Node11&#45;&gt;Node9 -->
<g id="edge10" class="edge"><title>Node11&#45;&gt;Node9</title>
<path fill="none" stroke="#404040" d="M695.627,-332.342C698.276,-318.634 702.569,-304.19 709.5,-292 724.352,-265.878 747.917,-242.711 770.097,-224.71"/>
<polygon fill="none" stroke="#404040" points="770.387,-224.482 772.631,-217.629 779.82,-217.065 777.576,-223.918 770.387,-224.482"/>
<text text-anchor="middle" x="732" y="-306" font-family="Helvetica,sans-Serif" font-size="10.00"> #special1</text>
<text text-anchor="middle" x="732" y="-295" font-family="Helvetica,sans-Serif" font-size="10.00">#special2</text>
</g>
<!-- Node12&#45;&gt;Node11 -->
<g id="edge11" class="edge"><title>Node12&#45;&gt;Node11</title>
<path fill="none" stroke="midnightblue" d="M816.528,-488.427C792.638,-468.473 764.295,-444.8 740.64,-425.043"/>
<polygon fill="none" stroke="midnightblue" points="814.527,-491.316 824.446,-495.04 819.014,-485.943 814.527,-491.316"/>
</g>
<!-- Node13&#45;&gt;Node12 -->
<g id="edge14" class="edge"><title>Node13&#45;&gt;Node12</title>
<path fill="none" stroke="#404040" d="M933.026,-784.183C916.124,-719.393 894.306,-635.756 880.605,-583.235"/>
<polygon fill="none" stroke="#404040" points="880.586,-583.164 875.201,-578.368 877.557,-571.552 882.942,-576.348 880.586,-583.164"/>
<text text-anchor="middle" x="929.5" y="-642.5" font-family="Helvetica,sans-Serif" font-size="10.00"> #manager</text>
</g>
<!-- Node14&#45;&gt;Node13 -->
<g id="edge16" class="edge"><title>Node14&#45;&gt;Node13</title>
<path fill="none" stroke="#404040" d="M1008.05,-57.5473C1021.62,-87.7105 1040.5,-137.875 1040.5,-183.5 1040.5,-533 1040.5,-533 1040.5,-533 1040.5,-615.112 1018,-705.245 996.429,-772.786"/>
<polygon fill="none" stroke="#404040" points="996.405,-772.861 998.357,-779.803 992.699,-784.275 990.748,-777.333 996.405,-772.861"/>
<text text-anchor="middle" x="1058.5" y="-380.5" font-family="Helvetica,sans-Serif" font-size="10.00"> &#45;enemy</text>
</g>
<!-- Node15 -->
<g id="node14" class="node"><title>Node15</title>
<polygon fill="none" stroke="#bfbfbf" points="977,-1131.5 977,-1188.5 1012,-1188.5 1012,-1131.5 977,-1131.5"/>
<text text-anchor="middle" x="994.5" y="-1176.5" font-family="Helvetica,sans-Serif" font-size="10.00">bool</text>
<polyline fill="none" stroke="#bfbfbf" points="977,-1169.5 1012,-1169.5 "/>
<text text-anchor="middle" x="994.5" y="-1157.5" font-family="Helvetica,sans-Serif" font-size="10.00"> </text>
<polyline fill="none" stroke="#bfbfbf" points="977,-1150.5 1012,-1150.5 "/>
<text text-anchor="middle" x="994.5" y="-1138.5" font-family="Helvetica,sans-Serif" font-size="10.00"> </text>
</g>
<!-- Node15&#45;&gt;Node13 -->
<g id="edge20" class="edge"><title>Node15&#45;&gt;Node13</title>
<path fill="none" stroke="#404040" d="M979.437,-1131.37C972.21,-1116.59 964.31,-1097.81 960.5,-1080 954.04,-1049.8 951.707,-1016.44 951.412,-985.763"/>
<polygon fill="none" stroke="#404040" points="951.412,-985.703 947.405,-979.708 951.398,-973.703 955.405,-979.698 951.412,-985.703"/>
<text text-anchor="middle" x="993.5" y="-1072" font-family="Helvetica,sans-Serif" font-size="10.00"> &#45;wasCriticalHit</text>
</g>
<!-- Node16 -->
<g id="node15" class="node"><title>Node16</title>
<polygon fill="none" stroke="#bfbfbf" points="705,-503.5 705,-560.5 740,-560.5 740,-503.5 705,-503.5"/>
<text text-anchor="middle" x="722.5" y="-548.5" font-family="Helvetica,sans-Serif" font-size="10.00">float</text>
<polyline fill="none" stroke="#bfbfbf" points="705,-541.5 740,-541.5 "/>
<text text-anchor="middle" x="722.5" y="-529.5" font-family="Helvetica,sans-Serif" font-size="10.00"> </text>
<polyline fill="none" stroke="#bfbfbf" points="705,-522.5 740,-522.5 "/>
<text text-anchor="middle" x="722.5" y="-510.5" font-family="Helvetica,sans-Serif" font-size="10.00"> </text>
</g>
<!-- Node16&#45;&gt;Node11 -->
<g id="edge23" class="edge"><title>Node16&#45;&gt;Node11</title>
<path fill="none" stroke="#404040" d="M716.669,-503.35C713.225,-487.019 708.721,-465.66 704.476,-445.532"/>
<polygon fill="none" stroke="#404040" points="704.424,-445.285 699.272,-440.24 701.948,-433.543 707.1,-438.589 704.424,-445.285"/>
<text text-anchor="middle" x="728.5" y="-455" font-family="Helvetica,sans-Serif" font-size="10.00"> #special</text>
</g>
<!-- Node17 -->
<g id="node16" class="node"><title>Node17</title>
<polygon fill="none" stroke="#bfbfbf" points="797,-354.5 797,-411.5 858,-411.5 858,-354.5 797,-354.5"/>
<text text-anchor="middle" x="827.5" y="-399.5" font-family="Helvetica,sans-Serif" font-size="10.00">Texture2D</text>
<polyline fill="none" stroke="#bfbfbf" points="797,-392.5 858,-392.5 "/>
<text text-anchor="middle" x="827.5" y="-380.5" font-family="Helvetica,sans-Serif" font-size="10.00"> </text>
<polyline fill="none" stroke="#bfbfbf" points="797,-373.5 858,-373.5 "/>
<text text-anchor="middle" x="827.5" y="-361.5" font-family="Helvetica,sans-Serif" font-size="10.00"> </text>
</g>
<!-- Node17&#45;&gt;Node9 -->
<g id="edge25" class="edge"><title>Node17&#45;&gt;Node9</title>
<path fill="none" stroke="#404040" d="M827.5,-354.263C827.5,-335.998 827.5,-310.86 827.5,-285.562"/>
<polygon fill="none" stroke="#404040" points="827.5,-285.557 823.5,-279.557 827.5,-273.557 831.5,-279.557 827.5,-285.557"/>
<text text-anchor="middle" x="845" y="-300.5" font-family="Helvetica,sans-Serif" font-size="10.00"> #image</text>
</g>
<!-- Node18&#45;&gt;Node2 -->
<g id="edge28" class="edge"><title>Node18&#45;&gt;Node2</title>
<path fill="none" stroke="#404040" d="M284.045,-707.445C292.526,-672.19 301.615,-635.34 310.5,-601 311.052,-598.868 311.62,-596.7 312.199,-594.511"/>
<polygon fill="none" stroke="#404040" points="312.257,-594.293 309.953,-587.461 315.373,-582.705 317.678,-589.538 312.257,-594.293"/>
<text text-anchor="middle" x="323" y="-642.5" font-family="Helvetica,sans-Serif" font-size="10.00"> &#45;data</text>
</g>
</g>
</svg>
