<?xml version="1.0" encoding="UTF-8" standalone="no"?>
<!DOCTYPE svg PUBLIC "-//W3C//DTD SVG 1.1//EN"
 "http://www.w3.org/Graphics/SVG/1.1/DTD/svg11.dtd">
<!-- Generated by graphviz version 2.38.0 (20140413.2041)
 -->
<!-- Title: MiniMove Pages: 1 -->
<svg width="479pt" height="270pt"
 viewBox="0.00 0.00 478.50 270.00" xmlns="http://www.w3.org/2000/svg" xmlns:xlink="http://www.w3.org/1999/xlink">
<g id="graph0" class="graph" transform="scale(1 1) rotate(0) translate(4 266)">
<title>MiniMove</title>
<!-- Node2 -->
<g id="node1" class="node"><title>Node2</title>
<polygon fill="#bfbfbf" stroke="black" points="224.5,-0.5 224.5,-134.5 330.5,-134.5 330.5,-0.5 224.5,-0.5"/>
<text text-anchor="middle" x="277.5" y="-122.5" font-family="Helvetica,sans-Serif" font-size="10.00">MiniMove</text>
<polyline fill="none" stroke="black" points="224.5,-115.5 330.5,-115.5 "/>
<text text-anchor="middle" x="277.5" y="-103.5" font-family="Helvetica,sans-Serif" font-size="10.00"> </text>
<polyline fill="none" stroke="black" points="224.5,-96.5 330.5,-96.5 "/>
<text text-anchor="start" x="232.5" y="-84.5" font-family="Helvetica,sans-Serif" font-size="10.00">+ OnGUI()</text>
<text text-anchor="start" x="232.5" y="-73.5" font-family="Helvetica,sans-Serif" font-size="10.00">+ move()</text>
<text text-anchor="start" x="232.5" y="-62.5" font-family="Helvetica,sans-Serif" font-size="10.00">&#45; Start()</text>
<text text-anchor="start" x="232.5" y="-51.5" font-family="Helvetica,sans-Serif" font-size="10.00">&#45; FixedUpdate()</text>
<text text-anchor="start" x="232.5" y="-40.5" font-family="Helvetica,sans-Serif" font-size="10.00">&#45; setIdle()</text>
<text text-anchor="start" x="232.5" y="-29.5" font-family="Helvetica,sans-Serif" font-size="10.00">&#45; walkAnimation()</text>
<text text-anchor="start" x="232.5" y="-18.5" font-family="Helvetica,sans-Serif" font-size="10.00">&#45; OnTriggerEnter2D()</text>
<text text-anchor="start" x="232.5" y="-7.5" font-family="Helvetica,sans-Serif" font-size="10.00">&#45; levleup()</text>
</g>
<!-- Node3 -->
<g id="node2" class="node"><title>Node3</title>
<g id="a_node2"><a xlink:href="class_mono_behaviour.html" target="_top" target="_top" xlink:title="{MonoBehaviour\n||}">
<polygon fill="none" stroke="black" points="0,-204.5 0,-261.5 83,-261.5 83,-204.5 0,-204.5"/>
<text text-anchor="middle" x="41.5" y="-249.5" font-family="Helvetica,sans-Serif" font-size="10.00">MonoBehaviour</text>
<polyline fill="none" stroke="black" points="0,-242.5 83,-242.5 "/>
<text text-anchor="middle" x="41.5" y="-230.5" font-family="Helvetica,sans-Serif" font-size="10.00"> </text>
<polyline fill="none" stroke="black" points="0,-223.5 83,-223.5 "/>
<text text-anchor="middle" x="41.5" y="-211.5" font-family="Helvetica,sans-Serif" font-size="10.00"> </text>
</a>
</g>
</g>
<!-- Node3&#45;&gt;Node2 -->
<g id="edge1" class="edge"><title>Node3&#45;&gt;Node2</title>
<path fill="none" stroke="midnightblue" d="M81.5246,-197.333C98.6538,-183.047 119.137,-166.673 138.5,-153 165.952,-133.614 197.918,-113.993 224.268,-98.543"/>
<polygon fill="none" stroke="midnightblue" points="78.8081,-195.044 73.4048,-204.157 83.312,-200.403 78.8081,-195.044"/>
</g>
<!-- Node4 -->
<g id="node3" class="node"><title>Node4</title>
<polygon fill="none" stroke="#bfbfbf" points="101,-204.5 101,-261.5 142,-261.5 142,-204.5 101,-204.5"/>
<text text-anchor="middle" x="121.5" y="-249.5" font-family="Helvetica,sans-Serif" font-size="10.00">string</text>
<polyline fill="none" stroke="#bfbfbf" points="101,-242.5 142,-242.5 "/>
<text text-anchor="middle" x="121.5" y="-230.5" font-family="Helvetica,sans-Serif" font-size="10.00"> </text>
<polyline fill="none" stroke="#bfbfbf" points="101,-223.5 142,-223.5 "/>
<text text-anchor="middle" x="121.5" y="-211.5" font-family="Helvetica,sans-Serif" font-size="10.00"> </text>
</g>
<!-- Node4&#45;&gt;Node2 -->
<g id="edge2" class="edge"><title>Node4&#45;&gt;Node2</title>
<path fill="none" stroke="#404040" d="M133.013,-204.207C140.499,-188.17 151.315,-168.229 164.5,-153 178.775,-136.512 196.787,-121.273 214.211,-108.407"/>
<polygon fill="none" stroke="#404040" points="214.621,-108.113 217.163,-101.365 224.37,-101.115 221.828,-107.864 214.621,-108.113"/>
<text text-anchor="middle" x="187" y="-167" font-family="Helvetica,sans-Serif" font-size="10.00"> &#45;lastMove</text>
</g>
<!-- Node5 -->
<g id="node4" class="node"><title>Node5</title>
<polygon fill="none" stroke="#bfbfbf" points="160,-204.5 160,-261.5 231,-261.5 231,-204.5 160,-204.5"/>
<text text-anchor="middle" x="195.5" y="-249.5" font-family="Helvetica,sans-Serif" font-size="10.00">GameObject</text>
<polyline fill="none" stroke="#bfbfbf" points="160,-242.5 231,-242.5 "/>
<text text-anchor="middle" x="195.5" y="-230.5" font-family="Helvetica,sans-Serif" font-size="10.00"> </text>
<polyline fill="none" stroke="#bfbfbf" points="160,-223.5 231,-223.5 "/>
<text text-anchor="middle" x="195.5" y="-211.5" font-family="Helvetica,sans-Serif" font-size="10.00"> </text>
</g>
<!-- Node5&#45;&gt;Node2 -->
<g id="edge3" class="edge"><title>Node5&#45;&gt;Node2</title>
<path fill="none" stroke="#404040" d="M205.617,-204.135C211.473,-188.801 219.295,-169.578 227.5,-153 228.698,-150.58 229.939,-148.135 231.214,-145.679"/>
<polygon fill="none" stroke="#404040" points="231.332,-145.457 230.63,-138.28 236.984,-134.871 237.687,-142.048 231.332,-145.457"/>
<text text-anchor="middle" x="250.5" y="-167" font-family="Helvetica,sans-Serif" font-size="10.00"> &#45;controller</text>
</g>
<!-- Node6 -->
<g id="node5" class="node"><title>Node6</title>
<polygon fill="none" stroke="#bfbfbf" points="249.5,-204.5 249.5,-261.5 305.5,-261.5 305.5,-204.5 249.5,-204.5"/>
<text text-anchor="middle" x="277.5" y="-249.5" font-family="Helvetica,sans-Serif" font-size="10.00">Animator</text>
<polyline fill="none" stroke="#bfbfbf" points="249.5,-242.5 305.5,-242.5 "/>
<text text-anchor="middle" x="277.5" y="-230.5" font-family="Helvetica,sans-Serif" font-size="10.00"> </text>
<polyline fill="none" stroke="#bfbfbf" points="249.5,-223.5 305.5,-223.5 "/>
<text text-anchor="middle" x="277.5" y="-211.5" font-family="Helvetica,sans-Serif" font-size="10.00"> </text>
</g>
<!-- Node6&#45;&gt;Node2 -->
<g id="edge4" class="edge"><title>Node6&#45;&gt;Node2</title>
<path fill="none" stroke="#404040" d="M277.5,-204.264C277.5,-188.271 277.5,-167.284 277.5,-146.609"/>
<polygon fill="none" stroke="#404040" points="277.5,-146.512 273.5,-140.512 277.5,-134.512 281.5,-140.512 277.5,-146.512"/>
<text text-anchor="middle" x="291.5" y="-167" font-family="Helvetica,sans-Serif" font-size="10.00"> &#45;anim</text>
</g>
<!-- Node7 -->
<g id="node6" class="node"><title>Node7</title>
<polygon fill="none" stroke="#bfbfbf" points="324,-204.5 324,-261.5 359,-261.5 359,-204.5 324,-204.5"/>
<text text-anchor="middle" x="341.5" y="-249.5" font-family="Helvetica,sans-Serif" font-size="10.00">float</text>
<polyline fill="none" stroke="#bfbfbf" points="324,-242.5 359,-242.5 "/>
<text text-anchor="middle" x="341.5" y="-230.5" font-family="Helvetica,sans-Serif" font-size="10.00"> </text>
<polyline fill="none" stroke="#bfbfbf" points="324,-223.5 359,-223.5 "/>
<text text-anchor="middle" x="341.5" y="-211.5" font-family="Helvetica,sans-Serif" font-size="10.00"> </text>
</g>
<!-- Node7&#45;&gt;Node2 -->
<g id="edge5" class="edge"><title>Node7&#45;&gt;Node2</title>
<path fill="none" stroke="#404040" d="M330.643,-204.264C324.295,-188.047 315.937,-166.695 307.735,-145.74"/>
<polygon fill="none" stroke="#404040" points="307.714,-145.686 301.802,-141.557 303.34,-134.512 309.251,-138.641 307.714,-145.686"/>
<text text-anchor="middle" x="339" y="-178" font-family="Helvetica,sans-Serif" font-size="10.00"> &#45;ystart</text>
<text text-anchor="middle" x="339" y="-167" font-family="Helvetica,sans-Serif" font-size="10.00">&#45;speed</text>
<text text-anchor="middle" x="339" y="-156" font-family="Helvetica,sans-Serif" font-size="10.00">&#45;xstart</text>
</g>
<!-- Node8 -->
<g id="node7" class="node"><title>Node8</title>
<polygon fill="none" stroke="#bfbfbf" points="377,-204.5 377,-261.5 406,-261.5 406,-204.5 377,-204.5"/>
<text text-anchor="middle" x="391.5" y="-249.5" font-family="Helvetica,sans-Serif" font-size="10.00">int</text>
<polyline fill="none" stroke="#bfbfbf" points="377,-242.5 406,-242.5 "/>
<text text-anchor="middle" x="391.5" y="-230.5" font-family="Helvetica,sans-Serif" font-size="10.00"> </text>
<polyline fill="none" stroke="#bfbfbf" points="377,-223.5 406,-223.5 "/>
<text text-anchor="middle" x="391.5" y="-211.5" font-family="Helvetica,sans-Serif" font-size="10.00"> </text>
</g>
<!-- Node8&#45;&gt;Node2 -->
<g id="edge6" class="edge"><title>Node8&#45;&gt;Node2</title>
<path fill="none" stroke="#404040" d="M382.82,-204.436C377.176,-188.665 368.926,-168.915 358.5,-153 352.755,-144.231 346.037,-135.565 338.97,-127.317"/>
<polygon fill="none" stroke="#404040" points="338.843,-127.173 331.868,-125.34 330.877,-118.198 337.852,-120.03 338.843,-127.173"/>
<text text-anchor="middle" x="388" y="-167" font-family="Helvetica,sans-Serif" font-size="10.00"> &#45;lives</text>
</g>
<!-- Node9 -->
<g id="node8" class="node"><title>Node9</title>
<polygon fill="none" stroke="#bfbfbf" points="424,-204.5 424,-261.5 459,-261.5 459,-204.5 424,-204.5"/>
<text text-anchor="middle" x="441.5" y="-249.5" font-family="Helvetica,sans-Serif" font-size="10.00">bool</text>
<polyline fill="none" stroke="#bfbfbf" points="424,-242.5 459,-242.5 "/>
<text text-anchor="middle" x="441.5" y="-230.5" font-family="Helvetica,sans-Serif" font-size="10.00"> </text>
<polyline fill="none" stroke="#bfbfbf" points="424,-223.5 459,-223.5 "/>
<text text-anchor="middle" x="441.5" y="-211.5" font-family="Helvetica,sans-Serif" font-size="10.00"> </text>
</g>
<!-- Node9&#45;&gt;Node2 -->
<g id="edge7" class="edge"><title>Node9&#45;&gt;Node2</title>
<path fill="none" stroke="#404040" d="M432.77,-204.269C426.687,-188.059 417.346,-167.92 404.5,-153 386.898,-132.556 363.195,-115.003 341.034,-101.276"/>
<polygon fill="none" stroke="#404040" points="340.941,-101.221 333.738,-101.564 330.651,-95.0465 337.854,-94.7037 340.941,-101.221"/>
<text text-anchor="middle" x="448" y="-167" font-family="Helvetica,sans-Serif" font-size="10.00"> &#45;canMove</text>
</g>
</g>
</svg>
