<?xml version="1.0" encoding="UTF-8" standalone="no"?>
<!DOCTYPE svg PUBLIC "-//W3C//DTD SVG 1.1//EN"
 "http://www.w3.org/Graphics/SVG/1.1/DTD/svg11.dtd">
<!-- Generated by graphviz version 2.38.0 (20140413.2041)
 -->
<!-- Title: Vendor Pages: 1 -->
<!--zoomable 1671 -->
<svg id="main" version="1.1" xmlns="http://www.w3.org/2000/svg" xmlns:xlink="http://www.w3.org/1999/xlink" xml:space="preserve" onload="init(evt)">
<style type="text/css"><![CDATA[
.edge:hover path { stroke: red; }
.edge:hover polygon { stroke: red; fill: red; }
]]></style>
<script type="text/javascript"><![CDATA[
var edges = document.getElementsByTagName('g');
if (edges && edges.length) {
  for (var i=0;i<edges.length;i++) {
    if (edges[i].id.substr(0,4)=='edge') {
      edges[i].setAttribute('class','edge');
    }
  }
}
]]></script>
        <defs>
                <circle id="rim" cx="0" cy="0" r="7"/>
                <circle id="rim2" cx="0" cy="0" r="3.5"/>
                <g id="zoomPlus">
                        <use xlink:href="#rim" fill="#404040">
                                <set attributeName="fill" to="#808080" begin="zoomplus.mouseover" end="zoomplus.mouseout"/>
                        </use>
                        <path d="M-4,0h8M0,-4v8" fill="none" stroke="white" stroke-width="1.5" pointer-events="none"/>
                </g>
                <g id="zoomMin">
                        <use xlink:href="#rim" fill="#404040">
                                <set attributeName="fill" to="#808080" begin="zoomminus.mouseover" end="zoomminus.mouseout"/>
                        </use>
                        <path d="M-4,0h8" fill="none" stroke="white" stroke-width="1.5" pointer-events="none"/>
                </g>
                <g id="dirArrow">
                        <path fill="none" stroke="white" stroke-width="1.5" d="M0,-3.0v7 M-2.5,-0.5L0,-3.0L2.5,-0.5"/>
                </g>
               <g id="resetDef">
                       <use xlink:href="#rim2" fill="#404040">
                               <set attributeName="fill" to="#808080" begin="reset.mouseover" end="reset.mouseout"/>
                       </use>
               </g>
        </defs>

<script type="text/javascript">
var viewWidth = 1224;
var viewHeight = 1671;
var sectionId = 'dynsection-1';
</script>
<script xlink:href="svgpan.js"/>
<svg id="graph" class="graph">
<g id="viewport">
<title>Vendor</title>
<!-- Node2 -->
<g id="node1" class="node"><title>Node2</title>
<polygon fill="#bfbfbf" stroke="black" points="872,-0.5 872,-101.5 955,-101.5 955,-0.5 872,-0.5"/>
<text text-anchor="middle" x="913.5" y="-89.5" font-family="Helvetica,sans-Serif" font-size="10.00">Vendor</text>
<polyline fill="none" stroke="black" points="872,-82.5 955,-82.5 "/>
<text text-anchor="middle" x="913.5" y="-70.5" font-family="Helvetica,sans-Serif" font-size="10.00"> </text>
<polyline fill="none" stroke="black" points="872,-63.5 955,-63.5 "/>
<text text-anchor="start" x="880" y="-51.5" font-family="Helvetica,sans-Serif" font-size="10.00">+ setDraw()</text>
<text text-anchor="start" x="880" y="-40.5" font-family="Helvetica,sans-Serif" font-size="10.00">&#45; Start()</text>
<text text-anchor="start" x="880" y="-29.5" font-family="Helvetica,sans-Serif" font-size="10.00">&#45; FixedUpdate()</text>
<text text-anchor="start" x="880" y="-18.5" font-family="Helvetica,sans-Serif" font-size="10.00">&#45; OnGUI()</text>
<text text-anchor="start" x="880" y="-7.5" font-family="Helvetica,sans-Serif" font-size="10.00">&#45; sellItem()</text>
</g>
<!-- Node3 -->
<g id="node2" class="node"><title>Node3</title>
<g id="a_node2"><a xlink:href="class_mono_behaviour.html" target="_top" xlink:title="{MonoBehaviour\n||}">
<polygon fill="none" stroke="black" points="0,-326 0,-383 83,-383 83,-326 0,-326"/>
<text text-anchor="middle" x="41.5" y="-371" font-family="Helvetica,sans-Serif" font-size="10.00">MonoBehaviour</text>
<polyline fill="none" stroke="black" points="0,-364 83,-364 "/>
<text text-anchor="middle" x="41.5" y="-352" font-family="Helvetica,sans-Serif" font-size="10.00"> </text>
<polyline fill="none" stroke="black" points="0,-345 83,-345 "/>
<text text-anchor="middle" x="41.5" y="-333" font-family="Helvetica,sans-Serif" font-size="10.00"> </text>
</a>
</g>
</g>
<!-- Node3&#45;&gt;Node2 -->
<g id="edge1" class="edge"><title>Node3&#45;&gt;Node2</title>
<path fill="none" stroke="midnightblue" d="M68.1016,-317.836C76.4383,-308.267 86.1809,-298.506 96.5,-291 224.965,-197.56 272.846,-196.277 424.5,-149 586.244,-98.5776 786.546,-68.5513 871.869,-57.2108"/>
<polygon fill="none" stroke="midnightblue" points="65.1889,-315.863 61.4477,-325.775 70.5537,-320.359 65.1889,-315.863"/>
</g>
<!-- Node4 -->
<g id="node3" class="node"><title>Node4</title>
<g id="a_node3"><a xlink:href="class_global_functions.html" target="_top" xlink:title="Provides functions and variables to be accessed by any game object to allow data to be passed between...">
<polygon fill="none" stroke="black" points="434,-149.5 434,-272.5 521,-272.5 521,-149.5 434,-149.5"/>
<text text-anchor="middle" x="477.5" y="-260.5" font-family="Helvetica,sans-Serif" font-size="10.00">GlobalFunctions</text>
<polyline fill="none" stroke="black" points="434,-253.5 521,-253.5 "/>
<text text-anchor="middle" x="477.5" y="-241.5" font-family="Helvetica,sans-Serif" font-size="10.00"> </text>
<polyline fill="none" stroke="black" points="434,-234.5 521,-234.5 "/>
<text text-anchor="start" x="442" y="-222.5" font-family="Helvetica,sans-Serif" font-size="10.00">+ createBattle()</text>
<text text-anchor="start" x="442" y="-211.5" font-family="Helvetica,sans-Serif" font-size="10.00">+ getEnemy()</text>
<text text-anchor="start" x="442" y="-200.5" font-family="Helvetica,sans-Serif" font-size="10.00">+ getMoney()</text>
<text text-anchor="start" x="442" y="-189.5" font-family="Helvetica,sans-Serif" font-size="10.00">+ getItem()</text>
<text text-anchor="start" x="442" y="-178.5" font-family="Helvetica,sans-Serif" font-size="10.00">+ endBattle()</text>
<text text-anchor="start" x="442" y="-167.5" font-family="Helvetica,sans-Serif" font-size="10.00">+ createItem()</text>
<text text-anchor="start" x="442" y="-156.5" font-family="Helvetica,sans-Serif" font-size="10.00">&#45; Awake()</text>
</a>
</g>
</g>
<!-- Node3&#45;&gt;Node4 -->
<g id="edge3" class="edge"><title>Node3&#45;&gt;Node4</title>
<path fill="none" stroke="midnightblue" d="M76.6978,-319.179C89.0678,-308.756 103.615,-298.176 118.5,-291 224.562,-239.869 364.215,-221.405 433.95,-215.08"/>
<polygon fill="none" stroke="midnightblue" points="74.1442,-316.762 68.9016,-325.969 78.7414,-322.041 74.1442,-316.762"/>
</g>
<!-- Node4&#45;&gt;Node2 -->
<g id="edge2" class="edge"><title>Node4&#45;&gt;Node2</title>
<path fill="none" stroke="#404040" d="M521.266,-193.773C570.242,-175.649 651.976,-145.507 722.5,-120 768.995,-103.184 821.972,-84.3486 860.319,-70.773"/>
<polygon fill="none" stroke="#404040" points="860.414,-70.7396 864.736,-64.9673 871.726,-66.7369 867.404,-72.5091 860.414,-70.7396"/>
<text text-anchor="middle" x="739.5" y="-123" font-family="Helvetica,sans-Serif" font-size="10.00"> +items</text>
</g>
<!-- Node4&#45;&gt;Node4 -->
<g id="edge31" class="edge"><title>Node4&#45;&gt;Node4</title>
<path fill="none" stroke="#404040" d="M521.169,-226.439C531.43,-225.17 539,-220.023 539,-211 539,-205.924 536.605,-202.075 532.683,-199.453"/>
<polygon fill="none" stroke="#404040" points="532.537,-199.404 525.573,-201.272 521.169,-195.561 528.134,-193.693 532.537,-199.404"/>
<text text-anchor="middle" x="562" y="-208.5" font-family="Helvetica,sans-Serif" font-size="10.00"> +instance</text>
</g>
<!-- Node5 -->
<g id="node4" class="node"><title>Node5</title>
<polygon fill="none" stroke="#bfbfbf" points="101.5,-326 101.5,-383 159.5,-383 159.5,-326 101.5,-326"/>
<text text-anchor="middle" x="130.5" y="-371" font-family="Helvetica,sans-Serif" font-size="10.00">AudioClip</text>
<polyline fill="none" stroke="#bfbfbf" points="101.5,-364 159.5,-364 "/>
<text text-anchor="middle" x="130.5" y="-352" font-family="Helvetica,sans-Serif" font-size="10.00"> </text>
<polyline fill="none" stroke="#bfbfbf" points="101.5,-345 159.5,-345 "/>
<text text-anchor="middle" x="130.5" y="-333" font-family="Helvetica,sans-Serif" font-size="10.00"> </text>
</g>
<!-- Node5&#45;&gt;Node4 -->
<g id="edge4" class="edge"><title>Node5&#45;&gt;Node4</title>
<path fill="none" stroke="#404040" d="M121.562,-325.757C119.521,-313.889 119.835,-300.588 127.5,-291 163.721,-245.692 332.481,-224.496 421.765,-216.308"/>
<polygon fill="none" stroke="#404040" points="421.86,-216.3 427.483,-211.785 433.813,-215.238 428.191,-219.753 421.86,-216.3"/>
<text text-anchor="middle" x="161" y="-294" font-family="Helvetica,sans-Serif" font-size="10.00"> +previousBGM</text>
</g>
<!-- Node6 -->
<g id="node5" class="node"><title>Node6</title>
<g id="a_node5"><a xlink:href="class_item.html" target="_top" xlink:title="Abstract class for items that can be equipped to a player, increasing some of their stats ...">
<polygon fill="none" stroke="black" points="137,-1467.5 137,-1546.5 214,-1546.5 214,-1467.5 137,-1467.5"/>
<text text-anchor="middle" x="175.5" y="-1534.5" font-family="Helvetica,sans-Serif" font-size="10.00">Item</text>
<polyline fill="none" stroke="black" points="137,-1527.5 214,-1527.5 "/>
<text text-anchor="start" x="145" y="-1515.5" font-family="Helvetica,sans-Serif" font-size="10.00">+ Name</text>
<text text-anchor="start" x="145" y="-1504.5" font-family="Helvetica,sans-Serif" font-size="10.00">+ Desc</text>
<polyline fill="none" stroke="black" points="137,-1497.5 214,-1497.5 "/>
<text text-anchor="start" x="145" y="-1485.5" font-family="Helvetica,sans-Serif" font-size="10.00">+ applyBuffs()</text>
<text text-anchor="start" x="145" y="-1474.5" font-family="Helvetica,sans-Serif" font-size="10.00">+ revertBuffs()</text>
</a>
</g>
</g>
<!-- Node6&#45;&gt;Node4 -->
<g id="edge5" class="edge"><title>Node6&#45;&gt;Node4</title>
<path fill="none" stroke="#404040" d="M173.146,-1467.47C171.465,-1436.65 169.5,-1392.32 169.5,-1353.5 169.5,-1353.5 169.5,-1353.5 169.5,-996 169.5,-838.84 125.711,-412.414 225.5,-291 244.262,-268.173 261.219,-281.561 289.5,-273 334.397,-259.408 384.954,-242.938 422.323,-230.539"/>
<polygon fill="none" stroke="#404040" points="422.582,-230.453 427.012,-224.764 433.968,-226.665 429.538,-232.355 422.582,-230.453"/>
<text text-anchor="middle" x="177" y="-818" font-family="Helvetica,sans-Serif" font-size="10.00"> &#45;item</text>
</g>
<!-- Node16 -->
<g id="node15" class="node"><title>Node16</title>
<g id="a_node15"><a xlink:href="class_player.html" target="_top" xlink:title="Defines a playable character for use in battle scenes">
<polygon fill="none" stroke="black" points="369.5,-1296.5 369.5,-1408.5 481.5,-1408.5 481.5,-1296.5 369.5,-1296.5"/>
<text text-anchor="middle" x="425.5" y="-1396.5" font-family="Helvetica,sans-Serif" font-size="10.00">Player</text>
<polyline fill="none" stroke="black" points="369.5,-1389.5 481.5,-1389.5 "/>
<text text-anchor="start" x="377.5" y="-1377.5" font-family="Helvetica,sans-Serif" font-size="10.00">+ Exp</text>
<text text-anchor="start" x="377.5" y="-1366.5" font-family="Helvetica,sans-Serif" font-size="10.00">+ Item</text>
<text text-anchor="start" x="377.5" y="-1355.5" font-family="Helvetica,sans-Serif" font-size="10.00">+ ExpToNextLevel</text>
<polyline fill="none" stroke="black" points="369.5,-1348.5 481.5,-1348.5 "/>
<text text-anchor="start" x="377.5" y="-1336.5" font-family="Helvetica,sans-Serif" font-size="10.00">+ Player()</text>
<text text-anchor="start" x="377.5" y="-1325.5" font-family="Helvetica,sans-Serif" font-size="10.00">+ gainExp()</text>
<text text-anchor="start" x="377.5" y="-1314.5" font-family="Helvetica,sans-Serif" font-size="10.00">+ levelUp()</text>
<text text-anchor="start" x="377.5" y="-1303.5" font-family="Helvetica,sans-Serif" font-size="10.00">&#45; setExpToNextLevel()</text>
</a>
</g>
</g>
<!-- Node6&#45;&gt;Node16 -->
<g id="edge24" class="edge"><title>Node6&#45;&gt;Node16</title>
<path fill="none" stroke="#404040" d="M195.881,-1467.22C204.914,-1453.01 216.654,-1437.78 230.5,-1427 267.705,-1398.03 317.567,-1379.51 357.557,-1368.31"/>
<polygon fill="none" stroke="#404040" points="357.769,-1368.25 362.523,-1362.83 369.357,-1365.13 364.603,-1370.55 357.769,-1368.25"/>
<text text-anchor="middle" x="243" y="-1435.5" font-family="Helvetica,sans-Serif" font-size="10.00"> &#45;item</text>
</g>
<!-- Node7 -->
<g id="node6" class="node"><title>Node7</title>
<polygon fill="none" stroke="#bfbfbf" points="308,-1605.5 308,-1662.5 349,-1662.5 349,-1605.5 308,-1605.5"/>
<text text-anchor="middle" x="328.5" y="-1650.5" font-family="Helvetica,sans-Serif" font-size="10.00">string</text>
<polyline fill="none" stroke="#bfbfbf" points="308,-1643.5 349,-1643.5 "/>
<text text-anchor="middle" x="328.5" y="-1631.5" font-family="Helvetica,sans-Serif" font-size="10.00"> </text>
<polyline fill="none" stroke="#bfbfbf" points="308,-1624.5 349,-1624.5 "/>
<text text-anchor="middle" x="328.5" y="-1612.5" font-family="Helvetica,sans-Serif" font-size="10.00"> </text>
</g>
<!-- Node7&#45;&gt;Node4 -->
<g id="edge7" class="edge"><title>Node7&#45;&gt;Node4</title>
<path fill="none" stroke="#404040" d="M307.992,-1611.31C294.097,-1595.03 276.956,-1571.42 269.5,-1547 233.789,-1430.05 239.5,-1395.78 239.5,-1273.5 239.5,-1273.5 239.5,-1273.5 239.5,-353.5 239.5,-311.152 352.237,-260.069 422.529,-232.335"/>
<polygon fill="none" stroke="#404040" points="422.666,-232.282 426.804,-226.377 433.847,-227.926 429.708,-233.831 422.666,-232.282"/>
<text text-anchor="middle" x="274.5" y="-898" font-family="Helvetica,sans-Serif" font-size="10.00"> &#45;previousScene</text>
<text text-anchor="middle" x="274.5" y="-887" font-family="Helvetica,sans-Serif" font-size="10.00">+levelOrder</text>
</g>
<!-- Node7&#45;&gt;Node6 -->
<g id="edge6" class="edge"><title>Node7&#45;&gt;Node6</title>
<path fill="none" stroke="#404040" d="M307.799,-1631.42C279.183,-1628.12 227.765,-1617.98 198.5,-1587 191.016,-1579.08 185.95,-1568.86 182.526,-1558.42"/>
<polygon fill="none" stroke="#404040" points="182.473,-1558.23 177.035,-1553.49 179.315,-1546.65 184.753,-1551.39 182.473,-1558.23"/>
<text text-anchor="middle" x="213.5" y="-1579" font-family="Helvetica,sans-Serif" font-size="10.00"> #desc</text>
<text text-anchor="middle" x="213.5" y="-1568" font-family="Helvetica,sans-Serif" font-size="10.00">#name</text>
</g>
<!-- Node10 -->
<g id="node9" class="node"><title>Node10</title>
<g id="a_node9"><a xlink:href="class_character.html" target="_top" xlink:title="Base abstract class for Enemy and Player to inherit from. Defines all shared variables, their constructor and their setters and getters ">
<polygon fill="none" stroke="black" points="481,-447.5 481,-625.5 576,-625.5 576,-447.5 481,-447.5"/>
<text text-anchor="middle" x="528.5" y="-613.5" font-family="Helvetica,sans-Serif" font-size="10.00">Character</text>
<polyline fill="none" stroke="black" points="481,-606.5 576,-606.5 "/>
<text text-anchor="start" x="489" y="-594.5" font-family="Helvetica,sans-Serif" font-size="10.00">+ Name</text>
<text text-anchor="start" x="489" y="-583.5" font-family="Helvetica,sans-Serif" font-size="10.00">+ Level</text>
<text text-anchor="start" x="489" y="-572.5" font-family="Helvetica,sans-Serif" font-size="10.00">+ Health</text>
<text text-anchor="start" x="489" y="-561.5" font-family="Helvetica,sans-Serif" font-size="10.00">+ Attack</text>
<text text-anchor="start" x="489" y="-550.5" font-family="Helvetica,sans-Serif" font-size="10.00">+ Defence</text>
<text text-anchor="start" x="489" y="-539.5" font-family="Helvetica,sans-Serif" font-size="10.00">+ MaximumMagic</text>
<text text-anchor="start" x="489" y="-528.5" font-family="Helvetica,sans-Serif" font-size="10.00">+ Magic</text>
<text text-anchor="start" x="489" y="-517.5" font-family="Helvetica,sans-Serif" font-size="10.00">+ Luck</text>
<text text-anchor="start" x="489" y="-506.5" font-family="Helvetica,sans-Serif" font-size="10.00">+ Speed</text>
<text text-anchor="start" x="489" y="-495.5" font-family="Helvetica,sans-Serif" font-size="10.00">+ Special1</text>
<text text-anchor="start" x="489" y="-484.5" font-family="Helvetica,sans-Serif" font-size="10.00">+ Special2</text>
<text text-anchor="start" x="489" y="-473.5" font-family="Helvetica,sans-Serif" font-size="10.00">+ Image</text>
<polyline fill="none" stroke="black" points="481,-466.5 576,-466.5 "/>
<text text-anchor="start" x="489" y="-454.5" font-family="Helvetica,sans-Serif" font-size="10.00"># Character()</text>
</a>
</g>
</g>
<!-- Node7&#45;&gt;Node10 -->
<g id="edge11" class="edge"><title>Node7&#45;&gt;Node10</title>
<path fill="none" stroke="#404040" d="M337.249,-1605.21C348.695,-1565.82 366.82,-1491.38 362.5,-1427 361.164,-1407.09 339.836,-1268.91 338.5,-1249 330.086,-1123.62 319.087,-802.286 361.5,-684 380.121,-632.067 430.076,-592.43 470.532,-567.562"/>
<polygon fill="none" stroke="#404040" points="470.548,-567.553 473.652,-561.044 480.854,-561.406 477.75,-567.915 470.548,-567.553"/>
<text text-anchor="middle" x="355" y="-1151.5" font-family="Helvetica,sans-Serif" font-size="10.00"> #name</text>
</g>
<!-- Node12 -->
<g id="node11" class="node"><title>Node12</title>
<g id="a_node11"><a xlink:href="class_special_move.html" target="_top" xlink:title="Special move abstract base class that expands upon CharacterMove, adding magic properties ...">
<polygon fill="none" stroke="black" points="545.5,-684.5 545.5,-785.5 643.5,-785.5 643.5,-684.5 545.5,-684.5"/>
<text text-anchor="middle" x="594.5" y="-773.5" font-family="Helvetica,sans-Serif" font-size="10.00">SpecialMove</text>
<polyline fill="none" stroke="black" points="545.5,-766.5 643.5,-766.5 "/>
<text text-anchor="start" x="553.5" y="-754.5" font-family="Helvetica,sans-Serif" font-size="10.00">+ Magic</text>
<text text-anchor="start" x="553.5" y="-743.5" font-family="Helvetica,sans-Serif" font-size="10.00">+ Desc</text>
<text text-anchor="start" x="553.5" y="-732.5" font-family="Helvetica,sans-Serif" font-size="10.00">+ Special</text>
<polyline fill="none" stroke="black" points="545.5,-725.5 643.5,-725.5 "/>
<text text-anchor="start" x="553.5" y="-713.5" font-family="Helvetica,sans-Serif" font-size="10.00">+ setUp()</text>
<text text-anchor="start" x="553.5" y="-702.5" font-family="Helvetica,sans-Serif" font-size="10.00">+ decreaseMagic()</text>
<text text-anchor="start" x="553.5" y="-691.5" font-family="Helvetica,sans-Serif" font-size="10.00"># SpecialMove()</text>
</a>
</g>
</g>
<!-- Node7&#45;&gt;Node12 -->
<g id="edge26" class="edge"><title>Node7&#45;&gt;Node12</title>
<path fill="none" stroke="#404040" d="M349.056,-1623.62C366.964,-1615.08 393.309,-1601.61 414.5,-1587 436.808,-1571.63 442.503,-1567.25 460.5,-1547 549.279,-1447.1 585.5,-1407.15 585.5,-1273.5 585.5,-1273.5 585.5,-1273.5 585.5,-894 585.5,-862.266 587.332,-827.006 589.343,-797.86"/>
<polygon fill="none" stroke="#404040" points="589.351,-797.74 585.791,-791.469 590.211,-785.771 593.771,-792.042 589.351,-797.74"/>
<text text-anchor="middle" x="600.5" y="-1270" font-family="Helvetica,sans-Serif" font-size="10.00"> #desc</text>
</g>
<!-- Node13 -->
<g id="node12" class="node"><title>Node13</title>
<g id="a_node12"><a xlink:href="class_character_move.html" target="_top" xlink:title="Astract base class for character moves ">
<polygon fill="none" stroke="black" points="461.5,-855.5 461.5,-934.5 547.5,-934.5 547.5,-855.5 461.5,-855.5"/>
<text text-anchor="middle" x="504.5" y="-922.5" font-family="Helvetica,sans-Serif" font-size="10.00">CharacterMove</text>
<polyline fill="none" stroke="black" points="461.5,-915.5 547.5,-915.5 "/>
<text text-anchor="start" x="469.5" y="-903.5" font-family="Helvetica,sans-Serif" font-size="10.00">+ User</text>
<text text-anchor="start" x="469.5" y="-892.5" font-family="Helvetica,sans-Serif" font-size="10.00">+ Target</text>
<text text-anchor="start" x="469.5" y="-881.5" font-family="Helvetica,sans-Serif" font-size="10.00">+ Text</text>
<polyline fill="none" stroke="black" points="461.5,-874.5 547.5,-874.5 "/>
<text text-anchor="start" x="469.5" y="-862.5" font-family="Helvetica,sans-Serif" font-size="10.00">+ performMove()</text>
</a>
</g>
</g>
<!-- Node7&#45;&gt;Node13 -->
<g id="edge15" class="edge"><title>Node7&#45;&gt;Node13</title>
<path fill="none" stroke="#404040" d="M349.233,-1620.8C362.198,-1612.45 378.628,-1600.48 390.5,-1587 450.481,-1518.91 457.474,-1493.52 490.5,-1409 550.433,-1255.63 531.521,-1205.66 533.5,-1041 533.97,-1001.89 542.619,-991.033 533.5,-953 532.947,-950.692 532.284,-948.372 531.533,-946.059"/>
<polygon fill="none" stroke="#404040" points="531.445,-945.83 525.564,-941.658 527.152,-934.625 533.034,-938.796 531.445,-945.83"/>
<text text-anchor="middle" x="538" y="-1350" font-family="Helvetica,sans-Serif" font-size="10.00"> #text</text>
</g>
<!-- Node14 -->
<g id="node13" class="node"><title>Node14</title>
<g id="a_node13"><a xlink:href="class_battle_manager.html" target="_top" xlink:title="Holds current Player and Enemy objects in battle and provides functions for MainBattle and other obje...">
<polygon fill="none" stroke="black" points="403.5,-1059.5 403.5,-1248.5 519.5,-1248.5 519.5,-1059.5 403.5,-1059.5"/>
<text text-anchor="middle" x="461.5" y="-1236.5" font-family="Helvetica,sans-Serif" font-size="10.00">BattleManager</text>
<polyline fill="none" stroke="black" points="403.5,-1229.5 519.5,-1229.5 "/>
<text text-anchor="start" x="411.5" y="-1217.5" font-family="Helvetica,sans-Serif" font-size="10.00">+ Player</text>
<text text-anchor="start" x="411.5" y="-1206.5" font-family="Helvetica,sans-Serif" font-size="10.00">+ Enemy</text>
<text text-anchor="start" x="411.5" y="-1195.5" font-family="Helvetica,sans-Serif" font-size="10.00">+ WasCriticalHit</text>
<polyline fill="none" stroke="black" points="403.5,-1188.5 519.5,-1188.5 "/>
<text text-anchor="start" x="411.5" y="-1176.5" font-family="Helvetica,sans-Serif" font-size="10.00">+ BattleManager()</text>
<text text-anchor="start" x="411.5" y="-1165.5" font-family="Helvetica,sans-Serif" font-size="10.00">+ playerFirst()</text>
<text text-anchor="start" x="411.5" y="-1154.5" font-family="Helvetica,sans-Serif" font-size="10.00">+ switchPlayers()</text>
<text text-anchor="start" x="411.5" y="-1143.5" font-family="Helvetica,sans-Serif" font-size="10.00">+ isCriticalHit()</text>
<text text-anchor="start" x="411.5" y="-1132.5" font-family="Helvetica,sans-Serif" font-size="10.00">+ ranAway()</text>
<text text-anchor="start" x="411.5" y="-1121.5" font-family="Helvetica,sans-Serif" font-size="10.00">+ damageCalculation()</text>
<text text-anchor="start" x="411.5" y="-1110.5" font-family="Helvetica,sans-Serif" font-size="10.00">+ enemyMove()</text>
<text text-anchor="start" x="411.5" y="-1099.5" font-family="Helvetica,sans-Serif" font-size="10.00">+ enemySpecialMove()</text>
<text text-anchor="start" x="411.5" y="-1088.5" font-family="Helvetica,sans-Serif" font-size="10.00">+ battleWon()</text>
<text text-anchor="start" x="411.5" y="-1077.5" font-family="Helvetica,sans-Serif" font-size="10.00">+ playerFainted()</text>
<text text-anchor="start" x="411.5" y="-1066.5" font-family="Helvetica,sans-Serif" font-size="10.00">&#45; characterFainted()</text>
</a>
</g>
</g>
<!-- Node7&#45;&gt;Node14 -->
<g id="edge18" class="edge"><title>Node7&#45;&gt;Node14</title>
<path fill="none" stroke="#404040" d="M312.716,-1605.49C292.007,-1565.8 260.317,-1490.32 278.5,-1427 300.35,-1350.91 352.48,-1277.21 395.535,-1225.76"/>
<polygon fill="none" stroke="#404040" points="395.697,-1225.57 396.528,-1218.41 403.459,-1216.42 402.629,-1223.58 395.697,-1225.57"/>
<text text-anchor="middle" x="320.5" y="-1441" font-family="Helvetica,sans-Serif" font-size="10.00"> +forceEnemyMove</text>
<text text-anchor="middle" x="320.5" y="-1430" font-family="Helvetica,sans-Serif" font-size="10.00">+forceCriticalHits</text>
</g>
<!-- Node8 -->
<g id="node7" class="node"><title>Node8</title>
<polygon fill="none" stroke="#bfbfbf" points="406,-326 406,-383 477,-383 477,-326 406,-326"/>
<text text-anchor="middle" x="441.5" y="-371" font-family="Helvetica,sans-Serif" font-size="10.00">GameObject</text>
<polyline fill="none" stroke="#bfbfbf" points="406,-364 477,-364 "/>
<text text-anchor="middle" x="441.5" y="-352" font-family="Helvetica,sans-Serif" font-size="10.00"> </text>
<polyline fill="none" stroke="#bfbfbf" points="406,-345 477,-345 "/>
<text text-anchor="middle" x="441.5" y="-333" font-family="Helvetica,sans-Serif" font-size="10.00"> </text>
</g>
<!-- Node8&#45;&gt;Node4 -->
<g id="edge8" class="edge"><title>Node8&#45;&gt;Node4</title>
<path fill="none" stroke="#404040" d="M448.002,-325.774C450.588,-314.915 453.628,-302.359 456.5,-291 457.038,-288.874 457.587,-286.717 458.144,-284.54"/>
<polygon fill="none" stroke="#404040" points="458.182,-284.393 455.811,-277.583 461.185,-272.775 463.556,-279.585 458.182,-284.393"/>
<text text-anchor="middle" x="474.5" y="-294" font-family="Helvetica,sans-Serif" font-size="10.00"> +player</text>
</g>
<!-- Node9 -->
<g id="node8" class="node"><title>Node9</title>
<g id="a_node8"><a xlink:href="class_enemy.html" target="_top" xlink:title="Defines an AI controller enemy to fight in battle scenes">
<polygon fill="none" stroke="black" points="495,-326 495,-383 562,-383 562,-326 495,-326"/>
<text text-anchor="middle" x="528.5" y="-371" font-family="Helvetica,sans-Serif" font-size="10.00">Enemy</text>
<polyline fill="none" stroke="black" points="495,-364 562,-364 "/>
<text text-anchor="start" x="503" y="-352" font-family="Helvetica,sans-Serif" font-size="10.00">+ ExpGiven</text>
<polyline fill="none" stroke="black" points="495,-345 562,-345 "/>
<text text-anchor="start" x="503" y="-333" font-family="Helvetica,sans-Serif" font-size="10.00">+ Enemy()</text>
</a>
</g>
</g>
<!-- Node9&#45;&gt;Node4 -->
<g id="edge9" class="edge"><title>Node9&#45;&gt;Node4</title>
<path fill="none" stroke="#404040" d="M518.546,-325.881C514.18,-313.768 508.831,-298.927 503.455,-284.012"/>
<polygon fill="none" stroke="#404040" points="503.423,-283.924 497.626,-279.636 499.354,-272.635 505.152,-276.923 503.423,-283.924"/>
<text text-anchor="middle" x="527.5" y="-294" font-family="Helvetica,sans-Serif" font-size="10.00"> &#45;enemy</text>
</g>
<!-- Node9&#45;&gt;Node14 -->
<g id="edge19" class="edge"><title>Node9&#45;&gt;Node14</title>
<path fill="none" stroke="#404040" d="M499.262,-383.035C467.581,-415.991 421.5,-474.425 421.5,-535.5 421.5,-896 421.5,-896 421.5,-896 421.5,-946.159 429.031,-1001.18 437.558,-1047.39"/>
<polygon fill="none" stroke="#404040" points="437.571,-1047.46 442.617,-1052.61 439.803,-1059.25 434.756,-1054.1 437.571,-1047.46"/>
<text text-anchor="middle" x="439.5" y="-732.5" font-family="Helvetica,sans-Serif" font-size="10.00"> &#45;enemy</text>
</g>
<!-- Node10&#45;&gt;Node9 -->
<g id="edge10" class="edge"><title>Node10&#45;&gt;Node9</title>
<path fill="none" stroke="midnightblue" d="M528.5,-437.235C528.5,-417.342 528.5,-397.991 528.5,-383.116"/>
<polygon fill="none" stroke="midnightblue" points="525,-437.346 528.5,-447.346 532,-437.346 525,-437.346"/>
</g>
<!-- Node10&#45;&gt;Node13 -->
<g id="edge16" class="edge"><title>Node10&#45;&gt;Node13</title>
<path fill="none" stroke="#404040" d="M510.238,-625.87C507.018,-644.958 504.165,-665.087 502.5,-684 498.524,-729.159 502.08,-740.669 502.5,-786 502.673,-804.665 503.014,-825.141 503.366,-843.199"/>
<polygon fill="none" stroke="#404040" points="503.367,-843.265 507.487,-849.183 503.609,-855.263 499.489,-849.345 503.367,-843.265"/>
<text text-anchor="middle" x="519.5" y="-738" font-family="Helvetica,sans-Serif" font-size="10.00"> #target</text>
<text text-anchor="middle" x="519.5" y="-727" font-family="Helvetica,sans-Serif" font-size="10.00">#user</text>
</g>
<!-- Node10&#45;&gt;Node16 -->
<g id="edge23" class="edge"><title>Node10&#45;&gt;Node16</title>
<path fill="none" stroke="midnightblue" d="M472.888,-576.206C429.131,-611.654 375.5,-668.468 375.5,-734 375.5,-1155 375.5,-1155 375.5,-1155 375.5,-1203.75 390.135,-1257.27 403.569,-1296.12"/>
<polygon fill="none" stroke="midnightblue" points="475.262,-578.791 480.929,-569.838 470.916,-573.303 475.262,-578.791"/>
</g>
<!-- Node11 -->
<g id="node10" class="node"><title>Node11</title>
<polygon fill="none" stroke="#bfbfbf" points="742,-1478.5 742,-1535.5 771,-1535.5 771,-1478.5 742,-1478.5"/>
<text text-anchor="middle" x="756.5" y="-1523.5" font-family="Helvetica,sans-Serif" font-size="10.00">int</text>
<polyline fill="none" stroke="#bfbfbf" points="742,-1516.5 771,-1516.5 "/>
<text text-anchor="middle" x="756.5" y="-1504.5" font-family="Helvetica,sans-Serif" font-size="10.00"> </text>
<polyline fill="none" stroke="#bfbfbf" points="742,-1497.5 771,-1497.5 "/>
<text text-anchor="middle" x="756.5" y="-1485.5" font-family="Helvetica,sans-Serif" font-size="10.00"> </text>
</g>
<!-- Node11&#45;&gt;Node2 -->
<g id="edge37" class="edge"><title>Node11&#45;&gt;Node2</title>
<path fill="none" stroke="#404040" d="M771.219,-1506.45C838.026,-1507.66 1109.5,-1503.37 1109.5,-1353.5 1109.5,-1353.5 1109.5,-1353.5 1109.5,-210 1109.5,-136.398 1024.69,-91.2594 966.645,-68.986"/>
<polygon fill="none" stroke="#404040" points="966.322,-68.8666 959.308,-70.5383 955.067,-64.7062 962.081,-63.0345 966.322,-68.8666"/>
<text text-anchor="middle" x="1162.5" y="-743.5" font-family="Helvetica,sans-Serif" font-size="10.00"> +numberOfItems</text>
<text text-anchor="middle" x="1162.5" y="-732.5" font-family="Helvetica,sans-Serif" font-size="10.00">+costs</text>
<text text-anchor="middle" x="1162.5" y="-721.5" font-family="Helvetica,sans-Serif" font-size="10.00">+numberOfItemsPerRow</text>
</g>
<!-- Node11&#45;&gt;Node4 -->
<g id="edge32" class="edge"><title>Node11&#45;&gt;Node4</title>
<path fill="none" stroke="#404040" d="M771.032,-1493.56C783.04,-1482.71 799.935,-1466.08 811.5,-1449 822.43,-1432.86 824.413,-1427.82 829.5,-1409 885.312,-1202.51 921.971,-652.47 862.5,-447 856.798,-427.301 854.2,-421.298 839.5,-407 748.546,-318.534 609.387,-258.911 532.806,-230.726"/>
<polygon fill="none" stroke="#404040" points="532.351,-230.561 525.347,-232.277 521.069,-226.472 528.073,-224.756 532.351,-230.561"/>
<text text-anchor="middle" x="924" y="-829" font-family="Helvetica,sans-Serif" font-size="10.00"> +currentLevel</text>
<text text-anchor="middle" x="924" y="-818" font-family="Helvetica,sans-Serif" font-size="10.00">+lastLevel</text>
<text text-anchor="middle" x="924" y="-807" font-family="Helvetica,sans-Serif" font-size="10.00">&#45;money</text>
</g>
<!-- Node11&#45;&gt;Node9 -->
<g id="edge30" class="edge"><title>Node11&#45;&gt;Node9</title>
<path fill="none" stroke="#404040" d="M771.112,-1485.4C789.723,-1457.09 819.5,-1403.92 819.5,-1353.5 819.5,-1353.5 819.5,-1353.5 819.5,-996 819.5,-865.111 902.658,-507.247 818.5,-407 787.847,-370.487 647.996,-359.842 574.282,-356.753"/>
<polygon fill="none" stroke="#404040" points="574.178,-356.749 568.029,-360.516 562.186,-356.289 568.335,-352.522 574.178,-356.749"/>
<text text-anchor="middle" x="855.5" y="-892.5" font-family="Helvetica,sans-Serif" font-size="10.00"> &#45;expGiven</text>
</g>
<!-- Node11&#45;&gt;Node10 -->
<g id="edge12" class="edge"><title>Node11&#45;&gt;Node10</title>
<path fill="none" stroke="#404040" d="M749.427,-1478.47C731.404,-1406.92 683.815,-1209.01 664.5,-1041 646.368,-883.283 707.559,-832.903 652.5,-684 638.691,-646.654 610.757,-612.254 584.893,-586.186"/>
<polygon fill="none" stroke="#404040" points="584.786,-586.081 577.703,-584.731 576.225,-577.673 583.308,-579.023 584.786,-586.081"/>
<text text-anchor="middle" x="702" y="-1033" font-family="Helvetica,sans-Serif" font-size="10.00"> #speed</text>
<text text-anchor="middle" x="702" y="-1022" font-family="Helvetica,sans-Serif" font-size="10.00">#luck</text>
<text text-anchor="middle" x="702" y="-1011" font-family="Helvetica,sans-Serif" font-size="10.00">#health</text>
<text text-anchor="middle" x="702" y="-1000" font-family="Helvetica,sans-Serif" font-size="10.00">#magic</text>
<text text-anchor="middle" x="702" y="-989" font-family="Helvetica,sans-Serif" font-size="10.00">#maximumMagic</text>
<text text-anchor="middle" x="702" y="-978" font-family="Helvetica,sans-Serif" font-size="10.00">#attack</text>
<text text-anchor="middle" x="702" y="-967" font-family="Helvetica,sans-Serif" font-size="10.00">#defence</text>
<text text-anchor="middle" x="702" y="-956" font-family="Helvetica,sans-Serif" font-size="10.00">#level</text>
</g>
<!-- Node11&#45;&gt;Node12 -->
<g id="edge28" class="edge"><title>Node11&#45;&gt;Node12</title>
<path fill="none" stroke="#404040" d="M757.918,-1478.31C762.604,-1380.55 775.544,-1052.15 743.5,-953 737.82,-935.427 679.905,-853.525 637.986,-795.541"/>
<polygon fill="none" stroke="#404040" points="637.923,-795.454 631.164,-792.94 630.884,-785.735 637.643,-788.248 637.923,-795.454"/>
<text text-anchor="middle" x="782" y="-1151.5" font-family="Helvetica,sans-Serif" font-size="10.00"> #magic</text>
</g>
<!-- Node11&#45;&gt;Node14 -->
<g id="edge20" class="edge"><title>Node11&#45;&gt;Node14</title>
<path fill="none" stroke="#404040" d="M741.788,-1494.04C721.828,-1477.09 686.281,-1444.19 665.5,-1409 631.769,-1351.88 658.783,-1320.46 619.5,-1267 596.246,-1235.35 561.323,-1209.27 530.218,-1190.26"/>
<polygon fill="none" stroke="#404040" points="530.152,-1190.22 522.951,-1190.59 519.839,-1184.09 527.04,-1183.72 530.152,-1190.22"/>
<text text-anchor="middle" x="685" y="-1350" font-family="Helvetica,sans-Serif" font-size="10.00"> +money</text>
</g>
<!-- Node11&#45;&gt;Node16 -->
<g id="edge25" class="edge"><title>Node11&#45;&gt;Node16</title>
<path fill="none" stroke="#404040" d="M741.845,-1501.53C702.906,-1489.38 594.129,-1453.65 510.5,-1409 504.424,-1405.76 498.223,-1402.21 492.076,-1398.53"/>
<polygon fill="none" stroke="#404040" points="492.043,-1398.51 484.837,-1398.78 481.814,-1392.24 489.02,-1391.96 492.043,-1398.51"/>
<text text-anchor="middle" x="634" y="-1441" font-family="Helvetica,sans-Serif" font-size="10.00"> &#45;expToNextLevel</text>
<text text-anchor="middle" x="634" y="-1430" font-family="Helvetica,sans-Serif" font-size="10.00">&#45;exp</text>
</g>
<!-- Node12&#45;&gt;Node10 -->
<g id="edge13" class="edge"><title>Node12&#45;&gt;Node10</title>
<path fill="none" stroke="#404040" d="M577.845,-684.415C573.021,-670.051 567.573,-653.831 562.103,-637.545"/>
<polygon fill="none" stroke="#404040" points="561.945,-637.076 556.243,-632.662 558.124,-625.7 563.827,-630.114 561.945,-637.076"/>
<text text-anchor="middle" x="594" y="-658" font-family="Helvetica,sans-Serif" font-size="10.00"> #special1</text>
<text text-anchor="middle" x="594" y="-647" font-family="Helvetica,sans-Serif" font-size="10.00">#special2</text>
</g>
<!-- Node13&#45;&gt;Node12 -->
<g id="edge14" class="edge"><title>Node13&#45;&gt;Node12</title>
<path fill="none" stroke="midnightblue" d="M531.579,-846.461C542.53,-827.237 555.173,-805.041 566.24,-785.611"/>
<polygon fill="none" stroke="midnightblue" points="528.425,-844.927 526.516,-855.349 534.507,-848.392 528.425,-844.927"/>
</g>
<!-- Node14&#45;&gt;Node13 -->
<g id="edge17" class="edge"><title>Node14&#45;&gt;Node13</title>
<path fill="none" stroke="#404040" d="M470.522,-1059.37C474.6,-1025.64 480.18,-987.42 487.5,-953 487.955,-950.858 488.452,-948.68 488.98,-946.487"/>
<polygon fill="none" stroke="#404040" points="489.019,-946.338 486.661,-939.523 492.044,-934.726 494.402,-941.54 489.019,-946.338"/>
<text text-anchor="middle" x="510.5" y="-994.5" font-family="Helvetica,sans-Serif" font-size="10.00"> #manager</text>
</g>
<!-- Node15 -->
<g id="node14" class="node"><title>Node15</title>
<polygon fill="none" stroke="#bfbfbf" points="954,-1324 954,-1381 989,-1381 989,-1324 954,-1324"/>
<text text-anchor="middle" x="971.5" y="-1369" font-family="Helvetica,sans-Serif" font-size="10.00">bool</text>
<polyline fill="none" stroke="#bfbfbf" points="954,-1362 989,-1362 "/>
<text text-anchor="middle" x="971.5" y="-1350" font-family="Helvetica,sans-Serif" font-size="10.00"> </text>
<polyline fill="none" stroke="#bfbfbf" points="954,-1343 989,-1343 "/>
<text text-anchor="middle" x="971.5" y="-1331" font-family="Helvetica,sans-Serif" font-size="10.00"> </text>
</g>
<!-- Node15&#45;&gt;Node2 -->
<g id="edge38" class="edge"><title>Node15&#45;&gt;Node2</title>
<path fill="none" stroke="#404040" d="M989.021,-1330.34C1015.71,-1295.89 1063.5,-1224.5 1063.5,-1155 1063.5,-1155 1063.5,-1155 1063.5,-210 1063.5,-151.646 1009.02,-106.243 965.727,-79.3736"/>
<polygon fill="none" stroke="#404040" points="965.574,-79.2815 958.371,-79.6252 955.283,-73.1085 962.486,-72.7649 965.574,-79.2815"/>
<text text-anchor="middle" x="1077" y="-652.5" font-family="Helvetica,sans-Serif" font-size="10.00"> &#45;draw</text>
</g>
<!-- Node15&#45;&gt;Node4 -->
<g id="edge33" class="edge"><title>Node15&#45;&gt;Node4</title>
<path fill="none" stroke="#404040" d="M971.296,-1324C970.621,-1230.45 968.5,-915.909 968.5,-656 968.5,-656 968.5,-656 968.5,-353.5 968.5,-317.365 949.045,-306.701 916.5,-291 789.03,-229.502 619.819,-215.548 533.434,-212.598"/>
<polygon fill="none" stroke="#404040" points="533.299,-212.594 527.183,-216.414 521.304,-212.238 527.42,-208.418 533.299,-212.594"/>
<text text-anchor="middle" x="1003" y="-732.5" font-family="Helvetica,sans-Serif" font-size="10.00"> +canRunAway</text>
</g>
<!-- Node15&#45;&gt;Node14 -->
<g id="edge21" class="edge"><title>Node15&#45;&gt;Node14</title>
<path fill="none" stroke="#404040" d="M953.945,-1344.74C887.667,-1319.2 650.377,-1227.77 531.053,-1181.8"/>
<polygon fill="none" stroke="#404040" points="530.734,-1181.68 523.697,-1183.25 519.536,-1177.36 526.573,-1175.79 530.734,-1181.68"/>
<text text-anchor="middle" x="810.5" y="-1270" font-family="Helvetica,sans-Serif" font-size="10.00"> &#45;wasCriticalHit</text>
</g>
<!-- Node16&#45;&gt;Node14 -->
<g id="edge22" class="edge"><title>Node16&#45;&gt;Node14</title>
<path fill="none" stroke="#404040" d="M435.624,-1296.24C437.688,-1284.97 439.925,-1272.76 442.19,-1260.4"/>
<polygon fill="none" stroke="#404040" points="442.202,-1260.33 439.349,-1253.71 444.365,-1248.53 447.218,-1255.15 442.202,-1260.33"/>
<text text-anchor="middle" x="457" y="-1270" font-family="Helvetica,sans-Serif" font-size="10.00"> &#45;player</text>
</g>
<!-- Node17 -->
<g id="node16" class="node"><title>Node17</title>
<polygon fill="none" stroke="#bfbfbf" points="745,-866.5 745,-923.5 780,-923.5 780,-866.5 745,-866.5"/>
<text text-anchor="middle" x="762.5" y="-911.5" font-family="Helvetica,sans-Serif" font-size="10.00">float</text>
<polyline fill="none" stroke="#bfbfbf" points="745,-904.5 780,-904.5 "/>
<text text-anchor="middle" x="762.5" y="-892.5" font-family="Helvetica,sans-Serif" font-size="10.00"> </text>
<polyline fill="none" stroke="#bfbfbf" points="745,-885.5 780,-885.5 "/>
<text text-anchor="middle" x="762.5" y="-873.5" font-family="Helvetica,sans-Serif" font-size="10.00"> </text>
</g>
<!-- Node17&#45;&gt;Node2 -->
<g id="edge35" class="edge"><title>Node17&#45;&gt;Node2</title>
<path fill="none" stroke="#404040" d="M769.806,-866.344C771.986,-857.078 774.152,-846.65 775.5,-837 809.218,-595.702 755.184,-524.574 824.5,-291 842.77,-229.435 868.907,-160.913 888.131,-113.079"/>
<polygon fill="none" stroke="#404040" points="888.24,-112.81 886.78,-105.748 892.737,-101.684 894.197,-108.746 888.24,-112.81"/>
<text text-anchor="middle" x="821" y="-421" font-family="Helvetica,sans-Serif" font-size="10.00"> &#45;cellWidth</text>
<text text-anchor="middle" x="821" y="-410" font-family="Helvetica,sans-Serif" font-size="10.00">&#45;cellHeight</text>
</g>
<!-- Node17&#45;&gt;Node12 -->
<g id="edge27" class="edge"><title>Node17&#45;&gt;Node12</title>
<path fill="none" stroke="#404040" d="M749.167,-866.301C737.87,-843.594 722.03,-813.681 712.5,-804 703.036,-794.386 678.563,-779.832 654.342,-766.652"/>
<polygon fill="none" stroke="#404040" points="654.226,-766.59 647.048,-767.274 643.655,-760.911 650.834,-760.226 654.226,-766.59"/>
<text text-anchor="middle" x="753.5" y="-818" font-family="Helvetica,sans-Serif" font-size="10.00"> #special</text>
</g>
<!-- Node18 -->
<g id="node17" class="node"><title>Node18</title>
<polygon fill="none" stroke="#bfbfbf" points="700,-706.5 700,-763.5 761,-763.5 761,-706.5 700,-706.5"/>
<text text-anchor="middle" x="730.5" y="-751.5" font-family="Helvetica,sans-Serif" font-size="10.00">Texture2D</text>
<polyline fill="none" stroke="#bfbfbf" points="700,-744.5 761,-744.5 "/>
<text text-anchor="middle" x="730.5" y="-732.5" font-family="Helvetica,sans-Serif" font-size="10.00"> </text>
<polyline fill="none" stroke="#bfbfbf" points="700,-725.5 761,-725.5 "/>
<text text-anchor="middle" x="730.5" y="-713.5" font-family="Helvetica,sans-Serif" font-size="10.00"> </text>
</g>
<!-- Node18&#45;&gt;Node10 -->
<g id="edge29" class="edge"><title>Node18&#45;&gt;Node10</title>
<path fill="none" stroke="#404040" d="M720.917,-706.234C713.389,-687.232 701.497,-662.268 685.5,-644 657.916,-612.499 619.01,-586.02 586.831,-567.345"/>
<polygon fill="none" stroke="#404040" points="586.639,-567.236 579.446,-567.754 576.201,-561.315 583.394,-560.796 586.639,-567.236"/>
<text text-anchor="middle" x="718" y="-652.5" font-family="Helvetica,sans-Serif" font-size="10.00"> #image</text>
</g>
<!-- Node19 -->
<g id="node18" class="node"><title>Node19</title>
<polygon fill="none" stroke="#bfbfbf" points="842.5,-320.5 842.5,-388.5 940.5,-388.5 940.5,-320.5 842.5,-320.5"/>
<text text-anchor="start" x="850.5" y="-376.5" font-family="Helvetica,sans-Serif" font-size="10.00">IDictionary&lt; string,</text>
<text text-anchor="middle" x="891.5" y="-365.5" font-family="Helvetica,sans-Serif" font-size="10.00"> bool &gt;</text>
<polyline fill="none" stroke="#bfbfbf" points="842.5,-358.5 940.5,-358.5 "/>
<text text-anchor="middle" x="891.5" y="-346.5" font-family="Helvetica,sans-Serif" font-size="10.00"> </text>
<polyline fill="none" stroke="#bfbfbf" points="842.5,-339.5 940.5,-339.5 "/>
<text text-anchor="middle" x="891.5" y="-327.5" font-family="Helvetica,sans-Serif" font-size="10.00"> </text>
</g>
<!-- Node19&#45;&gt;Node4 -->
<g id="edge34" class="edge"><title>Node19&#45;&gt;Node4</title>
<path fill="none" stroke="#404040" d="M864.88,-320.409C854.579,-309.562 842.01,-298.405 828.5,-291 733.425,-238.888 605.911,-221.124 533.658,-215.088"/>
<polygon fill="none" stroke="#404040" points="533.224,-215.055 526.931,-218.577 521.26,-214.123 527.552,-210.601 533.224,-215.055"/>
<text text-anchor="middle" x="879" y="-294" font-family="Helvetica,sans-Serif" font-size="10.00"> +objectsActive</text>
</g>
<!-- Node20 -->
<g id="node19" class="node"><title>Node20</title>
<polygon fill="none" stroke="#bfbfbf" points="1137.5,-182.5 1137.5,-239.5 1195.5,-239.5 1195.5,-182.5 1137.5,-182.5"/>
<text text-anchor="middle" x="1166.5" y="-227.5" font-family="Helvetica,sans-Serif" font-size="10.00">Texture []</text>
<polyline fill="none" stroke="#bfbfbf" points="1137.5,-220.5 1195.5,-220.5 "/>
<text text-anchor="middle" x="1166.5" y="-208.5" font-family="Helvetica,sans-Serif" font-size="10.00"> </text>
<polyline fill="none" stroke="#bfbfbf" points="1137.5,-201.5 1195.5,-201.5 "/>
<text text-anchor="middle" x="1166.5" y="-189.5" font-family="Helvetica,sans-Serif" font-size="10.00"> </text>
</g>
<!-- Node20&#45;&gt;Node2 -->
<g id="edge36" class="edge"><title>Node20&#45;&gt;Node2</title>
<path fill="none" stroke="#404040" d="M1159.65,-182.409C1153.37,-162.483 1142.13,-136.312 1123.5,-120 1079.56,-81.5331 1013.53,-64.7671 967.267,-57.4968"/>
<polygon fill="none" stroke="#404040" points="967.244,-57.4936 960.731,-60.5884 955.369,-55.7665 961.882,-52.6717 967.244,-57.4936"/>
<text text-anchor="middle" x="1145" y="-123" font-family="Helvetica,sans-Serif" font-size="10.00"> +tex</text>
</g>
</g>
</svg>
        <g id="navigator" transform="translate(0 0)" fill="#404254">
                <rect fill="#f2f5e9" fill-opacity="0.5" stroke="#606060" stroke-width=".5" x="0" y="0" width="60" height="60"/>
                <use id="zoomplus" xlink:href="#zoomPlus" x="17" y="9" onmousedown="handleZoom(evt,'in')"/>
                <use id="zoomminus" xlink:href="#zoomMin" x="42" y="9" onmousedown="handleZoom(evt,'out')"/>
                <use id="reset" xlink:href="#resetDef" x="30" y="36" onmousedown="handleReset()"/>
                <g id="arrowUp" xlink:href="#dirArrow" transform="translate(30 24)" onmousedown="handlePan(0,-1)">
                  <use xlink:href="#rim" fill="#404040">
                        <set attributeName="fill" to="#808080" begin="arrowUp.mouseover" end="arrowUp.mouseout"/>
                  </use>
                  <path fill="none" stroke="white" stroke-width="1.5" d="M0,-3.0v7 M-2.5,-0.5L0,-3.0L2.5,-0.5"/>
                </g>
                <g id="arrowRight" xlink:href="#dirArrow" transform="rotate(90) translate(36 -43)" onmousedown="handlePan(1,0)">
                  <use xlink:href="#rim" fill="#404040">
                        <set attributeName="fill" to="#808080" begin="arrowRight.mouseover" end="arrowRight.mouseout"/>
                  </use>
                  <path fill="none" stroke="white" stroke-width="1.5" d="M0,-3.0v7 M-2.5,-0.5L0,-3.0L2.5,-0.5"/>
                </g>
                <g id="arrowDown" xlink:href="#dirArrow" transform="rotate(180) translate(-30 -48)" onmousedown="handlePan(0,1)">
                  <use xlink:href="#rim" fill="#404040">
                        <set attributeName="fill" to="#808080" begin="arrowDown.mouseover" end="arrowDown.mouseout"/>
                  </use>
                  <path fill="none" stroke="white" stroke-width="1.5" d="M0,-3.0v7 M-2.5,-0.5L0,-3.0L2.5,-0.5"/>
                </g>
                <g id="arrowLeft" xlink:href="#dirArrow" transform="rotate(270) translate(-36 17)" onmousedown="handlePan(-1,0)">
                  <use xlink:href="#rim" fill="#404040">
                        <set attributeName="fill" to="#808080" begin="arrowLeft.mouseover" end="arrowLeft.mouseout"/>
                  </use>
                  <path fill="none" stroke="white" stroke-width="1.5" d="M0,-3.0v7 M-2.5,-0.5L0,-3.0L2.5,-0.5"/>
                </g>
        </g>
        <svg viewBox="0 0 15 15" width="100%" height="30px" preserveAspectRatio="xMaxYMin meet">
         <g id="arrow_out" transform="scale(0.3 0.3)">
          <a xlink:href="class_vendor__coll__graph_org.svg" target="_base">
           <rect id="button" ry="5" rx="5" y="6" x="6" height="38" width="38"
                fill="#f2f5e9" fill-opacity="0.5" stroke="#606060" stroke-width="1.0"/>
           <path id="arrow"
             d="M 11.500037,31.436501 C 11.940474,20.09759 22.043105,11.32322 32.158766,21.979434 L 37.068811,17.246167 C 37.068811,17.246167 37.088388,32 37.088388,32 L 22.160133,31.978069 C 22.160133,31.978069 26.997745,27.140456 26.997745,27.140456 C 18.528582,18.264221 13.291696,25.230495 11.500037,31.436501 z"
             style="fill:#404040;"/>
          </a>
         </g>
        </svg>
</svg>
