<?xml version="1.0" encoding="UTF-8" standalone="no"?>
<!DOCTYPE svg PUBLIC "-//W3C//DTD SVG 1.1//EN"
 "http://www.w3.org/Graphics/SVG/1.1/DTD/svg11.dtd">
<!-- Generated by graphviz version 2.38.0 (20140413.2041)
 -->
<!-- Title: IncreaseMoney Pages: 1 -->
<!--zoomable 1067 -->
<svg id="main" version="1.1" xmlns="http://www.w3.org/2000/svg" xmlns:xlink="http://www.w3.org/1999/xlink" xml:space="preserve" onload="init(evt)">
<style type="text/css"><![CDATA[
.edge:hover path { stroke: red; }
.edge:hover polygon { stroke: red; fill: red; }
]]></style>
<script type="text/javascript"><![CDATA[
var edges = document.getElementsByTagName('g');
if (edges && edges.length) {
  for (var i=0;i<edges.length;i++) {
    if (edges[i].id.substr(0,4)=='edge') {
      edges[i].setAttribute('class','edge');
    }
  }
}
]]></script>
        <defs>
                <circle id="rim" cx="0" cy="0" r="7"/>
                <circle id="rim2" cx="0" cy="0" r="3.5"/>
                <g id="zoomPlus">
                        <use xlink:href="#rim" fill="#404040">
                                <set attributeName="fill" to="#808080" begin="zoomplus.mouseover" end="zoomplus.mouseout"/>
                        </use>
                        <path d="M-4,0h8M0,-4v8" fill="none" stroke="white" stroke-width="1.5" pointer-events="none"/>
                </g>
                <g id="zoomMin">
                        <use xlink:href="#rim" fill="#404040">
                                <set attributeName="fill" to="#808080" begin="zoomminus.mouseover" end="zoomminus.mouseout"/>
                        </use>
                        <path d="M-4,0h8" fill="none" stroke="white" stroke-width="1.5" pointer-events="none"/>
                </g>
                <g id="dirArrow">
                        <path fill="none" stroke="white" stroke-width="1.5" d="M0,-3.0v7 M-2.5,-0.5L0,-3.0L2.5,-0.5"/>
                </g>
               <g id="resetDef">
                       <use xlink:href="#rim2" fill="#404040">
                               <set attributeName="fill" to="#808080" begin="reset.mouseover" end="reset.mouseout"/>
                       </use>
               </g>
        </defs>

<script type="text/javascript">
var viewWidth = 796;
var viewHeight = 1067;
var sectionId = 'dynsection-1';
</script>
<script xlink:href="svgpan.js"/>
<svg id="graph" class="graph">
<g id="viewport">
<title>IncreaseMoney</title>
<!-- Node3 -->
<g id="node1" class="node"><title>Node3</title>
<polygon fill="#bfbfbf" stroke="black" points="100.5,-601.5 100.5,-669.5 198.5,-669.5 198.5,-601.5 100.5,-601.5"/>
<text text-anchor="middle" x="149.5" y="-657.5" font-family="Helvetica,sans-Serif" font-size="10.00">IncreaseMoney</text>
<polyline fill="none" stroke="black" points="100.5,-650.5 198.5,-650.5 "/>
<text text-anchor="middle" x="149.5" y="-638.5" font-family="Helvetica,sans-Serif" font-size="10.00"> </text>
<polyline fill="none" stroke="black" points="100.5,-631.5 198.5,-631.5 "/>
<text text-anchor="start" x="108.5" y="-619.5" font-family="Helvetica,sans-Serif" font-size="10.00">+ IncreaseMoney()</text>
<text text-anchor="start" x="108.5" y="-608.5" font-family="Helvetica,sans-Serif" font-size="10.00">+ performMove()</text>
</g>
<!-- Node4 -->
<g id="node2" class="node"><title>Node4</title>
<g id="a_node2"><a xlink:href="class_special_move.html" target="_top" xlink:title="Special move abstract base class that expands upon CharacterMove, adding magic properties ...">
<polygon fill="none" stroke="black" points="144.5,-841.5 144.5,-942.5 242.5,-942.5 242.5,-841.5 144.5,-841.5"/>
<text text-anchor="middle" x="193.5" y="-930.5" font-family="Helvetica,sans-Serif" font-size="10.00">SpecialMove</text>
<polyline fill="none" stroke="black" points="144.5,-923.5 242.5,-923.5 "/>
<text text-anchor="start" x="152.5" y="-911.5" font-family="Helvetica,sans-Serif" font-size="10.00">+ Magic</text>
<text text-anchor="start" x="152.5" y="-900.5" font-family="Helvetica,sans-Serif" font-size="10.00">+ Desc</text>
<text text-anchor="start" x="152.5" y="-889.5" font-family="Helvetica,sans-Serif" font-size="10.00">+ Special</text>
<polyline fill="none" stroke="black" points="144.5,-882.5 242.5,-882.5 "/>
<text text-anchor="start" x="152.5" y="-870.5" font-family="Helvetica,sans-Serif" font-size="10.00">+ setUp()</text>
<text text-anchor="start" x="152.5" y="-859.5" font-family="Helvetica,sans-Serif" font-size="10.00">+ decreaseMagic()</text>
<text text-anchor="start" x="152.5" y="-848.5" font-family="Helvetica,sans-Serif" font-size="10.00"># SpecialMove()</text>
</a>
</g>
</g>
<!-- Node4&#45;&gt;Node3 -->
<g id="edge1" class="edge"><title>Node4&#45;&gt;Node3</title>
<path fill="none" stroke="midnightblue" d="M183.165,-831.222C174.464,-780.893 162.337,-710.752 155.263,-669.835"/>
<polygon fill="none" stroke="midnightblue" points="179.759,-832.068 184.912,-841.326 186.657,-830.876 179.759,-832.068"/>
</g>
<!-- Node7 -->
<g id="node5" class="node"><title>Node7</title>
<g id="a_node5"><a xlink:href="class_character.html" target="_top" xlink:title="Base abstract class for Enemy and Player to inherit from. Defines all shared variables, their constructor and their setters and getters ">
<polygon fill="none" stroke="black" points="436,-546.5 436,-724.5 531,-724.5 531,-546.5 436,-546.5"/>
<text text-anchor="middle" x="483.5" y="-712.5" font-family="Helvetica,sans-Serif" font-size="10.00">Character</text>
<polyline fill="none" stroke="black" points="436,-705.5 531,-705.5 "/>
<text text-anchor="start" x="444" y="-693.5" font-family="Helvetica,sans-Serif" font-size="10.00">+ Name</text>
<text text-anchor="start" x="444" y="-682.5" font-family="Helvetica,sans-Serif" font-size="10.00">+ Level</text>
<text text-anchor="start" x="444" y="-671.5" font-family="Helvetica,sans-Serif" font-size="10.00">+ Health</text>
<text text-anchor="start" x="444" y="-660.5" font-family="Helvetica,sans-Serif" font-size="10.00">+ Attack</text>
<text text-anchor="start" x="444" y="-649.5" font-family="Helvetica,sans-Serif" font-size="10.00">+ Defence</text>
<text text-anchor="start" x="444" y="-638.5" font-family="Helvetica,sans-Serif" font-size="10.00">+ MaximumMagic</text>
<text text-anchor="start" x="444" y="-627.5" font-family="Helvetica,sans-Serif" font-size="10.00">+ Magic</text>
<text text-anchor="start" x="444" y="-616.5" font-family="Helvetica,sans-Serif" font-size="10.00">+ Luck</text>
<text text-anchor="start" x="444" y="-605.5" font-family="Helvetica,sans-Serif" font-size="10.00">+ Speed</text>
<text text-anchor="start" x="444" y="-594.5" font-family="Helvetica,sans-Serif" font-size="10.00">+ Special1</text>
<text text-anchor="start" x="444" y="-583.5" font-family="Helvetica,sans-Serif" font-size="10.00">+ Special2</text>
<text text-anchor="start" x="444" y="-572.5" font-family="Helvetica,sans-Serif" font-size="10.00">+ Image</text>
<polyline fill="none" stroke="black" points="436,-565.5 531,-565.5 "/>
<text text-anchor="start" x="444" y="-553.5" font-family="Helvetica,sans-Serif" font-size="10.00"># Character()</text>
</a>
</g>
</g>
<!-- Node4&#45;&gt;Node7 -->
<g id="edge7" class="edge"><title>Node4&#45;&gt;Node7</title>
<path fill="none" stroke="#404040" d="M228.47,-841.22C258.331,-798.862 296.878,-744.6 299.5,-743 346.287,-714.451 374.862,-753.792 421.5,-725 423.096,-724.015 424.662,-722.971 426.198,-721.875"/>
<polygon fill="none" stroke="#404040" points="426.603,-721.545 428.719,-714.652 435.897,-713.954 433.78,-720.847 426.603,-721.545"/>
<text text-anchor="middle" x="322" y="-786" font-family="Helvetica,sans-Serif" font-size="10.00"> #special1</text>
<text text-anchor="middle" x="322" y="-775" font-family="Helvetica,sans-Serif" font-size="10.00">#special2</text>
</g>
<!-- Node5 -->
<g id="node3" class="node"><title>Node5</title>
<g id="a_node3"><a xlink:href="class_character_move.html" target="_top" xlink:title="Astract base class for character moves ">
<polygon fill="none" stroke="black" points="278.5,-0.5 278.5,-79.5 364.5,-79.5 364.5,-0.5 278.5,-0.5"/>
<text text-anchor="middle" x="321.5" y="-67.5" font-family="Helvetica,sans-Serif" font-size="10.00">CharacterMove</text>
<polyline fill="none" stroke="black" points="278.5,-60.5 364.5,-60.5 "/>
<text text-anchor="start" x="286.5" y="-48.5" font-family="Helvetica,sans-Serif" font-size="10.00">+ User</text>
<text text-anchor="start" x="286.5" y="-37.5" font-family="Helvetica,sans-Serif" font-size="10.00">+ Target</text>
<text text-anchor="start" x="286.5" y="-26.5" font-family="Helvetica,sans-Serif" font-size="10.00">+ Text</text>
<polyline fill="none" stroke="black" points="278.5,-19.5 364.5,-19.5 "/>
<text text-anchor="start" x="286.5" y="-7.5" font-family="Helvetica,sans-Serif" font-size="10.00">+ performMove()</text>
</a>
</g>
</g>
<!-- Node5&#45;&gt;Node4 -->
<g id="edge2" class="edge"><title>Node5&#45;&gt;Node4</title>
<path fill="none" stroke="midnightblue" d="M280.801,-87.7207C255.016,-122.156 226.5,-171.44 226.5,-221 226.5,-636.5 226.5,-636.5 226.5,-636.5 226.5,-708.009 213.529,-789.889 203.851,-841.027"/>
<polygon fill="none" stroke="midnightblue" points="283.62,-89.7961 286.934,-79.7328 278.068,-85.5332 283.62,-89.7961"/>
</g>
<!-- Node6 -->
<g id="node4" class="node"><title>Node6</title>
<polygon fill="none" stroke="#bfbfbf" points="250,-1001.5 250,-1058.5 291,-1058.5 291,-1001.5 250,-1001.5"/>
<text text-anchor="middle" x="270.5" y="-1046.5" font-family="Helvetica,sans-Serif" font-size="10.00">string</text>
<polyline fill="none" stroke="#bfbfbf" points="250,-1039.5 291,-1039.5 "/>
<text text-anchor="middle" x="270.5" y="-1027.5" font-family="Helvetica,sans-Serif" font-size="10.00"> </text>
<polyline fill="none" stroke="#bfbfbf" points="250,-1020.5 291,-1020.5 "/>
<text text-anchor="middle" x="270.5" y="-1008.5" font-family="Helvetica,sans-Serif" font-size="10.00"> </text>
</g>
<!-- Node6&#45;&gt;Node4 -->
<g id="edge21" class="edge"><title>Node6&#45;&gt;Node4</title>
<path fill="none" stroke="#404040" d="M249.715,-1010.81C241.63,-1002.9 232.813,-993.129 226.5,-983 220.936,-974.072 216.108,-964.066 211.991,-954.058"/>
<polygon fill="none" stroke="#404040" points="211.972,-954.009 206.077,-949.855 207.645,-942.816 213.539,-946.97 211.972,-954.009"/>
<text text-anchor="middle" x="241.5" y="-969.5" font-family="Helvetica,sans-Serif" font-size="10.00"> #desc</text>
</g>
<!-- Node6&#45;&gt;Node5 -->
<g id="edge3" class="edge"><title>Node6&#45;&gt;Node5</title>
<path fill="none" stroke="#404040" d="M249.685,-1025.06C198.849,-1014.1 72.5,-978.282 72.5,-893 72.5,-893 72.5,-893 72.5,-221 72.5,-125.88 193.318,-75.9374 266.637,-54.3872"/>
<polygon fill="none" stroke="#404040" points="266.867,-54.3222 271.548,-48.8374 278.412,-51.0492 273.73,-56.534 266.867,-54.3222"/>
<text text-anchor="middle" x="85" y="-520" font-family="Helvetica,sans-Serif" font-size="10.00"> #text</text>
</g>
<!-- Node6&#45;&gt;Node7 -->
<g id="edge5" class="edge"><title>Node6&#45;&gt;Node7</title>
<path fill="none" stroke="#404040" d="M291.091,-1018.38C304.992,-1010.31 322.86,-998.042 334.5,-983 375.919,-929.474 342.291,-889.496 389.5,-841 403.951,-826.154 418.829,-838.567 432.5,-823 444.592,-809.231 455.647,-773.282 464.349,-736.578"/>
<polygon fill="none" stroke="#404040" points="464.4,-736.356 461.847,-729.612 467.09,-724.661 469.643,-731.405 464.4,-736.356"/>
<text text-anchor="middle" x="406" y="-889.5" font-family="Helvetica,sans-Serif" font-size="10.00"> #name</text>
</g>
<!-- Node10 -->
<g id="node8" class="node"><title>Node10</title>
<g id="a_node8"><a xlink:href="class_battle_manager.html" target="_top" xlink:title="Holds current Player and Enemy objects in battle and provides functions for MainBattle and other obje...">
<polygon fill="none" stroke="black" points="475.5,-127.5 475.5,-316.5 591.5,-316.5 591.5,-127.5 475.5,-127.5"/>
<text text-anchor="middle" x="533.5" y="-304.5" font-family="Helvetica,sans-Serif" font-size="10.00">BattleManager</text>
<polyline fill="none" stroke="black" points="475.5,-297.5 591.5,-297.5 "/>
<text text-anchor="start" x="483.5" y="-285.5" font-family="Helvetica,sans-Serif" font-size="10.00">+ Player</text>
<text text-anchor="start" x="483.5" y="-274.5" font-family="Helvetica,sans-Serif" font-size="10.00">+ Enemy</text>
<text text-anchor="start" x="483.5" y="-263.5" font-family="Helvetica,sans-Serif" font-size="10.00">+ WasCriticalHit</text>
<polyline fill="none" stroke="black" points="475.5,-256.5 591.5,-256.5 "/>
<text text-anchor="start" x="483.5" y="-244.5" font-family="Helvetica,sans-Serif" font-size="10.00">+ BattleManager()</text>
<text text-anchor="start" x="483.5" y="-233.5" font-family="Helvetica,sans-Serif" font-size="10.00">+ playerFirst()</text>
<text text-anchor="start" x="483.5" y="-222.5" font-family="Helvetica,sans-Serif" font-size="10.00">+ switchPlayers()</text>
<text text-anchor="start" x="483.5" y="-211.5" font-family="Helvetica,sans-Serif" font-size="10.00">+ isCriticalHit()</text>
<text text-anchor="start" x="483.5" y="-200.5" font-family="Helvetica,sans-Serif" font-size="10.00">+ ranAway()</text>
<text text-anchor="start" x="483.5" y="-189.5" font-family="Helvetica,sans-Serif" font-size="10.00">+ damageCalculation()</text>
<text text-anchor="start" x="483.5" y="-178.5" font-family="Helvetica,sans-Serif" font-size="10.00">+ enemyMove()</text>
<text text-anchor="start" x="483.5" y="-167.5" font-family="Helvetica,sans-Serif" font-size="10.00">+ enemySpecialMove()</text>
<text text-anchor="start" x="483.5" y="-156.5" font-family="Helvetica,sans-Serif" font-size="10.00">+ battleWon()</text>
<text text-anchor="start" x="483.5" y="-145.5" font-family="Helvetica,sans-Serif" font-size="10.00">+ playerFainted()</text>
<text text-anchor="start" x="483.5" y="-134.5" font-family="Helvetica,sans-Serif" font-size="10.00">&#45; characterFainted()</text>
</a>
</g>
</g>
<!-- Node6&#45;&gt;Node10 -->
<g id="edge10" class="edge"><title>Node6&#45;&gt;Node10</title>
<path fill="none" stroke="#404040" d="M267.003,-1001.39C258.44,-926.5 240.264,-713.884 285.5,-546 313.232,-443.081 332.066,-417.547 399.5,-335 418.55,-311.681 442.986,-289.599 465.762,-271.303"/>
<polygon fill="none" stroke="#404040" points="465.979,-271.133 468.213,-264.276 475.402,-263.702 473.167,-270.558 465.979,-271.133"/>
<text text-anchor="middle" x="327.5" y="-638.5" font-family="Helvetica,sans-Serif" font-size="10.00"> +forceEnemyMove</text>
<text text-anchor="middle" x="327.5" y="-627.5" font-family="Helvetica,sans-Serif" font-size="10.00">+forceCriticalHits</text>
</g>
<!-- Node14 -->
<g id="node12" class="node"><title>Node14</title>
<g id="a_node12"><a xlink:href="class_item.html" target="_top" xlink:title="Abstract class for items that can be equipped to a player, increasing some of their stats ...">
<polygon fill="none" stroke="black" points="354,-743.5 354,-822.5 431,-822.5 431,-743.5 354,-743.5"/>
<text text-anchor="middle" x="392.5" y="-810.5" font-family="Helvetica,sans-Serif" font-size="10.00">Item</text>
<polyline fill="none" stroke="black" points="354,-803.5 431,-803.5 "/>
<text text-anchor="start" x="362" y="-791.5" font-family="Helvetica,sans-Serif" font-size="10.00">+ Name</text>
<text text-anchor="start" x="362" y="-780.5" font-family="Helvetica,sans-Serif" font-size="10.00">+ Desc</text>
<polyline fill="none" stroke="black" points="354,-773.5 431,-773.5 "/>
<text text-anchor="start" x="362" y="-761.5" font-family="Helvetica,sans-Serif" font-size="10.00">+ applyBuffs()</text>
<text text-anchor="start" x="362" y="-750.5" font-family="Helvetica,sans-Serif" font-size="10.00">+ revertBuffs()</text>
</a>
</g>
</g>
<!-- Node6&#45;&gt;Node14 -->
<g id="edge19" class="edge"><title>Node6&#45;&gt;Node14</title>
<path fill="none" stroke="#404040" d="M282.339,-1001.5C298.5,-964.492 328.857,-896.869 358.5,-841 359.844,-838.466 361.249,-835.887 362.688,-833.294"/>
<polygon fill="none" stroke="#404040" points="362.813,-833.075 362.303,-825.882 368.746,-822.644 369.256,-829.837 362.813,-833.075"/>
<text text-anchor="middle" x="315.5" y="-975" font-family="Helvetica,sans-Serif" font-size="10.00"> #desc</text>
<text text-anchor="middle" x="315.5" y="-964" font-family="Helvetica,sans-Serif" font-size="10.00">#name</text>
</g>
<!-- Node7&#45;&gt;Node5 -->
<g id="edge4" class="edge"><title>Node7&#45;&gt;Node5</title>
<path fill="none" stroke="#404040" d="M459.416,-546.306C455.114,-530.553 450.674,-514.291 446.5,-499 406.053,-350.84 358.262,-175.714 335.246,-91.3741"/>
<polygon fill="none" stroke="#404040" points="335.193,-91.1799 329.755,-86.4446 332.034,-79.6032 337.473,-84.3385 335.193,-91.1799"/>
<text text-anchor="middle" x="424.5" y="-349" font-family="Helvetica,sans-Serif" font-size="10.00"> #target</text>
<text text-anchor="middle" x="424.5" y="-338" font-family="Helvetica,sans-Serif" font-size="10.00">#user</text>
</g>
<!-- Node11 -->
<g id="node9" class="node"><title>Node11</title>
<g id="a_node9"><a xlink:href="class_enemy.html" target="_top" xlink:title="Defines an AI controller enemy to fight in battle scenes">
<polygon fill="none" stroke="black" points="689,-408.5 689,-465.5 756,-465.5 756,-408.5 689,-408.5"/>
<text text-anchor="middle" x="722.5" y="-453.5" font-family="Helvetica,sans-Serif" font-size="10.00">Enemy</text>
<polyline fill="none" stroke="black" points="689,-446.5 756,-446.5 "/>
<text text-anchor="start" x="697" y="-434.5" font-family="Helvetica,sans-Serif" font-size="10.00">+ ExpGiven</text>
<polyline fill="none" stroke="black" points="689,-427.5 756,-427.5 "/>
<text text-anchor="start" x="697" y="-415.5" font-family="Helvetica,sans-Serif" font-size="10.00">+ Enemy()</text>
</a>
</g>
</g>
<!-- Node7&#45;&gt;Node11 -->
<g id="edge12" class="edge"><title>Node7&#45;&gt;Node11</title>
<path fill="none" stroke="midnightblue" d="M538.866,-588.979C585.276,-550.823 650.023,-497.589 688.944,-465.589"/>
<polygon fill="none" stroke="midnightblue" points="536.506,-586.389 531.004,-595.443 540.952,-591.796 536.506,-586.389"/>
</g>
<!-- Node13 -->
<g id="node11" class="node"><title>Node13</title>
<g id="a_node11"><a xlink:href="class_player.html" target="_top" xlink:title="Defines a playable character for use in battle scenes">
<polygon fill="none" stroke="black" points="509.5,-375.5 509.5,-498.5 621.5,-498.5 621.5,-375.5 509.5,-375.5"/>
<text text-anchor="middle" x="565.5" y="-486.5" font-family="Helvetica,sans-Serif" font-size="10.00">Player</text>
<polyline fill="none" stroke="black" points="509.5,-479.5 621.5,-479.5 "/>
<text text-anchor="start" x="517.5" y="-467.5" font-family="Helvetica,sans-Serif" font-size="10.00">+ Exp</text>
<text text-anchor="start" x="517.5" y="-456.5" font-family="Helvetica,sans-Serif" font-size="10.00">+ Item</text>
<text text-anchor="start" x="517.5" y="-445.5" font-family="Helvetica,sans-Serif" font-size="10.00">+ ExpToNextLevel</text>
<polyline fill="none" stroke="black" points="509.5,-438.5 621.5,-438.5 "/>
<text text-anchor="start" x="517.5" y="-426.5" font-family="Helvetica,sans-Serif" font-size="10.00">+ Player()</text>
<text text-anchor="start" x="517.5" y="-415.5" font-family="Helvetica,sans-Serif" font-size="10.00">+ gainExp()</text>
<text text-anchor="start" x="517.5" y="-404.5" font-family="Helvetica,sans-Serif" font-size="10.00">+ levelUp()</text>
<text text-anchor="start" x="517.5" y="-393.5" font-family="Helvetica,sans-Serif" font-size="10.00">+ Clone()</text>
<text text-anchor="start" x="517.5" y="-382.5" font-family="Helvetica,sans-Serif" font-size="10.00">&#45; setExpToNextLevel()</text>
</a>
</g>
</g>
<!-- Node7&#45;&gt;Node13 -->
<g id="edge17" class="edge"><title>Node7&#45;&gt;Node13</title>
<path fill="none" stroke="midnightblue" d="M524.256,-536.835C529.695,-523.802 535.139,-510.756 540.206,-498.613"/>
<polygon fill="none" stroke="midnightblue" points="520.924,-535.732 520.302,-546.309 527.384,-538.428 520.924,-535.732"/>
</g>
<!-- Node8 -->
<g id="node6" class="node"><title>Node8</title>
<polygon fill="none" stroke="#bfbfbf" points="618,-1001.5 618,-1058.5 647,-1058.5 647,-1001.5 618,-1001.5"/>
<text text-anchor="middle" x="632.5" y="-1046.5" font-family="Helvetica,sans-Serif" font-size="10.00">int</text>
<polyline fill="none" stroke="#bfbfbf" points="618,-1039.5 647,-1039.5 "/>
<text text-anchor="middle" x="632.5" y="-1027.5" font-family="Helvetica,sans-Serif" font-size="10.00"> </text>
<polyline fill="none" stroke="#bfbfbf" points="618,-1020.5 647,-1020.5 "/>
<text text-anchor="middle" x="632.5" y="-1008.5" font-family="Helvetica,sans-Serif" font-size="10.00"> </text>
</g>
<!-- Node8&#45;&gt;Node4 -->
<g id="edge23" class="edge"><title>Node8&#45;&gt;Node4</title>
<path fill="none" stroke="#404040" d="M617.812,-1024.61C590.668,-1016.48 530.826,-998.505 480.5,-983 402.298,-958.906 312.297,-930.586 254.244,-912.242"/>
<polygon fill="none" stroke="#404040" points="254.156,-912.215 247.23,-914.22 242.714,-908.598 249.641,-906.592 254.156,-912.215"/>
<text text-anchor="middle" x="498" y="-969.5" font-family="Helvetica,sans-Serif" font-size="10.00"> #magic</text>
</g>
<!-- Node8&#45;&gt;Node7 -->
<g id="edge6" class="edge"><title>Node8&#45;&gt;Node7</title>
<path fill="none" stroke="#404040" d="M617.969,-1019.62C597.609,-1005.61 561.114,-977.19 543.5,-943 502.336,-863.097 532.389,-830.876 513.5,-743 513.036,-740.84 512.553,-738.66 512.053,-736.464"/>
<polygon fill="none" stroke="#404040" points="512.014,-736.296 506.737,-731.382 509.244,-724.62 514.521,-729.535 512.014,-736.296"/>
<text text-anchor="middle" x="581" y="-928" font-family="Helvetica,sans-Serif" font-size="10.00"> #speed</text>
<text text-anchor="middle" x="581" y="-917" font-family="Helvetica,sans-Serif" font-size="10.00">#luck</text>
<text text-anchor="middle" x="581" y="-906" font-family="Helvetica,sans-Serif" font-size="10.00">#health</text>
<text text-anchor="middle" x="581" y="-895" font-family="Helvetica,sans-Serif" font-size="10.00">#magic</text>
<text text-anchor="middle" x="581" y="-884" font-family="Helvetica,sans-Serif" font-size="10.00">#maximumMagic</text>
<text text-anchor="middle" x="581" y="-873" font-family="Helvetica,sans-Serif" font-size="10.00">#attack</text>
<text text-anchor="middle" x="581" y="-862" font-family="Helvetica,sans-Serif" font-size="10.00">#defence</text>
<text text-anchor="middle" x="581" y="-851" font-family="Helvetica,sans-Serif" font-size="10.00">#level</text>
</g>
<!-- Node8&#45;&gt;Node10 -->
<g id="edge14" class="edge"><title>Node8&#45;&gt;Node10</title>
<path fill="none" stroke="#404040" d="M647.092,-1004.97C650.53,-998.109 653.712,-990.468 655.5,-983 672.055,-913.841 656.278,-894.112 656.5,-823 657.123,-623.555 693.101,-564.367 630.5,-375 622.893,-351.989 611.016,-328.994 598.146,-308.11"/>
<polygon fill="none" stroke="#404040" points="597.981,-307.85 591.39,-304.926 591.554,-297.716 598.146,-300.641 597.981,-307.85"/>
<text text-anchor="middle" x="686" y="-633" font-family="Helvetica,sans-Serif" font-size="10.00"> +money</text>
</g>
<!-- Node8&#45;&gt;Node11 -->
<g id="edge13" class="edge"><title>Node8&#45;&gt;Node11</title>
<path fill="none" stroke="#404040" d="M647.246,-1020.52C659.559,-1012.55 676.366,-999.416 684.5,-983 769.548,-811.354 744.054,-571.327 729.503,-477.649"/>
<polygon fill="none" stroke="#404040" points="729.483,-477.528 724.581,-472.239 727.577,-465.68 732.479,-470.968 729.483,-477.528"/>
<text text-anchor="middle" x="764.5" y="-780.5" font-family="Helvetica,sans-Serif" font-size="10.00"> &#45;expGiven</text>
</g>
<!-- Node8&#45;&gt;Node13 -->
<g id="edge20" class="edge"><title>Node8&#45;&gt;Node13</title>
<path fill="none" stroke="#404040" d="M638.39,-1001.36C645.133,-962.078 651.395,-889.479 618.5,-841 608.232,-825.868 591.518,-838.299 581.5,-823 549.034,-773.422 553.842,-608.063 559.882,-510.929"/>
<polygon fill="none" stroke="#404040" points="559.888,-510.829 556.283,-504.584 560.661,-498.854 564.266,-505.099 559.888,-510.829"/>
<text text-anchor="middle" x="619" y="-786" font-family="Helvetica,sans-Serif" font-size="10.00"> &#45;expToNextLevel</text>
<text text-anchor="middle" x="619" y="-775" font-family="Helvetica,sans-Serif" font-size="10.00">&#45;exp</text>
</g>
<!-- Node9 -->
<g id="node7" class="node"><title>Node9</title>
<polygon fill="none" stroke="#bfbfbf" points="432,-863.5 432,-920.5 493,-920.5 493,-863.5 432,-863.5"/>
<text text-anchor="middle" x="462.5" y="-908.5" font-family="Helvetica,sans-Serif" font-size="10.00">Texture2D</text>
<polyline fill="none" stroke="#bfbfbf" points="432,-901.5 493,-901.5 "/>
<text text-anchor="middle" x="462.5" y="-889.5" font-family="Helvetica,sans-Serif" font-size="10.00"> </text>
<polyline fill="none" stroke="#bfbfbf" points="432,-882.5 493,-882.5 "/>
<text text-anchor="middle" x="462.5" y="-870.5" font-family="Helvetica,sans-Serif" font-size="10.00"> </text>
</g>
<!-- Node9&#45;&gt;Node7 -->
<g id="edge8" class="edge"><title>Node9&#45;&gt;Node7</title>
<path fill="none" stroke="#404040" d="M464.787,-863.28C467.295,-832.886 471.465,-782.353 475.233,-736.693"/>
<polygon fill="none" stroke="#404040" points="475.245,-736.546 471.752,-730.238 476.232,-724.587 479.725,-730.896 475.245,-736.546"/>
<text text-anchor="middle" x="492" y="-780.5" font-family="Helvetica,sans-Serif" font-size="10.00"> #image</text>
</g>
<!-- Node10&#45;&gt;Node5 -->
<g id="edge9" class="edge"><title>Node10&#45;&gt;Node5</title>
<path fill="none" stroke="#404040" d="M475.27,-141.139C461.925,-125.745 447.053,-110.533 431.5,-98 414.778,-84.5253 394.368,-72.891 375.689,-63.711"/>
<polygon fill="none" stroke="#404040" points="375.471,-63.6076 368.335,-64.6448 364.633,-58.4565 371.769,-57.4193 375.471,-63.6076"/>
<text text-anchor="middle" x="464.5" y="-101" font-family="Helvetica,sans-Serif" font-size="10.00"> #manager</text>
</g>
<!-- Node11&#45;&gt;Node10 -->
<g id="edge11" class="edge"><title>Node11&#45;&gt;Node10</title>
<path fill="none" stroke="#404040" d="M713.298,-408.373C705.269,-386.92 692.137,-357.189 674.5,-335 654.065,-309.29 626.656,-285.82 601.44,-267.081"/>
<polygon fill="none" stroke="#404040" points="601.238,-266.935 594.033,-266.639 591.535,-259.875 598.74,-260.17 601.238,-266.935"/>
<text text-anchor="middle" x="705.5" y="-343.5" font-family="Helvetica,sans-Serif" font-size="10.00"> &#45;enemy</text>
</g>
<!-- Node12 -->
<g id="node10" class="node"><title>Node12</title>
<polygon fill="none" stroke="#bfbfbf" points="456,-408.5 456,-465.5 491,-465.5 491,-408.5 456,-408.5"/>
<text text-anchor="middle" x="473.5" y="-453.5" font-family="Helvetica,sans-Serif" font-size="10.00">bool</text>
<polyline fill="none" stroke="#bfbfbf" points="456,-446.5 491,-446.5 "/>
<text text-anchor="middle" x="473.5" y="-434.5" font-family="Helvetica,sans-Serif" font-size="10.00"> </text>
<polyline fill="none" stroke="#bfbfbf" points="456,-427.5 491,-427.5 "/>
<text text-anchor="middle" x="473.5" y="-415.5" font-family="Helvetica,sans-Serif" font-size="10.00"> </text>
</g>
<!-- Node12&#45;&gt;Node10 -->
<g id="edge15" class="edge"><title>Node12&#45;&gt;Node10</title>
<path fill="none" stroke="#404040" d="M472.674,-408.118C472.726,-387.582 474.19,-359.148 480.5,-335 481.067,-332.831 481.675,-330.653 482.321,-328.47"/>
<polygon fill="none" stroke="#404040" points="482.411,-328.193 480.453,-321.253 486.107,-316.777 488.064,-323.717 482.411,-328.193"/>
<text text-anchor="middle" x="513.5" y="-343.5" font-family="Helvetica,sans-Serif" font-size="10.00"> &#45;wasCriticalHit</text>
</g>
<!-- Node13&#45;&gt;Node10 -->
<g id="edge16" class="edge"><title>Node13&#45;&gt;Node10</title>
<path fill="none" stroke="#404040" d="M556.373,-375.248C554.194,-360.746 551.806,-344.847 549.419,-328.963"/>
<polygon fill="none" stroke="#404040" points="549.382,-328.711 544.534,-323.372 547.599,-316.844 552.446,-322.183 549.382,-328.711"/>
<text text-anchor="middle" x="570" y="-343.5" font-family="Helvetica,sans-Serif" font-size="10.00"> &#45;player</text>
</g>
<!-- Node14&#45;&gt;Node13 -->
<g id="edge18" class="edge"><title>Node14&#45;&gt;Node13</title>
<path fill="none" stroke="#404040" d="M382.628,-743.229C372.262,-693.235 362.351,-605.642 401.5,-546 426.144,-508.456 455.13,-523.555 498.947,-498.443"/>
<polygon fill="none" stroke="#404040" points="498.995,-498.413 501.939,-491.83 509.147,-492.015 506.204,-498.598 498.995,-498.413"/>
<text text-anchor="middle" x="414" y="-633" font-family="Helvetica,sans-Serif" font-size="10.00"> &#45;item</text>
</g>
<!-- Node15 -->
<g id="node13" class="node"><title>Node15</title>
<polygon fill="none" stroke="#bfbfbf" points="0,-1001.5 0,-1058.5 35,-1058.5 35,-1001.5 0,-1001.5"/>
<text text-anchor="middle" x="17.5" y="-1046.5" font-family="Helvetica,sans-Serif" font-size="10.00">float</text>
<polyline fill="none" stroke="#bfbfbf" points="0,-1039.5 35,-1039.5 "/>
<text text-anchor="middle" x="17.5" y="-1027.5" font-family="Helvetica,sans-Serif" font-size="10.00"> </text>
<polyline fill="none" stroke="#bfbfbf" points="0,-1020.5 35,-1020.5 "/>
<text text-anchor="middle" x="17.5" y="-1008.5" font-family="Helvetica,sans-Serif" font-size="10.00"> </text>
</g>
<!-- Node15&#45;&gt;Node4 -->
<g id="edge22" class="edge"><title>Node15&#45;&gt;Node4</title>
<path fill="none" stroke="#404040" d="M35.019,-1015.46C58.0669,-997.653 99.7296,-965.459 134.554,-938.549"/>
<polygon fill="none" stroke="#404040" points="134.679,-938.453 136.981,-931.619 144.174,-931.115 141.872,-937.949 134.679,-938.453"/>
<text text-anchor="middle" x="125.5" y="-969.5" font-family="Helvetica,sans-Serif" font-size="10.00"> #special</text>
</g>
</g>
</svg>
        <g id="navigator" transform="translate(0 0)" fill="#404254">
                <rect fill="#f2f5e9" fill-opacity="0.5" stroke="#606060" stroke-width=".5" x="0" y="0" width="60" height="60"/>
                <use id="zoomplus" xlink:href="#zoomPlus" x="17" y="9" onmousedown="handleZoom(evt,'in')"/>
                <use id="zoomminus" xlink:href="#zoomMin" x="42" y="9" onmousedown="handleZoom(evt,'out')"/>
                <use id="reset" xlink:href="#resetDef" x="30" y="36" onmousedown="handleReset()"/>
                <g id="arrowUp" xlink:href="#dirArrow" transform="translate(30 24)" onmousedown="handlePan(0,-1)">
                  <use xlink:href="#rim" fill="#404040">
                        <set attributeName="fill" to="#808080" begin="arrowUp.mouseover" end="arrowUp.mouseout"/>
                  </use>
                  <path fill="none" stroke="white" stroke-width="1.5" d="M0,-3.0v7 M-2.5,-0.5L0,-3.0L2.5,-0.5"/>
                </g>
                <g id="arrowRight" xlink:href="#dirArrow" transform="rotate(90) translate(36 -43)" onmousedown="handlePan(1,0)">
                  <use xlink:href="#rim" fill="#404040">
                        <set attributeName="fill" to="#808080" begin="arrowRight.mouseover" end="arrowRight.mouseout"/>
                  </use>
                  <path fill="none" stroke="white" stroke-width="1.5" d="M0,-3.0v7 M-2.5,-0.5L0,-3.0L2.5,-0.5"/>
                </g>
                <g id="arrowDown" xlink:href="#dirArrow" transform="rotate(180) translate(-30 -48)" onmousedown="handlePan(0,1)">
                  <use xlink:href="#rim" fill="#404040">
                        <set attributeName="fill" to="#808080" begin="arrowDown.mouseover" end="arrowDown.mouseout"/>
                  </use>
                  <path fill="none" stroke="white" stroke-width="1.5" d="M0,-3.0v7 M-2.5,-0.5L0,-3.0L2.5,-0.5"/>
                </g>
                <g id="arrowLeft" xlink:href="#dirArrow" transform="rotate(270) translate(-36 17)" onmousedown="handlePan(-1,0)">
                  <use xlink:href="#rim" fill="#404040">
                        <set attributeName="fill" to="#808080" begin="arrowLeft.mouseover" end="arrowLeft.mouseout"/>
                  </use>
                  <path fill="none" stroke="white" stroke-width="1.5" d="M0,-3.0v7 M-2.5,-0.5L0,-3.0L2.5,-0.5"/>
                </g>
        </g>
        <svg viewBox="0 0 15 15" width="100%" height="30px" preserveAspectRatio="xMaxYMin meet">
         <g id="arrow_out" transform="scale(0.3 0.3)">
          <a xlink:href="class_increase_money__coll__graph_org.svg" target="_base">
           <rect id="button" ry="5" rx="5" y="6" x="6" height="38" width="38"
                fill="#f2f5e9" fill-opacity="0.5" stroke="#606060" stroke-width="1.0"/>
           <path id="arrow"
             d="M 11.500037,31.436501 C 11.940474,20.09759 22.043105,11.32322 32.158766,21.979434 L 37.068811,17.246167 C 37.068811,17.246167 37.088388,32 37.088388,32 L 22.160133,31.978069 C 22.160133,31.978069 26.997745,27.140456 26.997745,27.140456 C 18.528582,18.264221 13.291696,25.230495 11.500037,31.436501 z"
             style="fill:#404040;"/>
          </a>
         </g>
        </svg>
</svg>
