<?xml version="1.0" encoding="UTF-8" standalone="no"?>
<!DOCTYPE svg PUBLIC "-//W3C//DTD SVG 1.1//EN"
 "http://www.w3.org/Graphics/SVG/1.1/DTD/svg11.dtd">
<!-- Generated by graphviz version 2.38.0 (20140413.2041)
 -->
<!-- Title: QuestSelectionScript Pages: 1 -->
<svg width="444pt" height="237pt"
 viewBox="0.00 0.00 443.50 237.00" xmlns="http://www.w3.org/2000/svg" xmlns:xlink="http://www.w3.org/1999/xlink">
<g id="graph0" class="graph" transform="scale(1 1) rotate(0) translate(4 233)">
<title>QuestSelectionScript</title>
<!-- Node2 -->
<g id="node1" class="node"><title>Node2</title>
<polygon fill="#bfbfbf" stroke="black" points="181,-0.5 181,-90.5 290,-90.5 290,-0.5 181,-0.5"/>
<text text-anchor="middle" x="235.5" y="-78.5" font-family="Helvetica,sans-Serif" font-size="10.00">QuestSelectionScript</text>
<polyline fill="none" stroke="black" points="181,-71.5 290,-71.5 "/>
<text text-anchor="middle" x="235.5" y="-59.5" font-family="Helvetica,sans-Serif" font-size="10.00"> </text>
<polyline fill="none" stroke="black" points="181,-52.5 290,-52.5 "/>
<text text-anchor="start" x="189" y="-40.5" font-family="Helvetica,sans-Serif" font-size="10.00">+ showDesc()</text>
<text text-anchor="start" x="189" y="-29.5" font-family="Helvetica,sans-Serif" font-size="10.00">+ selectQuest()</text>
<text text-anchor="start" x="189" y="-18.5" font-family="Helvetica,sans-Serif" font-size="10.00">+ StartLevel()</text>
<text text-anchor="start" x="189" y="-7.5" font-family="Helvetica,sans-Serif" font-size="10.00">&#45; Start()</text>
</g>
<!-- Node3 -->
<g id="node2" class="node"><title>Node3</title>
<g id="a_node2"><a xlink:href="class_mono_behaviour.html" target="_top" xlink:title="{MonoBehaviour\n||}">
<polygon fill="none" stroke="black" points="0,-171.5 0,-228.5 83,-228.5 83,-171.5 0,-171.5"/>
<text text-anchor="middle" x="41.5" y="-216.5" font-family="Helvetica,sans-Serif" font-size="10.00">MonoBehaviour</text>
<polyline fill="none" stroke="black" points="0,-209.5 83,-209.5 "/>
<text text-anchor="middle" x="41.5" y="-197.5" font-family="Helvetica,sans-Serif" font-size="10.00"> </text>
<polyline fill="none" stroke="black" points="0,-190.5 83,-190.5 "/>
<text text-anchor="middle" x="41.5" y="-178.5" font-family="Helvetica,sans-Serif" font-size="10.00"> </text>
</a>
</g>
</g>
<!-- Node3&#45;&gt;Node2 -->
<g id="edge1" class="edge"><title>Node3&#45;&gt;Node2</title>
<path fill="none" stroke="midnightblue" d="M66.3357,-162.916C79.7614,-145.186 97.4698,-124.384 116.5,-109 135.827,-93.376 159.669,-79.9348 180.924,-69.5644"/>
<polygon fill="none" stroke="midnightblue" points="63.2394,-161.216 60.1019,-171.336 68.8653,-165.382 63.2394,-161.216"/>
</g>
<!-- Node4 -->
<g id="node3" class="node"><title>Node4</title>
<polygon fill="none" stroke="#bfbfbf" points="101,-171.5 101,-228.5 142,-228.5 142,-171.5 101,-171.5"/>
<text text-anchor="middle" x="121.5" y="-216.5" font-family="Helvetica,sans-Serif" font-size="10.00">string</text>
<polyline fill="none" stroke="#bfbfbf" points="101,-209.5 142,-209.5 "/>
<text text-anchor="middle" x="121.5" y="-197.5" font-family="Helvetica,sans-Serif" font-size="10.00"> </text>
<polyline fill="none" stroke="#bfbfbf" points="101,-190.5 142,-190.5 "/>
<text text-anchor="middle" x="121.5" y="-178.5" font-family="Helvetica,sans-Serif" font-size="10.00"> </text>
</g>
<!-- Node4&#45;&gt;Node2 -->
<g id="edge2" class="edge"><title>Node4&#45;&gt;Node2</title>
<path fill="none" stroke="#404040" d="M119.628,-171.288C119.674,-152.311 122.473,-127.355 134.5,-109 143.416,-95.3932 156.428,-84.2374 170.165,-75.314"/>
<polygon fill="none" stroke="#404040" points="170.482,-75.1228 173.552,-68.5977 180.756,-68.9218 177.686,-75.4469 170.482,-75.1228"/>
<text text-anchor="middle" x="166" y="-128.5" font-family="Helvetica,sans-Serif" font-size="10.00"> &#45;currentQuest</text>
</g>
<!-- Node5 -->
<g id="node4" class="node"><title>Node5</title>
<polygon fill="none" stroke="#bfbfbf" points="166,-171.5 166,-228.5 237,-228.5 237,-171.5 166,-171.5"/>
<text text-anchor="middle" x="201.5" y="-216.5" font-family="Helvetica,sans-Serif" font-size="10.00">GameObject</text>
<polyline fill="none" stroke="#bfbfbf" points="166,-209.5 237,-209.5 "/>
<text text-anchor="middle" x="201.5" y="-197.5" font-family="Helvetica,sans-Serif" font-size="10.00"> </text>
<polyline fill="none" stroke="#bfbfbf" points="166,-190.5 237,-190.5 "/>
<text text-anchor="middle" x="201.5" y="-178.5" font-family="Helvetica,sans-Serif" font-size="10.00"> </text>
</g>
<!-- Node5&#45;&gt;Node2 -->
<g id="edge3" class="edge"><title>Node5&#45;&gt;Node2</title>
<path fill="none" stroke="#404040" d="M201.305,-171.452C201.747,-153.442 203.415,-129.537 208.5,-109 209.065,-106.72 209.704,-104.417 210.404,-102.108"/>
<polygon fill="none" stroke="#404040" points="210.455,-101.958 208.609,-94.9872 214.333,-90.6015 216.179,-97.5722 210.455,-101.958"/>
<text text-anchor="middle" x="225" y="-128.5" font-family="Helvetica,sans-Serif" font-size="10.00"> &#45;player</text>
</g>
<!-- Node6 -->
<g id="node5" class="node"><title>Node6</title>
<polygon fill="none" stroke="#bfbfbf" points="255,-171.5 255,-228.5 284,-228.5 284,-171.5 255,-171.5"/>
<text text-anchor="middle" x="269.5" y="-216.5" font-family="Helvetica,sans-Serif" font-size="10.00">int</text>
<polyline fill="none" stroke="#bfbfbf" points="255,-209.5 284,-209.5 "/>
<text text-anchor="middle" x="269.5" y="-197.5" font-family="Helvetica,sans-Serif" font-size="10.00"> </text>
<polyline fill="none" stroke="#bfbfbf" points="255,-190.5 284,-190.5 "/>
<text text-anchor="middle" x="269.5" y="-178.5" font-family="Helvetica,sans-Serif" font-size="10.00"> </text>
</g>
<!-- Node6&#45;&gt;Node2 -->
<g id="edge4" class="edge"><title>Node6&#45;&gt;Node2</title>
<path fill="none" stroke="#404040" d="M263.343,-171.383C259.073,-152.233 253.238,-126.059 248.012,-102.619"/>
<polygon fill="none" stroke="#404040" points="247.957,-102.375 242.748,-97.3888 245.346,-90.6621 250.556,-95.6479 247.957,-102.375"/>
<text text-anchor="middle" x="277.5" y="-128.5" font-family="Helvetica,sans-Serif" font-size="10.00"> &#45;chosen</text>
</g>
<!-- Node7 -->
<g id="node6" class="node"><title>Node7</title>
<polygon fill="none" stroke="#bfbfbf" points="307,-171.5 307,-228.5 342,-228.5 342,-171.5 307,-171.5"/>
<text text-anchor="middle" x="324.5" y="-216.5" font-family="Helvetica,sans-Serif" font-size="10.00">Text</text>
<polyline fill="none" stroke="#bfbfbf" points="307,-209.5 342,-209.5 "/>
<text text-anchor="middle" x="324.5" y="-197.5" font-family="Helvetica,sans-Serif" font-size="10.00"> </text>
<polyline fill="none" stroke="#bfbfbf" points="307,-190.5 342,-190.5 "/>
<text text-anchor="middle" x="324.5" y="-178.5" font-family="Helvetica,sans-Serif" font-size="10.00"> </text>
</g>
<!-- Node7&#45;&gt;Node2 -->
<g id="edge5" class="edge"><title>Node7&#45;&gt;Node2</title>
<path fill="none" stroke="#404040" d="M321.058,-171.109C317.835,-152.517 311.753,-128.083 300.5,-109 298.748,-106.029 296.816,-103.107 294.749,-100.246"/>
<polygon fill="none" stroke="#404040" points="294.705,-100.191 287.845,-97.9676 287.258,-90.7803 294.118,-93.0035 294.705,-100.191"/>
<text text-anchor="middle" x="330.5" y="-145" font-family="Helvetica,sans-Serif" font-size="10.00"> +side</text>
<text text-anchor="middle" x="330.5" y="-134" font-family="Helvetica,sans-Serif" font-size="10.00">+main</text>
<text text-anchor="middle" x="330.5" y="-123" font-family="Helvetica,sans-Serif" font-size="10.00">+title</text>
<text text-anchor="middle" x="330.5" y="-112" font-family="Helvetica,sans-Serif" font-size="10.00">+cond</text>
</g>
<!-- Node8 -->
<g id="node7" class="node"><title>Node8</title>
<polygon fill="none" stroke="#bfbfbf" points="360,-171.5 360,-228.5 405,-228.5 405,-171.5 360,-171.5"/>
<text text-anchor="middle" x="382.5" y="-216.5" font-family="Helvetica,sans-Serif" font-size="10.00">Button</text>
<polyline fill="none" stroke="#bfbfbf" points="360,-209.5 405,-209.5 "/>
<text text-anchor="middle" x="382.5" y="-197.5" font-family="Helvetica,sans-Serif" font-size="10.00"> </text>
<polyline fill="none" stroke="#bfbfbf" points="360,-190.5 405,-190.5 "/>
<text text-anchor="middle" x="382.5" y="-178.5" font-family="Helvetica,sans-Serif" font-size="10.00"> </text>
</g>
<!-- Node8&#45;&gt;Node2 -->
<g id="edge6" class="edge"><title>Node8&#45;&gt;Node2</title>
<path fill="none" stroke="#404040" d="M377.309,-171.201C372.536,-151.941 363.802,-126.682 348.5,-109 335.561,-94.0492 318.125,-81.9818 300.827,-72.5855"/>
<polygon fill="none" stroke="#404040" points="300.788,-72.5654 293.623,-73.3792 290.116,-67.0784 297.281,-66.2645 300.788,-72.5654"/>
<text text-anchor="middle" x="403.5" y="-128.5" font-family="Helvetica,sans-Serif" font-size="10.00"> +selectButton</text>
</g>
</g>
</svg>
