<?xml version="1.0" encoding="UTF-8" standalone="no"?>
<!DOCTYPE svg PUBLIC "-//W3C//DTD SVG 1.1//EN"
 "http://www.w3.org/Graphics/SVG/1.1/DTD/svg11.dtd">
<!-- Generated by graphviz version 2.38.0 (20140413.2041)
 -->
<!-- Title: QuestInstances Pages: 1 -->
<!--zoomable 458 -->
<svg id="main" version="1.1" xmlns="http://www.w3.org/2000/svg" xmlns:xlink="http://www.w3.org/1999/xlink" xml:space="preserve" onload="init(evt)">
<style type="text/css"><![CDATA[
.edge:hover path { stroke: red; }
.edge:hover polygon { stroke: red; fill: red; }
]]></style>
<script type="text/javascript"><![CDATA[
var edges = document.getElementsByTagName('g');
if (edges && edges.length) {
  for (var i=0;i<edges.length;i++) {
    if (edges[i].id.substr(0,4)=='edge') {
      edges[i].setAttribute('class','edge');
    }
  }
}
]]></script>
        <defs>
                <circle id="rim" cx="0" cy="0" r="7"/>
                <circle id="rim2" cx="0" cy="0" r="3.5"/>
                <g id="zoomPlus">
                        <use xlink:href="#rim" fill="#404040">
                                <set attributeName="fill" to="#808080" begin="zoomplus.mouseover" end="zoomplus.mouseout"/>
                        </use>
                        <path d="M-4,0h8M0,-4v8" fill="none" stroke="white" stroke-width="1.5" pointer-events="none"/>
                </g>
                <g id="zoomMin">
                        <use xlink:href="#rim" fill="#404040">
                                <set attributeName="fill" to="#808080" begin="zoomminus.mouseover" end="zoomminus.mouseout"/>
                        </use>
                        <path d="M-4,0h8" fill="none" stroke="white" stroke-width="1.5" pointer-events="none"/>
                </g>
                <g id="dirArrow">
                        <path fill="none" stroke="white" stroke-width="1.5" d="M0,-3.0v7 M-2.5,-0.5L0,-3.0L2.5,-0.5"/>
                </g>
               <g id="resetDef">
                       <use xlink:href="#rim2" fill="#404040">
                               <set attributeName="fill" to="#808080" begin="reset.mouseover" end="reset.mouseout"/>
                       </use>
               </g>
        </defs>

<script type="text/javascript">
var viewWidth = 255;
var viewHeight = 458;
var sectionId = 'dynsection-1';
</script>
<script xlink:href="svgpan.js"/>
<svg id="graph" class="graph">
<g id="viewport">
<title>QuestInstances</title>
<!-- Node2 -->
<g id="node1" class="node"><title>Node2</title>
<polygon fill="#bfbfbf" stroke="black" points="35,-0.5 35,-57.5 120,-57.5 120,-0.5 35,-0.5"/>
<text text-anchor="middle" x="77.5" y="-45.5" font-family="Helvetica,sans-Serif" font-size="10.00">QuestInstances</text>
<polyline fill="none" stroke="black" points="35,-38.5 120,-38.5 "/>
<text text-anchor="middle" x="77.5" y="-26.5" font-family="Helvetica,sans-Serif" font-size="10.00"> </text>
<polyline fill="none" stroke="black" points="35,-19.5 120,-19.5 "/>
<text text-anchor="middle" x="77.5" y="-7.5" font-family="Helvetica,sans-Serif" font-size="10.00"> </text>
</g>
<!-- Node3 -->
<g id="node2" class="node"><title>Node3</title>
<g id="a_node2"><a xlink:href="class_mono_behaviour.html" target="_top" xlink:title="{MonoBehaviour\n||}">
<polygon fill="none" stroke="black" points="0,-122 0,-179 83,-179 83,-122 0,-122"/>
<text text-anchor="middle" x="41.5" y="-167" font-family="Helvetica,sans-Serif" font-size="10.00">MonoBehaviour</text>
<polyline fill="none" stroke="black" points="0,-160 83,-160 "/>
<text text-anchor="middle" x="41.5" y="-148" font-family="Helvetica,sans-Serif" font-size="10.00"> </text>
<polyline fill="none" stroke="black" points="0,-141 83,-141 "/>
<text text-anchor="middle" x="41.5" y="-129" font-family="Helvetica,sans-Serif" font-size="10.00"> </text>
</a>
</g>
</g>
<!-- Node3&#45;&gt;Node2 -->
<g id="edge1" class="edge"><title>Node3&#45;&gt;Node2</title>
<path fill="none" stroke="midnightblue" d="M52.8493,-111.827C58.1484,-94.2366 64.3423,-73.6764 69.1957,-57.5658"/>
<polygon fill="none" stroke="midnightblue" points="49.3829,-111.199 49.8496,-121.784 56.0854,-113.219 49.3829,-111.199"/>
</g>
<!-- Node4 -->
<g id="node3" class="node"><title>Node4</title>
<g id="a_node3"><a xlink:href="class_quest.html" target="_top" xlink:title="A class to store a whole quest, being a sequence of 3 QuestDefs Also stores a name of the quest...">
<polygon fill="none" stroke="black" points="101.5,-105.5 101.5,-195.5 203.5,-195.5 203.5,-105.5 101.5,-105.5"/>
<text text-anchor="middle" x="152.5" y="-183.5" font-family="Helvetica,sans-Serif" font-size="10.00">Quest</text>
<polyline fill="none" stroke="black" points="101.5,-176.5 203.5,-176.5 "/>
<text text-anchor="start" x="109.5" y="-164.5" font-family="Helvetica,sans-Serif" font-size="10.00">+ Main</text>
<text text-anchor="start" x="109.5" y="-153.5" font-family="Helvetica,sans-Serif" font-size="10.00">+ Side</text>
<text text-anchor="start" x="109.5" y="-142.5" font-family="Helvetica,sans-Serif" font-size="10.00">+ Cond</text>
<polyline fill="none" stroke="black" points="101.5,-135.5 203.5,-135.5 "/>
<text text-anchor="start" x="109.5" y="-123.5" font-family="Helvetica,sans-Serif" font-size="10.00">+ Quest()</text>
<text text-anchor="start" x="109.5" y="-112.5" font-family="Helvetica,sans-Serif" font-size="10.00">+ questCompleted()</text>
</a>
</g>
</g>
<!-- Node4&#45;&gt;Node2 -->
<g id="edge2" class="edge"><title>Node4&#45;&gt;Node2</title>
<path fill="none" stroke="#404040" d="M124.786,-105.342C117.118,-93.1252 108.864,-79.9733 101.432,-68.1309"/>
<polygon fill="none" stroke="#404040" points="101.256,-67.8519 94.6789,-64.8963 94.8773,-57.6879 101.455,-60.6435 101.256,-67.8519"/>
<text text-anchor="middle" x="125" y="-79" font-family="Helvetica,sans-Serif" font-size="10.00"> +CS</text>
</g>
<!-- Node5 -->
<g id="node4" class="node"><title>Node5</title>
<g id="a_node4"><a xlink:href="class_quest_def.html" target="_top" xlink:title="Class defining one quest condition (part of a sequence of 3 in Quest) ">
<polygon fill="none" stroke="black" points="41.5,-265.5 41.5,-333.5 113.5,-333.5 113.5,-265.5 41.5,-265.5"/>
<text text-anchor="middle" x="77.5" y="-321.5" font-family="Helvetica,sans-Serif" font-size="10.00">QuestDef</text>
<polyline fill="none" stroke="black" points="41.5,-314.5 113.5,-314.5 "/>
<text text-anchor="start" x="49.5" y="-302.5" font-family="Helvetica,sans-Serif" font-size="10.00">+ Type</text>
<text text-anchor="start" x="49.5" y="-291.5" font-family="Helvetica,sans-Serif" font-size="10.00">+ Data</text>
<polyline fill="none" stroke="black" points="41.5,-284.5 113.5,-284.5 "/>
<text text-anchor="start" x="49.5" y="-272.5" font-family="Helvetica,sans-Serif" font-size="10.00">+ QuestDef()</text>
</a>
</g>
</g>
<!-- Node5&#45;&gt;Node4 -->
<g id="edge3" class="edge"><title>Node5&#45;&gt;Node4</title>
<path fill="none" stroke="#404040" d="M94.5187,-265.143C103.38,-247.775 114.442,-226.093 124.522,-206.338"/>
<polygon fill="none" stroke="#404040" points="124.546,-206.289 123.71,-199.127 130,-195.6 130.836,-202.763 124.546,-206.289"/>
<text text-anchor="middle" x="132" y="-239" font-family="Helvetica,sans-Serif" font-size="10.00"> &#45;side</text>
<text text-anchor="middle" x="132" y="-228" font-family="Helvetica,sans-Serif" font-size="10.00">&#45;main</text>
<text text-anchor="middle" x="132" y="-217" font-family="Helvetica,sans-Serif" font-size="10.00">&#45;cond</text>
</g>
<!-- Node6 -->
<g id="node5" class="node"><title>Node6</title>
<polygon fill="none" stroke="#bfbfbf" points="8.5,-381.5 8.5,-449.5 146.5,-449.5 146.5,-381.5 8.5,-381.5"/>
<text text-anchor="start" x="16.5" y="-437.5" font-family="Helvetica,sans-Serif" font-size="10.00">KeyValuePair&lt; questTypes,</text>
<text text-anchor="middle" x="77.5" y="-426.5" font-family="Helvetica,sans-Serif" font-size="10.00"> string &gt;</text>
<polyline fill="none" stroke="#bfbfbf" points="8.5,-419.5 146.5,-419.5 "/>
<text text-anchor="middle" x="77.5" y="-407.5" font-family="Helvetica,sans-Serif" font-size="10.00"> </text>
<polyline fill="none" stroke="#bfbfbf" points="8.5,-400.5 146.5,-400.5 "/>
<text text-anchor="middle" x="77.5" y="-388.5" font-family="Helvetica,sans-Serif" font-size="10.00"> </text>
</g>
<!-- Node6&#45;&gt;Node5 -->
<g id="edge4" class="edge"><title>Node6&#45;&gt;Node5</title>
<path fill="none" stroke="#404040" d="M77.5,-381.22C77.5,-370.099 77.5,-357.512 77.5,-345.642"/>
<polygon fill="none" stroke="#404040" points="77.5001,-345.624 73.5,-339.624 77.5,-333.624 81.5,-339.624 77.5001,-345.624"/>
<text text-anchor="middle" x="88.5" y="-355" font-family="Helvetica,sans-Serif" font-size="10.00"> &#45;pair</text>
</g>
<!-- Node7 -->
<g id="node6" class="node"><title>Node7</title>
<polygon fill="none" stroke="#bfbfbf" points="132,-271 132,-328 173,-328 173,-271 132,-271"/>
<text text-anchor="middle" x="152.5" y="-316" font-family="Helvetica,sans-Serif" font-size="10.00">string</text>
<polyline fill="none" stroke="#bfbfbf" points="132,-309 173,-309 "/>
<text text-anchor="middle" x="152.5" y="-297" font-family="Helvetica,sans-Serif" font-size="10.00"> </text>
<polyline fill="none" stroke="#bfbfbf" points="132,-290 173,-290 "/>
<text text-anchor="middle" x="152.5" y="-278" font-family="Helvetica,sans-Serif" font-size="10.00"> </text>
</g>
<!-- Node7&#45;&gt;Node4 -->
<g id="edge5" class="edge"><title>Node7&#45;&gt;Node4</title>
<path fill="none" stroke="#404040" d="M152.5,-270.85C152.5,-253.109 152.5,-229.433 152.5,-207.848"/>
<polygon fill="none" stroke="#404040" points="152.5,-207.782 148.5,-201.782 152.5,-195.782 156.5,-201.782 152.5,-207.782"/>
<text text-anchor="middle" x="174" y="-233.5" font-family="Helvetica,sans-Serif" font-size="10.00"> +location</text>
<text text-anchor="middle" x="174" y="-222.5" font-family="Helvetica,sans-Serif" font-size="10.00">+title</text>
</g>
<!-- Node8 -->
<g id="node7" class="node"><title>Node8</title>
<polygon fill="none" stroke="#bfbfbf" points="204,-271 204,-328 233,-328 233,-271 204,-271"/>
<text text-anchor="middle" x="218.5" y="-316" font-family="Helvetica,sans-Serif" font-size="10.00">int</text>
<polyline fill="none" stroke="#bfbfbf" points="204,-309 233,-309 "/>
<text text-anchor="middle" x="218.5" y="-297" font-family="Helvetica,sans-Serif" font-size="10.00"> </text>
<polyline fill="none" stroke="#bfbfbf" points="204,-290 233,-290 "/>
<text text-anchor="middle" x="218.5" y="-278" font-family="Helvetica,sans-Serif" font-size="10.00"> </text>
</g>
<!-- Node8&#45;&gt;Node4 -->
<g id="edge6" class="edge"><title>Node8&#45;&gt;Node4</title>
<path fill="none" stroke="#404040" d="M213.86,-270.622C210.417,-253.722 204.852,-232.017 196.5,-214 195.299,-211.41 193.99,-208.813 192.598,-206.23"/>
<polygon fill="none" stroke="#404040" points="192.524,-206.103 186.047,-202.933 186.482,-195.735 192.959,-198.905 192.524,-206.103"/>
<text text-anchor="middle" x="227" y="-233.5" font-family="Helvetica,sans-Serif" font-size="10.00"> +money</text>
<text text-anchor="middle" x="227" y="-222.5" font-family="Helvetica,sans-Serif" font-size="10.00">+exp</text>
</g>
</g>
</svg>
        <g id="navigator" transform="translate(0 0)" fill="#404254">
                <rect fill="#f2f5e9" fill-opacity="0.5" stroke="#606060" stroke-width=".5" x="0" y="0" width="60" height="60"/>
                <use id="zoomplus" xlink:href="#zoomPlus" x="17" y="9" onmousedown="handleZoom(evt,'in')"/>
                <use id="zoomminus" xlink:href="#zoomMin" x="42" y="9" onmousedown="handleZoom(evt,'out')"/>
                <use id="reset" xlink:href="#resetDef" x="30" y="36" onmousedown="handleReset()"/>
                <g id="arrowUp" xlink:href="#dirArrow" transform="translate(30 24)" onmousedown="handlePan(0,-1)">
                  <use xlink:href="#rim" fill="#404040">
                        <set attributeName="fill" to="#808080" begin="arrowUp.mouseover" end="arrowUp.mouseout"/>
                  </use>
                  <path fill="none" stroke="white" stroke-width="1.5" d="M0,-3.0v7 M-2.5,-0.5L0,-3.0L2.5,-0.5"/>
                </g>
                <g id="arrowRight" xlink:href="#dirArrow" transform="rotate(90) translate(36 -43)" onmousedown="handlePan(1,0)">
                  <use xlink:href="#rim" fill="#404040">
                        <set attributeName="fill" to="#808080" begin="arrowRight.mouseover" end="arrowRight.mouseout"/>
                  </use>
                  <path fill="none" stroke="white" stroke-width="1.5" d="M0,-3.0v7 M-2.5,-0.5L0,-3.0L2.5,-0.5"/>
                </g>
                <g id="arrowDown" xlink:href="#dirArrow" transform="rotate(180) translate(-30 -48)" onmousedown="handlePan(0,1)">
                  <use xlink:href="#rim" fill="#404040">
                        <set attributeName="fill" to="#808080" begin="arrowDown.mouseover" end="arrowDown.mouseout"/>
                  </use>
                  <path fill="none" stroke="white" stroke-width="1.5" d="M0,-3.0v7 M-2.5,-0.5L0,-3.0L2.5,-0.5"/>
                </g>
                <g id="arrowLeft" xlink:href="#dirArrow" transform="rotate(270) translate(-36 17)" onmousedown="handlePan(-1,0)">
                  <use xlink:href="#rim" fill="#404040">
                        <set attributeName="fill" to="#808080" begin="arrowLeft.mouseover" end="arrowLeft.mouseout"/>
                  </use>
                  <path fill="none" stroke="white" stroke-width="1.5" d="M0,-3.0v7 M-2.5,-0.5L0,-3.0L2.5,-0.5"/>
                </g>
        </g>
        <svg viewBox="0 0 15 15" width="100%" height="30px" preserveAspectRatio="xMaxYMin meet">
         <g id="arrow_out" transform="scale(0.3 0.3)">
          <a xlink:href="class_quest_instances__coll__graph_org.svg" target="_base">
           <rect id="button" ry="5" rx="5" y="6" x="6" height="38" width="38"
                fill="#f2f5e9" fill-opacity="0.5" stroke="#606060" stroke-width="1.0"/>
           <path id="arrow"
             d="M 11.500037,31.436501 C 11.940474,20.09759 22.043105,11.32322 32.158766,21.979434 L 37.068811,17.246167 C 37.068811,17.246167 37.088388,32 37.088388,32 L 22.160133,31.978069 C 22.160133,31.978069 26.997745,27.140456 26.997745,27.140456 C 18.528582,18.264221 13.291696,25.230495 11.500037,31.436501 z"
             style="fill:#404040;"/>
          </a>
         </g>
        </svg>
</svg>
