<?xml version="1.0" encoding="UTF-8" standalone="no"?>
<!DOCTYPE svg PUBLIC "-//W3C//DTD SVG 1.1//EN"
 "http://www.w3.org/Graphics/SVG/1.1/DTD/svg11.dtd">
<!-- Generated by graphviz version 2.38.0 (20140413.2041)
 -->
<!-- Title: SaveData Pages: 1 -->
<svg width="1056pt" height="491pt"
 viewBox="0.00 0.00 1056.00 491.00" xmlns="http://www.w3.org/2000/svg" xmlns:xlink="http://www.w3.org/1999/xlink">
<g id="graph0" class="graph" transform="scale(1 1) rotate(0) translate(4 487)">
<title>SaveData</title>
<!-- Node1 -->
<g id="node1" class="node"><title>Node1</title>
<polygon fill="#bfbfbf" stroke="black" points="334,-0.5 334,-57.5 392,-57.5 392,-0.5 334,-0.5"/>
<text text-anchor="middle" x="363" y="-45.5" font-family="Helvetica,sans-Serif" font-size="10.00">SaveData</text>
<polyline fill="none" stroke="black" points="334,-38.5 392,-38.5 "/>
<text text-anchor="middle" x="363" y="-26.5" font-family="Helvetica,sans-Serif" font-size="10.00"> </text>
<polyline fill="none" stroke="black" points="334,-19.5 392,-19.5 "/>
<text text-anchor="middle" x="363" y="-7.5" font-family="Helvetica,sans-Serif" font-size="10.00"> </text>
</g>
<!-- Node2 -->
<g id="node2" class="node"><title>Node2</title>
<g id="a_node2"><a xlink:href="class_save_data_1_1_vector_data.html" target="_top" xlink:title="A serialzable class to represent 2D vector information. ">
<polygon fill="none" stroke="black" points="0,-181.5 0,-238.5 110,-238.5 110,-181.5 0,-181.5"/>
<text text-anchor="middle" x="55" y="-226.5" font-family="Helvetica,sans-Serif" font-size="10.00">SaveData.VectorData</text>
<polyline fill="none" stroke="black" points="0,-219.5 110,-219.5 "/>
<text text-anchor="middle" x="55" y="-207.5" font-family="Helvetica,sans-Serif" font-size="10.00"> </text>
<polyline fill="none" stroke="black" points="0,-200.5 110,-200.5 "/>
<text text-anchor="middle" x="55" y="-188.5" font-family="Helvetica,sans-Serif" font-size="10.00"> </text>
</a>
</g>
</g>
<!-- Node2&#45;&gt;Node1 -->
<g id="edge1" class="edge"><title>Node2&#45;&gt;Node1</title>
<path fill="none" stroke="#404040" d="M48.4004,-181.473C44.6095,-158.425 43.564,-126.019 61,-105 94.054,-65.1544 246.892,-42.9329 321.627,-34.2802"/>
<polygon fill="none" stroke="#404040" points="321.85,-34.2552 327.365,-29.6096 333.774,-32.9139 328.259,-37.5595 321.85,-34.2552"/>
<text text-anchor="middle" x="96.5" y="-131.5" font-family="Helvetica,sans-Serif" font-size="10.00"> +playerPosition</text>
</g>
<!-- Node3 -->
<g id="node3" class="node"><title>Node3</title>
<polygon fill="none" stroke="#bfbfbf" points="192.5,-425.5 192.5,-482.5 227.5,-482.5 227.5,-425.5 192.5,-425.5"/>
<text text-anchor="middle" x="210" y="-470.5" font-family="Helvetica,sans-Serif" font-size="10.00">float</text>
<polyline fill="none" stroke="#bfbfbf" points="192.5,-463.5 227.5,-463.5 "/>
<text text-anchor="middle" x="210" y="-451.5" font-family="Helvetica,sans-Serif" font-size="10.00"> </text>
<polyline fill="none" stroke="#bfbfbf" points="192.5,-444.5 227.5,-444.5 "/>
<text text-anchor="middle" x="210" y="-432.5" font-family="Helvetica,sans-Serif" font-size="10.00"> </text>
</g>
<!-- Node3&#45;&gt;Node2 -->
<g id="edge2" class="edge"><title>Node3&#45;&gt;Node2</title>
<path fill="none" stroke="#404040" d="M192.277,-442.516C167.31,-426.837 122.04,-394.921 97,-356 76.3114,-323.843 65.5625,-281.243 60.1435,-250.548"/>
<polygon fill="none" stroke="#404040" points="60.1261,-250.441 55.2128,-245.162 58.1952,-238.597 63.1085,-243.875 60.1261,-250.441"/>
<text text-anchor="middle" x="161.5" y="-393.5" font-family="Helvetica,sans-Serif" font-size="10.00"> +ycoord</text>
<text text-anchor="middle" x="161.5" y="-382.5" font-family="Helvetica,sans-Serif" font-size="10.00">+xcoord</text>
</g>
<!-- Node11 -->
<g id="node11" class="node"><title>Node11</title>
<g id="a_node11"><a xlink:href="class_save_data_1_1_special_move_save_data.html" target="_top" xlink:title="A serializable class to represent a SpecialMove. ">
<polygon fill="none" stroke="black" points="474.5,-278 474.5,-335 631.5,-335 631.5,-278 474.5,-278"/>
<text text-anchor="middle" x="553" y="-323" font-family="Helvetica,sans-Serif" font-size="10.00">SaveData.SpecialMoveSaveData</text>
<polyline fill="none" stroke="black" points="474.5,-316 631.5,-316 "/>
<text text-anchor="middle" x="553" y="-304" font-family="Helvetica,sans-Serif" font-size="10.00"> </text>
<polyline fill="none" stroke="black" points="474.5,-297 631.5,-297 "/>
<text text-anchor="middle" x="553" y="-285" font-family="Helvetica,sans-Serif" font-size="10.00"> </text>
</a>
</g>
</g>
<!-- Node3&#45;&gt;Node11 -->
<g id="edge14" class="edge"><title>Node3&#45;&gt;Node11</title>
<path fill="none" stroke="#404040" d="M227.689,-444.13C259.774,-428.312 329.993,-394.937 392,-374 423.66,-363.31 433.878,-368.169 465,-356 475.852,-351.757 487.032,-346.426 497.631,-340.864"/>
<polygon fill="none" stroke="#404040" points="497.873,-340.732 501.246,-334.358 508.426,-335.02 505.054,-341.394 497.873,-340.732"/>
<text text-anchor="middle" x="412" y="-388" font-family="Helvetica,sans-Serif" font-size="10.00"> +special</text>
</g>
<!-- Node4 -->
<g id="node4" class="node"><title>Node4</title>
<g id="a_node4"><a xlink:href="class_save_data_1_1_objects_active_data.html" target="_top" xlink:title="A serializable class to represent string,bool dictonaries. ">
<polygon fill="none" stroke="black" points="141.5,-105.5 141.5,-162.5 282.5,-162.5 282.5,-105.5 141.5,-105.5"/>
<text text-anchor="middle" x="212" y="-150.5" font-family="Helvetica,sans-Serif" font-size="10.00">SaveData.ObjectsActiveData</text>
<polyline fill="none" stroke="black" points="141.5,-143.5 282.5,-143.5 "/>
<text text-anchor="middle" x="212" y="-131.5" font-family="Helvetica,sans-Serif" font-size="10.00"> </text>
<polyline fill="none" stroke="black" points="141.5,-124.5 282.5,-124.5 "/>
<text text-anchor="middle" x="212" y="-112.5" font-family="Helvetica,sans-Serif" font-size="10.00"> </text>
</a>
</g>
</g>
<!-- Node4&#45;&gt;Node1 -->
<g id="edge3" class="edge"><title>Node4&#45;&gt;Node1</title>
<path fill="none" stroke="#404040" d="M187.725,-105.463C181.962,-95.6077 179.213,-84.7761 186,-76 202.492,-54.6735 274.995,-41.3989 321.939,-34.8784"/>
<polygon fill="none" stroke="#404040" points="321.959,-34.8759 327.378,-30.1186 333.854,-33.2912 328.434,-38.0485 321.959,-34.8759"/>
<text text-anchor="middle" x="241.5" y="-79" font-family="Helvetica,sans-Serif" font-size="10.00"> +serializedObjectsActive</text>
</g>
<!-- Node5 -->
<g id="node5" class="node"><title>Node5</title>
<polygon fill="none" stroke="#bfbfbf" points="192,-278 192,-335 266,-335 266,-278 192,-278"/>
<text text-anchor="middle" x="229" y="-323" font-family="Helvetica,sans-Serif" font-size="10.00">List&lt; string &gt;</text>
<polyline fill="none" stroke="#bfbfbf" points="192,-316 266,-316 "/>
<text text-anchor="middle" x="229" y="-304" font-family="Helvetica,sans-Serif" font-size="10.00"> </text>
<polyline fill="none" stroke="#bfbfbf" points="192,-297 266,-297 "/>
<text text-anchor="middle" x="229" y="-285" font-family="Helvetica,sans-Serif" font-size="10.00"> </text>
</g>
<!-- Node5&#45;&gt;Node4 -->
<g id="edge4" class="edge"><title>Node5&#45;&gt;Node4</title>
<path fill="none" stroke="#404040" d="M226.231,-277.727C223.452,-249.861 219.145,-206.658 215.996,-175.081"/>
<polygon fill="none" stroke="#404040" points="215.959,-174.702 211.383,-169.129 214.768,-162.761 219.344,-168.335 215.959,-174.702"/>
<text text-anchor="middle" x="238.5" y="-207.5" font-family="Helvetica,sans-Serif" font-size="10.00"> +keys</text>
</g>
<!-- Node6 -->
<g id="node6" class="node"><title>Node6</title>
<polygon fill="none" stroke="#bfbfbf" points="106,-278 106,-335 174,-335 174,-278 106,-278"/>
<text text-anchor="middle" x="140" y="-323" font-family="Helvetica,sans-Serif" font-size="10.00">List&lt; bool &gt;</text>
<polyline fill="none" stroke="#bfbfbf" points="106,-316 174,-316 "/>
<text text-anchor="middle" x="140" y="-304" font-family="Helvetica,sans-Serif" font-size="10.00"> </text>
<polyline fill="none" stroke="#bfbfbf" points="106,-297 174,-297 "/>
<text text-anchor="middle" x="140" y="-285" font-family="Helvetica,sans-Serif" font-size="10.00"> </text>
</g>
<!-- Node6&#45;&gt;Node4 -->
<g id="edge5" class="edge"><title>Node6&#45;&gt;Node4</title>
<path fill="none" stroke="#404040" d="M145.239,-277.709C150.823,-251.738 161.08,-212.368 177,-181 178.391,-178.26 179.95,-175.516 181.617,-172.811"/>
<polygon fill="none" stroke="#404040" points="181.758,-172.601 181.787,-165.39 188.454,-162.643 188.425,-169.854 181.758,-172.601"/>
<text text-anchor="middle" x="195.5" y="-207.5" font-family="Helvetica,sans-Serif" font-size="10.00"> +values</text>
</g>
<!-- Node7 -->
<g id="node7" class="node"><title>Node7</title>
<polygon fill="none" stroke="#bfbfbf" points="475.5,-425.5 475.5,-482.5 516.5,-482.5 516.5,-425.5 475.5,-425.5"/>
<text text-anchor="middle" x="496" y="-470.5" font-family="Helvetica,sans-Serif" font-size="10.00">string</text>
<polyline fill="none" stroke="#bfbfbf" points="475.5,-463.5 516.5,-463.5 "/>
<text text-anchor="middle" x="496" y="-451.5" font-family="Helvetica,sans-Serif" font-size="10.00"> </text>
<polyline fill="none" stroke="#bfbfbf" points="475.5,-444.5 516.5,-444.5 "/>
<text text-anchor="middle" x="496" y="-432.5" font-family="Helvetica,sans-Serif" font-size="10.00"> </text>
</g>
<!-- Node7&#45;&gt;Node1 -->
<g id="edge6" class="edge"><title>Node7&#45;&gt;Node1</title>
<path fill="none" stroke="#404040" d="M475.284,-450.502C433.428,-445.008 341.055,-430.461 321,-407 237.966,-309.867 304.935,-143.39 342.217,-68.4939"/>
<polygon fill="none" stroke="#404040" points="342.263,-68.4032 341.416,-61.2421 347.7,-57.7053 348.547,-64.8664 342.263,-68.4032"/>
<text text-anchor="middle" x="344.5" y="-207.5" font-family="Helvetica,sans-Serif" font-size="10.00"> +currentSceneName</text>
</g>
<!-- Node9 -->
<g id="node9" class="node"><title>Node9</title>
<g id="a_node9"><a xlink:href="class_save_data_1_1_item_save_data.html" target="_top" xlink:title="A serializable class to represent an Item. ">
<polygon fill="none" stroke="black" points="335.5,-278 335.5,-335 456.5,-335 456.5,-278 335.5,-278"/>
<text text-anchor="middle" x="396" y="-323" font-family="Helvetica,sans-Serif" font-size="10.00">SaveData.ItemSaveData</text>
<polyline fill="none" stroke="black" points="335.5,-316 456.5,-316 "/>
<text text-anchor="middle" x="396" y="-304" font-family="Helvetica,sans-Serif" font-size="10.00"> </text>
<polyline fill="none" stroke="black" points="335.5,-297 456.5,-297 "/>
<text text-anchor="middle" x="396" y="-285" font-family="Helvetica,sans-Serif" font-size="10.00"> </text>
</a>
</g>
</g>
<!-- Node7&#45;&gt;Node9 -->
<g id="edge9" class="edge"><title>Node7&#45;&gt;Node9</title>
<path fill="none" stroke="#404040" d="M475.445,-430.159C469.274,-422.938 462.648,-414.803 457,-407 442.896,-387.517 428.757,-364.71 417.647,-345.849"/>
<polygon fill="none" stroke="#404040" points="417.517,-345.626 411.041,-342.453 411.479,-335.255 417.955,-338.428 417.517,-345.626"/>
<text text-anchor="middle" x="484" y="-399" font-family="Helvetica,sans-Serif" font-size="10.00"> +name</text>
<text text-anchor="middle" x="484" y="-388" font-family="Helvetica,sans-Serif" font-size="10.00">+desc</text>
<text text-anchor="middle" x="484" y="-377" font-family="Helvetica,sans-Serif" font-size="10.00">+typeOfItem</text>
</g>
<!-- Node10 -->
<g id="node10" class="node"><title>Node10</title>
<g id="a_node10"><a xlink:href="class_save_data_1_1_player_save_data.html" target="_top" xlink:title="A serialzable class to represent a Player. ">
<polygon fill="none" stroke="black" points="559,-105.5 559,-162.5 689,-162.5 689,-105.5 559,-105.5"/>
<text text-anchor="middle" x="624" y="-150.5" font-family="Helvetica,sans-Serif" font-size="10.00">SaveData.PlayerSaveData</text>
<polyline fill="none" stroke="black" points="559,-143.5 689,-143.5 "/>
<text text-anchor="middle" x="624" y="-131.5" font-family="Helvetica,sans-Serif" font-size="10.00"> </text>
<polyline fill="none" stroke="black" points="559,-124.5 689,-124.5 "/>
<text text-anchor="middle" x="624" y="-112.5" font-family="Helvetica,sans-Serif" font-size="10.00"> </text>
</a>
</g>
</g>
<!-- Node7&#45;&gt;Node10 -->
<g id="edge11" class="edge"><title>Node7&#45;&gt;Node10</title>
<path fill="none" stroke="#404040" d="M516.939,-450.602C544.29,-446.411 592.085,-435.311 621,-407 693.532,-335.983 682.925,-278.301 654,-181 653.238,-178.438 652.284,-175.886 651.188,-173.372"/>
<polygon fill="none" stroke="#404040" points="651.167,-173.331 644.852,-169.85 645.636,-162.682 651.951,-166.163 651.167,-173.331"/>
<text text-anchor="middle" x="693" y="-304" font-family="Helvetica,sans-Serif" font-size="10.00"> +name</text>
</g>
<!-- Node7&#45;&gt;Node11 -->
<g id="edge13" class="edge"><title>Node7&#45;&gt;Node11</title>
<path fill="none" stroke="#404040" d="M506.855,-425.29C515.611,-402.94 528.03,-371.239 537.779,-346.353"/>
<polygon fill="none" stroke="#404040" points="537.808,-346.28 536.272,-339.234 542.185,-335.107 543.721,-342.152 537.808,-346.28"/>
<text text-anchor="middle" x="572" y="-399" font-family="Helvetica,sans-Serif" font-size="10.00"> +text</text>
<text text-anchor="middle" x="572" y="-388" font-family="Helvetica,sans-Serif" font-size="10.00">+desc</text>
<text text-anchor="middle" x="572" y="-377" font-family="Helvetica,sans-Serif" font-size="10.00">+typeOfSpecialMove</text>
</g>
<!-- Node8 -->
<g id="node8" class="node"><title>Node8</title>
<polygon fill="none" stroke="#bfbfbf" points="776.5,-425.5 776.5,-482.5 805.5,-482.5 805.5,-425.5 776.5,-425.5"/>
<text text-anchor="middle" x="791" y="-470.5" font-family="Helvetica,sans-Serif" font-size="10.00">int</text>
<polyline fill="none" stroke="#bfbfbf" points="776.5,-463.5 805.5,-463.5 "/>
<text text-anchor="middle" x="791" y="-451.5" font-family="Helvetica,sans-Serif" font-size="10.00"> </text>
<polyline fill="none" stroke="#bfbfbf" points="776.5,-444.5 805.5,-444.5 "/>
<text text-anchor="middle" x="791" y="-432.5" font-family="Helvetica,sans-Serif" font-size="10.00"> </text>
</g>
<!-- Node8&#45;&gt;Node1 -->
<g id="edge7" class="edge"><title>Node8&#45;&gt;Node1</title>
<path fill="none" stroke="#404040" d="M805.695,-449.937C840.31,-441.817 926.425,-416.108 958,-356 978.462,-317.047 976.854,-296.756 958,-257 858.582,-47.3632 522.333,-28.8837 404.34,-29.0334"/>
<polygon fill="none" stroke="#404040" points="404.332,-29.0333 398.36,-33.0744 392.333,-29.1156 398.305,-25.0745 404.332,-29.0333"/>
<text text-anchor="middle" x="974" y="-213" font-family="Helvetica,sans-Serif" font-size="10.00"> +Money</text>
<text text-anchor="middle" x="974" y="-202" font-family="Helvetica,sans-Serif" font-size="10.00">+currentLevel</text>
</g>
<!-- Node8&#45;&gt;Node10 -->
<g id="edge19" class="edge"><title>Node8&#45;&gt;Node10</title>
<path fill="none" stroke="#404040" d="M777.935,-425.255C769.058,-406.001 757.288,-379.663 748,-356 717.208,-277.553 726.37,-247.807 675,-181 672.452,-177.686 669.645,-174.416 666.698,-171.242"/>
<polygon fill="none" stroke="#404040" points="666.568,-171.111 659.503,-169.665 658.12,-162.588 665.185,-164.034 666.568,-171.111"/>
<text text-anchor="middle" x="787.5" y="-348" font-family="Helvetica,sans-Serif" font-size="10.00"> +maximumMagic</text>
<text text-anchor="middle" x="787.5" y="-337" font-family="Helvetica,sans-Serif" font-size="10.00">+attack</text>
<text text-anchor="middle" x="787.5" y="-326" font-family="Helvetica,sans-Serif" font-size="10.00">+defence</text>
<text text-anchor="middle" x="787.5" y="-315" font-family="Helvetica,sans-Serif" font-size="10.00">+level</text>
<text text-anchor="middle" x="787.5" y="-304" font-family="Helvetica,sans-Serif" font-size="10.00">+speed</text>
<text text-anchor="middle" x="787.5" y="-293" font-family="Helvetica,sans-Serif" font-size="10.00">+luck</text>
<text text-anchor="middle" x="787.5" y="-282" font-family="Helvetica,sans-Serif" font-size="10.00">+health</text>
<text text-anchor="middle" x="787.5" y="-271" font-family="Helvetica,sans-Serif" font-size="10.00">+magic</text>
<text text-anchor="middle" x="787.5" y="-260" font-family="Helvetica,sans-Serif" font-size="10.00">+exp</text>
</g>
<!-- Node8&#45;&gt;Node11 -->
<g id="edge15" class="edge"><title>Node8&#45;&gt;Node11</title>
<path fill="none" stroke="#404040" d="M776.317,-446.639C757.515,-438.309 724.122,-422.886 697,-407 663.255,-387.234 627.047,-362.196 599.379,-342.181"/>
<polygon fill="none" stroke="#404040" points="599.293,-342.118 592.088,-341.819 589.593,-335.054 596.798,-335.352 599.293,-342.118"/>
<text text-anchor="middle" x="715" y="-388" font-family="Helvetica,sans-Serif" font-size="10.00"> +magic</text>
</g>
<!-- Node12 -->
<g id="node12" class="node"><title>Node12</title>
<g id="a_node12"><a xlink:href="class_save_data_1_1_texture_data.html" target="_top" xlink:title="A serializable class for holding textures. ">
<polygon fill="none" stroke="black" points="835.5,-278 835.5,-335 948.5,-335 948.5,-278 835.5,-278"/>
<text text-anchor="middle" x="892" y="-323" font-family="Helvetica,sans-Serif" font-size="10.00">SaveData.TextureData</text>
<polyline fill="none" stroke="black" points="835.5,-316 948.5,-316 "/>
<text text-anchor="middle" x="892" y="-304" font-family="Helvetica,sans-Serif" font-size="10.00"> </text>
<polyline fill="none" stroke="black" points="835.5,-297 948.5,-297 "/>
<text text-anchor="middle" x="892" y="-285" font-family="Helvetica,sans-Serif" font-size="10.00"> </text>
</a>
</g>
</g>
<!-- Node8&#45;&gt;Node12 -->
<g id="edge17" class="edge"><title>Node8&#45;&gt;Node12</title>
<path fill="none" stroke="#404040" d="M805.686,-431.843C821.405,-409.199 846.66,-372.817 865.8,-345.243"/>
<polygon fill="none" stroke="#404040" points="865.961,-345.011 866.097,-337.802 872.804,-335.154 872.668,-342.363 865.961,-345.011"/>
<text text-anchor="middle" x="862" y="-393.5" font-family="Helvetica,sans-Serif" font-size="10.00"> +height</text>
<text text-anchor="middle" x="862" y="-382.5" font-family="Helvetica,sans-Serif" font-size="10.00">+width</text>
</g>
<!-- Node9&#45;&gt;Node1 -->
<g id="edge8" class="edge"><title>Node9&#45;&gt;Node1</title>
<path fill="none" stroke="#404040" d="M398.558,-277.701C399.532,-265.794 400.522,-251.727 401,-239 401.967,-213.24 404.17,-206.582 401,-181 396.224,-142.449 384.836,-99.5982 375.764,-69.4226"/>
<polygon fill="none" stroke="#404040" points="375.692,-69.1876 370.107,-64.626 372.17,-57.7161 377.755,-62.2778 375.692,-69.1876"/>
<text text-anchor="middle" x="436.5" y="-131.5" font-family="Helvetica,sans-Serif" font-size="10.00"> +serializedItems</text>
</g>
<!-- Node9&#45;&gt;Node10 -->
<g id="edge20" class="edge"><title>Node9&#45;&gt;Node10</title>
<path fill="none" stroke="#404040" d="M428.113,-277.911C458.886,-251.909 507.021,-212.363 551,-181 556.412,-177.14 562.141,-173.237 567.915,-169.42"/>
<polygon fill="none" stroke="#404040" points="568.235,-169.212 571.087,-162.588 578.297,-162.673 575.446,-169.296 568.235,-169.212"/>
<text text-anchor="middle" x="565" y="-207.5" font-family="Helvetica,sans-Serif" font-size="10.00"> +item</text>
</g>
<!-- Node10&#45;&gt;Node1 -->
<g id="edge10" class="edge"><title>Node10&#45;&gt;Node1</title>
<path fill="none" stroke="#404040" d="M558.812,-107.274C510.06,-88.035 444.922,-62.3294 403.455,-45.9649"/>
<polygon fill="none" stroke="#404040" points="403.325,-45.9137 396.275,-47.4319 392.163,-41.5086 399.212,-39.9904 403.325,-45.9137"/>
<text text-anchor="middle" x="544" y="-79" font-family="Helvetica,sans-Serif" font-size="10.00"> +serializedPlayers</text>
</g>
<!-- Node11&#45;&gt;Node10 -->
<g id="edge12" class="edge"><title>Node11&#45;&gt;Node10</title>
<path fill="none" stroke="#404040" d="M564.565,-277.727C576.273,-249.613 594.48,-205.889 607.659,-174.241"/>
<polygon fill="none" stroke="#404040" points="607.826,-173.839 606.44,-166.763 612.44,-162.761 613.826,-169.838 607.826,-173.839"/>
<text text-anchor="middle" x="627" y="-213" font-family="Helvetica,sans-Serif" font-size="10.00"> +special1</text>
<text text-anchor="middle" x="627" y="-202" font-family="Helvetica,sans-Serif" font-size="10.00">+special2</text>
</g>
<!-- Node12&#45;&gt;Node10 -->
<g id="edge16" class="edge"><title>Node12&#45;&gt;Node10</title>
<path fill="none" stroke="#404040" d="M867.072,-277.837C840.79,-250.089 797.025,-207.741 752,-181 736.178,-171.603 718.128,-163.665 700.671,-157.167"/>
<polygon fill="none" stroke="#404040" points="700.614,-157.147 693.618,-158.892 689.315,-153.105 696.312,-151.36 700.614,-157.147"/>
<text text-anchor="middle" x="843" y="-207.5" font-family="Helvetica,sans-Serif" font-size="10.00"> +image</text>
</g>
<!-- Node13 -->
<g id="node13" class="node"><title>Node13</title>
<polygon fill="none" stroke="#bfbfbf" points="988,-425.5 988,-482.5 1032,-482.5 1032,-425.5 988,-425.5"/>
<text text-anchor="middle" x="1010" y="-470.5" font-family="Helvetica,sans-Serif" font-size="10.00">byte []</text>
<polyline fill="none" stroke="#bfbfbf" points="988,-463.5 1032,-463.5 "/>
<text text-anchor="middle" x="1010" y="-451.5" font-family="Helvetica,sans-Serif" font-size="10.00"> </text>
<polyline fill="none" stroke="#bfbfbf" points="988,-444.5 1032,-444.5 "/>
<text text-anchor="middle" x="1010" y="-432.5" font-family="Helvetica,sans-Serif" font-size="10.00"> </text>
</g>
<!-- Node13&#45;&gt;Node12 -->
<g id="edge18" class="edge"><title>Node13&#45;&gt;Node12</title>
<path fill="none" stroke="#404040" d="M987.805,-425.633C969.299,-402.813 942.748,-370.075 922.289,-344.848"/>
<polygon fill="none" stroke="#404040" points="922.055,-344.56 915.169,-342.419 914.497,-335.239 921.383,-337.38 922.055,-344.56"/>
<text text-anchor="middle" x="1009.5" y="-388" font-family="Helvetica,sans-Serif" font-size="10.00"> +rawTextureData</text>
</g>
</g>
</svg>
