<?xml version="1.0" encoding="UTF-8" standalone="no"?>
<!DOCTYPE svg PUBLIC "-//W3C//DTD SVG 1.1//EN"
 "http://www.w3.org/Graphics/SVG/1.1/DTD/svg11.dtd">
<!-- Generated by graphviz version 2.38.0 (20140413.2041)
 -->
<!-- Title: DataManager Pages: 1 -->
<svg width="697pt" height="1451pt"
 viewBox="0.00 0.00 696.50 1451.00" xmlns="http://www.w3.org/2000/svg" xmlns:xlink="http://www.w3.org/1999/xlink">
<g id="graph0" class="graph" transform="scale(1 1) rotate(0) translate(4 1447)">
<title>DataManager</title>
<!-- Node1 -->
<g id="node1" class="node"><title>Node1</title>
<polygon fill="#bfbfbf" stroke="black" points="37.5,-685.5 37.5,-1028.5 189.5,-1028.5 189.5,-685.5 37.5,-685.5"/>
<text text-anchor="middle" x="113.5" y="-1016.5" font-family="Helvetica,sans-Serif" font-size="10.00">DataManager</text>
<polyline fill="none" stroke="black" points="37.5,-1009.5 189.5,-1009.5 "/>
<text text-anchor="start" x="45.5" y="-997.5" font-family="Helvetica,sans-Serif" font-size="10.00">+ Players</text>
<text text-anchor="start" x="45.5" y="-986.5" font-family="Helvetica,sans-Serif" font-size="10.00">+ Items</text>
<text text-anchor="start" x="45.5" y="-975.5" font-family="Helvetica,sans-Serif" font-size="10.00">+ Money</text>
<polyline fill="none" stroke="black" points="37.5,-968.5 189.5,-968.5 "/>
<text text-anchor="start" x="45.5" y="-956.5" font-family="Helvetica,sans-Serif" font-size="10.00">+ DataManager()</text>
<text text-anchor="start" x="45.5" y="-945.5" font-family="Helvetica,sans-Serif" font-size="10.00">+ DataManager()</text>
<text text-anchor="start" x="45.5" y="-934.5" font-family="Helvetica,sans-Serif" font-size="10.00">+ getFirstPlayer()</text>
<text text-anchor="start" x="45.5" y="-923.5" font-family="Helvetica,sans-Serif" font-size="10.00">+ getPlayerIndex()</text>
<text text-anchor="start" x="45.5" y="-912.5" font-family="Helvetica,sans-Serif" font-size="10.00">+ getAlivePlayer()</text>
<text text-anchor="start" x="45.5" y="-901.5" font-family="Helvetica,sans-Serif" font-size="10.00">+ playersAlive()</text>
<text text-anchor="start" x="45.5" y="-890.5" font-family="Helvetica,sans-Serif" font-size="10.00">+ addPlayer()</text>
<text text-anchor="start" x="45.5" y="-879.5" font-family="Helvetica,sans-Serif" font-size="10.00">+ swapPlayers()</text>
<text text-anchor="start" x="45.5" y="-868.5" font-family="Helvetica,sans-Serif" font-size="10.00">+ addItem()</text>
<text text-anchor="start" x="45.5" y="-857.5" font-family="Helvetica,sans-Serif" font-size="10.00">+ countItems()</text>
<text text-anchor="start" x="45.5" y="-846.5" font-family="Helvetica,sans-Serif" font-size="10.00">+ giveExpToAll()</text>
<text text-anchor="start" x="45.5" y="-835.5" font-family="Helvetica,sans-Serif" font-size="10.00">+ Save()</text>
<text text-anchor="start" x="45.5" y="-824.5" font-family="Helvetica,sans-Serif" font-size="10.00">+ Load()</text>
<text text-anchor="start" x="45.5" y="-813.5" font-family="Helvetica,sans-Serif" font-size="10.00">+ PlayerToSerializable()</text>
<text text-anchor="start" x="45.5" y="-802.5" font-family="Helvetica,sans-Serif" font-size="10.00">+ SerializableToPLayer()</text>
<text text-anchor="start" x="45.5" y="-791.5" font-family="Helvetica,sans-Serif" font-size="10.00">+ ItemToSerializable()</text>
<text text-anchor="start" x="45.5" y="-780.5" font-family="Helvetica,sans-Serif" font-size="10.00">+ SerializableToItem()</text>
<text text-anchor="start" x="45.5" y="-769.5" font-family="Helvetica,sans-Serif" font-size="10.00">+ SpecialMoveToSerializable()</text>
<text text-anchor="start" x="45.5" y="-758.5" font-family="Helvetica,sans-Serif" font-size="10.00">+ SerializableToSpecialMove()</text>
<text text-anchor="start" x="45.5" y="-747.5" font-family="Helvetica,sans-Serif" font-size="10.00">+ ObjectsActiveToSerializable()</text>
<text text-anchor="start" x="45.5" y="-736.5" font-family="Helvetica,sans-Serif" font-size="10.00">+ SerializableToObjectsActive()</text>
<text text-anchor="start" x="45.5" y="-725.5" font-family="Helvetica,sans-Serif" font-size="10.00">+ Texture2DToSerializable()</text>
<text text-anchor="start" x="45.5" y="-714.5" font-family="Helvetica,sans-Serif" font-size="10.00">+ SerializableToTexture2D()</text>
<text text-anchor="start" x="45.5" y="-703.5" font-family="Helvetica,sans-Serif" font-size="10.00">+ VectorToSerializable()</text>
<text text-anchor="start" x="45.5" y="-692.5" font-family="Helvetica,sans-Serif" font-size="10.00">+ SerializableToVector()</text>
</g>
<!-- Node2 -->
<g id="node2" class="node"><title>Node2</title>
<g id="a_node2"><a xlink:href="class_item.html" target="_top" xlink:title="Abstract class for items that can be equipped to a player, increasing some of their stats ...">
<polygon fill="none" stroke="black" points="0,-1247.5 0,-1326.5 77,-1326.5 77,-1247.5 0,-1247.5"/>
<text text-anchor="middle" x="38.5" y="-1314.5" font-family="Helvetica,sans-Serif" font-size="10.00">Item</text>
<polyline fill="none" stroke="black" points="0,-1307.5 77,-1307.5 "/>
<text text-anchor="start" x="8" y="-1295.5" font-family="Helvetica,sans-Serif" font-size="10.00">+ Name</text>
<text text-anchor="start" x="8" y="-1284.5" font-family="Helvetica,sans-Serif" font-size="10.00">+ Desc</text>
<polyline fill="none" stroke="black" points="0,-1277.5 77,-1277.5 "/>
<text text-anchor="start" x="8" y="-1265.5" font-family="Helvetica,sans-Serif" font-size="10.00">+ applyBuffs()</text>
<text text-anchor="start" x="8" y="-1254.5" font-family="Helvetica,sans-Serif" font-size="10.00">+ revertBuffs()</text>
</a>
</g>
</g>
<!-- Node2&#45;&gt;Node1 -->
<g id="edge1" class="edge"><title>Node2&#45;&gt;Node1</title>
<path fill="none" stroke="#404040" d="M40.1231,-1247.44C42.3364,-1205.13 47.2623,-1135.34 57.5,-1076 59.5054,-1064.38 61.8166,-1052.46 64.3335,-1040.49"/>
<polygon fill="none" stroke="#404040" points="64.3882,-1040.23 61.7414,-1033.53 66.9152,-1028.5 69.562,-1035.21 64.3882,-1040.23"/>
<text text-anchor="middle" x="73" y="-1130" font-family="Helvetica,sans-Serif" font-size="10.00"> &#45;items</text>
</g>
<!-- Node5 -->
<g id="node5" class="node"><title>Node5</title>
<g id="a_node5"><a xlink:href="class_player.html" target="_top" xlink:title="Defines a playable character for use in battle scenes">
<polygon fill="none" stroke="black" points="164.5,-1076.5 164.5,-1188.5 276.5,-1188.5 276.5,-1076.5 164.5,-1076.5"/>
<text text-anchor="middle" x="220.5" y="-1176.5" font-family="Helvetica,sans-Serif" font-size="10.00">Player</text>
<polyline fill="none" stroke="black" points="164.5,-1169.5 276.5,-1169.5 "/>
<text text-anchor="start" x="172.5" y="-1157.5" font-family="Helvetica,sans-Serif" font-size="10.00">+ Exp</text>
<text text-anchor="start" x="172.5" y="-1146.5" font-family="Helvetica,sans-Serif" font-size="10.00">+ Item</text>
<text text-anchor="start" x="172.5" y="-1135.5" font-family="Helvetica,sans-Serif" font-size="10.00">+ ExpToNextLevel</text>
<polyline fill="none" stroke="black" points="164.5,-1128.5 276.5,-1128.5 "/>
<text text-anchor="start" x="172.5" y="-1116.5" font-family="Helvetica,sans-Serif" font-size="10.00">+ Player()</text>
<text text-anchor="start" x="172.5" y="-1105.5" font-family="Helvetica,sans-Serif" font-size="10.00">+ gainExp()</text>
<text text-anchor="start" x="172.5" y="-1094.5" font-family="Helvetica,sans-Serif" font-size="10.00">+ levelUp()</text>
<text text-anchor="start" x="172.5" y="-1083.5" font-family="Helvetica,sans-Serif" font-size="10.00">&#45; setExpToNextLevel()</text>
</a>
</g>
</g>
<!-- Node2&#45;&gt;Node5 -->
<g id="edge24" class="edge"><title>Node2&#45;&gt;Node5</title>
<path fill="none" stroke="#404040" d="M77.0975,-1253.66C99.68,-1234.74 128.794,-1210.34 154.882,-1188.48"/>
<polygon fill="none" stroke="#404040" points="155.141,-1188.26 157.171,-1181.35 164.339,-1180.56 162.309,-1187.48 155.141,-1188.26"/>
<text text-anchor="middle" x="142" y="-1215.5" font-family="Helvetica,sans-Serif" font-size="10.00"> &#45;item</text>
</g>
<!-- Node3 -->
<g id="node3" class="node"><title>Node3</title>
<polygon fill="none" stroke="#bfbfbf" points="544,-1385.5 544,-1442.5 585,-1442.5 585,-1385.5 544,-1385.5"/>
<text text-anchor="middle" x="564.5" y="-1430.5" font-family="Helvetica,sans-Serif" font-size="10.00">string</text>
<polyline fill="none" stroke="#bfbfbf" points="544,-1423.5 585,-1423.5 "/>
<text text-anchor="middle" x="564.5" y="-1411.5" font-family="Helvetica,sans-Serif" font-size="10.00"> </text>
<polyline fill="none" stroke="#bfbfbf" points="544,-1404.5 585,-1404.5 "/>
<text text-anchor="middle" x="564.5" y="-1392.5" font-family="Helvetica,sans-Serif" font-size="10.00"> </text>
</g>
<!-- Node3&#45;&gt;Node2 -->
<g id="edge2" class="edge"><title>Node3&#45;&gt;Node2</title>
<path fill="none" stroke="#404040" d="M543.88,-1408.1C467.811,-1390.02 201.534,-1326.74 89.1523,-1300.04"/>
<polygon fill="none" stroke="#404040" points="88.8554,-1299.97 82.0931,-1302.47 77.1805,-1297.19 83.9428,-1294.69 88.8554,-1299.97"/>
<text text-anchor="middle" x="379.5" y="-1359" font-family="Helvetica,sans-Serif" font-size="10.00"> #desc</text>
<text text-anchor="middle" x="379.5" y="-1348" font-family="Helvetica,sans-Serif" font-size="10.00">#name</text>
</g>
<!-- Node6 -->
<g id="node6" class="node"><title>Node6</title>
<g id="a_node6"><a xlink:href="class_character.html" target="_top" xlink:title="Base abstract class for Enemy and Player to inherit from. Defines all shared variables, their constructor and their setters and getters ">
<polygon fill="none" stroke="black" points="371,-95.5 371,-273.5 466,-273.5 466,-95.5 371,-95.5"/>
<text text-anchor="middle" x="418.5" y="-261.5" font-family="Helvetica,sans-Serif" font-size="10.00">Character</text>
<polyline fill="none" stroke="black" points="371,-254.5 466,-254.5 "/>
<text text-anchor="start" x="379" y="-242.5" font-family="Helvetica,sans-Serif" font-size="10.00">+ Name</text>
<text text-anchor="start" x="379" y="-231.5" font-family="Helvetica,sans-Serif" font-size="10.00">+ Level</text>
<text text-anchor="start" x="379" y="-220.5" font-family="Helvetica,sans-Serif" font-size="10.00">+ Health</text>
<text text-anchor="start" x="379" y="-209.5" font-family="Helvetica,sans-Serif" font-size="10.00">+ Attack</text>
<text text-anchor="start" x="379" y="-198.5" font-family="Helvetica,sans-Serif" font-size="10.00">+ Defence</text>
<text text-anchor="start" x="379" y="-187.5" font-family="Helvetica,sans-Serif" font-size="10.00">+ MaximumMagic</text>
<text text-anchor="start" x="379" y="-176.5" font-family="Helvetica,sans-Serif" font-size="10.00">+ Magic</text>
<text text-anchor="start" x="379" y="-165.5" font-family="Helvetica,sans-Serif" font-size="10.00">+ Luck</text>
<text text-anchor="start" x="379" y="-154.5" font-family="Helvetica,sans-Serif" font-size="10.00">+ Speed</text>
<text text-anchor="start" x="379" y="-143.5" font-family="Helvetica,sans-Serif" font-size="10.00">+ Special1</text>
<text text-anchor="start" x="379" y="-132.5" font-family="Helvetica,sans-Serif" font-size="10.00">+ Special2</text>
<text text-anchor="start" x="379" y="-121.5" font-family="Helvetica,sans-Serif" font-size="10.00">+ Image</text>
<polyline fill="none" stroke="black" points="371,-114.5 466,-114.5 "/>
<text text-anchor="start" x="379" y="-102.5" font-family="Helvetica,sans-Serif" font-size="10.00"># Character()</text>
</a>
</g>
</g>
<!-- Node3&#45;&gt;Node6 -->
<g id="edge6" class="edge"><title>Node3&#45;&gt;Node6</title>
<path fill="none" stroke="#404040" d="M585.149,-1398.21C611.998,-1377.08 655.5,-1335.51 655.5,-1288 655.5,-1288 655.5,-1288 655.5,-382 655.5,-289.726 547.718,-232.542 477.524,-205.085"/>
<polygon fill="none" stroke="#404040" points="477.394,-205.036 470.364,-206.645 466.175,-200.775 473.205,-199.166 477.394,-205.036"/>
<text text-anchor="middle" x="672" y="-854.5" font-family="Helvetica,sans-Serif" font-size="10.00"> #name</text>
</g>
<!-- Node7 -->
<g id="node7" class="node"><title>Node7</title>
<g id="a_node7"><a xlink:href="class_special_move.html" target="_top" xlink:title="Special move abstract base class that expands upon CharacterMove, adding magic properties ...">
<polygon fill="none" stroke="black" points="467.5,-332.5 467.5,-433.5 565.5,-433.5 565.5,-332.5 467.5,-332.5"/>
<text text-anchor="middle" x="516.5" y="-421.5" font-family="Helvetica,sans-Serif" font-size="10.00">SpecialMove</text>
<polyline fill="none" stroke="black" points="467.5,-414.5 565.5,-414.5 "/>
<text text-anchor="start" x="475.5" y="-402.5" font-family="Helvetica,sans-Serif" font-size="10.00">+ Magic</text>
<text text-anchor="start" x="475.5" y="-391.5" font-family="Helvetica,sans-Serif" font-size="10.00">+ Desc</text>
<text text-anchor="start" x="475.5" y="-380.5" font-family="Helvetica,sans-Serif" font-size="10.00">+ Special</text>
<polyline fill="none" stroke="black" points="467.5,-373.5 565.5,-373.5 "/>
<text text-anchor="start" x="475.5" y="-361.5" font-family="Helvetica,sans-Serif" font-size="10.00">+ setUp()</text>
<text text-anchor="start" x="475.5" y="-350.5" font-family="Helvetica,sans-Serif" font-size="10.00">+ decreaseMagic()</text>
<text text-anchor="start" x="475.5" y="-339.5" font-family="Helvetica,sans-Serif" font-size="10.00"># SpecialMove()</text>
</a>
</g>
</g>
<!-- Node3&#45;&gt;Node7 -->
<g id="edge20" class="edge"><title>Node3&#45;&gt;Node7</title>
<path fill="none" stroke="#404040" d="M576.758,-1385.17C578.969,-1379.26 581.034,-1373 582.5,-1367 601.386,-1289.71 597.272,-1268.45 601.5,-1189 610.393,-1021.9 626.011,-765.485 595.5,-579 585.923,-520.465 578.193,-506.375 554.5,-452 553.425,-449.532 552.287,-447.037 551.102,-444.533"/>
<polygon fill="none" stroke="#404040" points="550.994,-444.315 544.746,-440.716 545.664,-433.564 551.913,-437.163 550.994,-444.315"/>
<text text-anchor="middle" x="623.5" y="-1050" font-family="Helvetica,sans-Serif" font-size="10.00"> #desc</text>
</g>
<!-- Node8 -->
<g id="node8" class="node"><title>Node8</title>
<g id="a_node8"><a xlink:href="class_character_move.html" target="_top" xlink:title="Astract base class for character moves ">
<polygon fill="none" stroke="black" points="326.5,-481.5 326.5,-560.5 412.5,-560.5 412.5,-481.5 326.5,-481.5"/>
<text text-anchor="middle" x="369.5" y="-548.5" font-family="Helvetica,sans-Serif" font-size="10.00">CharacterMove</text>
<polyline fill="none" stroke="black" points="326.5,-541.5 412.5,-541.5 "/>
<text text-anchor="start" x="334.5" y="-529.5" font-family="Helvetica,sans-Serif" font-size="10.00">+ User</text>
<text text-anchor="start" x="334.5" y="-518.5" font-family="Helvetica,sans-Serif" font-size="10.00">+ Target</text>
<text text-anchor="start" x="334.5" y="-507.5" font-family="Helvetica,sans-Serif" font-size="10.00">+ Text</text>
<polyline fill="none" stroke="black" points="326.5,-500.5 412.5,-500.5 "/>
<text text-anchor="start" x="334.5" y="-488.5" font-family="Helvetica,sans-Serif" font-size="10.00">+ performMove()</text>
</a>
</g>
</g>
<!-- Node3&#45;&gt;Node8 -->
<g id="edge10" class="edge"><title>Node3&#45;&gt;Node8</title>
<path fill="none" stroke="#404040" d="M566.935,-1385.33C574.593,-1286.28 592.066,-941.639 491.5,-685 474.612,-641.902 443.078,-600.245 416.301,-569.831"/>
<polygon fill="none" stroke="#404040" points="416.18,-569.696 409.195,-567.901 408.165,-560.764 415.149,-562.559 416.18,-569.696"/>
<text text-anchor="middle" x="585" y="-1130" font-family="Helvetica,sans-Serif" font-size="10.00"> #text</text>
</g>
<!-- Node9 -->
<g id="node9" class="node"><title>Node9</title>
<g id="a_node9"><a xlink:href="class_battle_manager.html" target="_top" xlink:title="Holds current Player and Enemy objects in battle and provides functions for MainBattle and other obje...">
<polygon fill="none" stroke="black" points="278.5,-762.5 278.5,-951.5 394.5,-951.5 394.5,-762.5 278.5,-762.5"/>
<text text-anchor="middle" x="336.5" y="-939.5" font-family="Helvetica,sans-Serif" font-size="10.00">BattleManager</text>
<polyline fill="none" stroke="black" points="278.5,-932.5 394.5,-932.5 "/>
<text text-anchor="start" x="286.5" y="-920.5" font-family="Helvetica,sans-Serif" font-size="10.00">+ Player</text>
<text text-anchor="start" x="286.5" y="-909.5" font-family="Helvetica,sans-Serif" font-size="10.00">+ Enemy</text>
<text text-anchor="start" x="286.5" y="-898.5" font-family="Helvetica,sans-Serif" font-size="10.00">+ WasCriticalHit</text>
<polyline fill="none" stroke="black" points="278.5,-891.5 394.5,-891.5 "/>
<text text-anchor="start" x="286.5" y="-879.5" font-family="Helvetica,sans-Serif" font-size="10.00">+ BattleManager()</text>
<text text-anchor="start" x="286.5" y="-868.5" font-family="Helvetica,sans-Serif" font-size="10.00">+ playerFirst()</text>
<text text-anchor="start" x="286.5" y="-857.5" font-family="Helvetica,sans-Serif" font-size="10.00">+ switchPlayers()</text>
<text text-anchor="start" x="286.5" y="-846.5" font-family="Helvetica,sans-Serif" font-size="10.00">+ isCriticalHit()</text>
<text text-anchor="start" x="286.5" y="-835.5" font-family="Helvetica,sans-Serif" font-size="10.00">+ ranAway()</text>
<text text-anchor="start" x="286.5" y="-824.5" font-family="Helvetica,sans-Serif" font-size="10.00">+ damageCalculation()</text>
<text text-anchor="start" x="286.5" y="-813.5" font-family="Helvetica,sans-Serif" font-size="10.00">+ enemyMove()</text>
<text text-anchor="start" x="286.5" y="-802.5" font-family="Helvetica,sans-Serif" font-size="10.00">+ enemySpecialMove()</text>
<text text-anchor="start" x="286.5" y="-791.5" font-family="Helvetica,sans-Serif" font-size="10.00">+ battleWon()</text>
<text text-anchor="start" x="286.5" y="-780.5" font-family="Helvetica,sans-Serif" font-size="10.00">+ playerFainted()</text>
<text text-anchor="start" x="286.5" y="-769.5" font-family="Helvetica,sans-Serif" font-size="10.00">&#45; characterFainted()</text>
</a>
</g>
</g>
<!-- Node3&#45;&gt;Node9 -->
<g id="edge13" class="edge"><title>Node3&#45;&gt;Node9</title>
<path fill="none" stroke="#404040" d="M547.316,-1385.21C526.07,-1349.93 489.862,-1286.7 466.5,-1229 439.946,-1163.42 445.287,-1142.99 422.5,-1076 409.849,-1038.81 394.508,-998.664 380.305,-963.081"/>
<polygon fill="none" stroke="#404040" points="380.207,-962.835 374.261,-958.756 375.739,-951.698 381.685,-955.777 380.207,-962.835"/>
<text text-anchor="middle" x="508.5" y="-1221" font-family="Helvetica,sans-Serif" font-size="10.00"> +forceEnemyMove</text>
<text text-anchor="middle" x="508.5" y="-1210" font-family="Helvetica,sans-Serif" font-size="10.00">+forceCriticalHits</text>
</g>
<!-- Node4 -->
<g id="node4" class="node"><title>Node4</title>
<polygon fill="none" stroke="#bfbfbf" points="293,-1258.5 293,-1315.5 322,-1315.5 322,-1258.5 293,-1258.5"/>
<text text-anchor="middle" x="307.5" y="-1303.5" font-family="Helvetica,sans-Serif" font-size="10.00">int</text>
<polyline fill="none" stroke="#bfbfbf" points="293,-1296.5 322,-1296.5 "/>
<text text-anchor="middle" x="307.5" y="-1284.5" font-family="Helvetica,sans-Serif" font-size="10.00"> </text>
<polyline fill="none" stroke="#bfbfbf" points="293,-1277.5 322,-1277.5 "/>
<text text-anchor="middle" x="307.5" y="-1265.5" font-family="Helvetica,sans-Serif" font-size="10.00"> </text>
</g>
<!-- Node4&#45;&gt;Node1 -->
<g id="edge3" class="edge"><title>Node4&#45;&gt;Node1</title>
<path fill="none" stroke="#404040" d="M292.822,-1283.6C255.896,-1276.68 159.257,-1252.94 119.5,-1189 92.3867,-1145.4 83.4665,-1091.91 83.3435,-1040.76"/>
<polygon fill="none" stroke="#404040" points="83.3461,-1040.51 79.4126,-1034.46 83.4786,-1028.51 87.4121,-1034.55 83.3461,-1040.51"/>
<text text-anchor="middle" x="137.5" y="-1130" font-family="Helvetica,sans-Serif" font-size="10.00"> &#45;money</text>
</g>
<!-- Node4&#45;&gt;Node5 -->
<g id="edge25" class="edge"><title>Node4&#45;&gt;Node5</title>
<path fill="none" stroke="#404040" d="M292.938,-1260.47C283.335,-1243.64 270.289,-1220.77 257.914,-1199.08"/>
<polygon fill="none" stroke="#404040" points="257.857,-1198.98 251.409,-1195.75 251.91,-1188.56 258.358,-1191.79 257.857,-1198.98"/>
<text text-anchor="middle" x="312" y="-1221" font-family="Helvetica,sans-Serif" font-size="10.00"> &#45;expToNextLevel</text>
<text text-anchor="middle" x="312" y="-1210" font-family="Helvetica,sans-Serif" font-size="10.00">&#45;exp</text>
</g>
<!-- Node4&#45;&gt;Node6 -->
<g id="edge7" class="edge"><title>Node4&#45;&gt;Node6</title>
<path fill="none" stroke="#404040" d="M322.272,-1284.37C366.943,-1279.1 499.159,-1261.03 525.5,-1229 529.014,-1224.73 574.33,-439.529 574.5,-434 575.895,-388.688 592.504,-373.605 574.5,-332 554.472,-285.716 511.824,-247.327 476.175,-221.473"/>
<polygon fill="none" stroke="#404040" points="476.131,-221.442 468.923,-221.246 466.331,-214.517 473.539,-214.712 476.131,-221.442"/>
<text text-anchor="middle" x="603" y="-659" font-family="Helvetica,sans-Serif" font-size="10.00"> #speed</text>
<text text-anchor="middle" x="603" y="-648" font-family="Helvetica,sans-Serif" font-size="10.00">#luck</text>
<text text-anchor="middle" x="603" y="-637" font-family="Helvetica,sans-Serif" font-size="10.00">#health</text>
<text text-anchor="middle" x="603" y="-626" font-family="Helvetica,sans-Serif" font-size="10.00">#magic</text>
<text text-anchor="middle" x="603" y="-615" font-family="Helvetica,sans-Serif" font-size="10.00">#maximumMagic</text>
<text text-anchor="middle" x="603" y="-604" font-family="Helvetica,sans-Serif" font-size="10.00">#attack</text>
<text text-anchor="middle" x="603" y="-593" font-family="Helvetica,sans-Serif" font-size="10.00">#defence</text>
<text text-anchor="middle" x="603" y="-582" font-family="Helvetica,sans-Serif" font-size="10.00">#level</text>
</g>
<!-- Node4&#45;&gt;Node7 -->
<g id="edge22" class="edge"><title>Node4&#45;&gt;Node7</title>
<path fill="none" stroke="#404040" d="M322.321,-1278.2C347.332,-1264.15 397.353,-1231.99 419.5,-1189 455.687,-1118.76 471.022,-558.487 486.5,-481 488.831,-469.332 492.018,-457.073 495.448,-445.347"/>
<polygon fill="none" stroke="#404040" points="495.455,-445.323 493.368,-438.421 498.936,-433.839 501.024,-440.741 495.455,-445.323"/>
<text text-anchor="middle" x="488" y="-854.5" font-family="Helvetica,sans-Serif" font-size="10.00"> #magic</text>
</g>
<!-- Node4&#45;&gt;Node9 -->
<g id="edge17" class="edge"><title>Node4&#45;&gt;Node9</title>
<path fill="none" stroke="#404040" d="M322.222,-1271.99C332.515,-1261.25 345.607,-1245.52 352.5,-1229 383.851,-1153.85 381.358,-1128.05 373.5,-1047 370.858,-1019.75 366.12,-990.596 360.899,-963.544"/>
<polygon fill="none" stroke="#404040" points="360.882,-963.457 355.794,-958.347 358.554,-951.685 363.642,-956.795 360.882,-963.457"/>
<text text-anchor="middle" x="399" y="-1130" font-family="Helvetica,sans-Serif" font-size="10.00"> +money</text>
</g>
<!-- Node10 -->
<g id="node10" class="node"><title>Node10</title>
<g id="a_node10"><a xlink:href="class_enemy.html" target="_top" xlink:title="Defines an AI controller enemy to fight in battle scenes">
<polygon fill="none" stroke="black" points="230,-0.5 230,-57.5 297,-57.5 297,-0.5 230,-0.5"/>
<text text-anchor="middle" x="263.5" y="-45.5" font-family="Helvetica,sans-Serif" font-size="10.00">Enemy</text>
<polyline fill="none" stroke="black" points="230,-38.5 297,-38.5 "/>
<text text-anchor="start" x="238" y="-26.5" font-family="Helvetica,sans-Serif" font-size="10.00">+ ExpGiven</text>
<polyline fill="none" stroke="black" points="230,-19.5 297,-19.5 "/>
<text text-anchor="start" x="238" y="-7.5" font-family="Helvetica,sans-Serif" font-size="10.00">+ Enemy()</text>
</a>
</g>
</g>
<!-- Node4&#45;&gt;Node10 -->
<g id="edge16" class="edge"><title>Node4&#45;&gt;Node10</title>
<path fill="none" stroke="#404040" d="M292.706,-1284.96C250.715,-1281.11 130.664,-1263.73 81.5,-1189 52.8773,-1145.49 68.4928,-1124.87 50.5,-1076 42.5314,-1054.36 34.7458,-1051.2 28.5,-1029 7.79253,-955.389 9.5,-934.468 9.5,-858 9.5,-858 9.5,-858 9.5,-183.5 9.5,-87.3046 144.595,-49.7767 217.737,-36.5079"/>
<polygon fill="none" stroke="#404040" points="217.944,-36.4725 223.18,-31.5149 229.771,-34.442 224.534,-39.3996 217.944,-36.4725"/>
<text text-anchor="middle" x="32.5" y="-518.5" font-family="Helvetica,sans-Serif" font-size="10.00"> &#45;expGiven</text>
</g>
<!-- Node5&#45;&gt;Node1 -->
<g id="edge4" class="edge"><title>Node5&#45;&gt;Node1</title>
<path fill="none" stroke="#404040" d="M175.804,-1076.35C171.996,-1070.35 168.471,-1064.18 165.5,-1058 162.657,-1052.09 159.954,-1046 157.387,-1039.8"/>
<polygon fill="none" stroke="#404040" points="157.334,-1039.66 151.404,-1035.56 152.911,-1028.51 158.841,-1032.61 157.334,-1039.66"/>
<text text-anchor="middle" x="184.5" y="-1050" font-family="Helvetica,sans-Serif" font-size="10.00"> &#45;players</text>
</g>
<!-- Node5&#45;&gt;Node9 -->
<g id="edge19" class="edge"><title>Node5&#45;&gt;Node9</title>
<path fill="none" stroke="#404040" d="M243.835,-1076.48C257.624,-1043.97 275.543,-1001.72 291.944,-963.053"/>
<polygon fill="none" stroke="#404040" points="292.065,-962.766 290.726,-955.681 296.751,-951.719 298.091,-958.804 292.065,-962.766"/>
<text text-anchor="middle" x="272" y="-1050" font-family="Helvetica,sans-Serif" font-size="10.00"> &#45;player</text>
</g>
<!-- Node6&#45;&gt;Node5 -->
<g id="edge5" class="edge"><title>Node6&#45;&gt;Node5</title>
<path fill="none" stroke="midnightblue" d="M362.096,-217.496C322.067,-243.222 270.485,-283.084 241.5,-332 212.773,-380.48 217.5,-400.148 217.5,-456.5 217.5,-858 217.5,-858 217.5,-858 217.5,-933.739 218.665,-1021.27 219.543,-1076.5"/>
<polygon fill="none" stroke="midnightblue" points="364.117,-220.36 370.707,-212.064 360.382,-214.439 364.117,-220.36"/>
</g>
<!-- Node6&#45;&gt;Node8 -->
<g id="edge11" class="edge"><title>Node6&#45;&gt;Node8</title>
<path fill="none" stroke="#404040" d="M370.877,-263.117C360.039,-284.656 350.08,-308.578 344.5,-332 333.994,-376.099 338.109,-389.119 344.5,-434 346.159,-445.653 349.024,-457.935 352.235,-469.454"/>
<polygon fill="none" stroke="#404040" points="352.282,-469.613 357.813,-474.239 355.671,-481.124 350.139,-476.499 352.282,-469.613"/>
<text text-anchor="middle" x="361.5" y="-386" font-family="Helvetica,sans-Serif" font-size="10.00"> #target</text>
<text text-anchor="middle" x="361.5" y="-375" font-family="Helvetica,sans-Serif" font-size="10.00">#user</text>
</g>
<!-- Node6&#45;&gt;Node10 -->
<g id="edge15" class="edge"><title>Node6&#45;&gt;Node10</title>
<path fill="none" stroke="midnightblue" d="M363.613,-129.144C339.22,-104.987 311.552,-77.5868 291.494,-57.7227"/>
<polygon fill="none" stroke="midnightblue" points="361.162,-131.643 370.73,-136.192 366.088,-126.669 361.162,-131.643"/>
</g>
<!-- Node7&#45;&gt;Node6 -->
<g id="edge8" class="edge"><title>Node7&#45;&gt;Node6</title>
<path fill="none" stroke="#404040" d="M491.77,-332.415C484.468,-317.772 476.203,-301.2 467.922,-284.596"/>
<polygon fill="none" stroke="#404040" points="467.844,-284.439 461.586,-280.855 462.488,-273.7 468.745,-277.284 467.844,-284.439"/>
<text text-anchor="middle" x="505" y="-306" font-family="Helvetica,sans-Serif" font-size="10.00"> #special1</text>
<text text-anchor="middle" x="505" y="-295" font-family="Helvetica,sans-Serif" font-size="10.00">#special2</text>
</g>
<!-- Node8&#45;&gt;Node7 -->
<g id="edge9" class="edge"><title>Node8&#45;&gt;Node7</title>
<path fill="none" stroke="midnightblue" d="M418.77,-474.417C434.426,-459.933 451.733,-443.92 467.379,-429.446"/>
<polygon fill="none" stroke="midnightblue" points="416.195,-472.031 411.231,-481.392 420.948,-477.17 416.195,-472.031"/>
</g>
<!-- Node9&#45;&gt;Node8 -->
<g id="edge12" class="edge"><title>Node9&#45;&gt;Node8</title>
<path fill="none" stroke="#404040" d="M345.78,-762.074C351.843,-700.707 359.527,-622.943 364.478,-572.833"/>
<polygon fill="none" stroke="#404040" points="364.495,-572.658 361.104,-566.293 365.675,-560.716 369.065,-567.08 364.495,-572.658"/>
<text text-anchor="middle" x="386.5" y="-620.5" font-family="Helvetica,sans-Serif" font-size="10.00"> #manager</text>
</g>
<!-- Node10&#45;&gt;Node9 -->
<g id="edge14" class="edge"><title>Node10&#45;&gt;Node9</title>
<path fill="none" stroke="#404040" d="M263.5,-57.7302C263.5,-88.4721 263.5,-139.529 263.5,-183.5 263.5,-522 263.5,-522 263.5,-522 263.5,-599.669 282.573,-685.204 301.221,-750.269"/>
<polygon fill="none" stroke="#404040" points="301.333,-750.654 306.853,-755.294 304.693,-762.174 299.173,-757.534 301.333,-750.654"/>
<text text-anchor="middle" x="281.5" y="-380.5" font-family="Helvetica,sans-Serif" font-size="10.00"> &#45;enemy</text>
</g>
<!-- Node11 -->
<g id="node11" class="node"><title>Node11</title>
<polygon fill="none" stroke="#bfbfbf" points="295,-1104 295,-1161 330,-1161 330,-1104 295,-1104"/>
<text text-anchor="middle" x="312.5" y="-1149" font-family="Helvetica,sans-Serif" font-size="10.00">bool</text>
<polyline fill="none" stroke="#bfbfbf" points="295,-1142 330,-1142 "/>
<text text-anchor="middle" x="312.5" y="-1130" font-family="Helvetica,sans-Serif" font-size="10.00"> </text>
<polyline fill="none" stroke="#bfbfbf" points="295,-1123 330,-1123 "/>
<text text-anchor="middle" x="312.5" y="-1111" font-family="Helvetica,sans-Serif" font-size="10.00"> </text>
</g>
<!-- Node11&#45;&gt;Node9 -->
<g id="edge18" class="edge"><title>Node11&#45;&gt;Node9</title>
<path fill="none" stroke="#404040" d="M310.181,-1103.95C309.134,-1090.16 308.017,-1073.21 307.5,-1058 306.454,-1027.2 309.54,-993.988 314.045,-963.648"/>
<polygon fill="none" stroke="#404040" points="314.055,-963.585 311.03,-957.039 315.908,-951.729 318.934,-958.275 314.055,-963.585"/>
<text text-anchor="middle" x="340.5" y="-1050" font-family="Helvetica,sans-Serif" font-size="10.00"> &#45;wasCriticalHit</text>
</g>
<!-- Node12 -->
<g id="node12" class="node"><title>Node12</title>
<polygon fill="none" stroke="#bfbfbf" points="496,-492.5 496,-549.5 531,-549.5 531,-492.5 496,-492.5"/>
<text text-anchor="middle" x="513.5" y="-537.5" font-family="Helvetica,sans-Serif" font-size="10.00">float</text>
<polyline fill="none" stroke="#bfbfbf" points="496,-530.5 531,-530.5 "/>
<text text-anchor="middle" x="513.5" y="-518.5" font-family="Helvetica,sans-Serif" font-size="10.00"> </text>
<polyline fill="none" stroke="#bfbfbf" points="496,-511.5 531,-511.5 "/>
<text text-anchor="middle" x="513.5" y="-499.5" font-family="Helvetica,sans-Serif" font-size="10.00"> </text>
</g>
<!-- Node12&#45;&gt;Node7 -->
<g id="edge21" class="edge"><title>Node12&#45;&gt;Node7</title>
<path fill="none" stroke="#404040" d="M513.816,-492.207C513.981,-479.889 514.208,-465.22 514.5,-452 514.545,-449.971 514.593,-447.907 514.643,-445.823"/>
<polygon fill="none" stroke="#404040" points="514.644,-445.759 510.799,-439.658 514.952,-433.763 518.797,-439.863 514.644,-445.759"/>
<text text-anchor="middle" x="534.5" y="-455" font-family="Helvetica,sans-Serif" font-size="10.00"> #special</text>
</g>
<!-- Node13 -->
<g id="node13" class="node"><title>Node13</title>
<polygon fill="none" stroke="#bfbfbf" points="388,-354.5 388,-411.5 449,-411.5 449,-354.5 388,-354.5"/>
<text text-anchor="middle" x="418.5" y="-399.5" font-family="Helvetica,sans-Serif" font-size="10.00">Texture2D</text>
<polyline fill="none" stroke="#bfbfbf" points="388,-392.5 449,-392.5 "/>
<text text-anchor="middle" x="418.5" y="-380.5" font-family="Helvetica,sans-Serif" font-size="10.00"> </text>
<polyline fill="none" stroke="#bfbfbf" points="388,-373.5 449,-373.5 "/>
<text text-anchor="middle" x="418.5" y="-361.5" font-family="Helvetica,sans-Serif" font-size="10.00"> </text>
</g>
<!-- Node13&#45;&gt;Node6 -->
<g id="edge23" class="edge"><title>Node13&#45;&gt;Node6</title>
<path fill="none" stroke="#404040" d="M418.5,-354.263C418.5,-335.998 418.5,-310.86 418.5,-285.562"/>
<polygon fill="none" stroke="#404040" points="418.5,-285.557 414.5,-279.557 418.5,-273.557 422.5,-279.557 418.5,-285.557"/>
<text text-anchor="middle" x="436" y="-300.5" font-family="Helvetica,sans-Serif" font-size="10.00"> #image</text>
</g>
</g>
</svg>
