<?xml version="1.0" encoding="UTF-8" standalone="no"?>
<!DOCTYPE svg PUBLIC "-//W3C//DTD SVG 1.1//EN"
 "http://www.w3.org/Graphics/SVG/1.1/DTD/svg11.dtd">
<!-- Generated by graphviz version 2.38.0 (20140413.2041)
 -->
<!-- Title: CharacterMove Pages: 1 -->
<!--zoomable 1057 -->
<svg id="main" version="1.1" xmlns="http://www.w3.org/2000/svg" xmlns:xlink="http://www.w3.org/1999/xlink" xml:space="preserve" onload="init(evt)">
<style type="text/css"><![CDATA[
.edge:hover path { stroke: red; }
.edge:hover polygon { stroke: red; fill: red; }
]]></style>
<script type="text/javascript"><![CDATA[
var edges = document.getElementsByTagName('g');
if (edges && edges.length) {
  for (var i=0;i<edges.length;i++) {
    if (edges[i].id.substr(0,4)=='edge') {
      edges[i].setAttribute('class','edge');
    }
  }
}
]]></script>
        <defs>
                <circle id="rim" cx="0" cy="0" r="7"/>
                <circle id="rim2" cx="0" cy="0" r="3.5"/>
                <g id="zoomPlus">
                        <use xlink:href="#rim" fill="#404040">
                                <set attributeName="fill" to="#808080" begin="zoomplus.mouseover" end="zoomplus.mouseout"/>
                        </use>
                        <path d="M-4,0h8M0,-4v8" fill="none" stroke="white" stroke-width="1.5" pointer-events="none"/>
                </g>
                <g id="zoomMin">
                        <use xlink:href="#rim" fill="#404040">
                                <set attributeName="fill" to="#808080" begin="zoomminus.mouseover" end="zoomminus.mouseout"/>
                        </use>
                        <path d="M-4,0h8" fill="none" stroke="white" stroke-width="1.5" pointer-events="none"/>
                </g>
                <g id="dirArrow">
                        <path fill="none" stroke="white" stroke-width="1.5" d="M0,-3.0v7 M-2.5,-0.5L0,-3.0L2.5,-0.5"/>
                </g>
               <g id="resetDef">
                       <use xlink:href="#rim2" fill="#404040">
                               <set attributeName="fill" to="#808080" begin="reset.mouseover" end="reset.mouseout"/>
                       </use>
               </g>
        </defs>

<script type="text/javascript">
var viewWidth = 810;
var viewHeight = 1057;
var sectionId = 'dynsection-1';
</script>
<script xlink:href="svgpan.js"/>
<svg id="graph" class="graph">
<g id="viewport">
<title>CharacterMove</title>
<!-- Node11 -->
<g id="node1" class="node"><title>Node11</title>
<polygon fill="#bfbfbf" stroke="black" points="133,-853.5 133,-932.5 219,-932.5 219,-853.5 133,-853.5"/>
<text text-anchor="middle" x="176" y="-920.5" font-family="Helvetica,sans-Serif" font-size="10.00">CharacterMove</text>
<polyline fill="none" stroke="black" points="133,-913.5 219,-913.5 "/>
<text text-anchor="start" x="141" y="-901.5" font-family="Helvetica,sans-Serif" font-size="10.00">+ User</text>
<text text-anchor="start" x="141" y="-890.5" font-family="Helvetica,sans-Serif" font-size="10.00">+ Target</text>
<text text-anchor="start" x="141" y="-879.5" font-family="Helvetica,sans-Serif" font-size="10.00">+ Text</text>
<polyline fill="none" stroke="black" points="133,-872.5 219,-872.5 "/>
<text text-anchor="start" x="141" y="-860.5" font-family="Helvetica,sans-Serif" font-size="10.00">+ performMove()</text>
</g>
<!-- Node15 -->
<g id="node5" class="node"><title>Node15</title>
<g id="a_node5"><a xlink:href="class_special_move.html" target="_top" xlink:title="Special move abstract base class that expands upon CharacterMove, adding magic properties ...">
<polygon fill="none" stroke="black" points="235,-635.5 235,-736.5 333,-736.5 333,-635.5 235,-635.5"/>
<text text-anchor="middle" x="284" y="-724.5" font-family="Helvetica,sans-Serif" font-size="10.00">SpecialMove</text>
<polyline fill="none" stroke="black" points="235,-717.5 333,-717.5 "/>
<text text-anchor="start" x="243" y="-705.5" font-family="Helvetica,sans-Serif" font-size="10.00">+ Magic</text>
<text text-anchor="start" x="243" y="-694.5" font-family="Helvetica,sans-Serif" font-size="10.00">+ Desc</text>
<text text-anchor="start" x="243" y="-683.5" font-family="Helvetica,sans-Serif" font-size="10.00">+ Special</text>
<polyline fill="none" stroke="black" points="235,-676.5 333,-676.5 "/>
<text text-anchor="start" x="243" y="-664.5" font-family="Helvetica,sans-Serif" font-size="10.00">+ setUp()</text>
<text text-anchor="start" x="243" y="-653.5" font-family="Helvetica,sans-Serif" font-size="10.00">+ decreaseMagic()</text>
<text text-anchor="start" x="243" y="-642.5" font-family="Helvetica,sans-Serif" font-size="10.00"># SpecialMove()</text>
</a>
</g>
</g>
<!-- Node11&#45;&gt;Node15 -->
<g id="edge6" class="edge"><title>Node11&#45;&gt;Node15</title>
<path fill="none" stroke="midnightblue" d="M200.478,-844.19C214.056,-817.817 231.32,-784.524 247,-755 250.152,-749.065 253.484,-742.855 256.806,-736.702"/>
<polygon fill="none" stroke="midnightblue" points="197.299,-842.718 195.838,-853.212 203.524,-845.92 197.299,-842.718"/>
</g>
<!-- Node12 -->
<g id="node2" class="node"><title>Node12</title>
<polygon fill="none" stroke="#bfbfbf" points="155.5,-991.5 155.5,-1048.5 196.5,-1048.5 196.5,-991.5 155.5,-991.5"/>
<text text-anchor="middle" x="176" y="-1036.5" font-family="Helvetica,sans-Serif" font-size="10.00">string</text>
<polyline fill="none" stroke="#bfbfbf" points="155.5,-1029.5 196.5,-1029.5 "/>
<text text-anchor="middle" x="176" y="-1017.5" font-family="Helvetica,sans-Serif" font-size="10.00"> </text>
<polyline fill="none" stroke="#bfbfbf" points="155.5,-1010.5 196.5,-1010.5 "/>
<text text-anchor="middle" x="176" y="-998.5" font-family="Helvetica,sans-Serif" font-size="10.00"> </text>
</g>
<!-- Node12&#45;&gt;Node11 -->
<g id="edge1" class="edge"><title>Node12&#45;&gt;Node11</title>
<path fill="none" stroke="#404040" d="M176,-991.258C176,-977.637 176,-960.787 176,-944.96"/>
<polygon fill="none" stroke="#404040" points="176,-944.567 172,-938.567 176,-932.567 180,-938.567 176,-944.567"/>
<text text-anchor="middle" x="188.5" y="-959.5" font-family="Helvetica,sans-Serif" font-size="10.00"> #text</text>
</g>
<!-- Node13 -->
<g id="node3" class="node"><title>Node13</title>
<g id="a_node3"><a xlink:href="class_character.html" target="_top" xlink:title="Base abstract class for Enemy and Player to inherit from. Defines all shared variables, their constructor and their setters and getters ">
<polygon fill="none" stroke="black" points="334.5,-398.5 334.5,-576.5 429.5,-576.5 429.5,-398.5 334.5,-398.5"/>
<text text-anchor="middle" x="382" y="-564.5" font-family="Helvetica,sans-Serif" font-size="10.00">Character</text>
<polyline fill="none" stroke="black" points="334.5,-557.5 429.5,-557.5 "/>
<text text-anchor="start" x="342.5" y="-545.5" font-family="Helvetica,sans-Serif" font-size="10.00">+ Name</text>
<text text-anchor="start" x="342.5" y="-534.5" font-family="Helvetica,sans-Serif" font-size="10.00">+ Level</text>
<text text-anchor="start" x="342.5" y="-523.5" font-family="Helvetica,sans-Serif" font-size="10.00">+ Health</text>
<text text-anchor="start" x="342.5" y="-512.5" font-family="Helvetica,sans-Serif" font-size="10.00">+ Attack</text>
<text text-anchor="start" x="342.5" y="-501.5" font-family="Helvetica,sans-Serif" font-size="10.00">+ Defence</text>
<text text-anchor="start" x="342.5" y="-490.5" font-family="Helvetica,sans-Serif" font-size="10.00">+ MaximumMagic</text>
<text text-anchor="start" x="342.5" y="-479.5" font-family="Helvetica,sans-Serif" font-size="10.00">+ Magic</text>
<text text-anchor="start" x="342.5" y="-468.5" font-family="Helvetica,sans-Serif" font-size="10.00">+ Luck</text>
<text text-anchor="start" x="342.5" y="-457.5" font-family="Helvetica,sans-Serif" font-size="10.00">+ Speed</text>
<text text-anchor="start" x="342.5" y="-446.5" font-family="Helvetica,sans-Serif" font-size="10.00">+ Special1</text>
<text text-anchor="start" x="342.5" y="-435.5" font-family="Helvetica,sans-Serif" font-size="10.00">+ Special2</text>
<text text-anchor="start" x="342.5" y="-424.5" font-family="Helvetica,sans-Serif" font-size="10.00">+ Image</text>
<polyline fill="none" stroke="black" points="334.5,-417.5 429.5,-417.5 "/>
<text text-anchor="start" x="342.5" y="-405.5" font-family="Helvetica,sans-Serif" font-size="10.00"># Character()</text>
</a>
</g>
</g>
<!-- Node12&#45;&gt;Node13 -->
<g id="edge3" class="edge"><title>Node12&#45;&gt;Node13</title>
<path fill="none" stroke="#404040" d="M156.399,-991.479C145.532,-975.139 132.532,-953.639 124,-933 93.503,-859.228 81.4015,-832.63 100,-755 119.538,-673.45 133.946,-646.662 200,-595 238.416,-564.954 286.136,-537.338 323.073,-517.761"/>
<polygon fill="none" stroke="#404040" points="323.538,-517.517 326.997,-511.19 334.168,-511.949 330.709,-518.276 323.538,-517.517"/>
<text text-anchor="middle" x="116.5" y="-792.5" font-family="Helvetica,sans-Serif" font-size="10.00"> #name</text>
</g>
<!-- Node12&#45;&gt;Node15 -->
<g id="edge7" class="edge"><title>Node12&#45;&gt;Node15</title>
<path fill="none" stroke="#404040" d="M196.87,-1008.19C221.366,-994.304 261.158,-967.798 281,-933 312.993,-876.892 308.236,-801.233 298.982,-748.699"/>
<polygon fill="none" stroke="#404040" points="298.974,-748.656 293.933,-743.5 296.753,-736.863 301.795,-742.019 298.974,-748.656"/>
<text text-anchor="middle" x="320" y="-890.5" font-family="Helvetica,sans-Serif" font-size="10.00"> #desc</text>
</g>
<!-- Node18 -->
<g id="node8" class="node"><title>Node18</title>
<g id="a_node8"><a xlink:href="class_battle_manager.html" target="_top" xlink:title="Holds current Player and Enemy objects in battle and provides functions for MainBattle and other obje...">
<polygon fill="none" stroke="black" points="384,-0.5 384,-189.5 500,-189.5 500,-0.5 384,-0.5"/>
<text text-anchor="middle" x="442" y="-177.5" font-family="Helvetica,sans-Serif" font-size="10.00">BattleManager</text>
<polyline fill="none" stroke="black" points="384,-170.5 500,-170.5 "/>
<text text-anchor="start" x="392" y="-158.5" font-family="Helvetica,sans-Serif" font-size="10.00">+ Player</text>
<text text-anchor="start" x="392" y="-147.5" font-family="Helvetica,sans-Serif" font-size="10.00">+ Enemy</text>
<text text-anchor="start" x="392" y="-136.5" font-family="Helvetica,sans-Serif" font-size="10.00">+ WasCriticalHit</text>
<polyline fill="none" stroke="black" points="384,-129.5 500,-129.5 "/>
<text text-anchor="start" x="392" y="-117.5" font-family="Helvetica,sans-Serif" font-size="10.00">+ BattleManager()</text>
<text text-anchor="start" x="392" y="-106.5" font-family="Helvetica,sans-Serif" font-size="10.00">+ playerFirst()</text>
<text text-anchor="start" x="392" y="-95.5" font-family="Helvetica,sans-Serif" font-size="10.00">+ switchPlayers()</text>
<text text-anchor="start" x="392" y="-84.5" font-family="Helvetica,sans-Serif" font-size="10.00">+ isCriticalHit()</text>
<text text-anchor="start" x="392" y="-73.5" font-family="Helvetica,sans-Serif" font-size="10.00">+ ranAway()</text>
<text text-anchor="start" x="392" y="-62.5" font-family="Helvetica,sans-Serif" font-size="10.00">+ damageCalculation()</text>
<text text-anchor="start" x="392" y="-51.5" font-family="Helvetica,sans-Serif" font-size="10.00">+ enemyMove()</text>
<text text-anchor="start" x="392" y="-40.5" font-family="Helvetica,sans-Serif" font-size="10.00">+ enemySpecialMove()</text>
<text text-anchor="start" x="392" y="-29.5" font-family="Helvetica,sans-Serif" font-size="10.00">+ battleWon()</text>
<text text-anchor="start" x="392" y="-18.5" font-family="Helvetica,sans-Serif" font-size="10.00">+ playerFainted()</text>
<text text-anchor="start" x="392" y="-7.5" font-family="Helvetica,sans-Serif" font-size="10.00">&#45; characterFainted()</text>
</a>
</g>
</g>
<!-- Node12&#45;&gt;Node18 -->
<g id="edge12" class="edge"><title>Node12&#45;&gt;Node18</title>
<path fill="none" stroke="#404040" d="M155.466,-1014.68C109.039,-1003.6 0,-969.518 0,-894 0,-894 0,-894 0,-298 0,-136.535 247.015,-103.593 371.724,-97.2504"/>
<polygon fill="none" stroke="#404040" points="371.774,-97.2482 377.586,-92.979 383.762,-96.7015 377.95,-100.971 371.774,-97.2482"/>
<text text-anchor="middle" x="42" y="-609" font-family="Helvetica,sans-Serif" font-size="10.00"> +forceEnemyMove</text>
<text text-anchor="middle" x="42" y="-598" font-family="Helvetica,sans-Serif" font-size="10.00">+forceCriticalHits</text>
</g>
<!-- Node22 -->
<g id="node12" class="node"><title>Node22</title>
<g id="a_node12"><a xlink:href="class_item.html" target="_top" xlink:title="Abstract class for items that can be equipped to a player, increasing some of their stats ...">
<polygon fill="none" stroke="black" points="701.5,-755.5 701.5,-834.5 778.5,-834.5 778.5,-755.5 701.5,-755.5"/>
<text text-anchor="middle" x="740" y="-822.5" font-family="Helvetica,sans-Serif" font-size="10.00">Item</text>
<polyline fill="none" stroke="black" points="701.5,-815.5 778.5,-815.5 "/>
<text text-anchor="start" x="709.5" y="-803.5" font-family="Helvetica,sans-Serif" font-size="10.00">+ Name</text>
<text text-anchor="start" x="709.5" y="-792.5" font-family="Helvetica,sans-Serif" font-size="10.00">+ Desc</text>
<polyline fill="none" stroke="black" points="701.5,-785.5 778.5,-785.5 "/>
<text text-anchor="start" x="709.5" y="-773.5" font-family="Helvetica,sans-Serif" font-size="10.00">+ applyBuffs()</text>
<text text-anchor="start" x="709.5" y="-762.5" font-family="Helvetica,sans-Serif" font-size="10.00">+ revertBuffs()</text>
</a>
</g>
</g>
<!-- Node12&#45;&gt;Node22 -->
<g id="edge21" class="edge"><title>Node12&#45;&gt;Node22</title>
<path fill="none" stroke="#404040" d="M196.607,-1017.97C257.497,-1014.24 440.725,-997.963 575,-933 620.758,-910.862 664.637,-873.373 695.628,-843.202"/>
<polygon fill="none" stroke="#404040" points="695.889,-842.944 697.34,-835.881 704.419,-834.503 702.967,-841.567 695.889,-842.944"/>
<text text-anchor="middle" x="547" y="-965" font-family="Helvetica,sans-Serif" font-size="10.00"> #desc</text>
<text text-anchor="middle" x="547" y="-954" font-family="Helvetica,sans-Serif" font-size="10.00">#name</text>
</g>
<!-- Node13&#45;&gt;Node11 -->
<g id="edge2" class="edge"><title>Node13&#45;&gt;Node11</title>
<path fill="none" stroke="#404040" d="M334.213,-510.465C288.828,-534.158 223.056,-576.504 192,-635 157.674,-699.654 160.714,-786.744 167.363,-841.117"/>
<polygon fill="none" stroke="#404040" points="167.388,-841.306 172.142,-846.728 168.966,-853.202 164.212,-847.78 167.388,-841.306"/>
<text text-anchor="middle" x="209" y="-689" font-family="Helvetica,sans-Serif" font-size="10.00"> #target</text>
<text text-anchor="middle" x="209" y="-678" font-family="Helvetica,sans-Serif" font-size="10.00">#user</text>
</g>
<!-- Node19 -->
<g id="node9" class="node"><title>Node19</title>
<g id="a_node9"><a xlink:href="class_enemy.html" target="_top" xlink:title="Defines an AI controller enemy to fight in battle scenes">
<polygon fill="none" stroke="black" points="360.5,-270.5 360.5,-327.5 427.5,-327.5 427.5,-270.5 360.5,-270.5"/>
<text text-anchor="middle" x="394" y="-315.5" font-family="Helvetica,sans-Serif" font-size="10.00">Enemy</text>
<polyline fill="none" stroke="black" points="360.5,-308.5 427.5,-308.5 "/>
<text text-anchor="start" x="368.5" y="-296.5" font-family="Helvetica,sans-Serif" font-size="10.00">+ ExpGiven</text>
<polyline fill="none" stroke="black" points="360.5,-289.5 427.5,-289.5 "/>
<text text-anchor="start" x="368.5" y="-277.5" font-family="Helvetica,sans-Serif" font-size="10.00">+ Enemy()</text>
</a>
</g>
</g>
<!-- Node13&#45;&gt;Node19 -->
<g id="edge14" class="edge"><title>Node13&#45;&gt;Node19</title>
<path fill="none" stroke="midnightblue" d="M388.324,-388.208C389.756,-365.96 391.163,-344.095 392.218,-327.701"/>
<polygon fill="none" stroke="midnightblue" points="384.816,-388.234 387.666,-398.438 391.801,-388.684 384.816,-388.234"/>
</g>
<!-- Node21 -->
<g id="node11" class="node"><title>Node21</title>
<g id="a_node11"><a xlink:href="class_player.html" target="_top" xlink:title="Defines a playable character for use in battle scenes">
<polygon fill="none" stroke="black" points="446,-237.5 446,-360.5 558,-360.5 558,-237.5 446,-237.5"/>
<text text-anchor="middle" x="502" y="-348.5" font-family="Helvetica,sans-Serif" font-size="10.00">Player</text>
<polyline fill="none" stroke="black" points="446,-341.5 558,-341.5 "/>
<text text-anchor="start" x="454" y="-329.5" font-family="Helvetica,sans-Serif" font-size="10.00">+ Exp</text>
<text text-anchor="start" x="454" y="-318.5" font-family="Helvetica,sans-Serif" font-size="10.00">+ Item</text>
<text text-anchor="start" x="454" y="-307.5" font-family="Helvetica,sans-Serif" font-size="10.00">+ ExpToNextLevel</text>
<polyline fill="none" stroke="black" points="446,-300.5 558,-300.5 "/>
<text text-anchor="start" x="454" y="-288.5" font-family="Helvetica,sans-Serif" font-size="10.00">+ Player()</text>
<text text-anchor="start" x="454" y="-277.5" font-family="Helvetica,sans-Serif" font-size="10.00">+ gainExp()</text>
<text text-anchor="start" x="454" y="-266.5" font-family="Helvetica,sans-Serif" font-size="10.00">+ levelUp()</text>
<text text-anchor="start" x="454" y="-255.5" font-family="Helvetica,sans-Serif" font-size="10.00">+ Clone()</text>
<text text-anchor="start" x="454" y="-244.5" font-family="Helvetica,sans-Serif" font-size="10.00">&#45; setExpToNextLevel()</text>
</a>
</g>
</g>
<!-- Node13&#45;&gt;Node21 -->
<g id="edge19" class="edge"><title>Node13&#45;&gt;Node21</title>
<path fill="none" stroke="midnightblue" d="M435.083,-404C444.453,-389.438 454.05,-374.522 462.946,-360.697"/>
<polygon fill="none" stroke="midnightblue" points="432.067,-402.219 429.6,-412.522 437.954,-406.007 432.067,-402.219"/>
</g>
<!-- Node14 -->
<g id="node4" class="node"><title>Node14</title>
<polygon fill="none" stroke="#bfbfbf" points="537.5,-864.5 537.5,-921.5 566.5,-921.5 566.5,-864.5 537.5,-864.5"/>
<text text-anchor="middle" x="552" y="-909.5" font-family="Helvetica,sans-Serif" font-size="10.00">int</text>
<polyline fill="none" stroke="#bfbfbf" points="537.5,-902.5 566.5,-902.5 "/>
<text text-anchor="middle" x="552" y="-890.5" font-family="Helvetica,sans-Serif" font-size="10.00"> </text>
<polyline fill="none" stroke="#bfbfbf" points="537.5,-883.5 566.5,-883.5 "/>
<text text-anchor="middle" x="552" y="-871.5" font-family="Helvetica,sans-Serif" font-size="10.00"> </text>
</g>
<!-- Node14&#45;&gt;Node13 -->
<g id="edge4" class="edge"><title>Node14&#45;&gt;Node13</title>
<path fill="none" stroke="#404040" d="M537.49,-870.511C518.304,-841.333 484.428,-787.065 463,-737 437.104,-676.495 441.659,-657.487 421,-595 420.258,-592.757 419.5,-590.489 418.73,-588.206"/>
<polygon fill="none" stroke="#404040" points="418.671,-588.035 412.942,-583.656 414.781,-576.683 420.51,-581.062 418.671,-588.035"/>
<text text-anchor="middle" x="500.5" y="-722" font-family="Helvetica,sans-Serif" font-size="10.00"> #speed</text>
<text text-anchor="middle" x="500.5" y="-711" font-family="Helvetica,sans-Serif" font-size="10.00">#luck</text>
<text text-anchor="middle" x="500.5" y="-700" font-family="Helvetica,sans-Serif" font-size="10.00">#health</text>
<text text-anchor="middle" x="500.5" y="-689" font-family="Helvetica,sans-Serif" font-size="10.00">#magic</text>
<text text-anchor="middle" x="500.5" y="-678" font-family="Helvetica,sans-Serif" font-size="10.00">#maximumMagic</text>
<text text-anchor="middle" x="500.5" y="-667" font-family="Helvetica,sans-Serif" font-size="10.00">#attack</text>
<text text-anchor="middle" x="500.5" y="-656" font-family="Helvetica,sans-Serif" font-size="10.00">#defence</text>
<text text-anchor="middle" x="500.5" y="-645" font-family="Helvetica,sans-Serif" font-size="10.00">#level</text>
</g>
<!-- Node14&#45;&gt;Node15 -->
<g id="edge9" class="edge"><title>Node14&#45;&gt;Node15</title>
<path fill="none" stroke="#404040" d="M537.332,-889.276C508.653,-883.388 444.102,-867.318 400,-835 367.964,-811.525 340.18,-776.938 319.841,-747.102"/>
<polygon fill="none" stroke="#404040" points="319.614,-746.761 312.959,-743.984 312.963,-736.772 319.618,-739.549 319.614,-746.761"/>
<text text-anchor="middle" x="417.5" y="-792.5" font-family="Helvetica,sans-Serif" font-size="10.00"> #magic</text>
</g>
<!-- Node14&#45;&gt;Node18 -->
<g id="edge16" class="edge"><title>Node14&#45;&gt;Node18</title>
<path fill="none" stroke="#404040" d="M564.586,-864.337C566.606,-860.46 568.77,-856.58 571,-853 576.359,-844.398 579.146,-843.273 585,-835 630.151,-771.197 680,-765.163 680,-687 680,-687 680,-687 680,-298 680,-208.929 581.907,-150.969 511.671,-120.884"/>
<polygon fill="none" stroke="#404040" points="511.3,-120.73 504.223,-122.117 500.221,-116.118 507.298,-114.731 511.3,-120.73"/>
<text text-anchor="middle" x="699.5" y="-485" font-family="Helvetica,sans-Serif" font-size="10.00"> +money</text>
</g>
<!-- Node14&#45;&gt;Node19 -->
<g id="edge15" class="edge"><title>Node14&#45;&gt;Node19</title>
<path fill="none" stroke="#404040" d="M553.743,-864.141C556.008,-816.456 557.616,-716.454 538,-635 535.95,-626.489 533.473,-625.036 530,-617 488.115,-520.091 480.068,-494.829 438,-398 429.486,-378.403 419.78,-356.719 411.654,-338.741"/>
<polygon fill="none" stroke="#404040" points="411.65,-338.731 405.53,-334.916 406.698,-327.8 412.817,-331.615 411.65,-338.731"/>
<text text-anchor="middle" x="553" y="-603.5" font-family="Helvetica,sans-Serif" font-size="10.00"> &#45;expGiven</text>
</g>
<!-- Node14&#45;&gt;Node21 -->
<g id="edge22" class="edge"><title>Node14&#45;&gt;Node21</title>
<path fill="none" stroke="#404040" d="M560.141,-864.409C562.507,-855.148 564.78,-844.706 566,-835 591.328,-633.451 589.896,-574.576 535,-379 534.367,-376.746 533.688,-374.47 532.969,-372.184"/>
<polygon fill="none" stroke="#404040" points="532.936,-372.085 527.224,-367.684 529.09,-360.718 534.802,-365.12 532.936,-372.085"/>
<text text-anchor="middle" x="619.5" y="-609" font-family="Helvetica,sans-Serif" font-size="10.00"> &#45;expToNextLevel</text>
<text text-anchor="middle" x="619.5" y="-598" font-family="Helvetica,sans-Serif" font-size="10.00">&#45;exp</text>
</g>
<!-- Node15&#45;&gt;Node13 -->
<g id="edge5" class="edge"><title>Node15&#45;&gt;Node13</title>
<path fill="none" stroke="#404040" d="M308.73,-635.415C316.032,-620.772 324.297,-604.2 332.578,-587.596"/>
<polygon fill="none" stroke="#404040" points="332.656,-587.439 331.755,-580.284 338.012,-576.7 338.914,-583.855 332.656,-587.439"/>
<text text-anchor="middle" x="350.5" y="-609" font-family="Helvetica,sans-Serif" font-size="10.00"> #special1</text>
<text text-anchor="middle" x="350.5" y="-598" font-family="Helvetica,sans-Serif" font-size="10.00">#special2</text>
</g>
<!-- Node16 -->
<g id="node6" class="node"><title>Node16</title>
<polygon fill="none" stroke="#bfbfbf" points="237.5,-864.5 237.5,-921.5 272.5,-921.5 272.5,-864.5 237.5,-864.5"/>
<text text-anchor="middle" x="255" y="-909.5" font-family="Helvetica,sans-Serif" font-size="10.00">float</text>
<polyline fill="none" stroke="#bfbfbf" points="237.5,-902.5 272.5,-902.5 "/>
<text text-anchor="middle" x="255" y="-890.5" font-family="Helvetica,sans-Serif" font-size="10.00"> </text>
<polyline fill="none" stroke="#bfbfbf" points="237.5,-883.5 272.5,-883.5 "/>
<text text-anchor="middle" x="255" y="-871.5" font-family="Helvetica,sans-Serif" font-size="10.00"> </text>
</g>
<!-- Node16&#45;&gt;Node15 -->
<g id="edge8" class="edge"><title>Node16&#45;&gt;Node15</title>
<path fill="none" stroke="#404040" d="M252.143,-864.391C249.968,-836.495 248.478,-792.306 256,-755 256.435,-752.841 256.939,-750.664 257.5,-748.482"/>
<polygon fill="none" stroke="#404040" points="257.547,-748.325 255.432,-741.431 260.983,-736.827 263.097,-743.721 257.547,-748.325"/>
<text text-anchor="middle" x="276" y="-792.5" font-family="Helvetica,sans-Serif" font-size="10.00"> #special</text>
</g>
<!-- Node17 -->
<g id="node7" class="node"><title>Node17</title>
<polygon fill="none" stroke="#bfbfbf" points="351.5,-657.5 351.5,-714.5 412.5,-714.5 412.5,-657.5 351.5,-657.5"/>
<text text-anchor="middle" x="382" y="-702.5" font-family="Helvetica,sans-Serif" font-size="10.00">Texture2D</text>
<polyline fill="none" stroke="#bfbfbf" points="351.5,-695.5 412.5,-695.5 "/>
<text text-anchor="middle" x="382" y="-683.5" font-family="Helvetica,sans-Serif" font-size="10.00"> </text>
<polyline fill="none" stroke="#bfbfbf" points="351.5,-676.5 412.5,-676.5 "/>
<text text-anchor="middle" x="382" y="-664.5" font-family="Helvetica,sans-Serif" font-size="10.00"> </text>
</g>
<!-- Node17&#45;&gt;Node13 -->
<g id="edge10" class="edge"><title>Node17&#45;&gt;Node13</title>
<path fill="none" stroke="#404040" d="M382,-657.263C382,-638.998 382,-613.86 382,-588.562"/>
<polygon fill="none" stroke="#404040" points="382,-588.557 378,-582.557 382,-576.557 386,-582.557 382,-588.557"/>
<text text-anchor="middle" x="399.5" y="-603.5" font-family="Helvetica,sans-Serif" font-size="10.00"> #image</text>
</g>
<!-- Node18&#45;&gt;Node11 -->
<g id="edge11" class="edge"><title>Node18&#45;&gt;Node11</title>
<path fill="none" stroke="#404040" d="M383.914,-107.048C295.421,-127.623 137,-180.821 137,-298 137,-607 137,-607 137,-607 137,-708.893 142.648,-734.773 161,-835 161.391,-837.134 161.82,-839.306 162.278,-841.494"/>
<polygon fill="none" stroke="#404040" points="162.288,-841.538 167.521,-846.498 164.955,-853.237 159.721,-848.276 162.288,-841.538"/>
<text text-anchor="middle" x="160" y="-485" font-family="Helvetica,sans-Serif" font-size="10.00"> #manager</text>
</g>
<!-- Node19&#45;&gt;Node18 -->
<g id="edge13" class="edge"><title>Node19&#45;&gt;Node18</title>
<path fill="none" stroke="#404040" d="M400.574,-270.336C404.915,-252.065 410.908,-226.845 416.988,-201.261"/>
<polygon fill="none" stroke="#404040" points="417.007,-201.178 414.503,-194.416 419.781,-189.503 422.286,-196.266 417.007,-201.178"/>
<text text-anchor="middle" x="434" y="-211" font-family="Helvetica,sans-Serif" font-size="10.00"> &#45;enemy</text>
</g>
<!-- Node20 -->
<g id="node10" class="node"><title>Node20</title>
<polygon fill="none" stroke="#bfbfbf" points="576.5,-270.5 576.5,-327.5 611.5,-327.5 611.5,-270.5 576.5,-270.5"/>
<text text-anchor="middle" x="594" y="-315.5" font-family="Helvetica,sans-Serif" font-size="10.00">bool</text>
<polyline fill="none" stroke="#bfbfbf" points="576.5,-308.5 611.5,-308.5 "/>
<text text-anchor="middle" x="594" y="-296.5" font-family="Helvetica,sans-Serif" font-size="10.00"> </text>
<polyline fill="none" stroke="#bfbfbf" points="576.5,-289.5 611.5,-289.5 "/>
<text text-anchor="middle" x="594" y="-277.5" font-family="Helvetica,sans-Serif" font-size="10.00"> </text>
</g>
<!-- Node20&#45;&gt;Node18 -->
<g id="edge17" class="edge"><title>Node20&#45;&gt;Node18</title>
<path fill="none" stroke="#404040" d="M583.888,-270.352C579.405,-259.562 573.635,-247.329 567,-237 550.294,-210.995 528.893,-184.979 508.538,-162.503"/>
<polygon fill="none" stroke="#404040" points="508.316,-162.261 501.312,-160.548 500.199,-153.423 507.204,-155.137 508.316,-162.261"/>
<text text-anchor="middle" x="586" y="-211" font-family="Helvetica,sans-Serif" font-size="10.00"> &#45;wasCriticalHit</text>
</g>
<!-- Node21&#45;&gt;Node18 -->
<g id="edge18" class="edge"><title>Node21&#45;&gt;Node18</title>
<path fill="none" stroke="#404040" d="M483.998,-237.393C480.624,-226.033 477.007,-213.856 473.363,-201.588"/>
<polygon fill="none" stroke="#404040" points="473.285,-201.326 467.742,-196.714 469.868,-189.823 475.411,-194.436 473.285,-201.326"/>
<text text-anchor="middle" x="494.5" y="-211" font-family="Helvetica,sans-Serif" font-size="10.00"> &#45;player</text>
</g>
<!-- Node22&#45;&gt;Node21 -->
<g id="edge20" class="edge"><title>Node22&#45;&gt;Node21</title>
<path fill="none" stroke="#404040" d="M751.956,-755.481C773.41,-677.969 808.676,-501.721 723,-398 680.013,-345.959 634.803,-389.587 569.264,-361.136"/>
<polygon fill="none" stroke="#404040" points="568.904,-360.96 561.757,-361.915 558.126,-355.685 565.273,-354.73 568.904,-360.96"/>
<text text-anchor="middle" x="789.5" y="-603.5" font-family="Helvetica,sans-Serif" font-size="10.00"> &#45;item</text>
</g>
</g>
</svg>
        <g id="navigator" transform="translate(0 0)" fill="#404254">
                <rect fill="#f2f5e9" fill-opacity="0.5" stroke="#606060" stroke-width=".5" x="0" y="0" width="60" height="60"/>
                <use id="zoomplus" xlink:href="#zoomPlus" x="17" y="9" onmousedown="handleZoom(evt,'in')"/>
                <use id="zoomminus" xlink:href="#zoomMin" x="42" y="9" onmousedown="handleZoom(evt,'out')"/>
                <use id="reset" xlink:href="#resetDef" x="30" y="36" onmousedown="handleReset()"/>
                <g id="arrowUp" xlink:href="#dirArrow" transform="translate(30 24)" onmousedown="handlePan(0,-1)">
                  <use xlink:href="#rim" fill="#404040">
                        <set attributeName="fill" to="#808080" begin="arrowUp.mouseover" end="arrowUp.mouseout"/>
                  </use>
                  <path fill="none" stroke="white" stroke-width="1.5" d="M0,-3.0v7 M-2.5,-0.5L0,-3.0L2.5,-0.5"/>
                </g>
                <g id="arrowRight" xlink:href="#dirArrow" transform="rotate(90) translate(36 -43)" onmousedown="handlePan(1,0)">
                  <use xlink:href="#rim" fill="#404040">
                        <set attributeName="fill" to="#808080" begin="arrowRight.mouseover" end="arrowRight.mouseout"/>
                  </use>
                  <path fill="none" stroke="white" stroke-width="1.5" d="M0,-3.0v7 M-2.5,-0.5L0,-3.0L2.5,-0.5"/>
                </g>
                <g id="arrowDown" xlink:href="#dirArrow" transform="rotate(180) translate(-30 -48)" onmousedown="handlePan(0,1)">
                  <use xlink:href="#rim" fill="#404040">
                        <set attributeName="fill" to="#808080" begin="arrowDown.mouseover" end="arrowDown.mouseout"/>
                  </use>
                  <path fill="none" stroke="white" stroke-width="1.5" d="M0,-3.0v7 M-2.5,-0.5L0,-3.0L2.5,-0.5"/>
                </g>
                <g id="arrowLeft" xlink:href="#dirArrow" transform="rotate(270) translate(-36 17)" onmousedown="handlePan(-1,0)">
                  <use xlink:href="#rim" fill="#404040">
                        <set attributeName="fill" to="#808080" begin="arrowLeft.mouseover" end="arrowLeft.mouseout"/>
                  </use>
                  <path fill="none" stroke="white" stroke-width="1.5" d="M0,-3.0v7 M-2.5,-0.5L0,-3.0L2.5,-0.5"/>
                </g>
        </g>
        <svg viewBox="0 0 15 15" width="100%" height="30px" preserveAspectRatio="xMaxYMin meet">
         <g id="arrow_out" transform="scale(0.3 0.3)">
          <a xlink:href="class_character_move__coll__graph_org.svg" target="_base">
           <rect id="button" ry="5" rx="5" y="6" x="6" height="38" width="38"
                fill="#f2f5e9" fill-opacity="0.5" stroke="#606060" stroke-width="1.0"/>
           <path id="arrow"
             d="M 11.500037,31.436501 C 11.940474,20.09759 22.043105,11.32322 32.158766,21.979434 L 37.068811,17.246167 C 37.068811,17.246167 37.088388,32 37.088388,32 L 22.160133,31.978069 C 22.160133,31.978069 26.997745,27.140456 26.997745,27.140456 C 18.528582,18.264221 13.291696,25.230495 11.500037,31.436501 z"
             style="fill:#404040;"/>
          </a>
         </g>
        </svg>
</svg>
