<?xml version="1.0" encoding="UTF-8" standalone="no"?>
<!DOCTYPE svg PUBLIC "-//W3C//DTD SVG 1.1//EN"
 "http://www.w3.org/Graphics/SVG/1.1/DTD/svg11.dtd">
<!-- Generated by graphviz version 2.38.0 (20140413.2041)
 -->
<!-- Title: StandardAttack Pages: 1 -->
<svg width="913pt" height="1046pt"
 viewBox="0.00 0.00 912.50 1046.00" xmlns="http://www.w3.org/2000/svg" xmlns:xlink="http://www.w3.org/1999/xlink">
<g id="graph0" class="graph" transform="scale(1 1) rotate(0) translate(4 1042)">
<title>StandardAttack</title>
<!-- Node2 -->
<g id="node1" class="node"><title>Node2</title>
<polygon fill="#bfbfbf" stroke="black" points="317.5,-641 317.5,-709 416.5,-709 416.5,-641 317.5,-641"/>
<text text-anchor="middle" x="367" y="-697" font-family="Helvetica,sans-Serif" font-size="10.00">StandardAttack</text>
<polyline fill="none" stroke="black" points="317.5,-690 416.5,-690 "/>
<text text-anchor="middle" x="367" y="-678" font-family="Helvetica,sans-Serif" font-size="10.00"> </text>
<polyline fill="none" stroke="black" points="317.5,-671 416.5,-671 "/>
<text text-anchor="start" x="325.5" y="-659" font-family="Helvetica,sans-Serif" font-size="10.00">+ StandardAttack()</text>
<text text-anchor="start" x="325.5" y="-648" font-family="Helvetica,sans-Serif" font-size="10.00">+ performMove()</text>
</g>
<!-- Node3 -->
<g id="node2" class="node"><title>Node3</title>
<g id="a_node2"><a xlink:href="class_character_move.html" target="_top" xlink:title="Astract base class for character moves ">
<polygon fill="none" stroke="black" points="324,-842.5 324,-921.5 410,-921.5 410,-842.5 324,-842.5"/>
<text text-anchor="middle" x="367" y="-909.5" font-family="Helvetica,sans-Serif" font-size="10.00">CharacterMove</text>
<polyline fill="none" stroke="black" points="324,-902.5 410,-902.5 "/>
<text text-anchor="start" x="332" y="-890.5" font-family="Helvetica,sans-Serif" font-size="10.00">+ User</text>
<text text-anchor="start" x="332" y="-879.5" font-family="Helvetica,sans-Serif" font-size="10.00">+ Target</text>
<text text-anchor="start" x="332" y="-868.5" font-family="Helvetica,sans-Serif" font-size="10.00">+ Text</text>
<polyline fill="none" stroke="black" points="324,-861.5 410,-861.5 "/>
<text text-anchor="start" x="332" y="-849.5" font-family="Helvetica,sans-Serif" font-size="10.00">+ performMove()</text>
</a>
</g>
</g>
<!-- Node3&#45;&gt;Node2 -->
<g id="edge1" class="edge"><title>Node3&#45;&gt;Node2</title>
<path fill="none" stroke="midnightblue" d="M367,-832.129C367,-794.189 367,-742.604 367,-709.302"/>
<polygon fill="none" stroke="midnightblue" points="363.5,-832.441 367,-842.441 370.5,-832.441 363.5,-832.441"/>
</g>
<!-- Node7 -->
<g id="node6" class="node"><title>Node7</title>
<g id="a_node6"><a xlink:href="class_special_move.html" target="_top" xlink:title="Special move abstract base class that expands upon CharacterMove, adding magic properties ...">
<polygon fill="none" stroke="black" points="663,-624.5 663,-725.5 761,-725.5 761,-624.5 663,-624.5"/>
<text text-anchor="middle" x="712" y="-713.5" font-family="Helvetica,sans-Serif" font-size="10.00">SpecialMove</text>
<polyline fill="none" stroke="black" points="663,-706.5 761,-706.5 "/>
<text text-anchor="start" x="671" y="-694.5" font-family="Helvetica,sans-Serif" font-size="10.00">+ Magic</text>
<text text-anchor="start" x="671" y="-683.5" font-family="Helvetica,sans-Serif" font-size="10.00">+ Desc</text>
<text text-anchor="start" x="671" y="-672.5" font-family="Helvetica,sans-Serif" font-size="10.00">+ Special</text>
<polyline fill="none" stroke="black" points="663,-665.5 761,-665.5 "/>
<text text-anchor="start" x="671" y="-653.5" font-family="Helvetica,sans-Serif" font-size="10.00">+ setUp()</text>
<text text-anchor="start" x="671" y="-642.5" font-family="Helvetica,sans-Serif" font-size="10.00">+ decreaseMagic()</text>
<text text-anchor="start" x="671" y="-631.5" font-family="Helvetica,sans-Serif" font-size="10.00"># SpecialMove()</text>
</a>
</g>
</g>
<!-- Node3&#45;&gt;Node7 -->
<g id="edge7" class="edge"><title>Node3&#45;&gt;Node7</title>
<path fill="none" stroke="midnightblue" d="M419.161,-855.427C437.91,-845.918 459.089,-834.807 478,-824 543.106,-786.794 615.757,-739.975 662.581,-709.074"/>
<polygon fill="none" stroke="midnightblue" points="417.528,-852.331 410.174,-859.958 420.679,-858.582 417.528,-852.331"/>
</g>
<!-- Node4 -->
<g id="node3" class="node"><title>Node4</title>
<polygon fill="none" stroke="#bfbfbf" points="656.5,-980.5 656.5,-1037.5 697.5,-1037.5 697.5,-980.5 656.5,-980.5"/>
<text text-anchor="middle" x="677" y="-1025.5" font-family="Helvetica,sans-Serif" font-size="10.00">string</text>
<polyline fill="none" stroke="#bfbfbf" points="656.5,-1018.5 697.5,-1018.5 "/>
<text text-anchor="middle" x="677" y="-1006.5" font-family="Helvetica,sans-Serif" font-size="10.00"> </text>
<polyline fill="none" stroke="#bfbfbf" points="656.5,-999.5 697.5,-999.5 "/>
<text text-anchor="middle" x="677" y="-987.5" font-family="Helvetica,sans-Serif" font-size="10.00"> </text>
</g>
<!-- Node4&#45;&gt;Node3 -->
<g id="edge2" class="edge"><title>Node4&#45;&gt;Node3</title>
<path fill="none" stroke="#404040" d="M656.179,-999.604C608.663,-980.445 490.968,-932.987 421.252,-904.876"/>
<polygon fill="none" stroke="#404040" points="421.205,-904.857 414.144,-906.323 410.076,-900.369 417.136,-898.903 421.205,-904.857"/>
<text text-anchor="middle" x="571.5" y="-948.5" font-family="Helvetica,sans-Serif" font-size="10.00"> #text</text>
</g>
<!-- Node5 -->
<g id="node4" class="node"><title>Node5</title>
<g id="a_node4"><a xlink:href="class_character.html" target="_top" xlink:title="Base abstract class for Enemy and Player to inherit from. Defines all shared variables, their constructor and their setters and getters ">
<polygon fill="none" stroke="black" points="484.5,-387.5 484.5,-565.5 579.5,-565.5 579.5,-387.5 484.5,-387.5"/>
<text text-anchor="middle" x="532" y="-553.5" font-family="Helvetica,sans-Serif" font-size="10.00">Character</text>
<polyline fill="none" stroke="black" points="484.5,-546.5 579.5,-546.5 "/>
<text text-anchor="start" x="492.5" y="-534.5" font-family="Helvetica,sans-Serif" font-size="10.00">+ Name</text>
<text text-anchor="start" x="492.5" y="-523.5" font-family="Helvetica,sans-Serif" font-size="10.00">+ Level</text>
<text text-anchor="start" x="492.5" y="-512.5" font-family="Helvetica,sans-Serif" font-size="10.00">+ Health</text>
<text text-anchor="start" x="492.5" y="-501.5" font-family="Helvetica,sans-Serif" font-size="10.00">+ Attack</text>
<text text-anchor="start" x="492.5" y="-490.5" font-family="Helvetica,sans-Serif" font-size="10.00">+ Defence</text>
<text text-anchor="start" x="492.5" y="-479.5" font-family="Helvetica,sans-Serif" font-size="10.00">+ MaximumMagic</text>
<text text-anchor="start" x="492.5" y="-468.5" font-family="Helvetica,sans-Serif" font-size="10.00">+ Magic</text>
<text text-anchor="start" x="492.5" y="-457.5" font-family="Helvetica,sans-Serif" font-size="10.00">+ Luck</text>
<text text-anchor="start" x="492.5" y="-446.5" font-family="Helvetica,sans-Serif" font-size="10.00">+ Speed</text>
<text text-anchor="start" x="492.5" y="-435.5" font-family="Helvetica,sans-Serif" font-size="10.00">+ Special1</text>
<text text-anchor="start" x="492.5" y="-424.5" font-family="Helvetica,sans-Serif" font-size="10.00">+ Special2</text>
<text text-anchor="start" x="492.5" y="-413.5" font-family="Helvetica,sans-Serif" font-size="10.00">+ Image</text>
<polyline fill="none" stroke="black" points="484.5,-406.5 579.5,-406.5 "/>
<text text-anchor="start" x="492.5" y="-394.5" font-family="Helvetica,sans-Serif" font-size="10.00"># Character()</text>
</a>
</g>
</g>
<!-- Node4&#45;&gt;Node5 -->
<g id="edge4" class="edge"><title>Node4&#45;&gt;Node5</title>
<path fill="none" stroke="#404040" d="M697.727,-995.917C720.095,-981.543 754.463,-955.256 769,-922 782.262,-891.661 786.051,-652.961 770,-624 768.726,-621.701 660.046,-555.34 590.004,-512.731"/>
<polygon fill="none" stroke="#404040" points="589.796,-512.604 582.591,-512.904 579.543,-506.368 586.748,-506.069 589.796,-512.604"/>
<text text-anchor="middle" x="797.5" y="-781.5" font-family="Helvetica,sans-Serif" font-size="10.00"> #name</text>
</g>
<!-- Node4&#45;&gt;Node7 -->
<g id="edge8" class="edge"><title>Node4&#45;&gt;Node7</title>
<path fill="none" stroke="#404040" d="M677.645,-980.322C678.611,-947.315 680.899,-890.509 686,-842 689.649,-807.297 695.565,-768.781 700.832,-737.592"/>
<polygon fill="none" stroke="#404040" points="700.863,-737.413 697.933,-730.823 702.889,-725.585 705.818,-732.174 700.863,-737.413"/>
<text text-anchor="middle" x="701" y="-879.5" font-family="Helvetica,sans-Serif" font-size="10.00"> #desc</text>
</g>
<!-- Node10 -->
<g id="node9" class="node"><title>Node10</title>
<g id="a_node9"><a xlink:href="class_battle_manager.html" target="_top" xlink:title="Holds current Player and Enemy objects in battle and provides functions for MainBattle and other obje...">
<polygon fill="none" stroke="black" points="147,-0.5 147,-189.5 263,-189.5 263,-0.5 147,-0.5"/>
<text text-anchor="middle" x="205" y="-177.5" font-family="Helvetica,sans-Serif" font-size="10.00">BattleManager</text>
<polyline fill="none" stroke="black" points="147,-170.5 263,-170.5 "/>
<text text-anchor="start" x="155" y="-158.5" font-family="Helvetica,sans-Serif" font-size="10.00">+ Player</text>
<text text-anchor="start" x="155" y="-147.5" font-family="Helvetica,sans-Serif" font-size="10.00">+ Enemy</text>
<text text-anchor="start" x="155" y="-136.5" font-family="Helvetica,sans-Serif" font-size="10.00">+ WasCriticalHit</text>
<polyline fill="none" stroke="black" points="147,-129.5 263,-129.5 "/>
<text text-anchor="start" x="155" y="-117.5" font-family="Helvetica,sans-Serif" font-size="10.00">+ BattleManager()</text>
<text text-anchor="start" x="155" y="-106.5" font-family="Helvetica,sans-Serif" font-size="10.00">+ playerFirst()</text>
<text text-anchor="start" x="155" y="-95.5" font-family="Helvetica,sans-Serif" font-size="10.00">+ switchPlayers()</text>
<text text-anchor="start" x="155" y="-84.5" font-family="Helvetica,sans-Serif" font-size="10.00">+ isCriticalHit()</text>
<text text-anchor="start" x="155" y="-73.5" font-family="Helvetica,sans-Serif" font-size="10.00">+ ranAway()</text>
<text text-anchor="start" x="155" y="-62.5" font-family="Helvetica,sans-Serif" font-size="10.00">+ damageCalculation()</text>
<text text-anchor="start" x="155" y="-51.5" font-family="Helvetica,sans-Serif" font-size="10.00">+ enemyMove()</text>
<text text-anchor="start" x="155" y="-40.5" font-family="Helvetica,sans-Serif" font-size="10.00">+ enemySpecialMove()</text>
<text text-anchor="start" x="155" y="-29.5" font-family="Helvetica,sans-Serif" font-size="10.00">+ battleWon()</text>
<text text-anchor="start" x="155" y="-18.5" font-family="Helvetica,sans-Serif" font-size="10.00">+ playerFainted()</text>
<text text-anchor="start" x="155" y="-7.5" font-family="Helvetica,sans-Serif" font-size="10.00">&#45; characterFainted()</text>
</a>
</g>
</g>
<!-- Node4&#45;&gt;Node10 -->
<g id="edge13" class="edge"><title>Node4&#45;&gt;Node10</title>
<path fill="none" stroke="#404040" d="M656.369,-1006.43C542.909,-997.557 0,-951.501 0,-883 0,-883 0,-883 0,-292.5 0,-215.457 76.3914,-159.251 135.909,-127.152"/>
<polygon fill="none" stroke="#404040" points="136.176,-127.012 139.632,-120.683 146.804,-121.439 143.347,-127.768 136.176,-127.012"/>
<text text-anchor="middle" x="42" y="-598" font-family="Helvetica,sans-Serif" font-size="10.00"> +forceEnemyMove</text>
<text text-anchor="middle" x="42" y="-587" font-family="Helvetica,sans-Serif" font-size="10.00">+forceCriticalHits</text>
</g>
<!-- Node14 -->
<g id="node13" class="node"><title>Node14</title>
<g id="a_node13"><a xlink:href="class_item.html" target="_top" xlink:title="Abstract class for items that can be equipped to a player, increasing some of their stats ...">
<polygon fill="none" stroke="black" points="827.5,-744.5 827.5,-823.5 904.5,-823.5 904.5,-744.5 827.5,-744.5"/>
<text text-anchor="middle" x="866" y="-811.5" font-family="Helvetica,sans-Serif" font-size="10.00">Item</text>
<polyline fill="none" stroke="black" points="827.5,-804.5 904.5,-804.5 "/>
<text text-anchor="start" x="835.5" y="-792.5" font-family="Helvetica,sans-Serif" font-size="10.00">+ Name</text>
<text text-anchor="start" x="835.5" y="-781.5" font-family="Helvetica,sans-Serif" font-size="10.00">+ Desc</text>
<polyline fill="none" stroke="black" points="827.5,-774.5 904.5,-774.5 "/>
<text text-anchor="start" x="835.5" y="-762.5" font-family="Helvetica,sans-Serif" font-size="10.00">+ applyBuffs()</text>
<text text-anchor="start" x="835.5" y="-751.5" font-family="Helvetica,sans-Serif" font-size="10.00">+ revertBuffs()</text>
</a>
</g>
</g>
<!-- Node4&#45;&gt;Node14 -->
<g id="edge22" class="edge"><title>Node4&#45;&gt;Node14</title>
<path fill="none" stroke="#404040" d="M697.768,-1005.86C725.406,-1001.93 774.136,-991.098 803,-962 836.755,-927.971 852.516,-874.688 859.819,-835.467"/>
<polygon fill="none" stroke="#404040" points="859.838,-835.354 856.909,-828.765 861.865,-823.527 864.794,-830.116 859.838,-835.354"/>
<text text-anchor="middle" x="835" y="-954" font-family="Helvetica,sans-Serif" font-size="10.00"> #desc</text>
<text text-anchor="middle" x="835" y="-943" font-family="Helvetica,sans-Serif" font-size="10.00">#name</text>
</g>
<!-- Node5&#45;&gt;Node3 -->
<g id="edge3" class="edge"><title>Node5&#45;&gt;Node3</title>
<path fill="none" stroke="#404040" d="M484.478,-488.821C423.262,-506.243 319.35,-546.098 274,-624 234.56,-691.751 284.763,-779.096 325.329,-832.524"/>
<polygon fill="none" stroke="#404040" points="325.403,-832.619 332.243,-834.902 332.768,-842.094 325.927,-839.811 325.403,-832.619"/>
<text text-anchor="middle" x="291" y="-678" font-family="Helvetica,sans-Serif" font-size="10.00"> #target</text>
<text text-anchor="middle" x="291" y="-667" font-family="Helvetica,sans-Serif" font-size="10.00">#user</text>
</g>
<!-- Node11 -->
<g id="node10" class="node"><title>Node11</title>
<g id="a_node10"><a xlink:href="class_enemy.html" target="_top" xlink:title="Defines an AI controller enemy to fight in battle scenes">
<polygon fill="none" stroke="black" points="211.5,-265 211.5,-322 278.5,-322 278.5,-265 211.5,-265"/>
<text text-anchor="middle" x="245" y="-310" font-family="Helvetica,sans-Serif" font-size="10.00">Enemy</text>
<polyline fill="none" stroke="black" points="211.5,-303 278.5,-303 "/>
<text text-anchor="start" x="219.5" y="-291" font-family="Helvetica,sans-Serif" font-size="10.00">+ ExpGiven</text>
<polyline fill="none" stroke="black" points="211.5,-284 278.5,-284 "/>
<text text-anchor="start" x="219.5" y="-272" font-family="Helvetica,sans-Serif" font-size="10.00">+ Enemy()</text>
</a>
</g>
</g>
<!-- Node5&#45;&gt;Node11 -->
<g id="edge15" class="edge"><title>Node5&#45;&gt;Node11</title>
<path fill="none" stroke="midnightblue" d="M474.519,-454.68C421.922,-433.735 343.864,-397.72 287,-350 277.651,-342.155 269.142,-331.861 262.265,-322.272"/>
<polygon fill="none" stroke="midnightblue" points="473.446,-458.019 484.033,-458.415 476.004,-451.503 473.446,-458.019"/>
</g>
<!-- Node13 -->
<g id="node12" class="node"><title>Node13</title>
<g id="a_node12"><a xlink:href="class_player.html" target="_top" xlink:title="Defines a playable character for use in battle scenes">
<polygon fill="none" stroke="black" points="553,-237.5 553,-349.5 665,-349.5 665,-237.5 553,-237.5"/>
<text text-anchor="middle" x="609" y="-337.5" font-family="Helvetica,sans-Serif" font-size="10.00">Player</text>
<polyline fill="none" stroke="black" points="553,-330.5 665,-330.5 "/>
<text text-anchor="start" x="561" y="-318.5" font-family="Helvetica,sans-Serif" font-size="10.00">+ Exp</text>
<text text-anchor="start" x="561" y="-307.5" font-family="Helvetica,sans-Serif" font-size="10.00">+ Item</text>
<text text-anchor="start" x="561" y="-296.5" font-family="Helvetica,sans-Serif" font-size="10.00">+ ExpToNextLevel</text>
<polyline fill="none" stroke="black" points="553,-289.5 665,-289.5 "/>
<text text-anchor="start" x="561" y="-277.5" font-family="Helvetica,sans-Serif" font-size="10.00">+ Player()</text>
<text text-anchor="start" x="561" y="-266.5" font-family="Helvetica,sans-Serif" font-size="10.00">+ gainExp()</text>
<text text-anchor="start" x="561" y="-255.5" font-family="Helvetica,sans-Serif" font-size="10.00">+ levelUp()</text>
<text text-anchor="start" x="561" y="-244.5" font-family="Helvetica,sans-Serif" font-size="10.00">&#45; setExpToNextLevel()</text>
</a>
</g>
</g>
<!-- Node5&#45;&gt;Node13 -->
<g id="edge20" class="edge"><title>Node5&#45;&gt;Node13</title>
<path fill="none" stroke="midnightblue" d="M573.457,-378.048C577.592,-368.328 581.682,-358.716 585.533,-349.663"/>
<polygon fill="none" stroke="midnightblue" points="570.179,-376.814 569.485,-387.386 576.62,-379.554 570.179,-376.814"/>
</g>
<!-- Node6 -->
<g id="node5" class="node"><title>Node6</title>
<polygon fill="none" stroke="#bfbfbf" points="473.5,-853.5 473.5,-910.5 502.5,-910.5 502.5,-853.5 473.5,-853.5"/>
<text text-anchor="middle" x="488" y="-898.5" font-family="Helvetica,sans-Serif" font-size="10.00">int</text>
<polyline fill="none" stroke="#bfbfbf" points="473.5,-891.5 502.5,-891.5 "/>
<text text-anchor="middle" x="488" y="-879.5" font-family="Helvetica,sans-Serif" font-size="10.00"> </text>
<polyline fill="none" stroke="#bfbfbf" points="473.5,-872.5 502.5,-872.5 "/>
<text text-anchor="middle" x="488" y="-860.5" font-family="Helvetica,sans-Serif" font-size="10.00"> </text>
</g>
<!-- Node6&#45;&gt;Node2 -->
<g id="edge24" class="edge"><title>Node6&#45;&gt;Node2</title>
<path fill="none" stroke="#404040" d="M473.405,-856.272C453.456,-822.475 417.354,-761.31 392.789,-719.692"/>
<polygon fill="none" stroke="#404040" points="392.754,-719.633 386.26,-716.5 386.655,-709.299 393.149,-712.433 392.754,-719.633"/>
<text text-anchor="middle" x="469" y="-781.5" font-family="Helvetica,sans-Serif" font-size="10.00"> &#45;power</text>
</g>
<!-- Node6&#45;&gt;Node5 -->
<g id="edge5" class="edge"><title>Node6&#45;&gt;Node5</title>
<path fill="none" stroke="#404040" d="M491.025,-853.286C496.437,-803.689 508.137,-696.474 518,-606 519,-596.824 520.041,-587.279 521.082,-577.721"/>
<polygon fill="none" stroke="#404040" points="521.1,-577.563 517.773,-571.165 522.4,-565.633 525.726,-572.031 521.1,-577.563"/>
<text text-anchor="middle" x="553.5" y="-711" font-family="Helvetica,sans-Serif" font-size="10.00"> #speed</text>
<text text-anchor="middle" x="553.5" y="-700" font-family="Helvetica,sans-Serif" font-size="10.00">#luck</text>
<text text-anchor="middle" x="553.5" y="-689" font-family="Helvetica,sans-Serif" font-size="10.00">#health</text>
<text text-anchor="middle" x="553.5" y="-678" font-family="Helvetica,sans-Serif" font-size="10.00">#magic</text>
<text text-anchor="middle" x="553.5" y="-667" font-family="Helvetica,sans-Serif" font-size="10.00">#maximumMagic</text>
<text text-anchor="middle" x="553.5" y="-656" font-family="Helvetica,sans-Serif" font-size="10.00">#attack</text>
<text text-anchor="middle" x="553.5" y="-645" font-family="Helvetica,sans-Serif" font-size="10.00">#defence</text>
<text text-anchor="middle" x="553.5" y="-634" font-family="Helvetica,sans-Serif" font-size="10.00">#level</text>
</g>
<!-- Node6&#45;&gt;Node7 -->
<g id="edge10" class="edge"><title>Node6&#45;&gt;Node7</title>
<path fill="none" stroke="#404040" d="M502.741,-878.432C528.888,-873.096 583.411,-858.324 613,-824 637.156,-795.979 616.335,-775.337 636,-744 641.029,-735.986 647.27,-728.355 653.998,-721.296"/>
<polygon fill="none" stroke="#404040" points="654.188,-721.108 655.646,-714.046 662.726,-712.675 661.268,-719.737 654.188,-721.108"/>
<text text-anchor="middle" x="653.5" y="-781.5" font-family="Helvetica,sans-Serif" font-size="10.00"> #magic</text>
</g>
<!-- Node6&#45;&gt;Node10 -->
<g id="edge17" class="edge"><title>Node6&#45;&gt;Node10</title>
<path fill="none" stroke="#404040" d="M473.453,-870.517C460.009,-861.395 439.127,-848.629 419,-842 356.482,-821.411 324.471,-863.74 272,-824 257.214,-812.802 181,-610.116 181,-596 181,-596 181,-596 181,-292.5 181,-262.898 183.717,-230.971 187.322,-201.635"/>
<polygon fill="none" stroke="#404040" points="187.33,-201.572 184.127,-195.111 188.858,-189.67 192.062,-196.13 187.33,-201.572"/>
<text text-anchor="middle" x="200.5" y="-474" font-family="Helvetica,sans-Serif" font-size="10.00"> +money</text>
</g>
<!-- Node6&#45;&gt;Node11 -->
<g id="edge16" class="edge"><title>Node6&#45;&gt;Node11</title>
<path fill="none" stroke="#404040" d="M473.363,-872.306C424.385,-843.068 268.595,-748.857 256,-726 219.348,-659.487 233.838,-427.813 241.463,-334.198"/>
<polygon fill="none" stroke="#404040" points="241.467,-334.152 237.98,-327.84 242.466,-322.194 245.953,-328.506 241.467,-334.152"/>
<text text-anchor="middle" x="257" y="-592.5" font-family="Helvetica,sans-Serif" font-size="10.00"> &#45;expGiven</text>
</g>
<!-- Node6&#45;&gt;Node13 -->
<g id="edge23" class="edge"><title>Node6&#45;&gt;Node13</title>
<path fill="none" stroke="#404040" d="M502.609,-865.257C526.285,-838.754 572.636,-782.559 595,-726 642.924,-604.8 632.204,-449.168 620.395,-361.797"/>
<polygon fill="none" stroke="#404040" points="620.361,-361.556 615.565,-356.172 618.69,-349.673 623.487,-355.058 620.361,-361.556"/>
<text text-anchor="middle" x="664.5" y="-598" font-family="Helvetica,sans-Serif" font-size="10.00"> &#45;expToNextLevel</text>
<text text-anchor="middle" x="664.5" y="-587" font-family="Helvetica,sans-Serif" font-size="10.00">&#45;exp</text>
</g>
<!-- Node7&#45;&gt;Node5 -->
<g id="edge6" class="edge"><title>Node7&#45;&gt;Node5</title>
<path fill="none" stroke="#404040" d="M662.982,-648.957C646.564,-640.778 628.088,-631.797 611,-624 592.151,-615.4 581.719,-621.524 568,-606 560.428,-597.432 554.437,-587.391 549.7,-576.764"/>
<polygon fill="none" stroke="#404040" points="549.658,-576.657 543.716,-572.571 545.203,-565.514 551.145,-569.601 549.658,-576.657"/>
<text text-anchor="middle" x="590.5" y="-598" font-family="Helvetica,sans-Serif" font-size="10.00"> #special1</text>
<text text-anchor="middle" x="590.5" y="-587" font-family="Helvetica,sans-Serif" font-size="10.00">#special2</text>
</g>
<!-- Node8 -->
<g id="node7" class="node"><title>Node8</title>
<polygon fill="none" stroke="#bfbfbf" points="725.5,-853.5 725.5,-910.5 760.5,-910.5 760.5,-853.5 725.5,-853.5"/>
<text text-anchor="middle" x="743" y="-898.5" font-family="Helvetica,sans-Serif" font-size="10.00">float</text>
<polyline fill="none" stroke="#bfbfbf" points="725.5,-891.5 760.5,-891.5 "/>
<text text-anchor="middle" x="743" y="-879.5" font-family="Helvetica,sans-Serif" font-size="10.00"> </text>
<polyline fill="none" stroke="#bfbfbf" points="725.5,-872.5 760.5,-872.5 "/>
<text text-anchor="middle" x="743" y="-860.5" font-family="Helvetica,sans-Serif" font-size="10.00"> </text>
</g>
<!-- Node8&#45;&gt;Node7 -->
<g id="edge9" class="edge"><title>Node8&#45;&gt;Node7</title>
<path fill="none" stroke="#404040" d="M734.216,-853.396C731.547,-844.134 728.838,-833.695 727,-824 721.685,-795.961 718.164,-764.554 715.878,-737.909"/>
<polygon fill="none" stroke="#404040" points="715.853,-737.601 711.381,-731.945 714.883,-725.641 719.355,-731.298 715.853,-737.601"/>
<text text-anchor="middle" x="747" y="-781.5" font-family="Helvetica,sans-Serif" font-size="10.00"> #special</text>
</g>
<!-- Node9 -->
<g id="node8" class="node"><title>Node9</title>
<polygon fill="none" stroke="#bfbfbf" points="434.5,-646.5 434.5,-703.5 495.5,-703.5 495.5,-646.5 434.5,-646.5"/>
<text text-anchor="middle" x="465" y="-691.5" font-family="Helvetica,sans-Serif" font-size="10.00">Texture2D</text>
<polyline fill="none" stroke="#bfbfbf" points="434.5,-684.5 495.5,-684.5 "/>
<text text-anchor="middle" x="465" y="-672.5" font-family="Helvetica,sans-Serif" font-size="10.00"> </text>
<polyline fill="none" stroke="#bfbfbf" points="434.5,-665.5 495.5,-665.5 "/>
<text text-anchor="middle" x="465" y="-653.5" font-family="Helvetica,sans-Serif" font-size="10.00"> </text>
</g>
<!-- Node9&#45;&gt;Node5 -->
<g id="edge11" class="edge"><title>Node9&#45;&gt;Node5</title>
<path fill="none" stroke="#404040" d="M468.805,-646.399C471.708,-628.367 476.35,-604.458 483,-584 483.731,-581.75 484.498,-579.485 485.294,-577.21"/>
<polygon fill="none" stroke="#404040" points="485.353,-577.048 483.674,-570.035 489.502,-565.788 491.181,-572.801 485.353,-577.048"/>
<text text-anchor="middle" x="500.5" y="-592.5" font-family="Helvetica,sans-Serif" font-size="10.00"> #image</text>
</g>
<!-- Node10&#45;&gt;Node3 -->
<g id="edge12" class="edge"><title>Node10&#45;&gt;Node3</title>
<path fill="none" stroke="#404040" d="M146.728,-164.515C122.097,-200.287 99,-246.18 99,-292.5 99,-676 99,-676 99,-676 99,-782.423 233.971,-841.039 312.345,-866.106"/>
<polygon fill="none" stroke="#404040" points="312.48,-866.147 319.396,-864.105 323.941,-869.703 317.025,-871.745 312.48,-866.147"/>
<text text-anchor="middle" x="122" y="-474" font-family="Helvetica,sans-Serif" font-size="10.00"> #manager</text>
</g>
<!-- Node11&#45;&gt;Node10 -->
<g id="edge14" class="edge"><title>Node11&#45;&gt;Node10</title>
<path fill="none" stroke="#404040" d="M239.354,-264.763C235.909,-247.839 231.263,-225.016 226.503,-201.632"/>
<polygon fill="none" stroke="#404040" points="226.479,-201.516 221.363,-196.435 224.085,-189.757 229.202,-194.839 226.479,-201.516"/>
<text text-anchor="middle" x="248" y="-211" font-family="Helvetica,sans-Serif" font-size="10.00"> &#45;enemy</text>
</g>
<!-- Node12 -->
<g id="node11" class="node"><title>Node12</title>
<polygon fill="none" stroke="#bfbfbf" points="296.5,-265 296.5,-322 331.5,-322 331.5,-265 296.5,-265"/>
<text text-anchor="middle" x="314" y="-310" font-family="Helvetica,sans-Serif" font-size="10.00">bool</text>
<polyline fill="none" stroke="#bfbfbf" points="296.5,-303 331.5,-303 "/>
<text text-anchor="middle" x="314" y="-291" font-family="Helvetica,sans-Serif" font-size="10.00"> </text>
<polyline fill="none" stroke="#bfbfbf" points="296.5,-284 331.5,-284 "/>
<text text-anchor="middle" x="314" y="-272" font-family="Helvetica,sans-Serif" font-size="10.00"> </text>
</g>
<!-- Node12&#45;&gt;Node10 -->
<g id="edge18" class="edge"><title>Node12&#45;&gt;Node10</title>
<path fill="none" stroke="#404040" d="M301.077,-264.915C296.741,-255.942 291.789,-245.983 287,-237 280.612,-225.017 273.74,-212.576 266.79,-200.269"/>
<polygon fill="none" stroke="#404040" points="266.6,-199.936 260.158,-196.696 260.671,-189.503 267.114,-192.743 266.6,-199.936"/>
<text text-anchor="middle" x="310" y="-211" font-family="Helvetica,sans-Serif" font-size="10.00"> &#45;wasCriticalHit</text>
</g>
<!-- Node13&#45;&gt;Node10 -->
<g id="edge19" class="edge"><title>Node13&#45;&gt;Node10</title>
<path fill="none" stroke="#404040" d="M552.826,-265.178C480.085,-229.797 353.324,-168.143 274.572,-129.839"/>
<polygon fill="none" stroke="#404040" points="274.105,-129.612 266.96,-130.584 263.314,-124.363 270.459,-123.39 274.105,-129.612"/>
<text text-anchor="middle" x="472.5" y="-211" font-family="Helvetica,sans-Serif" font-size="10.00"> &#45;player</text>
</g>
<!-- Node14&#45;&gt;Node13 -->
<g id="edge21" class="edge"><title>Node14&#45;&gt;Node13</title>
<path fill="none" stroke="#404040" d="M857.239,-744.367C847.15,-703.35 828.613,-637.227 803,-584 763.465,-501.84 703.247,-416.088 660.399,-359.444"/>
<polygon fill="none" stroke="#404040" points="660.145,-359.112 653.328,-356.76 652.877,-349.563 659.694,-351.915 660.145,-359.112"/>
<text text-anchor="middle" x="825.5" y="-592.5" font-family="Helvetica,sans-Serif" font-size="10.00"> &#45;item</text>
</g>
</g>
</svg>
