<?xml version="1.0" encoding="UTF-8" standalone="no"?>
<!DOCTYPE svg PUBLIC "-//W3C//DTD SVG 1.1//EN"
 "http://www.w3.org/Graphics/SVG/1.1/DTD/svg11.dtd">
<!-- Generated by graphviz version 2.38.0 (20140413.2041)
 -->
<!-- Title: SpecialMove Pages: 1 -->
<!--zoomable 408 -->
<svg id="main" version="1.1" xmlns="http://www.w3.org/2000/svg" xmlns:xlink="http://www.w3.org/1999/xlink" xml:space="preserve" onload="init(evt)">
<style type="text/css"><![CDATA[
.edge:hover path { stroke: red; }
.edge:hover polygon { stroke: red; fill: red; }
]]></style>
<script type="text/javascript"><![CDATA[
var edges = document.getElementsByTagName('g');
if (edges && edges.length) {
  for (var i=0;i<edges.length;i++) {
    if (edges[i].id.substr(0,4)=='edge') {
      edges[i].setAttribute('class','edge');
    }
  }
}
]]></script>
        <defs>
                <circle id="rim" cx="0" cy="0" r="7"/>
                <circle id="rim2" cx="0" cy="0" r="3.5"/>
                <g id="zoomPlus">
                        <use xlink:href="#rim" fill="#404040">
                                <set attributeName="fill" to="#808080" begin="zoomplus.mouseover" end="zoomplus.mouseout"/>
                        </use>
                        <path d="M-4,0h8M0,-4v8" fill="none" stroke="white" stroke-width="1.5" pointer-events="none"/>
                </g>
                <g id="zoomMin">
                        <use xlink:href="#rim" fill="#404040">
                                <set attributeName="fill" to="#808080" begin="zoomminus.mouseover" end="zoomminus.mouseout"/>
                        </use>
                        <path d="M-4,0h8" fill="none" stroke="white" stroke-width="1.5" pointer-events="none"/>
                </g>
                <g id="dirArrow">
                        <path fill="none" stroke="white" stroke-width="1.5" d="M0,-3.0v7 M-2.5,-0.5L0,-3.0L2.5,-0.5"/>
                </g>
               <g id="resetDef">
                       <use xlink:href="#rim2" fill="#404040">
                               <set attributeName="fill" to="#808080" begin="reset.mouseover" end="reset.mouseout"/>
                       </use>
               </g>
        </defs>

<script type="text/javascript">
var viewWidth = 742;
var viewHeight = 408;
var sectionId = 'dynsection-0';
</script>
<script xlink:href="svgpan.js"/>
<svg id="graph" class="graph">
<g id="viewport">
<title>SpecialMove</title>
<!-- Node0 -->
<g id="node1" class="node"><title>Node0</title>
<polygon fill="#bfbfbf" stroke="black" points="324,-105.5 324,-239.5 422,-239.5 422,-105.5 324,-105.5"/>
<text text-anchor="middle" x="373" y="-227.5" font-family="Helvetica,sans-Serif" font-size="10.00">SpecialMove</text>
<polyline fill="none" stroke="black" points="324,-220.5 422,-220.5 "/>
<text text-anchor="start" x="332" y="-208.5" font-family="Helvetica,sans-Serif" font-size="10.00">+ Magic</text>
<text text-anchor="start" x="332" y="-197.5" font-family="Helvetica,sans-Serif" font-size="10.00">+ Desc</text>
<text text-anchor="start" x="332" y="-186.5" font-family="Helvetica,sans-Serif" font-size="10.00">+ Special</text>
<text text-anchor="start" x="332" y="-175.5" font-family="Helvetica,sans-Serif" font-size="10.00"># desc</text>
<text text-anchor="start" x="332" y="-164.5" font-family="Helvetica,sans-Serif" font-size="10.00"># magic</text>
<text text-anchor="start" x="332" y="-153.5" font-family="Helvetica,sans-Serif" font-size="10.00"># special</text>
<polyline fill="none" stroke="black" points="324,-146.5 422,-146.5 "/>
<text text-anchor="start" x="332" y="-134.5" font-family="Helvetica,sans-Serif" font-size="10.00">+ setUp()</text>
<text text-anchor="start" x="332" y="-123.5" font-family="Helvetica,sans-Serif" font-size="10.00">+ decreaseMagic()</text>
<text text-anchor="start" x="332" y="-112.5" font-family="Helvetica,sans-Serif" font-size="10.00"># SpecialMove()</text>
</g>
<!-- Node2 -->
<g id="node3" class="node"><title>Node2</title>
<g id="a_node3"><a xlink:href="class_healing_spell.html" target="_top" xlink:title="Heal a target by a set amount of health points">
<polygon fill="none" stroke="black" points="0,-0.5 0,-68.5 86,-68.5 86,-0.5 0,-0.5"/>
<text text-anchor="middle" x="43" y="-56.5" font-family="Helvetica,sans-Serif" font-size="10.00">HealingSpell</text>
<polyline fill="none" stroke="black" points="0,-49.5 86,-49.5 "/>
<text text-anchor="middle" x="43" y="-37.5" font-family="Helvetica,sans-Serif" font-size="10.00"> </text>
<polyline fill="none" stroke="black" points="0,-30.5 86,-30.5 "/>
<text text-anchor="start" x="8" y="-18.5" font-family="Helvetica,sans-Serif" font-size="10.00">+ HealingSpell()</text>
<text text-anchor="start" x="8" y="-7.5" font-family="Helvetica,sans-Serif" font-size="10.00">+ performMove()</text>
</a>
</g>
</g>
<!-- Node0&#45;&gt;Node2 -->
<g id="edge2" class="edge"><title>Node0&#45;&gt;Node2</title>
<path fill="none" stroke="midnightblue" d="M314.315,-154.006C256.959,-135.956 167.883,-105.362 95,-69 92.1172,-67.5617 89.1959,-66.0005 86.2848,-64.3649"/>
<polygon fill="none" stroke="midnightblue" points="313.353,-157.372 323.942,-157.011 315.439,-150.69 313.353,-157.372"/>
</g>
<!-- Node3 -->
<g id="node4" class="node"><title>Node3</title>
<g id="a_node4"><a xlink:href="class_increase_money.html" target="_top" xlink:title="Increases the money reward of a battle">
<polygon fill="none" stroke="black" points="104,-0.5 104,-68.5 202,-68.5 202,-0.5 104,-0.5"/>
<text text-anchor="middle" x="153" y="-56.5" font-family="Helvetica,sans-Serif" font-size="10.00">IncreaseMoney</text>
<polyline fill="none" stroke="black" points="104,-49.5 202,-49.5 "/>
<text text-anchor="middle" x="153" y="-37.5" font-family="Helvetica,sans-Serif" font-size="10.00"> </text>
<polyline fill="none" stroke="black" points="104,-30.5 202,-30.5 "/>
<text text-anchor="start" x="112" y="-18.5" font-family="Helvetica,sans-Serif" font-size="10.00">+ IncreaseMoney()</text>
<text text-anchor="start" x="112" y="-7.5" font-family="Helvetica,sans-Serif" font-size="10.00">+ performMove()</text>
</a>
</g>
</g>
<!-- Node0&#45;&gt;Node3 -->
<g id="edge3" class="edge"><title>Node0&#45;&gt;Node3</title>
<path fill="none" stroke="midnightblue" d="M315.189,-135.763C280.092,-114.066 235.768,-86.6654 202.328,-65.9939"/>
<polygon fill="none" stroke="midnightblue" points="313.555,-138.867 323.902,-141.148 317.236,-132.913 313.555,-138.867"/>
</g>
<!-- Node4 -->
<g id="node5" class="node"><title>Node4</title>
<g id="a_node5"><a xlink:href="class_lower_defence.html" target="_top" xlink:title="Lower&#39;s the target&#39;s defence ">
<polygon fill="none" stroke="black" points="220,-0.5 220,-68.5 312,-68.5 312,-0.5 220,-0.5"/>
<text text-anchor="middle" x="266" y="-56.5" font-family="Helvetica,sans-Serif" font-size="10.00">LowerDefence</text>
<polyline fill="none" stroke="black" points="220,-49.5 312,-49.5 "/>
<text text-anchor="middle" x="266" y="-37.5" font-family="Helvetica,sans-Serif" font-size="10.00"> </text>
<polyline fill="none" stroke="black" points="220,-30.5 312,-30.5 "/>
<text text-anchor="start" x="228" y="-18.5" font-family="Helvetica,sans-Serif" font-size="10.00">+ LowerDefence()</text>
<text text-anchor="start" x="228" y="-7.5" font-family="Helvetica,sans-Serif" font-size="10.00">+ performMove()</text>
</a>
</g>
</g>
<!-- Node0&#45;&gt;Node4 -->
<g id="edge4" class="edge"><title>Node0&#45;&gt;Node4</title>
<path fill="none" stroke="midnightblue" d="M317.69,-101.199C308.74,-89.8239 299.858,-78.5345 292.047,-68.6063"/>
<polygon fill="none" stroke="midnightblue" points="314.95,-103.378 323.884,-109.073 320.452,-99.0492 314.95,-103.378"/>
</g>
<!-- Node5 -->
<g id="node6" class="node"><title>Node5</title>
<g id="a_node6"><a xlink:href="class_lower_speed.html" target="_top" xlink:title="Lower&#39;s the target&#39;s speed ">
<polygon fill="none" stroke="black" points="330,-0.5 330,-68.5 416,-68.5 416,-0.5 330,-0.5"/>
<text text-anchor="middle" x="373" y="-56.5" font-family="Helvetica,sans-Serif" font-size="10.00">LowerSpeed</text>
<polyline fill="none" stroke="black" points="330,-49.5 416,-49.5 "/>
<text text-anchor="middle" x="373" y="-37.5" font-family="Helvetica,sans-Serif" font-size="10.00"> </text>
<polyline fill="none" stroke="black" points="330,-30.5 416,-30.5 "/>
<text text-anchor="start" x="338" y="-18.5" font-family="Helvetica,sans-Serif" font-size="10.00">+ LowerSpeed()</text>
<text text-anchor="start" x="338" y="-7.5" font-family="Helvetica,sans-Serif" font-size="10.00">+ performMove()</text>
</a>
</g>
</g>
<!-- Node0&#45;&gt;Node5 -->
<g id="edge5" class="edge"><title>Node0&#45;&gt;Node5</title>
<path fill="none" stroke="midnightblue" d="M373,-95.3667C373,-86.0791 373,-76.9969 373,-68.8265"/>
<polygon fill="none" stroke="midnightblue" points="369.5,-95.4919 373,-105.492 376.5,-95.492 369.5,-95.4919"/>
</g>
<!-- Node6 -->
<g id="node7" class="node"><title>Node6</title>
<g id="a_node7"><a xlink:href="class_magic_attack.html" target="_top" xlink:title="An attack move that uses magic ">
<polygon fill="none" stroke="black" points="434,-0.5 434,-68.5 520,-68.5 520,-0.5 434,-0.5"/>
<text text-anchor="middle" x="477" y="-56.5" font-family="Helvetica,sans-Serif" font-size="10.00">MagicAttack</text>
<polyline fill="none" stroke="black" points="434,-49.5 520,-49.5 "/>
<text text-anchor="middle" x="477" y="-37.5" font-family="Helvetica,sans-Serif" font-size="10.00"> </text>
<polyline fill="none" stroke="black" points="434,-30.5 520,-30.5 "/>
<text text-anchor="start" x="442" y="-18.5" font-family="Helvetica,sans-Serif" font-size="10.00">+ MagicAttack()</text>
<text text-anchor="start" x="442" y="-7.5" font-family="Helvetica,sans-Serif" font-size="10.00">+ performMove()</text>
</a>
</g>
</g>
<!-- Node0&#45;&gt;Node6 -->
<g id="edge6" class="edge"><title>Node0&#45;&gt;Node6</title>
<path fill="none" stroke="midnightblue" d="M428.47,-98.9625C436.58,-88.3566 444.578,-77.8986 451.668,-68.6267"/>
<polygon fill="none" stroke="midnightblue" points="425.553,-97.0148 422.259,-107.084 431.114,-101.267 425.553,-97.0148"/>
</g>
<!-- Node7 -->
<g id="node8" class="node"><title>Node7</title>
<g id="a_node8"><a xlink:href="class_raise_attack.html" target="_top" xlink:title="Raise the target&#39;s attack stat">
<polygon fill="none" stroke="black" points="538,-0.5 538,-68.5 624,-68.5 624,-0.5 538,-0.5"/>
<text text-anchor="middle" x="581" y="-56.5" font-family="Helvetica,sans-Serif" font-size="10.00">RaiseAttack</text>
<polyline fill="none" stroke="black" points="538,-49.5 624,-49.5 "/>
<text text-anchor="middle" x="581" y="-37.5" font-family="Helvetica,sans-Serif" font-size="10.00"> </text>
<polyline fill="none" stroke="black" points="538,-30.5 624,-30.5 "/>
<text text-anchor="start" x="546" y="-18.5" font-family="Helvetica,sans-Serif" font-size="10.00">+ RaiseAttack()</text>
<text text-anchor="start" x="546" y="-7.5" font-family="Helvetica,sans-Serif" font-size="10.00">+ performMove()</text>
</a>
</g>
</g>
<!-- Node0&#45;&gt;Node7 -->
<g id="edge7" class="edge"><title>Node0&#45;&gt;Node7</title>
<path fill="none" stroke="midnightblue" d="M430.481,-133.916C464.48,-111.686 506.832,-83.9947 537.942,-63.6532"/>
<polygon fill="none" stroke="midnightblue" points="428.484,-131.04 422.03,-139.442 432.315,-136.899 428.484,-131.04"/>
</g>
<!-- Node8 -->
<g id="node9" class="node"><title>Node8</title>
<g id="a_node9"><a xlink:href="class_raise_defence.html" target="_top" xlink:title="Raises the target&#39;s defence stat">
<polygon fill="none" stroke="black" points="642,-0.5 642,-68.5 734,-68.5 734,-0.5 642,-0.5"/>
<text text-anchor="middle" x="688" y="-56.5" font-family="Helvetica,sans-Serif" font-size="10.00">RaiseDefence</text>
<polyline fill="none" stroke="black" points="642,-49.5 734,-49.5 "/>
<text text-anchor="middle" x="688" y="-37.5" font-family="Helvetica,sans-Serif" font-size="10.00"> </text>
<polyline fill="none" stroke="black" points="642,-30.5 734,-30.5 "/>
<text text-anchor="start" x="650" y="-18.5" font-family="Helvetica,sans-Serif" font-size="10.00">+ RaiseDefence()</text>
<text text-anchor="start" x="650" y="-7.5" font-family="Helvetica,sans-Serif" font-size="10.00">+ performMove()</text>
</a>
</g>
</g>
<!-- Node0&#45;&gt;Node8 -->
<g id="edge8" class="edge"><title>Node0&#45;&gt;Node8</title>
<path fill="none" stroke="midnightblue" d="M432.152,-151.461C485.676,-132.564 566.124,-102.242 633,-69 635.903,-67.5568 638.855,-66.0107 641.806,-64.4035"/>
<polygon fill="none" stroke="midnightblue" points="430.758,-148.241 422.481,-154.854 433.076,-154.846 430.758,-148.241"/>
</g>
<!-- Node1 -->
<g id="node2" class="node"><title>Node1</title>
<g id="a_node2"><a xlink:href="class_character_move.html" target="_top" xlink:title="Astract base class for character moves ">
<polygon fill="none" stroke="black" points="330,-276.5 330,-399.5 416,-399.5 416,-276.5 330,-276.5"/>
<text text-anchor="middle" x="373" y="-387.5" font-family="Helvetica,sans-Serif" font-size="10.00">CharacterMove</text>
<polyline fill="none" stroke="black" points="330,-380.5 416,-380.5 "/>
<text text-anchor="start" x="338" y="-368.5" font-family="Helvetica,sans-Serif" font-size="10.00">+ User</text>
<text text-anchor="start" x="338" y="-357.5" font-family="Helvetica,sans-Serif" font-size="10.00">+ Target</text>
<text text-anchor="start" x="338" y="-346.5" font-family="Helvetica,sans-Serif" font-size="10.00">+ Text</text>
<text text-anchor="start" x="338" y="-335.5" font-family="Helvetica,sans-Serif" font-size="10.00"># manager</text>
<text text-anchor="start" x="338" y="-324.5" font-family="Helvetica,sans-Serif" font-size="10.00"># user</text>
<text text-anchor="start" x="338" y="-313.5" font-family="Helvetica,sans-Serif" font-size="10.00"># target</text>
<text text-anchor="start" x="338" y="-302.5" font-family="Helvetica,sans-Serif" font-size="10.00"># text</text>
<polyline fill="none" stroke="black" points="330,-295.5 416,-295.5 "/>
<text text-anchor="start" x="338" y="-283.5" font-family="Helvetica,sans-Serif" font-size="10.00">+ performMove()</text>
</a>
</g>
</g>
<!-- Node1&#45;&gt;Node0 -->
<g id="edge1" class="edge"><title>Node1&#45;&gt;Node0</title>
<path fill="none" stroke="midnightblue" d="M373,-265.958C373,-257.217 373,-248.309 373,-239.645"/>
<polygon fill="none" stroke="midnightblue" points="369.5,-266.119 373,-276.119 376.5,-266.119 369.5,-266.119"/>
</g>
</g>
</svg>
        <g id="navigator" transform="translate(0 0)" fill="#404254">
                <rect fill="#f2f5e9" fill-opacity="0.5" stroke="#606060" stroke-width=".5" x="0" y="0" width="60" height="60"/>
                <use id="zoomplus" xlink:href="#zoomPlus" x="17" y="9" onmousedown="handleZoom(evt,'in')"/>
                <use id="zoomminus" xlink:href="#zoomMin" x="42" y="9" onmousedown="handleZoom(evt,'out')"/>
                <use id="reset" xlink:href="#resetDef" x="30" y="36" onmousedown="handleReset()"/>
                <g id="arrowUp" xlink:href="#dirArrow" transform="translate(30 24)" onmousedown="handlePan(0,-1)">
                  <use xlink:href="#rim" fill="#404040">
                        <set attributeName="fill" to="#808080" begin="arrowUp.mouseover" end="arrowUp.mouseout"/>
                  </use>
                  <path fill="none" stroke="white" stroke-width="1.5" d="M0,-3.0v7 M-2.5,-0.5L0,-3.0L2.5,-0.5"/>
                </g>
                <g id="arrowRight" xlink:href="#dirArrow" transform="rotate(90) translate(36 -43)" onmousedown="handlePan(1,0)">
                  <use xlink:href="#rim" fill="#404040">
                        <set attributeName="fill" to="#808080" begin="arrowRight.mouseover" end="arrowRight.mouseout"/>
                  </use>
                  <path fill="none" stroke="white" stroke-width="1.5" d="M0,-3.0v7 M-2.5,-0.5L0,-3.0L2.5,-0.5"/>
                </g>
                <g id="arrowDown" xlink:href="#dirArrow" transform="rotate(180) translate(-30 -48)" onmousedown="handlePan(0,1)">
                  <use xlink:href="#rim" fill="#404040">
                        <set attributeName="fill" to="#808080" begin="arrowDown.mouseover" end="arrowDown.mouseout"/>
                  </use>
                  <path fill="none" stroke="white" stroke-width="1.5" d="M0,-3.0v7 M-2.5,-0.5L0,-3.0L2.5,-0.5"/>
                </g>
                <g id="arrowLeft" xlink:href="#dirArrow" transform="rotate(270) translate(-36 17)" onmousedown="handlePan(-1,0)">
                  <use xlink:href="#rim" fill="#404040">
                        <set attributeName="fill" to="#808080" begin="arrowLeft.mouseover" end="arrowLeft.mouseout"/>
                  </use>
                  <path fill="none" stroke="white" stroke-width="1.5" d="M0,-3.0v7 M-2.5,-0.5L0,-3.0L2.5,-0.5"/>
                </g>
        </g>
        <svg viewBox="0 0 15 15" width="100%" height="30px" preserveAspectRatio="xMaxYMin meet">
         <g id="arrow_out" transform="scale(0.3 0.3)">
          <a xlink:href="class_special_move__inherit__graph_org.svg" target="_base">
           <rect id="button" ry="5" rx="5" y="6" x="6" height="38" width="38"
                fill="#f2f5e9" fill-opacity="0.5" stroke="#606060" stroke-width="1.0"/>
           <path id="arrow"
             d="M 11.500037,31.436501 C 11.940474,20.09759 22.043105,11.32322 32.158766,21.979434 L 37.068811,17.246167 C 37.068811,17.246167 37.088388,32 37.088388,32 L 22.160133,31.978069 C 22.160133,31.978069 26.997745,27.140456 26.997745,27.140456 C 18.528582,18.264221 13.291696,25.230495 11.500037,31.436501 z"
             style="fill:#404040;"/>
          </a>
         </g>
        </svg>
</svg>
