<?xml version="1.0" encoding="UTF-8" standalone="no"?>
<!DOCTYPE svg PUBLIC "-//W3C//DTD SVG 1.1//EN"
 "http://www.w3.org/Graphics/SVG/1.1/DTD/svg11.dtd">
<!-- Generated by graphviz version 2.38.0 (20140413.2041)
 -->
<!-- Title: CharacterMove Pages: 1 -->
<svg width="742pt" height="408pt"
 viewBox="0.00 0.00 742.00 408.00" xmlns="http://www.w3.org/2000/svg" xmlns:xlink="http://www.w3.org/1999/xlink">
<g id="graph0" class="graph" transform="scale(1 1) rotate(0) translate(4 404)">
<title>CharacterMove</title>
<!-- Node0 -->
<g id="node1" class="node"><title>Node0</title>
<polygon fill="#bfbfbf" stroke="black" points="447,-276.5 447,-399.5 533,-399.5 533,-276.5 447,-276.5"/>
<text text-anchor="middle" x="490" y="-387.5" font-family="Helvetica,sans-Serif" font-size="10.00">CharacterMove</text>
<polyline fill="none" stroke="black" points="447,-380.5 533,-380.5 "/>
<text text-anchor="start" x="455" y="-368.5" font-family="Helvetica,sans-Serif" font-size="10.00">+ User</text>
<text text-anchor="start" x="455" y="-357.5" font-family="Helvetica,sans-Serif" font-size="10.00">+ Target</text>
<text text-anchor="start" x="455" y="-346.5" font-family="Helvetica,sans-Serif" font-size="10.00">+ Text</text>
<text text-anchor="start" x="455" y="-335.5" font-family="Helvetica,sans-Serif" font-size="10.00"># manager</text>
<text text-anchor="start" x="455" y="-324.5" font-family="Helvetica,sans-Serif" font-size="10.00"># user</text>
<text text-anchor="start" x="455" y="-313.5" font-family="Helvetica,sans-Serif" font-size="10.00"># target</text>
<text text-anchor="start" x="455" y="-302.5" font-family="Helvetica,sans-Serif" font-size="10.00"># text</text>
<polyline fill="none" stroke="black" points="447,-295.5 533,-295.5 "/>
<text text-anchor="start" x="455" y="-283.5" font-family="Helvetica,sans-Serif" font-size="10.00">+ performMove()</text>
</g>
<!-- Node1 -->
<g id="node2" class="node"><title>Node1</title>
<g id="a_node2"><a xlink:href="class_special_move.html" target="_top" xlink:title="Special move abstract base class that expands upon CharacterMove, adding magic properties ...">
<polygon fill="none" stroke="black" points="324,-105.5 324,-239.5 422,-239.5 422,-105.5 324,-105.5"/>
<text text-anchor="middle" x="373" y="-227.5" font-family="Helvetica,sans-Serif" font-size="10.00">SpecialMove</text>
<polyline fill="none" stroke="black" points="324,-220.5 422,-220.5 "/>
<text text-anchor="start" x="332" y="-208.5" font-family="Helvetica,sans-Serif" font-size="10.00">+ Magic</text>
<text text-anchor="start" x="332" y="-197.5" font-family="Helvetica,sans-Serif" font-size="10.00">+ Desc</text>
<text text-anchor="start" x="332" y="-186.5" font-family="Helvetica,sans-Serif" font-size="10.00">+ Special</text>
<text text-anchor="start" x="332" y="-175.5" font-family="Helvetica,sans-Serif" font-size="10.00"># desc</text>
<text text-anchor="start" x="332" y="-164.5" font-family="Helvetica,sans-Serif" font-size="10.00"># magic</text>
<text text-anchor="start" x="332" y="-153.5" font-family="Helvetica,sans-Serif" font-size="10.00"># special</text>
<polyline fill="none" stroke="black" points="324,-146.5 422,-146.5 "/>
<text text-anchor="start" x="332" y="-134.5" font-family="Helvetica,sans-Serif" font-size="10.00">+ setUp()</text>
<text text-anchor="start" x="332" y="-123.5" font-family="Helvetica,sans-Serif" font-size="10.00">+ decreaseMagic()</text>
<text text-anchor="start" x="332" y="-112.5" font-family="Helvetica,sans-Serif" font-size="10.00"># SpecialMove()</text>
</a>
</g>
</g>
<!-- Node0&#45;&gt;Node1 -->
<g id="edge1" class="edge"><title>Node0&#45;&gt;Node1</title>
<path fill="none" stroke="midnightblue" d="M440.862,-268.333C434.083,-258.86 427.132,-249.146 420.385,-239.718"/>
<polygon fill="none" stroke="midnightblue" points="438.1,-270.488 446.766,-276.583 443.793,-266.414 438.1,-270.488"/>
</g>
<!-- Node9 -->
<g id="node10" class="node"><title>Node9</title>
<g id="a_node10"><a xlink:href="class_standard_attack.html" target="_top" xlink:title="Basic standard attack ">
<polygon fill="none" stroke="black" points="440.5,-138.5 440.5,-206.5 539.5,-206.5 539.5,-138.5 440.5,-138.5"/>
<text text-anchor="middle" x="490" y="-194.5" font-family="Helvetica,sans-Serif" font-size="10.00">StandardAttack</text>
<polyline fill="none" stroke="black" points="440.5,-187.5 539.5,-187.5 "/>
<text text-anchor="start" x="448.5" y="-175.5" font-family="Helvetica,sans-Serif" font-size="10.00">&#45; power</text>
<polyline fill="none" stroke="black" points="440.5,-168.5 539.5,-168.5 "/>
<text text-anchor="start" x="448.5" y="-156.5" font-family="Helvetica,sans-Serif" font-size="10.00">+ StandardAttack()</text>
<text text-anchor="start" x="448.5" y="-145.5" font-family="Helvetica,sans-Serif" font-size="10.00">+ performMove()</text>
</a>
</g>
</g>
<!-- Node0&#45;&gt;Node9 -->
<g id="edge9" class="edge"><title>Node0&#45;&gt;Node9</title>
<path fill="none" stroke="midnightblue" d="M490,-266.115C490,-245.535 490,-224.021 490,-206.913"/>
<polygon fill="none" stroke="midnightblue" points="486.5,-266.119 490,-276.119 493.5,-266.119 486.5,-266.119"/>
</g>
<!-- Node10 -->
<g id="node11" class="node"><title>Node10</title>
<g id="a_node11"><a xlink:href="class_switch_players.html" target="_top" xlink:title="Simple move to swap out the current player ">
<polygon fill="none" stroke="black" points="558,-138.5 558,-206.5 652,-206.5 652,-138.5 558,-138.5"/>
<text text-anchor="middle" x="605" y="-194.5" font-family="Helvetica,sans-Serif" font-size="10.00">SwitchPlayers</text>
<polyline fill="none" stroke="black" points="558,-187.5 652,-187.5 "/>
<text text-anchor="middle" x="605" y="-175.5" font-family="Helvetica,sans-Serif" font-size="10.00"> </text>
<polyline fill="none" stroke="black" points="558,-168.5 652,-168.5 "/>
<text text-anchor="start" x="566" y="-156.5" font-family="Helvetica,sans-Serif" font-size="10.00">+ SwitchPlayers()</text>
<text text-anchor="start" x="566" y="-145.5" font-family="Helvetica,sans-Serif" font-size="10.00">+ performMove()</text>
</a>
</g>
</g>
<!-- Node0&#45;&gt;Node10 -->
<g id="edge10" class="edge"><title>Node0&#45;&gt;Node10</title>
<path fill="none" stroke="midnightblue" d="M538.675,-267.796C553.505,-246.712 569.137,-224.487 581.498,-206.913"/>
<polygon fill="none" stroke="midnightblue" points="535.712,-265.926 532.822,-276.119 541.438,-269.953 535.712,-265.926"/>
</g>
<!-- Node2 -->
<g id="node3" class="node"><title>Node2</title>
<g id="a_node3"><a xlink:href="class_healing_spell.html" target="_top" xlink:title="Heal a target by a set amount of health points">
<polygon fill="none" stroke="black" points="0,-0.5 0,-68.5 86,-68.5 86,-0.5 0,-0.5"/>
<text text-anchor="middle" x="43" y="-56.5" font-family="Helvetica,sans-Serif" font-size="10.00">HealingSpell</text>
<polyline fill="none" stroke="black" points="0,-49.5 86,-49.5 "/>
<text text-anchor="middle" x="43" y="-37.5" font-family="Helvetica,sans-Serif" font-size="10.00"> </text>
<polyline fill="none" stroke="black" points="0,-30.5 86,-30.5 "/>
<text text-anchor="start" x="8" y="-18.5" font-family="Helvetica,sans-Serif" font-size="10.00">+ HealingSpell()</text>
<text text-anchor="start" x="8" y="-7.5" font-family="Helvetica,sans-Serif" font-size="10.00">+ performMove()</text>
</a>
</g>
</g>
<!-- Node1&#45;&gt;Node2 -->
<g id="edge2" class="edge"><title>Node1&#45;&gt;Node2</title>
<path fill="none" stroke="midnightblue" d="M314.315,-154.006C256.959,-135.956 167.883,-105.362 95,-69 92.1172,-67.5617 89.1959,-66.0005 86.2848,-64.3649"/>
<polygon fill="none" stroke="midnightblue" points="313.353,-157.372 323.942,-157.011 315.439,-150.69 313.353,-157.372"/>
</g>
<!-- Node3 -->
<g id="node4" class="node"><title>Node3</title>
<g id="a_node4"><a xlink:href="class_increase_money.html" target="_top" xlink:title="Increases the money reward of a battle">
<polygon fill="none" stroke="black" points="104,-0.5 104,-68.5 202,-68.5 202,-0.5 104,-0.5"/>
<text text-anchor="middle" x="153" y="-56.5" font-family="Helvetica,sans-Serif" font-size="10.00">IncreaseMoney</text>
<polyline fill="none" stroke="black" points="104,-49.5 202,-49.5 "/>
<text text-anchor="middle" x="153" y="-37.5" font-family="Helvetica,sans-Serif" font-size="10.00"> </text>
<polyline fill="none" stroke="black" points="104,-30.5 202,-30.5 "/>
<text text-anchor="start" x="112" y="-18.5" font-family="Helvetica,sans-Serif" font-size="10.00">+ IncreaseMoney()</text>
<text text-anchor="start" x="112" y="-7.5" font-family="Helvetica,sans-Serif" font-size="10.00">+ performMove()</text>
</a>
</g>
</g>
<!-- Node1&#45;&gt;Node3 -->
<g id="edge3" class="edge"><title>Node1&#45;&gt;Node3</title>
<path fill="none" stroke="midnightblue" d="M315.189,-135.763C280.092,-114.066 235.768,-86.6654 202.328,-65.9939"/>
<polygon fill="none" stroke="midnightblue" points="313.555,-138.867 323.902,-141.148 317.236,-132.913 313.555,-138.867"/>
</g>
<!-- Node4 -->
<g id="node5" class="node"><title>Node4</title>
<g id="a_node5"><a xlink:href="class_lower_defence.html" target="_top" xlink:title="Lower&#39;s the target&#39;s defence ">
<polygon fill="none" stroke="black" points="220,-0.5 220,-68.5 312,-68.5 312,-0.5 220,-0.5"/>
<text text-anchor="middle" x="266" y="-56.5" font-family="Helvetica,sans-Serif" font-size="10.00">LowerDefence</text>
<polyline fill="none" stroke="black" points="220,-49.5 312,-49.5 "/>
<text text-anchor="middle" x="266" y="-37.5" font-family="Helvetica,sans-Serif" font-size="10.00"> </text>
<polyline fill="none" stroke="black" points="220,-30.5 312,-30.5 "/>
<text text-anchor="start" x="228" y="-18.5" font-family="Helvetica,sans-Serif" font-size="10.00">+ LowerDefence()</text>
<text text-anchor="start" x="228" y="-7.5" font-family="Helvetica,sans-Serif" font-size="10.00">+ performMove()</text>
</a>
</g>
</g>
<!-- Node1&#45;&gt;Node4 -->
<g id="edge4" class="edge"><title>Node1&#45;&gt;Node4</title>
<path fill="none" stroke="midnightblue" d="M317.69,-101.199C308.74,-89.8239 299.858,-78.5345 292.047,-68.6063"/>
<polygon fill="none" stroke="midnightblue" points="314.95,-103.378 323.884,-109.073 320.452,-99.0492 314.95,-103.378"/>
</g>
<!-- Node5 -->
<g id="node6" class="node"><title>Node5</title>
<g id="a_node6"><a xlink:href="class_lower_speed.html" target="_top" xlink:title="Lower&#39;s the target&#39;s speed ">
<polygon fill="none" stroke="black" points="330,-0.5 330,-68.5 416,-68.5 416,-0.5 330,-0.5"/>
<text text-anchor="middle" x="373" y="-56.5" font-family="Helvetica,sans-Serif" font-size="10.00">LowerSpeed</text>
<polyline fill="none" stroke="black" points="330,-49.5 416,-49.5 "/>
<text text-anchor="middle" x="373" y="-37.5" font-family="Helvetica,sans-Serif" font-size="10.00"> </text>
<polyline fill="none" stroke="black" points="330,-30.5 416,-30.5 "/>
<text text-anchor="start" x="338" y="-18.5" font-family="Helvetica,sans-Serif" font-size="10.00">+ LowerSpeed()</text>
<text text-anchor="start" x="338" y="-7.5" font-family="Helvetica,sans-Serif" font-size="10.00">+ performMove()</text>
</a>
</g>
</g>
<!-- Node1&#45;&gt;Node5 -->
<g id="edge5" class="edge"><title>Node1&#45;&gt;Node5</title>
<path fill="none" stroke="midnightblue" d="M373,-95.3667C373,-86.0791 373,-76.9969 373,-68.8265"/>
<polygon fill="none" stroke="midnightblue" points="369.5,-95.4919 373,-105.492 376.5,-95.492 369.5,-95.4919"/>
</g>
<!-- Node6 -->
<g id="node7" class="node"><title>Node6</title>
<g id="a_node7"><a xlink:href="class_magic_attack.html" target="_top" xlink:title="An attack move that uses magic ">
<polygon fill="none" stroke="black" points="434,-0.5 434,-68.5 520,-68.5 520,-0.5 434,-0.5"/>
<text text-anchor="middle" x="477" y="-56.5" font-family="Helvetica,sans-Serif" font-size="10.00">MagicAttack</text>
<polyline fill="none" stroke="black" points="434,-49.5 520,-49.5 "/>
<text text-anchor="middle" x="477" y="-37.5" font-family="Helvetica,sans-Serif" font-size="10.00"> </text>
<polyline fill="none" stroke="black" points="434,-30.5 520,-30.5 "/>
<text text-anchor="start" x="442" y="-18.5" font-family="Helvetica,sans-Serif" font-size="10.00">+ MagicAttack()</text>
<text text-anchor="start" x="442" y="-7.5" font-family="Helvetica,sans-Serif" font-size="10.00">+ performMove()</text>
</a>
</g>
</g>
<!-- Node1&#45;&gt;Node6 -->
<g id="edge6" class="edge"><title>Node1&#45;&gt;Node6</title>
<path fill="none" stroke="midnightblue" d="M428.47,-98.9625C436.58,-88.3566 444.578,-77.8986 451.668,-68.6267"/>
<polygon fill="none" stroke="midnightblue" points="425.553,-97.0148 422.259,-107.084 431.114,-101.267 425.553,-97.0148"/>
</g>
<!-- Node7 -->
<g id="node8" class="node"><title>Node7</title>
<g id="a_node8"><a xlink:href="class_raise_attack.html" target="_top" xlink:title="Raise the target&#39;s attack stat">
<polygon fill="none" stroke="black" points="538,-0.5 538,-68.5 624,-68.5 624,-0.5 538,-0.5"/>
<text text-anchor="middle" x="581" y="-56.5" font-family="Helvetica,sans-Serif" font-size="10.00">RaiseAttack</text>
<polyline fill="none" stroke="black" points="538,-49.5 624,-49.5 "/>
<text text-anchor="middle" x="581" y="-37.5" font-family="Helvetica,sans-Serif" font-size="10.00"> </text>
<polyline fill="none" stroke="black" points="538,-30.5 624,-30.5 "/>
<text text-anchor="start" x="546" y="-18.5" font-family="Helvetica,sans-Serif" font-size="10.00">+ RaiseAttack()</text>
<text text-anchor="start" x="546" y="-7.5" font-family="Helvetica,sans-Serif" font-size="10.00">+ performMove()</text>
</a>
</g>
</g>
<!-- Node1&#45;&gt;Node7 -->
<g id="edge7" class="edge"><title>Node1&#45;&gt;Node7</title>
<path fill="none" stroke="midnightblue" d="M430.453,-106.079C430.967,-105.714 431.483,-105.354 432,-105 469.947,-79.0264 487.874,-89.5729 529,-69 531.881,-67.5586 534.801,-65.9951 537.712,-64.3577"/>
<polygon fill="none" stroke="midnightblue" points="428.043,-103.518 422.279,-112.407 432.329,-109.053 428.043,-103.518"/>
</g>
<!-- Node8 -->
<g id="node9" class="node"><title>Node8</title>
<g id="a_node9"><a xlink:href="class_raise_defence.html" target="_top" xlink:title="Raises the target&#39;s defence stat">
<polygon fill="none" stroke="black" points="642,-0.5 642,-68.5 734,-68.5 734,-0.5 642,-0.5"/>
<text text-anchor="middle" x="688" y="-56.5" font-family="Helvetica,sans-Serif" font-size="10.00">RaiseDefence</text>
<polyline fill="none" stroke="black" points="642,-49.5 734,-49.5 "/>
<text text-anchor="middle" x="688" y="-37.5" font-family="Helvetica,sans-Serif" font-size="10.00"> </text>
<polyline fill="none" stroke="black" points="642,-30.5 734,-30.5 "/>
<text text-anchor="start" x="650" y="-18.5" font-family="Helvetica,sans-Serif" font-size="10.00">+ RaiseDefence()</text>
<text text-anchor="start" x="650" y="-7.5" font-family="Helvetica,sans-Serif" font-size="10.00">+ performMove()</text>
</a>
</g>
</g>
<!-- Node1&#45;&gt;Node8 -->
<g id="edge8" class="edge"><title>Node1&#45;&gt;Node8</title>
<path fill="none" stroke="midnightblue" d="M430.742,-105.72C431.16,-105.476 431.579,-105.236 432,-105 511.155,-60.604 548.132,-101.153 633,-69 635.927,-67.8909 638.872,-66.6237 641.796,-65.2461"/>
<polygon fill="none" stroke="midnightblue" points="428.598,-102.943 422.202,-111.389 432.469,-108.775 428.598,-102.943"/>
</g>
</g>
</svg>
