<?xml version="1.0" encoding="UTF-8" standalone="no"?>
<!DOCTYPE svg PUBLIC "-//W3C//DTD SVG 1.1//EN"
 "http://www.w3.org/Graphics/SVG/1.1/DTD/svg11.dtd">
<!-- Generated by graphviz version 2.38.0 (20140413.2041)
 -->
<!-- Title: RaiseDefence Pages: 1 -->
<!--zoomable 1067 -->
<svg id="main" version="1.1" xmlns="http://www.w3.org/2000/svg" xmlns:xlink="http://www.w3.org/1999/xlink" xml:space="preserve" onload="init(evt)">
<style type="text/css"><![CDATA[
.edge:hover path { stroke: red; }
.edge:hover polygon { stroke: red; fill: red; }
]]></style>
<script type="text/javascript"><![CDATA[
var edges = document.getElementsByTagName('g');
if (edges && edges.length) {
  for (var i=0;i<edges.length;i++) {
    if (edges[i].id.substr(0,4)=='edge') {
      edges[i].setAttribute('class','edge');
    }
  }
}
]]></script>
        <defs>
                <circle id="rim" cx="0" cy="0" r="7"/>
                <circle id="rim2" cx="0" cy="0" r="3.5"/>
                <g id="zoomPlus">
                        <use xlink:href="#rim" fill="#404040">
                                <set attributeName="fill" to="#808080" begin="zoomplus.mouseover" end="zoomplus.mouseout"/>
                        </use>
                        <path d="M-4,0h8M0,-4v8" fill="none" stroke="white" stroke-width="1.5" pointer-events="none"/>
                </g>
                <g id="zoomMin">
                        <use xlink:href="#rim" fill="#404040">
                                <set attributeName="fill" to="#808080" begin="zoomminus.mouseover" end="zoomminus.mouseout"/>
                        </use>
                        <path d="M-4,0h8" fill="none" stroke="white" stroke-width="1.5" pointer-events="none"/>
                </g>
                <g id="dirArrow">
                        <path fill="none" stroke="white" stroke-width="1.5" d="M0,-3.0v7 M-2.5,-0.5L0,-3.0L2.5,-0.5"/>
                </g>
               <g id="resetDef">
                       <use xlink:href="#rim2" fill="#404040">
                               <set attributeName="fill" to="#808080" begin="reset.mouseover" end="reset.mouseout"/>
                       </use>
               </g>
        </defs>

<script type="text/javascript">
var viewWidth = 790;
var viewHeight = 1067;
var sectionId = 'dynsection-1';
</script>
<script xlink:href="svgpan.js"/>
<svg id="graph" class="graph">
<g id="viewport">
<title>RaiseDefence</title>
<!-- Node3 -->
<g id="node1" class="node"><title>Node3</title>
<polygon fill="#bfbfbf" stroke="black" points="100.5,-601.5 100.5,-669.5 192.5,-669.5 192.5,-601.5 100.5,-601.5"/>
<text text-anchor="middle" x="146.5" y="-657.5" font-family="Helvetica,sans-Serif" font-size="10.00">RaiseDefence</text>
<polyline fill="none" stroke="black" points="100.5,-650.5 192.5,-650.5 "/>
<text text-anchor="middle" x="146.5" y="-638.5" font-family="Helvetica,sans-Serif" font-size="10.00"> </text>
<polyline fill="none" stroke="black" points="100.5,-631.5 192.5,-631.5 "/>
<text text-anchor="start" x="108.5" y="-619.5" font-family="Helvetica,sans-Serif" font-size="10.00">+ RaiseDefence()</text>
<text text-anchor="start" x="108.5" y="-608.5" font-family="Helvetica,sans-Serif" font-size="10.00">+ performMove()</text>
</g>
<!-- Node4 -->
<g id="node2" class="node"><title>Node4</title>
<g id="a_node2"><a xlink:href="class_special_move.html" target="_top" xlink:title="Special move abstract base class that expands upon CharacterMove, adding magic properties ...">
<polygon fill="none" stroke="black" points="138.5,-841.5 138.5,-942.5 236.5,-942.5 236.5,-841.5 138.5,-841.5"/>
<text text-anchor="middle" x="187.5" y="-930.5" font-family="Helvetica,sans-Serif" font-size="10.00">SpecialMove</text>
<polyline fill="none" stroke="black" points="138.5,-923.5 236.5,-923.5 "/>
<text text-anchor="start" x="146.5" y="-911.5" font-family="Helvetica,sans-Serif" font-size="10.00">+ Magic</text>
<text text-anchor="start" x="146.5" y="-900.5" font-family="Helvetica,sans-Serif" font-size="10.00">+ Desc</text>
<text text-anchor="start" x="146.5" y="-889.5" font-family="Helvetica,sans-Serif" font-size="10.00">+ Special</text>
<polyline fill="none" stroke="black" points="138.5,-882.5 236.5,-882.5 "/>
<text text-anchor="start" x="146.5" y="-870.5" font-family="Helvetica,sans-Serif" font-size="10.00">+ setUp()</text>
<text text-anchor="start" x="146.5" y="-859.5" font-family="Helvetica,sans-Serif" font-size="10.00">+ decreaseMagic()</text>
<text text-anchor="start" x="146.5" y="-848.5" font-family="Helvetica,sans-Serif" font-size="10.00"># SpecialMove()</text>
</a>
</g>
</g>
<!-- Node4&#45;&gt;Node3 -->
<g id="edge1" class="edge"><title>Node4&#45;&gt;Node3</title>
<path fill="none" stroke="midnightblue" d="M177.87,-831.222C169.762,-780.893 158.462,-710.752 151.87,-669.835"/>
<polygon fill="none" stroke="midnightblue" points="174.451,-832.01 179.497,-841.326 181.362,-830.896 174.451,-832.01"/>
</g>
<!-- Node7 -->
<g id="node5" class="node"><title>Node7</title>
<g id="a_node5"><a xlink:href="class_character.html" target="_top" xlink:title="Base abstract class for Enemy and Player to inherit from. Defines all shared variables, their constructor and their setters and getters ">
<polygon fill="none" stroke="black" points="430,-546.5 430,-724.5 525,-724.5 525,-546.5 430,-546.5"/>
<text text-anchor="middle" x="477.5" y="-712.5" font-family="Helvetica,sans-Serif" font-size="10.00">Character</text>
<polyline fill="none" stroke="black" points="430,-705.5 525,-705.5 "/>
<text text-anchor="start" x="438" y="-693.5" font-family="Helvetica,sans-Serif" font-size="10.00">+ Name</text>
<text text-anchor="start" x="438" y="-682.5" font-family="Helvetica,sans-Serif" font-size="10.00">+ Level</text>
<text text-anchor="start" x="438" y="-671.5" font-family="Helvetica,sans-Serif" font-size="10.00">+ Health</text>
<text text-anchor="start" x="438" y="-660.5" font-family="Helvetica,sans-Serif" font-size="10.00">+ Attack</text>
<text text-anchor="start" x="438" y="-649.5" font-family="Helvetica,sans-Serif" font-size="10.00">+ Defence</text>
<text text-anchor="start" x="438" y="-638.5" font-family="Helvetica,sans-Serif" font-size="10.00">+ MaximumMagic</text>
<text text-anchor="start" x="438" y="-627.5" font-family="Helvetica,sans-Serif" font-size="10.00">+ Magic</text>
<text text-anchor="start" x="438" y="-616.5" font-family="Helvetica,sans-Serif" font-size="10.00">+ Luck</text>
<text text-anchor="start" x="438" y="-605.5" font-family="Helvetica,sans-Serif" font-size="10.00">+ Speed</text>
<text text-anchor="start" x="438" y="-594.5" font-family="Helvetica,sans-Serif" font-size="10.00">+ Special1</text>
<text text-anchor="start" x="438" y="-583.5" font-family="Helvetica,sans-Serif" font-size="10.00">+ Special2</text>
<text text-anchor="start" x="438" y="-572.5" font-family="Helvetica,sans-Serif" font-size="10.00">+ Image</text>
<polyline fill="none" stroke="black" points="430,-565.5 525,-565.5 "/>
<text text-anchor="start" x="438" y="-553.5" font-family="Helvetica,sans-Serif" font-size="10.00"># Character()</text>
</a>
</g>
</g>
<!-- Node4&#45;&gt;Node7 -->
<g id="edge7" class="edge"><title>Node4&#45;&gt;Node7</title>
<path fill="none" stroke="#404040" d="M222.47,-841.22C252.331,-798.862 290.878,-744.6 293.5,-743 340.287,-714.451 368.862,-753.792 415.5,-725 417.096,-724.015 418.662,-722.971 420.198,-721.875"/>
<polygon fill="none" stroke="#404040" points="420.603,-721.545 422.719,-714.652 429.897,-713.954 427.78,-720.847 420.603,-721.545"/>
<text text-anchor="middle" x="316" y="-786" font-family="Helvetica,sans-Serif" font-size="10.00"> #special1</text>
<text text-anchor="middle" x="316" y="-775" font-family="Helvetica,sans-Serif" font-size="10.00">#special2</text>
</g>
<!-- Node5 -->
<g id="node3" class="node"><title>Node5</title>
<g id="a_node3"><a xlink:href="class_character_move.html" target="_top" xlink:title="Astract base class for character moves ">
<polygon fill="none" stroke="black" points="272.5,-0.5 272.5,-79.5 358.5,-79.5 358.5,-0.5 272.5,-0.5"/>
<text text-anchor="middle" x="315.5" y="-67.5" font-family="Helvetica,sans-Serif" font-size="10.00">CharacterMove</text>
<polyline fill="none" stroke="black" points="272.5,-60.5 358.5,-60.5 "/>
<text text-anchor="start" x="280.5" y="-48.5" font-family="Helvetica,sans-Serif" font-size="10.00">+ User</text>
<text text-anchor="start" x="280.5" y="-37.5" font-family="Helvetica,sans-Serif" font-size="10.00">+ Target</text>
<text text-anchor="start" x="280.5" y="-26.5" font-family="Helvetica,sans-Serif" font-size="10.00">+ Text</text>
<polyline fill="none" stroke="black" points="272.5,-19.5 358.5,-19.5 "/>
<text text-anchor="start" x="280.5" y="-7.5" font-family="Helvetica,sans-Serif" font-size="10.00">+ performMove()</text>
</a>
</g>
</g>
<!-- Node5&#45;&gt;Node4 -->
<g id="edge2" class="edge"><title>Node5&#45;&gt;Node4</title>
<path fill="none" stroke="midnightblue" d="M274.801,-87.7207C249.016,-122.156 220.5,-171.44 220.5,-221 220.5,-636.5 220.5,-636.5 220.5,-636.5 220.5,-708.009 207.529,-789.889 197.851,-841.027"/>
<polygon fill="none" stroke="midnightblue" points="277.62,-89.7961 280.934,-79.7328 272.068,-85.5332 277.62,-89.7961"/>
</g>
<!-- Node6 -->
<g id="node4" class="node"><title>Node6</title>
<polygon fill="none" stroke="#bfbfbf" points="244,-1001.5 244,-1058.5 285,-1058.5 285,-1001.5 244,-1001.5"/>
<text text-anchor="middle" x="264.5" y="-1046.5" font-family="Helvetica,sans-Serif" font-size="10.00">string</text>
<polyline fill="none" stroke="#bfbfbf" points="244,-1039.5 285,-1039.5 "/>
<text text-anchor="middle" x="264.5" y="-1027.5" font-family="Helvetica,sans-Serif" font-size="10.00"> </text>
<polyline fill="none" stroke="#bfbfbf" points="244,-1020.5 285,-1020.5 "/>
<text text-anchor="middle" x="264.5" y="-1008.5" font-family="Helvetica,sans-Serif" font-size="10.00"> </text>
</g>
<!-- Node6&#45;&gt;Node4 -->
<g id="edge21" class="edge"><title>Node6&#45;&gt;Node4</title>
<path fill="none" stroke="#404040" d="M243.715,-1010.81C235.63,-1002.9 226.813,-993.129 220.5,-983 214.936,-974.072 210.108,-964.066 205.991,-954.058"/>
<polygon fill="none" stroke="#404040" points="205.972,-954.009 200.077,-949.855 201.645,-942.816 207.539,-946.97 205.972,-954.009"/>
<text text-anchor="middle" x="235.5" y="-969.5" font-family="Helvetica,sans-Serif" font-size="10.00"> #desc</text>
</g>
<!-- Node6&#45;&gt;Node5 -->
<g id="edge3" class="edge"><title>Node6&#45;&gt;Node5</title>
<path fill="none" stroke="#404040" d="M243.953,-1024.76C194.422,-1013.21 72.5,-976.331 72.5,-893 72.5,-893 72.5,-893 72.5,-221 72.5,-127.876 189.158,-77.3852 260.815,-55.155"/>
<polygon fill="none" stroke="#404040" points="260.841,-55.1472 265.441,-49.5932 272.336,-51.7026 267.737,-57.2566 260.841,-55.1472"/>
<text text-anchor="middle" x="85" y="-520" font-family="Helvetica,sans-Serif" font-size="10.00"> #text</text>
</g>
<!-- Node6&#45;&gt;Node7 -->
<g id="edge5" class="edge"><title>Node6&#45;&gt;Node7</title>
<path fill="none" stroke="#404040" d="M285.091,-1018.38C298.992,-1010.31 316.86,-998.042 328.5,-983 369.919,-929.474 336.291,-889.496 383.5,-841 397.951,-826.154 412.829,-838.567 426.5,-823 438.592,-809.231 449.647,-773.282 458.349,-736.578"/>
<polygon fill="none" stroke="#404040" points="458.4,-736.356 455.847,-729.612 461.09,-724.661 463.643,-731.405 458.4,-736.356"/>
<text text-anchor="middle" x="400" y="-889.5" font-family="Helvetica,sans-Serif" font-size="10.00"> #name</text>
</g>
<!-- Node10 -->
<g id="node8" class="node"><title>Node10</title>
<g id="a_node8"><a xlink:href="class_battle_manager.html" target="_top" xlink:title="Holds current Player and Enemy objects in battle and provides functions for MainBattle and other obje...">
<polygon fill="none" stroke="black" points="469.5,-127.5 469.5,-316.5 585.5,-316.5 585.5,-127.5 469.5,-127.5"/>
<text text-anchor="middle" x="527.5" y="-304.5" font-family="Helvetica,sans-Serif" font-size="10.00">BattleManager</text>
<polyline fill="none" stroke="black" points="469.5,-297.5 585.5,-297.5 "/>
<text text-anchor="start" x="477.5" y="-285.5" font-family="Helvetica,sans-Serif" font-size="10.00">+ Player</text>
<text text-anchor="start" x="477.5" y="-274.5" font-family="Helvetica,sans-Serif" font-size="10.00">+ Enemy</text>
<text text-anchor="start" x="477.5" y="-263.5" font-family="Helvetica,sans-Serif" font-size="10.00">+ WasCriticalHit</text>
<polyline fill="none" stroke="black" points="469.5,-256.5 585.5,-256.5 "/>
<text text-anchor="start" x="477.5" y="-244.5" font-family="Helvetica,sans-Serif" font-size="10.00">+ BattleManager()</text>
<text text-anchor="start" x="477.5" y="-233.5" font-family="Helvetica,sans-Serif" font-size="10.00">+ playerFirst()</text>
<text text-anchor="start" x="477.5" y="-222.5" font-family="Helvetica,sans-Serif" font-size="10.00">+ switchPlayers()</text>
<text text-anchor="start" x="477.5" y="-211.5" font-family="Helvetica,sans-Serif" font-size="10.00">+ isCriticalHit()</text>
<text text-anchor="start" x="477.5" y="-200.5" font-family="Helvetica,sans-Serif" font-size="10.00">+ ranAway()</text>
<text text-anchor="start" x="477.5" y="-189.5" font-family="Helvetica,sans-Serif" font-size="10.00">+ damageCalculation()</text>
<text text-anchor="start" x="477.5" y="-178.5" font-family="Helvetica,sans-Serif" font-size="10.00">+ enemyMove()</text>
<text text-anchor="start" x="477.5" y="-167.5" font-family="Helvetica,sans-Serif" font-size="10.00">+ enemySpecialMove()</text>
<text text-anchor="start" x="477.5" y="-156.5" font-family="Helvetica,sans-Serif" font-size="10.00">+ battleWon()</text>
<text text-anchor="start" x="477.5" y="-145.5" font-family="Helvetica,sans-Serif" font-size="10.00">+ playerFainted()</text>
<text text-anchor="start" x="477.5" y="-134.5" font-family="Helvetica,sans-Serif" font-size="10.00">&#45; characterFainted()</text>
</a>
</g>
</g>
<!-- Node6&#45;&gt;Node10 -->
<g id="edge10" class="edge"><title>Node6&#45;&gt;Node10</title>
<path fill="none" stroke="#404040" d="M261.003,-1001.39C252.44,-926.5 234.264,-713.884 279.5,-546 307.232,-443.081 326.066,-417.547 393.5,-335 412.55,-311.681 436.986,-289.599 459.762,-271.303"/>
<polygon fill="none" stroke="#404040" points="459.979,-271.133 462.213,-264.276 469.402,-263.702 467.167,-270.558 459.979,-271.133"/>
<text text-anchor="middle" x="321.5" y="-638.5" font-family="Helvetica,sans-Serif" font-size="10.00"> +forceEnemyMove</text>
<text text-anchor="middle" x="321.5" y="-627.5" font-family="Helvetica,sans-Serif" font-size="10.00">+forceCriticalHits</text>
</g>
<!-- Node14 -->
<g id="node12" class="node"><title>Node14</title>
<g id="a_node12"><a xlink:href="class_item.html" target="_top" xlink:title="Abstract class for items that can be equipped to a player, increasing some of their stats ...">
<polygon fill="none" stroke="black" points="348,-743.5 348,-822.5 425,-822.5 425,-743.5 348,-743.5"/>
<text text-anchor="middle" x="386.5" y="-810.5" font-family="Helvetica,sans-Serif" font-size="10.00">Item</text>
<polyline fill="none" stroke="black" points="348,-803.5 425,-803.5 "/>
<text text-anchor="start" x="356" y="-791.5" font-family="Helvetica,sans-Serif" font-size="10.00">+ Name</text>
<text text-anchor="start" x="356" y="-780.5" font-family="Helvetica,sans-Serif" font-size="10.00">+ Desc</text>
<polyline fill="none" stroke="black" points="348,-773.5 425,-773.5 "/>
<text text-anchor="start" x="356" y="-761.5" font-family="Helvetica,sans-Serif" font-size="10.00">+ applyBuffs()</text>
<text text-anchor="start" x="356" y="-750.5" font-family="Helvetica,sans-Serif" font-size="10.00">+ revertBuffs()</text>
</a>
</g>
</g>
<!-- Node6&#45;&gt;Node14 -->
<g id="edge19" class="edge"><title>Node6&#45;&gt;Node14</title>
<path fill="none" stroke="#404040" d="M276.339,-1001.5C292.5,-964.492 322.857,-896.869 352.5,-841 353.844,-838.466 355.249,-835.887 356.688,-833.294"/>
<polygon fill="none" stroke="#404040" points="356.813,-833.075 356.303,-825.882 362.746,-822.644 363.256,-829.837 356.813,-833.075"/>
<text text-anchor="middle" x="309.5" y="-975" font-family="Helvetica,sans-Serif" font-size="10.00"> #desc</text>
<text text-anchor="middle" x="309.5" y="-964" font-family="Helvetica,sans-Serif" font-size="10.00">#name</text>
</g>
<!-- Node7&#45;&gt;Node5 -->
<g id="edge4" class="edge"><title>Node7&#45;&gt;Node5</title>
<path fill="none" stroke="#404040" d="M453.416,-546.306C449.114,-530.553 444.674,-514.291 440.5,-499 400.053,-350.84 352.262,-175.714 329.246,-91.3741"/>
<polygon fill="none" stroke="#404040" points="329.193,-91.1799 323.755,-86.4446 326.034,-79.6032 331.473,-84.3385 329.193,-91.1799"/>
<text text-anchor="middle" x="418.5" y="-349" font-family="Helvetica,sans-Serif" font-size="10.00"> #target</text>
<text text-anchor="middle" x="418.5" y="-338" font-family="Helvetica,sans-Serif" font-size="10.00">#user</text>
</g>
<!-- Node11 -->
<g id="node9" class="node"><title>Node11</title>
<g id="a_node9"><a xlink:href="class_enemy.html" target="_top" xlink:title="Defines an AI controller enemy to fight in battle scenes">
<polygon fill="none" stroke="black" points="683,-408.5 683,-465.5 750,-465.5 750,-408.5 683,-408.5"/>
<text text-anchor="middle" x="716.5" y="-453.5" font-family="Helvetica,sans-Serif" font-size="10.00">Enemy</text>
<polyline fill="none" stroke="black" points="683,-446.5 750,-446.5 "/>
<text text-anchor="start" x="691" y="-434.5" font-family="Helvetica,sans-Serif" font-size="10.00">+ ExpGiven</text>
<polyline fill="none" stroke="black" points="683,-427.5 750,-427.5 "/>
<text text-anchor="start" x="691" y="-415.5" font-family="Helvetica,sans-Serif" font-size="10.00">+ Enemy()</text>
</a>
</g>
</g>
<!-- Node7&#45;&gt;Node11 -->
<g id="edge12" class="edge"><title>Node7&#45;&gt;Node11</title>
<path fill="none" stroke="midnightblue" d="M532.866,-588.979C579.276,-550.823 644.023,-497.589 682.944,-465.589"/>
<polygon fill="none" stroke="midnightblue" points="530.506,-586.389 525.004,-595.443 534.952,-591.796 530.506,-586.389"/>
</g>
<!-- Node13 -->
<g id="node11" class="node"><title>Node13</title>
<g id="a_node11"><a xlink:href="class_player.html" target="_top" xlink:title="Defines a playable character for use in battle scenes">
<polygon fill="none" stroke="black" points="503.5,-375.5 503.5,-498.5 615.5,-498.5 615.5,-375.5 503.5,-375.5"/>
<text text-anchor="middle" x="559.5" y="-486.5" font-family="Helvetica,sans-Serif" font-size="10.00">Player</text>
<polyline fill="none" stroke="black" points="503.5,-479.5 615.5,-479.5 "/>
<text text-anchor="start" x="511.5" y="-467.5" font-family="Helvetica,sans-Serif" font-size="10.00">+ Exp</text>
<text text-anchor="start" x="511.5" y="-456.5" font-family="Helvetica,sans-Serif" font-size="10.00">+ Item</text>
<text text-anchor="start" x="511.5" y="-445.5" font-family="Helvetica,sans-Serif" font-size="10.00">+ ExpToNextLevel</text>
<polyline fill="none" stroke="black" points="503.5,-438.5 615.5,-438.5 "/>
<text text-anchor="start" x="511.5" y="-426.5" font-family="Helvetica,sans-Serif" font-size="10.00">+ Player()</text>
<text text-anchor="start" x="511.5" y="-415.5" font-family="Helvetica,sans-Serif" font-size="10.00">+ gainExp()</text>
<text text-anchor="start" x="511.5" y="-404.5" font-family="Helvetica,sans-Serif" font-size="10.00">+ levelUp()</text>
<text text-anchor="start" x="511.5" y="-393.5" font-family="Helvetica,sans-Serif" font-size="10.00">+ Clone()</text>
<text text-anchor="start" x="511.5" y="-382.5" font-family="Helvetica,sans-Serif" font-size="10.00">&#45; setExpToNextLevel()</text>
</a>
</g>
</g>
<!-- Node7&#45;&gt;Node13 -->
<g id="edge17" class="edge"><title>Node7&#45;&gt;Node13</title>
<path fill="none" stroke="midnightblue" d="M518.256,-536.835C523.695,-523.802 529.139,-510.756 534.206,-498.613"/>
<polygon fill="none" stroke="midnightblue" points="514.924,-535.732 514.302,-546.309 521.384,-538.428 514.924,-535.732"/>
</g>
<!-- Node8 -->
<g id="node6" class="node"><title>Node8</title>
<polygon fill="none" stroke="#bfbfbf" points="612,-1001.5 612,-1058.5 641,-1058.5 641,-1001.5 612,-1001.5"/>
<text text-anchor="middle" x="626.5" y="-1046.5" font-family="Helvetica,sans-Serif" font-size="10.00">int</text>
<polyline fill="none" stroke="#bfbfbf" points="612,-1039.5 641,-1039.5 "/>
<text text-anchor="middle" x="626.5" y="-1027.5" font-family="Helvetica,sans-Serif" font-size="10.00"> </text>
<polyline fill="none" stroke="#bfbfbf" points="612,-1020.5 641,-1020.5 "/>
<text text-anchor="middle" x="626.5" y="-1008.5" font-family="Helvetica,sans-Serif" font-size="10.00"> </text>
</g>
<!-- Node8&#45;&gt;Node4 -->
<g id="edge23" class="edge"><title>Node8&#45;&gt;Node4</title>
<path fill="none" stroke="#404040" d="M611.812,-1024.61C584.668,-1016.48 524.826,-998.505 474.5,-983 396.298,-958.906 306.297,-930.586 248.244,-912.242"/>
<polygon fill="none" stroke="#404040" points="248.156,-912.215 241.23,-914.22 236.714,-908.598 243.641,-906.592 248.156,-912.215"/>
<text text-anchor="middle" x="492" y="-969.5" font-family="Helvetica,sans-Serif" font-size="10.00"> #magic</text>
</g>
<!-- Node8&#45;&gt;Node7 -->
<g id="edge6" class="edge"><title>Node8&#45;&gt;Node7</title>
<path fill="none" stroke="#404040" d="M611.969,-1019.62C591.609,-1005.61 555.114,-977.19 537.5,-943 496.336,-863.097 526.389,-830.876 507.5,-743 507.036,-740.84 506.553,-738.66 506.053,-736.464"/>
<polygon fill="none" stroke="#404040" points="506.014,-736.296 500.737,-731.382 503.244,-724.62 508.521,-729.535 506.014,-736.296"/>
<text text-anchor="middle" x="575" y="-928" font-family="Helvetica,sans-Serif" font-size="10.00"> #speed</text>
<text text-anchor="middle" x="575" y="-917" font-family="Helvetica,sans-Serif" font-size="10.00">#luck</text>
<text text-anchor="middle" x="575" y="-906" font-family="Helvetica,sans-Serif" font-size="10.00">#health</text>
<text text-anchor="middle" x="575" y="-895" font-family="Helvetica,sans-Serif" font-size="10.00">#magic</text>
<text text-anchor="middle" x="575" y="-884" font-family="Helvetica,sans-Serif" font-size="10.00">#maximumMagic</text>
<text text-anchor="middle" x="575" y="-873" font-family="Helvetica,sans-Serif" font-size="10.00">#attack</text>
<text text-anchor="middle" x="575" y="-862" font-family="Helvetica,sans-Serif" font-size="10.00">#defence</text>
<text text-anchor="middle" x="575" y="-851" font-family="Helvetica,sans-Serif" font-size="10.00">#level</text>
</g>
<!-- Node8&#45;&gt;Node10 -->
<g id="edge14" class="edge"><title>Node8&#45;&gt;Node10</title>
<path fill="none" stroke="#404040" d="M641.092,-1004.97C644.53,-998.109 647.712,-990.468 649.5,-983 666.055,-913.841 650.278,-894.112 650.5,-823 651.123,-623.555 687.101,-564.367 624.5,-375 616.893,-351.989 605.016,-328.994 592.146,-308.11"/>
<polygon fill="none" stroke="#404040" points="591.981,-307.85 585.39,-304.926 585.554,-297.716 592.146,-300.641 591.981,-307.85"/>
<text text-anchor="middle" x="680" y="-633" font-family="Helvetica,sans-Serif" font-size="10.00"> +money</text>
</g>
<!-- Node8&#45;&gt;Node11 -->
<g id="edge13" class="edge"><title>Node8&#45;&gt;Node11</title>
<path fill="none" stroke="#404040" d="M641.246,-1020.52C653.559,-1012.55 670.366,-999.416 678.5,-983 763.548,-811.354 738.054,-571.327 723.503,-477.649"/>
<polygon fill="none" stroke="#404040" points="723.483,-477.528 718.581,-472.239 721.577,-465.68 726.479,-470.968 723.483,-477.528"/>
<text text-anchor="middle" x="758.5" y="-780.5" font-family="Helvetica,sans-Serif" font-size="10.00"> &#45;expGiven</text>
</g>
<!-- Node8&#45;&gt;Node13 -->
<g id="edge20" class="edge"><title>Node8&#45;&gt;Node13</title>
<path fill="none" stroke="#404040" d="M632.39,-1001.36C639.133,-962.078 645.395,-889.479 612.5,-841 602.232,-825.868 585.518,-838.299 575.5,-823 543.034,-773.422 547.842,-608.063 553.882,-510.929"/>
<polygon fill="none" stroke="#404040" points="553.888,-510.829 550.283,-504.584 554.661,-498.854 558.266,-505.099 553.888,-510.829"/>
<text text-anchor="middle" x="613" y="-786" font-family="Helvetica,sans-Serif" font-size="10.00"> &#45;expToNextLevel</text>
<text text-anchor="middle" x="613" y="-775" font-family="Helvetica,sans-Serif" font-size="10.00">&#45;exp</text>
</g>
<!-- Node9 -->
<g id="node7" class="node"><title>Node9</title>
<polygon fill="none" stroke="#bfbfbf" points="426,-863.5 426,-920.5 487,-920.5 487,-863.5 426,-863.5"/>
<text text-anchor="middle" x="456.5" y="-908.5" font-family="Helvetica,sans-Serif" font-size="10.00">Texture2D</text>
<polyline fill="none" stroke="#bfbfbf" points="426,-901.5 487,-901.5 "/>
<text text-anchor="middle" x="456.5" y="-889.5" font-family="Helvetica,sans-Serif" font-size="10.00"> </text>
<polyline fill="none" stroke="#bfbfbf" points="426,-882.5 487,-882.5 "/>
<text text-anchor="middle" x="456.5" y="-870.5" font-family="Helvetica,sans-Serif" font-size="10.00"> </text>
</g>
<!-- Node9&#45;&gt;Node7 -->
<g id="edge8" class="edge"><title>Node9&#45;&gt;Node7</title>
<path fill="none" stroke="#404040" d="M458.787,-863.28C461.295,-832.886 465.465,-782.353 469.233,-736.693"/>
<polygon fill="none" stroke="#404040" points="469.245,-736.546 465.752,-730.238 470.232,-724.587 473.725,-730.896 469.245,-736.546"/>
<text text-anchor="middle" x="486" y="-780.5" font-family="Helvetica,sans-Serif" font-size="10.00"> #image</text>
</g>
<!-- Node10&#45;&gt;Node5 -->
<g id="edge9" class="edge"><title>Node10&#45;&gt;Node5</title>
<path fill="none" stroke="#404040" d="M469.27,-141.139C455.925,-125.745 441.053,-110.533 425.5,-98 408.778,-84.5253 388.368,-72.891 369.689,-63.711"/>
<polygon fill="none" stroke="#404040" points="369.471,-63.6076 362.335,-64.6448 358.633,-58.4565 365.769,-57.4193 369.471,-63.6076"/>
<text text-anchor="middle" x="458.5" y="-101" font-family="Helvetica,sans-Serif" font-size="10.00"> #manager</text>
</g>
<!-- Node11&#45;&gt;Node10 -->
<g id="edge11" class="edge"><title>Node11&#45;&gt;Node10</title>
<path fill="none" stroke="#404040" d="M707.298,-408.373C699.269,-386.92 686.137,-357.189 668.5,-335 648.065,-309.29 620.656,-285.82 595.44,-267.081"/>
<polygon fill="none" stroke="#404040" points="595.238,-266.935 588.033,-266.639 585.535,-259.875 592.74,-260.17 595.238,-266.935"/>
<text text-anchor="middle" x="699.5" y="-343.5" font-family="Helvetica,sans-Serif" font-size="10.00"> &#45;enemy</text>
</g>
<!-- Node12 -->
<g id="node10" class="node"><title>Node12</title>
<polygon fill="none" stroke="#bfbfbf" points="450,-408.5 450,-465.5 485,-465.5 485,-408.5 450,-408.5"/>
<text text-anchor="middle" x="467.5" y="-453.5" font-family="Helvetica,sans-Serif" font-size="10.00">bool</text>
<polyline fill="none" stroke="#bfbfbf" points="450,-446.5 485,-446.5 "/>
<text text-anchor="middle" x="467.5" y="-434.5" font-family="Helvetica,sans-Serif" font-size="10.00"> </text>
<polyline fill="none" stroke="#bfbfbf" points="450,-427.5 485,-427.5 "/>
<text text-anchor="middle" x="467.5" y="-415.5" font-family="Helvetica,sans-Serif" font-size="10.00"> </text>
</g>
<!-- Node12&#45;&gt;Node10 -->
<g id="edge15" class="edge"><title>Node12&#45;&gt;Node10</title>
<path fill="none" stroke="#404040" d="M466.674,-408.118C466.726,-387.582 468.19,-359.148 474.5,-335 475.067,-332.831 475.675,-330.653 476.321,-328.47"/>
<polygon fill="none" stroke="#404040" points="476.411,-328.193 474.453,-321.253 480.107,-316.777 482.064,-323.717 476.411,-328.193"/>
<text text-anchor="middle" x="507.5" y="-343.5" font-family="Helvetica,sans-Serif" font-size="10.00"> &#45;wasCriticalHit</text>
</g>
<!-- Node13&#45;&gt;Node10 -->
<g id="edge16" class="edge"><title>Node13&#45;&gt;Node10</title>
<path fill="none" stroke="#404040" d="M550.373,-375.248C548.194,-360.746 545.806,-344.847 543.419,-328.963"/>
<polygon fill="none" stroke="#404040" points="543.382,-328.711 538.534,-323.372 541.599,-316.844 546.446,-322.183 543.382,-328.711"/>
<text text-anchor="middle" x="564" y="-343.5" font-family="Helvetica,sans-Serif" font-size="10.00"> &#45;player</text>
</g>
<!-- Node14&#45;&gt;Node13 -->
<g id="edge18" class="edge"><title>Node14&#45;&gt;Node13</title>
<path fill="none" stroke="#404040" d="M376.628,-743.229C366.262,-693.235 356.351,-605.642 395.5,-546 420.144,-508.456 449.13,-523.555 492.947,-498.443"/>
<polygon fill="none" stroke="#404040" points="492.995,-498.413 495.939,-491.83 503.147,-492.015 500.204,-498.598 492.995,-498.413"/>
<text text-anchor="middle" x="408" y="-633" font-family="Helvetica,sans-Serif" font-size="10.00"> &#45;item</text>
</g>
<!-- Node15 -->
<g id="node13" class="node"><title>Node15</title>
<polygon fill="none" stroke="#bfbfbf" points="0,-1001.5 0,-1058.5 35,-1058.5 35,-1001.5 0,-1001.5"/>
<text text-anchor="middle" x="17.5" y="-1046.5" font-family="Helvetica,sans-Serif" font-size="10.00">float</text>
<polyline fill="none" stroke="#bfbfbf" points="0,-1039.5 35,-1039.5 "/>
<text text-anchor="middle" x="17.5" y="-1027.5" font-family="Helvetica,sans-Serif" font-size="10.00"> </text>
<polyline fill="none" stroke="#bfbfbf" points="0,-1020.5 35,-1020.5 "/>
<text text-anchor="middle" x="17.5" y="-1008.5" font-family="Helvetica,sans-Serif" font-size="10.00"> </text>
</g>
<!-- Node15&#45;&gt;Node4 -->
<g id="edge22" class="edge"><title>Node15&#45;&gt;Node4</title>
<path fill="none" stroke="#404040" d="M35.0527,-1014.96C57.058,-997.354 95.8955,-966.284 128.862,-939.911"/>
<polygon fill="none" stroke="#404040" points="129.06,-939.752 131.247,-932.88 138.431,-932.256 136.244,-939.127 129.06,-939.752"/>
<text text-anchor="middle" x="122.5" y="-969.5" font-family="Helvetica,sans-Serif" font-size="10.00"> #special</text>
</g>
</g>
</svg>
        <g id="navigator" transform="translate(0 0)" fill="#404254">
                <rect fill="#f2f5e9" fill-opacity="0.5" stroke="#606060" stroke-width=".5" x="0" y="0" width="60" height="60"/>
                <use id="zoomplus" xlink:href="#zoomPlus" x="17" y="9" onmousedown="handleZoom(evt,'in')"/>
                <use id="zoomminus" xlink:href="#zoomMin" x="42" y="9" onmousedown="handleZoom(evt,'out')"/>
                <use id="reset" xlink:href="#resetDef" x="30" y="36" onmousedown="handleReset()"/>
                <g id="arrowUp" xlink:href="#dirArrow" transform="translate(30 24)" onmousedown="handlePan(0,-1)">
                  <use xlink:href="#rim" fill="#404040">
                        <set attributeName="fill" to="#808080" begin="arrowUp.mouseover" end="arrowUp.mouseout"/>
                  </use>
                  <path fill="none" stroke="white" stroke-width="1.5" d="M0,-3.0v7 M-2.5,-0.5L0,-3.0L2.5,-0.5"/>
                </g>
                <g id="arrowRight" xlink:href="#dirArrow" transform="rotate(90) translate(36 -43)" onmousedown="handlePan(1,0)">
                  <use xlink:href="#rim" fill="#404040">
                        <set attributeName="fill" to="#808080" begin="arrowRight.mouseover" end="arrowRight.mouseout"/>
                  </use>
                  <path fill="none" stroke="white" stroke-width="1.5" d="M0,-3.0v7 M-2.5,-0.5L0,-3.0L2.5,-0.5"/>
                </g>
                <g id="arrowDown" xlink:href="#dirArrow" transform="rotate(180) translate(-30 -48)" onmousedown="handlePan(0,1)">
                  <use xlink:href="#rim" fill="#404040">
                        <set attributeName="fill" to="#808080" begin="arrowDown.mouseover" end="arrowDown.mouseout"/>
                  </use>
                  <path fill="none" stroke="white" stroke-width="1.5" d="M0,-3.0v7 M-2.5,-0.5L0,-3.0L2.5,-0.5"/>
                </g>
                <g id="arrowLeft" xlink:href="#dirArrow" transform="rotate(270) translate(-36 17)" onmousedown="handlePan(-1,0)">
                  <use xlink:href="#rim" fill="#404040">
                        <set attributeName="fill" to="#808080" begin="arrowLeft.mouseover" end="arrowLeft.mouseout"/>
                  </use>
                  <path fill="none" stroke="white" stroke-width="1.5" d="M0,-3.0v7 M-2.5,-0.5L0,-3.0L2.5,-0.5"/>
                </g>
        </g>
        <svg viewBox="0 0 15 15" width="100%" height="30px" preserveAspectRatio="xMaxYMin meet">
         <g id="arrow_out" transform="scale(0.3 0.3)">
          <a xlink:href="class_raise_defence__coll__graph_org.svg" target="_base">
           <rect id="button" ry="5" rx="5" y="6" x="6" height="38" width="38"
                fill="#f2f5e9" fill-opacity="0.5" stroke="#606060" stroke-width="1.0"/>
           <path id="arrow"
             d="M 11.500037,31.436501 C 11.940474,20.09759 22.043105,11.32322 32.158766,21.979434 L 37.068811,17.246167 C 37.068811,17.246167 37.088388,32 37.088388,32 L 22.160133,31.978069 C 22.160133,31.978069 26.997745,27.140456 26.997745,27.140456 C 18.528582,18.264221 13.291696,25.230495 11.500037,31.436501 z"
             style="fill:#404040;"/>
          </a>
         </g>
        </svg>
</svg>
