<?xml version="1.0" encoding="UTF-8" standalone="no"?>
<!DOCTYPE svg PUBLIC "-//W3C//DTD SVG 1.1//EN"
 "http://www.w3.org/Graphics/SVG/1.1/DTD/svg11.dtd">
<!-- Generated by graphviz version 2.38.0 (20140413.2041)
 -->
<!-- Title: QManagerObj Pages: 1 -->
<svg width="477pt" height="640pt"
 viewBox="0.00 0.00 476.50 640.00" xmlns="http://www.w3.org/2000/svg" xmlns:xlink="http://www.w3.org/1999/xlink">
<g id="graph0" class="graph" transform="scale(1 1) rotate(0) translate(4 636)">
<title>QManagerObj</title>
<!-- Node2 -->
<g id="node1" class="node"><title>Node2</title>
<polygon fill="#bfbfbf" stroke="black" points="102,-0.5 102,-57.5 179,-57.5 179,-0.5 102,-0.5"/>
<text text-anchor="middle" x="140.5" y="-45.5" font-family="Helvetica,sans-Serif" font-size="10.00">QManagerObj</text>
<polyline fill="none" stroke="black" points="102,-38.5 179,-38.5 "/>
<text text-anchor="middle" x="140.5" y="-26.5" font-family="Helvetica,sans-Serif" font-size="10.00"> </text>
<polyline fill="none" stroke="black" points="102,-19.5 179,-19.5 "/>
<text text-anchor="start" x="110" y="-7.5" font-family="Helvetica,sans-Serif" font-size="10.00">&#45; Start()</text>
</g>
<!-- Node3 -->
<g id="node2" class="node"><title>Node3</title>
<g id="a_node2"><a xlink:href="class_mono_behaviour.html" target="_top" xlink:title="{MonoBehaviour\n||}">
<polygon fill="none" stroke="black" points="61,-133 61,-190 144,-190 144,-133 61,-133"/>
<text text-anchor="middle" x="102.5" y="-178" font-family="Helvetica,sans-Serif" font-size="10.00">MonoBehaviour</text>
<polyline fill="none" stroke="black" points="61,-171 144,-171 "/>
<text text-anchor="middle" x="102.5" y="-159" font-family="Helvetica,sans-Serif" font-size="10.00"> </text>
<polyline fill="none" stroke="black" points="61,-152 144,-152 "/>
<text text-anchor="middle" x="102.5" y="-140" font-family="Helvetica,sans-Serif" font-size="10.00"> </text>
</a>
</g>
</g>
<!-- Node3&#45;&gt;Node2 -->
<g id="edge1" class="edge"><title>Node3&#45;&gt;Node2</title>
<path fill="none" stroke="midnightblue" d="M113.417,-123.01C119.488,-102.159 126.914,-76.6587 132.453,-57.6358"/>
<polygon fill="none" stroke="midnightblue" points="109.994,-122.245 110.559,-132.824 116.715,-124.202 109.994,-122.245"/>
</g>
<!-- Node4 -->
<g id="node3" class="node"><title>Node4</title>
<g id="a_node3"><a xlink:href="class_quest_manager.html" target="_top" xlink:title="A class to manage the tracking and completion of quests ">
<polygon fill="none" stroke="black" points="162.5,-105.5 162.5,-217.5 284.5,-217.5 284.5,-105.5 162.5,-105.5"/>
<text text-anchor="middle" x="223.5" y="-205.5" font-family="Helvetica,sans-Serif" font-size="10.00">QuestManager</text>
<polyline fill="none" stroke="black" points="162.5,-198.5 284.5,-198.5 "/>
<text text-anchor="middle" x="223.5" y="-186.5" font-family="Helvetica,sans-Serif" font-size="10.00"> </text>
<polyline fill="none" stroke="black" points="162.5,-179.5 284.5,-179.5 "/>
<text text-anchor="start" x="170.5" y="-167.5" font-family="Helvetica,sans-Serif" font-size="10.00">+ QuestManager()</text>
<text text-anchor="start" x="170.5" y="-156.5" font-family="Helvetica,sans-Serif" font-size="10.00">+ logQuestVariable()</text>
<text text-anchor="start" x="170.5" y="-145.5" font-family="Helvetica,sans-Serif" font-size="10.00">&#45; startQuest()</text>
<text text-anchor="start" x="170.5" y="-134.5" font-family="Helvetica,sans-Serif" font-size="10.00">&#45; isNegativeQuestCond()</text>
<text text-anchor="start" x="170.5" y="-123.5" font-family="Helvetica,sans-Serif" font-size="10.00">&#45; questDefVal()</text>
<text text-anchor="start" x="170.5" y="-112.5" font-family="Helvetica,sans-Serif" font-size="10.00">&#45; finishQuest()</text>
</a>
</g>
</g>
<!-- Node4&#45;&gt;Node2 -->
<g id="edge2" class="edge"><title>Node4&#45;&gt;Node2</title>
<path fill="none" stroke="#404040" d="M188.301,-105.156C180.317,-92.6042 172.015,-79.5514 164.614,-67.9145"/>
<polygon fill="none" stroke="#404040" points="164.545,-67.8062 157.95,-64.8901 158.105,-57.6807 164.701,-60.5968 164.545,-67.8062"/>
<text text-anchor="middle" x="199" y="-79" font-family="Helvetica,sans-Serif" font-size="10.00"> +manager</text>
</g>
<!-- Node5 -->
<g id="node4" class="node"><title>Node5</title>
<polygon fill="none" stroke="#bfbfbf" points="0,-293 0,-350 101,-350 101,-293 0,-293"/>
<text text-anchor="middle" x="50.5" y="-338" font-family="Helvetica,sans-Serif" font-size="10.00">List&lt; questTypes &gt;</text>
<polyline fill="none" stroke="#bfbfbf" points="0,-331 101,-331 "/>
<text text-anchor="middle" x="50.5" y="-319" font-family="Helvetica,sans-Serif" font-size="10.00"> </text>
<polyline fill="none" stroke="#bfbfbf" points="0,-312 101,-312 "/>
<text text-anchor="middle" x="50.5" y="-300" font-family="Helvetica,sans-Serif" font-size="10.00"> </text>
</g>
<!-- Node5&#45;&gt;Node4 -->
<g id="edge3" class="edge"><title>Node5&#45;&gt;Node4</title>
<path fill="none" stroke="#404040" d="M58.252,-292.898C64.8017,-274.354 75.9724,-250.706 93.5,-236 112.123,-220.375 124.987,-228.257 151.564,-217.487"/>
<polygon fill="none" stroke="#404040" points="151.605,-217.468 155.33,-211.293 162.462,-212.358 158.737,-218.532 151.605,-217.468"/>
<text text-anchor="middle" x="143" y="-244.5" font-family="Helvetica,sans-Serif" font-size="10.00"> +negativeQuestConds</text>
</g>
<!-- Node6 -->
<g id="node5" class="node"><title>Node6</title>
<polygon fill="none" stroke="#bfbfbf" points="119,-287.5 119,-355.5 234,-355.5 234,-287.5 119,-287.5"/>
<text text-anchor="start" x="127" y="-343.5" font-family="Helvetica,sans-Serif" font-size="10.00">IDictionary&lt; QuestDef,</text>
<text text-anchor="middle" x="176.5" y="-332.5" font-family="Helvetica,sans-Serif" font-size="10.00"> bool &gt;</text>
<polyline fill="none" stroke="#bfbfbf" points="119,-325.5 234,-325.5 "/>
<text text-anchor="middle" x="176.5" y="-313.5" font-family="Helvetica,sans-Serif" font-size="10.00"> </text>
<polyline fill="none" stroke="#bfbfbf" points="119,-306.5 234,-306.5 "/>
<text text-anchor="middle" x="176.5" y="-294.5" font-family="Helvetica,sans-Serif" font-size="10.00"> </text>
</g>
<!-- Node6&#45;&gt;Node4 -->
<g id="edge4" class="edge"><title>Node6&#45;&gt;Node4</title>
<path fill="none" stroke="#404040" d="M186.353,-287.378C191.371,-270.509 197.659,-249.37 203.627,-229.306"/>
<polygon fill="none" stroke="#404040" points="203.671,-229.16 201.548,-222.268 207.092,-217.658 209.216,-224.549 203.671,-229.16"/>
<text text-anchor="middle" x="228.5" y="-244.5" font-family="Helvetica,sans-Serif" font-size="10.00"> +conditions</text>
</g>
<!-- Node7 -->
<g id="node6" class="node"><title>Node7</title>
<polygon fill="none" stroke="#bfbfbf" points="271,-447.5 271,-504.5 300,-504.5 300,-447.5 271,-447.5"/>
<text text-anchor="middle" x="285.5" y="-492.5" font-family="Helvetica,sans-Serif" font-size="10.00">int</text>
<polyline fill="none" stroke="#bfbfbf" points="271,-485.5 300,-485.5 "/>
<text text-anchor="middle" x="285.5" y="-473.5" font-family="Helvetica,sans-Serif" font-size="10.00"> </text>
<polyline fill="none" stroke="#bfbfbf" points="271,-466.5 300,-466.5 "/>
<text text-anchor="middle" x="285.5" y="-454.5" font-family="Helvetica,sans-Serif" font-size="10.00"> </text>
</g>
<!-- Node7&#45;&gt;Node4 -->
<g id="edge5" class="edge"><title>Node7&#45;&gt;Node4</title>
<path fill="none" stroke="#404040" d="M284.828,-447.236C283.142,-402.135 277.228,-310.495 256.5,-236 255.867,-233.726 255.175,-231.432 254.433,-229.132"/>
<polygon fill="none" stroke="#404040" points="254.364,-228.939 248.592,-224.617 250.361,-217.627 256.133,-221.948 254.364,-228.939"/>
<text text-anchor="middle" x="303.5" y="-319" font-family="Helvetica,sans-Serif" font-size="10.00"> &#45;finishTime</text>
</g>
<!-- Node8 -->
<g id="node7" class="node"><title>Node8</title>
<g id="a_node7"><a xlink:href="class_quest.html" target="_top" xlink:title="A class to store a whole quest, being a sequence of 3 QuestDefs Also stores a name of the quest...">
<polygon fill="none" stroke="black" points="338.5,-276.5 338.5,-366.5 440.5,-366.5 440.5,-276.5 338.5,-276.5"/>
<text text-anchor="middle" x="389.5" y="-354.5" font-family="Helvetica,sans-Serif" font-size="10.00">Quest</text>
<polyline fill="none" stroke="black" points="338.5,-347.5 440.5,-347.5 "/>
<text text-anchor="start" x="346.5" y="-335.5" font-family="Helvetica,sans-Serif" font-size="10.00">+ Main</text>
<text text-anchor="start" x="346.5" y="-324.5" font-family="Helvetica,sans-Serif" font-size="10.00">+ Side</text>
<text text-anchor="start" x="346.5" y="-313.5" font-family="Helvetica,sans-Serif" font-size="10.00">+ Cond</text>
<polyline fill="none" stroke="black" points="338.5,-306.5 440.5,-306.5 "/>
<text text-anchor="start" x="346.5" y="-294.5" font-family="Helvetica,sans-Serif" font-size="10.00">+ Quest()</text>
<text text-anchor="start" x="346.5" y="-283.5" font-family="Helvetica,sans-Serif" font-size="10.00">+ questCompleted()</text>
</a>
</g>
</g>
<!-- Node7&#45;&gt;Node8 -->
<g id="edge11" class="edge"><title>Node7&#45;&gt;Node8</title>
<path fill="none" stroke="#404040" d="M295.933,-447.348C303.559,-428.86 314.919,-404.452 328.5,-385 330.602,-381.989 332.852,-378.988 335.204,-376.023"/>
<polygon fill="none" stroke="#404040" points="335.301,-375.907 336.084,-368.738 343.002,-366.704 342.219,-373.872 335.301,-375.907"/>
<text text-anchor="middle" x="348" y="-404.5" font-family="Helvetica,sans-Serif" font-size="10.00"> +money</text>
<text text-anchor="middle" x="348" y="-393.5" font-family="Helvetica,sans-Serif" font-size="10.00">+exp</text>
</g>
<!-- Node8&#45;&gt;Node4 -->
<g id="edge6" class="edge"><title>Node8&#45;&gt;Node4</title>
<path fill="none" stroke="#404040" d="M343.26,-276.488C326.921,-260.937 308.201,-243.119 290.491,-226.263"/>
<polygon fill="none" stroke="#404040" points="290.032,-225.826 282.929,-224.587 281.34,-217.553 288.444,-218.792 290.032,-225.826"/>
<text text-anchor="middle" x="354" y="-250" font-family="Helvetica,sans-Serif" font-size="10.00"> &#45;currentQuest</text>
<text text-anchor="middle" x="354" y="-239" font-family="Helvetica,sans-Serif" font-size="10.00">&#45;chosenQuests</text>
</g>
<!-- Node9 -->
<g id="node8" class="node"><title>Node9</title>
<g id="a_node8"><a xlink:href="class_quest_def.html" target="_top" xlink:title="Class defining one quest condition (part of a sequence of 3 in Quest) ">
<polygon fill="none" stroke="black" points="325.5,-436.5 325.5,-515.5 397.5,-515.5 397.5,-436.5 325.5,-436.5"/>
<text text-anchor="middle" x="361.5" y="-503.5" font-family="Helvetica,sans-Serif" font-size="10.00">QuestDef</text>
<polyline fill="none" stroke="black" points="325.5,-496.5 397.5,-496.5 "/>
<text text-anchor="start" x="333.5" y="-484.5" font-family="Helvetica,sans-Serif" font-size="10.00">+ Type</text>
<text text-anchor="start" x="333.5" y="-473.5" font-family="Helvetica,sans-Serif" font-size="10.00">+ Data</text>
<text text-anchor="start" x="333.5" y="-462.5" font-family="Helvetica,sans-Serif" font-size="10.00">+ Desc</text>
<polyline fill="none" stroke="black" points="325.5,-455.5 397.5,-455.5 "/>
<text text-anchor="start" x="333.5" y="-443.5" font-family="Helvetica,sans-Serif" font-size="10.00">+ QuestDef()</text>
</a>
</g>
</g>
<!-- Node9&#45;&gt;Node8 -->
<g id="edge7" class="edge"><title>Node9&#45;&gt;Node8</title>
<path fill="none" stroke="#404040" d="M368.638,-436.123C371.843,-418.667 375.686,-397.739 379.195,-378.627"/>
<polygon fill="none" stroke="#404040" points="379.218,-378.502 376.367,-371.878 381.385,-366.699 384.235,-373.323 379.218,-378.502"/>
<text text-anchor="middle" x="390" y="-410" font-family="Helvetica,sans-Serif" font-size="10.00"> &#45;side</text>
<text text-anchor="middle" x="390" y="-399" font-family="Helvetica,sans-Serif" font-size="10.00">&#45;main</text>
<text text-anchor="middle" x="390" y="-388" font-family="Helvetica,sans-Serif" font-size="10.00">&#45;cond</text>
</g>
<!-- Node10 -->
<g id="node9" class="node"><title>Node10</title>
<polygon fill="none" stroke="#bfbfbf" points="256.5,-563.5 256.5,-631.5 394.5,-631.5 394.5,-563.5 256.5,-563.5"/>
<text text-anchor="start" x="264.5" y="-619.5" font-family="Helvetica,sans-Serif" font-size="10.00">KeyValuePair&lt; questTypes,</text>
<text text-anchor="middle" x="325.5" y="-608.5" font-family="Helvetica,sans-Serif" font-size="10.00"> string &gt;</text>
<polyline fill="none" stroke="#bfbfbf" points="256.5,-601.5 394.5,-601.5 "/>
<text text-anchor="middle" x="325.5" y="-589.5" font-family="Helvetica,sans-Serif" font-size="10.00"> </text>
<polyline fill="none" stroke="#bfbfbf" points="256.5,-582.5 394.5,-582.5 "/>
<text text-anchor="middle" x="325.5" y="-570.5" font-family="Helvetica,sans-Serif" font-size="10.00"> </text>
</g>
<!-- Node10&#45;&gt;Node9 -->
<g id="edge8" class="edge"><title>Node10&#45;&gt;Node9</title>
<path fill="none" stroke="#404040" d="M329.811,-563.392C331.466,-553.799 333.661,-543.385 336.5,-534 337.181,-531.75 337.926,-529.472 338.72,-527.185"/>
<polygon fill="none" stroke="#404040" points="338.787,-527.009 337.164,-519.983 343.025,-515.783 344.648,-522.809 338.787,-527.009"/>
<text text-anchor="middle" x="347.5" y="-537" font-family="Helvetica,sans-Serif" font-size="10.00"> &#45;pair</text>
</g>
<!-- Node11 -->
<g id="node10" class="node"><title>Node11</title>
<polygon fill="none" stroke="#bfbfbf" points="413,-569 413,-626 454,-626 454,-569 413,-569"/>
<text text-anchor="middle" x="433.5" y="-614" font-family="Helvetica,sans-Serif" font-size="10.00">string</text>
<polyline fill="none" stroke="#bfbfbf" points="413,-607 454,-607 "/>
<text text-anchor="middle" x="433.5" y="-595" font-family="Helvetica,sans-Serif" font-size="10.00"> </text>
<polyline fill="none" stroke="#bfbfbf" points="413,-588 454,-588 "/>
<text text-anchor="middle" x="433.5" y="-576" font-family="Helvetica,sans-Serif" font-size="10.00"> </text>
</g>
<!-- Node11&#45;&gt;Node8 -->
<g id="edge10" class="edge"><title>Node11&#45;&gt;Node8</title>
<path fill="none" stroke="#404040" d="M431.21,-568.925C427.564,-528.364 419.494,-450.351 406.5,-385 406.074,-382.86 405.616,-380.685 405.131,-378.493"/>
<polygon fill="none" stroke="#404040" points="405.105,-378.383 399.829,-373.467 402.338,-366.706 407.614,-371.622 405.105,-378.383"/>
<text text-anchor="middle" x="447" y="-479" font-family="Helvetica,sans-Serif" font-size="10.00"> +location</text>
<text text-anchor="middle" x="447" y="-468" font-family="Helvetica,sans-Serif" font-size="10.00">+title</text>
</g>
<!-- Node11&#45;&gt;Node9 -->
<g id="edge9" class="edge"><title>Node11&#45;&gt;Node9</title>
<path fill="none" stroke="#404040" d="M412.865,-573.905C405.566,-565.248 397.649,-555.034 391.5,-545 388.002,-539.293 384.69,-533.106 381.632,-526.869"/>
<polygon fill="none" stroke="#404040" points="381.487,-526.557 375.327,-522.809 376.417,-515.681 382.578,-519.429 381.487,-526.557"/>
<text text-anchor="middle" x="405.5" y="-537" font-family="Helvetica,sans-Serif" font-size="10.00"> &#45;desc</text>
</g>
</g>
</svg>
