<?xml version="1.0" encoding="UTF-8" standalone="no"?>
<!DOCTYPE svg PUBLIC "-//W3C//DTD SVG 1.1//EN"
 "http://www.w3.org/Graphics/SVG/1.1/DTD/svg11.dtd">
<!-- Generated by graphviz version 2.38.0 (20140413.2041)
 -->
<!-- Title: BattleManager Pages: 1 -->
<svg width="728pt" height="1076pt"
 viewBox="0.00 0.00 727.50 1076.00" xmlns="http://www.w3.org/2000/svg" xmlns:xlink="http://www.w3.org/1999/xlink">
<g id="graph0" class="graph" transform="scale(1 1) rotate(0) translate(4 1072)">
<title>BattleManager</title>
<!-- Node1 -->
<g id="node1" class="node"><title>Node1</title>
<polygon fill="#bfbfbf" stroke="black" points="258.5,-762.5 258.5,-951.5 374.5,-951.5 374.5,-762.5 258.5,-762.5"/>
<text text-anchor="middle" x="316.5" y="-939.5" font-family="Helvetica,sans-Serif" font-size="10.00">BattleManager</text>
<polyline fill="none" stroke="black" points="258.5,-932.5 374.5,-932.5 "/>
<text text-anchor="start" x="266.5" y="-920.5" font-family="Helvetica,sans-Serif" font-size="10.00">+ Player</text>
<text text-anchor="start" x="266.5" y="-909.5" font-family="Helvetica,sans-Serif" font-size="10.00">+ Enemy</text>
<text text-anchor="start" x="266.5" y="-898.5" font-family="Helvetica,sans-Serif" font-size="10.00">+ WasCriticalHit</text>
<polyline fill="none" stroke="black" points="258.5,-891.5 374.5,-891.5 "/>
<text text-anchor="start" x="266.5" y="-879.5" font-family="Helvetica,sans-Serif" font-size="10.00">+ BattleManager()</text>
<text text-anchor="start" x="266.5" y="-868.5" font-family="Helvetica,sans-Serif" font-size="10.00">+ playerFirst()</text>
<text text-anchor="start" x="266.5" y="-857.5" font-family="Helvetica,sans-Serif" font-size="10.00">+ switchPlayers()</text>
<text text-anchor="start" x="266.5" y="-846.5" font-family="Helvetica,sans-Serif" font-size="10.00">+ isCriticalHit()</text>
<text text-anchor="start" x="266.5" y="-835.5" font-family="Helvetica,sans-Serif" font-size="10.00">+ ranAway()</text>
<text text-anchor="start" x="266.5" y="-824.5" font-family="Helvetica,sans-Serif" font-size="10.00">+ damageCalculation()</text>
<text text-anchor="start" x="266.5" y="-813.5" font-family="Helvetica,sans-Serif" font-size="10.00">+ enemyMove()</text>
<text text-anchor="start" x="266.5" y="-802.5" font-family="Helvetica,sans-Serif" font-size="10.00">+ enemySpecialMove()</text>
<text text-anchor="start" x="266.5" y="-791.5" font-family="Helvetica,sans-Serif" font-size="10.00">+ battleWon()</text>
<text text-anchor="start" x="266.5" y="-780.5" font-family="Helvetica,sans-Serif" font-size="10.00">+ playerFainted()</text>
<text text-anchor="start" x="266.5" y="-769.5" font-family="Helvetica,sans-Serif" font-size="10.00">&#45; characterFainted()</text>
</g>
<!-- Node7 -->
<g id="node7" class="node"><title>Node7</title>
<g id="a_node7"><a xlink:href="class_character_move.html" target="_top" xlink:title="Astract base class for character moves ">
<polygon fill="none" stroke="black" points="273.5,-562.5 273.5,-641.5 359.5,-641.5 359.5,-562.5 273.5,-562.5"/>
<text text-anchor="middle" x="316.5" y="-629.5" font-family="Helvetica,sans-Serif" font-size="10.00">CharacterMove</text>
<polyline fill="none" stroke="black" points="273.5,-622.5 359.5,-622.5 "/>
<text text-anchor="start" x="281.5" y="-610.5" font-family="Helvetica,sans-Serif" font-size="10.00">+ User</text>
<text text-anchor="start" x="281.5" y="-599.5" font-family="Helvetica,sans-Serif" font-size="10.00">+ Target</text>
<text text-anchor="start" x="281.5" y="-588.5" font-family="Helvetica,sans-Serif" font-size="10.00">+ Text</text>
<polyline fill="none" stroke="black" points="273.5,-581.5 359.5,-581.5 "/>
<text text-anchor="start" x="281.5" y="-569.5" font-family="Helvetica,sans-Serif" font-size="10.00">+ performMove()</text>
</a>
</g>
</g>
<!-- Node1&#45;&gt;Node7 -->
<g id="edge10" class="edge"><title>Node1&#45;&gt;Node7</title>
<path fill="none" stroke="#404040" d="M316.5,-762.152C316.5,-725.443 316.5,-684.797 316.5,-653.769"/>
<polygon fill="none" stroke="#404040" points="316.5,-653.528 312.5,-647.528 316.5,-641.528 320.5,-647.528 316.5,-653.528"/>
<text text-anchor="middle" x="339.5" y="-701.5" font-family="Helvetica,sans-Serif" font-size="10.00"> #manager</text>
</g>
<!-- Node2 -->
<g id="node2" class="node"><title>Node2</title>
<polygon fill="none" stroke="#bfbfbf" points="126,-1010.5 126,-1067.5 167,-1067.5 167,-1010.5 126,-1010.5"/>
<text text-anchor="middle" x="146.5" y="-1055.5" font-family="Helvetica,sans-Serif" font-size="10.00">string</text>
<polyline fill="none" stroke="#bfbfbf" points="126,-1048.5 167,-1048.5 "/>
<text text-anchor="middle" x="146.5" y="-1036.5" font-family="Helvetica,sans-Serif" font-size="10.00"> </text>
<polyline fill="none" stroke="#bfbfbf" points="126,-1029.5 167,-1029.5 "/>
<text text-anchor="middle" x="146.5" y="-1017.5" font-family="Helvetica,sans-Serif" font-size="10.00"> </text>
</g>
<!-- Node2&#45;&gt;Node1 -->
<g id="edge1" class="edge"><title>Node2&#45;&gt;Node1</title>
<path fill="none" stroke="#404040" d="M167.284,-1018.23C185.16,-1001.04 211.47,-975.306 233.5,-952 238.976,-946.207 244.584,-940.147 250.173,-934.017"/>
<polygon fill="none" stroke="#404040" points="250.277,-933.902 251.34,-926.769 258.332,-925.007 257.27,-932.139 250.277,-933.902"/>
<text text-anchor="middle" x="257.5" y="-984" font-family="Helvetica,sans-Serif" font-size="10.00"> +forceEnemyMove</text>
<text text-anchor="middle" x="257.5" y="-973" font-family="Helvetica,sans-Serif" font-size="10.00">+forceCriticalHits</text>
</g>
<!-- Node4 -->
<g id="node4" class="node"><title>Node4</title>
<g id="a_node4"><a xlink:href="class_character.html" target="_top" xlink:title="Base abstract class for Enemy and Player to inherit from. Defines all shared variables, their constructor and their setters and getters ">
<polygon fill="none" stroke="black" points="276,-161.5 276,-339.5 371,-339.5 371,-161.5 276,-161.5"/>
<text text-anchor="middle" x="323.5" y="-327.5" font-family="Helvetica,sans-Serif" font-size="10.00">Character</text>
<polyline fill="none" stroke="black" points="276,-320.5 371,-320.5 "/>
<text text-anchor="start" x="284" y="-308.5" font-family="Helvetica,sans-Serif" font-size="10.00">+ Name</text>
<text text-anchor="start" x="284" y="-297.5" font-family="Helvetica,sans-Serif" font-size="10.00">+ Level</text>
<text text-anchor="start" x="284" y="-286.5" font-family="Helvetica,sans-Serif" font-size="10.00">+ Health</text>
<text text-anchor="start" x="284" y="-275.5" font-family="Helvetica,sans-Serif" font-size="10.00">+ Attack</text>
<text text-anchor="start" x="284" y="-264.5" font-family="Helvetica,sans-Serif" font-size="10.00">+ Defence</text>
<text text-anchor="start" x="284" y="-253.5" font-family="Helvetica,sans-Serif" font-size="10.00">+ MaximumMagic</text>
<text text-anchor="start" x="284" y="-242.5" font-family="Helvetica,sans-Serif" font-size="10.00">+ Magic</text>
<text text-anchor="start" x="284" y="-231.5" font-family="Helvetica,sans-Serif" font-size="10.00">+ Luck</text>
<text text-anchor="start" x="284" y="-220.5" font-family="Helvetica,sans-Serif" font-size="10.00">+ Speed</text>
<text text-anchor="start" x="284" y="-209.5" font-family="Helvetica,sans-Serif" font-size="10.00">+ Special1</text>
<text text-anchor="start" x="284" y="-198.5" font-family="Helvetica,sans-Serif" font-size="10.00">+ Special2</text>
<text text-anchor="start" x="284" y="-187.5" font-family="Helvetica,sans-Serif" font-size="10.00">+ Image</text>
<polyline fill="none" stroke="black" points="276,-180.5 371,-180.5 "/>
<text text-anchor="start" x="284" y="-168.5" font-family="Helvetica,sans-Serif" font-size="10.00"># Character()</text>
</a>
</g>
</g>
<!-- Node2&#45;&gt;Node4 -->
<g id="edge4" class="edge"><title>Node2&#45;&gt;Node4</title>
<path fill="none" stroke="#404040" d="M132.734,-1010.4C116.735,-975.721 92.5,-913.954 92.5,-858 92.5,-858 92.5,-858 92.5,-528 92.5,-467.144 100.431,-447.736 135.5,-398 169.462,-349.834 223.827,-309.916 265.38,-283.977"/>
<polygon fill="none" stroke="#404040" points="265.415,-283.956 268.442,-277.411 275.648,-277.687 272.621,-284.232 265.415,-283.956"/>
<text text-anchor="middle" x="109" y="-599.5" font-family="Helvetica,sans-Serif" font-size="10.00"> #name</text>
</g>
<!-- Node6 -->
<g id="node6" class="node"><title>Node6</title>
<g id="a_node6"><a xlink:href="class_special_move.html" target="_top" xlink:title="Special move abstract base class that expands upon CharacterMove, adding magic properties ...">
<polygon fill="none" stroke="black" points="189.5,-398.5 189.5,-499.5 287.5,-499.5 287.5,-398.5 189.5,-398.5"/>
<text text-anchor="middle" x="238.5" y="-487.5" font-family="Helvetica,sans-Serif" font-size="10.00">SpecialMove</text>
<polyline fill="none" stroke="black" points="189.5,-480.5 287.5,-480.5 "/>
<text text-anchor="start" x="197.5" y="-468.5" font-family="Helvetica,sans-Serif" font-size="10.00">+ Magic</text>
<text text-anchor="start" x="197.5" y="-457.5" font-family="Helvetica,sans-Serif" font-size="10.00">+ Desc</text>
<text text-anchor="start" x="197.5" y="-446.5" font-family="Helvetica,sans-Serif" font-size="10.00">+ Special</text>
<polyline fill="none" stroke="black" points="189.5,-439.5 287.5,-439.5 "/>
<text text-anchor="start" x="197.5" y="-427.5" font-family="Helvetica,sans-Serif" font-size="10.00">+ setUp()</text>
<text text-anchor="start" x="197.5" y="-416.5" font-family="Helvetica,sans-Serif" font-size="10.00">+ decreaseMagic()</text>
<text text-anchor="start" x="197.5" y="-405.5" font-family="Helvetica,sans-Serif" font-size="10.00"># SpecialMove()</text>
</a>
</g>
</g>
<!-- Node2&#45;&gt;Node6 -->
<g id="edge11" class="edge"><title>Node2&#45;&gt;Node6</title>
<path fill="none" stroke="#404040" d="M147.394,-1010.45C149.277,-960.639 154.593,-852.388 167.5,-762 180.599,-670.272 189.312,-648.204 210.5,-558 214.047,-542.898 218.116,-526.674 222.032,-511.51"/>
<polygon fill="none" stroke="#404040" points="222.105,-511.229 219.745,-504.415 225.127,-499.616 227.487,-506.43 222.105,-511.229"/>
<text text-anchor="middle" x="200.5" y="-701.5" font-family="Helvetica,sans-Serif" font-size="10.00"> #desc</text>
</g>
<!-- Node2&#45;&gt;Node7 -->
<g id="edge8" class="edge"><title>Node2&#45;&gt;Node7</title>
<path fill="none" stroke="#404040" d="M155.048,-1010.3C156.874,-1004.28 158.773,-997.931 160.5,-992 190.171,-890.127 183.379,-859.814 224.5,-762 240.697,-723.472 264.42,-682.724 283.719,-652.124"/>
<polygon fill="none" stroke="#404040" points="283.887,-651.861 283.742,-644.651 290.342,-641.745 290.487,-648.954 283.887,-651.861"/>
<text text-anchor="middle" x="237" y="-854.5" font-family="Helvetica,sans-Serif" font-size="10.00"> #text</text>
</g>
<!-- Node12 -->
<g id="node12" class="node"><title>Node12</title>
<g id="a_node12"><a xlink:href="class_item.html" target="_top" xlink:title="Abstract class for items that can be equipped to a player, increasing some of their stats ...">
<polygon fill="none" stroke="black" points="0,-664.5 0,-743.5 77,-743.5 77,-664.5 0,-664.5"/>
<text text-anchor="middle" x="38.5" y="-731.5" font-family="Helvetica,sans-Serif" font-size="10.00">Item</text>
<polyline fill="none" stroke="black" points="0,-724.5 77,-724.5 "/>
<text text-anchor="start" x="8" y="-712.5" font-family="Helvetica,sans-Serif" font-size="10.00">+ Name</text>
<text text-anchor="start" x="8" y="-701.5" font-family="Helvetica,sans-Serif" font-size="10.00">+ Desc</text>
<polyline fill="none" stroke="black" points="0,-694.5 77,-694.5 "/>
<text text-anchor="start" x="8" y="-682.5" font-family="Helvetica,sans-Serif" font-size="10.00">+ applyBuffs()</text>
<text text-anchor="start" x="8" y="-671.5" font-family="Helvetica,sans-Serif" font-size="10.00">+ revertBuffs()</text>
</a>
</g>
</g>
<!-- Node2&#45;&gt;Node12 -->
<g id="edge21" class="edge"><title>Node2&#45;&gt;Node12</title>
<path fill="none" stroke="#404040" d="M125.887,-1034.77C102.663,-1029.93 65.8934,-1018.35 48.5,-992 1.60947,-920.955 12.8174,-817.015 25.4846,-755.659"/>
<polygon fill="none" stroke="#404040" points="25.555,-755.335 22.9213,-748.623 28.1049,-743.61 30.7386,-750.322 25.555,-755.335"/>
<text text-anchor="middle" x="63.5" y="-984" font-family="Helvetica,sans-Serif" font-size="10.00"> #desc</text>
<text text-anchor="middle" x="63.5" y="-973" font-family="Helvetica,sans-Serif" font-size="10.00">#name</text>
</g>
<!-- Node3 -->
<g id="node3" class="node"><title>Node3</title>
<g id="a_node3"><a xlink:href="class_enemy.html" target="_top" xlink:title="Defines an AI controller enemy to fight in battle scenes">
<polygon fill="none" stroke="black" points="440,-33.5 440,-90.5 507,-90.5 507,-33.5 440,-33.5"/>
<text text-anchor="middle" x="473.5" y="-78.5" font-family="Helvetica,sans-Serif" font-size="10.00">Enemy</text>
<polyline fill="none" stroke="black" points="440,-71.5 507,-71.5 "/>
<text text-anchor="start" x="448" y="-59.5" font-family="Helvetica,sans-Serif" font-size="10.00">+ ExpGiven</text>
<polyline fill="none" stroke="black" points="440,-52.5 507,-52.5 "/>
<text text-anchor="start" x="448" y="-40.5" font-family="Helvetica,sans-Serif" font-size="10.00">+ Enemy()</text>
</a>
</g>
</g>
<!-- Node3&#45;&gt;Node1 -->
<g id="edge2" class="edge"><title>Node3&#45;&gt;Node1</title>
<path fill="none" stroke="#404040" d="M473.5,-90.8054C473.5,-127.25 473.5,-193.161 473.5,-249.5 473.5,-603 473.5,-603 473.5,-603 473.5,-665.975 489.839,-688.815 459.5,-744 442.384,-775.133 412.636,-800.556 384.691,-819.264"/>
<polygon fill="none" stroke="#404040" points="384.58,-819.336 381.714,-825.953 374.503,-825.851 377.37,-819.235 384.58,-819.336"/>
<text text-anchor="middle" x="491.5" y="-446.5" font-family="Helvetica,sans-Serif" font-size="10.00"> &#45;enemy</text>
</g>
<!-- Node4&#45;&gt;Node3 -->
<g id="edge3" class="edge"><title>Node4&#45;&gt;Node3</title>
<path fill="none" stroke="midnightblue" d="M377.531,-182.322C402.887,-150.796 431.72,-114.946 451.107,-90.8422"/>
<polygon fill="none" stroke="midnightblue" points="374.707,-180.248 371.167,-190.234 380.162,-184.635 374.707,-180.248"/>
</g>
<!-- Node4&#45;&gt;Node7 -->
<g id="edge9" class="edge"><title>Node4&#45;&gt;Node7</title>
<path fill="none" stroke="#404040" d="M321.732,-339.792C320.401,-406.24 318.623,-494.983 317.521,-550.037"/>
<polygon fill="none" stroke="#404040" points="317.516,-550.264 321.395,-556.343 317.276,-562.262 313.397,-556.183 317.516,-550.264"/>
<text text-anchor="middle" x="337.5" y="-452" font-family="Helvetica,sans-Serif" font-size="10.00"> #target</text>
<text text-anchor="middle" x="337.5" y="-441" font-family="Helvetica,sans-Serif" font-size="10.00">#user</text>
</g>
<!-- Node11 -->
<g id="node11" class="node"><title>Node11</title>
<g id="a_node11"><a xlink:href="class_player.html" target="_top" xlink:title="Defines a playable character for use in battle scenes">
<polygon fill="none" stroke="black" points="159.5,-0.5 159.5,-123.5 271.5,-123.5 271.5,-0.5 159.5,-0.5"/>
<text text-anchor="middle" x="215.5" y="-111.5" font-family="Helvetica,sans-Serif" font-size="10.00">Player</text>
<polyline fill="none" stroke="black" points="159.5,-104.5 271.5,-104.5 "/>
<text text-anchor="start" x="167.5" y="-92.5" font-family="Helvetica,sans-Serif" font-size="10.00">+ Exp</text>
<text text-anchor="start" x="167.5" y="-81.5" font-family="Helvetica,sans-Serif" font-size="10.00">+ Item</text>
<text text-anchor="start" x="167.5" y="-70.5" font-family="Helvetica,sans-Serif" font-size="10.00">+ ExpToNextLevel</text>
<polyline fill="none" stroke="black" points="159.5,-63.5 271.5,-63.5 "/>
<text text-anchor="start" x="167.5" y="-51.5" font-family="Helvetica,sans-Serif" font-size="10.00">+ Player()</text>
<text text-anchor="start" x="167.5" y="-40.5" font-family="Helvetica,sans-Serif" font-size="10.00">+ gainExp()</text>
<text text-anchor="start" x="167.5" y="-29.5" font-family="Helvetica,sans-Serif" font-size="10.00">+ levelUp()</text>
<text text-anchor="start" x="167.5" y="-18.5" font-family="Helvetica,sans-Serif" font-size="10.00">+ Clone()</text>
<text text-anchor="start" x="167.5" y="-7.5" font-family="Helvetica,sans-Serif" font-size="10.00">&#45; setExpToNextLevel()</text>
</a>
</g>
</g>
<!-- Node4&#45;&gt;Node11 -->
<g id="edge19" class="edge"><title>Node4&#45;&gt;Node11</title>
<path fill="none" stroke="midnightblue" d="M270.947,-158.748C264.028,-146.801 257.078,-134.799 250.551,-123.528"/>
<polygon fill="none" stroke="midnightblue" points="267.932,-160.527 275.972,-167.427 273.99,-157.019 267.932,-160.527"/>
</g>
<!-- Node5 -->
<g id="node5" class="node"><title>Node5</title>
<polygon fill="none" stroke="#bfbfbf" points="505,-1010.5 505,-1067.5 534,-1067.5 534,-1010.5 505,-1010.5"/>
<text text-anchor="middle" x="519.5" y="-1055.5" font-family="Helvetica,sans-Serif" font-size="10.00">int</text>
<polyline fill="none" stroke="#bfbfbf" points="505,-1048.5 534,-1048.5 "/>
<text text-anchor="middle" x="519.5" y="-1036.5" font-family="Helvetica,sans-Serif" font-size="10.00"> </text>
<polyline fill="none" stroke="#bfbfbf" points="505,-1029.5 534,-1029.5 "/>
<text text-anchor="middle" x="519.5" y="-1017.5" font-family="Helvetica,sans-Serif" font-size="10.00"> </text>
</g>
<!-- Node5&#45;&gt;Node1 -->
<g id="edge16" class="edge"><title>Node5&#45;&gt;Node1</title>
<path fill="none" stroke="#404040" d="M504.887,-1034.97C481.881,-1029.6 436.732,-1016.6 406.5,-992 395.546,-983.088 385.417,-972.492 376.213,-961.221"/>
<polygon fill="none" stroke="#404040" points="376.094,-961.07 369.247,-958.808 368.702,-951.617 375.549,-953.879 376.094,-961.07"/>
<text text-anchor="middle" x="426" y="-978.5" font-family="Helvetica,sans-Serif" font-size="10.00"> +money</text>
</g>
<!-- Node5&#45;&gt;Node3 -->
<g id="edge15" class="edge"><title>Node5&#45;&gt;Node3</title>
<path fill="none" stroke="#404040" d="M534.07,-1036.44C558.819,-1033.01 609.051,-1022.5 636.5,-992 677.831,-946.076 673.5,-919.784 673.5,-858 673.5,-858 673.5,-858 673.5,-249.5 673.5,-165.378 577.689,-108.36 518.696,-81.2261"/>
<polygon fill="none" stroke="#404040" points="518.386,-81.088 511.277,-82.2962 507.427,-76.1985 514.536,-74.9903 518.386,-81.088"/>
<text text-anchor="middle" x="696.5" y="-526.5" font-family="Helvetica,sans-Serif" font-size="10.00"> &#45;expGiven</text>
</g>
<!-- Node5&#45;&gt;Node4 -->
<g id="edge5" class="edge"><title>Node5&#45;&gt;Node4</title>
<path fill="none" stroke="#404040" d="M520.649,-1010.44C525.273,-894.948 541.001,-453.275 513.5,-398 486.075,-342.877 426.977,-302.569 381.925,-278.344"/>
<polygon fill="none" stroke="#404040" points="381.728,-278.241 374.557,-279.006 371.093,-272.681 378.264,-271.916 381.728,-278.241"/>
<text text-anchor="middle" x="567" y="-638" font-family="Helvetica,sans-Serif" font-size="10.00"> #speed</text>
<text text-anchor="middle" x="567" y="-627" font-family="Helvetica,sans-Serif" font-size="10.00">#luck</text>
<text text-anchor="middle" x="567" y="-616" font-family="Helvetica,sans-Serif" font-size="10.00">#health</text>
<text text-anchor="middle" x="567" y="-605" font-family="Helvetica,sans-Serif" font-size="10.00">#magic</text>
<text text-anchor="middle" x="567" y="-594" font-family="Helvetica,sans-Serif" font-size="10.00">#maximumMagic</text>
<text text-anchor="middle" x="567" y="-583" font-family="Helvetica,sans-Serif" font-size="10.00">#attack</text>
<text text-anchor="middle" x="567" y="-572" font-family="Helvetica,sans-Serif" font-size="10.00">#defence</text>
<text text-anchor="middle" x="567" y="-561" font-family="Helvetica,sans-Serif" font-size="10.00">#level</text>
</g>
<!-- Node5&#45;&gt;Node6 -->
<g id="edge13" class="edge"><title>Node5&#45;&gt;Node6</title>
<path fill="none" stroke="#404040" d="M511.051,-1010.41C480.209,-909.793 375.141,-567.894 368.5,-558 350.021,-530.471 322.526,-506.202 297.575,-487.679"/>
<polygon fill="none" stroke="#404040" points="297.525,-487.643 290.32,-487.369 287.801,-480.612 295.007,-480.886 297.525,-487.643"/>
<text text-anchor="middle" x="446" y="-701.5" font-family="Helvetica,sans-Serif" font-size="10.00"> #magic</text>
</g>
<!-- Node5&#45;&gt;Node11 -->
<g id="edge22" class="edge"><title>Node5&#45;&gt;Node11</title>
<path fill="none" stroke="#404040" d="M534.057,-1014.86C577.79,-942.105 699.531,-713.648 608.5,-558 600.262,-543.914 586.671,-552.76 576.5,-540 535.476,-488.536 561.522,-458.011 534.5,-398 505.566,-333.743 494.831,-271.29 379.5,-161 351.302,-134.035 314.391,-111.159 282.729,-94.3076"/>
<polygon fill="none" stroke="#404040" points="282.414,-94.144 275.245,-94.9206 271.771,-88.6016 278.94,-87.825 282.414,-94.144"/>
<text text-anchor="middle" x="614" y="-532" font-family="Helvetica,sans-Serif" font-size="10.00"> &#45;expToNextLevel</text>
<text text-anchor="middle" x="614" y="-521" font-family="Helvetica,sans-Serif" font-size="10.00">&#45;exp</text>
</g>
<!-- Node6&#45;&gt;Node4 -->
<g id="edge6" class="edge"><title>Node6&#45;&gt;Node4</title>
<path fill="none" stroke="#404040" d="M250.708,-398.267C254.551,-384.979 259.199,-370.767 264.5,-358 266.415,-353.388 268.479,-348.72 270.648,-344.046"/>
<polygon fill="none" stroke="#404040" points="270.685,-343.97 269.677,-336.83 275.88,-333.153 276.888,-340.293 270.685,-343.97"/>
<text text-anchor="middle" x="287" y="-372" font-family="Helvetica,sans-Serif" font-size="10.00"> #special1</text>
<text text-anchor="middle" x="287" y="-361" font-family="Helvetica,sans-Serif" font-size="10.00">#special2</text>
</g>
<!-- Node7&#45;&gt;Node6 -->
<g id="edge7" class="edge"><title>Node7&#45;&gt;Node6</title>
<path fill="none" stroke="midnightblue" d="M295.563,-553.059C290.224,-541.47 284.338,-529.2 278.5,-518 275.398,-512.049 272.017,-505.884 268.579,-499.807"/>
<polygon fill="none" stroke="midnightblue" points="292.384,-554.525 299.715,-562.174 298.754,-551.623 292.384,-554.525"/>
</g>
<!-- Node8 -->
<g id="node8" class="node"><title>Node8</title>
<polygon fill="none" stroke="#bfbfbf" points="220,-573.5 220,-630.5 255,-630.5 255,-573.5 220,-573.5"/>
<text text-anchor="middle" x="237.5" y="-618.5" font-family="Helvetica,sans-Serif" font-size="10.00">float</text>
<polyline fill="none" stroke="#bfbfbf" points="220,-611.5 255,-611.5 "/>
<text text-anchor="middle" x="237.5" y="-599.5" font-family="Helvetica,sans-Serif" font-size="10.00"> </text>
<polyline fill="none" stroke="#bfbfbf" points="220,-592.5 255,-592.5 "/>
<text text-anchor="middle" x="237.5" y="-580.5" font-family="Helvetica,sans-Serif" font-size="10.00"> </text>
</g>
<!-- Node8&#45;&gt;Node6 -->
<g id="edge12" class="edge"><title>Node8&#45;&gt;Node6</title>
<path fill="none" stroke="#404040" d="M237.683,-573.304C237.798,-556 237.95,-533.004 238.092,-511.562"/>
<polygon fill="none" stroke="#404040" points="238.093,-511.515 234.132,-505.488 238.172,-499.515 242.132,-505.541 238.093,-511.515"/>
<text text-anchor="middle" x="258.5" y="-526.5" font-family="Helvetica,sans-Serif" font-size="10.00"> #special</text>
</g>
<!-- Node9 -->
<g id="node9" class="node"><title>Node9</title>
<polygon fill="none" stroke="#bfbfbf" points="376,-420.5 376,-477.5 437,-477.5 437,-420.5 376,-420.5"/>
<text text-anchor="middle" x="406.5" y="-465.5" font-family="Helvetica,sans-Serif" font-size="10.00">Texture2D</text>
<polyline fill="none" stroke="#bfbfbf" points="376,-458.5 437,-458.5 "/>
<text text-anchor="middle" x="406.5" y="-446.5" font-family="Helvetica,sans-Serif" font-size="10.00"> </text>
<polyline fill="none" stroke="#bfbfbf" points="376,-439.5 437,-439.5 "/>
<text text-anchor="middle" x="406.5" y="-427.5" font-family="Helvetica,sans-Serif" font-size="10.00"> </text>
</g>
<!-- Node9&#45;&gt;Node4 -->
<g id="edge14" class="edge"><title>Node9&#45;&gt;Node4</title>
<path fill="none" stroke="#404040" d="M394.784,-420.263C386.999,-401.832 376.259,-376.404 365.475,-350.875"/>
<polygon fill="none" stroke="#404040" points="365.364,-350.611 359.344,-346.641 360.695,-339.557 366.714,-343.528 365.364,-350.611"/>
<text text-anchor="middle" x="395" y="-366.5" font-family="Helvetica,sans-Serif" font-size="10.00"> #image</text>
</g>
<!-- Node10 -->
<g id="node10" class="node"><title>Node10</title>
<polygon fill="none" stroke="#bfbfbf" points="299,-1010.5 299,-1067.5 334,-1067.5 334,-1010.5 299,-1010.5"/>
<text text-anchor="middle" x="316.5" y="-1055.5" font-family="Helvetica,sans-Serif" font-size="10.00">bool</text>
<polyline fill="none" stroke="#bfbfbf" points="299,-1048.5 334,-1048.5 "/>
<text text-anchor="middle" x="316.5" y="-1036.5" font-family="Helvetica,sans-Serif" font-size="10.00"> </text>
<polyline fill="none" stroke="#bfbfbf" points="299,-1029.5 334,-1029.5 "/>
<text text-anchor="middle" x="316.5" y="-1017.5" font-family="Helvetica,sans-Serif" font-size="10.00"> </text>
</g>
<!-- Node10&#45;&gt;Node1 -->
<g id="edge17" class="edge"><title>Node10&#45;&gt;Node1</title>
<path fill="none" stroke="#404040" d="M316.5,-1010.27C316.5,-997.414 316.5,-981.234 316.5,-964.255"/>
<polygon fill="none" stroke="#404040" points="316.5,-963.787 312.5,-957.787 316.5,-951.787 320.5,-957.787 316.5,-963.787"/>
<text text-anchor="middle" x="349.5" y="-978.5" font-family="Helvetica,sans-Serif" font-size="10.00"> &#45;wasCriticalHit</text>
</g>
<!-- Node11&#45;&gt;Node1 -->
<g id="edge18" class="edge"><title>Node11&#45;&gt;Node1</title>
<path fill="none" stroke="#404040" d="M192.34,-123.78C163.162,-208.506 119.971,-366.719 147.5,-500 166.324,-591.134 212.853,-685.925 252.333,-754.759"/>
<polygon fill="none" stroke="#404040" points="252.338,-754.767 258.807,-757.953 258.353,-765.15 251.884,-761.963 252.338,-754.767"/>
<text text-anchor="middle" x="164" y="-446.5" font-family="Helvetica,sans-Serif" font-size="10.00"> &#45;player</text>
</g>
<!-- Node12&#45;&gt;Node11 -->
<g id="edge20" class="edge"><title>Node12&#45;&gt;Node11</title>
<path fill="none" stroke="#404040" d="M38.8526,-664.18C39.1405,-629.118 39.5,-576.104 39.5,-530 39.5,-530 39.5,-530 39.5,-249.5 39.5,-183.206 99.0484,-130.934 148.87,-98.8016"/>
<polygon fill="none" stroke="#404040" points="149.158,-98.6213 152.12,-92.0468 159.329,-92.2528 156.366,-98.8272 149.158,-98.6213"/>
<text text-anchor="middle" x="52" y="-446.5" font-family="Helvetica,sans-Serif" font-size="10.00"> &#45;item</text>
</g>
</g>
</svg>
