<?xml version="1.0" encoding="UTF-8" standalone="no"?>
<!DOCTYPE svg PUBLIC "-//W3C//DTD SVG 1.1//EN"
 "http://www.w3.org/Graphics/SVG/1.1/DTD/svg11.dtd">
<!-- Generated by graphviz version 2.38.0 (20140413.2041)
 -->
<!-- Title: CarController Pages: 1 -->
<svg width="921pt" height="623pt"
 viewBox="0.00 0.00 920.56 623.00" xmlns="http://www.w3.org/2000/svg" xmlns:xlink="http://www.w3.org/1999/xlink">
<g id="graph0" class="graph" transform="scale(1 1) rotate(0) translate(4 619)">
<title>CarController</title>
<!-- Node2 -->
<g id="node1" class="node"><title>Node2</title>
<polygon fill="#bfbfbf" stroke="black" points="241.061,-0.5 241.061,-123.5 374.061,-123.5 374.061,-0.5 241.061,-0.5"/>
<text text-anchor="middle" x="307.561" y="-111.5" font-family="Helvetica,sans-Serif" font-size="10.00">CarController</text>
<polyline fill="none" stroke="black" points="241.061,-104.5 374.061,-104.5 "/>
<text text-anchor="middle" x="307.561" y="-92.5" font-family="Helvetica,sans-Serif" font-size="10.00"> </text>
<polyline fill="none" stroke="black" points="241.061,-85.5 374.061,-85.5 "/>
<text text-anchor="start" x="249.061" y="-73.5" font-family="Helvetica,sans-Serif" font-size="10.00">+ OnGUI()</text>
<text text-anchor="start" x="249.061" y="-62.5" font-family="Helvetica,sans-Serif" font-size="10.00">+ levelUp()</text>
<text text-anchor="start" x="249.061" y="-51.5" font-family="Helvetica,sans-Serif" font-size="10.00">+ ChangeSpeed()</text>
<text text-anchor="start" x="249.061" y="-40.5" font-family="Helvetica,sans-Serif" font-size="10.00">+ Restart()</text>
<text text-anchor="start" x="249.061" y="-29.5" font-family="Helvetica,sans-Serif" font-size="10.00">&#45; Start()</text>
<text text-anchor="start" x="249.061" y="-18.5" font-family="Helvetica,sans-Serif" font-size="10.00">&#45; FixedUpdate()</text>
<text text-anchor="start" x="249.061" y="-7.5" font-family="Helvetica,sans-Serif" font-size="10.00">&#45; resetSpawnedThisCycle()</text>
</g>
<!-- Node3 -->
<g id="node2" class="node"><title>Node3</title>
<g id="a_node2"><a xlink:href="class_mono_behaviour.html" target="_top" xlink:title="{MonoBehaviour\n||}">
<polygon fill="none" stroke="black" points="132.061,-557.5 132.061,-614.5 215.061,-614.5 215.061,-557.5 132.061,-557.5"/>
<text text-anchor="middle" x="173.561" y="-602.5" font-family="Helvetica,sans-Serif" font-size="10.00">MonoBehaviour</text>
<polyline fill="none" stroke="black" points="132.061,-595.5 215.061,-595.5 "/>
<text text-anchor="middle" x="173.561" y="-583.5" font-family="Helvetica,sans-Serif" font-size="10.00"> </text>
<polyline fill="none" stroke="black" points="132.061,-576.5 215.061,-576.5 "/>
<text text-anchor="middle" x="173.561" y="-564.5" font-family="Helvetica,sans-Serif" font-size="10.00"> </text>
</a>
</g>
</g>
<!-- Node3&#45;&gt;Node2 -->
<g id="edge1" class="edge"><title>Node3&#45;&gt;Node2</title>
<path fill="none" stroke="midnightblue" d="M123.862,-551.048C103.441,-534.453 81.5726,-512.719 68.5612,-488 2.68112,-362.843 -31.5572,-292.67 40.5612,-171 81.4826,-101.962 176.042,-77.0398 240.898,-68.0529"/>
<polygon fill="none" stroke="midnightblue" points="121.874,-553.938 131.894,-557.38 126.208,-548.44 121.874,-553.938"/>
</g>
<!-- Node5 -->
<g id="node4" class="node"><title>Node5</title>
<g id="a_node4"><a xlink:href="class_scene_changer.html" target="_top" xlink:title="A set of functions to be called to change scenes smoothly whilst handling the player&#39;s location and a...">
<polygon fill="none" stroke="black" points="258.561,-171.5 258.561,-294.5 356.561,-294.5 356.561,-171.5 258.561,-171.5"/>
<text text-anchor="middle" x="307.561" y="-282.5" font-family="Helvetica,sans-Serif" font-size="10.00">SceneChanger</text>
<polyline fill="none" stroke="black" points="258.561,-275.5 356.561,-275.5 "/>
<text text-anchor="middle" x="307.561" y="-263.5" font-family="Helvetica,sans-Serif" font-size="10.00"> </text>
<polyline fill="none" stroke="black" points="258.561,-256.5 356.561,-256.5 "/>
<text text-anchor="start" x="266.561" y="-244.5" font-family="Helvetica,sans-Serif" font-size="10.00">+ loadLevel()</text>
<text text-anchor="start" x="266.561" y="-233.5" font-family="Helvetica,sans-Serif" font-size="10.00">+ loadLevel()</text>
<text text-anchor="start" x="266.561" y="-222.5" font-family="Helvetica,sans-Serif" font-size="10.00">+ changePosition()</text>
<text text-anchor="start" x="266.561" y="-211.5" font-family="Helvetica,sans-Serif" font-size="10.00">&#45; Awake()</text>
<text text-anchor="start" x="266.561" y="-200.5" font-family="Helvetica,sans-Serif" font-size="10.00">&#45; OnDisable()</text>
<text text-anchor="start" x="266.561" y="-189.5" font-family="Helvetica,sans-Serif" font-size="10.00">&#45; sceneChanged()</text>
<text text-anchor="start" x="266.561" y="-178.5" font-family="Helvetica,sans-Serif" font-size="10.00">&#45; changeScene()</text>
</a>
</g>
</g>
<!-- Node3&#45;&gt;Node5 -->
<g id="edge4" class="edge"><title>Node3&#45;&gt;Node5</title>
<path fill="none" stroke="midnightblue" d="M178.305,-547.32C186.341,-492.899 205.993,-390.352 247.561,-313 250.822,-306.932 254.529,-300.831 258.463,-294.856"/>
<polygon fill="none" stroke="midnightblue" points="174.84,-546.829 176.893,-557.223 181.769,-547.817 174.84,-546.829"/>
</g>
<!-- Node9 -->
<g id="node8" class="node"><title>Node9</title>
<g id="a_node8"><a xlink:href="class_player_movement.html" target="_top" xlink:title="A script to control the movement and animations of the player">
<polygon fill="none" stroke="black" points="316.061,-353.5 316.061,-487.5 421.061,-487.5 421.061,-353.5 316.061,-353.5"/>
<text text-anchor="middle" x="368.561" y="-475.5" font-family="Helvetica,sans-Serif" font-size="10.00">PlayerMovement</text>
<polyline fill="none" stroke="black" points="316.061,-468.5 421.061,-468.5 "/>
<text text-anchor="middle" x="368.561" y="-456.5" font-family="Helvetica,sans-Serif" font-size="10.00"> </text>
<polyline fill="none" stroke="black" points="316.061,-449.5 421.061,-449.5 "/>
<text text-anchor="start" x="324.061" y="-437.5" font-family="Helvetica,sans-Serif" font-size="10.00">+ move()</text>
<text text-anchor="start" x="324.061" y="-426.5" font-family="Helvetica,sans-Serif" font-size="10.00">+ setCanMove()</text>
<text text-anchor="start" x="324.061" y="-415.5" font-family="Helvetica,sans-Serif" font-size="10.00">&#45; Start()</text>
<text text-anchor="start" x="324.061" y="-404.5" font-family="Helvetica,sans-Serif" font-size="10.00">&#45; FixedUpdate()</text>
<text text-anchor="start" x="324.061" y="-393.5" font-family="Helvetica,sans-Serif" font-size="10.00">&#45; explorationMenu()</text>
<text text-anchor="start" x="324.061" y="-382.5" font-family="Helvetica,sans-Serif" font-size="10.00">&#45; randomEncounter()</text>
<text text-anchor="start" x="324.061" y="-371.5" font-family="Helvetica,sans-Serif" font-size="10.00">&#45; walkAnimation()</text>
<text text-anchor="start" x="324.061" y="-360.5" font-family="Helvetica,sans-Serif" font-size="10.00">&#45; setIdle()</text>
</a>
</g>
</g>
<!-- Node3&#45;&gt;Node9 -->
<g id="edge10" class="edge"><title>Node3&#45;&gt;Node9</title>
<path fill="none" stroke="midnightblue" d="M211.886,-550.659C227.939,-536.557 246.935,-520.231 264.561,-506 274.935,-497.624 278.098,-496.264 288.561,-488 297.49,-480.948 306.87,-473.339 315.937,-465.875"/>
<polygon fill="none" stroke="midnightblue" points="209.445,-548.145 204.26,-557.385 214.075,-553.395 209.445,-548.145"/>
</g>
<!-- Node4 -->
<g id="node3" class="node"><title>Node4</title>
<polygon fill="none" stroke="#bfbfbf" points="49.5612,-204.5 49.5612,-261.5 107.561,-261.5 107.561,-204.5 49.5612,-204.5"/>
<text text-anchor="middle" x="78.5612" y="-249.5" font-family="Helvetica,sans-Serif" font-size="10.00">AudioClip</text>
<polyline fill="none" stroke="#bfbfbf" points="49.5612,-242.5 107.561,-242.5 "/>
<text text-anchor="middle" x="78.5612" y="-230.5" font-family="Helvetica,sans-Serif" font-size="10.00"> </text>
<polyline fill="none" stroke="#bfbfbf" points="49.5612,-223.5 107.561,-223.5 "/>
<text text-anchor="middle" x="78.5612" y="-211.5" font-family="Helvetica,sans-Serif" font-size="10.00"> </text>
</g>
<!-- Node4&#45;&gt;Node2 -->
<g id="edge2" class="edge"><title>Node4&#45;&gt;Node2</title>
<path fill="none" stroke="#404040" d="M80.1681,-204.495C82.6855,-184.874 88.981,-159.048 104.561,-142 136.86,-106.659 186.858,-86.9525 229.151,-76.0596"/>
<polygon fill="none" stroke="#404040" points="229.194,-76.0493 234.079,-70.7455 240.854,-73.2153 235.969,-78.5192 229.194,-76.0493"/>
<text text-anchor="middle" x="117.061" y="-145" font-family="Helvetica,sans-Serif" font-size="10.00"> &#45;SFX</text>
</g>
<!-- Node5&#45;&gt;Node2 -->
<g id="edge3" class="edge"><title>Node5&#45;&gt;Node2</title>
<path fill="none" stroke="#404040" d="M307.561,-171.464C307.561,-159.936 307.561,-147.759 307.561,-135.893"/>
<polygon fill="none" stroke="#404040" points="307.561,-135.681 303.561,-129.681 307.561,-123.681 311.561,-129.681 307.561,-135.681"/>
<text text-anchor="middle" x="342.061" y="-145" font-family="Helvetica,sans-Serif" font-size="10.00"> &#45;sceneChanger</text>
</g>
<!-- Node5&#45;&gt;Node5 -->
<g id="edge5" class="edge"><title>Node5&#45;&gt;Node5</title>
<path fill="none" stroke="#404040" d="M356.642,-248.241C367.047,-246.694 374.561,-241.613 374.561,-233 374.561,-228.155 372.184,-224.428 368.251,-221.818"/>
<polygon fill="none" stroke="#404040" points="367.969,-221.72 360.985,-223.515 356.642,-217.759 363.626,-215.963 367.969,-221.72"/>
<text text-anchor="middle" x="397.561" y="-230.5" font-family="Helvetica,sans-Serif" font-size="10.00"> +instance</text>
</g>
<!-- Node6 -->
<g id="node5" class="node"><title>Node6</title>
<polygon fill="none" stroke="#bfbfbf" points="234.061,-557.5 234.061,-614.5 275.061,-614.5 275.061,-557.5 234.061,-557.5"/>
<text text-anchor="middle" x="254.561" y="-602.5" font-family="Helvetica,sans-Serif" font-size="10.00">string</text>
<polyline fill="none" stroke="#bfbfbf" points="234.061,-595.5 275.061,-595.5 "/>
<text text-anchor="middle" x="254.561" y="-583.5" font-family="Helvetica,sans-Serif" font-size="10.00"> </text>
<polyline fill="none" stroke="#bfbfbf" points="234.061,-576.5 275.061,-576.5 "/>
<text text-anchor="middle" x="254.561" y="-564.5" font-family="Helvetica,sans-Serif" font-size="10.00"> </text>
</g>
<!-- Node6&#45;&gt;Node5 -->
<g id="edge6" class="edge"><title>Node6&#45;&gt;Node5</title>
<path fill="none" stroke="#404040" d="M248.64,-557.363C240.288,-513.373 227.92,-425.038 245.561,-353 249.485,-336.977 255.982,-320.713 263.328,-305.568"/>
<polygon fill="none" stroke="#404040" points="263.382,-305.462 262.524,-298.303 268.803,-294.757 269.661,-301.917 263.382,-305.462"/>
<text text-anchor="middle" x="276.061" y="-418" font-family="Helvetica,sans-Serif" font-size="10.00"> +menuScene</text>
</g>
<!-- Node6&#45;&gt;Node9 -->
<g id="edge11" class="edge"><title>Node6&#45;&gt;Node9</title>
<path fill="none" stroke="#404040" d="M261.054,-557.28C265.551,-541.457 272.551,-521.707 282.561,-506 289.538,-495.053 298.181,-484.451 307.274,-474.67"/>
<polygon fill="none" stroke="#404040" points="307.379,-474.561 308.671,-467.467 315.716,-465.931 314.425,-473.025 307.379,-474.561"/>
<text text-anchor="middle" x="305.061" y="-520" font-family="Helvetica,sans-Serif" font-size="10.00"> &#45;lastMove</text>
</g>
<!-- Node7 -->
<g id="node6" class="node"><title>Node7</title>
<polygon fill="none" stroke="#bfbfbf" points="78.0612,-392 78.0612,-449 149.061,-449 149.061,-392 78.0612,-392"/>
<text text-anchor="middle" x="113.561" y="-437" font-family="Helvetica,sans-Serif" font-size="10.00">GameObject</text>
<polyline fill="none" stroke="#bfbfbf" points="78.0612,-430 149.061,-430 "/>
<text text-anchor="middle" x="113.561" y="-418" font-family="Helvetica,sans-Serif" font-size="10.00"> </text>
<polyline fill="none" stroke="#bfbfbf" points="78.0612,-411 149.061,-411 "/>
<text text-anchor="middle" x="113.561" y="-399" font-family="Helvetica,sans-Serif" font-size="10.00"> </text>
</g>
<!-- Node7&#45;&gt;Node2 -->
<g id="edge18" class="edge"><title>Node7&#45;&gt;Node2</title>
<path fill="none" stroke="#404040" d="M116.176,-391.89C118.725,-370.108 123.438,-339.145 131.561,-313 152.212,-246.539 157.418,-227.85 197.561,-171 207.658,-156.701 219.776,-142.658 232.224,-129.675"/>
<polygon fill="none" stroke="#404040" points="232.466,-129.428 233.815,-122.345 240.873,-120.866 239.523,-127.949 232.466,-129.428"/>
<text text-anchor="middle" x="223.561" y="-230.5" font-family="Helvetica,sans-Serif" font-size="10.00"> +Spawners</text>
</g>
<!-- Node7&#45;&gt;Node5 -->
<g id="edge7" class="edge"><title>Node7&#45;&gt;Node5</title>
<path fill="none" stroke="#404040" d="M116.274,-391.538C119.993,-367.756 128.79,-334.182 149.561,-313 166.098,-296.137 178.091,-304.843 199.561,-295 215.625,-287.636 232.488,-278.725 247.987,-270.015"/>
<polygon fill="none" stroke="#404040" points="248.047,-269.981 251.279,-263.535 258.472,-264.039 255.24,-270.485 248.047,-269.981"/>
<text text-anchor="middle" x="166.061" y="-321.5" font-family="Helvetica,sans-Serif" font-size="10.00"> &#45;player</text>
</g>
<!-- Node8 -->
<g id="node7" class="node"><title>Node8</title>
<polygon fill="none" stroke="#bfbfbf" points="445.561,-557.5 445.561,-614.5 495.561,-614.5 495.561,-557.5 445.561,-557.5"/>
<text text-anchor="middle" x="470.561" y="-602.5" font-family="Helvetica,sans-Serif" font-size="10.00">Vector2</text>
<polyline fill="none" stroke="#bfbfbf" points="445.561,-595.5 495.561,-595.5 "/>
<text text-anchor="middle" x="470.561" y="-583.5" font-family="Helvetica,sans-Serif" font-size="10.00"> </text>
<polyline fill="none" stroke="#bfbfbf" points="445.561,-576.5 495.561,-576.5 "/>
<text text-anchor="middle" x="470.561" y="-564.5" font-family="Helvetica,sans-Serif" font-size="10.00"> </text>
</g>
<!-- Node8&#45;&gt;Node5 -->
<g id="edge8" class="edge"><title>Node8&#45;&gt;Node5</title>
<path fill="none" stroke="#404040" d="M495.802,-562.485C498.653,-560.474 501.6,-558.598 504.561,-557 528.313,-544.18 546.552,-560.73 562.561,-539 571.26,-527.192 567.135,-519.935 562.561,-506 529.349,-404.818 496.769,-387.386 420.561,-313 404.446,-297.27 384.915,-282.432 366.654,-269.956"/>
<polygon fill="none" stroke="#404040" points="366.644,-269.949 359.433,-269.937 356.67,-263.276 363.881,-263.288 366.644,-269.949"/>
<text text-anchor="middle" x="588.561" y="-418" font-family="Helvetica,sans-Serif" font-size="10.00"> +startPosition</text>
</g>
<!-- Node8&#45;&gt;Node9 -->
<g id="edge14" class="edge"><title>Node8&#45;&gt;Node9</title>
<path fill="none" stroke="#404040" d="M446.363,-557.444C441.573,-551.52 436.739,-545.178 432.561,-539 423.903,-526.196 415.422,-512.11 407.611,-498.274"/>
<polygon fill="none" stroke="#404040" points="407.602,-498.258 401.192,-494.954 401.776,-487.767 408.186,-491.071 407.602,-498.258"/>
<text text-anchor="middle" x="471.061" y="-520" font-family="Helvetica,sans-Serif" font-size="10.00"> &#45;previousPosition</text>
</g>
<!-- Node9&#45;&gt;Node5 -->
<g id="edge9" class="edge"><title>Node9&#45;&gt;Node5</title>
<path fill="none" stroke="#404040" d="M346.797,-353.316C341.78,-338.06 336.419,-321.756 331.322,-306.257"/>
<polygon fill="none" stroke="#404040" points="331.235,-305.991 325.561,-301.541 327.486,-294.591 333.16,-299.041 331.235,-305.991"/>
<text text-anchor="middle" x="378.561" y="-321.5" font-family="Helvetica,sans-Serif" font-size="10.00"> &#45;movementScript</text>
</g>
<!-- Node10 -->
<g id="node9" class="node"><title>Node10</title>
<polygon fill="none" stroke="#bfbfbf" points="371.561,-557.5 371.561,-614.5 427.561,-614.5 427.561,-557.5 371.561,-557.5"/>
<text text-anchor="middle" x="399.561" y="-602.5" font-family="Helvetica,sans-Serif" font-size="10.00">Animator</text>
<polyline fill="none" stroke="#bfbfbf" points="371.561,-595.5 427.561,-595.5 "/>
<text text-anchor="middle" x="399.561" y="-583.5" font-family="Helvetica,sans-Serif" font-size="10.00"> </text>
<polyline fill="none" stroke="#bfbfbf" points="371.561,-576.5 427.561,-576.5 "/>
<text text-anchor="middle" x="399.561" y="-564.5" font-family="Helvetica,sans-Serif" font-size="10.00"> </text>
</g>
<!-- Node10&#45;&gt;Node9 -->
<g id="edge12" class="edge"><title>Node10&#45;&gt;Node9</title>
<path fill="none" stroke="#404040" d="M387.321,-557.161C385.109,-551.257 383.038,-544.995 381.561,-539 378.46,-526.413 376.097,-512.884 374.298,-499.644"/>
<polygon fill="none" stroke="#404040" points="374.281,-499.51 369.571,-494.05 372.799,-487.602 377.51,-493.062 374.281,-499.51"/>
<text text-anchor="middle" x="395.561" y="-520" font-family="Helvetica,sans-Serif" font-size="10.00"> &#45;anim</text>
</g>
<!-- Node11 -->
<g id="node10" class="node"><title>Node11</title>
<polygon fill="none" stroke="#bfbfbf" points="514.061,-557.5 514.061,-614.5 549.061,-614.5 549.061,-557.5 514.061,-557.5"/>
<text text-anchor="middle" x="531.561" y="-602.5" font-family="Helvetica,sans-Serif" font-size="10.00">float</text>
<polyline fill="none" stroke="#bfbfbf" points="514.061,-595.5 549.061,-595.5 "/>
<text text-anchor="middle" x="531.561" y="-583.5" font-family="Helvetica,sans-Serif" font-size="10.00"> </text>
<polyline fill="none" stroke="#bfbfbf" points="514.061,-576.5 549.061,-576.5 "/>
<text text-anchor="middle" x="531.561" y="-564.5" font-family="Helvetica,sans-Serif" font-size="10.00"> </text>
</g>
<!-- Node11&#45;&gt;Node2 -->
<g id="edge19" class="edge"><title>Node11&#45;&gt;Node2</title>
<path fill="none" stroke="#404040" d="M549.149,-583.594C593.01,-579.685 705.31,-567.078 727.561,-539 736.671,-527.505 731.843,-520.028 727.561,-506 672.316,-325.01 489.816,-180.985 384.451,-110.407"/>
<polygon fill="none" stroke="#404040" points="384.19,-110.234 376.979,-110.252 374.19,-103.602 381.401,-103.584 384.19,-110.234"/>
<text text-anchor="middle" x="645.561" y="-327" font-family="Helvetica,sans-Serif" font-size="10.00"> &#45;spd</text>
<text text-anchor="middle" x="645.561" y="-316" font-family="Helvetica,sans-Serif" font-size="10.00">&#45;tick</text>
</g>
<!-- Node11&#45;&gt;Node9 -->
<g id="edge13" class="edge"><title>Node11&#45;&gt;Node9</title>
<path fill="none" stroke="#404040" d="M529.034,-557.498C526.363,-541.172 520.867,-520.833 509.561,-506 489.795,-480.066 459.586,-460.45 432.193,-446.677"/>
<polygon fill="none" stroke="#404040" points="431.876,-446.525 424.734,-447.524 421.065,-441.316 428.207,-440.317 431.876,-446.525"/>
<text text-anchor="middle" x="542.061" y="-520" font-family="Helvetica,sans-Serif" font-size="10.00"> &#45;speed</text>
</g>
<!-- Node12 -->
<g id="node11" class="node"><title>Node12</title>
<polygon fill="none" stroke="#bfbfbf" points="749.061,-557.5 749.061,-614.5 784.061,-614.5 784.061,-557.5 749.061,-557.5"/>
<text text-anchor="middle" x="766.561" y="-602.5" font-family="Helvetica,sans-Serif" font-size="10.00">bool</text>
<polyline fill="none" stroke="#bfbfbf" points="749.061,-595.5 784.061,-595.5 "/>
<text text-anchor="middle" x="766.561" y="-583.5" font-family="Helvetica,sans-Serif" font-size="10.00"> </text>
<polyline fill="none" stroke="#bfbfbf" points="749.061,-576.5 784.061,-576.5 "/>
<text text-anchor="middle" x="766.561" y="-564.5" font-family="Helvetica,sans-Serif" font-size="10.00"> </text>
</g>
<!-- Node12&#45;&gt;Node2 -->
<g id="edge21" class="edge"><title>Node12&#45;&gt;Node2</title>
<path fill="none" stroke="#404040" d="M784.079,-567.984C801.244,-549.979 826.28,-519.816 836.561,-488 855.011,-430.907 865.517,-405.551 836.561,-353 743.255,-183.66 509.44,-107.746 386.278,-78.5737"/>
<polygon fill="none" stroke="#404040" points="386.043,-78.5193 379.295,-81.0632 374.352,-75.8132 381.099,-73.2693 386.043,-78.5193"/>
<text text-anchor="middle" x="868.561" y="-321.5" font-family="Helvetica,sans-Serif" font-size="10.00"> &#45;spawnedThisCycle</text>
</g>
<!-- Node12&#45;&gt;Node5 -->
<g id="edge17" class="edge"><title>Node12&#45;&gt;Node5</title>
<path fill="none" stroke="#404040" d="M768.628,-557.164C772.602,-495.142 778.325,-348.275 746.561,-313 697.102,-258.073 477.305,-241.135 368.705,-236.072"/>
<polygon fill="none" stroke="#404040" points="368.649,-236.07 362.478,-239.8 356.661,-235.538 362.832,-231.808 368.649,-236.07"/>
<text text-anchor="middle" x="802.561" y="-423.5" font-family="Helvetica,sans-Serif" font-size="10.00"> +movePlayer</text>
<text text-anchor="middle" x="802.561" y="-412.5" font-family="Helvetica,sans-Serif" font-size="10.00">+menuOpen</text>
</g>
<!-- Node12&#45;&gt;Node9 -->
<g id="edge15" class="edge"><title>Node12&#45;&gt;Node9</title>
<path fill="none" stroke="#404040" d="M749.035,-579.109C724.252,-570.686 677.63,-554.502 638.561,-539 635.971,-537.972 511.572,-483.799 432.551,-449.378"/>
<polygon fill="none" stroke="#404040" points="432.243,-449.244 425.145,-450.515 421.242,-444.451 428.34,-443.18 432.243,-449.244"/>
<text text-anchor="middle" x="695.561" y="-531" font-family="Helvetica,sans-Serif" font-size="10.00"> &#45;playerExists</text>
<text text-anchor="middle" x="695.561" y="-520" font-family="Helvetica,sans-Serif" font-size="10.00">+pseudoEscapeKeyPress</text>
<text text-anchor="middle" x="695.561" y="-509" font-family="Helvetica,sans-Serif" font-size="10.00">&#45;canMove</text>
</g>
<!-- Node13 -->
<g id="node12" class="node"><title>Node13</title>
<polygon fill="none" stroke="#bfbfbf" points="294.061,-557.5 294.061,-614.5 353.061,-614.5 353.061,-557.5 294.061,-557.5"/>
<text text-anchor="middle" x="323.561" y="-602.5" font-family="Helvetica,sans-Serif" font-size="10.00">Transform</text>
<polyline fill="none" stroke="#bfbfbf" points="294.061,-595.5 353.061,-595.5 "/>
<text text-anchor="middle" x="323.561" y="-583.5" font-family="Helvetica,sans-Serif" font-size="10.00"> </text>
<polyline fill="none" stroke="#bfbfbf" points="294.061,-576.5 353.061,-576.5 "/>
<text text-anchor="middle" x="323.561" y="-564.5" font-family="Helvetica,sans-Serif" font-size="10.00"> </text>
</g>
<!-- Node13&#45;&gt;Node9 -->
<g id="edge16" class="edge"><title>Node13&#45;&gt;Node9</title>
<path fill="none" stroke="#404040" d="M327.742,-557.344C330.318,-542.074 334.001,-522.844 338.561,-506 339.171,-503.746 339.813,-501.466 340.481,-499.171"/>
<polygon fill="none" stroke="#404040" points="340.503,-499.097 338.428,-492.19 344.005,-487.619 346.08,-494.525 340.503,-499.097"/>
<text text-anchor="middle" x="355.061" y="-520" font-family="Helvetica,sans-Serif" font-size="10.00"> &#45;player</text>
</g>
<!-- Node14 -->
<g id="node13" class="node"><title>Node14</title>
<polygon fill="none" stroke="#bfbfbf" points="883.061,-204.5 883.061,-261.5 912.061,-261.5 912.061,-204.5 883.061,-204.5"/>
<text text-anchor="middle" x="897.561" y="-249.5" font-family="Helvetica,sans-Serif" font-size="10.00">int</text>
<polyline fill="none" stroke="#bfbfbf" points="883.061,-242.5 912.061,-242.5 "/>
<text text-anchor="middle" x="897.561" y="-230.5" font-family="Helvetica,sans-Serif" font-size="10.00"> </text>
<polyline fill="none" stroke="#bfbfbf" points="883.061,-223.5 912.061,-223.5 "/>
<text text-anchor="middle" x="897.561" y="-211.5" font-family="Helvetica,sans-Serif" font-size="10.00"> </text>
</g>
<!-- Node14&#45;&gt;Node2 -->
<g id="edge20" class="edge"><title>Node14&#45;&gt;Node2</title>
<path fill="none" stroke="#404040" d="M896.152,-204.133C893.564,-183.794 886.649,-157.22 868.561,-142 797.104,-81.8751 522.98,-67.4803 386.172,-64.0553"/>
<polygon fill="none" stroke="#404040" points="386.166,-64.0552 380.074,-67.9136 374.169,-63.7742 380.261,-59.9158 386.166,-64.0552"/>
<text text-anchor="middle" x="890.061" y="-145" font-family="Helvetica,sans-Serif" font-size="10.00"> &#45;level</text>
</g>
</g>
</svg>
