<?xml version="1.0" encoding="UTF-8" standalone="no"?>
<!DOCTYPE svg PUBLIC "-//W3C//DTD SVG 1.1//EN"
 "http://www.w3.org/Graphics/SVG/1.1/DTD/svg11.dtd">
<!-- Generated by graphviz version 2.38.0 (20140413.2041)
 -->
<!-- Title: MainBattle Pages: 1 -->
<svg width="1368pt" height="1720pt"
 viewBox="0.00 0.00 1368.00 1720.00" xmlns="http://www.w3.org/2000/svg" xmlns:xlink="http://www.w3.org/1999/xlink">
<g id="graph0" class="graph" transform="scale(1 1) rotate(0) translate(4 1716)">
<title>MainBattle</title>
<!-- Node2 -->
<g id="node1" class="node"><title>Node2</title>
<polygon fill="#bfbfbf" stroke="black" points="809,-0.5 809,-255.5 935,-255.5 935,-0.5 809,-0.5"/>
<text text-anchor="middle" x="872" y="-243.5" font-family="Helvetica,sans-Serif" font-size="10.00">MainBattle</text>
<polyline fill="none" stroke="black" points="809,-236.5 935,-236.5 "/>
<text text-anchor="middle" x="872" y="-224.5" font-family="Helvetica,sans-Serif" font-size="10.00"> </text>
<polyline fill="none" stroke="black" points="809,-217.5 935,-217.5 "/>
<text text-anchor="start" x="817" y="-205.5" font-family="Helvetica,sans-Serif" font-size="10.00">+ standardAttack()</text>
<text text-anchor="start" x="817" y="-194.5" font-family="Helvetica,sans-Serif" font-size="10.00">+ special1()</text>
<text text-anchor="start" x="817" y="-183.5" font-family="Helvetica,sans-Serif" font-size="10.00">+ special2()</text>
<text text-anchor="start" x="817" y="-172.5" font-family="Helvetica,sans-Serif" font-size="10.00">+ switchPlayers()</text>
<text text-anchor="start" x="817" y="-161.5" font-family="Helvetica,sans-Serif" font-size="10.00">+ updateToNewPlayer()</text>
<text text-anchor="start" x="817" y="-150.5" font-family="Helvetica,sans-Serif" font-size="10.00">+ ranAway()</text>
<text text-anchor="start" x="817" y="-139.5" font-family="Helvetica,sans-Serif" font-size="10.00">&#45; Start()</text>
<text text-anchor="start" x="817" y="-128.5" font-family="Helvetica,sans-Serif" font-size="10.00">&#45; Update()</text>
<text text-anchor="start" x="817" y="-117.5" font-family="Helvetica,sans-Serif" font-size="10.00">&#45; playerThenEnemy()</text>
<text text-anchor="start" x="817" y="-106.5" font-family="Helvetica,sans-Serif" font-size="10.00">&#45; enemyThenPlayer()</text>
<text text-anchor="start" x="817" y="-95.5" font-family="Helvetica,sans-Serif" font-size="10.00">&#45; performTurn()</text>
<text text-anchor="start" x="817" y="-84.5" font-family="Helvetica,sans-Serif" font-size="10.00">&#45; updateBars()</text>
<text text-anchor="start" x="817" y="-73.5" font-family="Helvetica,sans-Serif" font-size="10.00">&#45; checkIfPlayerWon()</text>
<text text-anchor="start" x="817" y="-62.5" font-family="Helvetica,sans-Serif" font-size="10.00">&#45; updateExp()</text>
<text text-anchor="start" x="817" y="-51.5" font-family="Helvetica,sans-Serif" font-size="10.00">&#45; updateExpHelper()</text>
<text text-anchor="start" x="817" y="-40.5" font-family="Helvetica,sans-Serif" font-size="10.00">&#45; checkIfPlayerLost()</text>
<text text-anchor="start" x="817" y="-29.5" font-family="Helvetica,sans-Serif" font-size="10.00">&#45; setButtonsInteractable()</text>
<text text-anchor="start" x="817" y="-18.5" font-family="Helvetica,sans-Serif" font-size="10.00">&#45; prepareTurn()</text>
<text text-anchor="start" x="817" y="-7.5" font-family="Helvetica,sans-Serif" font-size="10.00">&#45; runAway()</text>
</g>
<!-- Node3 -->
<g id="node2" class="node"><title>Node3</title>
<g id="a_node2"><a xlink:href="class_mono_behaviour.html" target="_top" xlink:title="{MonoBehaviour\n||}">
<polygon fill="none" stroke="black" points="943.5,-904.5 943.5,-961.5 1026.5,-961.5 1026.5,-904.5 943.5,-904.5"/>
<text text-anchor="middle" x="985" y="-949.5" font-family="Helvetica,sans-Serif" font-size="10.00">MonoBehaviour</text>
<polyline fill="none" stroke="black" points="943.5,-942.5 1026.5,-942.5 "/>
<text text-anchor="middle" x="985" y="-930.5" font-family="Helvetica,sans-Serif" font-size="10.00"> </text>
<polyline fill="none" stroke="black" points="943.5,-923.5 1026.5,-923.5 "/>
<text text-anchor="middle" x="985" y="-911.5" font-family="Helvetica,sans-Serif" font-size="10.00"> </text>
</a>
</g>
</g>
<!-- Node3&#45;&gt;Node2 -->
<g id="edge1" class="edge"><title>Node3&#45;&gt;Node2</title>
<path fill="none" stroke="midnightblue" d="M976.672,-894.362C975.362,-887.918 974.084,-881.278 973,-875 935.601,-658.474 903.763,-404.596 886.312,-255.816"/>
<polygon fill="none" stroke="midnightblue" points="973.265,-895.171 978.733,-904.246 980.117,-893.742 973.265,-895.171"/>
</g>
<!-- Node19 -->
<g id="node18" class="node"><title>Node19</title>
<g id="a_node18"><a xlink:href="class_stats_script.html" target="_top" xlink:title="A script used to manage and update all of the stat displays in the battle scene ">
<polygon fill="none" stroke="black" points="1038.5,-744.5 1038.5,-823.5 1131.5,-823.5 1131.5,-744.5 1038.5,-744.5"/>
<text text-anchor="middle" x="1085" y="-811.5" font-family="Helvetica,sans-Serif" font-size="10.00">StatsScript</text>
<polyline fill="none" stroke="black" points="1038.5,-804.5 1131.5,-804.5 "/>
<text text-anchor="middle" x="1085" y="-792.5" font-family="Helvetica,sans-Serif" font-size="10.00"> </text>
<polyline fill="none" stroke="black" points="1038.5,-785.5 1131.5,-785.5 "/>
<text text-anchor="start" x="1046.5" y="-773.5" font-family="Helvetica,sans-Serif" font-size="10.00">+ setUpDisplay()</text>
<text text-anchor="start" x="1046.5" y="-762.5" font-family="Helvetica,sans-Serif" font-size="10.00">+ updateDisplay()</text>
<text text-anchor="start" x="1046.5" y="-751.5" font-family="Helvetica,sans-Serif" font-size="10.00">&#45; Start()</text>
</a>
</g>
</g>
<!-- Node3&#45;&gt;Node19 -->
<g id="edge33" class="edge"><title>Node3&#45;&gt;Node19</title>
<path fill="none" stroke="midnightblue" d="M1029.93,-897.989C1040.63,-889.21 1050.08,-880.652 1054,-875 1064.64,-859.651 1071.92,-840.317 1076.75,-823.506"/>
<polygon fill="none" stroke="midnightblue" points="1027.58,-895.387 1021.98,-904.382 1031.97,-900.841 1027.58,-895.387"/>
</g>
<!-- Node4 -->
<g id="node3" class="node"><title>Node4</title>
<polygon fill="none" stroke="#bfbfbf" points="976,-347.5 976,-404.5 1034,-404.5 1034,-347.5 976,-347.5"/>
<text text-anchor="middle" x="1005" y="-392.5" font-family="Helvetica,sans-Serif" font-size="10.00">AudioClip</text>
<polyline fill="none" stroke="#bfbfbf" points="976,-385.5 1034,-385.5 "/>
<text text-anchor="middle" x="1005" y="-373.5" font-family="Helvetica,sans-Serif" font-size="10.00"> </text>
<polyline fill="none" stroke="#bfbfbf" points="976,-366.5 1034,-366.5 "/>
<text text-anchor="middle" x="1005" y="-354.5" font-family="Helvetica,sans-Serif" font-size="10.00"> </text>
</g>
<!-- Node4&#45;&gt;Node2 -->
<g id="edge2" class="edge"><title>Node4&#45;&gt;Node2</title>
<path fill="none" stroke="#404040" d="M994.604,-347.473C986.506,-326.866 974.56,-298.185 962,-274 955.599,-261.675 948.525,-249.001 941.238,-236.521"/>
<polygon fill="none" stroke="#404040" points="941.182,-236.426 934.686,-233.295 935.078,-226.095 941.574,-229.226 941.182,-236.426"/>
<text text-anchor="middle" x="1002.5" y="-304.5" font-family="Helvetica,sans-Serif" font-size="10.00"> &#45;BGM</text>
<text text-anchor="middle" x="1002.5" y="-293.5" font-family="Helvetica,sans-Serif" font-size="10.00">&#45;victory</text>
</g>
<!-- Node5 -->
<g id="node4" class="node"><title>Node5</title>
<g id="a_node4"><a xlink:href="class_item.html" target="_top" xlink:title="Abstract class for items that can be equipped to a player, increasing some of their stats ...">
<polygon fill="none" stroke="black" points="241.5,-1516.5 241.5,-1595.5 318.5,-1595.5 318.5,-1516.5 241.5,-1516.5"/>
<text text-anchor="middle" x="280" y="-1583.5" font-family="Helvetica,sans-Serif" font-size="10.00">Item</text>
<polyline fill="none" stroke="black" points="241.5,-1576.5 318.5,-1576.5 "/>
<text text-anchor="start" x="249.5" y="-1564.5" font-family="Helvetica,sans-Serif" font-size="10.00">+ Name</text>
<text text-anchor="start" x="249.5" y="-1553.5" font-family="Helvetica,sans-Serif" font-size="10.00">+ Desc</text>
<polyline fill="none" stroke="black" points="241.5,-1546.5 318.5,-1546.5 "/>
<text text-anchor="start" x="249.5" y="-1534.5" font-family="Helvetica,sans-Serif" font-size="10.00">+ applyBuffs()</text>
<text text-anchor="start" x="249.5" y="-1523.5" font-family="Helvetica,sans-Serif" font-size="10.00">+ revertBuffs()</text>
</a>
</g>
</g>
<!-- Node5&#45;&gt;Node2 -->
<g id="edge3" class="edge"><title>Node5&#45;&gt;Node2</title>
<path fill="none" stroke="#404040" d="M241.412,-1547.74C176.149,-1532.98 51,-1492.9 51,-1402.5 51,-1402.5 51,-1402.5 51,-375 51,-220.07 594.27,-154.416 796.953,-135.313"/>
<polygon fill="none" stroke="#404040" points="796.992,-135.31 802.597,-130.772 808.941,-134.2 803.336,-138.738 796.992,-135.31"/>
<text text-anchor="middle" x="80" y="-861.5" font-family="Helvetica,sans-Serif" font-size="10.00"> &#45;itemReward</text>
</g>
<!-- Node15 -->
<g id="node14" class="node"><title>Node15</title>
<g id="a_node14"><a xlink:href="class_player.html" target="_top" xlink:title="Defines a playable character for use in battle scenes">
<polygon fill="none" stroke="black" points="272,-1345.5 272,-1457.5 384,-1457.5 384,-1345.5 272,-1345.5"/>
<text text-anchor="middle" x="328" y="-1445.5" font-family="Helvetica,sans-Serif" font-size="10.00">Player</text>
<polyline fill="none" stroke="black" points="272,-1438.5 384,-1438.5 "/>
<text text-anchor="start" x="280" y="-1426.5" font-family="Helvetica,sans-Serif" font-size="10.00">+ Exp</text>
<text text-anchor="start" x="280" y="-1415.5" font-family="Helvetica,sans-Serif" font-size="10.00">+ Item</text>
<text text-anchor="start" x="280" y="-1404.5" font-family="Helvetica,sans-Serif" font-size="10.00">+ ExpToNextLevel</text>
<polyline fill="none" stroke="black" points="272,-1397.5 384,-1397.5 "/>
<text text-anchor="start" x="280" y="-1385.5" font-family="Helvetica,sans-Serif" font-size="10.00">+ Player()</text>
<text text-anchor="start" x="280" y="-1374.5" font-family="Helvetica,sans-Serif" font-size="10.00">+ gainExp()</text>
<text text-anchor="start" x="280" y="-1363.5" font-family="Helvetica,sans-Serif" font-size="10.00">+ levelUp()</text>
<text text-anchor="start" x="280" y="-1352.5" font-family="Helvetica,sans-Serif" font-size="10.00">&#45; setExpToNextLevel()</text>
</a>
</g>
</g>
<!-- Node5&#45;&gt;Node15 -->
<g id="edge22" class="edge"><title>Node5&#45;&gt;Node15</title>
<path fill="none" stroke="#404040" d="M276.263,-1516.18C276.118,-1503.18 277.185,-1488.75 281,-1476 281.729,-1473.56 282.565,-1471.13 283.491,-1468.71"/>
<polygon fill="none" stroke="#404040" points="283.581,-1468.5 282.334,-1461.4 288.411,-1457.52 289.658,-1464.62 283.581,-1468.5"/>
<text text-anchor="middle" x="293.5" y="-1484.5" font-family="Helvetica,sans-Serif" font-size="10.00"> &#45;item</text>
</g>
<!-- Node6 -->
<g id="node5" class="node"><title>Node6</title>
<polygon fill="none" stroke="#bfbfbf" points="624.5,-1654.5 624.5,-1711.5 665.5,-1711.5 665.5,-1654.5 624.5,-1654.5"/>
<text text-anchor="middle" x="645" y="-1699.5" font-family="Helvetica,sans-Serif" font-size="10.00">string</text>
<polyline fill="none" stroke="#bfbfbf" points="624.5,-1692.5 665.5,-1692.5 "/>
<text text-anchor="middle" x="645" y="-1680.5" font-family="Helvetica,sans-Serif" font-size="10.00"> </text>
<polyline fill="none" stroke="#bfbfbf" points="624.5,-1673.5 665.5,-1673.5 "/>
<text text-anchor="middle" x="645" y="-1661.5" font-family="Helvetica,sans-Serif" font-size="10.00"> </text>
</g>
<!-- Node6&#45;&gt;Node2 -->
<g id="edge5" class="edge"><title>Node6&#45;&gt;Node2</title>
<path fill="none" stroke="#404040" d="M624.27,-1680.24C513.869,-1670.59 0,-1622.16 0,-1557 0,-1557 0,-1557 0,-375 0,-320.384 24.0719,-303.555 70,-274 190.337,-196.562 621.192,-150.973 796.748,-135.247"/>
<polygon fill="none" stroke="#404040" points="796.986,-135.226 802.609,-130.712 808.939,-134.167 803.315,-138.681 796.986,-135.226"/>
<text text-anchor="middle" x="11.5" y="-930.5" font-family="Helvetica,sans-Serif" font-size="10.00"> &#45;text</text>
</g>
<!-- Node6&#45;&gt;Node5 -->
<g id="edge4" class="edge"><title>Node6&#45;&gt;Node5</title>
<path fill="none" stroke="#404040" d="M624.314,-1676.91C576.941,-1665.01 457.249,-1633.48 361,-1596 350.64,-1591.97 339.774,-1587.16 329.485,-1582.32"/>
<polygon fill="none" stroke="#404040" points="329.416,-1582.28 322.276,-1583.29 318.599,-1577.09 325.74,-1576.08 329.416,-1582.28"/>
<text text-anchor="middle" x="492" y="-1628" font-family="Helvetica,sans-Serif" font-size="10.00"> #desc</text>
<text text-anchor="middle" x="492" y="-1617" font-family="Helvetica,sans-Serif" font-size="10.00">#name</text>
</g>
<!-- Node9 -->
<g id="node8" class="node"><title>Node9</title>
<g id="a_node8"><a xlink:href="class_character.html" target="_top" xlink:title="Base abstract class for Enemy and Player to inherit from. Defines all shared variables, their constructor and their setters and getters ">
<polygon fill="none" stroke="black" points="475.5,-496.5 475.5,-674.5 570.5,-674.5 570.5,-496.5 475.5,-496.5"/>
<text text-anchor="middle" x="523" y="-662.5" font-family="Helvetica,sans-Serif" font-size="10.00">Character</text>
<polyline fill="none" stroke="black" points="475.5,-655.5 570.5,-655.5 "/>
<text text-anchor="start" x="483.5" y="-643.5" font-family="Helvetica,sans-Serif" font-size="10.00">+ Name</text>
<text text-anchor="start" x="483.5" y="-632.5" font-family="Helvetica,sans-Serif" font-size="10.00">+ Level</text>
<text text-anchor="start" x="483.5" y="-621.5" font-family="Helvetica,sans-Serif" font-size="10.00">+ Health</text>
<text text-anchor="start" x="483.5" y="-610.5" font-family="Helvetica,sans-Serif" font-size="10.00">+ Attack</text>
<text text-anchor="start" x="483.5" y="-599.5" font-family="Helvetica,sans-Serif" font-size="10.00">+ Defence</text>
<text text-anchor="start" x="483.5" y="-588.5" font-family="Helvetica,sans-Serif" font-size="10.00">+ MaximumMagic</text>
<text text-anchor="start" x="483.5" y="-577.5" font-family="Helvetica,sans-Serif" font-size="10.00">+ Magic</text>
<text text-anchor="start" x="483.5" y="-566.5" font-family="Helvetica,sans-Serif" font-size="10.00">+ Luck</text>
<text text-anchor="start" x="483.5" y="-555.5" font-family="Helvetica,sans-Serif" font-size="10.00">+ Speed</text>
<text text-anchor="start" x="483.5" y="-544.5" font-family="Helvetica,sans-Serif" font-size="10.00">+ Special1</text>
<text text-anchor="start" x="483.5" y="-533.5" font-family="Helvetica,sans-Serif" font-size="10.00">+ Special2</text>
<text text-anchor="start" x="483.5" y="-522.5" font-family="Helvetica,sans-Serif" font-size="10.00">+ Image</text>
<polyline fill="none" stroke="black" points="475.5,-515.5 570.5,-515.5 "/>
<text text-anchor="start" x="483.5" y="-503.5" font-family="Helvetica,sans-Serif" font-size="10.00"># Character()</text>
</a>
</g>
</g>
<!-- Node6&#45;&gt;Node9 -->
<g id="edge9" class="edge"><title>Node6&#45;&gt;Node9</title>
<path fill="none" stroke="#404040" d="M665.738,-1681.91C728.962,-1680.43 915,-1666.77 915,-1557 915,-1557 915,-1557 915,-1034 915,-970.706 924.214,-949.148 895,-893 882.99,-869.917 744.051,-749.583 724,-733 677.373,-694.438 621.568,-654.198 580.604,-625.671"/>
<polygon fill="none" stroke="#404040" points="580.383,-625.518 573.173,-625.385 570.523,-618.679 577.733,-618.812 580.383,-625.518"/>
<text text-anchor="middle" x="931.5" y="-1189.5" font-family="Helvetica,sans-Serif" font-size="10.00"> #name</text>
</g>
<!-- Node11 -->
<g id="node10" class="node"><title>Node11</title>
<g id="a_node10"><a xlink:href="class_special_move.html" target="_top" xlink:title="Special move abstract base class that expands upon CharacterMove, adding magic properties ...">
<polygon fill="none" stroke="black" points="474,-733.5 474,-834.5 572,-834.5 572,-733.5 474,-733.5"/>
<text text-anchor="middle" x="523" y="-822.5" font-family="Helvetica,sans-Serif" font-size="10.00">SpecialMove</text>
<polyline fill="none" stroke="black" points="474,-815.5 572,-815.5 "/>
<text text-anchor="start" x="482" y="-803.5" font-family="Helvetica,sans-Serif" font-size="10.00">+ Magic</text>
<text text-anchor="start" x="482" y="-792.5" font-family="Helvetica,sans-Serif" font-size="10.00">+ Desc</text>
<text text-anchor="start" x="482" y="-781.5" font-family="Helvetica,sans-Serif" font-size="10.00">+ Special</text>
<polyline fill="none" stroke="black" points="474,-774.5 572,-774.5 "/>
<text text-anchor="start" x="482" y="-762.5" font-family="Helvetica,sans-Serif" font-size="10.00">+ setUp()</text>
<text text-anchor="start" x="482" y="-751.5" font-family="Helvetica,sans-Serif" font-size="10.00">+ decreaseMagic()</text>
<text text-anchor="start" x="482" y="-740.5" font-family="Helvetica,sans-Serif" font-size="10.00"># SpecialMove()</text>
</a>
</g>
</g>
<!-- Node6&#45;&gt;Node11 -->
<g id="edge24" class="edge"><title>Node6&#45;&gt;Node11</title>
<path fill="none" stroke="#404040" d="M628.522,-1654.22C605.089,-1613.04 563.086,-1532.6 546,-1458 495.582,-1237.87 508.155,-966.773 517.364,-846.949"/>
<polygon fill="none" stroke="#404040" points="517.379,-846.767 513.865,-840.47 518.326,-834.805 521.84,-841.102 517.379,-846.767"/>
<text text-anchor="middle" x="539" y="-1313.5" font-family="Helvetica,sans-Serif" font-size="10.00"> #desc</text>
</g>
<!-- Node12 -->
<g id="node11" class="node"><title>Node12</title>
<g id="a_node11"><a xlink:href="class_character_move.html" target="_top" xlink:title="Astract base class for character moves ">
<polygon fill="none" stroke="black" points="645,-893.5 645,-972.5 731,-972.5 731,-893.5 645,-893.5"/>
<text text-anchor="middle" x="688" y="-960.5" font-family="Helvetica,sans-Serif" font-size="10.00">CharacterMove</text>
<polyline fill="none" stroke="black" points="645,-953.5 731,-953.5 "/>
<text text-anchor="start" x="653" y="-941.5" font-family="Helvetica,sans-Serif" font-size="10.00">+ User</text>
<text text-anchor="start" x="653" y="-930.5" font-family="Helvetica,sans-Serif" font-size="10.00">+ Target</text>
<text text-anchor="start" x="653" y="-919.5" font-family="Helvetica,sans-Serif" font-size="10.00">+ Text</text>
<polyline fill="none" stroke="black" points="645,-912.5 731,-912.5 "/>
<text text-anchor="start" x="653" y="-900.5" font-family="Helvetica,sans-Serif" font-size="10.00">+ performMove()</text>
</a>
</g>
</g>
<!-- Node6&#45;&gt;Node12 -->
<g id="edge13" class="edge"><title>Node6&#45;&gt;Node12</title>
<path fill="none" stroke="#404040" d="M665.645,-1671.48C698.496,-1653.08 759,-1611.78 759,-1557 759,-1557 759,-1557 759,-1191 759,-1101.36 767.806,-1073.6 733,-991 731.885,-988.353 730.612,-985.726 729.217,-983.136"/>
<polygon fill="none" stroke="#404040" points="729.133,-982.997 722.598,-979.947 722.9,-972.742 729.435,-975.792 729.133,-982.997"/>
<text text-anchor="middle" x="771.5" y="-1399" font-family="Helvetica,sans-Serif" font-size="10.00"> #text</text>
</g>
<!-- Node13 -->
<g id="node12" class="node"><title>Node13</title>
<g id="a_node12"><a xlink:href="class_battle_manager.html" target="_top" xlink:title="Holds current Player and Enemy objects in battle and provides functions for MainBattle and other obje...">
<polygon fill="none" stroke="black" points="607,-1097.5 607,-1286.5 723,-1286.5 723,-1097.5 607,-1097.5"/>
<text text-anchor="middle" x="665" y="-1274.5" font-family="Helvetica,sans-Serif" font-size="10.00">BattleManager</text>
<polyline fill="none" stroke="black" points="607,-1267.5 723,-1267.5 "/>
<text text-anchor="start" x="615" y="-1255.5" font-family="Helvetica,sans-Serif" font-size="10.00">+ Player</text>
<text text-anchor="start" x="615" y="-1244.5" font-family="Helvetica,sans-Serif" font-size="10.00">+ Enemy</text>
<text text-anchor="start" x="615" y="-1233.5" font-family="Helvetica,sans-Serif" font-size="10.00">+ WasCriticalHit</text>
<polyline fill="none" stroke="black" points="607,-1226.5 723,-1226.5 "/>
<text text-anchor="start" x="615" y="-1214.5" font-family="Helvetica,sans-Serif" font-size="10.00">+ BattleManager()</text>
<text text-anchor="start" x="615" y="-1203.5" font-family="Helvetica,sans-Serif" font-size="10.00">+ playerFirst()</text>
<text text-anchor="start" x="615" y="-1192.5" font-family="Helvetica,sans-Serif" font-size="10.00">+ switchPlayers()</text>
<text text-anchor="start" x="615" y="-1181.5" font-family="Helvetica,sans-Serif" font-size="10.00">+ isCriticalHit()</text>
<text text-anchor="start" x="615" y="-1170.5" font-family="Helvetica,sans-Serif" font-size="10.00">+ ranAway()</text>
<text text-anchor="start" x="615" y="-1159.5" font-family="Helvetica,sans-Serif" font-size="10.00">+ damageCalculation()</text>
<text text-anchor="start" x="615" y="-1148.5" font-family="Helvetica,sans-Serif" font-size="10.00">+ enemyMove()</text>
<text text-anchor="start" x="615" y="-1137.5" font-family="Helvetica,sans-Serif" font-size="10.00">+ enemySpecialMove()</text>
<text text-anchor="start" x="615" y="-1126.5" font-family="Helvetica,sans-Serif" font-size="10.00">+ battleWon()</text>
<text text-anchor="start" x="615" y="-1115.5" font-family="Helvetica,sans-Serif" font-size="10.00">+ playerFainted()</text>
<text text-anchor="start" x="615" y="-1104.5" font-family="Helvetica,sans-Serif" font-size="10.00">&#45; characterFainted()</text>
</a>
</g>
</g>
<!-- Node6&#45;&gt;Node13 -->
<g id="edge16" class="edge"><title>Node6&#45;&gt;Node13</title>
<path fill="none" stroke="#404040" d="M646.133,-1654.31C648.875,-1587.25 655.991,-1413.28 660.657,-1299.18"/>
<polygon fill="none" stroke="#404040" points="660.667,-1298.95 656.915,-1292.79 661.157,-1286.96 664.909,-1293.12 660.667,-1298.95"/>
<text text-anchor="middle" x="696" y="-1490" font-family="Helvetica,sans-Serif" font-size="10.00"> +forceEnemyMove</text>
<text text-anchor="middle" x="696" y="-1479" font-family="Helvetica,sans-Serif" font-size="10.00">+forceCriticalHits</text>
</g>
<!-- Node6&#45;&gt;Node19 -->
<g id="edge34" class="edge"><title>Node6&#45;&gt;Node19</title>
<path fill="none" stroke="#404040" d="M665.516,-1682.17C770.316,-1682.49 1241,-1677.26 1241,-1557 1241,-1557 1241,-1557 1241,-932 1241,-875.963 1187.02,-834.988 1142.57,-810.744"/>
<polygon fill="none" stroke="#404040" points="1142.43,-810.669 1135.26,-811.421 1131.81,-805.089 1138.98,-804.338 1142.43,-810.669"/>
<text text-anchor="middle" x="1268" y="-1319" font-family="Helvetica,sans-Serif" font-size="10.00"> &#45;textHeader</text>
<text text-anchor="middle" x="1268" y="-1308" font-family="Helvetica,sans-Serif" font-size="10.00">&#45;textFooter</text>
</g>
<!-- Node7 -->
<g id="node6" class="node"><title>Node7</title>
<polygon fill="none" stroke="#bfbfbf" points="1052.5,-347.5 1052.5,-404.5 1123.5,-404.5 1123.5,-347.5 1052.5,-347.5"/>
<text text-anchor="middle" x="1088" y="-392.5" font-family="Helvetica,sans-Serif" font-size="10.00">GameObject</text>
<polyline fill="none" stroke="#bfbfbf" points="1052.5,-385.5 1123.5,-385.5 "/>
<text text-anchor="middle" x="1088" y="-373.5" font-family="Helvetica,sans-Serif" font-size="10.00"> </text>
<polyline fill="none" stroke="#bfbfbf" points="1052.5,-366.5 1123.5,-366.5 "/>
<text text-anchor="middle" x="1088" y="-354.5" font-family="Helvetica,sans-Serif" font-size="10.00"> </text>
</g>
<!-- Node7&#45;&gt;Node2 -->
<g id="edge6" class="edge"><title>Node7&#45;&gt;Node2</title>
<path fill="none" stroke="#404040" d="M1072.19,-347.271C1059.69,-326.303 1041.21,-297.252 1022,-274 998.576,-245.652 970.138,-216.982 944.348,-192.705"/>
<polygon fill="none" stroke="#404040" points="944.123,-192.495 937.007,-191.327 935.348,-184.309 942.464,-185.477 944.123,-192.495"/>
<text text-anchor="middle" x="1092" y="-321" font-family="Helvetica,sans-Serif" font-size="10.00"> &#45;enemyStats</text>
<text text-anchor="middle" x="1092" y="-310" font-family="Helvetica,sans-Serif" font-size="10.00">&#45;playerCamera</text>
<text text-anchor="middle" x="1092" y="-299" font-family="Helvetica,sans-Serif" font-size="10.00">&#45;attacksPanel</text>
<text text-anchor="middle" x="1092" y="-288" font-family="Helvetica,sans-Serif" font-size="10.00">&#45;playerStats</text>
<text text-anchor="middle" x="1092" y="-277" font-family="Helvetica,sans-Serif" font-size="10.00">&#45;globalData</text>
</g>
<!-- Node8 -->
<g id="node7" class="node"><title>Node8</title>
<g id="a_node7"><a xlink:href="class_enemy.html" target="_top" xlink:title="Defines an AI controller enemy to fight in battle scenes">
<polygon fill="none" stroke="black" points="390.5,-347.5 390.5,-404.5 457.5,-404.5 457.5,-347.5 390.5,-347.5"/>
<text text-anchor="middle" x="424" y="-392.5" font-family="Helvetica,sans-Serif" font-size="10.00">Enemy</text>
<polyline fill="none" stroke="black" points="390.5,-385.5 457.5,-385.5 "/>
<text text-anchor="start" x="398.5" y="-373.5" font-family="Helvetica,sans-Serif" font-size="10.00">+ ExpGiven</text>
<polyline fill="none" stroke="black" points="390.5,-366.5 457.5,-366.5 "/>
<text text-anchor="start" x="398.5" y="-354.5" font-family="Helvetica,sans-Serif" font-size="10.00">+ Enemy()</text>
</a>
</g>
</g>
<!-- Node8&#45;&gt;Node2 -->
<g id="edge7" class="edge"><title>Node8&#45;&gt;Node2</title>
<path fill="none" stroke="#404040" d="M457.673,-356.51C529.558,-317.038 699.484,-223.73 797.943,-169.665"/>
<polygon fill="none" stroke="#404040" points="798.187,-169.531 801.521,-163.137 808.705,-163.756 805.371,-170.15 798.187,-169.531"/>
<text text-anchor="middle" x="640" y="-304.5" font-family="Helvetica,sans-Serif" font-size="10.00"> &#45;enemyObject</text>
<text text-anchor="middle" x="640" y="-293.5" font-family="Helvetica,sans-Serif" font-size="10.00">&#45;enemy</text>
</g>
<!-- Node8&#45;&gt;Node13 -->
<g id="edge17" class="edge"><title>Node8&#45;&gt;Node13</title>
<path fill="none" stroke="#404040" d="M418.991,-404.67C406.965,-477.271 380.879,-678.419 429,-835 446.619,-892.331 536.205,-1019.36 599.771,-1105.1"/>
<polygon fill="none" stroke="#404040" points="599.84,-1105.2 606.629,-1107.63 606.998,-1114.83 600.209,-1112.4 599.84,-1105.2"/>
<text text-anchor="middle" x="447" y="-781.5" font-family="Helvetica,sans-Serif" font-size="10.00"> &#45;enemy</text>
</g>
<!-- Node9&#45;&gt;Node8 -->
<g id="edge8" class="edge"><title>Node9&#45;&gt;Node8</title>
<path fill="none" stroke="midnightblue" d="M476.439,-486.911C462.107,-456.87 447.444,-426.138 437.281,-404.837"/>
<polygon fill="none" stroke="midnightblue" points="473.407,-488.682 480.872,-496.2 479.724,-485.668 473.407,-488.682"/>
</g>
<!-- Node9&#45;&gt;Node12 -->
<g id="edge14" class="edge"><title>Node9&#45;&gt;Node12</title>
<path fill="none" stroke="#404040" d="M570.602,-622.952C601.761,-649.733 640.24,-689.005 660,-733 681.226,-780.259 687.249,-839.647 688.564,-881.193"/>
<polygon fill="none" stroke="#404040" points="688.564,-881.216 692.695,-887.126 688.829,-893.213 684.697,-887.303 688.564,-881.216"/>
<text text-anchor="middle" x="703" y="-787" font-family="Helvetica,sans-Serif" font-size="10.00"> #target</text>
<text text-anchor="middle" x="703" y="-776" font-family="Helvetica,sans-Serif" font-size="10.00">#user</text>
</g>
<!-- Node9&#45;&gt;Node15 -->
<g id="edge21" class="edge"><title>Node9&#45;&gt;Node15</title>
<path fill="none" stroke="midnightblue" d="M466.608,-622.548C430.376,-648.755 385.478,-687.517 360,-733 331.286,-784.26 336,-804.246 336,-863 336,-1193 336,-1193 336,-1193 336,-1244.73 333.486,-1303.67 331.277,-1345.48"/>
<polygon fill="none" stroke="midnightblue" points="469.012,-625.133 475.14,-616.49 464.96,-619.425 469.012,-625.133"/>
</g>
<!-- Node10 -->
<g id="node9" class="node"><title>Node10</title>
<polygon fill="none" stroke="#bfbfbf" points="370.5,-1527.5 370.5,-1584.5 399.5,-1584.5 399.5,-1527.5 370.5,-1527.5"/>
<text text-anchor="middle" x="385" y="-1572.5" font-family="Helvetica,sans-Serif" font-size="10.00">int</text>
<polyline fill="none" stroke="#bfbfbf" points="370.5,-1565.5 399.5,-1565.5 "/>
<text text-anchor="middle" x="385" y="-1553.5" font-family="Helvetica,sans-Serif" font-size="10.00"> </text>
<polyline fill="none" stroke="#bfbfbf" points="370.5,-1546.5 399.5,-1546.5 "/>
<text text-anchor="middle" x="385" y="-1534.5" font-family="Helvetica,sans-Serif" font-size="10.00"> </text>
</g>
<!-- Node10&#45;&gt;Node2 -->
<g id="edge31" class="edge"><title>Node10&#45;&gt;Node2</title>
<path fill="none" stroke="#404040" d="M370.169,-1542.7C358.963,-1534.01 342.852,-1522.75 327,-1516 292.274,-1501.2 277.826,-1514.75 244,-1498 185.377,-1468.97 132,-1467.92 132,-1402.5 132,-1402.5 132,-1402.5 132,-375 132,-235.9 608.789,-161.608 796.94,-137.706"/>
<polygon fill="none" stroke="#404040" points="797.001,-137.698 802.457,-132.983 808.908,-136.204 803.453,-140.92 797.001,-137.698"/>
<text text-anchor="middle" x="166" y="-861.5" font-family="Helvetica,sans-Serif" font-size="10.00"> &#45;moneyReward</text>
</g>
<!-- Node10&#45;&gt;Node8 -->
<g id="edge28" class="edge"><title>Node10&#45;&gt;Node8</title>
<path fill="none" stroke="#404040" d="M370.401,-1543.59C359.053,-1535.12 342.659,-1523.75 327,-1516 304.705,-1504.96 293.462,-1513.49 274,-1498 234.968,-1466.92 215,-1452.39 215,-1402.5 215,-1402.5 215,-1402.5 215,-932 215,-843.305 204.884,-818.065 230,-733 267.005,-607.666 352.376,-476.877 396.494,-414.47"/>
<polygon fill="none" stroke="#404040" points="396.496,-414.467 396.723,-407.259 403.463,-404.696 403.236,-411.904 396.496,-414.467"/>
<text text-anchor="middle" x="238" y="-930.5" font-family="Helvetica,sans-Serif" font-size="10.00"> &#45;expGiven</text>
</g>
<!-- Node10&#45;&gt;Node9 -->
<g id="edge10" class="edge"><title>Node10&#45;&gt;Node9</title>
<path fill="none" stroke="#404040" d="M395.912,-1527.28C399.072,-1518.1 402.163,-1507.74 404,-1498 467.241,-1162.84 378.666,-1062.97 465,-733 469,-717.711 474.149,-701.861 479.724,-686.483"/>
<polygon fill="none" stroke="#404040" points="479.874,-686.079 478.217,-679.061 484.058,-674.832 485.715,-681.85 479.874,-686.079"/>
<text text-anchor="middle" x="463.5" y="-1071" font-family="Helvetica,sans-Serif" font-size="10.00"> #speed</text>
<text text-anchor="middle" x="463.5" y="-1060" font-family="Helvetica,sans-Serif" font-size="10.00">#luck</text>
<text text-anchor="middle" x="463.5" y="-1049" font-family="Helvetica,sans-Serif" font-size="10.00">#health</text>
<text text-anchor="middle" x="463.5" y="-1038" font-family="Helvetica,sans-Serif" font-size="10.00">#magic</text>
<text text-anchor="middle" x="463.5" y="-1027" font-family="Helvetica,sans-Serif" font-size="10.00">#maximumMagic</text>
<text text-anchor="middle" x="463.5" y="-1016" font-family="Helvetica,sans-Serif" font-size="10.00">#attack</text>
<text text-anchor="middle" x="463.5" y="-1005" font-family="Helvetica,sans-Serif" font-size="10.00">#defence</text>
<text text-anchor="middle" x="463.5" y="-994" font-family="Helvetica,sans-Serif" font-size="10.00">#level</text>
</g>
<!-- Node10&#45;&gt;Node11 -->
<g id="edge26" class="edge"><title>Node10&#45;&gt;Node11</title>
<path fill="none" stroke="#404040" d="M399.578,-1538.5C409.176,-1527.36 421.803,-1512.15 432,-1498 432.819,-1496.86 538.613,-1328.35 539,-1327 564.396,-1238.54 541.662,-969.008 529.506,-846.621"/>
<polygon fill="none" stroke="#404040" points="529.493,-846.485 524.913,-840.915 528.294,-834.545 532.873,-840.116 529.493,-846.485"/>
<text text-anchor="middle" x="568.5" y="-1189.5" font-family="Helvetica,sans-Serif" font-size="10.00"> #magic</text>
</g>
<!-- Node10&#45;&gt;Node13 -->
<g id="edge18" class="edge"><title>Node10&#45;&gt;Node13</title>
<path fill="none" stroke="#404040" d="M399.667,-1551.56C424.703,-1545.01 476.071,-1528.63 508,-1498 516.217,-1490.12 570.663,-1382.77 613.162,-1297.63"/>
<polygon fill="none" stroke="#404040" points="613.189,-1297.58 612.288,-1290.42 618.545,-1286.84 619.447,-1293.99 613.189,-1297.58"/>
<text text-anchor="middle" x="609.5" y="-1399" font-family="Helvetica,sans-Serif" font-size="10.00"> +money</text>
</g>
<!-- Node10&#45;&gt;Node15 -->
<g id="edge23" class="edge"><title>Node10&#45;&gt;Node15</title>
<path fill="none" stroke="#404040" d="M370.358,-1545.24C356.766,-1535.21 337.404,-1518.24 329,-1498 325.379,-1489.28 323.32,-1479.71 322.307,-1470.11"/>
<polygon fill="none" stroke="#404040" points="322.297,-1469.96 317.928,-1464.22 321.544,-1457.98 325.913,-1463.72 322.297,-1469.96"/>
<text text-anchor="middle" x="366.5" y="-1490" font-family="Helvetica,sans-Serif" font-size="10.00"> &#45;expToNextLevel</text>
<text text-anchor="middle" x="366.5" y="-1479" font-family="Helvetica,sans-Serif" font-size="10.00">&#45;exp</text>
</g>
<!-- Node11&#45;&gt;Node9 -->
<g id="edge11" class="edge"><title>Node11&#45;&gt;Node9</title>
<path fill="none" stroke="#404040" d="M523,-733.415C523,-719.191 523,-703.146 523,-687.019"/>
<polygon fill="none" stroke="#404040" points="523,-686.7 519,-680.7 523,-674.7 527,-680.7 523,-686.7"/>
<text text-anchor="middle" x="545.5" y="-707" font-family="Helvetica,sans-Serif" font-size="10.00"> #special1</text>
<text text-anchor="middle" x="545.5" y="-696" font-family="Helvetica,sans-Serif" font-size="10.00">#special2</text>
</g>
<!-- Node12&#45;&gt;Node2 -->
<g id="edge30" class="edge"><title>Node12&#45;&gt;Node2</title>
<path fill="none" stroke="#404040" d="M714.294,-893.302C731.192,-864.682 750,-824.054 750,-785 750,-785 750,-785 750,-375 750,-319.716 775.035,-264.039 802.423,-219.669"/>
<polygon fill="none" stroke="#404040" points="802.436,-219.65 802.266,-212.44 808.856,-209.511 809.025,-216.721 802.436,-219.65"/>
<text text-anchor="middle" x="777.5" y="-588.5" font-family="Helvetica,sans-Serif" font-size="10.00"> &#45;playerMove</text>
<text text-anchor="middle" x="777.5" y="-577.5" font-family="Helvetica,sans-Serif" font-size="10.00">&#45;enemyMove</text>
</g>
<!-- Node12&#45;&gt;Node11 -->
<g id="edge12" class="edge"><title>Node12&#45;&gt;Node11</title>
<path fill="none" stroke="midnightblue" d="M636.91,-886.484C616.294,-868.116 592.601,-847.008 572.181,-828.816"/>
<polygon fill="none" stroke="midnightblue" points="634.853,-889.339 644.648,-893.377 639.51,-884.112 634.853,-889.339"/>
</g>
<!-- Node13&#45;&gt;Node2 -->
<g id="edge40" class="edge"><title>Node13&#45;&gt;Node2</title>
<path fill="none" stroke="#404040" d="M723.011,-1101.65C726.716,-1094.14 730.111,-1086.54 733,-1079 798.353,-908.383 781.623,-855.642 809,-675 820.503,-599.104 842.432,-402.936 857.138,-267.656"/>
<polygon fill="none" stroke="#404040" points="857.154,-267.509 853.825,-261.112 858.449,-255.579 861.778,-261.976 857.154,-267.509"/>
<text text-anchor="middle" x="830.5" y="-701.5" font-family="Helvetica,sans-Serif" font-size="10.00"> +manager</text>
</g>
<!-- Node13&#45;&gt;Node12 -->
<g id="edge15" class="edge"><title>Node13&#45;&gt;Node12</title>
<path fill="none" stroke="#404040" d="M673.369,-1097.49C676.77,-1059.48 680.568,-1017.05 683.441,-984.939"/>
<polygon fill="none" stroke="#404040" points="683.464,-984.684 680.015,-978.352 684.534,-972.732 687.983,-979.065 683.464,-984.684"/>
<text text-anchor="middle" x="706" y="-1032.5" font-family="Helvetica,sans-Serif" font-size="10.00"> #manager</text>
</g>
<!-- Node14 -->
<g id="node13" class="node"><title>Node14</title>
<polygon fill="none" stroke="#bfbfbf" points="804.5,-1373 804.5,-1430 839.5,-1430 839.5,-1373 804.5,-1373"/>
<text text-anchor="middle" x="822" y="-1418" font-family="Helvetica,sans-Serif" font-size="10.00">bool</text>
<polyline fill="none" stroke="#bfbfbf" points="804.5,-1411 839.5,-1411 "/>
<text text-anchor="middle" x="822" y="-1399" font-family="Helvetica,sans-Serif" font-size="10.00"> </text>
<polyline fill="none" stroke="#bfbfbf" points="804.5,-1392 839.5,-1392 "/>
<text text-anchor="middle" x="822" y="-1380" font-family="Helvetica,sans-Serif" font-size="10.00"> </text>
</g>
<!-- Node14&#45;&gt;Node2 -->
<g id="edge38" class="edge"><title>Node14&#45;&gt;Node2</title>
<path fill="none" stroke="#404040" d="M820.894,-1372.72C818.094,-1292.03 812.635,-1050.84 838,-853 846.583,-786.057 872,-772.491 872,-705 872,-705 872,-705 872,-375 872,-340.33 872,-302.911 872,-267.974"/>
<polygon fill="none" stroke="#404040" points="872,-267.728 868,-261.728 872,-255.728 876,-261.728 872,-267.728"/>
<text text-anchor="middle" x="900.5" y="-787" font-family="Helvetica,sans-Serif" font-size="10.00"> +playerDied</text>
<text text-anchor="middle" x="900.5" y="-776" font-family="Helvetica,sans-Serif" font-size="10.00">&#45;moveChosen</text>
</g>
<!-- Node14&#45;&gt;Node13 -->
<g id="edge19" class="edge"><title>Node14&#45;&gt;Node13</title>
<path fill="none" stroke="#404040" d="M809.615,-1372.77C804.137,-1362.96 796.896,-1352.51 788,-1345 771.536,-1331.11 759.306,-1341.07 743,-1327 732.835,-1318.23 723.669,-1307.78 715.5,-1296.65"/>
<polygon fill="none" stroke="#404040" points="715.439,-1296.57 708.726,-1293.93 708.577,-1286.72 715.289,-1289.36 715.439,-1296.57"/>
<text text-anchor="middle" x="776" y="-1313.5" font-family="Helvetica,sans-Serif" font-size="10.00"> &#45;wasCriticalHit</text>
</g>
<!-- Node15&#45;&gt;Node2 -->
<g id="edge41" class="edge"><title>Node15&#45;&gt;Node2</title>
<path fill="none" stroke="#404040" d="M320.4,-1345.33C301.152,-1203.77 252,-830.033 252,-705 252,-705 252,-705 252,-375 252,-258.989 631.785,-173.883 796.87,-142.37"/>
<polygon fill="none" stroke="#404040" points="797.06,-142.334 802.213,-137.289 808.851,-140.105 803.699,-145.15 797.06,-142.334"/>
<text text-anchor="middle" x="288" y="-787" font-family="Helvetica,sans-Serif" font-size="10.00"> &#45;playerArray</text>
<text text-anchor="middle" x="288" y="-776" font-family="Helvetica,sans-Serif" font-size="10.00">+player</text>
</g>
<!-- Node15&#45;&gt;Node13 -->
<g id="edge20" class="edge"><title>Node15&#45;&gt;Node13</title>
<path fill="none" stroke="#404040" d="M384.095,-1347.65C404.374,-1331.39 428.373,-1315.13 453,-1305 511.02,-1281.14 538.636,-1318.31 593,-1287 594.353,-1286.22 595.689,-1285.41 597.007,-1284.56"/>
<polygon fill="none" stroke="#404040" points="597.082,-1284.5 599.575,-1277.74 606.78,-1277.43 604.287,-1284.2 597.082,-1284.5"/>
<text text-anchor="middle" x="469.5" y="-1313.5" font-family="Helvetica,sans-Serif" font-size="10.00"> &#45;player</text>
</g>
<!-- Node16 -->
<g id="node15" class="node"><title>Node16</title>
<polygon fill="none" stroke="#bfbfbf" points="851.5,-904.5 851.5,-961.5 886.5,-961.5 886.5,-904.5 851.5,-904.5"/>
<text text-anchor="middle" x="869" y="-949.5" font-family="Helvetica,sans-Serif" font-size="10.00">float</text>
<polyline fill="none" stroke="#bfbfbf" points="851.5,-942.5 886.5,-942.5 "/>
<text text-anchor="middle" x="869" y="-930.5" font-family="Helvetica,sans-Serif" font-size="10.00"> </text>
<polyline fill="none" stroke="#bfbfbf" points="851.5,-923.5 886.5,-923.5 "/>
<text text-anchor="middle" x="869" y="-911.5" font-family="Helvetica,sans-Serif" font-size="10.00"> </text>
</g>
<!-- Node16&#45;&gt;Node11 -->
<g id="edge25" class="edge"><title>Node16&#45;&gt;Node11</title>
<path fill="none" stroke="#404040" d="M851.1,-926.414C796.759,-909.398 634.671,-858.215 582.918,-834.842"/>
<polygon fill="none" stroke="#404040" points="582.789,-834.778 575.633,-835.673 572.055,-829.412 579.211,-828.517 582.789,-834.778"/>
<text text-anchor="middle" x="708" y="-861.5" font-family="Helvetica,sans-Serif" font-size="10.00"> #special</text>
</g>
<!-- Node16&#45;&gt;Node19 -->
<g id="edge37" class="edge"><title>Node16&#45;&gt;Node19</title>
<path fill="none" stroke="#404040" d="M886.676,-919.97C917.183,-899.208 980.967,-855.8 1028,-823.792"/>
<polygon fill="none" stroke="#404040" points="1028.14,-823.695 1030.85,-817.012 1038.06,-816.944 1035.35,-823.626 1028.14,-823.695"/>
<text text-anchor="middle" x="1014.5" y="-867" font-family="Helvetica,sans-Serif" font-size="10.00"> &#45;widthPerUnit</text>
<text text-anchor="middle" x="1014.5" y="-856" font-family="Helvetica,sans-Serif" font-size="10.00">&#45;initialWidth</text>
</g>
<!-- Node17 -->
<g id="node16" class="node"><title>Node17</title>
<polygon fill="none" stroke="#bfbfbf" points="590.5,-755.5 590.5,-812.5 651.5,-812.5 651.5,-755.5 590.5,-755.5"/>
<text text-anchor="middle" x="621" y="-800.5" font-family="Helvetica,sans-Serif" font-size="10.00">Texture2D</text>
<polyline fill="none" stroke="#bfbfbf" points="590.5,-793.5 651.5,-793.5 "/>
<text text-anchor="middle" x="621" y="-781.5" font-family="Helvetica,sans-Serif" font-size="10.00"> </text>
<polyline fill="none" stroke="#bfbfbf" points="590.5,-774.5 651.5,-774.5 "/>
<text text-anchor="middle" x="621" y="-762.5" font-family="Helvetica,sans-Serif" font-size="10.00"> </text>
</g>
<!-- Node17&#45;&gt;Node9 -->
<g id="edge27" class="edge"><title>Node17&#45;&gt;Node9</title>
<path fill="none" stroke="#404040" d="M607.167,-755.263C597.934,-736.75 585.179,-711.176 572.39,-685.531"/>
<polygon fill="none" stroke="#404040" points="572.272,-685.296 566.015,-681.711 566.916,-674.557 573.174,-678.141 572.272,-685.296"/>
<text text-anchor="middle" x="604.5" y="-701.5" font-family="Helvetica,sans-Serif" font-size="10.00"> #image</text>
</g>
<!-- Node18 -->
<g id="node17" class="node"><title>Node18</title>
<polygon fill="none" stroke="#bfbfbf" points="1141.5,-347.5 1141.5,-404.5 1184.5,-404.5 1184.5,-347.5 1141.5,-347.5"/>
<text text-anchor="middle" x="1163" y="-392.5" font-family="Helvetica,sans-Serif" font-size="10.00">Image</text>
<polyline fill="none" stroke="#bfbfbf" points="1141.5,-385.5 1184.5,-385.5 "/>
<text text-anchor="middle" x="1163" y="-373.5" font-family="Helvetica,sans-Serif" font-size="10.00"> </text>
<polyline fill="none" stroke="#bfbfbf" points="1141.5,-366.5 1184.5,-366.5 "/>
<text text-anchor="middle" x="1163" y="-354.5" font-family="Helvetica,sans-Serif" font-size="10.00"> </text>
</g>
<!-- Node18&#45;&gt;Node2 -->
<g id="edge29" class="edge"><title>Node18&#45;&gt;Node2</title>
<path fill="none" stroke="#404040" d="M1158.86,-347.062C1154.41,-325.152 1145.46,-294.961 1128,-274 1080.21,-216.629 1003.53,-177.499 946.532,-154.485"/>
<polygon fill="none" stroke="#404040" points="946.211,-154.358 939.162,-155.879 935.047,-149.957 942.096,-148.436 946.211,-154.358"/>
<text text-anchor="middle" x="1185.5" y="-304.5" font-family="Helvetica,sans-Serif" font-size="10.00"> &#45;enemySprite</text>
<text text-anchor="middle" x="1185.5" y="-293.5" font-family="Helvetica,sans-Serif" font-size="10.00">&#45;playerSprite</text>
</g>
<!-- Node19&#45;&gt;Node2 -->
<g id="edge32" class="edge"><title>Node19&#45;&gt;Node2</title>
<path fill="none" stroke="#404040" d="M1072.93,-744.185C1041,-641.592 954.661,-364.895 924,-274 923.247,-271.767 922.484,-269.516 921.712,-267.25"/>
<polygon fill="none" stroke="#404040" points="921.687,-267.175 915.957,-262.796 917.795,-255.823 923.525,-260.202 921.687,-267.175"/>
<text text-anchor="middle" x="1027" y="-470" font-family="Helvetica,sans-Serif" font-size="10.00"> &#45;expBar</text>
<text text-anchor="middle" x="1027" y="-459" font-family="Helvetica,sans-Serif" font-size="10.00">&#45;enemyMagicBar</text>
<text text-anchor="middle" x="1027" y="-448" font-family="Helvetica,sans-Serif" font-size="10.00">&#45;enemyHealthBar</text>
<text text-anchor="middle" x="1027" y="-437" font-family="Helvetica,sans-Serif" font-size="10.00">&#45;playerMagicBar</text>
<text text-anchor="middle" x="1027" y="-426" font-family="Helvetica,sans-Serif" font-size="10.00">&#45;playerHealthBar</text>
</g>
<!-- Node20 -->
<g id="node19" class="node"><title>Node20</title>
<polygon fill="none" stroke="#bfbfbf" points="1045,-904.5 1045,-961.5 1125,-961.5 1125,-904.5 1045,-904.5"/>
<text text-anchor="middle" x="1085" y="-949.5" font-family="Helvetica,sans-Serif" font-size="10.00">RectTransform</text>
<polyline fill="none" stroke="#bfbfbf" points="1045,-942.5 1125,-942.5 "/>
<text text-anchor="middle" x="1085" y="-930.5" font-family="Helvetica,sans-Serif" font-size="10.00"> </text>
<polyline fill="none" stroke="#bfbfbf" points="1045,-923.5 1125,-923.5 "/>
<text text-anchor="middle" x="1085" y="-911.5" font-family="Helvetica,sans-Serif" font-size="10.00"> </text>
</g>
<!-- Node20&#45;&gt;Node19 -->
<g id="edge35" class="edge"><title>Node20&#45;&gt;Node19</title>
<path fill="none" stroke="#404040" d="M1085,-904.35C1085,-885.034 1085,-858.683 1085,-835.654"/>
<polygon fill="none" stroke="#404040" points="1085,-835.62 1081,-829.62 1085,-823.62 1089,-829.619 1085,-835.62"/>
<text text-anchor="middle" x="1096.5" y="-861.5" font-family="Helvetica,sans-Serif" font-size="10.00"> &#45;rect</text>
</g>
<!-- Node21 -->
<g id="node20" class="node"><title>Node21</title>
<polygon fill="none" stroke="#bfbfbf" points="1143.5,-904.5 1143.5,-961.5 1212.5,-961.5 1212.5,-904.5 1143.5,-904.5"/>
<text text-anchor="middle" x="1178" y="-949.5" font-family="Helvetica,sans-Serif" font-size="10.00">UnityEngine</text>
<polyline fill="none" stroke="#bfbfbf" points="1143.5,-942.5 1212.5,-942.5 "/>
<text text-anchor="middle" x="1178" y="-930.5" font-family="Helvetica,sans-Serif" font-size="10.00"> </text>
<polyline fill="none" stroke="#bfbfbf" points="1143.5,-923.5 1212.5,-923.5 "/>
<text text-anchor="middle" x="1178" y="-911.5" font-family="Helvetica,sans-Serif" font-size="10.00"> </text>
</g>
<!-- Node21&#45;&gt;Node19 -->
<g id="edge36" class="edge"><title>Node21&#45;&gt;Node19</title>
<path fill="none" stroke="#404040" d="M1160.51,-904.35C1148.01,-884.589 1130.84,-857.465 1116.04,-834.067"/>
<polygon fill="none" stroke="#404040" points="1115.85,-833.76 1109.26,-830.829 1109.43,-823.62 1116.02,-826.551 1115.85,-833.76"/>
<text text-anchor="middle" x="1167.5" y="-861.5" font-family="Helvetica,sans-Serif" font-size="10.00"> &#45;textDisplay</text>
</g>
<!-- Node22 -->
<g id="node21" class="node"><title>Node22</title>
<polygon fill="none" stroke="#bfbfbf" points="1220.5,-347.5 1220.5,-404.5 1255.5,-404.5 1255.5,-347.5 1220.5,-347.5"/>
<text text-anchor="middle" x="1238" y="-392.5" font-family="Helvetica,sans-Serif" font-size="10.00">Text</text>
<polyline fill="none" stroke="#bfbfbf" points="1220.5,-385.5 1255.5,-385.5 "/>
<text text-anchor="middle" x="1238" y="-373.5" font-family="Helvetica,sans-Serif" font-size="10.00"> </text>
<polyline fill="none" stroke="#bfbfbf" points="1220.5,-366.5 1255.5,-366.5 "/>
<text text-anchor="middle" x="1238" y="-354.5" font-family="Helvetica,sans-Serif" font-size="10.00"> </text>
</g>
<!-- Node22&#45;&gt;Node2 -->
<g id="edge39" class="edge"><title>Node22&#45;&gt;Node2</title>
<path fill="none" stroke="#404040" d="M1238.62,-347.148C1237.67,-324.995 1232.97,-294.43 1216,-274 1148.05,-192.201 1025.89,-155.692 946.925,-140.02"/>
<polygon fill="none" stroke="#404040" points="946.905,-140.017 940.262,-142.822 935.118,-137.768 941.761,-134.963 946.905,-140.017"/>
<text text-anchor="middle" x="1257" y="-299" font-family="Helvetica,sans-Serif" font-size="10.00"> &#45;textBox</text>
</g>
<!-- Node23 -->
<g id="node22" class="node"><title>Node23</title>
<polygon fill="none" stroke="#bfbfbf" points="1278.5,-347.5 1278.5,-404.5 1323.5,-404.5 1323.5,-347.5 1278.5,-347.5"/>
<text text-anchor="middle" x="1301" y="-392.5" font-family="Helvetica,sans-Serif" font-size="10.00">Button</text>
<polyline fill="none" stroke="#bfbfbf" points="1278.5,-385.5 1323.5,-385.5 "/>
<text text-anchor="middle" x="1301" y="-373.5" font-family="Helvetica,sans-Serif" font-size="10.00"> </text>
<polyline fill="none" stroke="#bfbfbf" points="1278.5,-366.5 1323.5,-366.5 "/>
<text text-anchor="middle" x="1301" y="-354.5" font-family="Helvetica,sans-Serif" font-size="10.00"> </text>
</g>
<!-- Node23&#45;&gt;Node2 -->
<g id="edge42" class="edge"><title>Node23&#45;&gt;Node2</title>
<path fill="none" stroke="#404040" d="M1301.94,-347.338C1301.22,-324.997 1296.66,-294.076 1279,-274 1193.77,-177.118 1039.3,-144.966 947.135,-134.297"/>
<polygon fill="none" stroke="#404040" points="947.039,-134.286 940.641,-137.613 935.11,-132.986 941.508,-129.66 947.039,-134.286"/>
<text text-anchor="middle" x="1330.5" y="-310" font-family="Helvetica,sans-Serif" font-size="10.00"> &#45;runButton</text>
<text text-anchor="middle" x="1330.5" y="-299" font-family="Helvetica,sans-Serif" font-size="10.00">&#45;playerButton</text>
<text text-anchor="middle" x="1330.5" y="-288" font-family="Helvetica,sans-Serif" font-size="10.00">&#45;attackButton</text>
</g>
</g>
</svg>
