<?xml version="1.0" encoding="UTF-8" standalone="no"?>
<!DOCTYPE svg PUBLIC "-//W3C//DTD SVG 1.1//EN"
 "http://www.w3.org/Graphics/SVG/1.1/DTD/svg11.dtd">
<!-- Generated by graphviz version 2.38.0 (20140413.2041)
 -->
<!-- Title: SaveData Pages: 1 -->
<!--zoomable 502 -->
<svg id="main" version="1.1" xmlns="http://www.w3.org/2000/svg" xmlns:xlink="http://www.w3.org/1999/xlink" xml:space="preserve" onload="init(evt)">
<style type="text/css"><![CDATA[
.edge:hover path { stroke: red; }
.edge:hover polygon { stroke: red; fill: red; }
]]></style>
<script type="text/javascript"><![CDATA[
var edges = document.getElementsByTagName('g');
if (edges && edges.length) {
  for (var i=0;i<edges.length;i++) {
    if (edges[i].id.substr(0,4)=='edge') {
      edges[i].setAttribute('class','edge');
    }
  }
}
]]></script>
        <defs>
                <circle id="rim" cx="0" cy="0" r="7"/>
                <circle id="rim2" cx="0" cy="0" r="3.5"/>
                <g id="zoomPlus">
                        <use xlink:href="#rim" fill="#404040">
                                <set attributeName="fill" to="#808080" begin="zoomplus.mouseover" end="zoomplus.mouseout"/>
                        </use>
                        <path d="M-4,0h8M0,-4v8" fill="none" stroke="white" stroke-width="1.5" pointer-events="none"/>
                </g>
                <g id="zoomMin">
                        <use xlink:href="#rim" fill="#404040">
                                <set attributeName="fill" to="#808080" begin="zoomminus.mouseover" end="zoomminus.mouseout"/>
                        </use>
                        <path d="M-4,0h8" fill="none" stroke="white" stroke-width="1.5" pointer-events="none"/>
                </g>
                <g id="dirArrow">
                        <path fill="none" stroke="white" stroke-width="1.5" d="M0,-3.0v7 M-2.5,-0.5L0,-3.0L2.5,-0.5"/>
                </g>
               <g id="resetDef">
                       <use xlink:href="#rim2" fill="#404040">
                               <set attributeName="fill" to="#808080" begin="reset.mouseover" end="reset.mouseout"/>
                       </use>
               </g>
        </defs>

<script type="text/javascript">
var viewWidth = 1056;
var viewHeight = 502;
var sectionId = 'dynsection-0';
</script>
<script xlink:href="svgpan.js"/>
<svg id="graph" class="graph">
<g id="viewport">
<title>SaveData</title>
<!-- Node1 -->
<g id="node1" class="node"><title>Node1</title>
<polygon fill="#bfbfbf" stroke="black" points="334,-0.5 334,-57.5 392,-57.5 392,-0.5 334,-0.5"/>
<text text-anchor="middle" x="363" y="-45.5" font-family="Helvetica,sans-Serif" font-size="10.00">SaveData</text>
<polyline fill="none" stroke="black" points="334,-38.5 392,-38.5 "/>
<text text-anchor="middle" x="363" y="-26.5" font-family="Helvetica,sans-Serif" font-size="10.00"> </text>
<polyline fill="none" stroke="black" points="334,-19.5 392,-19.5 "/>
<text text-anchor="middle" x="363" y="-7.5" font-family="Helvetica,sans-Serif" font-size="10.00"> </text>
</g>
<!-- Node2 -->
<g id="node2" class="node"><title>Node2</title>
<g id="a_node2"><a xlink:href="class_save_data_1_1_vector_data.html" target="_top" xlink:title="A serialzable class to represent 2D vector information. ">
<polygon fill="none" stroke="black" points="0,-192.5 0,-249.5 110,-249.5 110,-192.5 0,-192.5"/>
<text text-anchor="middle" x="55" y="-237.5" font-family="Helvetica,sans-Serif" font-size="10.00">SaveData.VectorData</text>
<polyline fill="none" stroke="black" points="0,-230.5 110,-230.5 "/>
<text text-anchor="middle" x="55" y="-218.5" font-family="Helvetica,sans-Serif" font-size="10.00"> </text>
<polyline fill="none" stroke="black" points="0,-211.5 110,-211.5 "/>
<text text-anchor="middle" x="55" y="-199.5" font-family="Helvetica,sans-Serif" font-size="10.00"> </text>
</a>
</g>
</g>
<!-- Node2&#45;&gt;Node1 -->
<g id="edge1" class="edge"><title>Node2&#45;&gt;Node1</title>
<path fill="none" stroke="#404040" d="M48.7954,-192.386C45.3531,-169.597 44.5931,-137.605 61,-116 92.6345,-74.3437 246.538,-46.815 321.628,-35.6405"/>
<polygon fill="none" stroke="#404040" points="321.955,-35.5931 327.317,-30.7711 333.83,-33.8658 328.468,-38.6878 321.955,-35.5931"/>
<text text-anchor="middle" x="96.5" y="-142.5" font-family="Helvetica,sans-Serif" font-size="10.00"> +playerPosition</text>
</g>
<!-- Node3 -->
<g id="node3" class="node"><title>Node3</title>
<polygon fill="none" stroke="#bfbfbf" points="192.5,-436.5 192.5,-493.5 227.5,-493.5 227.5,-436.5 192.5,-436.5"/>
<text text-anchor="middle" x="210" y="-481.5" font-family="Helvetica,sans-Serif" font-size="10.00">float</text>
<polyline fill="none" stroke="#bfbfbf" points="192.5,-474.5 227.5,-474.5 "/>
<text text-anchor="middle" x="210" y="-462.5" font-family="Helvetica,sans-Serif" font-size="10.00"> </text>
<polyline fill="none" stroke="#bfbfbf" points="192.5,-455.5 227.5,-455.5 "/>
<text text-anchor="middle" x="210" y="-443.5" font-family="Helvetica,sans-Serif" font-size="10.00"> </text>
</g>
<!-- Node3&#45;&gt;Node2 -->
<g id="edge2" class="edge"><title>Node3&#45;&gt;Node2</title>
<path fill="none" stroke="#404040" d="M192.277,-453.516C167.31,-437.837 122.04,-405.921 97,-367 76.3114,-334.843 65.5625,-292.243 60.1435,-261.548"/>
<polygon fill="none" stroke="#404040" points="60.1261,-261.441 55.2128,-256.162 58.1952,-249.597 63.1085,-254.875 60.1261,-261.441"/>
<text text-anchor="middle" x="161.5" y="-404.5" font-family="Helvetica,sans-Serif" font-size="10.00"> +ycoord</text>
<text text-anchor="middle" x="161.5" y="-393.5" font-family="Helvetica,sans-Serif" font-size="10.00">+xcoord</text>
</g>
<!-- Node11 -->
<g id="node11" class="node"><title>Node11</title>
<g id="a_node11"><a xlink:href="class_save_data_1_1_special_move_save_data.html" target="_top" xlink:title="A serializable class to represent a SpecialMove. ">
<polygon fill="none" stroke="black" points="474.5,-289 474.5,-346 631.5,-346 631.5,-289 474.5,-289"/>
<text text-anchor="middle" x="553" y="-334" font-family="Helvetica,sans-Serif" font-size="10.00">SaveData.SpecialMoveSaveData</text>
<polyline fill="none" stroke="black" points="474.5,-327 631.5,-327 "/>
<text text-anchor="middle" x="553" y="-315" font-family="Helvetica,sans-Serif" font-size="10.00"> </text>
<polyline fill="none" stroke="black" points="474.5,-308 631.5,-308 "/>
<text text-anchor="middle" x="553" y="-296" font-family="Helvetica,sans-Serif" font-size="10.00"> </text>
</a>
</g>
</g>
<!-- Node3&#45;&gt;Node11 -->
<g id="edge14" class="edge"><title>Node3&#45;&gt;Node11</title>
<path fill="none" stroke="#404040" d="M227.689,-455.13C259.774,-439.312 329.993,-405.937 392,-385 423.66,-374.31 433.878,-379.169 465,-367 475.852,-362.757 487.032,-357.426 497.631,-351.864"/>
<polygon fill="none" stroke="#404040" points="497.873,-351.732 501.246,-345.358 508.426,-346.02 505.054,-352.394 497.873,-351.732"/>
<text text-anchor="middle" x="412" y="-399" font-family="Helvetica,sans-Serif" font-size="10.00"> +special</text>
</g>
<!-- Node4 -->
<g id="node4" class="node"><title>Node4</title>
<g id="a_node4"><a xlink:href="class_save_data_1_1_objects_active_data.html" target="_top" xlink:title="A serializable class to represent string,bool dictonaries. ">
<polygon fill="none" stroke="black" points="141.5,-116.5 141.5,-173.5 282.5,-173.5 282.5,-116.5 141.5,-116.5"/>
<text text-anchor="middle" x="212" y="-161.5" font-family="Helvetica,sans-Serif" font-size="10.00">SaveData.ObjectsActiveData</text>
<polyline fill="none" stroke="black" points="141.5,-154.5 282.5,-154.5 "/>
<text text-anchor="middle" x="212" y="-142.5" font-family="Helvetica,sans-Serif" font-size="10.00"> </text>
<polyline fill="none" stroke="black" points="141.5,-135.5 282.5,-135.5 "/>
<text text-anchor="middle" x="212" y="-123.5" font-family="Helvetica,sans-Serif" font-size="10.00"> </text>
</a>
</g>
</g>
<!-- Node4&#45;&gt;Node1 -->
<g id="edge3" class="edge"><title>Node4&#45;&gt;Node1</title>
<path fill="none" stroke="#404040" d="M189.526,-116.309C181.688,-103.167 176.876,-87.7979 186,-76 202.492,-54.6735 274.995,-41.3989 321.939,-34.8784"/>
<polygon fill="none" stroke="#404040" points="321.959,-34.8759 327.378,-30.1186 333.854,-33.2912 328.434,-38.0485 321.959,-34.8759"/>
<text text-anchor="middle" x="241.5" y="-84.5" font-family="Helvetica,sans-Serif" font-size="10.00"> +serializedObjectsActive</text>
</g>
<!-- Node5 -->
<g id="node5" class="node"><title>Node5</title>
<polygon fill="none" stroke="#bfbfbf" points="192,-289 192,-346 266,-346 266,-289 192,-289"/>
<text text-anchor="middle" x="229" y="-334" font-family="Helvetica,sans-Serif" font-size="10.00">List&lt; string &gt;</text>
<polyline fill="none" stroke="#bfbfbf" points="192,-327 266,-327 "/>
<text text-anchor="middle" x="229" y="-315" font-family="Helvetica,sans-Serif" font-size="10.00"> </text>
<polyline fill="none" stroke="#bfbfbf" points="192,-308 266,-308 "/>
<text text-anchor="middle" x="229" y="-296" font-family="Helvetica,sans-Serif" font-size="10.00"> </text>
</g>
<!-- Node5&#45;&gt;Node4 -->
<g id="edge4" class="edge"><title>Node5&#45;&gt;Node4</title>
<path fill="none" stroke="#404040" d="M226.231,-288.727C223.452,-260.861 219.145,-217.658 215.996,-186.081"/>
<polygon fill="none" stroke="#404040" points="215.959,-185.702 211.383,-180.129 214.768,-173.761 219.344,-179.335 215.959,-185.702"/>
<text text-anchor="middle" x="238.5" y="-218.5" font-family="Helvetica,sans-Serif" font-size="10.00"> +keys</text>
</g>
<!-- Node6 -->
<g id="node6" class="node"><title>Node6</title>
<polygon fill="none" stroke="#bfbfbf" points="106,-289 106,-346 174,-346 174,-289 106,-289"/>
<text text-anchor="middle" x="140" y="-334" font-family="Helvetica,sans-Serif" font-size="10.00">List&lt; bool &gt;</text>
<polyline fill="none" stroke="#bfbfbf" points="106,-327 174,-327 "/>
<text text-anchor="middle" x="140" y="-315" font-family="Helvetica,sans-Serif" font-size="10.00"> </text>
<polyline fill="none" stroke="#bfbfbf" points="106,-308 174,-308 "/>
<text text-anchor="middle" x="140" y="-296" font-family="Helvetica,sans-Serif" font-size="10.00"> </text>
</g>
<!-- Node6&#45;&gt;Node4 -->
<g id="edge5" class="edge"><title>Node6&#45;&gt;Node4</title>
<path fill="none" stroke="#404040" d="M145.239,-288.709C150.823,-262.738 161.08,-223.368 177,-192 178.391,-189.26 179.95,-186.516 181.617,-183.811"/>
<polygon fill="none" stroke="#404040" points="181.758,-183.601 181.787,-176.39 188.454,-173.643 188.425,-180.854 181.758,-183.601"/>
<text text-anchor="middle" x="195.5" y="-218.5" font-family="Helvetica,sans-Serif" font-size="10.00"> +values</text>
</g>
<!-- Node7 -->
<g id="node7" class="node"><title>Node7</title>
<polygon fill="none" stroke="#bfbfbf" points="475.5,-436.5 475.5,-493.5 516.5,-493.5 516.5,-436.5 475.5,-436.5"/>
<text text-anchor="middle" x="496" y="-481.5" font-family="Helvetica,sans-Serif" font-size="10.00">string</text>
<polyline fill="none" stroke="#bfbfbf" points="475.5,-474.5 516.5,-474.5 "/>
<text text-anchor="middle" x="496" y="-462.5" font-family="Helvetica,sans-Serif" font-size="10.00"> </text>
<polyline fill="none" stroke="#bfbfbf" points="475.5,-455.5 516.5,-455.5 "/>
<text text-anchor="middle" x="496" y="-443.5" font-family="Helvetica,sans-Serif" font-size="10.00"> </text>
</g>
<!-- Node7&#45;&gt;Node1 -->
<g id="edge6" class="edge"><title>Node7&#45;&gt;Node1</title>
<path fill="none" stroke="#404040" d="M475.284,-461.502C433.428,-456.008 341.055,-441.461 321,-418 235.259,-317.699 304.28,-145.454 342.215,-68.7766"/>
<polygon fill="none" stroke="#404040" points="342.376,-68.4574 341.51,-61.2984 347.786,-57.7461 348.651,-64.9051 342.376,-68.4574"/>
<text text-anchor="middle" x="341.5" y="-218.5" font-family="Helvetica,sans-Serif" font-size="10.00"> +currentSceneName</text>
</g>
<!-- Node9 -->
<g id="node9" class="node"><title>Node9</title>
<g id="a_node9"><a xlink:href="class_save_data_1_1_item_save_data.html" target="_top" xlink:title="A serializable class to represent an Item. ">
<polygon fill="none" stroke="black" points="335.5,-289 335.5,-346 456.5,-346 456.5,-289 335.5,-289"/>
<text text-anchor="middle" x="396" y="-334" font-family="Helvetica,sans-Serif" font-size="10.00">SaveData.ItemSaveData</text>
<polyline fill="none" stroke="black" points="335.5,-327 456.5,-327 "/>
<text text-anchor="middle" x="396" y="-315" font-family="Helvetica,sans-Serif" font-size="10.00"> </text>
<polyline fill="none" stroke="black" points="335.5,-308 456.5,-308 "/>
<text text-anchor="middle" x="396" y="-296" font-family="Helvetica,sans-Serif" font-size="10.00"> </text>
</a>
</g>
</g>
<!-- Node7&#45;&gt;Node9 -->
<g id="edge9" class="edge"><title>Node7&#45;&gt;Node9</title>
<path fill="none" stroke="#404040" d="M475.445,-441.159C469.274,-433.938 462.648,-425.803 457,-418 442.896,-398.517 428.757,-375.71 417.647,-356.849"/>
<polygon fill="none" stroke="#404040" points="417.517,-356.626 411.041,-353.453 411.479,-346.255 417.955,-349.428 417.517,-356.626"/>
<text text-anchor="middle" x="484" y="-410" font-family="Helvetica,sans-Serif" font-size="10.00"> +name</text>
<text text-anchor="middle" x="484" y="-399" font-family="Helvetica,sans-Serif" font-size="10.00">+desc</text>
<text text-anchor="middle" x="484" y="-388" font-family="Helvetica,sans-Serif" font-size="10.00">+typeOfItem</text>
</g>
<!-- Node10 -->
<g id="node10" class="node"><title>Node10</title>
<g id="a_node10"><a xlink:href="class_save_data_1_1_player_save_data.html" target="_top" xlink:title="A serialzable class to represent a Player. ">
<polygon fill="none" stroke="black" points="559,-116.5 559,-173.5 689,-173.5 689,-116.5 559,-116.5"/>
<text text-anchor="middle" x="624" y="-161.5" font-family="Helvetica,sans-Serif" font-size="10.00">SaveData.PlayerSaveData</text>
<polyline fill="none" stroke="black" points="559,-154.5 689,-154.5 "/>
<text text-anchor="middle" x="624" y="-142.5" font-family="Helvetica,sans-Serif" font-size="10.00"> </text>
<polyline fill="none" stroke="black" points="559,-135.5 689,-135.5 "/>
<text text-anchor="middle" x="624" y="-123.5" font-family="Helvetica,sans-Serif" font-size="10.00"> </text>
</a>
</g>
</g>
<!-- Node7&#45;&gt;Node10 -->
<g id="edge11" class="edge"><title>Node7&#45;&gt;Node10</title>
<path fill="none" stroke="#404040" d="M516.939,-461.602C544.29,-457.411 592.085,-446.311 621,-418 693.532,-346.983 682.925,-289.301 654,-192 653.238,-189.438 652.284,-186.886 651.188,-184.372"/>
<polygon fill="none" stroke="#404040" points="651.167,-184.331 644.852,-180.85 645.636,-173.682 651.951,-177.163 651.167,-184.331"/>
<text text-anchor="middle" x="693" y="-315" font-family="Helvetica,sans-Serif" font-size="10.00"> +name</text>
</g>
<!-- Node7&#45;&gt;Node11 -->
<g id="edge13" class="edge"><title>Node7&#45;&gt;Node11</title>
<path fill="none" stroke="#404040" d="M506.855,-436.29C515.611,-413.94 528.03,-382.239 537.779,-357.353"/>
<polygon fill="none" stroke="#404040" points="537.808,-357.28 536.272,-350.234 542.185,-346.107 543.721,-353.152 537.808,-357.28"/>
<text text-anchor="middle" x="572" y="-410" font-family="Helvetica,sans-Serif" font-size="10.00"> +text</text>
<text text-anchor="middle" x="572" y="-399" font-family="Helvetica,sans-Serif" font-size="10.00">+desc</text>
<text text-anchor="middle" x="572" y="-388" font-family="Helvetica,sans-Serif" font-size="10.00">+typeOfSpecialMove</text>
</g>
<!-- Node8 -->
<g id="node8" class="node"><title>Node8</title>
<polygon fill="none" stroke="#bfbfbf" points="776.5,-436.5 776.5,-493.5 805.5,-493.5 805.5,-436.5 776.5,-436.5"/>
<text text-anchor="middle" x="791" y="-481.5" font-family="Helvetica,sans-Serif" font-size="10.00">int</text>
<polyline fill="none" stroke="#bfbfbf" points="776.5,-474.5 805.5,-474.5 "/>
<text text-anchor="middle" x="791" y="-462.5" font-family="Helvetica,sans-Serif" font-size="10.00"> </text>
<polyline fill="none" stroke="#bfbfbf" points="776.5,-455.5 805.5,-455.5 "/>
<text text-anchor="middle" x="791" y="-443.5" font-family="Helvetica,sans-Serif" font-size="10.00"> </text>
</g>
<!-- Node8&#45;&gt;Node1 -->
<g id="edge7" class="edge"><title>Node8&#45;&gt;Node1</title>
<path fill="none" stroke="#404040" d="M805.695,-460.937C840.31,-452.817 926.425,-427.108 958,-367 978.462,-328.047 976.854,-307.756 958,-268 858.059,-57.2589 522.788,-32.0678 404.637,-29.855"/>
<polygon fill="none" stroke="#404040" points="404.288,-29.8505 398.236,-33.7722 392.289,-29.6944 398.34,-25.7728 404.288,-29.8505"/>
<text text-anchor="middle" x="974" y="-224" font-family="Helvetica,sans-Serif" font-size="10.00"> +Money</text>
<text text-anchor="middle" x="974" y="-213" font-family="Helvetica,sans-Serif" font-size="10.00">+currentLevel</text>
</g>
<!-- Node8&#45;&gt;Node10 -->
<g id="edge19" class="edge"><title>Node8&#45;&gt;Node10</title>
<path fill="none" stroke="#404040" d="M777.935,-436.255C769.058,-417.001 757.288,-390.663 748,-367 717.208,-288.553 726.37,-258.807 675,-192 672.452,-188.686 669.645,-185.416 666.698,-182.242"/>
<polygon fill="none" stroke="#404040" points="666.568,-182.111 659.503,-180.665 658.12,-173.588 665.185,-175.034 666.568,-182.111"/>
<text text-anchor="middle" x="787.5" y="-359" font-family="Helvetica,sans-Serif" font-size="10.00"> +maximumMagic</text>
<text text-anchor="middle" x="787.5" y="-348" font-family="Helvetica,sans-Serif" font-size="10.00">+attack</text>
<text text-anchor="middle" x="787.5" y="-337" font-family="Helvetica,sans-Serif" font-size="10.00">+defence</text>
<text text-anchor="middle" x="787.5" y="-326" font-family="Helvetica,sans-Serif" font-size="10.00">+level</text>
<text text-anchor="middle" x="787.5" y="-315" font-family="Helvetica,sans-Serif" font-size="10.00">+speed</text>
<text text-anchor="middle" x="787.5" y="-304" font-family="Helvetica,sans-Serif" font-size="10.00">+luck</text>
<text text-anchor="middle" x="787.5" y="-293" font-family="Helvetica,sans-Serif" font-size="10.00">+health</text>
<text text-anchor="middle" x="787.5" y="-282" font-family="Helvetica,sans-Serif" font-size="10.00">+magic</text>
<text text-anchor="middle" x="787.5" y="-271" font-family="Helvetica,sans-Serif" font-size="10.00">+exp</text>
</g>
<!-- Node8&#45;&gt;Node11 -->
<g id="edge15" class="edge"><title>Node8&#45;&gt;Node11</title>
<path fill="none" stroke="#404040" d="M776.317,-457.639C757.515,-449.309 724.122,-433.886 697,-418 663.255,-398.234 627.047,-373.196 599.379,-353.181"/>
<polygon fill="none" stroke="#404040" points="599.293,-353.118 592.088,-352.819 589.593,-346.054 596.798,-346.352 599.293,-353.118"/>
<text text-anchor="middle" x="715" y="-399" font-family="Helvetica,sans-Serif" font-size="10.00"> +magic</text>
</g>
<!-- Node12 -->
<g id="node12" class="node"><title>Node12</title>
<g id="a_node12"><a xlink:href="class_save_data_1_1_texture_data.html" target="_top" xlink:title="A serializable class for holding textures. ">
<polygon fill="none" stroke="black" points="835.5,-289 835.5,-346 948.5,-346 948.5,-289 835.5,-289"/>
<text text-anchor="middle" x="892" y="-334" font-family="Helvetica,sans-Serif" font-size="10.00">SaveData.TextureData</text>
<polyline fill="none" stroke="black" points="835.5,-327 948.5,-327 "/>
<text text-anchor="middle" x="892" y="-315" font-family="Helvetica,sans-Serif" font-size="10.00"> </text>
<polyline fill="none" stroke="black" points="835.5,-308 948.5,-308 "/>
<text text-anchor="middle" x="892" y="-296" font-family="Helvetica,sans-Serif" font-size="10.00"> </text>
</a>
</g>
</g>
<!-- Node8&#45;&gt;Node12 -->
<g id="edge17" class="edge"><title>Node8&#45;&gt;Node12</title>
<path fill="none" stroke="#404040" d="M805.686,-442.843C821.405,-420.199 846.66,-383.817 865.8,-356.243"/>
<polygon fill="none" stroke="#404040" points="865.961,-356.011 866.097,-348.802 872.804,-346.154 872.668,-353.363 865.961,-356.011"/>
<text text-anchor="middle" x="862" y="-404.5" font-family="Helvetica,sans-Serif" font-size="10.00"> +height</text>
<text text-anchor="middle" x="862" y="-393.5" font-family="Helvetica,sans-Serif" font-size="10.00">+width</text>
</g>
<!-- Node9&#45;&gt;Node1 -->
<g id="edge8" class="edge"><title>Node9&#45;&gt;Node1</title>
<path fill="none" stroke="#404040" d="M398.558,-288.701C399.532,-276.794 400.522,-262.727 401,-250 401.967,-224.24 403.963,-217.607 401,-192 396.083,-149.505 384.139,-101.967 374.944,-69.439"/>
<polygon fill="none" stroke="#404040" points="374.898,-69.2797 369.393,-64.6223 371.574,-57.7491 377.08,-62.4065 374.898,-69.2797"/>
<text text-anchor="middle" x="436.5" y="-142.5" font-family="Helvetica,sans-Serif" font-size="10.00"> +serializedItems</text>
</g>
<!-- Node9&#45;&gt;Node10 -->
<g id="edge20" class="edge"><title>Node9&#45;&gt;Node10</title>
<path fill="none" stroke="#404040" d="M428.113,-288.911C458.886,-262.909 507.021,-223.363 551,-192 556.412,-188.14 562.141,-184.237 567.915,-180.42"/>
<polygon fill="none" stroke="#404040" points="568.235,-180.212 571.087,-173.588 578.297,-173.673 575.446,-180.296 568.235,-180.212"/>
<text text-anchor="middle" x="565" y="-218.5" font-family="Helvetica,sans-Serif" font-size="10.00"> +item</text>
</g>
<!-- Node10&#45;&gt;Node1 -->
<g id="edge10" class="edge"><title>Node10&#45;&gt;Node1</title>
<path fill="none" stroke="#404040" d="M560.819,-116.404C511.864,-95.0211 445.504,-66.0363 403.464,-47.6741"/>
<polygon fill="none" stroke="#404040" points="403.283,-47.5951 396.184,-48.8591 392.287,-42.7919 399.386,-41.5279 403.283,-47.5951"/>
<text text-anchor="middle" x="557.5" y="-90" font-family="Helvetica,sans-Serif" font-size="10.00"> +biologyPlayer</text>
<text text-anchor="middle" x="557.5" y="-79" font-family="Helvetica,sans-Serif" font-size="10.00">+serializedPlayers</text>
</g>
<!-- Node11&#45;&gt;Node10 -->
<g id="edge12" class="edge"><title>Node11&#45;&gt;Node10</title>
<path fill="none" stroke="#404040" d="M564.565,-288.727C576.273,-260.613 594.48,-216.889 607.659,-185.241"/>
<polygon fill="none" stroke="#404040" points="607.826,-184.839 606.44,-177.763 612.44,-173.761 613.826,-180.838 607.826,-184.839"/>
<text text-anchor="middle" x="627" y="-224" font-family="Helvetica,sans-Serif" font-size="10.00"> +special1</text>
<text text-anchor="middle" x="627" y="-213" font-family="Helvetica,sans-Serif" font-size="10.00">+special2</text>
</g>
<!-- Node12&#45;&gt;Node10 -->
<g id="edge16" class="edge"><title>Node12&#45;&gt;Node10</title>
<path fill="none" stroke="#404040" d="M867.072,-288.837C840.79,-261.089 797.025,-218.741 752,-192 736.178,-182.603 718.128,-174.665 700.671,-168.167"/>
<polygon fill="none" stroke="#404040" points="700.614,-168.147 693.618,-169.892 689.315,-164.105 696.312,-162.36 700.614,-168.147"/>
<text text-anchor="middle" x="843" y="-218.5" font-family="Helvetica,sans-Serif" font-size="10.00"> +image</text>
</g>
<!-- Node13 -->
<g id="node13" class="node"><title>Node13</title>
<polygon fill="none" stroke="#bfbfbf" points="988,-436.5 988,-493.5 1032,-493.5 1032,-436.5 988,-436.5"/>
<text text-anchor="middle" x="1010" y="-481.5" font-family="Helvetica,sans-Serif" font-size="10.00">byte []</text>
<polyline fill="none" stroke="#bfbfbf" points="988,-474.5 1032,-474.5 "/>
<text text-anchor="middle" x="1010" y="-462.5" font-family="Helvetica,sans-Serif" font-size="10.00"> </text>
<polyline fill="none" stroke="#bfbfbf" points="988,-455.5 1032,-455.5 "/>
<text text-anchor="middle" x="1010" y="-443.5" font-family="Helvetica,sans-Serif" font-size="10.00"> </text>
</g>
<!-- Node13&#45;&gt;Node12 -->
<g id="edge18" class="edge"><title>Node13&#45;&gt;Node12</title>
<path fill="none" stroke="#404040" d="M987.805,-436.633C969.299,-413.813 942.748,-381.075 922.289,-355.848"/>
<polygon fill="none" stroke="#404040" points="922.055,-355.56 915.169,-353.419 914.497,-346.239 921.383,-348.38 922.055,-355.56"/>
<text text-anchor="middle" x="1009.5" y="-399" font-family="Helvetica,sans-Serif" font-size="10.00"> +rawTextureData</text>
</g>
</g>
</svg>
        <g id="navigator" transform="translate(0 0)" fill="#404254">
                <rect fill="#f2f5e9" fill-opacity="0.5" stroke="#606060" stroke-width=".5" x="0" y="0" width="60" height="60"/>
                <use id="zoomplus" xlink:href="#zoomPlus" x="17" y="9" onmousedown="handleZoom(evt,'in')"/>
                <use id="zoomminus" xlink:href="#zoomMin" x="42" y="9" onmousedown="handleZoom(evt,'out')"/>
                <use id="reset" xlink:href="#resetDef" x="30" y="36" onmousedown="handleReset()"/>
                <g id="arrowUp" xlink:href="#dirArrow" transform="translate(30 24)" onmousedown="handlePan(0,-1)">
                  <use xlink:href="#rim" fill="#404040">
                        <set attributeName="fill" to="#808080" begin="arrowUp.mouseover" end="arrowUp.mouseout"/>
                  </use>
                  <path fill="none" stroke="white" stroke-width="1.5" d="M0,-3.0v7 M-2.5,-0.5L0,-3.0L2.5,-0.5"/>
                </g>
                <g id="arrowRight" xlink:href="#dirArrow" transform="rotate(90) translate(36 -43)" onmousedown="handlePan(1,0)">
                  <use xlink:href="#rim" fill="#404040">
                        <set attributeName="fill" to="#808080" begin="arrowRight.mouseover" end="arrowRight.mouseout"/>
                  </use>
                  <path fill="none" stroke="white" stroke-width="1.5" d="M0,-3.0v7 M-2.5,-0.5L0,-3.0L2.5,-0.5"/>
                </g>
                <g id="arrowDown" xlink:href="#dirArrow" transform="rotate(180) translate(-30 -48)" onmousedown="handlePan(0,1)">
                  <use xlink:href="#rim" fill="#404040">
                        <set attributeName="fill" to="#808080" begin="arrowDown.mouseover" end="arrowDown.mouseout"/>
                  </use>
                  <path fill="none" stroke="white" stroke-width="1.5" d="M0,-3.0v7 M-2.5,-0.5L0,-3.0L2.5,-0.5"/>
                </g>
                <g id="arrowLeft" xlink:href="#dirArrow" transform="rotate(270) translate(-36 17)" onmousedown="handlePan(-1,0)">
                  <use xlink:href="#rim" fill="#404040">
                        <set attributeName="fill" to="#808080" begin="arrowLeft.mouseover" end="arrowLeft.mouseout"/>
                  </use>
                  <path fill="none" stroke="white" stroke-width="1.5" d="M0,-3.0v7 M-2.5,-0.5L0,-3.0L2.5,-0.5"/>
                </g>
        </g>
        <svg viewBox="0 0 15 15" width="100%" height="30px" preserveAspectRatio="xMaxYMin meet">
         <g id="arrow_out" transform="scale(0.3 0.3)">
          <a xlink:href="class_save_data__coll__graph_org.svg" target="_base">
           <rect id="button" ry="5" rx="5" y="6" x="6" height="38" width="38"
                fill="#f2f5e9" fill-opacity="0.5" stroke="#606060" stroke-width="1.0"/>
           <path id="arrow"
             d="M 11.500037,31.436501 C 11.940474,20.09759 22.043105,11.32322 32.158766,21.979434 L 37.068811,17.246167 C 37.068811,17.246167 37.088388,32 37.088388,32 L 22.160133,31.978069 C 22.160133,31.978069 26.997745,27.140456 26.997745,27.140456 C 18.528582,18.264221 13.291696,25.230495 11.500037,31.436501 z"
             style="fill:#404040;"/>
          </a>
         </g>
        </svg>
</svg>
