<?xml version="1.0" encoding="UTF-8" standalone="no"?>
<!DOCTYPE svg PUBLIC "-//W3C//DTD SVG 1.1//EN"
 "http://www.w3.org/Graphics/SVG/1.1/DTD/svg11.dtd">
<!-- Generated by graphviz version 2.38.0 (20140413.2041)
 -->
<!-- Title: QuestManager Pages: 1 -->
<svg width="477pt" height="535pt"
 viewBox="0.00 0.00 476.50 535.00" xmlns="http://www.w3.org/2000/svg" xmlns:xlink="http://www.w3.org/1999/xlink">
<g id="graph0" class="graph" transform="scale(1 1) rotate(0) translate(4 531)">
<title>QuestManager</title>
<!-- Node1 -->
<g id="node1" class="node"><title>Node1</title>
<polygon fill="#bfbfbf" stroke="black" points="162.5,-0.5 162.5,-112.5 284.5,-112.5 284.5,-0.5 162.5,-0.5"/>
<text text-anchor="middle" x="223.5" y="-100.5" font-family="Helvetica,sans-Serif" font-size="10.00">QuestManager</text>
<polyline fill="none" stroke="black" points="162.5,-93.5 284.5,-93.5 "/>
<text text-anchor="middle" x="223.5" y="-81.5" font-family="Helvetica,sans-Serif" font-size="10.00"> </text>
<polyline fill="none" stroke="black" points="162.5,-74.5 284.5,-74.5 "/>
<text text-anchor="start" x="170.5" y="-62.5" font-family="Helvetica,sans-Serif" font-size="10.00">+ QuestManager()</text>
<text text-anchor="start" x="170.5" y="-51.5" font-family="Helvetica,sans-Serif" font-size="10.00">+ logQuestVariable()</text>
<text text-anchor="start" x="170.5" y="-40.5" font-family="Helvetica,sans-Serif" font-size="10.00">&#45; startQuest()</text>
<text text-anchor="start" x="170.5" y="-29.5" font-family="Helvetica,sans-Serif" font-size="10.00">&#45; isNegativeQuestCond()</text>
<text text-anchor="start" x="170.5" y="-18.5" font-family="Helvetica,sans-Serif" font-size="10.00">&#45; questDefVal()</text>
<text text-anchor="start" x="170.5" y="-7.5" font-family="Helvetica,sans-Serif" font-size="10.00">&#45; finishQuest()</text>
</g>
<!-- Node2 -->
<g id="node2" class="node"><title>Node2</title>
<polygon fill="none" stroke="#bfbfbf" points="0,-188 0,-245 101,-245 101,-188 0,-188"/>
<text text-anchor="middle" x="50.5" y="-233" font-family="Helvetica,sans-Serif" font-size="10.00">List&lt; questTypes &gt;</text>
<polyline fill="none" stroke="#bfbfbf" points="0,-226 101,-226 "/>
<text text-anchor="middle" x="50.5" y="-214" font-family="Helvetica,sans-Serif" font-size="10.00"> </text>
<polyline fill="none" stroke="#bfbfbf" points="0,-207 101,-207 "/>
<text text-anchor="middle" x="50.5" y="-195" font-family="Helvetica,sans-Serif" font-size="10.00"> </text>
</g>
<!-- Node2&#45;&gt;Node1 -->
<g id="edge1" class="edge"><title>Node2&#45;&gt;Node1</title>
<path fill="none" stroke="#404040" d="M59.7839,-187.866C66.8532,-170.01 78.0215,-147.173 93.5,-131 109.911,-113.853 131.208,-99.5712 151.799,-88.2974"/>
<polygon fill="none" stroke="#404040" points="151.854,-88.2681 155.299,-81.9332 162.472,-82.6769 159.027,-89.0118 151.854,-88.2681"/>
<text text-anchor="middle" x="143" y="-139.5" font-family="Helvetica,sans-Serif" font-size="10.00"> +negativeQuestConds</text>
</g>
<!-- Node3 -->
<g id="node3" class="node"><title>Node3</title>
<polygon fill="none" stroke="#bfbfbf" points="119,-182.5 119,-250.5 234,-250.5 234,-182.5 119,-182.5"/>
<text text-anchor="start" x="127" y="-238.5" font-family="Helvetica,sans-Serif" font-size="10.00">IDictionary&lt; QuestDef,</text>
<text text-anchor="middle" x="176.5" y="-227.5" font-family="Helvetica,sans-Serif" font-size="10.00"> bool &gt;</text>
<polyline fill="none" stroke="#bfbfbf" points="119,-220.5 234,-220.5 "/>
<text text-anchor="middle" x="176.5" y="-208.5" font-family="Helvetica,sans-Serif" font-size="10.00"> </text>
<polyline fill="none" stroke="#bfbfbf" points="119,-201.5 234,-201.5 "/>
<text text-anchor="middle" x="176.5" y="-189.5" font-family="Helvetica,sans-Serif" font-size="10.00"> </text>
</g>
<!-- Node3&#45;&gt;Node1 -->
<g id="edge2" class="edge"><title>Node3&#45;&gt;Node1</title>
<path fill="none" stroke="#404040" d="M186.353,-182.378C191.371,-165.509 197.659,-144.37 203.627,-124.306"/>
<polygon fill="none" stroke="#404040" points="203.671,-124.16 201.548,-117.268 207.092,-112.658 209.216,-119.549 203.671,-124.16"/>
<text text-anchor="middle" x="228.5" y="-139.5" font-family="Helvetica,sans-Serif" font-size="10.00"> +conditions</text>
</g>
<!-- Node4 -->
<g id="node4" class="node"><title>Node4</title>
<polygon fill="none" stroke="#bfbfbf" points="271,-342.5 271,-399.5 300,-399.5 300,-342.5 271,-342.5"/>
<text text-anchor="middle" x="285.5" y="-387.5" font-family="Helvetica,sans-Serif" font-size="10.00">int</text>
<polyline fill="none" stroke="#bfbfbf" points="271,-380.5 300,-380.5 "/>
<text text-anchor="middle" x="285.5" y="-368.5" font-family="Helvetica,sans-Serif" font-size="10.00"> </text>
<polyline fill="none" stroke="#bfbfbf" points="271,-361.5 300,-361.5 "/>
<text text-anchor="middle" x="285.5" y="-349.5" font-family="Helvetica,sans-Serif" font-size="10.00"> </text>
</g>
<!-- Node4&#45;&gt;Node1 -->
<g id="edge3" class="edge"><title>Node4&#45;&gt;Node1</title>
<path fill="none" stroke="#404040" d="M284.828,-342.236C283.142,-297.135 277.228,-205.495 256.5,-131 255.867,-128.726 255.175,-126.432 254.433,-124.132"/>
<polygon fill="none" stroke="#404040" points="254.364,-123.939 248.592,-119.617 250.361,-112.627 256.133,-116.948 254.364,-123.939"/>
<text text-anchor="middle" x="303.5" y="-214" font-family="Helvetica,sans-Serif" font-size="10.00"> &#45;finishTime</text>
</g>
<!-- Node5 -->
<g id="node5" class="node"><title>Node5</title>
<g id="a_node5"><a xlink:href="class_quest.html" target="_top" xlink:title="A class to store a whole quest, being a sequence of 3 QuestDefs Also stores a name of the quest...">
<polygon fill="none" stroke="black" points="338.5,-171.5 338.5,-261.5 440.5,-261.5 440.5,-171.5 338.5,-171.5"/>
<text text-anchor="middle" x="389.5" y="-249.5" font-family="Helvetica,sans-Serif" font-size="10.00">Quest</text>
<polyline fill="none" stroke="black" points="338.5,-242.5 440.5,-242.5 "/>
<text text-anchor="start" x="346.5" y="-230.5" font-family="Helvetica,sans-Serif" font-size="10.00">+ Main</text>
<text text-anchor="start" x="346.5" y="-219.5" font-family="Helvetica,sans-Serif" font-size="10.00">+ Side</text>
<text text-anchor="start" x="346.5" y="-208.5" font-family="Helvetica,sans-Serif" font-size="10.00">+ Cond</text>
<polyline fill="none" stroke="black" points="338.5,-201.5 440.5,-201.5 "/>
<text text-anchor="start" x="346.5" y="-189.5" font-family="Helvetica,sans-Serif" font-size="10.00">+ Quest()</text>
<text text-anchor="start" x="346.5" y="-178.5" font-family="Helvetica,sans-Serif" font-size="10.00">+ questCompleted()</text>
</a>
</g>
</g>
<!-- Node4&#45;&gt;Node5 -->
<g id="edge9" class="edge"><title>Node4&#45;&gt;Node5</title>
<path fill="none" stroke="#404040" d="M295.933,-342.348C303.559,-323.86 314.919,-299.452 328.5,-280 330.602,-276.989 332.852,-273.988 335.204,-271.023"/>
<polygon fill="none" stroke="#404040" points="335.301,-270.907 336.084,-263.738 343.002,-261.704 342.219,-268.872 335.301,-270.907"/>
<text text-anchor="middle" x="348" y="-299.5" font-family="Helvetica,sans-Serif" font-size="10.00"> +money</text>
<text text-anchor="middle" x="348" y="-288.5" font-family="Helvetica,sans-Serif" font-size="10.00">+exp</text>
</g>
<!-- Node5&#45;&gt;Node1 -->
<g id="edge4" class="edge"><title>Node5&#45;&gt;Node1</title>
<path fill="none" stroke="#404040" d="M343.26,-171.488C326.921,-155.937 308.201,-138.119 290.491,-121.263"/>
<polygon fill="none" stroke="#404040" points="290.032,-120.826 282.929,-119.587 281.34,-112.553 288.444,-113.792 290.032,-120.826"/>
<text text-anchor="middle" x="354" y="-145" font-family="Helvetica,sans-Serif" font-size="10.00"> &#45;currentQuest</text>
<text text-anchor="middle" x="354" y="-134" font-family="Helvetica,sans-Serif" font-size="10.00">&#45;chosenQuests</text>
</g>
<!-- Node6 -->
<g id="node6" class="node"><title>Node6</title>
<g id="a_node6"><a xlink:href="class_quest_def.html" target="_top" xlink:title="Class defining one quest condition (part of a sequence of 3 in Quest) ">
<polygon fill="none" stroke="black" points="325.5,-331.5 325.5,-410.5 397.5,-410.5 397.5,-331.5 325.5,-331.5"/>
<text text-anchor="middle" x="361.5" y="-398.5" font-family="Helvetica,sans-Serif" font-size="10.00">QuestDef</text>
<polyline fill="none" stroke="black" points="325.5,-391.5 397.5,-391.5 "/>
<text text-anchor="start" x="333.5" y="-379.5" font-family="Helvetica,sans-Serif" font-size="10.00">+ Type</text>
<text text-anchor="start" x="333.5" y="-368.5" font-family="Helvetica,sans-Serif" font-size="10.00">+ Data</text>
<text text-anchor="start" x="333.5" y="-357.5" font-family="Helvetica,sans-Serif" font-size="10.00">+ Desc</text>
<polyline fill="none" stroke="black" points="325.5,-350.5 397.5,-350.5 "/>
<text text-anchor="start" x="333.5" y="-338.5" font-family="Helvetica,sans-Serif" font-size="10.00">+ QuestDef()</text>
</a>
</g>
</g>
<!-- Node6&#45;&gt;Node5 -->
<g id="edge5" class="edge"><title>Node6&#45;&gt;Node5</title>
<path fill="none" stroke="#404040" d="M368.638,-331.123C371.843,-313.667 375.686,-292.739 379.195,-273.627"/>
<polygon fill="none" stroke="#404040" points="379.218,-273.502 376.367,-266.878 381.385,-261.699 384.235,-268.323 379.218,-273.502"/>
<text text-anchor="middle" x="390" y="-305" font-family="Helvetica,sans-Serif" font-size="10.00"> &#45;side</text>
<text text-anchor="middle" x="390" y="-294" font-family="Helvetica,sans-Serif" font-size="10.00">&#45;main</text>
<text text-anchor="middle" x="390" y="-283" font-family="Helvetica,sans-Serif" font-size="10.00">&#45;cond</text>
</g>
<!-- Node7 -->
<g id="node7" class="node"><title>Node7</title>
<polygon fill="none" stroke="#bfbfbf" points="256.5,-458.5 256.5,-526.5 394.5,-526.5 394.5,-458.5 256.5,-458.5"/>
<text text-anchor="start" x="264.5" y="-514.5" font-family="Helvetica,sans-Serif" font-size="10.00">KeyValuePair&lt; questTypes,</text>
<text text-anchor="middle" x="325.5" y="-503.5" font-family="Helvetica,sans-Serif" font-size="10.00"> string &gt;</text>
<polyline fill="none" stroke="#bfbfbf" points="256.5,-496.5 394.5,-496.5 "/>
<text text-anchor="middle" x="325.5" y="-484.5" font-family="Helvetica,sans-Serif" font-size="10.00"> </text>
<polyline fill="none" stroke="#bfbfbf" points="256.5,-477.5 394.5,-477.5 "/>
<text text-anchor="middle" x="325.5" y="-465.5" font-family="Helvetica,sans-Serif" font-size="10.00"> </text>
</g>
<!-- Node7&#45;&gt;Node6 -->
<g id="edge6" class="edge"><title>Node7&#45;&gt;Node6</title>
<path fill="none" stroke="#404040" d="M329.811,-458.392C331.466,-448.799 333.661,-438.385 336.5,-429 337.181,-426.75 337.926,-424.472 338.72,-422.185"/>
<polygon fill="none" stroke="#404040" points="338.787,-422.009 337.164,-414.983 343.025,-410.783 344.648,-417.809 338.787,-422.009"/>
<text text-anchor="middle" x="347.5" y="-432" font-family="Helvetica,sans-Serif" font-size="10.00"> &#45;pair</text>
</g>
<!-- Node8 -->
<g id="node8" class="node"><title>Node8</title>
<polygon fill="none" stroke="#bfbfbf" points="413,-464 413,-521 454,-521 454,-464 413,-464"/>
<text text-anchor="middle" x="433.5" y="-509" font-family="Helvetica,sans-Serif" font-size="10.00">string</text>
<polyline fill="none" stroke="#bfbfbf" points="413,-502 454,-502 "/>
<text text-anchor="middle" x="433.5" y="-490" font-family="Helvetica,sans-Serif" font-size="10.00"> </text>
<polyline fill="none" stroke="#bfbfbf" points="413,-483 454,-483 "/>
<text text-anchor="middle" x="433.5" y="-471" font-family="Helvetica,sans-Serif" font-size="10.00"> </text>
</g>
<!-- Node8&#45;&gt;Node5 -->
<g id="edge8" class="edge"><title>Node8&#45;&gt;Node5</title>
<path fill="none" stroke="#404040" d="M431.21,-463.925C427.564,-423.364 419.494,-345.351 406.5,-280 406.074,-277.86 405.616,-275.685 405.131,-273.493"/>
<polygon fill="none" stroke="#404040" points="405.105,-273.383 399.829,-268.467 402.338,-261.706 407.614,-266.622 405.105,-273.383"/>
<text text-anchor="middle" x="447" y="-374" font-family="Helvetica,sans-Serif" font-size="10.00"> +location</text>
<text text-anchor="middle" x="447" y="-363" font-family="Helvetica,sans-Serif" font-size="10.00">+title</text>
</g>
<!-- Node8&#45;&gt;Node6 -->
<g id="edge7" class="edge"><title>Node8&#45;&gt;Node6</title>
<path fill="none" stroke="#404040" d="M412.865,-468.905C405.566,-460.248 397.649,-450.034 391.5,-440 388.002,-434.293 384.69,-428.106 381.632,-421.869"/>
<polygon fill="none" stroke="#404040" points="381.487,-421.557 375.327,-417.809 376.417,-410.681 382.578,-414.429 381.487,-421.557"/>
<text text-anchor="middle" x="405.5" y="-432" font-family="Helvetica,sans-Serif" font-size="10.00"> &#45;desc</text>
</g>
</g>
</svg>
