<?xml version="1.0" encoding="UTF-8" standalone="no"?>
<!DOCTYPE svg PUBLIC "-//W3C//DTD SVG 1.1//EN"
 "http://www.w3.org/Graphics/SVG/1.1/DTD/svg11.dtd">
<!-- Generated by graphviz version 2.38.0 (20140413.2041)
 -->
<!-- Title: MagicSword Pages: 1 -->
<svg width="93pt" height="226pt"
 viewBox="0.00 0.00 93.00 226.00" xmlns="http://www.w3.org/2000/svg" xmlns:xlink="http://www.w3.org/1999/xlink">
<g id="graph0" class="graph" transform="scale(1 1) rotate(0) translate(4 222)">
<title>MagicSword</title>
<!-- Node0 -->
<g id="node1" class="node"><title>Node0</title>
<polygon fill="#bfbfbf" stroke="black" points="0,-0.5 0,-79.5 85,-79.5 85,-0.5 0,-0.5"/>
<text text-anchor="middle" x="42.5" y="-67.5" font-family="Helvetica,sans-Serif" font-size="10.00">MagicSword</text>
<polyline fill="none" stroke="black" points="0,-60.5 85,-60.5 "/>
<text text-anchor="middle" x="42.5" y="-48.5" font-family="Helvetica,sans-Serif" font-size="10.00"> </text>
<polyline fill="none" stroke="black" points="0,-41.5 85,-41.5 "/>
<text text-anchor="start" x="8" y="-29.5" font-family="Helvetica,sans-Serif" font-size="10.00">+ MagicSword()</text>
<text text-anchor="start" x="8" y="-18.5" font-family="Helvetica,sans-Serif" font-size="10.00">+ applyBuffs()</text>
<text text-anchor="start" x="8" y="-7.5" font-family="Helvetica,sans-Serif" font-size="10.00">+ revertBuffs()</text>
</g>
<!-- Node1 -->
<g id="node2" class="node"><title>Node1</title>
<g id="a_node2"><a xlink:href="class_item.html" target="_top" xlink:title="Abstract class for items that can be equipped to a player, increasing some of their stats ...">
<polygon fill="none" stroke="black" points="4,-116.5 4,-217.5 81,-217.5 81,-116.5 4,-116.5"/>
<text text-anchor="middle" x="42.5" y="-205.5" font-family="Helvetica,sans-Serif" font-size="10.00">Item</text>
<polyline fill="none" stroke="black" points="4,-198.5 81,-198.5 "/>
<text text-anchor="start" x="12" y="-186.5" font-family="Helvetica,sans-Serif" font-size="10.00">+ Name</text>
<text text-anchor="start" x="12" y="-175.5" font-family="Helvetica,sans-Serif" font-size="10.00">+ Desc</text>
<text text-anchor="start" x="12" y="-164.5" font-family="Helvetica,sans-Serif" font-size="10.00"># name</text>
<text text-anchor="start" x="12" y="-153.5" font-family="Helvetica,sans-Serif" font-size="10.00"># desc</text>
<polyline fill="none" stroke="black" points="4,-146.5 81,-146.5 "/>
<text text-anchor="start" x="12" y="-134.5" font-family="Helvetica,sans-Serif" font-size="10.00">+ applyBuffs()</text>
<text text-anchor="start" x="12" y="-123.5" font-family="Helvetica,sans-Serif" font-size="10.00">+ revertBuffs()</text>
</a>
</g>
</g>
<!-- Node1&#45;&gt;Node0 -->
<g id="edge1" class="edge"><title>Node1&#45;&gt;Node0</title>
<path fill="none" stroke="midnightblue" d="M42.5,-106.186C42.5,-97.2207 42.5,-88.1815 42.5,-79.8082"/>
<polygon fill="none" stroke="midnightblue" points="39.0001,-106.237 42.5,-116.238 46.0001,-106.238 39.0001,-106.237"/>
</g>
</g>
</svg>
