<?xml version="1.0" encoding="UTF-8" standalone="no"?>
<!DOCTYPE svg PUBLIC "-//W3C//DTD SVG 1.1//EN"
 "http://www.w3.org/Graphics/SVG/1.1/DTD/svg11.dtd">
<!-- Generated by graphviz version 2.38.0 (20140413.2041)
 -->
<!-- Title: QManagerObj Pages: 1 -->
<!--zoomable 695 -->
<svg id="main" version="1.1" xmlns="http://www.w3.org/2000/svg" xmlns:xlink="http://www.w3.org/1999/xlink" xml:space="preserve" onload="init(evt)">
<style type="text/css"><![CDATA[
.edge:hover path { stroke: red; }
.edge:hover polygon { stroke: red; fill: red; }
]]></style>
<script type="text/javascript"><![CDATA[
var edges = document.getElementsByTagName('g');
if (edges && edges.length) {
  for (var i=0;i<edges.length;i++) {
    if (edges[i].id.substr(0,4)=='edge') {
      edges[i].setAttribute('class','edge');
    }
  }
}
]]></script>
        <defs>
                <circle id="rim" cx="0" cy="0" r="7"/>
                <circle id="rim2" cx="0" cy="0" r="3.5"/>
                <g id="zoomPlus">
                        <use xlink:href="#rim" fill="#404040">
                                <set attributeName="fill" to="#808080" begin="zoomplus.mouseover" end="zoomplus.mouseout"/>
                        </use>
                        <path d="M-4,0h8M0,-4v8" fill="none" stroke="white" stroke-width="1.5" pointer-events="none"/>
                </g>
                <g id="zoomMin">
                        <use xlink:href="#rim" fill="#404040">
                                <set attributeName="fill" to="#808080" begin="zoomminus.mouseover" end="zoomminus.mouseout"/>
                        </use>
                        <path d="M-4,0h8" fill="none" stroke="white" stroke-width="1.5" pointer-events="none"/>
                </g>
                <g id="dirArrow">
                        <path fill="none" stroke="white" stroke-width="1.5" d="M0,-3.0v7 M-2.5,-0.5L0,-3.0L2.5,-0.5"/>
                </g>
               <g id="resetDef">
                       <use xlink:href="#rim2" fill="#404040">
                               <set attributeName="fill" to="#808080" begin="reset.mouseover" end="reset.mouseout"/>
                       </use>
               </g>
        </defs>

<script type="text/javascript">
var viewWidth = 556;
var viewHeight = 695;
var sectionId = 'dynsection-1';
</script>
<script xlink:href="svgpan.js"/>
<svg id="graph" class="graph">
<g id="viewport">
<title>QManagerObj</title>
<!-- Node2 -->
<g id="node1" class="node"><title>Node2</title>
<polygon fill="#bfbfbf" stroke="black" points="102,-0.5 102,-57.5 179,-57.5 179,-0.5 102,-0.5"/>
<text text-anchor="middle" x="140.5" y="-45.5" font-family="Helvetica,sans-Serif" font-size="10.00">QManagerObj</text>
<polyline fill="none" stroke="black" points="102,-38.5 179,-38.5 "/>
<text text-anchor="middle" x="140.5" y="-26.5" font-family="Helvetica,sans-Serif" font-size="10.00"> </text>
<polyline fill="none" stroke="black" points="102,-19.5 179,-19.5 "/>
<text text-anchor="start" x="110" y="-7.5" font-family="Helvetica,sans-Serif" font-size="10.00">&#45; Start()</text>
</g>
<!-- Node3 -->
<g id="node2" class="node"><title>Node3</title>
<g id="a_node2"><a xlink:href="class_mono_behaviour.html" target="_top" xlink:title="{MonoBehaviour\n||}">
<polygon fill="none" stroke="black" points="61,-155 61,-212 144,-212 144,-155 61,-155"/>
<text text-anchor="middle" x="102.5" y="-200" font-family="Helvetica,sans-Serif" font-size="10.00">MonoBehaviour</text>
<polyline fill="none" stroke="black" points="61,-193 144,-193 "/>
<text text-anchor="middle" x="102.5" y="-181" font-family="Helvetica,sans-Serif" font-size="10.00"> </text>
<polyline fill="none" stroke="black" points="61,-174 144,-174 "/>
<text text-anchor="middle" x="102.5" y="-162" font-family="Helvetica,sans-Serif" font-size="10.00"> </text>
</a>
</g>
</g>
<!-- Node3&#45;&gt;Node2 -->
<g id="edge1" class="edge"><title>Node3&#45;&gt;Node2</title>
<path fill="none" stroke="midnightblue" d="M111.844,-145.002C118.577,-117.981 127.514,-82.1157 133.606,-57.6684"/>
<polygon fill="none" stroke="midnightblue" points="108.403,-144.334 109.382,-154.883 115.196,-146.026 108.403,-144.334"/>
</g>
<!-- Node4 -->
<g id="node3" class="node"><title>Node4</title>
<g id="a_node3"><a xlink:href="class_quest_manager.html" target="_top" xlink:title="A class to manage the tracking and completion of quests ">
<polygon fill="none" stroke="black" points="162.5,-105.5 162.5,-261.5 284.5,-261.5 284.5,-105.5 162.5,-105.5"/>
<text text-anchor="middle" x="223.5" y="-249.5" font-family="Helvetica,sans-Serif" font-size="10.00">QuestManager</text>
<polyline fill="none" stroke="black" points="162.5,-242.5 284.5,-242.5 "/>
<text text-anchor="start" x="170.5" y="-230.5" font-family="Helvetica,sans-Serif" font-size="10.00">+ CurrentQuest</text>
<text text-anchor="start" x="170.5" y="-219.5" font-family="Helvetica,sans-Serif" font-size="10.00">+ firstQuest</text>
<text text-anchor="start" x="170.5" y="-208.5" font-family="Helvetica,sans-Serif" font-size="10.00">+ secondQuest</text>
<polyline fill="none" stroke="black" points="162.5,-201.5 284.5,-201.5 "/>
<text text-anchor="start" x="170.5" y="-189.5" font-family="Helvetica,sans-Serif" font-size="10.00">+ QuestManager()</text>
<text text-anchor="start" x="170.5" y="-178.5" font-family="Helvetica,sans-Serif" font-size="10.00">+ addQuest()</text>
<text text-anchor="start" x="170.5" y="-167.5" font-family="Helvetica,sans-Serif" font-size="10.00">+ updateCurrentQuest()</text>
<text text-anchor="start" x="170.5" y="-156.5" font-family="Helvetica,sans-Serif" font-size="10.00">+ logQuestVariable()</text>
<text text-anchor="start" x="170.5" y="-145.5" font-family="Helvetica,sans-Serif" font-size="10.00">+ finishQuest()</text>
<text text-anchor="start" x="170.5" y="-134.5" font-family="Helvetica,sans-Serif" font-size="10.00">&#45; startQuest()</text>
<text text-anchor="start" x="170.5" y="-123.5" font-family="Helvetica,sans-Serif" font-size="10.00">&#45; isNegativeQuestCond()</text>
<text text-anchor="start" x="170.5" y="-112.5" font-family="Helvetica,sans-Serif" font-size="10.00">&#45; questDefVal()</text>
</a>
</g>
</g>
<!-- Node4&#45;&gt;Node2 -->
<g id="edge2" class="edge"><title>Node4&#45;&gt;Node2</title>
<path fill="none" stroke="#404040" d="M181.514,-105.356C174.517,-92.5019 167.54,-79.6813 161.376,-68.3561"/>
<polygon fill="none" stroke="#404040" points="161.249,-68.1235 154.868,-64.7657 155.513,-57.5835 161.894,-60.9413 161.249,-68.1235"/>
<text text-anchor="middle" x="194" y="-79" font-family="Helvetica,sans-Serif" font-size="10.00"> +manager</text>
</g>
<!-- Node5 -->
<g id="node4" class="node"><title>Node5</title>
<polygon fill="none" stroke="#bfbfbf" points="0,-342.5 0,-399.5 101,-399.5 101,-342.5 0,-342.5"/>
<text text-anchor="middle" x="50.5" y="-387.5" font-family="Helvetica,sans-Serif" font-size="10.00">List&lt; questTypes &gt;</text>
<polyline fill="none" stroke="#bfbfbf" points="0,-380.5 101,-380.5 "/>
<text text-anchor="middle" x="50.5" y="-368.5" font-family="Helvetica,sans-Serif" font-size="10.00"> </text>
<polyline fill="none" stroke="#bfbfbf" points="0,-361.5 101,-361.5 "/>
<text text-anchor="middle" x="50.5" y="-349.5" font-family="Helvetica,sans-Serif" font-size="10.00"> </text>
</g>
<!-- Node5&#45;&gt;Node4 -->
<g id="edge3" class="edge"><title>Node5&#45;&gt;Node4</title>
<path fill="none" stroke="#404040" d="M56.5774,-342.285C62.3416,-322.296 72.9623,-296.1 91.5,-280 110.424,-263.565 124.896,-273.892 151.324,-261.4"/>
<polygon fill="none" stroke="#404040" points="151.598,-261.247 154.884,-254.828 162.073,-255.391 158.787,-261.811 151.598,-261.247"/>
<text text-anchor="middle" x="141" y="-288.5" font-family="Helvetica,sans-Serif" font-size="10.00"> +negativeQuestConds</text>
</g>
<!-- Node6 -->
<g id="node5" class="node"><title>Node6</title>
<polygon fill="none" stroke="#bfbfbf" points="119,-337 119,-405 234,-405 234,-337 119,-337"/>
<text text-anchor="start" x="127" y="-393" font-family="Helvetica,sans-Serif" font-size="10.00">IDictionary&lt; QuestDef,</text>
<text text-anchor="middle" x="176.5" y="-382" font-family="Helvetica,sans-Serif" font-size="10.00"> bool &gt;</text>
<polyline fill="none" stroke="#bfbfbf" points="119,-375 234,-375 "/>
<text text-anchor="middle" x="176.5" y="-363" font-family="Helvetica,sans-Serif" font-size="10.00"> </text>
<polyline fill="none" stroke="#bfbfbf" points="119,-356 234,-356 "/>
<text text-anchor="middle" x="176.5" y="-344" font-family="Helvetica,sans-Serif" font-size="10.00"> </text>
</g>
<!-- Node6&#45;&gt;Node4 -->
<g id="edge4" class="edge"><title>Node6&#45;&gt;Node4</title>
<path fill="none" stroke="#404040" d="M184.903,-336.836C189.422,-318.999 195.233,-296.063 200.968,-273.43"/>
<polygon fill="none" stroke="#404040" points="201.005,-273.284 198.601,-266.485 203.952,-261.651 206.356,-268.45 201.005,-273.284"/>
<text text-anchor="middle" x="226.5" y="-288.5" font-family="Helvetica,sans-Serif" font-size="10.00"> +conditions</text>
</g>
<!-- Node7 -->
<g id="node6" class="node"><title>Node7</title>
<polygon fill="none" stroke="#bfbfbf" points="257,-502.5 257,-559.5 286,-559.5 286,-502.5 257,-502.5"/>
<text text-anchor="middle" x="271.5" y="-547.5" font-family="Helvetica,sans-Serif" font-size="10.00">int</text>
<polyline fill="none" stroke="#bfbfbf" points="257,-540.5 286,-540.5 "/>
<text text-anchor="middle" x="271.5" y="-528.5" font-family="Helvetica,sans-Serif" font-size="10.00"> </text>
<polyline fill="none" stroke="#bfbfbf" points="257,-521.5 286,-521.5 "/>
<text text-anchor="middle" x="271.5" y="-509.5" font-family="Helvetica,sans-Serif" font-size="10.00"> </text>
</g>
<!-- Node7&#45;&gt;Node4 -->
<g id="edge5" class="edge"><title>Node7&#45;&gt;Node4</title>
<path fill="none" stroke="#404040" d="M272.281,-502.313C273.049,-455.868 272.318,-359.534 256.5,-280 256.07,-277.836 255.602,-275.654 255.101,-273.461"/>
<polygon fill="none" stroke="#404040" points="255.063,-273.308 249.722,-268.463 252.141,-261.67 257.481,-266.515 255.063,-273.308"/>
<text text-anchor="middle" x="300.5" y="-374" font-family="Helvetica,sans-Serif" font-size="10.00"> &#45;noOfQuests</text>
<text text-anchor="middle" x="300.5" y="-363" font-family="Helvetica,sans-Serif" font-size="10.00">&#45;finishTime</text>
</g>
<!-- Node8 -->
<g id="node7" class="node"><title>Node8</title>
<g id="a_node7"><a xlink:href="class_quest.html" target="_top" xlink:title="A class to store a whole quest, being a sequence of 3 QuestDefs Also stores a name of the quest...">
<polygon fill="none" stroke="black" points="347,-320.5 347,-421.5 478,-421.5 478,-320.5 347,-320.5"/>
<text text-anchor="middle" x="412.5" y="-409.5" font-family="Helvetica,sans-Serif" font-size="10.00">Quest</text>
<polyline fill="none" stroke="black" points="347,-402.5 478,-402.5 "/>
<text text-anchor="start" x="355" y="-390.5" font-family="Helvetica,sans-Serif" font-size="10.00">+ Main</text>
<text text-anchor="start" x="355" y="-379.5" font-family="Helvetica,sans-Serif" font-size="10.00">+ Side</text>
<text text-anchor="start" x="355" y="-368.5" font-family="Helvetica,sans-Serif" font-size="10.00">+ Cond</text>
<text text-anchor="start" x="355" y="-357.5" font-family="Helvetica,sans-Serif" font-size="10.00">+ Completed</text>
<polyline fill="none" stroke="black" points="347,-350.5 478,-350.5 "/>
<text text-anchor="start" x="355" y="-338.5" font-family="Helvetica,sans-Serif" font-size="10.00">+ Quest()</text>
<text text-anchor="start" x="355" y="-327.5" font-family="Helvetica,sans-Serif" font-size="10.00">+ checkQuestCompleted()</text>
</a>
</g>
</g>
<!-- Node7&#45;&gt;Node8 -->
<g id="edge12" class="edge"><title>Node7&#45;&gt;Node8</title>
<path fill="none" stroke="#404040" d="M281.568,-502.367C289.389,-483.426 301.582,-458.481 317.5,-440 323.324,-433.238 329.953,-426.792 336.937,-420.752"/>
<polygon fill="none" stroke="#404040" points="337.369,-420.397 339.464,-413.497 346.639,-412.777 344.544,-419.677 337.369,-420.397"/>
<text text-anchor="middle" x="337" y="-459.5" font-family="Helvetica,sans-Serif" font-size="10.00"> +money</text>
<text text-anchor="middle" x="337" y="-448.5" font-family="Helvetica,sans-Serif" font-size="10.00">+exp</text>
</g>
<!-- Node8&#45;&gt;Node4 -->
<g id="edge6" class="edge"><title>Node8&#45;&gt;Node4</title>
<path fill="none" stroke="#404040" d="M361.851,-320.289C340.812,-299.639 316.046,-275.332 293.326,-253.033"/>
<polygon fill="none" stroke="#404040" points="293.295,-253.002 286.211,-251.654 284.73,-244.596 291.814,-245.944 293.295,-253.002"/>
<text text-anchor="middle" x="374" y="-294" font-family="Helvetica,sans-Serif" font-size="10.00"> &#45;currentQuest</text>
<text text-anchor="middle" x="374" y="-283" font-family="Helvetica,sans-Serif" font-size="10.00">&#45;chosenQuests</text>
</g>
<!-- Node9 -->
<g id="node8" class="node"><title>Node9</title>
<g id="a_node8"><a xlink:href="class_quest_def.html" target="_top" xlink:title="Class defining one quest condition (part of a sequence of 3 in Quest) ">
<polygon fill="none" stroke="black" points="304.5,-491.5 304.5,-570.5 376.5,-570.5 376.5,-491.5 304.5,-491.5"/>
<text text-anchor="middle" x="340.5" y="-558.5" font-family="Helvetica,sans-Serif" font-size="10.00">QuestDef</text>
<polyline fill="none" stroke="black" points="304.5,-551.5 376.5,-551.5 "/>
<text text-anchor="start" x="312.5" y="-539.5" font-family="Helvetica,sans-Serif" font-size="10.00">+ Type</text>
<text text-anchor="start" x="312.5" y="-528.5" font-family="Helvetica,sans-Serif" font-size="10.00">+ Data</text>
<text text-anchor="start" x="312.5" y="-517.5" font-family="Helvetica,sans-Serif" font-size="10.00">+ Desc</text>
<polyline fill="none" stroke="black" points="304.5,-510.5 376.5,-510.5 "/>
<text text-anchor="start" x="312.5" y="-498.5" font-family="Helvetica,sans-Serif" font-size="10.00">+ QuestDef()</text>
</a>
</g>
</g>
<!-- Node9&#45;&gt;Node8 -->
<g id="edge7" class="edge"><title>Node9&#45;&gt;Node8</title>
<path fill="none" stroke="#404040" d="M353.067,-491.319C358.718,-475.199 365.838,-456.442 373.5,-440 374.688,-437.45 375.939,-434.868 377.234,-432.277"/>
<polygon fill="none" stroke="#404040" points="377.236,-432.274 376.45,-425.106 382.765,-421.624 383.55,-428.792 377.236,-432.274"/>
<text text-anchor="middle" x="386" y="-465" font-family="Helvetica,sans-Serif" font-size="10.00"> &#45;side</text>
<text text-anchor="middle" x="386" y="-454" font-family="Helvetica,sans-Serif" font-size="10.00">&#45;main</text>
<text text-anchor="middle" x="386" y="-443" font-family="Helvetica,sans-Serif" font-size="10.00">&#45;cond</text>
</g>
<!-- Node10 -->
<g id="node9" class="node"><title>Node10</title>
<polygon fill="none" stroke="#bfbfbf" points="235.5,-618.5 235.5,-686.5 373.5,-686.5 373.5,-618.5 235.5,-618.5"/>
<text text-anchor="start" x="243.5" y="-674.5" font-family="Helvetica,sans-Serif" font-size="10.00">KeyValuePair&lt; questTypes,</text>
<text text-anchor="middle" x="304.5" y="-663.5" font-family="Helvetica,sans-Serif" font-size="10.00"> string &gt;</text>
<polyline fill="none" stroke="#bfbfbf" points="235.5,-656.5 373.5,-656.5 "/>
<text text-anchor="middle" x="304.5" y="-644.5" font-family="Helvetica,sans-Serif" font-size="10.00"> </text>
<polyline fill="none" stroke="#bfbfbf" points="235.5,-637.5 373.5,-637.5 "/>
<text text-anchor="middle" x="304.5" y="-625.5" font-family="Helvetica,sans-Serif" font-size="10.00"> </text>
</g>
<!-- Node10&#45;&gt;Node9 -->
<g id="edge8" class="edge"><title>Node10&#45;&gt;Node9</title>
<path fill="none" stroke="#404040" d="M308.811,-618.392C310.466,-608.799 312.661,-598.385 315.5,-589 316.181,-586.75 316.926,-584.472 317.72,-582.185"/>
<polygon fill="none" stroke="#404040" points="317.787,-582.009 316.164,-574.983 322.025,-570.783 323.648,-577.809 317.787,-582.009"/>
<text text-anchor="middle" x="326.5" y="-592" font-family="Helvetica,sans-Serif" font-size="10.00"> &#45;pair</text>
</g>
<!-- Node11 -->
<g id="node10" class="node"><title>Node11</title>
<polygon fill="none" stroke="#bfbfbf" points="392,-624 392,-681 433,-681 433,-624 392,-624"/>
<text text-anchor="middle" x="412.5" y="-669" font-family="Helvetica,sans-Serif" font-size="10.00">string</text>
<polyline fill="none" stroke="#bfbfbf" points="392,-662 433,-662 "/>
<text text-anchor="middle" x="412.5" y="-650" font-family="Helvetica,sans-Serif" font-size="10.00"> </text>
<polyline fill="none" stroke="#bfbfbf" points="392,-643 433,-643 "/>
<text text-anchor="middle" x="412.5" y="-631" font-family="Helvetica,sans-Serif" font-size="10.00"> </text>
</g>
<!-- Node11&#45;&gt;Node8 -->
<g id="edge10" class="edge"><title>Node11&#45;&gt;Node8</title>
<path fill="none" stroke="#404040" d="M412.5,-623.936C412.5,-580.027 412.5,-493.113 412.5,-433.778"/>
<polygon fill="none" stroke="#404040" points="412.5,-433.561 408.5,-427.561 412.5,-421.561 416.5,-427.561 412.5,-433.561"/>
<text text-anchor="middle" x="434" y="-534" font-family="Helvetica,sans-Serif" font-size="10.00"> +location</text>
<text text-anchor="middle" x="434" y="-523" font-family="Helvetica,sans-Serif" font-size="10.00">+title</text>
</g>
<!-- Node11&#45;&gt;Node9 -->
<g id="edge9" class="edge"><title>Node11&#45;&gt;Node9</title>
<path fill="none" stroke="#404040" d="M391.865,-628.905C384.566,-620.248 376.649,-610.034 370.5,-600 367.002,-594.293 363.69,-588.106 360.632,-581.869"/>
<polygon fill="none" stroke="#404040" points="360.487,-581.557 354.327,-577.809 355.417,-570.681 361.578,-574.429 360.487,-581.557"/>
<text text-anchor="middle" x="384.5" y="-592" font-family="Helvetica,sans-Serif" font-size="10.00"> &#45;desc</text>
</g>
<!-- Node12 -->
<g id="node11" class="node"><title>Node12</title>
<polygon fill="none" stroke="#bfbfbf" points="473.5,-502.5 473.5,-559.5 547.5,-559.5 547.5,-502.5 473.5,-502.5"/>
<text text-anchor="middle" x="510.5" y="-547.5" font-family="Helvetica,sans-Serif" font-size="10.00">questStatues</text>
<polyline fill="none" stroke="#bfbfbf" points="473.5,-540.5 547.5,-540.5 "/>
<text text-anchor="middle" x="510.5" y="-528.5" font-family="Helvetica,sans-Serif" font-size="10.00"> </text>
<polyline fill="none" stroke="#bfbfbf" points="473.5,-521.5 547.5,-521.5 "/>
<text text-anchor="middle" x="510.5" y="-509.5" font-family="Helvetica,sans-Serif" font-size="10.00"> </text>
</g>
<!-- Node12&#45;&gt;Node8 -->
<g id="edge11" class="edge"><title>Node12&#45;&gt;Node8</title>
<path fill="none" stroke="#404040" d="M493.43,-502.479C481.338,-482.983 464.651,-456.08 449.569,-431.765"/>
<polygon fill="none" stroke="#404040" points="449.547,-431.729 442.986,-428.739 443.222,-421.532 449.784,-424.522 449.547,-431.729"/>
<text text-anchor="middle" x="498.5" y="-454" font-family="Helvetica,sans-Serif" font-size="10.00"> &#45;completed</text>
</g>
</g>
</svg>
        <g id="navigator" transform="translate(0 0)" fill="#404254">
                <rect fill="#f2f5e9" fill-opacity="0.5" stroke="#606060" stroke-width=".5" x="0" y="0" width="60" height="60"/>
                <use id="zoomplus" xlink:href="#zoomPlus" x="17" y="9" onmousedown="handleZoom(evt,'in')"/>
                <use id="zoomminus" xlink:href="#zoomMin" x="42" y="9" onmousedown="handleZoom(evt,'out')"/>
                <use id="reset" xlink:href="#resetDef" x="30" y="36" onmousedown="handleReset()"/>
                <g id="arrowUp" xlink:href="#dirArrow" transform="translate(30 24)" onmousedown="handlePan(0,-1)">
                  <use xlink:href="#rim" fill="#404040">
                        <set attributeName="fill" to="#808080" begin="arrowUp.mouseover" end="arrowUp.mouseout"/>
                  </use>
                  <path fill="none" stroke="white" stroke-width="1.5" d="M0,-3.0v7 M-2.5,-0.5L0,-3.0L2.5,-0.5"/>
                </g>
                <g id="arrowRight" xlink:href="#dirArrow" transform="rotate(90) translate(36 -43)" onmousedown="handlePan(1,0)">
                  <use xlink:href="#rim" fill="#404040">
                        <set attributeName="fill" to="#808080" begin="arrowRight.mouseover" end="arrowRight.mouseout"/>
                  </use>
                  <path fill="none" stroke="white" stroke-width="1.5" d="M0,-3.0v7 M-2.5,-0.5L0,-3.0L2.5,-0.5"/>
                </g>
                <g id="arrowDown" xlink:href="#dirArrow" transform="rotate(180) translate(-30 -48)" onmousedown="handlePan(0,1)">
                  <use xlink:href="#rim" fill="#404040">
                        <set attributeName="fill" to="#808080" begin="arrowDown.mouseover" end="arrowDown.mouseout"/>
                  </use>
                  <path fill="none" stroke="white" stroke-width="1.5" d="M0,-3.0v7 M-2.5,-0.5L0,-3.0L2.5,-0.5"/>
                </g>
                <g id="arrowLeft" xlink:href="#dirArrow" transform="rotate(270) translate(-36 17)" onmousedown="handlePan(-1,0)">
                  <use xlink:href="#rim" fill="#404040">
                        <set attributeName="fill" to="#808080" begin="arrowLeft.mouseover" end="arrowLeft.mouseout"/>
                  </use>
                  <path fill="none" stroke="white" stroke-width="1.5" d="M0,-3.0v7 M-2.5,-0.5L0,-3.0L2.5,-0.5"/>
                </g>
        </g>
        <svg viewBox="0 0 15 15" width="100%" height="30px" preserveAspectRatio="xMaxYMin meet">
         <g id="arrow_out" transform="scale(0.3 0.3)">
          <a xlink:href="class_q_manager_obj__coll__graph_org.svg" target="_base">
           <rect id="button" ry="5" rx="5" y="6" x="6" height="38" width="38"
                fill="#f2f5e9" fill-opacity="0.5" stroke="#606060" stroke-width="1.0"/>
           <path id="arrow"
             d="M 11.500037,31.436501 C 11.940474,20.09759 22.043105,11.32322 32.158766,21.979434 L 37.068811,17.246167 C 37.068811,17.246167 37.088388,32 37.088388,32 L 22.160133,31.978069 C 22.160133,31.978069 26.997745,27.140456 26.997745,27.140456 C 18.528582,18.264221 13.291696,25.230495 11.500037,31.436501 z"
             style="fill:#404040;"/>
          </a>
         </g>
        </svg>
</svg>
