<?xml version="1.0" encoding="UTF-8" standalone="no"?>
<!DOCTYPE svg PUBLIC "-//W3C//DTD SVG 1.1//EN"
 "http://www.w3.org/Graphics/SVG/1.1/DTD/svg11.dtd">
<!-- Generated by graphviz version 2.38.0 (20140413.2041)
 -->
<!-- Title: CarSpawner Pages: 1 -->
<svg width="302pt" height="193pt"
 viewBox="0.00 0.00 301.50 193.00" xmlns="http://www.w3.org/2000/svg" xmlns:xlink="http://www.w3.org/1999/xlink">
<g id="graph0" class="graph" transform="scale(1 1) rotate(0) translate(4 189)">
<title>CarSpawner</title>
<!-- Node2 -->
<g id="node1" class="node"><title>Node2</title>
<polygon fill="#bfbfbf" stroke="black" points="133,-0.5 133,-79.5 202,-79.5 202,-0.5 133,-0.5"/>
<text text-anchor="middle" x="167.5" y="-67.5" font-family="Helvetica,sans-Serif" font-size="10.00">CarSpawner</text>
<polyline fill="none" stroke="black" points="133,-60.5 202,-60.5 "/>
<text text-anchor="middle" x="167.5" y="-48.5" font-family="Helvetica,sans-Serif" font-size="10.00"> </text>
<polyline fill="none" stroke="black" points="133,-41.5 202,-41.5 "/>
<text text-anchor="start" x="141" y="-29.5" font-family="Helvetica,sans-Serif" font-size="10.00">+ Trigger()</text>
<text text-anchor="start" x="141" y="-18.5" font-family="Helvetica,sans-Serif" font-size="10.00">+ Harder()</text>
<text text-anchor="start" x="141" y="-7.5" font-family="Helvetica,sans-Serif" font-size="10.00">+ Restart()</text>
</g>
<!-- Node3 -->
<g id="node2" class="node"><title>Node3</title>
<g id="a_node2"><a xlink:href="class_mono_behaviour.html" target="_top" xlink:title="{MonoBehaviour\n||}">
<polygon fill="none" stroke="black" points="0,-127.5 0,-184.5 83,-184.5 83,-127.5 0,-127.5"/>
<text text-anchor="middle" x="41.5" y="-172.5" font-family="Helvetica,sans-Serif" font-size="10.00">MonoBehaviour</text>
<polyline fill="none" stroke="black" points="0,-165.5 83,-165.5 "/>
<text text-anchor="middle" x="41.5" y="-153.5" font-family="Helvetica,sans-Serif" font-size="10.00"> </text>
<polyline fill="none" stroke="black" points="0,-146.5 83,-146.5 "/>
<text text-anchor="middle" x="41.5" y="-134.5" font-family="Helvetica,sans-Serif" font-size="10.00"> </text>
</a>
</g>
</g>
<!-- Node3&#45;&gt;Node2 -->
<g id="edge1" class="edge"><title>Node3&#45;&gt;Node2</title>
<path fill="none" stroke="midnightblue" d="M79.5599,-120.565C96.499,-105.239 116.307,-87.3178 132.83,-72.3678"/>
<polygon fill="none" stroke="midnightblue" points="77.0683,-118.099 72.0011,-127.404 81.7647,-123.29 77.0683,-118.099"/>
</g>
<!-- Node4 -->
<g id="node3" class="node"><title>Node4</title>
<polygon fill="none" stroke="#bfbfbf" points="101,-127.5 101,-184.5 172,-184.5 172,-127.5 101,-127.5"/>
<text text-anchor="middle" x="136.5" y="-172.5" font-family="Helvetica,sans-Serif" font-size="10.00">GameObject</text>
<polyline fill="none" stroke="#bfbfbf" points="101,-165.5 172,-165.5 "/>
<text text-anchor="middle" x="136.5" y="-153.5" font-family="Helvetica,sans-Serif" font-size="10.00"> </text>
<polyline fill="none" stroke="#bfbfbf" points="101,-146.5 172,-146.5 "/>
<text text-anchor="middle" x="136.5" y="-134.5" font-family="Helvetica,sans-Serif" font-size="10.00"> </text>
</g>
<!-- Node4&#45;&gt;Node2 -->
<g id="edge2" class="edge"><title>Node4&#45;&gt;Node2</title>
<path fill="none" stroke="#404040" d="M140.345,-127.238C141.913,-117.872 143.963,-107.41 146.5,-98 147.107,-95.7471 147.767,-93.4579 148.464,-91.1554"/>
<polygon fill="none" stroke="#404040" points="148.498,-91.0515 146.55,-84.1085 152.209,-79.6398 154.158,-86.5828 148.498,-91.0515"/>
<text text-anchor="middle" x="161.5" y="-101" font-family="Helvetica,sans-Serif" font-size="10.00"> +Cars</text>
</g>
<!-- Node5 -->
<g id="node4" class="node"><title>Node5</title>
<polygon fill="none" stroke="#bfbfbf" points="190,-127.5 190,-184.5 225,-184.5 225,-127.5 190,-127.5"/>
<text text-anchor="middle" x="207.5" y="-172.5" font-family="Helvetica,sans-Serif" font-size="10.00">float</text>
<polyline fill="none" stroke="#bfbfbf" points="190,-165.5 225,-165.5 "/>
<text text-anchor="middle" x="207.5" y="-153.5" font-family="Helvetica,sans-Serif" font-size="10.00"> </text>
<polyline fill="none" stroke="#bfbfbf" points="190,-146.5 225,-146.5 "/>
<text text-anchor="middle" x="207.5" y="-134.5" font-family="Helvetica,sans-Serif" font-size="10.00"> </text>
</g>
<!-- Node5&#45;&gt;Node2 -->
<g id="edge3" class="edge"><title>Node5&#45;&gt;Node2</title>
<path fill="none" stroke="#404040" d="M197.817,-127.404C193.997,-116.518 189.486,-103.661 185.128,-91.2388"/>
<polygon fill="none" stroke="#404040" points="184.996,-90.8638 179.235,-86.5265 181.023,-79.5406 186.784,-83.8778 184.996,-90.8638"/>
<text text-anchor="middle" x="217" y="-101" font-family="Helvetica,sans-Serif" font-size="10.00"> &#45;carSpeeds</text>
</g>
<!-- Node6 -->
<g id="node5" class="node"><title>Node6</title>
<polygon fill="none" stroke="#bfbfbf" points="260,-127.5 260,-184.5 289,-184.5 289,-127.5 260,-127.5"/>
<text text-anchor="middle" x="274.5" y="-172.5" font-family="Helvetica,sans-Serif" font-size="10.00">int</text>
<polyline fill="none" stroke="#bfbfbf" points="260,-165.5 289,-165.5 "/>
<text text-anchor="middle" x="274.5" y="-153.5" font-family="Helvetica,sans-Serif" font-size="10.00"> </text>
<polyline fill="none" stroke="#bfbfbf" points="260,-146.5 289,-146.5 "/>
<text text-anchor="middle" x="274.5" y="-134.5" font-family="Helvetica,sans-Serif" font-size="10.00"> </text>
</g>
<!-- Node6&#45;&gt;Node2 -->
<g id="edge4" class="edge"><title>Node6&#45;&gt;Node2</title>
<path fill="none" stroke="#404040" d="M264.727,-127.233C260.413,-117.352 254.67,-106.564 247.5,-98 237.664,-86.2523 224.879,-75.7298 212.425,-67.0195"/>
<polygon fill="none" stroke="#404040" points="212.098,-66.801 204.887,-66.7991 202.115,-60.1419 209.326,-60.1438 212.098,-66.801"/>
<text text-anchor="middle" x="274" y="-101" font-family="Helvetica,sans-Serif" font-size="10.00"> +Facing</text>
</g>
</g>
</svg>
