<?xml version="1.0" encoding="UTF-8" standalone="no"?>
<!DOCTYPE svg PUBLIC "-//W3C//DTD SVG 1.1//EN"
 "http://www.w3.org/Graphics/SVG/1.1/DTD/svg11.dtd">
<!-- Generated by graphviz version 2.38.0 (20140413.2041)
 -->
<!-- Title: HealingSpell Pages: 1 -->
<!--zoomable 1067 -->
<svg id="main" version="1.1" xmlns="http://www.w3.org/2000/svg" xmlns:xlink="http://www.w3.org/1999/xlink" xml:space="preserve" onload="init(evt)">
<style type="text/css"><![CDATA[
.edge:hover path { stroke: red; }
.edge:hover polygon { stroke: red; fill: red; }
]]></style>
<script type="text/javascript"><![CDATA[
var edges = document.getElementsByTagName('g');
if (edges && edges.length) {
  for (var i=0;i<edges.length;i++) {
    if (edges[i].id.substr(0,4)=='edge') {
      edges[i].setAttribute('class','edge');
    }
  }
}
]]></script>
        <defs>
                <circle id="rim" cx="0" cy="0" r="7"/>
                <circle id="rim2" cx="0" cy="0" r="3.5"/>
                <g id="zoomPlus">
                        <use xlink:href="#rim" fill="#404040">
                                <set attributeName="fill" to="#808080" begin="zoomplus.mouseover" end="zoomplus.mouseout"/>
                        </use>
                        <path d="M-4,0h8M0,-4v8" fill="none" stroke="white" stroke-width="1.5" pointer-events="none"/>
                </g>
                <g id="zoomMin">
                        <use xlink:href="#rim" fill="#404040">
                                <set attributeName="fill" to="#808080" begin="zoomminus.mouseover" end="zoomminus.mouseout"/>
                        </use>
                        <path d="M-4,0h8" fill="none" stroke="white" stroke-width="1.5" pointer-events="none"/>
                </g>
                <g id="dirArrow">
                        <path fill="none" stroke="white" stroke-width="1.5" d="M0,-3.0v7 M-2.5,-0.5L0,-3.0L2.5,-0.5"/>
                </g>
               <g id="resetDef">
                       <use xlink:href="#rim2" fill="#404040">
                               <set attributeName="fill" to="#808080" begin="reset.mouseover" end="reset.mouseout"/>
                       </use>
               </g>
        </defs>

<script type="text/javascript">
var viewWidth = 784;
var viewHeight = 1067;
var sectionId = 'dynsection-1';
</script>
<script xlink:href="svgpan.js"/>
<svg id="graph" class="graph">
<g id="viewport">
<title>HealingSpell</title>
<!-- Node3 -->
<g id="node1" class="node"><title>Node3</title>
<polygon fill="#bfbfbf" stroke="black" points="100.5,-601.5 100.5,-669.5 186.5,-669.5 186.5,-601.5 100.5,-601.5"/>
<text text-anchor="middle" x="143.5" y="-657.5" font-family="Helvetica,sans-Serif" font-size="10.00">HealingSpell</text>
<polyline fill="none" stroke="black" points="100.5,-650.5 186.5,-650.5 "/>
<text text-anchor="middle" x="143.5" y="-638.5" font-family="Helvetica,sans-Serif" font-size="10.00"> </text>
<polyline fill="none" stroke="black" points="100.5,-631.5 186.5,-631.5 "/>
<text text-anchor="start" x="108.5" y="-619.5" font-family="Helvetica,sans-Serif" font-size="10.00">+ HealingSpell()</text>
<text text-anchor="start" x="108.5" y="-608.5" font-family="Helvetica,sans-Serif" font-size="10.00">+ performMove()</text>
</g>
<!-- Node4 -->
<g id="node2" class="node"><title>Node4</title>
<g id="a_node2"><a xlink:href="class_special_move.html" target="_top" xlink:title="Special move abstract base class that expands upon CharacterMove, adding magic properties ...">
<polygon fill="none" stroke="black" points="132.5,-841.5 132.5,-942.5 230.5,-942.5 230.5,-841.5 132.5,-841.5"/>
<text text-anchor="middle" x="181.5" y="-930.5" font-family="Helvetica,sans-Serif" font-size="10.00">SpecialMove</text>
<polyline fill="none" stroke="black" points="132.5,-923.5 230.5,-923.5 "/>
<text text-anchor="start" x="140.5" y="-911.5" font-family="Helvetica,sans-Serif" font-size="10.00">+ Magic</text>
<text text-anchor="start" x="140.5" y="-900.5" font-family="Helvetica,sans-Serif" font-size="10.00">+ Desc</text>
<text text-anchor="start" x="140.5" y="-889.5" font-family="Helvetica,sans-Serif" font-size="10.00">+ Special</text>
<polyline fill="none" stroke="black" points="132.5,-882.5 230.5,-882.5 "/>
<text text-anchor="start" x="140.5" y="-870.5" font-family="Helvetica,sans-Serif" font-size="10.00">+ setUp()</text>
<text text-anchor="start" x="140.5" y="-859.5" font-family="Helvetica,sans-Serif" font-size="10.00">+ decreaseMagic()</text>
<text text-anchor="start" x="140.5" y="-848.5" font-family="Helvetica,sans-Serif" font-size="10.00"># SpecialMove()</text>
</a>
</g>
</g>
<!-- Node4&#45;&gt;Node3 -->
<g id="edge1" class="edge"><title>Node4&#45;&gt;Node3</title>
<path fill="none" stroke="midnightblue" d="M172.574,-831.222C165.06,-780.893 154.587,-710.752 148.477,-669.835"/>
<polygon fill="none" stroke="midnightblue" points="169.145,-831.952 174.083,-841.326 176.068,-830.918 169.145,-831.952"/>
</g>
<!-- Node7 -->
<g id="node5" class="node"><title>Node7</title>
<g id="a_node5"><a xlink:href="class_character.html" target="_top" xlink:title="Base abstract class for Enemy and Player to inherit from. Defines all shared variables, their constructor and their setters and getters ">
<polygon fill="none" stroke="black" points="424,-546.5 424,-724.5 519,-724.5 519,-546.5 424,-546.5"/>
<text text-anchor="middle" x="471.5" y="-712.5" font-family="Helvetica,sans-Serif" font-size="10.00">Character</text>
<polyline fill="none" stroke="black" points="424,-705.5 519,-705.5 "/>
<text text-anchor="start" x="432" y="-693.5" font-family="Helvetica,sans-Serif" font-size="10.00">+ Name</text>
<text text-anchor="start" x="432" y="-682.5" font-family="Helvetica,sans-Serif" font-size="10.00">+ Level</text>
<text text-anchor="start" x="432" y="-671.5" font-family="Helvetica,sans-Serif" font-size="10.00">+ Health</text>
<text text-anchor="start" x="432" y="-660.5" font-family="Helvetica,sans-Serif" font-size="10.00">+ Attack</text>
<text text-anchor="start" x="432" y="-649.5" font-family="Helvetica,sans-Serif" font-size="10.00">+ Defence</text>
<text text-anchor="start" x="432" y="-638.5" font-family="Helvetica,sans-Serif" font-size="10.00">+ MaximumMagic</text>
<text text-anchor="start" x="432" y="-627.5" font-family="Helvetica,sans-Serif" font-size="10.00">+ Magic</text>
<text text-anchor="start" x="432" y="-616.5" font-family="Helvetica,sans-Serif" font-size="10.00">+ Luck</text>
<text text-anchor="start" x="432" y="-605.5" font-family="Helvetica,sans-Serif" font-size="10.00">+ Speed</text>
<text text-anchor="start" x="432" y="-594.5" font-family="Helvetica,sans-Serif" font-size="10.00">+ Special1</text>
<text text-anchor="start" x="432" y="-583.5" font-family="Helvetica,sans-Serif" font-size="10.00">+ Special2</text>
<text text-anchor="start" x="432" y="-572.5" font-family="Helvetica,sans-Serif" font-size="10.00">+ Image</text>
<polyline fill="none" stroke="black" points="424,-565.5 519,-565.5 "/>
<text text-anchor="start" x="432" y="-553.5" font-family="Helvetica,sans-Serif" font-size="10.00"># Character()</text>
</a>
</g>
</g>
<!-- Node4&#45;&gt;Node7 -->
<g id="edge7" class="edge"><title>Node4&#45;&gt;Node7</title>
<path fill="none" stroke="#404040" d="M216.47,-841.22C246.331,-798.862 284.878,-744.6 287.5,-743 334.287,-714.451 362.862,-753.792 409.5,-725 411.096,-724.015 412.662,-722.971 414.198,-721.875"/>
<polygon fill="none" stroke="#404040" points="414.603,-721.545 416.719,-714.652 423.897,-713.954 421.78,-720.847 414.603,-721.545"/>
<text text-anchor="middle" x="310" y="-786" font-family="Helvetica,sans-Serif" font-size="10.00"> #special1</text>
<text text-anchor="middle" x="310" y="-775" font-family="Helvetica,sans-Serif" font-size="10.00">#special2</text>
</g>
<!-- Node5 -->
<g id="node3" class="node"><title>Node5</title>
<g id="a_node3"><a xlink:href="class_character_move.html" target="_top" xlink:title="Astract base class for character moves ">
<polygon fill="none" stroke="black" points="266.5,-0.5 266.5,-79.5 352.5,-79.5 352.5,-0.5 266.5,-0.5"/>
<text text-anchor="middle" x="309.5" y="-67.5" font-family="Helvetica,sans-Serif" font-size="10.00">CharacterMove</text>
<polyline fill="none" stroke="black" points="266.5,-60.5 352.5,-60.5 "/>
<text text-anchor="start" x="274.5" y="-48.5" font-family="Helvetica,sans-Serif" font-size="10.00">+ User</text>
<text text-anchor="start" x="274.5" y="-37.5" font-family="Helvetica,sans-Serif" font-size="10.00">+ Target</text>
<text text-anchor="start" x="274.5" y="-26.5" font-family="Helvetica,sans-Serif" font-size="10.00">+ Text</text>
<polyline fill="none" stroke="black" points="266.5,-19.5 352.5,-19.5 "/>
<text text-anchor="start" x="274.5" y="-7.5" font-family="Helvetica,sans-Serif" font-size="10.00">+ performMove()</text>
</a>
</g>
</g>
<!-- Node5&#45;&gt;Node4 -->
<g id="edge2" class="edge"><title>Node5&#45;&gt;Node4</title>
<path fill="none" stroke="midnightblue" d="M268.801,-87.7207C243.016,-122.156 214.5,-171.44 214.5,-221 214.5,-636.5 214.5,-636.5 214.5,-636.5 214.5,-708.009 201.529,-789.889 191.851,-841.027"/>
<polygon fill="none" stroke="midnightblue" points="271.62,-89.7961 274.934,-79.7328 266.068,-85.5332 271.62,-89.7961"/>
</g>
<!-- Node6 -->
<g id="node4" class="node"><title>Node6</title>
<polygon fill="none" stroke="#bfbfbf" points="238,-1001.5 238,-1058.5 279,-1058.5 279,-1001.5 238,-1001.5"/>
<text text-anchor="middle" x="258.5" y="-1046.5" font-family="Helvetica,sans-Serif" font-size="10.00">string</text>
<polyline fill="none" stroke="#bfbfbf" points="238,-1039.5 279,-1039.5 "/>
<text text-anchor="middle" x="258.5" y="-1027.5" font-family="Helvetica,sans-Serif" font-size="10.00"> </text>
<polyline fill="none" stroke="#bfbfbf" points="238,-1020.5 279,-1020.5 "/>
<text text-anchor="middle" x="258.5" y="-1008.5" font-family="Helvetica,sans-Serif" font-size="10.00"> </text>
</g>
<!-- Node6&#45;&gt;Node4 -->
<g id="edge21" class="edge"><title>Node6&#45;&gt;Node4</title>
<path fill="none" stroke="#404040" d="M237.715,-1010.81C229.63,-1002.9 220.813,-993.129 214.5,-983 208.936,-974.072 204.108,-964.066 199.991,-954.058"/>
<polygon fill="none" stroke="#404040" points="199.972,-954.009 194.077,-949.855 195.645,-942.816 201.539,-946.97 199.972,-954.009"/>
<text text-anchor="middle" x="229.5" y="-969.5" font-family="Helvetica,sans-Serif" font-size="10.00"> #desc</text>
</g>
<!-- Node6&#45;&gt;Node5 -->
<g id="edge3" class="edge"><title>Node6&#45;&gt;Node5</title>
<path fill="none" stroke="#404040" d="M237.884,-1024.37C189.457,-1012.14 72.5,-974.206 72.5,-893 72.5,-893 72.5,-893 72.5,-221 72.5,-130.032 184.602,-79.0502 254.609,-56.0817"/>
<polygon fill="none" stroke="#404040" points="254.867,-55.9999 259.378,-50.3741 266.306,-52.3744 261.795,-58.0002 254.867,-55.9999"/>
<text text-anchor="middle" x="85" y="-520" font-family="Helvetica,sans-Serif" font-size="10.00"> #text</text>
</g>
<!-- Node6&#45;&gt;Node7 -->
<g id="edge5" class="edge"><title>Node6&#45;&gt;Node7</title>
<path fill="none" stroke="#404040" d="M279.091,-1018.38C292.992,-1010.31 310.86,-998.042 322.5,-983 363.919,-929.474 330.291,-889.496 377.5,-841 391.951,-826.154 406.829,-838.567 420.5,-823 432.592,-809.231 443.647,-773.282 452.349,-736.578"/>
<polygon fill="none" stroke="#404040" points="452.4,-736.356 449.847,-729.612 455.09,-724.661 457.643,-731.405 452.4,-736.356"/>
<text text-anchor="middle" x="394" y="-889.5" font-family="Helvetica,sans-Serif" font-size="10.00"> #name</text>
</g>
<!-- Node10 -->
<g id="node8" class="node"><title>Node10</title>
<g id="a_node8"><a xlink:href="class_battle_manager.html" target="_top" xlink:title="Holds current Player and Enemy objects in battle and provides functions for MainBattle and other obje...">
<polygon fill="none" stroke="black" points="463.5,-127.5 463.5,-316.5 579.5,-316.5 579.5,-127.5 463.5,-127.5"/>
<text text-anchor="middle" x="521.5" y="-304.5" font-family="Helvetica,sans-Serif" font-size="10.00">BattleManager</text>
<polyline fill="none" stroke="black" points="463.5,-297.5 579.5,-297.5 "/>
<text text-anchor="start" x="471.5" y="-285.5" font-family="Helvetica,sans-Serif" font-size="10.00">+ Player</text>
<text text-anchor="start" x="471.5" y="-274.5" font-family="Helvetica,sans-Serif" font-size="10.00">+ Enemy</text>
<text text-anchor="start" x="471.5" y="-263.5" font-family="Helvetica,sans-Serif" font-size="10.00">+ WasCriticalHit</text>
<polyline fill="none" stroke="black" points="463.5,-256.5 579.5,-256.5 "/>
<text text-anchor="start" x="471.5" y="-244.5" font-family="Helvetica,sans-Serif" font-size="10.00">+ BattleManager()</text>
<text text-anchor="start" x="471.5" y="-233.5" font-family="Helvetica,sans-Serif" font-size="10.00">+ playerFirst()</text>
<text text-anchor="start" x="471.5" y="-222.5" font-family="Helvetica,sans-Serif" font-size="10.00">+ switchPlayers()</text>
<text text-anchor="start" x="471.5" y="-211.5" font-family="Helvetica,sans-Serif" font-size="10.00">+ isCriticalHit()</text>
<text text-anchor="start" x="471.5" y="-200.5" font-family="Helvetica,sans-Serif" font-size="10.00">+ ranAway()</text>
<text text-anchor="start" x="471.5" y="-189.5" font-family="Helvetica,sans-Serif" font-size="10.00">+ damageCalculation()</text>
<text text-anchor="start" x="471.5" y="-178.5" font-family="Helvetica,sans-Serif" font-size="10.00">+ enemyMove()</text>
<text text-anchor="start" x="471.5" y="-167.5" font-family="Helvetica,sans-Serif" font-size="10.00">+ enemySpecialMove()</text>
<text text-anchor="start" x="471.5" y="-156.5" font-family="Helvetica,sans-Serif" font-size="10.00">+ battleWon()</text>
<text text-anchor="start" x="471.5" y="-145.5" font-family="Helvetica,sans-Serif" font-size="10.00">+ playerFainted()</text>
<text text-anchor="start" x="471.5" y="-134.5" font-family="Helvetica,sans-Serif" font-size="10.00">&#45; characterFainted()</text>
</a>
</g>
</g>
<!-- Node6&#45;&gt;Node10 -->
<g id="edge10" class="edge"><title>Node6&#45;&gt;Node10</title>
<path fill="none" stroke="#404040" d="M255.003,-1001.39C246.44,-926.5 228.264,-713.884 273.5,-546 301.232,-443.081 320.066,-417.547 387.5,-335 406.55,-311.681 430.986,-289.599 453.762,-271.303"/>
<polygon fill="none" stroke="#404040" points="453.979,-271.133 456.213,-264.276 463.402,-263.702 461.167,-270.558 453.979,-271.133"/>
<text text-anchor="middle" x="315.5" y="-638.5" font-family="Helvetica,sans-Serif" font-size="10.00"> +forceEnemyMove</text>
<text text-anchor="middle" x="315.5" y="-627.5" font-family="Helvetica,sans-Serif" font-size="10.00">+forceCriticalHits</text>
</g>
<!-- Node14 -->
<g id="node12" class="node"><title>Node14</title>
<g id="a_node12"><a xlink:href="class_item.html" target="_top" xlink:title="Abstract class for items that can be equipped to a player, increasing some of their stats ...">
<polygon fill="none" stroke="black" points="342,-743.5 342,-822.5 419,-822.5 419,-743.5 342,-743.5"/>
<text text-anchor="middle" x="380.5" y="-810.5" font-family="Helvetica,sans-Serif" font-size="10.00">Item</text>
<polyline fill="none" stroke="black" points="342,-803.5 419,-803.5 "/>
<text text-anchor="start" x="350" y="-791.5" font-family="Helvetica,sans-Serif" font-size="10.00">+ Name</text>
<text text-anchor="start" x="350" y="-780.5" font-family="Helvetica,sans-Serif" font-size="10.00">+ Desc</text>
<polyline fill="none" stroke="black" points="342,-773.5 419,-773.5 "/>
<text text-anchor="start" x="350" y="-761.5" font-family="Helvetica,sans-Serif" font-size="10.00">+ applyBuffs()</text>
<text text-anchor="start" x="350" y="-750.5" font-family="Helvetica,sans-Serif" font-size="10.00">+ revertBuffs()</text>
</a>
</g>
</g>
<!-- Node6&#45;&gt;Node14 -->
<g id="edge19" class="edge"><title>Node6&#45;&gt;Node14</title>
<path fill="none" stroke="#404040" d="M270.339,-1001.5C286.5,-964.492 316.857,-896.869 346.5,-841 347.844,-838.466 349.249,-835.887 350.688,-833.294"/>
<polygon fill="none" stroke="#404040" points="350.813,-833.075 350.303,-825.882 356.746,-822.644 357.256,-829.837 350.813,-833.075"/>
<text text-anchor="middle" x="303.5" y="-975" font-family="Helvetica,sans-Serif" font-size="10.00"> #desc</text>
<text text-anchor="middle" x="303.5" y="-964" font-family="Helvetica,sans-Serif" font-size="10.00">#name</text>
</g>
<!-- Node7&#45;&gt;Node5 -->
<g id="edge4" class="edge"><title>Node7&#45;&gt;Node5</title>
<path fill="none" stroke="#404040" d="M447.416,-546.306C443.114,-530.553 438.674,-514.291 434.5,-499 394.053,-350.84 346.262,-175.714 323.246,-91.3741"/>
<polygon fill="none" stroke="#404040" points="323.193,-91.1799 317.755,-86.4446 320.034,-79.6032 325.473,-84.3385 323.193,-91.1799"/>
<text text-anchor="middle" x="412.5" y="-349" font-family="Helvetica,sans-Serif" font-size="10.00"> #target</text>
<text text-anchor="middle" x="412.5" y="-338" font-family="Helvetica,sans-Serif" font-size="10.00">#user</text>
</g>
<!-- Node11 -->
<g id="node9" class="node"><title>Node11</title>
<g id="a_node9"><a xlink:href="class_enemy.html" target="_top" xlink:title="Defines an AI controller enemy to fight in battle scenes">
<polygon fill="none" stroke="black" points="677,-408.5 677,-465.5 744,-465.5 744,-408.5 677,-408.5"/>
<text text-anchor="middle" x="710.5" y="-453.5" font-family="Helvetica,sans-Serif" font-size="10.00">Enemy</text>
<polyline fill="none" stroke="black" points="677,-446.5 744,-446.5 "/>
<text text-anchor="start" x="685" y="-434.5" font-family="Helvetica,sans-Serif" font-size="10.00">+ ExpGiven</text>
<polyline fill="none" stroke="black" points="677,-427.5 744,-427.5 "/>
<text text-anchor="start" x="685" y="-415.5" font-family="Helvetica,sans-Serif" font-size="10.00">+ Enemy()</text>
</a>
</g>
</g>
<!-- Node7&#45;&gt;Node11 -->
<g id="edge12" class="edge"><title>Node7&#45;&gt;Node11</title>
<path fill="none" stroke="midnightblue" d="M526.866,-588.979C573.276,-550.823 638.023,-497.589 676.944,-465.589"/>
<polygon fill="none" stroke="midnightblue" points="524.506,-586.389 519.004,-595.443 528.952,-591.796 524.506,-586.389"/>
</g>
<!-- Node13 -->
<g id="node11" class="node"><title>Node13</title>
<g id="a_node11"><a xlink:href="class_player.html" target="_top" xlink:title="Defines a playable character for use in battle scenes">
<polygon fill="none" stroke="black" points="497.5,-375.5 497.5,-498.5 609.5,-498.5 609.5,-375.5 497.5,-375.5"/>
<text text-anchor="middle" x="553.5" y="-486.5" font-family="Helvetica,sans-Serif" font-size="10.00">Player</text>
<polyline fill="none" stroke="black" points="497.5,-479.5 609.5,-479.5 "/>
<text text-anchor="start" x="505.5" y="-467.5" font-family="Helvetica,sans-Serif" font-size="10.00">+ Exp</text>
<text text-anchor="start" x="505.5" y="-456.5" font-family="Helvetica,sans-Serif" font-size="10.00">+ Item</text>
<text text-anchor="start" x="505.5" y="-445.5" font-family="Helvetica,sans-Serif" font-size="10.00">+ ExpToNextLevel</text>
<polyline fill="none" stroke="black" points="497.5,-438.5 609.5,-438.5 "/>
<text text-anchor="start" x="505.5" y="-426.5" font-family="Helvetica,sans-Serif" font-size="10.00">+ Player()</text>
<text text-anchor="start" x="505.5" y="-415.5" font-family="Helvetica,sans-Serif" font-size="10.00">+ gainExp()</text>
<text text-anchor="start" x="505.5" y="-404.5" font-family="Helvetica,sans-Serif" font-size="10.00">+ levelUp()</text>
<text text-anchor="start" x="505.5" y="-393.5" font-family="Helvetica,sans-Serif" font-size="10.00">+ Clone()</text>
<text text-anchor="start" x="505.5" y="-382.5" font-family="Helvetica,sans-Serif" font-size="10.00">&#45; setExpToNextLevel()</text>
</a>
</g>
</g>
<!-- Node7&#45;&gt;Node13 -->
<g id="edge17" class="edge"><title>Node7&#45;&gt;Node13</title>
<path fill="none" stroke="midnightblue" d="M512.256,-536.835C517.695,-523.802 523.139,-510.756 528.206,-498.613"/>
<polygon fill="none" stroke="midnightblue" points="508.924,-535.732 508.302,-546.309 515.384,-538.428 508.924,-535.732"/>
</g>
<!-- Node8 -->
<g id="node6" class="node"><title>Node8</title>
<polygon fill="none" stroke="#bfbfbf" points="606,-1001.5 606,-1058.5 635,-1058.5 635,-1001.5 606,-1001.5"/>
<text text-anchor="middle" x="620.5" y="-1046.5" font-family="Helvetica,sans-Serif" font-size="10.00">int</text>
<polyline fill="none" stroke="#bfbfbf" points="606,-1039.5 635,-1039.5 "/>
<text text-anchor="middle" x="620.5" y="-1027.5" font-family="Helvetica,sans-Serif" font-size="10.00"> </text>
<polyline fill="none" stroke="#bfbfbf" points="606,-1020.5 635,-1020.5 "/>
<text text-anchor="middle" x="620.5" y="-1008.5" font-family="Helvetica,sans-Serif" font-size="10.00"> </text>
</g>
<!-- Node8&#45;&gt;Node4 -->
<g id="edge23" class="edge"><title>Node8&#45;&gt;Node4</title>
<path fill="none" stroke="#404040" d="M605.812,-1024.61C578.668,-1016.48 518.826,-998.505 468.5,-983 390.298,-958.906 300.297,-930.586 242.244,-912.242"/>
<polygon fill="none" stroke="#404040" points="242.156,-912.215 235.23,-914.22 230.714,-908.598 237.641,-906.592 242.156,-912.215"/>
<text text-anchor="middle" x="486" y="-969.5" font-family="Helvetica,sans-Serif" font-size="10.00"> #magic</text>
</g>
<!-- Node8&#45;&gt;Node7 -->
<g id="edge6" class="edge"><title>Node8&#45;&gt;Node7</title>
<path fill="none" stroke="#404040" d="M605.969,-1019.62C585.609,-1005.61 549.114,-977.19 531.5,-943 490.336,-863.097 520.389,-830.876 501.5,-743 501.036,-740.84 500.553,-738.66 500.053,-736.464"/>
<polygon fill="none" stroke="#404040" points="500.014,-736.296 494.737,-731.382 497.244,-724.62 502.521,-729.535 500.014,-736.296"/>
<text text-anchor="middle" x="569" y="-928" font-family="Helvetica,sans-Serif" font-size="10.00"> #speed</text>
<text text-anchor="middle" x="569" y="-917" font-family="Helvetica,sans-Serif" font-size="10.00">#luck</text>
<text text-anchor="middle" x="569" y="-906" font-family="Helvetica,sans-Serif" font-size="10.00">#health</text>
<text text-anchor="middle" x="569" y="-895" font-family="Helvetica,sans-Serif" font-size="10.00">#magic</text>
<text text-anchor="middle" x="569" y="-884" font-family="Helvetica,sans-Serif" font-size="10.00">#maximumMagic</text>
<text text-anchor="middle" x="569" y="-873" font-family="Helvetica,sans-Serif" font-size="10.00">#attack</text>
<text text-anchor="middle" x="569" y="-862" font-family="Helvetica,sans-Serif" font-size="10.00">#defence</text>
<text text-anchor="middle" x="569" y="-851" font-family="Helvetica,sans-Serif" font-size="10.00">#level</text>
</g>
<!-- Node8&#45;&gt;Node10 -->
<g id="edge14" class="edge"><title>Node8&#45;&gt;Node10</title>
<path fill="none" stroke="#404040" d="M635.092,-1004.97C638.53,-998.109 641.712,-990.468 643.5,-983 660.055,-913.841 644.278,-894.112 644.5,-823 645.123,-623.555 681.101,-564.367 618.5,-375 610.893,-351.989 599.016,-328.994 586.146,-308.11"/>
<polygon fill="none" stroke="#404040" points="585.981,-307.85 579.39,-304.926 579.554,-297.716 586.146,-300.641 585.981,-307.85"/>
<text text-anchor="middle" x="674" y="-633" font-family="Helvetica,sans-Serif" font-size="10.00"> +money</text>
</g>
<!-- Node8&#45;&gt;Node11 -->
<g id="edge13" class="edge"><title>Node8&#45;&gt;Node11</title>
<path fill="none" stroke="#404040" d="M635.246,-1020.52C647.559,-1012.55 664.366,-999.416 672.5,-983 757.548,-811.354 732.054,-571.327 717.503,-477.649"/>
<polygon fill="none" stroke="#404040" points="717.483,-477.528 712.581,-472.239 715.577,-465.68 720.479,-470.968 717.483,-477.528"/>
<text text-anchor="middle" x="752.5" y="-780.5" font-family="Helvetica,sans-Serif" font-size="10.00"> &#45;expGiven</text>
</g>
<!-- Node8&#45;&gt;Node13 -->
<g id="edge20" class="edge"><title>Node8&#45;&gt;Node13</title>
<path fill="none" stroke="#404040" d="M626.39,-1001.36C633.133,-962.078 639.395,-889.479 606.5,-841 596.232,-825.868 579.518,-838.299 569.5,-823 537.034,-773.422 541.842,-608.063 547.882,-510.929"/>
<polygon fill="none" stroke="#404040" points="547.888,-510.829 544.283,-504.584 548.661,-498.854 552.266,-505.099 547.888,-510.829"/>
<text text-anchor="middle" x="607" y="-786" font-family="Helvetica,sans-Serif" font-size="10.00"> &#45;expToNextLevel</text>
<text text-anchor="middle" x="607" y="-775" font-family="Helvetica,sans-Serif" font-size="10.00">&#45;exp</text>
</g>
<!-- Node9 -->
<g id="node7" class="node"><title>Node9</title>
<polygon fill="none" stroke="#bfbfbf" points="420,-863.5 420,-920.5 481,-920.5 481,-863.5 420,-863.5"/>
<text text-anchor="middle" x="450.5" y="-908.5" font-family="Helvetica,sans-Serif" font-size="10.00">Texture2D</text>
<polyline fill="none" stroke="#bfbfbf" points="420,-901.5 481,-901.5 "/>
<text text-anchor="middle" x="450.5" y="-889.5" font-family="Helvetica,sans-Serif" font-size="10.00"> </text>
<polyline fill="none" stroke="#bfbfbf" points="420,-882.5 481,-882.5 "/>
<text text-anchor="middle" x="450.5" y="-870.5" font-family="Helvetica,sans-Serif" font-size="10.00"> </text>
</g>
<!-- Node9&#45;&gt;Node7 -->
<g id="edge8" class="edge"><title>Node9&#45;&gt;Node7</title>
<path fill="none" stroke="#404040" d="M452.787,-863.28C455.295,-832.886 459.465,-782.353 463.233,-736.693"/>
<polygon fill="none" stroke="#404040" points="463.245,-736.546 459.752,-730.238 464.232,-724.587 467.725,-730.896 463.245,-736.546"/>
<text text-anchor="middle" x="480" y="-780.5" font-family="Helvetica,sans-Serif" font-size="10.00"> #image</text>
</g>
<!-- Node10&#45;&gt;Node5 -->
<g id="edge9" class="edge"><title>Node10&#45;&gt;Node5</title>
<path fill="none" stroke="#404040" d="M463.27,-141.139C449.925,-125.745 435.053,-110.533 419.5,-98 402.778,-84.5253 382.368,-72.891 363.689,-63.711"/>
<polygon fill="none" stroke="#404040" points="363.471,-63.6076 356.335,-64.6448 352.633,-58.4565 359.769,-57.4193 363.471,-63.6076"/>
<text text-anchor="middle" x="452.5" y="-101" font-family="Helvetica,sans-Serif" font-size="10.00"> #manager</text>
</g>
<!-- Node11&#45;&gt;Node10 -->
<g id="edge11" class="edge"><title>Node11&#45;&gt;Node10</title>
<path fill="none" stroke="#404040" d="M701.298,-408.373C693.269,-386.92 680.137,-357.189 662.5,-335 642.065,-309.29 614.656,-285.82 589.44,-267.081"/>
<polygon fill="none" stroke="#404040" points="589.238,-266.935 582.033,-266.639 579.535,-259.875 586.74,-260.17 589.238,-266.935"/>
<text text-anchor="middle" x="693.5" y="-343.5" font-family="Helvetica,sans-Serif" font-size="10.00"> &#45;enemy</text>
</g>
<!-- Node12 -->
<g id="node10" class="node"><title>Node12</title>
<polygon fill="none" stroke="#bfbfbf" points="444,-408.5 444,-465.5 479,-465.5 479,-408.5 444,-408.5"/>
<text text-anchor="middle" x="461.5" y="-453.5" font-family="Helvetica,sans-Serif" font-size="10.00">bool</text>
<polyline fill="none" stroke="#bfbfbf" points="444,-446.5 479,-446.5 "/>
<text text-anchor="middle" x="461.5" y="-434.5" font-family="Helvetica,sans-Serif" font-size="10.00"> </text>
<polyline fill="none" stroke="#bfbfbf" points="444,-427.5 479,-427.5 "/>
<text text-anchor="middle" x="461.5" y="-415.5" font-family="Helvetica,sans-Serif" font-size="10.00"> </text>
</g>
<!-- Node12&#45;&gt;Node10 -->
<g id="edge15" class="edge"><title>Node12&#45;&gt;Node10</title>
<path fill="none" stroke="#404040" d="M460.674,-408.118C460.726,-387.582 462.19,-359.148 468.5,-335 469.067,-332.831 469.675,-330.653 470.321,-328.47"/>
<polygon fill="none" stroke="#404040" points="470.411,-328.193 468.453,-321.253 474.107,-316.777 476.064,-323.717 470.411,-328.193"/>
<text text-anchor="middle" x="501.5" y="-343.5" font-family="Helvetica,sans-Serif" font-size="10.00"> &#45;wasCriticalHit</text>
</g>
<!-- Node13&#45;&gt;Node10 -->
<g id="edge16" class="edge"><title>Node13&#45;&gt;Node10</title>
<path fill="none" stroke="#404040" d="M544.373,-375.248C542.194,-360.746 539.806,-344.847 537.419,-328.963"/>
<polygon fill="none" stroke="#404040" points="537.382,-328.711 532.534,-323.372 535.599,-316.844 540.446,-322.183 537.382,-328.711"/>
<text text-anchor="middle" x="558" y="-343.5" font-family="Helvetica,sans-Serif" font-size="10.00"> &#45;player</text>
</g>
<!-- Node14&#45;&gt;Node13 -->
<g id="edge18" class="edge"><title>Node14&#45;&gt;Node13</title>
<path fill="none" stroke="#404040" d="M370.628,-743.229C360.262,-693.235 350.351,-605.642 389.5,-546 414.144,-508.456 443.13,-523.555 486.947,-498.443"/>
<polygon fill="none" stroke="#404040" points="486.995,-498.413 489.939,-491.83 497.147,-492.015 494.204,-498.598 486.995,-498.413"/>
<text text-anchor="middle" x="402" y="-633" font-family="Helvetica,sans-Serif" font-size="10.00"> &#45;item</text>
</g>
<!-- Node15 -->
<g id="node13" class="node"><title>Node15</title>
<polygon fill="none" stroke="#bfbfbf" points="0,-1001.5 0,-1058.5 35,-1058.5 35,-1001.5 0,-1001.5"/>
<text text-anchor="middle" x="17.5" y="-1046.5" font-family="Helvetica,sans-Serif" font-size="10.00">float</text>
<polyline fill="none" stroke="#bfbfbf" points="0,-1039.5 35,-1039.5 "/>
<text text-anchor="middle" x="17.5" y="-1027.5" font-family="Helvetica,sans-Serif" font-size="10.00"> </text>
<polyline fill="none" stroke="#bfbfbf" points="0,-1020.5 35,-1020.5 "/>
<text text-anchor="middle" x="17.5" y="-1008.5" font-family="Helvetica,sans-Serif" font-size="10.00"> </text>
</g>
<!-- Node15&#45;&gt;Node4 -->
<g id="edge22" class="edge"><title>Node15&#45;&gt;Node4</title>
<path fill="none" stroke="#404040" d="M35.0509,-1014.45C55.9438,-997.12 91.9165,-967.289 122.98,-941.529"/>
<polygon fill="none" stroke="#404040" points="123.203,-941.344 125.268,-934.435 132.44,-933.684 130.375,-940.593 123.203,-941.344"/>
<text text-anchor="middle" x="119.5" y="-969.5" font-family="Helvetica,sans-Serif" font-size="10.00"> #special</text>
</g>
</g>
</svg>
        <g id="navigator" transform="translate(0 0)" fill="#404254">
                <rect fill="#f2f5e9" fill-opacity="0.5" stroke="#606060" stroke-width=".5" x="0" y="0" width="60" height="60"/>
                <use id="zoomplus" xlink:href="#zoomPlus" x="17" y="9" onmousedown="handleZoom(evt,'in')"/>
                <use id="zoomminus" xlink:href="#zoomMin" x="42" y="9" onmousedown="handleZoom(evt,'out')"/>
                <use id="reset" xlink:href="#resetDef" x="30" y="36" onmousedown="handleReset()"/>
                <g id="arrowUp" xlink:href="#dirArrow" transform="translate(30 24)" onmousedown="handlePan(0,-1)">
                  <use xlink:href="#rim" fill="#404040">
                        <set attributeName="fill" to="#808080" begin="arrowUp.mouseover" end="arrowUp.mouseout"/>
                  </use>
                  <path fill="none" stroke="white" stroke-width="1.5" d="M0,-3.0v7 M-2.5,-0.5L0,-3.0L2.5,-0.5"/>
                </g>
                <g id="arrowRight" xlink:href="#dirArrow" transform="rotate(90) translate(36 -43)" onmousedown="handlePan(1,0)">
                  <use xlink:href="#rim" fill="#404040">
                        <set attributeName="fill" to="#808080" begin="arrowRight.mouseover" end="arrowRight.mouseout"/>
                  </use>
                  <path fill="none" stroke="white" stroke-width="1.5" d="M0,-3.0v7 M-2.5,-0.5L0,-3.0L2.5,-0.5"/>
                </g>
                <g id="arrowDown" xlink:href="#dirArrow" transform="rotate(180) translate(-30 -48)" onmousedown="handlePan(0,1)">
                  <use xlink:href="#rim" fill="#404040">
                        <set attributeName="fill" to="#808080" begin="arrowDown.mouseover" end="arrowDown.mouseout"/>
                  </use>
                  <path fill="none" stroke="white" stroke-width="1.5" d="M0,-3.0v7 M-2.5,-0.5L0,-3.0L2.5,-0.5"/>
                </g>
                <g id="arrowLeft" xlink:href="#dirArrow" transform="rotate(270) translate(-36 17)" onmousedown="handlePan(-1,0)">
                  <use xlink:href="#rim" fill="#404040">
                        <set attributeName="fill" to="#808080" begin="arrowLeft.mouseover" end="arrowLeft.mouseout"/>
                  </use>
                  <path fill="none" stroke="white" stroke-width="1.5" d="M0,-3.0v7 M-2.5,-0.5L0,-3.0L2.5,-0.5"/>
                </g>
        </g>
        <svg viewBox="0 0 15 15" width="100%" height="30px" preserveAspectRatio="xMaxYMin meet">
         <g id="arrow_out" transform="scale(0.3 0.3)">
          <a xlink:href="class_healing_spell__coll__graph_org.svg" target="_base">
           <rect id="button" ry="5" rx="5" y="6" x="6" height="38" width="38"
                fill="#f2f5e9" fill-opacity="0.5" stroke="#606060" stroke-width="1.0"/>
           <path id="arrow"
             d="M 11.500037,31.436501 C 11.940474,20.09759 22.043105,11.32322 32.158766,21.979434 L 37.068811,17.246167 C 37.068811,17.246167 37.088388,32 37.088388,32 L 22.160133,31.978069 C 22.160133,31.978069 26.997745,27.140456 26.997745,27.140456 C 18.528582,18.264221 13.291696,25.230495 11.500037,31.436501 z"
             style="fill:#404040;"/>
          </a>
         </g>
        </svg>
</svg>
