<?xml version="1.0" encoding="UTF-8" standalone="no"?>
<!DOCTYPE svg PUBLIC "-//W3C//DTD SVG 1.1//EN"
 "http://www.w3.org/Graphics/SVG/1.1/DTD/svg11.dtd">
<!-- Generated by graphviz version 2.38.0 (20140413.2041)
 -->
<!-- Title: DisplayChosen Pages: 1 -->
<svg width="238pt" height="226pt"
 viewBox="0.00 0.00 237.50 226.00" xmlns="http://www.w3.org/2000/svg" xmlns:xlink="http://www.w3.org/1999/xlink">
<g id="graph0" class="graph" transform="scale(1 1) rotate(0) translate(4 222)">
<title>DisplayChosen</title>
<!-- Node2 -->
<g id="node1" class="node"><title>Node2</title>
<polygon fill="#bfbfbf" stroke="black" points="77.5,-0.5 77.5,-90.5 159.5,-90.5 159.5,-0.5 77.5,-0.5"/>
<text text-anchor="middle" x="118.5" y="-78.5" font-family="Helvetica,sans-Serif" font-size="10.00">DisplayChosen</text>
<polyline fill="none" stroke="black" points="77.5,-71.5 159.5,-71.5 "/>
<text text-anchor="middle" x="118.5" y="-59.5" font-family="Helvetica,sans-Serif" font-size="10.00"> </text>
<polyline fill="none" stroke="black" points="77.5,-52.5 159.5,-52.5 "/>
<text text-anchor="start" x="85.5" y="-40.5" font-family="Helvetica,sans-Serif" font-size="10.00">+ Quest1()</text>
<text text-anchor="start" x="85.5" y="-29.5" font-family="Helvetica,sans-Serif" font-size="10.00">+ Quest2()</text>
<text text-anchor="start" x="85.5" y="-18.5" font-family="Helvetica,sans-Serif" font-size="10.00">+ Quest3()</text>
<text text-anchor="start" x="85.5" y="-7.5" font-family="Helvetica,sans-Serif" font-size="10.00">&#45; Start()</text>
</g>
<!-- Node3 -->
<g id="node2" class="node"><title>Node3</title>
<g id="a_node2"><a xlink:href="class_mono_behaviour.html" target="_top" xlink:title="{MonoBehaviour\n||}">
<polygon fill="none" stroke="black" points="0,-160.5 0,-217.5 83,-217.5 83,-160.5 0,-160.5"/>
<text text-anchor="middle" x="41.5" y="-205.5" font-family="Helvetica,sans-Serif" font-size="10.00">MonoBehaviour</text>
<polyline fill="none" stroke="black" points="0,-198.5 83,-198.5 "/>
<text text-anchor="middle" x="41.5" y="-186.5" font-family="Helvetica,sans-Serif" font-size="10.00"> </text>
<polyline fill="none" stroke="black" points="0,-179.5 83,-179.5 "/>
<text text-anchor="middle" x="41.5" y="-167.5" font-family="Helvetica,sans-Serif" font-size="10.00"> </text>
</a>
</g>
</g>
<!-- Node3&#45;&gt;Node2 -->
<g id="edge1" class="edge"><title>Node3&#45;&gt;Node2</title>
<path fill="none" stroke="midnightblue" d="M61.4266,-151.382C71.5039,-132.863 83.8138,-110.241 94.418,-90.7545"/>
<polygon fill="none" stroke="midnightblue" points="58.2347,-149.925 56.5292,-160.381 64.3833,-153.271 58.2347,-149.925"/>
</g>
<!-- Node4 -->
<g id="node3" class="node"><title>Node4</title>
<polygon fill="none" stroke="#bfbfbf" points="101,-160.5 101,-217.5 136,-217.5 136,-160.5 101,-160.5"/>
<text text-anchor="middle" x="118.5" y="-205.5" font-family="Helvetica,sans-Serif" font-size="10.00">Text</text>
<polyline fill="none" stroke="#bfbfbf" points="101,-198.5 136,-198.5 "/>
<text text-anchor="middle" x="118.5" y="-186.5" font-family="Helvetica,sans-Serif" font-size="10.00"> </text>
<polyline fill="none" stroke="#bfbfbf" points="101,-179.5 136,-179.5 "/>
<text text-anchor="middle" x="118.5" y="-167.5" font-family="Helvetica,sans-Serif" font-size="10.00"> </text>
</g>
<!-- Node4&#45;&gt;Node2 -->
<g id="edge2" class="edge"><title>Node4&#45;&gt;Node2</title>
<path fill="none" stroke="#404040" d="M118.5,-160.381C118.5,-143.997 118.5,-122.622 118.5,-102.821"/>
<polygon fill="none" stroke="#404040" points="118.5,-102.755 114.5,-96.7546 118.5,-90.7545 122.5,-96.7545 118.5,-102.755"/>
<text text-anchor="middle" x="148" y="-123" font-family="Helvetica,sans-Serif" font-size="10.00"> +displayText</text>
</g>
<!-- Node5 -->
<g id="node4" class="node"><title>Node5</title>
<polygon fill="none" stroke="#bfbfbf" points="178,-160.5 178,-217.5 223,-217.5 223,-160.5 178,-160.5"/>
<text text-anchor="middle" x="200.5" y="-205.5" font-family="Helvetica,sans-Serif" font-size="10.00">Button</text>
<polyline fill="none" stroke="#bfbfbf" points="178,-198.5 223,-198.5 "/>
<text text-anchor="middle" x="200.5" y="-186.5" font-family="Helvetica,sans-Serif" font-size="10.00"> </text>
<polyline fill="none" stroke="#bfbfbf" points="178,-179.5 223,-179.5 "/>
<text text-anchor="middle" x="200.5" y="-167.5" font-family="Helvetica,sans-Serif" font-size="10.00"> </text>
</g>
<!-- Node5&#45;&gt;Node2 -->
<g id="edge3" class="edge"><title>Node5&#45;&gt;Node2</title>
<path fill="none" stroke="#404040" d="M196.271,-160.373C193.028,-144.58 187.528,-124.83 178.5,-109 175.287,-103.365 171.453,-97.8554 167.3,-92.5882"/>
<polygon fill="none" stroke="#404040" points="167.281,-92.5663 160.355,-90.5599 159.543,-83.3946 166.469,-85.401 167.281,-92.5663"/>
<text text-anchor="middle" x="210" y="-134" font-family="Helvetica,sans-Serif" font-size="10.00"> +quest1</text>
<text text-anchor="middle" x="210" y="-123" font-family="Helvetica,sans-Serif" font-size="10.00">+quest2</text>
<text text-anchor="middle" x="210" y="-112" font-family="Helvetica,sans-Serif" font-size="10.00">+quest3</text>
</g>
</g>
</svg>
