<?xml version="1.0" encoding="UTF-8" standalone="no"?>
<!DOCTYPE svg PUBLIC "-//W3C//DTD SVG 1.1//EN"
 "http://www.w3.org/Graphics/SVG/1.1/DTD/svg11.dtd">
<!-- Generated by graphviz version 2.38.0 (20140413.2041)
 -->
<!-- Title: SpecialMove Pages: 1 -->
<svg width="644pt" height="1067pt"
 viewBox="0.00 0.00 644.00 1067.00" xmlns="http://www.w3.org/2000/svg" xmlns:xlink="http://www.w3.org/1999/xlink">
<g id="graph0" class="graph" transform="scale(1 1) rotate(0) translate(4 1063)">
<title>SpecialMove</title>
<!-- Node9 -->
<g id="node1" class="node"><title>Node9</title>
<polygon fill="#bfbfbf" stroke="black" points="112,-841.5 112,-942.5 210,-942.5 210,-841.5 112,-841.5"/>
<text text-anchor="middle" x="161" y="-930.5" font-family="Helvetica,sans-Serif" font-size="10.00">SpecialMove</text>
<polyline fill="none" stroke="black" points="112,-923.5 210,-923.5 "/>
<text text-anchor="start" x="120" y="-911.5" font-family="Helvetica,sans-Serif" font-size="10.00">+ Magic</text>
<text text-anchor="start" x="120" y="-900.5" font-family="Helvetica,sans-Serif" font-size="10.00">+ Desc</text>
<text text-anchor="start" x="120" y="-889.5" font-family="Helvetica,sans-Serif" font-size="10.00">+ Special</text>
<polyline fill="none" stroke="black" points="112,-882.5 210,-882.5 "/>
<text text-anchor="start" x="120" y="-870.5" font-family="Helvetica,sans-Serif" font-size="10.00">+ setUp()</text>
<text text-anchor="start" x="120" y="-859.5" font-family="Helvetica,sans-Serif" font-size="10.00">+ decreaseMagic()</text>
<text text-anchor="start" x="120" y="-848.5" font-family="Helvetica,sans-Serif" font-size="10.00"># SpecialMove()</text>
</g>
<!-- Node12 -->
<g id="node4" class="node"><title>Node12</title>
<g id="a_node4"><a xlink:href="class_character.html" target="_top" xlink:title="Base abstract class for Enemy and Player to inherit from. Defines all shared variables, their constructor and their setters and getters ">
<polygon fill="none" stroke="black" points="264.5,-546.5 264.5,-724.5 359.5,-724.5 359.5,-546.5 264.5,-546.5"/>
<text text-anchor="middle" x="312" y="-712.5" font-family="Helvetica,sans-Serif" font-size="10.00">Character</text>
<polyline fill="none" stroke="black" points="264.5,-705.5 359.5,-705.5 "/>
<text text-anchor="start" x="272.5" y="-693.5" font-family="Helvetica,sans-Serif" font-size="10.00">+ Name</text>
<text text-anchor="start" x="272.5" y="-682.5" font-family="Helvetica,sans-Serif" font-size="10.00">+ Level</text>
<text text-anchor="start" x="272.5" y="-671.5" font-family="Helvetica,sans-Serif" font-size="10.00">+ Health</text>
<text text-anchor="start" x="272.5" y="-660.5" font-family="Helvetica,sans-Serif" font-size="10.00">+ Attack</text>
<text text-anchor="start" x="272.5" y="-649.5" font-family="Helvetica,sans-Serif" font-size="10.00">+ Defence</text>
<text text-anchor="start" x="272.5" y="-638.5" font-family="Helvetica,sans-Serif" font-size="10.00">+ MaximumMagic</text>
<text text-anchor="start" x="272.5" y="-627.5" font-family="Helvetica,sans-Serif" font-size="10.00">+ Magic</text>
<text text-anchor="start" x="272.5" y="-616.5" font-family="Helvetica,sans-Serif" font-size="10.00">+ Luck</text>
<text text-anchor="start" x="272.5" y="-605.5" font-family="Helvetica,sans-Serif" font-size="10.00">+ Speed</text>
<text text-anchor="start" x="272.5" y="-594.5" font-family="Helvetica,sans-Serif" font-size="10.00">+ Special1</text>
<text text-anchor="start" x="272.5" y="-583.5" font-family="Helvetica,sans-Serif" font-size="10.00">+ Special2</text>
<text text-anchor="start" x="272.5" y="-572.5" font-family="Helvetica,sans-Serif" font-size="10.00">+ Image</text>
<polyline fill="none" stroke="black" points="264.5,-565.5 359.5,-565.5 "/>
<text text-anchor="start" x="272.5" y="-553.5" font-family="Helvetica,sans-Serif" font-size="10.00"># Character()</text>
</a>
</g>
</g>
<!-- Node9&#45;&gt;Node12 -->
<g id="edge6" class="edge"><title>Node9&#45;&gt;Node12</title>
<path fill="none" stroke="#404040" d="M168.868,-841.222C175.617,-801.171 185.287,-750.379 192,-743 210.163,-723.035 228.196,-740.908 250,-725 251.719,-723.746 253.408,-722.429 255.065,-721.057"/>
<polygon fill="none" stroke="#404040" points="255.37,-720.777 257.085,-713.773 264.21,-712.661 262.495,-719.666 255.37,-720.777"/>
<text text-anchor="middle" x="214.5" y="-786" font-family="Helvetica,sans-Serif" font-size="10.00"> #special1</text>
<text text-anchor="middle" x="214.5" y="-775" font-family="Helvetica,sans-Serif" font-size="10.00">#special2</text>
</g>
<!-- Node10 -->
<g id="node2" class="node"><title>Node10</title>
<g id="a_node2"><a xlink:href="class_character_move.html" target="_top" xlink:title="Astract base class for character moves ">
<polygon fill="none" stroke="black" points="134,-0.5 134,-79.5 220,-79.5 220,-0.5 134,-0.5"/>
<text text-anchor="middle" x="177" y="-67.5" font-family="Helvetica,sans-Serif" font-size="10.00">CharacterMove</text>
<polyline fill="none" stroke="black" points="134,-60.5 220,-60.5 "/>
<text text-anchor="start" x="142" y="-48.5" font-family="Helvetica,sans-Serif" font-size="10.00">+ User</text>
<text text-anchor="start" x="142" y="-37.5" font-family="Helvetica,sans-Serif" font-size="10.00">+ Target</text>
<text text-anchor="start" x="142" y="-26.5" font-family="Helvetica,sans-Serif" font-size="10.00">+ Text</text>
<polyline fill="none" stroke="black" points="134,-19.5 220,-19.5 "/>
<text text-anchor="start" x="142" y="-7.5" font-family="Helvetica,sans-Serif" font-size="10.00">+ performMove()</text>
</a>
</g>
</g>
<!-- Node10&#45;&gt;Node9 -->
<g id="edge1" class="edge"><title>Node10&#45;&gt;Node9</title>
<path fill="none" stroke="midnightblue" d="M169.001,-90.1072C163.807,-126.212 158,-176.526 158,-221 158,-636.5 158,-636.5 158,-636.5 158,-707.641 159.187,-789.961 160.067,-841.26"/>
<polygon fill="none" stroke="midnightblue" points="172.517,-90.254 170.514,-79.8501 165.592,-89.2319 172.517,-90.254"/>
</g>
<!-- Node11 -->
<g id="node3" class="node"><title>Node11</title>
<polygon fill="none" stroke="#bfbfbf" points="63.5,-1001.5 63.5,-1058.5 104.5,-1058.5 104.5,-1001.5 63.5,-1001.5"/>
<text text-anchor="middle" x="84" y="-1046.5" font-family="Helvetica,sans-Serif" font-size="10.00">string</text>
<polyline fill="none" stroke="#bfbfbf" points="63.5,-1039.5 104.5,-1039.5 "/>
<text text-anchor="middle" x="84" y="-1027.5" font-family="Helvetica,sans-Serif" font-size="10.00"> </text>
<polyline fill="none" stroke="#bfbfbf" points="63.5,-1020.5 104.5,-1020.5 "/>
<text text-anchor="middle" x="84" y="-1008.5" font-family="Helvetica,sans-Serif" font-size="10.00"> </text>
</g>
<!-- Node11&#45;&gt;Node9 -->
<g id="edge20" class="edge"><title>Node11&#45;&gt;Node9</title>
<path fill="none" stroke="#404040" d="M104.667,-1002.84C109.295,-996.503 114.01,-989.639 118,-983 123.509,-973.833 128.862,-963.852 133.814,-953.982"/>
<polygon fill="none" stroke="#404040" points="133.946,-953.713 132.991,-946.565 139.222,-942.935 140.177,-950.083 133.946,-953.713"/>
<text text-anchor="middle" x="145" y="-969.5" font-family="Helvetica,sans-Serif" font-size="10.00"> #desc</text>
</g>
<!-- Node11&#45;&gt;Node10 -->
<g id="edge2" class="edge"><title>Node11&#45;&gt;Node10</title>
<path fill="none" stroke="#404040" d="M63.2359,-1010.52C38.3611,-986.24 0,-941.01 0,-893 0,-893 0,-893 0,-221 0,-150.009 70.8611,-96.7919 122.912,-67.2775"/>
<polygon fill="none" stroke="#404040" points="123.187,-67.126 126.516,-60.7291 133.701,-61.3413 130.372,-67.7382 123.187,-67.126"/>
<text text-anchor="middle" x="12.5" y="-520" font-family="Helvetica,sans-Serif" font-size="10.00"> #text</text>
</g>
<!-- Node11&#45;&gt;Node12 -->
<g id="edge4" class="edge"><title>Node11&#45;&gt;Node12</title>
<path fill="none" stroke="#404040" d="M104.964,-1021.54C135.043,-1009.72 190.006,-983.76 219,-943 225.279,-934.173 258.376,-822.516 283.313,-736.492"/>
<polygon fill="none" stroke="#404040" points="283.36,-736.331 281.186,-729.456 286.697,-724.805 288.871,-731.681 283.36,-736.331"/>
<text text-anchor="middle" x="268.5" y="-889.5" font-family="Helvetica,sans-Serif" font-size="10.00"> #name</text>
</g>
<!-- Node15 -->
<g id="node7" class="node"><title>Node15</title>
<g id="a_node7"><a xlink:href="class_battle_manager.html" target="_top" xlink:title="Holds current Player and Enemy objects in battle and provides functions for MainBattle and other obje...">
<polygon fill="none" stroke="black" points="297,-127.5 297,-316.5 413,-316.5 413,-127.5 297,-127.5"/>
<text text-anchor="middle" x="355" y="-304.5" font-family="Helvetica,sans-Serif" font-size="10.00">BattleManager</text>
<polyline fill="none" stroke="black" points="297,-297.5 413,-297.5 "/>
<text text-anchor="start" x="305" y="-285.5" font-family="Helvetica,sans-Serif" font-size="10.00">+ Player</text>
<text text-anchor="start" x="305" y="-274.5" font-family="Helvetica,sans-Serif" font-size="10.00">+ Enemy</text>
<text text-anchor="start" x="305" y="-263.5" font-family="Helvetica,sans-Serif" font-size="10.00">+ WasCriticalHit</text>
<polyline fill="none" stroke="black" points="297,-256.5 413,-256.5 "/>
<text text-anchor="start" x="305" y="-244.5" font-family="Helvetica,sans-Serif" font-size="10.00">+ BattleManager()</text>
<text text-anchor="start" x="305" y="-233.5" font-family="Helvetica,sans-Serif" font-size="10.00">+ playerFirst()</text>
<text text-anchor="start" x="305" y="-222.5" font-family="Helvetica,sans-Serif" font-size="10.00">+ switchPlayers()</text>
<text text-anchor="start" x="305" y="-211.5" font-family="Helvetica,sans-Serif" font-size="10.00">+ isCriticalHit()</text>
<text text-anchor="start" x="305" y="-200.5" font-family="Helvetica,sans-Serif" font-size="10.00">+ ranAway()</text>
<text text-anchor="start" x="305" y="-189.5" font-family="Helvetica,sans-Serif" font-size="10.00">+ damageCalculation()</text>
<text text-anchor="start" x="305" y="-178.5" font-family="Helvetica,sans-Serif" font-size="10.00">+ enemyMove()</text>
<text text-anchor="start" x="305" y="-167.5" font-family="Helvetica,sans-Serif" font-size="10.00">+ enemySpecialMove()</text>
<text text-anchor="start" x="305" y="-156.5" font-family="Helvetica,sans-Serif" font-size="10.00">+ battleWon()</text>
<text text-anchor="start" x="305" y="-145.5" font-family="Helvetica,sans-Serif" font-size="10.00">+ playerFainted()</text>
<text text-anchor="start" x="305" y="-134.5" font-family="Helvetica,sans-Serif" font-size="10.00">&#45; characterFainted()</text>
</a>
</g>
</g>
<!-- Node11&#45;&gt;Node15 -->
<g id="edge9" class="edge"><title>Node11&#45;&gt;Node15</title>
<path fill="none" stroke="#404040" d="M71.5574,-1001.5C60.475,-974.461 46,-931.734 46,-893 46,-893 46,-893 46,-436 46,-320.523 194.102,-262.848 285.24,-238.289"/>
<polygon fill="none" stroke="#404040" points="285.269,-238.282 290.063,-232.895 296.879,-235.248 292.085,-240.635 285.269,-238.282"/>
<text text-anchor="middle" x="88" y="-638.5" font-family="Helvetica,sans-Serif" font-size="10.00"> +forceEnemyMove</text>
<text text-anchor="middle" x="88" y="-627.5" font-family="Helvetica,sans-Serif" font-size="10.00">+forceCriticalHits</text>
</g>
<!-- Node19 -->
<g id="node11" class="node"><title>Node19</title>
<g id="a_node11"><a xlink:href="class_item.html" target="_top" xlink:title="Abstract class for items that can be equipped to a player, increasing some of their stats ...">
<polygon fill="none" stroke="black" points="63.5,-743.5 63.5,-822.5 140.5,-822.5 140.5,-743.5 63.5,-743.5"/>
<text text-anchor="middle" x="102" y="-810.5" font-family="Helvetica,sans-Serif" font-size="10.00">Item</text>
<polyline fill="none" stroke="black" points="63.5,-803.5 140.5,-803.5 "/>
<text text-anchor="start" x="71.5" y="-791.5" font-family="Helvetica,sans-Serif" font-size="10.00">+ Name</text>
<text text-anchor="start" x="71.5" y="-780.5" font-family="Helvetica,sans-Serif" font-size="10.00">+ Desc</text>
<polyline fill="none" stroke="black" points="63.5,-773.5 140.5,-773.5 "/>
<text text-anchor="start" x="71.5" y="-761.5" font-family="Helvetica,sans-Serif" font-size="10.00">+ applyBuffs()</text>
<text text-anchor="start" x="71.5" y="-750.5" font-family="Helvetica,sans-Serif" font-size="10.00">+ revertBuffs()</text>
</a>
</g>
</g>
<!-- Node11&#45;&gt;Node19 -->
<g id="edge18" class="edge"><title>Node11&#45;&gt;Node19</title>
<path fill="none" stroke="#404040" d="M83.3643,-1001.19C83.2466,-988.872 83.3303,-974.205 84,-961 86.1692,-918.229 91.2689,-869.866 95.4883,-834.516"/>
<polygon fill="none" stroke="#404040" points="95.4904,-834.498 92.2433,-828.059 96.9378,-822.586 100.185,-829.024 95.4904,-834.498"/>
<text text-anchor="middle" x="99" y="-975" font-family="Helvetica,sans-Serif" font-size="10.00"> #desc</text>
<text text-anchor="middle" x="99" y="-964" font-family="Helvetica,sans-Serif" font-size="10.00">#name</text>
</g>
<!-- Node12&#45;&gt;Node10 -->
<g id="edge3" class="edge"><title>Node12&#45;&gt;Node10</title>
<path fill="none" stroke="#404040" d="M264.377,-554.866C262.565,-551.871 260.768,-548.908 259,-546 246.25,-525.026 238.047,-522.189 230,-499 180.851,-357.371 175.249,-177.835 175.783,-91.6624"/>
<polygon fill="none" stroke="#404040" points="175.783,-91.6409 171.842,-85.6016 175.901,-79.6415 179.842,-85.6807 175.783,-91.6409"/>
<text text-anchor="middle" x="212" y="-349" font-family="Helvetica,sans-Serif" font-size="10.00"> #target</text>
<text text-anchor="middle" x="212" y="-338" font-family="Helvetica,sans-Serif" font-size="10.00">#user</text>
</g>
<!-- Node16 -->
<g id="node8" class="node"><title>Node16</title>
<g id="a_node8"><a xlink:href="class_enemy.html" target="_top" xlink:title="Defines an AI controller enemy to fight in battle scenes">
<polygon fill="none" stroke="black" points="438.5,-408.5 438.5,-465.5 505.5,-465.5 505.5,-408.5 438.5,-408.5"/>
<text text-anchor="middle" x="472" y="-453.5" font-family="Helvetica,sans-Serif" font-size="10.00">Enemy</text>
<polyline fill="none" stroke="black" points="438.5,-446.5 505.5,-446.5 "/>
<text text-anchor="start" x="446.5" y="-434.5" font-family="Helvetica,sans-Serif" font-size="10.00">+ ExpGiven</text>
<polyline fill="none" stroke="black" points="438.5,-427.5 505.5,-427.5 "/>
<text text-anchor="start" x="446.5" y="-415.5" font-family="Helvetica,sans-Serif" font-size="10.00">+ Enemy()</text>
</a>
</g>
</g>
<!-- Node12&#45;&gt;Node16 -->
<g id="edge11" class="edge"><title>Node12&#45;&gt;Node16</title>
<path fill="none" stroke="midnightblue" d="M365.948,-568.245C394.455,-533.235 427.916,-492.14 449.514,-465.616"/>
<polygon fill="none" stroke="midnightblue" points="363.172,-566.111 359.572,-576.076 368.6,-570.531 363.172,-566.111"/>
</g>
<!-- Node18 -->
<g id="node10" class="node"><title>Node18</title>
<g id="a_node10"><a xlink:href="class_player.html" target="_top" xlink:title="Defines a playable character for use in battle scenes">
<polygon fill="none" stroke="black" points="239,-375.5 239,-498.5 351,-498.5 351,-375.5 239,-375.5"/>
<text text-anchor="middle" x="295" y="-486.5" font-family="Helvetica,sans-Serif" font-size="10.00">Player</text>
<polyline fill="none" stroke="black" points="239,-479.5 351,-479.5 "/>
<text text-anchor="start" x="247" y="-467.5" font-family="Helvetica,sans-Serif" font-size="10.00">+ Exp</text>
<text text-anchor="start" x="247" y="-456.5" font-family="Helvetica,sans-Serif" font-size="10.00">+ Item</text>
<text text-anchor="start" x="247" y="-445.5" font-family="Helvetica,sans-Serif" font-size="10.00">+ ExpToNextLevel</text>
<polyline fill="none" stroke="black" points="239,-438.5 351,-438.5 "/>
<text text-anchor="start" x="247" y="-426.5" font-family="Helvetica,sans-Serif" font-size="10.00">+ Player()</text>
<text text-anchor="start" x="247" y="-415.5" font-family="Helvetica,sans-Serif" font-size="10.00">+ gainExp()</text>
<text text-anchor="start" x="247" y="-404.5" font-family="Helvetica,sans-Serif" font-size="10.00">+ levelUp()</text>
<text text-anchor="start" x="247" y="-393.5" font-family="Helvetica,sans-Serif" font-size="10.00">+ Clone()</text>
<text text-anchor="start" x="247" y="-382.5" font-family="Helvetica,sans-Serif" font-size="10.00">&#45; setExpToNextLevel()</text>
</a>
</g>
</g>
<!-- Node12&#45;&gt;Node18 -->
<g id="edge16" class="edge"><title>Node12&#45;&gt;Node18</title>
<path fill="none" stroke="midnightblue" d="M303.485,-536.075C302.379,-523.296 301.274,-510.52 300.244,-498.613"/>
<polygon fill="none" stroke="midnightblue" points="300.021,-536.648 304.37,-546.309 306.995,-536.044 300.021,-536.648"/>
</g>
<!-- Node13 -->
<g id="node5" class="node"><title>Node13</title>
<polygon fill="none" stroke="#bfbfbf" points="483.5,-1001.5 483.5,-1058.5 512.5,-1058.5 512.5,-1001.5 483.5,-1001.5"/>
<text text-anchor="middle" x="498" y="-1046.5" font-family="Helvetica,sans-Serif" font-size="10.00">int</text>
<polyline fill="none" stroke="#bfbfbf" points="483.5,-1039.5 512.5,-1039.5 "/>
<text text-anchor="middle" x="498" y="-1027.5" font-family="Helvetica,sans-Serif" font-size="10.00"> </text>
<polyline fill="none" stroke="#bfbfbf" points="483.5,-1020.5 512.5,-1020.5 "/>
<text text-anchor="middle" x="498" y="-1008.5" font-family="Helvetica,sans-Serif" font-size="10.00"> </text>
</g>
<!-- Node13&#45;&gt;Node9 -->
<g id="edge22" class="edge"><title>Node13&#45;&gt;Node9</title>
<path fill="none" stroke="#404040" d="M483.27,-1024.74C456.058,-1016.83 396.11,-999.189 346,-983 317.378,-973.753 310.589,-970.348 282,-961 256.346,-952.612 247.867,-955.604 224,-943 222.827,-942.381 221.654,-941.738 220.483,-941.075"/>
<polygon fill="none" stroke="#404040" points="220.253,-940.933 213.046,-941.186 210.04,-934.631 217.247,-934.378 220.253,-940.933"/>
<text text-anchor="middle" x="363.5" y="-969.5" font-family="Helvetica,sans-Serif" font-size="10.00"> #magic</text>
</g>
<!-- Node13&#45;&gt;Node12 -->
<g id="edge5" class="edge"><title>Node13&#45;&gt;Node12</title>
<path fill="none" stroke="#404040" d="M483.488,-1019.19C463.493,-1004.87 427.814,-976.298 409,-943 364.131,-863.59 393.102,-829.099 363,-743 362.213,-740.75 361.393,-738.485 360.544,-736.211"/>
<polygon fill="none" stroke="#404040" points="360.448,-735.966 354.537,-731.836 356.077,-724.791 361.988,-728.922 360.448,-735.966"/>
<text text-anchor="middle" x="446.5" y="-928" font-family="Helvetica,sans-Serif" font-size="10.00"> #speed</text>
<text text-anchor="middle" x="446.5" y="-917" font-family="Helvetica,sans-Serif" font-size="10.00">#luck</text>
<text text-anchor="middle" x="446.5" y="-906" font-family="Helvetica,sans-Serif" font-size="10.00">#health</text>
<text text-anchor="middle" x="446.5" y="-895" font-family="Helvetica,sans-Serif" font-size="10.00">#magic</text>
<text text-anchor="middle" x="446.5" y="-884" font-family="Helvetica,sans-Serif" font-size="10.00">#maximumMagic</text>
<text text-anchor="middle" x="446.5" y="-873" font-family="Helvetica,sans-Serif" font-size="10.00">#attack</text>
<text text-anchor="middle" x="446.5" y="-862" font-family="Helvetica,sans-Serif" font-size="10.00">#defence</text>
<text text-anchor="middle" x="446.5" y="-851" font-family="Helvetica,sans-Serif" font-size="10.00">#level</text>
</g>
<!-- Node13&#45;&gt;Node15 -->
<g id="edge13" class="edge"><title>Node13&#45;&gt;Node15</title>
<path fill="none" stroke="#404040" d="M512.608,-1018.9C540.146,-998.545 597,-949.656 597,-893 597,-893 597,-893 597,-436 597,-343.425 495.979,-281.56 424.475,-249.366"/>
<polygon fill="none" stroke="#404040" points="424.263,-249.273 417.162,-250.526 413.273,-244.454 420.374,-243.2 424.263,-249.273"/>
<text text-anchor="middle" x="616.5" y="-633" font-family="Helvetica,sans-Serif" font-size="10.00"> +money</text>
</g>
<!-- Node13&#45;&gt;Node16 -->
<g id="edge12" class="edge"><title>Node13&#45;&gt;Node16</title>
<path fill="none" stroke="#404040" d="M507.872,-1001.07C509.568,-995.176 511.078,-988.939 512,-983 522.907,-912.725 513.556,-894.115 514,-823 514.222,-787.445 516.431,-778.472 514,-743 507.429,-647.116 489.369,-535.461 479.201,-477.49"/>
<polygon fill="none" stroke="#404040" points="479.192,-477.44 474.206,-472.23 477.097,-465.624 482.083,-470.834 479.192,-477.44"/>
<text text-anchor="middle" x="539" y="-780.5" font-family="Helvetica,sans-Serif" font-size="10.00"> &#45;expGiven</text>
</g>
<!-- Node13&#45;&gt;Node18 -->
<g id="edge19" class="edge"><title>Node13&#45;&gt;Node18</title>
<path fill="none" stroke="#404040" d="M504.478,-1001.23C512.035,-961.454 519.392,-887.892 484,-841 470.023,-822.482 450.438,-840.319 435,-823 350.719,-728.45 419.167,-661.866 368,-546 362.485,-533.51 355.515,-520.91 348.082,-508.944"/>
<polygon fill="none" stroke="#404040" points="347.934,-508.712 341.328,-505.82 341.456,-498.611 348.062,-501.502 347.934,-508.712"/>
<text text-anchor="middle" x="472.5" y="-786" font-family="Helvetica,sans-Serif" font-size="10.00"> &#45;expToNextLevel</text>
<text text-anchor="middle" x="472.5" y="-775" font-family="Helvetica,sans-Serif" font-size="10.00">&#45;exp</text>
</g>
<!-- Node14 -->
<g id="node6" class="node"><title>Node14</title>
<polygon fill="none" stroke="#bfbfbf" points="297.5,-863.5 297.5,-920.5 358.5,-920.5 358.5,-863.5 297.5,-863.5"/>
<text text-anchor="middle" x="328" y="-908.5" font-family="Helvetica,sans-Serif" font-size="10.00">Texture2D</text>
<polyline fill="none" stroke="#bfbfbf" points="297.5,-901.5 358.5,-901.5 "/>
<text text-anchor="middle" x="328" y="-889.5" font-family="Helvetica,sans-Serif" font-size="10.00"> </text>
<polyline fill="none" stroke="#bfbfbf" points="297.5,-882.5 358.5,-882.5 "/>
<text text-anchor="middle" x="328" y="-870.5" font-family="Helvetica,sans-Serif" font-size="10.00"> </text>
</g>
<!-- Node14&#45;&gt;Node12 -->
<g id="edge7" class="edge"><title>Node14&#45;&gt;Node12</title>
<path fill="none" stroke="#404040" d="M326.257,-863.28C324.346,-832.886 321.17,-782.353 318.299,-736.693"/>
<polygon fill="none" stroke="#404040" points="318.291,-736.563 313.922,-730.826 317.538,-724.587 321.907,-730.324 318.291,-736.563"/>
<text text-anchor="middle" x="341.5" y="-780.5" font-family="Helvetica,sans-Serif" font-size="10.00"> #image</text>
</g>
<!-- Node15&#45;&gt;Node10 -->
<g id="edge8" class="edge"><title>Node15&#45;&gt;Node10</title>
<path fill="none" stroke="#404040" d="M296.716,-162.061C273.086,-138.165 246.162,-110.939 223.84,-88.3667"/>
<polygon fill="none" stroke="#404040" points="223.651,-88.1747 216.587,-86.721 215.213,-79.6421 222.276,-81.0958 223.651,-88.1747"/>
<text text-anchor="middle" x="263" y="-101" font-family="Helvetica,sans-Serif" font-size="10.00"> #manager</text>
</g>
<!-- Node16&#45;&gt;Node15 -->
<g id="edge10" class="edge"><title>Node16&#45;&gt;Node15</title>
<path fill="none" stroke="#404040" d="M467.803,-408.307C463.881,-387.356 456.815,-358.314 445,-335 438.238,-321.657 429.705,-308.419 420.602,-295.97"/>
<polygon fill="none" stroke="#404040" points="420.433,-295.745 413.625,-293.366 413.203,-286.167 420.01,-288.546 420.433,-295.745"/>
<text text-anchor="middle" x="472" y="-343.5" font-family="Helvetica,sans-Serif" font-size="10.00"> &#45;enemy</text>
</g>
<!-- Node17 -->
<g id="node9" class="node"><title>Node17</title>
<polygon fill="none" stroke="#bfbfbf" points="369.5,-408.5 369.5,-465.5 404.5,-465.5 404.5,-408.5 369.5,-408.5"/>
<text text-anchor="middle" x="387" y="-453.5" font-family="Helvetica,sans-Serif" font-size="10.00">bool</text>
<polyline fill="none" stroke="#bfbfbf" points="369.5,-446.5 404.5,-446.5 "/>
<text text-anchor="middle" x="387" y="-434.5" font-family="Helvetica,sans-Serif" font-size="10.00"> </text>
<polyline fill="none" stroke="#bfbfbf" points="369.5,-427.5 404.5,-427.5 "/>
<text text-anchor="middle" x="387" y="-415.5" font-family="Helvetica,sans-Serif" font-size="10.00"> </text>
</g>
<!-- Node17&#45;&gt;Node15 -->
<g id="edge14" class="edge"><title>Node17&#45;&gt;Node15</title>
<path fill="none" stroke="#404040" d="M382.817,-408.154C379.719,-387.539 375.288,-358.04 370.869,-328.63"/>
<polygon fill="none" stroke="#404040" points="370.83,-328.369 365.983,-323.03 369.047,-316.502 373.894,-321.841 370.83,-328.369"/>
<text text-anchor="middle" x="408" y="-343.5" font-family="Helvetica,sans-Serif" font-size="10.00"> &#45;wasCriticalHit</text>
</g>
<!-- Node18&#45;&gt;Node15 -->
<g id="edge15" class="edge"><title>Node18&#45;&gt;Node15</title>
<path fill="none" stroke="#404040" d="M312.113,-375.248C316.238,-360.604 320.765,-344.535 325.283,-328.496"/>
<polygon fill="none" stroke="#404040" points="325.311,-328.394 323.088,-321.535 328.565,-316.844 330.788,-323.704 325.311,-328.394"/>
<text text-anchor="middle" x="340.5" y="-343.5" font-family="Helvetica,sans-Serif" font-size="10.00"> &#45;player</text>
</g>
<!-- Node19&#45;&gt;Node18 -->
<g id="edge17" class="edge"><title>Node19&#45;&gt;Node18</title>
<path fill="none" stroke="#404040" d="M123.79,-743.423C127.226,-737.272 130.724,-730.969 134,-725 177.432,-645.859 185.377,-624.475 230,-546 236.819,-534.008 244.22,-521.374 251.504,-509.141"/>
<polygon fill="none" stroke="#404040" points="251.698,-508.818 251.345,-501.616 257.858,-498.52 258.21,-505.722 251.698,-508.818"/>
<text text-anchor="middle" x="242.5" y="-633" font-family="Helvetica,sans-Serif" font-size="10.00"> &#45;item</text>
</g>
<!-- Node20 -->
<g id="node12" class="node"><title>Node20</title>
<polygon fill="none" stroke="#bfbfbf" points="261.5,-1001.5 261.5,-1058.5 296.5,-1058.5 296.5,-1001.5 261.5,-1001.5"/>
<text text-anchor="middle" x="279" y="-1046.5" font-family="Helvetica,sans-Serif" font-size="10.00">float</text>
<polyline fill="none" stroke="#bfbfbf" points="261.5,-1039.5 296.5,-1039.5 "/>
<text text-anchor="middle" x="279" y="-1027.5" font-family="Helvetica,sans-Serif" font-size="10.00"> </text>
<polyline fill="none" stroke="#bfbfbf" points="261.5,-1020.5 296.5,-1020.5 "/>
<text text-anchor="middle" x="279" y="-1008.5" font-family="Helvetica,sans-Serif" font-size="10.00"> </text>
</g>
<!-- Node20&#45;&gt;Node9 -->
<g id="edge21" class="edge"><title>Node20&#45;&gt;Node9</title>
<path fill="none" stroke="#404040" d="M261.334,-1008.64C248.232,-993.539 229.664,-972.139 212.058,-951.846"/>
<polygon fill="none" stroke="#404040" points="211.923,-951.691 204.97,-949.781 204.059,-942.628 211.013,-944.538 211.923,-951.691"/>
<text text-anchor="middle" x="258" y="-969.5" font-family="Helvetica,sans-Serif" font-size="10.00"> #special</text>
</g>
</g>
</svg>
