<?xml version="1.0" encoding="UTF-8" standalone="no"?>
<!DOCTYPE svg PUBLIC "-//W3C//DTD SVG 1.1//EN"
 "http://www.w3.org/Graphics/SVG/1.1/DTD/svg11.dtd">
<!-- Generated by graphviz version 2.38.0 (20140413.2041)
 -->
<!-- Title: LowerSpeed Pages: 1 -->
<svg width="106pt" height="408pt"
 viewBox="0.00 0.00 106.00 408.00" xmlns="http://www.w3.org/2000/svg" xmlns:xlink="http://www.w3.org/1999/xlink">
<g id="graph0" class="graph" transform="scale(1 1) rotate(0) translate(4 404)">
<title>LowerSpeed</title>
<!-- Node0 -->
<g id="node1" class="node"><title>Node0</title>
<polygon fill="#bfbfbf" stroke="black" points="6,-0.5 6,-68.5 92,-68.5 92,-0.5 6,-0.5"/>
<text text-anchor="middle" x="49" y="-56.5" font-family="Helvetica,sans-Serif" font-size="10.00">LowerSpeed</text>
<polyline fill="none" stroke="black" points="6,-49.5 92,-49.5 "/>
<text text-anchor="middle" x="49" y="-37.5" font-family="Helvetica,sans-Serif" font-size="10.00"> </text>
<polyline fill="none" stroke="black" points="6,-30.5 92,-30.5 "/>
<text text-anchor="start" x="14" y="-18.5" font-family="Helvetica,sans-Serif" font-size="10.00">+ LowerSpeed()</text>
<text text-anchor="start" x="14" y="-7.5" font-family="Helvetica,sans-Serif" font-size="10.00">+ performMove()</text>
</g>
<!-- Node1 -->
<g id="node2" class="node"><title>Node1</title>
<g id="a_node2"><a xlink:href="class_special_move.html" target="_top" xlink:title="Special move abstract base class that expands upon CharacterMove, adding magic properties ...">
<polygon fill="none" stroke="black" points="0,-105.5 0,-239.5 98,-239.5 98,-105.5 0,-105.5"/>
<text text-anchor="middle" x="49" y="-227.5" font-family="Helvetica,sans-Serif" font-size="10.00">SpecialMove</text>
<polyline fill="none" stroke="black" points="0,-220.5 98,-220.5 "/>
<text text-anchor="start" x="8" y="-208.5" font-family="Helvetica,sans-Serif" font-size="10.00">+ Magic</text>
<text text-anchor="start" x="8" y="-197.5" font-family="Helvetica,sans-Serif" font-size="10.00">+ Desc</text>
<text text-anchor="start" x="8" y="-186.5" font-family="Helvetica,sans-Serif" font-size="10.00">+ Special</text>
<text text-anchor="start" x="8" y="-175.5" font-family="Helvetica,sans-Serif" font-size="10.00"># desc</text>
<text text-anchor="start" x="8" y="-164.5" font-family="Helvetica,sans-Serif" font-size="10.00"># magic</text>
<text text-anchor="start" x="8" y="-153.5" font-family="Helvetica,sans-Serif" font-size="10.00"># special</text>
<polyline fill="none" stroke="black" points="0,-146.5 98,-146.5 "/>
<text text-anchor="start" x="8" y="-134.5" font-family="Helvetica,sans-Serif" font-size="10.00">+ setUp()</text>
<text text-anchor="start" x="8" y="-123.5" font-family="Helvetica,sans-Serif" font-size="10.00">+ decreaseMagic()</text>
<text text-anchor="start" x="8" y="-112.5" font-family="Helvetica,sans-Serif" font-size="10.00"># SpecialMove()</text>
</a>
</g>
</g>
<!-- Node1&#45;&gt;Node0 -->
<g id="edge1" class="edge"><title>Node1&#45;&gt;Node0</title>
<path fill="none" stroke="midnightblue" d="M49,-95.3667C49,-86.0791 49,-76.9969 49,-68.8265"/>
<polygon fill="none" stroke="midnightblue" points="45.5001,-95.4919 49,-105.492 52.5001,-95.492 45.5001,-95.4919"/>
</g>
<!-- Node2 -->
<g id="node3" class="node"><title>Node2</title>
<g id="a_node3"><a xlink:href="class_character_move.html" target="_top" xlink:title="Astract base class for character moves ">
<polygon fill="none" stroke="black" points="6,-276.5 6,-399.5 92,-399.5 92,-276.5 6,-276.5"/>
<text text-anchor="middle" x="49" y="-387.5" font-family="Helvetica,sans-Serif" font-size="10.00">CharacterMove</text>
<polyline fill="none" stroke="black" points="6,-380.5 92,-380.5 "/>
<text text-anchor="start" x="14" y="-368.5" font-family="Helvetica,sans-Serif" font-size="10.00">+ User</text>
<text text-anchor="start" x="14" y="-357.5" font-family="Helvetica,sans-Serif" font-size="10.00">+ Target</text>
<text text-anchor="start" x="14" y="-346.5" font-family="Helvetica,sans-Serif" font-size="10.00">+ Text</text>
<text text-anchor="start" x="14" y="-335.5" font-family="Helvetica,sans-Serif" font-size="10.00"># manager</text>
<text text-anchor="start" x="14" y="-324.5" font-family="Helvetica,sans-Serif" font-size="10.00"># user</text>
<text text-anchor="start" x="14" y="-313.5" font-family="Helvetica,sans-Serif" font-size="10.00"># target</text>
<text text-anchor="start" x="14" y="-302.5" font-family="Helvetica,sans-Serif" font-size="10.00"># text</text>
<polyline fill="none" stroke="black" points="6,-295.5 92,-295.5 "/>
<text text-anchor="start" x="14" y="-283.5" font-family="Helvetica,sans-Serif" font-size="10.00">+ performMove()</text>
</a>
</g>
</g>
<!-- Node2&#45;&gt;Node1 -->
<g id="edge2" class="edge"><title>Node2&#45;&gt;Node1</title>
<path fill="none" stroke="midnightblue" d="M49,-265.958C49,-257.217 49,-248.309 49,-239.645"/>
<polygon fill="none" stroke="midnightblue" points="45.5001,-266.119 49,-276.119 52.5001,-266.119 45.5001,-266.119"/>
</g>
</g>
</svg>
