<?xml version="1.0" encoding="UTF-8" standalone="no"?>
<!DOCTYPE svg PUBLIC "-//W3C//DTD SVG 1.1//EN"
 "http://www.w3.org/Graphics/SVG/1.1/DTD/svg11.dtd">
<!-- Generated by graphviz version 2.38.0 (20140413.2041)
 -->
<!-- Title: MenuScript Pages: 1 -->
<svg width="91pt" height="303pt"
 viewBox="0.00 0.00 91.00 303.00" xmlns="http://www.w3.org/2000/svg" xmlns:xlink="http://www.w3.org/1999/xlink">
<g id="graph0" class="graph" transform="scale(1 1) rotate(0) translate(4 299)">
<title>MenuScript</title>
<!-- Node0 -->
<g id="node1" class="node"><title>Node0</title>
<polygon fill="#bfbfbf" stroke="black" points="1.5,-0.5 1.5,-200.5 81.5,-200.5 81.5,-0.5 1.5,-0.5"/>
<text text-anchor="middle" x="41.5" y="-188.5" font-family="Helvetica,sans-Serif" font-size="10.00">MenuScript</text>
<polyline fill="none" stroke="black" points="1.5,-181.5 81.5,-181.5 "/>
<text text-anchor="start" x="9.5" y="-169.5" font-family="Helvetica,sans-Serif" font-size="10.00">+ quitMenu</text>
<text text-anchor="start" x="9.5" y="-158.5" font-family="Helvetica,sans-Serif" font-size="10.00">+ exitText</text>
<text text-anchor="start" x="9.5" y="-147.5" font-family="Helvetica,sans-Serif" font-size="10.00">+ startText</text>
<text text-anchor="start" x="9.5" y="-136.5" font-family="Helvetica,sans-Serif" font-size="10.00">&#45; player</text>
<text text-anchor="start" x="9.5" y="-125.5" font-family="Helvetica,sans-Serif" font-size="10.00">&#45; audioText</text>
<text text-anchor="start" x="9.5" y="-114.5" font-family="Helvetica,sans-Serif" font-size="10.00">&#45; autosaveText</text>
<text text-anchor="start" x="9.5" y="-103.5" font-family="Helvetica,sans-Serif" font-size="10.00">&#45; soundOn</text>
<polyline fill="none" stroke="black" points="1.5,-96.5 81.5,-96.5 "/>
<text text-anchor="start" x="9.5" y="-84.5" font-family="Helvetica,sans-Serif" font-size="10.00">+ ExitPress()</text>
<text text-anchor="start" x="9.5" y="-73.5" font-family="Helvetica,sans-Serif" font-size="10.00">+ NoPress()</text>
<text text-anchor="start" x="9.5" y="-62.5" font-family="Helvetica,sans-Serif" font-size="10.00">+ StartLevel()</text>
<text text-anchor="start" x="9.5" y="-51.5" font-family="Helvetica,sans-Serif" font-size="10.00">+ LoadPress()</text>
<text text-anchor="start" x="9.5" y="-40.5" font-family="Helvetica,sans-Serif" font-size="10.00">+ ExitGame()</text>
<text text-anchor="start" x="9.5" y="-29.5" font-family="Helvetica,sans-Serif" font-size="10.00">+ sound()</text>
<text text-anchor="start" x="9.5" y="-18.5" font-family="Helvetica,sans-Serif" font-size="10.00">+ autosave()</text>
<text text-anchor="start" x="9.5" y="-7.5" font-family="Helvetica,sans-Serif" font-size="10.00">&#45; Start()</text>
</g>
<!-- Node1 -->
<g id="node2" class="node"><title>Node1</title>
<g id="a_node2"><a xlink:href="class_mono_behaviour.html" target="_top" xlink:title="{MonoBehaviour\n||}">
<polygon fill="none" stroke="black" points="0,-237.5 0,-294.5 83,-294.5 83,-237.5 0,-237.5"/>
<text text-anchor="middle" x="41.5" y="-282.5" font-family="Helvetica,sans-Serif" font-size="10.00">MonoBehaviour</text>
<polyline fill="none" stroke="black" points="0,-275.5 83,-275.5 "/>
<text text-anchor="middle" x="41.5" y="-263.5" font-family="Helvetica,sans-Serif" font-size="10.00"> </text>
<polyline fill="none" stroke="black" points="0,-256.5 83,-256.5 "/>
<text text-anchor="middle" x="41.5" y="-244.5" font-family="Helvetica,sans-Serif" font-size="10.00"> </text>
</a>
</g>
</g>
<!-- Node1&#45;&gt;Node0 -->
<g id="edge1" class="edge"><title>Node1&#45;&gt;Node0</title>
<path fill="none" stroke="midnightblue" d="M41.5,-227.04C41.5,-218.867 41.5,-209.865 41.5,-200.549"/>
<polygon fill="none" stroke="midnightblue" points="38.0001,-227.264 41.5,-237.264 45.0001,-227.264 38.0001,-227.264"/>
</g>
</g>
</svg>
