<?xml version="1.0" encoding="UTF-8" standalone="no"?>
<!DOCTYPE svg PUBLIC "-//W3C//DTD SVG 1.1//EN"
 "http://www.w3.org/Graphics/SVG/1.1/DTD/svg11.dtd">
<!-- Generated by graphviz version 2.38.0 (20140413.2041)
 -->
<!-- Title: Player Pages: 1 -->
<!--zoomable 1297 -->
<svg id="main" version="1.1" xmlns="http://www.w3.org/2000/svg" xmlns:xlink="http://www.w3.org/1999/xlink" xml:space="preserve" onload="init(evt)">
<style type="text/css"><![CDATA[
.edge:hover path { stroke: red; }
.edge:hover polygon { stroke: red; fill: red; }
]]></style>
<script type="text/javascript"><![CDATA[
var edges = document.getElementsByTagName('g');
if (edges && edges.length) {
  for (var i=0;i<edges.length;i++) {
    if (edges[i].id.substr(0,4)=='edge') {
      edges[i].setAttribute('class','edge');
    }
  }
}
]]></script>
        <defs>
                <circle id="rim" cx="0" cy="0" r="7"/>
                <circle id="rim2" cx="0" cy="0" r="3.5"/>
                <g id="zoomPlus">
                        <use xlink:href="#rim" fill="#404040">
                                <set attributeName="fill" to="#808080" begin="zoomplus.mouseover" end="zoomplus.mouseout"/>
                        </use>
                        <path d="M-4,0h8M0,-4v8" fill="none" stroke="white" stroke-width="1.5" pointer-events="none"/>
                </g>
                <g id="zoomMin">
                        <use xlink:href="#rim" fill="#404040">
                                <set attributeName="fill" to="#808080" begin="zoomminus.mouseover" end="zoomminus.mouseout"/>
                        </use>
                        <path d="M-4,0h8" fill="none" stroke="white" stroke-width="1.5" pointer-events="none"/>
                </g>
                <g id="dirArrow">
                        <path fill="none" stroke="white" stroke-width="1.5" d="M0,-3.0v7 M-2.5,-0.5L0,-3.0L2.5,-0.5"/>
                </g>
               <g id="resetDef">
                       <use xlink:href="#rim2" fill="#404040">
                               <set attributeName="fill" to="#808080" begin="reset.mouseover" end="reset.mouseout"/>
                       </use>
               </g>
        </defs>

<script type="text/javascript">
var viewWidth = 588;
var viewHeight = 1297;
var sectionId = 'dynsection-1';
</script>
<script xlink:href="svgpan.js"/>
<svg id="graph" class="graph">
<g id="viewport">
<title>Player</title>
<!-- Node2 -->
<g id="node1" class="node"><title>Node2</title>
<polygon fill="#bfbfbf" stroke="black" points="245.148,-922.5 245.148,-1034.5 357.148,-1034.5 357.148,-922.5 245.148,-922.5"/>
<text text-anchor="middle" x="301.148" y="-1022.5" font-family="Helvetica,sans-Serif" font-size="10.00">Player</text>
<polyline fill="none" stroke="black" points="245.148,-1015.5 357.148,-1015.5 "/>
<text text-anchor="start" x="253.148" y="-1003.5" font-family="Helvetica,sans-Serif" font-size="10.00">+ Exp</text>
<text text-anchor="start" x="253.148" y="-992.5" font-family="Helvetica,sans-Serif" font-size="10.00">+ Item</text>
<text text-anchor="start" x="253.148" y="-981.5" font-family="Helvetica,sans-Serif" font-size="10.00">+ ExpToNextLevel</text>
<polyline fill="none" stroke="black" points="245.148,-974.5 357.148,-974.5 "/>
<text text-anchor="start" x="253.148" y="-962.5" font-family="Helvetica,sans-Serif" font-size="10.00">+ Player()</text>
<text text-anchor="start" x="253.148" y="-951.5" font-family="Helvetica,sans-Serif" font-size="10.00">+ gainExp()</text>
<text text-anchor="start" x="253.148" y="-940.5" font-family="Helvetica,sans-Serif" font-size="10.00">+ levelUp()</text>
<text text-anchor="start" x="253.148" y="-929.5" font-family="Helvetica,sans-Serif" font-size="10.00">&#45; setExpToNextLevel()</text>
</g>
<!-- Node8 -->
<g id="node7" class="node"><title>Node8</title>
<g id="a_node7"><a xlink:href="class_battle_manager.html" target="_top" xlink:title="Holds current Player and Enemy objects in battle and provides functions for MainBattle and other obje...">
<polygon fill="none" stroke="black" points="123.148,-685.5 123.148,-874.5 239.148,-874.5 239.148,-685.5 123.148,-685.5"/>
<text text-anchor="middle" x="181.148" y="-862.5" font-family="Helvetica,sans-Serif" font-size="10.00">BattleManager</text>
<polyline fill="none" stroke="black" points="123.148,-855.5 239.148,-855.5 "/>
<text text-anchor="start" x="131.148" y="-843.5" font-family="Helvetica,sans-Serif" font-size="10.00">+ Player</text>
<text text-anchor="start" x="131.148" y="-832.5" font-family="Helvetica,sans-Serif" font-size="10.00">+ Enemy</text>
<text text-anchor="start" x="131.148" y="-821.5" font-family="Helvetica,sans-Serif" font-size="10.00">+ WasCriticalHit</text>
<polyline fill="none" stroke="black" points="123.148,-814.5 239.148,-814.5 "/>
<text text-anchor="start" x="131.148" y="-802.5" font-family="Helvetica,sans-Serif" font-size="10.00">+ BattleManager()</text>
<text text-anchor="start" x="131.148" y="-791.5" font-family="Helvetica,sans-Serif" font-size="10.00">+ playerFirst()</text>
<text text-anchor="start" x="131.148" y="-780.5" font-family="Helvetica,sans-Serif" font-size="10.00">+ switchPlayers()</text>
<text text-anchor="start" x="131.148" y="-769.5" font-family="Helvetica,sans-Serif" font-size="10.00">+ isCriticalHit()</text>
<text text-anchor="start" x="131.148" y="-758.5" font-family="Helvetica,sans-Serif" font-size="10.00">+ ranAway()</text>
<text text-anchor="start" x="131.148" y="-747.5" font-family="Helvetica,sans-Serif" font-size="10.00">+ damageCalculation()</text>
<text text-anchor="start" x="131.148" y="-736.5" font-family="Helvetica,sans-Serif" font-size="10.00">+ enemyMove()</text>
<text text-anchor="start" x="131.148" y="-725.5" font-family="Helvetica,sans-Serif" font-size="10.00">+ enemySpecialMove()</text>
<text text-anchor="start" x="131.148" y="-714.5" font-family="Helvetica,sans-Serif" font-size="10.00">+ battleWon()</text>
<text text-anchor="start" x="131.148" y="-703.5" font-family="Helvetica,sans-Serif" font-size="10.00">+ playerFainted()</text>
<text text-anchor="start" x="131.148" y="-692.5" font-family="Helvetica,sans-Serif" font-size="10.00">&#45; characterFainted()</text>
</a>
</g>
</g>
<!-- Node2&#45;&gt;Node8 -->
<g id="edge15" class="edge"><title>Node2&#45;&gt;Node8</title>
<path fill="none" stroke="#404040" d="M245.026,-930.195C237.329,-922.01 230.055,-913.165 224.148,-904 220.38,-898.153 216.897,-891.936 213.684,-885.522"/>
<polygon fill="none" stroke="#404040" points="213.641,-885.431 207.467,-881.705 208.531,-874.573 214.705,-878.298 213.641,-885.431"/>
<text text-anchor="middle" x="240.648" y="-896" font-family="Helvetica,sans-Serif" font-size="10.00"> &#45;player</text>
</g>
<!-- Node3 -->
<g id="node2" class="node"><title>Node3</title>
<g id="a_node2"><a xlink:href="class_character.html" target="_top" xlink:title="Base abstract class for Enemy and Player to inherit from. Defines all shared variables, their constructor and their setters and getters ">
<polygon fill="none" stroke="black" points="241.648,-95.5 241.648,-273.5 336.648,-273.5 336.648,-95.5 241.648,-95.5"/>
<text text-anchor="middle" x="289.148" y="-261.5" font-family="Helvetica,sans-Serif" font-size="10.00">Character</text>
<polyline fill="none" stroke="black" points="241.648,-254.5 336.648,-254.5 "/>
<text text-anchor="start" x="249.648" y="-242.5" font-family="Helvetica,sans-Serif" font-size="10.00">+ Name</text>
<text text-anchor="start" x="249.648" y="-231.5" font-family="Helvetica,sans-Serif" font-size="10.00">+ Level</text>
<text text-anchor="start" x="249.648" y="-220.5" font-family="Helvetica,sans-Serif" font-size="10.00">+ Health</text>
<text text-anchor="start" x="249.648" y="-209.5" font-family="Helvetica,sans-Serif" font-size="10.00">+ Attack</text>
<text text-anchor="start" x="249.648" y="-198.5" font-family="Helvetica,sans-Serif" font-size="10.00">+ Defence</text>
<text text-anchor="start" x="249.648" y="-187.5" font-family="Helvetica,sans-Serif" font-size="10.00">+ MaximumMagic</text>
<text text-anchor="start" x="249.648" y="-176.5" font-family="Helvetica,sans-Serif" font-size="10.00">+ Magic</text>
<text text-anchor="start" x="249.648" y="-165.5" font-family="Helvetica,sans-Serif" font-size="10.00">+ Luck</text>
<text text-anchor="start" x="249.648" y="-154.5" font-family="Helvetica,sans-Serif" font-size="10.00">+ Speed</text>
<text text-anchor="start" x="249.648" y="-143.5" font-family="Helvetica,sans-Serif" font-size="10.00">+ Special1</text>
<text text-anchor="start" x="249.648" y="-132.5" font-family="Helvetica,sans-Serif" font-size="10.00">+ Special2</text>
<text text-anchor="start" x="249.648" y="-121.5" font-family="Helvetica,sans-Serif" font-size="10.00">+ Image</text>
<polyline fill="none" stroke="black" points="241.648,-114.5 336.648,-114.5 "/>
<text text-anchor="start" x="249.648" y="-102.5" font-family="Helvetica,sans-Serif" font-size="10.00"># Character()</text>
</a>
</g>
</g>
<!-- Node3&#45;&gt;Node2 -->
<g id="edge1" class="edge"><title>Node3&#45;&gt;Node2</title>
<path fill="none" stroke="midnightblue" d="M277.909,-283.764C271.908,-341.183 265.153,-415.097 262.148,-481 254.824,-641.655 278.731,-830.957 292.352,-922.47"/>
<polygon fill="none" stroke="midnightblue" points="281.412,-283.917 278.981,-273.605 274.451,-283.183 281.412,-283.917"/>
</g>
<!-- Node7 -->
<g id="node6" class="node"><title>Node7</title>
<g id="a_node6"><a xlink:href="class_character_move.html" target="_top" xlink:title="Astract base class for character moves ">
<polygon fill="none" stroke="black" points="271.148,-481.5 271.148,-560.5 357.148,-560.5 357.148,-481.5 271.148,-481.5"/>
<text text-anchor="middle" x="314.148" y="-548.5" font-family="Helvetica,sans-Serif" font-size="10.00">CharacterMove</text>
<polyline fill="none" stroke="black" points="271.148,-541.5 357.148,-541.5 "/>
<text text-anchor="start" x="279.148" y="-529.5" font-family="Helvetica,sans-Serif" font-size="10.00">+ User</text>
<text text-anchor="start" x="279.148" y="-518.5" font-family="Helvetica,sans-Serif" font-size="10.00">+ Target</text>
<text text-anchor="start" x="279.148" y="-507.5" font-family="Helvetica,sans-Serif" font-size="10.00">+ Text</text>
<polyline fill="none" stroke="black" points="271.148,-500.5 357.148,-500.5 "/>
<text text-anchor="start" x="279.148" y="-488.5" font-family="Helvetica,sans-Serif" font-size="10.00">+ performMove()</text>
</a>
</g>
</g>
<!-- Node3&#45;&gt;Node7 -->
<g id="edge7" class="edge"><title>Node3&#45;&gt;Node7</title>
<path fill="none" stroke="#404040" d="M289.179,-273.711C289.991,-321.31 292.291,-381.007 298.148,-434 299.41,-445.418 301.323,-457.596 303.392,-469.089"/>
<polygon fill="none" stroke="#404040" points="303.456,-469.43 308.497,-474.587 305.676,-481.223 300.635,-476.066 303.456,-469.43"/>
<text text-anchor="middle" x="315.148" y="-386" font-family="Helvetica,sans-Serif" font-size="10.00"> #target</text>
<text text-anchor="middle" x="315.148" y="-375" font-family="Helvetica,sans-Serif" font-size="10.00">#user</text>
</g>
<!-- Node9 -->
<g id="node8" class="node"><title>Node9</title>
<g id="a_node8"><a xlink:href="class_enemy.html" target="_top" xlink:title="Defines an AI controller enemy to fight in battle scenes">
<polygon fill="none" stroke="black" points="143.648,-0.5 143.648,-57.5 210.648,-57.5 210.648,-0.5 143.648,-0.5"/>
<text text-anchor="middle" x="177.148" y="-45.5" font-family="Helvetica,sans-Serif" font-size="10.00">Enemy</text>
<polyline fill="none" stroke="black" points="143.648,-38.5 210.648,-38.5 "/>
<text text-anchor="start" x="151.648" y="-26.5" font-family="Helvetica,sans-Serif" font-size="10.00">+ ExpGiven</text>
<polyline fill="none" stroke="black" points="143.648,-19.5 210.648,-19.5 "/>
<text text-anchor="start" x="151.648" y="-7.5" font-family="Helvetica,sans-Serif" font-size="10.00">+ Enemy()</text>
</a>
</g>
</g>
<!-- Node3&#45;&gt;Node9 -->
<g id="edge11" class="edge"><title>Node3&#45;&gt;Node9</title>
<path fill="none" stroke="midnightblue" d="M235.315,-109.72C221.729,-91.0994 207.972,-72.2453 197.25,-57.5507"/>
<polygon fill="none" stroke="midnightblue" points="232.604,-111.942 241.325,-117.957 238.258,-107.816 232.604,-111.942"/>
</g>
<!-- Node4 -->
<g id="node3" class="node"><title>Node4</title>
<polygon fill="none" stroke="#bfbfbf" points="427.648,-1231.5 427.648,-1288.5 468.648,-1288.5 468.648,-1231.5 427.648,-1231.5"/>
<text text-anchor="middle" x="448.148" y="-1276.5" font-family="Helvetica,sans-Serif" font-size="10.00">string</text>
<polyline fill="none" stroke="#bfbfbf" points="427.648,-1269.5 468.648,-1269.5 "/>
<text text-anchor="middle" x="448.148" y="-1257.5" font-family="Helvetica,sans-Serif" font-size="10.00"> </text>
<polyline fill="none" stroke="#bfbfbf" points="427.648,-1250.5 468.648,-1250.5 "/>
<text text-anchor="middle" x="448.148" y="-1238.5" font-family="Helvetica,sans-Serif" font-size="10.00"> </text>
</g>
<!-- Node4&#45;&gt;Node3 -->
<g id="edge2" class="edge"><title>Node4&#45;&gt;Node3</title>
<path fill="none" stroke="#404040" d="M468.661,-1246C497.659,-1225.85 547.148,-1184.11 547.148,-1134 547.148,-1134 547.148,-1134 547.148,-382 547.148,-282.727 424.763,-226.988 348.575,-201.908"/>
<polygon fill="none" stroke="#404040" points="348.203,-201.789 341.271,-203.777 336.77,-198.144 343.702,-196.155 348.203,-201.789"/>
<text text-anchor="middle" x="563.648" y="-777.5" font-family="Helvetica,sans-Serif" font-size="10.00"> #name</text>
</g>
<!-- Node6 -->
<g id="node5" class="node"><title>Node6</title>
<g id="a_node5"><a xlink:href="class_special_move.html" target="_top" xlink:title="Special move abstract base class that expands upon CharacterMove, adding magic properties ...">
<polygon fill="none" stroke="black" points="341.148,-332.5 341.148,-433.5 439.148,-433.5 439.148,-332.5 341.148,-332.5"/>
<text text-anchor="middle" x="390.148" y="-421.5" font-family="Helvetica,sans-Serif" font-size="10.00">SpecialMove</text>
<polyline fill="none" stroke="black" points="341.148,-414.5 439.148,-414.5 "/>
<text text-anchor="start" x="349.148" y="-402.5" font-family="Helvetica,sans-Serif" font-size="10.00">+ Magic</text>
<text text-anchor="start" x="349.148" y="-391.5" font-family="Helvetica,sans-Serif" font-size="10.00">+ Desc</text>
<text text-anchor="start" x="349.148" y="-380.5" font-family="Helvetica,sans-Serif" font-size="10.00">+ Special</text>
<polyline fill="none" stroke="black" points="341.148,-373.5 439.148,-373.5 "/>
<text text-anchor="start" x="349.148" y="-361.5" font-family="Helvetica,sans-Serif" font-size="10.00">+ setUp()</text>
<text text-anchor="start" x="349.148" y="-350.5" font-family="Helvetica,sans-Serif" font-size="10.00">+ decreaseMagic()</text>
<text text-anchor="start" x="349.148" y="-339.5" font-family="Helvetica,sans-Serif" font-size="10.00"># SpecialMove()</text>
</a>
</g>
</g>
<!-- Node4&#45;&gt;Node6 -->
<g id="edge16" class="edge"><title>Node4&#45;&gt;Node6</title>
<path fill="none" stroke="#404040" d="M467.583,-1231.13C482.709,-1206.69 501.148,-1169.59 501.148,-1134 501.148,-1134 501.148,-1134 501.148,-520 501.148,-500.942 474.657,-468.048 447.558,-439.384"/>
<polygon fill="none" stroke="#404040" points="447.473,-439.295 440.432,-437.741 439.158,-430.644 446.199,-432.197 447.473,-439.295"/>
<text text-anchor="middle" x="516.148" y="-896" font-family="Helvetica,sans-Serif" font-size="10.00"> #desc</text>
</g>
<!-- Node4&#45;&gt;Node7 -->
<g id="edge6" class="edge"><title>Node4&#45;&gt;Node7</title>
<path fill="none" stroke="#404040" d="M448.148,-1231.2C448.148,-1205.87 448.148,-1167.42 448.148,-1134 448.148,-1134 448.148,-1134 448.148,-779 448.148,-698.804 396.213,-618.854 357.007,-569.925"/>
<polygon fill="none" stroke="#404040" points="356.949,-569.854 350.055,-567.74 349.355,-560.562 356.249,-562.677 356.949,-569.854"/>
<text text-anchor="middle" x="460.648" y="-976" font-family="Helvetica,sans-Serif" font-size="10.00"> #text</text>
</g>
<!-- Node4&#45;&gt;Node8 -->
<g id="edge9" class="edge"><title>Node4&#45;&gt;Node8</title>
<path fill="none" stroke="#404040" d="M427.461,-1258.05C354.993,-1253.44 113.002,-1226.75 39.1482,-1075 0.571573,-995.737 61.2682,-904.279 114.86,-844.693"/>
<polygon fill="none" stroke="#404040" points="114.93,-844.617 116.039,-837.491 123.043,-835.775 121.934,-842.9 114.93,-844.617"/>
<text text-anchor="middle" x="81.1482" y="-1067" font-family="Helvetica,sans-Serif" font-size="10.00"> +forceEnemyMove</text>
<text text-anchor="middle" x="81.1482" y="-1056" font-family="Helvetica,sans-Serif" font-size="10.00">+forceCriticalHits</text>
</g>
<!-- Node13 -->
<g id="node12" class="node"><title>Node13</title>
<g id="a_node12"><a xlink:href="class_item.html" target="_top" xlink:title="Abstract class for items that can be equipped to a player, increasing some of their stats ...">
<polygon fill="none" stroke="black" points="321.648,-1093.5 321.648,-1172.5 398.648,-1172.5 398.648,-1093.5 321.648,-1093.5"/>
<text text-anchor="middle" x="360.148" y="-1160.5" font-family="Helvetica,sans-Serif" font-size="10.00">Item</text>
<polyline fill="none" stroke="black" points="321.648,-1153.5 398.648,-1153.5 "/>
<text text-anchor="start" x="329.648" y="-1141.5" font-family="Helvetica,sans-Serif" font-size="10.00">+ Name</text>
<text text-anchor="start" x="329.648" y="-1130.5" font-family="Helvetica,sans-Serif" font-size="10.00">+ Desc</text>
<polyline fill="none" stroke="black" points="321.648,-1123.5 398.648,-1123.5 "/>
<text text-anchor="start" x="329.648" y="-1111.5" font-family="Helvetica,sans-Serif" font-size="10.00">+ applyBuffs()</text>
<text text-anchor="start" x="329.648" y="-1100.5" font-family="Helvetica,sans-Serif" font-size="10.00">+ revertBuffs()</text>
</a>
</g>
</g>
<!-- Node4&#45;&gt;Node13 -->
<g id="edge21" class="edge"><title>Node4&#45;&gt;Node13</title>
<path fill="none" stroke="#404040" d="M427.25,-1239.39C419.513,-1231.57 410.972,-1222.25 404.148,-1213 397.372,-1203.82 390.895,-1193.48 385.095,-1183.38"/>
<polygon fill="none" stroke="#404040" points="384.922,-1183.07 378.509,-1179.77 379.085,-1172.58 385.498,-1175.88 384.922,-1183.07"/>
<text text-anchor="middle" x="419.148" y="-1205" font-family="Helvetica,sans-Serif" font-size="10.00"> #desc</text>
<text text-anchor="middle" x="419.148" y="-1194" font-family="Helvetica,sans-Serif" font-size="10.00">#name</text>
</g>
<!-- Node5 -->
<g id="node4" class="node"><title>Node5</title>
<polygon fill="none" stroke="#bfbfbf" points="173.648,-1104.5 173.648,-1161.5 202.648,-1161.5 202.648,-1104.5 173.648,-1104.5"/>
<text text-anchor="middle" x="188.148" y="-1149.5" font-family="Helvetica,sans-Serif" font-size="10.00">int</text>
<polyline fill="none" stroke="#bfbfbf" points="173.648,-1142.5 202.648,-1142.5 "/>
<text text-anchor="middle" x="188.148" y="-1130.5" font-family="Helvetica,sans-Serif" font-size="10.00"> </text>
<polyline fill="none" stroke="#bfbfbf" points="173.648,-1123.5 202.648,-1123.5 "/>
<text text-anchor="middle" x="188.148" y="-1111.5" font-family="Helvetica,sans-Serif" font-size="10.00"> </text>
</g>
<!-- Node5&#45;&gt;Node2 -->
<g id="edge22" class="edge"><title>Node5&#45;&gt;Node2</title>
<path fill="none" stroke="#404040" d="M202.69,-1112.38C215.477,-1095.12 234.834,-1069 253.01,-1044.47"/>
<polygon fill="none" stroke="#404040" points="253.023,-1044.45 253.381,-1037.25 260.167,-1034.81 259.809,-1042.01 253.023,-1044.45"/>
<text text-anchor="middle" x="282.648" y="-1067" font-family="Helvetica,sans-Serif" font-size="10.00"> &#45;expToNextLevel</text>
<text text-anchor="middle" x="282.648" y="-1056" font-family="Helvetica,sans-Serif" font-size="10.00">&#45;exp</text>
</g>
<!-- Node5&#45;&gt;Node3 -->
<g id="edge3" class="edge"><title>Node5&#45;&gt;Node3</title>
<path fill="none" stroke="#404040" d="M173.443,-1110.67C161.195,-1093.82 142.659,-1070.35 123.148,-1053 112.093,-1043.17 103.124,-1047.46 95.1482,-1035 62.3639,-983.783 76.1482,-960.311 76.1482,-899.5 76.1482,-899.5 76.1482,-899.5 76.1482,-382 76.1482,-297.636 167.533,-239.485 230.587,-209.402"/>
<polygon fill="none" stroke="#404040" points="230.726,-209.338 234.486,-203.184 241.612,-204.288 237.852,-210.441 230.726,-209.338"/>
<text text-anchor="middle" x="113.648" y="-659" font-family="Helvetica,sans-Serif" font-size="10.00"> #speed</text>
<text text-anchor="middle" x="113.648" y="-648" font-family="Helvetica,sans-Serif" font-size="10.00">#luck</text>
<text text-anchor="middle" x="113.648" y="-637" font-family="Helvetica,sans-Serif" font-size="10.00">#health</text>
<text text-anchor="middle" x="113.648" y="-626" font-family="Helvetica,sans-Serif" font-size="10.00">#magic</text>
<text text-anchor="middle" x="113.648" y="-615" font-family="Helvetica,sans-Serif" font-size="10.00">#maximumMagic</text>
<text text-anchor="middle" x="113.648" y="-604" font-family="Helvetica,sans-Serif" font-size="10.00">#attack</text>
<text text-anchor="middle" x="113.648" y="-593" font-family="Helvetica,sans-Serif" font-size="10.00">#defence</text>
<text text-anchor="middle" x="113.648" y="-582" font-family="Helvetica,sans-Serif" font-size="10.00">#level</text>
</g>
<!-- Node5&#45;&gt;Node6 -->
<g id="edge18" class="edge"><title>Node5&#45;&gt;Node6</title>
<path fill="none" stroke="#404040" d="M202.731,-1127.41C245.296,-1114.01 366.436,-1075.81 367.148,-1075 395.771,-1042.65 385.148,-1022.69 385.148,-979.5 385.148,-979.5 385.148,-979.5 385.148,-520 385.148,-495.767 385.951,-469.121 386.913,-445.885"/>
<polygon fill="none" stroke="#404040" points="386.92,-445.71 383.186,-439.542 387.443,-433.722 391.178,-439.89 386.92,-445.71"/>
<text text-anchor="middle" x="402.648" y="-777.5" font-family="Helvetica,sans-Serif" font-size="10.00"> #magic</text>
</g>
<!-- Node5&#45;&gt;Node8 -->
<g id="edge13" class="edge"><title>Node5&#45;&gt;Node8</title>
<path fill="none" stroke="#404040" d="M187.599,-1104.46C186.675,-1058.15 184.765,-962.36 183.262,-886.981"/>
<polygon fill="none" stroke="#404040" points="183.254,-886.591 179.135,-880.672 183.015,-874.593 187.134,-880.512 183.254,-886.591"/>
<text text-anchor="middle" x="205.648" y="-976" font-family="Helvetica,sans-Serif" font-size="10.00"> +money</text>
</g>
<!-- Node5&#45;&gt;Node9 -->
<g id="edge12" class="edge"><title>Node5&#45;&gt;Node9</title>
<path fill="none" stroke="#404040" d="M173.405,-1131.08C142.027,-1128.33 68.2394,-1117.45 28.1482,-1075 -2.22347,-1042.84 0.148231,-1023.73 0.148231,-979.5 0.148231,-979.5 0.148231,-979.5 0.148231,-183.5 0.148231,-113.731 79.6103,-68.5444 132.051,-46.3204"/>
<polygon fill="none" stroke="#404040" points="132.329,-46.2067 136.372,-40.2357 143.439,-41.6713 139.396,-47.6423 132.329,-46.2067"/>
<text text-anchor="middle" x="23.1482" y="-518.5" font-family="Helvetica,sans-Serif" font-size="10.00"> &#45;expGiven</text>
</g>
<!-- Node6&#45;&gt;Node3 -->
<g id="edge4" class="edge"><title>Node6&#45;&gt;Node3</title>
<path fill="none" stroke="#404040" d="M364.662,-332.415C357.135,-317.772 348.618,-301.2 340.083,-284.596"/>
<polygon fill="none" stroke="#404040" points="339.968,-284.373 333.668,-280.865 334.483,-273.7 340.783,-277.208 339.968,-284.373"/>
<text text-anchor="middle" x="377.648" y="-306" font-family="Helvetica,sans-Serif" font-size="10.00"> #special1</text>
<text text-anchor="middle" x="377.648" y="-295" font-family="Helvetica,sans-Serif" font-size="10.00">#special2</text>
</g>
<!-- Node7&#45;&gt;Node6 -->
<g id="edge5" class="edge"><title>Node7&#45;&gt;Node6</title>
<path fill="none" stroke="midnightblue" d="M340.689,-472.506C347.667,-460.019 355.214,-446.515 362.26,-433.905"/>
<polygon fill="none" stroke="midnightblue" points="337.546,-470.955 335.723,-481.392 343.657,-474.37 337.546,-470.955"/>
</g>
<!-- Node8&#45;&gt;Node7 -->
<g id="edge8" class="edge"><title>Node8&#45;&gt;Node7</title>
<path fill="none" stroke="#404040" d="M229.541,-685.49C249.472,-646.975 271.754,-603.92 288.446,-571.665"/>
<polygon fill="none" stroke="#404040" points="288.589,-571.389 287.794,-564.222 294.104,-560.732 294.899,-567.899 288.589,-571.389"/>
<text text-anchor="middle" x="305.148" y="-620.5" font-family="Helvetica,sans-Serif" font-size="10.00"> #manager</text>
</g>
<!-- Node9&#45;&gt;Node8 -->
<g id="edge10" class="edge"><title>Node9&#45;&gt;Node8</title>
<path fill="none" stroke="#404040" d="M177.148,-57.7302C177.148,-88.4721 177.148,-139.529 177.148,-183.5 177.148,-522 177.148,-522 177.148,-522 177.148,-571.668 177.904,-626.728 178.759,-673.103"/>
<polygon fill="none" stroke="#404040" points="178.763,-673.319 182.876,-679.242 178.99,-685.317 174.877,-679.394 178.763,-673.319"/>
<text text-anchor="middle" x="195.148" y="-380.5" font-family="Helvetica,sans-Serif" font-size="10.00"> &#45;enemy</text>
</g>
<!-- Node10 -->
<g id="node9" class="node"><title>Node10</title>
<polygon fill="none" stroke="#bfbfbf" points="104.648,-950 104.648,-1007 139.648,-1007 139.648,-950 104.648,-950"/>
<text text-anchor="middle" x="122.148" y="-995" font-family="Helvetica,sans-Serif" font-size="10.00">bool</text>
<polyline fill="none" stroke="#bfbfbf" points="104.648,-988 139.648,-988 "/>
<text text-anchor="middle" x="122.148" y="-976" font-family="Helvetica,sans-Serif" font-size="10.00"> </text>
<polyline fill="none" stroke="#bfbfbf" points="104.648,-969 139.648,-969 "/>
<text text-anchor="middle" x="122.148" y="-957" font-family="Helvetica,sans-Serif" font-size="10.00"> </text>
</g>
<!-- Node10&#45;&gt;Node8 -->
<g id="edge14" class="edge"><title>Node10&#45;&gt;Node8</title>
<path fill="none" stroke="#404040" d="M112.387,-949.684C107.957,-933 104.779,-911.499 110.148,-893 112.163,-886.06 114.751,-879.137 117.741,-872.333"/>
<polygon fill="none" stroke="#404040" points="117.972,-871.848 116.935,-864.712 123.124,-861.011 124.16,-868.147 117.972,-871.848"/>
<text text-anchor="middle" x="143.148" y="-896" font-family="Helvetica,sans-Serif" font-size="10.00"> &#45;wasCriticalHit</text>
</g>
<!-- Node11 -->
<g id="node10" class="node"><title>Node11</title>
<polygon fill="none" stroke="#bfbfbf" points="413.648,-492.5 413.648,-549.5 448.648,-549.5 448.648,-492.5 413.648,-492.5"/>
<text text-anchor="middle" x="431.148" y="-537.5" font-family="Helvetica,sans-Serif" font-size="10.00">float</text>
<polyline fill="none" stroke="#bfbfbf" points="413.648,-530.5 448.648,-530.5 "/>
<text text-anchor="middle" x="431.148" y="-518.5" font-family="Helvetica,sans-Serif" font-size="10.00"> </text>
<polyline fill="none" stroke="#bfbfbf" points="413.648,-511.5 448.648,-511.5 "/>
<text text-anchor="middle" x="431.148" y="-499.5" font-family="Helvetica,sans-Serif" font-size="10.00"> </text>
</g>
<!-- Node11&#45;&gt;Node6 -->
<g id="edge17" class="edge"><title>Node11&#45;&gt;Node6</title>
<path fill="none" stroke="#404040" d="M422.851,-492.478C418.765,-478.925 413.663,-461.999 408.712,-445.577"/>
<polygon fill="none" stroke="#404040" points="408.614,-445.253 403.053,-440.663 405.151,-433.764 410.712,-438.354 408.614,-445.253"/>
<text text-anchor="middle" x="433.148" y="-455" font-family="Helvetica,sans-Serif" font-size="10.00"> #special</text>
</g>
<!-- Node12 -->
<g id="node11" class="node"><title>Node12</title>
<polygon fill="none" stroke="#bfbfbf" points="457.648,-354.5 457.648,-411.5 518.648,-411.5 518.648,-354.5 457.648,-354.5"/>
<text text-anchor="middle" x="488.148" y="-399.5" font-family="Helvetica,sans-Serif" font-size="10.00">Texture2D</text>
<polyline fill="none" stroke="#bfbfbf" points="457.648,-392.5 518.648,-392.5 "/>
<text text-anchor="middle" x="488.148" y="-380.5" font-family="Helvetica,sans-Serif" font-size="10.00"> </text>
<polyline fill="none" stroke="#bfbfbf" points="457.648,-373.5 518.648,-373.5 "/>
<text text-anchor="middle" x="488.148" y="-361.5" font-family="Helvetica,sans-Serif" font-size="10.00"> </text>
</g>
<!-- Node12&#45;&gt;Node3 -->
<g id="edge19" class="edge"><title>Node12&#45;&gt;Node3</title>
<path fill="none" stroke="#404040" d="M467.284,-354.387C461.322,-346.929 454.668,-338.992 448.148,-332 415.995,-297.521 377.118,-261.61 345.855,-233.971"/>
<polygon fill="none" stroke="#404040" points="345.845,-233.962 338.698,-233.004 336.833,-226.038 343.981,-226.996 345.845,-233.962"/>
<text text-anchor="middle" x="445.648" y="-300.5" font-family="Helvetica,sans-Serif" font-size="10.00"> #image</text>
</g>
<!-- Node13&#45;&gt;Node2 -->
<g id="edge20" class="edge"><title>Node13&#45;&gt;Node2</title>
<path fill="none" stroke="#404040" d="M345.107,-1093.12C339.585,-1078.85 333.165,-1062.26 326.966,-1046.23"/>
<polygon fill="none" stroke="#404040" points="326.836,-1045.9 320.941,-1041.74 322.506,-1034.71 328.402,-1038.86 326.836,-1045.9"/>
<text text-anchor="middle" x="350.648" y="-1061.5" font-family="Helvetica,sans-Serif" font-size="10.00"> &#45;item</text>
</g>
</g>
</svg>
        <g id="navigator" transform="translate(0 0)" fill="#404254">
                <rect fill="#f2f5e9" fill-opacity="0.5" stroke="#606060" stroke-width=".5" x="0" y="0" width="60" height="60"/>
                <use id="zoomplus" xlink:href="#zoomPlus" x="17" y="9" onmousedown="handleZoom(evt,'in')"/>
                <use id="zoomminus" xlink:href="#zoomMin" x="42" y="9" onmousedown="handleZoom(evt,'out')"/>
                <use id="reset" xlink:href="#resetDef" x="30" y="36" onmousedown="handleReset()"/>
                <g id="arrowUp" xlink:href="#dirArrow" transform="translate(30 24)" onmousedown="handlePan(0,-1)">
                  <use xlink:href="#rim" fill="#404040">
                        <set attributeName="fill" to="#808080" begin="arrowUp.mouseover" end="arrowUp.mouseout"/>
                  </use>
                  <path fill="none" stroke="white" stroke-width="1.5" d="M0,-3.0v7 M-2.5,-0.5L0,-3.0L2.5,-0.5"/>
                </g>
                <g id="arrowRight" xlink:href="#dirArrow" transform="rotate(90) translate(36 -43)" onmousedown="handlePan(1,0)">
                  <use xlink:href="#rim" fill="#404040">
                        <set attributeName="fill" to="#808080" begin="arrowRight.mouseover" end="arrowRight.mouseout"/>
                  </use>
                  <path fill="none" stroke="white" stroke-width="1.5" d="M0,-3.0v7 M-2.5,-0.5L0,-3.0L2.5,-0.5"/>
                </g>
                <g id="arrowDown" xlink:href="#dirArrow" transform="rotate(180) translate(-30 -48)" onmousedown="handlePan(0,1)">
                  <use xlink:href="#rim" fill="#404040">
                        <set attributeName="fill" to="#808080" begin="arrowDown.mouseover" end="arrowDown.mouseout"/>
                  </use>
                  <path fill="none" stroke="white" stroke-width="1.5" d="M0,-3.0v7 M-2.5,-0.5L0,-3.0L2.5,-0.5"/>
                </g>
                <g id="arrowLeft" xlink:href="#dirArrow" transform="rotate(270) translate(-36 17)" onmousedown="handlePan(-1,0)">
                  <use xlink:href="#rim" fill="#404040">
                        <set attributeName="fill" to="#808080" begin="arrowLeft.mouseover" end="arrowLeft.mouseout"/>
                  </use>
                  <path fill="none" stroke="white" stroke-width="1.5" d="M0,-3.0v7 M-2.5,-0.5L0,-3.0L2.5,-0.5"/>
                </g>
        </g>
        <svg viewBox="0 0 15 15" width="100%" height="30px" preserveAspectRatio="xMaxYMin meet">
         <g id="arrow_out" transform="scale(0.3 0.3)">
          <a xlink:href="class_player__coll__graph_org.svg" target="_base">
           <rect id="button" ry="5" rx="5" y="6" x="6" height="38" width="38"
                fill="#f2f5e9" fill-opacity="0.5" stroke="#606060" stroke-width="1.0"/>
           <path id="arrow"
             d="M 11.500037,31.436501 C 11.940474,20.09759 22.043105,11.32322 32.158766,21.979434 L 37.068811,17.246167 C 37.068811,17.246167 37.088388,32 37.088388,32 L 22.160133,31.978069 C 22.160133,31.978069 26.997745,27.140456 26.997745,27.140456 C 18.528582,18.264221 13.291696,25.230495 11.500037,31.436501 z"
             style="fill:#404040;"/>
          </a>
         </g>
        </svg>
</svg>
