<?xml version="1.0" encoding="UTF-8" standalone="no"?>
<!DOCTYPE svg PUBLIC "-//W3C//DTD SVG 1.1//EN"
 "http://www.w3.org/Graphics/SVG/1.1/DTD/svg11.dtd">
<!-- Generated by graphviz version 2.38.0 (20140413.2041)
 -->
<!-- Title: Graphical Class Hierarchy Pages: 1 -->
<svg width="242pt" height="1244pt"
 viewBox="0.00 0.00 242.00 1244.00" xmlns="http://www.w3.org/2000/svg" xmlns:xlink="http://www.w3.org/1999/xlink">
<g id="graph0" class="graph" transform="scale(1 1) rotate(0) translate(4 1240)">
<title>Graphical Class Hierarchy</title>
<!-- Node0 -->
<g id="node1" class="node"><title>Node0</title>
<g id="a_node1"><a xlink:href="class_mono_behaviour.html" target="_top" xlink:title="MonoBehaviour">
<polygon fill="none" stroke="black" points="0,-608.5 0,-627.5 83,-627.5 83,-608.5 0,-608.5"/>
<text text-anchor="middle" x="41.5" y="-615.5" font-family="Helvetica,sans-Serif" font-size="10.00">MonoBehaviour</text>
</a>
</g>
</g>
<!-- Node1 -->
<g id="node2" class="node"><title>Node1</title>
<g id="a_node2"><a xlink:href="class_battle_buttons.html" target="_top" xlink:title="Script to handle the function of the Attack Button in the Battle Scene">
<polygon fill="none" stroke="black" points="138.5,-1216.5 138.5,-1235.5 214.5,-1235.5 214.5,-1216.5 138.5,-1216.5"/>
<text text-anchor="middle" x="176.5" y="-1223.5" font-family="Helvetica,sans-Serif" font-size="10.00">BattleButtons</text>
</a>
</g>
</g>
<!-- Node0&#45;&gt;Node1 -->
<g id="edge1" class="edge"><title>Node0&#45;&gt;Node1</title>
<path fill="none" stroke="midnightblue" d="M42.3536,-638.022C42.0737,-730.71 45.3962,-1117.41 119,-1207 123.993,-1213.08 131.001,-1217.22 138.387,-1220.04"/>
<polygon fill="midnightblue" stroke="midnightblue" points="45.8546,-637.806 42.404,-627.789 38.8547,-637.771 45.8546,-637.806"/>
</g>
<!-- Node2 -->
<g id="node3" class="node"><title>Node2</title>
<g id="a_node3"><a xlink:href="class_battle_descriptor.html" target="_top" xlink:title="A component that be added to an object to describe the parameters of a battle from within the Unity E...">
<polygon fill="none" stroke="black" points="133.5,-1178.5 133.5,-1197.5 219.5,-1197.5 219.5,-1178.5 133.5,-1178.5"/>
<text text-anchor="middle" x="176.5" y="-1185.5" font-family="Helvetica,sans-Serif" font-size="10.00">BattleDescriptor</text>
</a>
</g>
</g>
<!-- Node0&#45;&gt;Node2 -->
<g id="edge2" class="edge"><title>Node0&#45;&gt;Node2</title>
<path fill="none" stroke="midnightblue" d="M42.5516,-637.837C43.1747,-726.498 49.9835,-1085.75 119,-1169 122.831,-1173.62 127.826,-1177.12 133.261,-1179.78"/>
<polygon fill="midnightblue" stroke="midnightblue" points="46.0504,-637.563 42.5,-627.581 39.0505,-637.599 46.0504,-637.563"/>
</g>
<!-- Node3 -->
<g id="node4" class="node"><title>Node3</title>
<g id="a_node4"><a xlink:href="class_biology_script.html" target="_top" xlink:title="BiologyScript">
<polygon fill="none" stroke="black" points="139.5,-1140.5 139.5,-1159.5 213.5,-1159.5 213.5,-1140.5 139.5,-1140.5"/>
<text text-anchor="middle" x="176.5" y="-1147.5" font-family="Helvetica,sans-Serif" font-size="10.00">BiologyScript</text>
</a>
</g>
</g>
<!-- Node0&#45;&gt;Node3 -->
<g id="edge3" class="edge"><title>Node0&#45;&gt;Node3</title>
<path fill="none" stroke="midnightblue" d="M42.7772,-637.811C44.353,-722.601 54.6022,-1054.11 119,-1131 124.249,-1137.27 131.639,-1141.48 139.349,-1144.3"/>
<polygon fill="midnightblue" stroke="midnightblue" points="46.2755,-637.672 42.6104,-627.731 39.2764,-637.788 46.2755,-637.672"/>
</g>
<!-- Node4 -->
<g id="node5" class="node"><title>Node4</title>
<g id="a_node5"><a xlink:href="class_camera_controller.html" target="_top" xlink:title="Script to move the camera around so that it follows the player">
<polygon fill="none" stroke="black" points="130.5,-1102.5 130.5,-1121.5 222.5,-1121.5 222.5,-1102.5 130.5,-1102.5"/>
<text text-anchor="middle" x="176.5" y="-1109.5" font-family="Helvetica,sans-Serif" font-size="10.00">CameraController</text>
</a>
</g>
</g>
<!-- Node0&#45;&gt;Node4 -->
<g id="edge4" class="edge"><title>Node0&#45;&gt;Node4</title>
<path fill="none" stroke="midnightblue" d="M43.0481,-638.122C45.6554,-719.408 59.2919,-1022.55 119,-1093 122.279,-1096.87 126.372,-1099.95 130.848,-1102.41"/>
<polygon fill="midnightblue" stroke="midnightblue" points="46.5366,-637.684 42.7393,-627.793 39.5398,-637.893 46.5366,-637.684"/>
</g>
<!-- Node5 -->
<g id="node6" class="node"><title>Node5</title>
<g id="a_node6"><a xlink:href="class_canvas_script.html" target="_top" xlink:title="Added to a canvas holding the dialogue elements to ensure it&#39;s not destroyed when a new scene is crea...">
<polygon fill="none" stroke="black" points="139.5,-1064.5 139.5,-1083.5 213.5,-1083.5 213.5,-1064.5 139.5,-1064.5"/>
<text text-anchor="middle" x="176.5" y="-1071.5" font-family="Helvetica,sans-Serif" font-size="10.00">CanvasScript</text>
</a>
</g>
</g>
<!-- Node0&#45;&gt;Node5 -->
<g id="edge5" class="edge"><title>Node0&#45;&gt;Node5</title>
<path fill="none" stroke="midnightblue" d="M43.3511,-637.975C47.016,-714.893 63.854,-990.822 119,-1055 124.328,-1061.2 131.748,-1065.38 139.462,-1068.2"/>
<polygon fill="midnightblue" stroke="midnightblue" points="46.8373,-637.589 42.8875,-627.758 39.8445,-637.907 46.8373,-637.589"/>
</g>
<!-- Node6 -->
<g id="node7" class="node"><title>Node6</title>
<g id="a_node7"><a xlink:href="class_car_controller.html" target="_top" xlink:title="A controller to controll the sataus of the minigame and most of its components ">
<polygon fill="none" stroke="black" points="140,-1026.5 140,-1045.5 213,-1045.5 213,-1026.5 140,-1026.5"/>
<text text-anchor="middle" x="176.5" y="-1033.5" font-family="Helvetica,sans-Serif" font-size="10.00">CarController</text>
</a>
</g>
</g>
<!-- Node0&#45;&gt;Node6 -->
<g id="edge6" class="edge"><title>Node0&#45;&gt;Node6</title>
<path fill="none" stroke="midnightblue" d="M43.6923,-637.618C48.453,-709.74 68.3527,-959.01 119,-1017 124.446,-1023.24 132.006,-1027.43 139.827,-1030.25"/>
<polygon fill="midnightblue" stroke="midnightblue" points="47.1842,-637.378 43.0559,-627.62 40.1984,-637.823 47.1842,-637.378"/>
</g>
<!-- Node7 -->
<g id="node8" class="node"><title>Node7</title>
<g id="a_node8"><a xlink:href="class_car_script.html" target="_top" xlink:title="A script to control the cars for the minigame ">
<polygon fill="none" stroke="black" points="148,-988.5 148,-1007.5 205,-1007.5 205,-988.5 148,-988.5"/>
<text text-anchor="middle" x="176.5" y="-995.5" font-family="Helvetica,sans-Serif" font-size="10.00">CarScript</text>
</a>
</g>
</g>
<!-- Node0&#45;&gt;Node7 -->
<g id="edge7" class="edge"><title>Node0&#45;&gt;Node7</title>
<path fill="none" stroke="midnightblue" d="M44.1486,-637.898C50.1572,-705.844 72.9815,-927.33 119,-979 126.365,-987.269 137.443,-991.945 147.845,-994.587"/>
<polygon fill="midnightblue" stroke="midnightblue" points="47.6166,-637.374 43.2734,-627.71 40.6422,-637.973 47.6166,-637.374"/>
</g>
<!-- Node8 -->
<g id="node9" class="node"><title>Node8</title>
<g id="a_node9"><a xlink:href="class_car_spawner.html" target="_top" xlink:title="A car spawner to spawn cars when triggered by a controller and give the correct variable to the car ...">
<polygon fill="none" stroke="black" points="142,-950.5 142,-969.5 211,-969.5 211,-950.5 142,-950.5"/>
<text text-anchor="middle" x="176.5" y="-957.5" font-family="Helvetica,sans-Serif" font-size="10.00">CarSpawner</text>
</a>
</g>
</g>
<!-- Node0&#45;&gt;Node8 -->
<g id="edge8" class="edge"><title>Node0&#45;&gt;Node8</title>
<path fill="none" stroke="midnightblue" d="M44.677,-637.816C51.9794,-700.89 77.5046,-895.507 119,-941 124.998,-947.576 133.342,-951.877 141.779,-954.691"/>
<polygon fill="midnightblue" stroke="midnightblue" points="48.1273,-637.179 43.5258,-627.635 41.1716,-637.965 48.1273,-637.179"/>
</g>
<!-- Node9 -->
<g id="node10" class="node"><title>Node9</title>
<g id="a_node10"><a xlink:href="class_container_data.html" target="_top" xlink:title="An attribute to store information for a container in the item menu ">
<polygon fill="none" stroke="black" points="137.5,-912.5 137.5,-931.5 215.5,-931.5 215.5,-912.5 137.5,-912.5"/>
<text text-anchor="middle" x="176.5" y="-919.5" font-family="Helvetica,sans-Serif" font-size="10.00">ContainerData</text>
</a>
</g>
</g>
<!-- Node0&#45;&gt;Node9 -->
<g id="edge9" class="edge"><title>Node0&#45;&gt;Node9</title>
<path fill="none" stroke="midnightblue" d="M41.8398,-637.944C41.2618,-689.091 46.9083,-826.282 119,-903 123.961,-908.279 130.433,-912.092 137.219,-914.845"/>
<polygon fill="midnightblue" stroke="midnightblue" points="45.3457,-637.7 42.0597,-627.628 38.3473,-637.551 45.3457,-637.7"/>
</g>
<!-- Node10 -->
<g id="node11" class="node"><title>Node10</title>
<g id="a_node11"><a xlink:href="class_dialogue_script.html" target="_top" xlink:title="Script to show dialogue, as well as step through multiple lines and close afterwards ...">
<polygon fill="none" stroke="black" points="136.5,-874.5 136.5,-893.5 216.5,-893.5 216.5,-874.5 136.5,-874.5"/>
<text text-anchor="middle" x="176.5" y="-881.5" font-family="Helvetica,sans-Serif" font-size="10.00">DialogueScript</text>
</a>
</g>
</g>
<!-- Node0&#45;&gt;Node10 -->
<g id="edge10" class="edge"><title>Node0&#45;&gt;Node10</title>
<path fill="none" stroke="midnightblue" d="M42.8229,-637.748C44.6578,-683.964 55.689,-800.147 119,-865 123.771,-869.887 129.838,-873.518 136.214,-876.214"/>
<polygon fill="midnightblue" stroke="midnightblue" points="46.3165,-637.473 42.5284,-627.579 39.3195,-637.676 46.3165,-637.473"/>
</g>
<!-- Node11 -->
<g id="node12" class="node"><title>Node11</title>
<g id="a_node12"><a xlink:href="class_end_script.html" target="_top" xlink:title="EndScript">
<polygon fill="none" stroke="black" points="147,-836.5 147,-855.5 206,-855.5 206,-836.5 147,-836.5"/>
<text text-anchor="middle" x="176.5" y="-843.5" font-family="Helvetica,sans-Serif" font-size="10.00">EndScript</text>
</a>
</g>
</g>
<!-- Node0&#45;&gt;Node11 -->
<g id="edge11" class="edge"><title>Node0&#45;&gt;Node11</title>
<path fill="none" stroke="midnightblue" d="M44.16,-638.023C48.6397,-679.216 64.5999,-774.022 119,-827 126.562,-834.365 137.068,-838.877 146.971,-841.641"/>
<polygon fill="midnightblue" stroke="midnightblue" points="47.6278,-637.521 43.1785,-627.905 40.6605,-638.197 47.6278,-637.521"/>
</g>
<!-- Node12 -->
<g id="node13" class="node"><title>Node12</title>
<g id="a_node13"><a xlink:href="class_exploration_menu_script.html" target="_top" xlink:title="A script to manage the exploration menu that the user can call up at anytime ">
<polygon fill="none" stroke="black" points="119,-798.5 119,-817.5 234,-817.5 234,-798.5 119,-798.5"/>
<text text-anchor="middle" x="176.5" y="-805.5" font-family="Helvetica,sans-Serif" font-size="10.00">ExplorationMenuScript</text>
</a>
</g>
</g>
<!-- Node0&#45;&gt;Node12 -->
<g id="edge12" class="edge"><title>Node0&#45;&gt;Node12</title>
<path fill="none" stroke="midnightblue" d="M45.9655,-637.733C53.1898,-673.078 73.1588,-747.372 119,-789 123.29,-792.896 128.407,-795.997 133.784,-798.464"/>
<polygon fill="midnightblue" stroke="midnightblue" points="49.3662,-636.882 44.0511,-627.717 42.4907,-638.197 49.3662,-636.882"/>
</g>
<!-- Node13 -->
<g id="node14" class="node"><title>Node13</title>
<g id="a_node14"><a xlink:href="class_global_functions.html" target="_top" xlink:title="Provides functions and variables to be accessed by any game object to allow data to be passed between...">
<polygon fill="none" stroke="black" points="133,-760.5 133,-779.5 220,-779.5 220,-760.5 133,-760.5"/>
<text text-anchor="middle" x="176.5" y="-767.5" font-family="Helvetica,sans-Serif" font-size="10.00">GlobalFunctions</text>
</a>
</g>
</g>
<!-- Node0&#45;&gt;Node13 -->
<g id="edge13" class="edge"><title>Node0&#45;&gt;Node13</title>
<path fill="none" stroke="midnightblue" d="M48.6192,-637.317C58.7139,-666.143 81.5514,-720.305 119,-751 123.722,-754.871 129.269,-757.966 135.009,-760.439"/>
<polygon fill="midnightblue" stroke="midnightblue" points="51.8636,-635.983 45.3703,-627.611 45.2256,-638.205 51.8636,-635.983"/>
</g>
<!-- Node14 -->
<g id="node15" class="node"><title>Node14</title>
<g id="a_node15"><a xlink:href="class_healing_station.html" target="_top" xlink:title="A script describing a healing station, where all player&#39;s health and magic are restored ...">
<polygon fill="none" stroke="black" points="136.5,-722.5 136.5,-741.5 216.5,-741.5 216.5,-722.5 136.5,-722.5"/>
<text text-anchor="middle" x="176.5" y="-729.5" font-family="Helvetica,sans-Serif" font-size="10.00">HealingStation</text>
</a>
</g>
</g>
<!-- Node0&#45;&gt;Node14 -->
<g id="edge14" class="edge"><title>Node0&#45;&gt;Node14</title>
<path fill="none" stroke="midnightblue" d="M52.8044,-636.33C65.6759,-657.649 89.6215,-692.527 119,-713 124.519,-716.846 130.878,-719.964 137.294,-722.475"/>
<polygon fill="midnightblue" stroke="midnightblue" points="55.7612,-634.453 47.69,-627.59 49.7194,-637.988 55.7612,-634.453"/>
</g>
<!-- Node15 -->
<g id="node16" class="node"><title>Node15</title>
<g id="a_node16"><a xlink:href="class_items_menu_script.html" target="_top" xlink:title="Controls all initialisation of menu and updates arrays when an item is moved ">
<polygon fill="none" stroke="black" points="131.5,-684.5 131.5,-703.5 221.5,-703.5 221.5,-684.5 131.5,-684.5"/>
<text text-anchor="middle" x="176.5" y="-691.5" font-family="Helvetica,sans-Serif" font-size="10.00">ItemsMenuScript</text>
</a>
</g>
</g>
<!-- Node0&#45;&gt;Node15 -->
<g id="edge15" class="edge"><title>Node0&#45;&gt;Node15</title>
<path fill="none" stroke="midnightblue" d="M61.0363,-634.455C75.8721,-646.947 97.6581,-663.825 119,-675 125.968,-678.649 133.778,-681.805 141.316,-684.441"/>
<polygon fill="midnightblue" stroke="midnightblue" points="63.0246,-631.549 53.1602,-627.683 58.4608,-636.857 63.0246,-631.549"/>
</g>
<!-- Node16 -->
<g id="node17" class="node"><title>Node16</title>
<g id="a_node17"><a xlink:href="class_level_manager.html" target="_top" xlink:title="A script used to check and handle when a level is beat by defeating the final boss ...">
<polygon fill="none" stroke="black" points="138.5,-646.5 138.5,-665.5 214.5,-665.5 214.5,-646.5 138.5,-646.5"/>
<text text-anchor="middle" x="176.5" y="-653.5" font-family="Helvetica,sans-Serif" font-size="10.00">LevelManager</text>
</a>
</g>
</g>
<!-- Node0&#45;&gt;Node16 -->
<g id="edge16" class="edge"><title>Node0&#45;&gt;Node16</title>
<path fill="none" stroke="midnightblue" d="M85.8669,-630.391C104.081,-635.594 124.939,-641.554 141.949,-646.414"/>
<polygon fill="midnightblue" stroke="midnightblue" points="86.6383,-626.971 76.0615,-627.589 84.7152,-633.702 86.6383,-626.971"/>
</g>
<!-- Node17 -->
<g id="node18" class="node"><title>Node17</title>
<g id="a_node18"><a xlink:href="class_main_battle.html" target="_top" xlink:title="Script for handing a battle scene. Uses BattleManager, but handles turn order and execution as well a...">
<polygon fill="none" stroke="black" points="145,-608.5 145,-627.5 208,-627.5 208,-608.5 145,-608.5"/>
<text text-anchor="middle" x="176.5" y="-615.5" font-family="Helvetica,sans-Serif" font-size="10.00">MainBattle</text>
</a>
</g>
</g>
<!-- Node0&#45;&gt;Node17 -->
<g id="edge17" class="edge"><title>Node0&#45;&gt;Node17</title>
<path fill="none" stroke="midnightblue" d="M93.1585,-618C110.564,-618 129.507,-618 144.831,-618"/>
<polygon fill="midnightblue" stroke="midnightblue" points="93.1271,-614.5 83.1271,-618 93.127,-621.5 93.1271,-614.5"/>
</g>
<!-- Node18 -->
<g id="node19" class="node"><title>Node18</title>
<g id="a_node19"><a xlink:href="class_menu_script.html" target="_top" xlink:title="Script to handle the main menu ">
<polygon fill="none" stroke="black" points="143.5,-570.5 143.5,-589.5 209.5,-589.5 209.5,-570.5 143.5,-570.5"/>
<text text-anchor="middle" x="176.5" y="-577.5" font-family="Helvetica,sans-Serif" font-size="10.00">MenuScript</text>
</a>
</g>
</g>
<!-- Node0&#45;&gt;Node18 -->
<g id="edge18" class="edge"><title>Node0&#45;&gt;Node18</title>
<path fill="none" stroke="midnightblue" d="M85.8399,-605.617C104.554,-600.27 126.065,-594.124 143.326,-589.193"/>
<polygon fill="midnightblue" stroke="midnightblue" points="84.7152,-602.298 76.0615,-608.411 86.6383,-609.029 84.7152,-602.298"/>
</g>
<!-- Node19 -->
<g id="node20" class="node"><title>Node19</title>
<g id="a_node20"><a xlink:href="class_mini_move.html" target="_top" xlink:title="The movement for the minigame character, includes movement and progression control ...">
<polygon fill="none" stroke="black" points="148,-532.5 148,-551.5 205,-551.5 205,-532.5 148,-532.5"/>
<text text-anchor="middle" x="176.5" y="-539.5" font-family="Helvetica,sans-Serif" font-size="10.00">MiniMove</text>
</a>
</g>
</g>
<!-- Node0&#45;&gt;Node19 -->
<g id="edge19" class="edge"><title>Node0&#45;&gt;Node19</title>
<path fill="none" stroke="midnightblue" d="M61.0363,-601.545C75.8721,-589.053 97.6581,-572.175 119,-561 127.985,-556.295 138.37,-552.408 147.767,-549.402"/>
<polygon fill="midnightblue" stroke="midnightblue" points="58.4608,-599.143 53.1602,-608.317 63.0246,-604.451 58.4608,-599.143"/>
</g>
<!-- Node20 -->
<g id="node21" class="node"><title>Node20</title>
<g id="a_node21"><a xlink:href="class_object_interaction.html" target="_top" xlink:title="A component to add to collider relating to an object that can interact with the player by pressing th...">
<polygon fill="none" stroke="black" points="131.5,-494.5 131.5,-513.5 221.5,-513.5 221.5,-494.5 131.5,-494.5"/>
<text text-anchor="middle" x="176.5" y="-501.5" font-family="Helvetica,sans-Serif" font-size="10.00">ObjectInteraction</text>
</a>
</g>
</g>
<!-- Node0&#45;&gt;Node20 -->
<g id="edge20" class="edge"><title>Node0&#45;&gt;Node20</title>
<path fill="none" stroke="midnightblue" d="M52.8044,-599.67C65.6759,-578.351 89.6215,-543.473 119,-523 124.519,-519.154 130.878,-516.036 137.294,-513.525"/>
<polygon fill="midnightblue" stroke="midnightblue" points="49.7194,-598.012 47.69,-608.41 55.7612,-601.547 49.7194,-598.012"/>
</g>
<!-- Node21 -->
<g id="node22" class="node"><title>Node21</title>
<g id="a_node22"><a xlink:href="class_player_data.html" target="_top" xlink:title="A monobehaviour object to house an instance of DataManager so it can be called by other objects ...">
<polygon fill="none" stroke="black" points="144,-456.5 144,-475.5 209,-475.5 209,-456.5 144,-456.5"/>
<text text-anchor="middle" x="176.5" y="-463.5" font-family="Helvetica,sans-Serif" font-size="10.00">PlayerData</text>
</a>
</g>
</g>
<!-- Node0&#45;&gt;Node21 -->
<g id="edge21" class="edge"><title>Node0&#45;&gt;Node21</title>
<path fill="none" stroke="midnightblue" d="M48.6192,-598.683C58.7139,-569.857 81.5514,-515.695 119,-485 126.123,-479.161 135.123,-475.086 143.832,-472.253"/>
<polygon fill="midnightblue" stroke="midnightblue" points="45.2256,-597.795 45.3703,-608.389 51.8636,-600.017 45.2256,-597.795"/>
</g>
<!-- Node22 -->
<g id="node23" class="node"><title>Node22</title>
<g id="a_node23"><a xlink:href="class_player_menu.html" target="_top" xlink:title="Script for controlling the menu which allows users to switch the order of their team members ...">
<polygon fill="none" stroke="black" points="142.5,-418.5 142.5,-437.5 210.5,-437.5 210.5,-418.5 142.5,-418.5"/>
<text text-anchor="middle" x="176.5" y="-425.5" font-family="Helvetica,sans-Serif" font-size="10.00">PlayerMenu</text>
</a>
</g>
</g>
<!-- Node0&#45;&gt;Node22 -->
<g id="edge22" class="edge"><title>Node0&#45;&gt;Node22</title>
<path fill="none" stroke="midnightblue" d="M45.9655,-598.267C53.1898,-562.922 73.1588,-488.628 119,-447 125.512,-441.086 133.929,-437.005 142.267,-434.191"/>
<polygon fill="midnightblue" stroke="midnightblue" points="42.4907,-597.803 44.0511,-608.283 49.3662,-599.118 42.4907,-597.803"/>
</g>
<!-- Node23 -->
<g id="node24" class="node"><title>Node23</title>
<g id="a_node24"><a xlink:href="class_player_movement.html" target="_top" xlink:title="A script to control the movement and animations of the player">
<polygon fill="none" stroke="black" points="132,-380.5 132,-399.5 221,-399.5 221,-380.5 132,-380.5"/>
<text text-anchor="middle" x="176.5" y="-387.5" font-family="Helvetica,sans-Serif" font-size="10.00">PlayerMovement</text>
</a>
</g>
</g>
<!-- Node0&#45;&gt;Node23 -->
<g id="edge23" class="edge"><title>Node0&#45;&gt;Node23</title>
<path fill="none" stroke="midnightblue" d="M44.16,-597.977C48.6397,-556.784 64.5999,-461.978 119,-409 123.004,-405.101 127.832,-402.002 132.959,-399.538"/>
<polygon fill="midnightblue" stroke="midnightblue" points="40.6605,-597.803 43.1785,-608.095 47.6278,-598.479 40.6605,-597.803"/>
</g>
<!-- Node24 -->
<g id="node25" class="node"><title>Node24</title>
<g id="a_node25"><a xlink:href="class_portal.html" target="_top" xlink:title="A component to add to an object, such as when the player touches it they are teleported to a new scen...">
<polygon fill="none" stroke="black" points="155.5,-342.5 155.5,-361.5 197.5,-361.5 197.5,-342.5 155.5,-342.5"/>
<text text-anchor="middle" x="176.5" y="-349.5" font-family="Helvetica,sans-Serif" font-size="10.00">Portal</text>
</a>
</g>
</g>
<!-- Node0&#45;&gt;Node24 -->
<g id="edge24" class="edge"><title>Node0&#45;&gt;Node24</title>
<path fill="none" stroke="midnightblue" d="M42.8229,-598.252C44.6578,-552.036 55.689,-435.853 119,-371 128.543,-361.225 143.266,-356.479 155.29,-354.175"/>
<polygon fill="midnightblue" stroke="midnightblue" points="39.3195,-598.324 42.5284,-608.421 46.3165,-598.527 39.3195,-598.324"/>
</g>
<!-- Node25 -->
<g id="node26" class="node"><title>Node25</title>
<g id="a_node26"><a xlink:href="class_q_manager_obj.html" target="_top" xlink:title="A Unity Object to house the QuestManager for easy access from other scripts ">
<polygon fill="none" stroke="black" points="138,-304.5 138,-323.5 215,-323.5 215,-304.5 138,-304.5"/>
<text text-anchor="middle" x="176.5" y="-311.5" font-family="Helvetica,sans-Serif" font-size="10.00">QManagerObj</text>
</a>
</g>
</g>
<!-- Node0&#45;&gt;Node25 -->
<g id="edge25" class="edge"><title>Node0&#45;&gt;Node25</title>
<path fill="none" stroke="midnightblue" d="M41.8398,-598.056C41.2618,-546.909 46.9083,-409.718 119,-333 124.102,-327.57 130.804,-323.692 137.802,-320.921"/>
<polygon fill="midnightblue" stroke="midnightblue" points="38.3473,-598.449 42.0597,-608.372 45.3457,-598.3 38.3473,-598.449"/>
</g>
<!-- Node26 -->
<g id="node27" class="node"><title>Node26</title>
<g id="a_node27"><a xlink:href="class_quest_instances.html" target="_top" xlink:title="A class storing all the pre&#45;defined quests that the user can choose from ">
<polygon fill="none" stroke="black" points="134,-266.5 134,-285.5 219,-285.5 219,-266.5 134,-266.5"/>
<text text-anchor="middle" x="176.5" y="-273.5" font-family="Helvetica,sans-Serif" font-size="10.00">QuestInstances</text>
</a>
</g>
</g>
<!-- Node0&#45;&gt;Node26 -->
<g id="edge26" class="edge"><title>Node0&#45;&gt;Node26</title>
<path fill="none" stroke="midnightblue" d="M44.677,-598.184C51.9794,-535.11 77.5046,-340.493 119,-295 123.115,-290.489 128.334,-287.048 133.93,-284.423"/>
<polygon fill="midnightblue" stroke="midnightblue" points="41.1716,-598.035 43.5258,-608.365 48.1273,-598.821 41.1716,-598.035"/>
</g>
<!-- Node27 -->
<g id="node28" class="node"><title>Node27</title>
<g id="a_node28"><a xlink:href="class_random_test.html" target="_top" xlink:title="RandomTest">
<polygon fill="none" stroke="black" points="141,-228.5 141,-247.5 212,-247.5 212,-228.5 141,-228.5"/>
<text text-anchor="middle" x="176.5" y="-235.5" font-family="Helvetica,sans-Serif" font-size="10.00">RandomTest</text>
</a>
</g>
</g>
<!-- Node0&#45;&gt;Node27 -->
<g id="edge27" class="edge"><title>Node0&#45;&gt;Node27</title>
<path fill="none" stroke="midnightblue" d="M44.1486,-598.102C50.1572,-530.156 72.9815,-308.67 119,-257 124.713,-250.586 132.66,-246.333 140.793,-243.515"/>
<polygon fill="midnightblue" stroke="midnightblue" points="40.6422,-598.027 43.2734,-608.29 47.6166,-598.626 40.6422,-598.027"/>
</g>
<!-- Node28 -->
<g id="node29" class="node"><title>Node28</title>
<g id="a_node29"><a xlink:href="class_scene_changer.html" target="_top" xlink:title="A set of functions to be called to change scenes smoothly whilst handling the player&#39;s location and a...">
<polygon fill="none" stroke="black" points="136.5,-190.5 136.5,-209.5 216.5,-209.5 216.5,-190.5 136.5,-190.5"/>
<text text-anchor="middle" x="176.5" y="-197.5" font-family="Helvetica,sans-Serif" font-size="10.00">SceneChanger</text>
</a>
</g>
</g>
<!-- Node0&#45;&gt;Node28 -->
<g id="edge28" class="edge"><title>Node0&#45;&gt;Node28</title>
<path fill="none" stroke="midnightblue" d="M43.6923,-598.382C48.453,-526.26 68.3527,-276.99 119,-219 123.629,-213.7 129.786,-209.875 136.331,-207.115"/>
<polygon fill="midnightblue" stroke="midnightblue" points="40.1984,-598.177 43.0559,-608.38 47.1842,-598.622 40.1984,-598.177"/>
</g>
<!-- Node29 -->
<g id="node30" class="node"><title>Node29</title>
<g id="a_node30"><a xlink:href="class_sound_manager.html" target="_top" xlink:title="A script to manage all background music and sound effects in the game ">
<polygon fill="none" stroke="black" points="135.5,-152.5 135.5,-171.5 217.5,-171.5 217.5,-152.5 135.5,-152.5"/>
<text text-anchor="middle" x="176.5" y="-159.5" font-family="Helvetica,sans-Serif" font-size="10.00">SoundManager</text>
</a>
</g>
</g>
<!-- Node0&#45;&gt;Node29 -->
<g id="edge29" class="edge"><title>Node0&#45;&gt;Node29</title>
<path fill="none" stroke="midnightblue" d="M43.3511,-598.025C47.016,-521.107 63.854,-245.178 119,-181 123.384,-175.898 129.184,-172.162 135.399,-169.427"/>
<polygon fill="midnightblue" stroke="midnightblue" points="39.8445,-598.093 42.8875,-608.242 46.8373,-598.411 39.8445,-598.093"/>
</g>
<!-- Node30 -->
<g id="node31" class="node"><title>Node30</title>
<g id="a_node31"><a xlink:href="class_stats_script.html" target="_top" xlink:title="A script used to manage and update all of the stat displays in the battle scene ">
<polygon fill="none" stroke="black" points="144,-114.5 144,-133.5 209,-133.5 209,-114.5 144,-114.5"/>
<text text-anchor="middle" x="176.5" y="-121.5" font-family="Helvetica,sans-Serif" font-size="10.00">StatsScript</text>
</a>
</g>
</g>
<!-- Node0&#45;&gt;Node30 -->
<g id="edge30" class="edge"><title>Node0&#45;&gt;Node30</title>
<path fill="none" stroke="midnightblue" d="M43.0481,-597.878C45.6554,-516.592 59.2919,-213.453 119,-143 125.289,-135.579 134.578,-131.046 143.815,-128.281"/>
<polygon fill="midnightblue" stroke="midnightblue" points="39.5398,-598.107 42.7393,-608.207 46.5366,-598.316 39.5398,-598.107"/>
</g>
<!-- Node31 -->
<g id="node32" class="node"><title>Node31</title>
<g id="a_node32"><a xlink:href="class_switch_players_script.html" target="_top" xlink:title="Script to handle the menu allowing users to switch players in and out of battle ">
<polygon fill="none" stroke="black" points="124.5,-76.5 124.5,-95.5 228.5,-95.5 228.5,-76.5 124.5,-76.5"/>
<text text-anchor="middle" x="176.5" y="-83.5" font-family="Helvetica,sans-Serif" font-size="10.00">SwitchPlayersScript</text>
</a>
</g>
</g>
<!-- Node0&#45;&gt;Node31 -->
<g id="edge31" class="edge"><title>Node0&#45;&gt;Node31</title>
<path fill="none" stroke="midnightblue" d="M42.7772,-598.189C44.353,-513.399 54.6022,-181.89 119,-105 122.256,-101.112 126.335,-98.017 130.804,-95.5529"/>
<polygon fill="midnightblue" stroke="midnightblue" points="39.2764,-598.212 42.6104,-608.269 46.2755,-598.328 39.2764,-598.212"/>
</g>
<!-- Node32 -->
<g id="node33" class="node"><title>Node32</title>
<g id="a_node33"><a xlink:href="class_vendor.html" target="_top" xlink:title="To be attatched to the Dialogue component of characters if they are to sell items ...">
<polygon fill="none" stroke="black" points="153,-38.5 153,-57.5 200,-57.5 200,-38.5 153,-38.5"/>
<text text-anchor="middle" x="176.5" y="-45.5" font-family="Helvetica,sans-Serif" font-size="10.00">Vendor</text>
</a>
</g>
</g>
<!-- Node0&#45;&gt;Node32 -->
<g id="edge32" class="edge"><title>Node0&#45;&gt;Node32</title>
<path fill="none" stroke="midnightblue" d="M42.5516,-598.163C43.1747,-509.502 49.9835,-150.253 119,-67 127.256,-57.0411 140.92,-52.2777 152.743,-50.0105"/>
<polygon fill="midnightblue" stroke="midnightblue" points="39.0505,-598.401 42.5,-608.419 46.0504,-598.437 39.0505,-598.401"/>
</g>
<!-- Node33 -->
<g id="node34" class="node"><title>Node33</title>
<g id="a_node34"><a xlink:href="class_world_map_script.html" target="_top" xlink:title="A controler for the world map, stopping players from entering old or future levels, and colouring the departments approriately">
<polygon fill="none" stroke="black" points="133.5,-0.5 133.5,-19.5 219.5,-19.5 219.5,-0.5 133.5,-0.5"/>
<text text-anchor="middle" x="176.5" y="-7.5" font-family="Helvetica,sans-Serif" font-size="10.00">WorldMapScript</text>
</a>
</g>
</g>
<!-- Node0&#45;&gt;Node33 -->
<g id="edge33" class="edge"><title>Node0&#45;&gt;Node33</title>
<path fill="none" stroke="midnightblue" d="M42.3536,-597.978C42.0737,-505.29 45.3962,-118.586 119,-29 122.81,-24.3623 127.794,-20.8507 133.225,-18.1931"/>
<polygon fill="midnightblue" stroke="midnightblue" points="38.8547,-598.229 42.404,-608.211 45.8546,-598.194 38.8547,-598.229"/>
</g>
</g>
</svg>
