<?xml version="1.0" encoding="UTF-8" standalone="no"?>
<!DOCTYPE svg PUBLIC "-//W3C//DTD SVG 1.1//EN"
 "http://www.w3.org/Graphics/SVG/1.1/DTD/svg11.dtd">
<!-- Generated by graphviz version 2.38.0 (20140413.2041)
 -->
<!-- Title: Graphical Class Hierarchy Pages: 1 -->
<svg width="187pt" height="484pt"
 viewBox="0.00 0.00 187.00 484.00" xmlns="http://www.w3.org/2000/svg" xmlns:xlink="http://www.w3.org/1999/xlink">
<g id="graph0" class="graph" transform="scale(1 1) rotate(0) translate(4 480)">
<title>Graphical Class Hierarchy</title>
<!-- Node0 -->
<g id="node1" class="node"><title>Node0</title>
<g id="a_node1"><a xlink:href="class_item.html" target="_top" xlink:title="Abstract class for items that can be equipped to a player, increasing some of their stats ...">
<polygon fill="none" stroke="black" points="0,-228.5 0,-247.5 35,-247.5 35,-228.5 0,-228.5"/>
<text text-anchor="middle" x="17.5" y="-235.5" font-family="Helvetica,sans-Serif" font-size="10.00">Item</text>
</a>
</g>
</g>
<!-- Node1 -->
<g id="node2" class="node"><title>Node1</title>
<g id="a_node2"><a xlink:href="class_armour.html" target="_top" xlink:title="An item that increases a player&#39;s attack stat by 2 and defence stat by 3 ">
<polygon fill="none" stroke="black" points="101,-456.5 101,-475.5 149,-475.5 149,-456.5 101,-456.5"/>
<text text-anchor="middle" x="125" y="-463.5" font-family="Helvetica,sans-Serif" font-size="10.00">Armour</text>
</a>
</g>
</g>
<!-- Node0&#45;&gt;Node1 -->
<g id="edge1" class="edge"><title>Node0&#45;&gt;Node1</title>
<path fill="none" stroke="midnightblue" d="M17.689,-257.78C17.1174,-298.52 21.6231,-392.524 71,-447 78.6805,-455.474 90.4111,-460.171 100.885,-462.773"/>
<polygon fill="midnightblue" stroke="midnightblue" points="21.1878,-257.868 17.9518,-247.779 14.1902,-257.684 21.1878,-257.868"/>
</g>
<!-- Node2 -->
<g id="node3" class="node"><title>Node2</title>
<g id="a_node3"><a xlink:href="class_diamond_shield.html" target="_top" xlink:title="An item that increases a player&#39;s defence stat by 10 ">
<polygon fill="none" stroke="black" points="84,-418.5 84,-437.5 166,-437.5 166,-418.5 84,-418.5"/>
<text text-anchor="middle" x="125" y="-425.5" font-family="Helvetica,sans-Serif" font-size="10.00">DiamondShield</text>
</a>
</g>
</g>
<!-- Node0&#45;&gt;Node2 -->
<g id="edge2" class="edge"><title>Node0&#45;&gt;Node2</title>
<path fill="none" stroke="midnightblue" d="M19.0585,-257.966C21.1134,-293.132 30.3472,-366.418 71,-409 74.7124,-412.889 79.276,-415.983 84.1537,-418.446"/>
<polygon fill="midnightblue" stroke="midnightblue" points="22.5387,-257.436 18.6019,-247.6 15.5455,-257.745 22.5387,-257.436"/>
</g>
<!-- Node3 -->
<g id="node4" class="node"><title>Node3</title>
<g id="a_node4"><a xlink:href="class_golden_armour.html" target="_top" xlink:title="An item that increases a player&#39;s attack stat by 5 and defence stat by 7 ">
<polygon fill="none" stroke="black" points="85.5,-380.5 85.5,-399.5 164.5,-399.5 164.5,-380.5 85.5,-380.5"/>
<text text-anchor="middle" x="125" y="-387.5" font-family="Helvetica,sans-Serif" font-size="10.00">GoldenArmour</text>
</a>
</g>
</g>
<!-- Node0&#45;&gt;Node3 -->
<g id="edge3" class="edge"><title>Node0&#45;&gt;Node3</title>
<path fill="none" stroke="midnightblue" d="M21.0702,-257.519C25.8497,-286.21 38.7325,-339.741 71,-371 75.072,-374.945 80.0193,-378.077 85.2365,-380.563"/>
<polygon fill="midnightblue" stroke="midnightblue" points="24.5145,-256.886 19.5688,-247.516 17.5921,-257.925 24.5145,-256.886"/>
</g>
<!-- Node4 -->
<g id="node5" class="node"><title>Node4</title>
<g id="a_node5"><a xlink:href="class_hammer.html" target="_top" xlink:title="An item that increases a player&#39;s attack stat by 5 ">
<polygon fill="none" stroke="black" points="98.5,-342.5 98.5,-361.5 151.5,-361.5 151.5,-342.5 98.5,-342.5"/>
<text text-anchor="middle" x="125" y="-349.5" font-family="Helvetica,sans-Serif" font-size="10.00">Hammer</text>
</a>
</g>
</g>
<!-- Node0&#45;&gt;Node4 -->
<g id="edge4" class="edge"><title>Node0&#45;&gt;Node4</title>
<path fill="none" stroke="midnightblue" d="M24.4592,-257.138C32.0277,-278.467 47.0604,-312.627 71,-333 78.7419,-339.588 88.9405,-343.959 98.3221,-346.827"/>
<polygon fill="midnightblue" stroke="midnightblue" points="27.7455,-255.929 21.2553,-247.555 21.1067,-258.149 27.7455,-255.929"/>
</g>
<!-- Node5 -->
<g id="node6" class="node"><title>Node5</title>
<g id="a_node6"><a xlink:href="class_magic_amulet.html" target="_top" xlink:title="An item that increases a player&#39;s maximum magic points by 3 ">
<polygon fill="none" stroke="black" points="88,-304.5 88,-323.5 162,-323.5 162,-304.5 88,-304.5"/>
<text text-anchor="middle" x="125" y="-311.5" font-family="Helvetica,sans-Serif" font-size="10.00">MagicAmulet</text>
</a>
</g>
</g>
<!-- Node0&#45;&gt;Node5 -->
<g id="edge5" class="edge"><title>Node0&#45;&gt;Node5</title>
<path fill="none" stroke="midnightblue" d="M31.3958,-256.09C41.0678,-268.519 55.2987,-284.593 71,-295 76.7032,-298.78 83.2502,-301.914 89.7531,-304.472"/>
<polygon fill="midnightblue" stroke="midnightblue" points="33.9976,-253.725 25.2029,-247.817 28.3938,-257.92 33.9976,-253.725"/>
</g>
<!-- Node6 -->
<g id="node7" class="node"><title>Node6</title>
<g id="a_node7"><a xlink:href="class_magic_hat.html" target="_top" xlink:title="An item that increases a player&#39;s maximum magic points by 6 ">
<polygon fill="none" stroke="black" points="96,-266.5 96,-285.5 154,-285.5 154,-266.5 96,-266.5"/>
<text text-anchor="middle" x="125" y="-273.5" font-family="Helvetica,sans-Serif" font-size="10.00">MagicHat</text>
</a>
</g>
</g>
<!-- Node0&#45;&gt;Node6 -->
<g id="edge6" class="edge"><title>Node0&#45;&gt;Node6</title>
<path fill="none" stroke="midnightblue" d="M44.7065,-247.502C53.1033,-250.542 62.4419,-253.917 71,-257 79.5526,-260.081 88.8858,-263.43 97.3038,-266.447"/>
<polygon fill="midnightblue" stroke="midnightblue" points="45.6412,-244.118 35.047,-244.003 43.2572,-250.699 45.6412,-244.118"/>
</g>
<!-- Node7 -->
<g id="node8" class="node"><title>Node7</title>
<g id="a_node8"><a xlink:href="class_magic_sword.html" target="_top" xlink:title="An item that increases a player&#39;s attack stat by 25 ">
<polygon fill="none" stroke="black" points="90,-228.5 90,-247.5 160,-247.5 160,-228.5 90,-228.5"/>
<text text-anchor="middle" x="125" y="-235.5" font-family="Helvetica,sans-Serif" font-size="10.00">MagicSword</text>
</a>
</g>
</g>
<!-- Node0&#45;&gt;Node7 -->
<g id="edge7" class="edge"><title>Node0&#45;&gt;Node7</title>
<path fill="none" stroke="midnightblue" d="M45.4894,-238C58.9154,-238 75.2923,-238 89.6082,-238"/>
<polygon fill="midnightblue" stroke="midnightblue" points="45.4504,-234.5 35.4504,-238 45.4504,-241.5 45.4504,-234.5"/>
</g>
<!-- Node8 -->
<g id="node9" class="node"><title>Node8</title>
<g id="a_node9"><a xlink:href="class_nikes_premium_shoes.html" target="_top" xlink:title="An item that increases a player&#39;s speed stat by 10 ">
<polygon fill="none" stroke="black" points="71,-190.5 71,-209.5 179,-209.5 179,-190.5 71,-190.5"/>
<text text-anchor="middle" x="125" y="-197.5" font-family="Helvetica,sans-Serif" font-size="10.00">NikesPremiumShoes</text>
</a>
</g>
</g>
<!-- Node0&#45;&gt;Node8 -->
<g id="edge8" class="edge"><title>Node0&#45;&gt;Node8</title>
<path fill="none" stroke="midnightblue" d="M44.7065,-228.498C53.1033,-225.458 62.4419,-222.083 71,-219 79.5526,-215.919 88.8858,-212.57 97.3038,-209.553"/>
<polygon fill="midnightblue" stroke="midnightblue" points="43.2572,-225.301 35.047,-231.997 45.6412,-231.882 43.2572,-225.301"/>
</g>
<!-- Node9 -->
<g id="node10" class="node"><title>Node9</title>
<g id="a_node10"><a xlink:href="class_rabbit_carcass.html" target="_top" xlink:title="An item that increases a player&#39;s luck stat by 10 ">
<polygon fill="none" stroke="black" points="85,-152.5 85,-171.5 165,-171.5 165,-152.5 85,-152.5"/>
<text text-anchor="middle" x="125" y="-159.5" font-family="Helvetica,sans-Serif" font-size="10.00">RabbitCarcass</text>
</a>
</g>
</g>
<!-- Node0&#45;&gt;Node9 -->
<g id="edge9" class="edge"><title>Node0&#45;&gt;Node9</title>
<path fill="none" stroke="midnightblue" d="M31.3958,-219.91C41.0678,-207.481 55.2987,-191.407 71,-181 76.7032,-177.22 83.2502,-174.086 89.7531,-171.528"/>
<polygon fill="midnightblue" stroke="midnightblue" points="28.3938,-218.08 25.2029,-228.183 33.9976,-222.275 28.3938,-218.08"/>
</g>
<!-- Node10 -->
<g id="node11" class="node"><title>Node10</title>
<g id="a_node11"><a xlink:href="class_rabbit_foot.html" target="_top" xlink:title="An item that increases a player&#39;s luck stat by 5 ">
<polygon fill="none" stroke="black" points="93,-114.5 93,-133.5 157,-133.5 157,-114.5 93,-114.5"/>
<text text-anchor="middle" x="125" y="-121.5" font-family="Helvetica,sans-Serif" font-size="10.00">RabbitFoot</text>
</a>
</g>
</g>
<!-- Node0&#45;&gt;Node10 -->
<g id="edge10" class="edge"><title>Node0&#45;&gt;Node10</title>
<path fill="none" stroke="midnightblue" d="M24.4592,-218.862C32.0277,-197.533 47.0604,-163.373 71,-143 77.253,-137.679 85.1088,-133.804 92.8423,-130.999"/>
<polygon fill="midnightblue" stroke="midnightblue" points="21.1067,-217.851 21.2553,-228.445 27.7455,-220.071 21.1067,-217.851"/>
</g>
<!-- Node11 -->
<g id="node12" class="node"><title>Node11</title>
<g id="a_node12"><a xlink:href="class_shield.html" target="_top" xlink:title="An item that increases a player&#39;s defence stat by 5 ">
<polygon fill="none" stroke="black" points="103,-76.5 103,-95.5 147,-95.5 147,-76.5 103,-76.5"/>
<text text-anchor="middle" x="125" y="-83.5" font-family="Helvetica,sans-Serif" font-size="10.00">Shield</text>
</a>
</g>
</g>
<!-- Node0&#45;&gt;Node11 -->
<g id="edge11" class="edge"><title>Node0&#45;&gt;Node11</title>
<path fill="none" stroke="midnightblue" d="M21.0702,-218.481C25.8497,-189.79 38.7325,-136.259 71,-105 79.6354,-96.6345 92.2078,-91.9215 102.94,-89.2825"/>
<polygon fill="midnightblue" stroke="midnightblue" points="17.5921,-218.075 19.5688,-228.484 24.5145,-219.114 17.5921,-218.075"/>
</g>
<!-- Node12 -->
<g id="node13" class="node"><title>Node12</title>
<g id="a_node13"><a xlink:href="class_sword.html" target="_top" xlink:title="An item that increases a player&#39;s attack stat by 10 ">
<polygon fill="none" stroke="black" points="103,-38.5 103,-57.5 147,-57.5 147,-38.5 103,-38.5"/>
<text text-anchor="middle" x="125" y="-45.5" font-family="Helvetica,sans-Serif" font-size="10.00">Sword</text>
</a>
</g>
</g>
<!-- Node0&#45;&gt;Node12 -->
<g id="edge12" class="edge"><title>Node0&#45;&gt;Node12</title>
<path fill="none" stroke="midnightblue" d="M19.0585,-218.034C21.1134,-182.868 30.3472,-109.582 71,-67 79.3698,-58.2331 92.0662,-53.5014 102.934,-50.9526"/>
<polygon fill="midnightblue" stroke="midnightblue" points="15.5455,-218.255 18.6019,-228.4 22.5387,-218.564 15.5455,-218.255"/>
</g>
<!-- Node13 -->
<g id="node14" class="node"><title>Node13</title>
<g id="a_node14"><a xlink:href="class_trainers.html" target="_top" xlink:title="An item that increases a player&#39;s speed stat by 5 ">
<polygon fill="none" stroke="black" points="99.5,-0.5 99.5,-19.5 150.5,-19.5 150.5,-0.5 99.5,-0.5"/>
<text text-anchor="middle" x="125" y="-7.5" font-family="Helvetica,sans-Serif" font-size="10.00">Trainers</text>
</a>
</g>
</g>
<!-- Node0&#45;&gt;Node13 -->
<g id="edge13" class="edge"><title>Node0&#45;&gt;Node13</title>
<path fill="none" stroke="midnightblue" d="M17.689,-218.22C17.1174,-177.48 21.6231,-83.4757 71,-29 78.2867,-20.9609 89.2186,-16.3211 99.2648,-13.6442"/>
<polygon fill="midnightblue" stroke="midnightblue" points="14.1902,-218.316 17.9518,-228.221 21.1878,-218.132 14.1902,-218.316"/>
</g>
</g>
</svg>
