<?xml version="1.0" encoding="UTF-8" standalone="no"?>
<!DOCTYPE svg PUBLIC "-//W3C//DTD SVG 1.1//EN"
 "http://www.w3.org/Graphics/SVG/1.1/DTD/svg11.dtd">
<!-- Generated by graphviz version 2.38.0 (20140413.2041)
 -->
<!-- Title: Graphical Class Hierarchy Pages: 1 -->
<svg width="242pt" height="1320pt"
 viewBox="0.00 0.00 242.00 1320.00" xmlns="http://www.w3.org/2000/svg" xmlns:xlink="http://www.w3.org/1999/xlink">
<g id="graph0" class="graph" transform="scale(1 1) rotate(0) translate(4 1316)">
<title>Graphical Class Hierarchy</title>
<!-- Node0 -->
<g id="node1" class="node"><title>Node0</title>
<g id="a_node1"><a xlink:href="class_mono_behaviour.html" target="_top" xlink:title="MonoBehaviour">
<polygon fill="none" stroke="black" points="0,-646.5 0,-665.5 83,-665.5 83,-646.5 0,-646.5"/>
<text text-anchor="middle" x="41.5" y="-653.5" font-family="Helvetica,sans-Serif" font-size="10.00">MonoBehaviour</text>
</a>
</g>
</g>
<!-- Node1 -->
<g id="node2" class="node"><title>Node1</title>
<g id="a_node2"><a xlink:href="class_battle_buttons.html" target="_top" xlink:title="Script to handle the function of the Attack Button in the Battle Scene">
<polygon fill="none" stroke="black" points="138.5,-1292.5 138.5,-1311.5 214.5,-1311.5 214.5,-1292.5 138.5,-1292.5"/>
<text text-anchor="middle" x="176.5" y="-1299.5" font-family="Helvetica,sans-Serif" font-size="10.00">BattleButtons</text>
</a>
</g>
</g>
<!-- Node0&#45;&gt;Node1 -->
<g id="edge1" class="edge"><title>Node0&#45;&gt;Node1</title>
<path fill="none" stroke="midnightblue" d="M42.1771,-676.086C41.0286,-772.491 40.7685,-1187.03 119,-1283 123.969,-1289.1 130.968,-1293.25 138.352,-1296.07"/>
<polygon fill="midnightblue" stroke="midnightblue" points="45.6786,-675.996 42.3164,-665.949 38.6793,-675.9 45.6786,-675.996"/>
</g>
<!-- Node2 -->
<g id="node3" class="node"><title>Node2</title>
<g id="a_node3"><a xlink:href="class_battle_descriptor.html" target="_top" xlink:title="A component that be added to an object to describe the parameters of a battle from within the Unity E...">
<polygon fill="none" stroke="black" points="133.5,-1254.5 133.5,-1273.5 219.5,-1273.5 219.5,-1254.5 133.5,-1254.5"/>
<text text-anchor="middle" x="176.5" y="-1261.5" font-family="Helvetica,sans-Serif" font-size="10.00">BattleDescriptor</text>
</a>
</g>
</g>
<!-- Node0&#45;&gt;Node2 -->
<g id="edge2" class="edge"><title>Node0&#45;&gt;Node2</title>
<path fill="none" stroke="midnightblue" d="M42.3536,-676.022C42.0737,-768.71 45.3962,-1155.41 119,-1245 122.81,-1249.64 127.794,-1253.15 133.225,-1255.81"/>
<polygon fill="midnightblue" stroke="midnightblue" points="45.8546,-675.806 42.404,-665.789 38.8547,-675.771 45.8546,-675.806"/>
</g>
<!-- Node3 -->
<g id="node4" class="node"><title>Node3</title>
<g id="a_node4"><a xlink:href="class_biology_script.html" target="_top" xlink:title="BiologyScript">
<polygon fill="none" stroke="black" points="139.5,-1216.5 139.5,-1235.5 213.5,-1235.5 213.5,-1216.5 139.5,-1216.5"/>
<text text-anchor="middle" x="176.5" y="-1223.5" font-family="Helvetica,sans-Serif" font-size="10.00">BiologyScript</text>
</a>
</g>
</g>
<!-- Node0&#45;&gt;Node3 -->
<g id="edge3" class="edge"><title>Node0&#45;&gt;Node3</title>
<path fill="none" stroke="midnightblue" d="M42.5516,-675.837C43.1747,-764.498 49.9835,-1123.75 119,-1207 124.218,-1213.29 131.596,-1217.51 139.304,-1220.34"/>
<polygon fill="midnightblue" stroke="midnightblue" points="46.0504,-675.563 42.5,-665.581 39.0505,-675.599 46.0504,-675.563"/>
</g>
<!-- Node4 -->
<g id="node5" class="node"><title>Node4</title>
<g id="a_node5"><a xlink:href="class_camera_controller.html" target="_top" xlink:title="Script to move the camera around so that it follows the player">
<polygon fill="none" stroke="black" points="130.5,-1178.5 130.5,-1197.5 222.5,-1197.5 222.5,-1178.5 130.5,-1178.5"/>
<text text-anchor="middle" x="176.5" y="-1185.5" font-family="Helvetica,sans-Serif" font-size="10.00">CameraController</text>
</a>
</g>
</g>
<!-- Node0&#45;&gt;Node4 -->
<g id="edge4" class="edge"><title>Node0&#45;&gt;Node4</title>
<path fill="none" stroke="midnightblue" d="M42.7772,-675.811C44.353,-760.601 54.6022,-1092.11 119,-1169 122.256,-1172.89 126.335,-1175.98 130.804,-1178.45"/>
<polygon fill="midnightblue" stroke="midnightblue" points="46.2755,-675.672 42.6104,-665.731 39.2764,-675.788 46.2755,-675.672"/>
</g>
<!-- Node5 -->
<g id="node6" class="node"><title>Node5</title>
<g id="a_node6"><a xlink:href="class_canvas_script.html" target="_top" xlink:title="Added to a canvas holding the dialogue elements to ensure it&#39;s not destroyed when a new scene is crea...">
<polygon fill="none" stroke="black" points="139.5,-1140.5 139.5,-1159.5 213.5,-1159.5 213.5,-1140.5 139.5,-1140.5"/>
<text text-anchor="middle" x="176.5" y="-1147.5" font-family="Helvetica,sans-Serif" font-size="10.00">CanvasScript</text>
</a>
</g>
</g>
<!-- Node0&#45;&gt;Node5 -->
<g id="edge5" class="edge"><title>Node0&#45;&gt;Node5</title>
<path fill="none" stroke="midnightblue" d="M43.0481,-676.122C45.6554,-757.408 59.2919,-1060.55 119,-1131 124.286,-1137.24 131.69,-1141.43 139.401,-1144.26"/>
<polygon fill="midnightblue" stroke="midnightblue" points="46.5366,-675.684 42.7393,-665.793 39.5398,-675.893 46.5366,-675.684"/>
</g>
<!-- Node6 -->
<g id="node7" class="node"><title>Node6</title>
<g id="a_node7"><a xlink:href="class_car_controller.html" target="_top" xlink:title="A controller to controll the sataus of the minigame and most of its components ">
<polygon fill="none" stroke="black" points="140,-1102.5 140,-1121.5 213,-1121.5 213,-1102.5 140,-1102.5"/>
<text text-anchor="middle" x="176.5" y="-1109.5" font-family="Helvetica,sans-Serif" font-size="10.00">CarController</text>
</a>
</g>
</g>
<!-- Node0&#45;&gt;Node6 -->
<g id="edge6" class="edge"><title>Node0&#45;&gt;Node6</title>
<path fill="none" stroke="midnightblue" d="M43.3511,-675.975C47.016,-752.893 63.854,-1028.82 119,-1093 124.396,-1099.28 131.937,-1103.49 139.755,-1106.31"/>
<polygon fill="midnightblue" stroke="midnightblue" points="46.8373,-675.589 42.8875,-665.758 39.8445,-675.907 46.8373,-675.589"/>
</g>
<!-- Node7 -->
<g id="node8" class="node"><title>Node7</title>
<g id="a_node8"><a xlink:href="class_car_script.html" target="_top" xlink:title="A script to control the cars for the minigame ">
<polygon fill="none" stroke="black" points="148,-1064.5 148,-1083.5 205,-1083.5 205,-1064.5 148,-1064.5"/>
<text text-anchor="middle" x="176.5" y="-1071.5" font-family="Helvetica,sans-Serif" font-size="10.00">CarScript</text>
</a>
</g>
</g>
<!-- Node0&#45;&gt;Node7 -->
<g id="edge7" class="edge"><title>Node0&#45;&gt;Node7</title>
<path fill="none" stroke="midnightblue" d="M43.6923,-675.618C48.453,-747.74 68.3527,-997.01 119,-1055 126.284,-1063.34 137.35,-1068.03 147.763,-1070.66"/>
<polygon fill="midnightblue" stroke="midnightblue" points="47.1842,-675.378 43.0559,-665.62 40.1984,-675.823 47.1842,-675.378"/>
</g>
<!-- Node8 -->
<g id="node9" class="node"><title>Node8</title>
<g id="a_node9"><a xlink:href="class_car_spawner.html" target="_top" xlink:title="A car spawner to spawn cars when triggered by a controller and give the correct variable to the car ...">
<polygon fill="none" stroke="black" points="142,-1026.5 142,-1045.5 211,-1045.5 211,-1026.5 142,-1026.5"/>
<text text-anchor="middle" x="176.5" y="-1033.5" font-family="Helvetica,sans-Serif" font-size="10.00">CarSpawner</text>
</a>
</g>
</g>
<!-- Node0&#45;&gt;Node8 -->
<g id="edge8" class="edge"><title>Node0&#45;&gt;Node8</title>
<path fill="none" stroke="midnightblue" d="M44.1486,-675.898C50.1572,-743.844 72.9815,-965.33 119,-1017 124.988,-1023.72 133.432,-1028.07 141.97,-1030.88"/>
<polygon fill="midnightblue" stroke="midnightblue" points="47.6166,-675.374 43.2734,-665.71 40.6422,-675.973 47.6166,-675.374"/>
</g>
<!-- Node9 -->
<g id="node10" class="node"><title>Node9</title>
<g id="a_node10"><a xlink:href="class_container_data.html" target="_top" xlink:title="An attribute to store information for a container in the item menu ">
<polygon fill="none" stroke="black" points="137.5,-988.5 137.5,-1007.5 215.5,-1007.5 215.5,-988.5 137.5,-988.5"/>
<text text-anchor="middle" x="176.5" y="-995.5" font-family="Helvetica,sans-Serif" font-size="10.00">ContainerData</text>
</a>
</g>
</g>
<!-- Node0&#45;&gt;Node9 -->
<g id="edge9" class="edge"><title>Node0&#45;&gt;Node9</title>
<path fill="none" stroke="midnightblue" d="M44.677,-675.816C51.9794,-738.89 77.5046,-933.507 119,-979 123.952,-984.429 130.503,-988.308 137.385,-991.079"/>
<polygon fill="midnightblue" stroke="midnightblue" points="48.1273,-675.179 43.5258,-665.635 41.1716,-675.965 48.1273,-675.179"/>
</g>
<!-- Node10 -->
<g id="node11" class="node"><title>Node10</title>
<g id="a_node11"><a xlink:href="class_dialogue_script.html" target="_top" xlink:title="Script to show dialogue, as well as step through multiple lines and close afterwards ...">
<polygon fill="none" stroke="black" points="136.5,-950.5 136.5,-969.5 216.5,-969.5 216.5,-950.5 136.5,-950.5"/>
<text text-anchor="middle" x="176.5" y="-957.5" font-family="Helvetica,sans-Serif" font-size="10.00">DialogueScript</text>
</a>
</g>
</g>
<!-- Node0&#45;&gt;Node10 -->
<g id="edge10" class="edge"><title>Node0&#45;&gt;Node10</title>
<path fill="none" stroke="midnightblue" d="M41.8398,-675.944C41.2618,-727.091 46.9083,-864.282 119,-941 123.748,-946.053 129.881,-949.762 136.348,-952.485"/>
<polygon fill="midnightblue" stroke="midnightblue" points="45.3457,-675.7 42.0597,-665.628 38.3473,-675.551 45.3457,-675.7"/>
</g>
<!-- Node11 -->
<g id="node12" class="node"><title>Node11</title>
<g id="a_node12"><a xlink:href="class_display_chosen.html" target="_top" xlink:title="DisplayChosen">
<polygon fill="none" stroke="black" points="135.5,-912.5 135.5,-931.5 217.5,-931.5 217.5,-912.5 135.5,-912.5"/>
<text text-anchor="middle" x="176.5" y="-919.5" font-family="Helvetica,sans-Serif" font-size="10.00">DisplayChosen</text>
</a>
</g>
</g>
<!-- Node0&#45;&gt;Node11 -->
<g id="edge11" class="edge"><title>Node0&#45;&gt;Node11</title>
<path fill="none" stroke="midnightblue" d="M42.8229,-675.748C44.6578,-721.964 55.689,-838.147 119,-903 123.554,-907.665 129.289,-911.185 135.347,-913.841"/>
<polygon fill="midnightblue" stroke="midnightblue" points="46.3165,-675.473 42.5284,-665.579 39.3195,-675.676 46.3165,-675.473"/>
</g>
<!-- Node12 -->
<g id="node13" class="node"><title>Node12</title>
<g id="a_node13"><a xlink:href="class_end_script.html" target="_top" xlink:title="EndScript">
<polygon fill="none" stroke="black" points="147,-874.5 147,-893.5 206,-893.5 206,-874.5 147,-874.5"/>
<text text-anchor="middle" x="176.5" y="-881.5" font-family="Helvetica,sans-Serif" font-size="10.00">EndScript</text>
</a>
</g>
</g>
<!-- Node0&#45;&gt;Node12 -->
<g id="edge12" class="edge"><title>Node0&#45;&gt;Node12</title>
<path fill="none" stroke="midnightblue" d="M44.16,-676.023C48.6397,-717.216 64.5999,-812.022 119,-865 126.562,-872.365 137.068,-876.877 146.971,-879.641"/>
<polygon fill="midnightblue" stroke="midnightblue" points="47.6278,-675.521 43.1785,-665.905 40.6605,-676.197 47.6278,-675.521"/>
</g>
<!-- Node13 -->
<g id="node14" class="node"><title>Node13</title>
<g id="a_node14"><a xlink:href="class_exploration_menu_script.html" target="_top" xlink:title="A script to manage the exploration menu that the user can call up at anytime ">
<polygon fill="none" stroke="black" points="119,-836.5 119,-855.5 234,-855.5 234,-836.5 119,-836.5"/>
<text text-anchor="middle" x="176.5" y="-843.5" font-family="Helvetica,sans-Serif" font-size="10.00">ExplorationMenuScript</text>
</a>
</g>
</g>
<!-- Node0&#45;&gt;Node13 -->
<g id="edge13" class="edge"><title>Node0&#45;&gt;Node13</title>
<path fill="none" stroke="midnightblue" d="M45.9655,-675.733C53.1898,-711.078 73.1588,-785.372 119,-827 123.29,-830.896 128.407,-833.997 133.784,-836.464"/>
<polygon fill="midnightblue" stroke="midnightblue" points="49.3662,-674.882 44.0511,-665.717 42.4907,-676.197 49.3662,-674.882"/>
</g>
<!-- Node14 -->
<g id="node15" class="node"><title>Node14</title>
<g id="a_node15"><a xlink:href="class_global_functions.html" target="_top" xlink:title="Provides functions and variables to be accessed by any game object to allow data to be passed between...">
<polygon fill="none" stroke="black" points="133,-798.5 133,-817.5 220,-817.5 220,-798.5 133,-798.5"/>
<text text-anchor="middle" x="176.5" y="-805.5" font-family="Helvetica,sans-Serif" font-size="10.00">GlobalFunctions</text>
</a>
</g>
</g>
<!-- Node0&#45;&gt;Node14 -->
<g id="edge14" class="edge"><title>Node0&#45;&gt;Node14</title>
<path fill="none" stroke="midnightblue" d="M48.6192,-675.317C58.7139,-704.143 81.5514,-758.305 119,-789 123.722,-792.871 129.269,-795.966 135.009,-798.439"/>
<polygon fill="midnightblue" stroke="midnightblue" points="51.8636,-673.983 45.3703,-665.611 45.2256,-676.205 51.8636,-673.983"/>
</g>
<!-- Node15 -->
<g id="node16" class="node"><title>Node15</title>
<g id="a_node16"><a xlink:href="class_healing_station.html" target="_top" xlink:title="A script describing a healing station, where all player&#39;s health and magic are restored ...">
<polygon fill="none" stroke="black" points="136.5,-760.5 136.5,-779.5 216.5,-779.5 216.5,-760.5 136.5,-760.5"/>
<text text-anchor="middle" x="176.5" y="-767.5" font-family="Helvetica,sans-Serif" font-size="10.00">HealingStation</text>
</a>
</g>
</g>
<!-- Node0&#45;&gt;Node15 -->
<g id="edge15" class="edge"><title>Node0&#45;&gt;Node15</title>
<path fill="none" stroke="midnightblue" d="M52.8044,-674.33C65.6759,-695.649 89.6215,-730.527 119,-751 124.519,-754.846 130.878,-757.964 137.294,-760.475"/>
<polygon fill="midnightblue" stroke="midnightblue" points="55.7612,-672.453 47.69,-665.59 49.7194,-675.988 55.7612,-672.453"/>
</g>
<!-- Node16 -->
<g id="node17" class="node"><title>Node16</title>
<g id="a_node17"><a xlink:href="class_items_menu_script.html" target="_top" xlink:title="Controls all initialisation of menu and updates arrays when an item is moved ">
<polygon fill="none" stroke="black" points="131.5,-722.5 131.5,-741.5 221.5,-741.5 221.5,-722.5 131.5,-722.5"/>
<text text-anchor="middle" x="176.5" y="-729.5" font-family="Helvetica,sans-Serif" font-size="10.00">ItemsMenuScript</text>
</a>
</g>
</g>
<!-- Node0&#45;&gt;Node16 -->
<g id="edge16" class="edge"><title>Node0&#45;&gt;Node16</title>
<path fill="none" stroke="midnightblue" d="M61.0363,-672.455C75.8721,-684.947 97.6581,-701.825 119,-713 125.968,-716.649 133.778,-719.805 141.316,-722.441"/>
<polygon fill="midnightblue" stroke="midnightblue" points="63.0246,-669.549 53.1602,-665.683 58.4608,-674.857 63.0246,-669.549"/>
</g>
<!-- Node17 -->
<g id="node18" class="node"><title>Node17</title>
<g id="a_node18"><a xlink:href="class_level_manager.html" target="_top" xlink:title="A script used to check and handle when a level is beat by defeating the final boss ...">
<polygon fill="none" stroke="black" points="138.5,-684.5 138.5,-703.5 214.5,-703.5 214.5,-684.5 138.5,-684.5"/>
<text text-anchor="middle" x="176.5" y="-691.5" font-family="Helvetica,sans-Serif" font-size="10.00">LevelManager</text>
</a>
</g>
</g>
<!-- Node0&#45;&gt;Node17 -->
<g id="edge17" class="edge"><title>Node0&#45;&gt;Node17</title>
<path fill="none" stroke="midnightblue" d="M85.8669,-668.391C104.081,-673.594 124.939,-679.554 141.949,-684.414"/>
<polygon fill="midnightblue" stroke="midnightblue" points="86.6383,-664.971 76.0615,-665.589 84.7152,-671.702 86.6383,-664.971"/>
</g>
<!-- Node18 -->
<g id="node19" class="node"><title>Node18</title>
<g id="a_node19"><a xlink:href="class_main_battle.html" target="_top" xlink:title="Script for handing a battle scene. Uses BattleManager, but handles turn order and execution as well a...">
<polygon fill="none" stroke="black" points="145,-646.5 145,-665.5 208,-665.5 208,-646.5 145,-646.5"/>
<text text-anchor="middle" x="176.5" y="-653.5" font-family="Helvetica,sans-Serif" font-size="10.00">MainBattle</text>
</a>
</g>
</g>
<!-- Node0&#45;&gt;Node18 -->
<g id="edge18" class="edge"><title>Node0&#45;&gt;Node18</title>
<path fill="none" stroke="midnightblue" d="M93.1585,-656C110.564,-656 129.507,-656 144.831,-656"/>
<polygon fill="midnightblue" stroke="midnightblue" points="93.1271,-652.5 83.1271,-656 93.127,-659.5 93.1271,-652.5"/>
</g>
<!-- Node19 -->
<g id="node20" class="node"><title>Node19</title>
<g id="a_node20"><a xlink:href="class_menu_script.html" target="_top" xlink:title="Script to handle the main menu ">
<polygon fill="none" stroke="black" points="143.5,-608.5 143.5,-627.5 209.5,-627.5 209.5,-608.5 143.5,-608.5"/>
<text text-anchor="middle" x="176.5" y="-615.5" font-family="Helvetica,sans-Serif" font-size="10.00">MenuScript</text>
</a>
</g>
</g>
<!-- Node0&#45;&gt;Node19 -->
<g id="edge19" class="edge"><title>Node0&#45;&gt;Node19</title>
<path fill="none" stroke="midnightblue" d="M85.8399,-643.617C104.554,-638.27 126.065,-632.124 143.326,-627.193"/>
<polygon fill="midnightblue" stroke="midnightblue" points="84.7152,-640.298 76.0615,-646.411 86.6383,-647.029 84.7152,-640.298"/>
</g>
<!-- Node20 -->
<g id="node21" class="node"><title>Node20</title>
<g id="a_node21"><a xlink:href="class_mini_move.html" target="_top" xlink:title="The movement for the minigame character, includes movement and progression control ...">
<polygon fill="none" stroke="black" points="148,-570.5 148,-589.5 205,-589.5 205,-570.5 148,-570.5"/>
<text text-anchor="middle" x="176.5" y="-577.5" font-family="Helvetica,sans-Serif" font-size="10.00">MiniMove</text>
</a>
</g>
</g>
<!-- Node0&#45;&gt;Node20 -->
<g id="edge20" class="edge"><title>Node0&#45;&gt;Node20</title>
<path fill="none" stroke="midnightblue" d="M61.0363,-639.545C75.8721,-627.053 97.6581,-610.175 119,-599 127.985,-594.295 138.37,-590.408 147.767,-587.402"/>
<polygon fill="midnightblue" stroke="midnightblue" points="58.4608,-637.143 53.1602,-646.317 63.0246,-642.451 58.4608,-637.143"/>
</g>
<!-- Node21 -->
<g id="node22" class="node"><title>Node21</title>
<g id="a_node22"><a xlink:href="class_object_interaction.html" target="_top" xlink:title="A component to add to collider relating to an object that can interact with the player by pressing th...">
<polygon fill="none" stroke="black" points="131.5,-532.5 131.5,-551.5 221.5,-551.5 221.5,-532.5 131.5,-532.5"/>
<text text-anchor="middle" x="176.5" y="-539.5" font-family="Helvetica,sans-Serif" font-size="10.00">ObjectInteraction</text>
</a>
</g>
</g>
<!-- Node0&#45;&gt;Node21 -->
<g id="edge21" class="edge"><title>Node0&#45;&gt;Node21</title>
<path fill="none" stroke="midnightblue" d="M52.8044,-637.67C65.6759,-616.351 89.6215,-581.473 119,-561 124.519,-557.154 130.878,-554.036 137.294,-551.525"/>
<polygon fill="midnightblue" stroke="midnightblue" points="49.7194,-636.012 47.69,-646.41 55.7612,-639.547 49.7194,-636.012"/>
</g>
<!-- Node22 -->
<g id="node23" class="node"><title>Node22</title>
<g id="a_node23"><a xlink:href="class_player_data.html" target="_top" xlink:title="A monobehaviour object to house an instance of DataManager so it can be called by other objects ...">
<polygon fill="none" stroke="black" points="144,-494.5 144,-513.5 209,-513.5 209,-494.5 144,-494.5"/>
<text text-anchor="middle" x="176.5" y="-501.5" font-family="Helvetica,sans-Serif" font-size="10.00">PlayerData</text>
</a>
</g>
</g>
<!-- Node0&#45;&gt;Node22 -->
<g id="edge22" class="edge"><title>Node0&#45;&gt;Node22</title>
<path fill="none" stroke="midnightblue" d="M48.6192,-636.683C58.7139,-607.857 81.5514,-553.695 119,-523 126.123,-517.161 135.123,-513.086 143.832,-510.253"/>
<polygon fill="midnightblue" stroke="midnightblue" points="45.2256,-635.795 45.3703,-646.389 51.8636,-638.017 45.2256,-635.795"/>
</g>
<!-- Node23 -->
<g id="node24" class="node"><title>Node23</title>
<g id="a_node24"><a xlink:href="class_player_menu.html" target="_top" xlink:title="Script for controlling the menu which allows users to switch the order of their team members ...">
<polygon fill="none" stroke="black" points="142.5,-456.5 142.5,-475.5 210.5,-475.5 210.5,-456.5 142.5,-456.5"/>
<text text-anchor="middle" x="176.5" y="-463.5" font-family="Helvetica,sans-Serif" font-size="10.00">PlayerMenu</text>
</a>
</g>
</g>
<!-- Node0&#45;&gt;Node23 -->
<g id="edge23" class="edge"><title>Node0&#45;&gt;Node23</title>
<path fill="none" stroke="midnightblue" d="M45.9655,-636.267C53.1898,-600.922 73.1588,-526.628 119,-485 125.512,-479.086 133.929,-475.005 142.267,-472.191"/>
<polygon fill="midnightblue" stroke="midnightblue" points="42.4907,-635.803 44.0511,-646.283 49.3662,-637.118 42.4907,-635.803"/>
</g>
<!-- Node24 -->
<g id="node25" class="node"><title>Node24</title>
<g id="a_node25"><a xlink:href="class_player_movement.html" target="_top" xlink:title="A script to control the movement and animations of the player">
<polygon fill="none" stroke="black" points="132,-418.5 132,-437.5 221,-437.5 221,-418.5 132,-418.5"/>
<text text-anchor="middle" x="176.5" y="-425.5" font-family="Helvetica,sans-Serif" font-size="10.00">PlayerMovement</text>
</a>
</g>
</g>
<!-- Node0&#45;&gt;Node24 -->
<g id="edge24" class="edge"><title>Node0&#45;&gt;Node24</title>
<path fill="none" stroke="midnightblue" d="M44.16,-635.977C48.6397,-594.784 64.5999,-499.978 119,-447 123.004,-443.101 127.832,-440.002 132.959,-437.538"/>
<polygon fill="midnightblue" stroke="midnightblue" points="40.6605,-635.803 43.1785,-646.095 47.6278,-636.479 40.6605,-635.803"/>
</g>
<!-- Node25 -->
<g id="node26" class="node"><title>Node25</title>
<g id="a_node26"><a xlink:href="class_portal.html" target="_top" xlink:title="A component to add to an object, such as when the player touches it they are teleported to a new scen...">
<polygon fill="none" stroke="black" points="155.5,-380.5 155.5,-399.5 197.5,-399.5 197.5,-380.5 155.5,-380.5"/>
<text text-anchor="middle" x="176.5" y="-387.5" font-family="Helvetica,sans-Serif" font-size="10.00">Portal</text>
</a>
</g>
</g>
<!-- Node0&#45;&gt;Node25 -->
<g id="edge25" class="edge"><title>Node0&#45;&gt;Node25</title>
<path fill="none" stroke="midnightblue" d="M42.8229,-636.252C44.6578,-590.036 55.689,-473.853 119,-409 128.543,-399.225 143.266,-394.479 155.29,-392.175"/>
<polygon fill="midnightblue" stroke="midnightblue" points="39.3195,-636.324 42.5284,-646.421 46.3165,-636.527 39.3195,-636.324"/>
</g>
<!-- Node26 -->
<g id="node27" class="node"><title>Node26</title>
<g id="a_node27"><a xlink:href="class_q_manager_obj.html" target="_top" xlink:title="A Unity Object to house the QuestManager for easy access from other scripts ">
<polygon fill="none" stroke="black" points="138,-342.5 138,-361.5 215,-361.5 215,-342.5 138,-342.5"/>
<text text-anchor="middle" x="176.5" y="-349.5" font-family="Helvetica,sans-Serif" font-size="10.00">QManagerObj</text>
</a>
</g>
</g>
<!-- Node0&#45;&gt;Node26 -->
<g id="edge26" class="edge"><title>Node0&#45;&gt;Node26</title>
<path fill="none" stroke="midnightblue" d="M41.8398,-636.056C41.2618,-584.909 46.9083,-447.718 119,-371 124.102,-365.57 130.804,-361.692 137.802,-358.921"/>
<polygon fill="midnightblue" stroke="midnightblue" points="38.3473,-636.449 42.0597,-646.372 45.3457,-636.3 38.3473,-636.449"/>
</g>
<!-- Node27 -->
<g id="node28" class="node"><title>Node27</title>
<g id="a_node28"><a xlink:href="class_quest_instances.html" target="_top" xlink:title="A class storing all the pre&#45;defined quests that the user can choose from ">
<polygon fill="none" stroke="black" points="134,-304.5 134,-323.5 219,-323.5 219,-304.5 134,-304.5"/>
<text text-anchor="middle" x="176.5" y="-311.5" font-family="Helvetica,sans-Serif" font-size="10.00">QuestInstances</text>
</a>
</g>
</g>
<!-- Node0&#45;&gt;Node27 -->
<g id="edge27" class="edge"><title>Node0&#45;&gt;Node27</title>
<path fill="none" stroke="midnightblue" d="M44.677,-636.184C51.9794,-573.11 77.5046,-378.493 119,-333 123.115,-328.489 128.334,-325.048 133.93,-322.423"/>
<polygon fill="midnightblue" stroke="midnightblue" points="41.1716,-636.035 43.5258,-646.365 48.1273,-636.821 41.1716,-636.035"/>
</g>
<!-- Node28 -->
<g id="node29" class="node"><title>Node28</title>
<g id="a_node29"><a xlink:href="class_quest_selection_script.html" target="_top" xlink:title="QuestSelectionScript">
<polygon fill="none" stroke="black" points="122,-266.5 122,-285.5 231,-285.5 231,-266.5 122,-266.5"/>
<text text-anchor="middle" x="176.5" y="-273.5" font-family="Helvetica,sans-Serif" font-size="10.00">QuestSelectionScript</text>
</a>
</g>
</g>
<!-- Node0&#45;&gt;Node28 -->
<g id="edge28" class="edge"><title>Node0&#45;&gt;Node28</title>
<path fill="none" stroke="midnightblue" d="M44.1486,-636.102C50.1572,-568.156 72.9815,-346.67 119,-295 122.441,-291.136 126.694,-288.056 131.309,-285.603"/>
<polygon fill="midnightblue" stroke="midnightblue" points="40.6422,-636.027 43.2734,-646.29 47.6166,-636.626 40.6422,-636.027"/>
</g>
<!-- Node29 -->
<g id="node30" class="node"><title>Node29</title>
<g id="a_node30"><a xlink:href="class_random_test.html" target="_top" xlink:title="RandomTest">
<polygon fill="none" stroke="black" points="141,-228.5 141,-247.5 212,-247.5 212,-228.5 141,-228.5"/>
<text text-anchor="middle" x="176.5" y="-235.5" font-family="Helvetica,sans-Serif" font-size="10.00">RandomTest</text>
</a>
</g>
</g>
<!-- Node0&#45;&gt;Node29 -->
<g id="edge29" class="edge"><title>Node0&#45;&gt;Node29</title>
<path fill="none" stroke="midnightblue" d="M43.6923,-636.382C48.453,-564.26 68.3527,-314.99 119,-257 124.65,-250.531 132.576,-246.259 140.707,-243.44"/>
<polygon fill="midnightblue" stroke="midnightblue" points="40.1984,-636.177 43.0559,-646.38 47.1842,-636.622 40.1984,-636.177"/>
</g>
<!-- Node30 -->
<g id="node31" class="node"><title>Node30</title>
<g id="a_node31"><a xlink:href="class_scene_changer.html" target="_top" xlink:title="A set of functions to be called to change scenes smoothly whilst handling the player&#39;s location and a...">
<polygon fill="none" stroke="black" points="136.5,-190.5 136.5,-209.5 216.5,-209.5 216.5,-190.5 136.5,-190.5"/>
<text text-anchor="middle" x="176.5" y="-197.5" font-family="Helvetica,sans-Serif" font-size="10.00">SceneChanger</text>
</a>
</g>
</g>
<!-- Node0&#45;&gt;Node30 -->
<g id="edge30" class="edge"><title>Node0&#45;&gt;Node30</title>
<path fill="none" stroke="midnightblue" d="M43.3511,-636.025C47.016,-559.107 63.854,-283.178 119,-219 123.586,-213.663 129.723,-209.82 136.262,-207.055"/>
<polygon fill="midnightblue" stroke="midnightblue" points="39.8445,-636.093 42.8875,-646.242 46.8373,-636.411 39.8445,-636.093"/>
</g>
<!-- Node31 -->
<g id="node32" class="node"><title>Node31</title>
<g id="a_node32"><a xlink:href="class_sound_manager.html" target="_top" xlink:title="A script to manage all background music and sound effects in the game ">
<polygon fill="none" stroke="black" points="135.5,-152.5 135.5,-171.5 217.5,-171.5 217.5,-152.5 135.5,-152.5"/>
<text text-anchor="middle" x="176.5" y="-159.5" font-family="Helvetica,sans-Serif" font-size="10.00">SoundManager</text>
</a>
</g>
</g>
<!-- Node0&#45;&gt;Node31 -->
<g id="edge31" class="edge"><title>Node0&#45;&gt;Node31</title>
<path fill="none" stroke="midnightblue" d="M43.0481,-635.878C45.6554,-554.592 59.2919,-251.453 119,-181 123.349,-175.868 129.132,-172.118 135.341,-169.378"/>
<polygon fill="midnightblue" stroke="midnightblue" points="39.5398,-636.107 42.7393,-646.207 46.5366,-636.316 39.5398,-636.107"/>
</g>
<!-- Node32 -->
<g id="node33" class="node"><title>Node32</title>
<g id="a_node33"><a xlink:href="class_stats_script.html" target="_top" xlink:title="A script used to manage and update all of the stat displays in the battle scene ">
<polygon fill="none" stroke="black" points="144,-114.5 144,-133.5 209,-133.5 209,-114.5 144,-114.5"/>
<text text-anchor="middle" x="176.5" y="-121.5" font-family="Helvetica,sans-Serif" font-size="10.00">StatsScript</text>
</a>
</g>
</g>
<!-- Node0&#45;&gt;Node32 -->
<g id="edge32" class="edge"><title>Node0&#45;&gt;Node32</title>
<path fill="none" stroke="midnightblue" d="M42.7772,-636.189C44.353,-551.399 54.6022,-219.89 119,-143 125.246,-135.542 134.523,-131 143.763,-128.237"/>
<polygon fill="midnightblue" stroke="midnightblue" points="39.2764,-636.212 42.6104,-646.269 46.2755,-636.328 39.2764,-636.212"/>
</g>
<!-- Node33 -->
<g id="node34" class="node"><title>Node33</title>
<g id="a_node34"><a xlink:href="class_switch_players_script.html" target="_top" xlink:title="Script to handle the menu allowing users to switch players in and out of battle ">
<polygon fill="none" stroke="black" points="124.5,-76.5 124.5,-95.5 228.5,-95.5 228.5,-76.5 124.5,-76.5"/>
<text text-anchor="middle" x="176.5" y="-83.5" font-family="Helvetica,sans-Serif" font-size="10.00">SwitchPlayersScript</text>
</a>
</g>
</g>
<!-- Node0&#45;&gt;Node33 -->
<g id="edge33" class="edge"><title>Node0&#45;&gt;Node33</title>
<path fill="none" stroke="midnightblue" d="M42.5516,-636.163C43.1747,-547.502 49.9835,-188.253 119,-105 122.236,-101.096 126.304,-97.9906 130.765,-95.5208"/>
<polygon fill="midnightblue" stroke="midnightblue" points="39.0505,-636.401 42.5,-646.419 46.0504,-636.437 39.0505,-636.401"/>
</g>
<!-- Node34 -->
<g id="node35" class="node"><title>Node34</title>
<g id="a_node35"><a xlink:href="class_vendor.html" target="_top" xlink:title="To be attatched to the Dialogue component of characters if they are to sell items ...">
<polygon fill="none" stroke="black" points="153,-38.5 153,-57.5 200,-57.5 200,-38.5 153,-38.5"/>
<text text-anchor="middle" x="176.5" y="-45.5" font-family="Helvetica,sans-Serif" font-size="10.00">Vendor</text>
</a>
</g>
</g>
<!-- Node0&#45;&gt;Node34 -->
<g id="edge34" class="edge"><title>Node0&#45;&gt;Node34</title>
<path fill="none" stroke="midnightblue" d="M42.3536,-635.978C42.0737,-543.29 45.3962,-156.586 119,-67 127.278,-56.9249 141.094,-52.1648 152.992,-49.9283"/>
<polygon fill="midnightblue" stroke="midnightblue" points="38.8547,-636.229 42.404,-646.211 45.8546,-636.194 38.8547,-636.229"/>
</g>
<!-- Node35 -->
<g id="node36" class="node"><title>Node35</title>
<g id="a_node36"><a xlink:href="class_world_map_script.html" target="_top" xlink:title="A controler for the world map, stopping players from entering old or future levels, and colouring the departments approriately">
<polygon fill="none" stroke="black" points="133.5,-0.5 133.5,-19.5 219.5,-19.5 219.5,-0.5 133.5,-0.5"/>
<text text-anchor="middle" x="176.5" y="-7.5" font-family="Helvetica,sans-Serif" font-size="10.00">WorldMapScript</text>
</a>
</g>
</g>
<!-- Node0&#45;&gt;Node35 -->
<g id="edge35" class="edge"><title>Node0&#45;&gt;Node35</title>
<path fill="none" stroke="midnightblue" d="M42.1771,-635.914C41.0286,-539.509 40.7685,-124.974 119,-29 122.858,-24.2673 127.938,-20.7069 133.473,-18.0298"/>
<polygon fill="midnightblue" stroke="midnightblue" points="38.6793,-636.1 42.3164,-646.051 45.6786,-636.004 38.6793,-636.1"/>
</g>
</g>
</svg>
