<?xml version="1.0" encoding="UTF-8" standalone="no"?>
<!DOCTYPE svg PUBLIC "-//W3C//DTD SVG 1.1//EN"
 "http://www.w3.org/Graphics/SVG/1.1/DTD/svg11.dtd">
<!-- Generated by graphviz version 2.38.0 (20140413.2041)
 -->
<!-- Title: Graphical Class Hierarchy Pages: 1 -->
<svg width="242pt" height="1282pt"
 viewBox="0.00 0.00 242.00 1282.00" xmlns="http://www.w3.org/2000/svg" xmlns:xlink="http://www.w3.org/1999/xlink">
<g id="graph0" class="graph" transform="scale(1 1) rotate(0) translate(4 1278)">
<title>Graphical Class Hierarchy</title>
<!-- Node0 -->
<g id="node1" class="node"><title>Node0</title>
<g id="a_node1"><a xlink:href="class_mono_behaviour.html" target="_top" target="_top" xlink:title="MonoBehaviour">
<polygon fill="none" stroke="black" points="0,-627.5 0,-646.5 83,-646.5 83,-627.5 0,-627.5"/>
<text text-anchor="middle" x="41.5" y="-634.5" font-family="Helvetica,sans-Serif" font-size="10.00">MonoBehaviour</text>
</a>
</g>
</g>
<!-- Node1 -->
<g id="node2" class="node"><title>Node1</title>
<g id="a_node2"><a xlink:href="class_battle_buttons.html" target="_top" target="_top" xlink:title="Script to handle the function of the Attack Button in the Battle Scene">
<polygon fill="none" stroke="black" points="138.5,-1254.5 138.5,-1273.5 214.5,-1273.5 214.5,-1254.5 138.5,-1254.5"/>
<text text-anchor="middle" x="176.5" y="-1261.5" font-family="Helvetica,sans-Serif" font-size="10.00">BattleButtons</text>
</a>
</g>
</g>
<!-- Node0&#45;&gt;Node1 -->
<g id="edge1" class="edge"><title>Node0&#45;&gt;Node1</title>
<path fill="none" stroke="midnightblue" d="M42.265,-656.767C41.5409,-750.801 43.0065,-1152.13 119,-1245 123.981,-1251.09 130.984,-1255.23 138.369,-1258.06"/>
<polygon fill="midnightblue" stroke="midnightblue" points="45.7659,-656.683 42.3618,-646.65 38.7662,-656.616 45.7659,-656.683"/>
</g>
<!-- Node2 -->
<g id="node3" class="node"><title>Node2</title>
<g id="a_node3"><a xlink:href="class_battle_descriptor.html" target="_top" target="_top" xlink:title="A component that be added to an object to describe the parameters of a battle from within the Unity E...">
<polygon fill="none" stroke="black" points="133.5,-1216.5 133.5,-1235.5 219.5,-1235.5 219.5,-1216.5 133.5,-1216.5"/>
<text text-anchor="middle" x="176.5" y="-1223.5" font-family="Helvetica,sans-Serif" font-size="10.00">BattleDescriptor</text>
</a>
</g>
</g>
<!-- Node0&#45;&gt;Node2 -->
<g id="edge2" class="edge"><title>Node0&#45;&gt;Node2</title>
<path fill="none" stroke="midnightblue" d="M42.4499,-656.958C42.6178,-747.694 47.6984,-1120.59 119,-1207 122.82,-1211.63 127.81,-1215.14 133.242,-1217.79"/>
<polygon fill="midnightblue" stroke="midnightblue" points="45.9498,-656.909 42.4505,-646.909 38.9498,-656.909 45.9498,-656.909"/>
</g>
<!-- Node3 -->
<g id="node4" class="node"><title>Node3</title>
<g id="a_node4"><a xlink:href="class_biology_script.html" target="_top" target="_top" xlink:title="[EXTENSION] &#45; A script to handle taking a player and turning them into a Gorilla for the Biology leve...">
<polygon fill="none" stroke="black" points="139.5,-1178.5 139.5,-1197.5 213.5,-1197.5 213.5,-1178.5 139.5,-1178.5"/>
<text text-anchor="middle" x="176.5" y="-1185.5" font-family="Helvetica,sans-Serif" font-size="10.00">BiologyScript</text>
</a>
</g>
</g>
<!-- Node0&#45;&gt;Node3 -->
<g id="edge3" class="edge"><title>Node0&#45;&gt;Node3</title>
<path fill="none" stroke="midnightblue" d="M42.6591,-656.711C43.7465,-743.265 52.2652,-1088.9 119,-1169 124.233,-1175.28 131.617,-1179.5 139.326,-1182.32"/>
<polygon fill="midnightblue" stroke="midnightblue" points="46.1585,-656.629 42.553,-646.667 39.1589,-656.703 46.1585,-656.629"/>
</g>
<!-- Node4 -->
<g id="node5" class="node"><title>Node4</title>
<g id="a_node5"><a xlink:href="class_camera_controller.html" target="_top" target="_top" xlink:title="Script to move the camera around so that it follows the player">
<polygon fill="none" stroke="black" points="130.5,-1140.5 130.5,-1159.5 222.5,-1159.5 222.5,-1140.5 130.5,-1140.5"/>
<text text-anchor="middle" x="176.5" y="-1147.5" font-family="Helvetica,sans-Serif" font-size="10.00">CameraController</text>
</a>
</g>
</g>
<!-- Node0&#45;&gt;Node4 -->
<g id="edge4" class="edge"><title>Node0&#45;&gt;Node4</title>
<path fill="none" stroke="midnightblue" d="M42.9041,-656.865C44.9801,-739.775 56.9241,-1057.3 119,-1131 122.267,-1134.88 126.353,-1137.97 130.825,-1140.43"/>
<polygon fill="midnightblue" stroke="midnightblue" points="46.4011,-656.69 42.6725,-646.773 39.403,-656.851 46.4011,-656.69"/>
</g>
<!-- Node5 -->
<g id="node6" class="node"><title>Node5</title>
<g id="a_node6"><a xlink:href="class_canvas_script.html" target="_top" target="_top" xlink:title="Added to a canvas holding the dialogue elements to ensure it&#39;s not destroyed when a new scene is crea...">
<polygon fill="none" stroke="black" points="139.5,-1102.5 139.5,-1121.5 213.5,-1121.5 213.5,-1102.5 139.5,-1102.5"/>
<text text-anchor="middle" x="176.5" y="-1109.5" font-family="Helvetica,sans-Serif" font-size="10.00">CanvasScript</text>
</a>
</g>
</g>
<!-- Node0&#45;&gt;Node5 -->
<g id="edge5" class="edge"><title>Node0&#45;&gt;Node5</title>
<path fill="none" stroke="midnightblue" d="M43.1853,-656.831C46.2947,-735.637 61.5218,-1025.63 119,-1093 124.306,-1099.22 131.718,-1103.41 139.43,-1106.23"/>
<polygon fill="midnightblue" stroke="midnightblue" points="46.6811,-656.651 42.8109,-646.788 39.686,-656.911 46.6811,-656.651"/>
</g>
<!-- Node6 -->
<g id="node7" class="node"><title>Node6</title>
<g id="a_node7"><a xlink:href="class_car_controller.html" target="_top" target="_top" xlink:title="A controller to controll the sataus of the minigame and most of its components ">
<polygon fill="none" stroke="black" points="140,-1064.5 140,-1083.5 213,-1083.5 213,-1064.5 140,-1064.5"/>
<text text-anchor="middle" x="176.5" y="-1071.5" font-family="Helvetica,sans-Serif" font-size="10.00">CarController</text>
</a>
</g>
</g>
<!-- Node0&#45;&gt;Node6 -->
<g id="edge6" class="edge"><title>Node0&#45;&gt;Node6</title>
<path fill="none" stroke="midnightblue" d="M43.5299,-657.054C47.763,-731.935 66.1657,-993.99 119,-1055 124.42,-1061.26 131.97,-1065.46 139.789,-1068.28"/>
<polygon fill="midnightblue" stroke="midnightblue" points="47.005,-656.499 42.9691,-646.703 40.0153,-656.878 47.005,-656.499"/>
</g>
<!-- Node7 -->
<g id="node8" class="node"><title>Node7</title>
<g id="a_node8"><a xlink:href="class_car_script.html" target="_top" target="_top" xlink:title="A script to control the cars for the minigame ">
<polygon fill="none" stroke="black" points="148,-1026.5 148,-1045.5 205,-1045.5 205,-1026.5 148,-1026.5"/>
<text text-anchor="middle" x="176.5" y="-1033.5" font-family="Helvetica,sans-Serif" font-size="10.00">CarScript</text>
</a>
</g>
</g>
<!-- Node0&#45;&gt;Node7 -->
<g id="edge7" class="edge"><title>Node0&#45;&gt;Node7</title>
<path fill="none" stroke="midnightblue" d="M43.8941,-656.572C49.2433,-726.412 70.6274,-962.128 119,-1017 126.323,-1025.31 137.394,-1029.99 147.802,-1032.62"/>
<polygon fill="midnightblue" stroke="midnightblue" points="47.378,-656.224 43.1479,-646.51 40.3971,-656.742 47.378,-656.224"/>
</g>
<!-- Node8 -->
<g id="node9" class="node"><title>Node8</title>
<g id="a_node9"><a xlink:href="class_car_spawner.html" target="_top" target="_top" xlink:title="A car spawner to spawn cars when triggered by a controller and give the correct variable to the car ...">
<polygon fill="none" stroke="black" points="142,-988.5 142,-1007.5 211,-1007.5 211,-988.5 142,-988.5"/>
<text text-anchor="middle" x="176.5" y="-995.5" font-family="Helvetica,sans-Serif" font-size="10.00">CarSpawner</text>
</a>
</g>
</g>
<!-- Node0&#45;&gt;Node8 -->
<g id="edge8" class="edge"><title>Node0&#45;&gt;Node8</title>
<path fill="none" stroke="midnightblue" d="M44.3818,-656.689C51.001,-722.042 75.2085,-930.383 119,-979 124.956,-985.613 133.287,-989.927 141.725,-992.74"/>
<polygon fill="midnightblue" stroke="midnightblue" points="47.8445,-656.137 43.3793,-646.529 40.8783,-656.825 47.8445,-656.137"/>
</g>
<!-- Node9 -->
<g id="node10" class="node"><title>Node9</title>
<g id="a_node10"><a xlink:href="class_container_data.html" target="_top" target="_top" xlink:title="An attribute to store information for a container in the item menu ">
<polygon fill="none" stroke="black" points="137.5,-950.5 137.5,-969.5 215.5,-969.5 215.5,-950.5 137.5,-950.5"/>
<text text-anchor="middle" x="176.5" y="-957.5" font-family="Helvetica,sans-Serif" font-size="10.00">ContainerData</text>
</a>
</g>
</g>
<!-- Node0&#45;&gt;Node9 -->
<g id="edge9" class="edge"><title>Node0&#45;&gt;Node9</title>
<path fill="none" stroke="midnightblue" d="M44.9953,-656.83C52.9914,-717.422 79.7684,-898.588 119,-941 123.989,-946.394 130.557,-950.257 137.444,-953.024"/>
<polygon fill="midnightblue" stroke="midnightblue" points="48.4374,-656.155 43.685,-646.686 41.495,-657.052 48.4374,-656.155"/>
</g>
<!-- Node10 -->
<g id="node11" class="node"><title>Node10</title>
<g id="a_node11"><a xlink:href="class_dialogue_script.html" target="_top" target="_top" xlink:title="Script to show dialogue, as well as step through multiple lines and close afterwards ...">
<polygon fill="none" stroke="black" points="136.5,-912.5 136.5,-931.5 216.5,-931.5 216.5,-912.5 136.5,-912.5"/>
<text text-anchor="middle" x="176.5" y="-919.5" font-family="Helvetica,sans-Serif" font-size="10.00">DialogueScript</text>
</a>
</g>
</g>
<!-- Node0&#45;&gt;Node10 -->
<g id="edge10" class="edge"><title>Node0&#45;&gt;Node10</title>
<path fill="none" stroke="midnightblue" d="M42.2983,-656.602C42.8829,-705.143 51.1943,-832.117 119,-903 123.793,-908.01 129.947,-911.7 136.422,-914.416"/>
<polygon fill="midnightblue" stroke="midnightblue" points="45.7982,-656.503 42.28,-646.51 38.7982,-656.516 45.7982,-656.503"/>
</g>
<!-- Node11 -->
<g id="node12" class="node"><title>Node11</title>
<g id="a_node12"><a xlink:href="class_end_script.html" target="_top" target="_top" xlink:title="Script to manage the end credits screen ">
<polygon fill="none" stroke="black" points="147,-874.5 147,-893.5 206,-893.5 206,-874.5 147,-874.5"/>
<text text-anchor="middle" x="176.5" y="-881.5" font-family="Helvetica,sans-Serif" font-size="10.00">EndScript</text>
</a>
</g>
</g>
<!-- Node0&#45;&gt;Node11 -->
<g id="edge11" class="edge"><title>Node0&#45;&gt;Node11</title>
<path fill="none" stroke="midnightblue" d="M43.4444,-657.004C46.5929,-700.846 60.2101,-806.17 119,-865 126.462,-872.467 136.947,-877 146.861,-879.751"/>
<polygon fill="midnightblue" stroke="midnightblue" points="46.9246,-656.57 42.8263,-646.8 39.9374,-656.994 46.9246,-656.57"/>
</g>
<!-- Node12 -->
<g id="node13" class="node"><title>Node12</title>
<g id="a_node13"><a xlink:href="class_exploration_menu_script.html" target="_top" target="_top" xlink:title="A script to manage the exploration menu that the user can call up at anytime ">
<polygon fill="none" stroke="black" points="119,-836.5 119,-855.5 234,-855.5 234,-836.5 119,-836.5"/>
<text text-anchor="middle" x="176.5" y="-843.5" font-family="Helvetica,sans-Serif" font-size="10.00">ExplorationMenuScript</text>
</a>
</g>
</g>
<!-- Node0&#45;&gt;Node12 -->
<g id="edge12" class="edge"><title>Node0&#45;&gt;Node12</title>
<path fill="none" stroke="midnightblue" d="M44.9698,-656.787C50.7858,-695.078 68.8527,-779.698 119,-827 123.14,-830.906 128.11,-834.01 133.361,-836.477"/>
<polygon fill="midnightblue" stroke="midnightblue" points="48.4361,-656.302 43.5865,-646.882 41.5034,-657.27 48.4361,-656.302"/>
</g>
<!-- Node13 -->
<g id="node14" class="node"><title>Node13</title>
<g id="a_node14"><a xlink:href="class_global_functions.html" target="_top" target="_top" xlink:title="Provides functions and variables to be accessed by any game object to allow data to be passed between...">
<polygon fill="none" stroke="black" points="133,-798.5 133,-817.5 220,-817.5 220,-798.5 133,-798.5"/>
<text text-anchor="middle" x="176.5" y="-805.5" font-family="Helvetica,sans-Serif" font-size="10.00">GlobalFunctions</text>
</a>
</g>
</g>
<!-- Node0&#45;&gt;Node13 -->
<g id="edge13" class="edge"><title>Node0&#45;&gt;Node13</title>
<path fill="none" stroke="midnightblue" d="M47.2114,-656.771C55.9003,-689.028 77.4749,-752.985 119,-789 123.456,-792.865 128.729,-795.951 134.234,-798.413"/>
<polygon fill="midnightblue" stroke="midnightblue" points="50.5264,-655.606 44.6638,-646.781 43.7435,-657.336 50.5264,-655.606"/>
</g>
<!-- Node14 -->
<g id="node15" class="node"><title>Node14</title>
<g id="a_node15"><a xlink:href="class_healing_station.html" target="_top" target="_top" xlink:title="A script describing a healing station, where all player&#39;s health and magic are restored ...">
<polygon fill="none" stroke="black" points="136.5,-760.5 136.5,-779.5 216.5,-779.5 216.5,-760.5 136.5,-760.5"/>
<text text-anchor="middle" x="176.5" y="-767.5" font-family="Helvetica,sans-Serif" font-size="10.00">HealingStation</text>
</a>
</g>
</g>
<!-- Node0&#45;&gt;Node14 -->
<g id="edge14" class="edge"><title>Node0&#45;&gt;Node14</title>
<path fill="none" stroke="midnightblue" d="M50.5177,-656.077C62.0617,-681.317 85.6992,-725.575 119,-751 124.182,-754.956 130.235,-758.116 136.417,-760.632"/>
<polygon fill="midnightblue" stroke="midnightblue" points="53.6766,-654.565 46.4413,-646.826 47.271,-657.388 53.6766,-654.565"/>
</g>
<!-- Node15 -->
<g id="node16" class="node"><title>Node15</title>
<g id="a_node16"><a xlink:href="class_items_menu_script.html" target="_top" target="_top" xlink:title="Controls all initialisation of menu and updates arrays when an item is moved ">
<polygon fill="none" stroke="black" points="131.5,-722.5 131.5,-741.5 221.5,-741.5 221.5,-722.5 131.5,-722.5"/>
<text text-anchor="middle" x="176.5" y="-729.5" font-family="Helvetica,sans-Serif" font-size="10.00">ItemsMenuScript</text>
</a>
</g>
</g>
<!-- Node0&#45;&gt;Node15 -->
<g id="edge15" class="edge"><title>Node0&#45;&gt;Node15</title>
<path fill="none" stroke="midnightblue" d="M56.1537,-654.65C70.226,-671.751 93.6354,-697.335 119,-713 125.075,-716.752 131.98,-719.862 138.826,-722.403"/>
<polygon fill="midnightblue" stroke="midnightblue" points="58.6697,-652.193 49.6851,-646.578 53.2073,-656.57 58.6697,-652.193"/>
</g>
<!-- Node16 -->
<g id="node17" class="node"><title>Node16</title>
<g id="a_node17"><a xlink:href="class_level_manager.html" target="_top" target="_top" xlink:title="A script used to check and handle when a level is beat by defeating the final boss ...">
<polygon fill="none" stroke="black" points="138.5,-684.5 138.5,-703.5 214.5,-703.5 214.5,-684.5 138.5,-684.5"/>
<text text-anchor="middle" x="176.5" y="-691.5" font-family="Helvetica,sans-Serif" font-size="10.00">LevelManager</text>
</a>
</g>
</g>
<!-- Node0&#45;&gt;Node16 -->
<g id="edge16" class="edge"><title>Node0&#45;&gt;Node16</title>
<path fill="none" stroke="midnightblue" d="M69.0388,-651.302C83.5716,-658.847 102.029,-667.97 119,-675 127.222,-678.406 136.297,-681.668 144.722,-684.498"/>
<polygon fill="midnightblue" stroke="midnightblue" points="70.5907,-648.163 60.1105,-646.609 67.334,-654.36 70.5907,-648.163"/>
</g>
<!-- Node17 -->
<g id="node18" class="node"><title>Node17</title>
<g id="a_node18"><a xlink:href="class_main_battle.html" target="_top" target="_top" xlink:title="Script for handing a battle scene. Uses BattleManager, but handles turn order and execution as well a...">
<polygon fill="none" stroke="black" points="145,-646.5 145,-665.5 208,-665.5 208,-646.5 145,-646.5"/>
<text text-anchor="middle" x="176.5" y="-653.5" font-family="Helvetica,sans-Serif" font-size="10.00">MainBattle</text>
</a>
</g>
</g>
<!-- Node0&#45;&gt;Node17 -->
<g id="edge17" class="edge"><title>Node0&#45;&gt;Node17</title>
<path fill="none" stroke="midnightblue" d="M93.1585,-644.237C110.564,-646.723 129.507,-649.43 144.831,-651.619"/>
<polygon fill="midnightblue" stroke="midnightblue" points="93.5216,-640.753 83.1271,-642.804 92.5316,-647.683 93.5216,-640.753"/>
</g>
<!-- Node18 -->
<g id="node19" class="node"><title>Node18</title>
<g id="a_node19"><a xlink:href="class_menu_script.html" target="_top" target="_top" xlink:title="Script to handle the main menu ">
<polygon fill="none" stroke="black" points="143.5,-608.5 143.5,-627.5 209.5,-627.5 209.5,-608.5 143.5,-608.5"/>
<text text-anchor="middle" x="176.5" y="-615.5" font-family="Helvetica,sans-Serif" font-size="10.00">MenuScript</text>
</a>
</g>
</g>
<!-- Node0&#45;&gt;Node18 -->
<g id="edge18" class="edge"><title>Node0&#45;&gt;Node18</title>
<path fill="none" stroke="midnightblue" d="M93.3162,-629.741C110.037,-627.352 128.161,-624.763 143.124,-622.625"/>
<polygon fill="midnightblue" stroke="midnightblue" points="92.5316,-626.317 83.1271,-631.196 93.5216,-633.247 92.5316,-626.317"/>
</g>
<!-- Node19 -->
<g id="node20" class="node"><title>Node19</title>
<g id="a_node20"><a xlink:href="class_mini_move.html" target="_top" target="_top" xlink:title="The movement for the minigame character, includes movement and progression control ...">
<polygon fill="none" stroke="black" points="148,-570.5 148,-589.5 205,-589.5 205,-570.5 148,-570.5"/>
<text text-anchor="middle" x="176.5" y="-577.5" font-family="Helvetica,sans-Serif" font-size="10.00">MiniMove</text>
</a>
</g>
</g>
<!-- Node0&#45;&gt;Node19 -->
<g id="edge19" class="edge"><title>Node0&#45;&gt;Node19</title>
<path fill="none" stroke="midnightblue" d="M69.0388,-622.698C83.5716,-615.153 102.029,-606.03 119,-599 128.274,-595.158 138.632,-591.5 147.921,-588.438"/>
<polygon fill="midnightblue" stroke="midnightblue" points="67.334,-619.64 60.1105,-627.391 70.5907,-625.837 67.334,-619.64"/>
</g>
<!-- Node20 -->
<g id="node21" class="node"><title>Node20</title>
<g id="a_node21"><a xlink:href="class_object_interaction.html" target="_top" target="_top" xlink:title="A component to add to collider relating to an object that can interact with the player by pressing th...">
<polygon fill="none" stroke="black" points="131.5,-532.5 131.5,-551.5 221.5,-551.5 221.5,-532.5 131.5,-532.5"/>
<text text-anchor="middle" x="176.5" y="-539.5" font-family="Helvetica,sans-Serif" font-size="10.00">ObjectInteraction</text>
</a>
</g>
</g>
<!-- Node0&#45;&gt;Node20 -->
<g id="edge20" class="edge"><title>Node0&#45;&gt;Node20</title>
<path fill="none" stroke="midnightblue" d="M56.1537,-619.35C70.226,-602.249 93.6354,-576.665 119,-561 125.075,-557.248 131.98,-554.138 138.826,-551.597"/>
<polygon fill="midnightblue" stroke="midnightblue" points="53.2073,-617.43 49.6851,-627.422 58.6697,-621.807 53.2073,-617.43"/>
</g>
<!-- Node21 -->
<g id="node22" class="node"><title>Node21</title>
<g id="a_node22"><a xlink:href="class_player_data.html" target="_top" target="_top" xlink:title="A monobehaviour object to house an instance of DataManager so it can be called by other objects ...">
<polygon fill="none" stroke="black" points="144,-494.5 144,-513.5 209,-513.5 209,-494.5 144,-494.5"/>
<text text-anchor="middle" x="176.5" y="-501.5" font-family="Helvetica,sans-Serif" font-size="10.00">PlayerData</text>
</a>
</g>
</g>
<!-- Node0&#45;&gt;Node21 -->
<g id="edge21" class="edge"><title>Node0&#45;&gt;Node21</title>
<path fill="none" stroke="midnightblue" d="M50.5177,-617.923C62.0617,-592.683 85.6992,-548.425 119,-523 126.238,-517.474 135.177,-513.501 143.791,-510.668"/>
<polygon fill="midnightblue" stroke="midnightblue" points="47.271,-616.612 46.4413,-627.174 53.6766,-619.435 47.271,-616.612"/>
</g>
<!-- Node22 -->
<g id="node23" class="node"><title>Node22</title>
<g id="a_node23"><a xlink:href="class_player_menu.html" target="_top" target="_top" xlink:title="Script for controlling the menu which allows users to switch the order of their team members ...">
<polygon fill="none" stroke="black" points="142.5,-456.5 142.5,-475.5 210.5,-475.5 210.5,-456.5 142.5,-456.5"/>
<text text-anchor="middle" x="176.5" y="-463.5" font-family="Helvetica,sans-Serif" font-size="10.00">PlayerMenu</text>
</a>
</g>
</g>
<!-- Node0&#45;&gt;Node22 -->
<g id="edge22" class="edge"><title>Node0&#45;&gt;Node22</title>
<path fill="none" stroke="midnightblue" d="M47.2114,-617.229C55.9003,-584.972 77.4749,-521.015 119,-485 125.645,-479.236 134.106,-475.206 142.445,-472.392"/>
<polygon fill="midnightblue" stroke="midnightblue" points="43.7435,-616.664 44.6638,-627.219 50.5264,-618.394 43.7435,-616.664"/>
</g>
<!-- Node23 -->
<g id="node24" class="node"><title>Node23</title>
<g id="a_node24"><a xlink:href="class_player_movement.html" target="_top" target="_top" xlink:title="A script to control the movement and animations of the player">
<polygon fill="none" stroke="black" points="132,-418.5 132,-437.5 221,-437.5 221,-418.5 132,-418.5"/>
<text text-anchor="middle" x="176.5" y="-425.5" font-family="Helvetica,sans-Serif" font-size="10.00">PlayerMovement</text>
</a>
</g>
</g>
<!-- Node0&#45;&gt;Node23 -->
<g id="edge23" class="edge"><title>Node0&#45;&gt;Node23</title>
<path fill="none" stroke="midnightblue" d="M44.9698,-617.213C50.7858,-578.922 68.8527,-494.302 119,-447 123.14,-443.094 128.11,-439.99 133.361,-437.523"/>
<polygon fill="midnightblue" stroke="midnightblue" points="41.5034,-616.73 43.5865,-627.118 48.4361,-617.698 41.5034,-616.73"/>
</g>
<!-- Node24 -->
<g id="node25" class="node"><title>Node24</title>
<g id="a_node25"><a xlink:href="class_portal.html" target="_top" target="_top" xlink:title="A component to add to an object, such as when the player touches it they are teleported to a new scen...">
<polygon fill="none" stroke="black" points="155.5,-380.5 155.5,-399.5 197.5,-399.5 197.5,-380.5 155.5,-380.5"/>
<text text-anchor="middle" x="176.5" y="-387.5" font-family="Helvetica,sans-Serif" font-size="10.00">Portal</text>
</a>
</g>
</g>
<!-- Node0&#45;&gt;Node24 -->
<g id="edge24" class="edge"><title>Node0&#45;&gt;Node24</title>
<path fill="none" stroke="midnightblue" d="M43.4444,-616.996C46.5929,-573.154 60.2101,-467.83 119,-409 128.656,-399.337 143.376,-394.588 155.37,-392.254"/>
<polygon fill="midnightblue" stroke="midnightblue" points="39.9374,-617.006 42.8263,-627.2 46.9246,-617.43 39.9374,-617.006"/>
</g>
<!-- Node25 -->
<g id="node26" class="node"><title>Node25</title>
<g id="a_node26"><a xlink:href="class_q_manager_obj.html" target="_top" target="_top" xlink:title="A Unity Object to house the QuestManager for easy access from other scripts ">
<polygon fill="none" stroke="black" points="138,-342.5 138,-361.5 215,-361.5 215,-342.5 138,-342.5"/>
<text text-anchor="middle" x="176.5" y="-349.5" font-family="Helvetica,sans-Serif" font-size="10.00">QManagerObj</text>
</a>
</g>
</g>
<!-- Node0&#45;&gt;Node25 -->
<g id="edge25" class="edge"><title>Node0&#45;&gt;Node25</title>
<path fill="none" stroke="midnightblue" d="M42.2983,-617.398C42.8829,-568.857 51.1943,-441.883 119,-371 124.151,-365.616 130.873,-361.757 137.876,-358.992"/>
<polygon fill="midnightblue" stroke="midnightblue" points="38.7982,-617.484 42.28,-627.49 45.7982,-617.497 38.7982,-617.484"/>
</g>
<!-- Node26 -->
<g id="node27" class="node"><title>Node26</title>
<g id="a_node27"><a xlink:href="class_quest_instances.html" target="_top" target="_top" xlink:title="A class storing all the pre&#45;defined quests that the user can choose from ">
<polygon fill="none" stroke="black" points="134,-304.5 134,-323.5 219,-323.5 219,-304.5 134,-304.5"/>
<text text-anchor="middle" x="176.5" y="-311.5" font-family="Helvetica,sans-Serif" font-size="10.00">QuestInstances</text>
</a>
</g>
</g>
<!-- Node0&#45;&gt;Node26 -->
<g id="edge26" class="edge"><title>Node0&#45;&gt;Node26</title>
<path fill="none" stroke="midnightblue" d="M44.9953,-617.17C52.9914,-556.578 79.7684,-375.412 119,-333 123.146,-328.518 128.382,-325.092 133.986,-322.475"/>
<polygon fill="midnightblue" stroke="midnightblue" points="41.495,-616.948 43.685,-627.314 48.4374,-617.845 41.495,-616.948"/>
</g>
<!-- Node27 -->
<g id="node28" class="node"><title>Node27</title>
<g id="a_node28"><a xlink:href="class_quest_selection_script.html" target="_top" target="_top" xlink:title="Script to handle the quest selection menu ">
<polygon fill="none" stroke="black" points="122,-266.5 122,-285.5 231,-285.5 231,-266.5 122,-266.5"/>
<text text-anchor="middle" x="176.5" y="-273.5" font-family="Helvetica,sans-Serif" font-size="10.00">QuestSelectionScript</text>
</a>
</g>
</g>
<!-- Node0&#45;&gt;Node27 -->
<g id="edge27" class="edge"><title>Node0&#45;&gt;Node27</title>
<path fill="none" stroke="midnightblue" d="M44.3818,-617.311C51.001,-551.958 75.2085,-343.617 119,-295 122.463,-291.155 126.729,-288.088 131.351,-285.64"/>
<polygon fill="midnightblue" stroke="midnightblue" points="40.8783,-617.175 43.3793,-627.471 47.8445,-617.863 40.8783,-617.175"/>
</g>
<!-- Node28 -->
<g id="node29" class="node"><title>Node28</title>
<g id="a_node29"><a xlink:href="class_random_test.html" target="_top" target="_top" xlink:title="RandomTest">
<polygon fill="none" stroke="black" points="141,-228.5 141,-247.5 212,-247.5 212,-228.5 141,-228.5"/>
<text text-anchor="middle" x="176.5" y="-235.5" font-family="Helvetica,sans-Serif" font-size="10.00">RandomTest</text>
</a>
</g>
</g>
<!-- Node0&#45;&gt;Node28 -->
<g id="edge28" class="edge"><title>Node0&#45;&gt;Node28</title>
<path fill="none" stroke="midnightblue" d="M43.8941,-617.428C49.2433,-547.588 70.6274,-311.872 119,-257 124.68,-250.557 132.616,-246.294 140.748,-243.476"/>
<polygon fill="midnightblue" stroke="midnightblue" points="40.3971,-617.258 43.1479,-627.49 47.378,-617.776 40.3971,-617.258"/>
</g>
<!-- Node29 -->
<g id="node30" class="node"><title>Node29</title>
<g id="a_node30"><a xlink:href="class_scene_changer.html" target="_top" target="_top" xlink:title="A set of functions to be called to change scenes smoothly whilst handling the player&#39;s location and a...">
<polygon fill="none" stroke="black" points="136.5,-190.5 136.5,-209.5 216.5,-209.5 216.5,-190.5 136.5,-190.5"/>
<text text-anchor="middle" x="176.5" y="-197.5" font-family="Helvetica,sans-Serif" font-size="10.00">SceneChanger</text>
</a>
</g>
</g>
<!-- Node0&#45;&gt;Node29 -->
<g id="edge29" class="edge"><title>Node0&#45;&gt;Node29</title>
<path fill="none" stroke="midnightblue" d="M43.5299,-616.946C47.763,-542.065 66.1657,-280.01 119,-219 123.607,-213.68 129.753,-209.846 136.295,-207.084"/>
<polygon fill="midnightblue" stroke="midnightblue" points="40.0153,-617.122 42.9691,-627.297 47.005,-617.501 40.0153,-617.122"/>
</g>
<!-- Node30 -->
<g id="node31" class="node"><title>Node30</title>
<g id="a_node31"><a xlink:href="class_sound_manager.html" target="_top" target="_top" xlink:title="A script to manage all background music and sound effects in the game ">
<polygon fill="none" stroke="black" points="135.5,-152.5 135.5,-171.5 217.5,-171.5 217.5,-152.5 135.5,-152.5"/>
<text text-anchor="middle" x="176.5" y="-159.5" font-family="Helvetica,sans-Serif" font-size="10.00">SoundManager</text>
</a>
</g>
</g>
<!-- Node0&#45;&gt;Node30 -->
<g id="edge30" class="edge"><title>Node0&#45;&gt;Node30</title>
<path fill="none" stroke="midnightblue" d="M43.1853,-617.169C46.2947,-538.363 61.5218,-248.374 119,-181 123.366,-175.883 129.157,-172.139 135.368,-169.401"/>
<polygon fill="midnightblue" stroke="midnightblue" points="39.686,-617.089 42.8109,-627.212 46.6811,-617.349 39.686,-617.089"/>
</g>
<!-- Node31 -->
<g id="node32" class="node"><title>Node31</title>
<g id="a_node32"><a xlink:href="class_stats_script.html" target="_top" target="_top" xlink:title="A script used to manage and update all of the stat displays in the battle scene ">
<polygon fill="none" stroke="black" points="144,-114.5 144,-133.5 209,-133.5 209,-114.5 144,-114.5"/>
<text text-anchor="middle" x="176.5" y="-121.5" font-family="Helvetica,sans-Serif" font-size="10.00">StatsScript</text>
</a>
</g>
</g>
<!-- Node0&#45;&gt;Node31 -->
<g id="edge31" class="edge"><title>Node0&#45;&gt;Node31</title>
<path fill="none" stroke="midnightblue" d="M42.9041,-617.135C44.9801,-534.225 56.9241,-216.697 119,-143 125.267,-135.56 134.549,-131.022 143.788,-128.258"/>
<polygon fill="midnightblue" stroke="midnightblue" points="39.403,-617.149 42.6725,-627.227 46.4011,-617.31 39.403,-617.149"/>
</g>
<!-- Node32 -->
<g id="node33" class="node"><title>Node32</title>
<g id="a_node33"><a xlink:href="class_switch_players_script.html" target="_top" target="_top" xlink:title="Script to handle the menu allowing users to switch players in and out of battle ">
<polygon fill="none" stroke="black" points="124.5,-76.5 124.5,-95.5 228.5,-95.5 228.5,-76.5 124.5,-76.5"/>
<text text-anchor="middle" x="176.5" y="-83.5" font-family="Helvetica,sans-Serif" font-size="10.00">SwitchPlayersScript</text>
</a>
</g>
</g>
<!-- Node0&#45;&gt;Node32 -->
<g id="edge32" class="edge"><title>Node0&#45;&gt;Node32</title>
<path fill="none" stroke="midnightblue" d="M42.6591,-617.289C43.7465,-530.735 52.2652,-185.103 119,-105 122.246,-101.104 126.319,-98.0033 130.784,-95.5363"/>
<polygon fill="midnightblue" stroke="midnightblue" points="39.1589,-617.297 42.553,-627.333 46.1585,-617.371 39.1589,-617.297"/>
</g>
<!-- Node33 -->
<g id="node34" class="node"><title>Node33</title>
<g id="a_node34"><a xlink:href="class_vendor.html" target="_top" target="_top" xlink:title="To be attatched to the Dialogue component of characters if they are to sell items ...">
<polygon fill="none" stroke="black" points="153,-38.5 153,-57.5 200,-57.5 200,-38.5 153,-38.5"/>
<text text-anchor="middle" x="176.5" y="-45.5" font-family="Helvetica,sans-Serif" font-size="10.00">Vendor</text>
</a>
</g>
</g>
<!-- Node0&#45;&gt;Node33 -->
<g id="edge33" class="edge"><title>Node0&#45;&gt;Node33</title>
<path fill="none" stroke="midnightblue" d="M42.4499,-617.042C42.6178,-526.306 47.6984,-153.408 119,-67 127.233,-57.0224 140.897,-52.2586 152.725,-49.9958"/>
<polygon fill="midnightblue" stroke="midnightblue" points="38.9498,-617.091 42.4505,-627.091 45.9498,-617.091 38.9498,-617.091"/>
</g>
<!-- Node34 -->
<g id="node35" class="node"><title>Node34</title>
<g id="a_node35"><a xlink:href="class_world_map_script.html" target="_top" target="_top" xlink:title="A controler for the world map, stopping players from entering old or future levels, and colouring the departments approriately">
<polygon fill="none" stroke="black" points="133.5,-0.5 133.5,-19.5 219.5,-19.5 219.5,-0.5 133.5,-0.5"/>
<text text-anchor="middle" x="176.5" y="-7.5" font-family="Helvetica,sans-Serif" font-size="10.00">WorldMapScript</text>
</a>
</g>
</g>
<!-- Node0&#45;&gt;Node34 -->
<g id="edge34" class="edge"><title>Node0&#45;&gt;Node34</title>
<path fill="none" stroke="midnightblue" d="M42.265,-617.233C41.5409,-523.199 43.0065,-121.872 119,-29 122.867,-24.2746 127.952,-20.7181 133.489,-18.0427"/>
<polygon fill="midnightblue" stroke="midnightblue" points="38.7662,-617.384 42.3618,-627.35 45.7659,-617.317 38.7662,-617.384"/>
</g>
</g>
</svg>
